<svg xmlns="http://www.w3.org/2000/svg" width="348" height="27" viewBox="0 0 348 27">
  <g id="Group_11846" data-name="Group 11846" transform="translate(-4170 -25)">
    <g id="Group_11839" data-name="Group 11839">
      <g id="Group_11836" data-name="Group 11836" transform="translate(4186.969 26)">
        <path id="Path_6665" data-name="Path 6665" d="M704.55,87.237a5.146,5.146,0,0,1-1.852-.463C703.422,85.248,704.333,86.162,704.55,87.237Zm-1.163-2.214a2.187,2.187,0,0,0-.852,1.07,4.927,4.927,0,0,1-.777,1.322,2.715,2.715,0,0,1-2.173.639c-.4-.041-.584-.3-.811-.671-.105-.189-.339-.6-.339-.6-.1-.218-.221-.245-.277-.008l-.218.918a.446.446,0,0,0,.058.39,10.334,10.334,0,0,1,.954,3.027c-.879,1.727-4.13,2.351-5.514,1.621a2.349,2.349,0,0,1-1-3.469c.21-.41-.017-.432-.226-.111a3.4,3.4,0,0,0,.15,4.324c1.233,1.433,5.323,1.015,6.584-.981a8.749,8.749,0,0,0,.462-3.16,2.551,2.551,0,0,0,2.874-1.65,5.612,5.612,0,0,0,2.541.9c.17.019.35.026.4-.157a3.217,3.217,0,0,0,.124-.543,1.741,1.741,0,0,0,.016-.711,3.111,3.111,0,0,0-1.012-2.02.764.764,0,0,0-.959-.122ZM695,84.246c-.17.264-.4.665-.529.906-.053.1-.051.168.062.226.222.113.611.318.888.459.115.059.184.05.238-.032.154-.241.377-.61.52-.845.051-.084.065-.15-.02-.2-.262-.154-.69-.4-.954-.549C695.094,84.151,695.046,84.168,695,84.246Zm9.136-3.509-.227.411c-.026.045-.047.079-.027.128a1.3,1.3,0,0,1,.116.463.574.574,0,0,1-.768.125.66.66,0,0,1-.172-.571c.009-.188.032-.26-.14-.126-.225.175-.165.158-.178.257-.079.619-.356.9-.853.93-.313.02-.541-.19-.324-.784.046-.126-.048-.261-.184,0-.466.9-.183,1.394.292,1.461a1.042,1.042,0,0,0,1.085-.723.79.79,0,0,0,.877.288.78.78,0,0,0,.634-.623,1.939,1.939,0,0,0-.039-1.239C704.2,80.65,704.15,80.7,704.132,80.737Zm1.143-3.117c-.929.373-5.112,1.667-5.927,2-.053.022-.08.032-.1.1-.033.093-.177.459-.222.623-.017.067.044.065.1.043.113-.044.3-.148.433-.191.678-.226,4.625-1.5,5.45-1.819a.212.212,0,0,0,.124-.1c.05-.111.17-.432.216-.591C705.368,77.619,705.331,77.6,705.275,77.62Zm-19.307,7.81c-.044.232-.118.928,0,.944a1.265,1.265,0,0,1,.726.009,4.441,4.441,0,0,1,1.684,2.593,7.284,7.284,0,0,1-2.629.517c-.212,0-.608-.04-.715-.218-.124-.208-.192-.16-.237.036a4.965,4.965,0,0,0-.116.818c-.011.341.447.5.726.5a7.257,7.257,0,0,0,3-.565c.2-.106.288-.471.306-.88a4.244,4.244,0,0,0-.647-2.642c-.462-.717-1.1-1.367-1.752-1.38A.312.312,0,0,0,685.968,85.43Zm-.785-3.742c-.171.264-.4.665-.53.907-.053.1-.051.168.063.225.221.113.611.319.888.46.115.058.184.05.238-.032.154-.241.377-.61.519-.845.053-.084.066-.149-.019-.2-.263-.154-.69-.4-.954-.55C685.279,81.592,685.232,81.61,685.182,81.687Zm-3.831-2.895-.2.952a.983.983,0,0,0,0,.525c.114.629.265,1.253.394,1.874.319,1.489.771,3.766,1.044,5.14a21.1,21.1,0,0,1,.381,3c.009.176.112.166.159.026a4.981,4.981,0,0,0,.236-1.616,16.039,16.039,0,0,0-.378-2.574c-.26-1.234-.666-3.386-.912-4.508-.21-.954-.412-1.909-.532-2.834-.014-.106-.062-.14-.1-.129S681.367,78.709,681.351,78.792Zm6.152-1.178c-.928.373-3.518,1.366-4.333,1.7-.054.022-.08.033-.1.1-.031.093-.132.4-.177.563-.018.067.045.066.1.043.112-.044.256-.126.384-.176.642-.258,3.082-1.218,3.905-1.533a.211.211,0,0,0,.124-.1,5.515,5.515,0,0,0,.172-.53C687.6,77.613,687.559,77.59,687.5,77.614ZM672.222,91.583c-.929.373-3.519,1.366-4.334,1.7-.053.023-.08.033-.1.1-.032.093-.133.4-.178.563-.017.067.045.065.1.043.113-.044.257-.126.385-.176.642-.258,3.081-1.218,3.9-1.534a.207.207,0,0,0,.125-.1,5.513,5.513,0,0,0,.172-.53C672.315,91.582,672.278,91.559,672.222,91.583Zm-7.654-7.947A6.467,6.467,0,0,0,661.8,86.9c-.474,1.37-.158,1.968.553,2.377.9.52,2.467.079,2.926.346.079.048.079.048.016.111a7.916,7.916,0,0,1-4.759,2.11c-2.087.079-3.779-1.512-2.308-4.708.11-.268-.079-.441-.285-.1-1.518,2.788-.854,4.929.585,5.67,2.118,1.039,5.312-.268,6.894-1.985A2.009,2.009,0,0,0,665.9,90a1.4,1.4,0,0,0-.142-1.4c-.3-.315-.948-.173-1.518-.173-.886.016-1.676-.126-1.975-.6a.657.657,0,0,1-.017-.8,5.364,5.364,0,0,1,2.1-2.094c.505-.2.98-.095,1.376.74.11.205.268.173.316-.031l.158-.709a.74.74,0,0,0-.079-.488C665.691,83.558,665.184,83.4,664.569,83.636Zm5.573-2.974c-.17.264-.4.665-.529.907-.053.1-.05.168.062.225.221.113.611.319.888.46.115.058.185.05.238-.032.153-.241.377-.61.52-.846.051-.084.065-.149-.02-.2-.263-.154-.691-.4-.954-.55C670.239,80.567,670.192,80.585,670.142,80.663Zm7.347-1.635c-.042.009-.081.066-.1.149l-.194.952a.972.972,0,0,0,0,.525c.114.629.264,1.253.394,1.874.318,1.489.771,3.766,1.044,5.14a21.1,21.1,0,0,1,.382,3c.008.176.112.166.159.026a4.978,4.978,0,0,0,.236-1.616,16.01,16.01,0,0,0-.378-2.574c-.261-1.234-.666-3.385-.912-4.508-.21-.954-.412-1.909-.532-2.834C677.578,79.051,677.53,79.018,677.489,79.028Zm-3.665-.616a.237.237,0,0,0-.121.143c-.131.267-.288.562-.42.831a.378.378,0,0,0,.041.337,4.307,4.307,0,0,0,.365.689c.242,1.01.608,2.431.8,3.221.4,1.729.96,3.881,1.3,5.566a.649.649,0,0,1-.783.572,1.993,1.993,0,0,1-.986-.455,4.272,4.272,0,0,1-1.339-2.182c-.337-.928-.815-2.627-1.015-3.481-.03-.118-.05-.2-.08-.2-.032.015-.065.077-.1.2l-.135.792a.425.425,0,0,0,.014.312c.143.538.41,1.607.73,2.675a.445.445,0,0,1-.027.39,3.793,3.793,0,0,1-3.055,1.194c-.751-.014-.633-.3-.771-.377-.154-.088-.215.149-.229.208A2.693,2.693,0,0,0,668,89.9c.046.264.234.349.541.364a6.784,6.784,0,0,0,2.366-.378,2.293,2.293,0,0,0,1.459-1.571c.443,1.283.984,2.384,2.217,2.728.925.258,1.351-.161,1.541-1.065a8.327,8.327,0,0,0-.27-3.624c-.332-1.48-.835-3.279-1.149-4.67-.069-.293-.186-.681-.257-.975.118-.165.258-.354.392-.52a.364.364,0,0,0-.014-.428,3.372,3.372,0,0,1-.825-1.2C673.935,78.422,673.869,78.4,673.823,78.412Zm5.329-2.223a.421.421,0,0,1,.162.292c-.129.276-.95.552-1.261.633-.06.009-.384.075-.355-.014a3.915,3.915,0,0,1,.642-.835C678.6,76.053,678.878,75.956,679.152,76.189Zm-.785-.512a6.963,6.963,0,0,0-1.063,1.428,2.155,2.155,0,0,1-.6-.234c-.191-.088-.317.1-.4.237a4.255,4.255,0,0,0-.444.862l-.11.294c0,.129.059.167.163.063.22-.211.387-.784.524-.709a2.389,2.389,0,0,0,2.429-.214,1.58,1.58,0,0,0,.826-1.618.676.676,0,0,0-.591-.467A1.062,1.062,0,0,0,678.367,75.677Zm-3.713-.4-.228.41c-.025.046-.047.079-.026.127a1.338,1.338,0,0,1,.116.465.573.573,0,0,1-.768.123.656.656,0,0,1-.173-.57c.009-.188.032-.261-.139-.126-.225.176-.165.158-.178.258-.08.62-.356.9-.853.93-.314.021-.541-.189-.324-.784.046-.127-.049-.261-.184,0-.466.9-.182,1.393.292,1.461a1.039,1.039,0,0,0,1.085-.722.79.79,0,0,0,.877.287c.422-.1.513-.293.634-.622a1.942,1.942,0,0,0-.039-1.241C674.719,75.194,674.671,75.239,674.654,75.281Zm.331-2.49c-.929.372-4.1,1.5-4.912,1.833-.054.024-.08.033-.1.1-.031.093-.132.4-.177.563-.018.067.044.065.1.043.112-.044.256-.126.384-.176.642-.259,3.66-1.349,4.485-1.665a.208.208,0,0,0,.124-.1,5.356,5.356,0,0,0,.172-.531C675.078,72.789,675.04,72.767,674.984,72.791Zm-30.49,21.443c-.928.374-4.1,1.5-4.912,1.834-.053.023-.08.033-.1.1-.031.093-.131.4-.177.563-.018.067.045.065.1.043.111-.044.256-.126.383-.177.643-.257,3.661-1.348,4.485-1.664a.2.2,0,0,0,.124-.1,5.455,5.455,0,0,0,.172-.53C644.589,94.233,644.551,94.21,644.495,94.234Zm9.941-2.515c-.157.23-.353.57-.541.85-.272-.178-.628-.383-.87-.533-.131-.082-.185-.072-.266.047-.14.208-.356.519-.5.777-.054.092-.041.174.1.252.259.143.667.37.912.492.078.039.142.014.2-.064.134-.176.279-.438.493-.768.363.205.658.385.943.523a.126.126,0,0,0,.181-.038,6.6,6.6,0,0,0,.505-.755c.074-.134.055-.185-.066-.258-.188-.112-.653-.4-.882-.542C654.531,91.634,654.486,91.646,654.436,91.719Zm-15.309-4.277c.051.082.074.077.009.129a8.646,8.646,0,0,1-5.208,1.416c.613-.381,2.325-2.187,3.464-2.36a1.089,1.089,0,0,1,.217-.007A2.156,2.156,0,0,1,639.127,87.442Zm-2.033-1.766c-.7.441-2.83,2.307-3.843,3.218a.873.873,0,0,1-.871-.494c-.053-.137-.281-.626-.471-1.053-.143-.318-.252-.291-.339-.008l-.213.8c-.046.195-.062.153.095.47a4.909,4.909,0,0,1,.8,2.472,4.543,4.543,0,0,1-3.666,1.845c-2.9.084-2.939-2.3-2.078-3.888.12-.221-.04-.438-.241-.084-1.6,2.7-1.031,5.285,2.249,5.274a5.2,5.2,0,0,0,3.046-1.089,3.5,3.5,0,0,0,1.223-2.987c.033.009.061.023.095.029a9.958,9.958,0,0,0,5.561-1.029,2.07,2.07,0,0,0,.651-.5,4.526,4.526,0,0,0,.7-1.176,1.242,1.242,0,0,0-.224-1.514A1.968,1.968,0,0,0,637.094,85.676Zm13.863,1.5a7,7,0,0,1-1.382.911,3.524,3.524,0,0,1-.993-.627c.689-.951,1.1-1.349,1.418-1.361C650.341,86.084,650.583,86.509,650.957,87.173Zm-1.773-1.61a3.07,3.07,0,0,0-.96,3.014c-1.445.39-4.306.676-5.081-.548-.214-.337-.27-.172-.33.164a1.489,1.489,0,0,0,.982,1.745c-1.012,2.436-3.255,4.24-6.89,2.874-.541-.2-.771.152-.169.437,3.944,1.774,6.338,1.074,7.56-3.188a10.547,10.547,0,0,0,5.2-.714c1.012.372,2.775.992,3.9.614a2.493,2.493,0,0,0,1.161-2.739,3.518,3.518,0,0,0-1.159-1.928c-.137-.13-.184-.1-.227.065a2.505,2.505,0,0,0-.1,1.08,4.623,4.623,0,0,1,1.133,1.7c-.371.742-1.522.865-3.294.324a2.463,2.463,0,0,0,.308-2.731C650.723,84.614,649.826,84.926,649.185,85.564Zm-15.6-1.66c-.171.264-.4.665-.53.907-.053.1-.05.168.062.225.221.113.611.319.888.46.115.058.184.05.238-.032.154-.241.377-.61.519-.846.052-.084.066-.149-.018-.2-.263-.154-.69-.4-.954-.55C633.679,83.808,633.632,83.825,633.582,83.9Zm15.68-1.726c-.157.23-.353.571-.541.85-.272-.177-.628-.382-.87-.533-.131-.081-.185-.071-.266.048-.14.207-.356.518-.5.777-.053.092-.04.173.1.252.258.143.667.369.912.492a.147.147,0,0,0,.2-.064c.135-.176.28-.438.493-.768.363.2.659.385.943.522a.125.125,0,0,0,.182-.038,6.466,6.466,0,0,0,.5-.755c.075-.134.057-.186-.065-.259-.187-.112-.653-.4-.883-.541C649.356,82.094,649.31,82.105,649.262,82.178Zm-16.017-3.124a1.19,1.19,0,0,1,.286.771,1.311,1.311,0,0,1-.026.3,1.729,1.729,0,0,1-.276-.108c-.081-.038-.308-.123-.71-.268-.157-.028,0-.271,0-.271a1.636,1.636,0,0,1,.271-.351l.151-.1C633.03,79,633.18,78.964,633.244,79.054Zm-.089-.722a2.006,2.006,0,0,0-1.223,1.393c-.1.318-.035.5.144.607a4.168,4.168,0,0,0,1.087.389,9.309,9.309,0,0,1-2.506,2.09c-.364.2-.3.424.155.228a5.656,5.656,0,0,0,2.894-2.2c.115.023.215.056.337.086.2.052.156.073.264-.233a3.124,3.124,0,0,0,.1-.321l-.505-.166.049-.169a2.641,2.641,0,0,0-.136-1.16C633.659,78.446,633.433,78.286,633.156,78.332Zm13.8.711c-.034.081-.086.189-.119.27-.038.136.034.227.108.123a1.058,1.058,0,0,1,.323-.319,1.632,1.632,0,0,1,.986-.221,3.06,3.06,0,0,1,.887.265c0,.066-1.349.7-1.559.832-.091.055-.2.157-.183.258.016.078.145.094.253.057.53-.184.72-.172,1.147-.347a3.446,3.446,0,0,0,.85-.56.276.276,0,0,0,.141-.053,1.46,1.46,0,0,0,.321-.68c-.018-.1-.4-.141-.515-.165a7.264,7.264,0,0,0-1.143-.308A1.506,1.506,0,0,0,646.956,79.044Zm7.9-.624a1.187,1.187,0,0,1,.285.772,1.255,1.255,0,0,1-.025.294,1.736,1.736,0,0,1-.277-.108c-.081-.039-.307-.123-.71-.268-.156-.028,0-.271,0-.271a1.7,1.7,0,0,1,.271-.351l.152-.1C654.639,78.36,654.788,78.329,654.854,78.419Zm-.089-.723a2.005,2.005,0,0,0-1.224,1.393c-.1.318-.034.5.144.607a4.159,4.159,0,0,0,1.088.389,9.306,9.306,0,0,1-2.506,2.09c-.364.2-.3.425.154.228a5.637,5.637,0,0,0,2.894-2.2c.116.024.216.057.338.087.2.052.156.073.264-.233a3.059,3.059,0,0,0,.1-.321l-.506-.166.049-.169a2.626,2.626,0,0,0-.137-1.159C655.268,77.81,655.041,77.651,654.765,77.7ZM614.62,87.909a5.685,5.685,0,0,1-2.54.181c-.077-.011-.045-.045,0-.091a8.31,8.31,0,0,1,2.473-1.611C614.558,86.919,614.573,87.453,614.62,87.909Zm5.556-5.274-.2.805a.829.829,0,0,0,.013.559,30.2,30.2,0,0,0,1.609,4.17c.167.348-.105.318-.243.338a2.463,2.463,0,0,1-2.461-1.9,16.617,16.617,0,0,1-.649-3.664c-.022-.205-.162-.2-.217.013l-.216.818a1.131,1.131,0,0,0-.041.468,25.524,25.524,0,0,0,.581,3c-.117,1.374-.848,1.85-1.8,1.883-.889.016-1.153-.735-1.311-1.26a18.733,18.733,0,0,1-.23-3.351c0-.1-.018-.17-.148.026a2.342,2.342,0,0,0-.189.311c-.043.076-.138.126-.148.273s-.02.275-.028.481a5,5,0,0,0-2.555,1.7,4.315,4.315,0,0,0-.784,1.624c-.054.238-.07.352.162.4a7.491,7.491,0,0,0,1.743.091.922.922,0,0,0,.635-.195,11.97,11.97,0,0,0,.987-.805c.144.982.6,1.846,1.7,1.9a2.418,2.418,0,0,0,2.218-2.494,3.088,3.088,0,0,0,1.987,1.923c.712.2,1.149-.034,1.325-.688a3.9,3.9,0,0,0-.244-2.728,18.4,18.4,0,0,1-1.284-3.677.181.181,0,0,0-.122-.129C620.225,82.518,620.189,82.561,620.176,82.635Zm-5.753-2.5c-.928.372-3.03,1.178-3.844,1.514-.054.023-.081.032-.1.1-.032.093-.132.4-.177.564-.018.066.045.065.1.042.112-.043.256-.125.384-.176.642-.258,2.593-1.03,3.417-1.345a.21.21,0,0,0,.125-.1c.049-.111.126-.372.172-.531C614.517,80.129,614.48,80.106,614.423,80.131Zm8.106-1.145-.159.972a1.109,1.109,0,0,0,.014.535c.119.64.27,1.272.4,1.9.3,1.405.6,2.741.857,4.038a23.733,23.733,0,0,1,.415,3.041c.012.18.107.167.148.024a5.645,5.645,0,0,0,.183-1.652,18.117,18.117,0,0,0-.4-2.613c-.223-1.137-.5-2.371-.723-3.4-.214-.968-.42-1.935-.55-2.874-.017-.109-.06-.141-.1-.131S622.545,78.9,622.529,78.986Zm-3.471-.226-.228.411c-.025.045-.047.079-.027.127a1.3,1.3,0,0,1,.117.463.574.574,0,0,1-.768.125.659.659,0,0,1-.173-.571c.009-.188.031-.26-.14-.126-.225.175-.164.158-.177.257-.08.619-.356.9-.854.93-.313.02-.54-.19-.324-.784.047-.126-.048-.261-.184,0-.465.9-.182,1.394.293,1.462a1.041,1.041,0,0,0,1.085-.723.791.791,0,0,0,.877.288.78.78,0,0,0,.634-.623,1.938,1.938,0,0,0-.039-1.239C619.124,78.673,619.076,78.718,619.058,78.76Zm.619-3.415c-.928.373-3.518,1.367-4.333,1.7-.053.022-.08.033-.1.1-.032.093-.132.4-.178.563-.018.066.045.065.1.043.112-.044.256-.126.384-.177.642-.258,3.081-1.217,3.9-1.533a.2.2,0,0,0,.125-.1,5.357,5.357,0,0,0,.172-.53C619.772,75.344,619.734,75.32,619.678,75.345Zm4.327.72a.421.421,0,0,1,.162.292c-.129.275-.949.551-1.261.632-.06.009-.385.075-.355-.014a3.917,3.917,0,0,1,.642-.835C623.451,75.928,623.73,75.831,624,76.065Zm-.785-.512a6.917,6.917,0,0,0-1.064,1.428,2.2,2.2,0,0,1-.6-.234c-.192-.088-.318.1-.406.236a4.241,4.241,0,0,0-.443.861l-.111.294c0,.129.06.168.163.063.221-.211.387-.784.524-.709a2.389,2.389,0,0,0,2.429-.214,1.579,1.579,0,0,0,.826-1.618.676.676,0,0,0-.591-.467A1.068,1.068,0,0,0,623.219,75.553Zm-17.673,9.569a3.491,3.491,0,0,1,.813.809c-.277.59-.767.855-1.472.265-.153-.147-.138-.191-.076-.368a2.637,2.637,0,0,1,.383-.664C605.332,85.019,605.378,85.033,605.546,85.122Zm-.521-1.031a4.167,4.167,0,0,0-.783,2.43,1.334,1.334,0,0,0,1.411,1.251c.521-.1.873-.589,1.073-1.31a5.054,5.054,0,0,1,.567,1.325,5.214,5.214,0,0,1-3.142.928,1.577,1.577,0,0,1-.951-.265c-.229-.177-.275-.03-.306.161a2.6,2.6,0,0,0,0,.767.651.651,0,0,0,.644.574.642.642,0,0,0,.168.015,5.609,5.609,0,0,1-2.59,2.872,7.009,7.009,0,0,1-4.874.088c-.382-.1-.581.206-.168.427,1.732.8,4.26,1.251,5.733.383A5.488,5.488,0,0,0,604.121,90a5.252,5.252,0,0,0,3.264-1.061.622.622,0,0,0,.2-.324,3.954,3.954,0,0,0-.137-2.65,4.87,4.87,0,0,0-1.472-1.973C605.546,83.679,605.316,83.708,605.025,84.091Zm-11.481-.38c-.17.264-.4.665-.529.906-.053.1-.051.168.062.226.221.113.611.319.888.459.114.058.185.051.237-.032.154-.241.378-.61.52-.846.052-.084.067-.149-.019-.2-.261-.154-.69-.4-.953-.55C593.642,83.616,593.6,83.632,593.544,83.71Zm11.77-2.824c-.157.231-.353.57-.541.85-.272-.178-.628-.382-.87-.533-.131-.081-.185-.072-.266.047-.14.208-.356.519-.5.778-.053.091-.04.173.1.252.257.142.666.369.911.492.078.038.141.014.2-.065.135-.175.28-.438.493-.768.363.205.658.385.943.523a.125.125,0,0,0,.181-.038,6.5,6.5,0,0,0,.5-.754c.075-.135.057-.186-.065-.259-.187-.113-.653-.4-.882-.542C605.41,80.8,605.364,80.814,605.315,80.887Zm-6.442.642c-.035.082-.086.189-.12.27-.037.136.035.228.109.123a1.053,1.053,0,0,1,.322-.319,1.636,1.636,0,0,1,.986-.221,3.077,3.077,0,0,1,.887.265c0,.066-1.348.7-1.558.831-.092.055-.2.158-.184.258.016.079.146.095.254.057.53-.184.72-.172,1.147-.347a3.4,3.4,0,0,0,.849-.561.264.264,0,0,0,.141-.052,1.461,1.461,0,0,0,.321-.68c-.018-.1-.4-.14-.515-.165a7.18,7.18,0,0,0-1.142-.306A1.5,1.5,0,0,0,598.873,81.529ZM595.13,79.44c-.928.373-4.1,1.5-4.912,1.834-.053.023-.08.032-.1.1-.032.093-.132.4-.177.563-.019.067.044.066.1.043.112-.044.256-.125.383-.176.643-.258,3.662-1.349,4.485-1.665a.2.2,0,0,0,.124-.1,5.389,5.389,0,0,0,.173-.53C595.223,79.439,595.186,79.416,595.13,79.44Zm4.4,8.063c-.865,1.012-3.721,1.661-5.559,1.463.859-.623,1.7-1.135,2.5-1.723a2.416,2.416,0,0,1,1.284-.468A2.224,2.224,0,0,1,599.533,87.5Zm-14.927-8.46-.284.767a.493.493,0,0,0-.014.467,59.688,59.688,0,0,1,1.42,7.832,3,3,0,0,0,1.378,2.3,2.84,2.84,0,0,0,3.542-.949c.222-.3.22-.3.473-.09a4.366,4.366,0,0,0,.918.6,14.443,14.443,0,0,0-.7,1.91c-.131.451.106.586.325.078.146-.407.485-1.381.7-1.883a8.483,8.483,0,0,0,6.465-.892c1.037-.744,1.787-1.909,1.339-2.9-.513-.977-2.2-1.017-3.258-.22-1.179.882-2.75,1.979-3.869,2.749A5.178,5.178,0,0,1,591.5,88.1c-.505-.344-.572-.3-.825.092a2.629,2.629,0,0,1-2.433,1.194,2.118,2.118,0,0,1-1.473-.9,7.638,7.638,0,0,1-.716-3c-.107-.657-.784-5.182-1.163-6.352-.073-.227-.076-.345-.121-.351S584.667,78.88,584.606,79.043Zm10.354-1.1c-.928.372-4.1,1.5-4.912,1.833-.053.023-.08.033-.1.1-.032.093-.133.4-.177.563-.019.067.044.065.1.043.112-.044.256-.126.384-.176.642-.259,3.66-1.35,4.484-1.665a.211.211,0,0,0,.125-.1,5.294,5.294,0,0,0,.172-.531C595.054,77.939,595.016,77.917,594.96,77.941Zm11.79-1.834c-.928.372-4.677,1.6-5.491,1.932-.054.023-.08.032-.1.1-.032.093-.132.4-.177.563-.017.067.044.066.1.043.112-.044.256-.126.384-.176.642-.258,4.24-1.447,5.064-1.763a.208.208,0,0,0,.124-.1,5.4,5.4,0,0,0,.172-.531C606.845,76.106,606.807,76.083,606.75,76.108Zm-53.209,7.353c-.17.264-.4.665-.53.906-.052.1-.05.168.063.226.222.113.611.319.888.46.115.058.184.05.237-.033.154-.241.377-.61.519-.845.052-.085.066-.15-.019-.2-.262-.155-.689-.4-.953-.55C553.638,83.366,553.591,83.383,553.541,83.461Zm15.724-4.331c-.929.373-5.112,1.666-5.927,2-.053.022-.08.033-.1.1-.032.092-.176.459-.222.623-.017.067.045.065.1.043.112-.044.3-.148.433-.192.677-.225,4.625-1.5,5.45-1.819a.207.207,0,0,0,.125-.1c.05-.111.17-.432.216-.591C569.358,79.129,569.321,79.106,569.265,79.13Zm-20.77.528c.487,2.435.662,4.9,1.022,7.25.224,1.523.52,2.93,1.754,3.3a2.717,2.717,0,0,0,2.913-1.01c.215-.3.142-.373.462-.023a5.151,5.151,0,0,0,3.548,1.249,25.787,25.787,0,0,0,6.58-.6,5.113,5.113,0,0,0,3.942-.483,2.469,2.469,0,0,0,1.946.6c.273-.105.677-.846.863-1.257,1.088,1.127,3.183.649,4.723.168,1.489-.466,2.78-1.338,5.513-.773.212.046.864-1.3.695-1.29a13.628,13.628,0,0,1-7.207-1.573c-1.071-.4-1.916.554-2.217,1.264-.2.516-.016.58.306.34.823-.563,1.809-.423,4.212.62-1.452.443-3.952,1.351-5.624.282.245-.885-.051-.844-.205-.517-.226.465-.432.964-.662,1.382-.1.2-.233.234-.513.186a4.466,4.466,0,0,1-1.017-.331c.732-1.219.434-1.5.157-1.139-.928,1.3-1.913,1.553-3.608,1.394.9-1.27.629-2,.216-1.316a3.612,3.612,0,0,1-2.362,1.472c-2.379.522-7.441.784-8.933-.831-.424-.459-.513-.25-.834.166a2.472,2.472,0,0,1-2.671.728c-1.085-.479-1.237-1.865-1.366-2.662-.4-2.515-.6-5.3-1.125-7.684C548.908,78.2,548.466,79.535,548.5,79.658ZM578.219,78.5c-.929.374-5.112,1.667-5.927,2-.053.022-.081.032-.1.1-.032.093-.177.459-.221.623-.018.067.044.065.1.043.113-.044.3-.147.434-.191.678-.226,4.625-1.5,5.451-1.819a.2.2,0,0,0,.124-.1c.05-.111.17-.432.216-.591C578.312,78.5,578.274,78.472,578.219,78.5ZM556.351,77.01c-.928.373-3.03,1.178-3.844,1.515-.054.023-.08.032-.1.1-.033.093-.132.4-.177.563-.018.067.044.066.1.043.113-.044.257-.126.385-.177.642-.257,2.594-1.029,3.416-1.345a.206.206,0,0,0,.125-.1,5.455,5.455,0,0,0,.172-.53C556.444,77.009,556.407,76.984,556.351,77.01Zm-2.546-.682c-.928.373-3.03,1.178-3.845,1.514-.053.023-.08.033-.1.1-.032.093-.132.4-.177.563-.018.067.045.065.1.043.112-.044.256-.126.384-.176.643-.259,2.594-1.03,3.418-1.346a.2.2,0,0,0,.124-.1c.049-.111.126-.371.172-.53C553.9,76.326,553.86,76.3,553.8,76.327ZM522.787,91.195c-.929.373-4.677,1.6-5.492,1.932-.053.023-.08.033-.1.1-.033.092-.133.4-.177.563-.017.067.044.065.1.043.113-.044.256-.126.384-.177.642-.257,4.241-1.447,5.064-1.762a.21.21,0,0,0,.124-.1,5.479,5.479,0,0,0,.172-.531C522.881,91.194,522.843,91.17,522.787,91.195Zm19.008-.132c-.157.231-.352.57-.541.85-.272-.177-.628-.381-.87-.533-.131-.081-.185-.071-.266.048-.141.208-.356.518-.5.777-.053.092-.04.173.1.252.257.143.667.369.912.492a.148.148,0,0,0,.2-.064c.134-.176.279-.438.493-.768.362.2.659.385.944.522a.124.124,0,0,0,.181-.037,6.431,6.431,0,0,0,.505-.755c.074-.134.056-.186-.066-.259-.188-.112-.652-.4-.882-.541C541.891,90.979,541.845,90.99,541.8,91.063Zm-41.428-2.93a.491.491,0,0,1-.426.3c-.224.018-.312-.242-.329-.386.031-.187.18-.49.336-.478C500.171,87.58,500.4,87.973,500.368,88.132Zm-1.05.23a.7.7,0,0,0,.638.62.671.671,0,0,0,.567-.5.28.28,0,0,1,.054.19,3.207,3.207,0,0,1-1.6,1.811,3.932,3.932,0,0,1-2.139.188c-.1-.018-.2.148-.075.191a4.4,4.4,0,0,0,2.354.184,2.926,2.926,0,0,0,1.734-2.678c0-.651-.432-1.354-.83-1.356C499.537,87.008,499.3,87.963,499.318,88.363Zm32.61-4.749c-.17.264-.4.665-.529.906-.053.1-.05.168.062.225.222.114.611.32.888.46.115.058.185.05.238-.032.154-.241.377-.61.52-.846.051-.084.066-.149-.02-.2-.262-.154-.69-.4-.954-.549C532.025,83.519,531.978,83.536,531.928,83.614Zm6.174,3.641c-.69.751-2.382,1.814-5.892,1.636a27.435,27.435,0,0,1,3.089-2.123A2.651,2.651,0,0,1,538.1,87.255Zm-32.585.384a5.382,5.382,0,0,1-2.95.26,8.4,8.4,0,0,1,2.52-1.578C505.187,86.693,505.387,87.153,505.518,87.639Zm8.654-.087a7.887,7.887,0,0,1-1.41.853,6.789,6.789,0,0,1-1.026-.591c.748-1.024,1.195-1.487,1.542-1.475C513.605,86.351,513.847,86.78,514.171,87.552Zm30.433-2.37a.914.914,0,0,1-1.722.008c.18-.5.438-.817.755-.821C543.916,84.365,544.244,84.606,544.6,85.182ZM542.879,83.8a2.911,2.911,0,0,0-.428,2.445A1.338,1.338,0,0,0,545,85.961a4.734,4.734,0,0,1,.494,1.373c-.8,1.341-1.217,1.1-2.838.263a.739.739,0,0,0-.836.029,13.965,13.965,0,0,1-4.224,1.26c.811-.746,1.507-2.045,1.075-2.742-.672-1.114-2.578-.836-3.453-.255-1.519,1.01-3.015,2.149-4.21,2.948a4.251,4.251,0,0,1-1.954-.734c.223-.89.119-1.075-.285-.622-1.4,1.7-5.843,1.868-7.367.95,1.039-.828.787-1.462-.061-1.879-.877-.429-3.144-.8-4,.847-.226.476-.221.812.188.617s.916-.125,1.679.315a6.108,6.108,0,0,1-5.254.474,2.48,2.48,0,0,0,.518-2.867c-.58-1.291-1.332-.976-2.078-.232a3.424,3.424,0,0,0-1.145,3.2,5.9,5.9,0,0,1-3.19.17,2.694,2.694,0,0,1-1.934-1.987c-.431-1.245-.682-2.332-1.038-3.524-.09-.281-.556.3-.216,1.893a13.992,13.992,0,0,0-1.814,1.067,3.6,3.6,0,0,0-1.127,2.171c-.056.309-.017.415.29.459a4.041,4.041,0,0,0,2.326-.139,4.159,4.159,0,0,0,1.128-.925c.485,1.284,1.035,2,2.1,2.27a7.721,7.721,0,0,0,4.647-.684,7.362,7.362,0,0,0,7.668-.537c2.576,1.964,7.232.867,8.426-.274a2.537,2.537,0,0,0,1.378,1.027l-.3,1.269c-.113.419.182.529.311.111.177-.533.251-.759.443-1.252,2.349.407,7.963.205,11.073-1.175.506-.229.473-.227,1.039.049,1.478.727,2.249.9,3.086-.551a3.682,3.682,0,0,0-.39-4.072C544.313,83.087,543.545,82.83,542.879,83.8Zm-31.046-1.584c-.169.264-.4.665-.529.906-.052.1-.05.168.062.226.222.113.611.319.888.459.115.058.185.051.238-.032.154-.241.377-.61.52-.846.052-.084.066-.149-.02-.2-.261-.154-.689-.4-.953-.55C511.93,82.12,511.883,82.136,511.833,82.214Zm13.189-.017a2.688,2.688,0,0,0-.239.651,3.07,3.07,0,0,0,.36.5,3.716,3.716,0,0,1,.745,2.943c-.015.105-.046.205.009.2.28-.014.442-.935.433-1.422a4.53,4.53,0,0,0-1.135-2.857C525.125,82.135,525.069,82.105,525.021,82.2Zm17.416-1.45c-.169.265-.4.665-.528.907-.053.1-.051.169.062.226.221.113.611.319.888.46.115.058.185.05.238-.032.154-.241.377-.61.519-.846.051-.084.066-.149-.019-.2-.262-.154-.69-.4-.954-.55C542.535,80.652,542.488,80.67,542.438,80.747Zm-3.947-2.1a1.19,1.19,0,0,1,.285.772,1.248,1.248,0,0,1-.026.294,1.863,1.863,0,0,1-.277-.107c-.08-.039-.307-.124-.71-.269-.156-.028,0-.271,0-.271a1.655,1.655,0,0,1,.271-.351l.152-.1C538.276,78.591,538.426,78.559,538.49,78.649Zm-.088-.722a2,2,0,0,0-1.224,1.393c-.1.318-.035.5.144.608a4.171,4.171,0,0,0,1.088.389,9.287,9.287,0,0,1-2.507,2.09c-.364.2-.3.426.155.229a5.643,5.643,0,0,0,2.894-2.2c.116.024.215.057.337.087.2.052.157.073.264-.233a3.139,3.139,0,0,0,.1-.32l-.506-.167.049-.169a2.638,2.638,0,0,0-.137-1.16C538.9,78.041,538.678,77.881,538.4,77.927Zm-23.988-.147c-.928.372-4.677,1.6-5.492,1.932-.053.023-.08.032-.1.1-.033.093-.132.4-.178.563-.018.066.045.065.1.043.113-.044.257-.126.384-.176.642-.258,4.241-1.447,5.065-1.763a.206.206,0,0,0,.124-.1,5.347,5.347,0,0,0,.172-.531C514.508,77.778,514.471,77.755,514.415,77.78Zm19.1-.253c-.928.374-5.112,1.667-5.927,2-.053.023-.08.033-.1.1-.032.093-.176.459-.221.623-.018.067.045.066.1.043.112-.044.3-.147.433-.191.678-.226,4.626-1.5,5.45-1.819a.2.2,0,0,0,.124-.1,6.278,6.278,0,0,0,.217-.591C533.61,77.526,533.573,77.5,533.517,77.527Zm-28.16.56a1.194,1.194,0,0,1,.285.772,1.241,1.241,0,0,1-.026.294,1.816,1.816,0,0,1-.276-.108c-.082-.039-.308-.123-.711-.268-.156-.027,0-.271,0-.271a1.669,1.669,0,0,1,.271-.351l.152-.1C505.143,78.028,505.292,78,505.357,78.087Zm-.088-.722a2,2,0,0,0-1.224,1.393c-.1.318-.035.5.143.607a4.159,4.159,0,0,0,1.088.389,9.331,9.331,0,0,1-2.506,2.09c-.364.2-.3.424.155.228a5.64,5.64,0,0,0,2.893-2.2c.116.023.216.057.338.087.2.053.156.073.264-.233a3.212,3.212,0,0,0,.1-.321l-.506-.166.049-.169a2.636,2.636,0,0,0-.137-1.16C505.77,77.478,505.544,77.318,505.268,77.365ZM545.4,75.908c-.928.372-3.518,1.365-4.332,1.7-.053.024-.081.033-.1.1-.032.093-.131.4-.177.563-.018.067.044.065.1.043.112-.044.256-.125.385-.176.642-.258,3.081-1.218,3.9-1.534a.207.207,0,0,0,.125-.1,5.346,5.346,0,0,0,.172-.53C545.493,75.906,545.456,75.883,545.4,75.908ZM486.455,88.454a.485.485,0,0,1-.426.3c-.224.019-.312-.241-.328-.385.03-.187.179-.49.335-.479C486.259,87.9,486.488,88.294,486.455,88.454Zm-1.05.232a.7.7,0,0,0,.638.619.67.67,0,0,0,.566-.5.284.284,0,0,1,.054.19,3.212,3.212,0,0,1-1.6,1.811,3.926,3.926,0,0,1-2.14.188c-.1-.017-.2.148-.075.191a4.4,4.4,0,0,0,2.354.184,2.927,2.927,0,0,0,1.734-2.678c0-.65-.432-1.353-.83-1.355C485.624,87.331,485.387,88.286,485.405,88.685Zm2.214-3.545a4.214,4.214,0,0,1-2.755,1.062,2.178,2.178,0,0,1-1.309-.384.15.15,0,0,0-.22.03,3.78,3.78,0,0,0-.592,1.311c-.017.081-.035.18.012.2a.11.11,0,0,0,.128-.068,2.568,2.568,0,0,1,.384-.781.1.1,0,0,1,.112.009,2.909,2.909,0,0,0,1.633.372c.871-.042,2.436-.547,2.688-1.678.014-.058.017-.1,0-.115S487.657,85.1,487.619,85.14Zm3.518-5.753a1.188,1.188,0,0,1,.285.771,1.212,1.212,0,0,1-.026.294,1.759,1.759,0,0,1-.277-.107c-.081-.039-.307-.123-.71-.269-.157-.027,0-.271,0-.271a1.67,1.67,0,0,1,.271-.351l.152-.1C490.923,79.328,491.073,79.3,491.138,79.387Zm-.089-.723a2.008,2.008,0,0,0-1.224,1.393c-.1.318-.035.5.144.607a4.158,4.158,0,0,0,1.088.389,9.3,9.3,0,0,1-2.507,2.09c-.364.2-.3.425.155.229a5.648,5.648,0,0,0,2.893-2.2c.116.023.216.057.337.086.2.053.156.074.265-.233a3.109,3.109,0,0,0,.1-.32l-.505-.167.048-.169a2.641,2.641,0,0,0-.136-1.16C491.552,78.778,491.325,78.618,491.049,78.664Zm.989,8.948.081.339a6.716,6.716,0,0,1-2.623.247c-.085,0-.043-.036,0-.091a8.56,8.56,0,0,1,2.3-1.637C491.867,86.868,491.953,87.268,492.038,87.612Zm2.3-8.928c-.115.193-.495.779-.595,1.013-.015.04-.043.062-.014.117a3.474,3.474,0,0,1,.433,1.052c.529,2.559,1.146,6.637,1.461,8.289a1.186,1.186,0,0,1-1.868.357,4.263,4.263,0,0,1-1.239-2.533c-.229-.921-.408-2-.637-3-.086-.331-.145-.289-.2-.013-.057.248-.118.519-.176.753a.954.954,0,0,0,.014.494c.028.137.079.341.108.507a5.425,5.425,0,0,0-2.312,1.675,4.358,4.358,0,0,0-.717,1.728c-.058.248-.068.374.176.415a8.3,8.3,0,0,0,1.771.052.94.94,0,0,0,.635-.22,9.277,9.277,0,0,0,1.041-.883c.372,1.472,1.232,2.778,2.393,2.571,1.729-.289,1.571-2.564,1.414-3.857-.129-1.143-.721-4.193-1.037-5.954.129-.166.369-.494.527-.727.058-.125.073-.2-.027-.312a3.659,3.659,0,0,1-.973-1.533.124.124,0,0,0-.067-.078C494.415,78.593,494.379,78.629,494.335,78.684Zm2.677-3.6c-.928.373-3.517,1.366-4.333,1.7-.053.023-.08.033-.1.1-.033.092-.132.4-.178.562-.018.067.045.066.1.043.112-.044.256-.126.384-.176.642-.258,3.082-1.218,3.905-1.534a.2.2,0,0,0,.124-.1,5.371,5.371,0,0,0,.172-.53C497.107,75.08,497.069,75.057,497.013,75.081Zm-24.327,8.566c-.17.264-.4.664-.529.906-.053.1-.05.169.062.226.222.113.611.319.888.46.115.058.185.05.238-.032.154-.241.377-.61.52-.846.052-.084.066-.149-.02-.2-.262-.154-.69-.4-.954-.549C472.782,83.553,472.736,83.57,472.685,83.648Zm-23.79-1.83c-.17.265-.4.665-.529.906-.052.1-.05.168.062.226.222.113.611.319.888.459.115.059.184.051.238-.032.154-.24.377-.61.52-.845.052-.084.066-.149-.02-.2-.262-.154-.689-.4-.953-.549C448.992,81.723,448.945,81.741,448.895,81.818Zm21.75-1.1c-.035.081-.086.189-.12.27-.037.135.036.227.11.122a1.065,1.065,0,0,1,.321-.319,1.642,1.642,0,0,1,.986-.22,3.048,3.048,0,0,1,.887.265c0,.065-1.348.7-1.558.832-.091.055-.2.157-.184.258.016.078.146.094.254.057.529-.185.719-.172,1.147-.347a3.4,3.4,0,0,0,.849-.561.267.267,0,0,0,.142-.052,1.452,1.452,0,0,0,.32-.68c-.018-.1-.4-.141-.515-.166a7.259,7.259,0,0,0-1.143-.306A1.5,1.5,0,0,0,470.645,80.719Zm-5.458-1.384c-.928.373-5.112,1.667-5.926,2-.053.023-.08.033-.1.1-.033.093-.177.459-.221.623-.019.067.044.066.1.043.113-.044.3-.147.434-.19.678-.227,4.626-1.5,5.45-1.82a.206.206,0,0,0,.124-.1c.05-.11.171-.431.216-.59C465.28,79.333,465.242,79.31,465.186,79.334ZM477.807,87.4c-.8.726-2.317,1.4-5.16,1.451a14.8,14.8,0,0,1,3.1-2.107,2.01,2.01,0,0,1,.462-.058A2.271,2.271,0,0,1,477.807,87.4Zm-25.1-7.251c.472,2.685.552,5.307.943,7.806a3.174,3.174,0,0,0,2.618,2.963,13.309,13.309,0,0,0,8.23-1.6,3.222,3.222,0,0,0,4.5-.265c.249-.239.27-.278.438-.068a2.442,2.442,0,0,0,1.275.92l-.366.936c-.167.426.111.512.306.123a7.848,7.848,0,0,0,.445-.954c2.069.368,6.374-.067,7.241-2.343.8-2.334-1.8-2.574-3.03-1.679-.861.639-2.038,1.581-3.562,2.816a3.047,3.047,0,0,1-1.774-.95c-.324-.352-.506-.221-.81.078-.965.906-2.618,1.417-3.694.785,1.079-.846.84-1.595-.007-2.011-.876-.428-2.94-.759-3.794.892-.225.475-.25.807.158.613a1.822,1.822,0,0,1,1.823.348c-1.747.883-5.434,1.858-7.8.831-1.232-.539-1.593-1.3-1.831-3.536-.282-2.039-.21-4.531-.848-6.82-.009-.024-.021-.036-.035-.036C453,79,452.677,80.035,452.7,80.147Zm26.392-1.7c-.042.008-.08.066-.1.149l-.195.952a.975.975,0,0,0,0,.525c.114.629.265,1.253.394,1.874.319,1.489.852,4.085,1.125,5.46a21.049,21.049,0,0,1,.382,2.994c.008.177.112.167.159.028a5,5,0,0,0,.236-1.618,16.025,16.025,0,0,0-.378-2.573c-.259-1.234-.748-3.706-.994-4.828-.21-.954-.412-1.91-.531-2.834C479.185,78.469,479.137,78.435,479.1,78.446Zm-28.9,7.4a.5.5,0,0,1,.311.13,2.73,2.73,0,0,1,.621.741,1.153,1.153,0,0,1-.811.428,1.026,1.026,0,0,1-.689-.337.331.331,0,0,1-.027-.443,1.321,1.321,0,0,1,.324-.376.516.516,0,0,1,.2-.143A.228.228,0,0,1,450.192,85.849Zm-5.3-7.921c-.094.23-.216.444-.311.688-.093.216-.04.241-.013.494.429,2.673.7,7.664,1.1,9.7a2.282,2.282,0,0,0,2.244,2.053c1.114.106,3.2-.428,3.563-.935a4,4,0,0,0-.541-5.079.949.949,0,0,0-.514-.285.9.9,0,0,0-.5.233,3.2,3.2,0,0,0-1.027,2.014,1.252,1.252,0,0,0,.243,1.078,1.446,1.446,0,0,0,1,.506,1.385,1.385,0,0,0,1.284-1.013,1.63,1.63,0,0,1,.149,1.377,4.978,4.978,0,0,1-4.388.546c-.974-.541-1.178-2.464-1.365-4.663-.163-1.917-.418-5.427-.692-6.688-.048-.18-.076-.272-.108-.26S444.953,77.785,444.9,77.928Zm7.548-1.635c-.928.373-3.03,1.178-3.845,1.515-.053.022-.079.032-.1.1-.033.093-.133.4-.177.564-.018.067.044.065.1.042.113-.043.257-.126.385-.177.642-.257,2.594-1.028,3.417-1.344a.213.213,0,0,0,.125-.1c.049-.111.126-.372.172-.531C452.538,76.292,452.5,76.269,452.444,76.293Zm-2.29-.9c-.928.374-3.03,1.179-3.845,1.515-.054.023-.08.033-.1.1-.032.093-.132.4-.177.563-.018.067.045.065.1.043.113-.044.256-.126.384-.177.642-.257,2.594-1.029,3.417-1.345a.2.2,0,0,0,.124-.1c.049-.111.126-.372.172-.531C450.248,75.391,450.21,75.369,450.154,75.392Zm27.447.723a.38.38,0,0,0,.134.509,5.448,5.448,0,0,0,.671.391,3.075,3.075,0,0,0-.52.249,2.906,2.906,0,0,0-.113.417c-.007.042.025.082.074.055A13.185,13.185,0,0,1,480.279,77a2.865,2.865,0,0,0,.263-.485c.04-.081,0-.1-.06-.087a3.892,3.892,0,0,1-1.094.138,2.2,2.2,0,0,1-1.305-.65c0-.1.618-.355.758-.343.4.033.459.425.564.423.128,0,.33-.458.33-.578a.765.765,0,0,0-.59-.48A2.722,2.722,0,0,0,477.6,76.115Zm3.326-3.636c-.928.374-4.1,1.5-4.912,1.834-.053.022-.08.032-.1.1-.032.093-.132.4-.177.563-.018.067.044.066.1.043.113-.044.256-.126.384-.177.642-.257,3.66-1.348,4.484-1.664a.2.2,0,0,0,.124-.1,5.309,5.309,0,0,0,.172-.53C481.02,72.478,480.983,72.455,480.927,72.479Z" transform="translate(-393.956 -72.47)" fill="#1d1d1b" style="mix-blend-mode: darken;isolation: isolate"/>
        <g id="Group_10093" data-name="Group 10093" transform="translate(0 1.861)">
          <path id="Path_6666" data-name="Path 6666" d="M117.873,133.476c-.179.275-.4.679-.618,1.014-.311-.213-.719-.456-1-.636-.15-.1-.212-.085-.3.056-.162.249-.407.618-.577.926-.06.109-.046.207.115.3.3.171.764.44,1.044.586.089.046.162.017.229-.077.153-.209.319-.521.563-.914.416.245.755.46,1.08.623a.14.14,0,0,0,.208-.046,7.874,7.874,0,0,0,.578-.9c.085-.161.062-.221-.076-.308-.216-.134-.747-.473-1.009-.644C117.982,133.376,117.93,133.389,117.873,133.476Zm8.3-.069c-1.063.444-4.688,1.783-5.62,2.183-.061.028-.091.038-.117.117-.038.11-.152.475-.2.671-.02.079.05.078.116.051.13-.051.294-.148.44-.209.734-.308,4.189-1.607,5.131-1.983a.237.237,0,0,0,.142-.123c.057-.132.145-.442.2-.631C126.279,133.406,126.236,133.378,126.172,133.407Zm-18.981-4.726c.04.057.04.077,0,.117-.412.3-1.85.848-2.47.374-.37-.283-.442-.947.082-2.192A4.2,4.2,0,0,1,107.191,128.681Zm-2.556-3.262-.221,1.14c-.052.217-.052.255.1.31-.562,1.228-1.316,3.2-.194,3.878a2.639,2.639,0,0,0,2.529-.317,1.932,1.932,0,0,0,.541-.483,2.849,2.849,0,0,0,.337-2.688,4.269,4.269,0,0,0-2.831-1.945.606.606,0,0,0-.192-.054C104.669,125.282,104.65,125.32,104.635,125.419Zm17.949-2.537c-.18.274-.4.679-.618,1.012-.311-.211-.72-.455-1-.635-.15-.1-.212-.085-.3.056-.162.248-.407.618-.577.926-.06.11-.046.207.115.3.3.171.764.441,1.044.585.089.047.162.018.229-.075.153-.21.319-.522.563-.914.416.243.755.459,1.082.622a.14.14,0,0,0,.206-.045,7.987,7.987,0,0,0,.578-.9c.085-.16.062-.221-.076-.308-.215-.134-.747-.473-1.01-.644C122.692,122.783,122.64,122.8,122.583,122.882Zm-16.909-1.341c-.18.276-.4.68-.619,1.013-.31-.212-.719-.455-1-.635-.149-.1-.212-.086-.3.056-.162.248-.407.617-.577.925-.06.109-.046.207.115.3.3.171.764.44,1.044.585.089.047.162.018.229-.076.153-.21.319-.521.563-.914.416.244.755.459,1.082.623a.139.139,0,0,0,.207-.046,7.905,7.905,0,0,0,.578-.9c.085-.161.062-.221-.076-.308-.215-.135-.747-.473-1.01-.644C105.783,121.442,105.732,121.455,105.675,121.541Zm27.834-.251c-2.994,1.029-5.46,2.89-6.362,4.383-.426.7-.574,1.4.138,1.738,2.283,1.068,11.748.14,17.2-.445,1.977-.251,2.891.518,3.131,1.123-4.26.535-8.046,1.04-11.823,1.348-3.513.275-9.357.982-11.529-.668-.647-.5-.752-.6-1.314.079-1.386,1.693-3.666,1.8-4.629.3-.67-1.1-.657-2.192-1.075-3.569-.237-.708-.486-.609-.607-.011-.341,1.546-1.939,2.45-2.927,2.031-.324-.2-.341-.076-.382.144-.1.641-.01,1.407,1.115,1.366-1,3.286-3.8,5.419-8.788,3.835-.518-.184-.732.225-.069.5,5.892,2.555,8.457.359,9.529-4.421a2.776,2.776,0,0,0,1.691-2.116c.342,1.588.543,3.441,1.719,4.3,1.29.9,3.271.564,4.525-1.213.294-.417.406-.28.829.057,2.428,1.911,8.187,1.14,12.046.791,3.838-.354,8.061-.9,11.476-1.383a2.626,2.626,0,0,0,.943-2.892c-.559-1.119-1.868-1.138-4.3-.883-5.944.664-11.129,1.23-15.408.6-.936-.146-1-.344-.578-.765a13.308,13.308,0,0,1,4.873-2.854C133.078,122.611,133.939,121.126,133.509,121.29Zm-12.409-.838c-.2.315-.459.791-.606,1.079-.06.116-.058.2.071.268.253.135.7.38,1.016.548.132.069.211.059.272-.038.176-.287.431-.727.594-1.007.059-.1.076-.177-.022-.237-.3-.183-.788-.478-1.091-.655C121.21,120.339,121.157,120.359,121.1,120.452Zm-5.976-2.153c-1.062.444-4.024,1.626-4.957,2.027-.06.027-.091.038-.117.118-.037.109-.151.476-.2.67-.02.079.051.078.117.051.128-.052.294-.15.439-.21.736-.307,3.526-1.45,4.468-1.826a.236.236,0,0,0,.143-.123,6.466,6.466,0,0,0,.2-.631C115.231,118.3,115.188,118.27,115.124,118.3Zm-6.732-.947c-1.062.443-3.467,1.4-4.4,1.8-.061.028-.093.039-.118.117-.037.111-.151.477-.2.672-.021.079.05.077.116.05.128-.051.293-.148.44-.209.734-.308,2.967-1.227,3.909-1.6a.239.239,0,0,0,.143-.123c.057-.132.144-.443.2-.632C108.5,117.35,108.456,117.323,108.392,117.352Zm24.134-.623c-1.062.444-4.687,1.783-5.62,2.183-.06.028-.09.038-.117.117-.037.11-.151.475-.2.671-.021.079.05.078.116.051.128-.051.294-.148.44-.21.734-.307,4.188-1.606,5.131-1.982a.241.241,0,0,0,.142-.123,6.52,6.52,0,0,0,.2-.631C132.633,116.728,132.59,116.7,132.526,116.729Zm-27.316-.04c-1.062.443-3.467,1.4-4.4,1.8-.06.028-.092.038-.117.118-.038.11-.152.474-.2.671-.02.079.051.077.116.051.13-.052.294-.15.44-.21.736-.308,2.968-1.227,3.91-1.6a.243.243,0,0,0,.143-.123,6.546,6.546,0,0,0,.2-.632C105.316,116.687,105.274,116.66,105.209,116.689Z" transform="translate(-100.486 -116.678)" fill="#1d1d1b" style="mix-blend-mode: darken;isolation: isolate"/>
        </g>
      </g>
      <g id="Group_11838" data-name="Group 11838" transform="translate(4170 26)">
        <text id="_" data-name="﴾" fill="#1d1d1b" font-size="20" font-family="GeezaPro, Geeza Pro"><tspan x="0" y="18">﴾</tspan></text>
      </g>
      <text id="_2" data-name="﴿" transform="translate(4504 25)" fill="#1d1d1b" font-size="20" font-family="GeezaPro, Geeza Pro"><tspan x="0" y="18">﴿</tspan></text>
    </g>
  </g>
</svg>
