<svg xmlns="http://www.w3.org/2000/svg" width="65.318" height="66.363" viewBox="0 0 65.318 66.363">
  <g id="Group_11461" data-name="Group 11461" transform="translate(-139.21 -113.88)">
    <g id="Group_11447" data-name="Group 11447" transform="translate(169.876 173.164)">
      <path id="Path_10740" data-name="Path 10740" d="M246.206,321.446a4.379,4.379,0,0,1-.76.09l-.066-1.21a2.879,2.879,0,0,0,1.976-.786h.973v6.845h-1.418v-5.144A2.626,2.626,0,0,1,246.206,321.446Z" transform="translate(-245.38 -319.422)" fill="#d8a97d"/>
      <path id="Path_10741" data-name="Path 10741" d="M260.062,324.621a7.319,7.319,0,0,1-.222-1.967,4.814,4.814,0,0,1,.586-2.646,2.17,2.17,0,0,1,1.947-.878,2.387,2.387,0,0,1,1.456.4,2.1,2.1,0,0,1,.742,1.15,7.132,7.132,0,0,1,.214,1.9,5.249,5.249,0,0,1-.566,2.738,2.118,2.118,0,0,1-1.938.893,2.354,2.354,0,0,1-1.456-.407A2.177,2.177,0,0,1,260.062,324.621Zm3.131-.546a9.854,9.854,0,0,0,.081-1.441,10.379,10.379,0,0,0-.072-1.41,1.438,1.438,0,0,0-.269-.737.707.707,0,0,0-.578-.237.765.765,0,0,0-.6.237,1.53,1.53,0,0,0-.3.757,8.681,8.681,0,0,0-.09,1.418,10.483,10.483,0,0,0,.075,1.412,1.535,1.535,0,0,0,.283.765.827.827,0,0,0,1.181.006A1.567,1.567,0,0,0,263.193,324.075Z" transform="translate(-255.663 -319.13)" fill="#d8a97d"/>
      <path id="Path_10742" data-name="Path 10742" d="M279.212,324.621a7.32,7.32,0,0,1-.222-1.967,4.814,4.814,0,0,1,.586-2.646,2.17,2.17,0,0,1,1.947-.878,2.387,2.387,0,0,1,1.456.4,2.1,2.1,0,0,1,.742,1.15,7.132,7.132,0,0,1,.214,1.9,5.249,5.249,0,0,1-.566,2.738,2.118,2.118,0,0,1-1.938.893,2.354,2.354,0,0,1-1.456-.407A2.161,2.161,0,0,1,279.212,324.621Zm3.128-.546a9.858,9.858,0,0,0,.081-1.441,10.372,10.372,0,0,0-.072-1.41,1.437,1.437,0,0,0-.269-.737.707.707,0,0,0-.578-.237.764.764,0,0,0-.6.237,1.53,1.53,0,0,0-.3.757,8.678,8.678,0,0,0-.09,1.418,10.489,10.489,0,0,0,.075,1.412,1.535,1.535,0,0,0,.283.765.827.827,0,0,0,1.181.006A1.539,1.539,0,0,0,282.341,324.075Z" transform="translate(-269.282 -319.13)" fill="#d8a97d"/>
      <path id="Path_10743" data-name="Path 10743" d="M305.2,319.543l-2.5,2.845,2.467,4h-1.7l-1.805-2.865-.661.719v2.146H299.55V319.54H301v2.932l2.657-2.932H305.2Z" transform="translate(-283.904 -319.422)" fill="#d8a97d"/>
      <path id="Path_10744" data-name="Path 10744" d="M322.13,328.591v-1.126h1.256V326.15h1.135v1.314h1.268v1.126h-1.268v1.352h-1.135v-1.352Z" transform="translate(-299.962 -324.122)" fill="#d8a97d"/>
    </g>
    <path id="Path_10745" data-name="Path 10745" d="M208.07,194.6a17.424,17.424,0,0,0-15.88-15.8,17.427,17.427,0,0,0,15.88,15.8" transform="translate(-37.677 -46.169)" fill="#d8a97d"/>
    <path id="Path_10746" data-name="Path 10746" d="M257.39,194.6a17.427,17.427,0,0,0,15.88-15.8,17.422,17.422,0,0,0-15.88,15.8" transform="translate(-84.045 -46.169)" fill="#d8a97d"/>
    <path id="Path_10747" data-name="Path 10747" d="M155.09,193.939a17.427,17.427,0,0,0-15.88-15.8,17.427,17.427,0,0,0,15.88,15.8" transform="translate(0 -45.699)" fill="#d8a97d"/>
    <path id="Path_10748" data-name="Path 10748" d="M310.37,193.939a17.427,17.427,0,0,0,15.88-15.8,17.419,17.419,0,0,0-15.88,15.8" transform="translate(-121.723 -45.699)" fill="#d8a97d"/>
    <path id="Path_10749" data-name="Path 10749" d="M237.71,145.728a17.318,17.318,0,0,0,4.208,11.348,17.405,17.405,0,0,0,0-22.7,17.35,17.35,0,0,0-4.208,11.348" transform="translate(-70.05 -14.579)" fill="#d8a97d"/>
    <path id="Path_10750" data-name="Path 10750" d="M192.19,129.679a17.422,17.422,0,0,0,15.88-15.8,17.419,17.419,0,0,0-15.88,15.8" transform="translate(-37.677 0)" fill="#d8a97d"/>
    <path id="Path_10751" data-name="Path 10751" d="M273.27,129.679a17.427,17.427,0,0,0-15.88-15.8,17.424,17.424,0,0,0,15.88,15.8" transform="translate(-84.045 0)" fill="#d8a97d"/>
    <g id="Group_11448" data-name="Group 11448" transform="translate(148.441 158.159)">
      <path id="Path_10752" data-name="Path 10752" d="M171.67,287.031a3.192,3.192,0,0,1-.5-1.776,5.53,5.53,0,0,1,.312-1.854,5.86,5.86,0,0,1,.875-1.62l.8.5a4.684,4.684,0,0,0-.8,2.5,2.235,2.235,0,0,0,.774,1.791,3.092,3.092,0,0,0,2.088.664,5.357,5.357,0,0,0,1.759-.3,4.479,4.479,0,0,0,1.424-.76,1.266,1.266,0,0,0,.555-.93.4.4,0,0,0-.179-.335,2.337,2.337,0,0,0-.633-.274l-1.126-.344a3.218,3.218,0,0,1-1.392-.76,1.668,1.668,0,0,1-.439-1.2,2.64,2.64,0,0,1,.39-1.384,3,3,0,0,1,1.034-1.04,2.613,2.613,0,0,1,1.378-.39,1.876,1.876,0,0,1,1.415.54,2.427,2.427,0,0,1,.6,1.557l-.97.11a.957.957,0,0,0-.338-.673,1.2,1.2,0,0,0-.774-.234,1.814,1.814,0,0,0-1.141.384,1.1,1.1,0,0,0-.5.869.584.584,0,0,0,.266.5,4.4,4.4,0,0,0,1.08.439l1.112.344a2.458,2.458,0,0,1,1.1.618,1.4,1.4,0,0,1,.352.979,2.757,2.757,0,0,1-.728,1.8,5.188,5.188,0,0,1-1.924,1.384,6.149,6.149,0,0,1-2.5.523,4.519,4.519,0,0,1-2-.43A3.386,3.386,0,0,1,171.67,287.031Zm3.538,3.827-.893.907-1.063-1.08,1.063-1.08.893.907.892-.907,1.063,1.08-1.063,1.08Z" transform="translate(-171.17 -275.963)" fill="#d8a97d"/>
      <path id="Path_10753" data-name="Path 10753" d="M210.486,281.527l-.251.156a3.969,3.969,0,0,1-.994-.11,3.067,3.067,0,0,1-.806-.344,4.776,4.776,0,0,1-.783,1.823,4.424,4.424,0,0,1-1.378,1.291,3.154,3.154,0,0,1-1.612.468,2.6,2.6,0,0,1-2.033-.985l.361-.783a3.106,3.106,0,0,0,1.392.344,2.792,2.792,0,0,0,1.47-.416,3.31,3.31,0,0,0,1.126-1.135,3.626,3.626,0,0,0,.517-1.58,14.493,14.493,0,0,0-.815-2.487l1.173-.453c.26.8.491,1.436.687,1.892a1.841,1.841,0,0,0,.6.846,2.044,2.044,0,0,0,1.086.22l.251.156v1.1Zm-3.333-7.417,1.063,1.08-1.063,1.08-1.063-1.08Z" transform="translate(-193.543 -272.108)" fill="#d8a97d"/>
      <path id="Path_10754" data-name="Path 10754" d="M228.1,295.616l.251-.156h2.911l.251.156v1.095l-.251.156h-2.911l-.251-.156Z" transform="translate(-211.656 -287.292)" fill="#d8a97d"/>
      <path id="Path_10755" data-name="Path 10755" d="M238.17,295.616l.251-.156h2.911l.251.156v1.095l-.251.156h-2.911l-.251-.156Z" transform="translate(-218.818 -287.292)" fill="#d8a97d"/>
      <path id="Path_10756" data-name="Path 10756" d="M248.25,295.616l.251-.156h2.911l.251.156v1.095l-.251.156H248.5l-.251-.156Z" transform="translate(-225.986 -287.292)" fill="#d8a97d"/>
      <path id="Path_10757" data-name="Path 10757" d="M258.32,275.5l.251-.156a4.917,4.917,0,0,0,1.768-.274c.468-.182.7-.4.7-.65a5.6,5.6,0,0,0-.274-1.516,9.092,9.092,0,0,0-.682-1.69l1.126-.627a8,8,0,0,1,.65,1.759,7.331,7.331,0,0,1,.274,1.776,2.3,2.3,0,0,1-.875,1.987,4.572,4.572,0,0,1-2.692.641l-.251-.156Zm2.3-8.324,1.063,1.08-1.063,1.08-1.063-1.08Z" transform="translate(-233.148 -267.18)" fill="#d8a97d"/>
      <path id="Path_10758" data-name="Path 10758" d="M280.579,284.563a6.476,6.476,0,0,1-.407,2.322,4,4,0,0,1-1.2,1.721,2.9,2.9,0,0,1-1.892.65,2.747,2.747,0,0,1-1.219-.289,1.976,1.976,0,0,1-.846-.7l.361-.783a3.689,3.689,0,0,0,1.548.361,2.356,2.356,0,0,0,1.745-.65,2.914,2.914,0,0,0,.791-1.745,2.339,2.339,0,0,1-1.643.549,2.089,2.089,0,0,1-1.658-.719,2.775,2.775,0,0,1-.627-1.892,3.62,3.62,0,0,1,.321-1.548,2.656,2.656,0,0,1,.892-1.086,2.153,2.153,0,0,1,1.259-.4,2.117,2.117,0,0,1,1.9,1.112A5.924,5.924,0,0,1,280.579,284.563Zm-2.582.173a3.084,3.084,0,0,0,.838-.118,1.792,1.792,0,0,0,.65-.306,4.532,4.532,0,0,0-.439-1.932,1.334,1.334,0,0,0-2.12-.173,1.807,1.807,0,0,0-.352,1.15,1.338,1.338,0,0,0,.375,1.008A1.415,1.415,0,0,0,278,284.736Z" transform="translate(-245.017 -276.553)" fill="#d8a97d"/>
      <path id="Path_10759" data-name="Path 10759" d="M302.346,289.421l-.251.156a3.967,3.967,0,0,1-.994-.11,3.067,3.067,0,0,1-.806-.344,4.776,4.776,0,0,1-.783,1.823,4.425,4.425,0,0,1-1.378,1.291,3.154,3.154,0,0,1-1.612.468,2.6,2.6,0,0,1-2.033-.985l.361-.783a3.106,3.106,0,0,0,1.392.344,2.792,2.792,0,0,0,1.47-.416,3.311,3.311,0,0,0,1.126-1.135,3.626,3.626,0,0,0,.517-1.58,14.5,14.5,0,0,0-.815-2.487l1.173-.453c.26.8.491,1.436.687,1.892a1.841,1.841,0,0,0,.6.846,2.044,2.044,0,0,0,1.086.22l.251.156v1.1Z" transform="translate(-258.871 -280.002)" fill="#d8a97d"/>
      <path id="Path_10760" data-name="Path 10760" d="M319.96,283.9l.251-.156a4.917,4.917,0,0,0,1.768-.274c.468-.182.7-.4.7-.65a5.6,5.6,0,0,0-.274-1.516,9.092,9.092,0,0,0-.682-1.69l1.126-.627a8,8,0,0,1,.65,1.759,7.331,7.331,0,0,1,.274,1.776,2.3,2.3,0,0,1-.875,1.987,4.571,4.571,0,0,1-2.692.641L319.96,285Zm1.97,2.331,1.063,1.08-1.063,1.08-1.063-1.08Z" transform="translate(-276.984 -275.579)" fill="#d8a97d"/>
    </g>
  </g>
</svg>
