<svg xmlns="http://www.w3.org/2000/svg" width="226.141" height="229.82" viewBox="0 0 226.141 229.82">
  <g id="Group_11651" data-name="Group 11651" transform="translate(0 0)">
    <g id="Group_11405" data-name="Group 11405" transform="translate(104.66 202.62)">
      <path id="Path_10670" data-name="Path 10670" d="M2156.73,320.35h-10.01l-.63,6.69a7.469,7.469,0,0,1,5.1-1.77,6.823,6.823,0,0,1,5.13,2.01c1.3,1.34,1.96,3.39,1.96,6.15a8.976,8.976,0,0,1-2.59,6.83,9.669,9.669,0,0,1-6.98,2.48,10.055,10.055,0,0,1-5.87-1.63,7.148,7.148,0,0,1-2.84-5.25l4.84-1a4.272,4.272,0,0,0,1.15,2.57,3.779,3.779,0,0,0,2.73.91,3.822,3.822,0,0,0,2.88-1.18,4.878,4.878,0,0,0,1.14-3.51q0-4.1-3.55-4.1a5.635,5.635,0,0,0-3.92,1.77l-3.62-1.51,1-14.26h14.08v4.8Z" transform="translate(-2140 -315.54)" fill="#96baca"/>
      <path id="Path_10671" data-name="Path 10671" d="M2185.77,321.31h-.15l-6.32,20.98h-5.13l-6.1-21.02h-.15v21.02h-5.21V315.54h8.5l5.65,19.54h.15l5.62-19.54h8.46v26.75h-5.32Z" transform="translate(-2140 -315.54)" fill="#96baca"/>
      <path id="Path_10672" data-name="Path 10672" d="M2197.15,332.54v-4.4h4.91V323h4.43v5.14h4.95v4.4h-4.95v5.28h-4.43v-5.28Z" transform="translate(-2140 -315.54)" fill="#96baca"/>
    </g>
    <g id="Group_11406" data-name="Group 11406" transform="translate(0 0)">
      <path id="Path_10673" data-name="Path 10673" d="M2143.3,232.55a60.325,60.325,0,0,0-54.98-54.7,60.342,60.342,0,0,0,54.98,54.7" transform="translate(-2035.34 -112.92)" fill="#96baca"/>
      <path id="Path_10674" data-name="Path 10674" d="M2153.53,232.55a60.334,60.334,0,0,0,54.98-54.7,60.291,60.291,0,0,0-54.98,54.7" transform="translate(-2035.34 -112.92)" fill="#96baca"/>
      <path id="Path_10675" data-name="Path 10675" d="M2090.32,231.88a60.334,60.334,0,0,0-54.98-54.7,60.342,60.342,0,0,0,54.98,54.7" transform="translate(-2035.34 -112.92)" fill="#96baca"/>
      <path id="Path_10676" data-name="Path 10676" d="M2206.5,231.88a60.334,60.334,0,0,0,54.98-54.7,60.317,60.317,0,0,0-54.98,54.7" transform="translate(-2035.34 -112.92)" fill="#96baca"/>
      <path id="Path_10677" data-name="Path 10677" d="M2133.84,172.72a59.956,59.956,0,0,0,14.57,39.29,60.26,60.26,0,0,0,0-78.58,60.12,60.12,0,0,0-14.57,39.29" transform="translate(-2035.34 -112.92)" fill="#96baca"/>
      <path id="Path_10678" data-name="Path 10678" d="M2088.33,167.62a60.317,60.317,0,0,0,54.98-54.7,60.316,60.316,0,0,0-54.98,54.7" transform="translate(-2035.34 -112.92)" fill="#96baca"/>
      <path id="Path_10679" data-name="Path 10679" d="M2208.5,167.62a60.334,60.334,0,0,0-54.98-54.7,60.308,60.308,0,0,0,54.98,54.7" transform="translate(-2035.34 -112.92)" fill="#96baca"/>
    </g>
    <g id="Group_11407" data-name="Group 11407" transform="translate(48.39 149.89)">
      <path id="Path_10680" data-name="Path 10680" d="M2117.33,298.84l-.87.54a10.558,10.558,0,0,1-3.68-.6,5.518,5.518,0,0,1-2.09,6.23,18.211,18.211,0,0,1-6.07,3.74,20.111,20.111,0,0,1-7.45,1.46,15.433,15.433,0,0,1-6.99-1.52,11.5,11.5,0,0,1-4.74-4.28,12,12,0,0,1-1.71-6.45,18.047,18.047,0,0,1,1.08-5.96,19.987,19.987,0,0,1,3.03-5.63l2.76,1.73a16.216,16.216,0,0,0-2.76,8.67,7.737,7.737,0,0,0,2.68,6.2,10.706,10.706,0,0,0,7.23,2.3,18.348,18.348,0,0,0,5.47-.84,14.346,14.346,0,0,0,4.44-2.14,3.5,3.5,0,0,0,1.73-2.55c0-.58-.42-1.2-1.27-1.87a43.655,43.655,0,0,0-4.36-2.84l2-3.74q4.11,1.74,6.42,2.46a14,14,0,0,0,4.25.73l.87.54v3.82Zm-19.61,18.96-3.09,3.14-3.68-3.74,3.68-3.74,3.09,3.14,3.09-3.14,3.68,3.74-3.68,3.74Z" transform="translate(-2083.73 -262.81)" fill="#96baca"/>
      <path id="Path_10681" data-name="Path 10681" d="M2152.43,290.28a8.563,8.563,0,0,1-9.1,9.1,7.947,7.947,0,0,1-3.44-.81,7.64,7.64,0,0,1-2.74-2.11,7.35,7.35,0,0,1-2.82,2.11,8.826,8.826,0,0,1-3.68.81,8.011,8.011,0,0,1-3.66-.81,6.1,6.1,0,0,1-2.52-2.33,6.221,6.221,0,0,1-3.03,2.41,15.516,15.516,0,0,1-4.98.73l-.87-.54v-3.79l.87-.54a11.506,11.506,0,0,0,3.71-.54,4.062,4.062,0,0,0,2.03-2.06,21.851,21.851,0,0,0,1.57-5.09l3.52.7a46.086,46.086,0,0,1-1.08,4.6,5.125,5.125,0,0,0,4.6,2.44,5.05,5.05,0,0,0,3.14-.87,4.575,4.575,0,0,0,1.57-2.71,62.4,62.4,0,0,0,1.08-6.77l3.68.43c-.47,3.76-.7,5.92-.7,6.5a3.043,3.043,0,0,0,1.17,2.44,4.54,4.54,0,0,0,3.01.98,5.976,5.976,0,0,0,3.44-.98,2.752,2.752,0,0,0,1.43-2.28,20.236,20.236,0,0,0-.97-5.44,31.823,31.823,0,0,0-2.38-5.99l3.96-1.84a25.281,25.281,0,0,1,2.25,5.99A26.1,26.1,0,0,1,2152.43,290.28Z" transform="translate(-2083.73 -262.81)" fill="#96baca"/>
      <path id="Path_10682" data-name="Path 10682" d="M2158.38,262.81h4.28l-.22,27.36a3.942,3.942,0,0,0,1.3,3.33,7,7,0,0,0,4.23,1l.87.54v3.79l-.87.54q-9.27,0-9.37-7.58Z" transform="translate(-2083.73 -262.81)" fill="#96baca"/>
      <path id="Path_10683" data-name="Path 10683" d="M2167.1,295.04l.87-.54h10.08l.87.54v3.79l-.87.54h-10.08l-.87-.54Z" transform="translate(-2083.73 -262.81)" fill="#96baca"/>
      <path id="Path_10684" data-name="Path 10684" d="M2177.18,295.04l.87-.54h10.08l.87.54v3.79l-.87.54h-10.08l-.87-.54Z" transform="translate(-2083.73 -262.81)" fill="#96baca"/>
      <path id="Path_10685" data-name="Path 10685" d="M2211.73,285.32a13.289,13.289,0,0,1,1.14,5.34,9.81,9.81,0,0,1-2.22,6.77,7.46,7.46,0,0,1-5.85,2.49,10.079,10.079,0,0,1-4.71-1.22,15.128,15.128,0,0,1-4.44-3.71,10.708,10.708,0,0,1-3.36,3.3,8.1,8.1,0,0,1-4.17,1.08l-.87-.54v-3.79l.87-.54a5.4,5.4,0,0,0,3.25-.87,10.144,10.144,0,0,0,2.49-3.14l2.98-5.15a16.062,16.062,0,0,1,3.58-4.47,6.48,6.48,0,0,1,4.17-1.49,6.2,6.2,0,0,1,4.09,1.65A11.645,11.645,0,0,1,2211.73,285.32Zm-2.54,5.23a7.5,7.5,0,0,0-.6-2.87,6.653,6.653,0,0,0-1.68-2.44,3.494,3.494,0,0,0-2.38-.98,4.041,4.041,0,0,0-2.76.95,11.594,11.594,0,0,0-2.22,2.95l-1.68,3.09a10.179,10.179,0,0,0,3.39,2.82,8.407,8.407,0,0,0,3.82.98,3.948,3.948,0,0,0,3.03-1.16A4.742,4.742,0,0,0,2209.19,290.55Z" transform="translate(-2083.73 -262.81)" fill="#96baca"/>
    </g>
  </g>
</svg>
