<svg id="Group_11456" data-name="Group 11456" xmlns="http://www.w3.org/2000/svg" width="66" height="66.943" viewBox="0 0 66 66.943">
  <g id="Group_11423" data-name="Group 11423" transform="translate(30.826 58.996)">
    <path id="Path_10706" data-name="Path 10706" d="M1513.964,317.077a2.891,2.891,0,0,1-.172,1,3.774,3.774,0,0,1-.522.934,14.7,14.7,0,0,1-.986,1.159l-1.273,1.4v.032h3.073v1.4H1509.1V321.65l1.673-1.953.184-.2q.538-.626.8-.966a3.7,3.7,0,0,0,.415-.674,1.594,1.594,0,0,0,.158-.689.818.818,0,0,0-.216-.61.906.906,0,0,0-.657-.21.917.917,0,0,0-.738.286,1.734,1.734,0,0,0-.33.867l-1.465-.248a2.281,2.281,0,0,1,.846-1.649,3,3,0,0,1,1.848-.54,2.587,2.587,0,0,1,1.751.522A1.881,1.881,0,0,1,1513.964,317.077Z" transform="translate(-1508.92 -315.06)" fill="#dbc47b"/>
    <path id="Path_10707" data-name="Path 10707" d="M1537.39,317.224h-.044l-1.844,6.123H1534l-1.781-6.135h-.044v6.135h-1.52V315.54h2.481l1.649,5.7h.044l1.64-5.7h2.469v7.807h-1.552Z" transform="translate(-1524.315 -315.4)" fill="#dbc47b"/>
    <path id="Path_10708" data-name="Path 10708" d="M1565.1,325.784V324.5h1.433V323h1.293v1.5h1.445v1.284h-1.445v1.541h-1.293v-1.541Z" transform="translate(-1548.704 -320.683)" fill="#dbc47b"/>
  </g>
  <g id="Group_11432" data-name="Group 11432" transform="translate(0 0)">
    <g id="Group_11431" data-name="Group 11431">
      <g id="Group_11424" data-name="Group 11424" transform="translate(15.462 18.95)">
        <path id="Path_10709" data-name="Path 10709" d="M1472.326,193.814a17.606,17.606,0,0,0-16.046-15.964,17.609,17.609,0,0,0,16.046,15.964" transform="translate(-1456.28 -177.85)" fill="#dbc47b"/>
      </g>
      <g id="Group_11425" data-name="Group 11425" transform="translate(34.491 18.95)">
        <path id="Path_10710" data-name="Path 10710" d="M1521.48,193.814a17.609,17.609,0,0,0,16.046-15.964,17.6,17.6,0,0,0-16.046,15.964" transform="translate(-1521.48 -177.85)" fill="#dbc47b"/>
      </g>
      <g id="Group_11426" data-name="Group 11426" transform="translate(0 18.755)">
        <path id="Path_10711" data-name="Path 10711" d="M1419.346,193.144A17.609,17.609,0,0,0,1403.3,177.18a17.608,17.608,0,0,0,16.046,15.964" transform="translate(-1403.3 -177.18)" fill="#dbc47b"/>
      </g>
      <g id="Group_11427" data-name="Group 11427" transform="translate(49.954 18.755)">
        <path id="Path_10712" data-name="Path 10712" d="M1574.46,193.144a17.609,17.609,0,0,0,16.046-15.964,17.6,17.6,0,0,0-16.046,15.964" transform="translate(-1574.46 -177.18)" fill="#dbc47b"/>
      </g>
      <g id="Group_11428" data-name="Group 11428" transform="translate(28.748 5.986)">
        <path id="Path_10713" data-name="Path 10713" d="M1501.8,144.9a17.5,17.5,0,0,0,4.252,11.467,17.587,17.587,0,0,0,0-22.934A17.531,17.531,0,0,0,1501.8,144.9" transform="translate(-1501.8 -133.43)" fill="#dbc47b"/>
      </g>
      <g id="Group_11429" data-name="Group 11429" transform="translate(15.462)">
        <path id="Path_10714" data-name="Path 10714" d="M1456.28,128.884a17.6,17.6,0,0,0,16.046-15.964,17.606,17.606,0,0,0-16.046,15.964" transform="translate(-1456.28 -112.92)" fill="#dbc47b"/>
      </g>
      <g id="Group_11430" data-name="Group 11430" transform="translate(34.491)">
        <path id="Path_10715" data-name="Path 10715" d="M1537.526,128.884a17.609,17.609,0,0,0-16.046-15.964,17.6,17.6,0,0,0,16.046,15.964" transform="translate(-1521.48 -112.92)" fill="#dbc47b"/>
      </g>
    </g>
  </g>
  <g id="Group_11433" data-name="Group 11433" transform="translate(13.662 44.712)">
    <path id="Path_10716" data-name="Path 10716" d="M1459.916,290.009l-.254.158a3.083,3.083,0,0,1-1.074-.175,1.61,1.61,0,0,1-.61,1.818,5.315,5.315,0,0,1-1.772,1.091,5.871,5.871,0,0,1-2.174.426,4.5,4.5,0,0,1-2.04-.444,3.358,3.358,0,0,1-1.384-1.249,3.5,3.5,0,0,1-.5-1.882,5.269,5.269,0,0,1,.315-1.74,5.839,5.839,0,0,1,.884-1.643l.806.5a4.734,4.734,0,0,0-.806,2.53,2.258,2.258,0,0,0,.782,1.81,3.125,3.125,0,0,0,2.11.671,5.354,5.354,0,0,0,1.6-.245,4.217,4.217,0,0,0,1.3-.625,1.021,1.021,0,0,0,.505-.744c0-.169-.123-.35-.371-.546a12.755,12.755,0,0,0-1.272-.829l.583-1.092q1.2.508,1.874.718a4.087,4.087,0,0,0,1.24.213l.254.158v1.115Zm-5.723,5.534-.9.916-1.074-1.092,1.074-1.092.9.916.9-.916,1.074,1.092-1.074,1.092Z" transform="translate(-1450.11 -280.46)" fill="#dbc47b"/>
    <path id="Path_10717" data-name="Path 10717" d="M1481.98,294.658l.254-.158h2.942l.254.158v1.106l-.254.158h-2.942l-.254-.158Z" transform="translate(-1472.678 -286.217)" fill="#dbc47b"/>
    <path id="Path_10718" data-name="Path 10718" d="M1497.766,288.487l-.254.158a2.611,2.611,0,0,1-2.466-1.059,2.014,2.014,0,0,1-1.036.782,4.785,4.785,0,0,1-1.716.277l-.254-.158v-1.106l.254-.158a3.659,3.659,0,0,0,1.532-.245,1.064,1.064,0,0,0,.616-.782q.206-1.011.315-1.976l1.074.125c-.137,1.1-.2,1.728-.2,1.9q0,.981,1.882.981l.254.158v1.106Zm-2.86,1.249,1.074,1.092-1.074,1.092-1.074-1.092Z" transform="translate(-1479.802 -278.938)" fill="#dbc47b"/>
    <path id="Path_10719" data-name="Path 10719" d="M1509.93,294.658l.254-.158h2.942l.254.158v1.106l-.254.158h-2.942l-.254-.158Z" transform="translate(-1492.471 -286.217)" fill="#dbc47b"/>
    <path id="Path_10720" data-name="Path 10720" d="M1520,294.658l.254-.158h2.942l.254.158v1.106l-.254.158h-2.942l-.254-.158Z" transform="translate(-1499.602 -286.217)" fill="#dbc47b"/>
    <path id="Path_10721" data-name="Path 10721" d="M1538.434,277.157a2.284,2.284,0,0,1-.726,1.81,3.088,3.088,0,0,1-2.1.639,4.823,4.823,0,0,1-1.124-.149,7.369,7.369,0,0,1-1.2-.4,9.4,9.4,0,0,1-1.494.4,8.008,8.008,0,0,1-1.462.149l-.254-.158v-1.106l.254-.158a13.78,13.78,0,0,0,1.486-.064,2.177,2.177,0,0,1-.712-1.629,2.943,2.943,0,0,1,.315-1.36,2.625,2.625,0,0,1,.838-.981,1.906,1.906,0,0,1,1.106-.365,1.987,1.987,0,0,1,1.643.773,3.013,3.013,0,0,1,.616,1.929,2.1,2.1,0,0,1-.759,1.675c.295.02.525.032.695.032a2.736,2.736,0,0,0,1.319-.268.907.907,0,0,0,.481-.855,3.638,3.638,0,0,0-.411-1.588,5.168,5.168,0,0,0-1.281-1.605,7.163,7.163,0,0,0-2.134-1.249l.633-1.17a7.572,7.572,0,0,1,3.211,2.481A5.541,5.541,0,0,1,1538.434,277.157Zm-5.09.648q1.3-.46,1.3-1.471a1.327,1.327,0,0,0-.333-.9,1.19,1.19,0,0,0-.949-.379,1.2,1.2,0,0,0-.948.371,1.315,1.315,0,0,0-.333.908,1.274,1.274,0,0,0,.333.846A2.271,2.271,0,0,0,1533.345,277.8Z" transform="translate(-1506.734 -269.901)" fill="#dbc47b"/>
    <path id="Path_10722" data-name="Path 10722" d="M1563.708,275.827l-.158-1.471a12.528,12.528,0,0,0,1.993.158,7.278,7.278,0,0,0,1.614-.166c.484-.111.726-.234.726-.371a3.6,3.6,0,0,0-.689-1.818,9.2,9.2,0,0,0-1.748-1.993l.981-.934a8.567,8.567,0,0,1,1.865,2.291,4.949,4.949,0,0,1,.694,2.373,1.671,1.671,0,0,1-.806,1.564,5.479,5.479,0,0,1-2.641.476c-.283,0-.6-.012-.957-.032S1563.938,275.859,1563.708,275.827Zm2.308-9.707,1.074,1.092-1.074,1.092-1.074-1.092Z" transform="translate(-1530.442 -266.12)" fill="#dbc47b"/>
  </g>
</svg>
