<svg xmlns="http://www.w3.org/2000/svg" width="226.141" height="229.811" viewBox="0 0 226.141 229.811">
  <g id="Group_11728" data-name="Group 11728" transform="translate(-2667.39 -112.92)">
    <g id="Group_11410" data-name="Group 11410">
      <g id="Group_11409" data-name="Group 11409">
        <path id="Path_10686" data-name="Path 10686" d="M2774.15,322.99a17.943,17.943,0,0,1-2.97.35l-.26-4.73q5.28-.4,7.72-3.07h3.8v26.75h-5.54v-20.1A10.406,10.406,0,0,1,2774.15,322.99Z" fill="#8b8b8b"/>
        <path id="Path_10687" data-name="Path 10687" d="M2788.12,336.53a28.39,28.39,0,0,1-.87-7.68q0-6.915,2.29-10.34c1.53-2.29,4.06-3.44,7.61-3.44a9.331,9.331,0,0,1,5.69,1.55,8.133,8.133,0,0,1,2.9,4.49,28.078,28.078,0,0,1,.83,7.44q0,7.2-2.22,10.69t-7.57,3.49a9.217,9.217,0,0,1-5.69-1.59A8.459,8.459,0,0,1,2788.12,336.53Zm12.23-2.13a39.217,39.217,0,0,0,.31-5.63,40.7,40.7,0,0,0-.28-5.5,5.8,5.8,0,0,0-1.05-2.88,2.765,2.765,0,0,0-2.25-.92,3.028,3.028,0,0,0-2.35.92,5.929,5.929,0,0,0-1.18,2.96,34.629,34.629,0,0,0-.35,5.54,39.445,39.445,0,0,0,.3,5.52,6.08,6.08,0,0,0,1.11,2.99,3.236,3.236,0,0,0,4.62.02A6.286,6.286,0,0,0,2800.35,334.4Z" fill="#8b8b8b"/>
        <path id="Path_10688" data-name="Path 10688" d="M2833.5,321.31h-.15l-6.32,20.98h-5.13l-6.1-21.02h-.15v21.02h-5.21V315.54h8.5l5.65,19.54h.15l5.62-19.54h8.46v26.75h-5.32Z" fill="#8b8b8b"/>
        <path id="Path_10689" data-name="Path 10689" d="M2844.89,332.54v-4.4h4.91V323h4.43v5.14h4.95v4.4h-4.95v5.28h-4.43v-5.28Z" fill="#8b8b8b"/>
      </g>
    </g>
    <g id="Group_11419" data-name="Group 11419">
      <g id="Group_11418" data-name="Group 11418">
        <g id="Group_11411" data-name="Group 11411">
          <path id="Path_10690" data-name="Path 10690" d="M2775.35,232.55a60.325,60.325,0,0,0-54.98-54.7,60.334,60.334,0,0,0,54.98,54.7" fill="#8b8b8b"/>
        </g>
        <g id="Group_11412" data-name="Group 11412">
          <path id="Path_10691" data-name="Path 10691" d="M2785.57,232.55a60.334,60.334,0,0,0,54.98-54.7,60.3,60.3,0,0,0-54.98,54.7" fill="#8b8b8b"/>
        </g>
        <g id="Group_11413" data-name="Group 11413">
          <path id="Path_10692" data-name="Path 10692" d="M2722.37,231.88a60.334,60.334,0,0,0-54.98-54.7,60.334,60.334,0,0,0,54.98,54.7" fill="#8b8b8b"/>
        </g>
        <g id="Group_11414" data-name="Group 11414">
          <path id="Path_10693" data-name="Path 10693" d="M2838.55,231.88a60.334,60.334,0,0,0,54.98-54.7,60.308,60.308,0,0,0-54.98,54.7" fill="#8b8b8b"/>
        </g>
        <g id="Group_11415" data-name="Group 11415">
          <path id="Path_10694" data-name="Path 10694" d="M2765.88,172.72a59.956,59.956,0,0,0,14.57,39.29,60.26,60.26,0,0,0,0-78.58,60.12,60.12,0,0,0-14.57,39.29" fill="#8b8b8b"/>
        </g>
        <g id="Group_11416" data-name="Group 11416">
          <path id="Path_10695" data-name="Path 10695" d="M2720.37,167.62a60.317,60.317,0,0,0,54.98-54.7,60.325,60.325,0,0,0-54.98,54.7" fill="#8b8b8b"/>
        </g>
        <g id="Group_11417" data-name="Group 11417">
          <path id="Path_10696" data-name="Path 10696" d="M2840.55,167.62a60.334,60.334,0,0,0-54.98-54.7,60.3,60.3,0,0,0,54.98,54.7" fill="#8b8b8b"/>
        </g>
      </g>
    </g>
    <g id="Group_11421" data-name="Group 11421">
      <g id="Group_11420" data-name="Group 11420">
        <path id="Path_10697" data-name="Path 10697" d="M2737.97,298.84l-.87.54a10.558,10.558,0,0,1-3.68-.6,5.518,5.518,0,0,1-2.09,6.23,18.211,18.211,0,0,1-6.07,3.74,20.111,20.111,0,0,1-7.45,1.46,15.433,15.433,0,0,1-6.99-1.52,11.5,11.5,0,0,1-4.74-4.28,12,12,0,0,1-1.71-6.45,18.047,18.047,0,0,1,1.08-5.96,19.987,19.987,0,0,1,3.03-5.63l2.76,1.73a16.216,16.216,0,0,0-2.76,8.67,7.737,7.737,0,0,0,2.68,6.2,10.706,10.706,0,0,0,7.23,2.3,18.348,18.348,0,0,0,5.47-.84,14.346,14.346,0,0,0,4.44-2.14,3.5,3.5,0,0,0,1.73-2.55c0-.58-.42-1.2-1.27-1.87a43.655,43.655,0,0,0-4.36-2.84l2-3.74q4.11,1.74,6.42,2.46a14,14,0,0,0,4.25.73l.87.54v3.82Zm-19.61,18.96-3.09,3.14-3.68-3.74,3.68-3.74,3.09,3.14,3.09-3.14,3.68,3.74-3.68,3.74Z" fill="#8b8b8b"/>
        <path id="Path_10698" data-name="Path 10698" d="M2755.84,298.84l-.87.54q-6.345,0-8.45-3.63a6.9,6.9,0,0,1-3.55,2.68,16.4,16.4,0,0,1-5.88.95l-.87-.54v-3.79l.87-.54a12.531,12.531,0,0,0,5.25-.84,3.646,3.646,0,0,0,2.11-2.68q.7-3.465,1.08-6.77l3.68.43c-.47,3.76-.7,5.92-.7,6.5q0,3.36,6.45,3.36l.87.54v3.79Zm-8.23-26.11,3.68,3.74-3.68,3.74-3.68-3.74Z" fill="#8b8b8b"/>
        <path id="Path_10699" data-name="Path 10699" d="M2773.72,298.84l-.87.54q-6.345,0-8.45-3.63a6.9,6.9,0,0,1-3.55,2.68,16.4,16.4,0,0,1-5.88.95l-.87-.54v-3.79l.87-.54a12.531,12.531,0,0,0,5.25-.84,3.646,3.646,0,0,0,2.11-2.68q.7-3.465,1.08-6.77l3.68.43c-.47,3.76-.7,5.92-.7,6.5q0,3.36,6.45,3.36l.87.54v3.79Zm-9.81,8.66-3.09,3.14-3.68-3.74,3.68-3.74,3.09,3.14,3.09-3.14,3.68,3.74-3.68,3.74Z" fill="#8b8b8b"/>
        <path id="Path_10700" data-name="Path 10700" d="M2771.98,295.05l.87-.54h10.08l.87.54v3.79l-.87.54h-10.08l-.87-.54Z" fill="#8b8b8b"/>
        <path id="Path_10701" data-name="Path 10701" d="M2782.06,295.05l.87-.54a17.026,17.026,0,0,0,6.12-.95c1.62-.63,2.44-1.38,2.44-2.25a19.391,19.391,0,0,0-.95-5.25,31.457,31.457,0,0,0-2.36-5.85l3.9-2.17a27.69,27.69,0,0,1,2.25,6.09,25.387,25.387,0,0,1,.95,6.15q0,4.665-3.03,6.88t-9.32,2.22l-.87-.54v-3.79Zm7.96-24.49-3.09,3.14-3.68-3.74,3.68-3.74,3.09,3.14,3.09-3.14,3.68,3.74-3.68,3.74Z" fill="#8b8b8b"/>
        <path id="Path_10702" data-name="Path 10702" d="M2826.53,298.84l-.87.54a13.487,13.487,0,0,1-4.9-.81,6.968,6.968,0,0,1-3.17-2.27,8.137,8.137,0,0,1-3.82,2.55,18.792,18.792,0,0,1-6.26.92c-.94,0-2.16-.05-3.66-.14a23.793,23.793,0,0,1-3.22-.35l-.54-5.04a29.716,29.716,0,0,0,3.55.46c1.54.13,2.81.19,3.82.19h.43l-6.07-22.37,4.28-1.08,5.58,23.18c2.46-.36,3.68-.96,3.68-1.79l-.27-30.01h4.28l-.16,29.58c0,.61.56,1.12,1.68,1.52a14.8,14.8,0,0,0,4.77.6l.87.54v3.78Z" fill="#8b8b8b"/>
        <path id="Path_10703" data-name="Path 10703" d="M2824.79,295.05l.87-.54h10.08l.87.54v3.79l-.87.54h-10.08l-.87-.54Z" fill="#8b8b8b"/>
        <path id="Path_10704" data-name="Path 10704" d="M2834.87,295.05l.87-.54h10.08l.87.54v3.79l-.87.54h-10.08l-.87-.54Z" fill="#8b8b8b"/>
        <path id="Path_10705" data-name="Path 10705" d="M2844.94,295.05l.87-.54a17.026,17.026,0,0,0,6.12-.95c1.62-.63,2.44-1.38,2.44-2.25a19.391,19.391,0,0,0-.95-5.25,31.457,31.457,0,0,0-2.36-5.85l3.9-2.17a27.69,27.69,0,0,1,2.25,6.09,25.387,25.387,0,0,1,.95,6.15q0,4.665-3.03,6.88t-9.32,2.22l-.87-.54v-3.79Zm6.83,8.07,3.68,3.74-3.68,3.74-3.68-3.74Z" fill="#8b8b8b"/>
      </g>
    </g>
  </g>
</svg>
