<svg id="Group_11458" data-name="Group 11458" xmlns="http://www.w3.org/2000/svg" width="65.802" height="66.742" viewBox="0 0 65.802 66.742">
  <g id="Group_11435" data-name="Group 11435" transform="translate(32.642 58.958)">
    <path id="Path_10723" data-name="Path 10723" d="M884.38,317.708a5.22,5.22,0,0,1-.864.1l-.076-1.376a3.266,3.266,0,0,0,2.246-.893h1.106v7.784H885.18v-5.849A3.034,3.034,0,0,1,884.38,317.708Z" transform="translate(-883.44 -315.54)" fill="#d8d8d8"/>
    <path id="Path_10724" data-name="Path 10724" d="M908.06,317.219h-.044l-1.839,6.1h-1.493l-1.775-6.116h-.044v6.116H901.35V315.54h2.473l1.644,5.686h.044l1.635-5.686h2.462v7.784H908.06Z" transform="translate(-896.138 -315.54)" fill="#d8d8d8"/>
    <path id="Path_10725" data-name="Path 10725" d="M935.79,325.776V324.5h1.429V323h1.289v1.5h1.44v1.28h-1.44v1.536h-1.289v-1.536Z" transform="translate(-920.557 -320.829)" fill="#d8d8d8"/>
  </g>
  <g id="Group_11444" data-name="Group 11444">
    <g id="Group_11443" data-name="Group 11443">
      <g id="Group_11436" data-name="Group 11436" transform="translate(15.416 18.893)">
        <path id="Path_10726" data-name="Path 10726" d="M840.238,193.767a17.553,17.553,0,0,0-16-15.917,17.553,17.553,0,0,0,16,15.917" transform="translate(-824.24 -177.85)" fill="#d8d8d8"/>
      </g>
      <g id="Group_11437" data-name="Group 11437" transform="translate(34.388 18.893)">
        <path id="Path_10727" data-name="Path 10727" d="M889.44,193.767a17.556,17.556,0,0,0,16-15.917,17.546,17.546,0,0,0-16,15.917" transform="translate(-889.44 -177.85)" fill="#d8d8d8"/>
      </g>
      <g id="Group_11438" data-name="Group 11438" transform="translate(0 18.698)">
        <path id="Path_10728" data-name="Path 10728" d="M787.258,193.1a17.556,17.556,0,0,0-16-15.917,17.554,17.554,0,0,0,16,15.917" transform="translate(-771.26 -177.18)" fill="#d8d8d8"/>
      </g>
      <g id="Group_11439" data-name="Group 11439" transform="translate(49.804 18.698)">
        <path id="Path_10729" data-name="Path 10729" d="M942.42,193.1a17.556,17.556,0,0,0,16-15.917,17.549,17.549,0,0,0-16,15.917" transform="translate(-942.42 -177.18)" fill="#d8d8d8"/>
      </g>
      <g id="Group_11440" data-name="Group 11440" transform="translate(28.659 5.968)">
        <path id="Path_10730" data-name="Path 10730" d="M869.75,144.863a17.446,17.446,0,0,0,4.24,11.433,17.535,17.535,0,0,0,0-22.865,17.494,17.494,0,0,0-4.24,11.433" transform="translate(-869.75 -133.43)" fill="#d8d8d8"/>
      </g>
      <g id="Group_11441" data-name="Group 11441" transform="translate(15.416)">
        <path id="Path_10731" data-name="Path 10731" d="M824.24,128.837a17.551,17.551,0,0,0,16-15.917,17.551,17.551,0,0,0-16,15.917" transform="translate(-824.24 -112.92)" fill="#d8d8d8"/>
      </g>
      <g id="Group_11442" data-name="Group 11442" transform="translate(34.385)">
        <path id="Path_10732" data-name="Path 10732" d="M905.428,128.837a17.556,17.556,0,0,0-16-15.917,17.551,17.551,0,0,0,16,15.917" transform="translate(-889.43 -112.92)" fill="#d8d8d8"/>
      </g>
    </g>
  </g>
  <g id="Group_11445" data-name="Group 11445" transform="translate(13.478 43.254)">
    <path id="Path_10733" data-name="Path 10733" d="M827.357,290l-.253.157a3.073,3.073,0,0,1-1.071-.175,1.606,1.606,0,0,1-.608,1.813,5.3,5.3,0,0,1-1.766,1.088,5.851,5.851,0,0,1-2.168.425,4.49,4.49,0,0,1-2.034-.442,3.346,3.346,0,0,1-1.379-1.245,3.491,3.491,0,0,1-.5-1.877,5.252,5.252,0,0,1,.314-1.734,5.816,5.816,0,0,1,.882-1.638l.8.5a4.718,4.718,0,0,0-.8,2.523,2.251,2.251,0,0,0,.78,1.8,3.115,3.115,0,0,0,2.1.669,5.338,5.338,0,0,0,1.592-.244,4.176,4.176,0,0,0,1.292-.623,1.018,1.018,0,0,0,.5-.742c0-.169-.122-.349-.37-.544a12.717,12.717,0,0,0-1.269-.826l.582-1.088q1.2.506,1.868.716a4.077,4.077,0,0,0,1.237.212l.253.157V290Zm-5.706,5.517-.9.914-1.071-1.088,1.071-1.088.9.914.9-.914,1.071,1.088-1.071,1.088Z" transform="translate(-817.58 -279.154)" fill="#d8d8d8"/>
    <path id="Path_10734" data-name="Path 10734" d="M849.44,294.667l.253-.157h2.933l.253.157v1.1l-.253.157h-2.933l-.253-.157Z" transform="translate(-840.169 -284.925)" fill="#d8d8d8"/>
    <path id="Path_10735" data-name="Path 10735" d="M872.139,276.18l-.253.157a3.32,3.32,0,0,1-1.181-.2,2.147,2.147,0,0,1-.85-.559,6.318,6.318,0,0,1-3.626.867,11.647,11.647,0,0,1-2.555-.244,4.307,4.307,0,0,1-1.67-.7,1.8,1.8,0,0,1-.876.655,4.248,4.248,0,0,1-1.365.18l-.253-.157v-1.1l.253-.157a2.594,2.594,0,0,0,1.1-.18,1.219,1.219,0,0,0,.559-.637,11.436,11.436,0,0,0,.466-1.5l1.024.285a14.493,14.493,0,0,1-.364,1.513,4.056,4.056,0,0,0,1.26.442,11.6,11.6,0,0,1,2.159-3.492,3.367,3.367,0,0,1,2.363-1.222,2.34,2.34,0,0,1,1.356.425,2.934,2.934,0,0,1,.969,1.149,3.618,3.618,0,0,1,.355,1.609,2.772,2.772,0,0,1-.314,1.339,2.172,2.172,0,0,0,1.181.268l.253.157v1.1Zm-3.122-1.592a1.392,1.392,0,0,0,.9-1.292,1.718,1.718,0,0,0-.472-1.2,1.479,1.479,0,0,0-1.12-.512,2.494,2.494,0,0,0-1.734.867,9.536,9.536,0,0,0-1.688,2.537c.495.032.986.047,1.481.047A6.212,6.212,0,0,0,869.016,274.588Zm-.992-7.708,1.071,1.088-1.071,1.088-1.071-1.088Z" transform="translate(-847.309 -265.335)" fill="#d8d8d8"/>
    <path id="Path_10736" data-name="Path 10736" d="M901.17,294.667l.253-.157h2.933l.253.157v1.1l-.253.157h-2.933l-.253-.157Z" transform="translate(-876.847 -284.925)" fill="#d8d8d8"/>
    <path id="Path_10737" data-name="Path 10737" d="M911.24,294.667l.253-.157h2.933l.253.157v1.1l-.253.157h-2.933l-.253-.157Z" transform="translate(-883.987 -284.925)" fill="#d8d8d8"/>
    <path id="Path_10738" data-name="Path 10738" d="M921.32,294.667l.253-.157h2.933l.253.157v1.1l-.253.157h-2.933l-.253-.157Z" transform="translate(-891.134 -284.925)" fill="#d8d8d8"/>
    <path id="Path_10739" data-name="Path 10739" d="M937.057,269.985a3.01,3.01,0,0,1-.393,1.766,2.11,2.11,0,0,1-1.449.669,29.253,29.253,0,0,1-3.562.148l-.253-.157v-1.1l.253-.157q2.017,0,2.852-.041a3.349,3.349,0,0,0,1.126-.18.476.476,0,0,0,.291-.457v-1.12a2.339,2.339,0,0,1-.716.346,2.943,2.943,0,0,1-.858.125,2.09,2.09,0,0,1-1.583-.6,2.2,2.2,0,0,1-.576-1.592,3.485,3.485,0,0,1,.308-1.467,2.746,2.746,0,0,1,.835-1.08,1.873,1.873,0,0,1,1.158-.4,2.041,2.041,0,0,1,1.955,1.347A9.971,9.971,0,0,1,937.057,269.985Zm-1.2-1.763q-.253-2.113-1.435-2.113a1.021,1.021,0,0,0-.835.419,1.56,1.56,0,0,0-.332,1q0,1.026,1.2,1.024a3.5,3.5,0,0,0,.789-.087A1.849,1.849,0,0,0,935.858,268.222ZM934.5,261.57l1.071,1.088-1.071,1.088-1.071-1.088Z" transform="translate(-898.281 -261.57)" fill="#d8d8d8"/>
  </g>
</svg>
