<svg width="60" height="40" viewBox="0 0 60 40" fill="none" xmlns="http://www.w3.org/2000/svg">
<g clip-path="url(#clip0_11749_38085)">
<path fill-rule="evenodd" clip-rule="evenodd" d="M51.2913 11.6948C46.5957 11.6948 43.1818 15.1852 43.1818 19.447V19.4899C43.1818 23.7518 46.5516 27.2 51.2479 27.2C55.9442 27.2 59.3574 23.7089 59.3574 19.447V19.4042C59.3574 15.143 55.987 11.6948 51.2913 11.6948ZM55.8574 19.4899C55.8574 22.0602 53.9873 24.159 51.2913 24.159C48.5954 24.159 46.6825 22.0173 46.6825 19.447V19.4042C46.6825 16.8346 48.552 14.7358 51.2479 14.7358C53.9438 14.7358 55.8574 16.8775 55.8574 19.447V19.4899ZM5.59709 24.0947H11.3994V26.9428H0.137983V24.3304L5.20345 20.24C7.09529 18.6977 7.83424 17.884 7.83424 16.6417C7.83424 15.3787 6.98603 14.693 5.7904 14.693C4.61649 14.693 3.81171 15.3352 2.68192 16.706L0.334102 14.843C1.83371 12.8299 3.29059 11.7376 6.00823 11.7376C9.16014 11.7376 11.2474 13.5578 11.2474 16.3631V16.406C11.2474 18.912 9.94321 20.1536 7.24728 22.2095L3.92167 24.739L3.27518 25.2305L5.59709 24.0947ZM47.5125 9.54274H48.18V8.88532H47.5125V9.54274ZM48.8475 9.54274H49.515V8.88532H48.8475V9.54274ZM6.97692 8.19125H7.68435V2.01722H6.97692V8.19125ZM13.4705 6.51553V6.53281C13.4705 7.59051 12.5754 8.27904 11.3308 8.27904C10.3369 8.27904 9.52296 7.95275 8.77071 7.29117L9.20917 6.7803C9.86267 7.36168 10.4895 7.65272 11.3581 7.65272C12.1993 7.65272 12.7547 7.21236 12.7547 6.60332V6.58604C12.7547 6.01226 12.4416 5.68666 11.1248 5.4129C9.68336 5.10389 9.02146 4.64556 9.02146 3.63072V3.61413C9.02146 2.64354 9.88998 1.92943 11.0807 1.92943C11.9934 1.92943 12.6475 2.18521 13.2828 2.68779L12.871 3.22562C12.2889 2.7583 11.7069 2.55575 11.0625 2.55575C10.2479 2.55575 9.72818 2.99611 9.72818 3.55191V3.56989C9.72818 4.15127 10.0504 4.47826 11.4295 4.76861C12.8262 5.06932 13.4705 5.5719 13.4705 6.51553ZM19.7702 1.91145C17.8629 1.91145 16.565 3.4019 16.565 5.10458V5.12186C16.565 6.82385 17.8454 8.29702 19.7526 8.29702C21.6592 8.29702 22.9578 6.80657 22.9578 5.10458V5.08592C22.9578 3.38462 21.6774 1.91145 19.7702 1.91145ZM22.2237 5.12186C22.2237 6.52452 21.2025 7.65272 19.7702 7.65272C18.3378 7.65272 17.2991 6.50654 17.2991 5.10458V5.08592C17.2991 3.68464 18.3203 2.55575 19.7526 2.55575C21.185 2.55575 22.2237 3.70193 22.2237 5.10458V5.12186ZM14.6375 8.19125H15.3442V2.01722H14.6375V8.19125ZM2.69523 8.23549L0 2.01722H0.787977L1.17321 2.93665L3.01743 7.33541L3.19393 7.75642L3.12529 7.07825L5.25528 2.01722H6.01664L3.32211 8.23549H2.69523ZM28.7258 2.01722H29.415V8.19125H28.8512L24.4119 2.63801L24.8048 3.53809V8.19125H24.1149V2.01722H24.7775L29.0165 7.32919L28.7258 6.57083V2.01722ZM34.9666 1.36671H35.6348V0.709277H34.9666V1.36671ZM51.659 5.96525C51.9126 6.14361 52.2054 6.27496 52.5395 6.35999C52.8729 6.44502 53.2259 6.48719 53.5985 6.48719H53.775L53.9992 6.02332V6.67591C53.9992 7.02087 53.899 7.26767 53.6994 7.4163C53.4984 7.56354 53.2175 7.63751 52.8561 7.63751C52.6501 7.63751 52.4652 7.61885 52.3013 7.58014C52.1374 7.54211 51.9497 7.47575 51.7382 7.38311L51.5295 8.01566C51.7858 8.10898 52.0121 8.1788 52.2096 8.22512C52.4071 8.27144 52.606 8.29494 52.8063 8.29494C53.457 8.29494 53.9298 8.14286 54.2247 7.83937C54.5189 7.53451 54.6667 7.12526 54.6667 6.61093V2.02413H53.5985C53.1874 2.02413 52.8119 2.0822 52.4729 2.19696C52.1332 2.31241 51.8426 2.46933 51.6002 2.66912C51.3593 2.8696 51.1709 3.1081 51.0371 3.38462C50.904 3.66114 50.8374 3.96117 50.8374 4.2847C50.8374 4.6739 50.911 5.00641 51.0581 5.28294C51.2059 5.55946 51.4062 5.78759 51.659 5.96525ZM51.659 3.63487C51.762 3.43785 51.8986 3.26986 52.0681 3.12953C52.2376 2.98988 52.4309 2.88204 52.648 2.80531C52.8582 2.73065 53.076 2.69332 53.3022 2.69124V2.68986H54.3809L53.9992 2.8772V5.82976H53.3232C53.0732 5.82976 52.8379 5.79519 52.6186 5.72675C52.3987 5.65901 52.2054 5.55877 52.0387 5.42673C51.872 5.29538 51.741 5.13362 51.6464 4.94212C51.5519 4.74994 51.505 4.53149 51.505 4.2847C51.505 4.04896 51.5561 3.83258 51.659 3.63487ZM36.3023 1.36671H36.9698V0.709277H36.3023V1.36671ZM56.3568 8.29494C56.1789 8.29494 55.9982 8.27075 55.8147 8.22097L55.9898 7.58843C56.0675 7.60986 56.1292 7.62369 56.1733 7.62922C56.2181 7.63475 56.2706 7.63751 56.3316 7.63751C56.4598 7.63751 56.5641 7.61954 56.6447 7.58428C56.7252 7.54834 56.7896 7.49096 56.8366 7.41146C56.8835 7.33196 56.9171 7.22757 56.9367 7.09968C56.9557 6.9711 56.9662 6.81279 56.9662 6.62683V2.02413H57.6337V6.62683C57.6337 6.88469 57.6126 7.11558 57.5706 7.32159C57.5286 7.52691 57.4579 7.70181 57.3584 7.84767C57.2582 7.99284 57.1259 8.10345 56.962 8.18019C56.7974 8.25692 56.5956 8.29494 56.3568 8.29494ZM54.6667 1.36671H53.2042V0.829563C53.2042 0.54129 53.2735 0.327678 53.4087 0.197021C53.5439 0.0663651 53.7421 0 53.9978 0H54.4684V0.457642H54.0097C53.906 0.457642 53.8339 0.47769 53.8037 0.515021C53.7687 0.559264 53.7505 0.623555 53.7505 0.707203V0.859981H54.6667V1.36671ZM35.1487 8.20369H36.5362V7.71148C36.5495 7.7343 36.5628 7.75849 36.5775 7.77992C36.6777 7.9251 36.8094 8.0364 36.974 8.11313C37.1379 8.18987 37.3396 8.22789 37.5784 8.22789H49.7483V2.02413H49.0808V7.57046H48.3874H37.6036C37.4755 7.57046 37.3711 7.55248 37.2906 7.51723C37.21 7.48128 37.1463 7.4239 37.0986 7.34509C37.0517 7.2649 37.0188 7.16052 36.9985 7.03193C36.9789 6.90335 36.9698 6.74573 36.9698 6.55977V2.02413H35.1662C33.3206 2.02413 32.064 3.46688 32.064 5.11426V5.13085C32.064 6.77822 33.303 8.20369 35.1487 8.20369ZM32.7749 5.09698C32.7749 3.73995 33.7625 2.64769 35.1487 2.64769H36.7113L36.3023 2.84817V6.55977C36.3023 6.81694 36.3226 7.04852 36.3646 7.25384C36.3891 7.37413 36.4241 7.48197 36.4683 7.58083H35.1662C33.78 7.58083 32.7749 6.47129 32.7749 5.11426V5.09698ZM42.3189 22.2523V22.2952C42.3189 25.1226 40.2316 27.2 36.8402 27.2C34.1008 27.2 32.2097 26.1292 30.9055 24.6083L33.2099 22.4452C34.2528 23.6025 35.3406 24.244 36.8836 24.244C38.1444 24.244 39.036 23.5375 39.036 22.4245V22.3816C39.036 21.1608 37.9272 20.4757 36.0571 20.4757H34.6661L34.1443 18.3762L39.0262 13.5385L37.0699 14.7787H31.7964V11.9519H42.0793V14.4358L38.2312 18.0554C40.2968 18.3983 42.3189 19.4685 42.3189 22.2523Z" fill="#939BB3"/>
<path fill-rule="evenodd" clip-rule="evenodd" d="M20.4674 10.5596L21.2907 11.3432L20.5003 12.1596L19.6777 11.3759L20.4674 10.5596Z" fill="#939BB3"/>
<path fill-rule="evenodd" clip-rule="evenodd" d="M22.2598 11.3759L23.0827 12.1596L23.8727 11.3432L23.0498 10.5596L22.2598 11.3759Z" fill="#939BB3"/>
<path fill-rule="evenodd" clip-rule="evenodd" d="M20.9688 12.4928L21.6274 13.1198L22.2591 12.4669L21.6005 11.8398L20.9688 12.4928Z" fill="#939BB3"/>
<path fill-rule="evenodd" clip-rule="evenodd" d="M23.2266 12.8131L23.8848 13.4402L24.5169 12.7872L23.8587 12.1602L23.2266 12.8131Z" fill="#939BB3"/>
<path fill-rule="evenodd" clip-rule="evenodd" d="M20 13.4528L20.6583 14.0798L21.2904 13.4268L20.6321 12.7998L20 13.4528Z" fill="#939BB3"/>
<path fill-rule="evenodd" clip-rule="evenodd" d="M22.2598 13.4528L22.918 14.0798L23.5501 13.4268L22.8919 12.7998L22.2598 13.4528Z" fill="#939BB3"/>
<path fill-rule="evenodd" clip-rule="evenodd" d="M21.291 14.2499L21.7852 14.7198L22.2588 14.2304L21.7647 13.7598L21.291 14.2499Z" fill="#939BB3"/>
<path fill-rule="evenodd" clip-rule="evenodd" d="M22.9043 14.2499L23.3984 14.7198L23.8721 14.2304L23.3788 13.7598L22.9043 14.2499Z" fill="#939BB3"/>
<path fill-rule="evenodd" clip-rule="evenodd" d="M26.4531 11.1271L26.7025 12.4799L28.0661 12.2319L27.8167 10.8799L26.4531 11.1271Z" fill="#939BB3"/>
<path fill-rule="evenodd" clip-rule="evenodd" d="M24.8398 11.7175L25.0391 12.7995L26.1302 12.6009L25.9309 11.5195L24.8398 11.7175Z" fill="#939BB3"/>
<path fill-rule="evenodd" clip-rule="evenodd" d="M26.7754 13.3182L26.9754 14.4001L28.0658 14.2021L27.8665 13.1201L26.7754 13.3182Z" fill="#939BB3"/>
<path fill-rule="evenodd" clip-rule="evenodd" d="M25.4844 13.2684L25.6335 14.0801L26.4522 13.9311L26.3016 13.1201L25.4844 13.2684Z" fill="#939BB3"/>
<path fill-rule="evenodd" clip-rule="evenodd" d="M26.7754 14.868L26.9253 15.6797L27.7432 15.5307L27.5933 14.7197L26.7754 14.868Z" fill="#939BB3"/>
<path fill-rule="evenodd" clip-rule="evenodd" d="M24.1953 13.5887L24.3445 14.4004L25.1631 14.2521L25.0132 13.4404L24.1953 13.5887Z" fill="#939BB3"/>
<path fill-rule="evenodd" clip-rule="evenodd" d="M25.4844 14.868L25.6342 15.6797L26.4522 15.5307L26.3023 14.7197L25.4844 14.868Z" fill="#939BB3"/>
<path fill-rule="evenodd" clip-rule="evenodd" d="M24.5254 14.8255L24.6222 15.3503L25.1525 15.2543L25.0557 14.7295L24.5254 14.8255Z" fill="#939BB3"/>
<path fill-rule="evenodd" clip-rule="evenodd" d="M25.8164 16.1058L25.9132 16.6306L26.4435 16.5339L26.3461 16.0098L25.8164 16.1058Z" fill="#939BB3"/>
<path fill-rule="evenodd" clip-rule="evenodd" d="M30.5222 15.6797L30.002 16.7639L31.0953 17.2797L31.6149 16.1955L30.5222 15.6797Z" fill="#939BB3"/>
<path fill-rule="evenodd" clip-rule="evenodd" d="M28.8046 15.04L28.3887 15.9079L29.2631 16.32L29.6791 15.4528L28.8046 15.04Z" fill="#939BB3"/>
<path fill-rule="evenodd" clip-rule="evenodd" d="M29.4491 17.2803L29.0332 18.1481L29.9076 18.5603L30.3236 17.6931L29.4491 17.2803Z" fill="#939BB3"/>
<path fill-rule="evenodd" clip-rule="evenodd" d="M28.054 16.6396L27.7422 17.2898L28.3976 17.5996L28.71 16.9489L28.054 16.6396Z" fill="#939BB3"/>
<path fill-rule="evenodd" clip-rule="evenodd" d="M28.7005 18.8799L28.3887 19.53L29.0441 19.8399L29.3565 19.1891L28.7005 18.8799Z" fill="#939BB3"/>
<path fill-rule="evenodd" clip-rule="evenodd" d="M27.0872 16.3203L26.7754 16.9704L27.4308 17.2803L27.7432 16.6296L27.0872 16.3203Z" fill="#939BB3"/>
<path fill-rule="evenodd" clip-rule="evenodd" d="M27.7317 17.9199L27.4199 18.57L28.0753 18.8799L28.3877 18.2292L27.7317 17.9199Z" fill="#939BB3"/>
<path fill-rule="evenodd" clip-rule="evenodd" d="M26.6612 17.2803L26.4531 17.714L26.8902 17.9203L27.0983 17.4865L26.6612 17.2803Z" fill="#939BB3"/>
<path fill-rule="evenodd" clip-rule="evenodd" d="M26.9829 18.8799L26.7754 19.3137L27.2125 19.5199L27.4206 19.0861L26.9829 18.8799Z" fill="#939BB3"/>
<path fill-rule="evenodd" clip-rule="evenodd" d="M30.9274 21.1201L29.6777 21.8006L30.3637 23.0401L31.6133 22.3604L30.9274 21.1201Z" fill="#939BB3"/>
<path fill-rule="evenodd" clip-rule="evenodd" d="M29.8664 19.8398L29.0332 20.2934L29.4904 21.1198L30.3236 20.6663L29.8664 19.8398Z" fill="#939BB3"/>
<path fill-rule="evenodd" clip-rule="evenodd" d="M29.2221 22.0801L28.3887 22.5334L28.8456 23.3601L29.6791 22.9068L29.2221 22.0801Z" fill="#939BB3"/>
<path fill-rule="evenodd" clip-rule="evenodd" d="M28.6914 20.7998L28.0664 21.1399L28.4092 21.7598L29.0342 21.4197L28.6914 20.7998Z" fill="#939BB3"/>
<path fill-rule="evenodd" clip-rule="evenodd" d="M27.7228 22.7197L27.0977 23.0598L27.4409 23.6797L28.0654 23.3396L27.7228 22.7197Z" fill="#939BB3"/>
<path fill-rule="evenodd" clip-rule="evenodd" d="M27.7226 19.8398L27.0977 20.1799L27.4405 20.7998L28.0654 20.4598L27.7226 19.8398Z" fill="#939BB3"/>
<path fill-rule="evenodd" clip-rule="evenodd" d="M27.4004 21.4404L26.7754 21.7805L27.1182 22.4004L27.7432 22.0603L27.4004 21.4404Z" fill="#939BB3"/>
<path fill-rule="evenodd" clip-rule="evenodd" d="M26.87 20.4805L26.4531 20.7072L26.6815 21.1205L27.0983 20.8938L26.87 20.4805Z" fill="#939BB3"/>
<path fill-rule="evenodd" clip-rule="evenodd" d="M26.2235 22.0801L25.8066 22.3068L26.035 22.7201L26.4518 22.4934L26.2235 22.0801Z" fill="#939BB3"/>
<path fill-rule="evenodd" clip-rule="evenodd" d="M28.0661 26.0961L26.6304 25.9199L26.4531 27.3437L27.8888 27.5199L28.0661 26.0961Z" fill="#939BB3"/>
<path fill-rule="evenodd" clip-rule="evenodd" d="M28.0658 24.4614L26.918 24.3203L26.7754 25.4593L27.9239 25.6003L28.0658 24.4614Z" fill="#939BB3"/>
<path fill-rule="evenodd" clip-rule="evenodd" d="M26.1302 25.7406L24.9825 25.5996L24.8398 26.7379L25.9884 26.8796L26.1302 25.7406Z" fill="#939BB3"/>
<path fill-rule="evenodd" clip-rule="evenodd" d="M26.4522 24.4263L25.5911 24.3203L25.4844 25.175L26.3454 25.2803L26.4522 24.4263Z" fill="#939BB3"/>
<path fill-rule="evenodd" clip-rule="evenodd" d="M24.5166 25.3863L23.6562 25.2803L23.5488 26.135L24.41 26.2403L24.5166 25.3863Z" fill="#939BB3"/>
<path fill-rule="evenodd" clip-rule="evenodd" d="M26.4522 23.1461L25.591 23.04L25.4844 23.894L26.3455 24L26.4522 23.1461Z" fill="#939BB3"/>
<path fill-rule="evenodd" clip-rule="evenodd" d="M25.1631 24.106L24.3013 24L24.1953 24.854L25.0564 24.96L25.1631 24.106Z" fill="#939BB3"/>
<path fill-rule="evenodd" clip-rule="evenodd" d="M25.1397 23.1284L24.6049 23.0625L24.5391 23.5924L25.0733 23.6577L25.1397 23.1284Z" fill="#939BB3"/>
<path fill-rule="evenodd" clip-rule="evenodd" d="M23.8507 24.0884L23.3158 24.0225L23.25 24.5524L23.7842 24.6177L23.8507 24.0884Z" fill="#939BB3"/>
<path fill-rule="evenodd" clip-rule="evenodd" d="M22.9043 28.4441L21.9002 27.5195L20.9688 28.5157L21.9729 29.4395L22.9043 28.4441Z" fill="#939BB3"/>
<path fill-rule="evenodd" clip-rule="evenodd" d="M22.9043 10.2052L21.9009 9.28027L20.9688 10.2761L21.9729 11.2003L22.9043 10.2052Z" fill="#939BB3"/>
<path fill-rule="evenodd" clip-rule="evenodd" d="M23.8727 27.0109L23.0359 26.2402L22.2598 27.0704L23.0966 27.8402L23.8727 27.0109Z" fill="#939BB3"/>
<path fill-rule="evenodd" clip-rule="evenodd" d="M21.613 27.0109L20.7762 26.2402L20 27.0704L20.8361 27.8402L21.613 27.0109Z" fill="#939BB3"/>
<path fill-rule="evenodd" clip-rule="evenodd" d="M22.5814 26.2163L21.9124 25.5996L21.291 26.2637L21.96 26.8796L22.5814 26.2163Z" fill="#939BB3"/>
<path fill-rule="evenodd" clip-rule="evenodd" d="M20.3236 25.8962L19.6542 25.2803L19.0332 25.9436L19.7026 26.5603L20.3236 25.8962Z" fill="#939BB3"/>
<path fill-rule="evenodd" clip-rule="evenodd" d="M23.2259 25.2559L22.5569 24.6396L21.9355 25.3034L22.6046 25.9196L23.2259 25.2559Z" fill="#939BB3"/>
<path fill-rule="evenodd" clip-rule="evenodd" d="M21.6146 25.2559L20.9456 24.6396L20.3242 25.3034L20.9932 25.9196L21.6146 25.2559Z" fill="#939BB3"/>
<path fill-rule="evenodd" clip-rule="evenodd" d="M22.2588 24.4621L21.7569 24L21.291 24.4971L21.793 24.96L22.2588 24.4621Z" fill="#939BB3"/>
<path fill-rule="evenodd" clip-rule="evenodd" d="M20.6455 24.1418L20.144 23.6797L19.6777 24.1776L20.1792 24.6397L20.6455 24.1418Z" fill="#939BB3"/>
<path fill-rule="evenodd" clip-rule="evenodd" d="M17.0973 27.5736L16.8284 26.2402L15.4844 26.5069L15.7533 27.8402L17.0973 27.5736Z" fill="#939BB3"/>
<path fill-rule="evenodd" clip-rule="evenodd" d="M19.0326 26.9869L18.8175 25.9199L17.7422 26.1336L17.9573 27.1999L19.0326 26.9869Z" fill="#939BB3"/>
<path fill-rule="evenodd" clip-rule="evenodd" d="M16.7748 25.3873L16.5598 24.3203L15.4844 24.534L15.7 25.6003L16.7748 25.3873Z" fill="#939BB3"/>
<path fill-rule="evenodd" clip-rule="evenodd" d="M18.3877 25.1205L18.227 24.3203L17.4199 24.4801L17.5813 25.2803L18.3877 25.1205Z" fill="#939BB3"/>
<path fill-rule="evenodd" clip-rule="evenodd" d="M19.6787 24.8002L19.5173 24L18.7109 24.1598L18.8724 24.96L19.6787 24.8002Z" fill="#939BB3"/>
<path fill-rule="evenodd" clip-rule="evenodd" d="M18.0654 23.8397L17.904 23.04L17.0977 23.2004L17.2584 24L18.0654 23.8397Z" fill="#939BB3"/>
<path fill-rule="evenodd" clip-rule="evenodd" d="M19.0268 23.8891L18.921 23.3662L18.3926 23.4705L18.4984 23.9941L19.0268 23.8891Z" fill="#939BB3"/>
<path fill-rule="evenodd" clip-rule="evenodd" d="M18.06 22.6088L17.9542 22.0859L17.4258 22.1903L17.5316 22.7138L18.06 22.6088Z" fill="#939BB3"/>
<path fill-rule="evenodd" clip-rule="evenodd" d="M13.366 23.0404L13.8708 21.9415L12.7626 21.4404L12.2578 22.5394L13.366 23.0404Z" fill="#939BB3"/>
<path fill-rule="evenodd" clip-rule="evenodd" d="M15.08 23.6804L15.4837 22.801L14.5971 22.4004L14.1934 23.2798L15.08 23.6804Z" fill="#939BB3"/>
<path fill-rule="evenodd" clip-rule="evenodd" d="M14.1132 21.4402L14.5169 20.5612L13.6309 20.1602L13.2266 21.0397L14.1132 21.4402Z" fill="#939BB3"/>
<path fill-rule="evenodd" clip-rule="evenodd" d="M15.5049 22.0801L15.8076 21.4203L15.1432 21.1201L14.8398 21.7793L15.5049 22.0801Z" fill="#939BB3"/>
<path fill-rule="evenodd" clip-rule="evenodd" d="M16.4717 24L16.7744 23.3403L16.11 23.04L15.8066 23.6998L16.4717 24Z" fill="#939BB3"/>
<path fill-rule="evenodd" clip-rule="evenodd" d="M14.8584 19.8399L15.1611 19.1801L14.4967 18.8799L14.1934 19.5397L14.8584 19.8399Z" fill="#939BB3"/>
<path fill-rule="evenodd" clip-rule="evenodd" d="M16.4717 22.4004L16.7744 21.7413L16.11 21.4404L15.8066 22.1002L16.4717 22.4004Z" fill="#939BB3"/>
<path fill-rule="evenodd" clip-rule="evenodd" d="M15.8266 20.7998L16.1299 20.1401L15.4648 19.8398L15.1621 20.4996L15.8266 20.7998Z" fill="#939BB3"/>
<path fill-rule="evenodd" clip-rule="evenodd" d="M16.8965 21.4398L17.0983 20.9998L16.655 20.7998L16.4531 21.2392L16.8965 21.4398Z" fill="#939BB3"/>
<path fill-rule="evenodd" clip-rule="evenodd" d="M16.5723 19.8402L16.7741 19.4002L16.3307 19.2002L16.1289 19.6402L16.5723 19.8402Z" fill="#939BB3"/>
<path fill-rule="evenodd" clip-rule="evenodd" d="M12.6387 17.5997L13.8711 16.9031L13.168 15.6797L11.9355 16.3771L12.6387 17.5997Z" fill="#939BB3"/>
<path fill-rule="evenodd" clip-rule="evenodd" d="M13.4898 18.8796L14.5173 18.4153L13.931 17.5996L12.9043 18.0645L13.4898 18.8796Z" fill="#939BB3"/>
<path fill-rule="evenodd" clip-rule="evenodd" d="M14.1343 16.6404L15.1618 16.1761L14.5755 15.3604L13.5488 15.8252L14.1343 16.6404Z" fill="#939BB3"/>
<path fill-rule="evenodd" clip-rule="evenodd" d="M14.9862 17.92L15.808 17.5715L15.3393 16.96L14.5176 17.3085L14.9862 17.92Z" fill="#939BB3"/>
<path fill-rule="evenodd" clip-rule="evenodd" d="M15.953 16L16.7748 15.6513L16.3061 15.04L15.4844 15.3882L15.953 16Z" fill="#939BB3"/>
<path fill-rule="evenodd" clip-rule="evenodd" d="M15.6305 18.8799L16.4525 18.5314L15.9833 17.9199L15.1621 18.269L15.6305 18.8799Z" fill="#939BB3"/>
<path fill-rule="evenodd" clip-rule="evenodd" d="M16.2753 17.2803L17.097 16.9318L16.6284 16.3203L15.8066 16.6694L16.2753 17.2803Z" fill="#939BB3"/>
<path fill-rule="evenodd" clip-rule="evenodd" d="M16.6874 18.2396L17.0983 18.0071L16.864 17.5996L16.4531 17.8321L16.6874 18.2396Z" fill="#939BB3"/>
<path fill-rule="evenodd" clip-rule="evenodd" d="M17.332 16.64L17.7428 16.4075L17.5085 16L17.0977 16.2325L17.332 16.64Z" fill="#939BB3"/>
<path fill-rule="evenodd" clip-rule="evenodd" d="M15.1621 12.6454L16.6193 12.8002L16.7751 11.355L15.3179 11.2002L15.1621 12.6454Z" fill="#939BB3"/>
<path fill-rule="evenodd" clip-rule="evenodd" d="M15.1621 14.2763L16.3287 14.4001L16.4525 13.2439L15.2867 13.1201L15.1621 14.2763Z" fill="#939BB3"/>
<path fill-rule="evenodd" clip-rule="evenodd" d="M17.0977 12.9954L18.2642 13.1198L18.388 11.9636L17.2222 11.8398L17.0977 12.9954Z" fill="#939BB3"/>
<path fill-rule="evenodd" clip-rule="evenodd" d="M17.0977 14.3077L17.9721 14.4004L18.0654 13.5332L17.191 13.4404L17.0977 14.3077Z" fill="#939BB3"/>
<path fill-rule="evenodd" clip-rule="evenodd" d="M19.0332 13.3478L19.9076 13.4405L20.001 12.5739L19.1266 12.4805L19.0332 13.3478Z" fill="#939BB3"/>
<path fill-rule="evenodd" clip-rule="evenodd" d="M17.0977 15.587L17.9714 15.6797L18.0654 14.8125L17.191 14.7197L17.0977 15.587Z" fill="#939BB3"/>
<path fill-rule="evenodd" clip-rule="evenodd" d="M18.3887 14.3077L19.2624 14.4004L19.3565 13.5332L18.482 13.4404L18.3887 14.3077Z" fill="#939BB3"/>
<path fill-rule="evenodd" clip-rule="evenodd" d="M18.4141 15.2767L18.9496 15.3336L19.007 14.8031L18.4715 14.7461L18.4141 15.2767Z" fill="#939BB3"/>
<path fill-rule="evenodd" clip-rule="evenodd" d="M19.7051 14.637L20.2412 14.6933L20.298 14.1634L19.7625 14.1064L19.7051 14.637Z" fill="#939BB3"/>
<path fill-rule="evenodd" clip-rule="evenodd" d="M25.8015 20.2583C25.7045 20.2033 25.525 20.1136 25.2791 20.0368C24.9236 19.9253 24.4297 19.8424 23.8428 19.9335C23.6454 19.9647 23.4375 20.0157 23.2207 20.0911C23.2006 20.0986 23.1798 20.1047 23.159 20.1129C23.0489 20.153 22.9394 20.2019 22.8292 20.2563C22.7357 20.3032 22.6422 20.3542 22.5486 20.4092C22.3366 20.5336 22.1267 20.677 21.9223 20.8306C21.6916 19.4557 21.8038 18.1801 21.8579 17.5541C21.8586 17.5501 21.862 17.5487 21.8655 17.5508C22.3623 17.8566 22.223 18.7122 22.1191 18.9569C22.117 18.9623 22.1239 18.965 22.1274 18.961C22.7461 18.2446 22.444 17.4542 22.3172 17.2538C22.3138 17.249 22.3207 17.2442 22.3248 17.2476C22.4142 17.319 22.487 17.3944 22.5486 17.4712C22.7405 17.7111 22.8105 17.9701 22.8292 18.1984C22.8396 18.3187 22.8362 18.4309 22.8292 18.5267C22.8278 18.5525 22.8258 18.577 22.8237 18.6001C22.823 18.6035 22.8265 18.6042 22.8292 18.6035C22.8306 18.6028 22.832 18.6035 22.8327 18.6021C22.9997 18.2813 23.08 17.7947 22.8292 17.3224C22.7613 17.1953 22.6692 17.0682 22.5486 16.9459C22.514 16.9106 22.4766 16.8752 22.4371 16.8412C22.4329 16.8385 22.4364 16.8317 22.4406 16.8331C22.4787 16.8419 22.514 16.8521 22.5486 16.8643C22.6546 16.9004 22.7475 16.95 22.8292 17.0091C23.017 17.1443 23.1445 17.3312 23.2207 17.5263C23.2837 17.6867 23.3128 17.8525 23.3121 17.9986C23.3121 18.0047 23.3197 18.0054 23.3211 18C23.4375 17.5807 23.3676 17.2646 23.2207 17.0329C23.1168 16.8684 22.9726 16.7468 22.8292 16.6618C22.7315 16.6047 22.6345 16.5639 22.5486 16.5395C22.4988 16.5245 22.453 16.5143 22.4142 16.5096C22.4087 16.5096 22.4101 16.5014 22.4156 16.5001C22.462 16.496 22.5064 16.4939 22.5486 16.4933C22.6533 16.4912 22.7454 16.5001 22.8292 16.5157C22.9955 16.5463 23.1237 16.6034 23.2207 16.6679C23.3779 16.7719 23.4569 16.8936 23.484 16.9432C23.486 16.9479 23.4936 16.9452 23.493 16.9398C23.4708 16.7182 23.3662 16.5463 23.2207 16.4212C23.1084 16.3254 22.972 16.2581 22.8292 16.2194C22.7364 16.1942 22.6408 16.1813 22.5486 16.18C22.4225 16.1786 22.3013 16.199 22.1981 16.2411C22.1939 16.2432 22.1897 16.2384 22.1925 16.2343C22.2833 16.1066 22.4121 16.0277 22.5486 15.987C22.6429 15.9591 22.7399 15.9496 22.8292 15.9543C22.9158 15.9591 22.9955 15.9774 23.0592 16.0073C23.0641 16.0094 23.0683 16.0039 23.0648 15.9999C22.9948 15.921 22.9144 15.8585 22.8292 15.8123C22.7399 15.764 22.6449 15.7335 22.5486 15.7226C22.2978 15.6947 22.0429 15.7994 21.8731 16.0515C21.871 16.0542 21.8662 16.0542 21.8641 16.0515C21.8323 15.9944 21.8011 15.9312 21.7713 15.8646C21.7034 15.711 21.6473 15.5364 21.6182 15.3644C21.6168 15.359 21.6099 15.359 21.6099 15.3644C21.5801 15.5371 21.5233 15.7124 21.4554 15.8673C21.4263 15.9333 21.3951 15.9958 21.3625 16.0515C21.3611 16.0542 21.357 16.0542 21.3549 16.0515C21.0577 15.6111 20.5013 15.62 20.1625 15.9999C20.1591 16.0039 20.1632 16.0094 20.1681 16.0073C20.3939 15.902 20.8214 15.9333 21.0348 16.2343C21.0376 16.2384 21.0334 16.2432 21.0286 16.2411C20.6988 16.1052 20.1882 16.1942 19.9166 16.5116C19.8189 16.6251 19.7517 16.7678 19.7344 16.9398C19.7344 16.9452 19.7413 16.9479 19.7441 16.9432C19.7649 16.9038 19.8175 16.8202 19.9166 16.7359C20.0752 16.5986 20.3538 16.4586 20.8117 16.5001C20.8173 16.5014 20.8186 16.5096 20.8131 16.5096C20.5775 16.5381 20.0946 16.744 19.9166 17.2137C19.8369 17.4216 19.8175 17.6806 19.9062 18C19.9076 18.0054 19.9152 18.0047 19.9152 17.9986C19.9152 17.9918 19.9159 17.9843 19.9166 17.9775C19.9214 17.5507 20.1702 16.9785 20.7861 16.8331C20.7909 16.8317 20.7944 16.8385 20.7909 16.8412C20.1009 17.4359 20.1695 18.1692 20.3946 18.6021C20.3967 18.6069 20.4043 18.6048 20.4036 18.6001C20.3745 18.2725 20.3496 17.6887 20.9025 17.2476C20.9066 17.2442 20.9129 17.249 20.9101 17.2538C20.7833 17.4542 20.4812 18.2446 21.0992 18.961C21.1034 18.965 21.1103 18.9623 21.1089 18.9569C21.005 18.7122 20.8658 17.8566 21.3618 17.5508C21.3646 17.5487 21.3688 17.5501 21.3694 17.5541C21.4235 18.1801 21.5364 19.4557 21.305 20.8306C20.9059 20.5309 20.4854 20.2672 20.0683 20.1129C20.017 20.0939 19.9665 20.0762 19.9166 20.0606C19.4863 19.9219 19.0921 19.8832 18.7485 19.8981C18.1963 19.9212 17.7751 20.083 17.543 20.1965C17.4965 20.2196 17.4571 20.2407 17.4259 20.2583C17.4134 20.2651 17.4224 20.2828 17.4356 20.2787C17.4723 20.2678 17.5076 20.2583 17.543 20.2481C17.967 20.1312 18.3688 20.0993 18.7485 20.1319C19.1635 20.1673 19.5522 20.2794 19.9166 20.4405C20.4265 20.6661 20.8893 20.9876 21.3064 21.328C20.7175 21.8316 20.2187 22.3216 19.9166 22.4936C19.9007 22.5017 19.8861 22.5099 19.8716 22.5174C19.7995 22.4202 19.6734 22.3645 19.5362 22.3937C19.4171 22.4195 19.3194 22.5133 19.2923 22.6302C19.2681 22.7342 19.2958 22.8463 19.3554 22.9054C19.5168 23.0624 19.7025 23.0733 19.9166 22.9849C20.324 22.8171 20.8318 22.2877 21.4554 21.7283C21.5073 21.6814 21.56 21.6346 21.614 21.5883C21.6674 21.6346 21.7193 21.6808 21.7713 21.7277C22.0533 21.9812 22.3124 22.2279 22.5486 22.4385C22.6463 22.5248 22.7399 22.6057 22.8292 22.6778C22.9685 22.7892 23.0994 22.8803 23.2207 22.9435C23.4597 23.0672 23.6655 23.0821 23.8428 22.9306C23.8525 22.9224 23.8622 22.9143 23.8712 22.9054C23.9121 22.8653 23.9592 22.7342 23.935 22.6302C23.9211 22.5697 23.8879 22.5153 23.8428 22.4739C23.8006 22.4345 23.7486 22.4059 23.6911 22.3937C23.5532 22.3645 23.4278 22.4202 23.3551 22.5174C23.3149 22.4977 23.2692 22.4698 23.2207 22.4372C23.1091 22.3617 22.9775 22.255 22.8292 22.1273C22.7412 22.0518 22.6477 21.9689 22.5486 21.8806C22.356 21.7093 22.1454 21.5197 21.9209 21.328C22.1198 21.1649 22.329 21.0079 22.5486 20.8625C22.6408 20.8013 22.7336 20.7429 22.8292 20.6872C22.9567 20.6131 23.0877 20.5438 23.2207 20.4812C23.4202 20.3875 23.6281 20.3086 23.8428 20.2481C24.2876 20.1238 24.7657 20.0803 25.2791 20.1605C25.446 20.187 25.6165 20.225 25.7911 20.2787C25.8049 20.2828 25.8139 20.2651 25.8015 20.2583Z" fill="#939BB3"/>
<path fill-rule="evenodd" clip-rule="evenodd" d="M40.9421 31.1121H41.3329V30.7197H40.9421V31.1121ZM36.9044 34.1482H37.2847V30.7197H36.9044V34.1482ZM4.06427 31.5544H3.68325V33.7663H2.17031V31.5544H1.57016C1.33219 31.5544 1.11726 31.5874 0.923255 31.6527C0.72995 31.7179 0.565258 31.8085 0.428479 31.9243C0.292399 32.0408 0.186326 32.1784 0.111656 32.3378C0.0376839 32.4971 0 32.6691 0 32.8537C0 33.0798 0.0432667 33.2742 0.129102 33.4364C0.21424 33.5992 0.328687 33.7326 0.471746 33.8379C0.614107 33.9425 0.780196 34.0211 0.970708 34.0717C1.16122 34.1229 1.36081 34.1482 1.57016 34.1482H4.06427V31.5544ZM1.78929 33.7663H1.41384C1.27078 33.7663 1.1368 33.7459 1.01118 33.7045C0.886269 33.6631 0.776706 33.6027 0.683195 33.5248C0.589683 33.4469 0.516409 33.3514 0.461976 33.2384C0.408242 33.1254 0.381026 32.9969 0.381026 32.8537C0.381026 32.7168 0.410335 32.5919 0.468955 32.4789C0.528272 32.3659 0.605733 32.269 0.702036 32.1869C0.799038 32.1061 0.909298 32.0444 1.03282 32.0008C1.15634 31.958 1.28334 31.937 1.41384 31.937H1.78929V33.7663ZM3.08031 34.994H3.4718V34.6016H3.08031V34.994ZM1.77672 31.1121H2.16822V30.7197H1.77672V31.1121ZM24.6111 31.1121H25.0025V30.7197H24.6111V31.1121ZM3.74675 34.994H4.13755V34.6016H3.74675V34.994ZM25.2782 31.1121H25.669V30.7197H25.2782V31.1121ZM40.2757 31.1121H40.6665V30.7197H40.2757V31.1121ZM1.11098 31.1121H1.50177V30.7197H1.11098V31.1121ZM26.9377 34.994H27.3285V34.6016H26.9377V34.994ZM29.3822 31.5544H29.0012V33.7663H27.5644V31.5544H27.184V33.7663H25.6711V31.5544H25.0716C24.8337 31.5544 24.6173 31.5874 24.424 31.6527C24.2307 31.7179 24.066 31.8085 23.9293 31.9243C23.7932 32.0408 23.6878 32.1784 23.6131 32.3378C23.5385 32.4971 23.5015 32.6691 23.5015 32.8537C23.5015 33.0798 23.544 33.2742 23.6299 33.4364C23.7157 33.5992 23.8295 33.7326 23.9725 33.8379C24.1149 33.9425 24.2817 34.0211 24.4722 34.0717C24.662 34.1229 24.8623 34.1482 25.0716 34.1482H29.3822V31.5544ZM25.2908 33.7663H24.9139C24.7716 33.7663 24.6376 33.7459 24.512 33.7045C24.387 33.6631 24.2775 33.6027 24.184 33.5248C24.0905 33.4469 24.0165 33.3514 23.9628 33.2384C23.909 33.1254 23.8818 32.9969 23.8818 32.8537C23.8818 32.7168 23.9111 32.5919 23.9697 32.4789C24.0283 32.3659 24.1058 32.269 24.2028 32.1869C24.2998 32.1061 24.4101 32.0444 24.5336 32.0008C24.6571 31.958 24.7841 31.937 24.9139 31.937H25.2908V33.7663ZM27.6041 34.994H27.9956V34.6016H27.6041V34.994ZM6.51931 31.8892C6.41742 31.7776 6.30367 31.6941 6.17876 31.6379C6.05384 31.5825 5.90032 31.5544 5.71957 31.5544H5.43904V31.937H5.77191C5.86403 31.937 5.95126 31.9566 6.03361 31.9966C6.11595 32.0359 6.18434 32.0879 6.23808 32.1518C6.29251 32.2184 6.32949 32.2914 6.34973 32.3715C6.37067 32.4508 6.38113 32.5463 6.38113 32.6579V33.7663H4.59673V34.1482H6.76146V32.6438C6.76146 32.4936 6.74192 32.3539 6.70215 32.2234C6.66237 32.0928 6.60166 31.9812 6.51931 31.8892ZM35.4152 33.7663H33.7975L34.4633 32.1658C34.3621 32.0766 34.2539 31.9931 34.1402 31.9152C34.0257 31.8366 33.9085 31.7685 33.7878 31.7095C33.667 31.6505 33.5449 31.6049 33.4214 31.5712C33.2979 31.5375 33.1758 31.5207 33.055 31.5207C32.9315 31.5207 32.8073 31.5375 32.6838 31.5712C32.5596 31.6049 32.4374 31.6498 32.3153 31.7074C32.1932 31.765 32.0759 31.8331 31.9636 31.9131C31.8505 31.9924 31.7452 32.0766 31.6468 32.1658L32.3174 33.7663H30.9001V31.5544H30.519V34.2296C30.519 34.3377 30.5135 34.4297 30.503 34.5041C30.4911 34.5792 30.4723 34.6396 30.4458 34.6859C30.4186 34.7315 30.3816 34.7652 30.3355 34.7863C30.2901 34.8066 30.2308 34.8172 30.1576 34.8172C30.1227 34.8172 30.0927 34.815 30.0668 34.8122C30.0417 34.8087 30.0068 34.801 29.9629 34.7884L29.8631 35.1562C29.9677 35.185 30.0703 35.1997 30.1722 35.1997C30.3083 35.1997 30.4227 35.1773 30.517 35.1323C30.6105 35.0874 30.6858 35.0235 30.7431 34.9386C30.8003 34.8544 30.8408 34.7526 30.8645 34.6332C30.8882 34.5132 30.9001 34.3798 30.9001 34.2296V34.1482H35.7962V30.7197H35.4152V33.7663ZM32.7173 33.7663L32.1227 32.2999C32.2686 32.1756 32.4179 32.0844 32.5721 32.0275C32.7256 31.9699 32.8868 31.9412 33.055 31.9412C33.2267 31.9412 33.3963 31.9756 33.5638 32.0444C33.7326 32.1124 33.875 32.1981 33.9922 32.2999L33.3977 33.7663H32.7173ZM28.9963 34.9898H29.3878V34.5974H28.9963V34.9898ZM57.0415 34.1482H57.4218V30.7197H57.0415V34.1482ZM55.5516 33.7663H54.2438C54.3234 33.5908 54.3625 33.4034 54.3625 33.2026C54.3625 33.0054 54.3269 32.8214 54.2557 32.6509C54.1838 32.4803 54.0868 32.3329 53.9626 32.2093C53.8391 32.0844 53.6925 31.9868 53.523 31.9152C53.3534 31.8436 53.1698 31.8078 52.973 31.8078C52.7825 31.8078 52.6053 31.8443 52.4406 31.9173C52.2752 31.991 52.1314 32.09 52.01 32.2163C51.8879 32.342 51.7916 32.4894 51.7218 32.6579C51.652 32.8271 51.6171 33.0082 51.6171 33.2026C51.6171 33.3044 51.6276 33.402 51.6485 33.496C51.6688 33.5901 51.696 33.68 51.7316 33.7663H50.5515C50.6311 33.5908 50.6701 33.4034 50.6701 33.2026C50.6701 33.0054 50.6346 32.8214 50.5634 32.6509C50.4922 32.4803 50.3945 32.3329 50.2703 32.2093C50.1468 32.0844 50.0002 31.9868 49.8306 31.9152C49.6611 31.8436 49.4775 31.8078 49.2807 31.8078C49.0902 31.8078 48.9137 31.8443 48.7483 31.9173C48.5829 31.991 48.4398 32.09 48.3177 32.2163C48.1956 32.342 48.0993 32.4894 48.0295 32.6579C47.9597 32.8271 47.9248 33.0082 47.9248 33.2026C47.9248 33.3044 47.9353 33.402 47.9562 33.496C47.9764 33.5901 48.0044 33.68 48.0392 33.7663H46.8306V30.7197H46.4502V33.7663H45.2374V33.1816C45.2374 33.0348 45.2178 32.8951 45.1795 32.7625C45.1418 32.6305 45.0811 32.5189 44.9987 32.4262C44.901 32.3153 44.7894 32.2318 44.6658 32.1777C44.5423 32.1237 44.3853 32.097 44.1948 32.097H42.5102L43.2269 30.7197H42.8131L42.0824 32.0921C42.095 32.1742 42.1145 32.2458 42.1417 32.3069C42.1689 32.3673 42.2059 32.4248 42.2534 32.4789H44.1948C44.3155 32.4789 44.4195 32.4971 44.5067 32.5336C44.594 32.5701 44.6645 32.6207 44.7182 32.6839C44.7719 32.7477 44.8089 32.8207 44.8278 32.9036C44.8466 32.9864 44.8564 33.0791 44.8564 33.1816V33.7663H41.335V31.5544H40.7356C40.4976 31.5544 40.282 31.5874 40.0887 31.6527C39.8953 31.7179 39.73 31.8085 39.5939 31.9243C39.4571 32.0408 39.3517 32.1784 39.2771 32.3378C39.2031 32.4971 39.1654 32.6691 39.1654 32.8537C39.1654 33.0798 39.208 33.2742 39.2938 33.4364C39.3796 33.5992 39.4941 33.7326 39.6371 33.8379C39.7795 33.9425 39.9463 34.0211 40.1361 34.0717C40.3266 34.1229 40.5269 34.1482 40.7356 34.1482H48.2863C48.4098 34.2822 48.5571 34.3882 48.7266 34.4662C48.8962 34.5441 49.0811 34.5834 49.2807 34.5834C49.4838 34.5834 49.6736 34.5448 49.8495 34.4683C50.0253 34.3918 50.1768 34.2851 50.3038 34.1482H51.9786C52.1021 34.2822 52.2494 34.3882 52.419 34.4662C52.5885 34.5441 52.7735 34.5834 52.973 34.5834C53.1761 34.5834 53.3652 34.5448 53.5418 34.4683C53.7177 34.3918 53.8691 34.2851 53.9961 34.1482H55.9326V30.7197H55.5516V33.7663ZM40.9547 33.7663H40.5785C40.4362 33.7663 40.3022 33.7459 40.1766 33.7045C40.051 33.6631 39.9421 33.6027 39.8486 33.5248C39.7551 33.4469 39.6811 33.3514 39.6274 33.2384C39.5729 33.1254 39.5464 32.9969 39.5464 32.8537C39.5464 32.7168 39.575 32.5919 39.6344 32.4789C39.693 32.3659 39.7704 32.269 39.8674 32.1869C39.9644 32.1061 40.0747 32.0444 40.1982 32.0008C40.3217 31.958 40.4487 31.937 40.5785 31.937H40.9547V33.7663ZM50.211 33.5964C50.1586 33.7193 50.0874 33.8253 49.9967 33.9144C49.9067 34.0036 49.8006 34.0731 49.6785 34.1222C49.5557 34.1713 49.4238 34.1959 49.2807 34.1959C49.1418 34.1959 49.0121 34.1699 48.8934 34.1173C48.7741 34.0646 48.6708 33.993 48.5836 33.9025C48.4963 33.8112 48.4286 33.7059 48.3791 33.5845C48.3303 33.4637 48.3051 33.3346 48.3051 33.1977C48.3051 33.0608 48.3303 32.9309 48.3791 32.8081C48.4286 32.686 48.4956 32.5793 48.5815 32.4887C48.6673 32.3974 48.7692 32.3251 48.8878 32.2711C49.0072 32.217 49.1384 32.1897 49.2807 32.1897C49.4266 32.1897 49.5606 32.2156 49.6834 32.2662C49.8055 32.3174 49.9116 32.3876 50.0016 32.4761C50.0923 32.5659 50.1628 32.6712 50.2137 32.7941C50.2647 32.9169 50.2898 33.051 50.2898 33.1977C50.2898 33.3409 50.264 33.4736 50.211 33.5964ZM53.9033 33.5964C53.8509 33.7193 53.7798 33.8253 53.689 33.9144C53.599 34.0036 53.4929 34.0731 53.3701 34.1222C53.2487 34.1713 53.1161 34.1959 52.973 34.1959C52.8335 34.1959 52.7044 34.1699 52.5857 34.1173C52.4664 34.0646 52.3631 33.993 52.2759 33.9025C52.1887 33.8112 52.121 33.7059 52.0714 33.5845C52.0226 33.4637 51.9975 33.3346 51.9975 33.1977C51.9975 33.0608 52.0226 32.9309 52.0714 32.8081C52.121 32.686 52.188 32.5793 52.2738 32.4887C52.3596 32.3974 52.4622 32.3251 52.5809 32.2711C52.6995 32.217 52.8307 32.1897 52.973 32.1897C53.1189 32.1897 53.2529 32.2156 53.375 32.2662C53.4971 32.3174 53.6039 32.3876 53.6939 32.4761C53.7846 32.5659 53.8551 32.6712 53.9054 32.7941C53.957 32.9169 53.9821 33.051 53.9821 33.1977C53.9821 33.3409 53.9556 33.4736 53.9033 33.5964ZM19.7512 33.7663H19.128C18.9054 33.7663 18.731 33.7347 18.604 33.6708C18.4777 33.6069 18.3772 33.5115 18.3046 33.3844C18.3269 33.2854 18.3381 33.1661 18.3381 33.0257V31.793H17.9571V33.0875C17.9571 33.3079 17.8984 33.4834 17.7812 33.6161C17.664 33.748 17.486 33.814 17.248 33.814C17.1371 33.814 17.0359 33.7965 16.9438 33.7614C16.8517 33.7263 16.7721 33.6785 16.7058 33.6182C16.6395 33.5578 16.5865 33.4869 16.5488 33.4055C16.5104 33.3248 16.4902 33.2377 16.4867 33.145V31.793H16.1064V33.1163C16.1064 33.2342 16.0889 33.3339 16.054 33.4153C16.0191 33.496 15.971 33.5634 15.9117 33.6161C15.851 33.668 15.7826 33.7066 15.7065 33.7305C15.6304 33.7544 15.5495 33.7663 15.4636 33.7663H14.7267V31.793H14.3457V33.7663H12.3477L13.0135 32.1658C12.9123 32.0766 12.8041 31.9931 12.6897 31.9152C12.5759 31.8366 12.4587 31.7685 12.338 31.7095C12.2179 31.6505 12.0951 31.6049 11.9716 31.5712C11.8481 31.5375 11.726 31.5207 11.6052 31.5207C11.4817 31.5207 11.3582 31.5375 11.234 31.5712C11.1105 31.6049 10.9876 31.6498 10.8655 31.7074C10.7434 31.765 10.6262 31.8331 10.5131 31.9131C10.4007 31.9924 10.2954 32.0766 10.197 32.1658L10.8676 33.7663H9.55007V31.5544H8.94085C8.70567 31.5544 8.49213 31.5881 8.29813 31.6548C8.10482 31.7214 7.93943 31.8134 7.80126 31.9292C7.66308 32.0458 7.55631 32.184 7.48025 32.3448C7.40418 32.5063 7.3658 32.6803 7.3658 32.8678C7.3658 33.0945 7.40767 33.2875 7.49211 33.4483C7.57585 33.6091 7.6903 33.7417 7.83475 33.8449C7.97851 33.9488 8.14669 34.0253 8.33651 34.0738C8.52702 34.1236 8.7287 34.1482 8.94085 34.1482H9.16904V34.2584C9.16904 34.4584 9.11182 34.6016 8.99807 34.688C8.88362 34.7743 8.72312 34.8172 8.51725 34.8172C8.40001 34.8172 8.29464 34.8059 8.20113 34.7842C8.10692 34.761 8.00014 34.7231 7.88012 34.669L7.76078 35.0369C7.90663 35.0909 8.03574 35.1316 8.14879 35.1583C8.26114 35.1857 8.37489 35.1997 8.48864 35.1997C8.8599 35.1997 9.12927 35.1113 9.29815 34.9344C9.46563 34.7575 9.55007 34.5195 9.55007 34.2198V34.1482H15.4636C15.6479 34.1482 15.8119 34.1089 15.957 34.0288C16.1008 33.9495 16.2173 33.8428 16.3059 33.7087C16.3981 33.8618 16.5237 33.9811 16.6821 34.0674C16.8412 34.1531 17.0296 34.1959 17.248 34.1959C17.4762 34.1959 17.6709 34.1566 17.8314 34.0766C17.9913 33.9972 18.1141 33.8744 18.1999 33.7087C18.2313 33.7628 18.2704 33.8161 18.3165 33.8688C18.3625 33.9214 18.4218 33.9685 18.4944 34.0099C18.5677 34.0513 18.6556 34.085 18.7589 34.1103C18.837 34.1299 18.9313 34.139 19.0324 34.144V34.1482H20.1316V30.7197H19.7512V33.7663ZM9.16904 33.7663H8.78383C8.64077 33.7663 8.50678 33.7459 8.38187 33.7066C8.25626 33.6666 8.14669 33.6084 8.05109 33.5325C7.95618 33.456 7.88081 33.362 7.82778 33.2503C7.77334 33.1387 7.74683 33.011 7.74683 32.8678C7.74683 32.7316 7.77614 32.6052 7.83475 32.4908C7.89268 32.3764 7.97084 32.2781 8.06784 32.1967C8.16414 32.116 8.2744 32.0528 8.39792 32.0086C8.52214 31.9636 8.65054 31.9412 8.78383 31.9412H9.16904V33.7663ZM11.2675 33.7663L10.6729 32.2999C10.8188 32.1756 10.9688 32.0844 11.1223 32.0275C11.2765 31.9699 11.4371 31.9412 11.6052 31.9412C11.7762 31.9412 11.9458 31.9756 12.1147 32.0444C12.2821 32.1124 12.4252 32.1981 12.5424 32.2999L11.9479 33.7663H11.2675ZM21.2404 34.1482H21.6208V30.7197H21.2404V34.1482Z" fill="#939BB3"/>
<path fill-rule="evenodd" clip-rule="evenodd" d="M0.322266 36.4805H0.770625V37.7684L1.98349 36.4805H2.5333L1.47295 37.5814L2.58043 39.0405H2.03781L1.16793 37.8889L0.770625 38.2984V39.0405H0.322266V36.4805Z" fill="#939BB3"/>
<path fill-rule="evenodd" clip-rule="evenodd" d="M3.32812 39.0405H3.77008V36.4805H3.32812V39.0405Z" fill="#939BB3"/>
<path fill-rule="evenodd" clip-rule="evenodd" d="M4.51562 36.4805H4.93733L6.32548 38.2503V36.4805H6.77379V39.0405H6.39266L4.96327 37.2192V39.0405H4.51562V36.4805Z" fill="#939BB3"/>
<path fill-rule="evenodd" clip-rule="evenodd" d="M7.41992 37.9283V37.9205C7.41992 37.1407 8.01096 36.4805 8.84196 36.4805C9.32258 36.4805 9.61774 36.6158 9.90158 36.8578L9.59438 37.228C9.38133 37.0454 9.17322 36.9302 8.82214 36.9302C8.31391 36.9302 7.92815 37.3791 7.92815 37.9126V37.9205C7.92815 38.4933 8.30259 38.9144 8.86532 38.9144C9.1258 38.9144 9.36221 38.8313 9.53139 38.7038V38.1825H8.82568V37.7572H10.0007V38.9265C9.72816 39.1614 9.33815 39.3605 8.84974 39.3605C7.9869 39.3605 7.41992 38.7396 7.41992 37.9283Z" fill="#939BB3"/>
<path fill-rule="evenodd" clip-rule="evenodd" d="M10.6465 36.4805H11.7109C12.6075 36.4805 13.2272 37.0329 13.2272 37.7532V37.7605C13.2272 38.4815 12.6075 39.0405 11.7109 39.0405H10.6465V36.4805ZM11.7109 38.6309C12.3101 38.6309 12.7013 38.2688 12.7013 37.7684V37.7605C12.7013 37.2594 12.3101 36.89 11.7109 36.89H11.1483V38.6309H11.7109Z" fill="#939BB3"/>
<path fill-rule="evenodd" clip-rule="evenodd" d="M13.5488 37.9283V37.9205C13.5488 37.1371 14.1517 36.4805 15.0041 36.4805C15.8571 36.4805 16.4522 37.1285 16.4522 37.9126V37.9205C16.4522 38.7038 15.8493 39.3605 14.9962 39.3605C14.1439 39.3605 13.5488 38.7117 13.5488 37.9283ZM15.9405 37.9283V37.9205C15.9405 37.3791 15.5478 36.9302 14.9962 36.9302C14.4453 36.9302 14.0605 37.3713 14.0605 37.9126V37.9205C14.0605 38.4611 14.4532 38.9108 15.0041 38.9108C15.5557 38.9108 15.9405 38.469 15.9405 37.9283Z" fill="#939BB3"/>
<path fill-rule="evenodd" clip-rule="evenodd" d="M17.0977 36.4805H17.589L18.3884 37.6913L19.1871 36.4805H19.6784V39.0405H19.2167V37.2047L18.3884 38.4117H18.3735L17.5519 37.212V39.0405H17.0977V36.4805Z" fill="#939BB3"/>
<path fill-rule="evenodd" clip-rule="evenodd" d="M21.291 37.9283V37.9205C21.291 37.1371 21.8939 36.4805 22.7463 36.4805C23.5993 36.4805 24.1944 37.1285 24.1944 37.9126V37.9205C24.1944 38.7038 23.5915 39.3605 22.7384 39.3605C21.8861 39.3605 21.291 38.7117 21.291 37.9283ZM23.6827 37.9283V37.9205C23.6827 37.3791 23.29 36.9302 22.7384 36.9302C22.1875 36.9302 21.8027 37.3713 21.8027 37.9126V37.9205C21.8027 38.4611 22.1954 38.9108 22.7463 38.9108C23.2978 38.9108 23.6827 38.469 23.6827 37.9283Z" fill="#939BB3"/>
<path fill-rule="evenodd" clip-rule="evenodd" d="M24.8398 36.4805H26.7754V36.8907H25.297V37.5893H26.6079V37.9982H25.297V39.0405H24.8398V36.4805Z" fill="#939BB3"/>
<path fill-rule="evenodd" clip-rule="evenodd" d="M28.3887 38.9125L28.6971 38.5603C28.9757 38.7922 29.2549 38.9248 29.6181 38.9248C29.934 38.9248 30.1347 38.7843 30.1347 38.5719V38.5647C30.1347 38.3645 30.0179 38.2564 29.4758 38.1362C28.8551 37.9921 28.5047 37.8164 28.5047 37.3V37.2921C28.5047 36.8118 28.9218 36.4805 29.5013 36.4805C29.9266 36.4805 30.2635 36.6043 30.5592 36.8319L30.2844 37.2043C30.0216 37.0163 29.7596 36.9162 29.493 36.9162C29.1928 36.9162 29.0176 37.0645 29.0176 37.2482V37.2561C29.0176 37.4722 29.1516 37.5679 29.7094 37.6961C30.3256 37.8402 30.6468 38.0526 30.6468 38.5164V38.5243C30.6468 39.0479 30.2178 39.3605 29.6054 39.3605C29.1591 39.3605 28.7383 39.2121 28.3887 38.9125Z" fill="#939BB3"/>
<path fill-rule="evenodd" clip-rule="evenodd" d="M31.8713 36.4805H32.3243L33.5498 39.0405H33.0325L32.7502 38.4266H31.4332L31.1474 39.0405H30.6465L31.8713 36.4805ZM32.5709 38.0311L32.0899 37.0139L31.6126 38.0311H32.5709Z" fill="#939BB3"/>
<path fill-rule="evenodd" clip-rule="evenodd" d="M33.873 38.113V36.4805H34.337V38.0933C34.337 38.6197 34.5896 38.9026 35.0035 38.9026C35.4146 38.9026 35.6673 38.6357 35.6673 38.113V36.4805H36.1312V38.0889C36.1312 38.9354 35.6862 39.3605 34.9967 39.3605C34.3106 39.3605 33.873 38.9354 33.873 38.113Z" fill="#939BB3"/>
<path fill-rule="evenodd" clip-rule="evenodd" d="M36.7754 36.4805H37.8398C38.7364 36.4805 39.3561 37.0329 39.3561 37.7532V37.7605C39.3561 38.4815 38.7364 39.0405 37.8398 39.0405H36.7754V36.4805ZM37.8398 38.6309C38.439 38.6309 38.8302 38.2688 38.8302 37.7684V37.7605C38.8302 37.2594 38.439 36.89 37.8398 36.89H37.2772V38.6309H37.8398Z" fill="#939BB3"/>
<path fill-rule="evenodd" clip-rule="evenodd" d="M40.1035 39.0405H40.5455V36.4805H40.1035V39.0405Z" fill="#939BB3"/>
<path fill-rule="evenodd" clip-rule="evenodd" d="M43.1623 36.4805H43.6153L44.8409 39.0405H44.3235L44.0412 38.4266H42.725L42.4384 39.0405H41.9375L43.1623 36.4805ZM43.8626 38.0311L43.381 37.0139L42.9036 38.0311H43.8626Z" fill="#939BB3"/>
<path fill-rule="evenodd" clip-rule="evenodd" d="M45.4863 36.4805H46.6721C47.0068 36.4805 47.2691 36.5759 47.4405 36.7366C47.5806 36.8755 47.6612 37.0658 47.6612 37.289V37.2963C47.6612 37.7164 47.3982 37.9692 47.0259 38.0719L47.7445 39.0405H47.1933L46.5396 38.1483H46.5314H45.9542V39.0405H45.4863V36.4805ZM46.6379 37.7499C46.9726 37.7499 47.1858 37.5814 47.1858 37.322V37.3147C47.1858 37.0401 46.9802 36.89 46.6345 36.89H45.9542V37.7499H46.6379Z" fill="#939BB3"/>
<path fill-rule="evenodd" clip-rule="evenodd" d="M49.2912 36.4805H49.745L50.9698 39.0405H50.4524L50.1701 38.4266H48.8539L48.5673 39.0405H48.0664L49.2912 36.4805ZM49.9915 38.0311L49.5099 37.0139L49.0325 38.0311H49.9915Z" fill="#939BB3"/>
<path fill-rule="evenodd" clip-rule="evenodd" d="M51.293 36.4805H52.5094C52.8191 36.4805 53.0626 36.5615 53.2178 36.7076C53.3375 36.8209 53.4001 36.9598 53.4001 37.1317V37.1389C53.4001 37.4464 53.2136 37.611 53.0125 37.7098C53.3305 37.8118 53.5511 37.9837 53.5511 38.3313V38.3386C53.5511 38.7962 53.1517 39.0405 52.5477 39.0405H51.293V36.4805ZM52.412 37.5596C52.7182 37.5596 52.9234 37.4464 52.9234 37.212V37.2047C52.9234 37.0033 52.7529 36.8795 52.4474 36.8795H51.762V37.5596H52.412ZM52.5518 38.6421C52.8768 38.6421 53.0744 38.5216 53.0744 38.2912V38.2839C53.0744 38.068 52.8928 37.9396 52.517 37.9396H51.762V38.6421H52.5518Z" fill="#939BB3"/>
<path fill-rule="evenodd" clip-rule="evenodd" d="M54.2969 39.0405H54.7388V36.4805H54.2969V39.0405Z" fill="#939BB3"/>
<path fill-rule="evenodd" clip-rule="evenodd" d="M56.3892 36.4805H56.8423L58.0674 39.0405H57.5506L57.2683 38.4266H55.951L55.6651 39.0405H55.1641L56.3892 36.4805ZM57.0889 38.0311L56.6079 37.0139L56.1304 38.0311H57.0889Z" fill="#939BB3"/>
</g>
<defs>
<clipPath id="clip0_11749_38085">
<rect width="59.68" height="39.68" fill="white"/>
</clipPath>
</defs>
</svg>
