<svg width="20" height="20" viewBox="0 0 20 20" fill="none" xmlns="http://www.w3.org/2000/svg">
<path d="M9.93905 18.1244C9.88988 18.1244 9.84069 18.1186 9.79069 18.1069C9.45569 18.0252 9.24988 17.6869 9.33154 17.3519C9.41571 17.0061 9.81817 15.8211 11.4548 15.1102C11.474 15.1019 11.494 15.0944 11.514 15.0877C11.5382 15.0769 11.5665 15.0644 11.6007 15.0527C12.2973 14.796 13.1599 14.3594 13.4874 14.0961C13.5032 14.0836 13.5199 14.0711 13.5374 14.0603L15.8665 12.5403C15.9074 12.5028 15.9065 12.4844 15.9057 12.4778C15.9023 12.4178 15.8349 12.2919 15.6924 12.1994C14.6465 11.5036 13.6798 11.9077 12.2115 12.6561C12.1107 12.7077 12.0098 12.7594 11.909 12.8094C11.1149 13.2027 10.1365 13.1444 9.35238 12.6578C8.60821 12.1961 8.16406 11.4269 8.16406 10.601C8.16406 9.77522 8.60823 9.00025 9.41406 8.45359C10.5441 7.68775 12.2415 7.44527 13.3807 7.8836L15.1824 8.4094C15.3507 8.4594 15.5248 8.44026 15.674 8.35609C15.819 8.27443 15.9215 8.14276 15.9632 7.98443C16.0415 7.69193 15.8781 7.38939 15.584 7.27772L13.6199 6.54522C13.6199 6.54522 13.6165 6.54353 13.614 6.5427L12.8724 6.31524C12.2624 6.13274 11.8215 6.0652 11.4923 6.1052C10.9365 6.17437 9.4499 6.83107 8.64323 7.22857C8.33406 7.38107 7.95906 7.25439 7.80656 6.94439C7.65406 6.63522 7.78066 6.26022 8.09066 6.10772C8.32316 5.99272 10.3923 4.98273 11.3407 4.86439C11.849 4.80273 12.4507 4.88444 13.2357 5.11944L13.9941 5.35194C14.0024 5.35444 14.0107 5.35691 14.019 5.36024C14.0257 5.36274 14.0332 5.36523 14.0399 5.36773L14.0515 5.37188C14.204 5.42688 14.3674 5.41938 14.5124 5.35105C14.664 5.28022 14.7774 5.15194 14.8324 4.9911C14.9399 4.68194 14.7874 4.34525 14.4849 4.22108L12.9023 3.56687L12.7673 3.5169C12.3198 3.3519 12.0732 3.26187 11.8507 3.20937C11.574 3.14603 11.2674 3.11689 10.9424 3.12522L10.919 3.12693C10.8374 3.13193 10.7916 3.13526 10.6124 3.17193C10.6057 3.1736 10.599 3.17443 10.5924 3.17527C10.4149 3.20527 10.3157 3.23855 10.0973 3.31272L9.66903 3.45855C8.24319 3.94355 7.6524 4.14439 7.03906 4.59022C5.41323 5.77606 4.42734 7.12603 4.17318 7.93853C3.90234 8.8052 3.90234 9.87021 3.90234 11.9935L3.90234 17.5019C3.90234 17.8469 3.62234 18.1269 3.27734 18.1269C2.93234 18.1269 2.65234 17.8469 2.65234 17.5019L2.65234 11.9935C2.65234 9.74438 2.65232 8.61522 2.97982 7.56605C3.44815 6.07272 5.00322 4.52855 6.30322 3.58021C7.07156 3.02272 7.80485 2.77276 9.26652 2.2761L9.69735 2.12937C9.93318 2.04937 10.1049 1.99187 10.3732 1.94521C10.6107 1.89771 10.7073 1.8886 10.8365 1.88026L10.8699 1.87774C10.879 1.87774 10.8873 1.87687 10.8965 1.87603C11.3323 1.86437 11.7482 1.90358 12.1332 1.99192C12.4324 2.06192 12.7049 2.16189 13.1991 2.34356L13.3457 2.39776C13.3532 2.40109 13.3616 2.40354 13.3691 2.40688L14.9615 3.06524C15.8765 3.44107 16.3399 4.46607 16.0149 5.39857C15.9416 5.61441 15.8307 5.81107 15.6907 5.98191L16.0257 6.10691C16.9257 6.44774 17.4182 7.39192 17.1732 8.30442C17.0457 8.79025 16.7316 9.19604 16.2891 9.44521C15.8424 9.69687 15.3249 9.7552 14.8315 9.60854L13.0057 9.07606C12.9865 9.07023 12.9674 9.06361 12.9491 9.05694C12.1874 8.75277 10.9173 8.94691 10.1173 9.48858C9.65235 9.80358 9.4165 10.1785 9.4165 10.601C9.4165 10.9977 9.634 11.3603 10.014 11.5961C10.4332 11.8561 10.9465 11.8927 11.354 11.6911C11.4498 11.6427 11.5482 11.5927 11.6474 11.5427C12.989 10.8594 14.659 10.0086 16.384 11.1561C16.8415 11.4544 17.1324 11.9261 17.1574 12.4144C17.1799 12.8436 16.9948 13.2394 16.6382 13.5285C16.6215 13.5419 16.604 13.5544 16.5865 13.5661L14.249 15.0919C13.7465 15.4844 12.7507 15.9636 12.0457 16.2236L12.034 16.2302C11.9957 16.2502 11.9557 16.2661 11.9149 16.2777C11.6765 16.3877 10.7423 16.8661 10.5515 17.6494C10.4823 17.9352 10.2265 18.1269 9.94482 18.1269L9.93905 18.1244ZM12.0065 16.2344C12.0065 16.2344 12.0065 16.2344 12.0057 16.2344C12.0057 16.2344 12.0057 16.2344 12.0065 16.2344Z" fill="#161616"/>
</svg>
