<svg width="20" height="20" viewBox="0 0 20 20" fill="none" xmlns="http://www.w3.org/2000/svg">
<path fill-rule="evenodd" clip-rule="evenodd" d="M1.04297 3.5415C1.04297 2.16079 2.16226 1.0415 3.54297 1.0415C4.92368 1.0415 6.04297 2.16079 6.04297 3.5415C6.04297 4.92222 4.92368 6.0415 3.54297 6.0415C2.16226 6.0415 1.04297 4.92222 1.04297 3.5415ZM3.54297 2.2915C2.85261 2.2915 2.29297 2.85115 2.29297 3.5415C2.29297 4.23186 2.85261 4.7915 3.54297 4.7915C4.23332 4.7915 4.79297 4.23186 4.79297 3.5415C4.79297 2.85115 4.23332 2.2915 3.54297 2.2915Z" fill="#161616"/>
<path fill-rule="evenodd" clip-rule="evenodd" d="M3.29735 7.29151H3.7886C4.14928 7.29146 4.47997 7.29143 4.74898 7.32759C5.04521 7.36742 5.35832 7.46113 5.61584 7.71865C5.87336 7.97616 5.96706 8.28927 6.00689 8.5855C6.04306 8.85451 6.04302 9.1852 6.04298 9.54588L6.04298 16.7038C6.04302 17.0645 6.04306 17.3952 6.00689 17.6642C5.96706 17.9604 5.87336 18.2735 5.61584 18.531C5.35832 18.7886 5.04521 18.8823 4.74898 18.9221C4.47997 18.9583 4.14928 18.9582 3.78859 18.9582H3.29735C2.93667 18.9582 2.60598 18.9583 2.33697 18.9221C2.04073 18.8823 1.72763 18.7886 1.47011 18.531C1.21259 18.2735 1.11889 17.9604 1.07906 17.6642C1.04289 17.3952 1.04293 17.0645 1.04297 16.7038L1.04297 9.54589C1.04293 9.18521 1.04289 8.85451 1.07906 8.5855C1.11889 8.28927 1.21259 7.97616 1.47011 7.71865C1.72763 7.46113 2.04073 7.36742 2.33697 7.32759C2.60598 7.29143 2.93667 7.29146 3.29735 7.29151ZM2.35401 8.60254L2.35603 8.60139C2.35765 8.60055 2.36041 8.59921 2.36461 8.59748C2.38276 8.59001 2.42306 8.57726 2.50353 8.56645C2.67913 8.54284 2.92414 8.54151 3.33464 8.54151H3.75131C4.16181 8.54151 4.40682 8.54284 4.58242 8.56645C4.66289 8.57726 4.70319 8.59001 4.72134 8.59748C4.72554 8.59921 4.7283 8.60055 4.72992 8.60139L4.73194 8.60254L4.73309 8.60457C4.73393 8.60618 4.73528 8.60894 4.73701 8.61315C4.74448 8.6313 4.75722 8.6716 4.76804 8.75206C4.79165 8.92767 4.79297 9.17267 4.79297 9.58318L4.79297 16.6665C4.79297 17.077 4.79165 17.322 4.76804 17.4976C4.75722 17.5781 4.74448 17.6184 4.73701 17.6365C4.73528 17.6407 4.73393 17.6435 4.73309 17.6451L4.73194 17.6471L4.72992 17.6483C4.7283 17.6491 4.72554 17.6505 4.72134 17.6522C4.70319 17.6597 4.66289 17.6724 4.58242 17.6832C4.40682 17.7068 4.16181 17.7082 3.75131 17.7082H3.33464C2.92414 17.7082 2.67913 17.7068 2.50353 17.6832C2.42306 17.6724 2.38276 17.6597 2.36461 17.6522C2.36041 17.6505 2.35765 17.6491 2.35603 17.6483L2.35401 17.6471L2.35286 17.6451C2.35202 17.6435 2.35067 17.6407 2.34894 17.6365C2.34147 17.6184 2.32873 17.5781 2.31791 17.4976C2.2943 17.322 2.29297 17.077 2.29297 16.6665L2.29297 9.58318C2.29297 9.17267 2.2943 8.92767 2.31791 8.75206C2.32873 8.6716 2.34147 8.6313 2.34894 8.61315C2.35067 8.60894 2.35202 8.60618 2.35286 8.60457L2.35401 8.60254Z" fill="#161616"/>
<path fill-rule="evenodd" clip-rule="evenodd" d="M9.54735 7.29151C9.78867 7.29149 10.7605 7.29147 10.945 7.30837C11.1445 7.32665 11.3618 7.36866 11.5711 7.49111C11.7871 7.61749 11.967 7.79735 12.0934 8.01338L12.1034 8.03079C12.7615 7.56609 13.5559 7.29171 14.4153 7.29171C16.6613 7.29171 18.9597 9.20356 18.9597 11.6667L18.9586 16.2878C18.9585 16.6484 18.9585 16.979 18.9223 17.248C18.8824 17.5441 18.7886 17.8572 18.5311 18.1146C18.2736 18.372 17.9606 18.4657 17.6644 18.5055C17.3954 18.5417 17.0648 18.5417 16.7042 18.5416H16.214C15.8533 18.5417 15.5226 18.5417 15.2536 18.5055C14.9574 18.4657 14.6443 18.372 14.3867 18.1145C14.1292 17.857 14.0355 17.5438 13.9957 17.2476C13.9595 16.9786 13.9596 16.6479 13.9596 16.2872L13.9596 12.4999C13.9596 12.1187 13.6776 11.8749 13.4079 11.8749C12.9768 11.8749 12.7452 12.0402 12.5859 12.3046C12.3987 12.6155 12.293 13.1072 12.293 13.7499L12.293 16.7038C12.293 17.0645 12.2931 17.3952 12.2569 17.6642C12.2171 17.9604 12.1234 18.2735 11.8658 18.531C11.6083 18.7886 11.2952 18.8823 10.999 18.9221C10.73 18.9583 10.3993 18.9582 10.0386 18.9582H9.54734C9.18666 18.9582 8.85597 18.9583 8.58697 18.9221C8.29073 18.8823 7.97763 18.7886 7.72011 18.531C7.46259 18.2735 7.36889 17.9604 7.32906 17.6642C7.29289 17.3952 7.29293 17.0645 7.29297 16.7038L7.29297 9.54589C7.29293 9.18521 7.29289 8.85451 7.32906 8.5855C7.36889 8.28927 7.46259 7.97616 7.72011 7.71865C7.97763 7.46113 8.29073 7.36742 8.58697 7.32759C8.85598 7.29143 9.18667 7.29146 9.54735 7.29151ZM9.58464 8.5415C9.17413 8.5415 8.92912 8.54283 8.75352 8.56644C8.69714 8.56425 8.58108 8.5983 8.56791 8.75206C8.5443 8.92766 8.54297 9.17266 8.54297 9.58317L8.54297 16.6665C8.54297 17.077 8.5443 17.322 8.56791 17.4976C8.57796 17.5992 8.69584 17.6637 8.75352 17.6832C8.92912 17.7068 9.17413 17.7082 9.58464 17.7082H10.0013C10.4118 17.7082 10.6568 17.7068 10.8324 17.6832C10.8898 17.6688 11.0072 17.6114 11.018 17.4976C11.0417 17.322 11.043 17.077 11.043 16.6665L11.043 13.7499C11.043 13.012 11.1574 12.2537 11.5151 11.6597C11.9008 11.0193 12.5391 10.6249 13.4079 10.6249C14.438 10.6249 15.2096 11.5005 15.2096 12.4999V16.2499C15.2096 16.6604 15.2109 16.9054 15.2345 17.081C15.2345 17.2128 15.3142 17.2348 15.3763 17.2521C15.3927 17.2566 15.408 17.2608 15.4202 17.2667C15.5958 17.2903 15.8408 17.2916 16.2513 17.2916L16.6669 17.2916C17.0773 17.2916 17.3223 17.2903 17.4978 17.2667C17.5556 17.2452 17.6737 17.1781 17.6834 17.0811C17.7071 16.9056 17.7085 16.6606 17.7086 16.2502L17.7097 11.6666C17.7096 9.98763 16.0686 8.5417 14.4153 8.5417C13.5173 8.5417 12.7049 8.98073 12.1654 9.68987C12.003 9.90335 11.7225 9.9894 11.4684 9.90372C11.2142 9.81803 11.043 9.57971 11.043 9.31148C11.043 9.03734 11.0424 8.87399 11.0313 8.7535C11.0245 8.62745 10.8949 8.56742 10.831 8.55315C10.7105 8.54212 10.5471 8.5415 10.273 8.5415L9.58464 8.5415Z" fill="#161616"/>
</svg>
