<svg width="9" height="14" viewBox="0 0 9 14" fill="none" xmlns="http://www.w3.org/2000/svg">
<path d="M7.94471 1.35579C7.78334 1.47768 7.3016 1.84159 7.02389 2.05831C6.46767 2.49239 5.72858 3.0855 4.99169 3.7253C4.25107 4.36834 3.52978 5.04386 2.99954 5.64397C2.73366 5.94488 2.53162 6.20922 2.40013 6.42735C2.27645 6.6325 2.25073 6.75368 2.25073 6.75368C2.25073 6.75368 2.27645 6.87131 2.40012 7.07645C2.53162 7.29458 2.73365 7.55891 2.99953 7.85983C3.52978 8.45994 4.25108 9.13545 4.9917 9.77849C5.7286 10.4183 6.4677 11.0114 7.02392 11.4455C7.30163 11.6622 7.7827 12.0256 7.94407 12.1475C8.27759 12.3931 8.34953 12.8631 8.1039 13.1967C7.85826 13.5302 7.38877 13.6014 7.05524 13.3558L7.0527 13.3539C6.88345 13.226 6.38443 12.8491 6.10108 12.628C5.5323 12.1841 4.77139 11.5737 4.00829 10.9111C3.24891 10.2518 2.47021 9.52615 1.87546 8.85303C1.57884 8.51733 1.31212 8.17704 1.1155 7.85088C0.93128 7.5453 0.749997 7.1584 0.75 6.75189C0.750003 6.34538 0.931287 5.9585 1.1155 5.65292C1.31213 5.32676 1.57884 4.98646 1.87546 4.65076C2.47021 3.97765 3.2489 3.25198 4.00827 2.59266C4.77137 1.9301 5.53226 1.31967 6.10104 0.875794C6.38459 0.654508 6.88363 0.277582 7.05253 0.150005L7.05472 0.148355C7.38824 -0.0972797 7.85821 -0.0263842 8.10385 0.307137C8.34947 0.640648 8.27821 1.11015 7.94471 1.35579Z" fill="white"/>
</svg>
