<svg width="113" height="115" viewBox="0 0 113 115" fill="none" xmlns="http://www.w3.org/2000/svg">
<rect width="113" height="115" fill="#D9D9D9" fill-opacity="0.01"/>
<g clip-path="url(#clip0_798_142)">
<path d="M50.1758 59.675C50.1758 59.3 50.1008 59 49.8758 58.625C49.6508 58.325 49.3508 58.1 49.0508 57.95C49.2008 57.875 49.4258 57.875 49.6508 57.875C50.1758 57.875 50.6258 58.1 51.0008 58.475C51.4508 58.025 51.9758 57.875 52.5758 57.875C53.2508 57.875 53.8508 58.175 54.3758 58.7L54.4508 58.625C54.9008 58.175 55.5008 57.95 56.1008 57.95C56.7008 57.95 57.3008 58.175 57.7508 58.625C58.2008 59.075 58.4258 59.675 58.4258 60.275V64.4C58.4258 64.775 58.2008 65 57.8258 65C57.4508 65 57.2258 64.775 57.2258 64.4V60.275C57.2258 59.975 57.0758 59.675 56.8508 59.45C56.6258 59.225 56.3258 59.075 56.0258 59.075C55.7258 59.075 55.4258 59.225 55.2008 59.45C54.9758 59.675 54.8258 59.975 54.8258 60.275V64.4C54.8258 64.475 54.8258 64.625 54.7508 64.7C54.6008 64.925 54.4508 65 54.2258 65C53.8508 65 53.6258 64.775 53.6258 64.4V60.275C53.6258 59.975 53.4758 59.675 53.2508 59.45C53.0258 59.225 52.7258 59.075 52.4258 59.075C52.1258 59.075 51.8258 59.225 51.6008 59.45C51.3758 59.675 51.2258 59.975 51.2258 60.275V64.4C51.2258 64.775 51.0008 65 50.6258 65C50.2508 65 50.0258 64.775 50.0258 64.4V59.675H50.1758Z" fill="#664495"/>
<path d="M64.0504 63.1992C64.0504 63.5742 64.1254 63.9492 64.3504 64.2492C64.5754 64.5492 64.8754 64.7742 65.2504 64.9242C65.0254 64.9992 64.8754 64.9992 64.6504 64.9992C64.1254 64.9992 63.6754 64.7742 63.3004 64.3242C62.8504 64.7742 62.3254 64.9992 61.7254 64.9992C61.0504 64.9992 60.5254 64.7742 60.0754 64.3242C59.6254 63.8742 59.4004 63.2742 59.4004 62.6742V60.2742C59.4004 59.5992 59.6254 59.0742 60.0754 58.6242C60.5254 58.1742 61.1254 57.9492 61.7254 57.9492C62.4004 57.9492 62.9254 58.1742 63.3754 58.6242C63.8254 59.0742 64.0504 59.6742 64.0504 60.2742V63.1992ZM60.8254 59.3742C60.6004 59.5992 60.4504 59.8992 60.4504 60.1992V62.5992C60.4504 62.8992 60.6004 63.1992 60.8254 63.4242C61.0504 63.6492 61.3504 63.7992 61.6504 63.7992C61.9504 63.7992 62.2504 63.6492 62.4754 63.4242C62.7004 63.1992 62.8504 62.8992 62.8504 62.5992V60.1992C62.8504 59.8992 62.7004 59.5992 62.4754 59.3742C62.2504 59.1492 61.9504 58.9992 61.6504 58.9992C61.3504 59.0742 61.0504 59.1492 60.8254 59.3742Z" fill="#664495"/>
<path d="M65.625 59.675C65.625 59.3 65.55 59 65.325 58.625C65.1 58.325 64.8 58.1 64.5 57.95C64.65 57.875 64.875 57.875 65.1 57.875C65.625 57.875 66.075 58.1 66.45 58.475C66.9 58.025 67.425 57.875 68.025 57.875C68.7 57.875 69.225 58.1 69.675 58.55C70.125 59 70.35 59.6 70.35 60.2V64.325C70.35 64.7 70.125 64.925 69.75 64.925C69.375 64.925 69.15 64.7 69.15 64.325V60.2C69.15 59.9 69 59.6 68.775 59.375C68.55 59.15 68.25 59 67.95 59C67.65 59 67.35 59.15 67.125 59.375C66.9 59.6 66.75 59.9 66.75 60.2V64.325C66.75 64.7 66.525 64.925 66.15 64.925C65.775 64.925 65.55 64.7 65.55 64.325V59.675H65.625Z" fill="#664495"/>
<path d="M76.2004 67.925C76.2004 68.45 76.0504 68.825 75.6754 69.2C75.3004 69.575 74.9254 69.725 74.4004 69.725C74.1754 69.725 74.0254 69.725 73.8004 69.65C74.1754 69.5 74.4754 69.275 74.6254 68.975C74.8504 68.675 74.9254 68.3 74.9254 67.925V64.625C74.5504 64.85 74.1754 64.925 73.7254 64.925C73.0504 64.925 72.5254 64.7 72.0754 64.25C71.6254 63.8 71.4004 63.2 71.4004 62.6V60.2C71.4004 59.525 71.6254 59 72.0754 58.55C72.5254 58.1 73.1254 57.875 73.7254 57.875C74.3254 57.875 74.9254 58.1 75.3754 58.55C75.8254 59 76.0504 59.6 76.0504 60.2V67.925H76.2004ZM74.6254 63.425C74.8504 63.2 75.0004 62.9 75.0004 62.6V60.2C75.0004 59.9 74.8504 59.6 74.6254 59.375C74.4004 59.15 74.1004 59 73.8004 59C73.5004 59 73.2004 59.15 72.9754 59.375C72.7504 59.6 72.6004 59.9 72.6004 60.2V62.6C72.6004 62.9 72.7504 63.2 72.9754 63.425C73.2004 63.65 73.5004 63.8 73.8004 63.8C74.1004 63.8 74.4004 63.725 74.6254 63.425Z" fill="#664495"/>
<path d="M82.0504 63.1992C82.0504 63.5742 82.1254 63.9492 82.3504 64.2492C82.5754 64.5492 82.8754 64.7742 83.2504 64.9242C83.0254 64.9992 82.8754 64.9992 82.6504 64.9992C82.1254 64.9992 81.6754 64.7742 81.3004 64.3242C80.8504 64.7742 80.3254 64.9992 79.7254 64.9992C79.0504 64.9992 78.5254 64.7742 78.0754 64.3242C77.6254 63.8742 77.4004 63.2742 77.4004 62.6742V60.2742C77.4004 59.5992 77.6254 59.0742 78.0754 58.6242C78.5254 58.1742 79.1254 57.9492 79.7254 57.9492C80.3254 57.9492 80.9254 58.1742 81.3754 58.6242C81.8254 59.0742 82.0504 59.6742 82.0504 60.2742V63.1992ZM78.8254 59.3742C78.6004 59.5992 78.4504 59.8992 78.4504 60.1992V62.5992C78.4504 62.8992 78.6004 63.1992 78.8254 63.4242C79.0504 63.6492 79.3504 63.7992 79.6504 63.7992C79.9504 63.7992 80.2504 63.6492 80.4754 63.4242C80.7004 63.1992 80.8504 62.8992 80.8504 62.5992V60.1992C80.8504 59.8992 80.7004 59.5992 80.4754 59.3742C80.2504 59.1492 79.9504 58.9992 79.6504 58.9992C79.3504 59.0742 79.0504 59.1492 78.8254 59.3742Z" fill="#664495"/>
<path d="M50.1004 66.0496C50.2504 66.0496 50.4004 65.9746 50.6254 65.9746C50.9254 65.9746 51.0754 66.0496 51.2254 66.1246C51.3754 66.1996 51.3754 66.3496 51.3754 66.5746C51.3754 66.7996 51.3004 66.9496 51.2254 67.0246C51.0754 67.1746 50.8504 67.2496 50.5504 67.2496C50.4754 67.2496 50.4004 67.2496 50.3254 67.2496V68.0746H50.0254V66.0496H50.1004ZM50.4004 67.0996C50.4754 67.0996 50.5504 67.0996 50.6254 67.0996C50.9254 67.0996 51.1504 66.9496 51.1504 66.6496C51.1504 66.3496 50.9254 66.1996 50.6254 66.1996C50.4754 66.1996 50.4004 66.1996 50.4004 66.1996V67.0996Z" fill="#39ABE2"/>
<path d="M52.2752 66.0496C52.4252 66.0496 52.6502 65.9746 52.8002 65.9746C53.1002 65.9746 53.2502 66.0496 53.4002 66.1246C53.4752 66.1996 53.5502 66.3496 53.5502 66.4996C53.5502 66.7996 53.4002 66.9496 53.1752 67.0246C53.3252 67.0996 53.4002 67.2496 53.4752 67.4746C53.5502 67.7746 53.6252 67.9996 53.6252 68.0746H53.3252C53.3252 67.9996 53.2502 67.8496 53.1752 67.5496C53.1002 67.2496 53.0252 67.1746 52.7252 67.0996H52.5002V67.9996H52.2002V66.0496H52.2752ZM52.5752 67.0246H52.8752C53.1752 67.0246 53.3252 66.8746 53.3252 66.6496C53.3252 66.3496 53.1002 66.2746 52.8002 66.2746C52.6502 66.2746 52.5752 66.2746 52.5002 66.2746V67.0246H52.5752Z" fill="#39ABE2"/>
<path d="M56.2508 67.0992C56.2508 67.8492 55.8008 68.2242 55.2758 68.2242C54.6758 68.2242 54.3008 67.7742 54.3008 67.1742C54.3008 66.4992 54.7508 66.0492 55.2758 66.0492C55.8758 65.9742 56.2508 66.4242 56.2508 67.0992ZM54.6008 67.0992C54.6008 67.5492 54.8258 67.9992 55.2758 67.9992C55.7258 67.9992 55.9508 67.6242 55.9508 67.0992C55.9508 66.6492 55.7258 66.1992 55.2758 66.1992C54.8258 66.1992 54.6008 66.6492 54.6008 67.0992Z" fill="#39ABE2"/>
<path d="M57.0752 66.0496C57.2252 66.0496 57.4502 65.9746 57.6752 65.9746C58.0502 65.9746 58.3502 66.0496 58.5752 66.2746C58.8002 66.4246 58.8752 66.7246 58.8752 67.0246C58.8752 67.3996 58.8002 67.6246 58.5752 67.8496C58.3502 68.0746 58.0502 68.1496 57.6002 68.1496C57.3752 68.1496 57.2252 68.1496 57.0752 68.1496V66.0496ZM57.3752 67.9246C57.4502 67.9246 57.5252 67.9246 57.6752 67.9246C58.2752 67.9246 58.5752 67.6246 58.5752 67.0246C58.5752 66.4996 58.2752 66.1996 57.6752 66.1996C57.5252 66.1996 57.4502 66.1996 57.3752 66.1996V67.9246Z" fill="#39ABE2"/>
<path d="M59.9252 66.0496V67.2496C59.9252 67.6996 60.1502 67.9246 60.4502 67.9246C60.7502 67.9246 60.9752 67.6996 60.9752 67.2496V65.9746H61.2752V67.2496C61.2752 67.9246 60.9002 68.1496 60.4502 68.1496C60.0002 68.1496 59.7002 67.9246 59.7002 67.2496V65.9746H59.9252V66.0496Z" fill="#39ABE2"/>
<path d="M63.6754 68.0746C63.6004 68.1496 63.3754 68.1496 63.0754 68.1496C62.4754 68.1496 62.0254 67.7746 62.0254 67.0996C62.0254 66.4246 62.4754 65.9746 63.1504 65.9746C63.4504 65.9746 63.6004 66.0496 63.6754 66.0496L63.6004 66.2746C63.5254 66.1996 63.3754 66.1996 63.1504 66.1996C62.6254 66.1996 62.3254 66.4996 62.3254 67.0996C62.3254 67.6246 62.6254 67.9246 63.1504 67.9246C63.3004 67.9246 63.5254 67.9246 63.6004 67.8496L63.6754 68.0746Z" fill="#39ABE2"/>
<path d="M64.9504 66.2748H64.2754V66.0498H65.8504V66.2748H65.2504V68.1498H64.9504V66.2748Z" fill="#39ABE2"/>
<path d="M66.8254 66.0498V68.1498H66.5254V66.0498H66.8254Z" fill="#39ABE2"/>
<path d="M69.6004 67.0992C69.6004 67.8492 69.1504 68.2242 68.6254 68.2242C68.0254 68.2242 67.6504 67.7742 67.6504 67.1742C67.6504 66.4992 68.1004 66.0492 68.6254 66.0492C69.2254 65.9742 69.6004 66.4242 69.6004 67.0992ZM67.9504 67.0992C67.9504 67.5492 68.1754 67.9992 68.6254 67.9992C69.0754 67.9992 69.3004 67.6242 69.3004 67.0992C69.3004 66.6492 69.0754 66.1992 68.6254 66.1992C68.1754 66.1992 67.9504 66.6492 67.9504 67.0992Z" fill="#39ABE2"/>
<path d="M70.4258 68.1496V66.0496H70.7258L71.4008 67.0996C71.5508 67.3246 71.7008 67.5496 71.7758 67.7746C71.7758 67.4746 71.7758 67.2496 71.7758 66.8746V65.9746H72.0008V68.0746H71.7008L71.0258 67.0246C70.8758 66.7996 70.7258 66.5746 70.6508 66.3496C70.6508 66.6496 70.6508 66.8746 70.6508 67.2496V68.1496H70.4258Z" fill="#39ABE2"/>
<path d="M72.9004 67.8496C73.0504 67.9246 73.2004 67.9996 73.4254 67.9996C73.7254 67.9996 73.8754 67.8496 73.8754 67.6246C73.8754 67.3996 73.7254 67.3246 73.5004 67.1746C73.1254 67.0246 72.9004 66.8746 72.9004 66.5746C72.9004 66.2746 73.2004 65.9746 73.5754 65.9746C73.8004 65.9746 73.9504 66.0496 74.0254 66.0496L73.9504 66.2746C73.8754 66.1996 73.7254 66.1996 73.5754 66.1996C73.2754 66.1996 73.2004 66.3496 73.2004 66.4996C73.2004 66.7246 73.3504 66.7996 73.6504 66.8746C74.0254 67.0246 74.1754 67.1746 74.1754 67.4746C74.1754 67.7746 73.9504 68.0746 73.4254 68.0746C73.2004 68.0746 72.9754 67.9996 72.9004 67.9246V67.8496Z" fill="#39ABE2"/>
<path d="M35.7747 38.9746C34.9497 39.1246 33.8997 39.7246 33.2997 40.1746C32.3997 40.8496 31.7247 41.7496 31.1997 42.7246C30.2247 44.4496 29.8497 46.2496 29.9997 47.5246V47.6746L30.0747 47.5996C30.2997 47.2246 30.6747 46.9246 31.1247 46.7746C31.5747 46.6246 32.0247 46.5496 32.6247 46.4746C33.6747 46.3246 34.8747 46.2496 35.9247 45.6496C37.2747 44.8246 37.7997 43.6246 37.4247 42.5746C37.1997 41.9746 36.7497 41.5246 36.2997 41.3746C35.8497 41.2246 35.3247 41.2246 34.9497 41.5996C34.1247 42.3496 34.4997 43.3996 35.1747 43.8496C34.8747 43.3996 34.8747 43.0996 34.8747 42.8746C34.9497 42.6496 35.0997 42.4996 35.2497 42.4246C35.6247 42.2746 36.1497 42.3496 36.4497 42.9496C36.6747 43.4746 36.6747 44.1496 35.9247 44.8246C35.2497 45.2746 34.1997 45.6496 33.3747 45.4996C32.9247 45.4246 32.6247 45.2746 32.3247 44.9746C32.0997 44.6746 31.9497 44.2246 31.9497 43.6246C31.9497 42.6496 32.3997 41.5246 33.4497 40.4746C34.1247 39.7996 34.9497 39.3496 35.7747 38.9746Z" fill="url(#paint0_linear_798_142)"/>
<path d="M37.95 45.125C35.475 49.1 33.6 54.275 33.825 58.4C34.5 53.9 38.025 50.9 41.625 49.775C40.2 49.925 38.925 49.25 38.25 48.275C37.95 47.825 37.725 47.3 37.725 46.7C37.725 46.4 37.725 46.1 37.8 45.875C37.8 45.65 37.875 45.35 37.95 45.125Z" fill="url(#paint1_linear_798_142)"/>
<path d="M39.4497 53.2993C40.9497 52.1743 42.8247 51.5743 44.5497 50.2993C46.1997 49.0243 46.7997 47.1493 46.4247 45.1243C46.3497 44.5243 46.2747 43.8493 46.4247 43.2493C46.5747 42.6493 46.8747 42.0493 47.3997 41.5993C48.6747 40.6243 50.9247 40.3243 53.0247 41.3743C52.8747 41.2993 52.7247 41.2243 52.5747 41.1493C50.3247 39.9493 47.2497 39.8743 45.5247 41.5993C45.0747 40.3993 44.0247 39.7993 42.8997 39.7243C41.7747 39.6493 40.4997 40.0243 39.8247 40.7743C39.2997 41.3743 39.2247 42.0493 39.5247 42.4243C39.8247 40.9993 41.4747 39.8743 43.4247 40.6243C44.0997 40.9243 44.4747 41.3743 44.3997 41.8243C44.3247 42.7243 43.2747 42.8743 42.5997 43.0993C42.6747 43.0993 42.8247 43.1743 42.8997 43.1743C43.2747 43.3243 43.5747 43.5493 43.8747 43.7743C44.2497 44.1493 44.5497 44.5243 44.7747 44.9743V45.0493C45.2997 46.1743 45.0747 47.5243 44.3247 48.4993C43.0497 50.0743 41.0247 50.7493 39.2997 51.7243C39.0747 51.8743 38.8497 52.0243 38.6247 52.1743C34.7997 54.6493 33.0747 59.8993 33.7497 65.4493C33.8997 58.8493 36.2247 55.6243 39.4497 53.2993Z" fill="url(#paint2_linear_798_142)"/>
<path d="M29.0996 49.9258C29.0996 49.9258 30.7496 50.2258 31.5746 49.1758C31.5746 49.1758 32.4746 46.8508 33.3746 46.5508C33.4496 46.6258 29.7746 46.7008 29.0996 49.9258Z" fill="url(#paint3_linear_798_142)"/>
<path d="M33.225 37.7C33.975 36.65 36.3 37.4 36.3 37.4C34.275 32.3 32.25 32 32.25 32C33.9 34.625 33.225 37.7 33.225 37.7Z" fill="url(#paint4_linear_798_142)"/>
<path d="M53.4746 48.1994C51.6746 47.4494 49.1996 46.6994 47.2496 47.0744V47.1494C47.0996 48.3494 46.2746 49.5494 45.5996 50.3744C48.0746 48.1994 51.2246 47.8244 53.4746 48.1994Z" fill="url(#paint5_linear_798_142)"/>
<path d="M35.4746 40.3249C36.3746 39.9499 37.6496 40.7749 37.6496 40.7749C37.4996 40.3249 37.8746 39.1249 37.8746 39.1249C38.7746 37.5499 40.9496 36.4999 42.3746 35.8999C39.7496 35.4499 37.5746 35.8999 36.5996 36.0499C37.5746 39.1249 35.4746 40.3249 35.4746 40.3249Z" fill="url(#paint6_linear_798_142)"/>
<path d="M32.0996 38.3758C32.0996 38.3758 33.8996 36.2008 31.9496 32.3008C31.9496 32.3008 32.4746 36.0508 31.9496 36.4258C31.9496 36.4258 30.3746 36.9508 30.2246 38.2258C30.2246 38.1508 32.0996 35.9758 32.0996 38.3758Z" fill="url(#paint7_linear_798_142)"/>
<path d="M36.5248 38C36.5248 38 34.8748 37.325 32.4748 38.75C32.0998 38.975 31.3498 39.125 30.8998 38.9C30.6748 38.75 30.6748 38.45 30.8248 38.225C31.0498 37.85 31.4248 37.775 31.7998 38C31.7998 38 30.5998 37.1 30.2998 39.275C30.2998 39.275 30.3748 40.25 31.4998 39.875C31.4998 39.875 29.3998 42.275 28.8748 44.3C28.8748 44.3 28.4248 45.425 27.8248 45.65C27.8248 45.65 26.0998 47.975 27.6748 49.55L28.7998 49.925C28.7998 49.925 28.7998 39.275 36.5248 38Z" fill="url(#paint8_linear_798_142)"/>
<path d="M40.2758 47.9747C39.9008 47.9747 39.6008 47.8997 39.3758 47.7497C38.5508 47.2997 38.1758 46.3997 38.1758 46.3997C38.2508 47.0747 38.6258 47.6747 39.0758 48.1997C40.2008 49.4747 42.3758 49.6247 43.6508 48.4997C44.4008 47.8247 44.7758 46.7747 44.5508 45.7997C44.2508 44.1497 42.7508 43.3247 41.5508 43.6997C41.3258 43.7747 41.0258 43.9247 40.8758 44.0747C40.6508 44.2247 40.5008 44.3747 40.3508 44.5997C40.2758 44.6747 40.2758 44.7497 40.2008 44.8997C40.1258 44.9747 40.1258 45.1997 40.0508 45.2747V45.3497V45.4247C40.0508 45.5747 40.0508 45.6497 40.0508 45.7997C40.0508 46.0247 40.1258 46.1747 40.2008 46.3247C40.6508 47.3747 41.5508 47.3747 41.5508 47.3747C41.5508 47.3747 41.2508 47.9747 40.2758 47.9747ZM41.2508 46.4747C40.7258 46.1747 40.2758 45.0497 41.4758 44.3747C42.7508 43.6997 43.8008 44.5997 43.9508 45.6497C44.1758 46.7747 43.5008 47.3747 43.5008 47.3747C43.5008 47.3747 43.8008 46.5497 43.2008 45.7247C42.7508 45.1247 42.2258 45.3497 42.2258 45.3497C42.6758 46.1747 41.8508 46.8497 41.2508 46.4747Z" fill="url(#paint9_linear_798_142)"/>
<path d="M41.4742 38.7506L41.3242 38.8256L41.4742 38.9006C42.2242 39.1256 43.1992 39.2006 44.0242 39.5006C44.8492 39.7256 45.5242 40.1006 45.7492 40.7006V40.7756H45.8242C47.0242 39.9506 49.0492 39.7256 51.1492 40.1756C53.2492 40.6256 55.4242 41.8256 57.1492 44.3006C56.3992 42.2756 54.8992 40.8506 53.3992 39.9506C53.3242 39.8756 53.2492 39.8756 53.1742 39.8006C52.7242 39.5006 52.1992 39.2756 51.7492 39.1256C48.4492 37.6256 44.3992 37.7006 41.4742 38.7506Z" fill="url(#paint10_linear_798_142)"/>
<path d="M37.2758 35.0742C38.2508 35.2992 38.8508 34.9992 39.8258 34.9992C41.2508 34.9992 42.7508 35.1492 44.1008 35.5242L45.6008 35.8992L44.0258 36.2742C43.9508 36.2742 38.7758 37.6242 38.2508 40.2492C37.5008 42.7242 39.3758 43.3242 39.3758 43.3242C38.8508 42.9492 38.8508 41.7492 38.8508 41.7492C38.8508 41.7492 38.8508 39.0492 41.2508 38.2242C41.2508 38.2242 46.0508 36.3492 48.6758 37.0242C47.8508 36.2742 46.8008 35.6742 45.7508 35.2992C44.7008 34.8492 43.5758 34.5492 42.4508 34.3992C40.2008 34.0992 38.2508 34.8492 36.0758 33.8742C35.8508 33.7242 35.3258 33.4992 35.1758 33.1992C35.5508 34.1742 36.3008 34.8492 37.2758 35.0742Z" fill="url(#paint11_linear_798_142)"/>
<path d="M51.1496 43.5499C51.8246 42.8749 53.7746 42.4999 56.6246 44.3749C55.8746 43.7749 55.1246 43.1749 54.2996 42.7249C52.9496 41.9749 51.4496 41.5249 50.0246 41.5999C49.2746 41.5999 48.5996 41.8249 48.1496 42.1249C47.1746 42.6499 47.0246 43.5499 47.1746 44.4499C47.2496 45.0499 47.3246 45.7249 47.3246 46.5499V46.6249H47.3996C50.1746 46.5499 53.5496 47.3749 56.6996 49.6249C52.6496 47.5249 47.2496 48.9499 45.2246 51.8749C48.9746 49.6249 53.7746 49.8499 57.8246 51.2749C58.5746 51.5749 59.0246 51.7249 59.0246 51.7249C58.6496 44.0749 51.1496 43.5499 51.1496 43.5499Z" fill="url(#paint12_linear_798_142)"/>
<path d="M49.7242 52.0996C48.8242 53.2996 47.7742 54.4246 46.7242 55.2496C45.0742 56.5246 43.6492 56.8996 42.3742 57.1996C41.3992 57.3496 40.5742 57.4996 39.7492 57.7996C38.9242 58.0996 38.2492 58.6996 37.6492 59.8246L37.5742 59.8996H37.7242C39.4492 59.4496 40.5742 59.9746 41.0992 60.9496C41.6992 61.9246 41.6992 63.3496 41.3242 64.6246L41.2492 64.9246L41.3992 64.7746C42.4492 63.7246 42.5992 62.1496 42.2992 60.7996C42.2992 60.7996 48.2242 59.5996 49.7242 52.0996Z" fill="url(#paint13_linear_798_142)"/>
<path d="M39.9742 60.6504C39.2992 60.2004 38.3242 60.2004 36.9742 60.7254C37.5742 57.6504 39.1492 55.7754 40.8742 54.3504C42.5992 52.9254 44.5492 51.9504 45.4492 50.5254C44.0242 51.6504 42.0742 52.6254 40.6492 53.4504C39.2992 54.2754 38.0242 55.2504 37.0492 56.5254C36.1492 57.8004 35.3992 59.2254 34.9492 60.9504C34.4992 62.8254 34.1242 65.1504 34.4992 67.7004C34.6492 68.6754 34.7992 69.4254 35.0992 70.2504C35.0242 69.5004 34.9492 68.4504 34.9492 67.7004C34.9492 66.4254 35.2492 65.5254 35.6242 65.0004C36.2242 64.1004 37.0492 63.7254 37.7992 63.7254C38.5492 63.8004 39.1492 64.2504 39.2242 65.3004C39.2992 66.2754 38.9242 67.5504 37.6492 68.6754C38.6242 68.1504 39.2992 67.4004 39.8242 66.6504C40.5742 65.5254 40.9492 64.1754 40.8742 62.9754C40.9492 61.9254 40.6492 61.1004 39.9742 60.6504Z" fill="url(#paint14_linear_798_142)"/>
<path d="M38.6992 57.7992C39.5242 57.0492 40.8742 56.8242 41.8492 56.7492C42.8992 56.6742 44.0242 56.5242 45.5992 55.7742C46.2742 54.4242 47.4742 53.2992 48.9742 52.4742C50.1742 51.8742 51.0742 51.4992 52.3492 51.1992C49.7992 51.2742 46.5742 52.3242 44.6992 53.1492C42.2992 54.2742 39.8992 55.7742 38.6992 57.7992Z" fill="url(#paint15_linear_798_142)"/>
<path d="M49.7246 54.5755C53.0246 50.6755 58.9496 53.0755 58.9496 53.0755C51.2996 48.7255 49.7246 54.5755 49.7246 54.5755Z" fill="url(#paint16_linear_798_142)"/>
<path d="M38.475 75.6508C36.9 73.1758 36.45 69.8008 37.575 67.2508C37.725 66.8758 38.025 66.3508 38.175 65.8258C38.25 65.6008 38.25 65.3758 38.175 65.1508C38.1 65.0008 38.025 64.8508 37.8 64.7008C37.8 64.7008 37.725 64.7008 37.725 64.6258C37.5 64.5508 37.275 64.5508 37.05 64.5508C36.825 64.6258 36.6 64.7758 36.45 64.9258C36.075 65.3008 35.85 65.9008 35.7 66.5008C35.4 67.7008 35.4 69.5758 36 71.6008C36.375 72.9508 37.05 74.3758 38.175 75.6508C39 76.7008 39.75 77.3008 40.8 77.9758C39.75 77.3008 39 76.4758 38.475 75.6508Z" fill="url(#paint17_linear_798_142)"/>
</g>
<defs>
<linearGradient id="paint0_linear_798_142" x1="16.5046" y1="74.051" x2="46.5212" y2="22.0607" gradientUnits="userSpaceOnUse">
<stop offset="0.1163" stop-color="#931F81"/>
<stop offset="0.276" stop-color="#894E98"/>
<stop offset="0.4602" stop-color="#7874B4"/>
<stop offset="0.6312" stop-color="#648DC9"/>
<stop offset="0.7835" stop-color="#4F9DD6"/>
<stop offset="0.9117" stop-color="#3EA5DD"/>
<stop offset="1" stop-color="#36A8E0"/>
</linearGradient>
<linearGradient id="paint1_linear_798_142" x1="22.4485" y1="77.483" x2="52.4652" y2="25.4927" gradientUnits="userSpaceOnUse">
<stop offset="0.1163" stop-color="#931F81"/>
<stop offset="0.276" stop-color="#894E98"/>
<stop offset="0.4602" stop-color="#7874B4"/>
<stop offset="0.6312" stop-color="#648DC9"/>
<stop offset="0.7835" stop-color="#4F9DD6"/>
<stop offset="0.9117" stop-color="#3EA5DD"/>
<stop offset="1" stop-color="#36A8E0"/>
</linearGradient>
<linearGradient id="paint2_linear_798_142" x1="24.6794" y1="78.7704" x2="54.696" y2="26.7801" gradientUnits="userSpaceOnUse">
<stop offset="0.1163" stop-color="#931F81"/>
<stop offset="0.276" stop-color="#894E98"/>
<stop offset="0.4602" stop-color="#7874B4"/>
<stop offset="0.6312" stop-color="#648DC9"/>
<stop offset="0.7835" stop-color="#4F9DD6"/>
<stop offset="0.9117" stop-color="#3EA5DD"/>
<stop offset="1" stop-color="#36A8E0"/>
</linearGradient>
<linearGradient id="paint3_linear_798_142" x1="16.3252" y1="73.9487" x2="46.3418" y2="21.9583" gradientUnits="userSpaceOnUse">
<stop offset="0.1163" stop-color="#931F81"/>
<stop offset="0.276" stop-color="#894E98"/>
<stop offset="0.4602" stop-color="#7874B4"/>
<stop offset="0.6312" stop-color="#648DC9"/>
<stop offset="0.7835" stop-color="#4F9DD6"/>
<stop offset="0.9117" stop-color="#3EA5DD"/>
<stop offset="1" stop-color="#36A8E0"/>
</linearGradient>
<linearGradient id="paint4_linear_798_142" x1="12.7929" y1="71.9083" x2="42.8096" y2="19.9179" gradientUnits="userSpaceOnUse">
<stop offset="0.1163" stop-color="#931F81"/>
<stop offset="0.276" stop-color="#894E98"/>
<stop offset="0.4602" stop-color="#7874B4"/>
<stop offset="0.6312" stop-color="#648DC9"/>
<stop offset="0.7835" stop-color="#4F9DD6"/>
<stop offset="0.9117" stop-color="#3EA5DD"/>
<stop offset="1" stop-color="#36A8E0"/>
</linearGradient>
<linearGradient id="paint5_linear_798_142" x1="30.4705" y1="82.114" x2="60.487" y2="30.1237" gradientUnits="userSpaceOnUse">
<stop offset="0.1163" stop-color="#931F81"/>
<stop offset="0.276" stop-color="#894E98"/>
<stop offset="0.4602" stop-color="#7874B4"/>
<stop offset="0.6312" stop-color="#648DC9"/>
<stop offset="0.7835" stop-color="#4F9DD6"/>
<stop offset="0.9117" stop-color="#3EA5DD"/>
<stop offset="1" stop-color="#36A8E0"/>
</linearGradient>
<linearGradient id="paint6_linear_798_142" x1="17.3269" y1="74.5261" x2="47.3436" y2="22.5358" gradientUnits="userSpaceOnUse">
<stop offset="0.1163" stop-color="#931F81"/>
<stop offset="0.276" stop-color="#894E98"/>
<stop offset="0.4602" stop-color="#7874B4"/>
<stop offset="0.6312" stop-color="#648DC9"/>
<stop offset="0.7835" stop-color="#4F9DD6"/>
<stop offset="0.9117" stop-color="#3EA5DD"/>
<stop offset="1" stop-color="#36A8E0"/>
</linearGradient>
<linearGradient id="paint7_linear_798_142" x1="11.3719" y1="71.0889" x2="41.3885" y2="19.0985" gradientUnits="userSpaceOnUse">
<stop offset="0.1163" stop-color="#931F81"/>
<stop offset="0.276" stop-color="#894E98"/>
<stop offset="0.4602" stop-color="#7874B4"/>
<stop offset="0.6312" stop-color="#648DC9"/>
<stop offset="0.7835" stop-color="#4F9DD6"/>
<stop offset="0.9117" stop-color="#3EA5DD"/>
<stop offset="1" stop-color="#36A8E0"/>
</linearGradient>
<linearGradient id="paint8_linear_798_142" x1="13.7285" y1="72.4485" x2="43.7452" y2="20.4582" gradientUnits="userSpaceOnUse">
<stop offset="0.1163" stop-color="#931F81"/>
<stop offset="0.276" stop-color="#894E98"/>
<stop offset="0.4602" stop-color="#7874B4"/>
<stop offset="0.6312" stop-color="#648DC9"/>
<stop offset="0.7835" stop-color="#4F9DD6"/>
<stop offset="0.9117" stop-color="#3EA5DD"/>
<stop offset="1" stop-color="#36A8E0"/>
</linearGradient>
<linearGradient id="paint9_linear_798_142" x1="23.3233" y1="77.9873" x2="53.34" y2="25.997" gradientUnits="userSpaceOnUse">
<stop offset="0.1163" stop-color="#931F81"/>
<stop offset="0.276" stop-color="#894E98"/>
<stop offset="0.4602" stop-color="#7874B4"/>
<stop offset="0.6312" stop-color="#648DC9"/>
<stop offset="0.7835" stop-color="#4F9DD6"/>
<stop offset="0.9117" stop-color="#3EA5DD"/>
<stop offset="1" stop-color="#36A8E0"/>
</linearGradient>
<linearGradient id="paint10_linear_798_142" x1="26.9202" y1="80.0657" x2="56.9367" y2="28.0754" gradientUnits="userSpaceOnUse">
<stop offset="0.1163" stop-color="#931F81"/>
<stop offset="0.276" stop-color="#894E98"/>
<stop offset="0.4602" stop-color="#7874B4"/>
<stop offset="0.6312" stop-color="#648DC9"/>
<stop offset="0.7835" stop-color="#4F9DD6"/>
<stop offset="0.9117" stop-color="#3EA5DD"/>
<stop offset="1" stop-color="#36A8E0"/>
</linearGradient>
<linearGradient id="paint11_linear_798_142" x1="18.7784" y1="75.3628" x2="48.795" y2="23.3724" gradientUnits="userSpaceOnUse">
<stop offset="0.1163" stop-color="#931F81"/>
<stop offset="0.276" stop-color="#894E98"/>
<stop offset="0.4602" stop-color="#7874B4"/>
<stop offset="0.6312" stop-color="#648DC9"/>
<stop offset="0.7835" stop-color="#4F9DD6"/>
<stop offset="0.9117" stop-color="#3EA5DD"/>
<stop offset="1" stop-color="#36A8E0"/>
</linearGradient>
<linearGradient id="paint12_linear_798_142" x1="32.4048" y1="83.2314" x2="62.4214" y2="31.2411" gradientUnits="userSpaceOnUse">
<stop offset="0.1163" stop-color="#931F81"/>
<stop offset="0.276" stop-color="#894E98"/>
<stop offset="0.4602" stop-color="#7874B4"/>
<stop offset="0.6312" stop-color="#648DC9"/>
<stop offset="0.7835" stop-color="#4F9DD6"/>
<stop offset="0.9117" stop-color="#3EA5DD"/>
<stop offset="1" stop-color="#36A8E0"/>
</linearGradient>
<linearGradient id="paint13_linear_798_142" x1="29.3883" y1="81.4897" x2="59.405" y2="29.4994" gradientUnits="userSpaceOnUse">
<stop offset="0.1163" stop-color="#931F81"/>
<stop offset="0.276" stop-color="#894E98"/>
<stop offset="0.4602" stop-color="#7874B4"/>
<stop offset="0.6312" stop-color="#648DC9"/>
<stop offset="0.7835" stop-color="#4F9DD6"/>
<stop offset="0.9117" stop-color="#3EA5DD"/>
<stop offset="1" stop-color="#36A8E0"/>
</linearGradient>
<linearGradient id="paint14_linear_798_142" x1="27.5434" y1="80.4253" x2="57.5601" y2="28.435" gradientUnits="userSpaceOnUse">
<stop offset="0.1163" stop-color="#931F81"/>
<stop offset="0.276" stop-color="#894E98"/>
<stop offset="0.4602" stop-color="#7874B4"/>
<stop offset="0.6312" stop-color="#648DC9"/>
<stop offset="0.7835" stop-color="#4F9DD6"/>
<stop offset="0.9117" stop-color="#3EA5DD"/>
<stop offset="1" stop-color="#36A8E0"/>
</linearGradient>
<linearGradient id="paint15_linear_798_142" x1="29.8101" y1="81.7328" x2="59.8267" y2="29.7425" gradientUnits="userSpaceOnUse">
<stop offset="0.1163" stop-color="#931F81"/>
<stop offset="0.276" stop-color="#894E98"/>
<stop offset="0.4602" stop-color="#7874B4"/>
<stop offset="0.6312" stop-color="#648DC9"/>
<stop offset="0.7835" stop-color="#4F9DD6"/>
<stop offset="0.9117" stop-color="#3EA5DD"/>
<stop offset="1" stop-color="#36A8E0"/>
</linearGradient>
<linearGradient id="paint16_linear_798_142" x1="36.0697" y1="85.3478" x2="66.0863" y2="33.3575" gradientUnits="userSpaceOnUse">
<stop offset="0.1163" stop-color="#931F81"/>
<stop offset="0.276" stop-color="#894E98"/>
<stop offset="0.4602" stop-color="#7874B4"/>
<stop offset="0.6312" stop-color="#648DC9"/>
<stop offset="0.7835" stop-color="#4F9DD6"/>
<stop offset="0.9117" stop-color="#3EA5DD"/>
<stop offset="1" stop-color="#36A8E0"/>
</linearGradient>
<linearGradient id="paint17_linear_798_142" x1="31.9683" y1="82.98" x2="61.9849" y2="30.9896" gradientUnits="userSpaceOnUse">
<stop offset="0.1163" stop-color="#931F81"/>
<stop offset="0.276" stop-color="#894E98"/>
<stop offset="0.4602" stop-color="#7874B4"/>
<stop offset="0.6312" stop-color="#648DC9"/>
<stop offset="0.7835" stop-color="#4F9DD6"/>
<stop offset="0.9117" stop-color="#3EA5DD"/>
<stop offset="1" stop-color="#36A8E0"/>
</linearGradient>
<clipPath id="clip0_798_142">
<rect width="89" height="75" fill="white" transform="translate(13 26)"/>
</clipPath>
</defs>
</svg>
