<svg width="19" height="14" viewBox="0 0 19 14" fill="none" xmlns="http://www.w3.org/2000/svg">
<path fill-rule="evenodd" clip-rule="evenodd" d="M9.49984 10.1248C7.77395 10.1248 6.37484 8.72573 6.37484 6.99984C6.37484 5.27395 7.77395 3.87484 9.49984 3.87484C11.2257 3.87484 12.6248 5.27395 12.6248 6.99984C12.6248 8.72573 11.2257 10.1248 9.49984 10.1248ZM7.62484 6.99984C7.62484 8.03537 8.4643 8.87484 9.49984 8.87484C10.5354 8.87484 11.3748 8.03537 11.3748 6.99984C11.3748 5.9643 10.5354 5.12484 9.49984 5.12484C8.4643 5.12484 7.62484 5.9643 7.62484 6.99984Z" fill="#007960"/>
<path fill-rule="evenodd" clip-rule="evenodd" d="M9.49984 0.541504C7.3577 0.541504 5.52146 1.48434 4.10009 2.59399C2.67745 3.70464 1.62589 5.01629 1.03768 5.8411L0.99333 5.90295C0.782367 6.19635 0.541504 6.53133 0.541504 6.99984C0.541504 7.46834 0.782367 7.80333 0.993331 8.09673L1.03768 8.15857C1.62589 8.98339 2.67745 10.295 4.10009 11.4057C5.52146 12.5153 7.3577 13.4582 9.49984 13.4582C11.642 13.4582 13.4782 12.5153 14.8996 11.4057C16.3222 10.295 17.3738 8.98339 17.962 8.15857L18.0063 8.09672C18.2173 7.80332 18.4582 7.46834 18.4582 6.99984C18.4582 6.53133 18.2173 6.19635 18.0063 5.90295L17.962 5.8411C17.3738 5.01629 16.3222 3.70463 14.8996 2.59399C13.4782 1.48434 11.642 0.541504 9.49984 0.541504ZM2.0554 6.56688C2.60556 5.79541 3.57682 4.58832 4.8693 3.57929C6.16307 2.56927 7.73429 1.7915 9.49984 1.7915C11.2654 1.7915 12.8366 2.56926 14.1304 3.57929C15.4229 4.58832 16.3941 5.79541 16.9443 6.56688C17.0804 6.75773 17.1452 6.85092 17.1838 6.92511C17.2083 6.97226 17.2082 6.98519 17.2082 6.99784L17.2082 6.99984L17.2082 7.00183C17.2082 7.01449 17.2083 7.02741 17.1838 7.07457C17.1452 7.14875 17.0804 7.24195 16.9443 7.43279C16.3941 8.20427 15.4229 9.41136 14.1304 10.4204C12.8366 11.4304 11.2654 12.2082 9.49984 12.2082C7.73429 12.2082 6.16307 11.4304 4.8693 10.4204C3.57682 9.41136 2.60557 8.20427 2.0554 7.4328C1.91929 7.24195 1.85452 7.14875 1.81591 7.07457C1.79136 7.02741 1.79143 7.01449 1.7915 7.00183L1.7915 6.99984L1.7915 6.99784C1.79143 6.98519 1.79136 6.97226 1.81591 6.92511C1.85452 6.85092 1.91929 6.75773 2.0554 6.56688Z" fill="#007960"/>
</svg>
