<svg width="20" height="23" viewBox="0 0 20 23" fill="none" xmlns="http://www.w3.org/2000/svg">
<path d="M14 13.2498C14.4142 13.2498 14.75 12.914 14.75 12.4998C14.75 12.0855 14.4142 11.7498 14 11.7498H11C10.5858 11.7498 10.25 12.0855 10.25 12.4998C10.25 12.914 10.5858 13.2498 11 13.2498H14Z" fill="#0D121C"/>
<path d="M14 17.2498C14.4142 17.2498 14.75 16.914 14.75 16.4998C14.75 16.0855 14.4142 15.7498 14 15.7498L7 15.7498C6.58579 15.7498 6.25 16.0855 6.25 16.4998C6.25 16.914 6.58579 17.2498 7 17.2498H14Z" fill="#0D121C"/>
<path fill-rule="evenodd" clip-rule="evenodd" d="M10.0537 22.2498H9.18392C7.59005 22.2498 6.33489 22.2498 5.33912 22.146C4.32238 22.0401 3.48632 21.819 2.7711 21.3151C2.3893 21.0461 2.04882 20.726 1.76073 20.3638C1.21584 19.6787 0.97549 18.8732 0.861102 17.901C0.749978 16.9566 0.749987 15.7691 0.75 14.2752V11.6543C0.75 10.1959 0.75 9.06414 0.810244 8.15078C0.871308 7.22497 0.996545 6.47154 1.27169 5.77724C2.1098 3.66235 3.87464 2.01115 6.08994 1.23349C7.46881 0.74945 9.16075 0.749574 12.1261 0.749794L12.4888 0.749778C14.124 0.749439 15.143 0.749227 15.9836 1.04434C17.3327 1.51792 18.4143 2.52603 18.9293 3.82563C19.1039 4.26637 19.1789 4.73427 19.2149 5.2792C19.25 5.81177 19.25 6.46729 19.25 7.29163V13.5593C19.25 15.3944 19.25 16.8527 19.0869 17.9949C18.9181 19.176 18.562 20.1283 17.7692 20.8744C16.9829 21.6145 15.9901 21.9415 14.7576 22.0974C13.5532 22.2498 12.0117 22.2498 10.0537 22.2498ZM14.5693 20.6093C15.6514 20.4724 16.2827 20.2136 16.7412 19.7821C17.1932 19.3566 17.4594 18.7803 17.6019 17.7828C17.7482 16.7589 17.75 15.4079 17.75 13.4998V7.31798C17.75 6.46147 17.7496 5.85536 17.7181 5.37793C17.6871 4.90719 17.6281 4.61369 17.5348 4.37826C17.1882 3.50377 16.4477 2.79698 15.4868 2.45967C14.9195 2.26051 14.1807 2.2498 12.3182 2.2498C11.9977 2.2498 11.695 2.24991 11.4089 2.25049C10.0247 2.29889 8.91744 3.43625 8.91744 4.83221C8.91744 4.97934 8.92392 5.13752 8.93216 5.31512L8.93524 5.38094C8.94251 5.53584 8.95044 5.70447 8.95393 5.87258C8.96182 6.25267 8.94982 6.69621 8.8351 7.12436C8.61163 7.95833 7.96023 8.60974 7.12626 8.8332C6.69811 8.94792 6.25457 8.95993 5.87448 8.95203C5.70636 8.94854 5.5378 8.94062 5.3829 8.93334L5.31702 8.93026C5.13942 8.92202 4.98124 8.91555 4.83411 8.91555C3.40737 8.91555 2.25078 10.0721 2.25078 11.4989C2.25078 11.5104 2.25052 11.5218 2.25 11.5332C2.25 11.5822 2.25 11.6317 2.25 11.6816V14.2271C2.25 15.7799 2.25121 16.8791 2.35083 17.7257C2.44836 18.5547 2.63186 19.0493 2.93467 19.43C3.13234 19.6786 3.36794 19.9007 3.63504 20.0889C4.05221 20.3828 4.59765 20.5606 5.49462 20.6541C6.40354 20.7488 7.58055 20.7498 9.22727 20.7498H10C12.0235 20.7498 13.47 20.7484 14.5693 20.6093ZM2.30415 8.29353C2.99977 7.74373 3.87861 7.41555 4.83411 7.41555C5.01987 7.41555 5.20948 7.42366 5.38653 7.43187L5.4544 7.43504C5.61108 7.44239 5.75857 7.4493 5.90562 7.45236C6.24626 7.45943 6.51885 7.44304 6.73803 7.38431C7.05436 7.29955 7.30145 7.05247 7.38621 6.73613C7.44494 6.51695 7.46133 6.24437 7.45425 5.90372C7.4512 5.7567 7.44429 5.60923 7.43694 5.45257L7.43377 5.38464C7.42555 5.20758 7.41744 5.01798 7.41744 4.83221C7.41744 3.88964 7.73682 3.02165 8.27325 2.33057C7.58007 2.38741 7.05581 2.48417 6.58678 2.64882C4.75964 3.29022 3.33582 4.6401 2.66618 6.32986C2.47239 6.81887 2.36316 7.39789 2.30699 8.2495C2.30603 8.26411 2.30508 8.27879 2.30415 8.29353Z" fill="#0D121C"/>
</svg>
