<svg version="1.2" xmlns="http://www.w3.org/2000/svg" viewBox="0 0 304 275" width="553" height="500">
	<style>
		.s0 { fill: #ffffff } 
		.s1 { fill: #1c4245 } 
	</style>
	<g id="Layer 1">
		<path id="&lt;Path&gt;" class="s0" d="m1450.48 217.45c0-136.67-110.8-247.47-247.48-247.47-136.68 0-247.48 110.8-247.48 247.47 0 136.68 110.8 247.48 247.48 247.48 136.68 0 247.48-110.8 247.48-247.48z"/>
		<g id="&lt;Group&gt;">
			<path id="&lt;Compound Path&gt;" fill-rule="evenodd" class="s1" d="m298.01 142.7c2.02 3.62 2.5 7.81 1.36 11.8-1.14 3.99-3.77 7.29-7.4 9.3l-37.03 20.55-11.26 33.6c-3.45 10.3-9.94 19.1-18.76 25.45l-32.17 23.83c-3.62 2.69-7.87 4-12.1 4-5.43 0-10.82-2.17-14.8-6.37-3.58-3.79-5.55-8.75-5.55-13.97 0-5.28 2.02-10.28 5.68-14.09l18.39-19.15q0.5-0.53 0.95-1.1c-3.57 0.43-7.24-0.17-10.49-1.66-1.17 5.87-4.99 10.94-10.34 13.64-5.35 2.74-11.69 2.85-17.11 0.35-1.15 5.68-4.78 10.8-10.33 13.63-5.42 2.76-11.68 2.82-17.1 0.34-1.16 5.87-4.99 10.94-10.34 13.64-6.72 3.52-15.27 2.61-21.14-2.12-3.9 7.61-11.33 13.4-19.95 13.18-13.41 0.28-24.55-13.45-21.1-26.5-4.14-2.45-7.37-6.23-9.11-10.83-2.24-5.95-1.73-12.53 1.41-18.06l11.19-19.69-10.83-37.87c-2.12-7.41-2.62-15.35-1.46-22.96l2.92-19.05-29.06-44.83c-2.41-3.73-3.22-8.18-2.26-12.52 0.97-4.34 3.57-8.04 7.34-10.4l9.02-5.65c1.99-1.25 4.62-0.65 5.86 1.34 1.25 1.99 0.65 4.62-1.34 5.86l-9.03 5.66c-1.82 1.14-3.08 2.93-3.55 5.03-0.46 2.1-0.07 4.25 1.1 6.06l29.93 46.18c0.57 0.87 0.8 1.93 0.64 2.96l-3.17 20.64c-0.98 6.42-0.56 13.1 1.23 19.34l8.54 29.85 15.76-27.75c5.47-9.79 14.4-17.06 25.13-20.44q0.04-0.01 0.08-0.02 0.03-0.01 0.07-0.02l40.56-11.08-0.17-0.22-23.46-0.72c-10.99-0.34-21.09-5.56-27.73-14.32l-15.76-20.82c-1.42-1.87-1.05-4.54 0.82-5.95 1.88-1.42 4.54-1.05 5.96 0.82l15.76 20.82c5.07 6.7 12.8 10.69 21.21 10.95l25.52 0.78c1.3 0.04 2.51 0.68 3.29 1.72l23.71 32.04c5.84 8.39 19.56 0.92 15.77-8.52l-13.91-37.6c-1.74-4.72-5.05-8.77-9.32-11.42l-36.17-22.39q-0.82-0.52-1.34-1.34l-31.03-48.77c-2.34-3.68-7.26-4.79-10.96-2.47l-32.6 20.42c-1.99 1.25-4.61 0.65-5.86-1.34-1.24-1.99-0.64-4.61 1.35-5.86l32.6-20.43c7.65-4.79 17.81-2.49 22.65 5.12l30.5 47.95 35.33 21.89c5.88 3.63 10.43 9.21 12.83 15.69l13.9 37.6c2.97 7.59-0.26 16.87-7.22 21.01q1.79 1.93 3.05 4.38l13.4 26.3c3.74 7.34 2.41 15.95-2.69 21.81-1.21 5.05-3.7 9.7-7.23 13.52q-0.03 0.03-0.06 0.06l-18.43 19.18c-2.13 2.22-3.3 5.13-3.3 8.2 0 3.04 1.15 5.92 3.23 8.13 4.12 4.35 10.84 4.95 15.65 1.38l32.2-23.85q0.03-0.01 0.05-0.03c7.38-5.3 12.81-12.66 15.69-21.27l11.79-35.17c0.34-1.01 1.04-1.85 1.97-2.36l38.47-21.36c1.64-0.91 2.83-2.4 3.35-4.2 0.51-1.8 0.29-3.69-0.62-5.33l-30.94-55.64c-0.97-1.74-2.57-2.96-4.5-3.42-1.94-0.46-3.91-0.1-5.56 1.02l-30.15 20.44q-0.58 0.39-1.26 0.58l-18.6 5.08c-2.27 0.62-4.6-0.71-5.22-2.98-0.62-2.26 0.71-4.6 2.98-5.22l17.92-4.9 29.56-20.04c3.59-2.43 8.07-3.25 12.29-2.25 4.23 1.01 7.86 3.76 9.97 7.56l30.94 55.64zm-233.72 115.59c9.18 3.3 14.67-3.76 18.59-10.97l-6.46-12.7c-2.38-4.67-2.8-10-1.18-14.99 2.64-8.84 12.31-14.81 21.27-13.39l-2.79-5.48c-4.99-9.31-0.92-21.83 8.59-26.43 5.17-2.65 11.28-2.85 16.62-0.56 1.03-5.89 4.71-11.25 10.43-14.17 7.16-3.78 16.47-2.43 22.31 3.11 1.85-4.15 5.06-7.52 9.19-9.56-0.15-0.16-16.9-22.84-17.05-23.02l-43.62 11.92c-8.63 2.73-15.82 8.58-20.23 16.49l-32.85 57.82c-1.89 3.32-2.2 7.28-0.85 10.86 0.89 2.34 2.42 4.33 4.38 5.78 6.98-15.17 22.77-49.55 29.71-64.66l0.35-0.77c0.98-2.13 3.5-3.07 5.64-2.09 2.13 0.98 3.06 3.5 2.08 5.64l-0.35 0.77c-7.53 16.41-25.5 55.55-31.3 68.13-3.66 6.84 0.07 15.97 7.52 18.27zm47-15.86c2.76-6.11-5.39-16.58-7.5-21.91-4.27-8.69-17.79-7.42-20.47 1.74-0.92 2.83-0.68 5.85 0.67 8.5l6.77 13.28c2.6 5.4 9.71 7.7 14.99 4.87 2.65-1.35 4.62-3.65 5.54-6.48zm21.9-7.5c5.47-2.79 7.66-9.51 4.87-14.99l-16.9-33.16c-2.61-5.4-9.7-7.71-14.99-4.88-5.4 2.61-7.71 9.72-4.87 15l16.89 33.16c2.79 5.48 9.52 7.66 15 4.87zm32.98-20.46c0.92-2.84 0.68-5.86-0.67-8.51l-17.28-33.91c-2.62-5.4-9.7-7.71-15-4.88-5.78 2.92-7.77 10.21-4.48 15.75l16.89 33.16c2.61 5.4 9.71 7.7 15 4.87 2.65-1.35 4.62-3.65 5.54-6.48zm6.9-12.37c2.79 5.48 9.52 7.66 14.99 4.87 5.48-2.79 7.67-9.51 4.88-14.99l-13.41-26.3c-1.56-3.07-4.36-5.1-7.48-5.81-2.54-0.56-5.12-0.28-7.51 0.93-2.65 1.36-4.62 3.66-5.54 6.49-0.92 2.83-0.68 5.85 0.67 8.51l7.71 15.13c0 0 5.69 11.17 5.69 11.17z"/>
		</g>
	</g>
</svg>