<svg version="1.2" xmlns="http://www.w3.org/2000/svg" viewBox="0 0 280 267" width="280" height="267">
	<style>
		.s0 { fill: #1c4245 } 
	</style>
	<g id="Layer 1">
		<g id="layer1">
			<path id="path12981" fill-rule="evenodd" class="s0" d="m3 10.58c0-2.33 1.76-4.28 4.3-4.51h36.49c2.49 0.01 4.51 2.02 4.52 4.51v7.89l46.11-10.9c15.17-3.58 35.85-2.96 51.74 8.4l30.56 21.82h66.56c7.45 0 13.58 6.13 13.58 13.58v81.62c0 7.46-6.13 13.59-13.58 13.59h-145.07c-7.46 0-13.63-6.13-13.63-13.59v-27.2c0.13-5.91 8.94-5.91 9.07 0v27.2c0 2.59 1.97 4.52 4.56 4.52h145.07c2.59 0 4.51-1.93 4.51-4.52v-81.62c0-2.58-1.92-4.51-4.51-4.51h-145.07c-2.59 0-4.56 1.93-4.56 4.51v4.56h27.21c9.97 0 18.14 8.17 18.14 18.14 0 9.97-8.17 18.1-18.14 18.1h-40.79c-13.34 0-24.74-5.29-31.76-9.52v9.52c0.01 2.5-2.02 4.54-4.52 4.55h-36.27c-2.51-0.01-4.53-2.05-4.52-4.55v-81.59zm137.9 12.76c-11.9-8.52-29.57-10.44-44.3-6.96l-48.29 11.38v44c3.66 2.72 16.39 11.38 31.76 11.38h40.79c5.1 0 9.07-3.97 9.07-9.07 0-5.1-3.97-9.08-9.07-9.08h-31.73c-2.51 0-4.55-2.04-4.55-4.55v-9.06c0-7.46 6.17-13.59 13.63-13.59h62.92l-20.23-14.46zm-128.83 64.32h27.21v-72.51h-27.21zm135.53-31.73q0.23-0.01 0.47 0h72.51c2.51-0.01 4.55 2.01 4.55 4.52 0 5.06 4.02 9.06 9.08 9.06 2.51 0.01 4.53 2.05 4.52 4.56v36.24c0.01 2.51-2.02 4.54-4.52 4.55-5.06 0-9.08 4.01-9.08 9.07-0.01 2.5-2.04 4.52-4.55 4.52h-99.72c-2.51 0.01-4.54-2.02-4.55-4.52 0-5.06-3.97-9.07-9.03-9.07-2.52 0.01-4.56-2.03-4.56-4.55v-4.51c-0.12-5.76 9.23-6.64 9.07 0.55 8.46 2.44 11.98 8.56 12.99 13.03h91.85c1.75-5.89 6.15-11.35 13.02-12.99v-28.3c-7.57-2.27-11.32-7.2-13.06-13.09h-68.52c-5.92 0.17-6.38-8.63-0.47-9.07zm41.26 36.24c0 9.96-8.17 18.14-18.13 18.14-9.97 0-18.15-8.18-18.15-18.14 0-9.96 8.18-18.1 18.15-18.1 9.96 0 18.13 8.14 18.13 18.1zm-27.21 0c0 5.06 4.01 9.07 9.08 9.07 5.06 0 9.06-4.01 9.06-9.07 0-5.06-4-9.03-9.06-9.03-5.07 0-9.08 3.97-9.08 9.03zm17.36 166.24c-10.1 2.52-33.11 4.89-51.72-8.39l-65.67-42.05c-8.18-5.23-11.51-16.07-6.45-24.66 4.56-7.76 13.48-9.94 23.72-7.08l38.74 10.83c5.97 1.54 3.46 10.51-2.44 8.73l-38.75-10.83c-3.71-1.04-10.29-2.25-13.43 2.88-2.63 4.3-0.5 9.93 3.5 12.49l65.96 42.25c15.25 10.88 36.31 9.03 44.35 7.03q0.06-0.03 0.13-0.04l52.7-11.43v-43.95c-3.68-2.73-16.37-11.33-31.72-11.33h-49.86c-5.1 0-9.07 3.97-9.07 9.07 0 5.1 3.97 9.07 9.07 9.07h40.79c6.05 0 6.05 9.07 0 9.07h-40.79c-9.97 0-18.14-8.17-18.14-18.14 0-9.97 8.17-18.13 18.14-18.13h49.86c13.32 0 24.69 5.27 31.72 9.49v-9.49c-0.02-2.53 2.03-4.58 4.56-4.56h36.24c2.52-0.01 4.56 2.04 4.55 4.56v81.58c0.01 2.52-2.03 4.56-4.55 4.55h-36.24c-2.52 0.02-4.57-2.03-4.56-4.55v-7.97zm59.71-7.54h27.21v-72.55h-27.21c0 24.27 0.13 48.43 0 72.55z"/>
		</g>
	</g>
</svg>