<svg version="1.2" xmlns="http://www.w3.org/2000/svg" viewBox="0 0 511 512" width="511" height="512">
	<title>facebook</title>
	<style>
		.s0 { fill: #000000 } 
	</style>
	<path class="s0" d="m290 511h-82c-13.7 0-24.8-11.1-24.8-24.8v-185h-47.9c-13.7 0-24.8-11.1-24.8-24.8v-79.3c0-13.7 11.1-24.8 24.8-24.8h47.9v-39.7c0-39.3 12.3-72.8 35.7-96.8 23.5-24.1 56.3-36.8 94.9-36.8l62.5 0.1c13.7 0 24.8 11.2 24.8 24.8v73.6c0 13.7-11.1 24.9-24.8 24.9h-42.1c-12.9 0-16.1 2.5-16.8 3.3-1.2 1.3-2.6 5-2.6 15.3v31.3h58.3c4.4 0 8.6 1.1 12.3 3.1 7.9 4.4 12.8 12.8 12.8 21.7l-0.1 79.3c0 13.7-11.1 24.8-24.8 24.8h-58.5v185c0 13.7-11.1 24.8-24.8 24.8zm-76.8-30h71.6v-193.2c0-9.2 7.5-16.6 16.6-16.6h66.7l0.1-68.9h-66.8c-9.1 0-16.6-7.4-16.6-16.6v-44.7c0-11.8 1.2-25.1 10.1-35.1 10.7-12.1 27.5-13.5 39.3-13.5l36.9-0.1v-63.2l-57.3-0.1c-62.1 0-100.6 39.7-100.6 103.6v53.1c0 9.2-7.4 16.6-16.6 16.6h-56.1v68.9h56.1c9.2 0 16.6 7.4 16.6 16.6zm163.1-451.9z"/>
</svg>