<svg version="1.2" xmlns="http://www.w3.org/2000/svg" viewBox="0 0 513 512" width="513" height="512">
	<title>youtube(1)</title>
	<style>
		.s0 { fill: #000000 } 
	</style>
	<path class="s0" d="m334.8 233l-113.1-61.9c-6.5-3.6-14.2-3.4-20.6 0.4-6.3 3.7-10.2 10.4-10.2 17.8v122.7c0 7.4 3.8 14.1 10.2 17.9 3.3 2 6.9 2.9 10.6 2.9 3.4 0 6.8-0.8 9.9-2.5l113.1-60.8c6.7-3.6 10.9-10.6 10.9-18.2 0-7.6-4.1-14.6-10.8-18.3zm-113.9 63.6v-91.7l84.6 46.2z"/>
	<path class="s0" d="m508.2 153.5v-0.2c-0.4-4.1-4.7-40.8-22.6-59.4-20.6-22-43.9-24.6-55.1-25.9q-1.4-0.2-2.6-0.3l-0.9-0.1c-67.7-4.9-169.9-5.6-170.9-5.6h-0.1-0.1c-1 0-103.2 0.7-171.5 5.6l-0.9 0.1q-1.1 0.1-2.4 0.3c-11.1 1.3-34.2 3.9-54.9 26.7-17 18.4-21.9 54.3-22.4 58.3v0.5c-0.2 1.7-3.8 42.6-3.8 83.6v38.3c0 40.9 3.6 81.8 3.8 83.5v0.2c0.4 4.1 4.7 40.1 22.5 58.7 19.3 21.2 43.8 24 57 25.5 2.1 0.3 3.9 0.5 5.1 0.7l1.2 0.2c39.1 3.7 161.6 5.5 166.8 5.6h0.2 0.1c1 0 103.3-0.7 170.9-5.6l0.9-0.1q1.3-0.2 2.9-0.3c11-1.2 34-3.6 54.4-26 17-18.5 21.9-54.4 22.4-58.4v-0.5c0.2-1.7 3.8-42.6 3.8-83.5v-38.3c0-41-3.6-81.9-3.8-83.6zm-26.2 121.9c0 37.9-3.3 77-3.6 80.5-1.3 9.9-6.5 32.6-14.7 41.6-12.8 14-25.9 15.4-35.5 16.4q-1.7 0.2-3.2 0.4c-65.4 4.7-163.8 5.5-168.3 5.5-5.1-0.1-125.8-1.9-163.7-5.5-2-0.3-4.1-0.5-6.3-0.8-11.2-1.2-26.5-3-38.4-16l-0.2-0.3c-8.2-8.5-13.2-29.7-14.5-41.1-0.2-2.7-3.6-42.3-3.6-80.7v-38.3c0-37.9 3.3-77 3.6-80.6 1.5-11.7 6.8-33 14.7-41.6 13.2-14.5 27-16.1 36.2-17.1q1.3-0.2 2.5-0.3c66.4-4.8 165.4-5.5 169-5.5 3.6 0 102.6 0.7 168.4 5.5q1.2 0.1 2.7 0.3c9.4 1.1 23.6 2.7 36.7 16.7l0.1 0.1c8.2 8.4 13.2 30 14.5 41.7 0.2 2.6 3.6 42.2 3.6 80.8z"/>
</svg>