<svg version="1.2" xmlns="http://www.w3.org/2000/svg" viewBox="0 0 512 512" width="512" height="512">
	<title>linkedin</title>
	<style>
		.s0 { fill: #ffffff } 
	</style>
	<g>
		<path class="s0" d="m7.8 509.9h132.6v-348.6h-132.6zm30-318.6h72.6v288.6h-72.6z"/>
		<path class="s0" d="m74.1 2.1c-40.9 0-74.1 33.2-74.1 74.1 0 40.8 33.2 74.1 74.1 74.1 40.9 0 74.1-33.3 74.1-74.1 0-40.9-33.2-74.1-74.1-74.1zm-44.1 74.1c0-24.4 19.8-44.1 44.1-44.1 24.3 0 44.1 19.7 44.1 44.1 0 24.3-19.8 44.1-44.1 44.1-24.3 0-44.1-19.8-44.1-44.1z"/>
		<path class="s0" d="m511.7 270.8c-4.7-67.9-61.3-120.2-131.5-120.2-31.4 0-61 11-84.4 30.3v-19.6h-127v348.6h132.6v-190.6c0-21.5 17.5-39 38.9-39 21.5 0 39 17.5 39 39l0.1 190.6h132.6v-238.8zm-240.3 209.2h-72.6v-288.7h67v42.9l24.1 0.1 4.4-6.9c18.9-29.3 51-46.7 85.9-46.7 55.8 0 100.6 42.6 101.8 97v202.3h-72.6l-0.1-160.7c0-38-30.9-69-68.9-69-38.1 0-69 31-69 69z"/>
	</g>
</svg>