<svg version="1.2" xmlns="http://www.w3.org/2000/svg" viewBox="0 0 512 512" width="512" height="512">
	<style>
		.s0 { fill: #00aa66 } 
		.s1 { fill: #1c4246 } 
	</style>
	<path fill-rule="evenodd" class="s0" d="m304 314.7c0 26.5-21.5 48-48 48-26.5 0-48-21.5-48-48 0-26.5 21.5-48 48-48 26.5 0 48 21.5 48 48zm-64 0c0 8.8 7.2 16 16 16 8.8 0 16-7.2 16-16 0-8.8-7.2-16-16-16-8.8 0-16 7.2-16 16z"/>
	<path fill-rule="evenodd" class="s0" d="m240 346.7v53.3c0 8.8 7.2 16 16 16 8.8 0 16-7.2 16-16v-53.3c0-8.8-7.2-16-16-16-8.8 0-16 7.2-16 16z"/>
	<path fill-rule="evenodd" class="s1" d="m429.2 426.7c0 32.4-26.3 58.7-58.7 58.7h-229c-32.4 0-58.7-26.3-58.7-58.7v-170.7c0-32.4 26.3-58.7 58.7-58.7h229c32.4 0 58.7 26.3 58.7 58.7zm-58.7-197.4h-229c-14.8 0-26.7 12-26.7 26.7v170.7c0 14.8 12 26.7 26.7 26.7h229c14.8 0 26.7-12 26.7-26.7v-170.7c0-14.8-12-26.7-26.7-26.7z"/>
	<path fill-rule="evenodd" class="s1" d="m256.1 26.7c32.5 0 63.7 12.9 86.7 35.9 23 23 35.9 54.2 35.9 86.7v64c0 8.8-7.2 16-16 16h-213.3c-8.8 0-16-7.2-16-16v-64c0-32.5 12.9-63.7 35.9-86.7 23-23 54.2-35.9 86.7-35.9zm-0.1 32q0.03 0 0.05 0 0.02 0 0.05 0zm0.05 0c-23.98 0.01-47.06 9.61-64.05 26.6-17 17-26.6 40.1-26.6 64.1v48h181.3v-48c0-24-9.6-47.1-26.6-64.1-16.99-16.99-40.07-26.59-64.05-26.6z"/>
</svg>