<?xml version="1.0" encoding="UTF-8"?>
<svg version="1.1" xmlns="http://www.w3.org/2000/svg" width="64" height="64">
<path d="M0 0 C3.47924392 0.8645394 4.91967516 2.61216046 6.93359375 5.48046875 C8.18686058 9.78857349 8.23564243 11.75817844 6.49609375 15.91796875 C5.98046875 16.76359375 5.46484375 17.60921875 4.93359375 18.48046875 C5.79984375 18.78984375 5.79984375 18.78984375 6.68359375 19.10546875 C9.89041882 21.06519518 11.11822438 23.19480022 12.93359375 26.48046875 C13.32092383 29.35696419 13.49713462 31.75142486 13.43359375 34.60546875 C13.4490625 35.30800781 13.46453125 36.01054688 13.48046875 36.734375 C13.4567035 39.87732938 13.10101912 42.1738467 11.58984375 44.94140625 C7.24835101 47.45691822 2.85442989 47.05676078 -2.06640625 46.98046875 C-3.56300781 47.00367187 -3.56300781 47.00367187 -5.08984375 47.02734375 C-12.18825039 46.98928259 -12.18825039 46.98928259 -15.72265625 44.94140625 C-17.59144863 41.51890858 -17.6500789 38.40560153 -17.56640625 34.60546875 C-17.581875 33.91066406 -17.59734375 33.21585938 -17.61328125 32.5 C-17.57461437 27.36697198 -16.28948181 24.41978332 -13.06640625 20.48046875 C-10.81640625 19.10546875 -10.81640625 19.10546875 -9.06640625 18.48046875 C-9.58203125 17.63484375 -10.09765625 16.78921875 -10.62890625 15.91796875 C-12.36845493 11.75817844 -12.31967308 9.78857349 -11.06640625 5.48046875 C-7.9446942 1.03439402 -5.29284042 -0.37019867 0 0 Z M-7.00390625 5.54296875 C-8.73306303 8.69613699 -7.92547615 11.1055513 -7.06640625 14.48046875 C-4.24072079 16.8008497 -4.24072079 16.8008497 -1.00390625 16.29296875 C2.23100328 15.74292377 2.23100328 15.74292377 3.93359375 12.48046875 C4.28744324 9.64967283 4.32568285 8.11216786 2.80859375 5.66796875 C-0.45287064 3.60237463 -3.64701082 3.70209061 -7.00390625 5.54296875 Z M-12.06640625 25.48046875 C-14.35298164 30.15755478 -14.56024038 34.37751609 -14.06640625 39.48046875 C-12.61680024 41.84865575 -12.61680024 41.84865575 -10.06640625 43.48046875 C-7.23575341 43.8814779 -4.88293966 44.04169774 -2.06640625 43.98046875 C-0.9990625 44.00367188 -0.9990625 44.00367188 0.08984375 44.02734375 C3.54570395 44.00155375 5.58219678 43.73527319 8.40625 41.6875 C10.68863658 38.3894222 10.51848037 35.29649732 9.93359375 31.48046875 C8.32130224 26.38902188 6.67281538 23.11336965 1.93359375 20.48046875 C-4.55694494 19.55324894 -7.48500219 20.46274049 -12.06640625 25.48046875 Z " fill="#b8b8b8" transform="translate(34.06640625,8.51953125)"/>
<path d="M0 0 C2.5 1.4375 2.5 1.4375 4 4 C4.72850074 9.00610762 4.34491795 13.45672146 2 18 C1.09507813 17.94779297 1.09507813 17.94779297 0.171875 17.89453125 C-4.85020241 17.67190661 -4.85020241 17.67190661 -9.5 19.3125 C-11.87691805 21.98653281 -12.17270045 24.61622822 -12.25 28.0625 C-12.1675 29.361875 -12.085 30.66125 -12 32 C-9.09907498 33.93395001 -8.10325263 34.30131941 -4.8125 34.625 C-2.9253125 34.810625 -2.9253125 34.810625 -1 35 C-1 35.99 -1 36.98 -1 38 C-2.93681161 38.08107583 -4.8745934 38.13922475 -6.8125 38.1875 C-7.89144531 38.22230469 -8.97039063 38.25710937 -10.08203125 38.29296875 C-13 38 -13 38 -14.86328125 36.91796875 C-16.59407014 33.99763423 -16.396332 31.4883452 -16.375 28.125 C-16.38273437 26.91070312 -16.39046875 25.69640625 -16.3984375 24.4453125 C-15.86271716 19.81290724 -14.2536373 17.2536373 -11 14 C-11.33 13.67 -11.66 13.34 -12 13 C-12.52472964 8.75915225 -12.68759225 5.17463675 -10.5 1.4375 C-6.9497563 -0.60389013 -3.99714672 -0.77813307 0 0 Z M-7 4 C-9.264384 6.69155201 -9.264384 6.69155201 -8.75 9.0625 C-8.07467282 11.19476975 -8.07467282 11.19476975 -6 13 C-2.70285207 12.67028521 -1.3773161 12.3773161 1 10 C0.71016731 6.69316534 0.71016731 6.69316534 -1 4 C-3.95804573 3.66659529 -3.95804573 3.66659529 -7 4 Z " fill="#b8b8b8" transform="translate(16,13)"/>
<path d="M0 0 C2.5 1.4375 2.5 1.4375 4 4 C4.4643626 7.78892965 4.73265104 11.53469791 3 15 C3.9590625 15.928125 3.9590625 15.928125 4.9375 16.875 C8.43235742 20.47576219 8.18882186 22.99736546 8.25 27.9375 C8.27578125 29.18402344 8.3015625 30.43054688 8.328125 31.71484375 C8 35 8 35 6.87109375 36.9296875 C4.13986679 38.49201774 1.92986108 38.28806003 -1.1875 38.1875 C-2.27417969 38.16042969 -3.36085938 38.13335937 -4.48046875 38.10546875 C-5.72763672 38.05326172 -5.72763672 38.05326172 -7 38 C-7 37.01 -7 36.02 -7 35 C-1.555 34.505 -1.555 34.505 4 34 C4.57764397 25.93401724 4.57764397 25.93401724 1 19 C-1.40545638 17.79727181 -2.94996953 17.89928528 -5.625 17.9375 C-6.44226562 17.94652344 -7.25953125 17.95554687 -8.1015625 17.96484375 C-8.72804687 17.97644531 -9.35453125 17.98804687 -10 18 C-12.34491795 13.45672146 -12.72850074 9.00610762 -12 4 C-9.21030092 -0.76573593 -5.06596452 -0.98620211 0 0 Z M-7 4 C-9.264384 6.69155201 -9.264384 6.69155201 -8.75 9.0625 C-8.07467282 11.19476975 -8.07467282 11.19476975 -6 13 C-2.70285207 12.67028521 -1.3773161 12.3773161 1 10 C0.71016731 6.69316534 0.71016731 6.69316534 -1 4 C-3.95804573 3.66659529 -3.95804573 3.66659529 -7 4 Z " fill="#b8b8b8" transform="translate(56,13)"/>
</svg>
