<svg width="21" height="24" viewBox="0 0 21 24" fill="none" xmlns="http://www.w3.org/2000/svg">
<g id="elements">
<g id="Icon">
<path d="M8.45821 2.32536C8.91391 2.16452 9.15294 1.66472 8.99211 1.20902C8.83127 0.753322 8.33148 0.514287 7.87578 0.675122L7.05339 0.965375C5.59101 1.48149 4.42407 1.89334 3.5203 2.33182C2.58635 2.78493 1.85438 3.30211 1.30978 4.07185C0.765177 4.84159 0.521096 5.70396 0.404651 6.73547C0.291968 7.73365 0.291979 8.97112 0.291992 10.5219V13.4786C0.291979 15.0293 0.291968 16.2668 0.404651 17.265C0.521096 18.2965 0.765177 19.1589 1.30978 19.9286C1.85438 20.6984 2.58635 21.2155 3.5203 21.6687C4.42408 22.1071 5.59103 22.519 7.05343 23.0351L7.87578 23.3254C8.33148 23.4862 8.83128 23.2472 8.99211 22.7915C9.15294 22.3358 8.91391 21.836 8.45821 21.6751L7.68522 21.4023C6.16219 20.8648 5.08879 20.4846 4.28417 20.0942C3.49956 19.7135 3.05085 19.3595 2.73837 18.9179C2.42589 18.4762 2.24143 17.9353 2.14361 17.0687C2.04328 16.18 2.04199 15.0413 2.04199 13.4262V10.5743C2.04199 8.95919 2.04328 7.82045 2.14361 6.93177C2.24143 6.0652 2.42589 5.52426 2.73837 5.0826C3.05085 4.64094 3.49956 4.28696 4.28417 3.9063C5.0888 3.51593 6.16219 3.13572 7.68522 2.59817L8.45821 2.32536Z" fill="#009174"/>
<path d="M11.6935 9.71107C12.0401 9.37425 12.0479 8.82028 11.7111 8.47375C11.3743 8.12722 10.8203 8.11935 10.4738 8.45617C10.3673 8.55966 10.1552 8.72955 9.83855 8.97828L9.76863 9.03317C9.48614 9.25491 9.15472 9.51506 8.83842 9.78308C8.49944 10.0703 8.14734 10.3918 7.87362 10.7132C7.73645 10.8743 7.60115 11.0558 7.49664 11.2511C7.39585 11.4394 7.29199 11.699 7.29199 12.0003C7.29199 12.3016 7.39585 12.5611 7.49664 12.7495C7.60115 12.9448 7.73645 13.1263 7.87362 13.2874C8.14734 13.6088 8.49944 13.9303 8.83842 14.2175C9.15472 14.4855 9.48611 14.7456 9.76861 14.9674L9.83855 15.0223C10.1552 15.271 10.3673 15.4409 10.4738 15.5444C10.8203 15.8812 11.3743 15.8733 11.7111 15.5268C12.0479 15.1803 12.0401 14.6263 11.6935 14.2895C11.505 14.1063 11.205 13.8703 10.9195 13.6461L10.8531 13.5939C10.5664 13.3688 10.2598 13.1282 9.96975 12.8824L9.96141 12.8753H19.8337C20.3169 12.8753 20.7087 12.4835 20.7087 12.0003C20.7087 11.517 20.3169 11.1253 19.8337 11.1253H9.96141L9.96975 11.1182C10.2598 10.8724 10.5664 10.6317 10.8531 10.4067L10.9195 10.3545C11.205 10.1302 11.505 9.89431 11.6935 9.71107Z" fill="#009174"/>
</g>
</g>
</svg>
