<svg width="182" height="182" viewBox="0 0 182 182" fill="none" xmlns="http://www.w3.org/2000/svg">
<rect width="182" height="182" rx="14.56" fill="#1B8354"/>
<path d="M90.5784 144.234C90.2563 144.234 89.934 144.196 89.6064 144.12C87.4115 143.585 86.063 141.368 86.5981 139.173C87.1495 136.907 89.7864 129.143 100.51 124.485C100.635 124.431 100.766 124.381 100.897 124.338C101.056 124.267 101.241 124.185 101.465 124.108C106.03 122.427 111.681 119.566 113.827 117.841C113.931 117.759 114.04 117.677 114.155 117.606L129.415 107.647C129.683 107.401 129.677 107.281 129.672 107.237C129.65 106.844 129.208 106.02 128.274 105.414C121.422 100.855 115.088 103.503 105.468 108.406C104.807 108.744 104.146 109.083 103.486 109.41C98.2823 111.987 91.8724 111.605 86.7346 108.417C81.8588 105.392 78.9487 100.352 78.9487 94.9412C78.9487 89.5303 81.8589 84.4528 87.1387 80.871C94.5425 75.8533 105.664 74.2645 113.128 77.1365L124.933 80.5815C126.036 80.9091 127.176 80.7837 128.154 80.2322C129.104 79.6972 129.776 78.8345 130.049 77.7971C130.562 75.8806 129.491 73.8984 127.564 73.1668L114.695 68.3674C114.695 68.3674 114.673 68.3563 114.657 68.3509L109.798 66.8606C105.801 65.6648 102.912 65.2223 100.756 65.4844C97.1138 65.9376 87.3735 70.2403 82.0882 72.8447C80.0626 73.8439 77.6055 73.0139 76.6064 70.9828C75.6072 68.9571 76.4366 66.5001 78.4678 65.5009C79.9911 64.7474 93.5483 58.13 99.7618 57.3546C103.092 56.9506 107.035 57.486 112.178 59.0257L117.147 60.5491C117.201 60.5654 117.256 60.5816 117.311 60.6034C117.354 60.6198 117.403 60.6361 117.447 60.6525L117.523 60.6797C118.522 61.04 119.593 60.9909 120.543 60.5432C121.537 60.0791 122.279 59.2386 122.639 58.1848C123.344 56.1592 122.345 53.9532 120.363 53.1397L109.994 48.8532L109.109 48.5259C106.177 47.4448 104.561 46.8549 103.103 46.5109C101.291 46.0959 99.2817 45.9049 97.1523 45.9595L96.9992 45.9707C96.4642 46.0035 96.164 46.0254 94.9901 46.2656C94.9465 46.2765 94.9026 46.282 94.859 46.2875C93.696 46.484 93.046 46.7021 91.6155 47.188L88.8092 48.1435C79.4672 51.3213 75.5963 52.6372 71.5777 55.5583C60.9253 63.3279 54.4657 72.1729 52.8004 77.4964C51.0259 83.1748 51.0259 90.1527 51.0259 104.065L51.0259 140.156C51.0259 142.416 49.1914 144.251 46.9309 144.251C44.6705 144.251 42.8359 142.416 42.8359 140.156L42.8359 104.065C42.8359 89.3283 42.8358 81.9301 44.9815 75.0559C48.0501 65.2716 58.2389 55.1542 66.7565 48.9407C71.7906 45.2879 76.5952 43.6503 86.172 40.3961L88.9948 39.4347C90.54 38.9106 91.6649 38.5339 93.423 38.2281C94.9792 37.9169 95.6123 37.8572 96.4586 37.8026L96.6772 37.7861C96.7373 37.7861 96.7915 37.7803 96.8515 37.7749C99.7071 37.6984 102.432 37.9554 104.955 38.5342C106.915 38.9928 108.7 39.6479 111.938 40.8381L112.899 41.1932C112.948 41.2151 113.003 41.2311 113.052 41.253L123.486 45.5666C129.481 48.029 132.517 54.7448 130.387 60.8546C129.907 62.2687 129.18 63.5573 128.263 64.6766L130.458 65.4956C136.355 67.7287 139.582 73.915 137.976 79.8937C137.141 83.0768 135.083 85.7356 132.184 87.3681C129.257 89.017 125.866 89.3992 122.634 88.4382L110.671 84.9495C110.546 84.9113 110.42 84.8679 110.3 84.8242C105.31 82.8313 96.9883 84.1033 91.7467 87.6523C88.7 89.7162 87.1547 92.173 87.1547 94.9412C87.1547 97.5401 88.5797 99.9155 91.0695 101.461C93.8159 103.164 97.1793 103.404 99.8492 102.083C100.477 101.766 101.122 101.438 101.771 101.111C110.562 96.6337 121.504 91.0592 132.806 98.5776C135.804 100.532 137.709 103.623 137.873 106.823C138.02 109.634 136.808 112.227 134.471 114.122C134.362 114.209 134.247 114.291 134.133 114.368L118.817 124.365C115.525 126.937 109 130.077 104.381 131.78L104.305 131.823C104.054 131.954 103.792 132.058 103.524 132.135C101.962 132.855 95.8416 135.99 94.5913 141.122C94.1381 142.995 92.4618 144.251 90.6163 144.251L90.5784 144.234ZM104.124 131.851C104.124 131.851 104.125 131.851 104.119 131.851C104.119 131.851 104.119 131.851 104.124 131.851Z" fill="#FBFBFB"/>
</svg>
