<svg xmlns="http://www.w3.org/2000/svg" width="513.781" height="42.623" viewBox="0 0 513.781 42.623"><defs><style>.a{fill:#1d1d1b;fill-rule:evenodd;mix-blend-mode:darken;isolation:isolate;}</style></defs><g transform="translate(-100.486 -72.47)"><path class="a" d="M882.456,98.353a8.4,8.4,0,0,1-3.12-.812C880.557,94.867,882.09,96.469,882.456,98.353ZM880.5,94.472a3.807,3.807,0,0,0-1.435,1.875,8.718,8.718,0,0,1-1.309,2.317,4.457,4.457,0,0,1-3.659,1.12c-.671-.072-.983-.527-1.366-1.176-.178-.332-.572-1.06-.572-1.06-.177-.383-.373-.429-.466-.015l-.367,1.609a.808.808,0,0,0,.1.683,18.642,18.642,0,0,1,1.607,5.306c-1.48,3.027-6.956,4.121-9.287,2.841-1.647-.907-3.28-2.854-1.69-6.081.353-.718-.028-.757-.38-.194a6.152,6.152,0,0,0,.252,7.58c2.077,2.513,8.964,1.78,11.089-1.72.6-.984.778-4.076.778-5.539a4.285,4.285,0,0,0,4.84-2.892,9.215,9.215,0,0,0,4.28,1.574c.286.033.59.046.669-.274a5.828,5.828,0,0,0,.209-.951,3.173,3.173,0,0,0,.027-1.247,5.533,5.533,0,0,0-1.7-3.541,1.432,1.432,0,0,0-.946-.417A1.4,1.4,0,0,0,880.5,94.472ZM866.366,93.11c-.286.463-.674,1.165-.891,1.589-.09.173-.085.294.1.4.374.2,1.028.557,1.5.805.193.1.311.087.4-.056.259-.422.635-1.07.876-1.481.086-.148.11-.263-.033-.35-.442-.269-1.162-.7-1.607-.963C866.53,92.944,866.45,92.974,866.366,93.11Zm15.387-6.15-.383.72c-.043.079-.079.138-.045.224a2.357,2.357,0,0,1,.2.812c-.451.437-.939.509-1.294.219a1.186,1.186,0,0,1-.29-1c.015-.33.053-.455-.236-.22-.38.307-.278.278-.3.45-.134,1.084-.6,1.573-1.436,1.63-.527.034-.912-.333-.545-1.374.077-.22-.081-.457-.31,0-.785,1.569-.308,2.443.492,2.562a1.753,1.753,0,0,0,1.828-1.267,1.3,1.3,0,0,0,1.476.5c.709-.186.865-.514,1.068-1.093a3.531,3.531,0,0,0-.065-2.172C881.864,86.807,881.782,86.888,881.753,86.96Zm1.925-5.463c-1.564.654-8.61,2.922-9.982,3.511-.09.039-.135.056-.173.172-.055.163-.3.8-.373,1.093-.029.117.074.113.171.076.19-.077.509-.26.73-.335,1.142-.4,7.79-2.634,9.179-3.187a.36.36,0,0,0,.209-.181c.084-.194.287-.758.364-1.035C883.834,81.495,883.771,81.454,883.678,81.5ZM851.16,95.186c-.074.407-.2,1.627,0,1.655a2.051,2.051,0,0,1,1.222.016c1.191.6,2.392,2.774,2.836,4.545a11.85,11.85,0,0,1-4.428.905c-.357,0-1.024-.071-1.2-.381-.209-.365-.324-.281-.4.062a9.019,9.019,0,0,0-.2,1.433c-.018.6.753.879,1.222.884a11.805,11.805,0,0,0,5.056-.991c.345-.186.485-.825.516-1.543a7.676,7.676,0,0,0-1.09-4.63c-.779-1.257-1.853-2.4-2.951-2.419A.53.53,0,0,0,851.16,95.186Zm-1.323-6.559c-.288.463-.675,1.165-.892,1.589-.089.172-.085.294.105.394.373.2,1.028.559,1.5.807.194.1.311.087.4-.056.26-.422.634-1.07.874-1.482.088-.148.112-.261-.031-.349-.442-.269-1.162-.7-1.607-.964C850,88.459,849.921,88.49,849.837,88.626Zm-6.453-5.074-.329,1.669a1.791,1.791,0,0,0,0,.92c.192,1.1.447,2.2.664,3.284.537,2.609,1.3,6.6,1.758,9.009a38.409,38.409,0,0,1,.642,5.25c.015.309.189.291.268.046a9.064,9.064,0,0,0,.4-2.833,29.19,29.19,0,0,0-.636-4.512c-.437-2.162-1.122-5.935-1.536-7.9-.353-1.673-.693-3.345-.9-4.967-.023-.186-.1-.245-.172-.227S843.411,83.406,843.385,83.552Zm10.361-2.065c-1.563.654-5.925,2.394-7.3,2.984-.09.039-.135.058-.174.172-.053.163-.222.7-.3.988-.031.117.076.115.171.076.189-.077.432-.22.647-.309,1.081-.452,5.19-2.134,6.577-2.687a.359.359,0,0,0,.209-.182c.084-.192.213-.651.291-.928C853.9,81.485,853.84,81.444,853.746,81.487ZM828.01,105.971c-1.564.654-5.927,2.394-7.3,2.982-.089.041-.135.058-.172.174-.054.163-.224.7-.3.987-.029.117.075.113.171.076.19-.077.432-.22.649-.309,1.081-.452,5.189-2.134,6.576-2.688a.352.352,0,0,0,.21-.181c.084-.192.212-.651.289-.929C828.166,105.969,828.1,105.928,828.01,105.971ZM815.12,92.042c-1.786.772-3.888,3.559-4.662,5.713-.8,2.4-.266,3.449.932,4.167,1.518.912,4.155.138,4.928.606.133.084.133.084.026.194a13.09,13.09,0,0,1-8.015,3.7c-3.515.138-6.365-2.65-3.888-8.252.186-.47-.133-.772-.48-.168-2.557,4.887-1.438,8.64.986,9.938,3.567,1.821,8.947-.47,11.61-3.479a3.537,3.537,0,0,0,.8-1.268,2.532,2.532,0,0,0-.24-2.456c-.506-.552-1.6-.3-2.557-.3-1.492.028-2.823-.222-3.327-1.048a1.19,1.19,0,0,1-.028-1.408,9.223,9.223,0,0,1,3.543-3.671c.851-.358,1.65-.166,2.317,1.3.186.36.452.3.532-.054l.266-1.242a1.342,1.342,0,0,0-.133-.856C817.009,91.9,816.157,91.628,815.12,92.042Zm9.385-5.212c-.286.463-.672,1.165-.891,1.589-.089.171-.084.294.105.394.373.2,1.029.559,1.5.807.194.1.311.087.4-.056.258-.422.634-1.07.876-1.482.085-.148.11-.261-.033-.348-.442-.27-1.163-.7-1.607-.965C824.67,86.663,824.591,86.694,824.505,86.83Zm12.374-2.866c-.071.015-.136.115-.164.261l-.327,1.669a1.773,1.773,0,0,0,0,.92c.192,1.1.445,2.2.664,3.284.536,2.609,1.3,6.6,1.758,9.009a38.413,38.413,0,0,1,.642,5.25c.013.309.189.291.268.046a9.055,9.055,0,0,0,.4-2.833,29.131,29.131,0,0,0-.636-4.512c-.439-2.162-1.122-5.933-1.536-7.9-.353-1.672-.693-3.345-.9-4.967C837.029,84.006,836.949,83.947,836.88,83.965Zm-6.173-1.079a.41.41,0,0,0-.2.251c-.22.468-.485.984-.707,1.456a.685.685,0,0,0,.069.591,7.647,7.647,0,0,0,.615,1.208c.407,1.77,1.024,4.261,1.342,5.646.675,3.03,1.617,6.8,2.186,9.757a1.1,1.1,0,0,1-1.32,1,3.3,3.3,0,0,1-1.661-.8,7.536,7.536,0,0,1-2.254-3.825c-.568-1.627-1.372-4.6-1.709-6.1-.051-.207-.084-.342-.135-.342-.054.026-.11.135-.161.342l-.227,1.389a.772.772,0,0,0,.023.547c.24.943.69,2.816,1.229,4.689a.809.809,0,0,1-.046.683c-.845,1.389-3.23,2.133-5.145,2.094-1.265-.025-1.066-.533-1.3-.661-.26-.155-.362.261-.386.365a4.91,4.91,0,0,0-.025,1.845c.077.463.394.611.912.637A11.022,11.022,0,0,0,825.79,103a3.964,3.964,0,0,0,2.458-2.754c.746,2.249,1.658,4.178,3.733,4.781,1.558.452,2.276-.283,2.6-1.867a15.17,15.17,0,0,0-.455-6.352c-.559-2.594-1.407-5.747-1.936-8.186-.117-.514-.314-1.194-.432-1.709.2-.289.435-.621.661-.911a.659.659,0,0,0-.023-.751,5.927,5.927,0,0,1-1.39-2.1C830.894,82.9,830.784,82.857,830.706,82.885Zm8.974-3.9a.746.746,0,0,1,.273.513c-.217.483-1.6.968-2.125,1.109-.1.016-.647.131-.6-.025a6.839,6.839,0,0,1,1.081-1.464C838.749,78.751,839.219,78.58,839.681,78.989Zm-1.323-.9a12.189,12.189,0,0,0-1.791,2.5,3.546,3.546,0,0,1-1.014-.411c-.322-.155-.534.174-.682.415a7.577,7.577,0,0,0-.747,1.51l-.186.516c0,.227.1.293.274.11.371-.37.652-1.374.883-1.242a3.892,3.892,0,0,0,4.091-.375,2.8,2.8,0,0,0,1.392-2.836,1.149,1.149,0,0,0-1-.818A1.763,1.763,0,0,0,838.358,78.092Zm-6.254-.7-.384.718c-.043.081-.079.138-.045.223a2.422,2.422,0,0,1,.2.815c-.45.434-.938.508-1.293.215a1.179,1.179,0,0,1-.291-1c.015-.33.054-.457-.235-.222-.38.309-.278.277-.3.452-.135,1.086-.6,1.572-1.436,1.63-.529.036-.912-.332-.546-1.374.077-.222-.082-.457-.311,0-.785,1.569-.307,2.442.491,2.56a1.748,1.748,0,0,0,1.827-1.265,1.3,1.3,0,0,0,1.477.5c.71-.182.865-.513,1.068-1.09a3.535,3.535,0,0,0-.066-2.176C832.215,77.244,832.134,77.323,832.1,77.4Zm.557-4.364c-1.564.652-6.9,2.624-8.273,3.212-.09.041-.135.058-.174.174-.053.163-.222.7-.3.987-.03.117.074.113.171.076.189-.077.432-.22.647-.309,1.081-.454,6.165-2.365,7.553-2.918a.353.353,0,0,0,.209-.181,9.648,9.648,0,0,0,.289-.93C832.819,73.03,832.755,72.991,832.662,73.033Zm-51.351,37.584c-1.563.656-6.9,2.626-8.273,3.214-.089.041-.135.058-.174.174-.053.163-.22.7-.3.987-.03.117.076.113.173.076.187-.077.431-.22.646-.311,1.083-.45,6.165-2.363,7.553-2.917a.344.344,0,0,0,.209-.181c.084-.194.214-.652.289-.929C781.469,110.616,781.4,110.575,781.311,110.618Zm16.743-4.409c-.264.4-.595,1-.912,1.49-.458-.312-1.058-.671-1.466-.935-.22-.143-.312-.127-.449.082-.237.365-.6.909-.848,1.362-.09.161-.069.306.168.442.436.251,1.124.649,1.536.863.131.069.238.025.337-.112.225-.309.47-.767.83-1.346.611.36,1.109.675,1.589.917a.207.207,0,0,0,.306-.067,11.6,11.6,0,0,0,.851-1.323c.125-.235.092-.324-.112-.452-.317-.2-1.1-.7-1.485-.95C798.214,106.061,798.138,106.081,798.054,106.209Zm-25.784-7.5c.085.143.125.135.015.227a14.138,14.138,0,0,1-8.771,2.483c1.033-.669,3.915-3.833,5.835-4.137a1.763,1.763,0,0,1,.365-.013A3.6,3.6,0,0,1,772.271,98.713Zm-3.424-3.1c-1.176.772-4.767,4.044-6.472,5.641a1.457,1.457,0,0,1-1.467-.866c-.089-.24-.473-1.1-.793-1.845-.242-.557-.424-.511-.57-.015l-.358,1.4c-.077.342-.105.268.159.825,1.135,2.4,1.4,3.273,1.349,4.333-.728,1.546-3.536,3.219-6.175,3.234-4.89.148-4.949-4.037-3.5-6.814.2-.388-.067-.767-.406-.148-2.693,4.739-1.737,9.264,3.787,9.244a8.541,8.541,0,0,0,5.13-1.909,6.262,6.262,0,0,0,2.059-5.235c.056.015.1.04.159.051a16.2,16.2,0,0,0,9.366-1.8,3.51,3.51,0,0,0,1.1-.882,8.01,8.01,0,0,0,1.173-2.06,2.241,2.241,0,0,0-.378-2.654A3.219,3.219,0,0,0,768.846,95.618ZM792.2,98.242a11.756,11.756,0,0,1-2.328,1.6,5.907,5.907,0,0,1-1.673-1.1c1.16-1.668,1.847-2.365,2.387-2.386C791.157,96.332,791.564,97.077,792.2,98.242ZM789.21,95.42a5.512,5.512,0,0,0-1.617,5.283c-2.433.683-7.253,1.185-8.557-.96-.36-.59-.455-.3-.555.288a2.632,2.632,0,0,0,1.653,3.059c-1.7,4.27-5.481,7.432-11.6,5.038-.91-.345-1.3.266-.284.765,6.643,3.109,10.674,1.883,12.732-5.588a17.126,17.126,0,0,0,8.75-1.252c1.7.652,4.673,1.738,6.564,1.076,1.656-.682,2.287-3.1,1.955-4.8a6.221,6.221,0,0,0-1.952-3.38c-.23-.228-.311-.174-.383.113a4.562,4.562,0,0,0-.168,1.893,8.13,8.13,0,0,1,1.909,2.979c-.624,1.3-2.563,1.516-5.548.568a4.459,4.459,0,0,0,.519-4.786C791.8,93.756,790.289,94.3,789.21,95.42Zm-26.278-2.91c-.288.464-.674,1.165-.892,1.589-.089.171-.084.294.105.394.373.2,1.029.559,1.5.807.194.1.311.087.4-.056.259-.422.634-1.07.874-1.482.087-.148.112-.261-.031-.348-.442-.269-1.162-.7-1.607-.964C763.094,92.343,763.015,92.373,762.931,92.51Zm26.408-3.025c-.264.4-.595,1-.912,1.49-.458-.311-1.058-.67-1.466-.935-.22-.143-.312-.125-.449.084-.237.363-.6.908-.849,1.362-.089.161-.067.3.169.442.434.251,1.124.647,1.536.863.13.068.238.025.337-.112.227-.309.472-.767.83-1.346.611.358,1.109.675,1.589.915a.206.206,0,0,0,.306-.066,11.378,11.378,0,0,0,.849-1.323c.127-.235.1-.325-.11-.454-.315-.2-1.1-.7-1.487-.948C789.5,89.339,789.422,89.359,789.339,89.486Zm-26.977-5.475a2.132,2.132,0,0,1,.482,1.352,2.387,2.387,0,0,1-.044.518,2.848,2.848,0,0,1-.465-.189c-.136-.067-.519-.215-1.2-.47-.264-.049-.006-.475-.006-.475a2.857,2.857,0,0,1,.457-.615l.254-.169C762,83.909,762.255,83.853,762.363,84.011Zm-.149-1.265a3.468,3.468,0,0,0-2.061,2.442c-.166.557-.059.877.243,1.065a6.845,6.845,0,0,0,1.83.682c-.876,1.466-3.7,3.365-4.221,3.664-.613.355-.5.743.261.4,2.847-1.281,4.248-2.649,4.873-3.848.194.041.362.1.567.151.34.092.263.128.445-.409a5.631,5.631,0,0,0,.171-.562l-.851-.291.082-.3a4.8,4.8,0,0,0-.23-2.033C763.061,82.944,762.68,82.665,762.214,82.745Zm23.243,1.247c-.058.141-.145.332-.2.473-.064.238.057.4.182.215a1.819,1.819,0,0,1,.544-.559,2.662,2.662,0,0,1,1.661-.388,5.007,5.007,0,0,1,1.494.465c-.008.115-2.272,1.234-2.626,1.458-.153.1-.343.274-.309.452.026.137.245.164.425.1.892-.322,1.213-.3,1.932-.608a5.8,5.8,0,0,0,1.431-.982.454.454,0,0,0,.238-.092,2.607,2.607,0,0,0,.541-1.191c-.031-.182-.682-.246-.867-.289a11.852,11.852,0,0,0-1.926-.539A2.518,2.518,0,0,0,785.457,83.993Zm13.3-1.094a2.126,2.126,0,0,1,.48,1.352,2.289,2.289,0,0,1-.043.516,2.855,2.855,0,0,1-.467-.189c-.137-.068-.518-.215-1.2-.47-.263-.049-.007-.475-.007-.475a2.97,2.97,0,0,1,.457-.615l.257-.169C798.4,82.795,798.648,82.739,798.758,82.9Zm-.15-1.267a3.466,3.466,0,0,0-2.062,2.442c-.166.557-.058.879.243,1.065a6.83,6.83,0,0,0,1.832.682c-.876,1.467-3.7,3.365-4.221,3.664-.613.355-.5.744.26.4,2.849-1.281,4.249-2.647,4.873-3.85.2.043.363.1.569.153.34.092.263.128.445-.409a5.517,5.517,0,0,0,.171-.562l-.853-.291.082-.3a4.774,4.774,0,0,0-.23-2.032C799.454,81.83,799.073,81.551,798.608,81.631ZM731,99.532a9.216,9.216,0,0,1-4.278.317c-.13-.02-.076-.079,0-.159a13.959,13.959,0,0,1,4.165-2.823C730.891,97.8,730.917,98.733,731,99.532Zm9.358-9.244-.34,1.412a1.508,1.508,0,0,0,.021.979,54.264,54.264,0,0,0,2.709,7.309c.281.61-.177.557-.409.592a4.171,4.171,0,0,1-4.144-3.324,30.182,30.182,0,0,1-1.093-6.421c-.038-.36-.273-.342-.365.023l-.363,1.434a2.062,2.062,0,0,0-.069.82,46.379,46.379,0,0,0,.979,5.26c-.2,2.409-1.428,3.243-3.028,3.3-1.5.028-1.942-1.288-2.208-2.208a34.154,34.154,0,0,1-.388-5.874c0-.181-.03-.3-.25.046a4.153,4.153,0,0,0-.319.546c-.072.133-.233.22-.25.478s-.033.481-.046.843a8.4,8.4,0,0,0-4.3,2.982,7.694,7.694,0,0,0-1.32,2.846c-.09.417-.118.616.273.707a12.131,12.131,0,0,0,2.936.159,1.513,1.513,0,0,0,1.069-.342,20.345,20.345,0,0,0,1.663-1.412c.243,1.722,1.006,3.235,2.867,3.324,2.4-.062,3.679-2.355,3.735-4.372a5.3,5.3,0,0,0,3.347,3.37,1.557,1.557,0,0,0,2.231-1.206,7.082,7.082,0,0,0-.411-4.781,33.132,33.132,0,0,1-2.162-6.444.311.311,0,0,0-.206-.227C740.435,90.082,740.375,90.158,740.354,90.287ZM730.664,85.9c-1.563.652-5.1,2.065-6.474,2.654-.09.041-.136.056-.174.172-.054.163-.221.7-.3.989-.03.115.075.113.172.074.189-.076.43-.219.647-.309,1.081-.452,4.367-1.806,5.754-2.358a.358.358,0,0,0,.21-.181c.082-.194.212-.652.289-.93C730.822,85.9,730.759,85.854,730.664,85.9Zm13.652-2.008-.268,1.7a2.019,2.019,0,0,0,.023.938c.2,1.122.455,2.23.679,3.329.5,2.463,1,4.8,1.444,7.077a43.183,43.183,0,0,1,.7,5.33c.02.315.181.293.25.043a10.279,10.279,0,0,0,.309-2.9,32.953,32.953,0,0,0-.68-4.579c-.376-1.993-.835-4.155-1.218-5.951-.36-1.7-.706-3.391-.927-5.038-.028-.191-.1-.246-.166-.23S744.343,83.741,744.316,83.891Zm-5.846-.4-.385.72c-.043.079-.079.138-.046.223a2.35,2.35,0,0,1,.2.812c-.452.436-.938.509-1.293.219a1.185,1.185,0,0,1-.291-1c.015-.33.053-.455-.237-.22-.38.307-.276.277-.3.45-.135,1.084-.6,1.572-1.438,1.63-.527.035-.91-.333-.546-1.374.079-.22-.081-.457-.311,0-.784,1.569-.307,2.443.493,2.562a1.751,1.751,0,0,0,1.827-1.267,1.3,1.3,0,0,0,1.477.5c.708-.186.866-.514,1.068-1.093a3.526,3.526,0,0,0-.066-2.172C738.581,83.342,738.5,83.421,738.47,83.495Zm1.043-5.986c-1.563.654-5.925,2.4-7.3,2.984-.089.039-.135.058-.173.174-.054.163-.222.7-.3.988-.03.116.076.113.173.076.189-.077.431-.22.647-.311,1.081-.452,5.189-2.133,6.576-2.686a.347.347,0,0,0,.21-.181,9.646,9.646,0,0,0,.289-.93C739.673,77.507,739.609,77.466,739.514,77.509Zm7.287,1.262a.747.747,0,0,1,.273.513c-.217.481-1.6.966-2.125,1.107-.1.016-.647.131-.6-.024a6.842,6.842,0,0,1,1.081-1.464C745.869,78.531,746.339,78.362,746.8,78.771Zm-1.323-.9a12.1,12.1,0,0,0-1.791,2.5,3.62,3.62,0,0,1-1.012-.411c-.324-.155-.536.172-.684.414a7.543,7.543,0,0,0-.746,1.51l-.187.516c0,.227.1.294.274.11.373-.37.652-1.374.882-1.242a3.892,3.892,0,0,0,4.091-.375,2.8,2.8,0,0,0,1.392-2.836,1.149,1.149,0,0,0-1-.818A1.773,1.773,0,0,0,745.478,77.874ZM715.713,94.647a6,6,0,0,1,1.369,1.418c-.466,1.033-1.291,1.5-2.479.465-.258-.258-.232-.335-.128-.644a4.666,4.666,0,0,1,.646-1.163C715.352,94.466,715.431,94.491,715.713,94.647Zm-.877-1.808a7.507,7.507,0,0,0-1.318,4.259,2.274,2.274,0,0,0,2.376,2.194c.877-.181,1.47-1.032,1.807-2.3a9.05,9.05,0,0,1,.955,2.323,8.539,8.539,0,0,1-5.291,1.627,2.581,2.581,0,0,1-1.6-.465c-.386-.311-.463-.053-.516.283a4.732,4.732,0,0,0,0,1.344,1.112,1.112,0,0,0,1.085,1.006,1.041,1.041,0,0,0,.283.026,9.7,9.7,0,0,1-4.362,5.035c-2.4,1.186-5.549,1.007-8.209.155-.644-.181-.979.362-.283.749,2.917,1.394,7.175,2.194,9.655.672,1.806-1.111,3.148-3.2,3.9-6.558,1.807,0,4.362-.672,5.5-1.86a1.1,1.1,0,0,0,.335-.568,7.194,7.194,0,0,0-.232-4.645,8.513,8.513,0,0,0-2.48-3.459C715.713,92.116,715.326,92.167,714.836,92.839ZM695.5,92.172c-.286.463-.674,1.165-.891,1.589-.089.171-.086.294.105.4.373.2,1.029.559,1.5.805.192.1.311.089.4-.056.26-.422.636-1.07.876-1.482.087-.148.112-.261-.033-.348-.44-.27-1.162-.7-1.605-.965C695.664,92.006,695.585,92.036,695.5,92.172Zm19.824-4.949c-.264.4-.595,1-.912,1.49-.458-.312-1.058-.67-1.466-.935-.22-.143-.312-.127-.449.082-.237.365-.6.91-.85,1.364-.089.159-.067.3.171.442.432.25,1.122.647,1.535.863.131.067.238.025.337-.113.227-.307.472-.767.83-1.346.611.36,1.109.675,1.589.917a.206.206,0,0,0,.306-.067,11.455,11.455,0,0,0,.849-1.321c.127-.237.1-.325-.11-.453-.315-.2-1.1-.7-1.485-.95C715.483,87.075,715.406,87.095,715.324,87.223Zm-10.849,1.125c-.059.143-.145.332-.2.473-.062.238.059.4.184.215a1.811,1.811,0,0,1,.542-.559,2.668,2.668,0,0,1,1.661-.388,5.037,5.037,0,0,1,1.494.465c-.008.115-2.271,1.236-2.624,1.457-.154.1-.343.276-.31.452.026.138.246.166.427.1.892-.322,1.213-.3,1.932-.608a5.718,5.718,0,0,0,1.43-.983.435.435,0,0,0,.238-.092,2.608,2.608,0,0,0,.54-1.191c-.031-.182-.682-.245-.867-.289a11.719,11.719,0,0,0-1.924-.537A2.515,2.515,0,0,0,704.474,88.349Zm-6.3-3.661c-1.563.654-6.9,2.624-8.273,3.214-.089.041-.135.056-.173.172-.054.163-.222.7-.3.987-.031.117.074.115.171.076.189-.077.431-.219.646-.309,1.083-.452,6.167-2.365,7.554-2.918a.34.34,0,0,0,.209-.181c.085-.194.214-.652.291-.929C698.328,84.686,698.265,84.645,698.17,84.688Zm7.415,14.132c-1.457,1.775-6.267,2.912-9.362,2.565,1.446-1.093,2.861-1.99,4.218-3.02a3.971,3.971,0,0,1,2.162-.82A3.675,3.675,0,0,1,705.585,98.82Zm-25.14-14.829-.478,1.344a.9.9,0,0,0-.023.818c1.389,4.736,1.779,9.987,2.391,13.728a5.289,5.289,0,0,0,2.322,4.031,4.672,4.672,0,0,0,5.966-1.663c.375-.534.371-.534.8-.158a7.323,7.323,0,0,0,1.546,1.046,26.006,26.006,0,0,0-1.183,3.347c-.22.79.179,1.027.547.136.246-.713.817-2.42,1.183-3.3,3.523,1.014,8.156.386,10.889-1.564,1.747-1.3,3.01-3.345,2.254-5.077-.864-1.712-3.7-1.783-5.488-.386-1.985,1.546-4.632,3.469-6.516,4.819a8.567,8.567,0,0,1-2.595-1.254c-.851-.6-.963-.526-1.39.161a4.372,4.372,0,0,1-4.1,2.093,3.548,3.548,0,0,1-2.481-1.571c-.932-1.39-.964-3.709-1.207-5.258-.181-1.152-1.321-9.083-1.959-11.134-.123-.4-.128-.6-.2-.615S680.548,83.7,680.446,83.991Zm17.438-1.931c-1.563.652-6.9,2.624-8.273,3.212-.089.041-.135.058-.173.174-.054.163-.224.7-.3.987-.031.117.074.113.171.076.189-.077.431-.22.647-.309,1.081-.454,6.165-2.366,7.552-2.918a.358.358,0,0,0,.21-.181,9.549,9.549,0,0,0,.289-.93C698.042,82.057,697.979,82.018,697.884,82.06Zm19.857-3.214c-1.563.652-7.877,2.8-9.248,3.387-.09.04-.135.056-.174.173-.054.163-.222.7-.3.987-.029.117.074.115.171.076.189-.077.43-.22.647-.309,1.081-.452,7.141-2.537,8.529-3.091a.354.354,0,0,0,.209-.181,9.736,9.736,0,0,0,.289-.93C717.9,78.843,717.836,78.8,717.741,78.846ZM628.126,91.735c-.286.463-.674,1.165-.892,1.589-.088.173-.085.294.105.4.375.2,1.029.559,1.5.807.193.1.31.087.4-.058.259-.422.635-1.07.875-1.481.087-.15.111-.263-.033-.348-.441-.271-1.161-.7-1.605-.965C628.289,91.569,628.21,91.6,628.126,91.735Zm26.482-7.591c-1.564.654-8.61,2.92-9.982,3.51-.09.039-.135.058-.173.174-.054.161-.3.8-.373,1.093-.029.117.075.113.172.076.189-.077.508-.26.73-.337,1.141-.394,7.79-2.634,9.178-3.188a.353.353,0,0,0,.21-.179c.084-.194.287-.758.364-1.035C654.765,84.142,654.7,84.1,654.608,84.144Zm-34.98.925c.82,4.269,1.116,8.585,1.722,12.708.377,2.67.875,5.136,2.954,5.782a4.481,4.481,0,0,0,4.906-1.769c.362-.524.239-.654.778-.041,1.4,1.66,3.92,2.052,5.976,2.189a41.8,41.8,0,0,0,11.082-1.045,8.319,8.319,0,0,0,6.639-.846,4.048,4.048,0,0,0,3.277,1.06c.461-.184,1.141-1.482,1.454-2.2,1.833,1.975,5.362,1.137,7.954.294,2.507-.816,4.683-2.345,9.284-1.355.357.08,1.456-2.271,1.17-2.261-6.767.356-10.028-1.9-12.138-2.757-1.8-.7-3.227.971-3.735,2.215-.342.9-.027,1.017.515.6,1.387-.988,3.047-.741,7.094,1.088-2.446.777-6.657,2.368-9.473.495.413-1.551-.085-1.479-.346-.905-.38.815-.727,1.689-1.114,2.422-.177.353-.393.411-.863.325a7.315,7.315,0,0,1-1.712-.58c1.232-2.136.73-2.621.264-2-1.563,2.281-3.221,2.722-6.077,2.443,1.516-2.226,1.059-3.51.363-2.307a6.058,6.058,0,0,1-3.979,2.58c-4.007.915-12.532,1.374-15.045-1.456-.715-.805-.864-.439-1.405.291a4.058,4.058,0,0,1-4.5,1.277c-1.827-.84-2.083-3.27-2.3-4.666-.668-4.409-1.006-9.287-1.894-13.469C620.323,82.507,619.578,84.854,619.627,85.069Zm50.061-2.036c-1.564.656-8.61,2.921-9.982,3.511-.09.039-.135.056-.174.172-.054.163-.3.805-.372,1.093-.031.117.074.113.17.076.191-.077.508-.258.73-.335,1.141-.4,7.79-2.634,9.18-3.188a.346.346,0,0,0,.209-.181c.084-.194.287-.758.364-1.035C669.845,83.031,669.782,82.99,669.688,83.033Zm-36.83-2.606c-1.563.654-5.1,2.065-6.475,2.655-.09.04-.135.056-.173.173-.055.163-.222.7-.3.987-.03.117.075.115.17.076.191-.077.432-.22.648-.311,1.081-.45,4.368-1.8,5.754-2.358a.351.351,0,0,0,.211-.181c.083-.192.213-.651.289-.928C633.015,80.426,632.953,80.383,632.858,80.427Zm-4.288-1.2c-1.563.654-5.1,2.065-6.476,2.653-.089.041-.135.058-.173.174-.054.163-.222.7-.3.988-.03.117.076.113.172.076.189-.077.431-.22.647-.309,1.082-.454,4.368-1.806,5.756-2.36a.348.348,0,0,0,.209-.181c.083-.194.213-.651.289-.929C628.726,79.229,628.664,79.188,628.569,79.231Zm-52.24,26.059c-1.564.654-7.878,2.8-9.25,3.387-.09.041-.134.058-.173.174-.055.161-.223.7-.3.988-.029.117.075.113.171.076.19-.077.432-.22.647-.311,1.081-.45,7.142-2.537,8.529-3.089a.358.358,0,0,0,.21-.181c.084-.194.213-.652.29-.93C576.488,105.289,576.424,105.248,576.33,105.291Zm32.014-.232c-.264.4-.593,1-.911,1.49-.459-.311-1.058-.669-1.466-.935-.22-.143-.312-.125-.448.084-.238.365-.6.909-.85,1.362-.09.161-.068.3.17.442.434.251,1.124.647,1.536.863.13.067.238.024.337-.112.226-.309.471-.767.83-1.346.61.358,1.11.675,1.589.915a.2.2,0,0,0,.3-.066,11.314,11.314,0,0,0,.851-1.323c.125-.235.094-.325-.111-.453-.316-.2-1.1-.7-1.485-.948C608.5,104.913,608.427,104.932,608.344,105.059ZM538.57,99.923a.832.832,0,0,1-.717.521c-.377.031-.525-.424-.554-.677.052-.328.3-.859.565-.838C538.24,98.955,538.626,99.643,538.57,99.923Zm-1.768.4a1.194,1.194,0,0,0,1.075,1.086c.412.015.792-.4.955-.879a.5.5,0,0,1,.09.333c-.117,1.1-1.759,2.772-2.7,3.174a6.379,6.379,0,0,1-3.6.329c-.169-.031-.336.26-.127.335a7.136,7.136,0,0,0,3.965.322,5.137,5.137,0,0,0,2.921-4.694c-.007-1.14-.728-2.373-1.4-2.376C537.171,97.952,536.772,99.627,536.8,100.327ZM591.725,92c-.286.463-.674,1.165-.891,1.589-.089.172-.085.294.1.394.374.2,1.029.56,1.5.807.194.1.311.087.4-.056.259-.422.634-1.07.875-1.482.086-.148.111-.261-.033-.348-.441-.27-1.162-.7-1.607-.963C591.889,91.837,591.81,91.866,591.725,92Zm10.4,6.382c-1.162,1.316-4.013,3.179-9.924,2.867,1.765-1.145,3.557-3.025,5.2-3.722A4.334,4.334,0,0,1,602.123,98.385Zm-54.879.674a8.729,8.729,0,0,1-4.969.455c1.095-1.3,2.994-2.092,4.245-2.765C546.688,97.4,547.024,98.206,547.244,99.058Zm14.574-.153a13.191,13.191,0,0,1-2.375,1.5,11.331,11.331,0,0,1-1.728-1.035c1.259-1.8,2.012-2.606,2.6-2.586C560.866,96.8,561.272,97.552,561.819,98.905Zm51.255-4.154a1.52,1.52,0,0,1-2.9.013c.3-.876.737-1.431,1.271-1.439C611.915,93.319,612.467,93.741,613.074,94.752Zm-2.905-2.425c-.674,1.152-1.3,3.069-.721,4.285.762,1.589,3.243,2.371,4.288-.494a8.521,8.521,0,0,1,.833,2.407c-1.354,2.351-2.05,1.927-4.779.462a1.2,1.2,0,0,0-1.407.051,22.835,22.835,0,0,1-7.114,2.208c1.366-1.308,2.539-3.585,1.811-4.806-1.131-1.952-4.343-1.466-5.815-.447-2.558,1.769-5.079,3.766-7.09,5.168a7,7,0,0,1-3.291-1.287c.375-1.559.2-1.885-.48-1.09-2.36,2.976-9.841,3.273-12.408,1.665,1.749-1.451,1.326-2.562-.1-3.293-1.477-.753-5.295-1.41-6.733,1.485-.38.835-.372,1.423.316,1.081s1.542-.219,2.828.552a9.935,9.935,0,0,1-8.848.831,4.477,4.477,0,0,0,.872-5.025c-.978-2.263-2.243-1.711-3.5-.407a6.135,6.135,0,0,0-1.928,5.611,9.572,9.572,0,0,1-5.373.3c-1.769-.478-2.593-1.613-3.257-3.483-.726-2.182-1.148-4.088-1.748-6.176-.152-.493-.936.518-.363,3.318a23.379,23.379,0,0,0-3.054,1.87,6.405,6.405,0,0,0-1.9,3.805c-.094.542-.029.728.488.8a6.554,6.554,0,0,0,3.918-.243,7.07,7.07,0,0,0,1.9-1.622c.817,2.251,1.743,3.506,3.534,3.979,2.193.58,5.288,0,7.827-1.2,1.278.55,6.176,3.449,12.915-.942,4.338,3.442,12.181,1.52,14.191-.48a4.3,4.3,0,0,0,2.322,1.8l-.5,2.225c-.19.734.307.927.524.194.3-.935.422-1.331.745-2.2,3.956.713,13.411.36,18.649-2.059.852-.4.8-.4,1.751.085,2.489,1.275,3.788,1.582,5.2-.966a6.667,6.667,0,0,0-.657-7.138C612.583,91.079,611.29,90.629,610.169,92.327ZM557.88,89.55c-.285.463-.674,1.165-.89,1.589-.088.171-.085.294.1.4.375.2,1.029.559,1.5.8.194.1.311.089.4-.056.259-.422.634-1.07.875-1.482.087-.148.111-.261-.033-.348-.44-.269-1.161-.7-1.605-.964C558.044,89.384,557.965,89.413,557.88,89.55Zm22.212-.03a4.848,4.848,0,0,0-.4,1.14,5.4,5.4,0,0,0,.606.879,6.71,6.71,0,0,1,1.254,5.158c-.026.184-.078.36.015.357.472-.025.744-1.638.73-2.493a8.116,8.116,0,0,0-1.912-5.008C580.267,89.412,580.173,89.359,580.093,89.52Zm29.333-2.542c-.285.465-.673,1.165-.89,1.589-.09.172-.086.3.1.4.373.2,1.029.559,1.5.807.194.1.311.087.4-.056.259-.422.634-1.07.875-1.482.086-.148.111-.261-.033-.348-.441-.269-1.162-.7-1.606-.964C609.59,86.812,609.511,86.844,609.425,86.978ZM602.777,83.3a2.134,2.134,0,0,1,.481,1.354,2.274,2.274,0,0,1-.044.516,3.064,3.064,0,0,1-.467-.187c-.135-.069-.517-.217-1.2-.472-.263-.049-.006-.475-.006-.475a2.893,2.893,0,0,1,.457-.615l.256-.169C602.417,83.2,602.668,83.143,602.777,83.3Zm-.149-1.265a3.463,3.463,0,0,0-2.062,2.442c-.166.557-.058.879.242,1.065a6.852,6.852,0,0,0,1.833.682c-.877,1.467-3.7,3.365-4.222,3.663-.613.356-.5.746.26.4,2.848-1.282,4.248-2.647,4.874-3.85.195.042.362.1.568.153.34.092.264.128.445-.409a5.671,5.671,0,0,0,.171-.56l-.852-.292.082-.3a4.8,4.8,0,0,0-.23-2.034C603.475,82.235,603.094,81.955,602.629,82.036Zm-40.4-.258c-1.563.652-7.877,2.8-9.25,3.386-.09.04-.135.056-.172.173-.055.163-.223.7-.3.988-.03.116.076.113.172.076.19-.077.432-.22.647-.309,1.081-.452,7.142-2.537,8.53-3.091a.351.351,0,0,0,.209-.181,9.7,9.7,0,0,0,.289-.93C562.387,81.775,562.323,81.733,562.229,81.778Zm32.172-.444c-1.563.655-8.61,2.922-9.982,3.51-.09.041-.135.058-.173.174-.054.163-.3.8-.373,1.093-.03.117.076.115.172.076.189-.077.509-.258.729-.335,1.141-.4,7.791-2.634,9.179-3.187a.345.345,0,0,0,.209-.181c.085-.194.288-.758.365-1.035C594.558,81.332,594.5,81.292,594.4,81.334Zm-47.427.981a2.14,2.14,0,0,1,.48,1.354,2.267,2.267,0,0,1-.043.516,2.988,2.988,0,0,1-.466-.189c-.137-.068-.518-.215-1.2-.47-.263-.048-.007-.475-.007-.475a2.91,2.91,0,0,1,.457-.615l.256-.169C546.613,82.211,546.864,82.157,546.973,82.315Zm-.149-1.265a3.46,3.46,0,0,0-2.061,2.442c-.168.557-.059.877.241,1.065a6.831,6.831,0,0,0,1.832.682c-.877,1.466-3.7,3.365-4.221,3.664-.613.355-.5.743.26.4,2.847-1.281,4.248-2.647,4.872-3.85.2.041.363.1.569.153.339.092.263.128.444-.409a5.776,5.776,0,0,0,.171-.562l-.852-.291.083-.3a4.8,4.8,0,0,0-.231-2.034C547.67,81.249,547.289,80.968,546.825,81.05ZM614.413,78.5c-1.563.652-5.925,2.392-7.3,2.981-.09.043-.136.058-.174.174-.053.163-.221.7-.3.987-.031.117.075.113.171.076.189-.077.431-.219.647-.309,1.081-.452,5.19-2.134,6.576-2.688a.352.352,0,0,0,.21-.181,9.644,9.644,0,0,0,.289-.929C614.572,78.493,614.508,78.452,614.413,78.5Zm-99.274,21.99a.823.823,0,0,1-.717.519c-.377.033-.525-.422-.553-.675.051-.327.3-.86.563-.84C514.809,99.518,515.195,100.207,515.139,100.486Zm-1.768.406a1.2,1.2,0,0,0,1.075,1.084c.411.015.792-.4.954-.879a.512.512,0,0,1,.091.333c-.118,1.1-1.76,2.77-2.7,3.174a6.37,6.37,0,0,1-3.6.329c-.169-.03-.335.26-.126.335a7.135,7.135,0,0,0,3.965.322,5.138,5.138,0,0,0,2.921-4.694c-.006-1.14-.728-2.371-1.4-2.376C513.74,98.518,513.34,100.192,513.371,100.892Zm3.729-6.214a6.943,6.943,0,0,1-4.64,1.862,3.568,3.568,0,0,1-2.2-.672.246.246,0,0,0-.371.053,6.758,6.758,0,0,0-1,2.3c-.029.143-.058.315.021.348a.184.184,0,0,0,.216-.12,4.581,4.581,0,0,1,.647-1.369.167.167,0,0,1,.189.016,4.745,4.745,0,0,0,2.751.652c1.466-.074,4.1-.958,4.527-2.941.023-.1.029-.179,0-.2S517.164,94.612,517.1,94.678Zm5.926-10.084a2.128,2.128,0,0,1,.48,1.352,2.209,2.209,0,0,1-.044.516,2.893,2.893,0,0,1-.467-.187c-.136-.069-.518-.216-1.2-.472-.264-.048-.006-.475-.006-.475a2.918,2.918,0,0,1,.457-.615l.256-.168C522.664,84.49,522.916,84.435,523.026,84.594Zm-.149-1.267a3.47,3.47,0,0,0-2.062,2.442c-.166.557-.058.879.243,1.065a6.829,6.829,0,0,0,1.832.682c-.877,1.467-3.7,3.365-4.222,3.664-.613.357-.5.744.261.4,2.847-1.283,4.247-2.649,4.872-3.85.195.041.364.1.568.151.341.093.264.13.446-.409a5.613,5.613,0,0,0,.171-.56l-.851-.293.081-.3a4.8,4.8,0,0,0-.229-2.033C523.722,83.526,523.341,83.247,522.876,83.327Zm1.666,15.683.137.593a10.889,10.889,0,0,1-4.417.432c-.144,0-.073-.063,0-.159a14.443,14.443,0,0,1,3.871-2.869C524.253,97.706,524.4,98.408,524.542,99.011Zm3.869-15.649c-.193.338-.833,1.365-1,1.776-.025.071-.072.108-.023.205a6.231,6.231,0,0,1,.729,1.844c.891,4.486,1.93,11.633,2.461,14.528a1.958,1.958,0,0,1-3.146.626c-1.416-1.209-1.7-2.872-2.088-4.44-.385-1.615-.687-3.5-1.073-5.265-.145-.58-.245-.506-.342-.023-.1.434-.2.91-.3,1.319a1.737,1.737,0,0,0,.023.866c.048.24.133.6.182.889a9.158,9.158,0,0,0-3.893,2.936,7.807,7.807,0,0,0-1.207,3.028c-.1.434-.114.656.3.728a13.431,13.431,0,0,0,2.983.09,1.547,1.547,0,0,0,1.069-.386,15.8,15.8,0,0,0,1.754-1.548c.627,2.58,2.075,4.869,4.03,4.507,2.912-.506,2.646-4.494,2.381-6.761-.217-2-1.214-7.35-1.746-10.436.217-.291.622-.866.888-1.275a.426.426,0,0,0-.046-.547,6.452,6.452,0,0,1-1.639-2.686.214.214,0,0,0-.113-.137C528.545,83.2,528.484,83.265,528.411,83.362Zm4.509-6.315c-1.563.654-5.924,2.394-7.3,2.984-.09.04-.135.058-.172.174-.056.161-.223.7-.3.986-.03.117.076.115.172.076.189-.077.431-.22.646-.309,1.082-.452,5.191-2.134,6.577-2.688a.345.345,0,0,0,.209-.181,9.676,9.676,0,0,0,.289-.928C533.078,77.045,533.015,77,532.92,77.047ZM491.948,92.062c-.286.463-.674,1.163-.891,1.587-.089.172-.085.3.105.4.374.2,1.029.559,1.5.807.193.1.311.087.4-.056.259-.422.635-1.07.875-1.482.087-.148.111-.261-.033-.348-.441-.269-1.162-.7-1.606-.963C492.111,91.9,492.032,91.926,491.948,92.062ZM451.88,88.855c-.286.465-.674,1.165-.891,1.589-.088.173-.085.294.105.4.374.2,1.029.559,1.5.8.193.1.31.089.4-.056.259-.421.634-1.07.875-1.48.087-.148.111-.261-.033-.35-.441-.269-1.161-.7-1.605-.963C452.044,88.689,451.964,88.72,451.88,88.855Zm36.632-1.926c-.058.141-.145.33-.2.473-.063.237.06.4.185.214a1.83,1.83,0,0,1,.541-.559,2.677,2.677,0,0,1,1.661-.386,4.988,4.988,0,0,1,1.494.465c-.008.113-2.27,1.234-2.624,1.458-.154.1-.344.274-.31.452.026.136.246.164.427.1.891-.324,1.211-.3,1.932-.608a5.725,5.725,0,0,0,1.43-.984.439.439,0,0,0,.239-.09,2.593,2.593,0,0,0,.539-1.191c-.03-.182-.681-.246-.867-.291a11.846,11.846,0,0,0-1.925-.536A2.514,2.514,0,0,0,488.511,86.929ZM479.318,84.5c-1.563.654-8.61,2.921-9.981,3.51-.09.041-.135.057-.173.174-.055.163-.3.8-.373,1.091-.031.117.075.115.17.076.191-.077.509-.258.73-.334,1.141-.4,7.791-2.636,9.179-3.189a.35.35,0,0,0,.209-.181c.084-.194.288-.756.364-1.033C479.475,84.5,479.412,84.459,479.318,84.5Zm21.256,14.134c-1.346,1.273-3.9,2.458-8.691,2.543,2.206-1.711,4.118-3.4,5.228-3.694a3.26,3.26,0,0,1,.778-.1A3.756,3.756,0,0,1,500.574,98.636Zm-42.28-12.71c.8,4.706.93,9.3,1.589,13.682.509,3.541,2.4,4.691,4.409,5.194,4.041.887,10.031-.506,13.861-2.8,1.893,2.01,5.315,1.839,7.578-.465.419-.419.454-.486.737-.12a4.133,4.133,0,0,0,2.147,1.612L488,104.671c-.282.746.187.9.516.215a14.017,14.017,0,0,0,.75-1.673c3.485.646,10.735-.117,12.2-4.106,1.355-4.091-3.038-4.512-5.1-2.943-1.451,1.12-3.432,2.77-6,4.936a5.078,5.078,0,0,1-2.988-1.664c-.546-.618-.853-.388-1.364.136-1.626,1.587-4.409,2.483-6.221,1.375,1.816-1.482,1.415-2.8-.011-3.524-1.476-.751-4.951-1.33-6.389,1.564-.379.833-.422,1.415.267,1.075a2.974,2.974,0,0,1,3.071.61c-2.943,1.548-9.151,3.257-13.137,1.456-2.075-.945-2.683-2.282-3.084-6.2-.476-3.574-.353-7.941-1.429-11.954-.015-.043-.035-.063-.058-.063C458.788,83.911,458.249,85.73,458.295,85.926Zm44.449-2.982c-.071.013-.135.115-.163.261l-.328,1.669a1.776,1.776,0,0,0,0,.92c.192,1.1.446,2.2.664,3.285.536,2.609,1.435,7.161,1.9,9.57a38.341,38.341,0,0,1,.643,5.248c.014.311.189.292.268.049a9.1,9.1,0,0,0,.4-2.836,29.158,29.158,0,0,0-.636-4.51c-.437-2.162-1.259-6.5-1.674-8.462-.353-1.673-.693-3.347-.895-4.967C502.894,82.985,502.813,82.926,502.744,82.944ZM454.064,95.92a.82.82,0,0,1,.524.228,4.741,4.741,0,0,1,1.047,1.3,1.92,1.92,0,0,1-1.366.751,1.7,1.7,0,0,1-1.16-.591.6.6,0,0,1-.046-.776,2.29,2.29,0,0,1,.546-.659.869.869,0,0,1,.342-.251A.369.369,0,0,1,454.064,95.92Zm-8.92-13.883c-.158.4-.363.779-.523,1.206-.157.378-.068.422-.022.866.722,4.684,1.174,13.434,1.848,17,.454,2.31,1.769,3.478,3.779,3.6,1.875.186,5.393-.751,6-1.64a7.218,7.218,0,0,0-.911-8.9,1.58,1.58,0,0,0-.865-.5,1.484,1.484,0,0,0-.842.409,5.686,5.686,0,0,0-1.73,3.53,2.262,2.262,0,0,0,.41,1.89,2.4,2.4,0,0,0,1.684.887,2.351,2.351,0,0,0,2.163-1.776,2.96,2.96,0,0,1,.25,2.414c-.877,1.024-5.1,2.157-7.39.956-1.641-.948-1.983-4.32-2.3-8.173-.275-3.36-.7-9.512-1.165-11.722-.081-.315-.129-.476-.182-.455C445.3,81.627,445.241,81.786,445.145,82.037Zm12.713-2.865c-1.563.654-5.1,2.065-6.475,2.655-.089.039-.134.056-.172.172-.055.163-.224.7-.3.989-.031.117.075.113.17.074.191-.076.432-.22.648-.311,1.081-.45,4.368-1.8,5.755-2.356a.363.363,0,0,0,.21-.181c.083-.194.213-.652.289-.93C458.015,79.17,457.953,79.129,457.857,79.172ZM454,77.593c-1.563.656-5.1,2.067-6.476,2.655-.09.04-.135.058-.173.174-.054.163-.222.7-.3.987-.03.117.076.113.171.076.19-.077.432-.22.647-.311,1.081-.45,4.369-1.8,5.756-2.358a.348.348,0,0,0,.209-.181c.083-.194.213-.652.289-.93C454.158,77.591,454.095,77.552,454,77.593Zm46.226,1.267a.681.681,0,0,0,.225.892,9.094,9.094,0,0,0,1.13.685,5.091,5.091,0,0,0-.876.437,5.255,5.255,0,0,0-.191.731c-.011.074.043.145.125.1a21.564,21.564,0,0,1,4.1-1.283,5.091,5.091,0,0,0,.443-.85c.067-.141,0-.179-.1-.153a6.313,6.313,0,0,1-1.842.242,3.659,3.659,0,0,1-2.2-1.139c.008-.178,1.041-.623,1.276-.6.676.058.772.746.95.741.216-.006.555-.8.556-1.014a1.3,1.3,0,0,0-.993-.841A4.608,4.608,0,0,0,500.226,78.86Zm5.6-6.373c-1.563.655-6.9,2.625-8.273,3.215-.09.039-.135.056-.173.172-.054.163-.222.7-.3.988-.03.117.074.115.171.076.19-.077.432-.22.647-.311,1.081-.45,6.165-2.363,7.552-2.917a.343.343,0,0,0,.209-.181,9.557,9.557,0,0,0,.29-.928C505.986,72.484,505.922,72.443,505.828,72.486Z" transform="translate(-269.597)"/><g transform="translate(100.486 82.036)"><path class="a" d="M126.08,141.405c-.263.4-.593,1-.91,1.492-.459-.314-1.058-.671-1.466-.937-.22-.143-.312-.125-.449.082-.238.366-.6.91-.849,1.364-.089.161-.067.3.169.442.435.251,1.124.647,1.536.863.131.067.238.025.337-.113.225-.307.47-.767.828-1.346.613.36,1.111.677,1.59.917a.206.206,0,0,0,.306-.067,11.592,11.592,0,0,0,.851-1.321c.125-.237.092-.325-.112-.454-.317-.2-1.1-.7-1.486-.948C126.241,141.258,126.163,141.277,126.08,141.405Zm12.216-.1c-1.564.654-6.9,2.624-8.273,3.214-.09.041-.135.056-.172.172-.056.163-.223.7-.3.987-.03.117.074.115.171.076.191-.076.432-.218.647-.307,1.081-.453,6.167-2.366,7.553-2.92a.349.349,0,0,0,.209-.181c.084-.194.214-.651.291-.928C138.454,141.3,138.39,141.261,138.3,141.3Zm-27.941-6.957c.059.084.059.113,0,.173-.606.445-2.723,1.249-3.636.55-.544-.417-.651-1.393.12-3.227A6.185,6.185,0,0,1,110.355,134.346Zm-3.763-4.8-.325,1.678c-.077.319-.077.376.151.457-.828,1.807-1.937,4.712-.286,5.708.884.582,2.45.284,3.723-.467a2.844,2.844,0,0,0,.8-.712,4.193,4.193,0,0,0,.5-3.957c-.621-1.31-2.133-2.279-4.167-2.862a.891.891,0,0,0-.283-.079C106.643,129.343,106.615,129.4,106.592,129.545Zm26.421-3.735c-.265.4-.595,1-.91,1.49-.459-.31-1.06-.67-1.467-.935-.22-.143-.312-.125-.449.082-.238.365-.6.91-.85,1.364-.089.161-.067.3.169.442.436.251,1.124.649,1.536.861.131.069.238.026.337-.11.225-.309.47-.769.828-1.346.613.358,1.111.675,1.592.915a.205.205,0,0,0,.3-.066,11.756,11.756,0,0,0,.851-1.323c.125-.235.092-.325-.112-.453-.317-.2-1.1-.7-1.487-.948C133.173,125.664,133.1,125.684,133.014,125.811Zm-24.89-1.973c-.264.406-.595,1-.912,1.492-.457-.312-1.058-.67-1.466-.935-.22-.143-.312-.127-.449.082-.238.365-.6.909-.85,1.362-.089.161-.067.3.169.444.436.251,1.124.647,1.536.861.131.069.238.026.337-.112.225-.309.47-.767.828-1.346.613.36,1.111.675,1.592.917a.2.2,0,0,0,.3-.067,11.637,11.637,0,0,0,.851-1.321c.125-.236.092-.325-.112-.453-.317-.2-1.1-.7-1.487-.948C108.283,123.691,108.208,123.711,108.124,123.837Zm40.973-.37c-4.407,1.515-8.037,4.254-9.366,6.453-.628,1.032-.845,2.057.2,2.558,3.36,1.573,17.294.205,25.32-.656,2.91-.37,4.256.763,4.609,1.653-6.27.787-11.844,1.531-17.4,1.985-5.171.4-13.774,1.446-16.972-.983-.953-.731-1.107-.877-1.934.117-2.041,2.493-5.4,2.645-6.814.449-.986-1.615-.966-3.227-1.582-5.253-.348-1.042-.715-.9-.894-.016-.5,2.276-2.854,3.606-4.308,2.99-.477-.3-.5-.112-.562.212-.151.943-.015,2.072,1.641,2.011-1.471,4.837-5.6,7.977-12.936,5.646-.763-.271-1.078.332-.1.743,8.674,3.761,12.448.529,14.027-6.508a4.086,4.086,0,0,0,2.489-3.115c.5,2.338.8,5.066,2.531,6.329,1.9,1.329,4.814.83,6.661-1.786.432-.615.6-.412,1.221.084,3.574,2.813,12.052,1.678,17.732,1.165,5.649-.521,11.867-1.323,16.893-2.036.89-.312,2.1-2.777,1.388-4.257-.823-1.647-2.749-1.674-6.323-1.3-8.75.978-16.382,1.811-22.682.877-1.378-.215-1.472-.506-.851-1.125a19.59,19.59,0,0,1,7.174-4.2C148.462,125.411,149.729,123.226,149.1,123.467Zm-18.267-1.234c-.288.463-.675,1.165-.892,1.589-.089.171-.085.294.105.394.373.2,1.029.559,1.5.807.194.1.311.087.4-.056.26-.422.634-1.07.874-1.482.087-.148.112-.261-.033-.348-.44-.269-1.16-.7-1.605-.964C130.993,122.067,130.914,122.1,130.83,122.233Zm-8.8-3.169c-1.563.654-5.924,2.394-7.3,2.984-.089.039-.135.056-.172.174-.055.161-.222.7-.3.986-.029.117.076.115.173.076.189-.077.432-.22.646-.309,1.083-.452,5.19-2.134,6.577-2.688a.347.347,0,0,0,.21-.181,9.518,9.518,0,0,0,.289-.928C122.19,119.062,122.128,119.021,122.033,119.064Zm-9.909-1.393c-1.563.652-5.1,2.065-6.474,2.654-.09.041-.136.057-.174.172-.054.163-.222.7-.3.989-.031.117.074.113.171.074.189-.076.431-.219.647-.307,1.081-.454,4.367-1.806,5.754-2.36a.352.352,0,0,0,.21-.181c.084-.194.212-.652.289-.93C112.281,117.667,112.218,117.628,112.123,117.671Zm35.526-.917c-1.563.654-6.9,2.624-8.273,3.214-.089.041-.133.056-.172.173-.054.163-.222.7-.3.987-.031.117.074.115.171.076.189-.076.432-.219.647-.309,1.081-.452,6.165-2.365,7.553-2.918a.354.354,0,0,0,.209-.181,9.59,9.59,0,0,0,.289-.928C147.807,116.752,147.744,116.711,147.649,116.754Zm-40.21-.059c-1.563.652-5.1,2.065-6.475,2.654-.089.041-.135.056-.173.174-.056.161-.224.7-.3.988-.03.117.076.113.171.076.191-.077.432-.22.647-.309,1.083-.453,4.369-1.806,5.756-2.359a.357.357,0,0,0,.21-.181,9.64,9.64,0,0,0,.289-.93C107.6,116.691,107.534,116.652,107.439,116.694Z" transform="translate(-100.486 -116.678)"/></g></g></svg>