<svg width="86" height="41" viewBox="0 0 86 41" fill="none" xmlns="http://www.w3.org/2000/svg">
<path fill-rule="evenodd" clip-rule="evenodd" d="M22.5442 22.4141C23.7209 32.3241 31.809 39.9167 41.7965 40.49C41.8098 40.4908 41.8231 40.4915 41.8363 40.4922L42.2271 40.5148L42.1818 40.1281C42.1803 40.1146 42.1787 40.1012 42.1771 40.0878C41.0003 30.1778 32.9123 22.5852 22.9247 22.0119C22.9115 22.0111 22.8982 22.0104 22.8849 22.0096L22.4941 21.9871L22.5395 22.3738C22.541 22.3873 22.5426 22.4007 22.5442 22.4141ZM41.7462 40.0628C32.024 39.4694 24.1562 32.0839 22.9751 22.4391C32.6973 23.0325 40.565 30.418 41.7462 40.0628Z" fill="#9DA4AE"/>
<path fill-rule="evenodd" clip-rule="evenodd" d="M1.38174 40.4902C1.36943 40.4909 1.35712 40.4916 1.34481 40.4922L0.951172 40.5148L0.996483 40.1281C0.998055 40.1146 0.999641 40.1012 1.00124 40.0878C2.18089 30.1797 10.2703 22.5866 20.2564 22.0117C20.2687 22.011 20.281 22.0103 20.2934 22.0096L20.687 21.9871L20.6417 22.3738C20.6401 22.3872 20.6385 22.4007 20.6369 22.4141C19.4601 32.3222 11.3706 39.9153 1.38174 40.4902ZM1.43211 40.063C2.61616 30.4199 10.4853 23.0339 20.2061 22.4389C19.0248 32.0819 11.1558 39.468 1.43211 40.063Z" fill="#9DA4AE"/>
<path fill-rule="evenodd" clip-rule="evenodd" d="M41.7966 0.542647C31.8052 1.11597 23.7166 8.7128 22.5439 18.6186C22.5424 18.631 22.5409 18.6435 22.5395 18.656L22.4941 19.0456L22.8849 19.023C22.8982 19.0223 22.9114 19.0215 22.9247 19.0208C32.916 18.4474 41.0047 10.8506 42.1774 0.944866C42.1789 0.932382 42.1804 0.919895 42.1818 0.907404L42.2271 0.517822L41.8363 0.540405C41.8231 0.54114 41.8098 0.541887 41.7966 0.542647ZM22.9747 18.5936C24.1519 8.95285 32.0204 1.56315 41.7466 0.969812C40.5693 10.6106 32.7009 18.0003 22.9747 18.5936Z" fill="#9DA4AE"/>
<path fill-rule="evenodd" clip-rule="evenodd" d="M85.2644 1.00128C84.0877 10.9112 75.9996 18.5039 66.012 19.0772C65.9988 19.0779 65.9855 19.0787 65.9723 19.0794L65.5815 19.102L65.6268 18.7152C65.6283 18.7018 65.6299 18.6884 65.6315 18.6749C66.8082 8.76497 74.8963 1.17235 84.8839 0.599049C84.8971 0.598288 84.9104 0.59754 84.9236 0.596803L85.3145 0.574219L85.2691 0.960979C85.2676 0.974417 85.266 0.987852 85.2644 1.00128ZM66.0624 18.65C75.7846 18.0565 83.6523 10.6711 84.8335 1.02624C75.1113 1.61968 67.2436 9.00512 66.0624 18.65Z" fill="#9DA4AE"/>
<path fill-rule="evenodd" clip-rule="evenodd" d="M63.4512 19.0772C53.4608 18.501 45.3727 10.9083 44.196 1.00112C44.1945 0.987742 44.1929 0.974362 44.1913 0.960979L44.1488 0.574219L44.5397 0.596803C44.5527 0.597533 44.5658 0.598275 44.5789 0.599029C54.5667 1.17489 62.655 8.76761 63.8318 18.6749C63.8334 18.6884 63.835 18.7018 63.8365 18.7152L63.8818 19.102L63.491 19.0794C63.4778 19.0787 63.4645 19.0779 63.4512 19.0772ZM44.6269 1.02609C45.808 10.6681 53.6757 18.0537 63.4009 18.6499C62.2196 9.00704 54.3505 1.62105 44.6269 1.02609Z" fill="#9DA4AE"/>
<mask id="path-6-inside-1_25568_264464" fill="white">
<path d="M85.2691 40.0661L85.3145 40.4556L84.9236 40.4331C74.9042 39.8741 66.7879 32.2546 65.6268 22.3146L65.5815 21.925L65.9723 21.9476C75.9917 22.5038 84.108 30.1232 85.2691 40.0661ZM84.8274 39.9955C83.6436 30.3604 75.7821 22.9781 66.0657 22.3824C67.2495 32.0175 75.111 39.3998 84.8274 39.9955Z"/>
</mask>
<path d="M85.2691 40.0661L87.2556 39.8341L87.2557 39.835L85.2691 40.0661ZM85.3145 40.4556L87.3011 40.2246L87.5761 42.5897L85.1991 42.4523L85.3145 40.4556ZM84.9236 40.4331L85.035 38.4362L85.039 38.4364L84.9236 40.4331ZM65.6268 22.3146L63.6403 22.5467L63.6402 22.5457L65.6268 22.3146ZM65.5815 21.925L63.5948 22.1561L63.3198 19.791L65.6968 19.9284L65.5815 21.925ZM65.9723 21.9476L65.8614 23.9446L65.8569 23.9443L65.9723 21.9476ZM84.8274 39.9955L86.8124 39.7516L87.1057 42.1389L84.705 41.9917L84.8274 39.9955ZM66.0657 22.3824L64.0806 22.6263L63.7873 20.239L66.1881 20.3861L66.0657 22.3824ZM85.2691 40.0661L87.2557 39.835L87.3011 40.2246L85.3145 40.4556L83.3278 40.6867L83.2825 40.2971L85.2691 40.0661ZM85.3145 40.4556L85.1991 42.4523L84.8083 42.4297L84.9236 40.4331L85.039 38.4364L85.4298 38.459L85.3145 40.4556ZM84.9236 40.4331L84.8122 42.43C73.8261 41.8171 64.9147 33.4569 63.6403 22.5467L65.6268 22.3146L67.6133 22.0826C68.661 31.0524 75.9823 37.9311 85.035 38.4362L84.9236 40.4331ZM65.6268 22.3146L63.6402 22.5457L63.5948 22.1561L65.5815 21.925L67.5681 21.694L67.6134 22.0836L65.6268 22.3146ZM65.5815 21.925L65.6968 19.9284L66.0877 19.951L65.9723 21.9476L65.8569 23.9443L65.4661 23.9217L65.5815 21.925ZM65.9723 21.9476L66.0831 19.9507C77.0699 20.5605 85.9813 28.9213 87.2556 39.8341L85.2691 40.0661L83.2826 40.298C82.2348 31.3252 74.9135 24.447 65.8614 23.9446L65.9723 21.9476ZM84.8274 39.9955L82.8423 40.2394C81.7765 31.5644 74.7012 24.9155 65.9433 24.3786L66.0657 22.3824L66.1881 20.3861C76.863 21.0406 85.5107 29.1563 86.8124 39.7516L84.8274 39.9955ZM66.0657 22.3824L68.0508 22.1385C69.1166 30.8135 76.1919 37.4623 84.9497 37.9992L84.8274 39.9955L84.705 41.9917C74.03 41.3373 65.3824 33.2215 64.0806 22.6263L66.0657 22.3824Z" fill="#9DA4AE" mask="url(#path-6-inside-1_25568_264464)"/>
<path fill-rule="evenodd" clip-rule="evenodd" d="M63.8321 22.3521C62.6537 32.2608 54.5648 39.8578 44.5788 40.428C44.5658 40.4288 44.5527 40.4295 44.5397 40.4302L44.1488 40.4528L44.1913 40.0632C44.1928 40.0508 44.1942 40.0384 44.1957 40.0259C45.374 30.1173 53.4627 22.5204 63.4513 21.9499C63.4645 21.9491 63.4778 21.9484 63.491 21.9476L63.8818 21.925L63.8365 22.3146C63.8351 22.3271 63.8336 22.3396 63.8321 22.3521ZM44.6266 40.001C54.3483 39.4117 62.2183 32.0217 63.4012 22.377C53.678 22.9676 45.8093 30.3572 44.6266 40.001Z" fill="#9DA4AE"/>
</svg>
