<svg width="242" height="102" viewBox="0 0 242 102" fill="none" xmlns="http://www.w3.org/2000/svg">
<g id="Vector" opacity="0.8">
<path d="M188.405 55.6069C190.862 79.9586 213.219 99.3918 241.271 101.469C238.814 77.0997 216.457 57.6839 188.405 55.6069ZM178.613 55.5933C150.557 57.5918 128.149 76.945 125.651 101.307C153.707 99.3087 176.114 79.9554 178.613 55.5933ZM125.745 1.17129C128.203 25.5317 150.56 44.9561 178.612 47.0331C176.154 22.6814 153.797 3.24822 125.745 1.17129Z" stroke="#D1D1D1" stroke-miterlimit="10"/>
<path d="M63.7631 55.4328C66.2208 79.7844 88.5777 99.2176 116.63 101.295C114.172 76.9255 91.8151 57.5097 63.7631 55.4328ZM53.9711 55.4191C25.9149 57.4176 3.50748 76.7708 1.00914 101.133C29.0654 99.1345 51.4728 79.7812 53.9711 55.4191ZM116.734 1.1587C88.6776 3.15722 66.2703 22.5279 63.772 46.8726C91.8283 44.8741 114.236 25.5209 116.734 1.1587ZM1.10324 0.997113C3.56094 25.3575 25.9179 44.782 53.9699 46.8589C51.5122 22.5072 29.1553 3.07404 1.10324 0.997113Z" stroke="#D1D1D1" stroke-miterlimit="10"/>
</g>
</svg>
