<svg width="86" height="41" viewBox="0 0 86 41" fill="none" xmlns="http://www.w3.org/2000/svg">
<path fill-rule="evenodd" clip-rule="evenodd" d="M63.4548 22.4141C62.2781 32.3241 54.1901 39.9167 44.2025 40.49C44.1892 40.4908 44.176 40.4915 44.1627 40.4922L43.7719 40.5148L43.8172 40.1281C43.8188 40.1146 43.8204 40.1012 43.822 40.0878C44.9987 30.1778 53.0867 22.5852 63.0743 22.0119C63.0876 22.0111 63.1008 22.0104 63.1141 22.0096L63.5049 21.9871L63.4596 22.3738C63.458 22.3873 63.4564 22.4007 63.4548 22.4141ZM44.2528 40.0628C53.9751 39.4694 61.8428 32.0839 63.024 22.4391C53.3017 23.0325 45.434 30.418 44.2528 40.0628Z" fill="#9DA4AE"/>
<path fill-rule="evenodd" clip-rule="evenodd" d="M84.6173 40.4902C84.6296 40.4909 84.6419 40.4916 84.6542 40.4922L85.0479 40.5148L85.0025 40.1281C85.001 40.1146 84.9994 40.1012 84.9978 40.0878C83.8181 30.1797 75.7287 22.5866 65.7426 22.0117C65.7303 22.011 65.718 22.0103 65.7057 22.0096L65.312 21.9871L65.3573 22.3738C65.3589 22.3872 65.3605 22.4007 65.3621 22.4141C66.5389 32.3222 74.6284 39.9153 84.6173 40.4902ZM84.5669 40.063C83.3829 30.4199 75.5137 23.0339 65.7929 22.4389C66.9742 32.0819 74.8432 39.468 84.5669 40.063Z" fill="#9DA4AE"/>
<path fill-rule="evenodd" clip-rule="evenodd" d="M44.2024 0.542647C54.1938 1.11597 62.2825 8.7128 63.4552 18.6186C63.4566 18.631 63.4581 18.6435 63.4596 18.656L63.5049 19.0456L63.1141 19.023C63.1008 19.0223 63.0876 19.0215 63.0744 19.0208C53.083 18.4474 44.9943 10.8506 43.8216 0.944866C43.8201 0.932382 43.8187 0.919895 43.8172 0.907404L43.7719 0.517822L44.1627 0.540405C44.1759 0.54114 44.1892 0.541887 44.2024 0.542647ZM63.0243 18.5936C61.8471 8.95285 53.9787 1.56315 44.2524 0.969812C45.4297 10.6106 53.2981 18.0003 63.0243 18.5936Z" fill="#9DA4AE"/>
<path fill-rule="evenodd" clip-rule="evenodd" d="M0.734629 1.00128C1.91136 10.9112 9.9994 18.5039 19.987 19.0772C20.0002 19.0779 20.0135 19.0787 20.0268 19.0794L20.4176 19.102L20.3723 18.7152C20.3707 18.7018 20.3691 18.6884 20.3675 18.6749C19.1908 8.76497 11.1027 1.17235 1.11516 0.599049C1.1019 0.598288 1.08864 0.59754 1.07538 0.596803L0.68457 0.574219L0.729882 0.960979C0.731452 0.974417 0.733034 0.987852 0.734629 1.00128ZM19.9367 18.65C10.2144 18.0565 2.34668 10.6711 1.16549 1.02624C10.8877 1.61968 18.7555 9.00512 19.9367 18.65Z" fill="#9DA4AE"/>
<path fill-rule="evenodd" clip-rule="evenodd" d="M22.5478 19.0772C32.5382 18.501 40.6263 10.9083 41.803 1.00112C41.8046 0.987742 41.8061 0.974362 41.8077 0.960979L41.8502 0.574219L41.4594 0.596803C41.4463 0.597533 41.4332 0.598275 41.4201 0.599029C31.4323 1.17489 23.344 8.76761 22.1672 18.6749C22.1656 18.6884 22.1641 18.7018 22.1625 18.7152L22.1172 19.102L22.508 19.0794C22.5213 19.0787 22.5345 19.0779 22.5478 19.0772ZM41.3721 1.02609C40.191 10.6681 32.3233 18.0537 22.5981 18.6499C23.7794 9.00704 31.6485 1.62105 41.3721 1.02609Z" fill="#9DA4AE"/>
<mask id="path-6-inside-1_25568_264396" fill="white">
<path d="M0.729882 40.0661L0.68457 40.4556L1.07538 40.4331C11.0948 39.8741 19.2112 32.2546 20.3723 22.3146L20.4176 21.925L20.0268 21.9476C10.0073 22.5038 1.89098 30.1232 0.729882 40.0661ZM1.17167 39.9955C2.35542 30.3604 10.2169 22.9781 19.9333 22.3824C18.7495 32.0175 10.8881 39.3998 1.17167 39.9955Z"/>
</mask>
<path d="M0.729882 40.0661L-1.25662 39.8341L-1.25673 39.835L0.729882 40.0661ZM0.68457 40.4556L-1.30204 40.2246L-1.57712 42.5897L0.799958 42.4523L0.68457 40.4556ZM1.07538 40.4331L0.963977 38.4362L0.959992 38.4364L1.07538 40.4331ZM20.3723 22.3146L22.3587 22.5467L22.3589 22.5457L20.3723 22.3146ZM20.4176 21.925L22.4042 22.1561L22.6793 19.791L20.3022 19.9284L20.4176 21.925ZM20.0268 21.9476L20.1376 23.9446L20.1421 23.9443L20.0268 21.9476ZM1.17167 39.9955L-0.813409 39.7516L-1.10671 42.1389L1.29405 41.9917L1.17167 39.9955ZM19.9333 22.3824L21.9184 22.6263L22.2117 20.239L19.8109 20.3861L19.9333 22.3824ZM0.729882 40.0661L-1.25673 39.835L-1.30204 40.2246L0.68457 40.4556L2.67118 40.6867L2.71649 40.2971L0.729882 40.0661ZM0.68457 40.4556L0.799958 42.4523L1.19077 42.4297L1.07538 40.4331L0.959992 38.4364L0.569182 38.459L0.68457 40.4556ZM1.07538 40.4331L1.18678 42.43C12.1729 41.8171 21.0843 33.4569 22.3587 22.5467L20.3723 22.3146L18.3858 22.0826C17.338 31.0524 10.0167 37.9311 0.963977 38.4362L1.07538 40.4331ZM20.3723 22.3146L22.3589 22.5457L22.4042 22.1561L20.4176 21.925L18.431 21.694L18.3856 22.0836L20.3723 22.3146ZM20.4176 21.925L20.3022 19.9284L19.9114 19.951L20.0268 21.9476L20.1421 23.9443L20.533 23.9217L20.4176 21.925ZM20.0268 21.9476L19.9159 19.9507C8.92912 20.5605 0.0177529 28.9213 -1.25662 39.8341L0.729882 40.0661L2.71638 40.298C3.76421 31.3252 11.0855 24.447 20.1376 23.9446L20.0268 21.9476ZM1.17167 39.9955L3.15674 40.2394C4.22253 31.5644 11.2978 24.9155 20.0557 24.3786L19.9333 22.3824L19.8109 20.3861C9.13599 21.0406 0.488305 29.1563 -0.813409 39.7516L1.17167 39.9955ZM19.9333 22.3824L17.9482 22.1385C16.8824 30.8135 9.80717 37.4623 1.04928 37.9992L1.17167 39.9955L1.29405 41.9917C11.969 41.3373 20.6167 33.2215 21.9184 22.6263L19.9333 22.3824Z" fill="#9DA4AE" mask="url(#path-6-inside-1_25568_264396)"/>
<path fill-rule="evenodd" clip-rule="evenodd" d="M22.1669 22.3521C23.3453 32.2608 31.4342 39.8578 41.4202 40.428C41.4332 40.4288 41.4463 40.4295 41.4594 40.4302L41.8502 40.4528L41.8077 40.0632C41.8062 40.0508 41.8048 40.0384 41.8033 40.0259C40.625 30.1173 32.5363 22.5204 22.5477 21.9499C22.5345 21.9491 22.5212 21.9484 22.508 21.9476L22.1172 21.925L22.1625 22.3146C22.164 22.3271 22.1654 22.3396 22.1669 22.3521ZM41.3724 40.001C31.6508 39.4117 23.7807 32.0217 22.5978 22.377C32.321 22.9676 40.1897 30.3572 41.3724 40.001Z" fill="#9DA4AE"/>
</svg>
