<svg width="1423" height="119" viewBox="0 0 1423 119" fill="none" xmlns="http://www.w3.org/2000/svg">
<path d="M1370.45 65.0604C1372.9 93.0234 1395.22 115.33 1423.24 117.704C1420.79 89.7211 1398.47 67.4342 1370.45 65.0604ZM1360.67 65.0486C1332.65 67.3549 1310.26 89.5879 1307.76 117.565C1335.78 115.259 1358.17 93.0256 1360.67 65.0486ZM1423.38 2.71419C1395.36 5.02042 1372.97 27.2734 1370.46 55.2304C1398.49 52.9242 1420.87 30.6912 1423.38 2.71419ZM1307.89 2.57499C1310.33 30.548 1332.66 52.8449 1360.67 55.2186C1358.23 27.2557 1335.91 4.94876 1307.89 2.57499Z" stroke="url(#paint0_linear_105_27270)" stroke-miterlimit="10"/>
<path d="M1245.96 64.9104C1248.41 92.8733 1270.73 115.18 1298.75 117.554C1296.3 89.5711 1273.98 67.2841 1245.96 64.9104ZM1236.18 64.8986C1208.16 67.2048 1185.77 89.4378 1183.27 117.415C1211.29 115.109 1233.68 92.8756 1236.18 64.8986ZM1298.89 2.56414C1270.87 4.87036 1248.48 27.1234 1245.97 55.0804C1274 52.7742 1296.38 30.5411 1298.89 2.56414ZM1183.4 2.42493C1185.84 30.3979 1208.17 52.6948 1236.18 55.0686C1233.74 27.1056 1211.42 4.7987 1183.4 2.42493Z" stroke="url(#paint1_linear_105_27270)" stroke-miterlimit="10"/>
<path d="M1121.47 64.7603C1123.92 92.7233 1146.24 115.03 1174.26 117.404C1171.81 89.421 1149.49 67.1341 1121.47 64.7603ZM1111.69 64.7485C1083.67 67.0547 1061.28 89.2878 1058.78 117.265C1086.8 114.959 1109.19 92.7255 1111.69 64.7485ZM1174.4 2.41408C1146.38 4.72031 1123.99 26.9733 1121.48 54.9303C1149.51 52.6241 1171.89 30.3911 1174.4 2.41408ZM1058.91 2.27487C1061.35 30.2478 1083.68 52.5448 1111.69 54.9185C1109.25 26.9556 1086.93 4.64865 1058.91 2.27487Z" stroke="url(#paint2_linear_105_27270)" stroke-miterlimit="10"/>
<path d="M996.983 64.6103C999.429 92.5732 1021.75 114.88 1049.77 117.254C1047.32 89.271 1025 66.984 996.983 64.6103ZM987.203 64.5985C959.18 66.9047 936.793 89.1377 934.29 117.115C962.312 114.809 984.699 92.5755 987.203 64.5985ZM1049.91 2.26403C1021.89 4.57025 999.499 26.8233 996.995 54.7803C1025.02 52.474 1047.4 30.241 1049.91 2.26403ZM934.418 2.12482C936.865 30.0978 959.188 52.3947 987.205 54.7685C984.758 26.8055 962.435 4.49859 934.418 2.12482Z" stroke="url(#paint3_linear_105_27270)" stroke-miterlimit="10"/>
<path d="M872.493 64.4602C874.939 92.4232 897.262 114.73 925.28 117.104C922.833 89.1209 900.51 66.834 872.493 64.4602ZM862.713 64.4484C834.69 66.7546 812.303 88.9877 809.8 116.965C837.822 114.658 860.209 92.4254 862.713 64.4484ZM925.418 2.11397C897.395 4.42019 875.009 26.6732 872.505 54.6302C900.528 52.324 922.915 30.091 925.418 2.11397ZM809.928 1.97476C812.375 29.9477 834.698 52.2446 862.715 54.6184C860.269 26.6554 837.945 4.34854 809.928 1.97476Z" stroke="url(#paint4_linear_105_27270)" stroke-miterlimit="10"/>
<path d="M748.003 64.3101C750.449 92.2731 772.772 114.58 800.79 116.954C798.343 88.9709 776.02 66.6839 748.003 64.3101ZM738.223 64.2984C710.2 66.6046 687.813 88.8376 685.31 116.815C713.333 114.508 735.719 92.2754 738.223 64.2984ZM800.928 1.96391C772.905 4.27014 750.519 26.5232 748.015 54.4802C776.038 52.1739 798.425 29.9409 800.928 1.96391ZM685.438 1.82471C687.885 29.7977 710.208 52.0946 738.225 54.4684C735.779 26.5054 713.455 4.19848 685.438 1.82471Z" stroke="url(#paint5_linear_105_27270)" stroke-miterlimit="10"/>
<path d="M623.513 64.1601C625.959 92.1231 648.283 114.43 676.3 116.804C673.853 88.8208 651.53 66.5339 623.513 64.1601ZM613.733 64.1483C585.71 66.4545 563.324 88.6876 560.82 116.665C588.843 114.358 611.229 92.1253 613.733 64.1483ZM676.438 1.81386C648.416 4.12008 626.029 26.3731 623.525 54.3301C651.548 52.0239 673.935 29.7909 676.438 1.81386ZM560.948 1.67465C563.395 29.6476 585.718 51.9445 613.735 54.3183C611.289 26.3553 588.966 4.04842 560.948 1.67465Z" stroke="url(#paint6_linear_105_27270)" stroke-miterlimit="10"/>
<path d="M499.023 64.01C501.47 91.973 523.793 114.28 551.81 116.654C549.364 88.6707 527.04 66.3838 499.023 64.01ZM489.243 63.9982C461.22 66.3045 438.834 88.5375 436.33 116.515C464.353 114.208 486.74 91.9752 489.243 63.9982ZM551.948 1.6638C523.926 3.97003 501.539 26.223 499.035 54.18C527.058 51.8738 549.445 29.6408 551.948 1.6638ZM436.459 1.5246C438.905 29.4976 461.228 51.7945 489.245 54.1682C486.799 26.2053 464.476 3.89837 436.459 1.5246Z" stroke="url(#paint7_linear_105_27270)" stroke-miterlimit="10"/>
<path d="M374.533 63.86C376.98 91.8229 399.303 114.13 427.32 116.504C424.874 88.5207 402.551 66.2337 374.533 63.86ZM364.753 63.8482C336.731 66.1544 314.344 88.3875 311.84 116.364C339.863 114.058 362.25 91.8252 364.753 63.8482ZM427.459 1.51375C399.436 3.81997 377.049 26.073 374.545 54.03C402.568 51.7238 424.955 29.4908 427.459 1.51375ZM311.969 1.37454C314.415 29.3475 336.738 51.6444 364.755 54.0182C362.309 26.0552 339.986 3.74831 311.969 1.37454Z" stroke="url(#paint8_linear_105_27270)" stroke-miterlimit="10"/>
<path d="M250.043 63.7099C252.49 91.6729 274.813 113.98 302.83 116.354C300.384 88.3706 278.061 66.0837 250.043 63.7099ZM240.263 63.6981C212.241 66.0044 189.854 88.2374 187.35 116.214C215.373 113.908 237.76 91.6751 240.263 63.6981ZM302.969 1.36369C274.946 3.66992 252.559 25.9229 250.055 53.8799C278.078 51.5737 300.465 29.3407 302.969 1.36369ZM187.479 1.22448C189.925 29.1975 212.248 51.4944 240.265 53.8681C237.819 25.9052 215.496 3.59826 187.479 1.22448Z" stroke="url(#paint9_linear_105_27270)" stroke-miterlimit="10"/>
<path d="M125.554 63.5599C128 91.5228 150.323 113.83 178.34 116.204C175.894 88.2206 153.571 65.9336 125.554 63.5599ZM115.774 63.5481C87.7507 65.8543 65.364 88.0873 62.8602 116.064C90.883 113.758 113.27 91.5251 115.774 63.5481ZM178.479 1.21364C150.456 3.51986 128.069 25.7729 125.565 53.7299C153.588 51.4237 175.975 29.1906 178.479 1.21364ZM62.9888 1.07443C65.4351 29.0474 87.7582 51.3443 115.775 53.7181C113.329 25.7551 91.006 3.4482 62.9888 1.07443Z" stroke="url(#paint10_linear_105_27270)" stroke-miterlimit="10"/>
<path d="M1.06366 63.4098C3.50996 91.3728 25.8331 113.68 53.8502 116.053C51.404 88.0705 29.0808 65.7836 1.06366 63.4098ZM53.9888 1.06358C25.966 3.3698 3.57921 25.6228 1.07551 53.5798C29.0983 51.2736 51.4851 29.0406 53.9888 1.06358Z" stroke="url(#paint11_linear_105_27270)" stroke-miterlimit="10"/>
<defs>
<linearGradient id="paint0_linear_105_27270" x1="1921.27" y1="60.8094" x2="-61.5703" y2="58.4193" gradientUnits="userSpaceOnUse">
<stop stop-color="#D1D1D1"/>
<stop offset="1" stop-color="#D1D1D1" stop-opacity="0"/>
</linearGradient>
<linearGradient id="paint1_linear_105_27270" x1="1921.27" y1="60.8094" x2="-61.5703" y2="58.4193" gradientUnits="userSpaceOnUse">
<stop stop-color="#D1D1D1"/>
<stop offset="1" stop-color="#D1D1D1" stop-opacity="0"/>
</linearGradient>
<linearGradient id="paint2_linear_105_27270" x1="1921.27" y1="60.8094" x2="-61.5703" y2="58.4193" gradientUnits="userSpaceOnUse">
<stop stop-color="#D1D1D1"/>
<stop offset="1" stop-color="#D1D1D1" stop-opacity="0"/>
</linearGradient>
<linearGradient id="paint3_linear_105_27270" x1="1921.27" y1="60.8094" x2="-61.5703" y2="58.4193" gradientUnits="userSpaceOnUse">
<stop stop-color="#D1D1D1"/>
<stop offset="1" stop-color="#D1D1D1" stop-opacity="0"/>
</linearGradient>
<linearGradient id="paint4_linear_105_27270" x1="1921.27" y1="60.8094" x2="-61.5703" y2="58.4193" gradientUnits="userSpaceOnUse">
<stop stop-color="#D1D1D1"/>
<stop offset="1" stop-color="#D1D1D1" stop-opacity="0"/>
</linearGradient>
<linearGradient id="paint5_linear_105_27270" x1="1921.27" y1="60.8094" x2="-61.5703" y2="58.4193" gradientUnits="userSpaceOnUse">
<stop stop-color="#D1D1D1"/>
<stop offset="1" stop-color="#D1D1D1" stop-opacity="0"/>
</linearGradient>
<linearGradient id="paint6_linear_105_27270" x1="1921.27" y1="60.8094" x2="-61.5703" y2="58.4193" gradientUnits="userSpaceOnUse">
<stop stop-color="#D1D1D1"/>
<stop offset="1" stop-color="#D1D1D1" stop-opacity="0"/>
</linearGradient>
<linearGradient id="paint7_linear_105_27270" x1="1921.27" y1="60.8094" x2="-61.5703" y2="58.4193" gradientUnits="userSpaceOnUse">
<stop stop-color="#D1D1D1"/>
<stop offset="1" stop-color="#D1D1D1" stop-opacity="0"/>
</linearGradient>
<linearGradient id="paint8_linear_105_27270" x1="1921.27" y1="60.8094" x2="-61.5703" y2="58.4193" gradientUnits="userSpaceOnUse">
<stop stop-color="#D1D1D1"/>
<stop offset="1" stop-color="#D1D1D1" stop-opacity="0"/>
</linearGradient>
<linearGradient id="paint9_linear_105_27270" x1="1921.27" y1="60.8094" x2="-61.5703" y2="58.4193" gradientUnits="userSpaceOnUse">
<stop stop-color="#D1D1D1"/>
<stop offset="1" stop-color="#D1D1D1" stop-opacity="0"/>
</linearGradient>
<linearGradient id="paint10_linear_105_27270" x1="1921.27" y1="60.8094" x2="-61.5703" y2="58.4193" gradientUnits="userSpaceOnUse">
<stop stop-color="#D1D1D1"/>
<stop offset="1" stop-color="#D1D1D1" stop-opacity="0"/>
</linearGradient>
<linearGradient id="paint11_linear_105_27270" x1="1921.27" y1="60.8094" x2="-61.5703" y2="58.4193" gradientUnits="userSpaceOnUse">
<stop stop-color="#D1D1D1"/>
<stop offset="1" stop-color="#D1D1D1" stop-opacity="0"/>
</linearGradient>
</defs>
</svg>
