<svg width="364" height="69" viewBox="0 0 364 69" fill="none" xmlns="http://www.w3.org/2000/svg">
<path d="M301.657 5.12298C301.583 4.80839 301.459 4.65019 301.283 4.64844C301.175 4.64844 301.026 4.75127 300.834 4.95162C300.642 5.15197 300.547 5.30751 300.547 5.41164C300.547 5.65945 300.925 5.83519 301.682 5.93888C301.732 5.66839 301.724 5.3895 301.657 5.12298Z" fill="#C9A755"/>
<path d="M304.705 43.2161C305.437 42.8916 306.07 42.3614 306.537 41.6831C306.498 41.1595 306.367 40.6481 306.151 40.1751C305.877 39.4963 305.641 39.1589 305.441 39.1562C305.184 39.1562 304.792 39.459 304.263 40.0644C303.825 40.5319 303.465 41.0748 303.199 41.6699C303.315 42.0091 303.51 42.312 303.766 42.5504C304.032 42.8385 304.352 43.0652 304.705 43.2161Z" fill="#C9A755"/>
<path d="M346.707 59.8281C345.977 59.8281 345.612 60.0412 345.611 60.4674C345.611 60.9648 346.117 61.2126 347.129 61.2109C347.522 61.2097 347.914 61.1656 348.299 61.079C347.719 60.246 347.188 59.829 346.707 59.8281Z" fill="#C9A755"/>
<path d="M340.879 59.5369C340.04 57.7293 339.015 56.8251 337.802 56.8242C335.271 56.8242 332.233 58.9262 328.688 63.1301C332.874 63.1759 337.003 62.1027 340.692 60.0101C340.909 59.8889 340.97 59.7307 340.879 59.5369Z" fill="#C9A755"/>
<path d="M359.232 61.2139C360.167 59.6413 360.663 57.8222 360.665 55.9651C360.473 53.1834 359.597 50.5028 358.124 48.1882C357.749 47.5291 356.57 45.5519 354.711 42.7416C354.231 42.014 353.935 41.5553 353.471 40.7539C353.533 41.695 353.677 43.7975 353.901 47.0967C354.214 51.6592 354.37 54.3785 354.369 55.2546C354.383 56.7308 354.148 58.1978 353.676 59.5873C353.456 60.3537 353.081 61.0604 352.577 61.6582C352.073 62.256 351.451 62.7305 350.756 63.0487C350.696 63.0777 350.506 63.1515 350.506 63.1515C350.484 63.7965 350.375 64.4347 350.182 65.047C349.934 65.9468 349.509 66.7811 348.934 67.4948C348.866 67.5765 348.786 67.6608 348.711 67.7439H351.404C352.468 67.0848 353.861 66.1911 355.602 65.0628C357.071 64.0853 358.312 62.7695 359.232 61.2139Z" fill="#C9A755"/>
<path d="M347.456 28.4961C346.729 28.4961 346.365 28.6973 346.365 29.0998C346.365 29.6086 346.869 29.8621 347.877 29.8604C348.279 29.8572 348.679 29.8045 349.069 29.7035C348.491 28.9003 347.953 28.4979 347.456 28.4961Z" fill="#C9A755"/>
<path d="M303.351 6.18789C303.385 6.15362 303.373 6.06925 303.314 5.93744C303.09 5.44818 302.698 5.06705 302.218 4.87109C302.232 5.25738 302.19 5.64357 302.094 6.01653C302.177 6.04289 302.567 6.10485 303.264 6.19975C303.306 6.2103 303.335 6.20634 303.351 6.18789Z" fill="#C9A755"/>
<path d="M330.854 7.08984C330.319 7.08984 330.051 7.27485 330.051 7.6448C330.051 8.05957 330.383 8.30999 331.049 8.3961C331.436 8.40577 332.037 8.44971 332.853 8.52792C332.664 8.12757 332.381 7.78512 332.031 7.53334C331.681 7.28155 331.276 7.12883 330.854 7.08984Z" fill="#C9A755"/>
<path d="M344.014 7.035C346.26 6.15449 354.704 2.81699 360.564 0.501043C360.399 0.336519 360.204 0.208467 359.991 0.124286C359.778 0.0401045 359.551 0.00150272 359.324 0.0107278C356.675 -0.0343873 354.026 0.0628109 351.386 0.302004C349.326 0.411409 346.691 0.423274 344.636 0.60913C343.173 0.762694 341.698 0.754775 340.236 0.585437C340.402 1.00987 340.662 1.7221 341.017 2.72212C341.524 4.12812 341.819 4.99761 341.901 5.33066C341.957 5.50584 341.99 5.688 342.001 5.87242C342.001 6.27665 341.649 6.04423 340.943 5.17515C340.86 5.07057 340.818 5.12725 340.818 5.34518C340.818 5.42427 341.077 9.25077 341.596 16.8247C342.114 24.3987 342.373 28.5187 342.374 29.1848C342.412 31.0261 342.112 32.8576 341.491 34.5786C341.403 34.8122 341.304 35.0405 341.193 35.2627C341.077 35.4723 341.007 35.5039 340.982 35.3523C340.953 35.0229 340.965 34.6909 341.019 34.365C341.095 33.6638 340.947 32.3101 340.947 31.3702C340.947 30.5464 340.766 25.2726 340.206 16.9209C339.646 8.56929 339.506 6.75294 339.457 5.45327C339.452 4.43455 339.326 3.42051 339.083 2.43475C339.181 1.77644 339.375 1.13802 339.657 0.541912C338.999 0.490505 338.232 0.448316 337.189 0.449634C335.101 0.449634 333.147 0.536634 331.2 0.626266C331.792 1.05729 332.094 1.31434 332.094 1.38947C331.94 2.06605 331.655 2.70208 331.26 3.25858C331.194 3.38248 331.122 3.41281 331.049 3.35086C330.427 2.85085 329.783 2.3816 329.119 1.94311C329.09 1.91806 329.09 1.86398 329.119 1.7849L329.618 0.697466C327.967 0.769963 326.3 0.829287 324.535 0.829287C320.256 0.829287 315.489 0.71459 311.223 0.371877C307.424 0.0673899 303.719 0.199218 299.897 0.1979C299.506 0.1979 299.117 0.203612 298.731 0.215036H297.886C297.722 0.214499 297.564 0.279375 297.444 0.396696C297.323 0.514018 297.249 0.675099 297.236 0.847711C296.987 4.29856 296.987 12.9257 297.005 17.0607C297.005 18.7993 297.879 28.7037 298.003 33.528C298.121 38.0914 298.318 41.4263 298.378 41.8322C298.4 42.2976 298.514 42.7529 298.711 43.1696C298.909 43.5863 299.185 43.9554 299.524 44.2536C299.948 44.4649 300.413 44.5674 300.882 44.5528C301.583 44.5587 302.279 44.4157 302.927 44.1324C302.647 43.4886 302.519 42.7833 302.553 42.0761C302.595 40.7302 303.049 39.4351 303.848 38.3853C304.645 37.2526 305.329 36.6854 305.903 36.6836C306.434 36.6836 306.85 37.0966 307.15 37.9227C307.377 38.5769 307.491 39.2689 307.487 39.9657C307.568 41.373 307.183 42.7662 306.397 43.9056C307.211 44.2445 308.094 44.361 308.962 44.2444C310.106 44.0717 310.8 43.4746 310.8 42.341C310.734 41.6264 310.617 40.9179 310.452 40.2215C310.211 39.0193 309.971 38.0233 309.731 37.2333C309.614 36.8497 309.556 36.6428 309.556 36.6151C309.525 35.8014 309.657 34.9899 309.941 34.2332C310.05 33.9894 310.126 33.8655 310.166 33.8641C310.206 33.8628 310.27 33.9485 310.353 34.1146C311.125 36.0024 311.645 37.9942 311.899 40.033C311.998 41.2625 312.421 42.438 313.121 43.4258C313.336 43.6307 313.588 43.7875 313.863 43.8869C314.137 43.9864 314.427 44.0263 314.716 44.0045C315.577 43.9818 316.402 43.6366 317.045 43.0304C317.262 42.8388 317.37 42.1358 317.37 40.9214C317.37 40.185 317.189 37.2241 316.826 32.0386C316.464 26.8531 316.282 23.795 316.282 22.8644C316.305 22.1508 316.177 21.4408 315.908 20.7857C316.045 20.0272 316.28 19.2923 316.607 18.6016C316.655 18.4619 316.706 18.392 316.756 18.3894C316.806 18.3867 316.865 18.4697 316.93 18.6266C317.064 18.9263 317.372 19.7514 317.854 21.102C318.353 22.508 318.652 23.3683 318.751 23.6829C318.792 23.8643 318.818 24.0491 318.828 24.2352C318.828 24.6236 318.478 24.3956 317.778 23.5511C317.695 23.4298 317.653 23.4822 317.653 23.708C317.653 23.7616 317.812 26.0688 318.129 30.6295C318.446 35.1902 318.605 37.9095 318.605 38.7874C318.71 40.8762 318.26 42.9544 317.307 44.7875C317.067 45.3103 316.701 45.7565 316.245 46.0807C315.789 46.405 315.26 46.5955 314.711 46.6328C313.974 46.641 313.258 46.3708 312.693 45.871C311.974 45.2011 311.505 44.2813 311.373 43.2782C311.274 44.2106 310.938 45.0974 310.401 45.8446C310.001 46.3627 309.428 46.6994 308.801 46.7857C308.133 46.9093 307.45 46.9057 306.783 46.7752C305.915 46.6104 305.081 46.2832 304.32 45.809C303.33 46.6117 302.136 47.0868 300.891 47.1746C300.156 47.2231 299.427 47.0201 298.811 46.5959C298.271 46.1056 297.841 45.4952 297.552 44.8086C297.627 47.6228 297.719 50.4383 297.811 53.2525C297.826 53.2406 297.844 53.2325 297.862 53.2287C298.187 53.3756 298.493 53.5656 298.772 53.7942C299.141 54.0402 299.491 54.3175 299.818 54.6233L300.454 53.2353C300.504 53.1299 300.557 53.0772 300.615 53.0758C300.997 53.2578 301.357 53.4884 301.687 53.7626C302.318 54.2213 302.633 54.4893 302.632 54.5666C302.478 55.2446 302.194 55.8821 301.798 56.4397C301.732 56.5544 301.66 56.5847 301.586 56.532C301.038 56.1032 300.42 55.6515 299.73 55.1769C299.532 55.6596 299.303 56.1277 299.045 56.5781C298.98 56.7007 298.909 56.731 298.834 56.669C298.528 56.4239 298.217 56.1862 297.9 55.956C298.009 59.3207 298.098 62.6859 298.167 66.0515C298.428 66.1925 298.718 66.264 299.012 66.2597C299.66 66.2597 300.258 65.725 300.806 64.6556C301.354 63.3753 301.91 62.0949 302.475 60.8146C302.941 59.8115 303.56 58.8963 304.307 58.1058C304.804 57.4729 305.513 57.0673 306.287 56.9735C306.549 57.0008 306.801 57.0971 307.019 57.2537C307.237 57.4103 307.414 57.6221 307.535 57.8699L308.482 59.5017C308.829 60.0714 309.304 60.5418 309.864 60.8713C310.48 61.1761 311.155 61.3233 311.834 61.3009C313.15 61.2756 314.429 60.8449 315.516 60.0619C315.599 59.9925 315.974 59.5707 316.639 58.7965C316.935 58.4038 317.27 58.0454 317.637 57.7275C317.746 57.7275 317.798 57.8172 317.798 57.9911C317.797 58.0939 317.78 58.1958 317.748 58.293C317.662 58.5923 317.616 58.9029 317.611 59.2157C317.611 60.3058 318.839 60.8304 319.642 60.8528C320.89 60.8871 321.408 60.2689 321.408 59.0918C321.342 58.3771 321.225 57.6687 321.06 56.9722C320.819 55.771 320.579 54.7749 320.337 53.984C320.221 53.6005 320.164 53.3935 320.164 53.3645C320.133 52.5508 320.265 51.7394 320.549 50.9826C320.658 50.7375 320.733 50.614 320.773 50.6122C320.815 50.6122 320.878 50.6966 320.96 50.8627C321.733 52.7498 322.252 54.742 322.502 56.7811C322.984 59.7113 323.838 61.152 325.687 62.4266C326.332 62.8246 327.062 63.0436 327.809 63.0633C328.532 62.196 329.151 61.398 329.666 60.6696C329.867 60.3406 329.967 59.9546 329.953 59.5637V56.7086C329.953 56.3501 329.73 52.7301 329.282 45.8486C329.247 45.3213 329.216 44.8297 329.185 44.3446C327.643 45.5021 325.831 46.1938 323.944 46.3455C323.292 46.3746 322.645 46.2008 322.085 45.8456C321.525 45.4904 321.076 44.9694 320.794 44.3472C320.375 43.2081 320.215 41.9809 320.327 40.7646C320.395 38.3339 321.14 35.9903 321.123 36.6138C321.106 37.286 320.972 37.6261 320.889 39.7324C320.802 40.6769 321.016 41.6249 321.496 42.4267C321.751 42.8484 322.103 43.195 322.519 43.4342C322.935 43.6735 323.401 43.7976 323.875 43.7949C325.366 43.6789 326.809 43.1872 328.083 42.3608C328.395 42.1829 328.707 41.993 329.018 41.7927C328.744 37.522 328.607 35.202 328.607 34.8409C328.633 34.1265 328.505 33.4154 328.233 32.7609C328.368 32.0018 328.603 31.2666 328.931 30.5767C328.99 30.4383 329.04 30.3672 329.081 30.3658C329.122 30.3645 329.19 30.441 329.256 30.5886C329.39 30.8883 329.698 31.7081 330.179 33.0482C330.686 34.4542 330.981 35.322 331.064 35.6515C331.12 35.8303 331.154 36.0159 331.165 36.2038C331.165 36.5984 330.811 36.3616 330.103 35.4934C330.02 35.3888 329.978 35.4455 329.978 35.6634C329.978 35.6779 330.103 37.4191 330.346 40.8779C330.924 40.4535 331.499 40 332.073 39.5031C332.841 38.9293 333.515 38.2272 334.07 37.4244C334.029 35.7867 333.623 34.1822 332.885 32.7411C332.762 32.515 332.686 32.2639 332.662 32.0043C332.786 31.3756 332.948 30.7561 333.147 30.1497C333.206 29.9401 333.272 29.8347 333.346 29.8333C333.419 29.832 333.533 29.9796 333.657 30.2683C333.782 30.6064 333.95 30.9251 334.156 31.216C334.362 31.4055 334.605 31.5442 334.868 31.622C335.131 31.6998 335.407 31.7149 335.676 31.666C335.946 31.6172 336.201 31.5057 336.424 31.3397C336.648 31.1736 336.834 30.9571 336.968 30.7059C337.336 30.113 337.67 29.4967 337.966 28.8605C338.29 28.2032 338.552 27.8737 338.75 27.872C338.967 27.872 339.156 28.0802 339.324 28.4928C339.493 28.9264 339.578 29.3918 339.573 29.861C339.561 30.3042 339.512 30.7454 339.425 31.1791C339.3 31.9094 339.15 32.2732 338.977 32.2719C338.869 32.2719 338.815 31.9713 338.815 31.3663C338.842 31.057 338.795 30.7454 338.677 30.4607C338.438 30.5056 338.168 30.865 337.868 31.539C337.601 32.2088 337.276 32.8509 336.897 33.4569C336.74 33.7107 336.527 33.9206 336.276 34.0685C336.025 34.2163 335.744 34.2977 335.457 34.3057C335.236 34.3121 335.016 34.2814 334.804 34.2148C334.804 37.3985 334.36 39.5426 333.472 40.6472C332.604 41.6879 331.618 42.6118 330.536 43.3982L330.617 44.5318C331.033 50.4273 331.241 53.6114 331.241 54.0842C331.163 55.915 330.977 57.7389 330.684 59.5452C334.007 56.0443 336.722 54.2934 338.83 54.2925C339.364 54.3156 339.885 54.4782 340.346 54.7657C340.807 55.0532 341.193 55.4566 341.471 55.9401C341.998 56.604 342.32 57.423 342.393 58.2864C342.373 59.0422 342.176 59.781 341.819 60.4362C341.364 61.3413 340.684 62.0979 339.851 62.6243C338.072 63.7349 336.139 64.544 334.122 65.022C332.587 65.4047 331.025 65.6529 329.452 65.7641C328.275 65.893 327.087 65.73 325.981 65.2883C324.977 64.7917 324.095 64.0579 323.403 63.1437C322.71 62.2294 322.226 61.1592 321.988 60.0158C321.911 60.9361 321.637 61.8261 321.188 62.6191C321.004 62.8858 320.761 63.1013 320.481 63.2471C320.201 63.3929 319.891 63.4646 319.579 63.4561C318.853 63.4494 318.154 63.1655 317.61 62.6567C317.067 62.1479 316.716 61.4486 316.623 60.688C316.135 61.6164 315.429 62.396 314.572 62.9514C313.715 63.5067 312.738 63.8191 311.733 63.8581C311.002 63.9447 310.263 63.8221 309.592 63.5032C308.922 63.1844 308.345 62.681 307.921 62.0457C307.558 61.4894 307.258 60.8805 306.923 60.2833C306.624 59.7939 306.325 59.5483 306.026 59.5465C305.096 59.5465 304.116 60.3813 303.087 62.051C302.707 62.8017 302.378 63.5795 302.102 64.3788C301.772 65.3243 301.359 66.2355 300.869 67.1007C300.652 67.4608 300.377 67.7784 300.057 68.0392C303.452 67.9812 306.919 68.3661 310.323 68.3292C314.94 68.2791 319.556 68.1354 324.173 67.9957C331.463 67.7743 338.747 67.7321 346.027 67.7321C348.398 66.1701 349.581 65.0075 349.581 64.2483C349.579 63.9407 349.52 63.6365 349.406 63.3533C348.718 63.5648 348.002 63.6574 347.285 63.6275C345.323 63.6275 344.342 62.9244 344.343 61.5184C344.332 60.4634 344.687 59.4406 345.341 58.6436C345.559 58.3113 345.845 58.0347 346.177 57.8338C346.509 57.6329 346.88 57.5128 347.261 57.4823C347.595 57.5221 347.918 57.6338 348.209 57.8104C348.501 57.987 348.755 58.2248 348.956 58.5092C349.541 59.1894 350.021 59.9624 350.378 60.8C350.477 60.782 350.575 60.7546 350.669 60.7183C351.345 60.4828 351.94 60.0406 352.379 59.4477C352.817 58.8548 353.079 58.1378 353.132 57.3874C353.159 56.6519 352.954 53.6901 352.597 48.5046C352.24 43.3191 352.073 40.8041 352.073 39.8722C352.089 38.9814 351.959 38.0943 351.688 37.2504C351.825 36.4923 352.058 35.7574 352.383 35.0663C352.433 34.9266 352.483 34.8567 352.532 34.8554C352.58 34.8541 352.64 34.9345 352.705 35.0926C352.789 35.2798 352.905 35.7148 353.164 36.2908C354.133 38.1504 355.204 39.9488 356.371 41.6767C357.583 43.538 358.701 45.4656 359.721 47.4514C360.939 49.8274 361.613 52.472 361.689 55.173C361.691 58.4586 360.695 61.6584 358.849 64.3023C358 65.6429 356.832 66.7232 355.461 67.4342C355.202 67.5559 354.938 67.6633 354.668 67.7558C356.197 67.7558 357.726 67.7585 359.256 67.7637C359.836 67.7645 360.41 67.6416 360.945 67.4026C361.479 67.1636 361.962 66.8134 362.366 66.3727C362.769 65.932 363.084 65.41 363.293 64.8377C363.501 64.2655 363.598 63.6549 363.578 63.0422C363.517 61.1428 363.468 58.8703 363.468 56.4002C363.468 53.6321 363.604 50.6202 363.675 47.8561C363.722 45.9877 363.681 44.118 363.55 42.254C363.027 43.2911 362.714 44.4316 362.629 45.6034C362.562 46.1292 362.425 46.6425 362.223 47.1285C362.117 47.3315 362.155 47.599 362.08 47.599C362.006 47.599 361.966 47.8627 361.85 47.1561C361.722 46.4345 361.541 45.7246 361.308 45.0327C360.941 43.8793 360.684 43.3375 360.568 43.3033C360.551 43.2971 360.533 43.2945 360.515 43.2957C360.497 43.297 360.48 43.302 360.464 43.3104C360.447 43.3189 360.433 43.3306 360.421 43.345C360.409 43.3594 360.4 43.3761 360.395 43.3942C360.373 43.4339 360.338 43.4644 360.297 43.4807C360.257 43.4969 360.212 43.4981 360.17 43.4838C359.961 43.4311 359.769 43.318 359.616 43.157C359.388 42.9399 359.274 42.7641 359.272 42.6297C359.341 42.4178 359.437 42.2169 359.558 42.0326C359.748 41.6952 359.868 41.5255 359.917 41.5238C360.358 41.5238 360.799 41.9693 361.241 42.8604C361.656 43.7186 361.939 44.6409 362.08 45.5928C362.094 45.6491 362.103 45.7064 362.107 45.7642C362.124 45.7919 362.137 45.7919 362.144 45.7642C362.168 45.7084 362.189 45.6512 362.207 45.5928C362.321 44.7238 362.543 43.5788 362.87 42.1578C362.997 41.7835 363.203 41.4445 363.472 41.1666C363.289 38.8032 363.047 36.4859 362.95 33.5215C362.898 31.9397 362.865 29.9203 362.857 27.7335C362.256 27.8108 361.659 27.9226 361.07 28.0683C361.251 30.8575 361.342 32.4933 361.342 32.9639C361.376 34.8055 361.076 36.6369 360.457 38.359C360.369 38.5926 360.269 38.821 360.158 39.0431C360.042 39.2566 359.972 39.2887 359.947 39.1393C359.918 38.8059 359.931 38.4699 359.986 38.1402C360.069 37.3268 360.107 36.5091 360.102 35.6911C360.102 35.0004 359.909 32.6594 359.614 28.4664C359.349 28.5481 359.095 28.618 358.816 28.7116C357.422 29.1782 355.816 29.7977 353.997 30.5702C353.125 30.9586 352.252 31.3448 351.376 31.7288L351.293 31.7802C351.269 32.4263 351.151 33.0648 350.943 33.673C350.693 34.5792 350.268 35.421 349.696 36.1458C348.48 37.643 347.119 39.0007 345.634 40.1964C344.041 41.6806 342.042 42.5922 339.926 42.7998C339.315 42.8302 338.705 42.6998 338.153 42.4203C337.601 42.1408 337.123 41.7209 336.762 41.1982C336.163 40.2499 335.893 39.1114 336 37.9767C336 36.155 336.463 35.3589 336.4 36.337C336.314 37.2006 336.501 38.0703 336.932 38.8098C337.32 39.287 337.81 39.6598 338.361 39.8977C338.913 40.1356 339.51 40.2317 340.103 40.178C341.694 40.0507 343.224 39.4783 344.535 38.5198C345.994 37.5866 347.347 36.481 348.569 35.2245C349.734 34.0496 350.316 33.2683 350.316 32.8808C350.313 32.5847 350.262 32.2914 350.165 32.0135C349.479 32.2231 348.766 32.3153 348.053 32.2864C346.098 32.2864 345.12 31.5754 345.12 30.1536C345.107 29.105 345.451 28.0864 346.089 27.2828C346.309 26.949 346.597 26.6716 346.932 26.471C347.267 26.2705 347.641 26.152 348.025 26.1241C348.354 26.1666 348.671 26.2794 348.957 26.4557C349.244 26.632 349.493 26.8681 349.689 27.1496C350.264 27.8348 350.741 28.6048 351.106 29.4353C351.199 29.4192 351.291 29.3922 351.379 29.3548V29.3628C352.848 28.7766 354.919 27.9537 357.593 26.8939C356.954 26.824 355.289 26.1887 352.602 25.784C351.242 25.6021 349.895 25.3323 348.567 24.976C348.167 24.8614 348.028 24.8535 348.117 24.607C348.298 24.0973 348.51 23.6006 348.751 23.1201C349.286 22.8258 349.857 22.6132 350.448 22.4887C351.879 22.0695 352.83 21.9417 353.743 21.5555C354.192 21.3802 354.442 21.1363 354.492 20.8186C354.543 20.6262 354.524 19.5836 354.567 17.6881C354.612 15.7254 354.41 10.2895 354.41 9.91908C354.433 9.20668 354.309 8.49745 354.044 7.84169C354.176 7.08196 354.411 6.34635 354.741 5.65758C354.791 5.51917 354.841 5.44799 354.89 5.44667C354.939 5.44535 354.999 5.51917 355.065 5.65758C355.199 5.9748 355.506 6.79819 355.988 8.12774C356.487 9.53374 356.786 10.4015 356.884 10.731C356.926 10.9121 356.951 11.0971 356.959 11.2833C356.959 11.6709 356.609 11.434 355.911 10.5729C355.827 10.4516 355.786 10.5043 355.786 10.731C355.786 10.8031 355.827 11.5272 355.911 12.9033C355.994 14.2795 356.035 15.2043 356.035 15.678C356.102 17.4992 355.942 19.3218 355.561 21.0994C355.307 22.0647 354.813 22.9405 354.13 23.6355C355.368 23.9347 356.855 24.2748 358.597 24.5186C358.853 24.5555 359.096 24.5912 359.345 24.6241C358.992 19.258 358.971 17.841 358.916 15.6727C358.912 14.7612 358.771 13.8562 358.497 12.9916C358.631 12.2323 358.866 11.4967 359.193 10.8062C359.252 10.6678 359.302 10.5966 359.343 10.5953C359.384 10.594 359.452 10.6717 359.516 10.8207C359.65 11.1186 359.956 11.9437 360.437 13.2961C360.944 14.7021 361.239 15.5664 361.322 15.8889C361.377 16.0682 361.411 16.2543 361.422 16.4425C361.422 16.83 361.072 16.5976 360.372 15.7452C360.29 15.6239 360.248 15.6753 360.248 15.9021C360.248 15.9829 360.429 18.6806 360.792 23.9953C360.812 24.2774 360.829 24.5489 360.848 24.8178C361.58 24.9035 362.25 24.9694 362.853 25.0143C362.873 20.9702 362.978 16.7615 363.173 13.942C363.478 9.68182 362.799 3.76343 361.163 1.23131C355.449 3.51035 346.427 7.14046 343.586 8.34918C343.686 7.89711 343.83 7.45684 344.014 7.035ZM312.372 53.7125C312.181 54.1853 311.936 54.4212 311.637 54.4203C311.164 54.4203 310.827 54.0811 310.628 53.4027C310.404 54.2815 309.993 54.7209 309.394 54.7209C309.276 54.7166 309.161 54.6819 309.058 54.6199C308.956 54.5579 308.869 54.4704 308.806 54.365C308.604 54.0363 308.504 53.6493 308.52 53.2578V52.1769C308.52 52.0899 308.465 52.0292 308.352 51.9936C308.297 51.9768 308.249 51.9397 308.217 51.8889C308.186 51.8381 308.172 51.7771 308.18 51.7169C308.192 51.454 308.295 51.205 308.469 51.0169C308.646 50.8157 308.78 50.7147 308.871 50.7138C308.99 50.7138 309.048 50.951 309.047 51.4255C309.052 51.6342 309.033 51.8428 308.989 52.0464C308.954 52.188 308.934 52.3336 308.93 52.4801C308.93 52.7344 308.981 52.9859 309.079 53.2182C309.198 53.4911 309.343 53.6268 309.517 53.6268C309.638 53.6228 309.757 53.5919 309.866 53.5363C309.975 53.4806 310.072 53.4015 310.15 53.3039C310.244 53.2047 310.318 53.0867 310.369 52.9568C310.419 52.8269 310.444 52.6877 310.443 52.5473C310.425 52.2572 310.379 51.97 310.303 51.6905C310.238 51.4448 310.19 51.194 310.161 50.9405C310.179 50.7957 310.221 50.6555 310.286 50.5266C310.369 50.3381 310.432 50.2432 310.474 50.2419C310.551 50.2419 310.649 50.509 310.77 51.0433C310.87 51.4286 310.931 51.8241 310.952 52.223C310.952 52.9572 311.222 53.3236 311.757 53.3236C311.86 53.3311 311.961 53.2974 312.041 53.2293C312.122 53.1611 312.175 53.0635 312.19 52.9559C311.814 52.3682 311.575 51.6947 311.492 50.9906C311.488 50.7444 311.554 50.5025 311.681 50.2959C311.764 50.1571 311.823 50.0824 311.857 50.0718C311.892 50.0718 311.915 50.1601 311.933 50.3355C311.95 50.5407 311.988 50.7435 312.045 50.9405C312.053 50.9598 312.166 51.2621 312.384 51.8473C312.495 52.1001 312.563 52.3713 312.585 52.6488C312.58 53.0124 312.507 53.3715 312.372 53.7059V53.7125ZM317.227 51.4005C317.161 51.5244 317.09 51.5547 317.016 51.4928C316.394 50.9928 315.75 50.5235 315.086 50.085C315.057 50.0586 315.057 50.0059 315.086 49.9255L315.882 48.2014C315.933 48.0973 315.985 48.0446 316.044 48.0419C316.426 48.2239 316.785 48.4545 317.114 48.7287C317.747 49.1861 318.06 49.4523 318.06 49.5301C317.905 50.2046 317.621 50.8388 317.227 51.3939V51.4005ZM325.575 51.4743C325.834 50.6696 326.169 49.8942 326.573 49.1597C326.699 48.9585 326.782 48.853 326.823 48.8433C326.807 48.9683 326.769 49.089 326.711 49.1992C326.197 50.3403 325.792 51.5325 325.502 52.7582C325.433 53.078 325.395 53.4044 325.389 53.7323C325.369 54.0509 325.443 54.3683 325.601 54.6404C325.71 54.8078 325.822 54.8777 325.938 54.8513C326.179 54.7995 326.424 54.5231 326.672 54.0222C326.688 53.9768 326.714 53.9362 326.748 53.9036C326.765 53.8865 326.777 53.8918 326.784 53.9181C326.795 53.9614 326.795 54.0067 326.784 54.0499C326.736 54.5206 326.598 54.9762 326.379 55.3892C326.167 55.7846 325.938 55.9797 325.687 55.9797C325.552 55.9837 325.419 55.9427 325.307 55.8625C325.195 55.7823 325.11 55.667 325.064 55.5328C324.909 55.1417 324.845 54.7175 324.876 54.2951C324.979 53.322 325.215 52.3698 325.575 51.4677V51.4743ZM314.12 2.81702C314.296 2.61578 314.43 2.51471 314.522 2.51383C314.647 2.51383 314.699 2.75242 314.698 3.22563C314.703 3.4343 314.684 3.64287 314.64 3.84648C314.604 3.98814 314.584 4.13359 314.579 4.28012C314.581 4.53498 314.632 4.78676 314.73 5.01959C314.847 5.29113 314.993 5.42688 315.168 5.42688C315.289 5.42282 315.408 5.392 315.517 5.33637C315.626 5.28074 315.722 5.20155 315.801 5.10395C315.895 5.00465 315.969 4.88643 316.02 4.75627C316.07 4.62611 316.095 4.48665 316.094 4.34605C316.076 4.05645 316.029 3.76965 315.954 3.49056C315.889 3.24439 315.841 2.99317 315.813 2.73922C315.83 2.59392 315.873 2.45323 315.938 2.32405C316.021 2.13555 316.084 2.04193 316.126 2.04061C316.202 2.04061 316.3 2.30424 316.422 2.84204C316.522 3.22693 316.583 3.62196 316.604 4.02046C316.604 4.75421 316.872 5.12108 317.409 5.12108C317.512 5.12856 317.613 5.09487 317.694 5.02671C317.774 4.95855 317.827 4.86093 317.842 4.75333C317.466 4.16563 317.227 3.49213 317.144 2.78801C317.14 2.54183 317.206 2.29998 317.333 2.09335C317.416 1.95363 317.475 1.8798 317.509 1.87058C317.542 1.86135 317.567 1.95891 317.584 2.13422C317.601 2.33903 317.639 2.54136 317.696 2.73793C317.704 2.75726 317.817 3.05999 318.035 3.64611C318.146 3.8984 318.214 4.16918 318.236 4.44621C318.232 4.81254 318.159 5.17439 318.023 5.51127C317.832 5.98316 317.587 6.21909 317.288 6.21909C316.815 6.21909 316.478 5.87944 316.279 5.20017C316.056 6.07892 315.644 6.51829 315.045 6.51829C314.927 6.51402 314.812 6.47936 314.709 6.41732C314.607 6.35529 314.521 6.26778 314.458 6.16241C314.256 5.83379 314.156 5.4467 314.172 5.05519V3.97432C314.172 3.88732 314.118 3.82668 314.004 3.79109C313.949 3.77374 313.901 3.73626 313.87 3.68529C313.839 3.63433 313.826 3.57322 313.833 3.51297C313.845 3.2517 313.947 3.0041 314.12 2.81702ZM306.002 7.72306L306.8 6.00951C306.851 5.9067 306.903 5.85267 306.961 5.85267C307.285 5.9995 307.591 6.18951 307.87 6.41813C308.239 6.66415 308.589 6.94095 308.916 7.2459L309.552 5.85794C309.601 5.75249 309.656 5.69845 309.713 5.69845C310.096 5.88069 310.456 6.11177 310.785 6.38651C311.416 6.84434 311.731 7.11189 311.731 7.18922C311.576 7.86711 311.292 8.50452 310.896 9.06231C310.83 9.17698 310.759 9.20727 310.685 9.15454C310.138 8.72484 309.519 8.27318 308.83 7.79953C308.631 8.28255 308.402 8.75108 308.145 9.20201C308.08 9.3246 308.009 9.35491 307.934 9.29296C307.312 8.79383 306.669 8.32545 306.004 7.88783C305.98 7.85619 305.98 7.80348 306.004 7.72439L306.002 7.72306ZM298.368 10.2763C298.372 10.0013 298.434 9.73078 298.551 9.4848C298.667 9.23882 298.834 9.02368 299.04 8.85534C299.415 8.58381 299.79 8.30789 300.163 8.02757C300.633 7.7055 301.043 7.29435 301.372 6.81488C300.54 6.66637 300.124 6.33288 300.124 5.81442C300.142 5.36284 300.256 4.92139 300.46 4.52397C300.311 3.98178 300.344 3.59602 300.559 3.36666C300.634 3.28345 300.725 3.21722 300.826 3.17193C300.926 3.12664 301.035 3.10318 301.144 3.10302C301.408 3.11867 301.664 3.20045 301.892 3.3416C302.749 3.7792 303.439 4.51377 303.845 5.42294C303.873 5.48869 303.886 5.56043 303.884 5.63251C303.869 5.97301 303.784 6.30599 303.634 6.60796C303.473 6.96517 303.319 7.14441 303.164 7.15628C303.164 7.15628 303.164 7.15628 303.148 7.15628C303.148 7.15628 303.158 7.15628 303.164 7.15628C303.135 7.13782 302.675 7.05609 301.78 6.9111C301.48 7.50869 301.084 8.04731 300.611 8.50341C300.132 8.90581 299.605 9.24159 299.045 9.50254C298.864 9.5992 298.773 9.69587 298.772 9.79253C298.772 9.87953 298.834 9.94281 298.958 9.97709C299.589 10.1174 300.239 10.1352 300.876 10.0298C301.242 9.98672 302.11 9.79384 303.48 9.45113C303.653 9.40763 303.742 9.39445 303.742 9.41159C303.496 9.63948 303.233 9.84582 302.956 10.0285C302.57 10.2803 302.156 10.4791 301.723 10.6203C301.026 10.9049 300.288 11.0605 299.542 11.0803C298.761 11.0803 298.37 10.8128 298.369 10.2776L298.368 10.2763ZM302.04 21.1495C301.997 21.5296 301.887 21.8978 301.714 22.2343C301.654 22.3345 301.648 21.2971 301.528 20.7132C301.449 19.9851 301.225 19.283 300.87 18.6534C300.515 18.0237 300.038 17.4809 299.469 17.0607C299.448 16.5385 299.521 16.0167 299.685 15.5237C300.38 16.075 300.962 16.7697 301.395 17.5655C302.029 18.6322 302.26 19.9124 302.041 21.1508L302.04 21.1495ZM306.373 35.699C306.307 35.8136 306.236 35.844 306.161 35.7912C305.614 35.3615 304.995 34.9099 304.306 34.4362C304.107 34.9195 303.878 35.388 303.619 35.8387C303.556 35.9613 303.485 35.9916 303.408 35.9297C302.786 35.4305 302.143 34.9622 301.478 34.5245C301.455 34.4995 301.455 34.4454 301.478 34.3664L302.276 32.6462C302.327 32.5434 302.38 32.4893 302.436 32.4893C302.761 32.6364 303.067 32.8264 303.346 33.0548C303.715 33.3008 304.065 33.5776 304.392 33.8826L305.027 32.4946C305.077 32.3892 305.13 32.3364 305.189 32.3351C305.571 32.5174 305.931 32.7484 306.261 33.0232C306.892 33.481 307.207 33.7486 307.206 33.8259C307.053 34.5037 306.768 35.1412 306.373 35.699ZM311.762 32.1401C311.696 32.2547 311.625 32.285 311.551 32.2323C311.004 31.8035 310.386 31.3518 309.696 30.8773C309.497 31.3603 309.268 31.8288 309.011 32.2798C308.946 32.4023 308.875 32.4327 308.799 32.3707C308.176 31.8725 307.533 31.4045 306.868 30.9669C306.845 30.9405 306.845 30.8878 306.868 30.8074L307.666 29.0939C307.717 28.991 307.769 28.9383 307.827 28.937C308.151 29.0845 308.457 29.2745 308.736 29.5025C309.105 29.7483 309.455 30.0256 309.782 30.3316L310.418 28.9488C310.468 28.846 310.522 28.7933 310.579 28.792C310.961 28.9739 311.321 29.204 311.651 29.4774C312.282 29.9335 312.597 30.2006 312.597 30.2788C312.441 30.9517 312.157 31.584 311.763 32.1374L311.762 32.1401ZM307.541 27.4805L308.338 25.7563C308.389 25.6522 308.442 25.5995 308.499 25.5982C308.882 25.7791 309.242 26.0093 309.571 26.2836C310.202 26.7406 310.517 27.0081 310.517 27.0863C310.362 27.7632 310.078 28.3996 309.683 28.9568C309.617 29.0807 309.547 29.111 309.472 29.049C308.85 28.549 308.207 28.0793 307.542 27.64C307.518 27.6118 307.518 27.5578 307.542 27.4778L307.541 27.4805ZM313.316 22.1895C313.229 22.4898 313.108 22.7779 312.956 23.0476C310.781 23.8754 301.512 27.5095 298.607 28.7854C298.715 28.3444 298.857 27.9134 299.03 27.4963C301.34 26.6079 310.518 23.0226 313.108 22.0195C313.242 21.9667 313.321 21.9509 313.345 21.9667C313.369 21.9825 313.37 22.0616 313.318 22.1934L313.316 22.1895ZM326.888 21.2286C326.689 21.7118 326.46 22.1803 326.202 22.6311C326.137 22.7537 326.067 22.784 325.989 22.722C325.368 22.2229 324.725 21.7545 324.059 21.3169C324.035 21.2919 324.035 21.2378 324.059 21.1588L324.857 19.4386C324.908 19.3358 324.96 19.2817 325.017 19.2817C325.342 19.4287 325.648 19.6187 325.927 19.8472C326.296 20.0934 326.645 20.3702 326.973 20.675L327.609 19.287C327.658 19.1815 327.712 19.1288 327.77 19.1275C328.152 19.3105 328.512 19.5415 328.842 19.8156C329.473 20.273 329.787 20.5419 329.787 20.6183C329.633 21.2963 329.349 21.9337 328.953 22.4914C328.887 22.606 328.815 22.6364 328.741 22.5836C328.199 22.1531 327.582 21.7005 326.889 21.226L326.888 21.2286ZM330.958 28.8381C330.892 28.962 330.82 28.9924 330.746 28.9304C330.124 28.4304 329.481 27.9611 328.815 27.5226C328.788 27.4976 328.788 27.4435 328.815 27.3645L329.613 25.639C329.664 25.5349 329.716 25.4822 329.774 25.4809C330.156 25.6621 330.516 25.8923 330.845 26.1663C331.477 26.6232 331.792 26.8904 331.791 26.9677C331.637 27.6431 331.353 28.2782 330.959 28.8342L330.958 28.8381ZM328.677 17.7118C327.889 17.7718 327.103 17.5842 326.416 17.1727C326.079 16.9156 325.801 16.5828 325.601 16.1983C325.401 15.8138 325.284 15.3871 325.258 14.949C325.001 15.7256 324.566 16.4234 323.993 16.981C323.42 17.5386 322.727 17.9389 321.973 18.1468L322.004 18.6121C322.368 23.9286 322.549 26.9198 322.548 27.5859C322.582 29.4275 322.282 31.2589 321.664 32.981C321.576 33.2149 321.476 33.4432 321.364 33.6651C321.249 33.8786 321.179 33.9107 321.153 33.7613C321.125 33.4279 321.138 33.092 321.192 32.7622C321.269 32.0609 321.308 30.7943 321.308 29.8623C321.308 29.0214 321.105 26.0081 320.697 19.9171C320.658 19.3555 320.623 18.8257 320.589 18.3103C319.892 18.2853 319.208 18.1064 318.58 17.7849C317.953 17.4634 317.396 17.0065 316.946 16.4438C316.539 15.8386 316.173 15.2044 315.849 14.5457C315.551 14.0562 315.252 13.8106 314.952 13.8089C314.021 13.8089 313.042 14.6437 312.013 16.3133C311.634 17.0643 311.306 17.8421 311.029 18.6411C310.699 19.5866 310.286 20.4978 309.797 21.3631C309.63 21.7147 309.383 22.0167 309.078 22.2419C308.773 22.467 308.42 22.6081 308.05 22.6522C307.135 22.6522 306.363 21.8978 305.734 20.3889C305.175 19.0813 304.886 17.6626 304.887 16.2276C304.845 14.8223 305.014 13.4188 305.386 12.0689C305.486 11.6998 305.577 11.5166 305.661 11.5153C305.744 11.514 305.785 11.7433 305.737 12.1994C305.615 13.1331 305.547 14.0738 305.536 15.0163C305.536 18.6833 306.341 20.5164 307.951 20.5155C308.6 20.5155 309.198 19.9808 309.746 18.9113C310.295 17.6301 310.851 16.3498 311.415 15.0703C311.881 14.0673 312.499 13.1521 313.247 12.3616C313.744 11.7282 314.453 11.322 315.227 11.228C315.489 11.2554 315.741 11.3518 315.958 11.5084C316.176 11.665 316.354 11.8767 316.474 12.1243C316.79 12.67 317.106 13.2144 317.421 13.7574C317.772 14.3247 318.246 14.7945 318.805 15.127C319.312 15.3564 319.857 15.4804 320.408 15.4921C320.195 12.1612 320.088 10.2196 320.088 9.69237C320.112 8.9786 319.984 8.26822 319.713 7.61369C319.848 6.85438 320.082 6.11869 320.41 5.42821C320.468 5.2898 320.517 5.21862 320.559 5.2173C320.602 5.21598 320.668 5.29378 320.734 5.44273C320.867 5.7415 321.174 6.56619 321.655 7.91683C322.161 9.32283 322.456 10.1871 322.54 10.5096C322.595 10.6889 322.628 10.8749 322.639 11.0632C322.639 11.4507 322.289 11.2183 321.589 10.3659C321.506 10.2446 321.464 10.2961 321.464 10.5228C321.464 10.5861 321.573 12.2139 321.79 15.3998C322.656 15.2628 323.473 14.8893 324.16 14.3163C324.243 14.2469 324.618 13.8251 325.283 13.051C325.579 12.6581 325.914 12.2997 326.281 11.982C326.39 11.982 326.442 12.0702 326.442 12.2456C326.441 12.3483 326.424 12.4502 326.392 12.5474C326.306 12.8467 326.26 13.1573 326.255 13.4701C326.255 14.5589 327.569 15.0598 328.184 15.0993C329.332 15.1819 330.483 14.975 331.54 14.4956C332.721 14.0476 333.813 13.3723 334.761 12.5039C334.761 12.0575 334.458 11.6753 333.852 11.3572C333.317 11.0697 332.724 10.9206 332.123 10.9222H330.481C330.209 10.9368 329.938 10.8879 329.686 10.7787C329.434 10.6696 329.209 10.5029 329.025 10.2908C328.659 9.84295 328.467 9.26478 328.49 8.67344C328.515 7.69177 328.823 6.74153 329.373 5.95018C329.962 5.03804 330.568 4.58152 331.19 4.58065C331.771 4.62577 332.333 4.81513 332.832 5.13327C333.331 5.45141 333.751 5.88935 334.06 6.41153C335.028 7.77859 335.532 9.45013 335.491 11.1568C335.519 12.6358 335.006 14.0693 334.058 15.1586C333.414 16.0005 332.591 16.6703 331.656 17.1139C330.721 17.5574 329.701 17.7623 328.677 17.7118ZM337.482 23.273C336.938 24.1579 336.545 24.5999 336.304 24.599C336.295 24.599 335.93 24.6887 335.202 24.8627C334.642 25.016 334.067 25.1044 333.488 25.1263C333.216 25.1263 333.079 25.096 333.078 25.034C333.741 24.5522 334.455 24.1541 335.206 23.8477C336.295 23.3134 336.839 22.9448 336.839 22.7418C336.839 22.6983 336.62 22.668 336.177 22.6495C335.753 22.6552 335.331 22.5843 334.929 22.44C334.731 22.3648 334.56 22.2251 334.441 22.0408C334.322 21.8566 334.261 21.6373 334.268 21.4145C334.361 20.2583 334.812 19.1667 335.552 18.3089C336.36 17.2492 336.992 16.7184 337.448 16.7166C337.84 16.7166 338.036 16.9363 338.035 17.3757C338.026 17.7424 337.95 18.1038 337.81 18.4394C337.635 18.8858 337.44 19.1086 337.222 19.1077C337.171 19.1151 337.119 19.1019 337.076 19.0707C337.033 19.0395 337.002 18.9926 336.99 18.939C336.977 18.8825 336.944 18.8334 336.897 18.8014C336.851 18.7695 336.795 18.757 336.741 18.7663C336.6 18.7663 336.342 18.9394 335.966 19.2857C335.592 19.6337 335.403 19.8802 335.403 20.0278C335.403 20.3266 335.885 20.5106 336.848 20.5801C337.811 20.6495 338.293 20.9338 338.294 21.4329C338.16 22.1056 337.881 22.7365 337.478 23.277L337.482 23.273ZM315.337 67.8138C315.27 67.9285 315.199 67.9588 315.124 67.9061C314.577 67.4773 313.959 67.0256 313.269 66.551C313.07 67.0343 312.841 67.5028 312.583 67.9535C312.519 68.0761 312.448 68.1064 312.372 68.0445C311.751 67.5453 311.107 67.077 310.442 66.6394C310.418 66.613 310.418 66.5603 310.442 66.4812L311.239 64.7676C311.29 64.6648 311.343 64.6108 311.4 64.6108C311.725 64.7578 312.03 64.9478 312.31 65.1762C312.678 65.4225 313.028 65.6993 313.355 66.004L313.99 64.6161C314.04 64.5106 314.095 64.4579 314.152 64.4566C314.535 64.6391 314.895 64.8702 315.224 65.1446C315.856 65.6033 316.17 65.8696 316.17 65.9473C316.015 66.6229 315.732 67.258 315.337 67.8138ZM354.489 33.5254L355.287 31.8C355.338 31.6959 355.39 31.6431 355.448 31.6418C355.83 31.823 356.19 32.0532 356.519 32.3272C357.151 32.7842 357.466 33.0513 357.465 33.1286C357.311 33.8051 357.027 34.4411 356.632 34.9977C356.566 35.1217 356.495 35.152 356.42 35.09C355.798 34.59 355.155 34.1207 354.489 33.6822C354.462 33.6611 354.462 33.6045 354.489 33.5293V33.5254ZM346.927 46.041C347.061 45.9883 347.138 45.9725 347.164 45.9883C347.19 46.0041 347.188 46.0898 347.138 46.2124C347.051 46.5065 346.93 46.788 346.777 47.0507C346.728 47.1043 344.682 47.9281 340.637 49.5222C336.511 51.1435 333.725 52.3997 333.725 52.3997C333.775 52.2006 333.975 51.498 334.148 51.0617C338.267 49.4404 342.527 47.7664 346.927 46.0397V46.041ZM347.759 13.3383C347.391 13.2052 347.004 13.138 346.614 13.1393C346.357 13.1501 346.106 13.2217 345.879 13.3488C345.82 13.3752 345.784 13.3805 345.767 13.362C345.749 13.3436 345.757 13.3014 345.78 13.2302C345.884 12.9081 346.059 12.617 346.291 12.3813C346.574 12.1837 346.911 12.091 347.249 12.1177C348.221 12.1177 348.708 12.3686 348.708 12.8703C348.576 13.5017 348.247 14.068 347.774 14.4785C347.336 14.9547 346.896 15.4337 346.455 15.9152C346.297 16.1029 346.197 16.3377 346.17 16.5875C346.17 17.0093 346.618 17.2202 347.515 17.2202C348.418 17.2066 349.316 17.0557 350.179 16.772C350.444 16.6938 350.577 16.6718 350.577 16.7061C350.577 16.7404 350.477 16.8502 350.277 17.0356C349.392 17.8483 348.247 18.2727 347.076 18.2219C346.716 18.2395 346.361 18.1203 346.077 17.8858C345.955 17.7848 345.857 17.6552 345.79 17.5072C345.722 17.3593 345.689 17.197 345.691 17.033C345.719 16.3544 345.975 15.7085 346.413 15.2113C346.887 14.6744 347.365 14.1371 347.845 13.5993C347.947 13.4868 347.918 13.3994 347.758 13.337L347.759 13.3383Z" fill="#C9A755"/>
<path d="M12.3916 56.4248L2.60965 41.6328H0.00195312V60.569H2.52855V45.7506L12.338 60.5717H14.9182V41.6368H12.3916V56.4248Z" fill="white"/>
<path d="M28.7279 59.41V51.7161C28.7641 51.0591 28.6584 50.4019 28.4187 49.7945C28.1789 49.187 27.8115 48.6451 27.3442 48.2099C26.2576 47.3301 24.908 46.8918 23.5412 46.9748C22.9378 46.968 22.3351 47.0201 21.7408 47.1303C21.2655 47.2214 20.7981 47.3537 20.3433 47.5258C19.9713 47.6681 19.6119 47.8445 19.269 48.053C18.995 48.2198 18.7342 48.4098 18.4892 48.6211L19.6184 50.3532C20.0591 50.0298 20.5269 49.7496 21.0158 49.5161C21.7316 49.2098 22.5013 49.0691 23.2729 49.1036C24.0835 49.0575 24.8872 49.2811 25.5712 49.7429C25.8664 49.993 26.0983 50.3166 26.2461 50.6847C26.394 51.0527 26.4532 51.4538 26.4184 51.8519V52.3343C26.3286 52.3172 26.1763 52.2974 25.9617 52.2776C25.7471 52.2579 25.4951 52.2394 25.2131 52.2209L24.2985 52.1643C23.9766 52.1458 23.6747 52.1353 23.384 52.1353C21.9256 52.0313 20.4805 52.4851 19.3127 53.4138C18.8489 53.8321 18.481 54.3561 18.2366 54.9463C17.9922 55.5364 17.8776 56.1775 17.9015 56.8212C17.8816 57.4836 18.0152 58.1411 18.2908 58.7364C18.5355 59.2388 18.8849 59.676 19.3127 60.015C19.7306 60.3449 20.2052 60.5857 20.7101 60.7242C21.2141 60.8657 21.7333 60.9375 22.2548 60.9377C23.0609 60.9379 23.8595 60.7736 24.6067 60.454C25.3398 60.1553 25.9779 59.6435 26.4471 58.9777L26.5007 60.5673H28.7591C28.7404 60.3037 28.7316 60.0796 28.7316 59.9003L28.7279 59.41ZM26.4171 55.8326C26.4143 56.2409 26.3125 56.6416 26.1214 56.9965C25.9231 57.3767 25.6585 57.7139 25.3416 57.9904C25.0081 58.2812 24.6311 58.5115 24.2262 58.6718C23.8015 58.8427 23.3506 58.929 22.8961 58.9263C22.2115 58.9686 21.5323 58.7748 20.961 58.374C20.7269 58.1829 20.5406 57.9341 20.4186 57.6494C20.2966 57.3647 20.2425 57.0527 20.261 56.7408C20.2637 56.4375 20.3091 56.1363 20.3957 55.8471C20.4918 55.5232 20.6634 55.2299 20.8948 54.9943C21.1811 54.7095 21.5213 54.492 21.893 54.3563C22.4247 54.1672 22.9842 54.0805 23.5449 54.1006C23.8319 54.1006 24.1276 54.1098 24.432 54.1283L25.2917 54.1849C25.56 54.2047 25.7983 54.2285 26.0042 54.2561C26.21 54.2838 26.3498 54.3088 26.4209 54.3273L26.4171 55.8326Z" fill="white"/>
<path d="M38.483 58.5572C38.1182 58.7209 37.7238 58.7983 37.3277 58.7839C37.0775 58.7988 36.8274 58.7526 36.5968 58.6491C36.3662 58.5456 36.1611 58.3874 35.9976 58.1868C35.6203 57.5317 35.4552 56.7645 35.5272 56.0013V49.4964H39.183V47.3663H35.5272V43.0508H33.108V47.3663H30.8496V49.4964H33.108V56.2531C33.01 57.5145 33.3384 58.7718 34.035 59.8015C34.4118 60.206 34.8686 60.5177 35.3727 60.7141C35.8767 60.9105 36.4156 60.9868 36.9509 60.9377C37.6098 60.9692 38.2675 60.8511 38.8796 60.5915C39.4917 60.3318 40.044 59.9366 40.4993 59.4324L39.3976 57.8718C39.1288 58.1496 38.8201 58.3809 38.483 58.5572Z" fill="white"/>
<path d="M44.8802 47.3711H42.4609V60.5734H44.8802V47.3711Z" fill="white"/>
<path d="M45.0126 42.1445H42.2988V45.0115H45.0126V42.1445Z" fill="white"/>
<path d="M59.0689 49.0179C58.454 48.3527 57.7178 47.8261 56.9048 47.4699C56.0918 47.1138 55.2189 46.9355 54.3388 46.9458C53.4254 46.9347 52.5197 47.1236 51.6788 47.5007C50.8948 47.8533 50.1865 48.3698 49.5964 49.0192C49.0114 49.6654 48.5459 50.4213 48.2238 51.2482C47.5608 52.9874 47.5608 54.9303 48.2238 56.6696C48.5457 57.4969 49.0112 58.2534 49.5964 58.8999C50.1865 59.5492 50.8948 60.0657 51.6788 60.4184C52.5199 60.7947 53.4255 60.9832 54.3388 60.972C55.2436 60.9816 56.1404 60.7931 56.9728 60.4184C57.7596 60.0634 58.472 59.5473 59.0689 58.8999C59.6599 58.2559 60.1295 57.4991 60.4526 56.6696C61.1163 54.9305 61.1163 52.9873 60.4526 51.2482C60.1294 50.4188 59.6598 49.6619 59.0689 49.0179ZM58.2217 55.7324C58.042 56.2933 57.7639 56.8133 57.402 57.2654C57.0372 57.7161 56.5893 58.0834 56.0856 58.3449C55.5421 58.6255 54.9437 58.7668 54.3388 58.7575C53.7383 58.7679 53.1441 58.6265 52.6058 58.3449C52.1024 58.0771 51.6549 57.7055 51.2895 57.2522C50.9235 56.8007 50.6407 56.2807 50.456 55.7192C50.2683 55.1538 50.173 54.5588 50.1741 53.9595C50.1738 53.3557 50.2691 52.756 50.456 52.1853C50.6357 51.6245 50.9138 51.1044 51.2758 50.6524C51.6412 50.2019 52.0894 49.8347 52.5933 49.5728C53.137 49.293 53.7354 49.1521 54.3401 49.1615C54.9406 49.1509 55.5347 49.2919 56.0732 49.5728C56.5767 49.8409 57.0247 50.2124 57.3908 50.6656C57.7582 51.1214 58.0409 51.6464 58.2242 52.213C58.4096 52.7745 58.5049 53.3648 58.5062 53.9595C58.5056 54.5631 58.4094 55.1624 58.2217 55.7324Z" fill="white"/>
<path d="M70.2482 47.0614C69.725 47.0545 69.2038 47.1313 68.7023 47.2894C68.2823 47.4235 67.8806 47.6144 67.507 47.8575C67.1891 48.0654 66.8997 48.3187 66.6473 48.6102C66.4127 48.8857 66.2169 49.1374 66.0559 49.3628L65.9748 47.3751H63.6641C63.6824 47.7538 63.6916 48.0328 63.6916 48.2121V60.5709H66.1096V54.4376C66.1089 53.8032 66.1716 53.1705 66.2967 52.5501C66.4105 51.9694 66.6155 51.4129 66.9031 50.9037C67.1938 50.3819 67.6139 49.954 68.1182 49.6664C68.6225 49.3788 69.1917 49.2424 69.7641 49.2719C70.1557 49.2478 70.5476 49.3125 70.9135 49.4619C71.2794 49.6113 71.6107 49.8418 71.8852 50.1379C72.4444 50.9123 72.7113 51.8787 72.6338 52.8493V60.5709H75.0519V52.6489C75.128 51.1821 74.7093 49.7342 73.8703 48.5627C73.4136 48.039 72.8503 47.6317 72.2228 47.3716C71.5954 47.1115 70.9202 47.0055 70.2482 47.0614Z" fill="white"/>
<path d="M88.4163 59.41V51.7161C88.4524 51.0591 88.3466 50.4021 88.1068 49.7946C87.8671 49.1872 87.4998 48.6453 87.0326 48.2099C85.946 47.33 84.5964 46.8917 83.2296 46.9748C82.6258 46.9679 82.0227 47.02 81.4279 47.1304C80.9526 47.2213 80.4852 47.3535 80.0305 47.5258C79.6582 47.6682 79.2983 47.8446 78.955 48.053C78.6813 48.2198 78.4209 48.4098 78.1764 48.6211L79.2993 50.3532C79.74 50.0297 80.2077 49.7495 80.6968 49.5162C81.4126 49.2098 82.1823 49.0691 82.9539 49.1036C83.7644 49.0576 84.5682 49.2812 85.2521 49.7429C85.5473 49.9931 85.7792 50.3167 85.9271 50.6847C86.0749 51.0527 86.1341 51.4538 86.0993 51.8519V52.3343C86.0095 52.3172 85.8573 52.2974 85.6414 52.2777C85.4256 52.2579 85.1761 52.2394 84.8928 52.221L83.9782 52.1643C83.6555 52.145 83.3507 52.1353 83.0637 52.1353C81.6053 52.0312 80.1602 52.485 78.9924 53.4139C78.5287 53.8322 78.1607 54.3561 77.9163 54.9463C77.6719 55.5365 77.5573 56.1775 77.5812 56.8212C77.5616 57.4836 77.6953 58.141 77.9705 58.7365C78.2152 59.2388 78.5646 59.676 78.9924 60.015C79.4105 60.3447 79.885 60.5855 80.3899 60.7242C80.8942 60.8658 81.4138 60.9376 81.9357 60.9378C82.7414 60.9379 83.5397 60.7737 84.2864 60.454C85.0199 60.1554 85.6584 59.6436 86.1281 58.9777L86.1817 60.5674H88.44C88.4217 60.3037 88.413 60.0814 88.4138 59.9004L88.4163 59.41ZM86.1056 55.8326C86.1027 56.2409 86.0009 56.6416 85.8099 56.9965C85.6119 57.377 85.3473 57.7143 85.0301 57.9904C84.6964 58.281 84.3194 58.5113 83.9146 58.6719C83.4898 58.8425 83.0389 58.9288 82.5845 58.9263C81.9003 58.968 81.2217 58.7742 80.6506 58.374C80.4168 58.1827 80.2309 57.9338 80.1091 57.6492C79.9873 57.3645 79.9334 57.0526 79.9519 56.7408C79.9546 56.4375 80 56.1363 80.0866 55.8471C80.1827 55.5232 80.3543 55.2299 80.5857 54.9943C80.872 54.7095 81.2122 54.492 81.5839 54.3563C82.1164 54.167 82.6768 54.0804 83.2383 54.1006C83.5245 54.1006 83.8202 54.1098 84.1254 54.1283L84.9851 54.185C85.2546 54.2047 85.4917 54.2285 85.6976 54.2562C85.9034 54.2838 86.0419 54.3089 86.1143 54.3273L86.1056 55.8326Z" fill="white"/>
<path d="M94.1146 41.6367H91.6953V60.5729H94.1146V41.6367Z" fill="white"/>
<path d="M106.328 45.8378C106.895 45.1266 107.606 44.5585 108.408 44.1753C109.21 43.7921 110.083 43.6035 110.964 43.6233C111.592 43.6124 112.218 43.7081 112.818 43.9067C113.32 44.0778 113.798 44.3166 114.243 44.6172C114.635 44.8831 114.992 45.2027 115.304 45.5676C115.577 45.8885 115.833 46.2252 116.07 46.5759L117.897 44.9296C117.607 44.4822 117.278 44.0639 116.915 43.68C116.479 43.2171 115.992 42.8117 115.464 42.4726C114.099 41.6017 112.53 41.154 110.936 41.1808C109.675 41.1634 108.424 41.4299 107.268 41.9625C106.193 42.4625 105.228 43.1923 104.433 44.1058C103.634 45.0323 103.009 46.1113 102.591 47.2851C101.714 49.81 101.714 52.5819 102.591 55.1068C103.005 56.2655 103.631 57.3266 104.433 58.2295C105.228 59.115 106.189 59.8161 107.254 60.2884C108.404 60.7922 109.638 61.0434 110.882 61.0265C111.748 61.037 112.609 60.9036 113.435 60.6311C114.15 60.3915 114.834 60.0623 115.474 59.6504C116.019 59.3009 116.523 58.8865 116.979 58.4153C117.325 58.0657 117.632 57.6752 117.893 57.2514L116.092 55.6618C115.913 55.8709 115.694 56.1315 115.434 56.4434C115.136 56.7908 114.801 57.1005 114.436 57.3661C113.98 57.6971 113.483 57.9596 112.959 58.1464C112.286 58.3784 111.582 58.4885 110.875 58.472C109.986 58.4858 109.105 58.2923 108.295 57.9052C107.542 57.5402 106.873 57.0073 106.333 56.3433C105.781 55.6526 105.358 54.8579 105.086 54.0009C104.786 53.0735 104.636 52.0994 104.643 51.1195C104.637 50.1346 104.782 49.1553 105.073 48.2197C105.342 47.3476 105.768 46.5388 106.328 45.8378Z" fill="white"/>
<path d="M131.706 59.2381V47.375H129.287V53.5083C129.288 54.1419 129.23 54.7742 129.114 55.3958C129.009 55.9794 128.803 56.5377 128.508 57.0434C128.226 57.5209 127.844 57.9237 127.392 58.2205C126.867 58.5427 126.266 58.7004 125.66 58.6753C125.274 58.7024 124.887 58.6418 124.526 58.4974C124.164 58.353 123.836 58.1282 123.564 57.8383C123.015 57.0594 122.756 56.0942 122.838 55.1269V47.3763H120.42V55.2983C120.341 56.7574 120.75 58.1992 121.575 59.3726C122.027 59.8954 122.587 60.3017 123.211 60.5601C123.836 60.8186 124.508 60.9223 125.176 60.8634C125.695 60.8719 126.211 60.7954 126.708 60.6367C127.121 60.5014 127.518 60.3152 127.89 60.0818C128.207 59.8844 128.497 59.6407 128.751 59.3581C128.96 59.1233 129.156 58.8769 129.341 58.6199L129.422 60.5787H131.732C131.714 60.315 131.705 60.0453 131.706 59.7694V59.2381Z" fill="white"/>
<path d="M137.46 41.6367H135.041V60.5729H137.46V41.6367Z" fill="white"/>
<path d="M147.218 58.5572C146.853 58.721 146.458 58.7984 146.062 58.7839C145.812 58.7991 145.562 58.7531 145.331 58.6495C145.1 58.5459 144.896 58.3876 144.732 58.1868C144.354 57.5318 144.189 56.7645 144.262 56.0013V49.4964H147.919V47.3663H144.264V43.0508H141.846V47.3663H139.588V49.4964H141.846V56.2531C141.748 57.5146 142.076 58.772 142.773 59.8015C143.15 60.2062 143.607 60.5179 144.111 60.7143C144.615 60.9107 145.154 60.987 145.689 60.9377C146.348 60.969 147.005 60.8508 147.617 60.5912C148.229 60.3315 148.781 59.9364 149.236 59.4324L148.135 57.8718C147.865 58.1499 147.556 58.3812 147.218 58.5572Z" fill="white"/>
<path d="M162.023 59.2381V47.375H159.605V53.5083C159.605 54.142 159.547 54.7742 159.43 55.3958C159.325 55.9794 159.12 56.5378 158.825 57.0434C158.543 57.5207 158.161 57.9234 157.709 58.2205C157.184 58.5426 156.583 58.7003 155.976 58.6753C155.591 58.7024 155.204 58.6417 154.842 58.4973C154.481 58.3529 154.153 58.1282 153.88 57.8383C153.331 57.0594 153.073 56.0942 153.154 55.1269V47.3763H150.736V55.2983C150.658 56.7574 151.067 58.1992 151.891 59.3726C152.344 59.8954 152.904 60.3017 153.528 60.5601C154.152 60.8186 154.824 60.9223 155.492 60.8634C156.011 60.8718 156.528 60.7954 157.024 60.6367C157.438 60.5013 157.835 60.315 158.207 60.0818C158.524 59.8841 158.814 59.6405 159.067 59.3581C159.276 59.1233 159.473 58.8769 159.657 58.6199L159.738 60.5787H162.049C162.031 60.315 162.023 60.0448 162.023 59.7694V59.2381Z" fill="white"/>
<path d="M171.832 47.1725C171.317 47.1637 170.805 47.2452 170.315 47.4137C169.909 47.5583 169.52 47.7539 169.158 47.9964C168.846 48.2069 168.562 48.4599 168.313 48.749C168.107 48.9854 167.919 49.2369 167.747 49.5016L167.666 47.3716H165.355C165.373 47.7512 165.382 48.0306 165.382 48.1954V60.5739H167.8V53.6181C167.798 53.083 167.894 52.5526 168.083 52.0562C168.261 51.5797 168.521 51.1418 168.849 50.7644C169.334 50.2389 169.949 49.8684 170.624 49.6952C171.299 49.522 172.007 49.5531 172.666 49.785L173.202 47.3992C172.997 47.3218 172.786 47.2649 172.571 47.2292C172.327 47.1892 172.08 47.1703 171.832 47.1725Z" fill="white"/>
<path d="M184.868 59.41V51.7161C184.904 51.059 184.799 50.4019 184.559 49.7945C184.319 49.187 183.952 48.6452 183.484 48.2098C182.398 47.3303 181.049 46.892 179.683 46.9747C179.079 46.9679 178.476 47.02 177.881 47.1303C177.406 47.2213 176.938 47.3535 176.484 47.5257C176.111 47.6682 175.751 47.8446 175.408 48.053C175.134 48.2198 174.874 48.4098 174.629 48.6211L175.752 50.3531C176.193 50.0296 176.661 49.7494 177.15 49.5161C177.866 49.2097 178.635 49.0691 179.407 49.1035C180.217 49.0576 181.021 49.2812 181.705 49.7428C182 49.9931 182.232 50.3168 182.38 50.6848C182.527 51.0529 182.586 51.4538 182.551 51.8518V52.3343C182.461 52.3171 182.309 52.2974 182.093 52.2776C181.877 52.2578 181.628 52.2394 181.345 52.2209L180.431 52.1642C180.109 52.1449 179.804 52.1352 179.517 52.1352C178.058 52.0313 176.613 52.4852 175.445 53.4138C174.982 53.8321 174.614 54.3561 174.369 54.9463C174.125 55.5364 174.01 56.1775 174.034 56.8211C174.015 57.4835 174.148 58.141 174.424 58.7364C174.668 59.2388 175.018 59.676 175.445 60.015C175.864 60.3446 176.338 60.5854 176.843 60.7241C177.347 60.8656 177.866 60.9374 178.388 60.9377C179.193 60.9379 179.991 60.7736 180.738 60.4539C181.472 60.1554 182.11 59.6436 182.58 58.9776L182.633 60.5673H184.892C184.874 60.3037 184.865 60.0813 184.866 59.9003L184.868 59.41ZM182.557 55.8326C182.555 56.2408 182.453 56.6415 182.262 56.9965C182.064 57.3769 181.799 57.7142 181.482 57.9903C181.148 58.281 180.771 58.5113 180.366 58.6718C179.942 58.8424 179.491 58.9287 179.036 58.9262C178.352 58.9683 177.673 58.7745 177.101 58.3739C176.867 58.1826 176.681 57.9338 176.56 57.6491C176.438 57.3644 176.384 57.0525 176.402 56.7407C176.405 56.4374 176.451 56.1363 176.537 55.8471C176.633 55.5231 176.805 55.2299 177.036 54.9942C177.323 54.7095 177.663 54.492 178.034 54.3563C178.567 54.167 179.127 54.0803 179.689 54.1005C179.975 54.1005 180.271 54.1098 180.576 54.1282L181.436 54.1849C181.705 54.2047 181.942 54.2284 182.148 54.2561C182.354 54.2838 182.492 54.3088 182.565 54.3273L182.557 55.8326Z" fill="white"/>
<path d="M190.562 41.6367H188.143V60.5729H190.562V41.6367Z" fill="white"/>
<path d="M205.031 41.6367L198.018 60.5729H200.731L202.587 55.2925H209.948L211.802 60.5729H214.678L207.665 41.6367H205.031ZM203.338 52.9924L206.267 44.6737L209.17 52.9924H203.338Z" fill="white"/>
<path d="M227.409 57.5352L224.4 47.3711H222.33L219.32 57.4495L216.525 47.3711H213.865L218.084 60.5734H220.342L223.212 51.3466L226.114 60.5734H228.508L232.647 47.3711H230.151L227.409 57.5352Z" fill="white"/>
<path d="M244.744 59.41V51.7161C244.78 51.059 244.675 50.4019 244.435 49.7944C244.195 49.1869 243.828 48.6451 243.36 48.2099C242.274 47.3302 240.925 46.8919 239.558 46.9748C238.955 46.968 238.352 47.02 237.758 47.1303C237.283 47.2213 236.815 47.3535 236.361 47.5257C235.988 47.668 235.628 47.8445 235.285 48.053C235.011 48.2199 234.75 48.4099 234.505 48.6211L235.628 50.3532C236.069 50.0298 236.537 49.7496 237.026 49.5161C237.742 49.2096 238.512 49.0689 239.284 49.1036C240.094 49.0578 240.897 49.2814 241.581 49.7428C241.876 49.9931 242.108 50.3167 242.256 50.6847C242.404 51.0528 242.463 51.4537 242.428 51.8519V52.3343C242.338 52.3171 242.186 52.2974 241.97 52.2776C241.754 52.2578 241.504 52.2394 241.222 52.2209L240.307 52.1642C239.985 52.1449 239.681 52.1352 239.394 52.1352C237.935 52.0312 236.489 52.485 235.321 53.4138C234.858 53.8322 234.49 54.3562 234.246 54.9464C234.002 55.5366 233.887 56.1776 233.911 56.8212C233.892 57.4835 234.025 58.141 234.301 58.7364C234.545 59.2387 234.894 59.6758 235.321 60.015C235.739 60.3446 236.214 60.5854 236.719 60.7241C237.223 60.8656 237.743 60.9375 238.265 60.9377C239.07 60.9378 239.868 60.7735 240.615 60.4539C241.348 60.1552 241.986 59.6434 242.456 58.9777L242.509 60.5673H244.768C244.749 60.3037 244.74 60.0796 244.74 59.9003L244.744 59.41ZM242.433 55.8326C242.43 56.2409 242.329 56.6415 242.137 56.9965C241.939 57.3767 241.675 57.714 241.358 57.9903C241.024 58.2809 240.647 58.5111 240.242 58.6718C239.817 58.8425 239.367 58.9288 238.912 58.9262C238.228 58.9681 237.549 58.7743 236.977 58.3739C236.743 58.1826 236.557 57.9338 236.435 57.6491C236.314 57.3644 236.26 57.0526 236.278 56.7408C236.281 56.4375 236.326 56.1363 236.413 55.8471C236.509 55.5232 236.681 55.2299 236.912 54.9943C237.199 54.7097 237.539 54.4923 237.91 54.3563C238.442 54.1671 239.002 54.0805 239.563 54.1006C239.85 54.1006 240.145 54.1098 240.451 54.1282L241.31 54.1849C241.578 54.2047 241.817 54.2284 242.021 54.2561C242.226 54.2838 242.366 54.3088 242.439 54.3273L242.433 55.8326Z" fill="white"/>
<path d="M254.496 47.1725C253.981 47.1636 253.468 47.2451 252.978 47.4137C252.572 47.5581 252.184 47.7537 251.822 47.9964C251.509 48.2068 251.224 48.4599 250.975 48.749C250.77 48.9854 250.581 49.2369 250.409 49.5017L250.33 47.3716H248.018C248.036 47.7503 248.045 48.0249 248.045 48.1954V60.5739H250.463V53.6182C250.461 53.083 250.557 52.5526 250.746 52.0562C250.925 51.5796 251.184 51.1418 251.512 50.7644C251.997 50.2391 252.612 49.8686 253.287 49.6954C253.962 49.5221 254.669 49.5532 255.328 49.7851L255.866 47.3992C255.661 47.3218 255.449 47.2649 255.234 47.2292C254.99 47.1893 254.743 47.1704 254.496 47.1725Z" fill="white"/>
<path d="M268.577 59.2364V41.6367H266.158V47.911C265.678 47.6557 265.177 47.4466 264.661 47.2862C264.087 47.1239 263.495 47.0472 262.901 47.0582C262.182 47.0676 261.47 47.2012 260.792 47.4536C260.032 47.7291 259.329 48.1579 258.723 48.7164C258.06 49.3319 257.525 50.0859 257.151 50.9309C256.715 51.9414 256.502 53.0433 256.527 54.1536C256.515 55.1133 256.656 56.0683 256.944 56.9784C257.194 57.7686 257.591 58.4975 258.113 59.1217C258.607 59.7027 259.212 60.1671 259.888 60.4846C260.581 60.8093 261.332 60.9737 262.091 60.967C262.634 60.9779 263.175 60.8914 263.69 60.7113C264.109 60.56 264.509 60.3602 264.886 60.1155C265.186 59.9225 265.461 59.6889 265.704 59.4209C265.909 59.1836 266.059 59.0083 266.148 58.8936L266.228 60.569H268.593C268.575 60.3053 268.567 60.0338 268.567 59.7597L268.577 59.2364ZM266.158 55.0051C266.152 55.4254 266.084 55.8421 265.956 56.2402C265.821 56.684 265.609 57.0977 265.332 57.4608C265.036 57.8467 264.664 58.1612 264.243 58.3835C263.742 58.6423 263.189 58.7689 262.631 58.7526C262.072 58.7671 261.517 58.6458 261.009 58.398C260.566 58.1709 260.181 57.8351 259.886 57.4187C259.58 56.9802 259.357 56.484 259.227 55.9569C259.081 55.3782 259.009 54.7815 259.012 54.1826C259.002 53.4874 259.107 52.7957 259.321 52.1382C259.506 51.5708 259.798 51.0492 260.181 50.6053C260.543 50.193 260.982 49.8645 261.471 49.6404C261.983 49.409 262.536 49.2928 263.093 49.299C263.713 49.2835 264.331 49.3793 264.921 49.5824C265.369 49.7408 265.788 49.9813 266.157 50.2929L266.158 55.0051Z" fill="white"/>
<path d="M9.58968 10.8795L7.74306 8.90234L5.89648 10.8795L7.74306 12.8567L9.58968 10.8795Z" fill="white"/>
<path d="M5.24206 10.8795L3.39544 8.90234L1.54883 10.8795L3.39544 12.8567L5.24206 10.8795Z" fill="white"/>
<path d="M19.8651 35.4498L18.0185 33.4727L16.1719 35.4498L18.0185 37.427L19.8651 35.4498Z" fill="white"/>
<path d="M24.2108 35.4459L22.3642 33.4688L20.5176 35.4459L22.3642 37.4231L24.2108 35.4459Z" fill="white"/>
<path d="M34.8729 17.6139L33.0263 15.6367L31.1797 17.6139L33.0263 19.5911L34.8729 17.6139Z" fill="white"/>
<path d="M57.294 24.9091C57.2995 24.0633 57.1687 23.2227 56.9072 22.4232C56.6682 21.684 56.3051 20.9964 55.8354 20.3932C55.3936 19.8298 54.846 19.3693 54.2271 19.0408C53.6073 18.7145 52.9233 18.5474 52.2308 18.5531C50.9666 18.6225 49.7743 19.1957 48.8945 20.1573C47.623 21.4563 46.5751 22.979 45.7976 24.6574L46.006 10.6562L43.6528 11.0978L43.8625 28.1175H37.0138C34.6507 28.1175 33.4695 27.4676 33.4704 26.168C33.4704 26.0006 33.5103 25.5484 33.5951 24.8156C33.6799 24.0827 33.7636 23.2747 33.8634 22.3928L31.8383 22.1411C31.7984 22.4144 31.7568 22.7289 31.7136 23.0848C31.6703 23.4407 31.6204 23.7971 31.5638 24.1538C31.504 24.5115 31.4445 24.863 31.3854 25.2084C31.3264 25.5537 31.2769 25.842 31.237 26.0731C31.1737 26.4155 31.0339 26.7369 30.8293 27.0107C30.6246 27.2844 30.361 27.5026 30.0604 27.6469C29.1455 28.0143 28.1679 28.175 27.1906 28.1188H24.8088C22.4465 28.1188 21.2653 27.469 21.2653 26.1693C21.2653 26.0019 21.304 25.5498 21.3901 24.8169C21.4762 24.084 21.5585 23.276 21.6583 22.3942L19.6333 22.1424C19.5934 22.4157 19.5518 22.7303 19.5085 23.0862C19.4653 23.4421 19.4158 23.7984 19.36 24.1552C19.3002 24.5128 19.2407 24.8644 19.1816 25.2097C19.1226 25.5551 19.0731 25.8432 19.0332 26.0744C18.9697 26.4167 18.8299 26.7381 18.6252 27.0118C18.4206 27.2855 18.1571 27.5037 17.8566 27.6482C16.9417 28.0156 15.9641 28.1763 14.9868 28.1201H12.6025C11.8553 28.1883 11.1086 27.9831 10.4876 27.5388C10.2508 27.2879 10.0715 26.9831 9.96335 26.6477C9.85522 26.3123 9.82116 25.9552 9.86377 25.6038L9.98855 14.9388L7.63536 15.3791V17.297C5.60568 17.6509 3.68273 18.5023 2.02069 19.783C1.40018 20.2527 0.893705 20.8709 0.542623 21.5871C0.191541 22.3032 0.00582723 23.0969 0.000674754 23.9034C-0.0103245 24.5094 0.113287 25.1097 0.361606 25.6561C0.609924 26.2025 0.97603 26.6799 1.43054 27.0498C1.89037 27.4188 2.41 27.6962 2.96397 27.8684C3.57785 28.0605 4.21525 28.1555 4.85548 28.1504C5.88408 28.1775 6.90119 27.9169 7.80381 27.3951C8.14153 29.7678 9.73943 30.9541 12.5975 30.9541H14.9731C16.0731 30.9807 17.1684 30.7939 18.2047 30.4031C18.9989 30.1245 19.6843 29.5774 20.1549 28.8464C20.9293 30.2524 22.4777 30.9554 24.8001 30.9554H27.1832C28.2828 30.982 29.3777 30.7952 30.4135 30.4044C31.2078 30.1261 31.8932 29.579 32.3636 28.8477C33.138 30.2537 34.6868 30.9567 37.0101 30.9567H47.522C54.0367 30.9523 57.294 28.9364 57.294 24.9091ZM5.21234 25.4127C4.80784 25.4138 4.40405 25.3767 4.00579 25.3019C3.64918 25.2396 3.30292 25.1233 2.97768 24.9566C2.6994 24.8169 2.45876 24.6057 2.27775 24.3423C2.1021 24.0636 2.01471 23.7331 2.02819 23.3986C2.03123 22.9287 2.19522 22.476 2.48984 22.124C2.8409 21.6987 3.26406 21.3464 3.73754 21.0852C4.30918 20.7624 4.9136 20.509 5.53923 20.33C6.232 20.1279 6.93935 19.9864 7.6541 19.9069L7.71399 24.9711C6.91331 25.2813 6.065 25.4315 5.21234 25.414V25.4127ZM49.0068 23.1626C49.4031 22.6636 49.891 22.2545 50.441 21.96C50.991 21.6655 51.5918 21.4917 52.2071 21.4491C52.603 21.4474 52.9943 21.5374 53.3537 21.7127C53.7192 21.8898 54.0482 22.141 54.322 22.4522C54.897 23.1126 55.2159 23.9775 55.2153 24.8749C55.2138 25.4404 55.0367 25.9898 54.7113 26.4388C54.3859 26.8879 53.93 27.2118 53.4136 27.3609C51.5085 27.9666 49.5189 28.2216 47.532 28.1148H45.8937C46.682 26.3055 47.7299 24.6355 49.0005 23.164L49.0068 23.1626Z" fill="white"/>
<path d="M78.5066 28.4786C78.8534 27.7986 79.023 27.0335 78.9982 26.2615L79.1229 10.6562L76.7698 11.0978L76.8596 26.5199C76.861 26.662 76.8337 26.8029 76.7797 26.9331C76.7258 27.0633 76.6462 27.1799 76.5464 27.2752C76.3144 27.5 76.0409 27.6714 75.7429 27.7787C75.3795 27.912 75.0026 28.0005 74.6199 28.0423C74.2059 28.0949 73.7893 28.1214 73.3722 28.1214H69.5306V27.8077C69.6563 25.6241 69.2082 23.4463 68.2355 21.515C67.874 20.8418 67.3467 20.2846 66.7097 19.9024C66.0727 19.5201 65.3496 19.3272 64.6171 19.344C63.968 19.3386 63.3268 19.4948 62.7456 19.8001C62.168 20.1056 61.6601 20.54 61.2571 21.0734C60.8232 21.6516 60.4902 22.3069 60.2739 23.0084C60.0292 23.7951 59.9082 24.6189 59.9158 25.447C59.8754 26.1771 59.997 26.9072 60.271 27.5789C60.5451 28.2505 60.9639 28.8453 61.4941 29.3157C62.7908 30.2973 64.3689 30.7751 65.9609 30.6681H67.004C66.0317 32.7656 63.6689 34.0973 59.9158 34.6633L60.9876 37.2428C62.8369 37.0217 64.6013 36.3013 66.1107 35.151C67.4659 34.0981 68.4841 32.6328 69.029 30.9514H73.3773C74.0734 30.9531 74.7676 30.8735 75.4472 30.7142C76.0836 30.5684 76.6893 30.3004 77.2339 29.9233C77.7591 29.5533 78.1949 29.0585 78.5066 28.4786ZM66.279 28.1174C63.3611 28.1174 61.9017 27.2053 61.9009 25.381C61.8624 24.517 62.1218 23.6675 62.6308 22.99C62.8593 22.6955 63.1485 22.4601 63.4764 22.302C63.8042 22.1439 64.1621 22.0672 64.5223 22.0778C64.9935 22.0806 65.4539 22.2276 65.8476 22.501C66.2414 22.7745 66.5515 23.1627 66.7407 23.6187C67.3408 25.0299 67.6117 26.5727 67.5306 28.1174H66.279Z" fill="white"/>
<path d="M85.0778 30.9488L85.2262 10.6562L82.873 11.0965L83.0215 30.9488H85.0778Z" fill="white"/>
<path d="M103.398 10.8795L101.552 8.90234L99.7051 10.8795L101.552 12.8567L103.398 10.8795Z" fill="white"/>
<path d="M99.0506 10.8795L97.204 8.90234L95.3574 10.8795L97.204 12.8567L99.0506 10.8795Z" fill="white"/>
<path d="M114.326 35.4498L116.173 37.427L118.019 35.4498L116.173 33.4727L114.326 35.4498Z" fill="white"/>
<path d="M113.672 35.4498L111.825 33.4727L109.979 35.4498L111.825 37.427L113.672 35.4498Z" fill="white"/>
<path d="M128.592 10.7233L126.745 8.74609L124.898 10.7233L126.745 12.7005L128.592 10.7233Z" fill="white"/>
<path d="M120.997 30.9514H121.682C122.734 30.9514 123.657 30.9356 124.452 30.904C125.246 30.8723 125.951 30.8148 126.565 30.7313C127.101 30.6628 127.633 30.563 128.159 30.4321C128.585 30.3252 128.999 30.1723 129.395 29.976C130.114 29.6556 130.697 29.068 131.033 28.3244C131.398 27.3162 131.56 26.2389 131.51 25.1609C131.64 22.622 131.227 20.0849 130.304 17.7372C130.102 17.2163 129.8 16.7455 129.416 16.3549C129.033 15.9642 128.576 15.6623 128.076 15.4683C127.576 15.2744 127.043 15.1926 126.512 15.2283C125.98 15.264 125.461 15.4164 124.988 15.6756C124.429 15.9831 123.937 16.4121 123.545 16.9344C123.122 17.5001 122.794 18.1387 122.576 18.822C122.335 19.566 122.215 20.3476 122.22 21.134C122.185 21.7483 122.267 22.3636 122.46 22.9442C122.653 23.5249 122.953 24.0593 123.343 24.5163C123.749 24.9319 124.233 25.254 124.764 25.4625C125.294 25.6709 125.859 25.7612 126.424 25.7277C126.996 25.7316 127.564 25.6358 128.106 25.4443C128.608 25.2676 129.077 24.9999 129.491 24.6534V26.8547C129.491 27.2747 128.836 27.5897 127.526 27.7998C125.59 28.0464 123.639 28.1512 121.689 28.1135H118.624C116.261 28.1135 115.079 27.4636 115.08 26.164C115.08 25.9966 115.119 25.5445 115.205 24.8116C115.291 24.0787 115.374 23.2707 115.473 22.3888L113.433 22.1411C113.393 22.4143 113.351 22.7289 113.309 23.0848C113.267 23.442 113.219 23.7979 113.159 24.1538C113.099 24.5097 113.034 24.8617 112.98 25.2083C112.927 25.555 112.872 25.8424 112.832 26.073C112.768 26.4153 112.629 26.7366 112.424 27.0103C112.219 27.284 111.956 27.5023 111.655 27.6469C110.74 28.0143 109.763 28.175 108.786 28.1188H106.404C105.657 28.1868 104.911 27.9816 104.29 27.5375C104.053 27.2864 103.874 26.9816 103.766 26.6463C103.658 26.3109 103.624 25.9539 103.666 25.6025L103.791 14.9375L101.438 15.3777V17.297C99.4082 17.6509 97.4852 18.5023 95.8232 19.7829C95.2045 20.2541 94.6999 20.8731 94.3506 21.5894C94.0013 22.3056 93.8172 23.099 93.8132 23.9047C93.802 24.5108 93.9255 25.1111 94.1739 25.6576C94.4222 26.204 94.7884 26.6813 95.2431 27.0511C95.7029 27.4201 96.2225 27.6975 96.7765 27.8696C97.3899 28.0618 98.0269 28.1569 98.6667 28.1517C99.6952 28.1794 100.712 27.9193 101.615 27.3977C101.953 29.7704 103.551 30.9567 106.409 30.9567H108.792C109.891 30.9828 110.986 30.7961 112.022 30.4057C112.817 30.1275 113.503 29.5804 113.974 28.849C114.747 30.255 116.296 30.958 118.619 30.958H121.002L120.997 30.9514ZM128.187 23.1178C127.698 23.2648 127.192 23.3389 126.684 23.3379C125.997 23.3859 125.316 23.1738 124.764 22.7395C124.533 22.5186 124.353 22.2454 124.237 21.9403C124.121 21.6353 124.072 21.3064 124.094 20.9785C124.071 20.166 124.338 19.3743 124.842 18.7601C125.067 18.4749 125.35 18.2465 125.669 18.0914C125.988 17.9363 126.336 17.8585 126.688 17.8637C127.059 17.853 127.426 17.95 127.749 18.1443C128.072 18.3386 128.339 18.6227 128.519 18.9657C129.042 20.0733 129.332 21.2875 129.368 22.5246C129.015 22.8026 128.614 23.0042 128.187 23.1178ZM99.0211 25.4153C98.6166 25.4164 98.2128 25.3793 97.8145 25.3045C97.4584 25.242 97.1126 25.1257 96.7877 24.9592C96.5093 24.8197 96.2687 24.6085 96.0878 24.345C95.9121 24.0662 95.8247 23.7357 95.8382 23.4012C95.8411 22.9313 96.0051 22.4785 96.2998 22.1266C96.6513 21.7017 97.0743 21.3494 97.5476 21.0879C98.1193 20.7652 98.7236 20.5119 99.3492 20.3326C100.042 20.1306 100.749 19.9891 101.464 19.9095L101.524 24.9737C100.723 25.2833 99.874 25.4326 99.0211 25.414V25.4153Z" fill="white"/>
<path d="M154.885 14.0592L153.038 12.082L151.191 14.0592L153.038 16.0364L154.885 14.0592Z" fill="white"/>
<path d="M159.234 14.0592L157.388 12.082L155.541 14.0592L157.388 16.0364L159.234 14.0592Z" fill="white"/>
<path d="M174.302 19.5989L176.148 17.6217L174.302 15.6445L172.455 17.6217L174.302 19.5989Z" fill="white"/>
<path d="M173.978 13.5553L172.132 11.5781L170.285 13.5553L172.132 15.5325L173.978 13.5553Z" fill="white"/>
<path d="M176.119 30.9528H180.883C181.579 30.9541 182.272 30.8746 182.952 30.7155C183.588 30.5699 184.194 30.3018 184.738 29.9247C185.267 29.5543 185.706 29.0576 186.018 28.4747C186.366 27.7949 186.535 27.0297 186.51 26.2577L186.635 10.6523L184.282 11.0939L184.372 26.516C184.373 26.658 184.346 26.7987 184.292 26.9289C184.238 27.059 184.159 27.1757 184.06 27.2713C183.827 27.496 183.553 27.6674 183.255 27.7748C182.891 27.9082 182.515 27.9966 182.132 28.0384C181.718 28.091 181.301 28.1174 180.884 28.1175H176.122C173.759 28.1175 172.577 27.4677 172.578 26.168C172.578 26.0006 172.617 25.5485 172.703 24.8156C172.789 24.0827 172.871 23.2747 172.971 22.3929L170.946 22.1411C170.905 22.4144 170.864 22.729 170.821 23.0849C170.78 23.4421 170.732 23.798 170.673 24.1539C170.614 24.5098 170.548 24.8617 170.493 25.2084C170.438 25.5551 170.385 25.8424 170.345 26.0731C170.281 26.4155 170.142 26.7369 169.937 27.0106C169.732 27.2844 169.469 27.5025 169.168 27.6469C168.253 28.0144 167.276 28.1751 166.299 28.1188H161.529C160.933 28.1188 160.367 28.1083 159.83 28.0872C159.294 28.0661 158.798 28.0349 158.342 27.9936C158.844 27.5067 159.241 26.9124 159.508 26.2503C159.775 25.5881 159.906 24.8735 159.89 24.1539C159.895 23.4073 159.768 22.6662 159.516 21.9684C159.284 21.3156 158.941 20.713 158.504 20.1903C158.085 19.6947 157.58 19.2893 157.016 18.9961C156.455 18.706 155.838 18.5552 155.214 18.5552C154.589 18.5552 153.973 18.706 153.412 18.9961C152.847 19.2887 152.341 19.6942 151.923 20.1903C151.485 20.7127 151.142 21.3154 150.911 21.9684C150.659 22.6662 150.532 23.4073 150.536 24.1539C150.517 24.874 150.645 25.59 150.913 26.2528C151.18 26.9155 151.58 27.5094 152.085 27.9936C151.609 28.0358 151.103 28.067 150.566 28.0872C150.03 28.1074 149.474 28.118 148.899 28.1188H140.233C139.491 28.1887 138.748 27.9831 138.134 27.5375C137.9 27.2838 137.722 26.9791 137.611 26.6448C137.501 26.3106 137.461 25.9549 137.494 25.6025L137.619 10.6576L135.266 11.0992L135.39 26.5463C135.43 29.4831 137.048 30.9515 140.244 30.9515H148.912C150.009 30.9526 151.104 30.8578 152.186 30.6681C153.219 30.4902 154.236 30.2168 155.224 29.8509C156.212 30.2166 157.228 30.49 158.261 30.6681C159.344 30.8578 160.44 30.9526 161.537 30.9515H166.302C167.402 30.9778 168.497 30.791 169.533 30.4005C170.327 30.1225 171.013 29.5754 171.484 28.8438C172.252 30.2507 173.797 30.9537 176.119 30.9528ZM155.215 27.3662C153.385 26.7361 152.47 25.6979 152.47 24.2515C152.466 23.8528 152.537 23.4571 152.679 23.0875C152.814 22.7367 153.011 22.4164 153.26 22.1438C153.506 21.8719 153.804 21.6577 154.133 21.515C154.821 21.2204 155.59 21.2204 156.278 21.515C156.608 21.6582 156.905 21.8723 157.152 22.1438C157.667 22.71 157.95 23.4676 157.94 24.2528C157.949 25.6992 157.041 26.737 155.215 27.3662Z" fill="white"/>
<path d="M171.804 17.61L169.958 15.6328L168.111 17.61L169.958 19.5872L171.804 17.61Z" fill="white"/>
<path d="M190.534 30.9527H192.589L192.738 10.6602L190.385 11.1004L190.534 30.9527Z" fill="white"/>
<path d="M208.809 30.0369C209.799 30.6859 210.952 31.0043 212.116 30.9503H215.755C217.544 31.087 219.329 30.6422 220.871 29.6757C221.442 29.2056 221.893 28.5929 222.184 27.8927C222.476 27.1926 222.597 26.4269 222.539 25.6646C222.534 25.1113 222.488 24.5592 222.404 24.013C222.311 23.3713 222.182 22.7357 222.019 22.1097C221.852 21.4594 221.663 20.8249 221.452 20.2063C221.265 19.64 221.041 19.0882 220.782 18.5547L218.639 19.8135C218.904 20.3558 219.143 20.9124 219.354 21.4809C219.572 22.0688 219.766 22.6505 219.935 23.2261C220.096 23.7679 220.225 24.3194 220.323 24.8777C220.405 25.3341 220.45 25.7972 220.457 26.2618C220.457 26.7644 220.02 27.1998 219.147 27.568C218.057 27.9722 216.906 28.1586 215.751 28.1177H212.113C211.704 28.1229 211.296 28.0912 210.892 28.0228C210.584 27.9728 210.29 27.8551 210.028 27.6774C209.783 27.5015 209.571 27.2778 209.404 27.0184C209.2 26.693 209.03 26.3447 208.898 25.9797C208.759 25.6449 208.566 25.0891 208.319 24.3122C208.072 23.5354 207.829 22.7595 207.589 21.9844L205.356 23.0864C205.733 24.2815 206.066 25.2776 206.354 26.0746C206.595 26.7645 206.879 27.4373 207.202 28.0887C206.86 29.5485 206.037 30.8316 204.879 31.7069C203.287 33.0147 201.507 34.0448 199.607 34.7584L200.98 37.2444C202.863 36.5686 204.609 35.5285 206.132 34.1771C207.376 33.0917 208.305 31.6563 208.809 30.0369Z" fill="white"/>
<path d="M207.5 17.4538L205.653 15.4766L203.807 17.4538L205.653 19.4309L207.5 17.4538Z" fill="white"/>
<path d="M216.619 15.1893L217.036 16.3215C218.525 15.8188 220.064 15.502 221.622 15.3778L221.832 13.8672C221.553 13.8883 221.266 13.9199 220.967 13.9621C220.669 14.0043 220.351 14.0557 220.014 14.119C219.578 14.0836 219.155 13.9439 218.778 13.7103C218.641 13.6334 218.527 13.5197 218.446 13.3808C218.365 13.2418 218.32 13.0826 218.316 12.9195C218.314 12.7787 218.345 12.6395 218.404 12.5136C218.464 12.3877 218.551 12.2788 218.659 12.1958C218.912 12.0004 219.22 11.9009 219.533 11.9137C219.868 11.9137 220.198 12.0113 220.485 12.1958L221.081 11.2837C220.877 11.0289 220.621 10.8257 220.332 10.6889C220.044 10.5521 219.73 10.485 219.414 10.4928C219.11 10.4882 218.808 10.5486 218.527 10.6702C218.245 10.7919 217.99 10.9723 217.776 11.2006C217.555 11.4205 217.381 11.6864 217.263 11.9814C217.145 12.2764 217.086 12.594 217.091 12.9142C217.083 13.2713 217.172 13.6234 217.346 13.9297C217.52 14.2359 217.772 14.4839 218.074 14.6449C217.855 14.7328 217.627 14.8167 217.389 14.8967C217.151 14.9766 216.894 15.0742 216.619 15.1893Z" fill="white"/>
<path d="M228.144 30.9488L228.293 10.6562L225.939 11.0965L226.088 30.9488H228.144Z" fill="white"/>
<path d="M245.205 30.9476C245.843 30.9488 246.48 30.8959 247.11 30.7894C247.762 30.6756 248.405 30.5073 249.032 30.2859C249.766 30.0246 250.482 29.7092 251.175 29.3421C251.94 28.9432 252.798 28.4599 253.751 27.8922C254.466 27.4528 255.106 27.0802 255.671 26.7744C256.17 26.5108 256.638 26.2669 257.071 26.0547C257.019 27.361 257.433 28.6404 258.232 29.6387C258.728 30.1112 259.31 30.471 259.942 30.6957C260.575 30.9204 261.244 31.0053 261.909 30.945H269.319C270.015 30.9463 270.709 30.8667 271.388 30.7077C272.024 30.562 272.63 30.294 273.175 29.9169C273.703 29.5465 274.142 29.0497 274.455 28.4669C274.802 27.7871 274.972 27.0218 274.946 26.2498L275.071 10.6445L272.718 11.0861L272.808 26.5082C272.809 26.6503 272.782 26.7911 272.728 26.9213C272.674 27.0515 272.595 27.1681 272.495 27.2635C272.263 27.488 271.989 27.6594 271.691 27.767C271.328 27.9002 270.951 27.9887 270.568 28.0306C270.154 28.0832 269.738 28.1096 269.321 28.1097H261.912C261.397 28.1208 260.882 28.0681 260.378 27.9528C260.017 27.8716 259.679 27.6988 259.395 27.4493C259.145 27.2151 258.964 26.9093 258.875 26.5688C258.773 26.1714 258.724 25.7611 258.729 25.3495C259.127 25.2098 259.531 25.078 259.945 24.9646V22.3284H259.349C259.09 22.3283 258.831 22.3071 258.575 22.2651C258.282 22.2138 257.993 22.1349 257.712 22.0292C257.394 21.9141 257.032 21.7673 256.625 21.5889C256.219 21.4105 255.747 21.1952 255.21 20.943C254.555 20.6284 253.984 20.3648 253.498 20.1522C253.074 19.9664 252.642 19.8037 252.202 19.6645C251.864 19.5591 251.521 19.475 251.174 19.4127C250.874 19.3609 250.57 19.3344 250.266 19.3336C249.412 19.3108 248.571 19.5454 247.839 20.0098C247.065 20.5643 246.435 21.3159 246.009 22.1953L247.381 23.3275C247.714 22.9128 248.112 22.5615 248.558 22.2888C248.962 22.0869 249.407 21.9897 249.854 22.0054C250.123 22.0065 250.392 22.033 250.657 22.0845C250.98 22.1476 251.298 22.2312 251.611 22.335C251.968 22.4501 252.383 22.6061 252.858 22.8029C253.333 22.9998 253.899 23.2445 254.555 23.5371L256.074 24.2239C255.522 24.407 254.98 24.6235 254.452 24.8724C253.885 25.136 253.255 25.4462 252.56 25.803C251.786 26.2239 251.071 26.582 250.417 26.8773C249.815 27.1513 249.198 27.3885 248.57 27.5877C248.019 27.761 247.457 27.8932 246.888 27.9832C246.331 28.0701 245.769 28.1142 245.206 28.115H241.365V27.8013C241.49 25.6177 241.041 23.4401 240.069 21.5085C239.708 20.8355 239.18 20.2785 238.543 19.8963C237.906 19.5141 237.184 19.3211 236.451 19.3376C235.802 19.332 235.161 19.4882 234.58 19.7936C234.002 20.099 233.493 20.5335 233.09 21.0669C232.656 21.6455 232.324 22.3007 232.107 23.002C231.862 23.7887 231.742 24.6125 231.75 25.4405C231.709 26.1706 231.831 26.9007 232.105 27.5724C232.379 28.2441 232.798 28.8389 233.328 29.3092C234.625 30.2909 236.204 30.7687 237.796 30.6616H238.838C237.866 32.7591 235.504 34.0909 231.751 34.6568L232.823 37.2364C234.672 37.0153 236.436 36.2949 237.945 35.1445C239.3 34.0917 240.318 32.6264 240.863 30.945H245.211L245.205 30.9476ZM238.112 28.1163C235.193 28.1163 233.734 27.2041 233.735 25.3798C233.696 24.516 233.955 23.6667 234.464 22.9888C234.692 22.6943 234.981 22.4589 235.309 22.3008C235.637 22.1427 235.995 22.0661 236.355 22.0766C236.826 22.0795 237.286 22.2266 237.68 22.5001C238.074 22.7735 238.384 23.1617 238.573 23.6175C239.173 25.029 239.443 26.5717 239.362 28.1163H238.112Z" fill="white"/>
<path d="M250.508 34.8209L252.354 36.7981L254.201 34.8209L252.354 32.8438L250.508 34.8209Z" fill="white"/>
<path d="M281.025 30.9488L281.173 10.6562L278.816 11.1005L278.965 30.9527L281.025 30.9488Z" fill="white"/>
<path d="M272.349 57.5499C272.804 58.0254 273.342 58.404 273.932 58.665C274.611 58.9568 275.339 59.0995 276.071 59.0842C276.751 59.1079 277.428 58.9696 278.051 58.6795C278.29 58.5786 278.493 58.403 278.635 58.1764C278.777 57.9498 278.849 57.6829 278.843 57.4115C278.851 57.1444 278.792 56.8799 278.672 56.6443C278.531 56.4026 278.33 56.2052 278.092 56.0722C277.75 55.8749 277.387 55.7205 277.011 55.6122C276.562 55.4725 276.004 55.3192 275.335 55.1522C274.855 55.0388 274.383 54.8895 273.923 54.7053C273.473 54.5278 273.052 54.2784 272.675 53.9659C272.307 53.6621 272.002 53.2828 271.778 52.8507C271.537 52.3633 271.419 51.8186 271.435 51.269C271.422 50.6863 271.564 50.1115 271.844 49.6095C272.121 49.1295 272.495 48.72 272.939 48.41C273.413 48.0772 273.934 47.8274 274.483 47.6705C275.063 47.5022 275.662 47.418 276.264 47.4201C277.174 47.3984 278.081 47.5447 278.943 47.8524C279.664 48.1239 280.331 48.5352 280.91 49.0651L279.616 50.7931C279.206 50.4138 278.737 50.112 278.231 49.9008C277.613 49.6468 276.954 49.5236 276.291 49.5383C275.662 49.5106 275.037 49.6463 274.47 49.9337C274.25 50.0536 274.068 50.2389 273.946 50.4667C273.824 50.6946 273.768 50.9551 273.784 51.2162C273.79 51.4988 273.882 51.772 274.046 51.9953C274.21 52.2186 274.437 52.3804 274.695 52.4566C275.469 52.7813 276.268 53.0379 277.083 53.2238C277.632 53.3631 278.174 53.5356 278.705 53.7405C279.178 53.9197 279.623 54.1734 280.025 54.4931C280.399 54.7952 280.706 55.181 280.922 55.6228C281.154 56.126 281.267 56.6808 281.251 57.2401C281.263 57.8415 281.117 58.4346 280.83 58.9537C280.543 59.4515 280.155 59.8757 279.694 60.1953C279.193 60.5415 278.639 60.796 278.057 60.948C277.428 61.1168 276.78 61.2009 276.131 61.1984C275.177 61.276 274.218 61.14 273.318 60.7993C272.417 60.4586 271.595 59.9208 270.904 59.2212L272.349 57.5499Z" fill="white"/>
</svg>
