<svg width="47" height="20" viewBox="0 0 47 20" fill="none" xmlns="http://www.w3.org/2000/svg">
<path id="ApplePay" fill-rule="evenodd" clip-rule="evenodd" d="M9.24397 3.08882C8.70983 3.72524 7.8552 4.2272 7.00057 4.15549C6.89374 3.29498 7.31215 2.38069 7.80178 1.81598C8.33593 1.16163 9.27068 0.695523 10.0274 0.659668C10.1164 1.55603 9.76921 2.43447 9.24397 3.08882ZM10.0184 4.32581C9.26551 4.28218 8.57851 4.5538 8.0236 4.7732C7.66651 4.91438 7.36411 5.03394 7.13405 5.03394C6.87588 5.03394 6.561 4.90799 6.20746 4.76657C5.74421 4.58128 5.21459 4.36943 4.65919 4.3796C3.38615 4.39752 2.20213 5.12358 1.55225 6.27989C0.216896 8.59251 1.20506 12.0166 2.49591 13.899C3.12798 14.8312 3.88468 15.8531 4.88175 15.8172C5.3204 15.8005 5.63594 15.6657 5.96249 15.5262C6.33844 15.3656 6.72899 15.1987 7.33881 15.1987C7.92748 15.1987 8.30095 15.3612 8.65946 15.5172C9.00034 15.6656 9.3277 15.808 9.81367 15.7993C10.8463 15.7814 11.4962 14.8671 12.1283 13.9348C12.8104 12.9343 13.1102 11.9578 13.1556 11.8097L13.161 11.7925C13.1599 11.7914 13.1515 11.7876 13.1367 11.7807L13.1366 11.7807L13.1366 11.7807L13.1366 11.7807C12.9086 11.6756 11.1657 10.8722 11.149 8.718C11.1322 6.90983 12.5314 5.9937 12.7516 5.84949L12.7517 5.84947L12.7517 5.84945C12.7651 5.84069 12.7741 5.83479 12.7782 5.83171C11.8879 4.50509 10.4992 4.36167 10.0184 4.32581ZM17.1672 15.7006V1.72629H22.3751C25.0636 1.72629 26.942 3.59073 26.942 6.31567C26.942 9.04062 25.028 10.923 22.3039 10.923H19.3216V15.7006H17.1672ZM19.3211 3.55492H21.8049C23.6744 3.55492 24.7427 4.55884 24.7427 6.32468C24.7427 8.09052 23.6744 9.10341 21.796 9.10341H19.3211V3.55492ZM34.0553 14.0245C33.4855 15.118 32.2303 15.8082 30.8771 15.8082C28.8741 15.8082 27.4764 14.6071 27.4764 12.7964C27.4764 11.0037 28.8296 9.97289 31.3312 9.82051L34.0197 9.65916V8.88829C34.0197 7.74991 33.2808 7.13141 31.9632 7.13141C30.8771 7.13141 30.0848 7.69612 29.9246 8.55663H27.9839C28.0462 6.74598 29.7376 5.42832 32.0255 5.42832C34.4915 5.42832 36.0939 6.72805 36.0939 8.74487V15.7007H34.0998V14.0245H34.0553ZM31.4555 14.1499C30.3071 14.1499 29.5771 13.5942 29.5771 12.7426C29.5771 11.8642 30.2804 11.3533 31.6246 11.2726L34.0194 11.1202V11.909C34.0194 13.2177 32.9155 14.1499 31.4555 14.1499ZM42.7081 16.2475C41.8446 18.6945 40.8564 19.5013 38.7555 19.5013C38.5952 19.5013 38.0611 19.4833 37.9365 19.4475V17.7713C38.07 17.7892 38.3994 17.8071 38.5685 17.8071C39.5211 17.8071 40.0552 17.4038 40.3846 16.355L40.5805 15.7365L36.9305 5.56279H39.1828L41.72 13.8183H41.7645L44.3017 5.56279H46.4917L42.7081 16.2475Z" fill="black"/>
</svg>
