<svg width="51" height="18" viewBox="0 0 51 18" fill="none" xmlns="http://www.w3.org/2000/svg">
<g id="Mada">
<path id="Vector" d="M21.6251 10.2612H0.259033V17.379H21.6251V10.2612Z" fill="#84B740"/>
<path id="Vector_2" d="M21.6253 0.548828H0.259277V7.67297H21.6253V0.548828Z" fill="#259BD6"/>
<path id="Vector_3" d="M42.9913 15.9328L42.8962 15.9519C42.5663 16.0153 42.4458 16.0407 42.2047 16.0407C41.6464 16.0407 40.9867 15.7552 40.9867 14.4103C40.9867 13.7188 41.1009 12.799 42.1413 12.799H42.1476C42.3252 12.8117 42.5282 12.8307 42.9089 12.9449L42.9913 12.9702V15.9328ZM43.1626 9.22738L42.9913 9.2591V11.7459L42.8391 11.7015L42.7947 11.6888C42.6234 11.638 42.2301 11.5239 41.8494 11.5239C39.7687 11.5239 39.3309 13.0971 39.3309 14.4166C39.3309 16.2246 40.3459 17.265 42.1159 17.265C42.8645 17.265 43.4164 17.1889 43.9746 17.0049C44.4885 16.84 44.6724 16.6053 44.6724 16.1041V8.96729C44.1776 9.0561 43.6638 9.14491 43.1626 9.22738Z" fill="#27292D"/>
<path id="Vector_4" d="M49.1766 15.9768L49.0877 16.0022L48.7705 16.0846C48.4724 16.1608 48.2059 16.2052 48.0029 16.2052C47.5145 16.2052 47.2227 15.9641 47.2227 15.5518C47.2227 15.2853 47.3432 14.8349 48.1425 14.8349H49.1766V15.9768ZM48.447 11.4917C47.8063 11.4917 47.1465 11.6059 46.3282 11.8596L45.7953 12.0182L45.9729 13.2236L46.4931 13.0523C47.0387 12.8747 47.7175 12.7605 48.225 12.7605C48.4534 12.7605 49.1512 12.7605 49.1512 13.5154V13.8453H48.1806C46.4106 13.8453 45.5923 14.4099 45.5923 15.6215C45.5923 16.6556 46.3472 17.2773 47.616 17.2773C48.0093 17.2773 48.5549 17.2012 49.0243 17.087L49.0497 17.0806L49.0751 17.087L49.2336 17.1123C49.7285 17.2012 50.2423 17.29 50.7435 17.3851V13.4266C50.7435 12.1451 49.9695 11.4917 48.447 11.4917Z" fill="#27292D"/>
<path id="Vector_5" d="M36.85 15.9768L36.7612 16.0022L36.444 16.0846C36.1458 16.1608 35.8858 16.2052 35.6764 16.2052C35.1879 16.2052 34.8961 15.9641 34.8961 15.5518C34.8961 15.2853 35.0166 14.8349 35.8096 14.8349H36.8437V15.9768H36.85ZM36.1268 11.4917C35.4797 11.4917 34.8263 11.6059 34.008 11.8596L33.4751 12.0182L33.6527 13.2236L34.1729 13.0523C34.7185 12.8747 35.3973 12.7605 35.9048 12.7605C36.1332 12.7605 36.831 12.7605 36.831 13.5154V13.8453H35.8604C34.0904 13.8453 33.2657 14.4099 33.2657 15.6215C33.2657 16.6556 34.0207 17.2773 35.2958 17.2773C35.6891 17.2773 36.2347 17.2012 36.7041 17.087L36.7295 17.0806L36.7549 17.087L36.9071 17.1123C37.4083 17.2012 37.9158 17.29 38.4169 17.3915V13.4329C38.4233 12.1388 37.6493 11.4917 36.1268 11.4917Z" fill="#27292D"/>
<path id="Vector_6" d="M30.1705 11.5044C29.3648 11.5044 28.6987 11.7708 28.4513 11.885L28.3879 11.9167L28.3308 11.8723C27.9882 11.6249 27.487 11.498 26.7892 11.498C26.1739 11.498 25.5966 11.5869 24.9685 11.7708C24.4293 11.9358 24.22 12.1959 24.22 12.6843V17.2075H25.9074V13.0269L25.9899 13.0015C26.3325 12.8873 26.5355 12.8683 26.7321 12.8683C27.2206 12.8683 27.468 13.1284 27.468 13.6359V17.2138H29.1301V13.5661C29.1301 13.3504 29.0857 13.2236 29.0794 13.1982L29.0223 13.0903L29.1364 13.0396C29.3902 12.9254 29.6693 12.8683 29.9611 12.8683C30.2974 12.8683 30.697 13.0015 30.697 13.6359V17.2138H32.3528V13.471C32.3528 12.1451 31.6423 11.5044 30.1705 11.5044Z" fill="#27292D"/>
<path id="Vector_7" d="M47.9329 5.19252C47.6855 5.19252 47.2732 5.16715 46.9496 5.10371L46.8545 5.08468V2.6423C46.8545 2.43929 46.8164 2.31242 46.8101 2.29338L46.7593 2.19188L46.8672 2.14748C46.8926 2.13479 46.9179 2.12845 46.9496 2.11576L46.9687 2.10307C47.0067 2.09038 47.0448 2.0777 47.0829 2.06501C47.1019 2.05866 47.1146 2.05232 47.1273 2.05232C47.5016 1.95082 47.8441 1.96351 47.9964 1.95082H48.0027C49.0368 1.95082 49.1573 2.87067 49.1573 3.56215C49.151 4.90705 48.4849 5.19252 47.9329 5.19252ZM47.9266 0.548828C47.9139 0.548828 47.8949 0.548828 47.8822 0.548828C46.9116 0.548828 45.9156 0.815271 45.5604 1.33547C45.37 1.58922 45.2622 1.90641 45.2558 2.2807V4.7992C45.2558 5.01489 45.2114 5.09736 45.2051 5.11639L45.148 5.22424H42.0839V3.47334H42.0776C42.0395 1.62728 40.9484 0.612267 39.3688 0.612267H39.1848H37.8272C37.7638 1.06268 37.713 1.37987 37.6496 1.83029H39.1848C39.9905 1.83029 40.4155 2.51542 40.4155 3.5685V5.33209L40.3076 5.27499C40.2886 5.26865 40.1554 5.22424 39.946 5.22424H37.2943C37.2436 5.56046 37.1801 5.99819 37.1104 6.43592H45.2622C45.5413 6.37882 45.8649 6.32807 46.144 6.28366C46.5563 6.48667 47.3239 6.59451 47.8505 6.59451C49.6204 6.59451 50.7686 5.40821 50.7686 3.58119C50.7623 1.77319 49.6521 0.586891 47.9266 0.548828Z" fill="#27292D"/>
<path id="Vector_8" d="M33.6342 7.17819H33.7104C35.4803 7.17819 36.305 6.59455 36.305 5.1545C36.305 4.12045 35.5501 3.29575 34.2813 3.29575H32.6509C32.1625 3.29575 31.8706 3.01662 31.8706 2.54718C31.8706 2.22999 31.9912 1.83667 32.7905 1.83667H36.3557C36.4319 1.37357 36.4699 1.08175 36.5397 0.618652H32.8349C31.1094 0.618652 30.2403 1.34185 30.2403 2.54718C30.2403 3.73982 30.9952 4.36152 32.264 4.36152H33.8943C34.3828 4.36152 34.6746 4.74849 34.6746 5.1545C34.6746 5.42094 34.5541 5.97286 33.7611 5.97286H33.4883L28.2673 5.96017H27.3158C26.5101 5.96017 25.9455 5.50341 25.9455 4.44399V3.71445C25.9455 2.61062 26.3832 1.92548 27.3158 1.92548H28.8637C28.9334 1.45604 28.9779 1.15788 29.0413 0.71381H27.1128H26.9288C25.3492 0.71381 24.258 1.77323 24.22 3.61929V3.68907V4.44399C24.258 6.29005 25.3492 7.17184 26.9288 7.17184H27.1128H28.4703L31.2997 7.17819H32.9872H33.6342Z" fill="#27292D"/>
</g>
</svg>
