<svg width="42" height="25" viewBox="0 0 42 25" fill="none" xmlns="http://www.w3.org/2000/svg">
<g id="Mastercard">
<path id="Left" fill-rule="evenodd" clip-rule="evenodd" d="M20.8797 21.4364C18.7383 23.2414 15.9605 24.3311 12.9252 24.3311C6.15249 24.3311 0.662109 18.906 0.662109 12.2139C0.662109 5.52173 6.15249 0.0966797 12.9252 0.0966797C15.9605 0.0966797 18.7383 1.18631 20.8797 2.9913C23.0211 1.18631 25.7988 0.0966847 28.8341 0.0966847C35.6068 0.0966847 41.0972 5.52174 41.0972 12.2139C41.0972 18.906 35.6068 24.3311 28.8341 24.3311C25.7988 24.3311 23.021 23.2414 20.8797 21.4364Z" fill="#ED0006"/>
<path id="Right" fill-rule="evenodd" clip-rule="evenodd" d="M20.8796 21.4364C23.5164 19.2139 25.1883 15.9068 25.1883 12.2139C25.1883 8.52091 23.5164 5.21381 20.8796 2.99129C23.021 1.18631 25.7988 0.0966797 28.8341 0.0966797C35.6068 0.0966797 41.0972 5.52173 41.0972 12.2139C41.0972 18.906 35.6068 24.3311 28.8341 24.3311C25.7988 24.3311 23.021 23.2414 20.8796 21.4364Z" fill="#F9A000"/>
<path id="Middle" fill-rule="evenodd" clip-rule="evenodd" d="M20.8799 21.4362C23.5165 19.2136 25.1884 15.9066 25.1884 12.2137C25.1884 8.52078 23.5165 5.21373 20.8799 2.99121C18.2432 5.21373 16.5713 8.52078 16.5713 12.2137C16.5713 15.9066 18.2432 19.2136 20.8799 21.4362Z" fill="#FF5E00"/>
</g>
</svg>
