<svg width="54" height="17" viewBox="0 0 54 17" fill="none" xmlns="http://www.w3.org/2000/svg">
<g id="Qitaf" clip-path="url(#clip0_19202_31594)">
<path id="Vector" d="M4.71718 3.97445C4.33003 3.48955 3.76614 3.22584 3.05918 3.22584C1.60318 3.22584 0.55957 4.39129 0.55957 6.05865C0.55957 7.73452 1.60318 8.90847 3.05918 8.90847C3.77456 8.90847 4.33845 8.64476 4.71718 8.15136V10.8481H5.97961V3.37046H4.71718V3.97445ZM4.71718 6.74771C4.44786 7.31768 3.96813 7.709 3.278 7.709C2.43638 7.709 1.88091 7.08799 1.88091 6.05014C1.88091 5.02931 2.4448 4.41681 3.278 4.41681C3.95972 4.41681 4.44786 4.80813 4.71718 5.36959V6.74771ZM7.11579 3.37046H9.50599V8.75535H8.2099V4.5274H7.12421V3.37046H7.11579ZM8.20148 0.886427H9.50599V2.37514H8.2099V0.886427H8.20148ZM12.5947 3.37046H14.2948V4.5274H12.5947V7.105C12.5947 7.44528 12.7715 7.5984 13.0576 7.5984H14.2948V8.75535H12.9566C11.8289 8.75535 11.2986 8.16837 11.2986 7.27514V4.5274H10.3308V3.37896H11.2986V1.60952H12.5947V3.37046ZM18.3262 3.37046H15.5741V4.5274H18.2673C18.5702 4.5274 18.7302 4.69754 18.7302 5.0208V5.29302L16.584 5.56525C15.6498 5.68434 15.0859 6.31386 15.0859 7.2241C15.0859 8.22792 15.8434 8.91698 16.9543 8.91698C17.7455 8.91698 18.3514 8.61924 18.7302 8.10031V8.76386H20.0094V4.87618C20.0178 3.90639 19.4203 3.37046 18.3262 3.37046ZM18.747 6.9774C18.5282 7.51334 17.9306 7.87914 17.2826 7.87914C16.7187 7.87914 16.3989 7.64094 16.3989 7.21559C16.3989 6.82427 16.6513 6.58608 17.1058 6.52653L18.747 6.29684V6.9774ZM23.3506 3.37046H24.8992V4.5274H23.3506V8.75535H22.0546V4.5274H21.1035V3.37046H22.0546V2.36663C22.0546 1.47341 22.5848 0.886427 23.7125 0.886427H25.3621V2.04337H23.8304C23.5274 2.04337 23.3506 2.19649 23.3506 2.52827V3.37046ZM36.2527 1.37983H35.167V0.282433H36.2527V1.37983ZM35.7056 2.39216C34.2244 2.39216 33.2229 3.33643 33.2229 4.73157C33.2229 5.68434 33.7194 6.69667 35.0997 6.69667C35.7561 6.69667 36.1769 6.50952 36.421 6.10969L36.4715 6.02462V6.1267V6.65413C36.4715 7.29215 36.118 7.41976 35.4784 7.41976H25.0339V8.72132H35.4784C36.926 8.72132 37.574 8.05778 37.574 6.56056L37.5656 2.87705C37.4562 2.809 36.6987 2.39216 35.7056 2.39216ZM36.4799 3.9149V5.04632V5.05483L36.4715 5.06334C36.2695 5.27601 35.8992 5.3866 35.3774 5.3866C34.4264 5.3866 34.3506 4.76559 34.3506 4.56993C34.3506 4.30622 34.4684 3.69372 35.571 3.69372C36.1012 3.69372 36.4463 3.88087 36.4547 3.88938L36.4715 3.89788V3.9149H36.4799ZM51.2672 1.37132H50.2404V0.273926H51.2672V1.37132ZM51.8058 0.273926H52.8326V1.37132H51.8058V0.273926ZM43.3812 5.94806C43.5916 5.88 43.7936 5.82045 43.9872 5.7609C43.7936 5.82045 43.5916 5.88851 43.3812 5.94806ZM53.3965 2.87705C53.2871 2.809 52.5296 2.39216 51.5365 2.39216C50.0553 2.39216 49.0537 3.33643 49.0537 4.73157C49.0537 5.68434 49.5503 6.69667 50.9305 6.69667C51.587 6.69667 52.0078 6.50952 52.2519 6.10969L52.3024 6.02462V6.1267V6.65413C52.3024 7.29215 51.9489 7.41976 51.3093 7.41976H48.675C48.3215 7.41976 48.069 7.41976 47.8923 7.32618L47.8839 7.30917L47.8923 7.28365C47.968 7.01143 48.0017 6.70518 48.0017 6.38191C48.0017 4.94424 47.1853 4.05101 45.8724 4.05101C45.0897 4.05101 44.1723 4.39129 43.1961 4.75709L42.952 4.84216L42.9099 4.85917V4.81664V1.30327H41.8242V7.38573V7.41976H41.799H40.9658C39.9811 7.41976 39.8464 7.24962 39.8464 6.56906V1.30327H38.7607V6.56906C38.7607 8.11733 39.3078 8.72132 40.7217 8.72132H40.9573H45.4516C46.2595 8.72132 46.8823 8.54268 47.3032 8.19389L47.3284 8.17688L47.3452 8.2024C47.5809 8.55969 48.0017 8.72132 48.6666 8.72132H51.2924C52.74 8.72132 53.3881 8.05778 53.3881 6.56056L53.3965 2.87705ZM46.209 7.32618C46.0912 7.3517 45.9566 7.36872 45.7967 7.37722C45.6957 7.38573 45.5863 7.38573 45.4684 7.38573H42.9436V6.08417C43.0951 6.04164 43.2381 5.99059 43.3728 5.94806C43.5832 5.88 43.7852 5.82045 43.9788 5.7609C44.105 5.71837 44.2312 5.68434 44.3491 5.65032C44.711 5.54823 45.0308 5.46316 45.3169 5.42063C45.46 5.40361 45.5947 5.3866 45.7209 5.3866C45.8051 5.3866 45.8808 5.39511 45.9566 5.40361C46.066 5.42063 46.1754 5.44615 46.2764 5.48868C46.3437 5.5142 46.4026 5.54823 46.4531 5.58226C46.5878 5.67584 46.6972 5.80344 46.7645 5.98209C46.8234 6.1182 46.8487 6.27983 46.8487 6.47549C46.8571 6.9774 46.6467 7.2241 46.209 7.32618ZM52.3108 3.9149V5.04632V5.05483L52.3024 5.06334C52.1004 5.27601 51.7301 5.3866 51.2083 5.3866C50.2572 5.3866 50.1815 4.76559 50.1815 4.56993C50.1815 4.30622 50.2993 3.69372 51.4018 3.69372C51.9321 3.69372 52.2687 3.88087 52.2855 3.88938L52.3024 3.89788V3.9149H52.3108ZM43.9788 5.7609C44.105 5.71837 44.2312 5.68434 44.3491 5.65032C44.2312 5.68434 44.1134 5.71837 43.9788 5.7609ZM36.2864 12.8557H36.9596V13.3321H36.3284C36.2022 13.3321 36.1349 13.4001 36.1349 13.5277V13.8765H36.7661V14.3529H36.1349V16.0883H35.6046V14.3529H35.2175V13.8765H35.6046V13.4682C35.6046 13.1024 35.8235 12.8557 36.2864 12.8557ZM38.3736 13.8765H38.5924V14.3529H38.3231C38.0453 14.3529 37.8602 14.472 37.7676 14.6166V16.0883H37.2374V13.885H37.7676V14.2083C37.9107 14.0041 38.1042 13.8765 38.3736 13.8765ZM39.9474 13.817C39.2573 13.817 38.7944 14.3019 38.7944 14.9739C38.7944 15.6545 39.2657 16.1394 39.9474 16.1394C40.6375 16.1394 41.1004 15.646 41.1004 14.9739C41.1004 14.3019 40.6375 13.817 39.9474 13.817ZM39.9474 15.663C39.5603 15.663 39.333 15.3908 39.333 14.9739C39.333 14.5656 39.5603 14.2934 39.9474 14.2934C40.3261 14.2934 40.5618 14.5656 40.5618 14.9739C40.5618 15.3908 40.3261 15.663 39.9474 15.663ZM44.6605 14.5571V16.0883H44.1555V14.7272C44.1555 14.489 44.0377 14.3104 43.7852 14.3104C43.6169 14.3104 43.4401 14.421 43.3475 14.5656V16.0883H42.8426V14.7272C42.8426 14.489 42.7332 14.3104 42.4723 14.3104C42.2871 14.3104 42.1019 14.438 42.0009 14.6081V16.0883H41.5044V13.885H42.0009V14.1232C42.1693 13.9361 42.4049 13.8255 42.6742 13.8255C42.9604 13.8255 43.1624 13.9616 43.2718 14.1828C43.4401 13.9616 43.701 13.8255 43.9956 13.8255C44.408 13.817 44.6605 14.1147 44.6605 14.5571ZM49.7186 12.5324V13.3066H48.9696V12.5324H49.7186ZM52.7989 15.042L53.4638 15.2632C53.4049 15.4673 53.2955 15.6715 53.1272 15.8416C52.9084 16.0628 52.5801 16.2159 52.1593 16.2159C51.7553 16.2159 51.385 16.0628 51.1241 15.7991C50.8548 15.5269 50.6949 15.1611 50.6949 14.7187C50.6949 14.2764 50.8548 13.9106 51.1157 13.6383C51.3766 13.3746 51.7385 13.2215 52.1425 13.2215C52.5801 13.2215 52.9084 13.3831 53.1356 13.6043C53.2955 13.7659 53.4049 13.9701 53.4554 14.1743L52.7821 14.404C52.7484 14.2934 52.6979 14.1828 52.6138 14.0977C52.5128 13.9956 52.3697 13.9276 52.1677 13.9276C51.9742 13.9276 51.7974 13.9956 51.6712 14.1317C51.5449 14.2678 51.4608 14.4635 51.4608 14.7187C51.4608 14.9739 51.5365 15.1696 51.6712 15.3057C51.7974 15.4418 51.9826 15.5099 52.1761 15.5099C52.3865 15.5099 52.5296 15.4333 52.639 15.3312C52.7148 15.2461 52.7737 15.1441 52.7989 15.042ZM49.7186 13.3066H50.4677V14.0382H49.7186V13.3066ZM48.9696 14.0382H49.7186V15.1526C49.7186 15.2802 49.7439 15.3823 49.8028 15.4418C49.8701 15.5014 49.9627 15.5354 50.0889 15.5354C50.2657 15.5354 50.4003 15.4758 50.4677 15.4248V16.0458C50.3751 16.1224 50.1647 16.2159 49.8701 16.2159C49.5839 16.2159 49.3483 16.1309 49.1884 15.9692C49.0453 15.8161 48.9696 15.6119 48.9696 15.3482V14.0382ZM48.2879 14.7272C48.4393 14.8803 48.5151 15.0675 48.5151 15.2887C48.5151 15.5269 48.4225 15.731 48.271 15.8927C48.069 16.0968 47.7576 16.2159 47.3789 16.2159C46.9833 16.2159 46.6383 16.0798 46.4279 15.8501C46.2932 15.714 46.2006 15.5439 46.1838 15.3482L46.8319 15.2036C46.8403 15.3057 46.8739 15.3993 46.9413 15.4673C47.0338 15.5694 47.1937 15.6375 47.3789 15.6375C47.6398 15.6375 47.7997 15.5354 47.7997 15.3567C47.7997 15.2121 47.7071 15.1356 47.4883 15.0845L47.0591 14.9824C46.7982 14.9229 46.5962 14.8123 46.4615 14.6762C46.3269 14.5401 46.2596 14.3614 46.2596 14.1488C46.2596 13.9106 46.3521 13.6894 46.5289 13.5277C46.7309 13.3406 47.017 13.23 47.3621 13.23C47.7324 13.23 48.0522 13.3576 48.2542 13.5703C48.3804 13.7064 48.473 13.8595 48.4898 14.0467L47.8586 14.1913C47.8502 14.0977 47.8081 14.0211 47.7492 13.9531C47.6566 13.8595 47.522 13.8085 47.3621 13.8085C47.1096 13.8085 46.9497 13.9276 46.9497 14.0892C46.9497 14.2168 47.0507 14.3104 47.2358 14.3444L47.6735 14.4295C47.9344 14.472 48.1448 14.5826 48.2879 14.7272Z" fill="#4F008C"/>
</g>
<defs>
<clipPath id="clip0_19202_31594">
<rect width="53.171" height="16.2768" fill="white" transform="translate(0.42627 0.106445)"/>
</clipPath>
</defs>
</svg>
