<svg width="48" height="14" viewBox="0 0 48 14" fill="none" xmlns="http://www.w3.org/2000/svg">
<path d="M31.0588 10.3392V2.94392H32.313V3.53691C32.6947 3.05979 33.2604 2.80078 33.9624 2.80078C35.4074 2.80078 36.4435 3.95268 36.4435 5.60214C36.4435 7.25161 35.4006 8.42396 33.9624 8.42396C33.2536 8.42396 32.6947 8.15132 32.313 7.6742V10.3392H31.0588ZM32.313 4.92055V6.28374C32.5788 6.83583 33.0559 7.23798 33.7443 7.23798C34.5759 7.23798 35.1348 6.61772 35.1348 5.59533C35.1348 4.58657 34.5759 3.97313 33.7443 3.97313C33.0559 3.97994 32.5788 4.35482 32.313 4.92055Z" fill="#02AA7C"/>
<path d="M37.2546 6.74763C37.2546 5.84792 37.8135 5.22085 38.7405 5.10498L40.8739 4.83234V4.56652C40.8739 4.24617 40.7103 4.07577 40.4104 4.07577H37.7318V2.9375H40.4581C41.5419 2.9375 42.1349 3.46915 42.1349 4.40975V8.26077H40.8671V7.61325C40.499 8.13127 39.8924 8.42436 39.1086 8.42436C38.0044 8.42436 37.2546 7.74957 37.2546 6.74763ZM39.4153 7.40196C40.056 7.40196 40.649 7.04071 40.8671 6.50907V5.8411L39.2381 6.06603C38.7882 6.12737 38.536 6.36593 38.536 6.75444C38.536 7.17022 38.8564 7.40196 39.4153 7.40196Z" fill="#02AA7C"/>
<path d="M43.0481 9.20137H43.9615C44.3091 9.20137 44.4659 9.05824 44.5817 8.73107L44.7453 8.26077L42.8096 2.9375H44.1182L45.3247 6.64539H45.3519L46.5038 2.9375H47.792L45.6723 9.05142C45.386 9.88979 45.0043 10.3396 44.0705 10.3396H43.0481V9.20137Z" fill="#02AA7C"/>
<path d="M4.77656 14C6.23518 14 7.43479 13.5433 8.22544 12.7799C8.81843 12.1938 9.16604 11.4031 9.16604 10.4898C9.16604 9.66504 8.85932 8.9221 8.2936 8.35638C7.72787 7.79065 6.91677 7.37488 5.89438 7.17722L4.21765 6.85005C3.52242 6.72054 3.1271 6.37293 3.1271 5.889C3.1271 5.25511 3.74053 4.81889 4.72203 4.81889C5.33547 4.81889 5.8603 5.01655 6.20791 5.36417C6.42602 5.60273 6.57598 5.90945 6.62369 6.25706L9.04335 5.71178C8.97519 5.01655 8.64803 4.40312 8.15046 3.89873C7.353 3.1149 6.13294 2.61733 4.69477 2.61733C3.36565 2.61733 2.25465 3.05355 1.48445 3.74878C0.830114 4.36222 0.462052 5.18695 0.462052 6.10711C0.462052 6.91139 0.721058 7.59299 1.24589 8.111C1.77072 8.63583 2.53411 9.02434 3.53605 9.26972L5.19233 9.66504C6.02388 9.8627 6.39194 10.1694 6.39194 10.7147C6.39194 11.3895 5.77851 11.7848 4.77656 11.7848C4.05407 11.7848 3.46789 11.5463 3.09983 11.1509C2.84083 10.8919 2.68406 10.5375 2.66361 10.149L0.175781 10.6943C0.243941 11.4372 0.591556 12.0915 1.11638 12.6164C1.94112 13.482 3.27705 14 4.77656 14ZM23.1933 14C24.8087 14 26.0492 13.4138 26.9012 12.5823C27.576 11.9279 27.9917 11.1646 28.2099 10.3807L25.6607 9.52872C25.5516 9.92405 25.3335 10.3398 24.9859 10.6602C24.5701 11.0555 24.0044 11.335 23.1933 11.335C22.4504 11.335 21.7551 11.0487 21.2508 10.5511C20.7464 10.0263 20.4397 9.2629 20.4397 8.30185C20.4397 7.32035 20.7464 6.57741 21.2508 6.05258C21.7483 5.5482 22.4299 5.28919 23.1729 5.28919C23.9567 5.28919 24.502 5.5482 24.8973 5.94352C25.2245 6.27069 25.4221 6.68647 25.5516 7.10224L28.1485 6.2298C27.9508 5.46641 27.5351 4.70302 26.9285 4.06913C26.056 3.21714 24.7882 2.61052 23.1115 2.61052C21.5643 2.61052 20.167 3.19669 19.1651 4.20545C18.1631 5.22785 17.5497 6.65239 17.5497 8.30867C17.5497 9.96495 18.1836 11.3827 19.206 12.4119C20.2011 13.4138 21.6188 14 23.1933 14ZM14.3803 14C15.5117 14 16.3228 13.6524 16.6704 13.3457V10.9873C16.4046 11.185 15.8866 11.4236 15.205 11.4236C14.7211 11.4236 14.3734 11.3145 14.1144 11.0759C13.8963 10.8578 13.7873 10.483 13.7873 9.98539V0H10.9041V2.9445H16.6636V5.73905H10.9041V10.6943C10.9041 11.6962 11.2108 12.5073 11.7561 13.073C12.3695 13.6728 13.2693 14 14.3803 14Z" fill="#502C84"/>
</svg>
