<svg width="44" height="15" viewBox="0 0 44 15" fill="none" xmlns="http://www.w3.org/2000/svg">
<path id="visa-logo" fill-rule="evenodd" clip-rule="evenodd" d="M11.3792 14.6805H7.65405L4.86066 3.71013C4.72808 3.20549 4.44656 2.75936 4.03246 2.5491C2.99902 2.02069 1.86023 1.60016 0.61792 1.38807V0.965712H6.61879C7.447 0.965712 8.06815 1.60016 8.17168 2.33701L9.62104 10.2503L13.3443 0.965712H16.9659L11.3792 14.6805ZM19.0366 14.6805H15.5185L18.4154 0.965712H21.9335L19.0366 14.6805ZM26.4848 4.76512C26.5884 4.02645 27.2095 3.6041 27.9342 3.6041C29.073 3.49805 30.3135 3.71014 31.3487 4.23672L31.9699 1.28387C30.9346 0.861508 29.7958 0.649414 28.7624 0.649414C25.3479 0.649414 22.8632 2.54911 22.8632 5.18565C22.8632 7.1914 24.6232 8.24455 25.8655 8.87901C27.2095 9.51163 27.7271 9.93399 27.6236 10.5666C27.6236 11.5155 26.5884 11.9379 25.5549 11.9379C24.3126 11.9379 23.0703 11.6216 21.9333 11.0932L21.3122 14.0479C22.5545 14.5744 23.8985 14.7865 25.1408 14.7865C28.9695 14.8908 31.3487 12.9929 31.3487 10.1443C31.3487 6.55695 26.4848 6.34668 26.4848 4.76512ZM43.6611 14.6805L40.8677 0.965712H37.8673C37.2461 0.965712 36.625 1.38807 36.4179 2.02069L31.2452 14.6805H34.8668L35.5897 12.6766H40.0395L40.4536 14.6805H43.6611ZM38.385 4.65903L39.4184 9.8279H36.5215L38.385 4.65903Z" fill="#172B85"/>
</svg>
