<svg width="859" height="592" viewBox="0 0 859 592" fill="none" xmlns="http://www.w3.org/2000/svg">
<path d="M589.86 407.867V389.927H620.805C621.039 389.147 621.117 386.417 620.883 385.091C619.633 385.013 618.304 385.091 617.054 385.091C615.726 385.091 614.475 385.091 613.147 385.091H609.318H605.411H601.504H597.597H593.846H590.017C589.782 384.233 589.782 368.009 590.017 367.073H639.169C639.325 368.945 639.247 370.817 639.247 372.689C639.247 374.639 639.247 376.511 639.247 378.461V384.077V389.771C640.341 390.005 641.357 389.849 642.451 389.849C642.451 389.381 642.529 388.991 642.529 388.601C642.529 381.815 642.529 375.029 642.529 368.243V367.151C643.31 366.917 682.303 366.839 683.476 367.073C683.71 367.775 683.71 406.619 683.554 407.867L683.476 407.945L683.397 408.023C683.163 408.023 682.929 408.101 682.694 408.101C651.906 408.101 621.039 408.101 590.251 408.101C590.173 407.945 590.017 407.945 589.86 407.867ZM665.424 385.013C663.783 385.013 662.221 385.013 660.658 385.013C660.658 386.651 660.658 388.211 660.658 389.849C662.299 389.927 663.862 389.849 665.424 389.849V385.013Z" fill="#D3B22B"/>
<path d="M662.143 363.563H612.991C612.756 362.783 612.756 348.431 612.913 347.261C614.944 347.183 617.054 347.261 619.086 347.261C621.196 347.261 623.227 347.261 625.337 347.261H631.511H637.762H644.092V342.347C643.623 342.347 643.232 342.269 642.841 342.269C633.308 342.269 623.774 342.269 614.241 342.269H612.913V325.967C613.147 325.967 613.381 325.889 613.616 325.889C613.85 325.889 614.085 325.889 614.319 325.889H660.892H662.221V363.563H662.143Z" fill="#D3B22B"/>
<path d="M584.703 408.099H566.808C566.574 407.397 566.574 328.617 566.73 327.447H584.703V408.099Z" fill="#D3B22B"/>
<path d="M673.864 203.273C673.786 203.429 673.708 203.585 673.629 203.741C672.379 205.457 671.129 207.095 669.879 208.811C668.628 210.527 667.378 212.243 666.206 213.959C665.112 215.519 664.096 217.079 663.08 218.639C662.377 219.731 661.674 220.823 661.048 221.915C660.111 223.553 659.173 225.191 658.313 226.829C657.063 229.247 656.125 231.899 655.188 234.473C654.641 235.955 654.094 237.359 653.469 238.841C652.14 241.883 650.812 244.925 649.483 248.045C648.546 250.307 647.608 252.569 646.67 254.909C645.342 258.185 644.482 261.539 643.623 264.971C642.997 267.545 642.607 270.119 642.216 272.693C642.06 273.863 641.903 275.033 641.825 276.125C641.825 276.281 641.747 276.515 641.513 276.671C641.513 276.281 641.513 275.891 641.513 275.579C641.669 271.133 642.294 266.765 643.232 262.475C643.701 260.213 644.404 258.029 645.107 255.845C645.889 253.505 646.67 251.165 647.608 248.903C648.624 246.407 649.874 243.989 650.968 241.493C652.14 238.841 653.234 236.189 654.328 233.537C655.266 231.353 656.047 229.247 657.063 227.063C657.61 225.815 658.392 224.645 659.095 223.397C660.189 221.525 661.361 219.575 662.533 217.781C663.627 216.143 664.799 214.583 665.893 213.023C666.987 211.463 668.081 209.903 669.253 208.421C670.113 207.251 671.129 206.159 671.988 205.067C672.457 204.521 672.848 204.053 673.317 203.507C673.395 203.429 673.551 203.351 673.708 203.273C673.786 203.195 673.786 203.273 673.864 203.273Z" fill="#D3B22B"/>
<path d="M667.457 227.842C667.926 228.232 667.847 228.544 667.691 228.856C666.988 230.572 666.285 232.288 665.581 234.004C664.878 235.642 664.253 237.28 663.628 238.84C662.768 240.946 661.909 243.13 661.049 245.236C659.877 248.122 658.783 251.008 657.689 253.816C656.439 257.014 655.188 260.212 653.938 263.41C652.844 266.218 651.828 269.026 650.734 271.912C649.796 274.564 648.859 277.138 647.921 279.79C647.53 280.804 647.374 281.974 646.749 282.91C645.967 284.158 645.967 285.484 645.499 286.81C644.092 290.632 643.076 294.688 641.982 298.666C641.123 301.708 640.419 304.828 639.716 307.948C639.013 310.912 638.231 313.876 637.606 316.84C636.981 319.492 636.434 322.144 635.809 324.796C635.731 325.186 635.653 325.654 634.949 325.498C635.027 325.108 635.106 324.718 635.184 324.328C635.418 323.236 635.731 322.144 635.965 321.052C636.59 318.322 637.215 315.514 637.841 312.784C638.622 309.586 639.403 306.388 640.185 303.268C640.732 301.006 641.279 298.822 641.904 296.56C642.451 294.688 643.076 292.816 643.623 290.944C643.936 289.852 644.248 288.682 644.561 287.59C644.639 287.278 644.717 286.966 644.873 286.654C645.342 285.328 645.811 284.08 646.28 282.754C646.671 281.584 647.061 280.336 647.452 279.166C647.921 277.84 648.234 276.514 648.781 275.188C649.875 272.614 650.734 269.884 651.75 267.31C652.688 264.892 653.547 262.552 654.485 260.134C655.423 257.794 656.36 255.454 657.22 253.036C658.158 250.618 659.095 248.278 660.033 245.86C660.971 243.598 661.83 241.336 662.768 239.074C663.784 236.578 664.878 234.082 665.972 231.586C666.285 230.806 666.597 229.948 666.91 229.168C666.988 228.622 667.222 228.31 667.457 227.842Z" fill="#D3B22B"/>
<path d="M683.085 227.452C683.163 226.75 683.242 226.126 683.32 225.424C683.867 221.602 684.414 217.78 685.039 213.958C685.898 208.342 686.758 202.804 687.774 197.266C688.165 194.848 689.102 192.586 690.509 190.558C691.447 189.154 692.462 187.828 693.791 186.736C693.869 186.658 693.869 186.658 693.947 186.58C694.025 186.346 694.182 186.034 694.26 185.8C694.025 185.722 693.713 185.566 693.478 185.644C692.775 185.878 691.994 186.19 691.29 186.502C688.868 187.594 686.68 189.076 684.492 190.48C682.773 191.65 681.054 192.82 679.334 193.99C678.787 194.38 678.319 194.77 677.772 195.16C677.693 195.238 677.459 195.238 677.225 195.316C677.303 194.692 677.693 194.38 678.084 194.146C679.803 192.742 681.522 191.26 683.32 190.012C686.211 187.984 689.024 185.878 692.228 184.474C693.322 184.006 694.416 184.006 695.588 184.084C696.37 184.162 696.838 184.942 696.526 185.644C696.37 186.034 696.057 186.424 695.744 186.736C694.963 187.516 694.182 188.296 693.4 189.076C691.837 190.558 690.665 192.352 689.727 194.302C688.712 196.408 688.477 198.748 688.086 201.01C687.383 205.066 686.602 209.122 685.898 213.178C685.273 216.922 684.57 220.666 683.945 224.41C683.789 225.424 683.476 226.516 683.32 227.53C683.242 227.452 683.163 227.452 683.085 227.452Z" fill="#D3B22B"/>
<path d="M631.901 325.343C632.136 324.719 632.292 324.095 632.527 323.471C633.23 320.819 633.933 318.245 634.714 315.593C635.105 314.267 635.496 312.941 635.887 311.537C636.121 310.679 636.277 309.821 636.434 308.963C636.434 308.807 636.434 308.651 636.512 308.573C637.371 307.559 637.293 306.233 637.684 305.141C638.231 303.503 638.778 301.865 639.325 300.227C639.638 299.369 639.872 298.511 640.106 297.653C641.122 294.377 642.138 291.179 643.232 287.903C644.482 283.925 645.811 280.025 647.061 276.047C647.686 274.097 648.311 272.147 648.937 270.197C649.874 267.311 650.812 264.425 651.75 261.461C651.906 260.993 652.14 260.603 652.375 260.213C652.844 260.369 652.844 260.603 652.766 260.837C652.609 261.539 652.375 262.241 652.219 262.865C651.359 265.595 650.421 268.325 649.562 271.133C649.093 272.459 648.546 273.707 648.155 275.033C647.764 276.281 647.452 277.607 647.061 278.855C646.983 279.011 646.983 279.167 646.905 279.323C646.202 280.571 646.045 281.975 645.576 283.223C645.029 284.783 644.482 286.343 644.014 287.903C643.388 289.853 642.763 291.881 642.138 293.831C641.278 296.561 640.419 299.291 639.559 301.943C638.934 303.971 638.231 305.921 637.606 307.949C636.59 311.303 635.73 314.657 634.793 317.933C634.168 320.117 633.542 322.379 632.917 324.563C632.683 325.187 632.683 325.655 631.901 325.343Z" fill="#D3B22B"/>
<path d="M645.811 304.36C646.358 304.048 646.905 303.658 647.53 303.346C649.874 302.098 652.062 300.694 654.172 299.212C656.36 297.73 658.392 296.014 660.267 294.064C661.048 293.206 661.83 292.348 662.455 291.334C664.018 289.072 665.581 286.732 666.987 284.314C667.847 282.91 668.55 281.428 669.332 279.946C669.644 279.4 669.957 278.776 670.347 278.23C670.426 278.932 670.113 279.556 669.879 280.18C669.644 280.726 669.41 281.272 669.097 281.74C668.316 283.3 667.534 284.938 666.675 286.498C666.128 287.59 665.581 288.682 664.877 289.696C663.783 291.412 662.689 293.128 661.361 294.532C660.189 295.78 659.017 296.95 657.766 298.12C656.829 298.9 655.813 299.602 654.797 300.304C652.765 301.708 650.577 302.8 648.389 303.814C647.608 304.204 646.748 304.516 645.889 304.672C645.889 304.516 645.811 304.438 645.811 304.36Z" fill="#D3B22B"/>
<path d="M640.81 278.073C639.247 275.109 638.231 271.911 637.137 268.713C636.903 274.563 636.824 280.413 636.824 286.263C636.746 286.029 636.59 285.873 636.59 285.639C636.434 283.533 636.199 281.349 636.121 279.243C636.043 275.421 635.965 271.521 635.965 267.699C635.965 265.593 636.121 263.565 636.199 261.459C636.199 261.069 636.199 260.601 636.981 260.523C637.059 260.913 637.137 261.225 637.215 261.615C637.371 263.253 637.371 264.891 637.684 266.451C638.075 268.401 638.622 270.351 639.247 272.301C639.794 274.095 640.419 275.889 641.044 277.761C641.044 277.839 641.044 277.917 641.044 278.073C640.966 277.995 640.888 278.073 640.81 278.073Z" fill="#D3B22B"/>
<path d="M637.684 292.427C636.277 289.853 635.339 287.123 634.324 284.393C634.245 284.627 634.245 284.783 634.167 285.017C634.167 285.095 634.167 285.173 634.167 285.329C634.167 289.385 634.089 293.519 634.089 297.575C634.089 298.667 634.167 299.681 634.167 300.773C634.167 300.929 634.167 301.163 634.011 301.397C633.933 301.241 633.855 301.007 633.855 300.851C633.698 298.745 633.464 296.639 633.386 294.533C633.308 291.101 633.23 287.747 633.308 284.315C633.308 281.819 633.464 279.401 633.542 276.905C633.542 276.515 633.542 276.047 634.089 275.969C634.402 275.891 634.636 276.281 634.636 276.983C634.636 278.855 634.714 280.649 635.105 282.521C635.574 284.393 636.121 286.187 636.59 288.059C636.98 289.307 637.371 290.633 637.762 291.881C637.684 292.037 637.684 292.271 637.684 292.427Z" fill="#D3B22B"/>
<path d="M678.24 243.441C677.928 243.597 677.771 243.753 677.537 243.831C676.287 244.065 675.036 244.299 673.786 244.533C673.552 244.611 673.317 244.533 673.083 244.611C672.145 245.001 671.208 244.611 670.348 244.299C669.488 243.987 669.254 242.895 669.723 241.959C670.426 240.633 671.442 239.619 672.692 238.761C674.099 237.825 675.583 236.967 677.068 236.109C677.771 235.719 678.475 235.485 679.178 235.173C679.256 235.095 679.412 235.173 679.647 235.173C679.491 235.407 679.412 235.563 679.256 235.641C677.85 236.577 676.365 237.435 674.958 238.449C673.63 239.385 672.38 240.477 671.129 241.569C670.817 241.881 670.66 242.349 670.504 242.661C670.817 243.207 671.286 243.285 671.676 243.207C673.239 243.207 674.802 243.051 676.365 243.051C676.99 243.129 677.615 242.973 678.24 243.441Z" fill="#D3B22B"/>
<path d="M647.373 310.679C645.42 311.069 643.935 312.395 641.903 312.551C642.216 311.849 642.685 311.615 643.154 311.459C645.263 310.523 647.217 309.275 649.171 308.027C649.718 307.715 650.108 307.169 650.655 306.779C650.812 306.623 651.124 306.623 651.359 306.545C651.437 306.779 651.515 307.091 651.515 307.325C651.437 307.637 651.28 307.949 651.046 308.183C649.327 310.211 647.686 312.161 645.967 314.189C645.342 314.891 644.716 315.515 644.091 316.139C643.935 316.295 643.779 316.373 643.466 316.607C643.622 315.593 644.326 315.125 644.716 314.501C645.107 313.877 645.654 313.253 646.201 312.707C646.514 312.083 647.061 311.537 647.373 310.679Z" fill="#D3B22B"/>
<path d="M640.888 324.407C641.2 323.237 642.06 322.69 642.529 321.832C642.998 321.052 643.935 320.507 644.248 319.337C642.529 319.493 641.278 320.741 639.637 320.897C639.481 320.429 639.637 320.273 639.95 320.039C641.122 319.415 642.216 318.869 643.388 318.167C644.795 317.387 646.123 316.607 647.296 315.437C647.452 315.281 647.608 315.125 647.842 314.969C647.921 314.891 648.077 314.89 648.155 314.812C648.624 315.358 648.624 315.67 648.155 316.372C647.686 317.074 647.139 317.698 646.592 318.322C645.264 319.882 643.935 321.442 642.529 323.002C642.06 323.626 641.669 324.095 640.888 324.407Z" fill="#D3B22B"/>
<path d="M632.135 303.659C631.745 303.035 631.432 302.411 631.041 301.709C630.651 302.489 630.807 303.113 630.807 303.737C630.885 306.077 631.041 308.495 631.198 310.835C631.198 311.147 631.198 311.459 631.119 311.849C630.572 311.537 630.651 311.069 630.651 310.757C630.494 309.197 630.26 307.637 630.182 306.077C629.947 303.269 629.869 300.539 629.713 297.731C629.635 296.951 629.557 296.249 629.557 295.469C629.557 295.313 629.557 295.157 629.557 295.001C629.557 294.689 629.635 294.299 630.025 294.299C630.182 294.299 630.416 294.689 630.494 294.923C630.573 295.391 630.572 295.859 630.572 296.249C630.572 298.589 631.588 300.617 632.292 302.801C632.37 303.035 632.448 303.269 632.526 303.503C632.37 303.581 632.213 303.581 632.135 303.659Z" fill="#D3B22B"/>
<path d="M679.1 246.484C679.334 249.838 676.13 264.892 674.255 266.452C675.818 259.744 677.381 253.114 678.865 246.406L679.1 246.484Z" fill="#D3B22B"/>
<path d="M671.91 274.33C671.754 274.642 671.754 274.876 671.598 274.876C670.035 275.188 668.472 275.89 666.831 275.734C666.05 275.656 665.19 275.578 664.877 274.798C664.487 273.862 664.799 273.004 665.424 272.302C666.597 270.898 668.081 269.884 669.722 269.026C670.347 268.714 670.973 268.402 671.598 268.168C671.754 268.09 671.988 268.09 672.223 268.09C672.301 268.714 671.832 268.87 671.52 269.104C670.035 270.196 668.472 271.288 666.987 272.38C666.675 272.614 666.362 273.004 666.128 273.316C665.737 273.862 665.893 274.174 666.518 274.33C666.753 274.408 667.065 274.486 667.3 274.486C668.394 274.486 669.488 274.564 670.582 274.564C670.973 274.564 671.363 274.408 671.91 274.33Z" fill="#D3B22B"/>
<path d="M367.7 287.824C359.573 287.824 355.51 284.158 355.51 276.826C355.51 273.55 356.447 270.898 358.401 268.792C360.511 266.53 363.324 265.36 366.997 265.36C370.279 265.36 373.326 265.906 376.139 266.998V285.406H381.688V287.746H367.7V287.824ZM373.17 268.948C371.451 268.09 369.263 267.7 366.606 267.7C364.184 267.7 362.23 268.48 360.823 270.04C359.417 271.6 358.635 273.784 358.635 276.436C358.635 279.478 359.417 281.74 360.902 283.222C362.464 284.704 364.887 285.406 368.247 285.406H373.17V268.948ZM362.074 260.446C361.683 260.056 361.449 259.588 361.449 258.964C361.449 258.418 361.683 257.95 362.074 257.56C362.464 257.17 362.933 256.936 363.48 256.936C364.887 256.936 365.512 257.638 365.512 258.964C365.512 259.51 365.278 260.056 364.887 260.446C364.496 260.836 364.027 261.07 363.402 261.07C362.933 260.992 362.464 260.758 362.074 260.446ZM368.403 260.446C368.013 260.056 367.856 259.588 367.856 258.964C367.856 258.418 368.013 257.95 368.403 257.56C368.794 257.17 369.263 256.936 369.81 256.936C370.357 256.936 370.826 257.092 371.216 257.482C371.607 257.872 371.842 258.34 371.842 258.886C371.842 259.432 371.607 259.9 371.216 260.368C370.826 260.758 370.357 260.992 369.81 260.992C369.263 260.992 368.794 260.758 368.403 260.446Z" fill="#CDA72B"/>
<path d="M380.984 285.406H382.782C384.579 285.406 385.907 284.938 386.767 283.924C387.627 282.832 388.017 281.038 388.017 278.542V268.558H390.987V277.06C390.987 280.258 391.143 282.364 391.534 283.378C392.081 284.938 393.409 285.718 395.441 285.718C397.238 285.718 398.567 285.172 399.426 284.002C400.52 282.598 401.067 280.336 401.067 277.06V266.686H404.037V278.854C404.037 281.584 404.584 283.378 405.756 284.236C406.772 284.938 408.725 285.328 411.695 285.328H413.414C413.726 283.222 413.883 280.804 413.883 278.152C413.883 273.16 413.336 268.792 412.163 265.048L415.055 264.424C416.227 268.48 416.852 273.004 416.852 277.918C416.852 280.336 416.696 282.832 416.305 285.406H422.088V287.746H412.554C409.194 287.746 406.85 287.434 405.365 286.888C403.88 286.342 402.786 285.25 402.161 283.612C401.223 286.576 398.879 288.058 395.05 288.058C391.846 288.058 389.893 286.654 389.189 283.768C388.33 286.42 386.22 287.746 382.86 287.746H381.063L380.984 285.406Z" fill="#CDA72B"/>
<path d="M421.462 285.406H423.259C425.057 285.406 426.385 284.938 427.245 283.924C428.104 282.832 428.495 281.038 428.495 278.542V268.558H431.464V277.06C431.464 280.258 431.621 282.364 432.011 283.378C432.558 284.938 433.887 285.718 435.918 285.718C437.716 285.718 439.044 285.172 439.904 284.002C440.998 282.598 441.545 280.336 441.545 277.06V266.686H444.514V278.854C444.514 281.584 445.061 283.378 446.233 284.236C447.249 284.938 449.203 285.328 452.172 285.328H453.891C454.204 283.222 454.36 280.804 454.36 278.152C454.36 273.16 453.813 268.792 452.641 265.048L455.532 264.424C456.704 268.48 457.33 273.004 457.33 277.918C457.33 281.272 457.017 284.548 456.47 287.824H452.875C449.515 287.824 447.171 287.512 445.686 286.966C444.202 286.42 443.108 285.328 442.482 283.69C441.545 286.654 439.2 288.136 435.371 288.136C432.168 288.136 430.214 286.732 429.511 283.846C428.651 286.498 426.541 287.824 423.181 287.824H421.384V285.406H421.462Z" fill="#CDA72B"/>
<path d="M464.05 298.9L464.284 296.326C467.097 297.028 469.598 297.34 471.942 297.34C478.35 297.34 481.476 294.688 481.476 289.306V287.902H476.006C467.879 287.902 463.815 284.236 463.815 276.904C463.815 273.628 464.753 270.976 466.707 268.87C468.817 266.608 471.63 265.438 475.302 265.438C478.584 265.438 481.632 265.984 484.445 267.076V285.484H489.993V287.824H484.445V289.228C484.445 292.036 483.507 294.376 481.71 296.248C479.444 298.51 476.084 299.68 471.552 299.68C469.051 299.68 466.55 299.446 464.05 298.9ZM481.476 268.948C479.757 268.09 477.569 267.7 474.912 267.7C472.489 267.7 470.536 268.48 469.129 270.04C467.723 271.6 466.941 273.784 466.941 276.436C466.941 279.478 467.723 281.74 469.207 283.222C470.77 284.704 473.193 285.406 476.553 285.406H481.476V268.948ZM468.973 258.964C470.458 258.964 471.708 259.042 472.646 259.198C471.552 258.808 471.005 257.95 471.005 256.624C471.005 255.454 471.395 254.518 472.255 253.738C473.193 252.802 474.599 252.412 476.475 252.412C477.1 252.412 477.881 252.49 478.819 252.568L478.506 254.596C477.725 254.44 477.022 254.44 476.24 254.44C474.365 254.44 473.427 255.142 473.427 256.624C473.427 258.184 474.755 258.964 477.334 258.964H479.757V260.992H468.895L468.973 258.964Z" fill="#CDA72B"/>
<path d="M500.308 285.406V287.746H489.29V285.406H500.308Z" fill="#CDA72B"/>
<path d="M510.623 285.406V287.746H499.604V285.406H510.623Z" fill="#CDA72B"/>
<path d="M509.92 287.824V285.484H514.374C515.468 285.484 516.406 285.562 517.109 285.64C514.374 284.08 513.046 281.116 513.046 276.904C513.046 273.628 513.983 270.976 515.937 268.87C518.047 266.608 520.86 265.438 524.454 265.438C530.862 265.438 534.144 268.87 534.144 275.734V287.901L509.92 287.824ZM531.175 276.358C531.175 270.586 528.83 267.778 524.142 267.778C521.719 267.778 519.766 268.557 518.281 270.195C516.875 271.755 516.093 273.862 516.093 276.592C516.093 279.634 516.875 281.896 518.359 283.3C519.922 284.782 522.345 285.484 525.705 285.484H531.097V276.358H531.175Z" fill="#CDA72B"/>
<path d="M220.401 398.427C220.401 404.901 217.353 408.099 211.336 408.099C208.757 408.099 206.726 407.397 205.241 405.915C203.6 404.277 202.74 401.781 202.74 398.505C202.74 396.243 203.053 394.059 203.6 391.953L206.882 391.329C206.257 393.591 205.944 395.853 205.944 398.115C205.944 400.767 206.569 402.795 207.82 404.043C208.757 405.057 210.086 405.525 211.649 405.525C215.399 405.525 217.275 403.185 217.275 398.583V383.997H220.479V398.427H220.401ZM210.164 386.805C209.773 386.415 209.617 386.025 209.617 385.479C209.617 384.933 209.773 384.543 210.164 384.153C210.555 383.763 210.945 383.607 211.492 383.607C212.039 383.607 212.43 383.763 212.821 384.153C213.211 384.543 213.368 385.011 213.368 385.479C213.368 385.947 213.211 386.415 212.821 386.805C212.43 387.195 212.039 387.351 211.492 387.351C210.945 387.351 210.555 387.117 210.164 386.805Z" fill="#CDA72B"/>
<path d="M225.558 408.255L225.792 405.603C227.746 406.071 229.543 406.227 231.262 406.227C235.638 406.227 237.826 404.433 237.826 400.845V399.987H234.388C228.371 399.987 225.401 397.335 225.401 392.031C225.401 389.613 226.105 387.585 227.511 386.103C229.074 384.387 231.262 383.529 234.075 383.529C236.576 383.529 238.92 383.919 241.03 384.699V397.491H244.781V399.987H241.03V400.611C241.03 402.873 240.249 404.667 238.764 406.149C237.045 407.787 234.388 408.645 231.028 408.645C229.152 408.801 227.355 408.645 225.558 408.255ZM237.826 386.961C236.732 386.415 235.326 386.181 233.685 386.181C232.122 386.181 230.871 386.727 229.934 387.741C228.996 388.755 228.527 390.159 228.527 391.875C228.527 395.775 230.637 397.725 234.779 397.725H237.826V386.961Z" fill="#CDA72B"/>
<path d="M244.234 397.648H249.236V383.998H252.361V397.648H256.19V400.144H244.234V397.648ZM249.548 379.786C249.157 379.396 249.001 379.006 249.001 378.46C249.001 377.914 249.157 377.524 249.548 377.134C249.939 376.744 250.33 376.588 250.877 376.588C251.424 376.588 251.814 376.744 252.205 377.134C252.596 377.524 252.752 377.914 252.752 378.46C252.752 379.006 252.596 379.396 252.205 379.786C251.814 380.176 251.345 380.332 250.877 380.332C250.33 380.332 249.861 380.176 249.548 379.786Z" fill="#CDA72B"/>
<path d="M255.721 397.648H257.752C258.534 397.648 259.315 397.726 260.175 397.804C258.69 396.712 257.909 394.762 257.909 392.11C257.909 389.692 258.69 387.742 260.175 386.182C261.738 384.544 263.769 383.764 266.27 383.764C268.614 383.764 270.412 384.388 271.74 385.558C273.225 386.884 273.928 388.99 273.928 391.72C273.928 394.528 273.068 396.556 271.271 397.882C272.443 397.804 273.459 397.726 274.241 397.726H276.585V400.222H255.721V397.648ZM269.239 396.244C270.177 395.23 270.646 393.748 270.646 391.798C270.646 388.054 269.083 386.104 265.879 386.104C264.551 386.104 263.379 386.572 262.519 387.43C261.503 388.444 261.034 389.848 261.034 391.72C261.034 395.62 262.675 397.57 265.879 397.57C267.286 397.648 268.38 397.18 269.239 396.244ZM264.707 379.708C264.316 379.318 264.16 378.928 264.16 378.382C264.16 377.836 264.316 377.446 264.707 377.056C265.098 376.666 265.489 376.51 266.036 376.51C266.583 376.51 266.973 376.666 267.364 377.056C267.755 377.446 267.911 377.914 267.911 378.382C267.911 378.928 267.755 379.318 267.364 379.708C266.973 380.098 266.583 380.254 266.036 380.254C265.489 380.254 265.02 380.098 264.707 379.708Z" fill="#CDA72B"/>
<path d="M276.038 397.649H280.883V375.965H284.009V400.145H276.038V397.649Z" fill="#CDA72B"/>
<path d="M290.495 375.965H293.621V400.145H290.495V375.965Z" fill="#CDA72B"/>
<path d="M298.699 408.255L298.934 405.603C300.887 406.071 302.685 406.227 304.404 406.227C308.78 406.227 310.968 404.433 310.968 400.845V399.987H307.529C301.512 399.987 298.543 397.335 298.543 392.031C298.543 389.613 299.246 387.585 300.653 386.103C302.216 384.387 304.404 383.529 307.217 383.529C309.717 383.529 312.062 383.919 314.172 384.699V400.689C314.172 402.951 313.39 404.745 311.905 406.227C310.186 407.865 307.529 408.723 304.169 408.723C302.294 408.801 300.497 408.645 298.699 408.255ZM310.968 386.961C309.874 386.415 308.467 386.181 306.826 386.181C305.263 386.181 304.013 386.727 303.075 387.741C302.138 388.755 301.669 390.159 301.669 391.875C301.669 395.775 303.779 397.725 307.92 397.725H310.968V386.961Z" fill="#CDA72B"/>
<path d="M334.333 400.145C328.316 400.145 325.347 397.493 325.347 392.189C325.347 389.771 326.05 387.743 327.457 386.261C329.019 384.545 331.207 383.687 334.021 383.687C336.521 383.687 338.865 384.077 340.975 384.857V397.649H344.804V400.145H334.333ZM337.771 386.963C336.677 386.417 335.271 386.183 333.63 386.183C332.067 386.183 330.817 386.729 329.879 387.743C328.941 388.757 328.472 390.161 328.472 391.877C328.472 395.777 330.582 397.727 334.724 397.727H337.771V386.963ZM329.879 380.333C329.566 379.943 329.332 379.553 329.332 379.007C329.332 378.539 329.488 378.071 329.879 377.759C330.192 377.369 330.66 377.213 331.207 377.213C331.676 377.213 332.145 377.369 332.536 377.759C332.927 378.149 333.083 378.539 333.083 379.085C333.083 379.631 332.927 380.021 332.536 380.411C332.145 380.801 331.754 380.957 331.207 380.957C330.66 380.879 330.192 380.645 329.879 380.333ZM334.958 380.333C334.568 379.943 334.411 379.553 334.411 379.007C334.411 378.539 334.568 378.071 334.958 377.759C335.349 377.369 335.74 377.213 336.287 377.213C336.756 377.213 337.224 377.369 337.537 377.759C337.85 378.149 338.084 378.539 338.084 379.085C338.084 379.631 337.928 380.021 337.537 380.411C337.224 380.801 336.756 380.957 336.287 380.957C335.74 380.879 335.271 380.645 334.958 380.333Z" fill="#CDA72B"/>
<path d="M344.179 400.144V397.648H346.914C347.695 397.648 348.398 397.726 348.945 397.804C347.226 396.712 346.367 394.762 346.367 392.032C346.367 389.692 347.07 387.742 348.555 386.182C350.118 384.544 352.227 383.686 354.962 383.686C359.885 383.686 362.308 386.26 362.308 391.408V400.222L344.179 400.144ZM359.182 391.876C359.182 388.054 357.697 386.182 354.65 386.182C353.087 386.182 351.837 386.728 350.899 387.742C349.961 388.756 349.492 390.16 349.492 391.876C349.492 395.776 351.602 397.648 355.744 397.648H359.182V391.876ZM353.243 379.708C352.853 379.318 352.696 378.928 352.696 378.382C352.696 377.836 352.853 377.446 353.243 377.056C353.634 376.666 354.025 376.51 354.572 376.51C355.119 376.51 355.509 376.666 355.9 377.056C356.291 377.446 356.447 377.914 356.447 378.382C356.447 378.928 356.291 379.318 355.9 379.708C355.509 380.098 355.119 380.254 354.572 380.254C354.025 380.254 353.634 380.098 353.243 379.708Z" fill="#CDA72B"/>
<path d="M368.481 375.965H371.607V397.649H375.436V400.145H368.481V375.965Z" fill="#CDA72B"/>
<path d="M374.889 397.649H376.92C377.702 397.649 378.483 397.727 379.343 397.805C377.858 396.713 377.077 394.763 377.077 392.111C377.077 389.693 377.858 387.743 379.343 386.183C380.906 384.545 382.937 383.765 385.438 383.765C387.782 383.765 389.58 384.389 390.908 385.559C392.393 386.885 393.096 388.991 393.096 391.721C393.096 394.529 392.236 396.557 390.439 397.883C391.611 397.805 392.627 397.727 393.409 397.727H395.753V400.223H374.889V397.649ZM388.407 396.245C389.345 395.231 389.814 393.749 389.814 391.799C389.814 388.055 388.251 386.105 385.047 386.105C383.719 386.105 382.547 386.573 381.687 387.431C380.671 388.445 380.202 389.849 380.202 391.721C380.202 395.621 381.843 397.571 385.047 397.571C386.454 397.649 387.548 397.181 388.407 396.245ZM381.375 380.333C380.984 379.943 380.828 379.553 380.828 379.007C380.828 378.539 380.984 378.071 381.375 377.759C381.687 377.369 382.156 377.213 382.703 377.213C383.172 377.213 383.641 377.369 383.953 377.759C384.344 378.149 384.5 378.539 384.5 379.085C384.5 379.631 384.344 380.021 383.953 380.411C383.641 380.801 383.172 380.957 382.703 380.957C382.156 380.879 381.765 380.645 381.375 380.333ZM386.454 380.333C386.063 379.943 385.907 379.553 385.907 379.007C385.907 378.539 386.063 378.071 386.454 377.759C386.845 377.369 387.235 377.213 387.782 377.213C388.251 377.213 388.72 377.369 389.033 377.759C389.345 378.149 389.58 378.539 389.58 379.085C389.58 379.631 389.423 380.021 389.033 380.411C388.72 380.801 388.251 380.957 387.782 380.957C387.235 380.879 386.845 380.645 386.454 380.333Z" fill="#CDA72B"/>
<path d="M395.206 397.648H400.207V383.998H403.333V397.648H407.162V400.144H395.128V397.648H395.206ZM397.394 380.332C397.003 379.942 396.847 379.552 396.847 379.006C396.847 378.538 397.003 378.07 397.394 377.758C397.707 377.368 398.175 377.212 398.722 377.212C399.269 377.212 399.66 377.368 400.051 377.758C400.363 378.07 400.598 378.538 400.598 379.084C400.598 379.63 400.442 380.02 400.051 380.41C399.738 380.8 399.269 380.956 398.722 380.956C398.175 380.878 397.785 380.644 397.394 380.332ZM400.051 376.276C399.738 375.964 399.582 375.496 399.582 375.028C399.582 374.56 399.738 374.092 400.051 373.78C400.363 373.468 400.832 373.234 401.301 373.234C401.77 373.234 402.161 373.39 402.552 373.78C402.864 374.092 403.02 374.56 403.02 375.028C403.02 375.496 402.864 375.886 402.552 376.276C402.239 376.588 401.77 376.744 401.301 376.744C400.754 376.744 400.363 376.588 400.051 376.276ZM402.552 380.332C402.161 379.942 402.004 379.552 402.004 379.006C402.004 378.538 402.161 378.07 402.552 377.758C402.864 377.368 403.333 377.212 403.88 377.212C404.349 377.212 404.818 377.368 405.208 377.758C405.599 378.148 405.755 378.538 405.755 379.084C405.755 379.63 405.599 380.02 405.208 380.41C404.818 380.8 404.427 380.956 403.88 380.956C403.333 380.878 402.864 380.644 402.552 380.332Z" fill="#CDA72B"/>
<path d="M406.693 397.649H411.538V375.965H414.664V400.145H406.693V397.649Z" fill="#CDA72B"/>
<path d="M421.228 375.965H424.353V400.145H421.228V375.965Z" fill="#CDA72B"/>
<path d="M429.355 408.255L429.589 405.603C431.543 406.071 433.34 406.227 435.059 406.227C439.435 406.227 441.623 404.433 441.623 400.845V399.987H438.185C432.168 399.987 429.198 397.335 429.198 392.031C429.198 389.613 429.902 387.585 431.308 386.103C432.871 384.387 435.059 383.529 437.872 383.529C440.373 383.529 442.717 383.919 444.827 384.699V400.689C444.827 402.951 444.045 404.745 442.561 406.227C440.842 407.865 438.185 408.723 434.825 408.723C432.949 408.801 431.152 408.645 429.355 408.255ZM441.623 386.961C440.529 386.415 439.122 386.181 437.481 386.181C435.919 386.181 434.668 386.727 433.731 387.741C432.793 388.755 432.324 390.159 432.324 391.875C432.324 395.775 434.434 397.725 438.575 397.725H441.623V386.961Z" fill="#CDA72B"/>
<path d="M468.66 400.144C464.44 400.144 461.315 399.286 459.361 397.57C457.486 395.932 456.626 393.514 456.626 390.16C456.626 387.976 457.017 386.104 457.798 384.466L461.158 383.842C460.299 385.636 459.83 387.586 459.83 389.77C459.83 392.5 460.455 394.45 461.783 395.62C463.19 396.946 465.612 397.57 469.129 397.57H474.99V383.92H478.115V400.066L468.66 400.144ZM464.44 380.332C464.128 379.942 463.893 379.552 463.893 379.006C463.893 378.538 464.05 378.07 464.44 377.758C464.831 377.368 465.222 377.212 465.769 377.212C466.316 377.212 466.706 377.368 467.097 377.758C467.41 378.07 467.644 378.538 467.644 379.084C467.644 379.63 467.488 380.02 467.097 380.41C466.785 380.8 466.316 380.956 465.769 380.956C465.222 380.878 464.753 380.644 464.44 380.332ZM467.019 376.276C466.706 375.964 466.55 375.496 466.55 375.028C466.55 374.56 466.706 374.092 467.019 373.78C467.332 373.468 467.8 373.234 468.269 373.234C468.738 373.234 469.129 373.39 469.52 373.78C469.832 374.092 469.988 374.56 469.988 375.028C469.988 375.496 469.832 375.886 469.52 376.276C469.207 376.588 468.738 376.744 468.269 376.744C467.722 376.744 467.332 376.588 467.019 376.276ZM469.52 380.332C469.129 379.942 468.973 379.552 468.973 379.006C468.973 378.538 469.129 378.07 469.52 377.758C469.832 377.368 470.301 377.212 470.848 377.212C471.317 377.212 471.786 377.368 472.098 377.758C472.489 378.148 472.645 378.538 472.645 379.084C472.645 379.63 472.489 380.02 472.098 380.41C471.786 380.8 471.317 380.956 470.848 380.956C470.301 380.878 469.832 380.644 469.52 380.332Z" fill="#CDA72B"/>
<path d="M484.289 375.965H487.415V400.145H484.289V375.965Z" fill="#CDA72B"/>
<path d="M501.793 400.145V400.301C501.793 406.073 499.136 408.959 493.822 408.959C492.65 408.959 491.478 408.803 490.228 408.491L490.54 405.839C491.634 406.229 492.728 406.463 493.978 406.463C495.463 406.463 496.635 406.073 497.339 405.215C498.12 404.279 498.589 402.719 498.589 400.613V383.999H501.715V397.649H509.607V383.999H512.733V397.649H516.562V400.145H501.793ZM506.872 380.333C506.481 379.943 506.325 379.553 506.325 379.007C506.325 378.539 506.481 378.071 506.872 377.759C507.185 377.369 507.653 377.213 508.2 377.213C508.747 377.213 509.138 377.369 509.529 377.759C509.841 378.071 510.076 378.539 510.076 379.085C510.076 379.631 509.92 380.021 509.529 380.411C509.216 380.801 508.747 380.957 508.2 380.957C507.653 380.879 507.185 380.645 506.872 380.333ZM511.951 380.333C511.561 379.943 511.404 379.553 511.404 379.007C511.404 378.539 511.561 378.071 511.951 377.759C512.264 377.369 512.733 377.213 513.28 377.213C513.749 377.213 514.217 377.369 514.608 377.759C514.999 378.149 515.155 378.539 515.155 379.085C515.155 379.631 514.999 380.021 514.608 380.411C514.217 380.801 513.827 380.957 513.28 380.957C512.733 380.879 512.264 380.645 511.951 380.333Z" fill="#CDA72B"/>
<path d="M516.093 397.649H520.938V375.965H524.063V397.649H527.814V400.145H516.093V397.649Z" fill="#CDA72B"/>
<path d="M527.346 397.649H532.191V375.965H535.316V400.145H527.346V397.649Z" fill="#CDA72B"/>
<path d="M206.413 346.245H224.777C224.386 337.119 219.541 331.425 210.164 329.007L212.118 322.221C218.994 324.015 224.152 326.979 227.434 331.035C230.95 335.325 232.669 341.175 232.669 348.663V352.719H206.413V346.245Z" fill="#CDA72B"/>
<path d="M240.952 309.273H249.079V352.719H240.952V309.273Z" fill="#CDA72B"/>
<path d="M257.206 346.245H275.57C275.179 337.119 270.334 331.347 261.035 329.007L262.989 322.221C269.553 323.937 274.397 326.667 277.758 330.333C281.196 334.233 283.149 339.537 283.54 346.245H287.604V352.641H257.362V346.245H257.206Z" fill="#CDA72B"/>
<path d="M286.51 346.246H304.717V352.642H286.51V346.246Z" fill="#CDA72B"/>
<path d="M304.014 346.246H322.221V352.642H304.014V346.246Z" fill="#CDA72B"/>
<path d="M321.518 346.246H339.725V352.642H321.518V346.246Z" fill="#CDA72B"/>
<path d="M338.943 346.246H357.151V352.642H338.943V346.246Z" fill="#CDA72B"/>
<path d="M356.447 346.246H374.655V352.642H356.447V346.246Z" fill="#CDA72B"/>
<path d="M373.951 346.246H392.158V352.642H373.951V346.246Z" fill="#CDA72B"/>
<path d="M391.455 346.246H409.662V352.642H391.455V346.246Z" fill="#CDA72B"/>
<path d="M408.881 346.246H427.088V352.642H408.881V346.246Z" fill="#CDA72B"/>
<path d="M426.385 346.246H444.592V352.642H426.385V346.246Z" fill="#CDA72B"/>
<path d="M443.89 346.246H462.097V352.642H443.89V346.246Z" fill="#CDA72B"/>
<path d="M484.679 352.72C478.037 352.72 473.427 351.082 470.848 347.884C469.598 351.082 466.316 352.72 461.08 352.72H460.143V346.324C462.565 346.324 464.362 345.7 465.456 344.53C466.707 343.204 467.332 341.02 467.332 337.9C467.332 333.766 468.66 330.256 471.317 327.526C474.286 324.484 478.272 323.002 483.351 323.002C492.65 323.002 497.339 327.76 497.339 337.198V346.402H508.122V309.352H516.249V352.72H484.679ZM489.446 338.056C489.446 332.206 487.258 329.32 482.882 329.32C480.616 329.32 478.819 330.1 477.49 331.66C476.24 333.22 475.537 335.17 475.537 337.588C475.537 343.36 478.584 346.246 484.758 346.246H489.446V338.056Z" fill="#CDA72B"/>
<path d="M526.955 309.273H535.082V352.719H526.955V309.273Z" fill="#CDA72B"/>
</svg>
