<svg width="20" height="20" viewBox="0 0 20 20" fill="none" xmlns="http://www.w3.org/2000/svg">
<path d="M17.2914 9.99957C17.2914 9.68828 17.1533 9.39947 17.0226 9.18261C16.8815 8.9486 16.6918 8.707 16.4837 8.47143C16.0662 7.99887 15.5215 7.49139 14.9928 7.03233C14.4611 6.57058 13.9312 6.1454 13.5353 5.83642C13.3371 5.68167 13.1717 5.55548 13.0555 5.46772C12.9974 5.42383 12.9516 5.38952 12.92 5.36602L12.8837 5.33903L12.8741 5.33191L12.8708 5.32944C12.5928 5.12472 12.2012 5.1838 11.9965 5.46172C11.7918 5.73962 11.8511 6.13085 12.129 6.33558L12.1396 6.34342L12.173 6.36823C12.2025 6.39023 12.2462 6.42293 12.302 6.46511C12.4137 6.54949 12.5738 6.67165 12.7662 6.82179C13.1516 7.1226 13.6633 7.53335 14.1732 7.97614C14.6863 8.42163 15.1832 8.88732 15.5469 9.29905C15.5699 9.32509 15.5922 9.35068 15.6137 9.37581L3.33301 9.37582C2.98783 9.37582 2.70801 9.65564 2.70801 10.0008C2.70801 10.346 2.98783 10.6258 3.33301 10.6258L15.6116 10.6258C15.5907 10.6502 15.5692 10.6749 15.5469 10.7001C15.1832 11.1118 14.6863 11.5775 14.1732 12.023C13.6633 12.4658 13.1516 12.8766 12.7662 13.1774C12.5738 13.3275 12.4137 13.4497 12.302 13.5341C12.2462 13.5762 12.2025 13.6089 12.173 13.6309L12.1396 13.6557L12.129 13.6636C11.8511 13.8683 11.7918 14.2595 11.9965 14.5374C12.2012 14.8154 12.5928 14.8744 12.8708 14.6697L12.8741 14.6673L12.8837 14.6601L12.92 14.6331C12.9516 14.6096 12.9974 14.5753 13.0555 14.5314C13.1717 14.4437 13.3371 14.3175 13.5353 14.1627C13.9312 13.8538 14.4611 13.4286 14.9928 12.9668C15.5215 12.5078 16.0662 12.0003 16.4837 11.5277C16.6918 11.2922 16.8815 11.0506 17.0226 10.8165C17.1525 10.601 17.2897 10.3143 17.2913 10.0052" fill="#161616"/>
</svg>
