<svg width="24" height="28" viewBox="0 0 24 28" fill="none" xmlns="http://www.w3.org/2000/svg">
<path d="M8 14C7.44772 14 7 14.4477 7 15C7 15.5523 7.44772 16 8 16H8.00897C8.56126 16 9.00897 15.5523 9.00897 15C9.00897 14.4477 8.56126 14 8.00897 14H8Z" fill="#1B8354"/>
<path d="M11.9955 14C11.4432 14 10.9955 14.4477 10.9955 15C10.9955 15.5523 11.4432 16 11.9955 16H12.0045C12.5568 16 13.0045 15.5523 13.0045 15C13.0045 14.4477 12.5568 14 12.0045 14H11.9955Z" fill="#1B8354"/>
<path d="M15.991 14C15.4387 14 14.991 14.4477 14.991 15C14.991 15.5523 15.4387 16 15.991 16H16C16.5523 16 17 15.5523 17 15C17 14.4477 16.5523 14 16 14H15.991Z" fill="#1B8354"/>
<path d="M8 18C7.44772 18 7 18.4477 7 19C7 19.5523 7.44772 20 8 20H8.00897C8.56126 20 9.00897 19.5523 9.00897 19C9.00897 18.4477 8.56126 18 8.00897 18H8Z" fill="#1B8354"/>
<path d="M11.9955 18C11.4432 18 10.9955 18.4477 10.9955 19C10.9955 19.5523 11.4432 20 11.9955 20H12.0045C12.5568 20 13.0045 19.5523 13.0045 19C13.0045 18.4477 12.5568 18 12.0045 18H11.9955Z" fill="#1B8354"/>
<path fill-rule="evenodd" clip-rule="evenodd" d="M6.75 4C6.75 3.58579 6.41421 3.25 6 3.25C5.58579 3.25 5.25 3.58579 5.25 4V4.63479C4.44524 4.86288 3.7665 5.2336 3.20154 5.84436C2.42363 6.68535 2.07785 7.74792 1.91225 9.07951C1.74998 10.3843 1.74999 12.0565 1.75 14.19V14.81C1.74999 16.9435 1.74998 18.6157 1.91225 19.9205C2.07785 21.2521 2.42363 22.3147 3.20154 23.1556C3.98714 24.0049 4.99276 24.3901 6.25129 24.573C7.46932 24.75 9.02555 24.75 10.9892 24.75H13.0108C14.9745 24.75 16.5307 24.75 17.7487 24.573C19.0072 24.3901 20.0129 24.0049 20.7985 23.1556C21.5764 22.3147 21.9222 21.2521 22.0878 19.9205C22.25 18.6157 22.25 16.9435 22.25 14.8099V14.1901C22.25 12.0565 22.25 10.3843 22.0878 9.07951C21.9222 7.74792 21.5764 6.68535 20.7985 5.84436C20.2335 5.2336 19.5548 4.86288 18.75 4.63479V4C18.75 3.58579 18.4142 3.25 18 3.25C17.5858 3.25 17.25 3.58579 17.25 4V4.36589C16.1139 4.24997 14.716 4.24998 13.0108 4.25H10.9892C9.28402 4.24998 7.88606 4.24997 6.75 4.36589V4ZM5.2786 6.20584C5.36806 6.51998 5.65717 6.75 6 6.75C6.41421 6.75 6.75 6.41421 6.75 6V5.87459C7.81101 5.75156 9.18237 5.75 11.05 5.75H12.95C14.8176 5.75 16.189 5.75156 17.25 5.87459V6C17.25 6.41421 17.5858 6.75 18 6.75C18.3428 6.75 18.6319 6.51998 18.7214 6.20585C19.1287 6.36791 19.438 6.58256 19.6973 6.86292C20.1704 7.37439 20.4505 8.07588 20.5982 9.25637C20.5661 9.25217 20.5333 9.25 20.5 9.25H3.5C3.46672 9.25 3.43395 9.25217 3.40181 9.25637C3.54952 8.07588 3.82959 7.37439 4.30269 6.86292C4.56203 6.58256 4.87129 6.36791 5.2786 6.20584ZM3.29013 10.7202C3.25056 11.6832 3.25 12.8363 3.25 14.2432V14.7568C3.25 16.9551 3.25137 18.5339 3.40078 19.7354C3.54821 20.9208 3.82849 21.6244 4.30269 22.1371C4.76921 22.6414 5.39728 22.9331 6.46704 23.0886C7.56476 23.2481 9.01188 23.25 11.05 23.25H12.95C14.9881 23.25 16.4352 23.2481 17.533 23.0886C18.6027 22.9331 19.2308 22.6414 19.6973 22.1371C20.1715 21.6244 20.4518 20.9208 20.5992 19.7354C20.7486 18.5339 20.75 16.9551 20.75 14.7568V14.2432C20.75 12.8363 20.7494 11.6832 20.7099 10.7202C20.6433 10.7396 20.5728 10.75 20.5 10.75H3.5C3.42715 10.75 3.35673 10.7396 3.29013 10.7202Z" fill="#1B8354"/>
</svg>

