<svg width="32" height="32" viewBox="0 0 32 32" fill="none" xmlns="http://www.w3.org/2000/svg">
<path fillRule="evenodd" clipRule="evenodd" d="M11.6252 16C11.6252 13.5838 13.5839 11.625 16.0002 11.625C18.4164 11.625 20.3752 13.5838 20.3752 16C20.3752 18.4163 18.4164 20.375 16.0002 20.375C13.5839 20.375 11.6252 18.4163 11.6252 16ZM16.0002 12.875C14.2743 12.875 12.8752 14.2741 12.8752 16C12.8752 17.7259 14.2743 19.125 16.0002 19.125C17.7261 19.125 19.1252 17.7259 19.1252 16C19.1252 14.2741 17.7261 12.875 16.0002 12.875Z" fill="#161616"/>
<path d="M20.59 12.25C21.0502 12.25 21.4233 11.8769 21.4233 11.4167C21.4233 10.9564 21.0502 10.5833 20.59 10.5833H20.5825C20.1223 10.5833 19.7492 10.9564 19.7492 11.4167C19.7492 11.8769 20.1223 12.25 20.5825 12.25H20.59Z" fill="#161616"/>
<path fillRule="evenodd" clipRule="evenodd" d="M16.0478 7.45834C17.8734 7.45833 19.3073 7.45832 20.4268 7.60884C21.574 7.76308 22.4842 8.08561 23.1994 8.80077C23.9146 9.51594 24.2371 10.4261 24.3913 11.5734C24.5418 12.6929 24.5418 14.1268 24.5418 15.9523V16.0476C24.5418 17.8732 24.5418 19.3071 24.3913 20.4267C24.2371 21.5739 23.9146 22.4841 23.1994 23.1993C22.4842 23.9144 21.574 24.2369 20.4268 24.3912C19.3073 24.5417 17.8734 24.5417 16.0478 24.5417H15.9525C14.1269 24.5417 12.693 24.5417 11.5735 24.3912C10.4263 24.2369 9.51609 23.9144 8.80092 23.1993C8.08576 22.4841 7.76323 21.5739 7.60899 20.4267C7.45848 19.3071 7.45849 17.8732 7.4585 16.0477V15.9524C7.45849 14.1268 7.45848 12.6929 7.60899 11.5734C7.76323 10.4261 8.08576 9.51594 8.80092 8.80077C9.51609 8.08561 10.4263 7.76308 11.5735 7.60884C12.693 7.45832 14.1269 7.45833 15.9525 7.45834H16.0478ZM11.7401 8.84769C10.7315 8.9833 10.129 9.24045 9.68481 9.68466C9.2406 10.1289 8.98345 10.7313 8.84784 11.7399C8.70982 12.7665 8.7085 14.1164 8.7085 16C8.7085 17.8837 8.70982 19.2335 8.84784 20.2601C8.98345 21.2687 9.2406 21.8712 9.68481 22.3154C10.129 22.7596 10.7315 23.0167 11.7401 23.1523C12.7667 23.2903 14.1165 23.2917 16.0002 23.2917C17.8838 23.2917 19.2337 23.2903 20.2603 23.1523C21.2689 23.0167 21.8713 22.7596 22.3155 22.3154C22.7597 21.8712 23.0169 21.2687 23.1525 20.2601C23.2905 19.2335 23.2918 17.8837 23.2918 16C23.2918 14.1164 23.2905 12.7665 23.1525 11.7399C23.0169 10.7313 22.7597 10.1289 22.3155 9.68466C21.8713 9.24045 21.2689 8.9833 20.2603 8.84769C19.2337 8.70967 17.8838 8.70834 16.0002 8.70834C14.1165 8.70834 12.7667 8.70967 11.7401 8.84769Z" fill="#161616"/>
</svg>

