<svg width="32" height="32" viewBox="0 0 32 32" fill="none" xmlns="http://www.w3.org/2000/svg">
<path fill-rule="evenodd" clip-rule="evenodd" d="M7.0415 9.54166C7.0415 8.16094 8.16079 7.04166 9.5415 7.04166C10.9222 7.04166 12.0415 8.16094 12.0415 9.54166C12.0415 10.9224 10.9222 12.0417 9.5415 12.0417C8.16079 12.0417 7.0415 10.9224 7.0415 9.54166ZM9.5415 8.29166C8.85115 8.29166 8.2915 8.8513 8.2915 9.54166C8.2915 10.232 8.85115 10.7917 9.5415 10.7917C10.2319 10.7917 10.7915 10.232 10.7915 9.54166C10.7915 8.8513 10.2319 8.29166 9.5415 8.29166Z" fill="#161616"/>
<path fill-rule="evenodd" clip-rule="evenodd" d="M9.29589 13.2917H9.78713C10.1478 13.2916 10.4785 13.2916 10.7475 13.3277C11.0437 13.3676 11.3569 13.4613 11.6144 13.7188C11.8719 13.9763 11.9656 14.2894 12.0054 14.5857C12.0416 14.8547 12.0416 15.1854 12.0415 15.546L12.0415 22.7039C12.0416 23.0646 12.0416 23.3953 12.0054 23.6643C11.9656 23.9606 11.8719 24.2737 11.6144 24.5312C11.3569 24.7887 11.0437 24.8824 10.7475 24.9222C10.4785 24.9584 10.1478 24.9584 9.78713 24.9583H9.29589C8.93521 24.9584 8.60451 24.9584 8.3355 24.9222C8.03927 24.8824 7.72616 24.7887 7.46865 24.5312C7.21113 24.2737 7.11742 23.9606 7.07759 23.6643C7.04143 23.3953 7.04146 23.0646 7.04151 22.704L7.04151 15.546C7.04146 15.1854 7.04143 14.8547 7.07759 14.5857C7.11742 14.2894 7.21113 13.9763 7.46865 13.7188C7.72617 13.4613 8.03927 13.3676 8.3355 13.3277C8.60451 13.2916 8.93521 13.2916 9.29589 13.2917ZM8.35254 14.6027L8.35457 14.6015C8.35618 14.6007 8.35894 14.5994 8.36315 14.5976C8.3813 14.5902 8.4216 14.5774 8.50206 14.5666C8.67767 14.543 8.92267 14.5417 9.33318 14.5417H9.74984C10.1603 14.5417 10.4054 14.543 10.581 14.5666C10.6614 14.5774 10.7017 14.5902 10.7199 14.5976C10.7241 14.5994 10.7268 14.6007 10.7285 14.6015L10.7305 14.6027L10.7316 14.6047C10.7325 14.6063 10.7338 14.6091 10.7355 14.6133C10.743 14.6314 10.7558 14.6718 10.7666 14.7522C10.7902 14.9278 10.7915 15.1728 10.7915 15.5833L10.7915 22.6667C10.7915 23.0772 10.7902 23.3222 10.7666 23.4978C10.7558 23.5782 10.743 23.6185 10.7355 23.6367C10.7338 23.6409 10.7325 23.6437 10.7316 23.6453L10.7305 23.6473L10.7285 23.6484C10.7268 23.6493 10.7241 23.6506 10.7199 23.6524C10.7017 23.6598 10.6614 23.6726 10.581 23.6834C10.4054 23.707 10.1603 23.7083 9.74984 23.7083H9.33318C8.92267 23.7083 8.67767 23.707 8.50206 23.6834C8.4216 23.6726 8.3813 23.6598 8.36315 23.6524C8.35894 23.6506 8.35618 23.6493 8.35457 23.6484L8.35254 23.6473L8.35139 23.6453C8.35055 23.6437 8.3492 23.6409 8.34748 23.6367C8.34001 23.6185 8.32726 23.5782 8.31645 23.4978C8.29284 23.3222 8.29151 23.0772 8.29151 22.6667L8.29151 15.5833C8.29151 15.1728 8.29284 14.9278 8.31645 14.7522C8.32726 14.6718 8.34001 14.6314 8.34748 14.6133C8.34921 14.6091 8.35055 14.6063 8.35139 14.6047L8.35254 14.6027Z" fill="#161616"/>
<path fill-rule="evenodd" clip-rule="evenodd" d="M15.5459 13.2917C15.7872 13.2916 16.7591 13.2916 16.9436 13.3085C17.1431 13.3268 17.3603 13.3688 17.5696 13.4913C17.7857 13.6176 17.9655 13.7975 18.0919 14.0135L18.1019 14.0309C18.76 13.5662 19.5544 13.2919 20.4138 13.2919C22.6598 13.2919 24.9582 15.2037 24.9582 17.6669L24.9571 22.2879C24.9571 22.6485 24.957 22.9792 24.9208 23.2481C24.8809 23.5443 24.7872 23.8573 24.5297 24.1147C24.2722 24.3722 23.9591 24.4659 23.6629 24.5057C23.394 24.5418 23.0633 24.5418 22.7027 24.5418H22.2125C21.8519 24.5418 21.5211 24.5418 21.2521 24.5057C20.9559 24.4659 20.6428 24.3721 20.3853 24.1146C20.1278 23.8571 20.0341 23.544 19.9942 23.2478C19.9581 22.9788 19.9581 22.6481 19.9581 22.2874L19.9581 18.5001C19.9581 18.1188 19.6761 17.8751 19.4064 17.8751C18.9754 17.8751 18.7437 18.0404 18.5844 18.3048C18.3972 18.6156 18.2916 19.1074 18.2916 19.7501L18.2915 22.704C18.2916 23.0647 18.2916 23.3953 18.2554 23.6643C18.2156 23.9606 18.1219 24.2737 17.8644 24.5312C17.6069 24.7887 17.2938 24.8824 16.9975 24.9222C16.7285 24.9584 16.3978 24.9584 16.0371 24.9583H15.5459C15.1852 24.9584 14.8545 24.9584 14.5855 24.9222C14.2893 24.8824 13.9762 24.7887 13.7186 24.5312C13.4611 24.2737 13.3674 23.9606 13.3276 23.6643C13.2914 23.3953 13.2915 23.0646 13.2915 22.704L13.2915 15.546C13.2915 15.1854 13.2914 14.8547 13.3276 14.5857C13.3674 14.2894 13.4611 13.9763 13.7186 13.7188C13.9762 13.4613 14.2893 13.3676 14.5855 13.3277C14.8545 13.2916 15.1852 13.2916 15.5459 13.2917ZM15.5832 14.5417C15.1727 14.5417 14.9277 14.543 14.7521 14.5666C14.6957 14.5644 14.5796 14.5985 14.5664 14.7522C14.5428 14.9278 14.5415 15.1728 14.5415 15.5833L14.5415 22.6667C14.5415 23.0772 14.5428 23.3222 14.5664 23.4978C14.5765 23.5994 14.6944 23.6639 14.7521 23.6834C14.9277 23.707 15.1727 23.7083 15.5832 23.7083H15.9999C16.4104 23.7083 16.6554 23.707 16.831 23.6834C16.8883 23.6689 17.0057 23.6115 17.0166 23.4978C17.0402 23.3222 17.0415 23.0772 17.0415 22.6667L17.0416 19.7501C17.0416 19.0121 17.1559 18.2538 17.5137 17.6599C17.8994 17.0195 18.5376 16.6251 19.4064 16.6251C20.4365 16.6251 21.2081 17.5007 21.2081 18.5001V22.2501C21.2081 22.6606 21.2095 22.9056 21.2331 23.0812C21.2331 23.2129 21.3127 23.235 21.3748 23.2522C21.3913 23.2568 21.4065 23.261 21.4187 23.2668C21.5943 23.2904 21.8393 23.2918 22.2498 23.2918L22.6654 23.2918C23.0759 23.2918 23.3208 23.2904 23.4964 23.2668C23.5542 23.2454 23.6722 23.1782 23.682 23.0813C23.7056 22.9057 23.707 22.6608 23.7071 22.2503L23.7082 17.6667C23.7081 15.9878 22.0671 14.5419 20.4138 14.5419C19.5159 14.5419 18.7034 14.9809 18.164 15.69C18.0016 15.9035 17.7211 15.9896 17.4669 15.9039C17.2127 15.8182 17.0416 15.5799 17.0416 15.3116C17.0415 15.0375 17.0409 14.8741 17.0299 14.7537C17.023 14.6276 16.8935 14.5676 16.8295 14.5533C16.709 14.5423 16.5457 14.5417 16.2715 14.5417L15.5832 14.5417Z" fill="#161616"/>
</svg>
