<svg width="48" height="48" viewBox="0 0 48 48" fill="none" xmlns="http://www.w3.org/2000/svg">
<path d="M0 24C0 10.7452 10.7452 0 24 0C37.2548 0 48 10.7452 48 24C48 37.2548 37.2548 48 24 48C10.7452 48 0 37.2548 0 24Z" fill="#F3FCF6"/>
<path fill-rule="evenodd" clip-rule="evenodd" d="M13.25 24C13.25 18.0629 18.0629 13.25 24 13.25C24.7353 13.25 25.4542 13.3239 26.1492 13.465C26.5551 13.5474 26.8174 13.9433 26.735 14.3492C26.6526 14.7552 26.2567 15.0175 25.8508 14.935C25.2534 14.8138 24.6345 14.75 24 14.75C18.8914 14.75 14.75 18.8914 14.75 24C14.75 29.1086 18.8914 33.25 24 33.25C29.1086 33.25 33.25 29.1086 33.25 24C33.25 23.3655 33.1862 22.7466 33.065 22.1491C32.9826 21.7432 33.2449 21.3473 33.6509 21.265C34.0568 21.1826 34.4527 21.4449 34.535 21.8509C34.676 22.5458 34.75 23.2647 34.75 24C34.75 29.937 29.937 34.75 24 34.75C18.0629 34.75 13.25 29.937 13.25 24ZM24 19.75C21.6528 19.75 19.75 21.6528 19.75 24C19.75 26.3472 21.6528 28.25 24 28.25C26.3472 28.25 28.25 26.3472 28.25 24C28.25 23.5858 28.5858 23.25 29 23.25C29.4142 23.25 29.75 23.5858 29.75 24C29.75 27.1756 27.1756 29.75 24 29.75C20.8244 29.75 18.25 27.1756 18.25 24C18.25 20.8244 20.8244 18.25 24 18.25C24.4142 18.25 24.75 18.5858 24.75 19C24.75 19.4142 24.4142 19.75 24 19.75ZM31.9033 14.1344C31.6535 13.3325 30.6547 12.961 29.9514 13.5358C29.2272 14.1276 28.3597 14.9051 27.8711 15.9201C27.4221 16.8527 27.3175 17.9307 27.7848 19.1473L23.4999 23.4321C23.207 23.725 23.2071 24.1999 23.4999 24.4928C23.7928 24.7857 24.2677 24.7857 24.5606 24.4928L28.825 20.2284C30.1212 20.7128 31.2313 20.5843 32.1726 20.1027C33.1576 19.5986 33.8949 18.735 34.451 18.0636C35.0372 17.3558 34.6629 16.3294 33.833 16.0895C33.8236 16.0868 33.8141 16.0842 33.8045 16.0819L32.3455 15.7215L31.9098 14.1563C31.9077 14.1489 31.9056 14.1416 31.9033 14.1344ZM31.4893 18.7673C30.9211 19.0581 30.2217 19.174 29.2587 18.788C28.8485 17.8597 28.9406 17.1566 29.2226 16.5708C29.5045 15.9851 30.001 15.4657 30.5785 14.9672L31.0179 16.5457C31.0904 16.8064 31.2978 17.0078 31.5605 17.0727L33.0208 17.4333C32.5418 17.99 32.0557 18.4775 31.4893 18.7673Z" fill="#067647"/>
</svg>
