<svg width="24" height="24" viewBox="0 0 24 24" fill="none" xmlns="http://www.w3.org/2000/svg">
<path d="M7.71695 7.57634C7.71695 8.99934 6.56584 10.1527 5.14558 10.1527C3.72533 10.1527 2.57422 8.99934 2.57422 7.57634C2.57422 6.15334 3.72533 5 5.14558 5C6.56584 5 7.71695 6.15334 7.71695 7.57634Z" fill="#042A39"/>
<path d="M21.4279 7.57634C21.4279 8.99934 20.2768 10.1527 18.8565 10.1527C17.4363 10.1527 16.2852 8.99934 16.2852 7.57634C16.2852 6.15334 17.4363 5 18.8565 5C20.2768 5 21.4279 6.15334 21.4279 7.57634Z" fill="#042A39"/>
<path d="M17.1409 20V17.4236C17.1409 17.0229 16.9695 16.6221 16.6267 16.3931C15.941 15.8206 15.0267 15.4198 14.1124 15.1908C13.4839 15.019 12.741 14.8473 11.9982 14.8473C11.3125 14.8473 10.5697 14.9618 9.88396 15.1908C8.9697 15.4198 8.11258 15.8778 7.36974 16.3931C7.02689 16.6794 6.85547 17.0229 6.85547 17.4236V20H17.1409Z" fill="#042A39"/>
<path d="M14.5724 11.5839C14.5724 13.0069 13.4213 14.1603 12.0011 14.1603C10.5808 14.1603 9.42969 13.0069 9.42969 11.5839C9.42969 10.1609 10.5808 9.00757 12.0011 9.00757C13.4213 9.00757 14.5724 10.1609 14.5724 11.5839Z" fill="#042A39"/>
<path d="M23.4873 12.3855C22.8016 11.813 21.8873 11.4122 20.9731 11.1832C20.3445 11.0115 19.6017 10.8397 18.8588 10.8397C18.1731 10.8397 17.4303 10.9542 16.7446 11.1832C16.4017 11.2977 16.0589 11.4122 15.716 11.584V11.6412C15.716 12.6145 15.3161 13.5306 14.6875 14.1603C15.7732 14.5038 16.6303 14.9619 17.316 15.4771C17.4874 15.6489 17.6589 15.7634 17.7731 15.9924H24.0016V13.4161C24.0016 13.0153 23.8301 12.6145 23.4873 12.3855Z" fill="#042A39"/>
<path d="M6.68556 15.4771C7.48554 14.9046 8.39979 14.4466 9.31405 14.1603C8.6855 13.4733 8.28552 12.6145 8.28552 11.6412C8.28552 11.584 8.28552 11.584 8.28552 11.5267C7.94267 11.4122 7.59982 11.2405 7.25698 11.1832C6.62842 11.0115 5.88557 10.8397 5.14273 10.8397C4.45704 10.8397 3.71419 10.9542 3.02849 11.1832C2.11423 11.4695 1.25711 11.8703 0.51427 12.3855C0.171421 12.6145 0 13.0153 0 13.4161V15.9924H6.17127C6.3427 15.7634 6.45699 15.6489 6.68556 15.4771Z" fill="#042A39"/>
</svg>
