<svg width="48" height="48" viewBox="0 0 48 48" fill="none" xmlns="http://www.w3.org/2000/svg">
<path d="M0 24C0 10.7452 10.7452 0 24 0C37.2548 0 48 10.7452 48 24C48 37.2548 37.2548 48 24 48C10.7452 48 0 37.2548 0 24Z" fill="#F3FCF6"/>
<path d="M21.561 22.8825C22.541 23.4595 23.27 23.7485 23.999 23.7485C24.729 23.7485 25.458 23.4605 26.439 22.8825L29.381 21.1424C29.738 20.9324 29.856 20.4725 29.645 20.1155C29.435 19.7585 28.975 19.6404 28.618 19.8514L25.677 21.5905C24.203 22.4575 23.795 22.4575 22.323 21.5905L19.381 19.8504C19.025 19.6394 18.5649 19.7584 18.3539 20.1144C18.1429 20.4704 18.262 20.9304 18.618 21.1414L21.561 22.8825Z" fill="#1B8354"/>
<path fill-rule="evenodd" clip-rule="evenodd" d="M21.0797 33.2064C22.0617 33.2314 23.0307 33.2445 23.9997 33.2445C24.9687 33.2445 25.9378 33.2314 26.9198 33.2064L26.9211 33.2064C30.1583 33.1244 31.9419 33.0793 33.2867 31.7354C34.6287 30.3824 34.6657 28.6465 34.7327 25.4935C34.7537 24.4865 34.7537 23.5085 34.7327 22.5015C34.6657 19.3485 34.6287 17.6114 33.2837 16.2564C31.9407 14.9154 30.1568 14.8695 26.9188 14.7875C24.9538 14.7375 23.0437 14.7375 21.0787 14.7875L21.0774 14.7875C17.8402 14.8695 16.0566 14.9147 14.7117 16.2585C13.3697 17.6115 13.3328 19.3475 13.2658 22.5005C13.2448 23.5075 13.2448 24.4855 13.2658 25.4925C13.3328 28.6455 13.3698 30.3825 14.7148 31.7375C16.0578 33.0785 17.8417 33.1244 21.0797 33.2064ZM15.7768 30.6774C14.8558 29.7504 14.8268 28.4054 14.7648 25.4604C14.7438 24.4744 14.7438 23.5164 14.7648 22.5314C14.8268 19.5864 14.8558 18.2425 15.7738 17.3165C16.6927 16.3976 18.0785 16.3625 21.116 16.2855C23.056 16.2355 24.9418 16.2354 26.8808 16.2854C29.9188 16.3624 31.3048 16.3985 32.2218 17.3145C33.1428 18.2415 33.1717 19.5864 33.2337 22.5314C33.2547 23.5174 33.2547 24.4754 33.2337 25.4604C33.1717 28.4054 33.1427 29.7495 32.2247 30.6755C31.3059 31.5943 29.9203 31.6294 26.8835 31.7064L26.8818 31.7064C24.9418 31.7564 23.0568 31.7564 21.1178 31.7064C18.0798 31.6294 16.6938 31.5934 15.7768 30.6774Z" fill="#1B8354"/>
</svg>
