<svg width="23" height="22" viewBox="0 0 23 22" fill="none" xmlns="http://www.w3.org/2000/svg">
<g id="Group 26903">
<path id="Vector 8153 (Stroke)" fill-rule="evenodd" clip-rule="evenodd" d="M7.05981 7.2148C7.68797 5.9221 9.11356 5.25 11.5004 5.25C13.8872 5.25 15.3128 5.9221 15.941 7.2148C16.2326 7.81494 16.3058 8.46776 16.2978 9.07232C16.2927 9.46293 16.2528 9.85921 16.2037 10.2358C16.8981 10.5643 17.676 11.1141 18.2541 11.713C18.6365 12.1092 18.9975 12.5933 19.16 13.1216C19.3363 13.6949 19.277 14.3468 18.7648 14.8719C18.2934 15.3551 17.7082 15.4949 17.1408 15.3655C16.6339 15.2499 16.1928 14.9337 15.852 14.6186C15.6681 14.4486 15.4931 14.2597 15.3311 14.0642C15.1095 14.6699 14.8349 15.2649 14.4946 15.7885C13.8473 16.7844 12.8776 17.6389 11.5004 17.6389C10.1223 17.6389 9.15231 16.7834 8.50504 15.7867C8.16479 15.2628 7.89034 14.6677 7.66885 14.0619C7.50716 14.2573 7.33241 14.4462 7.14893 14.6162C6.80837 14.9317 6.36748 15.2485 5.86063 15.3647C5.29316 15.4949 4.70757 15.3553 4.23599 14.8719C3.72376 14.3468 3.66444 13.6949 3.84077 13.1216C4.00325 12.5933 4.36427 12.1092 4.74664 11.713C5.32474 11.1141 6.10271 10.5643 6.79712 10.2358C6.74798 9.85921 6.70805 9.46293 6.70293 9.07232C6.69502 8.46776 6.76819 7.81494 7.05981 7.2148ZM7.04974 11.7996C6.63921 12.0426 6.18828 12.3793 5.82589 12.7548C5.51631 13.0755 5.33737 13.3581 5.27449 13.5625C5.22545 13.722 5.2554 13.7688 5.3097 13.8244C5.40465 13.9218 5.45164 13.9196 5.52541 13.9027C5.65982 13.8719 5.86886 13.7573 6.12955 13.5158C6.55771 13.1191 6.93584 12.5594 7.13193 12.1904C7.10258 12.0579 7.07522 11.9274 7.04974 11.7996ZM15.868 12.1942C16.064 12.5626 16.4421 13.1214 16.8702 13.5171C17.1309 13.7581 17.3399 13.8724 17.4744 13.9031C17.5485 13.92 17.5959 13.922 17.6911 13.8244C17.7454 13.7688 17.7753 13.722 17.7263 13.5625C17.6634 13.3581 17.4845 13.0755 17.1749 12.7548C16.8125 12.3793 16.3616 12.0426 15.951 11.7996C15.9253 11.9286 15.8977 12.0604 15.868 12.1942ZM8.2028 9.05268C8.20917 9.53861 8.28319 10.0564 8.36509 10.6085C8.43046 11.0491 8.52308 11.5651 8.6511 12.1042C8.89503 13.1314 9.25503 14.1876 9.76303 14.9698C10.0673 15.4383 10.394 15.7661 10.7504 15.9531V14.6955L10.0153 14.072C9.69937 13.8041 9.66049 13.3308 9.92841 13.0149C10.1963 12.699 10.6696 12.6601 10.9855 12.928L11.5004 13.3647L12.0153 12.928C12.3312 12.6601 12.8044 12.699 13.0724 13.0149C13.3403 13.3308 13.3014 13.8041 12.9855 14.072L12.2504 14.6955V15.9531C12.6065 15.7663 12.9328 15.4389 13.2369 14.9711C13.7447 14.1898 14.1047 13.1346 14.3488 12.1078C14.4773 11.5674 14.5702 11.0501 14.6357 10.6085C14.7176 10.0564 14.7916 9.53861 14.798 9.05268C14.8043 8.56836 14.7411 8.17765 14.5918 7.87039C14.3381 7.34827 13.6636 6.75 11.5004 6.75C9.33722 6.75 8.66267 7.34827 8.40896 7.87039C8.25965 8.17765 8.19646 8.56836 8.2028 9.05268Z" fill="#007960"/>
<path id="Vector 8154 (Stroke)" fill-rule="evenodd" clip-rule="evenodd" d="M4.96827 4.04509C4.76016 4.55306 4.78812 4.93054 4.89637 5.14192C4.99568 5.33584 5.00576 5.56336 4.92398 5.7653C4.8422 5.96724 4.67665 6.12364 4.47038 6.19382C3.53632 6.5116 3.01123 7.18936 2.78511 7.98025C2.55158 8.79706 2.64985 9.70603 2.96611 10.3655C3.06165 10.5648 3.06448 10.796 2.97385 10.9975C2.30528 12.4839 2.09619 14.0991 2.36207 15.4134C2.62498 16.7131 3.32771 17.6536 4.46091 18.0224C4.64943 18.0837 4.80599 18.2172 4.89636 18.3937C5.628 19.8223 8.05919 20.8099 11.2985 19.9062C11.4304 19.8695 11.5697 19.8695 11.7016 19.9062C14.9409 20.8099 17.3721 19.8223 18.1037 18.3937C18.1941 18.2172 18.3507 18.0837 18.5392 18.0224C19.6724 17.6536 20.3751 16.7131 20.638 15.4134C20.9039 14.0991 20.6948 12.4839 20.0263 10.9975C19.9356 10.796 19.9385 10.5648 20.034 10.3655C20.3503 9.70603 20.4485 8.79706 20.215 7.98025C19.9889 7.18936 19.4638 6.5116 18.5297 6.19382C18.3235 6.12364 18.1579 5.96724 18.0761 5.7653C17.9943 5.56336 18.0044 5.33584 18.1037 5.14192C18.212 4.93054 18.2399 4.55306 18.0318 4.04509C17.8295 3.5512 17.4333 3.02059 16.8653 2.59208C15.7565 1.75551 13.9979 1.31281 11.8291 2.37154C11.6214 2.4729 11.3787 2.4729 11.171 2.37154C9.00224 1.31281 7.24363 1.75551 6.13476 2.59208C5.56678 3.02059 5.17062 3.5512 4.96827 4.04509ZM11.5001 0.871289C8.95737 -0.241471 6.72454 0.268128 5.23136 1.39464C4.46628 1.97185 3.89295 2.71317 3.58025 3.47642C3.37544 3.97632 3.26787 4.52773 3.33081 5.05775C2.26799 5.62699 1.62997 6.56384 1.3429 7.5679C1.04393 8.61357 1.11643 9.75216 1.47404 10.6889C0.799569 12.3342 0.574103 14.14 0.891846 15.7108C1.21376 17.3021 2.11495 18.7085 3.7118 19.3457C5.00604 21.46 8.1645 22.27 11.5001 21.4053C14.8356 22.27 17.9941 21.46 19.2883 19.3457C20.8852 18.7085 21.7863 17.3021 22.1083 15.7108C22.426 14.14 22.2005 12.3342 21.5261 10.6889C21.8837 9.75216 21.9562 8.61357 21.6572 7.5679C21.3701 6.56384 20.7321 5.62699 19.6693 5.05775C19.7322 4.52773 19.6247 3.97632 19.4199 3.47642C19.1072 2.71317 18.5338 1.97185 17.7687 1.39464C16.2756 0.268127 14.0427 -0.241471 11.5001 0.871289Z" fill="#007960"/>
</g>
</svg>
