<svg width="21" height="22" viewBox="0 0 21 22" fill="none" xmlns="http://www.w3.org/2000/svg">
<g id="elements">
<path id="Icon" fill-rule="evenodd" clip-rule="evenodd" d="M5.95832 0.25C4.52682 0.25 3.36636 1.38528 3.36636 2.78571C3.36636 3.71706 3.69465 4.57339 4.2442 5.25H3.59438C3.14015 5.24999 2.75846 5.24998 2.44723 5.27206C2.12419 5.29497 1.81052 5.34483 1.51162 5.47989C1.1731 5.63285 0.870604 5.86234 0.650213 6.1611C0.441962 6.44339 0.364189 6.74749 0.33036 7.03961C0.299736 7.30406 0.29977 7.62116 0.299807 7.96403V8.03597C0.29977 8.37884 0.299736 8.69594 0.33036 8.96039C0.364189 9.25251 0.441962 9.55661 0.650213 9.83891C0.828526 10.0806 1.06059 10.277 1.32199 10.4242L1.32199 14.0557C1.32197 15.6583 1.32196 16.9373 1.45981 17.9404C1.60222 18.9767 1.90428 19.8301 2.5944 20.5052C3.28452 21.1803 4.15686 21.4758 5.21612 21.6152C6.24146 21.75 7.54879 21.75 9.18694 21.75H11.3453C12.9834 21.75 14.2907 21.75 15.3161 21.6152C16.3753 21.4758 17.2477 21.1803 17.9378 20.5052C18.6279 19.8301 18.93 18.9767 19.0724 17.9404C19.2102 16.9373 19.2102 15.6583 19.2102 14.0557V10.4242C19.4716 10.277 19.7037 10.0806 19.882 9.83891C20.0903 9.55661 20.168 9.25251 20.2019 8.96039C20.2325 8.69594 20.2324 8.37885 20.2324 8.03598V7.96402C20.2324 7.62116 20.2325 7.30406 20.2019 7.03961C20.168 6.74749 20.0903 6.44339 19.882 6.1611C19.6616 5.86234 19.3591 5.63285 19.0206 5.47989C18.7217 5.34483 18.408 5.29497 18.085 5.27206C17.7738 5.24998 17.3921 5.24999 16.9378 5.25H16.288C16.8376 4.57339 17.1658 3.71706 17.1658 2.78571C17.1658 1.38528 16.0054 0.25 14.5739 0.25H14.2088C12.5589 0.25 11.1071 1.08007 10.2661 2.33662C9.42506 1.08007 7.97331 0.25 6.32339 0.25H5.95832ZM11.0327 20.25H11.2883C12.9965 20.25 14.2005 20.2484 15.1118 20.1285C16.001 20.0116 16.4959 19.7945 16.8536 19.4445C17.2114 19.0946 17.4332 18.6104 17.5528 17.7405C17.6753 16.849 17.6769 15.6711 17.6769 14V10.7453C17.4564 10.75 17.2104 10.75 16.9382 10.75H11.0327V20.25ZM9.49946 10.75V20.25H9.24392C7.53573 20.25 6.33171 20.2484 5.42042 20.1285C4.53119 20.0116 4.03634 19.7945 3.67859 19.4445C3.32084 19.0946 3.09897 18.6104 2.97941 17.7405C2.85689 16.849 2.85527 15.6711 2.85527 14V10.7453C3.07576 10.75 3.32184 10.75 3.59397 10.75H9.49946ZM10.2649 9.25C10.2653 9.25 10.2657 9.25 10.2661 9.25C10.2665 9.25 10.2669 9.25 10.2673 9.25H16.9103C17.3993 9.25 17.725 9.24954 17.9741 9.23187C18.2177 9.21459 18.3208 9.18406 18.3777 9.15835C18.5053 9.10067 18.5899 9.02719 18.6387 8.9611C18.6403 8.95895 18.6446 8.9531 18.6509 8.93451C18.6585 8.91169 18.6694 8.86898 18.6783 8.79153C18.698 8.62175 18.6991 8.39104 18.6991 8C18.6991 7.60896 18.698 7.37826 18.6783 7.20847C18.6694 7.13102 18.6585 7.08832 18.6509 7.06549C18.6446 7.04691 18.6404 7.04123 18.6388 7.03908C18.5901 6.97299 18.5053 6.89933 18.3777 6.84165C18.3208 6.81594 18.2177 6.78541 17.9741 6.76813C17.725 6.75046 17.3993 6.75 16.9103 6.75H3.62191C3.13292 6.75 2.80723 6.75046 2.55811 6.76813C2.31452 6.78541 2.21145 6.81594 2.15455 6.84165C2.0269 6.89933 1.94228 6.97281 1.89352 7.03891C1.89193 7.04105 1.88759 7.04691 1.88134 7.06549C1.87366 7.08832 1.86286 7.13102 1.85389 7.20847C1.83423 7.37826 1.83309 7.60896 1.83309 8C1.83309 8.39104 1.83423 8.62175 1.85389 8.79153C1.86286 8.86898 1.87366 8.91169 1.88134 8.93451C1.88759 8.95309 1.8918 8.95877 1.89339 8.96092C1.94214 9.02701 2.0269 9.10067 2.15455 9.15835C2.21145 9.18406 2.31452 9.21459 2.55811 9.23187C2.80723 9.24954 3.13292 9.25 3.62191 9.25H10.2649ZM9.49946 4.85714V5.25H7.41859C6.02741 5.25 4.89963 4.1467 4.89963 2.78571C4.89963 2.21371 5.37363 1.75 5.95832 1.75H6.32339C8.07749 1.75 9.49946 3.14112 9.49946 4.85714ZM15.6326 2.78571C15.6326 4.1467 14.5048 5.25 13.1136 5.25L11.0327 5.25V4.85714C11.0327 3.14112 12.4547 1.75 14.2088 1.75H14.5739C15.1586 1.75 15.6326 2.21371 15.6326 2.78571Z" fill="#007960"/>
</g>
</svg>
