<svg width="14" height="14" viewBox="0 0 14 14" fill="none" xmlns="http://www.w3.org/2000/svg">
<g id="elements">
<g id="Icon">
<path d="M5.3275 6.79363C5.37992 7.0295 5.2312 7.2632 4.99533 7.31562L4.47033 7.43228C4.23446 7.4847 4.00075 7.33598 3.94834 7.10011C3.89592 6.86424 4.04464 6.63053 4.28051 6.57812L4.80551 6.46145C5.04138 6.40904 5.27508 6.55775 5.3275 6.79363Z" fill="#8D600A"/>
<path d="M8.67334 6.79363C8.72575 6.55775 8.95945 6.40904 9.19533 6.46145L9.72033 6.57812C9.9562 6.63053 10.1049 6.86424 10.0525 7.10011C10.0001 7.33598 9.76638 7.4847 9.53051 7.43228L9.00551 7.31561C8.76964 7.2632 8.62092 7.0295 8.67334 6.79363Z" fill="#8D600A"/>
<path fill-rule="evenodd" clip-rule="evenodd" d="M0.729492 12.8385C0.729492 12.5969 0.925368 12.401 1.16699 12.401H1.31283L1.31283 3.47834C1.3128 3.28309 1.31278 3.1005 1.33069 2.94817C1.35059 2.77881 1.39671 2.60079 1.52068 2.43734C1.64471 2.27381 1.80375 2.18148 1.96156 2.11681C2.10335 2.0587 2.27903 2.00982 2.46668 1.95761L6.57075 0.815186L6.601 0.806721C6.72521 0.771879 6.8589 0.734375 7.00033 0.734375C7.14176 0.734375 7.27545 0.771879 7.39965 0.806721L7.4299 0.815186L11.5339 1.9576C11.7216 2.0098 11.8973 2.0587 12.0391 2.11681C12.1969 2.18148 12.3559 2.27381 12.48 2.43734C12.604 2.60079 12.6501 2.77881 12.67 2.94817C12.6879 3.10049 12.6879 3.28305 12.6878 3.47828L12.6878 7.57554C12.6881 7.58389 12.6881 7.59229 12.6878 7.60071L12.6878 12.401H12.8337C13.0753 12.401 13.2712 12.5969 13.2712 12.8385C13.2712 13.0802 13.0753 13.276 12.8337 13.276L1.16699 13.276C0.925368 13.276 0.729492 13.0802 0.729492 12.8385ZM2.44301 6.98645L2.18783 7.04316L2.18783 5.60433L6.56283 4.6078V6.07094L6.38051 6.11145C6.14464 6.16387 5.99592 6.39757 6.04834 6.63344C6.1002 6.86681 6.32952 7.01487 6.56283 6.96721L6.56283 12.401L2.18783 12.401L2.18783 7.9395L2.63283 7.84062C2.8687 7.7882 3.01742 7.5545 2.965 7.31863C2.91259 7.08276 2.67888 6.93404 2.44301 6.98645ZM7.43783 12.401L7.43783 6.96718C7.67119 7.01495 7.90063 6.86687 7.9525 6.63344C8.00492 6.39757 7.8562 6.16387 7.62033 6.11145L7.43783 6.0709V4.60766L11.8128 5.60419V7.04312L11.5578 6.98645C11.322 6.93404 11.0883 7.08276 11.0358 7.31863C10.9834 7.5545 11.1321 7.7882 11.368 7.84062L11.8128 7.93946L11.8128 12.401L7.43783 12.401ZM2.18783 4.70692V3.49979C2.18783 3.27559 2.18853 3.14537 2.1997 3.05031C2.20476 3.00731 2.2107 2.985 2.21434 2.97437C2.21602 2.96947 2.21739 2.96682 2.21739 2.96682L2.21783 2.96612L2.21834 2.96556C2.21834 2.96556 2.22043 2.96361 2.22463 2.96072C2.23374 2.95445 2.25347 2.9428 2.29335 2.92646C2.3816 2.8903 2.50646 2.85481 2.72207 2.79479L6.8054 1.65814C6.88725 1.63535 6.93251 1.6229 6.96722 1.61521C6.98263 1.6118 6.99132 1.61041 6.99591 1.60981L7.00025 1.60938L7.00085 1.6094L7.00475 1.60981C7.00933 1.61041 7.01803 1.6118 7.03344 1.61521C7.06815 1.6229 7.1134 1.63535 7.19526 1.65814L11.2786 2.79479C11.4942 2.85481 11.6191 2.8903 11.7073 2.92646C11.7472 2.9428 11.7669 2.95445 11.776 2.96072C11.7802 2.96361 11.7823 2.96556 11.7823 2.96556L11.7828 2.96612L11.7833 2.96682L11.7843 2.96905C11.7848 2.97032 11.7855 2.9721 11.7863 2.97437C11.79 2.985 11.7959 3.00731 11.801 3.05031C11.8121 3.14537 11.8128 3.27559 11.8128 3.49979L11.8128 4.70678L7.3509 3.69044C7.12025 3.63791 6.88105 3.63791 6.6504 3.69044L2.18783 4.70692Z" fill="#8D600A"/>
</g>
</g>
</svg>
