<svg width="20" height="23" viewBox="0 0 20 23" fill="none" xmlns="http://www.w3.org/2000/svg">
<g id="elements">
<g id="Icon">
<path d="M7.5 16.75C7.08579 16.75 6.75 16.4142 6.75 16L6.75 10C6.75 9.58579 7.08579 9.25 7.5 9.25C7.91421 9.25 8.25 9.58579 8.25 10L8.25 16C8.25 16.4142 7.91421 16.75 7.5 16.75Z" fill="#003F6A"/>
<path d="M13.25 10C13.25 9.58579 12.9142 9.25 12.5 9.25C12.0858 9.25 11.75 9.58579 11.75 10V16C11.75 16.4142 12.0858 16.75 12.5 16.75C12.9142 16.75 13.25 16.4142 13.25 16V10Z" fill="#003F6A"/>
<path fill-rule="evenodd" clip-rule="evenodd" d="M10.0662 0.750001H10.0022C9.4969 0.749987 9.06827 0.749975 8.71258 0.782355C8.33514 0.816717 7.98355 0.891139 7.64357 1.07192C7.50939 1.14326 7.38136 1.22561 7.26078 1.31811C6.95528 1.55248 6.74173 1.84153 6.55391 2.17073C6.37691 2.48095 6.19915 2.87095 5.98959 3.33073L5.57055 4.25H1C0.585786 4.25 0.25 4.58579 0.25 5C0.25 5.41422 0.585786 5.75 1 5.75H1.79393L2.35833 15.0991C2.43377 16.3488 2.49362 17.3404 2.61816 18.1325C2.74587 18.9449 2.95121 19.6214 3.36311 20.2133C3.73991 20.7547 4.22537 21.2118 4.78854 21.5553C5.40416 21.9307 6.09186 22.0949 6.91041 22.1735C7.70858 22.25 8.70198 22.25 9.95385 22.25H10.0315C11.2818 22.25 12.274 22.25 13.0712 22.1736C13.8888 22.0952 14.5758 21.9313 15.1909 21.5565C15.7537 21.2137 16.239 20.7574 16.616 20.2169C17.028 19.626 17.234 18.9504 17.3627 18.1392C17.4881 17.3482 17.5493 16.358 17.6265 15.1101L18.2051 5.75H19C19.4142 5.75 19.75 5.41422 19.75 5C19.75 4.58579 19.4142 4.25 19 4.25H14.5256L14.0341 3.2361C13.8192 2.79263 13.6367 2.41618 13.4571 2.11688C13.2664 1.79917 13.052 1.52075 12.7501 1.29561C12.6308 1.20664 12.5045 1.1275 12.3724 1.05897C12.0382 0.885548 11.6941 0.814081 11.325 0.781071C10.9774 0.749976 10.559 0.749987 10.0662 0.750001ZM16.7022 5.75H14.0723C14.0616 5.75023 14.0509 5.75023 14.0403 5.75H6.06899C6.058 5.75025 6.04698 5.75025 6.03595 5.75H3.29666L3.85327 14.97C3.93157 16.267 3.9879 17.1868 4.09996 17.8996C4.21012 18.6003 4.36439 19.0261 4.59431 19.3565C4.85213 19.7269 5.18428 20.0396 5.56961 20.2747C5.91325 20.4842 6.34758 20.6126 7.05365 20.6803C7.77186 20.7492 8.69337 20.75 9.99277 20.75C11.2905 20.75 12.2107 20.7492 12.928 20.6805C13.6332 20.6128 14.0671 20.4848 14.4105 20.2755C14.7956 20.0409 15.1277 19.7288 15.3856 19.3589C15.6156 19.0291 15.7702 18.6039 15.8812 17.9042C15.9941 17.1925 16.0517 16.2741 16.1317 14.9788L16.7022 5.75ZM12.8587 4.25H7.21904L7.34105 3.98234C7.56765 3.48523 7.7176 3.15798 7.85677 2.91407C7.98887 2.68253 8.08366 2.57739 8.1738 2.50823C8.22861 2.46619 8.28681 2.42876 8.3478 2.39633C8.44812 2.34298 8.5831 2.30035 8.84858 2.27618C9.12824 2.25072 9.4882 2.25 10.0345 2.25C10.5675 2.25 10.9184 2.25069 11.1914 2.27511C11.4504 2.29827 11.5828 2.33916 11.6816 2.39044C11.7417 2.42159 11.7991 2.45756 11.8533 2.49801C11.9426 2.56458 12.0371 2.66588 12.1709 2.88884C12.312 3.12382 12.4657 3.43926 12.6982 3.91888L12.8587 4.25Z" fill="#003F6A"/>
</g>
</g>
</svg>
