<svg width="24" height="24" viewBox="0 0 24 24" fill="none" xmlns="http://www.w3.org/2000/svg">
<path d="M5.02262 16.7497C5.43665 16.7372 5.76216 16.3914 5.74966 15.9774C5.73717 15.5634 5.39141 15.2379 4.97739 15.2504C4.21178 15.2735 3.46001 15.3492 2.90863 15.9014C2.52658 16.284 2.37765 16.7556 2.31159 17.2476C2.24994 17.7068 2.24997 18.2804 2.25 18.9463V19.045C2.24997 19.7109 2.24994 20.2845 2.31159 20.7438C2.37765 21.2358 2.52658 21.7074 2.90863 22.09C3.29084 22.4727 3.76218 22.6221 4.25402 22.6883C4.71284 22.7501 5.28576 22.7501 5.95058 22.75L18.0494 22.75C18.7143 22.7501 19.2872 22.7501 19.746 22.6883C20.2378 22.6221 20.7092 22.4727 21.0914 22.09C21.4734 21.7074 21.6224 21.2358 21.6884 20.7438C21.7501 20.2845 21.75 19.7109 21.75 19.045V18.9463C21.75 18.2804 21.7501 17.7069 21.6884 17.2476C21.6224 16.7556 21.4734 16.284 21.0914 15.9014C20.54 15.3492 19.7882 15.2735 19.0226 15.2504C18.6086 15.2379 18.2628 15.5634 18.2503 15.9774C18.2379 16.3914 18.5634 16.7372 18.9774 16.7497C19.7652 16.7734 19.94 16.8712 20.03 16.9613C20.0872 17.0186 20.158 17.1211 20.2018 17.4472C20.2484 17.7947 20.25 18.2664 20.25 18.9957C20.25 19.725 20.2484 20.1966 20.2018 20.5442C20.158 20.8703 20.0872 20.9727 20.03 21.0301C19.9728 21.0873 19.8709 21.158 19.5458 21.2017C19.199 21.2484 18.7283 21.25 18 21.25L6.00001 21.25C5.27167 21.25 4.80097 21.2484 4.45418 21.2017C4.12907 21.158 4.02719 21.0873 3.97006 21.0301C3.91277 20.9727 3.84203 20.8703 3.79825 20.5442C3.75159 20.1966 3.75001 19.725 3.75001 18.9957C3.75001 18.2664 3.75159 17.7947 3.79825 17.4472C3.84203 17.1211 3.91277 17.0186 3.97006 16.9613C4.05998 16.8712 4.23479 16.7734 5.02262 16.7497Z" fill="#007fb9"/>
<path fill-rule="evenodd" clip-rule="evenodd" d="M7 18.25C6.58579 18.25 6.25 18.5858 6.25 19C6.25 19.4142 6.58579 19.75 7 19.75L17 19.75C17.4142 19.75 17.75 19.4142 17.75 19C17.75 18.5858 17.4142 18.25 17 18.25H15.8259C16.0972 17.7002 16.25 17.0822 16.25 16.4286C16.25 14.1063 14.3326 12.25 12 12.25C9.66745 12.25 7.75 14.1063 7.75 16.4286C7.75 17.0822 7.90282 17.7002 8.17412 18.25H7ZM9.25 16.4286C9.25 17.1297 9.52608 17.7698 9.98368 18.25H14.0163C14.4739 17.7698 14.75 17.1297 14.75 16.4286C14.75 14.9637 13.5334 13.75 12 13.75C10.4666 13.75 9.25 14.9637 9.25 16.4286Z" fill="#007fb9"/>
<path d="M19.9998 10.75C20.414 10.75 20.7498 10.4142 20.7498 10C20.7498 9.58579 20.414 9.25001 19.9998 9.25001H17.605C17.4232 9.25001 17.2449 9.209 17.0843 9.13131L15.0423 8.14332C14.6767 7.96642 14.2748 7.87488 13.8683 7.87488H12.8257C12.3992 7.87488 12.0486 7.64676 11.8726 7.32821L13.8068 6.79344C14.0879 6.71572 14.3888 6.7432 14.6482 6.8687L16.831 7.92488C17.2039 8.10528 17.6524 7.94927 17.8328 7.57641C18.0132 7.20354 17.8572 6.75503 17.4844 6.57462L15.3015 5.51845C14.7128 5.23365 14.0376 5.17335 13.4071 5.34768L10.8662 6.05019C10.5161 6.14699 10.2498 6.46688 10.2498 6.85801C10.2498 6.88727 10.2503 6.91639 10.2513 6.94537L6.18676 8.19416L6.18393 8.19504C5.68648 8.35003 5.13759 8.17123 4.81073 7.71862C4.69472 7.55796 4.75482 7.33701 4.89616 7.25546L12.4117 2.9191C12.7128 2.74541 13.0642 2.70435 13.3913 2.80142L19.7865 4.69907C20.1835 4.81691 20.601 4.59051 20.7188 4.19341C20.8367 3.79632 20.6103 3.37888 20.2132 3.26105L13.818 1.36339C13.0936 1.14842 12.3171 1.24195 11.6621 1.61986L4.14652 5.95621C3.21335 6.49464 2.97317 7.73617 3.59467 8.5968C4.28756 9.55628 5.49812 9.97913 6.62862 9.62761L6.63013 9.62714L10.7572 8.35915C11.2306 8.97953 11.9883 9.37488 12.8257 9.37488L13.8683 9.37488C14.0501 9.37488 14.2284 9.41588 14.389 9.49357L16.431 10.4816C16.7966 10.6585 17.1985 10.75 17.605 10.75H19.9998Z" fill="#007fb9"/>
</svg>
