<svg width="24" height="24" viewBox="0 0 24 24" fill="none" xmlns="http://www.w3.org/2000/svg">
<path d="M1.25 12C1.25 6.06294 6.06294 1.25 12 1.25C16.8183 1.25 20.847 4.4182 22.2155 8.77526C22.287 9.00307 22.2458 9.25133 22.1045 9.44382C21.9633 9.6363 21.7387 9.75 21.5 9.75H19C18.5857 9.75 18.25 9.41421 18.25 9C18.25 8.58579 18.5857 8.25 19 8.25H20.4173C18.9835 5.00655 15.7697 2.75 12 2.75C6.89137 2.75 2.75 6.89137 2.75 12C2.75 17.1086 6.89133 21.25 12 21.25C12.4142 21.25 12.75 21.5858 12.75 22C12.75 22.4142 12.4142 22.75 12 22.75C6.0629 22.75 1.25 17.9371 1.25 12Z" fill="#007fb9"/>
<path d="M12 7.25C12.4142 7.25 12.75 7.58579 12.75 8V11.6893L14.5303 13.4697C14.8232 13.7626 14.8232 14.2374 14.5303 14.5303C14.2374 14.8232 13.7625 14.8232 13.4696 14.5303L11.4696 12.5303C11.329 12.3897 11.25 12.1989 11.25 12V8C11.25 7.58579 11.5857 7.25 12 7.25Z" fill="#007fb9"/>
<path d="M22.75 12C22.75 11.5858 22.4142 11.25 22 11.25C21.5857 11.25 21.25 11.5858 21.25 12C21.25 12.3147 21.2358 12.6258 21.2081 12.9325C21.1708 13.3451 21.475 13.7097 21.8876 13.747C22.3001 13.7842 22.6647 13.48 22.702 13.0675C22.7337 12.7159 22.75 12.3598 22.75 12Z" fill="#007fb9"/>
<path d="M22.0068 16.1106C22.1529 15.723 21.957 15.2904 21.5694 15.1444C21.1817 14.9984 20.7491 15.1942 20.6031 15.5819C20.4641 15.9511 20.3041 16.3092 20.1249 16.6545C19.9341 17.0222 20.0774 17.4749 20.4451 17.6657C20.8127 17.8565 21.2654 17.7131 21.4563 17.3455C21.6627 16.9477 21.8468 16.5354 22.0068 16.1106Z" fill="#007fb9"/>
<path d="M19.7184 19.8167C20.0002 19.5131 19.9826 19.0386 19.679 18.7568C19.3754 18.475 18.9008 18.4927 18.619 18.7963C18.3355 19.1017 18.0332 19.3874 17.7142 19.6514C17.3951 19.9155 17.3505 20.3883 17.6146 20.7074C17.8787 21.0265 18.3515 21.0711 18.6706 20.807C19.0406 20.5009 19.3906 20.1699 19.7184 19.8167Z" fill="#007fb9"/>
<path d="M16.3122 22.2897C16.6888 22.1172 16.8543 21.6721 16.6819 21.2955C16.5094 20.9189 16.0643 20.7534 15.6877 20.9258C15.3881 21.063 15.0804 21.184 14.7655 21.2876C14.372 21.4171 14.1581 21.841 14.2876 22.2345C14.4171 22.6279 14.841 22.8419 15.2344 22.7124C15.6028 22.5912 15.9624 22.4498 16.3122 22.2897Z" fill="#007fb9"/>
</svg>
