<svg width="24" height="24" viewBox="0 0 24 24" fill="none" xmlns="http://www.w3.org/2000/svg">
<path fill-rule="evenodd" clip-rule="evenodd" d="M8.99981 2.75C6.37645 2.75 4.24981 4.87665 4.24981 7.5C4.24981 10.1234 6.37645 12.25 8.99981 12.25C11.6232 12.25 13.7498 10.1234 13.7498 7.5C13.7498 4.87665 11.6232 2.75 8.99981 2.75ZM5.74981 7.5C5.74981 5.70507 7.20488 4.25 8.99981 4.25C10.7947 4.25 12.2498 5.70507 12.2498 7.5C12.2498 9.29493 10.7947 10.75 8.99981 10.75C7.20488 10.75 5.74981 9.29493 5.74981 7.5Z" fill="#007fb9"/>
<path fill-rule="evenodd" clip-rule="evenodd" d="M13.8728 15.4501C10.8868 13.85 7.11282 13.85 4.12686 15.4501C4.03376 15.5 3.91732 15.5591 3.78446 15.6265C3.19206 15.9271 2.27334 16.3932 1.64349 16.9481C1.2552 17.2901 0.839087 17.7785 0.76212 18.4123C0.677845 19.1061 1.0224 19.7168 1.6055 20.2168C2.60042 21.0699 3.79223 21.75 5.32553 21.75H12.6741C14.2074 21.75 15.3992 21.0699 16.3941 20.2168C16.9772 19.7168 17.3218 19.1061 17.2375 18.4123C17.1605 17.7785 16.7444 17.2901 16.3561 16.9481C15.7263 16.3932 14.8076 15.9271 14.2152 15.6265C14.0823 15.5591 13.9659 15.5 13.8728 15.4501ZM2.58188 19.0781C2.22846 18.775 2.24793 18.6191 2.25106 18.5941C2.26101 18.5121 2.33849 18.3349 2.63503 18.0736C3.10434 17.6602 3.77809 17.316 4.3705 17.0134C4.53357 16.9301 4.69059 16.8498 4.83538 16.7722C7.37877 15.4093 10.6208 15.4093 13.1642 16.7722C13.3091 16.8499 13.466 16.93 13.6291 17.0134C14.2215 17.316 14.8953 17.6602 15.3646 18.0736C15.6611 18.3349 15.7385 18.5112 15.7484 18.5931C15.7516 18.6182 15.7712 18.775 15.4177 19.0781C14.5732 19.8022 13.7164 20.25 12.6741 20.25H5.32553C4.2832 20.25 3.42638 19.8022 2.58188 19.0781Z" fill="#007fb9"/>
<path d="M15.6456 5.80443C15.8247 5.7689 16.0116 5.75 16.2044 5.75C17.6779 5.75 18.7497 6.82206 18.7497 8C18.7497 9.17794 17.6779 10.25 16.2044 10.25C16.0116 10.25 15.8247 10.2311 15.6456 10.1956C15.2393 10.115 14.8446 10.379 14.764 10.7853C14.6834 11.1916 14.9474 11.5863 15.3537 11.6669C15.6287 11.7214 15.9134 11.75 16.2044 11.75C18.3707 11.75 20.2497 10.1358 20.2497 8C20.2497 5.86423 18.3707 4.25 16.2044 4.25C15.9134 4.25 15.6287 4.27855 15.3537 4.3331C14.9474 4.41369 14.6834 4.80839 14.764 5.21469C14.8446 5.62099 15.2393 5.88503 15.6456 5.80443Z" fill="#007fb9"/>
<path d="M17.4997 14.25C17.0854 14.25 16.7497 14.5858 16.7497 15C16.7497 15.4142 17.0854 15.75 17.4997 15.75C17.8098 15.75 18.3479 15.8438 18.9789 16.0395C19.5985 16.2318 20.2457 16.5032 20.7704 16.8174C21.3232 17.1484 21.6229 17.4575 21.7186 17.6752C21.7559 17.7602 21.7536 17.8104 21.7423 17.852C21.7282 17.9039 21.6777 18.0185 21.4923 18.1839C20.7438 18.8516 20.0003 19.25 19.1059 19.25H18.6157C18.2015 19.25 17.8657 19.5858 17.8657 20C17.8657 20.4142 18.2015 20.75 18.6157 20.75H19.1059C20.5113 20.75 21.5969 20.1006 22.4908 19.3032C22.827 19.0034 23.0795 18.6521 23.19 18.2448C23.3033 17.8273 23.247 17.425 23.0918 17.0718C22.8024 16.4132 22.1627 15.9027 21.541 15.5305C20.8912 15.1414 20.1289 14.8258 19.4234 14.6069C18.7292 14.3915 18.0266 14.25 17.4997 14.25Z" fill="#007fb9"/>
</svg>
