<svg width="24" height="24" viewBox="0 0 24 24" fill="none" xmlns="http://www.w3.org/2000/svg">
<path fill-rule="evenodd" clip-rule="evenodd" d="M12 15.75C9.92893 15.75 8.25 14.0711 8.25 12C8.25 9.92893 9.92893 8.25 12 8.25C14.0711 8.25 15.75 9.92893 15.75 12C15.75 14.0711 14.0711 15.75 12 15.75ZM9.75 12C9.75 13.2426 10.7574 14.25 12 14.25C13.2426 14.25 14.25 13.2426 14.25 12C14.25 10.7574 13.2426 9.75 12 9.75C10.7574 9.75 9.75 10.7574 9.75 12Z" fill="#007fb9"/>
<path fill-rule="evenodd" clip-rule="evenodd" d="M12 4.25C9.42944 4.25 7.22595 5.38141 5.52031 6.71298C3.81313 8.04576 2.55126 9.61974 1.84541 10.6095L1.79219 10.6837C1.53904 11.0358 1.25 11.4378 1.25 12C1.25 12.5622 1.53904 12.9642 1.79219 13.3163L1.84541 13.3905C2.55126 14.3803 3.81313 15.9542 5.52031 17.287C7.22595 18.6186 9.42944 19.75 12 19.75C14.5706 19.75 16.774 18.6186 18.4797 17.287C20.1869 15.9542 21.4487 14.3803 22.1546 13.3905L22.2078 13.3163C22.461 12.9642 22.75 12.5622 22.75 12C22.75 11.4378 22.461 11.0358 22.2078 10.6837L22.1546 10.6095C21.4487 9.61974 20.1869 8.04576 18.4797 6.71298C16.774 5.38141 14.5706 4.25 12 4.25ZM3.06667 11.4805C3.72687 10.5547 4.89238 9.10618 6.44336 7.89534C7.99587 6.68331 9.88134 5.75 12 5.75C14.1187 5.75 16.0041 6.68331 17.5566 7.89534C19.1076 9.10618 20.2731 10.5547 20.9333 11.4805C21.0967 11.7095 21.1744 11.8213 21.2207 11.9103C21.2502 11.9669 21.2501 11.9824 21.25 11.9976L21.25 12L21.25 12.0024C21.2501 12.0176 21.2502 12.0331 21.2207 12.0897C21.1744 12.1787 21.0967 12.2905 20.9333 12.5195C20.2731 13.4453 19.1076 14.8938 17.5566 16.1047C16.0041 17.3167 14.1187 18.25 12 18.25C9.88134 18.25 7.99588 17.3167 6.44336 16.1047C4.89238 14.8938 3.72687 13.4453 3.06667 12.5195C2.90335 12.2905 2.82562 12.1787 2.77928 12.0897C2.74983 12.0331 2.74991 12.0176 2.74999 12.0024L2.75 12L2.74999 11.9976C2.74991 11.9824 2.74983 11.9669 2.77928 11.9103C2.82562 11.8213 2.90335 11.7095 3.06667 11.4805Z" fill="#007fb9"/>
</svg>
