<svg width="199" height="74" viewBox="0 0 199 74" fill="none" xmlns="http://www.w3.org/2000/svg">
<g clip-path="url(#clip0_2008_3)">
<path d="M193.85 73.1V42.22H187.98V73.1H193.85ZM198.43 7.82V2.11C195.29 2.21 192.21 3.11 189.46 4.81L182.42 9.18V0H176.71V9.17L169.67 4.8C166.92 3.1 163.85 2.2 160.7 2.1V7.81C162.79 7.91 164.83 8.52 166.66 9.65L175.34 15.03L166.66 20.41C164.83 21.54 162.79 22.15 160.7 22.25V27.96C163.84 27.86 166.92 26.96 169.67 25.26L176.71 20.89V27.19C176.71 30.16 175.64 33.07 173.55 35.18L173.5 35.23L166.04 42.69C162.6 46.13 160.7 50.71 160.7 55.58V73.08H166.42V61.74H176.71V73.08H182.42V20.91L189.46 25.28C192.2 26.98 195.28 27.88 198.43 27.98V22.27C196.34 22.17 194.3 21.56 192.47 20.43L183.79 15.05L192.47 9.67C194.3 8.54 196.34 7.92 198.43 7.83V7.82ZM176.7 56.05H166.41V55.61C166.41 52.27 167.71 49.13 170.07 46.76L176.7 40.13V56.05ZM186.81 35.44L190.8 39.43L194.79 35.44L190.8 31.45L186.81 35.44Z" fill="url(#paint0_radial_2008_3)"/>
<path d="M146.21 20.63H143.21V38.26H146.21V20.63Z" fill="#0C2746"/>
<path d="M86.3836 20.6284L84.2623 22.7498L86.3836 24.8711L88.505 22.7498L86.3836 20.6284Z" fill="#0C2746"/>
<path d="M125.57 58.9V47.26H118.77C116.22 47.26 113.81 48.25 112.01 50.06L108.09 53.98C108.01 54.06 107.92 54.14 107.83 54.22V47.27H104.83V55.76C104.38 55.86 103.92 55.91 103.45 55.91H98.84V47.27H91.23C88.68 47.27 86.27 48.26 84.47 50.07L81.1 53.44V41.27H78.1V55.53C77.4 55.78 76.67 55.91 75.91 55.91H72.11V47.27H69.11V55.91H63.11V41.27H60.11V58.9H75.9C78.45 58.9 80.86 57.91 82.66 56.1L82.82 55.94V58.9H103.44C105.99 58.9 108.4 57.91 110.2 56.1L110.35 55.95V58.9H125.56H125.57ZM86.59 52.18C87.83 50.94 89.48 50.26 91.23 50.26H95.84V55.9H82.87L86.59 52.18ZM114.13 52.18C115.37 50.94 117.02 50.26 118.77 50.26H122.57V55.9H110.41L114.13 52.18Z" fill="#0C2746"/>
<path d="M146.21 41.27H143.21V58.9H146.21V41.27Z" fill="#0C2746"/>
<path d="M70.6102 41.2713L68.4889 43.3926L70.6102 45.5139L72.7315 43.3926L70.6102 41.2713Z" fill="#0C2746"/>
<path d="M25.4454 54.6624L23.3241 56.7837L25.4454 58.905L27.5667 56.7837L25.4454 54.6624Z" fill="#0C2746"/>
<path d="M29.6935 54.6642L27.5721 56.7855L29.6935 58.9068L31.8148 56.7855L29.6935 54.6642Z" fill="#0C2746"/>
<path d="M30.02 52.18L33.94 56.1C35.75 57.91 38.15 58.9 40.7 58.9H57.12V55.9H41.15L44.87 52.18C46.11 50.94 47.76 50.26 49.51 50.26H57.12V47.26H49.51C46.96 47.26 44.55 48.25 42.75 50.06L38.83 53.98C38.41 54.4 37.95 54.75 37.45 55.04C36.95 54.75 36.48 54.4 36.06 53.98L32.14 50.06C30.33 48.25 27.93 47.26 25.38 47.26H18.58V55.9H4.59L5.32 55.17C6.55 53.94 8.22 53.25 9.96 53.25H15.58V50.25H9.96C7.42 50.25 4.99 51.26 3.2 53.05L0 56.25V58.9H1.59L1.69 58.8V58.9H21.57V50.26H25.37C27.12 50.26 28.77 50.94 30.01 52.18H30.02Z" fill="#0C2746"/>
<path d="M140.19 58.9C140.05 56.57 139.08 54.39 137.41 52.72L136.51 51.82L137.41 50.92C139.22 49.11 140.21 46.71 140.21 44.16V41.26H137.21V44.16C137.21 45.91 136.53 47.56 135.29 48.8L134.39 49.7L133.49 48.8C132.25 47.56 131.57 45.91 131.57 44.16V41.26H128.57V44.16C128.57 46.71 129.56 49.12 131.37 50.92L132.27 51.82L131.37 52.72C129.7 54.39 128.73 56.56 128.59 58.9H140.19ZM132.65 55.9C132.9 55.52 133.17 55.17 133.49 54.84L134.39 53.94L135.29 54.84C135.61 55.16 135.89 55.52 136.13 55.9H132.65Z" fill="#0C2746"/>
<path d="M23.18 14.83L23.35 14.66V17.63H38.54V6H31.74C29.19 6 26.78 6.99 24.98 8.8L21.06 12.72C19.82 13.96 18.17 14.64 16.42 14.64H0V17.64H16.42C18.97 17.64 21.38 16.65 23.18 14.84V14.83ZM27.1 10.92C28.34 9.68 29.99 9 31.74 9H35.54V14.64H23.38L27.1 10.92Z" fill="#0C2746"/>
<path d="M138.6 8.99H146.21V5.99H138.6C136.05 5.99 133.64 6.98 131.84 8.79L127.92 12.71C127.73 12.9 127.54 13.06 127.34 13.22C127.28 13.27 127.22 13.31 127.15 13.36C127 13.47 126.84 13.58 126.68 13.67C126.61 13.71 126.55 13.75 126.48 13.79C126.27 13.91 126.06 14.01 125.84 14.11C125.82 14.11 125.81 14.13 125.79 14.13C125.56 14.23 125.31 14.31 125.07 14.38C124.49 14.54 123.89 14.63 123.27 14.63H44.54V0H41.54V17.63H146.21V14.63H130.24L133.96 10.91C135.2 9.67 136.85 8.99 138.6 8.99Z" fill="#0C2746"/>
<path d="M84.27 38.27H140.22V20.64H137.22V35.28H107.2C106.58 35.28 105.98 35.19 105.4 35.03C105.16 34.96 104.91 34.88 104.68 34.78C104.66 34.78 104.65 34.76 104.63 34.76C104.41 34.67 104.2 34.56 103.99 34.44C103.92 34.4 103.86 34.36 103.79 34.32C103.63 34.22 103.47 34.12 103.32 34.01C103.26 33.96 103.2 33.92 103.13 33.87C102.93 33.71 102.73 33.54 102.55 33.36L98.63 29.44C96.82 27.63 94.42 26.64 91.87 26.64H84.26V29.64H91.87C93.62 29.64 95.27 30.32 96.51 31.56L100.23 35.28H84.26V38.28L84.27 38.27Z" fill="#0C2746"/>
<path d="M19.23 35.27H10.62L14.34 31.55C15.58 30.31 17.23 29.63 18.98 29.63H19.23V26.63H18.98C16.43 26.63 14.02 27.62 12.22 29.43L8.29999 33.35C7.47999 34.17 6.16999 35.27 5.00999 35.27H-0.0100098V38.27H19.22V35.27H19.23Z" fill="#0C2746"/>
<path d="M75.94 34.54L76.67 35.27H25.23V20.63H22.23V38.26H79.66H81.25V35.61L78.05 32.41C76.26 30.62 73.82 29.61 71.29 29.61H42.91L43.98 28.54C45.22 27.3 46.87 26.62 48.62 26.62H78.09V23.62H48.62C46.07 23.62 43.66 24.61 41.86 26.42L38.67 29.61V32.61H71.29C73.03 32.61 74.7 33.3 75.93 34.53L75.94 34.54Z" fill="#0C2746"/>
<path d="M3.71 68.85H2.37V73.02H1.34V68.85H0V67.97H3.71V68.85Z" fill="#0A2745"/>
<path d="M7.43002 73.02V70.89H5.43002V73.02H4.40002V67.97H5.43002V70.01H7.43002V67.97H8.46002V73.02H7.43002Z" fill="#0A2745"/>
<path d="M12.65 72.14V73.02H9.51001V67.97H12.65V68.85H10.54V70.02H12.34V70.9H10.54V72.14H12.65Z" fill="#0A2745"/>
<path d="M16.82 73.02H15.79V71C14.97 69.82 14.41 68.81 14.12 67.97H15.18C15.45 68.69 15.83 69.42 16.31 70.16C16.78 69.45 17.15 68.72 17.43 67.97H18.49C18.17 68.84 17.61 69.85 16.82 71V73.02Z" fill="#0A2745"/>
<path d="M22.1901 72.14V73.02H19.05V67.97H22.1901V68.85H20.08V70.02H21.88V70.9H20.08V72.14H22.1901Z" fill="#0A2745"/>
<path d="M26.15 73.02L25.85 71.91H23.99C23.89 72.25 23.79 72.62 23.69 73.02H22.63C23.21 70.91 23.79 69.23 24.38 67.97H25.45C26.06 69.26 26.65 70.95 27.21 73.02H26.15ZM24.91 69.07C24.74 69.44 24.51 70.1 24.23 71.03H25.58C25.29 70.06 25.07 69.41 24.91 69.07Z" fill="#0A2745"/>
<path d="M29.18 71.14H28.87V73.01H27.83V67.96H29.32C29.94 67.96 30.43 68.09 30.78 68.35C31.13 68.61 31.31 68.98 31.31 69.46C31.31 70.19 30.98 70.64 30.31 70.81C30.53 70.9 30.73 71.12 30.91 71.48L31.65 73.01H30.54L29.85 71.58C29.77 71.42 29.68 71.31 29.58 71.24C29.48 71.17 29.35 71.14 29.19 71.14H29.18ZM29.27 68.85H28.87V70.28H29.27C29.92 70.28 30.25 70.04 30.25 69.56C30.25 69.3 30.17 69.12 30 69.01C29.84 68.9 29.59 68.85 29.26 68.85H29.27Z" fill="#0A2745"/>
<path d="M37.7701 68.6C38.1701 69.08 38.3801 69.71 38.3801 70.49C38.3801 71.27 38.1801 71.9 37.7701 72.38C37.3701 72.86 36.8101 73.1 36.1001 73.1C35.3901 73.1 34.8301 72.86 34.4201 72.38C34.0101 71.9 33.8101 71.27 33.8101 70.49C33.8101 69.71 34.0101 69.08 34.4201 68.6C34.8201 68.12 35.3801 67.88 36.1001 67.88C36.8201 67.88 37.3701 68.12 37.7701 68.6ZM35.1801 69.25C34.9701 69.55 34.8701 69.97 34.8701 70.5C34.8701 71.03 34.9701 71.44 35.1801 71.75C35.3901 72.05 35.6901 72.2 36.0901 72.2C36.4901 72.2 36.7801 72.05 36.9901 71.75C37.2001 71.45 37.3001 71.03 37.3001 70.5C37.3001 69.97 37.2001 69.56 36.9901 69.25C36.7801 68.95 36.4801 68.8 36.0901 68.8C35.7001 68.8 35.3901 68.95 35.1801 69.25Z" fill="#0A2745"/>
<path d="M40.2299 73.02H39.2V67.97H42.27V68.85H40.2299V70.22H41.95V71.1H40.2299V73.02Z" fill="#0A2745"/>
<path d="M47.86 73.02L47.56 71.91H45.7C45.6 72.25 45.5 72.62 45.4 73.02H44.34C44.92 70.91 45.5 69.23 46.09 67.97H47.16C47.77 69.26 48.36 70.95 48.92 73.02H47.86ZM46.63 69.07C46.46 69.44 46.23 70.1 45.95 71.03H47.3C47.01 70.06 46.79 69.41 46.63 69.07Z" fill="#0A2745"/>
<path d="M50.9001 71.14H50.59V73.01H49.55V67.96H51.0401C51.6601 67.96 52.15 68.09 52.5 68.35C52.85 68.61 53.03 68.98 53.03 69.46C53.03 70.19 52.7 70.64 52.03 70.81C52.25 70.9 52.4501 71.12 52.6301 71.48L53.37 73.01H52.26L51.57 71.58C51.49 71.42 51.4 71.31 51.3 71.24C51.2 71.17 51.07 71.14 50.91 71.14H50.9001ZM50.98 68.85H50.5801V70.28H50.98C51.63 70.28 51.96 70.04 51.96 69.56C51.96 69.3 51.88 69.12 51.71 69.01C51.55 68.9 51.3001 68.85 50.9701 68.85H50.98Z" fill="#0A2745"/>
<path d="M56.97 68.85H55.63V73.02H54.6V68.85H53.26V67.97H56.97V68.85Z" fill="#0A2745"/>
<path d="M57.65 73.02V67.97H58.68V73.02H57.65Z" fill="#0A2745"/>
<path d="M60.75 73.02H59.72V67.97H62.79V68.85H60.75V70.22H62.47V71.1H60.75V73.02Z" fill="#0A2745"/>
<path d="M63.59 73.02V67.97H64.62V73.02H63.59Z" fill="#0A2745"/>
<path d="M67.82 73.1C67.07 73.1 66.48 72.87 66.07 72.4C65.66 71.94 65.45 71.31 65.45 70.52C65.45 69.73 65.66 69.08 66.07 68.59C66.49 68.11 67.08 67.87 67.86 67.87C68.27 67.87 68.67 67.96 69.08 68.13L68.85 69C68.42 68.85 68.1 68.78 67.87 68.78C66.97 68.78 66.51 69.36 66.51 70.51C66.51 71.66 66.96 72.18 67.86 72.18C68.2 72.18 68.55 72.09 68.92 71.9L69.12 72.79C68.74 72.99 68.31 73.09 67.81 73.09L67.82 73.1Z" fill="#0A2745"/>
<path d="M69.88 73.02V67.97H70.91V73.02H69.88Z" fill="#0A2745"/>
<path d="M75.06 73.02L74.76 71.91H72.9C72.8 72.25 72.7 72.62 72.6 73.02H71.54C72.12 70.91 72.7 69.23 73.29 67.97H74.36C74.97 69.26 75.56 70.95 76.12 73.02H75.06ZM73.83 69.07C73.66 69.44 73.43 70.1 73.15 71.03H74.5C74.21 70.06 73.99 69.41 73.83 69.07Z" fill="#0A2745"/>
<path d="M76.75 73.02V67.97H77.78V72.14H79.82V73.02H76.75Z" fill="#0A2745"/>
<path d="M82.27 73.02V67.97H83.3V73.02H82.27Z" fill="#0A2745"/>
<path d="M85.29 73.02H84.34V67.97H85.34C85.96 69.16 86.69 70.36 87.54 71.58C87.52 71.41 87.51 71.2 87.51 70.95V67.97H88.46V73.02H87.46C86.98 72.38 86.58 71.81 86.25 71.33C85.92 70.84 85.6 70.3 85.27 69.71C85.29 69.96 85.3 70.25 85.3 70.57V73.03L85.29 73.02Z" fill="#0A2745"/>
<path d="M92.84 68.85H91.5V73.02H90.47V68.85H89.13V67.97H92.84V68.85Z" fill="#0A2745"/>
<path d="M96.67 72.14V73.02H93.53V67.97H96.67V68.85H94.56V70.02H96.36V70.9H94.56V72.14H96.67Z" fill="#0A2745"/>
<path d="M97.52 73.02V67.97H98.55V72.14H100.59V73.02H97.52Z" fill="#0A2745"/>
<path d="M101.18 73.02V67.97H102.21V72.14H104.25V73.02H101.18Z" fill="#0A2745"/>
<path d="M105.02 73.02V67.97H106.05V73.02H105.02Z" fill="#0A2745"/>
<path d="M110.96 72.71C110.45 72.97 109.91 73.11 109.37 73.11C108.59 73.11 107.98 72.88 107.54 72.41C107.1 71.95 106.88 71.33 106.88 70.55C106.88 69.77 107.11 69.11 107.56 68.62C108.01 68.13 108.63 67.88 109.41 67.88C109.92 67.88 110.38 67.97 110.78 68.14L110.55 69.01C110.2 68.87 109.82 68.79 109.43 68.79C108.94 68.79 108.58 68.95 108.33 69.26C108.08 69.57 107.95 70 107.95 70.55C107.95 71.07 108.08 71.47 108.33 71.76C108.58 72.05 108.94 72.19 109.42 72.19C109.62 72.19 109.83 72.17 110.03 72.12V71H109.2V70.15H110.97V72.7L110.96 72.71Z" fill="#0A2745"/>
<path d="M115.01 72.14V73.02H111.87V67.97H115.01V68.85H112.9V70.02H114.7V70.9H112.9V72.14H115.01Z" fill="#0A2745"/>
<path d="M116.81 73.02H115.86V67.97H116.86C117.48 69.16 118.21 70.36 119.06 71.58C119.04 71.41 119.03 71.2 119.03 70.95V67.97H119.98V73.02H118.98C118.5 72.38 118.1 71.81 117.77 71.33C117.44 70.84 117.12 70.3 116.79 69.71C116.81 69.96 116.82 70.25 116.82 70.57V73.03L116.81 73.02Z" fill="#0A2745"/>
<path d="M123.17 73.1C122.42 73.1 121.83 72.87 121.42 72.4C121.01 71.94 120.8 71.31 120.8 70.52C120.8 69.73 121.01 69.08 121.42 68.59C121.84 68.11 122.43 67.87 123.21 67.87C123.62 67.87 124.02 67.96 124.43 68.13L124.2 69C123.77 68.85 123.45 68.78 123.22 68.78C122.32 68.78 121.86 69.36 121.86 70.51C121.86 71.66 122.31 72.18 123.21 72.18C123.55 72.18 123.9 72.09 124.27 71.9L124.47 72.79C124.09 72.99 123.66 73.09 123.16 73.09L123.17 73.1Z" fill="#0A2745"/>
<path d="M128.37 72.14V73.02H125.23V67.97H128.37V68.85H126.26V70.02H128.06V70.9H126.26V72.14H128.37Z" fill="#0A2745"/>
<path d="M133.9 73.02H130.63V72.18L131.39 71.46C131.84 71.04 132.16 70.69 132.35 70.43C132.54 70.17 132.63 69.9 132.63 69.62C132.63 69.18 132.41 68.96 131.96 68.96C131.67 68.96 131.35 69.08 131.02 69.32L130.58 68.61C131 68.27 131.5 68.1 132.09 68.1C132.59 68.1 132.98 68.23 133.26 68.48C133.54 68.73 133.67 69.08 133.67 69.53C133.67 69.98 133.53 70.38 133.24 70.79C132.95 71.2 132.55 71.62 132.05 72.07L131.94 72.17H133.92V73.03L133.9 73.02Z" fill="#0A2745"/>
<path d="M136.41 73.0999C136.07 73.0999 135.78 73.0299 135.53 72.8999C135.28 72.7699 135.08 72.5899 134.94 72.3499C134.79 72.1199 134.68 71.8499 134.61 71.5599C134.54 71.2699 134.5 70.9499 134.5 70.5999C134.5 70.2499 134.54 69.9299 134.61 69.6299C134.68 69.3399 134.79 69.0699 134.94 68.8299C135.09 68.5899 135.29 68.4099 135.53 68.2699C135.78 68.1399 136.07 68.0699 136.41 68.0699C136.85 68.0699 137.22 68.1899 137.51 68.4199C137.8 68.6599 138.01 68.9499 138.12 69.3199C138.24 69.6799 138.3 70.0999 138.3 70.5899C138.3 70.9499 138.27 71.2699 138.2 71.5599C138.13 71.8499 138.02 72.1099 137.88 72.3499C137.74 72.5899 137.54 72.7599 137.29 72.8899C137.04 73.0199 136.75 73.0799 136.42 73.0799L136.41 73.0999ZM136.41 72.2399C136.98 72.2399 137.26 71.6999 137.26 70.6099C137.26 69.5199 136.98 68.9599 136.41 68.9599C135.84 68.9599 135.54 69.5099 135.54 70.6099C135.54 71.7099 135.83 72.2399 136.41 72.2399Z" fill="#0A2745"/>
<path d="M142 73.02H138.73V72.18L139.49 71.46C139.94 71.04 140.26 70.69 140.45 70.43C140.64 70.17 140.73 69.9 140.73 69.62C140.73 69.18 140.51 68.96 140.06 68.96C139.77 68.96 139.45 69.08 139.12 69.32L138.68 68.61C139.1 68.27 139.6 68.1 140.19 68.1C140.69 68.1 141.08 68.23 141.36 68.48C141.64 68.73 141.77 69.08 141.77 69.53C141.77 69.98 141.63 70.38 141.34 70.79C141.05 71.2 140.65 71.62 140.15 72.07L140.04 72.17H142.02V73.03L142 73.02Z" fill="#0A2745"/>
<path d="M146.21 71.39C146.21 71.92 146.06 72.34 145.75 72.64C145.44 72.95 145.03 73.1 144.49 73.1C143.9 73.1 143.44 72.89 143.11 72.46C142.77 72.03 142.61 71.49 142.61 70.84C142.61 70.47 142.65 70.12 142.74 69.79C142.83 69.47 142.96 69.17 143.13 68.92C143.3 68.66 143.53 68.46 143.83 68.31C144.12 68.16 144.45 68.09 144.83 68.09C145.21 68.09 145.49 68.13 145.74 68.21L145.55 69.02C145.32 68.97 145.11 68.94 144.92 68.94C144.21 68.94 143.79 69.36 143.67 70.19C143.99 69.99 144.35 69.89 144.74 69.89C145.2 69.89 145.56 70.03 145.82 70.3C146.08 70.58 146.22 70.94 146.22 71.38L146.21 71.39ZM144.5 72.24C144.72 72.24 144.89 72.17 145.01 72.03C145.13 71.89 145.19 71.7 145.19 71.47C145.19 71 144.93 70.77 144.42 70.77C144.18 70.77 143.92 70.84 143.62 70.99C143.64 71.38 143.72 71.69 143.87 71.91C144.02 72.13 144.23 72.25 144.5 72.25V72.24Z" fill="#0A2745"/>
</g>
<defs>
<radialGradient id="paint0_radial_2008_3" cx="0" cy="0" r="1" gradientUnits="userSpaceOnUse" gradientTransform="translate(161.841 74.9958) scale(83.8245 83.8245)">
<stop stop-color="#272660"/>
<stop offset="0.2" stop-color="#225978"/>
<stop offset="0.3" stop-color="#236C76"/>
<stop offset="0.49" stop-color="#258B75"/>
<stop offset="0.67" stop-color="#27A173"/>
<stop offset="0.84" stop-color="#28AE73"/>
<stop offset="1" stop-color="#29B373"/>
</radialGradient>
<clipPath id="clip0_2008_3">
<rect width="198.43" height="73.1" fill="white"/>
</clipPath>
</defs>
</svg>
