<svg width="48" height="48" viewBox="0 0 48 48" fill="none" xmlns="http://www.w3.org/2000/svg">
<path d="M0 24C0 10.7452 10.7452 0 24 0C37.2548 0 48 10.7452 48 24C48 37.2548 37.2548 48 24 48C10.7452 48 0 37.2548 0 24Z" fill="#F3FCF6"/>
<path fill-rule="evenodd" clip-rule="evenodd" d="M18.75 24C18.75 21.1005 21.1005 18.75 24 18.75C26.8995 18.75 29.25 21.1005 29.25 24C29.25 26.8995 26.8995 29.25 24 29.25C21.1005 29.25 18.75 26.8995 18.75 24ZM24 20.25C21.9289 20.25 20.25 21.9289 20.25 24C20.25 26.0711 21.9289 27.75 24 27.75C26.0711 27.75 27.75 26.0711 27.75 24C27.75 21.9289 26.0711 20.25 24 20.25Z" fill="#067647"/>
<path d="M29.5078 19.5C30.0601 19.5 30.5078 19.0523 30.5078 18.5C30.5078 17.9477 30.0601 17.5 29.5078 17.5H29.4988C28.9465 17.5 28.4988 17.9477 28.4988 18.5C28.4988 19.0523 28.9465 19.5 29.4988 19.5H29.5078Z" fill="#067647"/>
<path fill-rule="evenodd" clip-rule="evenodd" d="M24.0572 13.75C26.2479 13.75 27.9686 13.75 29.312 13.9306C30.6886 14.1157 31.7809 14.5027 32.6391 15.3609C33.4973 16.2191 33.8843 17.3114 34.0694 18.688C34.25 20.0314 34.25 21.7521 34.25 23.9428V24.0572C34.25 26.2479 34.25 27.9686 34.0694 29.312C33.8843 30.6886 33.4973 31.7809 32.6391 32.6391C31.7809 33.4973 30.6886 33.8843 29.312 34.0694C27.9686 34.25 26.2479 34.25 24.0572 34.25H23.9428C21.7521 34.25 20.0314 34.25 18.688 34.0694C17.3114 33.8843 16.2191 33.4973 15.3609 32.6391C14.5027 31.7809 14.1157 30.6886 13.9306 29.312C13.75 27.9686 13.75 26.2479 13.75 24.0572V23.9428C13.75 21.7521 13.75 20.0314 13.9306 18.688C14.1157 17.3114 14.5027 16.2191 15.3609 15.3609C16.2191 14.5027 17.3114 14.1157 18.688 13.9306C20.0314 13.75 21.7521 13.75 23.9428 13.75H24.0572ZM18.8879 15.4172C17.6776 15.5799 16.9546 15.8885 16.4216 16.4216C15.8885 16.9546 15.5799 17.6776 15.4172 18.8879C15.2516 20.1198 15.25 21.7396 15.25 24C15.25 26.2604 15.2516 27.8802 15.4172 29.1121C15.5799 30.3224 15.8885 31.0454 16.4216 31.5784C16.9546 32.1115 17.6776 32.4201 18.8879 32.5828C20.1198 32.7484 21.7396 32.75 24 32.75C26.2604 32.75 27.8802 32.7484 29.1121 32.5828C30.3224 32.4201 31.0454 32.1115 31.5784 31.5784C32.1115 31.0454 32.4201 30.3224 32.5828 29.1121C32.7484 27.8802 32.75 26.2604 32.75 24C32.75 21.7396 32.7484 20.1198 32.5828 18.8879C32.4201 17.6776 32.1115 16.9546 31.5784 16.4216C31.0454 15.8885 30.3224 15.5799 29.1121 15.4172C27.8802 15.2516 26.2604 15.25 24 15.25C21.7396 15.25 20.1198 15.2516 18.8879 15.4172Z" fill="#067647"/>
</svg>
