<svg width="49" height="48" viewBox="0 0 49 48" fill="none" xmlns="http://www.w3.org/2000/svg">
<path d="M0.333008 24C0.333008 10.7452 11.0782 0 24.333 0C37.5878 0 48.333 10.7452 48.333 24C48.333 37.2548 37.5878 48 24.333 48C11.0782 48 0.333008 37.2548 0.333008 24Z" fill="#F3FCF6"/>
<path fill-rule="evenodd" clip-rule="evenodd" d="M18.1587 19.4244C18.1587 16.0144 20.9231 13.25 24.3331 13.25C27.7432 13.25 30.5076 16.0144 30.5076 19.4244C30.5076 21.1381 30.5428 22.4544 30.7558 23.5255C31.0821 22.5083 31.8462 21.4992 32.8394 20.4773C33.1282 20.1802 33.603 20.1735 33.9 20.4622C34.197 20.7509 34.2038 21.2257 33.9151 21.5227C32.4874 22.9916 32.0118 23.9956 32.0918 24.7458C32.1685 25.4655 32.8062 26.3141 34.6919 27.3414C35.0114 27.5154 35.1538 27.8879 35.0496 28.2224C35.0776 28.3126 35.0888 28.4091 35.0805 28.5072C35.0537 28.827 34.8264 29.0942 34.515 29.1721C33.4183 29.4462 32.9022 29.6861 32.5718 30.0164C32.2414 30.3468 32.0016 30.863 31.7274 31.9597C31.644 32.2936 31.344 32.5278 30.9998 32.5278C29.2344 32.5278 28.2589 33.0204 27.4346 33.5276C27.3255 33.5948 27.2146 33.6659 27.101 33.7388C26.3687 34.2086 25.5248 34.75 24.3331 34.75C23.1415 34.75 22.2977 34.2087 21.5654 33.7389C21.4519 33.666 21.3408 33.5948 21.2317 33.5276C20.4074 33.0204 19.4319 32.5278 17.6665 32.5278C17.3223 32.5278 17.0223 32.2936 16.9389 31.9597C16.6647 30.863 16.4249 30.3468 16.0945 30.0164C15.7641 29.6861 15.2479 29.4462 14.1512 29.1721C13.8399 29.0942 13.6126 28.827 13.5858 28.5072C13.5775 28.4091 13.5887 28.3126 13.6167 28.2224C13.5125 27.8879 13.6549 27.5154 13.9744 27.3414C15.8601 26.3141 16.4978 25.4655 16.5745 24.7458C16.6545 23.9956 16.1789 22.9916 14.7512 21.5227C14.4625 21.2257 14.4693 20.7509 14.7663 20.4622C15.0633 20.1735 15.5381 20.1802 15.8268 20.4773C16.8201 21.4992 17.5842 22.5083 17.9105 23.5255C18.1235 22.4544 18.1587 21.1381 18.1587 19.4244ZM24.3331 14.75C21.7515 14.75 19.6587 16.8428 19.6587 19.4244C19.6587 21.768 19.6097 23.7064 18.9389 25.2946C18.4219 26.5187 17.564 27.4826 16.235 28.3042C16.5825 28.4791 16.8887 28.6894 17.1551 28.9558C17.6879 29.4885 17.996 30.1804 18.2462 31.0439C20.0235 31.1447 21.1295 31.7034 22.0179 32.2501C22.1592 32.3371 22.2901 32.4196 22.413 32.4971C23.1539 32.964 23.6078 33.25 24.3331 33.25C25.0585 33.25 25.5122 32.9641 26.2531 32.4972C26.3761 32.4197 26.5071 32.3371 26.6484 32.2501C27.5368 31.7034 28.6428 31.1447 30.4201 31.0439C30.6703 30.1804 30.9784 29.4885 31.5111 28.9558C31.7776 28.6894 32.0838 28.4791 32.4313 28.3042C31.1023 27.4826 30.2444 26.5187 29.7274 25.2946C29.0566 23.7064 29.0076 21.768 29.0076 19.4244C29.0076 16.8428 26.9148 14.75 24.3331 14.75Z" fill="#067647"/>
</svg>
