<svg width="49" height="48" viewBox="0 0 49 48" fill="none" xmlns="http://www.w3.org/2000/svg">
<path d="M0.666992 24C0.666992 10.7452 11.4122 0 24.667 0C37.9218 0 48.667 10.7452 48.667 24C48.667 37.2548 37.9218 48 24.667 48C11.4122 48 0.666992 37.2548 0.666992 24Z" fill="#F3FCF6"/>
<path fill-rule="evenodd" clip-rule="evenodd" d="M21.6403 18.2502L21.5477 18.2501C21.068 18.2493 20.6255 18.2485 20.1903 18.4473C19.8742 18.5917 19.6052 18.8371 19.4093 19.0821C19.2134 19.3272 19.0333 19.6436 18.9621 19.9838C18.8644 20.4502 18.945 20.805 19.0311 21.1846L19.043 21.2371C19.4775 23.1614 20.4933 25.0482 22.0561 26.6111C23.619 28.1739 25.5058 29.1897 27.4301 29.6242L27.4826 29.6361C27.8622 29.7222 28.217 29.8028 28.6834 29.7051C29.0236 29.6339 29.34 29.4538 29.5851 29.2579C29.8301 29.062 30.0755 28.793 30.2199 28.4769C30.4187 28.0417 30.4179 27.5992 30.4171 27.1195L30.417 27.0269C30.417 26.8065 30.4102 26.4354 30.2673 26.0924C30.0965 25.6826 29.7447 25.3449 29.1933 25.2585L29.1875 25.2576C28.5042 25.1505 27.9845 25.069 27.6171 25.0156C27.4332 24.9889 27.2805 24.9681 27.1611 24.9546C27.0629 24.9434 26.9279 24.9294 26.8149 24.936C26.3254 24.9647 25.936 25.1633 25.6344 25.3699C25.4425 25.5015 25.2339 25.6776 25.0699 25.8161C25.0055 25.8705 24.948 25.9191 24.901 25.9569L24.2191 26.506C23.8369 26.2201 23.468 25.9016 23.1168 25.5504C22.7657 25.1992 22.4471 24.8303 22.1612 24.4481L22.7103 23.7662C22.7481 23.7192 22.7967 23.6617 22.8511 23.5973C22.9896 23.4333 23.1658 23.2247 23.2973 23.0328C23.5039 22.7312 23.7025 22.3418 23.7312 21.8523C23.7378 21.7393 23.7238 21.6043 23.7126 21.5061C23.6991 21.3867 23.6783 21.2341 23.6516 21.0501C23.5982 20.6827 23.5168 20.1632 23.4096 19.4797L23.4088 19.4739C23.3223 18.9225 22.9846 18.5707 22.5748 18.4C22.2318 18.257 21.8607 18.2502 21.6403 18.2502ZM27.7605 28.161C27.0181 27.9934 26.2771 27.723 25.5617 27.3508L25.8417 27.1253C25.9514 27.0369 26.0398 26.9619 26.1187 26.8948C26.2478 26.7851 26.3516 26.6969 26.4823 26.6073C26.6503 26.4922 26.7729 26.4449 26.8857 26.4347C26.887 26.4348 26.8888 26.435 26.8913 26.4352C26.9045 26.4362 26.9357 26.4386 26.9918 26.445C27.0876 26.4559 27.2218 26.4739 27.4013 26.5C27.7486 26.5505 28.2397 26.6273 28.8985 26.7306C28.9011 26.7449 28.9037 26.7618 28.9061 26.7817C28.914 26.8489 28.917 26.9287 28.917 27.0269C28.917 27.6516 28.9026 27.7505 28.8555 27.8536C28.8365 27.8953 28.7703 27.9889 28.6485 28.0863C28.5266 28.1837 28.4208 28.2276 28.376 28.237C28.2545 28.2624 28.2004 28.2604 27.7605 28.161ZM21.5419 22.8255L21.3164 23.1055C20.9442 22.3901 20.6738 21.6491 20.5062 20.9067C20.4068 20.4668 20.4048 20.4127 20.4303 20.2912C20.4396 20.2464 20.4835 20.1406 20.5809 20.0187C20.6783 19.8969 20.7719 19.8307 20.8136 19.8117C20.9167 19.7646 21.0156 19.7502 21.6403 19.7502C21.7385 19.7502 21.8183 19.7532 21.8855 19.7611C21.9054 19.7635 21.9223 19.7661 21.9366 19.7687C22.0399 20.4275 22.1167 20.9186 22.1672 21.2659C22.1933 21.4454 22.2113 21.5796 22.2222 21.6754C22.2286 21.7315 22.231 21.7626 22.232 21.7759C22.2322 21.7784 22.2324 21.7802 22.2325 21.7815C22.2223 21.8943 22.175 22.0169 22.0599 22.1849C21.9703 22.3156 21.8821 22.4194 21.7724 22.5485C21.7053 22.6274 21.6303 22.7158 21.5419 22.8255Z" fill="#1B8354"/>
<path fill-rule="evenodd" clip-rule="evenodd" d="M24.667 13.25C18.7299 13.25 13.917 18.0629 13.917 24C13.917 25.4809 14.2169 26.8937 14.7599 28.1795C14.9024 28.5168 14.9984 28.7447 15.0626 28.9198C15.128 29.0985 15.1372 29.1631 15.1383 29.1798C15.1448 29.2737 15.1211 29.4013 14.9589 30.0074L13.9425 33.8061C13.8733 34.0649 13.9473 34.3409 14.1367 34.5303C14.3261 34.7197 14.6021 34.7937 14.8609 34.7245L18.6596 33.7081C19.2657 33.5459 19.3933 33.5222 19.4873 33.5287C19.5039 33.5298 19.5685 33.539 19.7472 33.6045C19.9223 33.6686 20.1503 33.7646 20.4876 33.9071C21.7733 34.4501 23.1861 34.75 24.667 34.75C30.6041 34.75 35.417 29.9371 35.417 24C35.417 18.0629 30.6041 13.25 24.667 13.25ZM15.417 24C15.417 18.8914 19.5584 14.75 24.667 14.75C29.7756 14.75 33.917 18.8914 33.917 24C33.917 29.1086 29.7756 33.25 24.667 33.25C23.3902 33.25 22.1756 32.9917 21.0712 32.5253L21.0538 32.5179C20.7384 32.3847 20.4766 32.2742 20.263 32.1959C20.049 32.1176 19.8237 32.0484 19.5908 32.0323C19.2126 32.0061 18.8203 32.1116 18.3696 32.2328L15.727 32.94L16.4341 30.2975C16.5554 29.8467 16.6609 29.4544 16.6347 29.0762C16.6186 28.8433 16.5494 28.618 16.4711 28.404C16.3929 28.1904 16.2823 27.9287 16.1491 27.6134L16.1417 27.5959C15.6753 26.4914 15.417 25.2768 15.417 24Z" fill="#1B8354"/>
</svg>
