<svg width="1355" height="252" viewBox="0 0 1355 252" fill="none" xmlns="http://www.w3.org/2000/svg">
<g clip-path="url(#clip0_823_77)">
<path d="M0 49H1355V204H0V49Z" fill="#042A39"/>
<path d="M282.825 111.24C279.849 111.24 277.545 110.936 275.913 110.328C274.313 109.72 273.193 108.776 272.553 107.496C271.913 106.184 271.545 104.536 271.449 102.552L270.441 75.864H277.161L278.169 99.336C278.233 100.808 278.393 101.912 278.649 102.648C278.905 103.384 279.385 103.88 280.089 104.136C280.825 104.392 281.897 104.52 283.305 104.52C284.521 104.52 285.385 104.84 285.897 105.48C286.441 106.088 286.713 106.856 286.713 107.784C286.713 108.776 286.377 109.608 285.705 110.28C285.033 110.92 284.073 111.24 282.825 111.24ZM282.891 111.24L283.371 104.52H297.195C298.411 104.52 299.275 104.84 299.787 105.48C300.331 106.088 300.603 106.856 300.603 107.784C300.603 108.776 300.267 109.608 299.595 110.28C298.923 110.92 297.963 111.24 296.715 111.24H282.891ZM296.766 111.24L297.246 104.52H311.07C312.286 104.52 313.15 104.84 313.662 105.48C314.206 106.088 314.478 106.856 314.478 107.784C314.478 108.776 314.142 109.608 313.47 110.28C312.798 110.92 311.838 111.24 310.59 111.24H296.766ZM310.641 111.24L311.121 104.52H324.945C326.161 104.52 327.025 104.84 327.537 105.48C328.081 106.088 328.353 106.856 328.353 107.784C328.353 108.776 328.017 109.608 327.345 110.28C326.673 110.92 325.713 111.24 324.465 111.24H310.641ZM324.516 111.24L324.996 104.52H338.82C340.036 104.52 340.9 104.84 341.412 105.48C341.956 106.088 342.228 106.856 342.228 107.784C342.228 108.776 341.892 109.608 341.22 110.28C340.548 110.92 339.588 111.24 338.34 111.24H324.516ZM338.391 111.24L338.871 104.52H352.695C353.911 104.52 354.775 104.84 355.287 105.48C355.831 106.088 356.103 106.856 356.103 107.784C356.103 108.776 355.767 109.608 355.095 110.28C354.423 110.92 353.463 111.24 352.215 111.24H338.391ZM352.266 111.24L352.746 104.52H366.57C367.786 104.52 368.65 104.84 369.162 105.48C369.706 106.088 369.978 106.856 369.978 107.784C369.978 108.776 369.642 109.608 368.97 110.28C368.298 110.92 367.338 111.24 366.09 111.24H352.266ZM366.141 111.24L366.621 104.52H380.445C381.661 104.52 382.525 104.84 383.037 105.48C383.581 106.088 383.853 106.856 383.853 107.784C383.853 108.776 383.517 109.608 382.845 110.28C382.173 110.92 381.213 111.24 379.965 111.24H366.141ZM380.016 111.24L380.496 104.52C381.712 104.52 382.672 104.408 383.376 104.184C384.112 103.96 384.688 103.512 385.104 102.84C385.552 102.136 385.92 101.112 386.208 99.768C386.528 98.424 386.848 96.632 387.168 94.392L393.456 95.448C393.392 95.928 393.296 96.488 393.168 97.128C393.072 97.768 392.976 98.424 392.88 99.096C392.816 99.736 392.784 100.344 392.784 100.92C392.784 101.688 392.944 102.344 393.264 102.888C393.616 103.4 394.224 103.8 395.088 104.088C395.984 104.376 397.264 104.52 398.928 104.52C400.144 104.52 401.008 104.84 401.52 105.48C402.032 106.088 402.288 106.856 402.288 107.784C402.288 108.776 401.952 109.608 401.28 110.28C400.64 110.92 399.696 111.24 398.448 111.24C396.24 111.24 394.448 111.032 393.072 110.616C391.696 110.2 390.672 109.496 390 108.504C389.328 107.512 388.896 106.152 388.704 104.424H391.008C390.432 105.96 389.76 107.192 388.992 108.12C388.224 109.016 387.36 109.688 386.4 110.136C385.44 110.584 384.416 110.872 383.328 111C382.272 111.16 381.168 111.24 380.016 111.24ZM389.808 89.496C388.816 89.496 387.968 89.16 387.264 88.488C386.592 87.816 386.256 86.984 386.256 85.992C386.256 85 386.592 84.152 387.264 83.448C387.968 82.744 388.816 82.392 389.808 82.392C390.768 82.392 391.584 82.744 392.256 83.448C392.96 84.152 393.312 85 393.312 85.992C393.312 86.984 392.96 87.816 392.256 88.488C391.584 89.16 390.768 89.496 389.808 89.496ZM398.438 111.24L398.918 104.52H412.742C413.958 104.52 414.822 104.84 415.334 105.48C415.878 106.088 416.15 106.856 416.15 107.784C416.15 108.776 415.814 109.608 415.142 110.28C414.47 110.92 413.51 111.24 412.262 111.24H398.438ZM412.312 111.24L412.793 104.52H426.617C427.833 104.52 428.697 104.84 429.209 105.48C429.753 106.088 430.025 106.856 430.025 107.784C430.025 108.776 429.689 109.608 429.017 110.28C428.345 110.92 427.385 111.24 426.137 111.24H412.312ZM426.188 111.24L426.668 104.52C428.588 104.52 430.06 104.424 431.084 104.232C432.108 104.04 432.812 103.688 433.196 103.176C433.612 102.632 433.82 101.864 433.82 100.872C433.82 99.976 433.692 98.904 433.436 97.656C433.212 96.408 432.908 95.112 432.523 93.768C432.172 92.424 431.788 91.192 431.372 90.072L437.996 88.248C438.412 89.336 438.812 90.6 439.196 92.04C439.58 93.48 439.9 94.968 440.156 96.504C440.412 98.008 440.54 99.464 440.54 100.872C440.54 103.048 440.188 104.824 439.484 106.2C438.78 107.544 437.788 108.584 436.508 109.32C435.26 110.056 433.756 110.568 431.996 110.856C430.236 111.112 428.299 111.24 426.188 111.24ZM439.196 84.36C438.268 84.36 437.468 84.04 436.796 83.4C436.156 82.728 435.836 81.944 435.836 81.048C435.836 80.12 436.156 79.32 436.796 78.648C437.468 77.976 438.268 77.64 439.196 77.64C440.092 77.64 440.86 77.976 441.5 78.648C442.14 79.32 442.46 80.12 442.46 81.048C442.46 81.944 442.14 82.728 441.5 83.4C440.86 84.04 440.092 84.36 439.196 84.36ZM430.892 84.312C429.964 84.312 429.164 83.992 428.492 83.352C427.852 82.68 427.532 81.896 427.532 81C427.532 80.072 427.852 79.272 428.492 78.6C429.164 77.928 429.964 77.592 430.892 77.592C431.788 77.592 432.556 77.928 433.196 78.6C433.836 79.272 434.156 80.072 434.156 81C434.156 81.896 433.836 82.68 433.196 83.352C432.556 83.992 431.788 84.312 430.892 84.312ZM458.654 111.24C455.678 111.24 453.374 110.936 451.742 110.328C450.142 109.72 449.022 108.776 448.382 107.496C447.742 106.184 447.374 104.536 447.278 102.552L446.27 75.864H452.99L453.998 99.336C454.062 100.808 454.222 101.912 454.478 102.648C454.734 103.384 455.214 103.88 455.918 104.136C456.654 104.392 457.726 104.52 459.134 104.52C460.35 104.52 461.214 104.84 461.726 105.48C462.27 106.088 462.542 106.856 462.542 107.784C462.542 108.776 462.206 109.608 461.534 110.28C460.862 110.92 459.902 111.24 458.654 111.24ZM458.719 111.24L459.199 104.52H473.023C474.239 104.52 475.103 104.84 475.615 105.48C476.159 106.088 476.431 106.856 476.431 107.784C476.431 108.776 476.095 109.608 475.423 110.28C474.751 110.92 473.791 111.24 472.543 111.24H458.719ZM472.594 111.24L473.074 104.52H486.898C488.114 104.52 488.978 104.84 489.49 105.48C490.034 106.088 490.306 106.856 490.306 107.784C490.306 108.776 489.97 109.608 489.298 110.28C488.626 110.92 487.666 111.24 486.418 111.24H472.594ZM486.469 111.24L486.949 104.568C489.605 104.568 491.733 104.552 493.333 104.52C494.965 104.488 496.229 104.424 497.125 104.328C498.053 104.2 498.741 104.056 499.189 103.896C499.637 103.704 500.021 103.496 500.341 103.272C500.725 102.984 501.045 102.6 501.301 102.12C501.589 101.608 501.813 100.936 501.973 100.104C502.133 99.272 502.213 98.232 502.213 96.984C502.213 95.416 502.069 94.104 501.781 93.048C501.525 91.96 501.141 91.144 500.629 90.6C500.149 90.056 499.557 89.784 498.853 89.784C498.341 89.784 497.861 89.96 497.413 90.312C496.965 90.632 496.597 91.08 496.309 91.656C496.021 92.232 495.877 92.888 495.877 93.624C495.877 94.04 495.989 94.408 496.213 94.728C496.437 95.048 496.789 95.288 497.269 95.448C497.749 95.608 498.357 95.688 499.093 95.688C499.797 95.688 500.533 95.608 501.301 95.448C502.101 95.256 502.837 95 503.509 94.68L503.701 100.392C503.189 100.744 502.597 101.064 501.925 101.352C501.253 101.64 500.533 101.864 499.765 102.024C499.029 102.152 498.277 102.216 497.509 102.216C495.813 102.216 494.341 101.992 493.093 101.544C491.877 101.064 490.933 100.296 490.261 99.24C489.589 98.184 489.253 96.744 489.253 94.92C489.253 93.512 489.493 92.12 489.973 90.744C490.453 89.336 491.141 88.072 492.037 86.952C492.933 85.8 493.989 84.888 495.205 84.216C496.421 83.512 497.765 83.16 499.237 83.16C501.413 83.16 503.205 83.8 504.613 85.08C506.053 86.328 507.109 88.024 507.781 90.168C508.485 92.28 508.837 94.632 508.837 97.224C508.837 99.496 508.501 101.48 507.829 103.176C507.157 104.84 506.357 106.152 505.429 107.112C504.661 107.912 503.781 108.584 502.789 109.128C501.797 109.672 500.581 110.104 499.141 110.424C497.733 110.712 495.989 110.92 493.909 111.048C491.861 111.176 489.381 111.24 486.469 111.24ZM499.141 78.696C498.149 78.696 497.301 78.36 496.597 77.688C495.925 77.016 495.589 76.184 495.589 75.192C495.589 74.2 495.925 73.352 496.597 72.648C497.301 71.944 498.149 71.592 499.141 71.592C500.101 71.592 500.917 71.944 501.589 72.648C502.293 73.352 502.645 74.2 502.645 75.192C502.645 76.184 502.293 77.016 501.589 77.688C500.917 78.36 500.101 78.696 499.141 78.696ZM525.919 111.24C522.943 111.24 520.639 110.936 519.007 110.328C517.407 109.72 516.287 108.776 515.647 107.496C515.007 106.184 514.639 104.536 514.543 102.552L513.535 75.864H520.255L521.263 99.336C521.327 100.808 521.487 101.912 521.743 102.648C521.999 103.384 522.479 103.88 523.183 104.136C523.919 104.392 524.991 104.52 526.399 104.52C527.615 104.52 528.479 104.84 528.991 105.48C529.535 106.088 529.807 106.856 529.807 107.784C529.807 108.776 529.471 109.608 528.799 110.28C528.127 110.92 527.167 111.24 525.919 111.24ZM525.984 111.24L526.464 104.52H540.288C541.504 104.52 542.368 104.84 542.88 105.48C543.424 106.088 543.696 106.856 543.696 107.784C543.696 108.776 543.36 109.608 542.688 110.28C542.016 110.92 541.056 111.24 539.808 111.24H525.984ZM539.859 111.24L540.339 104.52H554.163C555.379 104.52 556.243 104.84 556.755 105.48C557.299 106.088 557.571 106.856 557.571 107.784C557.571 108.776 557.235 109.608 556.563 110.28C555.891 110.92 554.931 111.24 553.683 111.24H539.859ZM553.734 111.24L554.214 104.568C555.462 104.6 556.614 104.584 557.67 104.52C558.726 104.456 559.67 104.36 560.502 104.232C561.366 104.104 562.118 103.96 562.758 103.8C563.43 103.64 563.99 103.496 564.438 103.368C565.526 103.016 566.454 102.6 567.222 102.12C567.99 101.608 568.582 101.032 568.998 100.392C569.414 99.752 569.622 99.064 569.622 98.328C569.622 97.752 569.494 97.176 569.238 96.6C569.014 95.992 568.678 95.496 568.23 95.112C567.782 94.728 567.254 94.536 566.646 94.536C566.07 94.536 565.542 94.712 565.062 95.064C564.582 95.416 564.198 95.896 563.91 96.504C563.622 97.08 563.478 97.752 563.478 98.52C563.478 99.192 563.638 99.832 563.958 100.44C564.278 101.016 564.726 101.576 565.302 102.12C565.878 102.664 566.566 103.176 567.366 103.656L560.982 106.104C560.278 105.432 559.606 104.712 558.966 103.944C558.358 103.176 557.846 102.312 557.43 101.352C557.046 100.36 556.854 99.256 556.854 98.04C556.854 96.568 557.142 95.224 557.718 94.008C558.294 92.792 559.062 91.752 560.022 90.888C560.982 89.992 562.054 89.304 563.238 88.824C564.422 88.344 565.606 88.104 566.79 88.104C568.71 88.104 570.374 88.552 571.782 89.448C573.19 90.344 574.278 91.512 575.046 92.952C575.846 94.392 576.246 95.96 576.246 97.656C576.246 99.224 575.958 100.632 575.382 101.88C574.806 103.096 574.022 104.184 573.03 105.144C572.07 106.072 570.998 106.888 569.814 107.592C568.662 108.296 567.494 108.888 566.31 109.368C565.734 109.624 565.014 109.864 564.15 110.088C563.286 110.312 562.31 110.52 561.222 110.712C560.134 110.872 558.966 111 557.718 111.096C556.47 111.192 555.142 111.24 553.734 111.24ZM579.078 111.24C577.222 111.24 575.398 111.144 573.606 110.952C571.814 110.76 570.15 110.472 568.614 110.088C567.11 109.704 565.798 109.24 564.678 108.696L567.99 103.512C568.95 103.768 570.07 103.976 571.35 104.136C572.662 104.264 574.022 104.36 575.43 104.424C576.87 104.488 578.246 104.52 579.558 104.52C580.774 104.52 581.638 104.84 582.15 105.48C582.694 106.088 582.966 106.856 582.966 107.784C582.966 108.776 582.63 109.608 581.958 110.28C581.286 110.92 580.326 111.24 579.078 111.24ZM571.014 83.736C570.086 83.736 569.286 83.416 568.614 82.776C567.974 82.104 567.654 81.32 567.654 80.424C567.654 79.496 567.974 78.696 568.614 78.024C569.286 77.352 570.086 77.016 571.014 77.016C571.91 77.016 572.678 77.352 573.318 78.024C573.958 78.696 574.278 79.496 574.278 80.424C574.278 81.32 573.958 82.104 573.318 82.776C572.678 83.416 571.91 83.736 571.014 83.736ZM562.71 83.688C561.782 83.688 560.982 83.368 560.31 82.728C559.67 82.056 559.35 81.272 559.35 80.376C559.35 79.448 559.67 78.648 560.31 77.976C560.982 77.304 561.782 76.968 562.71 76.968C563.606 76.968 564.374 77.304 565.014 77.976C565.654 78.648 565.974 79.448 565.974 80.376C565.974 81.272 565.654 82.056 565.014 82.728C564.374 83.368 563.606 83.688 562.71 83.688ZM579.141 111.24L579.621 104.52H593.445C594.661 104.52 595.525 104.84 596.037 105.48C596.581 106.088 596.853 106.856 596.853 107.784C596.853 108.776 596.517 109.608 595.845 110.28C595.173 110.92 594.213 111.24 592.965 111.24H579.141ZM593.016 111.24L593.496 104.52H607.32C608.536 104.52 609.4 104.84 609.912 105.48C610.456 106.088 610.728 106.856 610.728 107.784C610.728 108.776 610.392 109.608 609.72 110.28C609.048 110.92 608.088 111.24 606.84 111.24H593.016ZM606.891 111.24L607.371 104.52C609.291 104.52 610.763 104.424 611.787 104.232C612.811 104.04 613.515 103.688 613.899 103.176C614.315 102.632 614.523 101.864 614.523 100.872C614.523 99.976 614.395 98.904 614.139 97.656C613.915 96.408 613.611 95.112 613.227 93.768C612.875 92.424 612.491 91.192 612.075 90.072L618.699 88.248C619.115 89.336 619.515 90.6 619.899 92.04C620.283 93.48 620.603 94.968 620.859 96.504C621.115 98.008 621.243 99.464 621.243 100.872C621.243 103.048 620.891 104.824 620.187 106.2C619.483 107.544 618.491 108.584 617.211 109.32C615.963 110.056 614.459 110.568 612.699 110.856C610.939 111.112 609.003 111.24 606.891 111.24ZM616.059 77.928C615.259 77.928 614.555 77.624 613.947 77.016C613.371 76.408 613.083 75.688 613.083 74.856C613.083 74.024 613.371 73.32 613.947 72.744C614.555 72.168 615.259 71.88 616.059 71.88C616.891 71.88 617.595 72.168 618.171 72.744C618.747 73.32 619.035 74.024 619.035 74.856C619.035 75.688 618.747 76.408 618.171 77.016C617.595 77.624 616.891 77.928 616.059 77.928ZM612.219 84.264C611.419 84.264 610.715 83.96 610.107 83.352C609.531 82.744 609.243 82.024 609.243 81.192C609.243 80.36 609.531 79.656 610.107 79.08C610.715 78.504 611.419 78.216 612.219 78.216C613.051 78.216 613.755 78.504 614.331 79.08C614.907 79.656 615.195 80.36 615.195 81.192C615.195 82.024 614.907 82.744 614.331 83.352C613.755 83.96 613.051 84.264 612.219 84.264ZM619.659 84.264C618.859 84.264 618.155 83.96 617.547 83.352C616.971 82.744 616.683 82.024 616.683 81.192C616.683 80.36 616.971 79.656 617.547 79.08C618.155 78.504 618.859 78.216 619.659 78.216C620.491 78.216 621.195 78.504 621.771 79.08C622.347 79.656 622.635 80.36 622.635 81.192C622.635 82.024 622.347 82.744 621.771 83.352C621.195 83.96 620.491 84.264 619.659 84.264ZM642.732 109.656C642.732 108.92 642.796 108.056 642.924 107.064C643.052 106.072 643.292 104.952 643.644 103.704C643.996 102.424 644.524 101 645.228 99.432L651.132 101.496C650.78 102.488 650.476 103.4 650.22 104.232C649.964 105.032 649.772 105.784 649.644 106.488C649.516 107.16 649.452 107.832 649.452 108.504C649.452 109.56 649.676 110.504 650.124 111.336C650.604 112.2 651.292 112.92 652.188 113.496C653.084 114.104 654.172 114.568 655.452 114.888C656.764 115.208 658.268 115.368 659.964 115.368C661.724 115.368 663.292 115.288 664.668 115.128C666.076 114.968 667.26 114.728 668.22 114.408C669.212 114.088 669.964 113.672 670.476 113.16C670.988 112.68 671.244 112.12 671.244 111.48C671.244 111.192 671.132 110.92 670.908 110.664C670.716 110.408 670.38 110.136 669.9 109.848C669.452 109.56 668.844 109.256 668.076 108.936C667.34 108.616 666.444 108.264 665.388 107.88L666.972 101.112C668.348 101.688 669.644 102.2 670.86 102.648C672.108 103.064 673.292 103.416 674.412 103.704C675.532 103.96 676.588 104.168 677.58 104.328C678.572 104.456 679.5 104.52 680.364 104.52C681.58 104.52 682.444 104.84 682.956 105.48C683.468 106.088 683.724 106.856 683.724 107.784C683.724 108.776 683.388 109.608 682.716 110.28C682.044 110.92 681.1 111.24 679.884 111.24C679.628 111.24 679.372 111.24 679.116 111.24C678.892 111.24 678.652 111.24 678.396 111.24C678.172 111.24 677.932 111.24 677.676 111.24C677.74 111.56 677.772 111.832 677.772 112.056C677.772 112.312 677.772 112.552 677.772 112.776C677.772 113.832 677.404 114.904 676.668 115.992C675.964 117.08 674.86 118.088 673.356 119.016C671.852 119.944 669.932 120.68 667.596 121.224C665.292 121.8 662.54 122.088 659.34 122.088C655.884 122.088 652.908 121.64 650.412 120.744C647.948 119.88 646.044 118.52 644.7 116.664C643.388 114.84 642.732 112.504 642.732 109.656ZM664.044 133.224C663.116 133.224 662.316 132.888 661.644 132.216C661.004 131.576 660.684 130.808 660.684 129.912C660.684 128.984 661.004 128.184 661.644 127.512C662.316 126.84 663.116 126.504 664.044 126.504C664.94 126.504 665.708 126.84 666.348 127.512C666.988 128.184 667.308 128.984 667.308 129.912C667.308 130.808 666.988 131.576 666.348 132.216C665.708 132.888 664.94 133.224 664.044 133.224ZM655.74 133.224C654.812 133.224 654.012 132.888 653.34 132.216C652.7 131.576 652.38 130.808 652.38 129.912C652.38 128.984 652.7 128.184 653.34 127.512C654.012 126.84 654.812 126.504 655.74 126.504C656.636 126.504 657.404 126.84 658.044 127.512C658.684 128.184 659.004 128.984 659.004 129.912C659.004 130.808 658.684 131.576 658.044 132.216C657.404 132.888 656.636 133.224 655.74 133.224ZM679.875 111.24L680.355 104.52H694.179C695.395 104.52 696.259 104.84 696.771 105.48C697.315 106.088 697.587 106.856 697.587 107.784C697.587 108.776 697.251 109.608 696.579 110.28C695.907 110.92 694.947 111.24 693.699 111.24H679.875ZM693.75 111.24L694.23 104.52H708.054C709.27 104.52 710.134 104.84 710.646 105.48C711.19 106.088 711.462 106.856 711.462 107.784C711.462 108.776 711.126 109.608 710.454 110.28C709.782 110.92 708.822 111.24 707.574 111.24H693.75ZM707.625 111.24L708.105 104.52H721.929C723.145 104.52 724.009 104.84 724.521 105.48C725.065 106.088 725.337 106.856 725.337 107.784C725.337 108.776 725.001 109.608 724.329 110.28C723.657 110.92 722.697 111.24 721.449 111.24H707.625ZM721.5 111.24L721.98 104.52H735.804C737.02 104.52 737.884 104.84 738.396 105.48C738.94 106.088 739.212 106.856 739.212 107.784C739.212 108.776 738.876 109.608 738.204 110.28C737.532 110.92 736.572 111.24 735.324 111.24H721.5ZM735.375 111.24L735.855 104.52H742.575C743.695 104.52 744.543 104.456 745.119 104.328C745.727 104.2 746.143 104.008 746.367 103.752C746.591 103.464 746.703 103.128 746.703 102.744C746.703 102.168 746.447 101.496 745.935 100.728C745.455 99.96 744.815 99.16 744.015 98.328C743.247 97.496 742.431 96.664 741.567 95.832C740.703 94.968 739.871 94.168 739.071 93.432C738.303 92.696 737.663 92.056 737.151 91.512C736.671 90.936 736.431 90.52 736.431 90.264C736.431 89.368 736.479 88.664 736.575 88.152C736.671 87.608 736.799 87.176 736.959 86.856C737.151 86.536 737.359 86.264 737.583 86.04C738.127 85.496 738.943 84.888 740.031 84.216C741.119 83.512 742.399 82.776 743.871 82.008C745.375 81.208 747.055 80.376 748.911 79.512C750.767 78.616 752.735 77.688 754.815 76.728L757.551 82.584C755.439 83.512 753.551 84.376 751.887 85.176C750.255 85.944 748.783 86.664 747.471 87.336C746.191 87.976 745.039 88.584 744.015 89.16C743.023 89.736 742.127 90.28 741.327 90.792L741.807 87.24C743.183 88.424 744.431 89.544 745.551 90.6C746.671 91.656 747.711 92.712 748.671 93.768C749.631 94.824 750.527 95.912 751.359 97.032C752.223 98.152 753.055 99.368 753.855 100.68C754.559 101.8 755.279 102.632 756.015 103.176C756.783 103.72 757.519 104.088 758.223 104.28C758.959 104.44 759.615 104.52 760.191 104.52C761.407 104.52 762.271 104.84 762.783 105.48C763.327 106.088 763.599 106.856 763.599 107.784C763.599 108.776 763.263 109.608 762.591 110.28C761.919 110.92 760.959 111.24 759.711 111.24C758.655 111.24 757.519 111.064 756.303 110.712C755.087 110.328 753.951 109.72 752.895 108.888C751.839 108.056 751.039 106.92 750.495 105.48L753.087 105.672C752.607 106.696 752.031 107.576 751.359 108.312C750.719 109.016 749.951 109.592 749.055 110.04C748.159 110.456 747.135 110.76 745.983 110.952C744.831 111.144 743.535 111.24 742.095 111.24H735.375ZM791.142 111.24C789.67 111.24 788.294 111.128 787.014 110.904C785.766 110.68 784.614 110.296 783.558 109.752C782.502 109.176 781.558 108.392 780.726 107.4C779.926 106.408 779.254 105.16 778.71 103.656L782.502 100.632C783.078 101.656 783.782 102.456 784.614 103.032C785.446 103.576 786.438 103.96 787.59 104.184C788.742 104.408 790.086 104.52 791.622 104.52C792.838 104.52 793.702 104.84 794.214 105.48C794.726 106.088 794.982 106.856 794.982 107.784C794.982 108.776 794.646 109.608 793.974 110.28C793.334 110.92 792.39 111.24 791.142 111.24ZM759.75 111.24L760.23 104.52C761.958 104.52 763.67 104.424 765.366 104.232C767.062 104.04 768.71 103.752 770.31 103.368C771.91 102.984 773.43 102.488 774.87 101.88C776.342 101.272 777.718 100.536 778.998 99.672C778.038 99.096 776.998 98.6 775.878 98.184C774.758 97.768 773.558 97.464 772.278 97.272C771.03 97.048 769.702 96.936 768.294 96.936C767.782 96.936 767.238 96.952 766.662 96.984C766.118 97.016 765.558 97.08 764.982 97.176C764.406 97.24 763.83 97.336 763.254 97.464L762.294 90.888C763.222 90.632 764.198 90.456 765.222 90.36C766.278 90.232 767.206 90.168 768.006 90.168C769.734 90.168 771.318 90.36 772.758 90.744C774.23 91.128 775.574 91.608 776.79 92.184C778.038 92.76 779.19 93.336 780.246 93.912C781.334 94.488 782.358 94.968 783.318 95.352C784.31 95.736 785.27 95.928 786.198 95.928H787.974L788.742 102.312C787.366 102.376 786.07 102.648 784.854 103.128C783.67 103.576 782.486 104.152 781.302 104.856C780.15 105.528 778.902 106.232 777.558 106.968C776.246 107.704 774.758 108.392 773.094 109.032C771.43 109.672 769.51 110.2 767.334 110.616C765.158 111.032 762.63 111.24 759.75 111.24ZM791.156 111.24L791.636 104.52C793.556 104.52 795.028 104.424 796.052 104.232C797.076 104.04 797.78 103.688 798.164 103.176C798.58 102.632 798.788 101.864 798.788 100.872C798.788 99.976 798.66 98.904 798.404 97.656C798.18 96.408 797.876 95.112 797.492 93.768C797.14 92.424 796.756 91.192 796.34 90.072L802.964 88.248C803.38 89.336 803.78 90.6 804.164 92.04C804.548 93.48 804.868 94.968 805.124 96.504C805.38 98.008 805.508 99.464 805.508 100.872C805.508 103.048 805.156 104.824 804.452 106.2C803.748 107.544 802.756 108.584 801.476 109.32C800.228 110.056 798.724 110.568 796.964 110.856C795.204 111.112 793.268 111.24 791.156 111.24ZM804.164 84.36C803.236 84.36 802.436 84.04 801.764 83.4C801.124 82.728 800.804 81.944 800.804 81.048C800.804 80.12 801.124 79.32 801.764 78.648C802.436 77.976 803.236 77.64 804.164 77.64C805.06 77.64 805.828 77.976 806.468 78.648C807.108 79.32 807.428 80.12 807.428 81.048C807.428 81.944 807.108 82.728 806.468 83.4C805.828 84.04 805.06 84.36 804.164 84.36ZM795.86 84.312C794.932 84.312 794.132 83.992 793.46 83.352C792.82 82.68 792.5 81.896 792.5 81C792.5 80.072 792.82 79.272 793.46 78.6C794.132 77.928 794.932 77.592 795.86 77.592C796.756 77.592 797.524 77.928 798.164 78.6C798.804 79.272 799.124 80.072 799.124 81C799.124 81.896 798.804 82.68 798.164 83.352C797.524 83.992 796.756 84.312 795.86 84.312ZM843.766 111.24C841.494 111.24 839.526 110.952 837.862 110.376C836.23 109.768 834.966 108.808 834.07 107.496C833.174 106.152 832.662 104.36 832.534 102.12L831.67 82.776H838.438L839.254 99.768C839.318 101.08 839.526 102.088 839.878 102.792C840.262 103.464 840.806 103.928 841.51 104.184C842.214 104.408 843.126 104.52 844.246 104.52C845.462 104.52 846.326 104.84 846.838 105.48C847.35 106.088 847.606 106.856 847.606 107.784C847.606 108.776 847.27 109.608 846.598 110.28C845.958 110.92 845.014 111.24 843.766 111.24ZM834.982 106.776C832.838 107.256 830.774 107.48 828.79 107.448C826.806 107.384 825.03 107.032 823.462 106.392C821.894 105.72 820.646 104.76 819.718 103.512C818.822 102.264 818.374 100.68 818.374 98.76C818.374 97.064 818.742 95.528 819.478 94.152C820.246 92.744 821.302 91.512 822.646 90.456C824.022 89.4 825.622 88.504 827.446 87.768C829.27 87.032 831.254 86.472 833.398 86.088L834.07 92.904C832.694 92.968 831.446 93.16 830.326 93.48C829.238 93.768 828.294 94.152 827.494 94.632C826.726 95.112 826.134 95.656 825.718 96.264C825.302 96.84 825.094 97.464 825.094 98.136C825.094 98.68 825.286 99.128 825.67 99.48C826.054 99.832 826.566 100.12 827.206 100.344C827.846 100.536 828.582 100.648 829.414 100.68C830.246 100.712 831.094 100.664 831.958 100.536C832.854 100.408 833.734 100.2 834.598 99.912L834.982 106.776ZM835.126 77.832C834.198 77.832 833.398 77.512 832.726 76.872C832.086 76.2 831.766 75.416 831.766 74.52C831.766 73.592 832.086 72.792 832.726 72.12C833.398 71.448 834.198 71.112 835.126 71.112C836.022 71.112 836.79 71.448 837.43 72.12C838.07 72.792 838.39 73.592 838.39 74.52C838.39 75.416 838.07 76.2 837.43 76.872C836.79 77.512 836.022 77.832 835.126 77.832ZM826.822 77.784C825.894 77.784 825.094 77.464 824.422 76.824C823.782 76.152 823.462 75.368 823.462 74.472C823.462 73.544 823.782 72.744 824.422 72.072C825.094 71.4 825.894 71.064 826.822 71.064C827.718 71.064 828.486 71.4 829.126 72.072C829.766 72.744 830.086 73.544 830.086 74.472C830.086 75.368 829.766 76.152 829.126 76.824C828.486 77.464 827.718 77.784 826.822 77.784ZM843.75 111.24L844.23 104.52H858.054C859.27 104.52 860.134 104.84 860.646 105.48C861.19 106.088 861.462 106.856 861.462 107.784C861.462 108.776 861.126 109.608 860.454 110.28C859.782 110.92 858.822 111.24 857.574 111.24H843.75ZM857.625 111.24L858.105 104.52H871.929C873.145 104.52 874.009 104.84 874.521 105.48C875.065 106.088 875.337 106.856 875.337 107.784C875.337 108.776 875.001 109.608 874.329 110.28C873.657 110.92 872.697 111.24 871.449 111.24H857.625ZM871.5 111.24L871.98 104.568C874.636 104.568 876.764 104.552 878.364 104.52C879.996 104.488 881.26 104.424 882.156 104.328C883.084 104.2 883.772 104.056 884.22 103.896C884.668 103.704 885.052 103.496 885.372 103.272C885.756 102.984 886.076 102.6 886.332 102.12C886.62 101.608 886.844 100.936 887.004 100.104C887.164 99.272 887.244 98.232 887.244 96.984C887.244 95.416 887.1 94.104 886.812 93.048C886.556 91.96 886.172 91.144 885.66 90.6C885.18 90.056 884.588 89.784 883.884 89.784C883.372 89.784 882.892 89.96 882.444 90.312C881.996 90.632 881.628 91.08 881.34 91.656C881.052 92.232 880.908 92.888 880.908 93.624C880.908 94.04 881.02 94.408 881.244 94.728C881.468 95.048 881.82 95.288 882.3 95.448C882.78 95.608 883.388 95.688 884.124 95.688C884.828 95.688 885.564 95.608 886.332 95.448C887.132 95.256 887.868 95 888.54 94.68L888.732 100.392C888.22 100.744 887.628 101.064 886.956 101.352C886.284 101.64 885.564 101.864 884.796 102.024C884.06 102.152 883.308 102.216 882.54 102.216C880.844 102.216 879.372 101.992 878.124 101.544C876.908 101.064 875.964 100.296 875.292 99.24C874.62 98.184 874.284 96.744 874.284 94.92C874.284 93.512 874.524 92.12 875.004 90.744C875.484 89.336 876.172 88.072 877.068 86.952C877.964 85.8 879.02 84.888 880.236 84.216C881.452 83.512 882.796 83.16 884.268 83.16C886.444 83.16 888.236 83.8 889.644 85.08C891.084 86.328 892.14 88.024 892.812 90.168C893.516 92.28 893.868 94.632 893.868 97.224C893.868 99.496 893.532 101.48 892.86 103.176C892.188 104.84 891.388 106.152 890.46 107.112C889.692 107.912 888.812 108.584 887.82 109.128C886.828 109.672 885.612 110.104 884.172 110.424C882.764 110.712 881.02 110.92 878.94 111.048C876.892 111.176 874.412 111.24 871.5 111.24ZM884.172 78.696C883.18 78.696 882.332 78.36 881.628 77.688C880.956 77.016 880.62 76.184 880.62 75.192C880.62 74.2 880.956 73.352 881.628 72.648C882.332 71.944 883.18 71.592 884.172 71.592C885.132 71.592 885.948 71.944 886.62 72.648C887.324 73.352 887.676 74.2 887.676 75.192C887.676 76.184 887.324 77.016 886.62 77.688C885.948 78.36 885.132 78.696 884.172 78.696ZM910.95 111.24C907.974 111.24 905.67 110.936 904.038 110.328C902.438 109.72 901.318 108.776 900.678 107.496C900.038 106.184 899.67 104.536 899.574 102.552L898.566 75.864H905.286L906.294 99.336C906.358 100.808 906.518 101.912 906.774 102.648C907.03 103.384 907.51 103.88 908.214 104.136C908.95 104.392 910.022 104.52 911.43 104.52C912.646 104.52 913.51 104.84 914.022 105.48C914.566 106.088 914.838 106.856 914.838 107.784C914.838 108.776 914.502 109.608 913.83 110.28C913.158 110.92 912.198 111.24 910.95 111.24ZM911.016 111.24L911.496 104.52H925.32C926.536 104.52 927.4 104.84 927.912 105.48C928.456 106.088 928.728 106.856 928.728 107.784C928.728 108.776 928.392 109.608 927.72 110.28C927.048 110.92 926.088 111.24 924.84 111.24H911.016ZM924.891 111.24L925.371 104.52H939.195C940.411 104.52 941.275 104.84 941.787 105.48C942.331 106.088 942.603 106.856 942.603 107.784C942.603 108.776 942.267 109.608 941.595 110.28C940.923 110.92 939.963 111.24 938.715 111.24H924.891ZM938.766 111.24L939.246 104.52H953.07C954.286 104.52 955.15 104.84 955.662 105.48C956.206 106.088 956.478 106.856 956.478 107.784C956.478 108.776 956.142 109.608 955.47 110.28C954.798 110.92 953.838 111.24 952.59 111.24H938.766ZM952.641 111.24L953.121 104.52H966.945C968.161 104.52 969.025 104.84 969.537 105.48C970.081 106.088 970.353 106.856 970.353 107.784C970.353 108.776 970.017 109.608 969.345 110.28C968.673 110.92 967.713 111.24 966.465 111.24H952.641ZM966.516 111.24L966.996 104.52H980.82C982.036 104.52 982.9 104.84 983.412 105.48C983.956 106.088 984.228 106.856 984.228 107.784C984.228 108.776 983.892 109.608 983.22 110.28C982.548 110.92 981.588 111.24 980.34 111.24H966.516ZM980.391 111.24L980.871 104.52H994.695C995.911 104.52 996.775 104.84 997.287 105.48C997.831 106.088 998.103 106.856 998.103 107.784C998.103 108.776 997.767 109.608 997.095 110.28C996.423 110.92 995.463 111.24 994.215 111.24H980.391ZM994.266 111.24L994.746 104.52H1008.57C1009.79 104.52 1010.65 104.84 1011.16 105.48C1011.71 106.088 1011.98 106.856 1011.98 107.784C1011.98 108.776 1011.64 109.608 1010.97 110.28C1010.3 110.92 1009.34 111.24 1008.09 111.24H994.266ZM1008.14 111.24L1008.62 104.52H1022.44C1023.66 104.52 1024.52 104.84 1025.04 105.48C1025.58 106.088 1025.85 106.856 1025.85 107.784C1025.85 108.776 1025.52 109.608 1024.84 110.28C1024.17 110.92 1023.21 111.24 1021.96 111.24H1008.14ZM1022.02 111.24L1022.5 104.52C1023.65 104.52 1024.64 104.408 1025.47 104.184C1026.3 103.96 1027.01 103.512 1027.58 102.84C1028.16 102.136 1028.64 101.112 1029.02 99.768C1029.44 98.424 1029.81 96.632 1030.13 94.392L1036.42 95.448C1036.35 95.928 1036.26 96.488 1036.13 97.128C1036.03 97.768 1035.94 98.424 1035.84 99.096C1035.78 99.736 1035.74 100.344 1035.74 100.92C1035.74 101.496 1035.86 102.008 1036.08 102.456C1036.3 102.904 1036.66 103.288 1037.14 103.608C1037.65 103.896 1038.3 104.12 1039.1 104.28C1039.94 104.44 1040.94 104.52 1042.13 104.52C1043.34 104.52 1044.21 104.84 1044.72 105.48C1045.23 106.088 1045.49 106.856 1045.49 107.784C1045.49 108.776 1045.15 109.608 1044.48 110.28C1043.84 110.92 1042.9 111.24 1041.65 111.24C1040.21 111.24 1038.9 111.128 1037.71 110.904C1036.56 110.68 1035.55 110.312 1034.69 109.8C1033.86 109.256 1033.17 108.552 1032.62 107.688C1032.11 106.792 1031.79 105.704 1031.66 104.424H1033.97C1033.39 105.96 1032.66 107.192 1031.76 108.12C1030.9 109.016 1029.92 109.688 1028.83 110.136C1027.74 110.584 1026.61 110.872 1025.42 111C1024.27 111.16 1023.14 111.24 1022.02 111.24ZM1035.41 122.376C1034.48 122.376 1033.68 122.04 1033.01 121.368C1032.37 120.728 1032.05 119.96 1032.05 119.064C1032.05 118.136 1032.37 117.336 1033.01 116.664C1033.68 115.992 1034.48 115.656 1035.41 115.656C1036.3 115.656 1037.07 115.992 1037.71 116.664C1038.35 117.336 1038.67 118.136 1038.67 119.064C1038.67 119.96 1038.35 120.728 1037.71 121.368C1037.07 122.04 1036.3 122.376 1035.41 122.376ZM1027.1 122.376C1026.18 122.376 1025.38 122.04 1024.7 121.368C1024.06 120.728 1023.74 119.96 1023.74 119.064C1023.74 118.136 1024.06 117.336 1024.7 116.664C1025.38 115.992 1026.18 115.656 1027.1 115.656C1028 115.656 1028.77 115.992 1029.41 116.664C1030.05 117.336 1030.37 118.136 1030.37 119.064C1030.37 119.96 1030.05 120.728 1029.41 121.368C1028.77 122.04 1028 122.376 1027.1 122.376ZM1066.52 111.864C1063.54 111.864 1061.06 111.736 1059.08 111.48C1057.13 111.224 1055.54 110.856 1054.33 110.376C1053.11 109.896 1052.15 109.32 1051.45 108.648C1050.74 107.976 1050.17 107.24 1049.72 106.44L1051.06 106.056C1050.26 107.592 1049.35 108.728 1048.33 109.464C1047.3 110.2 1046.23 110.68 1045.11 110.904C1043.99 111.128 1042.84 111.24 1041.66 111.24L1042.14 104.52C1043.13 104.52 1043.91 104.36 1044.49 104.04C1045.06 103.72 1045.53 103.192 1045.88 102.456C1046.26 101.72 1046.62 100.744 1046.94 99.528C1047.26 98.312 1047.64 96.824 1048.09 95.064L1054.18 96.552C1053.96 97.416 1053.77 98.168 1053.61 98.808C1053.48 99.448 1053.37 100.008 1053.27 100.488C1053.21 100.936 1053.18 101.304 1053.18 101.592C1053.18 102.2 1053.32 102.744 1053.61 103.224C1053.9 103.672 1054.46 104.04 1055.29 104.328C1056.12 104.584 1057.34 104.792 1058.94 104.952C1060.57 105.08 1062.7 105.144 1065.32 105.144C1068.1 105.144 1070.42 105.048 1072.28 104.856C1074.14 104.632 1075.61 104.328 1076.7 103.944C1077.82 103.528 1078.62 103.032 1079.1 102.456C1079.58 101.848 1079.82 101.16 1079.82 100.392C1079.82 99.784 1079.67 99.224 1079.38 98.712C1079.13 98.168 1078.7 97.72 1078.09 97.368C1077.48 97.016 1076.7 96.84 1075.74 96.84C1074.58 96.84 1073.42 97.128 1072.23 97.704C1071.08 98.248 1069.94 98.984 1068.82 99.912C1067.7 100.808 1066.63 101.816 1065.61 102.936C1064.62 104.056 1063.72 105.176 1062.92 106.296L1055.72 105.48C1056.97 103.464 1058.38 101.528 1059.94 99.672C1061.51 97.816 1063.19 96.184 1064.98 94.776C1066.78 93.336 1068.63 92.2 1070.55 91.368C1072.47 90.536 1074.42 90.12 1076.41 90.12C1078.55 90.12 1080.38 90.536 1081.88 91.368C1083.38 92.2 1084.54 93.352 1085.34 94.824C1086.14 96.296 1086.54 97.992 1086.54 99.912C1086.54 102.248 1085.86 104.312 1084.52 106.104C1083.21 107.896 1081.08 109.304 1078.14 110.328C1075.22 111.352 1071.35 111.864 1066.52 111.864ZM1075.02 85.656C1074.02 85.656 1073.18 85.32 1072.47 84.648C1071.8 83.976 1071.46 83.144 1071.46 82.152C1071.46 81.16 1071.8 80.312 1072.47 79.608C1073.18 78.904 1074.02 78.552 1075.02 78.552C1075.98 78.552 1076.79 78.904 1077.46 79.608C1078.17 80.312 1078.52 81.16 1078.52 82.152C1078.52 83.144 1078.17 83.976 1077.46 84.648C1076.79 85.32 1075.98 85.656 1075.02 85.656Z" fill="white"/>
<path d="M764.689 148.179V141.053H757.46L752.347 136.013L747.233 141.053H740.004V148.179L734.891 153.208L740.004 158.258V165.384H747.233L752.347 170.424L757.46 165.384H764.689V158.258L769.813 153.208L764.689 148.179Z" fill="#8FB7B2"/>
<path d="M618.931 165.888H584.777L601.94 141.18L618.931 165.888Z" fill="#6E1946"/>
<path d="M704.125 163.988V156.887H693.234V149.739H682.344V142.589H672.728V149.739H661.838V156.887H650.914V163.988H704.125Z" fill="#E9593E"/>
</g>
<defs>
<clipPath id="clip0_823_77">
<rect width="1355" height="155" fill="white" transform="translate(0 49)"/>
</clipPath>
</defs>
</svg>
