<svg width="121" height="6" viewBox="0 0 121 6" fill="none" xmlns="http://www.w3.org/2000/svg">
<path d="M2.01655 4.27705V4.28178C5.63957 4.68798 9.26905 4.99752 12.905 5.21041C15.1025 5.33833 17.3008 5.43878 19.5001 5.47858C22.6692 5.53638 25.8365 5.46626 29.0057 5.39803C31.7415 5.33833 34.4772 5.30327 37.213 5.2559C39.404 5.21862 41.5945 5.17598 43.7843 5.12797C46.3091 5.07491 48.834 5.04269 51.358 4.96404C57.1609 4.78211 62.964 4.6106 68.7674 4.44951C71.0743 4.38602 73.3803 4.35475 75.689 4.32632L80.7193 4.26662C81.4774 4.2581 82.2346 4.2742 82.9927 4.28652L88.5402 4.3718C89.3441 4.38318 90.1481 4.38791 90.9521 4.43055C93.6244 4.57459 96.2984 4.6883 98.9689 4.86549C101.889 5.05501 104.817 5.1943 107.742 5.29285C110.288 5.37908 112.837 5.44446 115.385 5.42267C117.261 5.43317 119.136 5.32718 121 5.10523V5.10049C119.771 4.90434 118.546 4.69114 117.315 4.51584L117.422 4.531C114.719 4.11691 112 3.78715 109.283 3.50288C107.169 3.28177 105.054 3.07868 102.938 2.89358C103.725 2.85694 104.512 2.81872 105.299 2.77893C106.415 2.72112 107.529 2.65005 108.645 2.58941C110.069 2.51834 111.491 2.41506 112.915 2.33925C115.494 2.20185 118.07 2.00665 120.64 1.73754V1.7328C118.036 1.44853 115.409 1.42389 112.794 1.37082C110.019 1.31492 107.241 1.30734 104.465 1.32629C101.822 1.34398 99.1804 1.39357 96.5393 1.47506C94.1759 1.54707 91.8125 1.61719 89.4492 1.66457L83.7128 1.78776C82.7809 1.80671 81.8472 1.84177 80.9153 1.84651C77.787 1.85978 74.6588 1.87399 71.5306 1.88915C70.7363 1.88915 69.9464 1.90715 69.1548 1.89863L65.0167 1.85219L59.4913 1.7906C58.8223 1.78302 58.1543 1.77828 57.4853 1.76028L47.6329 1.50254C45.0251 1.43526 42.4181 1.31302 39.8121 1.21826C34.9212 1.03349 30.0303 0.830705 25.1376 0.674354C22.5509 0.591915 19.9643 0.532218 17.3759 0.508529C16.7098 0.502843 16.0436 0.5 15.377 0.5C14.195 0.5 13.0127 0.508212 11.8301 0.524637C10.9255 0.536956 10.0201 0.570121 9.11552 0.570121C6.07701 0.570121 3.0385 0.649718 0 0.664879V0.669616C0.799559 0.810806 1.59647 0.95389 2.39956 1.06286C3.20265 1.17183 4.02691 1.28933 4.84059 1.39546C6.34616 1.59572 7.85204 1.78271 9.3582 1.95643C9.63708 1.98959 9.91771 2.00665 10.1975 2.03129C11.0006 2.09951 11.8037 2.16268 12.6067 2.2208C14.3765 2.35536 16.1465 2.47065 17.9168 2.56667C18.9132 2.62068 19.9105 2.65574 20.9077 2.68606C16.0194 2.87558 11.1347 3.25461 6.27029 3.78241C4.85826 3.93687 3.43916 4.09227 2.02625 4.26378" fill="#F7A812"/>
</svg>
