<svg width="51" height="72" viewBox="0 0 51 72" fill="none" xmlns="http://www.w3.org/2000/svg">
<path d="M49.595 1C39.3508 1.18293 29.6677 4.57592 23.5375 13.2984C21.2107 16.6089 17.8294 23.1862 21.5634 26.8206C23.2847 28.4961 26.3871 29.1573 28.6503 28.3604C32.943 26.8489 32.9253 20.3904 30.4466 17.3847C25.877 11.8432 14.1991 11.3064 9.79803 17.2662C6.17609 22.1709 5.21103 29.2518 6.26448 35.1512C7.2747 40.8084 11.9224 47.7779 18.2667 48.1404C21.743 48.3391 23.3938 45.919 22.6294 42.6131C21.2886 36.814 15.7952 35.0668 10.4692 36.0592C6.27797 36.8402 3.52401 40.9853 2.09922 44.7056C-0.171612 50.635 1.14099 58.3494 5.43537 63.0446C7.9849 65.832 11.8993 67.9816 15.6807 68.4337C18.5267 68.774 18.8925 68.3871 17.3389 65.9069C16.8387 65.1083 15.7338 62.5645 15.8584 63.4986C16.1935 66.012 17.6389 68.7804 19.6683 70.3486C20.8958 71.2971 19.6113 70.7758 18.4049 70.6447C14.8597 70.2593 11.5156 70.3647 8.02138 71" stroke="#F7A812" stroke-width="2" stroke-linecap="round"/>
</svg>
