<svg width="20" height="8" viewBox="0 0 20 8" fill="none" xmlns="http://www.w3.org/2000/svg">
<path d="M19.681 0.706056C18.6382 0.224494 17.4464 -0.0213747 16.305 0.00101341C15.0054 0.0251883 13.8649 0.404918 12.9935 1.09154C12.7991 1.23921 12.5898 1.4661 12.3747 1.74367C10.7393 1.14547 8.43776 1.77235 7.27316 2.25988C6.83567 2.44509 6.41559 2.77241 5.94699 3.28371C5.83452 3.40515 5.7285 3.53919 5.63507 3.66675C5.28347 3.61696 4.86289 3.61855 4.3706 3.71266C2.74517 3.99984 0.628478 5.03263 0.0151668 7.00978C-0.0184365 7.11452 0.005103 7.23756 0.0724714 7.32219C0.117384 7.37861 0.168411 7.41598 0.244587 7.44042C0.425504 7.49846 0.614143 7.40148 0.672185 7.22057C1.01127 6.16363 2.20701 4.79342 4.50152 4.38482C4.64669 4.35788 4.93093 4.32301 5.26618 4.32554C5.22 4.43675 5.17382 4.54796 5.13411 4.67174C5.04247 4.9574 4.97973 5.28388 4.95851 5.64465C4.94232 5.8915 4.92614 6.13834 4.98308 6.41916C5.09318 6.92707 5.46165 7.34983 5.90918 7.49341C6.29006 7.61561 6.66844 7.51644 6.98144 7.22828C7.3539 6.88568 7.57833 6.31706 7.5746 5.70674C7.58074 5.1311 7.38188 4.60521 7.04306 4.28647C6.92161 4.17399 6.70458 3.99939 6.36143 3.8578C6.39575 3.8163 6.42702 3.78431 6.46134 3.74281C6.85177 3.31146 7.21543 3.02903 7.54584 2.88298C8.50581 2.47682 10.5517 1.89398 11.9986 2.3267C11.6637 2.91238 11.4152 3.58877 11.4254 4.21166C11.4379 4.76179 11.6517 5.20843 12.0504 5.50436C12.6786 5.96847 13.1729 5.76997 13.4115 5.61548C13.6909 5.43206 13.9117 5.10382 14.0336 4.69132C14.1527 4.31996 14.164 3.92453 14.0782 3.60293C13.9061 2.92811 13.5491 2.40404 13.0012 2.04971C13.1446 1.86467 13.2853 1.72073 13.4137 1.61492C15.0906 0.283535 17.6898 0.529305 19.3906 1.31651C19.5654 1.3936 19.7575 1.31871 19.8441 1.14695C19.9212 0.972145 19.8462 0.780075 19.6745 0.693466L19.681 0.706056ZM6.5741 4.76618C6.77549 4.95681 6.89334 5.30965 6.89762 5.6891C6.89922 6.10969 6.75186 6.50354 6.51397 6.72127C6.3794 6.84613 6.25327 6.87916 6.11044 6.83334C5.90096 6.76613 5.70531 6.52487 5.64227 6.26309C5.59898 6.07067 5.61284 5.89653 5.62938 5.6813C5.65437 5.37425 5.70181 5.09546 5.77818 4.85741C5.82706 4.70506 5.88547 4.55572 5.96291 4.41254C6.18192 4.4828 6.40128 4.5847 6.56763 4.75359L6.5741 4.76618ZM13.4159 3.76858C13.5314 4.19421 13.3237 4.84168 13.0161 5.04755C12.9502 5.08941 12.7775 5.20207 12.4458 4.95915C12.2162 4.79097 12.0964 4.54249 12.102 4.19772C12.0932 3.70131 12.3238 3.11359 12.6152 2.59798C13.0231 2.86534 13.2803 3.24197 13.419 3.75905L13.4159 3.76858Z" fill="#C7C7C7"/>
</svg>
