<svg width="20" height="25" viewBox="0 0 20 25" fill="none" xmlns="http://www.w3.org/2000/svg">
<path id="Vector 53" d="M7.72681 7.71889C7.72681 9.68873 7.20001 10.944 5.89067 12.5077C4.88496 13.7088 3.74132 14.7447 2.59887 15.8078C1.919 16.4404 2.37873 16.2186 2.847 16.0559C4.18854 15.5899 5.57112 15.2535 6.97416 15.0303C9.50842 14.6272 11.2292 15.1482 12.7638 17.2965C13.8532 18.8218 14.8272 20.57 15.3195 22.3914C15.6268 23.5285 15.2945 22.2767 15.1375 21.8786C14.024 19.055 11.6263 14.5212 14.1615 11.8543C14.9359 11.0398 15.6556 10.4846 16.7255 10.1092C17.2453 9.92678 18.8143 9.48423 18.2639 9.5054C17.5223 9.53392 16.7206 9.95705 16.0142 10.1671C15.0101 10.4656 13.9594 10.4209 12.9209 10.3904C11.5049 10.3487 10.0689 10.0649 8.86818 9.27381C7.95507 8.67223 7.49263 7.51536 7.07341 6.5527C6.47528 5.17921 6.18565 3.71712 5.64255 2.35938" stroke="#F7A812" stroke-width="3" stroke-linecap="round"/>
</svg>
