<svg width="170" height="259" viewBox="0 0 170 259" fill="none" xmlns="http://www.w3.org/2000/svg">
<g clip-path="url(#clip0_1831_14884)">
<rect width="169.667" height="258.858" rx="25" transform="matrix(-1 0 0 1 170 0)" fill="#CCD9E1"/>
<g clip-path="url(#clip1_1831_14884)">
<path d="M215.083 279.19V106.36C215.083 106.36 197.183 35.2896 86.733 34.2596C-23.717 33.2396 -44.167 106.36 -44.167 106.36V279.19H215.083Z" fill="#FBD896" stroke="#003F6A" stroke-width="3" stroke-miterlimit="10"/>
<path d="M65.8769 83.9047C65.4645 87.7205 69.6651 89.8324 72.7251 90.7311C76.3289 91.781 80.6015 92.3192 84.1919 90.936C86.0879 90.2106 87.613 88.7127 87.8931 86.6406C88.0332 85.6045 87.2311 84.4893 86.1627 84.4007C85.0943 84.3121 84.0806 85.0266 83.9228 86.1311C83.9143 86.2034 83.8849 86.2996 83.8895 86.3665C83.897 86.608 83.9305 86.1127 83.9682 86.0743C83.9136 86.1273 83.8657 86.3457 83.8402 86.4326C83.6583 86.9201 84.0219 86.2051 83.8895 86.3665C83.7986 86.4803 83.6908 86.6086 83.6092 86.7263C83.4344 86.9892 83.9741 86.4235 83.7901 86.5526C83.7393 86.5964 83.6977 86.644 83.6377 86.684C83.5269 86.7677 83.4253 86.8553 83.309 86.926C83.249 86.966 83.1836 86.9928 83.1328 87.0366C82.9504 87.188 83.6268 86.7878 83.3183 86.9299C83.1574 87.0036 83.002 87.0904 82.8358 87.151C82.6003 87.2477 82.1241 87.2981 81.9378 87.4587C81.9455 87.4403 82.441 87.3438 82.1448 87.4043C82.0479 87.4288 81.9509 87.4534 81.8447 87.474C81.6547 87.5139 81.4685 87.5445 81.2823 87.5751C80.9231 87.631 80.5584 87.6737 80.2015 87.6981C80.0322 87.7141 79.8669 87.7209 79.6922 87.7238C79.5807 87.7314 79.4638 87.7259 79.3522 87.7335C78.9322 87.7532 79.8368 87.7408 79.4061 87.7343C77.7092 87.6975 76.0748 87.4593 74.4128 87.0794C74.2759 87.0439 74.0605 87.0407 74.5866 87.1303C74.4735 87.1156 74.3535 87.0655 74.2482 87.0324C74.0651 86.9776 73.8821 86.9228 73.6899 86.8642C73.3369 86.7493 72.9785 86.6213 72.6279 86.4749C72.2772 86.3284 71.9727 86.2012 71.6521 86.0348C71.4991 85.9601 71.3499 85.8761 71.2007 85.7921C70.8524 85.6142 71.6459 86.0756 71.3222 85.8646C71.2469 85.8114 71.1585 85.7637 71.0831 85.7105C70.7871 85.511 70.495 85.3023 70.2275 85.0606C69.8117 84.681 70.415 85.3123 70.2091 85.0529C70.1253 84.942 70.0285 84.8366 69.9447 84.7257C69.9048 84.6657 69.8687 84.5964 69.8156 84.5418C69.6443 84.3293 70.0076 84.9904 69.9316 84.7311C69.9125 84.6472 69.8234 84.3933 69.7796 84.3425C70.0794 84.6628 69.8708 84.8249 69.8625 84.6372C69.8564 84.548 69.8411 84.4549 69.8219 84.371C69.7461 83.9817 69.7707 84.9348 69.8288 84.4064C69.9374 83.368 69.1852 82.2628 68.0984 82.1665C67.0115 82.0702 65.9755 82.7863 65.8585 83.897L65.8769 83.9047Z" fill="#F9BB47"/>
<path d="M40.453 25.03C40.513 24.83 40.603 24.63 40.663 24.42C40.733 24.16 40.433 24.88 40.613 24.53C40.663 24.43 40.713 24.32 40.763 24.22C40.903 23.95 41.153 23.33 41.423 23.17C41.233 23.28 41.163 23.48 41.313 23.31C41.393 23.23 41.453 23.14 41.533 23.05C41.663 22.91 41.793 22.77 41.923 22.64C42.053 22.51 42.203 22.38 42.343 22.25C42.413 22.19 42.523 22.07 42.603 22.03C42.223 22.19 42.383 22.19 42.563 22.06C42.903 21.83 43.243 21.6 43.603 21.4C43.773 21.3 43.953 21.21 44.133 21.12C44.223 21.08 44.313 21.03 44.403 20.99C44.473 20.96 44.553 20.92 44.623 20.89C44.353 21 44.283 21.03 44.423 20.97C45.273 20.68 46.103 20.39 46.993 20.21C47.203 20.17 47.413 20.13 47.623 20.1C48.203 20.01 47.273 20.13 47.853 20.07C48.323 20.02 48.793 19.99 49.273 19.98C49.753 19.97 50.223 19.98 50.703 20.01C50.923 20.02 51.133 20.04 51.353 20.06C51.443 20.06 51.523 20.08 51.613 20.09C52.193 20.16 51.363 20.04 51.723 20.1C52.603 20.25 53.473 20.44 54.333 20.73C54.533 20.8 54.723 20.87 54.923 20.94C55.073 21 55.423 21.05 54.903 20.93C54.993 20.95 55.093 21.02 55.183 21.06C55.593 21.25 55.993 21.46 56.373 21.69C56.583 21.81 56.783 21.94 56.983 22.08C57.063 22.14 57.143 22.2 57.223 22.25C57.543 22.47 56.873 21.95 57.243 22.27C57.613 22.59 57.943 22.89 58.263 23.24C58.333 23.31 58.393 23.39 58.453 23.46C58.503 23.52 58.553 23.58 58.603 23.64C58.423 23.4 58.373 23.35 58.463 23.47C58.583 23.67 58.733 23.85 58.853 24.05C58.973 24.25 59.093 24.46 59.193 24.67C59.233 24.76 59.273 24.85 59.323 24.94C59.483 25.25 59.153 24.49 59.343 25.02C59.703 26 60.713 26.77 61.803 26.42C62.763 26.11 63.593 25.01 63.203 23.96C61.633 19.76 57.703 17.2 53.413 16.37C49.123 15.54 44.533 15.99 40.933 18.34C38.873 19.68 37.303 21.59 36.593 23.96C36.293 24.96 36.953 26.18 37.993 26.42C39.033 26.66 40.133 26.1 40.453 25.02V25.03Z" fill="#003F6A"/>
<path d="M100.183 25.5098C101.073 26.9898 102.613 27.8198 104.173 28.4198C105.943 29.0998 107.853 29.3898 109.723 29.5798C113.593 29.9798 117.793 29.7998 121.523 28.6198C123.423 28.0198 125.183 27.1298 126.393 25.5098C127.023 24.6698 126.553 23.2398 125.673 22.7698C124.623 22.2198 123.613 22.5898 122.933 23.4898C123.373 22.8998 123.073 23.3098 122.943 23.4398C122.843 23.5398 122.743 23.6298 122.643 23.7198C122.313 24.0398 123.023 23.4798 122.673 23.6998C122.533 23.7898 122.393 23.8898 122.253 23.9798C121.963 24.1498 121.663 24.2898 121.373 24.4398C121.123 24.5598 121.843 24.2598 121.313 24.4698C121.123 24.5398 120.933 24.6098 120.733 24.6798C119.963 24.9398 119.173 25.1398 118.383 25.2898C117.993 25.3698 117.613 25.4298 117.223 25.4898L117.093 25.5098C116.873 25.5398 116.913 25.5398 117.223 25.4898C117.203 25.5098 116.953 25.5198 116.953 25.5198C116.683 25.5498 116.413 25.5798 116.133 25.6098C114.323 25.7798 112.493 25.7998 110.683 25.6698C110.233 25.6398 109.783 25.5998 109.323 25.5398C109.333 25.5398 109.063 25.4998 109.053 25.5098C109.123 25.4398 109.513 25.5798 109.053 25.5098C108.843 25.4798 108.623 25.4398 108.413 25.4098C107.613 25.2698 106.823 25.0898 106.053 24.8498C105.843 24.7798 105.633 24.7098 105.423 24.6398C105.213 24.5698 104.773 24.2898 105.313 24.6098C105.013 24.4298 104.663 24.3098 104.363 24.1298C104.213 24.0398 104.073 23.9298 103.923 23.8398C103.683 23.6898 104.133 23.9798 104.123 23.9998C104.123 23.9798 103.963 23.8698 103.933 23.8398C103.823 23.7298 103.723 23.6098 103.603 23.5098C103.413 23.3498 103.773 23.7098 103.773 23.7398C103.773 23.6798 103.653 23.5598 103.613 23.4998C103.073 22.5998 101.793 22.1898 100.873 22.7798C99.9531 23.3698 99.5831 24.5598 100.153 25.5198L100.183 25.5098Z" fill="#003F6A"/>
<path d="M155.743 37.7403C155.603 37.6003 155.423 37.5403 155.233 37.5403C150.443 37.7203 144.533 37.5403 138.263 37.3403C123.223 36.8603 106.173 36.3203 96.1531 40.4803C94.4131 41.2003 93.303 41.9203 92.333 42.5603C90.653 43.6503 89.4331 44.4503 85.7931 44.5703C82.1431 44.4503 80.923 43.6503 79.253 42.5603C78.273 41.9203 77.163 41.2003 75.423 40.4803C65.403 36.3303 48.363 36.8603 33.323 37.3403C27.053 37.5403 21.133 37.7203 16.353 37.5403C16.163 37.5403 15.973 37.6003 15.843 37.7403C15.703 37.8703 15.623 38.0503 15.623 38.2403V44.4903C15.623 44.8203 15.863 45.1003 16.193 45.1703C17.403 45.4103 18.643 46.6703 19.853 48.8903C20.443 50.2103 21.153 51.9303 21.903 53.7403C24.413 59.8103 27.533 67.3603 30.383 70.3303C35.693 75.8503 45.363 77.0803 52.963 77.0803C53.363 77.0803 53.763 77.0803 54.153 77.0803C58.973 77.0003 62.9431 76.1803 66.313 74.5803C69.4431 73.0903 72.053 70.9203 74.283 67.9503C77.393 63.8003 78.733 59.9603 80.273 55.5103C80.403 55.1203 80.543 54.7203 80.683 54.3203C82.023 50.5103 83.6831 49.7303 85.7931 49.7303C88.673 49.7303 89.873 51.4903 90.863 54.3203C91.003 54.7303 91.143 55.1203 91.283 55.5103C92.823 59.9603 94.153 63.8003 97.273 67.9503C99.5031 70.9203 102.113 73.0903 105.243 74.5803C108.613 76.1803 112.593 77.0003 117.403 77.0803C117.793 77.0803 118.183 77.0803 118.593 77.0803C126.193 77.0803 135.863 75.8403 141.173 70.3303C144.033 67.3603 147.153 59.8103 149.653 53.7403C150.403 51.9203 151.113 50.2103 151.703 48.8903C152.913 46.6603 154.153 45.4103 155.373 45.1703C155.703 45.1003 155.933 44.8203 155.933 44.4903V38.2403C155.933 38.0503 155.863 37.8703 155.723 37.7403H155.743ZM154.563 43.9603C153.103 44.4903 151.763 45.8903 150.483 48.2503C150.483 48.2703 150.463 48.2803 150.463 48.3003C149.863 49.6403 149.143 51.3803 148.383 53.2203C146.043 58.8703 142.853 66.6003 140.183 69.3803C137.833 71.8303 134.273 73.5903 129.623 74.6203C126.093 75.4103 121.993 75.7703 117.453 75.6903C112.843 75.6103 109.063 74.8403 105.873 73.3303C102.963 71.9503 100.513 69.9203 98.423 67.1203C95.443 63.1503 94.1431 59.3903 92.633 55.0503C92.5031 54.6603 92.363 54.2603 92.223 53.8603C91.803 52.6703 91.193 51.1503 90.133 50.0503C89.023 48.9003 87.6131 48.3403 85.8231 48.3403C81.8631 48.3403 80.343 51.1403 79.383 53.8703C79.243 54.2803 79.113 54.6703 78.973 55.0603C77.463 59.4003 76.163 63.1503 73.183 67.1303C71.083 69.9303 68.653 71.9603 65.733 73.3403C62.543 74.8503 58.763 75.6203 54.163 75.7003C49.603 75.7703 45.5131 75.4203 41.993 74.6303C37.3431 73.6003 33.793 71.8303 31.433 69.3903C28.753 66.6103 25.553 58.8803 23.233 53.2303C22.463 51.3903 21.743 49.6503 21.143 48.3103C21.143 48.2903 21.123 48.2803 21.123 48.2603C19.843 45.9003 18.503 44.5003 17.043 43.9703V38.9603C21.743 39.1003 27.413 38.9203 33.383 38.7303C48.2831 38.2603 65.153 37.7203 74.893 41.7603C76.523 42.4303 77.563 43.1103 78.493 43.7103C80.303 44.8903 81.7331 45.8103 85.7931 45.9503H85.843C89.903 45.8103 91.333 44.8903 93.143 43.7103C94.063 43.1103 95.113 42.4303 96.733 41.7603C106.473 37.7203 123.353 38.2603 138.243 38.7303C144.223 38.9203 149.893 39.1003 154.583 38.9603V43.9703L154.563 43.9603Z" fill="#003F6A" stroke="#003F6A" stroke-miterlimit="10"/>
<path d="M154.563 38.9503V43.9603C153.103 44.4903 151.763 45.8903 150.483 48.2503C150.483 48.2703 150.463 48.2803 150.463 48.3003C149.863 49.6403 149.143 51.3803 148.383 53.2203C146.043 58.8703 142.853 66.6003 140.183 69.3803C137.833 71.8303 134.273 73.5903 129.623 74.6203C126.093 75.4103 121.993 75.7703 117.453 75.6903C112.843 75.6103 109.063 74.8403 105.873 73.3303C102.963 71.9503 100.513 69.9203 98.4231 67.1203C95.4431 63.1503 94.1431 59.3903 92.6331 55.0503C92.5031 54.6603 92.3631 54.2603 92.2231 53.8603C91.8031 52.6703 91.1931 51.1503 90.1331 50.0503C89.0231 48.9003 87.6131 48.3403 85.8231 48.3403C81.8631 48.3403 80.3431 51.1403 79.3831 53.8703C79.2431 54.2803 79.1131 54.6703 78.9731 55.0603C77.4631 59.4003 76.1631 63.1503 73.1831 67.1303C71.0831 69.9303 68.6531 71.9603 65.7331 73.3403C62.5431 74.8503 58.7631 75.6203 54.1631 75.7003C49.6031 75.7703 45.5131 75.4203 41.9931 74.6303C37.3431 73.6003 33.7931 71.8303 31.4331 69.3903C28.7531 66.6103 25.5531 58.8803 23.2331 53.2303C22.4631 51.3903 21.7431 49.6503 21.1431 48.3103C21.1431 48.2903 21.1231 48.2803 21.1231 48.2603C19.8431 45.9003 18.5031 44.5003 17.0431 43.9703V38.9603C21.7431 39.1003 27.4131 38.9203 33.3831 38.7303C48.2831 38.2603 65.1531 37.7203 74.8931 41.7603C76.5231 42.4303 77.5631 43.1103 78.4931 43.7103C80.3031 44.8903 81.7331 45.8103 85.7931 45.9503H85.8431C89.9031 45.8103 91.3331 44.8903 93.1431 43.7103C94.0631 43.1103 95.1131 42.4303 96.7331 41.7603C106.473 37.7203 123.353 38.2603 138.243 38.7303C144.223 38.9203 149.893 39.1003 154.583 38.9603L154.563 38.9503Z" fill="#D4EDE8" stroke="#003F6A" stroke-miterlimit="10"/>
<path fill-rule="evenodd" clip-rule="evenodd" d="M106.373 71.2098C112.443 74.6498 127.573 73.8998 133.513 69.7498C138.003 66.6098 145.473 52.8798 143.223 46.9298C139.783 37.8298 99.1529 39.9498 96.0729 47.9798C93.6029 54.4398 101.103 68.2298 106.373 71.2098Z" fill="#7FBDBF"/>
<path d="M117.683 74.0803C112.843 74.0803 108.593 73.2703 106.033 71.8103C100.513 68.6803 92.813 54.5603 95.433 47.7303C96.543 44.8403 101.453 43.1003 105.383 42.1403C110.253 40.9603 116.483 40.2803 122.513 40.2803C122.573 40.2803 122.643 40.2803 122.703 40.2803C127.953 40.2903 132.633 40.8003 136.253 41.7503C140.503 42.8603 143.063 44.5203 143.883 46.6803C144.463 48.2103 144.493 50.2303 143.973 52.7003C143.533 54.8003 142.683 57.2203 141.533 59.6803C139.313 64.4103 136.253 68.6803 133.923 70.3103C131.043 72.3203 125.853 73.7103 120.043 74.0103C119.253 74.0503 118.463 74.0703 117.693 74.0703L117.683 74.0803ZM106.713 70.6103C109.463 72.1703 114.413 72.9303 119.953 72.6403C125.513 72.3503 130.433 71.0603 133.113 69.1803C135.233 67.7003 138.173 63.5503 140.263 59.1003C141.373 56.7303 142.183 54.4203 142.603 52.4203C143.063 50.2503 143.043 48.4303 142.573 47.1703C141.933 45.4803 139.623 44.0703 135.883 43.0903C132.383 42.1703 127.813 41.6803 122.683 41.6703C122.613 41.6703 122.553 41.6703 122.483 41.6703C109.633 41.6703 98.093 44.6003 96.703 48.2303C95.673 50.9303 96.503 55.5503 98.923 60.6003C101.143 65.2103 104.263 69.2403 106.693 70.6103H106.713Z" fill="#003F6A"/>
<path fill-rule="evenodd" clip-rule="evenodd" d="M64.4729 71.2098C58.4029 74.6498 43.2729 73.8998 37.3329 69.7498C32.8429 66.6098 25.3729 52.8798 27.6229 46.9298C31.0629 37.8298 71.6929 39.9498 74.7729 47.9798C77.2429 54.4398 69.7429 68.2298 64.4729 71.2098Z" fill="#7FBDBF"/>
<path d="M53.1634 74.08C52.3934 74.08 51.6134 74.06 50.8134 74.02C45.0034 73.71 39.8134 72.33 36.9334 70.32C34.6034 68.69 31.5434 64.42 29.3234 59.69C28.1634 57.23 27.3234 54.81 26.8834 52.71C26.3634 50.24 26.3934 48.22 26.9734 46.69C27.7934 44.53 30.3534 42.87 34.6034 41.76C38.2234 40.81 42.9034 40.31 48.1534 40.29C48.2134 40.29 48.2834 40.29 48.3434 40.29C54.3734 40.29 60.6134 40.97 65.4734 42.15C69.4034 43.1 74.3134 44.85 75.4234 47.74C78.0434 54.57 70.3434 68.69 64.8234 71.82C62.2634 73.27 58.0134 74.09 53.1734 74.09L53.1634 74.08ZM48.3434 41.67C48.2734 41.67 48.2134 41.67 48.1434 41.67C43.0134 41.68 38.4534 42.17 34.9434 43.09C31.2134 44.07 28.8934 45.48 28.2534 47.17C27.7734 48.43 27.7634 50.24 28.2234 52.42C28.6434 54.42 29.4534 56.73 30.5634 59.1C32.6634 63.56 35.6034 67.7 37.7134 69.18C40.3934 71.05 45.3134 72.34 50.8734 72.64C56.4134 72.93 61.3634 72.17 64.1134 70.61C66.5434 69.23 69.6634 65.21 71.8834 60.6C74.3134 55.55 75.1434 50.93 74.1034 48.23C72.7134 44.6 61.1734 41.67 48.3234 41.67H48.3434Z" fill="#003F6A"/>
</g>
</g>
<defs>
<clipPath id="clip0_1831_14884">
<rect width="169.667" height="258.858" rx="25" transform="matrix(-1 0 0 1 170 0)" fill="white"/>
</clipPath>
<clipPath id="clip1_1831_14884">
<rect width="262.25" height="264.69" fill="white" transform="translate(-45.667 16)"/>
</clipPath>
</defs>
</svg>
