<svg width="78" height="77" viewBox="0 0 78 77" fill="none" xmlns="http://www.w3.org/2000/svg">
<path d="M39.2376 36.4734C39.2268 36.8449 39.3769 37.2043 39.6589 37.4494L39.6769 37.458C39.9456 37.7078 40.3145 37.817 40.6714 37.7654C54.155 36.0123 63.7784 25.6425 64.086 12.5531L64.0988 12.5261C64.0872 12.155 63.9286 11.8137 63.6646 11.5772L63.6465 11.5686C63.3826 11.3322 63.018 11.2139 62.6655 11.2564C49.4686 12.8027 39.8362 23.1683 39.2371 36.4511L39.2285 36.4691L39.2376 36.4734ZM47.9001 21.2599C51.4398 17.3854 56.1149 14.8713 61.5093 13.9401C60.6226 24.5938 52.7956 33.0058 41.8447 35.0456C42.3887 29.8331 44.5096 24.9839 47.9001 21.2599Z" fill="#009174" fill-opacity="0.2"/>
<path d="M12.4368 13.255L12.4187 13.2464C12.052 13.249 11.6969 13.39 11.4561 13.663L11.4475 13.681C11.1977 13.9498 11.0795 14.3143 11.1224 14.6892C12.7715 27.8796 23.1938 37.4394 36.4701 37.9357C36.8416 37.9465 37.192 37.7921 37.4418 37.5234C37.6916 37.2547 37.8188 36.8944 37.7849 36.5238C36.4385 23.4886 26.0205 13.9199 12.432 13.2417L12.4368 13.255ZM35.1098 35.3496C29.6656 34.8504 24.7984 32.7208 20.9677 29.1356C17.2918 25.6905 14.7824 21.0287 13.8379 15.8716C24.9129 17.0365 33.3907 24.7952 35.1189 35.3539L35.1098 35.3496Z" fill="#009174" fill-opacity="0.2"/>
<path d="M37.9328 40.2827L37.9414 40.2647C37.9388 39.8979 37.7978 39.5428 37.5158 39.2977L37.4977 39.2891C37.229 39.0393 36.8554 38.9168 36.4895 38.9641C23.0059 40.7172 13.3825 51.087 13.075 64.1764L13.0621 64.2034C13.0737 64.5745 13.2323 64.9159 13.4963 65.1523L13.5143 65.1609C13.7873 65.4017 14.1429 65.5156 14.4954 65.4731C27.6923 63.9268 37.3247 53.5612 37.9238 40.2784L37.9328 40.2827ZM15.6606 62.7937C16.5426 52.1266 24.3786 43.719 35.3252 41.6882C34.7813 46.9007 32.6603 51.7499 29.2698 55.4739C25.7301 59.3484 21.055 61.8625 15.6606 62.7937Z" fill="#009174" fill-opacity="0.2"/>
<path d="M40.7091 38.8023L40.6821 38.7894C40.3153 38.7919 39.9692 38.9373 39.7327 39.2013L39.7156 39.2373C39.461 39.4927 39.3428 39.8573 39.3944 40.2142C40.745 53.2403 51.163 62.8091 64.7111 63.4791L64.7291 63.4877C65.1006 63.4985 65.4691 63.3527 65.7188 63.084L65.7275 63.066C65.9906 62.7925 66.1088 62.4279 66.0658 62.053C64.4168 48.8627 53.9945 39.3029 40.7182 38.8066L40.7091 38.8023ZM42.0604 41.384C47.5046 41.8833 52.3719 44.0128 56.2025 47.5981C59.8784 51.0432 62.3879 55.705 63.3323 60.8621C52.2573 59.6972 43.7795 51.9385 42.0514 41.3797L42.0604 41.384Z" fill="#009174" fill-opacity="0.2"/>
</svg>
