<svg width="282" height="200" viewBox="0 0 282 200" fill="none" xmlns="http://www.w3.org/2000/svg">
<path d="M263.652 20.6992C263.238 19.1526 261.972 17.8871 260.426 17.4727C258.938 17.0731 257.384 17.5023 256.267 18.6198L245.129 29.7572C243.405 31.4814 243.42 34.2047 245.174 35.9512C246.054 36.8318 247.187 37.2759 248.304 37.2759C249.422 37.2759 250.509 36.8466 251.368 35.9956L262.505 24.8582C263.623 23.7407 264.052 22.1867 263.652 20.6992Z" fill="#CCD9E1"/>
<path d="M276.773 61.8672H261.018C258.576 61.8672 256.666 63.8061 256.666 66.2777C256.666 68.7494 258.576 70.6883 261.018 70.6883H276.773C279.215 70.6883 281.124 68.7494 281.124 66.2777C281.124 63.8061 279.215 61.8672 276.773 61.8672Z" fill="#CCD9E1"/>
<path d="M214.847 0C212.376 0 210.437 1.90928 210.437 4.35137V20.1066C210.437 22.5487 212.376 24.4579 214.847 24.4579C217.319 24.4579 219.258 22.5487 219.258 20.1066V4.35137C219.258 1.90928 217.319 0 214.847 0Z" fill="#CCD9E1"/>
<path d="M198.804 177.473H95.4069L50.3022 199.999L48.5261 177.473H40.5709C18.6438 177.473 0.875732 159.697 0.875732 137.777V79.3301C0.875732 58.3133 17.2525 40.9448 38.2323 39.7016L203.14 29.9554C227.487 28.5197 247.364 49.1739 244.989 73.4468L238.321 141.64C236.33 161.969 219.243 177.473 198.811 177.473H198.804Z" fill="#CCD9E1"/>
<path d="M182.776 105C182.776 137.585 156.361 164 123.776 164C91.1911 164 64.7759 137.585 64.7759 105C64.7759 72.4152 91.1911 46 123.776 46C156.361 46 182.776 72.4152 182.776 105Z" fill="#F7DAD1"/>
<path fill-rule="evenodd" clip-rule="evenodd" d="M123.776 158.668C153.416 158.668 177.444 134.64 177.444 105C177.444 75.3599 153.416 51.3318 123.776 51.3318C94.1358 51.3318 70.1077 75.3599 70.1077 105C70.1077 134.64 94.1358 158.668 123.776 158.668ZM123.776 164C156.361 164 182.776 137.585 182.776 105C182.776 72.4152 156.361 46 123.776 46C91.1911 46 64.7759 72.4152 64.7759 105C64.7759 137.585 91.1911 164 123.776 164Z" fill="#013F6D"/>
<path fill-rule="evenodd" clip-rule="evenodd" d="M135.786 79.9116C139.669 76.0295 145.968 76.0295 149.85 79.9116C153.731 83.7932 153.732 90.0909 149.852 93.9732L138.339 105.496L149.864 117.011C153.746 120.893 153.746 127.192 149.864 131.074C145.983 134.955 139.685 134.956 135.803 131.076L124.279 119.563L112.765 131.088C108.883 134.971 102.584 134.971 98.702 131.088C94.8204 127.207 94.8198 120.909 98.7002 117.027L110.212 105.504L98.6875 93.9895C94.8053 90.1073 94.8053 83.8083 98.6875 79.9261C102.569 76.0445 108.867 76.044 112.749 79.9243L112.75 79.925L124.272 91.4366L135.786 79.9116Z" fill="#013F6D"/>
<path d="M146.1 90.2257C147.912 88.4142 147.912 85.4724 146.1 83.6609C144.289 81.8495 141.347 81.8495 139.536 83.6609L127.087 96.1219C125.534 97.6757 123.016 97.6769 121.463 96.1246L109.002 83.6754C107.19 81.864 104.248 81.864 102.437 83.6754C100.625 85.4869 100.625 88.4287 102.437 90.2402L114.898 102.689C116.452 104.242 116.453 106.76 114.9 108.313L102.451 120.774C100.64 122.586 100.64 125.528 102.451 127.339C104.263 129.151 107.205 129.151 109.016 127.339L121.465 114.878C123.018 113.324 125.535 113.323 127.089 114.875L139.55 127.325C141.362 129.136 144.303 129.136 146.115 127.325C147.926 125.513 147.926 122.571 146.115 120.76L133.654 108.311C132.1 106.758 132.099 104.24 133.651 102.687L146.1 90.2257Z" fill="#EB9D87"/>
</svg>
