<svg width="171" height="259" viewBox="0 0 171 259" fill="none" xmlns="http://www.w3.org/2000/svg">
<g clip-path="url(#clip0_1831_14863)">
<rect width="169.667" height="258.858" rx="25" transform="matrix(-1 0 0 1 170.333 0)" fill="#CCD9E1"/>
<g clip-path="url(#clip1_1831_14863)">
<path d="M222.076 289.08V107.14C222.076 107.14 203.236 32.3096 86.9663 31.2396C-29.3037 30.1696 -50.8337 107.14 -50.8337 107.14V289.08H222.076Z" fill="#FEC5B3" stroke="#003F6A" stroke-width="3" stroke-miterlimit="10"/>
<path d="M67.8863 45.5596C74.6163 45.5596 80.0663 51.0196 80.0663 57.7396C80.0663 64.4696 74.6063 69.9196 67.8863 69.9196C61.1563 69.9196 55.7063 64.4596 55.7063 57.7396C55.7063 51.0096 61.1663 45.5596 67.8863 45.5596Z" fill="white"/>
<path d="M102.287 45.5596C95.5567 45.5596 90.1067 51.0196 90.1067 57.7396C90.1067 64.4696 95.5667 69.9196 102.287 69.9196C109.017 69.9196 114.467 64.4596 114.467 57.7396C114.467 51.0096 109.007 45.5596 102.287 45.5596Z" fill="white"/>
<path d="M61.4259 80.3299C73.8965 80.3299 84.0059 70.2205 84.0059 57.7499C84.0059 45.2793 73.8965 35.1699 61.4259 35.1699C48.9554 35.1699 38.8459 45.2793 38.8459 57.7499C38.8459 70.2205 48.9554 80.3299 61.4259 80.3299Z" stroke="#003F6A" stroke-width="3"/>
<path d="M108.016 80.3299C120.486 80.3299 130.596 70.2205 130.596 57.7499C130.596 45.2793 120.486 35.1699 108.016 35.1699C95.5452 35.1699 85.4358 45.2793 85.4358 57.7499C85.4358 70.2205 95.5452 80.3299 108.016 80.3299Z" stroke="#003F6A" stroke-width="3"/>
<path d="M78.636 80.6797C78.636 85.3397 89.386 86.0597 89.386 80.6797" stroke="#FE8A66" stroke-width="3" stroke-linecap="round" stroke-linejoin="round"/>
<path d="M102.066 24.4404C102.126 24.1104 102.206 23.7804 102.296 23.4604C102.346 23.2904 102.396 23.1304 102.456 22.9704C102.476 22.9004 102.516 22.8404 102.536 22.7704C102.616 22.5104 102.376 23.0904 102.496 22.8604C102.636 22.6004 102.756 22.3304 102.906 22.0804C102.986 21.9504 103.076 21.8204 103.156 21.7004C103.406 21.3204 102.926 21.9404 103.226 21.6004C103.406 21.4004 103.586 21.2004 103.776 21.0204C103.816 20.9804 103.996 20.7804 104.046 20.7804C104.066 20.7804 103.696 21.0304 103.876 20.9104C103.956 20.8604 104.036 20.7904 104.116 20.7404C104.326 20.6004 104.546 20.4704 104.766 20.3604C104.836 20.3204 105.206 20.1504 104.896 20.2904C104.586 20.4304 105.046 20.2404 105.136 20.2104C105.366 20.1304 105.606 20.0804 105.846 20.0304C105.896 20.0204 105.956 20.0104 106.016 20.0004C106.266 19.9404 105.566 20.0304 105.816 20.0304C105.946 20.0304 106.076 20.0104 106.206 20.0004C106.456 20.0004 106.696 20.0004 106.936 20.0204C107.416 20.0404 106.576 19.9404 106.906 20.0204C107.056 20.0504 107.206 20.0804 107.356 20.1104C107.596 20.1704 107.836 20.2504 108.066 20.3304C108.436 20.4604 107.916 20.2504 108.016 20.3104C108.146 20.3904 108.296 20.4504 108.436 20.5204C108.616 20.6204 108.976 20.7704 109.086 20.9404C109.096 20.9604 108.756 20.6604 108.926 20.8104C108.966 20.8504 109.026 20.8904 109.066 20.9304C109.186 21.0404 109.316 21.1504 109.436 21.2704C109.556 21.3904 109.676 21.5104 109.786 21.6404C109.826 21.6904 109.866 21.7504 109.916 21.7904C110.096 21.9504 109.716 21.4904 109.846 21.6904C110.026 21.9804 110.226 22.2504 110.396 22.5504C110.486 22.7204 110.566 22.8904 110.656 23.0504C110.676 23.0904 110.786 23.3204 110.676 23.0804C110.546 22.8004 110.716 23.1904 110.736 23.2504C110.876 23.6404 110.996 24.0404 111.086 24.4404C111.326 25.4604 112.546 26.1604 113.546 25.8404C114.606 25.5004 115.196 24.4704 114.946 23.3804C114.186 20.1704 112.026 17.3704 108.816 16.3604C105.986 15.4704 102.796 16.3004 100.716 18.4004C99.3863 19.7504 98.5363 21.5404 98.1863 23.3804C97.9963 24.4004 98.4763 25.5904 99.5863 25.8404C100.576 26.0604 101.836 25.5404 102.046 24.4404H102.066Z" fill="#003F6A"/>
<path d="M53.5858 24.4404C53.6458 24.1104 53.7258 23.7804 53.8158 23.4604C53.8658 23.2904 53.9158 23.1304 53.9758 22.9704C53.9958 22.9004 54.0358 22.8404 54.0558 22.7704C54.1358 22.5104 53.8958 23.0904 54.0158 22.8604C54.1558 22.6004 54.2758 22.3304 54.4258 22.0804C54.5058 21.9504 54.5958 21.8204 54.6758 21.7004C54.9258 21.3204 54.4458 21.9404 54.7458 21.6004C54.9258 21.4004 55.1058 21.2004 55.2958 21.0204C55.3358 20.9804 55.5158 20.7804 55.5658 20.7804C55.5858 20.7804 55.2158 21.0304 55.3958 20.9104C55.4758 20.8604 55.5558 20.7904 55.6358 20.7404C55.8458 20.6004 56.0658 20.4704 56.2858 20.3604C56.3558 20.3204 56.7258 20.1504 56.4158 20.2904C56.1058 20.4304 56.5658 20.2404 56.6558 20.2104C56.8858 20.1304 57.1258 20.0804 57.3658 20.0304C57.4158 20.0204 57.4758 20.0104 57.5358 20.0004C57.7858 19.9404 57.0858 20.0304 57.3358 20.0304C57.4658 20.0304 57.5958 20.0104 57.7258 20.0004C57.9758 20.0004 58.2158 20.0004 58.4558 20.0204C58.9358 20.0404 58.0958 19.9404 58.4258 20.0204C58.5758 20.0504 58.7258 20.0804 58.8758 20.1104C59.1158 20.1704 59.3558 20.2504 59.5858 20.3304C59.9558 20.4604 59.4358 20.2504 59.5358 20.3104C59.6658 20.3904 59.8158 20.4504 59.9558 20.5204C60.1358 20.6204 60.4958 20.7704 60.6058 20.9404C60.6158 20.9604 60.2758 20.6604 60.4458 20.8104C60.4858 20.8504 60.5458 20.8904 60.5858 20.9304C60.7058 21.0404 60.8358 21.1504 60.9558 21.2704C61.0758 21.3904 61.1958 21.5104 61.3058 21.6404C61.3458 21.6904 61.3858 21.7504 61.4358 21.7904C61.6158 21.9504 61.2358 21.4904 61.3658 21.6904C61.5458 21.9804 61.7458 22.2504 61.9158 22.5504C62.0058 22.7204 62.0858 22.8904 62.1758 23.0504C62.1958 23.0904 62.3058 23.3204 62.1958 23.0804C62.0658 22.8004 62.2358 23.1904 62.2558 23.2504C62.3958 23.6404 62.5158 24.0404 62.6058 24.4404C62.8458 25.4604 64.0658 26.1604 65.0658 25.8404C66.1258 25.5004 66.7158 24.4704 66.4658 23.3804C65.7058 20.1704 63.5458 17.3704 60.3358 16.3604C57.5058 15.4704 54.3158 16.3004 52.2358 18.4004C50.9058 19.7504 50.0558 21.5404 49.7058 23.3804C49.5158 24.4004 49.9958 25.5904 51.1058 25.8404C52.0958 26.0604 53.3558 25.5404 53.5658 24.4404H53.5858Z" fill="#003F6A"/>
<path d="M54.5463 113.32C51.3263 112.86 51.7863 118.38 45.8063 122.65C39.8263 126.92 30.1763 115.62 30.1763 110.56C30.1763 105.5 38.9163 102.28 45.8063 99.9801C51.3263 98.1401 61.2863 105.12 65.5763 108.85H215.936V122.64H65.5863C60.6863 123.87 50.8763 127.06 47.1963 121.54" stroke="#FE8A66" stroke-width="3" stroke-linecap="round" stroke-linejoin="round"/>
<path d="M51.686 115.36C52.146 117.05 52.886 119.29 53.626 119.29" stroke="#FE8A66" stroke-width="2" stroke-linecap="round" stroke-linejoin="round"/>
<path d="M81.1663 128.01C81.4263 128.31 81.8063 128.49 82.2163 128.49H90.9063C91.4263 128.49 91.9063 128.2 92.1363 127.73C92.3663 127.26 92.3263 126.71 92.0163 126.29C90.1763 123.78 89.4763 120.39 90.0763 117.53C90.6663 114.73 94.2163 111.63 97.4663 111.03C98.1663 110.9 96.9163 111.13 96.8463 110.42C96.7863 109.71 96.1863 109.16 95.4763 109.16H85.4163C85.4163 109.16 85.3763 109.16 85.3563 109.16C83.9263 109.23 82.6263 110.26 81.6763 111.41C80.6663 112.62 79.7763 114.25 79.1863 116.06C78.0263 119.66 78.0063 124.32 81.1763 128L81.1663 128.01Z" fill="#F9BB47" stroke="#003F6A" stroke-width="3" stroke-linecap="round" stroke-linejoin="round"/>
<path d="M75.6958 102.05C75.6958 102.05 75.7258 101.99 75.8158 101.92C75.9558 101.81 76.1858 101.68 76.5258 101.54C77.2058 101.27 78.2058 101.02 79.4858 100.81C82.0358 100.38 85.5758 100.12 89.4858 100.12C93.3958 100.12 96.9458 100.39 99.4858 100.81C100.766 101.02 101.766 101.27 102.446 101.54C102.786 101.68 103.016 101.8 103.156 101.92C103.246 102 103.276 102.04 103.276 102.05V110.14C103.276 110.14 103.246 110.2 103.156 110.27C103.016 110.38 102.786 110.51 102.446 110.65C101.766 110.92 100.766 111.17 99.4858 111.38C96.9358 111.81 93.3958 112.07 89.4858 112.07C85.5758 112.07 82.0258 111.8 79.4858 111.38C78.2058 111.17 77.2058 110.92 76.5258 110.65C76.1858 110.51 75.9558 110.39 75.8158 110.27C75.7258 110.19 75.6958 110.15 75.6958 110.14V102.05Z" fill="#FD6D40" stroke="#003F6A" stroke-width="2"/>
<path d="M89.4962 104.25C96.9189 104.25 102.936 103.427 102.936 102.41C102.936 101.394 96.9189 100.57 89.4962 100.57C82.0734 100.57 76.0562 101.394 76.0562 102.41C76.0562 103.427 82.0734 104.25 89.4962 104.25Z" fill="#B5B5B5"/>
<path d="M102.936 102.411C102.936 103.331 98.0462 104.251 89.4962 104.251C79.3162 104.251 76.0562 103.331 76.0562 102.411C76.0562 101.901 81.7762 100.311 89.1962 100.311C96.6162 100.311 102.936 101.911 102.936 102.411Z" fill="#009174" stroke="#003F6A" stroke-width="2"/>
<path d="M74.6666 60.7805C74.6666 56.3346 71.0625 52.7305 66.6166 52.7305C62.1708 52.7305 58.5667 56.3346 58.5667 60.7805V61.2205C58.5667 65.6664 62.1708 69.2705 66.6166 69.2705C71.0625 69.2705 74.6666 65.6664 74.6666 61.2205V60.7805Z" fill="#003F6A"/>
<path d="M108.346 60.0598C108.346 55.6139 104.742 52.0098 100.296 52.0098C95.8503 52.0098 92.2462 55.6139 92.2462 60.0598V60.4998C92.2462 64.9457 95.8503 68.5498 100.296 68.5498C104.742 68.5498 108.346 64.9457 108.346 60.4998V60.0598Z" fill="#003F6A"/>
</g>
</g>
<defs>
<clipPath id="clip0_1831_14863">
<rect width="169.667" height="258.858" rx="25" transform="matrix(-1 0 0 1 170.333 0)" fill="white"/>
</clipPath>
<clipPath id="clip1_1831_14863">
<rect width="275.91" height="274.58" fill="white" transform="translate(-52.3337 16)"/>
</clipPath>
</defs>
</svg>
