<svg width="56" height="119" viewBox="0 0 56 119" fill="none" xmlns="http://www.w3.org/2000/svg">
<path d="M0.0439453 50.0042C-0.955807 81.5042 15.3769 109.17 25.0436 118.504L26.0436 107.558C29.7362 106.54 34.7526 105.883 37.5436 99.5039C40.7002 92.2888 37.4852 88.3273 35.968 87.2526C44.8247 92.2215 53.5672 83.4017 55.0436 77.0039C56.012 72.8073 55.5215 69.0276 52.2266 65.3956C56.291 62.8551 58.9039 52.3039 49.5439 44.5039C48.5863 43.7059 47.6245 43.0066 46.6627 42.3973C47.4772 41.6981 50.8634 39.0434 49.0437 31.5041C47.3634 24.5423 36.259 20.4063 25.0436 21.888C27.7102 13.5547 26.5439 9.00454 22.0439 4.00424C17.5439 -0.996094 4.54395 -0.496094 5.54395 6.00391C6.34394 11.2039 9.48282 15.5039 12.9828 26.0039C5.85732 30.2999 0.426056 37.9648 0.0439453 50.0042Z" fill="#F8DAC9"/>
<g style="mix-blend-mode:color-burn">
<path d="M33.0439 35.4999C24.2439 35.4999 20.7106 41.1666 20.0439 43.9999C21.2106 42.6666 25.4439 39.7999 33.0439 38.9999C40.6439 38.1999 45.5439 40.9999 47.0439 42.4999L49.0439 38.9999C47.3773 37.8332 41.8439 35.4999 33.0439 35.4999Z" fill="#80B2E1"/>
<path d="M39.0439 54.4999C29.8439 53.2999 25.8773 60.3332 25.0439 63.9999C27.0439 61.4999 32.6439 56.7999 39.0439 57.9999C45.4439 59.1999 50.3773 63.4999 52.0439 65.4999L54.0439 63.4999C52.8773 60.9999 48.2439 55.6999 39.0439 54.4999Z" fill="#80B2E1"/>
<path d="M35.5439 86.9999L37.5439 87.9999C39.5439 88.7999 42.3773 88.6665 43.5439 88.4999C40.6398 88.1772 39.9266 86.5313 39.9344 85.2946C40.6467 84.7302 46.5439 83.5 46.5439 83C46.5439 82.5 43.3248 80.5 39.9344 81C36.5439 81.5 35.5439 84 35.5439 86.9999Z" fill="#80B2E1"/>
<path d="M26.0649 107.647L25.0439 118.5L24.0439 109L22.5439 108.5C23.3439 108.1 25.5649 107.647 26.0649 107.647Z" fill="#80B2E1"/>
<path d="M25.0439 21.9999C20.6439 21.5999 15.2106 24.4999 13.0439 25.9999L12.5439 25C14.1666 25.3245 22.5439 21 24.0439 14C25.5439 7 18.8773 1.55818 13.5439 0C26.7439 1.6 27.7106 12 26.5439 17L25.0439 21.9999Z" fill="#80B2E1"/>
</g>
</svg>
