<svg width="30" height="28" viewBox="0 0 30 28" fill="none" xmlns="http://www.w3.org/2000/svg">
<path d="M21.3361 0.553339H21.3318C21.28 0.529674 21.2197 0.533981 21.1701 0.557646H21.1679C21.1183 0.583462 21.0817 0.628632 21.0666 0.684566C20.5233 2.6896 21.4697 4.68818 23.367 5.54441H23.3691C23.423 5.56807 23.4834 5.56592 23.5352 5.5401H23.5373C23.5891 5.51429 23.6257 5.46696 23.6408 5.41103C24.1712 3.35436 23.2225 1.35578 21.3382 0.551185L21.3361 0.553339ZM23.3131 5.08402C22.5865 4.70324 22.0044 4.11378 21.6616 3.40599C21.3038 2.66809 21.211 1.84413 21.39 1.00726C22.8884 1.75377 23.6537 3.37802 23.3131 5.08402Z" fill="#FD501A"/>
<path d="M18.434 8.08636C18.4103 8.1423 18.4124 8.20039 18.4383 8.25202C18.4642 8.3058 18.5095 8.34453 18.5655 8.35959C20.5792 8.88666 22.5756 7.92932 23.4186 6.03185C23.4423 5.97807 23.4401 5.91783 23.4164 5.8662C23.3927 5.81457 23.3474 5.77584 23.2914 5.75863C21.3187 5.19714 19.3222 6.15232 18.434 8.08421V8.08636ZM22.9637 6.08133C22.5756 6.8429 21.9827 7.42375 21.2367 7.77227C20.5231 8.10572 19.6974 8.19824 18.8932 8.03689C19.706 6.49869 21.3273 5.71991 22.9615 6.08133H22.9637Z" fill="#FD501A"/>
<path d="M25.874 10.9458H25.8783C25.93 10.9694 25.9904 10.9651 26.04 10.9415H26.0422C26.0917 10.9156 26.1305 10.8705 26.1435 10.8145C26.6868 8.80951 25.7403 6.81092 23.8431 5.9547H23.8409C23.7892 5.93103 23.7288 5.93319 23.6771 5.95685H23.6749C23.6232 5.98267 23.5844 6.02999 23.5693 6.08592C23.0389 8.14259 23.9875 10.1412 25.8718 10.9458H25.874ZM23.897 6.41508C24.6235 6.79587 25.2056 7.38533 25.5484 8.09311C25.9063 8.83101 25.999 9.65498 25.8201 10.4918C24.3217 9.74533 23.5542 8.11893 23.8948 6.41508H23.897Z" fill="#FD501A"/>
<path d="M28.7741 3.24601C28.7482 3.19222 28.703 3.1535 28.6448 3.13844C26.6311 2.61137 24.6347 3.56871 23.7917 5.46617V5.47046C23.768 5.5221 23.768 5.58018 23.7917 5.63181V5.63827C23.8197 5.68991 23.865 5.72647 23.9189 5.74153C25.8894 6.30088 27.8859 5.3457 28.772 3.42026C28.7957 3.36433 28.7957 3.30408 28.772 3.2503L28.7741 3.24601ZM24.2466 5.42099C24.6347 4.65942 25.2276 4.07857 25.9735 3.73005C26.6872 3.3966 27.5107 3.30408 28.3171 3.46543C27.5043 5.00363 25.883 5.78241 24.2488 5.42099H24.2466Z" fill="#FD501A"/>
<path d="M22.5796 27.7988C22.6604 27.7857 22.7122 27.7161 22.6971 27.6411C22.6086 27.2029 22.7816 26.4937 23.5702 25.9206C23.6199 25.884 23.7209 25.8185 23.8489 25.7569C23.8542 25.805 23.8595 25.853 23.8699 25.9043C23.8938 26.0228 23.9371 26.1503 24.0032 26.2822C24.0478 26.3728 24.0924 26.4634 24.1719 26.5524C24.3182 26.712 24.5453 26.7932 24.745 26.7607C24.915 26.7329 25.0386 26.6272 25.0984 26.4665C25.1696 26.2755 25.138 26.0319 25.011 25.8161C24.8949 25.6108 24.7111 25.4613 24.5167 25.4115C24.4473 25.3943 24.3289 25.3728 24.1693 25.3866C24.1738 25.3655 24.1791 25.3483 24.1836 25.3272C24.2434 25.1013 24.3236 24.9332 24.4192 24.8198C24.7008 24.4966 25.359 23.9081 25.9984 23.7916C25.9915 24.0619 26.0361 24.3482 26.1681 24.5672C26.286 24.76 26.4592 24.8786 26.6717 24.9092C27.0061 24.9566 27.1533 24.7939 27.2123 24.6946C27.2808 24.5774 27.2973 24.4198 27.2588 24.2507C27.2277 24.0968 27.1507 23.9544 27.0519 23.8563C26.8476 23.649 26.604 23.5297 26.3227 23.5063C26.3392 23.4139 26.3631 23.3366 26.3902 23.2751C26.7542 22.4899 27.7933 22.0921 28.6022 22.054C28.6845 22.0487 28.7422 21.9863 28.7398 21.9092C28.7331 21.8328 28.6651 21.7786 28.582 21.78C28.0863 21.8037 27.5824 21.9389 27.1529 22.1598C26.6636 22.4109 26.3079 22.7584 26.1177 23.1645C26.0742 23.2532 26.0412 23.3727 26.0165 23.5113C25.2714 23.6043 24.525 24.2561 24.1823 24.6464C24.054 24.7937 23.9616 24.9882 23.8885 25.257C23.8707 25.3211 23.858 25.3884 23.8487 25.4511C23.7047 25.499 23.545 25.5781 23.3771 25.7033C22.818 26.1085 22.2253 26.8698 22.3987 27.6856C22.4075 27.7291 22.4418 27.7683 22.4848 27.7858C22.5135 27.7974 22.5406 27.8011 22.5746 27.7956L22.5796 27.7988ZM26.2938 23.776C26.5039 23.7948 26.6792 23.8804 26.8383 24.0379C26.9698 24.1674 27.024 24.4358 26.9493 24.5662C26.9328 24.5934 26.8903 24.6656 26.7142 24.6413C26.5923 24.6245 26.4956 24.5587 26.4268 24.4353C26.3214 24.2609 26.2882 24.0094 26.293 23.7721L26.2938 23.776ZM24.1368 25.661C24.2346 25.6451 24.339 25.6403 24.437 25.6691C24.5528 25.6992 24.6702 25.8024 24.7499 25.9362C24.837 26.0851 24.8619 26.2523 24.8162 26.3739C24.7907 26.4433 24.7496 26.4786 24.6858 26.489C24.5923 26.5042 24.4683 26.4551 24.3905 26.374C24.3344 26.3139 24.3039 26.2495 24.2659 26.1701C24.2123 26.0565 24.173 25.9487 24.1531 25.85C24.1403 25.7869 24.1318 25.723 24.1318 25.6577L24.1368 25.661Z" fill="#009174"/>
<path d="M1.6706 14.439C1.57293 14.6357 1.52278 14.8466 1.46998 15.0718C1.44623 15.1715 1.42246 15.2713 1.39342 15.371C1.35911 15.4964 1.3195 15.619 1.28254 15.7416C1.22975 15.9126 1.17697 16.0864 1.13209 16.2603C0.97371 16.8674 0.944668 17.5001 0.92883 18.1471L0.923545 18.3352C0.912986 18.6032 0.902453 18.854 0.949968 19.1048C1.01068 19.4183 1.06874 19.6976 1.12945 19.9598C1.28519 20.6353 1.48317 21.2823 1.7181 21.8809C1.82369 22.2087 2.04809 22.4851 2.26982 22.7388C2.29622 22.7701 2.32524 22.8043 2.35164 22.8357C2.54434 23.0694 2.68688 23.2176 2.87694 23.1521C3.09339 23.0751 3.26763 22.9155 3.45505 22.7416C3.52632 22.6761 3.60022 22.6077 3.67413 22.5478C3.89587 22.3654 4.13079 22.1915 4.35781 22.0262L4.6086 21.841C4.86201 21.6529 5.11277 21.4476 5.35563 21.2481C5.67503 20.9859 6.00764 20.7152 6.3508 20.4757C6.99225 20.0283 7.58884 19.5523 8.17485 19.0193C8.35435 18.854 8.53648 18.6915 8.71862 18.5291C9.06178 18.2212 9.41551 17.9049 9.75339 17.5828C9.91969 17.4232 10.0913 17.2664 10.2628 17.1096C10.5875 16.8132 10.9201 16.5083 11.2211 16.1862C11.4428 15.9468 11.6804 15.7159 11.9074 15.4936C12.1608 15.2456 12.4221 14.992 12.665 14.724L12.8181 14.5587C13.0134 14.345 13.2167 14.1227 13.3962 13.8946C13.4886 13.7749 13.7209 13.4728 13.6997 13.316C13.6918 13.2647 13.6469 13.2248 13.5968 13.1764C13.5757 13.1564 13.5546 13.1365 13.5361 13.1165C13.449 13.0225 13.3724 12.9227 13.2985 12.823C13.2642 12.7774 13.2325 12.7318 13.1956 12.689C12.9844 12.4211 12.7864 12.1959 12.5911 12.005C12.1239 11.5489 11.5695 11.2497 10.994 10.9561C10.3895 10.6483 9.87217 10.4174 9.30991 10.2863L9.12514 10.2435C8.57872 10.1124 8.0666 9.98988 7.52546 10.0668C6.76786 10.1751 6.14755 10.3119 5.63017 10.4858C5.10751 10.6625 4.64025 11.0188 4.18886 11.3637L3.95921 11.5375C3.47614 11.8995 2.97461 12.2957 2.58922 12.8116C2.23286 13.2876 1.95832 13.8291 1.66003 14.4333L1.6706 14.439ZM4.49772 11.2981L4.72209 11.1328C5.39522 10.6397 6.12906 10.5001 6.90514 10.3519C7.01336 10.3319 7.12159 10.3091 7.23246 10.2891C8.05605 10.1238 8.85326 10.329 9.59237 10.5742C10.4556 10.8592 11.2131 11.2126 11.8467 11.623C12.1819 11.8396 12.4881 12.1047 12.76 12.4125C12.9158 12.5892 13.0557 12.7802 13.1692 12.9455C13.1876 12.974 13.2272 13.0139 13.2695 13.0567C13.3962 13.1878 13.4754 13.2762 13.4886 13.3645C13.4965 13.4329 13.4859 13.4871 13.4543 13.5298C13.4068 13.5925 13.3355 13.5982 13.2827 13.6039C13.2642 13.6039 13.2352 13.6068 13.2246 13.6125C13.2273 13.6125 13.2299 13.6239 13.2325 13.6296C13.2431 13.6609 13.2563 13.7008 13.2536 13.7521C13.2431 13.8519 13.2325 13.8775 13.1956 13.9516C13.148 14.0429 12.9606 14.3507 12.797 14.402C12.6782 14.439 12.5884 14.3934 12.5145 14.3564C12.4776 14.3364 12.4432 14.3193 12.4089 14.3136C12.3218 14.2965 12.2981 14.3136 12.2981 14.3136C12.2981 14.3336 12.3324 14.4362 12.3535 14.4903C12.3825 14.573 12.4116 14.6613 12.4116 14.7383C12.4116 15.0176 12.0842 15.2428 11.9417 15.3254C11.8599 15.3739 11.786 15.3796 11.7305 15.3853C11.6848 15.3891 11.6575 15.409 11.6487 15.4451L11.6408 15.4793C11.6012 15.639 11.5774 15.7102 11.4375 15.8499C11.4006 15.8869 11.361 15.9325 11.324 15.9753C11.2343 16.0807 11.1392 16.1862 11.0231 16.2546C10.8805 16.3372 10.7776 16.3145 10.6773 16.2888C10.6483 16.2831 10.6166 16.2746 10.5823 16.2689C10.5295 16.2603 10.5031 16.2632 10.4951 16.2689C10.4978 16.2746 10.4978 16.303 10.5163 16.3629C10.5268 16.4057 10.54 16.4342 10.5506 16.4598C10.6007 16.5909 10.5902 16.6508 10.482 16.799C10.3764 16.9443 10.2761 16.97 10.181 16.9957C10.1467 17.0042 10.1097 17.0128 10.0675 17.0299C10.0393 17.0413 10.0226 17.0631 10.0174 17.0954C10.0121 17.1353 10.0015 17.1895 9.96983 17.255C9.91176 17.3747 9.58446 17.7025 9.42871 17.7282C9.32576 17.7481 9.25185 17.7025 9.19906 17.6683C9.15946 17.6426 9.13568 17.6341 9.10929 17.6312C9.05913 17.6312 9.04594 17.6455 9.04594 17.6455C9.04066 17.6597 9.05123 17.7196 9.05915 17.7538L9.06707 17.8051C9.10139 18.0217 9.05651 18.0816 8.92452 18.2184L8.89813 18.244C8.8427 18.301 8.78196 18.3666 8.71069 18.4094C8.62358 18.4578 8.55233 18.4493 8.50217 18.4407C8.4705 18.435 8.45466 18.435 8.43618 18.4407C8.4045 18.4493 8.39393 18.4578 8.39129 18.4607C8.39921 18.4493 8.39658 18.4749 8.39658 18.4863C8.39658 18.5347 8.39922 18.606 8.36755 18.6915C8.28571 18.9081 7.86072 19.2958 7.63634 19.3243C7.53075 19.3357 7.44629 19.2844 7.3803 19.2416C7.29583 19.1875 7.26941 19.1789 7.22717 19.2045C7.19814 19.2217 7.19021 19.233 7.19021 19.233C7.19549 19.2245 7.20872 19.253 7.21928 19.2701C7.23776 19.3015 7.25886 19.3442 7.27206 19.3898C7.31957 19.558 7.27205 19.6691 7.22453 19.7318C7.1031 19.8943 6.84706 19.9285 6.66756 19.9285C6.67284 20.1252 6.53294 20.2306 6.4168 20.319L6.38776 20.3418C6.34289 20.376 6.30066 20.4159 6.25842 20.4586C6.16075 20.5527 6.06045 20.6467 5.93374 20.6923C5.75688 20.755 5.61962 20.698 5.47179 20.6211C5.44012 20.604 5.419 20.5954 5.40316 20.5897C5.40316 20.6011 5.40313 20.6182 5.40841 20.641C5.41369 20.6838 5.43218 20.718 5.45065 20.7579C5.49025 20.8463 5.5536 20.9802 5.41898 21.1398C5.31603 21.2624 5.04941 21.402 4.91743 21.4419C4.84615 21.4619 4.77491 21.4533 4.71155 21.4419C4.60597 21.4277 4.59538 21.4334 4.58482 21.4534C4.58482 21.4534 4.59275 21.4733 4.59539 21.4904C4.60859 21.5474 4.62707 21.6215 4.59539 21.7013C4.56371 21.7783 4.48451 21.8324 4.41852 21.8752C4.40268 21.8866 4.38951 21.8951 4.38159 21.9008C4.36047 21.9179 4.33407 21.9436 4.30767 21.9692C4.20472 22.069 4.07801 22.1887 3.94075 22.1773C3.84308 22.1687 3.77181 22.0975 3.71638 22.0405C3.67678 22.0006 3.64246 21.9664 3.61343 21.9635C3.57383 21.9578 3.56064 21.9664 3.55536 21.9692C3.55536 21.9692 3.5527 22.012 3.60286 22.126C3.61606 22.1545 3.62926 22.1716 3.64246 22.1887C3.69525 22.2628 3.73486 22.3398 3.65567 22.4937C3.61871 22.5678 3.54479 22.6191 3.48144 22.6647C3.46296 22.6761 3.44711 22.6903 3.43127 22.7017C3.42071 22.7103 3.40751 22.7245 3.39431 22.7359C3.33888 22.7929 3.24387 22.887 3.12509 22.8443C3.04589 22.8157 3.02476 22.7388 3.00892 22.6903C3.00628 22.6789 3.00099 22.6618 2.99835 22.659C2.97196 22.6447 2.95878 22.6476 2.95878 22.6476C2.9667 22.6476 2.95879 22.6846 2.96407 22.7473C2.96407 22.7644 2.96932 22.7844 2.97196 22.8015C2.98252 22.8613 2.99836 22.9468 2.94293 23.0124C2.90069 23.0637 2.83734 23.0751 2.77927 23.0751C2.76343 23.0751 2.74758 23.0751 2.73438 23.0751C2.53376 23.058 2.36747 22.8186 2.24604 22.6419C2.22228 22.6077 2.20381 22.5792 2.18533 22.5564C1.64419 21.8324 1.404 20.8206 1.2113 20.0055L1.19544 19.9342C1.08722 19.4725 0.973726 18.9965 0.949968 18.5233C0.93413 18.207 0.971076 17.8878 1.00539 17.5799L1.02914 17.369C1.22184 15.5307 1.83425 13.9117 2.74759 12.8116C3.2465 12.2102 3.88531 11.7456 4.50301 11.2981H4.49772Z" fill="#F7A812"/>
<path d="M1.30373 19.98C1.50434 20.8293 1.74192 21.7984 2.2593 22.4881C2.36489 22.6307 2.55229 22.9527 2.73971 22.9698C2.93505 22.9841 2.87436 22.8843 2.8638 22.7646C2.8506 22.6306 2.87964 22.471 3.0565 22.5822C3.10929 22.6135 3.09609 22.7276 3.15416 22.7475C3.236 22.776 3.30989 22.6677 3.36796 22.6192C3.42604 22.5736 3.52634 22.5166 3.5633 22.4454C3.63985 22.2972 3.56331 22.2972 3.50788 22.1746C3.43924 22.0236 3.39437 21.844 3.61083 21.8582C3.74018 21.8639 3.81145 22.0578 3.94079 22.072C4.0675 22.0834 4.22325 21.8896 4.31564 21.8155C4.35788 21.7813 4.47401 21.7186 4.49777 21.6587C4.53208 21.5732 4.4608 21.4706 4.48984 21.4079C4.55847 21.254 4.74589 21.3766 4.8858 21.3338C5.00458 21.2996 5.25538 21.1657 5.33985 21.063C5.47184 20.9034 5.33193 20.8265 5.30553 20.6555C5.26858 20.4303 5.36622 20.4474 5.50877 20.5215C5.64075 20.5899 5.75164 20.6384 5.89683 20.5871C6.05785 20.5301 6.18719 20.3562 6.32446 20.2507C6.4802 20.131 6.61481 20.0484 6.5409 19.8147C6.80751 19.8346 7.27738 19.7947 7.1718 19.4156C7.13748 19.2902 7.00285 19.2076 7.1718 19.1021C7.34338 18.9938 7.44895 19.2304 7.61789 19.2104C7.80531 19.1876 8.20129 18.8228 8.26992 18.6432C8.33592 18.4722 8.21713 18.3867 8.40455 18.3297C8.49694 18.3012 8.55501 18.3668 8.6606 18.3069C8.72923 18.267 8.79786 18.19 8.85329 18.133C8.97208 18.0076 8.99321 17.9848 8.96681 17.8138C8.94569 17.6713 8.89023 17.5231 9.10405 17.5146C9.22812 17.5089 9.28092 17.6343 9.41026 17.6115C9.52377 17.5915 9.82735 17.2979 9.88014 17.1925C9.94613 17.0557 9.88013 16.9759 10.0306 16.916C10.1916 16.8533 10.284 16.8818 10.4028 16.7193C10.5295 16.5455 10.4741 16.5683 10.4213 16.383C10.3659 16.1778 10.4239 16.1294 10.5955 16.1522C10.746 16.175 10.8304 16.2348 10.9756 16.1493C11.1261 16.0609 11.2475 15.8814 11.3689 15.7588C11.5036 15.6249 11.5088 15.5764 11.5511 15.4054C11.6039 15.2002 11.7279 15.3171 11.8916 15.2202C12.0421 15.1318 12.3113 14.9351 12.3113 14.7271C12.3113 14.5275 12.0104 14.1228 12.4248 14.1969C12.5542 14.2197 12.636 14.3309 12.7706 14.2881C12.8788 14.2539 13.0451 14.0145 13.1006 13.9091C13.1428 13.8293 13.1481 13.8236 13.1587 13.7323C13.164 13.6725 13.1059 13.6155 13.1402 13.5499C13.2062 13.4302 13.4173 13.5613 13.3936 13.3732C13.3804 13.2792 13.156 13.0911 13.0953 13.0027C12.9686 12.8203 12.8393 12.6436 12.6914 12.4783C12.4275 12.179 12.1265 11.9196 11.7966 11.7087C11.1102 11.2641 10.3289 10.9221 9.56339 10.6684C8.80843 10.4176 8.03763 10.2295 7.251 10.3891C6.3799 10.5629 5.52724 10.6684 4.7802 11.2156C4.1018 11.7144 3.37062 12.2132 2.81892 12.8773C1.80791 14.0943 1.29315 15.7759 1.12421 17.3749C1.08462 17.7511 1.02656 18.133 1.04504 18.5121C1.0688 18.9995 1.19286 19.5011 1.30373 19.9714V19.98ZM1.19813 17.6086L1.22188 17.3948C1.41194 15.6021 2.00325 14.0231 2.89019 12.9542C3.37326 12.3728 4.00151 11.9168 4.60865 11.475L4.83302 11.3097C5.46919 10.8423 6.18454 10.7054 6.9395 10.5629C7.04773 10.543 7.15859 10.5202 7.26682 10.5002C7.46216 10.4603 7.65488 10.4432 7.84493 10.4432C8.42567 10.4432 8.99318 10.6 9.53168 10.7767C10.379 11.056 11.1208 11.4037 11.7411 11.8056C12.0606 12.0137 12.3535 12.2673 12.6149 12.5581C12.7653 12.7262 12.8973 12.9115 13.0108 13.0711C13.0346 13.1053 13.0821 13.1538 13.1322 13.2079C13.1771 13.2535 13.2537 13.3333 13.2827 13.3846C13.2775 13.3846 13.2722 13.3846 13.2695 13.3846C13.2088 13.3903 13.1085 13.396 13.0531 13.4986C13.0082 13.5813 13.0346 13.6582 13.0478 13.701C13.0504 13.7095 13.0557 13.7238 13.0557 13.7238C13.0522 13.7656 13.0372 13.8112 13.0108 13.8606C12.9475 13.9832 12.7997 14.1713 12.7416 14.1884C12.6967 14.2026 12.6598 14.1884 12.5964 14.1542C12.5515 14.1314 12.5014 14.1057 12.438 14.0943C12.3483 14.0772 12.2189 14.0658 12.1476 14.1627C12.0658 14.2682 12.116 14.4135 12.1635 14.5561C12.1846 14.6188 12.2084 14.6929 12.211 14.7328C12.211 14.8582 12.0209 15.0263 11.8441 15.1289C11.7992 15.1546 11.757 15.1603 11.7121 15.1631C11.6303 15.1717 11.5062 15.1831 11.456 15.3798L11.4481 15.414C11.4138 15.5508 11.4059 15.5793 11.3029 15.6847C11.2607 15.7275 11.2211 15.7731 11.1789 15.8215C11.0997 15.9127 11.0152 16.0096 10.9281 16.0609C10.8515 16.1066 10.8067 16.0952 10.7196 16.0752C10.6852 16.0667 10.6509 16.0581 10.6087 16.0524C10.5216 16.0382 10.4134 16.0353 10.3447 16.118C10.2761 16.2035 10.2998 16.3317 10.3236 16.4172C10.3368 16.4685 10.3526 16.5056 10.3632 16.5369C10.3685 16.5512 10.3764 16.5683 10.3764 16.5683C10.3764 16.574 10.3659 16.5939 10.321 16.6566C10.2576 16.745 10.2127 16.7564 10.1283 16.7763C10.0887 16.7877 10.0438 16.7992 9.99363 16.8191C9.85636 16.8733 9.83263 16.9588 9.81679 17.05C9.81151 17.0842 9.80624 17.1098 9.7904 17.144C9.74288 17.2381 9.46571 17.4917 9.3918 17.506C9.36012 17.5117 9.33901 17.5003 9.29413 17.4718C9.24662 17.4404 9.18855 17.4062 9.0988 17.4062C9.00113 17.4091 8.93248 17.4405 8.88761 17.5003C8.82425 17.5858 8.84538 17.6941 8.86122 17.7825L8.86914 17.8281C8.88146 17.9079 8.85329 17.9829 8.78465 18.0532L8.75826 18.0817C8.71339 18.1302 8.66322 18.1844 8.61571 18.21C8.58403 18.2271 8.56556 18.2242 8.52597 18.2185C8.48637 18.2128 8.43884 18.2043 8.38077 18.2243C8.20391 18.2756 8.19072 18.3867 8.19336 18.4836C8.19336 18.5235 8.19335 18.5549 8.18015 18.6005C8.12472 18.7458 7.75518 19.085 7.60735 19.1021C7.56776 19.1078 7.52288 19.0793 7.47273 19.048C7.39089 18.9967 7.26948 18.9168 7.12166 19.0081C7.05038 19.0537 7.00812 19.1021 6.99492 19.1648C6.97381 19.2503 7.01342 19.3187 7.04245 19.3729C7.05565 19.3985 7.07149 19.4242 7.07677 19.4441C7.10053 19.5296 7.08204 19.5695 7.06356 19.5923C7.00021 19.6778 6.79168 19.7235 6.54619 19.7064L6.39835 19.6949L6.44588 19.846C6.48811 19.9828 6.44589 20.0256 6.29543 20.1396L6.26636 20.1624C6.21621 20.1994 6.16871 20.245 6.1212 20.2935C6.03936 20.3733 5.95226 20.4531 5.86515 20.4845C5.75692 20.5244 5.67244 20.4844 5.55101 20.4246C5.48238 20.3904 5.35568 20.3248 5.26593 20.3989C5.1841 20.4645 5.19467 20.5871 5.20787 20.6726C5.21843 20.7438 5.24746 20.8037 5.26857 20.8493C5.30553 20.9291 5.31081 20.9405 5.26857 20.9918C5.20258 21.0716 4.97556 21.197 4.86205 21.2312C4.82773 21.2398 4.78022 21.234 4.73271 21.2283C4.6324 21.2141 4.47665 21.1942 4.40274 21.3623C4.37371 21.425 4.38954 21.4906 4.40274 21.5419C4.40802 21.5704 4.41595 21.6046 4.41331 21.6131C4.40011 21.6331 4.3394 21.6758 4.313 21.6929C4.29188 21.7072 4.27603 21.7186 4.26283 21.7271C4.23643 21.7471 4.20741 21.7756 4.17573 21.8069C4.11238 21.8668 4.00941 21.9722 3.95661 21.9608C3.92494 21.9608 3.89065 21.921 3.85105 21.8811C3.79298 21.824 3.72435 21.7528 3.6214 21.7471C3.51053 21.7442 3.43662 21.7756 3.39174 21.8469C3.32311 21.9609 3.37855 22.1148 3.42606 22.2202C3.44454 22.263 3.46565 22.2943 3.48413 22.32C3.48941 22.3285 3.49995 22.3428 3.49995 22.3428C3.49995 22.3428 3.49996 22.357 3.48149 22.3912C3.46829 22.4197 3.4102 22.4596 3.37325 22.4853C3.35213 22.4995 3.33102 22.5166 3.31254 22.5309C3.2967 22.5451 3.27824 22.5622 3.25976 22.5793C3.24392 22.5964 3.2175 22.6221 3.20166 22.6335C3.20166 22.6306 3.20166 22.6278 3.20166 22.6249C3.18846 22.5822 3.16999 22.5195 3.11192 22.4853C2.99049 22.4083 2.90868 22.4311 2.86116 22.4653C2.78725 22.5166 2.75291 22.6278 2.76875 22.7732C2.76875 22.796 2.77667 22.8216 2.77931 22.8444C2.77931 22.8501 2.77932 22.8558 2.78196 22.8644C2.7714 22.8644 2.76348 22.8644 2.75028 22.8644C2.63941 22.8558 2.49421 22.642 2.40446 22.5166C2.38071 22.4824 2.35695 22.4482 2.33847 22.4226C1.82373 21.7357 1.58881 20.7495 1.40139 19.9543L1.38554 19.8831C1.27731 19.4327 1.16911 18.9682 1.14535 18.515C1.13215 18.2157 1.16646 17.9079 1.20077 17.6086H1.19813Z" fill="#F7A812"/>
<path d="M2.44436 12.6806C2.07744 13.1737 1.79764 13.7209 1.49671 14.3365C1.38849 14.556 1.33307 14.7897 1.28027 15.0149C1.25651 15.1118 1.23539 15.2087 1.20635 15.3056C1.17204 15.4282 1.13507 15.5507 1.09547 15.6733C1.04268 15.8471 0.989896 16.0239 0.942381 16.2006C0.778719 16.8333 0.74703 17.4775 0.731191 18.1387L0.725907 18.3239C0.715348 18.5919 0.704788 18.8683 0.757582 19.1448C0.818295 19.4612 0.876386 19.7434 0.939739 20.0113C1.09812 20.6982 1.30138 21.3537 1.53632 21.9579C1.65246 22.3199 1.90323 22.6249 2.12761 22.8843C2.15401 22.9128 2.18038 22.947 2.20678 22.9783C2.35724 23.1607 2.5394 23.383 2.78754 23.383C2.83505 23.383 2.88783 23.3745 2.94063 23.3545C3.19404 23.2662 3.39468 23.0809 3.58737 22.9042C3.65601 22.8415 3.72462 22.776 3.79589 22.719C4.01499 22.5394 4.2473 22.3684 4.47167 22.2059L4.72507 22.0207C4.98112 21.8297 5.23453 21.6216 5.48003 21.4221C5.79679 21.1627 6.12678 20.8948 6.46202 20.6611C7.11139 20.2108 7.71588 19.7291 8.30718 19.1904C8.48668 19.028 8.6688 18.8655 8.85094 18.703C9.1941 18.3952 9.55048 18.076 9.891 17.7539C10.0573 17.5971 10.2262 17.4404 10.3978 17.2836C10.7251 16.9844 11.063 16.6765 11.3692 16.3488C11.5883 16.1122 11.8233 15.8842 12.0503 15.6647C12.3063 15.4168 12.5703 15.1574 12.8158 14.8866L12.9662 14.7213C13.1669 14.5047 13.3728 14.2795 13.5628 14.0344C13.6948 13.8634 13.9403 13.547 13.9033 13.2962C13.8849 13.168 13.8004 13.091 13.7344 13.0283C13.7159 13.0112 13.7001 12.9941 13.6843 12.9798C13.6051 12.8943 13.5364 12.8031 13.4625 12.7034C13.4282 12.6578 13.3939 12.6122 13.3569 12.5666C13.1405 12.2901 12.9372 12.0592 12.7339 11.8626C12.2456 11.3866 11.6781 11.0788 11.0894 10.7795C10.4717 10.466 9.9438 10.2323 9.36306 10.0954L9.1809 10.0527C8.6424 9.92444 8.08544 9.79048 7.51262 9.87314C6.74183 9.98145 6.11356 10.1211 5.58562 10.3007C5.03128 10.4888 4.55348 10.8536 4.08889 11.207L3.86188 11.378C3.36826 11.7486 2.85088 12.1561 2.44964 12.692L2.44436 12.6806ZM5.60673 10.3919C6.21386 10.1867 6.88702 10.0584 7.51791 9.97004C8.13824 9.88168 8.73214 10.0527 9.33664 10.1924C9.93585 10.332 10.4902 10.5885 11.0419 10.8707C11.62 11.1643 12.1849 11.4692 12.6627 11.9367C12.8818 12.1504 13.085 12.387 13.2751 12.6293C13.386 12.7689 13.4863 12.92 13.6077 13.0511C13.679 13.128 13.7819 13.1936 13.8004 13.3105C13.8321 13.5185 13.5892 13.8292 13.4757 13.9717C13.2487 14.2653 12.9874 14.5361 12.7392 14.8097C12.2746 15.3199 11.7625 15.7673 11.2927 16.2718C10.8334 16.7649 10.3081 17.2067 9.81973 17.6713C9.30498 18.1615 8.76384 18.6289 8.23854 19.1077C7.65253 19.6407 7.04801 20.1224 6.40392 20.5728C5.80471 20.9889 5.25038 21.4962 4.66436 21.9352C4.35288 22.166 4.03347 22.3912 3.73254 22.6391C3.46857 22.8558 3.23099 23.1465 2.90631 23.2605C2.59482 23.3688 2.3863 23.0382 2.19624 22.8187C1.97187 22.5593 1.73692 22.2715 1.62606 21.9294C1.38056 21.3024 1.18523 20.6526 1.03212 19.9913C0.966129 19.7063 0.908074 19.4184 0.85264 19.1306C0.791927 18.8056 0.82094 18.4779 0.828859 18.1472C0.844698 17.5031 0.873745 16.859 1.03741 16.2348C1.1166 15.9355 1.21426 15.6419 1.29874 15.3427C1.38849 15.0234 1.43599 14.6928 1.58117 14.3935C1.85834 13.8264 2.14608 13.2535 2.51828 12.7547C2.90632 12.2331 3.40259 11.8398 3.90941 11.4607C4.44263 11.0617 4.97851 10.6085 5.60412 10.3976L5.60673 10.3919Z" fill="#F7A812"/>
<path d="M2.52125 12.7486C2.14641 13.2502 1.86131 13.8203 1.58414 14.3875C1.43895 14.6867 1.39145 15.0174 1.3017 15.3366C1.21723 15.6358 1.11693 15.9294 1.04038 16.2287C0.876713 16.8529 0.850306 17.497 0.831828 18.1412C0.823909 18.4718 0.792223 18.7996 0.855576 19.1245C0.91101 19.4123 0.969098 19.7002 1.03509 19.9852C1.18819 20.6465 1.38353 21.2963 1.62903 21.9234C1.73989 22.2654 1.97484 22.5533 2.19921 22.8126C2.38927 23.0321 2.59779 23.3627 2.90928 23.2544C3.23396 23.1404 3.47154 22.8497 3.73551 22.6331C4.03643 22.3851 4.35585 22.1628 4.66733 21.9291C5.25599 21.4901 5.80768 20.9828 6.40689 20.5667C7.05098 20.1192 7.65549 19.6375 8.24151 19.1017C8.76681 18.6229 9.30795 18.1554 9.82269 17.6652C10.311 17.2006 10.8363 16.7588 11.2956 16.2657C11.7655 15.7613 12.2776 15.3138 12.7422 14.8036C12.9903 14.53 13.2517 14.2592 13.4787 13.9656C13.5922 13.8203 13.8324 13.5125 13.8034 13.3044C13.7875 13.1875 13.6819 13.122 13.6107 13.045C13.4892 12.9139 13.3889 12.7657 13.2781 12.6232C13.088 12.3781 12.8848 12.1444 12.6657 11.9306C12.1879 11.4632 11.623 11.1582 11.0449 10.8646C10.4932 10.5853 9.93882 10.3288 9.33961 10.1863C8.73511 10.0438 8.14117 9.87562 7.52084 9.96398C6.88995 10.0523 6.21683 10.1806 5.60969 10.3858C4.98144 10.5996 4.44824 11.0499 3.91502 11.4489C3.41084 11.828 2.91193 12.2213 2.52389 12.7429L2.52125 12.7486ZM3.9678 11.543L4.19746 11.3691C4.64885 11.0242 5.11343 10.668 5.63873 10.4913C6.15611 10.3174 6.77382 10.1806 7.53405 10.0723C8.07519 9.99533 8.58995 10.1207 9.13373 10.249L9.3185 10.2917C9.88076 10.4228 10.3981 10.6537 11.0026 10.9615C11.5781 11.2523 12.1324 11.5515 12.5997 12.0104C12.795 12.2014 12.993 12.4265 13.2041 12.6944C13.2385 12.74 13.2728 12.7828 13.3071 12.8284C13.381 12.9282 13.4576 13.0279 13.5447 13.122C13.5632 13.1419 13.5843 13.1619 13.6054 13.1818C13.6582 13.2303 13.7004 13.2702 13.7083 13.3215C13.7321 13.4783 13.4998 13.7775 13.4048 13.9001C13.2253 14.131 13.022 14.3504 12.8267 14.5642L12.6736 14.7295C12.4307 14.9974 12.1694 15.2511 11.916 15.499C11.6889 15.7214 11.4514 15.9522 11.2296 16.1916C10.9287 16.5137 10.5935 16.8187 10.2714 17.1151C10.0998 17.2719 9.92829 17.4286 9.76198 17.5882C9.4241 17.9103 9.07037 18.2267 8.72721 18.5345C8.54507 18.6969 8.36291 18.8594 8.18341 19.0247C7.5974 19.5577 7.00084 20.0337 6.3594 20.4812C6.01623 20.7206 5.68362 20.9914 5.36422 21.2536C5.12137 21.4531 4.87057 21.6583 4.61716 21.8464L4.3664 22.0317C4.13939 22.197 3.90446 22.3709 3.68273 22.5533C3.60881 22.6131 3.53752 22.6815 3.46361 22.7471C3.27883 22.9181 3.10199 23.0805 2.88553 23.1575C2.69547 23.2231 2.55293 23.0749 2.36023 22.8411C2.33119 22.8069 2.30478 22.7727 2.27838 22.7442C2.05665 22.4906 1.83228 22.2141 1.72669 21.8863C1.49176 21.2849 1.29379 20.6379 1.13804 19.9653C1.07733 19.7031 1.01924 19.4237 0.958529 19.1102C0.911014 18.8594 0.921579 18.6057 0.932138 18.3407L0.937423 18.1526C0.953261 17.5056 0.982303 16.8728 1.14069 16.2657C1.18556 16.0919 1.23834 15.9209 1.29113 15.747C1.32809 15.6244 1.3677 15.499 1.40201 15.3765C1.43105 15.2767 1.45482 15.177 1.47858 15.0772C1.53137 14.8521 1.58149 14.6411 1.67916 14.4445C1.97481 13.8402 2.25199 13.2987 2.60835 12.8227C2.99374 12.3068 3.49531 11.9107 3.97837 11.5487L3.9678 11.543Z" fill="#F7A812"/>
<path d="M1.0011 17.5836C0.96678 17.8915 0.929834 18.2107 0.945672 18.5271C0.96943 19.0002 1.08028 19.4762 1.19115 19.9379L1.207 20.0092C1.3997 20.8243 1.6399 21.8361 2.18104 22.5601C2.19952 22.5829 2.22063 22.6142 2.24175 22.6456C2.36317 22.8223 2.5295 23.0617 2.73012 23.0788C2.74332 23.0788 2.75913 23.0788 2.77497 23.0788C2.83305 23.0788 2.8964 23.0674 2.93863 23.0161C2.99143 22.9506 2.97822 22.8679 2.96767 22.8052C2.96503 22.7881 2.96241 22.771 2.95977 22.751C2.95449 22.6883 2.95977 22.6513 2.95449 22.6513C2.95449 22.6513 2.97033 22.6513 2.99409 22.6627C2.99673 22.6684 3.00199 22.6855 3.00463 22.694C3.01782 22.7396 3.0416 22.8194 3.12079 22.8479C3.23958 22.8907 3.33197 22.7966 3.39005 22.7396C3.40324 22.7254 3.41645 22.714 3.42701 22.7054C3.4402 22.694 3.45867 22.6826 3.47714 22.6684C3.5405 22.6228 3.61178 22.5715 3.65137 22.4974C3.73057 22.3435 3.69096 22.2665 3.63816 22.1924C3.6276 22.1753 3.61176 22.1554 3.59856 22.1297C3.54577 22.0157 3.55106 21.9729 3.55106 21.9729C3.5537 21.9729 3.56953 21.9615 3.60913 21.9672C3.63817 21.9672 3.67513 22.0043 3.71208 22.0442C3.76752 22.1012 3.83614 22.1696 3.93645 22.181C4.07372 22.1924 4.20307 22.0699 4.30337 21.9729C4.32977 21.9473 4.35618 21.9216 4.37729 21.9045C4.38521 21.8988 4.39842 21.8874 4.41425 21.8789C4.48025 21.8361 4.55942 21.782 4.59109 21.705C4.62277 21.6252 4.60693 21.5483 4.59109 21.4941C4.58845 21.477 4.58056 21.457 4.58056 21.457C4.58848 21.4371 4.60167 21.4314 4.70726 21.4457C4.77061 21.4542 4.84186 21.4628 4.91313 21.4457C5.04512 21.4086 5.31173 21.2689 5.41468 21.1435C5.54931 20.9839 5.48595 20.85 5.44636 20.7616C5.42788 20.7217 5.41206 20.6875 5.40414 20.6447C5.4015 20.6219 5.39886 20.6077 5.39886 20.5934C5.4147 20.5991 5.43582 20.6077 5.46749 20.6248C5.61532 20.7017 5.74994 20.7588 5.92944 20.696C6.05615 20.6504 6.15645 20.5564 6.25412 20.4623C6.29636 20.4196 6.34123 20.3797 6.38347 20.3455L6.4125 20.3227C6.52865 20.2343 6.66854 20.1289 6.66326 19.9322C6.84276 19.9322 7.10148 19.898 7.22027 19.7355C7.26778 19.6728 7.31264 19.5617 7.26776 19.3935C7.25456 19.3451 7.23082 19.3052 7.21498 19.2738C7.20442 19.2567 7.19123 19.2282 7.18595 19.2368C7.18595 19.2368 7.19384 19.2254 7.22288 19.2083C7.26511 19.1826 7.29153 19.1912 7.376 19.2453C7.44199 19.2881 7.52645 19.3394 7.63204 19.328C7.85906 19.2995 8.28142 18.9118 8.36325 18.6952C8.39492 18.6097 8.39492 18.5385 8.39228 18.49C8.39228 18.4786 8.39228 18.4501 8.387 18.4643C8.38964 18.4643 8.40285 18.453 8.43188 18.4444C8.45036 18.4387 8.4662 18.4416 8.49788 18.4444C8.54803 18.453 8.61931 18.4615 8.70642 18.413C8.77769 18.3731 8.84104 18.3076 8.89383 18.2477L8.92022 18.2221C9.05221 18.0853 9.09709 18.0254 9.06278 17.8088L9.05485 17.7575C9.04957 17.7233 9.039 17.6634 9.04164 17.6492C9.04164 17.6492 9.05483 17.6378 9.10499 17.6349C9.13139 17.6349 9.15517 17.6463 9.19476 17.672C9.24756 17.7062 9.32147 17.7518 9.42442 17.7319C9.58016 17.7034 9.90746 17.3784 9.96554 17.2587C9.99721 17.1932 10.0051 17.139 10.0131 17.0991C10.0183 17.0668 10.035 17.045 10.0632 17.0336C10.1054 17.0165 10.1424 17.0079 10.1767 16.9994C10.2718 16.9737 10.3721 16.9481 10.4777 16.8027C10.5859 16.6545 10.5991 16.5946 10.5463 16.4635C10.5357 16.4407 10.5252 16.4094 10.512 16.3666C10.4961 16.3039 10.4935 16.2754 10.4908 16.2726C10.4988 16.2726 10.5252 16.2669 10.578 16.2726C10.6123 16.2783 10.644 16.2839 10.673 16.2925C10.7733 16.3153 10.8762 16.341 11.0188 16.2583C11.1349 16.1899 11.2273 16.0816 11.3197 15.979C11.3593 15.9334 11.3963 15.8906 11.4332 15.8536C11.5731 15.7139 11.5943 15.6427 11.6365 15.4831L11.6444 15.4489C11.6532 15.4128 11.6805 15.3928 11.7262 15.389C11.779 15.3833 11.8556 15.3776 11.9374 15.3291C12.08 15.2465 12.4099 15.0213 12.4073 14.742C12.4073 14.665 12.3782 14.5767 12.3492 14.494C12.3307 14.437 12.2938 14.3344 12.2938 14.3173C12.2938 14.3173 12.3175 14.3031 12.4046 14.3173C12.4389 14.323 12.4759 14.3401 12.5102 14.3601C12.5841 14.3971 12.6739 14.4427 12.7927 14.4057C12.9563 14.3544 13.1438 14.0494 13.1913 13.9554C13.2282 13.8813 13.2414 13.8556 13.2494 13.7558C13.2546 13.7045 13.2388 13.6646 13.2282 13.6333C13.2282 13.6276 13.223 13.6162 13.2203 13.6162C13.2309 13.6105 13.2599 13.6076 13.2784 13.6076C13.3312 13.6048 13.4025 13.5991 13.45 13.5335C13.4816 13.4908 13.4922 13.4366 13.4843 13.3682C13.4737 13.277 13.3945 13.1915 13.2652 13.0604C13.2229 13.0176 13.1833 12.9777 13.1649 12.9492C13.0487 12.7839 12.9115 12.593 12.7557 12.4162C12.4838 12.1113 12.175 11.8462 11.8424 11.6267C11.2088 11.2163 10.4513 10.8629 9.58808 10.5779C8.84896 10.3328 8.05175 10.1304 7.22816 10.2928C7.11993 10.3157 7.00907 10.3356 6.90084 10.3556C6.12476 10.5038 5.39092 10.6434 4.71779 11.1365L4.49343 11.3018C3.87573 11.7522 3.23956 12.2139 2.73801 12.8153C1.82467 13.9155 1.21226 15.5344 1.01956 17.3727L0.995811 17.5836H1.0011ZM1.12515 17.3841C1.2941 15.7852 1.80885 14.1036 2.81986 12.8865C3.37156 12.2224 4.10274 11.7237 4.78114 11.2249C5.53082 10.6748 6.38348 10.5722 7.25194 10.3983C8.03593 10.2415 8.80937 10.4297 9.56433 10.6776C10.3298 10.9313 11.1085 11.2705 11.7975 11.7179C12.1248 11.9317 12.4258 12.1911 12.6924 12.4875C12.8376 12.6528 12.9695 12.8295 13.0962 13.0119C13.1569 13.1003 13.384 13.2884 13.3945 13.3825C13.4183 13.5706 13.2071 13.4395 13.1411 13.5592C13.1042 13.6247 13.1649 13.6817 13.1596 13.7416C13.1517 13.8328 13.1437 13.8385 13.1015 13.9183C13.0487 14.0238 12.8798 14.266 12.7715 14.2974C12.6369 14.3401 12.5551 14.229 12.4258 14.2062C12.014 14.1292 12.3122 14.5339 12.3122 14.7363C12.3122 14.9415 12.043 15.141 11.8925 15.2294C11.7289 15.3263 11.6048 15.2094 11.552 15.4147C11.5071 15.5857 11.5045 15.6341 11.3699 15.7681C11.2458 15.8906 11.1244 16.0702 10.9766 16.1585C10.8314 16.2441 10.7469 16.1842 10.5964 16.1614C10.4249 16.1357 10.3642 16.1871 10.4222 16.3923C10.475 16.5804 10.5304 16.5576 10.4037 16.7286C10.285 16.891 10.1926 16.8625 10.0315 16.9253C9.88107 16.9851 9.94971 17.0649 9.88108 17.2017C9.82829 17.3072 9.52471 17.6007 9.4112 17.6207C9.28186 17.6435 9.22906 17.5181 9.10499 17.5238C8.89381 17.5323 8.94663 17.6805 8.96775 17.8231C8.99415 17.9941 8.97302 18.0169 8.85423 18.1423C8.7988 18.1993 8.73281 18.2762 8.66154 18.3161C8.55595 18.376 8.49788 18.3104 8.40549 18.339C8.21543 18.396 8.33422 18.4815 8.27086 18.6525C8.20223 18.832 7.80625 19.1968 7.61883 19.2197C7.44989 19.2396 7.34432 19.003 7.17274 19.1113C7.00379 19.2168 7.13842 19.2995 7.17274 19.4249C7.27832 19.8039 6.80845 19.8438 6.54184 19.8239C6.61575 20.0576 6.48114 20.1403 6.3254 20.26C6.18814 20.3654 6.05879 20.5364 5.89777 20.5963C5.75258 20.6476 5.64169 20.5963 5.50971 20.5307C5.36716 20.4566 5.26952 20.4395 5.30648 20.6647C5.33287 20.8357 5.47278 20.9127 5.34079 21.0723C5.25368 21.1749 5.00553 21.3088 4.88674 21.343C4.74947 21.3829 4.55942 21.2604 4.49078 21.4172C4.46439 21.4799 4.53567 21.5825 4.49871 21.668C4.47495 21.7278 4.35882 21.7905 4.31659 21.8247C4.2242 21.8988 4.06844 22.0926 3.94174 22.0812C3.81239 22.0698 3.73848 21.876 3.61177 21.8675C3.39796 21.8561 3.44019 22.0328 3.50882 22.1839C3.56425 22.3036 3.63815 22.3064 3.56424 22.4546C3.52729 22.523 3.42698 22.58 3.36891 22.6285C3.31083 22.6769 3.23694 22.7881 3.15511 22.7567C3.09703 22.7339 3.11023 22.6228 3.05744 22.5914C2.88058 22.4803 2.84891 22.6399 2.86475 22.7738C2.87794 22.8936 2.93599 22.9962 2.74065 22.9791C2.55324 22.9648 2.36583 22.6399 2.26024 22.4974C1.74286 21.8048 1.50529 20.8386 1.30467 19.9892C1.1938 19.5189 1.06974 19.0173 1.04598 18.5299C1.0275 18.1508 1.08556 17.7689 1.12515 17.3927V17.3841Z" fill="#F7A812"/>
<path d="M2.81565 17.557C2.84205 17.577 2.86846 17.5941 2.89486 17.6169C3.03212 17.7423 3.05058 17.785 3.04266 17.9846C3.04002 18.0558 3.03212 18.1242 3.0242 18.1955C3.01628 18.2753 3.00834 18.3522 3.0057 18.432C3.0057 18.4691 3.00835 18.509 3.01363 18.5489C3.02155 18.6344 3.0321 18.7313 3.00835 18.8168C2.97931 18.928 2.91595 18.9935 2.87372 19.0363C2.86844 19.042 2.86318 19.0477 2.8579 19.0534C2.86582 19.0619 2.87902 19.0762 2.8975 19.0933L2.92917 19.1218C3.07172 19.2472 3.23537 19.3926 3.11658 19.6947C3.10075 19.7346 3.0717 19.7859 3.03738 19.84C3.00042 19.8999 2.91859 20.0367 2.93178 20.0795C2.93178 20.0795 2.93973 20.088 2.95821 20.0966C3.04796 20.1137 3.44655 19.8999 3.58646 19.8001C3.72108 19.7032 3.83721 19.575 3.96128 19.4382C4.05103 19.3384 4.14608 19.2358 4.24903 19.1446C4.50244 18.9223 4.77433 18.7228 5.00927 18.5518L5.29699 18.3437C5.71934 18.0416 6.15753 17.7281 6.55349 17.3718C7.09991 16.8787 7.68591 16.4284 8.2508 15.9923C8.68108 15.6617 9.12456 15.3196 9.54955 14.9605C9.83728 14.7182 10.0881 14.4902 10.3204 14.2622C10.3705 14.2138 10.4207 14.1596 10.4708 14.1083C10.521 14.0542 10.5737 14 10.6265 13.9487C10.7005 13.8774 10.7638 13.8404 10.8272 13.8062C10.8615 13.7862 10.8984 13.7691 10.938 13.7406C11.0384 13.6694 11.1967 13.4699 11.1994 13.3502C11.1994 13.3245 11.1941 13.3074 11.1756 13.2932C11.1439 13.2675 11.1202 13.2732 11.0251 13.3274C10.9539 13.3673 10.8641 13.4186 10.7585 13.4015C10.4919 13.3559 10.4576 13.1136 10.4312 12.934C10.4233 12.8799 10.4154 12.8257 10.4022 12.7801C10.3837 12.7174 10.3705 12.7089 10.3705 12.706C10.3626 12.7003 10.323 12.706 10.2939 12.706C10.2649 12.706 10.2359 12.7089 10.1989 12.7089C9.96398 12.7089 9.64721 12.5835 9.47299 12.421C9.41756 12.3668 9.38854 12.2899 9.36479 12.2129C9.33311 12.1189 9.30934 12.0676 9.29087 12.0761C9.26975 12.0761 9.2592 12.0875 9.23016 12.193C9.20112 12.2956 9.16151 12.4352 9.01897 12.4894C8.87906 12.5407 8.49893 12.5749 8.38015 12.3611C8.35903 12.3241 8.35375 12.2842 8.35111 12.25C8.34584 12.2642 8.34058 12.2842 8.33794 12.2956C8.3221 12.3526 8.30361 12.4153 8.25873 12.4666C8.13203 12.6091 7.90237 12.6291 7.69647 12.6462C7.63576 12.6519 7.57769 12.6576 7.53281 12.6633L7.44835 12.6775L7.42193 12.5891C7.38762 12.4723 7.24771 12.2642 7.1606 12.2528C7.15268 12.2528 7.13422 12.25 7.10518 12.2927C7.07614 12.3355 7.07879 12.3697 7.08407 12.4324C7.09199 12.5236 7.09991 12.6633 6.91513 12.7687C6.84386 12.8086 6.55085 12.9511 6.38719 12.9198C6.31327 12.9084 6.26576 12.8542 6.22617 12.8115C6.21825 12.8029 6.20505 12.7887 6.19714 12.7801C6.18658 12.8029 6.17599 12.8343 6.17071 12.8571C6.15223 12.9198 6.13114 12.9825 6.09154 13.0252C6.01499 13.1079 5.91203 13.1506 5.81964 13.1848C5.78797 13.1962 5.7563 13.2105 5.72726 13.2248C5.6903 13.2419 5.65069 13.2646 5.61374 13.2846C5.44216 13.3815 5.22836 13.5012 5.00398 13.3159C4.97495 13.2931 4.94853 13.2618 4.92478 13.2304C4.8667 13.1592 4.86143 13.162 4.83504 13.1734C4.81656 13.182 4.81393 13.1905 4.81129 13.1991C4.80073 13.2304 4.81128 13.2903 4.84032 13.3416C4.86144 13.3787 4.87991 13.4043 4.89574 13.4243C4.96966 13.5212 4.98812 13.5981 4.88518 13.752C4.83502 13.8261 4.7664 13.8945 4.70041 13.9601C4.66345 13.9971 4.62913 14.0313 4.59746 14.0684C4.52618 14.1482 4.42851 14.2138 4.33349 14.2736C4.23318 14.3363 4.12231 14.4104 4.10119 14.476C4.022 14.7154 3.94282 14.9178 3.81611 15.1315C3.65773 15.4023 3.50199 15.3225 3.42016 15.2769C3.35944 15.2455 3.34095 15.2398 3.30928 15.2626C3.27232 15.2883 3.36735 15.4678 3.41223 15.5534C3.47822 15.6759 3.53893 15.7928 3.53629 15.8982C3.52837 16.0635 3.44125 16.1861 3.36206 16.2944C3.3119 16.3657 3.2644 16.4312 3.24593 16.4968C3.23009 16.5509 3.23801 16.6279 3.24593 16.7105C3.26176 16.8844 3.28023 17.121 3.06905 17.2578C3.00042 17.3005 2.92388 17.3062 2.85261 17.3119C2.81038 17.3119 2.74701 17.3176 2.73645 17.3347C2.73117 17.3404 2.72592 17.3661 2.7312 17.4174C2.73648 17.4715 2.76284 17.4943 2.83412 17.5456L2.81565 17.557ZM3.3832 16.6193C3.53366 16.0208 3.74484 15.331 4.18304 14.7354C4.63443 14.1197 5.12013 13.6865 5.66919 13.4072C6.31592 13.0537 7.02335 12.9426 7.7044 12.8343C7.8311 12.8143 7.95515 12.7944 8.08186 12.7744L8.25345 12.7431C8.57813 12.6861 8.91339 12.6262 9.25655 12.6547C9.65515 12.6889 9.91912 12.8998 10.1804 13.1335C10.22 13.1677 10.2676 13.2019 10.3204 13.2361C10.4893 13.3502 10.7427 13.5212 10.6186 13.8119C10.5685 13.9259 10.4523 14.0257 10.3494 14.114C10.3124 14.1454 10.2781 14.1739 10.2517 14.2024C10.1118 14.342 9.98511 14.4703 9.85048 14.5928C9.44925 14.9634 9.00576 15.294 8.57548 15.6132C8.35903 15.7728 8.14523 15.9324 7.93405 16.0977C7.64368 16.3286 7.35596 16.5766 7.07615 16.816C6.76466 17.0868 6.43997 17.3632 6.10736 17.6197C5.88035 17.7936 5.64277 17.9589 5.41312 18.1185C5.01188 18.395 4.59746 18.6829 4.23846 19.0249C4.17511 19.0847 4.1144 19.1474 4.05105 19.2073C3.95074 19.3071 3.85043 19.4068 3.74748 19.498L3.71316 19.5322C3.64453 19.6006 3.55213 19.6918 3.4439 19.6918C3.43599 19.6918 3.42807 19.6918 3.41751 19.6918C3.16938 19.6576 3.12977 19.2073 3.10601 18.965V18.9251C3.02418 18.1841 3.1905 17.3803 3.38055 16.6193H3.3832Z" fill="#F7A812"/>
<path d="M2.70589 17.7351C2.72701 17.7493 2.74815 17.7636 2.76663 17.7807C2.82119 17.8301 2.84668 17.8947 2.84316 17.9745C2.84052 18.04 2.83262 18.1056 2.82734 18.1683C2.81678 18.2538 2.80884 18.3393 2.80884 18.4277C2.80884 18.4704 2.81413 18.5217 2.81677 18.5702C2.82469 18.6386 2.82997 18.7098 2.81677 18.7583C2.80093 18.8153 2.76924 18.8466 2.73492 18.8837C2.69533 18.9264 2.64519 18.9777 2.64782 19.0575C2.65046 19.1431 2.71117 19.2058 2.76924 19.2599L2.80092 19.2884C2.94874 19.4195 2.99101 19.4651 2.93029 19.6133C2.91973 19.6447 2.89331 19.6817 2.86691 19.7245C2.78772 19.8585 2.69533 20.0067 2.73757 20.1463C2.75076 20.1948 2.78773 20.2575 2.88276 20.2974C2.90124 20.3059 2.92236 20.3088 2.94611 20.3088C3.18633 20.3088 3.68261 19.9839 3.68789 19.9782C3.84099 19.8698 3.97031 19.7273 4.09438 19.5877C4.18677 19.4879 4.27125 19.3939 4.36364 19.3112C4.60913 19.0946 4.87576 18.8979 5.10805 18.7298L5.39577 18.5246C5.82341 18.2196 6.26422 17.9032 6.6681 17.5384C7.20924 17.051 7.78998 16.6035 8.35488 16.1703C8.78779 15.8368 9.23392 15.4948 9.65891 15.1328C9.94928 14.8877 10.2053 14.654 10.4429 14.4231C10.4957 14.3718 10.5458 14.3177 10.596 14.2664C10.6461 14.2151 10.6963 14.1638 10.7465 14.1125C10.7993 14.0612 10.8441 14.0355 10.9022 14.0042C10.9418 13.9814 10.984 13.9586 11.0315 13.9244C11.1503 13.8388 11.3747 13.588 11.3826 13.3629C11.3853 13.266 11.3509 13.1862 11.2823 13.1263C11.145 13.0123 11.0078 13.0892 10.918 13.1377C10.8652 13.169 10.8151 13.1947 10.7755 13.189C10.662 13.169 10.6409 13.0893 10.6118 12.9011C10.6013 12.8356 10.5934 12.77 10.5749 12.713C10.5089 12.4936 10.4006 12.485 10.266 12.4936C10.2423 12.4936 10.2212 12.5078 10.1842 12.4964C9.99679 12.4964 9.7249 12.3881 9.58763 12.2598C9.56915 12.2427 9.55066 12.1829 9.53482 12.1401C9.49522 12.0261 9.43454 11.858 9.2656 11.8637C9.09929 11.8722 9.05441 12.0261 9.02537 12.1287C8.99898 12.2228 8.98048 12.2684 8.93824 12.2855C8.81154 12.3311 8.57135 12.3197 8.53439 12.2541C8.53439 12.2456 8.53439 12.2228 8.53439 12.2085C8.53439 12.1629 8.54229 12.0888 8.48422 12.0347C8.42879 11.9834 8.35753 11.9948 8.30738 12.0062C8.18859 12.0347 8.15426 12.1544 8.13051 12.2313C8.11995 12.2655 8.10939 12.3026 8.09883 12.3168C8.02492 12.3995 7.81638 12.4195 7.66327 12.4309C7.62632 12.4337 7.592 12.4366 7.56032 12.4394C7.49433 12.2941 7.34915 12.0689 7.17229 12.0404C7.11686 12.0318 7.01128 12.0375 6.92417 12.1715C6.85554 12.2798 6.8608 12.3796 6.86608 12.4508C6.87136 12.5278 6.87136 12.542 6.80273 12.5819C6.67866 12.6503 6.4675 12.7216 6.39623 12.713C6.38567 12.713 6.35926 12.6817 6.34606 12.6646C6.30119 12.6161 6.23518 12.5449 6.13487 12.562C6.02928 12.5819 5.99235 12.6988 5.96332 12.7928C5.9554 12.8213 5.93956 12.8698 5.929 12.8812C5.88676 12.9296 5.80757 12.961 5.73102 12.9895C5.69406 13.0037 5.6571 13.018 5.62278 13.0351C5.58055 13.055 5.54096 13.0778 5.49872 13.1006C5.32186 13.2004 5.21891 13.2489 5.10013 13.152C5.08165 13.1349 5.06315 13.1149 5.04731 13.095C4.98924 13.0265 4.89422 12.9097 4.7332 12.9838C4.66721 13.0151 4.61969 13.0664 4.59857 13.1377C4.56954 13.2289 4.58539 13.3486 4.64082 13.4541C4.66722 13.5054 4.69623 13.5424 4.71735 13.5709C4.72263 13.5766 4.72792 13.5823 4.73056 13.5823C4.72528 13.5909 4.71736 13.608 4.69888 13.6365C4.65929 13.6935 4.59858 13.7533 4.54051 13.8132C4.50091 13.8531 4.4613 13.893 4.42699 13.9301C4.37419 13.9899 4.28973 14.0441 4.20526 14.0982C4.07063 14.1837 3.93338 14.2749 3.88851 14.4089C3.81196 14.6341 3.73804 14.825 3.62189 15.0245C3.55854 15.1328 3.54533 15.1271 3.4767 15.0929C3.4107 15.0587 3.30247 15.0046 3.17312 15.0929C2.97779 15.2297 3.11242 15.4834 3.21008 15.6687C3.24968 15.7428 3.31039 15.8568 3.30775 15.8967C3.30247 15.9936 3.24176 16.0791 3.17577 16.1703C3.11505 16.253 3.05435 16.3385 3.02532 16.4468C3.00156 16.5408 3.00947 16.6406 3.01739 16.7403C3.03323 16.9171 3.03585 17.0197 2.93554 17.0852C2.90915 17.1023 2.859 17.1052 2.80884 17.108C2.72437 17.1137 2.61879 17.1194 2.5528 17.2078C2.50792 17.2676 2.4921 17.3474 2.50266 17.4529C2.5185 17.6097 2.6188 17.6809 2.69271 17.7322L2.70589 17.7351ZM3.00154 17.1793C3.24703 17.0225 3.07809 16.6919 3.13616 16.481C3.18896 16.2786 3.41335 16.139 3.42127 15.9081C3.42919 15.7228 3.04906 15.3209 3.24176 15.1898C3.4371 15.0559 3.52686 15.4207 3.71956 15.0901C3.84363 14.8792 3.92016 14.6768 3.99671 14.4545C4.05479 14.2806 4.36893 14.178 4.51412 14.0099C4.59859 13.9129 4.72264 13.8104 4.79391 13.7049C4.90214 13.5453 4.8256 13.5652 4.74377 13.4085C4.69098 13.3059 4.66456 13.1462 4.78863 13.0892C4.92061 13.0294 4.96813 13.1719 5.05524 13.2431C5.26906 13.4199 5.46967 13.2375 5.67821 13.1377C5.7838 13.0864 5.92898 13.055 6.01346 12.961C6.07153 12.8954 6.08208 12.6874 6.16655 12.6731C6.25894 12.656 6.30648 12.8071 6.39623 12.8213C6.51238 12.8413 6.76049 12.7387 6.86343 12.6788C7.08781 12.5534 6.90305 12.4166 7.0192 12.237C7.19342 11.9663 7.46267 12.3967 7.51282 12.562C7.6976 12.5278 8.04866 12.5477 8.18329 12.3967C8.25456 12.3168 8.23347 12.143 8.3417 12.1173C8.51592 12.0746 8.41296 12.2256 8.46047 12.3111C8.53966 12.4508 8.84586 12.4423 8.98313 12.3938C9.17847 12.3225 9.09136 11.9862 9.28406 11.9777C9.44772 11.9691 9.43979 12.2598 9.53746 12.3482C9.69848 12.4964 9.99149 12.6104 10.2 12.6104C10.3716 12.6104 10.4376 12.5591 10.4957 12.7529C10.5564 12.9553 10.5115 13.2574 10.7755 13.3002C10.9444 13.3287 11.0817 13.0864 11.2348 13.2147C11.4301 13.3771 11.1239 13.7419 10.9919 13.8388C10.8811 13.9187 10.7966 13.9358 10.6937 14.0355C10.5907 14.1381 10.493 14.2464 10.3901 14.3462C10.1393 14.5913 9.87799 14.825 9.61402 15.0502C8.63205 15.8796 7.57882 16.595 6.6206 17.4586C6.13226 17.8975 5.59639 18.2623 5.06845 18.6443C4.8124 18.8295 4.55635 19.0205 4.31614 19.2314C4.08385 19.4366 3.89378 19.7159 3.64564 19.8927C3.54005 19.9668 3.04908 20.2489 2.93029 20.2005C2.698 20.1064 2.97778 19.7986 3.03321 19.6561C3.13088 19.4081 2.99626 19.3169 2.84316 19.1773C2.63462 18.992 2.86429 19.0034 2.91972 18.7868C2.94612 18.6813 2.9118 18.5388 2.9118 18.4305C2.9118 18.2766 2.94084 18.1312 2.94876 17.9802C2.95667 17.8149 2.94874 17.8035 2.83523 17.7009C2.75076 17.6239 2.63463 17.5897 2.61879 17.4443C2.58448 17.1308 2.86427 17.2705 3.00418 17.1821L3.00154 17.1793Z" fill="#F7A812"/>
<path d="M3.43421 19.586C3.52396 19.5974 3.62958 19.4692 3.68765 19.4179C3.85659 19.2697 4.01233 19.1015 4.17599 18.9447C4.74881 18.4004 5.43513 18.0099 6.05546 17.5339C6.68107 17.0522 7.25918 16.5021 7.87951 16.0148C8.51304 15.516 9.19144 15.0628 9.78801 14.5127C9.92528 14.3873 10.0546 14.2562 10.1866 14.1251C10.2843 14.0282 10.4743 13.8971 10.5298 13.7688C10.6459 13.498 10.2869 13.3698 10.118 13.2187C9.85137 12.9793 9.6085 12.794 9.2495 12.7627C8.85619 12.7285 8.48135 12.814 8.09595 12.8795C7.28028 13.0164 6.46196 13.0933 5.71229 13.5037C5.12891 13.803 4.65904 14.259 4.26045 14.8034C3.85921 15.3507 3.64804 15.9805 3.4791 16.6475C3.30224 17.3572 3.12801 18.1752 3.20456 18.9134C3.2204 19.0531 3.24944 19.5604 3.43421 19.586ZM3.57677 16.676C3.72195 16.1003 3.92522 15.4333 4.33965 14.869C4.77256 14.279 5.23715 13.8657 5.75453 13.6006C6.37222 13.2615 7.03214 13.156 7.72903 13.0477C7.85573 13.0277 7.98246 13.0078 8.10916 12.9879L8.28336 12.9565C8.54997 12.9081 8.80605 12.8624 9.06738 12.8624C9.12545 12.8624 9.1835 12.8624 9.24158 12.871C9.5821 12.8995 9.80913 13.0819 10.052 13.3014C10.0969 13.3413 10.1549 13.3812 10.213 13.4211C10.4163 13.5579 10.4796 13.6234 10.4374 13.726C10.4083 13.7945 10.308 13.8828 10.2262 13.9512C10.1866 13.9854 10.147 14.0196 10.1074 14.0595C9.9807 14.1878 9.85401 14.3132 9.72202 14.4358C9.3287 14.7977 8.88787 15.1255 8.46552 15.4419C8.24906 15.6043 8.03259 15.7639 7.82141 15.9321C7.52576 16.163 7.23803 16.4138 6.95822 16.656C6.64674 16.924 6.32736 17.2004 6.00004 17.4512C5.7783 17.6223 5.5407 17.7847 5.31369 17.9443C4.90717 18.2265 4.48484 18.5172 4.11528 18.8707C4.05193 18.9305 3.98855 18.9961 3.9252 19.0588C3.82753 19.1557 3.7325 19.2526 3.62955 19.3409C3.61635 19.3523 3.60318 19.3666 3.58734 19.3808C3.5583 19.4093 3.48175 19.4834 3.45271 19.4834C3.43687 19.4834 3.36031 19.4464 3.3128 18.9476L3.30751 18.9049C3.2336 18.2009 3.39463 17.4199 3.57941 16.6789L3.57677 16.676Z" fill="#F7A812"/>
<path d="M2.82992 17.7009C2.94342 17.8035 2.94869 17.8149 2.94341 17.9802C2.93813 18.1313 2.90909 18.2795 2.90645 18.4305C2.90645 18.5417 2.94077 18.6842 2.91437 18.7868C2.85894 19.0034 2.62927 18.992 2.83781 19.1773C2.99355 19.317 3.12556 19.4082 3.02789 19.6561C2.97246 19.7986 2.69265 20.1065 2.92494 20.2005C3.04373 20.249 3.5347 19.9696 3.64029 19.8927C3.88843 19.716 4.0785 19.4338 4.31079 19.2314C4.551 19.0205 4.80441 18.8296 5.0631 18.6443C5.59104 18.2624 6.1269 17.9004 6.61525 17.4586C7.57347 16.595 8.6267 15.8796 9.60867 15.0502C9.87528 14.8251 10.1366 14.5913 10.3848 14.3462C10.4877 14.2436 10.5854 14.1353 10.6883 14.0356C10.7913 13.9329 10.8757 13.9158 10.9866 13.8389C11.1212 13.7448 11.4248 13.3772 11.2295 13.2147C11.0764 13.0864 10.9365 13.3287 10.7702 13.3002C10.5062 13.2546 10.5537 12.9525 10.4903 12.753C10.4323 12.5592 10.3663 12.6105 10.1947 12.6105C9.98878 12.6105 9.69313 12.4965 9.53211 12.3482C9.43708 12.2599 9.44237 11.9692 9.27871 11.9777C9.08601 11.9863 9.17048 12.3226 8.97778 12.3938C8.84051 12.4451 8.53431 12.4537 8.45512 12.3112C8.40761 12.2257 8.51057 12.0775 8.33635 12.1174C8.22812 12.143 8.2466 12.3197 8.17797 12.3967C8.04334 12.5478 7.69225 12.5307 7.50747 12.562C7.45732 12.3967 7.18807 11.9663 7.01385 12.2371C6.8977 12.4166 7.07985 12.5535 6.85812 12.6789C6.75253 12.7387 6.50703 12.8413 6.39088 12.8214C6.30113 12.8071 6.25098 12.6532 6.16123 12.6732C6.07676 12.6903 6.06618 12.8983 6.0081 12.961C5.92363 13.0551 5.77845 13.0865 5.67286 13.1378C5.46432 13.2375 5.26371 13.4199 5.04989 13.2432C4.96278 13.172 4.91526 13.0294 4.78328 13.0893C4.65921 13.1463 4.68563 13.3059 4.73842 13.4085C4.82025 13.5653 4.89943 13.5425 4.78856 13.7049C4.71729 13.8104 4.59324 13.9102 4.50877 14.0099C4.36358 14.1752 4.04944 14.2807 3.99136 14.4545C3.91745 14.6769 3.83828 14.8792 3.71421 15.0901C3.52151 15.4208 3.43175 15.0559 3.23641 15.1899C3.04371 15.321 3.42384 15.7229 3.41592 15.9081C3.40537 16.1418 3.18361 16.2787 3.13082 16.481C3.07538 16.6948 3.24171 17.0226 2.99622 17.1793C2.85632 17.2705 2.57648 17.128 2.6108 17.4415C2.62664 17.5869 2.74016 17.6211 2.82727 17.6981L2.82992 17.7009ZM2.71904 17.3503C2.73224 17.3332 2.79557 17.3304 2.83517 17.3275C2.9038 17.3218 2.98301 17.3161 3.05164 17.2734C3.26282 17.1366 3.24435 16.9 3.22852 16.7261C3.2206 16.6435 3.21532 16.5665 3.22852 16.5124C3.24699 16.444 3.29449 16.3784 3.34465 16.31C3.42384 16.2017 3.51096 16.082 3.51888 15.9138C3.52416 15.8112 3.46078 15.6944 3.39479 15.569C3.34991 15.4835 3.25491 15.3039 3.29187 15.2782C3.32618 15.2554 3.342 15.2611 3.40271 15.2925C3.48718 15.3353 3.64029 15.4151 3.79867 15.1471C3.92538 14.9334 4.00459 14.7282 4.08378 14.4916C4.1049 14.426 4.21841 14.3548 4.31607 14.2892C4.4111 14.2294 4.50877 14.1638 4.58005 14.084C4.61172 14.0498 4.64601 14.0127 4.68297 13.9757C4.74896 13.9101 4.81761 13.8417 4.86776 13.7676C4.97071 13.6137 4.95225 13.5368 4.87833 13.4399C4.8625 13.4199 4.84136 13.3943 4.82288 13.3572C4.79648 13.3059 4.78329 13.246 4.79384 13.2147C4.79384 13.2061 4.80176 13.1976 4.81759 13.1891C4.84399 13.1777 4.84929 13.1748 4.90737 13.246C4.93112 13.2774 4.9575 13.3059 4.98654 13.3316C5.21091 13.5168 5.42475 13.3971 5.59633 13.3002C5.63328 13.2802 5.67022 13.2575 5.70982 13.2404C5.73885 13.2261 5.77056 13.2147 5.80223 13.2004C5.89462 13.1662 6.00019 13.1235 6.0741 13.0408C6.11369 12.9981 6.13482 12.9325 6.1533 12.8727C6.16122 12.8499 6.17177 12.8157 6.17969 12.7957C6.19025 12.8043 6.20081 12.8185 6.20873 12.8271C6.24832 12.8698 6.29583 12.9211 6.36974 12.9354C6.53341 12.9639 6.82905 12.8214 6.89769 12.7843C7.08246 12.6789 7.07455 12.5392 7.06663 12.448C7.06135 12.3853 7.06137 12.3511 7.08777 12.3083C7.11681 12.2627 7.13527 12.2656 7.14319 12.2684C7.2303 12.2827 7.3702 12.4879 7.40452 12.6048L7.43091 12.6931L7.5154 12.6789C7.56028 12.6703 7.61835 12.6646 7.67906 12.6618C7.88232 12.6447 8.11461 12.6247 8.24132 12.4822C8.2862 12.4309 8.30465 12.3682 8.32049 12.3112C8.32313 12.2969 8.32842 12.2798 8.3337 12.2656C8.3337 12.2998 8.34162 12.3397 8.36274 12.3767C8.48152 12.5905 8.86165 12.5563 9.00156 12.505C9.1441 12.4537 9.18368 12.3112 9.21272 12.2086C9.24175 12.1031 9.25231 12.0946 9.27342 12.0917C9.2919 12.0832 9.31567 12.1345 9.34734 12.2285C9.37374 12.3055 9.40015 12.3853 9.45558 12.4366C9.6298 12.5991 9.94921 12.7245 10.1815 12.7245C10.2158 12.7245 10.2475 12.7245 10.2765 12.7216C10.3056 12.7216 10.3425 12.7159 10.3531 12.7216C10.3531 12.7216 10.3663 12.733 10.3848 12.7957C10.398 12.8442 10.4059 12.8955 10.4138 12.9496C10.4402 13.1263 10.4745 13.3715 10.7411 13.4171C10.8467 13.4342 10.9338 13.3829 11.0077 13.343C11.1028 13.2888 11.1265 13.2831 11.1582 13.3088C11.1767 13.323 11.1846 13.3401 11.1819 13.3658C11.1766 13.4855 11.0209 13.685 10.9206 13.7562C10.881 13.7847 10.8441 13.8047 10.8098 13.8218C10.7464 13.856 10.683 13.8902 10.6091 13.9643C10.5563 14.0156 10.5062 14.0698 10.4534 14.1239C10.4032 14.1752 10.3557 14.2265 10.3029 14.2778C10.0706 14.5058 9.8172 14.7338 9.53211 14.9761C9.10976 15.3324 8.66367 15.6773 8.23339 16.0079C7.6685 16.444 7.08247 16.8943 6.53605 17.3874C6.14009 17.7437 5.7019 18.0572 5.27954 18.3593L4.99182 18.5674C4.75689 18.7384 4.485 18.9379 4.23159 19.1602C4.12864 19.2485 4.03626 19.354 3.94387 19.4538C3.8198 19.5906 3.70364 19.7188 3.56902 19.8158C3.42911 19.9155 3.03051 20.1293 2.94076 20.1122C2.92229 20.1036 2.91437 20.0979 2.91437 20.0951C2.90117 20.0523 2.98565 19.9155 3.01997 19.8556C3.05428 19.7986 3.0833 19.7473 3.09914 19.7103C3.21793 19.4053 3.05428 19.2628 2.91173 19.1374L2.88006 19.1089C2.85894 19.0918 2.84837 19.0776 2.84045 19.069C2.84573 19.0633 2.85103 19.0576 2.85631 19.0519C2.89854 19.0091 2.9619 18.9436 2.99094 18.8324C3.01469 18.7469 3.00414 18.65 2.99622 18.5645C2.99094 18.5246 2.98829 18.4847 2.98829 18.4476C2.98829 18.3678 2.99884 18.288 3.00676 18.2111C3.01468 18.1398 3.02261 18.0714 3.02525 18.0002C3.03317 17.8035 3.01468 17.7579 2.87741 17.6325C2.85366 17.6097 2.82464 17.5898 2.79824 17.5727C2.72697 17.5213 2.70057 17.4985 2.69529 17.4444C2.69001 17.3931 2.69529 17.3674 2.70057 17.3617L2.71904 17.3503Z" fill="#F7A812"/>
<path d="M3.1096 18.9641C3.13336 19.2064 3.17297 19.6567 3.4211 19.6909C3.42902 19.6909 3.43693 19.6909 3.44749 19.6909C3.55308 19.6909 3.64547 19.5997 3.71675 19.5313L3.75106 19.4971C3.85665 19.4031 3.95694 19.3062 4.0546 19.2064C4.11532 19.1437 4.17869 19.0838 4.24205 19.024C4.60105 18.682 5.01547 18.397 5.4167 18.1176C5.64636 17.958 5.88657 17.7927 6.11095 17.6189C6.44355 17.3623 6.76561 17.0859 7.07973 16.8151C7.3569 16.5757 7.64463 16.3277 7.93764 16.0968C8.14882 15.9315 8.36261 15.7719 8.57907 15.6123C9.0067 15.2931 9.4502 14.9625 9.85407 14.5919C9.9887 14.4694 10.118 14.3411 10.2553 14.2015C10.2817 14.1758 10.316 14.1445 10.353 14.1131C10.4559 14.0248 10.572 13.925 10.6222 13.811C10.7463 13.5203 10.4929 13.3493 10.3239 13.2353C10.2738 13.2011 10.2236 13.1669 10.184 13.1327C9.92534 12.8989 9.65873 12.688 9.26014 12.6538C8.91433 12.6253 8.57908 12.6852 8.25703 12.7422L8.08545 12.7735C7.95874 12.7935 7.83469 12.8134 7.70799 12.8334C7.0243 12.9417 6.31948 13.05 5.67275 13.4063C5.12633 13.6856 4.64062 14.1217 4.18659 14.7345C3.7484 15.3301 3.53725 16.0199 3.38678 16.6184C3.19672 17.3766 3.03305 18.1832 3.1096 18.9242V18.9641ZM3.47917 16.6469C3.64547 15.9771 3.85927 15.3472 4.26051 14.8029C4.65911 14.2613 5.12633 13.8024 5.71235 13.5032C6.46203 13.0927 7.28034 13.0186 8.09602 12.879C8.48141 12.8134 8.85625 12.7279 9.24957 12.7621C9.60593 12.7906 9.84879 12.9759 10.118 13.2182C10.287 13.3692 10.646 13.4975 10.5298 13.7682C10.4744 13.8993 10.2843 14.0276 10.1867 14.1245C10.0547 14.2556 9.92534 14.3867 9.78808 14.5121C9.1915 15.0622 8.5131 15.5154 7.87957 16.0142C7.25924 16.5016 6.68114 17.0545 6.05553 17.5333C5.43519 18.0093 4.74887 18.3998 4.17605 18.9442C4.01239 19.1009 3.85665 19.2691 3.68771 19.4173C3.62964 19.4686 3.52403 19.5969 3.43428 19.5855C3.2495 19.5598 3.22046 19.0525 3.20463 18.9128C3.12807 18.1775 3.30231 17.3566 3.47917 16.6469Z" fill="#F7A812"/>
</svg>
