<svg width="77" height="83" viewBox="0 0 77 83" fill="none" xmlns="http://www.w3.org/2000/svg">
<path d="M32.731 18.7345C26.9832 20.4465 26.3179 27.3153 26.7061 30.534C34.5421 27.0518 38.5156 27.4883 45.6902 27.76C46.9333 20.886 39.9157 16.5944 32.731 18.7345Z" fill="#F7A812" stroke="#003F6A" stroke-linecap="round"/>
<path d="M7.31544 28.0006C10.351 19.6305 23.822 24.7182 29.8861 28.1913C25.5346 30.2764 22.3014 35.1822 21.231 37.3728C15.8155 37.1578 4.88879 34.6954 7.31544 28.0006Z" fill="#F7A812" stroke="#003F6A" stroke-miterlimit="10"/>
<path d="M53.2972 71.533C65.6642 65.2573 70.6022 50.1443 64.3265 37.7773C58.0508 25.4102 42.9378 20.4723 30.5707 26.748C18.2037 33.0237 13.2657 48.1367 19.5414 60.5037C25.8172 72.8708 40.9301 77.8088 53.2972 71.533Z" fill="#668CA6" stroke="#003F6A" stroke-width="2"/>
<path d="M25.4523 35.9892C29.2062 34.0843 33.7879 35.5813 35.6928 39.3352C37.5977 43.0891 36.1007 47.6708 32.3468 49.5757C28.5929 51.4806 24.0113 49.9836 22.1063 46.2297C20.2014 42.4758 21.6984 37.8942 25.4523 35.9892Z" fill="white"/>
<path d="M35.1632 41.8947C33.9052 39.4158 30.8759 38.426 28.3969 39.6839C25.9179 40.9419 24.9281 43.9713 26.1861 46.4502L26.3086 46.6918C27.5666 49.1707 30.596 50.1606 33.075 48.9026C35.5539 47.6446 36.5438 44.6152 35.2858 42.1363L35.1632 41.8947Z" fill="#003F6A"/>
<path d="M41.0515 28.0733C37.2976 29.9782 35.8006 34.5599 37.7056 38.3138C39.6105 42.0677 44.1922 43.5647 47.9461 41.6597C51.7 39.7548 53.197 35.1731 51.292 31.4192C49.3871 27.6653 44.8054 26.1683 41.0515 28.0733Z" fill="white"/>
<path d="M49.0618 34.8421C47.8038 32.3632 44.7744 31.3733 42.2955 32.6313C39.8165 33.8893 38.8267 36.9187 40.0846 39.3976L40.2072 39.6392C41.4652 42.1181 44.4946 43.108 46.9735 41.85C49.4525 40.592 50.4423 37.5626 49.1843 35.0837L49.0618 34.8421Z" fill="#003F6A"/>
<path d="M30.5969 52.3621C33.0406 54.6213 34.2842 54.1041 36.3988 51.949" stroke="#003F6A" stroke-linecap="round"/>
<path d="M63.0423 39.9344C61.962 40.3244 63.5377 42.6191 64.4629 43.7189C65.0605 44.4851 64.9648 47.0648 65.8835 47.5034C66.8046 47.9346 68.9021 46.7183 68.7863 45.9291C68.6732 45.1576 67.9255 42.063 67.1186 40.4729C66.3117 38.8828 64.3997 39.4544 63.0448 39.9394L63.0423 39.9344Z" fill="#668CA6" stroke="#003F6A"/>
</svg>
