<svg width="380" height="271" viewBox="0 0 380 271" fill="none" xmlns="http://www.w3.org/2000/svg">
<path d="M355.49 27.9701C354.93 25.8801 353.22 24.1701 351.13 23.6101C349.12 23.0701 347.02 23.6501 345.51 25.1601L330.46 40.2101C328.13 42.5401 328.15 46.2201 330.52 48.5801C331.71 49.7701 333.24 50.3701 334.75 50.3701C336.26 50.3701 337.73 49.7901 338.89 48.6401L353.94 33.5901C355.45 32.0801 356.03 29.9801 355.49 27.9701Z" fill="#CCD9E1"/>
<path d="M373.22 83.6001H351.93C348.63 83.6001 346.05 86.2201 346.05 89.5601C346.05 92.9001 348.63 95.5201 351.93 95.5201H373.22C376.52 95.5201 379.1 92.9001 379.1 89.5601C379.1 86.2201 376.52 83.6001 373.22 83.6001Z" fill="#CCD9E1"/>
<path d="M289.54 0C286.2 0 283.58 2.58 283.58 5.88V27.17C283.58 30.47 286.2 33.05 289.54 33.05C292.88 33.05 295.5 30.47 295.5 27.17V5.88C295.5 2.58 292.88 0 289.54 0Z" fill="#CCD9E1"/>
<path d="M267.86 239.82H128.14L67.1899 270.26L64.79 239.82H54.04C24.41 239.82 0.399963 215.8 0.399963 186.18V107.2C0.399963 78.8 22.5299 55.33 50.8799 53.65L273.72 40.48C306.62 38.54 333.48 66.45 330.27 99.25L321.26 191.4C318.57 218.87 295.48 239.82 267.87 239.82H267.86Z" fill="#CCD9E1"/>
<path d="M250.51 109.58C246.05 99.04 239.67 89.57 231.54 81.45C223.41 73.32 213.94 66.94 203.4 62.48C192.48 57.86 180.89 55.52 168.94 55.52C156.99 55.52 145.4 57.86 134.48 62.48C123.94 66.94 114.47 73.32 106.35 81.45C98.22 89.57 91.8299 99.04 87.3799 109.58C82.7599 120.5 80.42 132.09 80.42 144.04C80.42 155.99 82.7599 167.58 87.3799 178.5C91.8299 189.04 98.22 198.51 106.35 206.64C114.47 214.77 123.94 221.15 134.48 225.61C145.4 230.23 156.99 232.57 168.94 232.57C180.89 232.57 192.48 230.23 203.4 225.61C213.94 221.15 223.41 214.77 231.54 206.64C239.67 198.51 246.05 189.04 250.51 178.5C255.12 167.58 257.47 155.99 257.47 144.04C257.47 132.09 255.12 120.5 250.51 109.58ZM168.94 224.53C150.16 224.53 132.87 218.06 119.16 207.25C119.32 206.87 119.42 206.46 119.46 206.03C119.94 201.01 121.17 196.13 123.14 191.48C124.38 188.54 125.92 185.7 127.72 183.04C129.5 180.41 131.54 177.93 133.79 175.68C136.05 173.43 138.52 171.38 141.16 169.6C143.81 167.81 146.65 166.27 149.6 165.02C155.72 162.43 162.23 161.12 168.94 161.12C175.65 161.12 182.16 162.43 188.29 165.02C191.23 166.27 194.07 167.81 196.73 169.6C199.36 171.38 201.84 173.43 204.09 175.68C206.34 177.93 208.38 180.41 210.16 183.04C211.96 185.7 213.5 188.54 214.75 191.48C216.71 196.13 217.94 201.01 218.42 206.03C218.46 206.46 218.56 206.87 218.72 207.25C205.01 218.06 187.72 224.53 168.94 224.53ZM157.56 148.39C154.08 146.92 150.95 144.81 148.26 142.12C145.57 139.43 143.47 136.3 141.99 132.82C140.47 129.22 139.7 125.39 139.7 121.44C139.7 117.49 140.47 113.66 141.99 110.06C143.47 106.58 145.57 103.45 148.26 100.76C150.95 98.07 154.08 95.96 157.56 94.49C161.16 92.97 164.99 92.2 168.94 92.2C172.89 92.2 176.72 92.97 180.32 94.49C183.8 95.96 186.93 98.07 189.62 100.76C192.31 103.45 194.42 106.58 195.89 110.06C197.41 113.66 198.18 117.49 198.18 121.44C198.18 125.39 197.41 129.22 195.89 132.82C194.42 136.3 192.31 139.43 189.62 142.12C186.93 144.81 183.8 146.92 180.32 148.39C176.72 149.91 172.89 150.68 168.94 150.68C164.99 150.68 161.16 149.91 157.56 148.39ZM226.29 200.46C222.42 178.91 206.7 161.47 186.11 155.13C198.36 148.88 206.75 136.14 206.75 121.44C206.75 100.56 189.82 83.64 168.94 83.64C148.06 83.64 131.14 100.56 131.14 121.44C131.14 136.14 139.52 148.88 151.77 155.13C131.18 161.47 115.46 178.91 111.59 200.46C97.29 185.93 88.46 166 88.46 144.04C88.46 99.66 124.56 63.56 168.94 63.56C213.32 63.56 249.43 99.66 249.43 144.04C249.43 166 240.59 185.93 226.29 200.46Z" fill="#003F6A" stroke="#003F6A" stroke-miterlimit="10"/>
<path d="M249.43 144.04C249.43 166 240.59 185.93 226.29 200.46C222.42 178.91 206.7 161.47 186.11 155.13C198.36 148.88 206.75 136.14 206.75 121.44C206.75 100.56 189.82 83.6401 168.94 83.6401C148.06 83.6401 131.14 100.56 131.14 121.44C131.14 136.14 139.52 148.88 151.77 155.13C131.18 161.47 115.46 178.91 111.59 200.46C97.29 185.93 88.46 166 88.46 144.04C88.46 99.6601 124.56 63.5601 168.94 63.5601C213.32 63.5601 249.43 99.6601 249.43 144.04Z" fill="#AAD3D4" stroke="#003F6A" stroke-miterlimit="10"/>
<path d="M218.72 207.25C205.01 218.06 187.72 224.53 168.94 224.53C150.16 224.53 132.87 218.06 119.16 207.25C119.32 206.87 119.42 206.46 119.46 206.03C119.94 201.01 121.17 196.13 123.14 191.48C124.38 188.54 125.92 185.7 127.72 183.04C129.5 180.41 131.54 177.93 133.79 175.68C136.05 173.43 138.52 171.38 141.16 169.6C143.81 167.81 146.65 166.27 149.6 165.02C155.72 162.43 162.23 161.12 168.94 161.12C175.65 161.12 182.16 162.43 188.29 165.02C191.23 166.27 194.07 167.81 196.73 169.6C199.36 171.38 201.84 173.43 204.09 175.68C206.34 177.93 208.38 180.41 210.16 183.04C211.96 185.7 213.5 188.54 214.75 191.48C216.71 196.13 217.94 201.01 218.42 206.03C218.46 206.46 218.56 206.87 218.72 207.25Z" fill="#FDCF79"/>
<path d="M198.18 121.44C198.18 125.39 197.41 129.22 195.89 132.82C194.42 136.3 192.31 139.43 189.62 142.12C186.93 144.81 183.8 146.92 180.32 148.39C176.72 149.91 172.89 150.68 168.94 150.68C164.99 150.68 161.16 149.91 157.56 148.39C154.08 146.92 150.95 144.81 148.26 142.12C145.57 139.43 143.47 136.3 141.99 132.82C140.47 129.22 139.7 125.39 139.7 121.44C139.7 117.49 140.47 113.66 141.99 110.06C143.47 106.58 145.57 103.45 148.26 100.76C150.95 98.0699 154.08 95.96 157.56 94.49C161.16 92.97 164.99 92.2 168.94 92.2C172.89 92.2 176.72 92.97 180.32 94.49C183.8 95.96 186.93 98.0699 189.62 100.76C192.31 103.45 194.42 106.58 195.89 110.06C197.41 113.66 198.18 117.49 198.18 121.44Z" fill="#FCE2B0" stroke="#003F6A" stroke-miterlimit="10"/>
<path d="M64.4599 138.78H44.3799C39.9599 138.78 36.3499 142.4 36.3499 146.81V156.45C36.3499 160.87 39.9599 164.48 44.3799 164.48H64.4599C68.8799 164.48 72.4899 168.09 72.4899 172.51V174.44C72.4899 181.31 80.4799 185 85.6999 180.58L112.64 157.77C116.41 154.56 116.41 148.7 112.64 145.48L85.6999 122.67C80.4799 118.25 72.4899 121.95 72.4899 128.81V130.74C72.4899 135.16 68.8799 138.77 64.4599 138.77V138.78Z" fill="#FEC5B3"/>
<path d="M80.5399 186C78.8999 186 77.2399 185.64 75.6699 184.91C71.5499 183 68.9899 178.99 68.9899 174.43V172.5C68.9899 170 66.9599 167.97 64.4599 167.97H44.3799C38.0199 167.97 32.8499 162.8 32.8499 156.44V146.8C32.8499 140.44 38.0199 135.27 44.3799 135.27H64.4599C66.9599 135.27 68.9899 133.24 68.9899 130.74V128.81C68.9899 124.26 71.5499 120.24 75.6699 118.33C79.7799 116.42 84.4999 117.06 87.9599 119.99L114.9 142.8C117.49 145 118.97 148.21 118.97 151.61C118.97 155.01 117.49 158.22 114.91 160.42L87.9599 183.23C85.8199 185.04 83.1999 185.98 80.5399 185.98V186ZM44.3799 142.28C41.8799 142.28 39.8499 144.31 39.8499 146.81V156.45C39.8499 158.95 41.8799 160.98 44.3799 160.98H64.4599C70.8199 160.98 75.9899 166.15 75.9899 172.51V174.44C75.9899 176.26 76.9699 177.81 78.6099 178.57C80.2499 179.33 82.0499 179.09 83.4399 177.91L110.38 155.1C111.39 154.24 111.97 152.97 111.97 151.63C111.97 150.29 111.39 149.02 110.37 148.15L83.4299 125.35C82.0499 124.18 80.2399 123.93 78.5999 124.69C76.9599 125.45 75.9799 126.99 75.9799 128.82V130.75C75.9799 137.11 70.8099 142.28 64.4499 142.28H44.3699H44.3799Z" fill="#003F6A"/>
</svg>
