<svg width="185" height="161" viewBox="0 0 185 161" fill="none" xmlns="http://www.w3.org/2000/svg">
<path d="M57.4135 97.4267C57.1735 97.1967 56.8435 97.0767 56.5135 97.1067C44.1635 98.0567 34.8035 107.357 33.7635 119.707V119.727C33.7435 120.077 33.8735 120.407 34.1235 120.647H34.1335C34.3835 120.897 34.7135 121.017 35.0535 120.987C47.6735 119.857 57.0235 110.557 57.7935 98.3667V98.3368C57.8035 97.9968 57.6735 97.6767 57.4335 97.4367H57.4235L57.4135 97.4267ZM36.2335 118.507C36.9335 113.667 39.0835 109.237 42.3835 105.887C45.8235 102.407 50.2735 100.237 55.3335 99.5667C54.1135 109.457 46.5135 116.997 36.2335 118.497V118.507Z" fill="#AAD3D4"/>
<path d="M9.64343 97.1067H9.62343C9.28343 97.0867 8.95342 97.2067 8.71342 97.4567H8.70343C8.46343 97.7167 8.34343 98.0567 8.37343 98.3967C9.42343 110.747 18.7734 120.037 31.1234 120.997C31.4634 121.017 31.8034 120.897 32.0434 120.657C32.2834 120.417 32.4134 120.087 32.3934 119.747C31.6234 107.557 22.2734 98.2567 9.64343 97.1267V97.1067ZM17.0034 112.207C13.7034 108.867 11.5434 104.427 10.8534 99.5867C21.1234 101.077 28.7334 108.617 29.9534 118.517C24.9034 117.857 20.4434 115.687 17.0034 112.197V112.207Z" fill="#AAD3D4"/>
<path d="M32.0335 122.287C31.7835 122.047 31.4434 121.927 31.1034 121.957C18.4834 123.087 9.13345 132.387 8.36345 144.577V144.607C8.35345 144.947 8.48345 145.267 8.72345 145.497H8.73345C8.97345 145.737 9.30346 145.857 9.63346 145.837C21.9835 144.887 31.3435 135.597 32.3835 123.237V123.217C32.4035 122.877 32.2835 122.547 32.0335 122.307H32.0235L32.0335 122.287ZM23.7634 137.057C20.3234 140.537 15.8734 142.707 10.8134 143.367C12.0334 133.467 19.6435 125.927 29.9135 124.437C29.2135 129.277 27.0634 133.717 23.7634 137.057Z" fill="#AAD3D4"/>
<path d="M35.0334 121.957H35.0034C34.6734 121.927 34.3434 122.057 34.1034 122.297L34.0734 122.327C33.8334 122.567 33.7134 122.897 33.7434 123.227C34.5134 135.407 43.8634 144.707 56.4634 145.837H56.4834C56.8334 145.867 57.1734 145.747 57.4134 145.507H57.4234C57.6734 145.247 57.7934 144.907 57.7634 144.557C56.7134 132.207 47.3634 122.917 35.0134 121.957H35.0334ZM36.2034 124.417C41.2534 125.077 45.7134 127.247 49.1534 130.737C52.4534 134.077 54.6134 138.517 55.3034 143.357C45.0334 141.867 37.4234 134.327 36.2034 124.427V124.417Z" fill="#AAD3D4"/>
<path d="M59.7035 0.916688C59.5035 0.506688 59.1435 0.196712 58.7035 0.0667125H58.6835C58.2435 -0.0632875 57.7735 -0.00329481 57.3935 0.246705C43.1235 9.21671 37.7435 26.3267 44.3135 41.8567V41.8767C44.5135 42.3067 44.8835 42.6367 45.3435 42.7667H45.3635C45.8035 42.9067 46.2835 42.8367 46.6735 42.5767C61.1535 33.2267 66.5135 16.1067 59.7235 0.946717L59.7035 0.916688ZM46.5235 38.8367C44.3035 32.5767 44.0835 25.8667 45.9435 19.7567C47.8735 13.3867 51.8635 7.95673 57.5335 3.95673C62.3335 16.6367 57.9535 30.5267 46.5235 38.8367Z" fill="#FDCF79"/>
<path d="M41.9435 45.0667C42.3735 44.8767 42.6935 44.5067 42.8335 44.0667C42.9735 43.6267 42.9135 43.1367 42.6835 42.7367C34.0435 28.5467 16.8935 23.2767 0.973507 29.9067H0.953503C0.533503 30.1067 0.203498 30.4667 0.0734978 30.9167V30.9367C-0.0665022 31.3867 -0.00649428 31.8667 0.253506 32.2667C9.33351 46.4767 26.4835 51.7367 41.9435 45.0667ZM3.99351 32.1467C17.3035 27.4367 31.2335 31.6968 38.9735 42.8468C32.4735 45.2467 25.7335 45.4567 19.3935 43.4367C13.3035 41.5067 7.89351 37.5267 3.99351 32.1467Z" fill="#FDCF79"/>
<path d="M44.8835 46.9367C44.6935 46.5167 44.3335 46.1967 43.8835 46.0567H43.8635C43.4135 45.9167 42.9335 45.9867 42.5335 46.2367C28.0535 55.5867 22.6935 72.7067 29.4835 87.8667L29.5035 87.9067C29.7035 88.3167 30.0635 88.6267 30.5035 88.7567H30.5235C30.9635 88.8867 31.4335 88.8267 31.8135 88.5767C46.0835 79.6067 51.4635 62.4967 44.8935 46.9567V46.9367H44.8835ZM43.2535 69.0667C41.3235 75.4367 37.3335 80.8667 31.6635 84.8667C26.8635 72.1767 31.2535 58.2767 42.6735 49.9867C44.8935 56.2467 45.1135 62.9567 43.2535 69.0767V69.0667Z" fill="#FDCF79"/>
<path d="M88.1934 58.9167H88.2134C88.6534 58.7267 88.9834 58.3667 89.1234 57.9167V57.8967C89.2734 57.4467 89.2034 56.9567 88.9534 56.5567C79.8734 42.3467 62.7234 37.0867 47.2634 43.7567L47.2234 43.7767C46.8034 43.9567 46.4934 44.3167 46.3534 44.7567L46.3334 44.8067C46.2034 45.2467 46.2634 45.7167 46.5134 46.0967C55.1534 60.2667 72.2934 65.5367 88.1834 58.9267L88.1934 58.9167ZM69.8134 45.3767C75.9034 47.3067 81.3134 51.2867 85.2134 56.6667C71.9034 61.3767 57.9734 57.1167 50.2334 45.9667C56.7334 43.5667 63.4734 43.3567 69.8134 45.3767Z" fill="#FDCF79"/>
<path d="M118.233 91.2167C118.533 91.8367 119.083 92.2967 119.753 92.4767H119.783C120.443 92.6567 121.133 92.5367 121.693 92.1567C142.523 77.9367 149.733 52.6967 139.233 30.7767L139.213 30.7267C138.913 30.1267 138.363 29.6867 137.713 29.5167H137.673C137.033 29.3367 136.343 29.4567 135.793 29.8267C115.263 43.4767 108.023 68.7067 118.203 91.1867L118.223 91.2167H118.233ZM119.803 58.7867C122.393 49.3967 128.023 41.3067 136.163 35.2467C143.653 53.6167 137.763 74.0967 121.363 86.6867C117.873 77.6067 117.313 67.8067 119.803 58.7967V58.7867Z" fill="#FEC5B3"/>
<path d="M114.893 95.9667C115.513 95.6667 115.973 95.1267 116.163 94.4667C116.353 93.8167 116.253 93.1067 115.893 92.5367C102.723 72.1067 77.4435 65.0267 54.4035 75.3267H54.3735C53.7635 75.6367 53.3035 76.1767 53.1235 76.8367V76.8767C52.9335 77.5367 53.0435 78.2467 53.4335 78.8067C67.2435 99.2467 92.5235 106.307 114.893 95.9667ZM58.8935 78.4767C78.1935 71.0967 98.7335 76.8067 110.464 92.8167C101.034 96.5667 91.1935 97.1267 81.8435 94.4167C72.8635 91.8167 64.8035 86.1967 58.8935 78.4767Z" fill="#FEC5B3"/>
<path d="M119.263 98.5868C118.973 97.9768 118.423 97.5168 117.773 97.3368H117.743C117.083 97.1468 116.373 97.2668 115.803 97.6468C94.9735 111.867 87.7635 137.107 98.2635 159.027L98.2935 159.077C98.5935 159.677 99.1435 160.107 99.7935 160.277H99.8235C100.463 160.457 101.153 160.337 101.713 159.967C122.243 146.317 129.483 121.087 119.293 98.6067L119.273 98.5767L119.263 98.5868ZM117.703 131.027C115.113 140.417 109.484 148.507 101.344 154.567C93.8535 136.177 99.7435 115.687 116.143 103.127C119.633 112.207 120.193 122.007 117.703 131.027Z" fill="#FEC5B3"/>
<path d="M122.624 93.8368L122.573 93.8567C121.973 94.1367 121.524 94.6767 121.344 95.3167L121.323 95.3967C121.143 96.0367 121.263 96.7267 121.633 97.2867C134.803 117.697 160.074 124.767 183.064 114.497H183.094C183.724 114.197 184.194 113.657 184.394 112.997V112.967C184.594 112.297 184.484 111.587 184.094 111.007C170.284 90.5667 145.003 83.5068 122.633 93.8368H122.624ZM127.043 96.9867C136.463 93.2367 146.313 92.6767 155.663 95.3867C164.643 97.9867 172.703 103.607 178.603 111.327C159.303 118.707 138.773 112.997 127.033 96.9867H127.043Z" fill="#FEC5B3"/>
</svg>
