<svg width="159" height="154" viewBox="0 0 159 154" fill="none" xmlns="http://www.w3.org/2000/svg">
<path d="M23.9662 89.3504L23.9305 89.3448C23.7057 89.4021 23.4713 89.4097 23.2432 89.3673C23.0152 89.3249 22.7991 89.2334 22.6099 89.0992L22.5892 89.0959C22.4026 88.9572 22.2473 88.7812 22.1327 88.5789C22.0181 88.3766 21.947 88.1526 21.9239 87.9213C20.9348 79.7544 22.9432 71.506 27.5765 64.7083C32.2097 57.9105 39.1525 53.0253 47.1157 50.9601L47.1335 50.9629C47.3641 50.9021 47.6057 50.8932 47.8402 50.9367C48.0747 50.9801 48.2963 51.0748 48.4898 51.2142L48.5077 51.217C48.6993 51.3567 48.859 51.5355 48.9763 51.7415C49.0936 51.9476 49.1662 52.1762 49.1885 52.4122C50.8615 70.0076 40.4783 85.2044 23.9745 89.3699L23.9662 89.3504ZM46.0818 54.6752C39.7285 56.7782 34.2155 60.8603 30.3501 66.3235C26.4377 71.9924 24.5524 78.8155 24.999 85.6889C38.2568 81.4982 46.651 69.1413 46.077 54.6744L46.0818 54.6752Z" fill="#E6ECF0"/>
<path d="M9.96241 23.6662C9.9014 23.4356 9.89193 23.1943 9.93538 22.9598C9.97883 22.7253 10.0738 22.5033 10.2133 22.3099C10.346 22.1101 10.5208 21.9418 10.7255 21.8168C10.9302 21.6918 11.1599 21.6131 11.3982 21.5863C19.5689 20.6548 27.8002 22.7201 34.5633 27.3986C41.3263 32.0771 46.1613 39.0508 48.1713 47.025C48.2313 47.2544 48.242 47.494 48.2024 47.7278C48.1627 47.9616 48.074 48.1842 47.9417 48.381C47.8094 48.5778 47.6368 48.7442 47.4353 48.8692C47.2337 48.9942 47.008 49.0748 46.7729 49.1059C29.8606 51.1585 14.728 40.7126 9.957 23.6786L9.96241 23.6662ZM44.5065 46.0325C42.4551 39.4555 38.2391 33.766 32.5438 29.8893C26.968 26.1817 20.3531 24.3535 13.6647 24.6718C18.3292 38.3702 30.6128 46.8805 44.4882 46.0327L44.5065 46.0325Z" fill="#E6ECF0"/>
<path d="M74.717 9.81456L74.7527 9.82022C74.9775 9.76296 75.2124 9.75523 75.4404 9.79765C75.6685 9.84007 75.8846 9.93167 76.0737 10.0659L76.0916 10.0687C76.2809 10.205 76.4384 10.3805 76.5534 10.5835C76.6684 10.7864 76.7381 11.0119 76.7577 11.2443C77.7468 19.4112 75.7384 27.6597 71.1051 34.4575C66.4718 41.2553 59.5286 46.1403 51.5654 48.2054L51.5418 48.2017C51.3147 48.2613 51.0773 48.2715 50.8459 48.2318C50.6145 48.192 50.3947 48.1032 50.2005 47.9711L50.1827 47.9683C49.9885 47.8289 49.8256 47.6502 49.7051 47.4437C49.5847 47.2373 49.5093 47.0078 49.4836 46.7702C47.8154 29.1756 58.1947 13.9782 74.6986 9.81166L74.717 9.81456ZM52.6013 44.4898C58.9547 42.3868 64.4681 38.3047 68.3335 32.8414C72.246 27.1726 74.1313 20.3495 73.6847 13.4761C60.422 17.6659 52.0092 30.0383 52.5849 44.4872L52.6013 44.4898Z" fill="#E6ECF0"/>
<path d="M88.4776 76.8704C88.3434 77.0722 88.1659 77.2417 87.9581 77.3664C87.7502 77.4911 87.5171 77.5679 87.2758 77.5913C79.1052 78.5223 70.8743 76.4567 64.1114 71.7783C57.3484 67.0999 52.5131 60.1264 50.5028 52.1524L50.5084 52.1169C50.4452 51.8938 50.4311 51.6595 50.4673 51.4305C50.5036 51.2015 50.5895 50.9831 50.7185 50.7904L50.7269 50.7371C50.8669 50.5494 51.0436 50.3921 51.2461 50.2747C51.4487 50.1573 51.673 50.0822 51.9054 50.054C68.7972 48.0164 83.9284 58.461 88.6869 75.4394C88.7485 75.6751 88.7605 75.9209 88.7224 76.1614C88.6843 76.4019 88.5969 76.632 88.4656 76.8371L88.4776 76.8704ZM54.1719 53.1113C56.2226 59.6886 60.4388 65.3783 66.1346 69.2544C71.71 72.9631 78.3257 74.7913 85.0142 74.472C80.3497 60.7737 68.0647 52.2631 54.1902 53.1111L54.1719 53.1113Z" fill="#E6ECF0"/>
<path d="M122.105 107.115C123.326 120.004 115.729 131.127 103.627 134.17L103.594 134.165C103.43 134.204 103.26 134.208 103.094 134.176C102.928 134.144 102.771 134.077 102.633 133.979L102.616 133.976C102.481 133.876 102.368 133.748 102.284 133.602C102.2 133.455 102.147 133.293 102.128 133.126C101.407 127.144 102.879 121.105 106.272 116.126C109.664 111.147 114.746 107.567 120.576 106.049L120.592 106.052C120.761 106.006 120.938 105.998 121.11 106.029C121.282 106.059 121.446 106.127 121.59 106.227L121.608 106.23C121.745 106.334 121.861 106.464 121.947 106.614C122.033 106.763 122.088 106.928 122.109 107.1L122.105 107.115ZM119.825 108.772C115.172 110.315 111.134 113.305 108.3 117.304C105.438 121.455 104.055 126.448 104.373 131.479C114.075 128.409 120.233 119.363 119.825 108.772Z" fill="#E6ECF0"/>
<path d="M93.3754 86.0492C93.3334 85.8821 93.3271 85.7079 93.3569 85.5382C93.3868 85.3685 93.4517 85.2069 93.5482 85.0641C93.6436 84.9161 93.7724 84.7923 93.9238 84.7024C94.0753 84.6126 94.2455 84.5591 94.4212 84.5464C100.406 83.8693 106.433 85.3833 111.387 88.808C116.341 92.2327 119.886 97.3362 121.367 103.174C121.447 103.515 121.39 103.875 121.208 104.174C121.11 104.316 120.983 104.435 120.835 104.525C120.688 104.614 120.523 104.672 120.352 104.694C107.974 106.197 96.8784 98.5381 93.3889 86.0636L93.3754 86.0492ZM118.69 102.451C117.181 97.6369 114.097 93.4701 109.933 90.6217C105.852 87.9036 101.008 86.5648 96.1102 86.8014C99.5341 96.8456 108.518 103.081 118.689 102.455L118.69 102.451Z" fill="#E6ECF0"/>
<path d="M140.816 75.9262L140.849 75.9314C141.013 75.892 141.184 75.8883 141.35 75.9203C141.516 75.9523 141.673 76.0194 141.81 76.1171C141.946 76.2177 142.059 76.3452 142.143 76.4916C142.227 76.638 142.28 76.8002 142.299 76.968C143.024 82.9498 141.554 88.9918 138.161 93.9716C134.769 98.9515 129.684 102.531 123.851 104.045L123.836 104.042C123.669 104.088 123.494 104.097 123.324 104.067C123.154 104.037 122.992 103.969 122.851 103.869C122.711 103.767 122.594 103.637 122.507 103.487C122.421 103.337 122.367 103.171 122.349 102.999C121.128 90.11 128.725 78.9875 140.827 75.9442L140.816 75.9262ZM124.603 101.322C129.256 99.7785 133.294 96.7892 136.128 92.7896C138.99 88.6386 140.373 83.6461 140.055 78.6144C130.336 81.6848 124.179 90.7481 124.602 101.324L124.603 101.322Z" fill="#E6ECF0"/>
<path d="M151.058 124.009C151.106 124.18 151.116 124.36 151.088 124.535C151.06 124.711 150.995 124.878 150.897 125.026C150.801 125.176 150.673 125.303 150.521 125.395C150.37 125.488 150.199 125.544 150.022 125.56C144.039 126.239 138.013 124.726 133.061 121.301C128.109 117.876 124.566 112.772 123.091 106.935L123.096 106.902C123.051 106.739 123.042 106.568 123.069 106.402C123.095 106.235 123.156 106.075 123.249 105.934L123.254 105.901C123.358 105.764 123.489 105.649 123.639 105.563C123.788 105.477 123.953 105.421 124.124 105.4C136.502 103.897 147.581 111.554 151.076 123.996L151.058 124.009ZM125.754 107.642C127.263 112.456 130.347 116.622 134.511 119.471C138.592 122.189 143.436 123.527 148.334 123.291C144.91 113.249 135.924 107.016 125.754 107.642Z" fill="#E6ECF0"/>
<path d="M69.2909 126.513C70.236 136.527 64.3375 145.168 54.9344 147.535L54.9098 147.531C54.7821 147.562 54.6494 147.565 54.5204 147.54C54.3915 147.515 54.2697 147.462 54.1625 147.387L54.1486 147.384C54.0431 147.306 53.9551 147.207 53.8896 147.093C53.8242 146.979 53.7828 146.853 53.7684 146.723C53.2079 142.075 54.3518 137.382 56.9877 133.513C59.6236 129.645 63.5728 126.863 68.1032 125.684L68.1158 125.686C68.2471 125.651 68.3846 125.645 68.5185 125.668C68.6524 125.692 68.7796 125.744 68.8911 125.822L68.9041 125.824C69.0108 125.905 69.1002 126.007 69.1668 126.123C69.2335 126.239 69.2758 126.367 69.292 126.5L69.2909 126.513ZM67.5188 127.801C63.9041 129 60.767 131.323 58.5653 134.431C56.3408 137.656 55.2659 141.535 55.5137 145.445C63.0508 143.059 67.8364 136.03 67.5188 127.801Z" fill="#E6ECF0"/>
<path d="M46.967 110.149C46.9346 110.02 46.93 109.885 46.9531 109.753C46.9762 109.622 47.0266 109.497 47.1013 109.386C47.1755 109.272 47.2752 109.176 47.3927 109.107C47.5101 109.038 47.642 108.997 47.778 108.987C52.4279 108.46 57.1111 109.637 60.9605 112.298C64.8098 114.959 67.5643 118.924 68.7145 123.46C68.746 123.592 68.7517 123.728 68.7306 123.861C68.7095 123.995 68.6619 124.122 68.5914 124.238C68.5147 124.347 68.4161 124.439 68.3018 124.508C68.1875 124.577 68.0601 124.622 67.9277 124.639C58.3096 125.806 49.6874 119.855 46.9774 110.162L46.967 110.149ZM66.637 122.893C65.4658 119.153 63.07 115.916 59.8358 113.702C56.6651 111.59 52.9014 110.55 49.0962 110.734C51.7531 118.537 58.7345 123.38 66.6365 122.896L66.637 122.893Z" fill="#E6ECF0"/>
<path d="M83.8303 102.277L83.8549 102.281C83.9826 102.25 84.1154 102.247 84.2443 102.272C84.3733 102.297 84.4956 102.35 84.6027 102.426C84.7076 102.504 84.795 102.603 84.86 102.717C84.9251 102.831 84.9665 102.957 84.9809 103.087C85.5444 107.735 84.402 112.43 81.7656 116.299C79.1293 120.168 75.178 122.949 70.6461 124.126L70.6355 124.124C70.5062 124.159 70.3705 124.166 70.2385 124.142C70.1066 124.119 69.9811 124.067 69.8717 123.99C69.7633 123.911 69.6727 123.81 69.6057 123.693C69.5387 123.577 69.4969 123.448 69.4828 123.315C68.5377 113.3 74.4361 104.66 83.8401 102.293L83.8303 102.277ZM71.2324 122.009C74.847 120.81 77.9841 118.487 80.186 115.379C82.4098 112.154 83.4846 108.275 83.2376 104.365C75.6879 106.747 70.8999 113.791 71.2324 122.009Z" fill="#E6ECF0"/>
<path d="M91.7884 139.642C91.8251 139.775 91.8328 139.914 91.8112 140.05C91.7896 140.187 91.7392 140.317 91.6633 140.432C91.5893 140.548 91.4896 140.647 91.3717 140.718C91.2537 140.79 91.1207 140.834 90.9831 140.846C86.3344 141.374 81.6522 140.199 77.8043 137.537C73.9565 134.876 71.2039 130.91 70.0574 126.374L70.0614 126.348C70.0273 126.221 70.0204 126.089 70.0409 125.96C70.0614 125.83 70.1089 125.706 70.1805 125.596L70.1845 125.571C70.2653 125.464 70.3668 125.375 70.4828 125.308C70.5988 125.241 70.7268 125.198 70.8597 125.182C80.4779 124.013 89.0865 129.963 91.8017 139.63L91.7884 139.642ZM72.128 126.925C73.2988 130.665 75.6938 133.902 78.9278 136.115C82.0986 138.227 85.8622 139.267 89.6674 139.084C87.0105 131.28 80.0295 126.437 72.1282 126.923L72.128 126.925Z" fill="#E6ECF0"/>
</svg>
