<svg width="170" height="259" viewBox="0 0 170 259" fill="none" xmlns="http://www.w3.org/2000/svg">
<g clip-path="url(#clip0_1831_14839)">
<rect width="169.667" height="258.858" rx="25" transform="matrix(-1 0 0 1 169.667 0)" fill="#CCD9E1"/>
<g clip-path="url(#clip1_1831_14839)">
<path d="M-56.5004 304.16V115.83C-56.5004 115.83 -37.0004 38.3798 83.3596 37.2698C203.71 36.1598 226 115.83 226 115.83V304.16H-56.5004Z" fill="#AAD3D4" stroke="#003F6A" stroke-width="3" stroke-miterlimit="10"/>
<path d="M118.28 34.5601C106.65 34.5601 97.2196 43.9901 97.2196 55.6201C97.2196 67.2501 106.65 76.6801 118.28 76.6801C129.91 76.6801 139.34 67.2501 139.34 55.6201C139.34 43.9901 129.91 34.5601 118.28 34.5601Z" fill="white"/>
<path d="M115.65 47.3398C107.96 47.3398 101.73 53.5698 101.73 61.2598V62.0098C101.73 69.6998 107.96 75.9298 115.65 75.9298C123.34 75.9298 129.57 69.6998 129.57 62.0098V61.2598C129.57 53.5698 123.34 47.3398 115.65 47.3398Z" fill="#003F6A"/>
<path d="M74.6496 30.7998C63.0196 30.7998 53.5896 40.2298 53.5896 51.8598C53.5896 63.4898 63.0196 72.9198 74.6496 72.9198C86.2796 72.9198 95.7096 63.4898 95.7096 51.8598C95.7096 40.2298 86.2796 30.7998 74.6496 30.7998Z" fill="white"/>
<path d="M77.2896 43.5801C69.5996 43.5801 63.3696 49.8101 63.3696 57.5001V58.2501C63.3696 65.9401 69.5996 72.1701 77.2896 72.1701C84.9796 72.1701 91.2096 65.9401 91.2096 58.2501V57.5001C91.2096 49.8101 84.9796 43.5801 77.2896 43.5801Z" fill="#003F6A"/>
<path d="M68.9197 18.82C62.0897 17.32 46.1197 16.82 36.9197 26.82" stroke="#003F6A" stroke-width="4" stroke-linecap="round" stroke-linejoin="round"/>
<path d="M116.92 22.82C123.76 21.32 139.72 20.82 148.92 30.82" stroke="#003F6A" stroke-width="4" stroke-linecap="round" stroke-linejoin="round"/>
<path d="M108.76 104.851L105.11 94.4106C109.6 92.5106 111.31 88.6806 113.93 93.0306C116.06 96.5606 114.02 101.691 108.76 104.851Z" fill="white"/>
<path d="M108.76 106.85C108.53 106.85 108.3 106.81 108.08 106.73C107.51 106.53 107.07 106.08 106.87 105.51L103.22 95.0704C102.87 94.0704 103.36 92.9804 104.33 92.5704C105.51 92.0704 106.52 91.3904 107.41 90.7804C108.9 89.7704 110.43 88.7204 112.27 89.1204C113.97 89.4904 115.01 90.9404 115.65 92.0004C116.77 93.8504 117.06 96.0304 116.49 98.2904C115.7 101.47 113.26 104.48 109.79 106.56C109.48 106.75 109.12 106.85 108.76 106.85ZM107.57 95.4204L109.75 101.66C111.21 100.36 112.21 98.8604 112.59 97.3304C112.8 96.4804 112.9 95.2304 112.2 94.0704C111.66 93.1704 111.36 93.0204 111.36 93.0204C111.15 93.0604 110.28 93.6604 109.64 94.0904C109.04 94.5004 108.35 94.9704 107.56 95.4204H107.57Z" fill="#7FBDBF"/>
<path d="M108.76 104.85C105.72 106.68 101.58 107.87 96.5198 107.68L97.5498 95.0002C97.7598 95.0502 97.9698 95.0902 98.2098 95.1402C101.11 95.6302 103.33 95.1602 105.11 94.4102L108.76 104.85Z" fill="white"/>
<path d="M97.5498 109.7C97.1798 109.7 96.8198 109.7 96.4398 109.68C95.8998 109.66 95.3798 109.42 95.0198 109.01C94.6598 108.6 94.4798 108.06 94.5198 107.52L95.5498 94.8401C95.5998 94.2601 95.8898 93.7401 96.3598 93.3901C96.8298 93.0501 97.4198 92.9201 97.9798 93.0501C98.1798 93.0901 98.3698 93.1401 98.5898 93.1801C100.66 93.5301 102.5 93.3401 104.33 92.5701C104.84 92.3601 105.41 92.3601 105.92 92.5901C106.42 92.8101 106.81 93.2401 107 93.7601L110.65 104.2C110.96 105.1 110.6 106.09 109.79 106.58C106.36 108.64 102.15 109.72 97.5498 109.72V109.7ZM99.3698 97.3001L98.6898 105.68C101.96 105.53 104.48 104.75 106.3 103.9L103.87 96.9401C102.42 97.3001 100.93 97.4301 99.3698 97.3001Z" fill="#7FBDBF"/>
<path d="M97.5501 95.0007L96.5201 107.681C95.3701 107.631 94.1601 107.521 92.8901 107.331C88.9101 106.701 85.6401 104.991 83.0901 102.721L91.7501 91.1807C93.0401 92.8907 94.7701 94.3607 97.5501 94.9907V95.0007Z" fill="white"/>
<path d="M96.5201 109.68C96.5201 109.68 96.4701 109.68 96.4401 109.68C95.2201 109.63 93.9301 109.5 92.6001 109.31C88.4601 108.65 84.8201 106.94 81.7601 104.22C80.9801 103.53 80.8701 102.36 81.4901 101.53L90.1501 89.9904C90.5301 89.4904 91.1201 89.1904 91.7501 89.1904C92.3801 89.1904 92.9701 89.4804 93.3501 89.9904C94.6101 91.6704 96.0501 92.6104 98.0001 93.0604C98.9701 93.2804 99.6301 94.1804 99.5501 95.1704L98.5201 107.85C98.4401 108.89 97.5601 109.69 96.5301 109.69L96.5201 109.68ZM85.8501 102.37C88.0101 103.92 90.4801 104.92 93.2101 105.35C93.7101 105.42 94.2001 105.49 94.6901 105.54L95.4301 96.4404C94.1201 95.9404 92.9601 95.2304 91.9101 94.3004L85.8601 102.37H85.8501Z" fill="#7FBDBF"/>
<path d="M91.7399 91.1806L83.0799 102.721C77.8899 98.1106 75.7099 91.2506 76.9299 86.8506C77.5399 84.6306 79.0399 83.0106 81.4199 82.6106C84.5599 82.1206 86.3299 83.1306 87.6899 84.7406C89.1599 86.5206 90.1199 89.0506 91.7399 91.1806Z" fill="white"/>
<path d="M83.0898 104.72C82.5998 104.72 82.1298 104.54 81.7598 104.22C76.3198 99.3904 73.4698 91.8604 75.0098 86.3304C75.8598 83.2304 78.0798 81.1604 81.0998 80.6504C84.5298 80.1104 87.1898 81.0304 89.2298 83.4704C90.1198 84.5404 90.8098 85.7804 91.4798 86.9704C92.0498 88.0004 92.6498 89.0604 93.3498 89.9804C93.8898 90.6904 93.8898 91.6704 93.3498 92.3904L84.6898 103.93C84.3498 104.38 83.8498 104.66 83.2898 104.72C83.2198 104.72 83.1598 104.73 83.0898 104.73V104.72ZM82.9298 84.4904C82.5698 84.4904 82.1698 84.5204 81.7298 84.5904C80.2698 84.8304 79.2998 85.7704 78.8598 87.3804C77.9998 90.4904 79.3098 95.6304 82.8698 99.6704L89.2798 91.1304C88.8098 90.3904 88.3898 89.6404 87.9798 88.9104C87.3698 87.8204 86.7998 86.8004 86.1598 86.0204C85.3898 85.1104 84.5098 84.4904 82.9398 84.4904H82.9298Z" fill="#7FBDBF"/>
</g>
</g>
<defs>
<clipPath id="clip0_1831_14839">
<rect width="169.667" height="258.858" rx="25" transform="matrix(-1 0 0 1 169.667 0)" fill="white"/>
</clipPath>
<clipPath id="clip1_1831_14839">
<rect width="285.5" height="289.66" fill="white" transform="translate(-58.0004 16)"/>
</clipPath>
</defs>
</svg>
