<svg width="380" height="271" viewBox="0 0 380 271" fill="none" xmlns="http://www.w3.org/2000/svg">
<path d="M355.79 27.9701C355.23 25.8801 353.52 24.1701 351.43 23.6101C349.42 23.0701 347.32 23.6501 345.81 25.1601L330.76 40.2101C328.43 42.5401 328.45 46.2201 330.82 48.5801C332.01 49.7701 333.54 50.3701 335.05 50.3701C336.56 50.3701 338.03 49.7901 339.19 48.6401L354.24 33.5901C355.75 32.0801 356.33 29.9801 355.79 27.9701Z" fill="#CCD9E1"/>
<path d="M373.52 83.6001H352.23C348.93 83.6001 346.35 86.2201 346.35 89.5601C346.35 92.9001 348.93 95.5201 352.23 95.5201H373.52C376.82 95.5201 379.4 92.9001 379.4 89.5601C379.4 86.2201 376.82 83.6001 373.52 83.6001Z" fill="#CCD9E1"/>
<path d="M289.84 0C286.5 0 283.88 2.58 283.88 5.88V27.17C283.88 30.47 286.5 33.05 289.84 33.05C293.18 33.05 295.8 30.47 295.8 27.17V5.88C295.8 2.58 293.18 0 289.84 0Z" fill="#CCD9E1"/>
<path d="M268.16 239.82H128.44L67.4899 270.26L65.09 239.82H54.34C24.71 239.82 0.699951 215.8 0.699951 186.18V107.2C0.699951 78.8 22.8299 55.33 51.1799 53.65L274.02 40.48C306.92 38.54 333.78 66.45 330.57 99.25L321.56 191.4C318.87 218.87 295.78 239.82 268.17 239.82H268.16Z" fill="#CCD9E1"/>
<path d="M163.23 24.0299C156.63 19.1899 147.75 19.1899 141.15 24.0299L105.64 50.05L191.69 44.8899L163.23 24.0299Z" fill="white"/>
<path d="M135.55 148.35C135.33 148.31 135.1 148.29 134.86 148.29H127.84L132.29 151.14L135.91 148.44C135.91 148.44 135.88 148.43 135.86 148.43C135.76 148.4 135.66 148.37 135.56 148.36L135.55 148.35Z" fill="#CCD9E1"/>
<path d="M108.31 146.51H113.8L97.5599 136.11C98.2699 141.97 102.81 146.51 108.31 146.51ZM99.36 141.29C101.84 143.2 104.56 144.83 107.25 146.44C103.98 146.09 101.13 144.13 99.36 141.29Z" fill="white"/>
<path d="M164.52 145.8C164.89 146.02 165.26 146.26 165.62 146.5H166.82C166.08 146.2 165.31 145.99 164.53 145.8H164.52Z" fill="white"/>
<path d="M128.81 147.55C129.28 146.9 130.03 146.51 130.84 146.51H138.58C140.33 145.33 142.19 144.4 144.11 143.72C143.18 143.07 142.23 142.49 141.26 141.98C142.98 142.08 144.7 142.13 146.42 142.14C146.2 142.46 146.03 142.81 145.88 143.18C151.38 141.7 157.26 142.22 162.5 144.73C161.37 143.66 160.2 142.62 158.98 141.63H157.29C156.7 141.19 155.96 140.91 155.06 140.91H147.18C146.08 140.19 145.38 139.32 143.8 139.26C142.18 139.2 140.68 139.88 139.46 140.91H132.22C131.28 140.91 130.52 141.19 129.94 141.63H128.51C121.81 141.63 116.28 136.27 115.31 129.29C111.5 128.23 109.5 132.88 111.43 135.44C111.25 135.62 111.09 135.81 110.95 136.02C107.18 132.04 102.95 128.56 98.72 125.07C98.31 124.73 97.8799 124.5 97.4399 124.34V128.84L127.83 148.3H128.27L128.81 147.56V147.55Z" fill="white"/>
<path d="M157.53 140.52C159.42 138.37 158.51 134.36 154.75 134.1C149.87 133.76 145.01 133.87 140.15 134.14C131.79 133.51 123.55 131.81 115.43 129.3C115.39 129.29 115.35 129.28 115.31 129.27C116.27 136.25 121.8 141.61 128.51 141.61H129.94C130.52 141.16 131.29 140.89 132.22 140.89H139.46C140.68 139.85 142.18 139.17 143.8 139.24C145.38 139.3 146.07 140.17 147.18 140.89H155.06C155.96 140.89 156.7 141.17 157.29 141.61H158.98C158.71 141.39 158.45 141.15 158.17 140.93C157.96 140.77 157.75 140.63 157.54 140.51L157.53 140.52Z" fill="white"/>
<path d="M107.25 146.44C103.98 146.09 101.13 144.13 99.36 141.29C101.83 143.2 104.55 144.83 107.25 146.44Z" fill="white"/>
<path d="M146.42 142.14C144.7 142.13 142.98 142.08 141.26 141.98C142.23 142.5 143.18 143.08 144.11 143.72C144.7 143.51 145.29 143.33 145.89 143.17C146.03 142.81 146.21 142.46 146.43 142.13L146.42 142.14Z" fill="white"/>
<path d="M166.82 146.51H179.14L186.77 141.62H158.98C160.2 142.61 161.37 143.65 162.5 144.72C163.19 145.05 163.86 145.41 164.52 145.8C165.3 145.99 166.08 146.21 166.81 146.5L166.82 146.51Z" fill="white"/>
<path d="M115.15 72.28C115.15 70.67 115.4 69.12 115.85 67.68H108.31C102.32 67.68 97.45 73.06 97.45 79.67V124.34C97.88 124.5 98.31 124.73 98.73 125.07C102.96 128.56 107.2 132.04 110.96 136.02C111.1 135.81 111.26 135.62 111.44 135.44C109.51 132.88 111.51 128.23 115.32 129.29C115.22 128.59 115.16 127.87 115.16 127.14V72.29L115.15 72.28Z" fill="white"/>
<path d="M269.24 145.82C271.31 145.01 273.09 143.54 274.37 141.62H269.24V145.82Z" fill="white"/>
<path d="M198.03 141.62L190.4 146.51H263.17V141.62H198.03Z" fill="white"/>
<path d="M258.66 86.2599C260.05 87.0999 261.32 88.09 262.47 89.21C262.47 89.21 263.36 90.02 264.43 91.38C265.14 92.29 265.79 93.2499 266.36 94.2599C266.38 94.2899 266.4 94.31 266.42 94.35C267.79 96.81 268.67 99.52 269.04 102.32C269.04 102.35 269.04 102.37 269.05 102.4C269.1 102.8 269.14 103.2 269.17 103.61C269.17 103.69 269.19 103.78 269.19 103.86C269.22 104.35 269.24 104.83 269.24 105.32V141.62H274.37C275.7 139.63 276.5 137.18 276.5 134.52V79.67C276.5 73.06 271.63 67.68 265.64 67.68H233.31L255.05 83.56L258.65 86.27L258.66 86.2599Z" fill="white"/>
<path d="M229.68 114.14L231.77 111.52L224.43 109.7L226.05 104.13L232.91 107.37L232.23 98.67H237.63L236.95 107.37L243.81 104.13L244.04 104.93L259.54 95C259.25 94.64 258.95 94.29 258.63 93.96L222.75 67.67H115.83C115.38 69.12 115.13 70.66 115.13 72.27V127.12C115.13 127.85 115.2 128.57 115.29 129.27C115.33 129.28 115.37 129.28 115.41 129.3C123.53 131.81 131.77 133.51 140.13 134.14C144.99 133.87 149.85 133.76 154.73 134.1C158.49 134.36 159.39 138.37 157.51 140.52C157.72 140.64 157.93 140.77 158.14 140.94C158.42 141.16 158.68 141.4 158.95 141.62H186.74L229.65 114.14H229.68ZM150.49 118.28L146.14 121.69L141.9 114.19L137.71 121.69L133.36 118.28L138.76 111.52L131.42 109.7L133.04 104.13L139.9 107.37L139.22 98.67H144.62L143.94 107.37L150.8 104.13L152.42 109.7L145.08 111.52L150.48 118.28H150.49ZM195.05 104.13L201.91 107.37L201.23 98.67H206.63L205.95 107.37L212.81 104.13L214.43 109.7L207.09 111.52L212.49 118.28L208.14 121.69L203.9 114.19L199.71 121.69L195.36 118.28L200.76 111.52L193.42 109.7L195.04 104.13H195.05ZM177.15 121.7L172.91 114.2L168.72 121.7L164.37 118.29L169.77 111.53L162.43 109.71L164.05 104.14L170.91 107.38L170.23 98.68H175.63L174.95 107.38L181.81 104.14L183.43 109.71L176.09 111.53L181.49 118.29L177.14 121.7H177.15Z" fill="white"/>
<path d="M239.16 121.7L236.5 116.99L231.61 120.12L230.73 121.69L230.02 121.13L198.04 141.61H263.18V105.31C263.18 104.91 263.16 104.51 263.13 104.11C263.13 104.03 263.11 103.94 263.11 103.86C263.08 103.53 263.05 103.21 263 102.88C263 102.81 262.98 102.75 262.97 102.68C262.91 102.31 262.84 101.94 262.76 101.58C262.76 101.58 262.76 101.57 262.76 101.56C262.67 101.16 262.56 100.76 262.44 100.37L240.48 114.43L243.54 118.26L239.19 121.67L239.16 121.7Z" fill="white"/>
<path d="M186.77 141.62L179.14 146.51H190.4L198.03 141.62H186.77Z" fill="white"/>
<path d="M263.17 141.62V146.51H265.65C266.91 146.51 268.12 146.26 269.25 145.82V141.62H263.17Z" fill="white"/>
<path d="M265.65 62.67H226.47L166.92 19.18C158.1 12.72 146.27 12.72 137.46 19.18L47.79 84.9L45.52 86.2599C43.9 87.2299 42.44 88.42 41.14 89.77L41.02 89.86C40.62 90.15 40.3299 90.51 40.1199 90.91C39.2599 91.95 38.5 93.06 37.84 94.2299C37.84 94.2299 37.8366 94.2366 37.83 94.25C37.83 94.25 37.8199 94.25 37.8099 94.27C37.7999 94.3 37.7799 94.32 37.7599 94.35C36.3799 96.83 35.4899 99.57 35.1299 102.4C35.1299 102.4 35.1199 102.41 35.1199 102.42C35.0699 102.82 35.0399 103.23 34.9999 103.64C34.9999 103.71 34.99 103.79 34.98 103.87C34.95 104.35 34.9399 104.84 34.9399 105.32V206.24C34.9399 209.66 35.69 212.9 37.04 215.79C40.48 223.18 47.78 228.29 56.2 228.29H247.98C252.2 228.29 256.13 227.01 259.44 224.81C262.74 222.61 265.43 219.49 267.15 215.79C268.49 212.9 269.25 209.66 269.25 206.24V151.05C274.05 149.85 278.01 146.31 280.04 141.62C280.97 139.45 281.51 137.05 281.51 134.52V79.66C281.51 70.3 274.39 62.67 265.65 62.67ZM45.15 94.38L105.64 50.05L141.15 24.0299C147.75 19.1899 156.63 19.1899 163.23 24.0299L191.69 44.8899L215.96 62.67H108.31C99.5699 62.67 92.45 70.3 92.45 79.66V125.63L44.6299 95C44.7899 94.79 44.97 94.58 45.15 94.38ZM44.0099 215.72C43.9199 215.6 43.8399 215.49 43.7599 215.38C43.5999 215.13 43.44 214.87 43.29 214.62C43.2 214.46 43.1 214.3 43.02 214.14C42.88 213.9 42.76 213.65 42.64 213.4C42.55 213.21 42.4599 213.01 42.3699 212.81C42.2699 212.58 42.18 212.34 42.08 212.1C42 211.87 41.92 211.64 41.84 211.41C41.77 211.18 41.6999 210.96 41.6299 210.73C41.5599 210.46 41.4999 210.19 41.4299 209.92C41.3899 209.71 41.34 209.5 41.3 209.29C41.24 208.96 41.19 208.63 41.15 208.3C41.13 208.13 41.1 207.96 41.09 207.79C41.04 207.28 41.0099 206.77 41.0099 206.24V105.26C41.0099 104.89 41.0299 104.52 41.0599 104.14L41.09 103.81C41.12 103.52 41.1499 103.24 41.1899 102.95C41.1999 102.84 41.2199 102.72 41.2399 102.61C41.2899 102.32 41.34 102.04 41.41 101.76C41.43 101.65 41.45 101.55 41.48 101.44C41.55 101.15 41.63 100.86 41.71 100.57C41.73 100.51 41.75 100.44 41.77 100.38L92.45 132.83L94.95 134.44L97.5599 136.11L113.8 146.51L127.09 155.02L44.6 216.53C44.39 216.27 44.1999 215.99 44.0099 215.72ZM254.73 220.53C254.29 220.76 253.83 220.97 253.36 221.16C253.24 221.21 253.11 221.25 252.98 221.3C252.7 221.41 252.4 221.51 252.11 221.6C251.84 221.67 251.58 221.75 251.31 221.81C251.15 221.85 250.99 221.89 250.83 221.92C250.44 222 250.04 222.06 249.64 222.11C249.55 222.12 249.45 222.13 249.36 222.14C248.9 222.18 248.44 222.21 247.98 222.21H56.2C55.74 222.21 55.29 222.18 54.84 222.14C54.74 222.13 54.63 222.12 54.53 222.11C54.14 222.06 53.7499 222 53.3699 221.92C53.1999 221.89 53.03 221.85 52.86 221.81C52.62 221.75 52.38 221.68 52.15 221.61C51.81 221.52 51.48 221.41 51.16 221.29C51.06 221.25 50.9599 221.21 50.8699 221.17C50.3699 220.98 49.89 220.76 49.42 220.51L141.22 152.06C141.48 151.87 141.75 151.69 142.02 151.51C143.76 150.35 145.63 149.51 147.57 149.01C150.55 148.23 153.66 148.23 156.64 149.01C158.57 149.51 160.45 150.35 162.18 151.51C162.46 151.69 162.73 151.87 162.99 152.06L254.78 220.5C254.78 220.5 254.75 220.52 254.73 220.53ZM135.83 148.5C135.84 148.45 135.85 148.42 135.86 148.42C135.86 148.43 135.89 148.43 135.92 148.43H135.91L135.83 148.5ZM263.17 206.31C263.17 206.81 263.14 207.3 263.1 207.78C263.08 207.97 263.05 208.16 263.03 208.34C262.99 208.66 262.95 208.97 262.89 209.28C262.85 209.5 262.8 209.72 262.75 209.94C262.69 210.2 262.63 210.46 262.55 210.71C262.49 210.95 262.41 211.18 262.34 211.42C262.26 211.64 262.19 211.87 262.1 212.09C262.01 212.33 261.91 212.58 261.81 212.81C261.73 213.01 261.64 213.2 261.54 213.39C261.43 213.64 261.3 213.89 261.17 214.13C261.08 214.3 260.99 214.45 260.89 214.61C260.74 214.87 260.59 215.12 260.43 215.37C260.35 215.49 260.26 215.61 260.17 215.73C259.98 216 259.8 216.26 259.59 216.52L177.12 155.02L182.59 151.51H263.17V206.31ZM276.51 134.52C276.51 137.18 275.71 139.63 274.38 141.62C273.1 143.53 271.32 145.01 269.25 145.82C268.12 146.26 266.91 146.51 265.65 146.51H165.63C165.26 146.26 164.9 146.03 164.53 145.8C163.86 145.41 163.19 145.05 162.5 144.72C157.26 142.21 151.39 141.69 145.89 143.17C145.29 143.33 144.7 143.51 144.11 143.72C142.19 144.4 140.34 145.33 138.58 146.51L125.13 146.55L97.45 128.83V79.66C97.45 73.05 102.32 67.67 108.31 67.67H265.65C271.64 67.67 276.51 73.05 276.51 79.66V134.52Z" fill="#003F6A"/>
<path d="M127.09 155.02L44.6 216.53C44.39 216.27 44.1999 215.99 44.0099 215.72C43.9199 215.6 43.8399 215.49 43.7599 215.38C43.5999 215.13 43.44 214.87 43.29 214.62C43.2 214.46 43.1 214.3 43.02 214.14C42.88 213.9 42.76 213.65 42.64 213.4C42.55 213.21 42.4599 213.01 42.3699 212.81C42.2699 212.58 42.18 212.34 42.08 212.1C42 211.87 41.92 211.64 41.84 211.41C41.77 211.18 41.6999 210.96 41.6299 210.73C41.5599 210.46 41.4999 210.19 41.4299 209.92C41.3899 209.71 41.34 209.5 41.3 209.29C41.24 208.96 41.19 208.63 41.15 208.3C41.13 208.13 41.1 207.96 41.09 207.79C41.04 207.28 41.0099 206.77 41.0099 206.24V105.26C41.0099 104.89 41.0299 104.52 41.0599 104.14L41.09 103.81C41.12 103.52 41.1499 103.24 41.1899 102.95C41.1999 102.84 41.2199 102.72 41.2399 102.61C41.2899 102.32 41.34 102.04 41.41 101.76C41.43 101.65 41.45 101.55 41.48 101.44C41.55 101.15 41.63 100.86 41.71 100.57C41.73 100.51 41.75 100.44 41.77 100.38L92.45 132.83L94.95 134.44L97.5599 136.11L113.8 146.51L127.09 155.02Z" fill="#FBD896"/>
<path d="M263.17 151.51V206.31C263.17 206.81 263.14 207.3 263.1 207.78C263.08 207.97 263.05 208.16 263.03 208.34C262.99 208.66 262.95 208.97 262.89 209.28C262.85 209.5 262.8 209.72 262.75 209.94C262.69 210.2 262.63 210.46 262.55 210.71C262.49 210.95 262.41 211.18 262.34 211.42C262.26 211.64 262.19 211.87 262.1 212.09C262.01 212.33 261.91 212.58 261.81 212.81C261.73 213.01 261.64 213.2 261.54 213.39C261.43 213.64 261.3 213.89 261.17 214.13C261.08 214.3 260.99 214.45 260.89 214.61C260.74 214.87 260.59 215.12 260.43 215.37C260.35 215.49 260.26 215.61 260.17 215.73C259.98 216 259.8 216.26 259.59 216.52L177.12 155.02L182.59 151.51H263.17Z" fill="#FBD896"/>
<path d="M215.96 62.67H108.31C99.5699 62.67 92.45 70.3 92.45 79.66V125.63L44.6299 95C44.7899 94.79 44.97 94.58 45.15 94.38L105.64 50.05L141.15 24.0299C147.75 19.1899 156.63 19.1899 163.23 24.0299L191.69 44.8899L215.96 62.67Z" fill="#FEC5B3"/>
<path d="M254.78 220.5C254.78 220.5 254.75 220.52 254.73 220.53C254.29 220.76 253.83 220.97 253.36 221.16C253.24 221.21 253.11 221.25 252.98 221.3C252.7 221.41 252.4 221.51 252.11 221.6C251.84 221.67 251.58 221.75 251.31 221.81C251.15 221.85 250.99 221.89 250.83 221.92C250.44 222 250.04 222.06 249.64 222.11C249.55 222.12 249.45 222.13 249.36 222.14C248.9 222.18 248.44 222.21 247.98 222.21H56.2C55.74 222.21 55.29 222.18 54.84 222.14C54.74 222.13 54.63 222.12 54.53 222.11C54.14 222.06 53.7499 222 53.3699 221.92C53.1999 221.89 53.03 221.85 52.86 221.81C52.62 221.75 52.38 221.68 52.15 221.61C51.81 221.52 51.48 221.41 51.16 221.29C51.06 221.25 50.9599 221.21 50.8699 221.17C50.3699 220.98 49.89 220.76 49.42 220.51L141.22 152.06C141.48 151.87 141.75 151.69 142.02 151.51C143.76 150.35 145.63 149.51 147.57 149.01C150.55 148.23 153.66 148.23 156.64 149.01C158.57 149.51 160.45 150.35 162.18 151.51C162.46 151.69 162.73 151.87 162.99 152.06L254.78 220.5Z" fill="#AAD3D4"/>
<path d="M259.56 95.0099L244.06 104.94L245.45 109.71L238.11 111.53L240.45 114.46L262.41 100.4C262.53 100.79 262.64 101.19 262.73 101.59C262.73 101.59 262.73 101.6 262.73 101.61C262.81 101.97 262.88 102.34 262.94 102.71C262.95 102.78 262.96 102.84 262.97 102.91C263.02 103.23 263.05 103.56 263.08 103.89C263.08 103.97 263.1 104.06 263.1 104.14C263.13 104.54 263.15 104.94 263.15 105.34V141.64H269.23V105.34C269.23 104.85 269.21 104.36 269.18 103.88C269.18 103.8 269.16 103.71 269.16 103.63C269.13 103.23 269.09 102.82 269.04 102.42C269.04 102.39 269.04 102.37 269.03 102.34C268.66 99.5399 267.77 96.8299 266.41 94.3699C266.39 94.34 266.37 94.31 266.35 94.28C265.78 93.27 265.13 92.31 264.42 91.4C263.35 90.04 262.46 89.2299 262.46 89.2299C261.31 88.1099 260.04 87.1199 258.65 86.28L255.05 83.57L233.31 67.69H222.77L258.65 93.9799C258.97 94.31 259.27 94.66 259.56 95.02V95.0099Z" fill="white"/>
<path d="M230.01 121.14L226.37 118.28L229.68 114.14L186.77 141.62H198.03L230.01 121.14Z" fill="white"/>
<path d="M234.92 114.19L231.6 120.12L236.5 116.99L234.92 114.19Z" fill="white"/>
<path d="M150.81 104.13L143.94 107.37L144.62 98.67H139.22L139.91 107.37L133.04 104.13L131.42 109.7L138.75 111.52L133.36 118.28L137.7 121.7L141.9 114.19L146.14 121.7L150.49 118.28L145.09 111.52L152.43 109.7L150.81 104.13Z" fill="#009174"/>
<path d="M183.44 109.7L181.81 104.13L174.95 107.37L175.63 98.67H170.23L170.91 107.37L164.05 104.13L162.42 109.7L169.76 111.52L164.36 118.28L168.71 121.7L172.9 114.19L177.15 121.7L181.5 118.28L176.1 111.52L183.44 109.7Z" fill="#009174"/>
<path d="M195.37 118.28L199.72 121.7L203.91 114.19L208.15 121.7L212.5 118.28L207.11 111.52L214.44 109.7L212.82 104.13L205.95 107.37L206.63 98.67H201.24L201.92 107.37L195.05 104.13L193.43 109.7L200.77 111.52L195.37 118.28Z" fill="#009174"/>
<path d="M243.82 104.13L236.96 107.37L237.64 98.67H232.24L232.92 107.37L226.06 104.13L224.44 109.7L231.77 111.52L229.68 114.14L244.06 104.93L243.82 104.13Z" fill="#009174"/>
<path d="M231.6 120.12L230.01 121.14L230.72 121.7L231.6 120.12Z" fill="#009174"/>
<path d="M239.16 121.7L243.51 118.28L240.45 114.45L236.5 116.99L239.16 121.7Z" fill="#009174"/>
<path d="M230.01 121.14L231.6 120.12L234.92 114.19L236.5 116.99L240.45 114.45L238.11 111.52L245.45 109.7L244.06 104.93L229.68 114.14L226.37 118.28L230.01 121.14Z" fill="#009174"/>
</svg>
