<svg width="57" height="119" viewBox="0 0 57 119" fill="none" xmlns="http://www.w3.org/2000/svg">
<path d="M56 50.0042C56.9998 81.5042 40.667 109.17 31.0004 118.504L30.0004 107.558C26.3077 106.54 21.2913 105.883 18.5004 99.5039C15.3438 92.2888 18.5588 88.3273 20.0759 87.2526C11.2192 92.2215 2.47679 83.4017 1.00037 77.0039C0.0319318 72.8073 0.522407 69.0276 3.81739 65.3956C-0.247042 62.8551 -2.85998 52.3039 6.50003 44.5039C7.45763 43.7059 8.41949 43.0066 9.38126 42.3973C8.56673 41.6981 5.18054 39.0434 7.00026 31.5041C8.68057 24.5423 19.7849 20.4063 31.0003 21.888C28.3337 13.5547 29.5 9.00454 34 4.00424C38.5 -0.996094 51.5 -0.496094 50.5 6.00391C49.7 11.2039 46.5611 15.5039 43.0611 26.0039C50.1866 30.2999 55.6179 37.9648 56 50.0042Z" fill="#F8DAC9"/>
<g style="mix-blend-mode:color-burn">
<path d="M23 35.4999C31.8 35.4999 35.3333 41.1666 36 43.9999C34.8333 42.6666 30.6 39.7999 23 38.9999C15.4 38.1999 10.5 40.9999 9 42.4999L7 38.9999C8.66667 37.8332 14.2 35.4999 23 35.4999Z" fill="#80B2E1"/>
<path d="M17 54.4999C26.2 53.2999 30.1667 60.3332 31 63.9999C29 61.4999 23.4 56.7999 17 57.9999C10.6 59.1999 5.66667 63.4999 4 65.4999L2 63.4999C3.16667 60.9999 7.8 55.6999 17 54.4999Z" fill="#80B2E1"/>
<path d="M20.5 86.9999L18.5 87.9999C16.5 88.7999 13.6667 88.6665 12.5 88.4999C15.4041 88.1772 16.1173 86.5313 16.1096 85.2946C15.3972 84.7302 9.5 83.5 9.5 83C9.5 82.5 12.7191 80.5 16.1096 81C19.5 81.5 20.5 84 20.5 86.9999Z" fill="#80B2E1"/>
<path d="M29.979 107.647L31 118.5L32 109L33.5 108.5C32.7 108.1 30.479 107.647 29.979 107.647Z" fill="#80B2E1"/>
<path d="M31 21.9999C35.4 21.5999 40.8333 24.4999 43 25.9999L43.5 25C41.8774 25.3245 33.5 21 32 14C30.5 7 37.1667 1.55818 42.5 0C29.3 1.6 28.3333 12 29.5 17L31 21.9999Z" fill="#80B2E1"/>
</g>
</svg>
