<svg width="261" height="251" viewBox="0 0 261 251" fill="none" xmlns="http://www.w3.org/2000/svg">
<path d="M173.188 2.4878C173.48 1.73719 173.115 0.899134 172.365 0.600348C171.614 0.30885 170.769 0.673226 170.477 1.42384L156.128 37.9195L157.87 41.4466L173.188 2.49509V2.4878Z" fill="#009174"/>
<path d="M92.2464 41.9713C92.9314 43.5017 93.9298 44.0045 94.8116 44.4417C95.5986 44.8353 96.2253 45.1486 96.699 46.2053C97.1727 47.262 96.9905 47.9324 96.7573 48.7851C96.5022 49.7324 96.2107 50.811 96.8958 52.3414C97.5808 53.8717 98.5792 54.3746 99.461 54.8118C100.248 55.2053 100.875 55.5187 101.348 56.5754C101.822 57.6321 101.64 58.3025 101.407 59.1551C101.152 60.1025 100.86 61.181 101.545 62.7114C102.23 64.2418 103.229 64.7446 104.11 65.1819C104.897 65.5754 105.524 65.8888 105.998 66.9454C106.165 67.3098 106.595 67.4774 106.96 67.3098C107.324 67.1422 107.492 66.7122 107.324 66.3479C106.639 64.8175 105.641 64.3147 104.759 63.8774C103.972 63.4839 103.345 63.1705 102.871 62.1139C102.398 61.0572 102.58 60.3867 102.813 59.5341C103.068 58.5867 103.36 57.5082 102.675 55.9778C101.99 54.4474 100.991 53.9446 100.11 53.5074C99.3225 53.1138 98.7031 52.8005 98.2221 51.7438C97.7484 50.6871 97.9306 50.0166 98.1638 49.164C98.4189 48.2166 98.7104 47.1381 98.0254 45.6077C97.3403 44.0774 96.3419 43.5745 95.4602 43.1373C94.6731 42.7438 94.0464 42.4304 93.5727 41.3737C93.4051 41.0093 92.9751 40.8417 92.6107 41.0093C92.2464 41.1769 92.0787 41.6069 92.2464 41.9713Z" fill="#FD501A"/>
<path d="M108.49 20.0506C109.277 19.9048 109.802 19.1396 109.649 18.3526C109.503 17.5656 108.738 17.0409 107.951 17.1939C107.164 17.3396 106.639 18.1048 106.792 18.8919C106.938 19.6789 107.703 20.2036 108.49 20.0506Z" fill="#FEC5B3"/>
<path d="M164.385 196.356C164.159 195.584 163.35 195.139 162.578 195.365C161.805 195.591 161.361 196.4 161.587 197.172L165.289 209.838C165.515 210.611 166.324 211.055 167.096 210.829C167.868 210.603 168.313 209.794 168.087 209.022L164.385 196.356Z" fill="#80C8BA"/>
<path d="M111.733 29.4441C111.587 28.6571 110.822 28.1324 110.035 28.2854C109.248 28.4312 108.723 29.1964 108.876 29.9834L114.473 59.2499C115.311 57.9673 116.055 56.6555 116.681 55.3146L111.733 29.4441Z" fill="#FEC5B3"/>
<path d="M138.952 180.018C138.835 180.069 138.719 180.113 138.602 180.171L137.013 181.009C136.736 182.007 136.576 183.21 136.904 184.959C137.356 187.356 138.296 188.471 139.119 189.448C139.834 190.293 140.395 190.956 140.701 192.596C141.007 194.236 140.723 195.059 140.366 196.108C139.95 197.326 139.477 198.703 139.921 201.1C140.373 203.498 141.313 204.613 142.136 205.589C142.851 206.435 143.412 207.098 143.718 208.738C144.024 210.377 143.74 211.201 143.383 212.25C142.967 213.467 142.494 214.845 142.938 217.242C143.39 219.64 144.33 220.755 145.153 221.731C145.868 222.577 146.429 223.24 146.735 224.887C147.041 226.526 146.757 227.35 146.4 228.399C145.984 229.616 145.51 230.994 145.955 233.391C146.101 234.178 146.866 234.703 147.653 234.55C148.44 234.404 148.965 233.639 148.812 232.852C148.506 231.212 148.79 230.389 149.147 229.339C149.562 228.122 150.036 226.745 149.591 224.347C149.147 221.95 148.2 220.835 147.376 219.858C146.662 219.013 146.101 218.35 145.795 216.703C145.489 215.063 145.773 214.24 146.13 213.19C146.545 211.973 147.019 210.596 146.575 208.198C146.123 205.801 145.183 204.686 144.359 203.709C143.645 202.864 143.084 202.201 142.778 200.561C142.472 198.921 142.756 198.098 143.113 197.049C143.528 195.832 144.002 194.454 143.557 192.057C143.106 189.659 142.166 188.544 141.342 187.568C140.628 186.722 140.067 186.059 139.761 184.419C139.455 182.78 139.739 181.956 140.096 180.907C140.198 180.623 140.293 180.324 140.387 180.003C139.906 180.003 139.433 180.003 138.952 180.003V180.018Z" fill="#009174"/>
<path d="M200.094 153.433C200.502 153.681 201.034 153.55 201.282 153.142C201.529 152.734 201.398 152.202 200.99 151.954L197.149 149.622L197.536 151.881L200.094 153.433Z" fill="#003F6A"/>
<path d="M235.394 172.803L203.38 153.404C202.972 153.156 202.44 153.287 202.192 153.695C201.945 154.104 202.076 154.636 202.484 154.883L234.498 174.283C234.906 174.53 235.438 174.399 235.686 173.991C235.933 173.583 235.802 173.051 235.394 172.803Z" fill="#003F6A"/>
<path d="M80.12 78.037C79.7921 77.1115 79.4204 76.0621 77.9848 75.1876C76.5492 74.3204 75.4488 74.4734 74.4722 74.6119C73.5977 74.7357 72.9127 74.8378 71.9216 74.2329C70.9305 73.6281 70.6973 72.9795 70.4058 72.1487C70.0779 71.2232 69.7062 70.1738 68.2706 69.2993C66.835 68.4321 65.7346 68.5851 64.758 68.7236C63.8835 68.8475 63.1985 68.9495 62.2074 68.3446C61.8649 68.1333 61.4204 68.2426 61.209 68.5924C60.9977 68.9349 61.1143 69.3867 61.4568 69.5908C62.8924 70.458 63.9928 70.305 64.9694 70.1665C65.8438 70.0426 66.5289 69.9406 67.52 70.5454C68.5111 71.1503 68.7443 71.7989 69.0358 72.6297C69.3637 73.5552 69.7354 74.6046 71.171 75.4791C72.6066 76.3463 73.707 76.1932 74.6836 76.0548C75.5581 75.9309 76.2431 75.8289 77.2342 76.4337C78.2253 77.0313 78.4585 77.6872 78.75 78.5179C78.75 78.5325 78.7572 78.5471 78.7645 78.5617L80.273 78.4451C80.222 78.3139 80.1711 78.1754 80.1273 78.037H80.12Z" fill="#FFD06A"/>
<path d="M53.63 123.292C53.1564 123.329 52.7993 123.751 52.8357 124.225C52.8722 124.699 53.2948 125.056 53.7685 125.012L70.2309 123.642L68.5912 122.039L53.63 123.285V123.292Z" fill="#80C8BA"/>
<path d="M64.3135 34.8514C64.6123 35.2231 65.1589 35.2887 65.5305 34.9899C65.9022 34.6911 65.9678 34.1445 65.669 33.7729L63.5119 31.0619C63.2131 30.6903 62.6665 30.6247 62.2949 30.9235C61.9232 31.2223 61.8576 31.7688 62.1564 32.1405L64.3135 34.8514Z" fill="#003F6A"/>
<path d="M71.4188 43.7713C71.7176 44.1429 72.2641 44.2085 72.6358 43.9097C73.0075 43.611 73.0731 43.0644 72.7743 42.6928L67.8844 36.5494C67.5856 36.1777 67.039 36.1122 66.6674 36.4109C66.2957 36.7097 66.2301 37.2563 66.5289 37.628L71.4188 43.7713Z" fill="#003F6A"/>
<path d="M75.4196 46.0158C75.1208 45.6442 74.5743 45.5786 74.2026 45.8774C73.831 46.1762 73.7654 46.7227 74.0642 47.0944L96.1379 74.8159C96.6699 74.5681 97.2019 74.3058 97.7266 74.0361L75.4123 46.0158H75.4196Z" fill="#003F6A"/>
<path d="M76.3888 139.303C75.9589 139.514 75.784 140.031 75.9953 140.461C76.2066 140.891 76.7241 141.066 77.154 140.855L81.8982 138.516C81.7014 137.969 81.4973 137.43 81.286 136.891L76.3961 139.31L76.3888 139.303Z" fill="#FD501A"/>
<path d="M39.7839 159.307L73.3427 142.728C73.7727 142.516 73.9475 141.999 73.7362 141.569C73.5249 141.139 73.0074 140.964 72.5775 141.176L39.0114 157.755C38.5814 157.966 38.4066 158.483 38.6179 158.913C38.8292 159.343 39.3466 159.518 39.7766 159.307H39.7839Z" fill="#FD501A"/>
<path d="M73.8164 165.064C74.3338 165.676 75.252 165.749 75.8641 165.232L80.2949 161.464C80.9071 160.946 80.9799 160.028 80.4625 159.416C79.9451 158.804 79.0269 158.731 78.4147 159.249L73.984 163.016C73.3718 163.534 73.299 164.452 73.8164 165.064Z" fill="#FEC5B3"/>
<path d="M66.5071 169.378L37.6778 194.454C37.0657 194.972 36.9928 195.89 37.5102 196.502C38.0276 197.114 38.9458 197.187 39.558 196.67L68.3872 171.593C68.9994 171.076 69.0723 170.158 68.5549 169.546C68.0374 168.934 67.1192 168.861 66.5071 169.378Z" fill="#FEC5B3"/>
<path d="M202.586 188.406L210.077 196.407C210.624 196.99 211.55 197.027 212.133 196.473C212.723 195.926 212.752 195.001 212.198 194.418L202.885 184.463C202.885 185.673 202.754 186.868 202.499 188.027L202.593 188.398L202.586 188.406Z" fill="#FD501A"/>
<path d="M184.936 74.9325C187.304 72.79 187.763 70.837 188.171 69.1098C188.536 67.5503 188.827 66.3114 190.525 64.7811C192.223 63.2507 193.477 63.0831 195.065 62.879C196.822 62.6458 198.811 62.3908 201.179 60.2483C203.548 58.1058 204.007 56.1527 204.415 54.4256C204.779 52.866 205.071 51.6272 206.769 50.0968C208.467 48.5664 209.72 48.3988 211.316 48.1948C213.073 47.9616 215.062 47.7065 217.431 45.564C218.028 45.0247 218.072 44.1065 217.533 43.509C216.993 42.9114 216.075 42.8676 215.477 43.4069C213.78 44.9373 212.526 45.1049 210.93 45.309C209.174 45.5422 207.184 45.7972 204.816 47.9397C202.447 50.0822 201.988 52.0353 201.58 53.7624C201.216 55.3219 200.924 56.5608 199.226 58.0912C197.528 59.6215 196.275 59.7892 194.679 59.9932C192.923 60.2264 190.933 60.4815 188.565 62.624C186.196 64.7665 185.737 66.7195 185.329 68.4467C184.965 70.0062 184.673 71.2451 182.975 72.7754C182.473 73.2272 182.013 73.5552 181.569 73.8029C182.553 74.3276 183.551 74.8086 184.564 75.2532C184.688 75.1511 184.805 75.0491 184.928 74.9398L184.936 74.9325Z" fill="#003F6A"/>
<path d="M119.195 204.999C118.722 204.948 118.292 205.283 118.241 205.764L117.359 213.562C117.308 214.036 117.643 214.466 118.124 214.517C118.598 214.568 119.028 214.232 119.079 213.751L119.961 205.954C120.012 205.48 119.676 205.05 119.195 204.999Z" fill="#AAD3D4"/>
<path d="M117.038 224.027C116.565 223.976 116.135 224.311 116.084 224.792L113.278 249.54C113.227 250.014 113.562 250.444 114.043 250.495C114.517 250.546 114.947 250.211 114.998 249.73L117.804 224.981C117.855 224.508 117.519 224.078 117.038 224.027Z" fill="#AAD3D4"/>
<path d="M119.516 194.534C119.465 195.008 119.8 195.438 120.281 195.489C120.755 195.54 121.185 195.205 121.236 194.724L121.892 188.952L120.041 189.929L119.516 194.527V194.534Z" fill="#AAD3D4"/>
<path d="M164.436 52.4944C165.85 51.977 167.46 51.394 168.728 49.2005C169.996 47.0069 169.712 45.3235 169.457 43.8369C169.217 42.4158 169.005 41.1842 170.011 39.4498C171.017 37.7154 172.19 37.2855 173.545 36.7899C174.959 36.2725 176.57 35.6895 177.838 33.496C178.042 33.1462 177.918 32.7016 177.575 32.5049C177.233 32.3081 176.781 32.4247 176.584 32.7672C175.579 34.5016 174.405 34.9316 173.05 35.4272C171.636 35.9446 170.026 36.5276 168.758 38.7211C167.49 40.9146 167.774 42.598 168.029 44.0847C168.269 45.5057 168.481 46.7373 167.475 48.4717C166.469 50.2061 165.296 50.6361 163.94 51.1316C163.591 51.2628 163.226 51.394 162.862 51.5543L163.503 52.8588C163.802 52.7276 164.115 52.6183 164.436 52.5017V52.4944Z" fill="#FFD06A"/>
<path d="M216.199 119.874L258.532 126.331C259.333 126.367 260.018 125.748 260.055 124.946C260.091 124.145 259.472 123.46 258.67 123.423L218.283 117.054L215.58 119.692C215.769 119.794 215.973 119.86 216.199 119.867V119.874Z" fill="#009174"/>
<path d="M1.61938 100.169C0.817756 100.082 0.103612 100.65 0.00887492 101.452C-0.0785747 102.253 0.48981 102.967 1.29143 103.062L55.4301 109.198C54.4535 108.214 53.6228 107.136 52.945 105.984L1.61938 100.162V100.169Z" fill="#009174"/>
<path d="M202.047 133.793C202.783 133.429 203.227 133.21 204.102 133.414C204.976 133.618 205.282 134.012 205.785 134.661C206.39 135.448 207.221 136.526 209.116 136.963C211.003 137.401 212.227 136.796 213.116 136.359C213.852 135.994 214.297 135.776 215.171 135.98C216.046 136.184 216.352 136.577 216.848 137.226C217.452 138.013 218.283 139.091 220.178 139.529C222.073 139.966 223.29 139.361 224.179 138.924C224.915 138.559 225.359 138.341 226.234 138.545C227.014 138.727 227.801 138.239 227.983 137.459C228.165 136.679 227.677 135.892 226.897 135.71C225.009 135.273 223.785 135.878 222.896 136.315C222.16 136.679 221.716 136.898 220.841 136.694C219.967 136.49 219.661 136.096 219.165 135.448C218.56 134.661 217.729 133.582 215.835 133.145C213.947 132.708 212.723 133.312 211.834 133.75C211.098 134.114 210.653 134.333 209.779 134.129C208.904 133.925 208.598 133.531 208.095 132.882C207.49 132.095 206.66 131.017 204.765 130.58C204.663 130.558 204.568 130.543 204.466 130.529L200.487 134.413C201.114 134.26 201.624 134.012 202.054 133.801L202.047 133.793Z" fill="#FFD06A"/>
<path d="M230.278 92.6119C228.34 86.6362 223.268 82.3657 217.052 81.4621L177.116 75.6613C176.635 75.5884 176.176 75.4426 175.746 75.2386C174.755 74.7722 173.932 73.9924 173.436 72.9867L163.503 52.8661L162.862 51.5616L156.128 37.9268L155.611 36.8701L155.574 36.8045C152.791 31.1713 147.165 27.6733 140.883 27.6733C134.601 27.6733 128.968 31.1713 126.191 36.8045L108.337 73.0013C107.623 74.4443 106.246 75.4426 104.657 75.6758L98.5573 76.5649L97.8286 76.6742L80.6229 79.1738L79.0998 79.3924L64.7289 81.4839C58.5127 82.3876 53.4406 86.6581 51.5022 92.6338C50.0301 97.1739 50.5912 101.976 52.9232 105.948C52.9378 105.97 52.9524 105.992 52.9596 106.014C53.6447 107.165 54.4754 108.244 55.4447 109.227C55.5102 109.293 55.5758 109.366 55.6414 109.431L68.6059 122.068L70.2455 123.671L82.9767 136.082L84.5436 137.605C85.695 138.727 86.2197 140.345 85.95 141.933L79.1289 181.701C78.3127 186.482 79.6172 191.328 82.7071 194.994C85.8626 198.732 90.4391 200.875 95.2707 200.875C95.5403 200.875 95.8027 200.86 96.065 200.853C98.4335 200.736 100.729 200.109 102.893 198.973L120.048 189.958L121.899 188.981L137.028 181.031L138.617 180.193C138.726 180.134 138.85 180.083 138.966 180.04C139.455 179.828 139.972 179.704 140.504 179.661C140.635 179.653 140.766 179.639 140.898 179.639C141.641 179.639 142.384 179.821 143.055 180.149C143.091 180.171 143.135 180.185 143.178 180.207L178.894 198.987C180.294 199.723 181.751 200.241 183.245 200.554C184.316 200.78 185.409 200.896 186.524 200.896C191.356 200.896 195.94 198.754 199.088 195.015C200.75 193.048 201.886 190.738 202.469 188.289C202.484 188.216 202.506 188.143 202.52 188.07C202.775 186.904 202.914 185.709 202.907 184.507C202.907 183.581 202.826 182.656 202.666 181.723L196.239 144.222L195.845 141.948C195.575 140.359 196.1 138.742 197.252 137.619L200.502 134.457L226.146 109.453C228.034 107.617 229.404 105.409 230.22 103.04C231.35 99.7536 231.422 96.1317 230.293 92.6629L230.278 92.6119Z" fill="#2BA38B"/>
<path d="M82.8456 218.627C82.9039 218.743 83.0059 218.824 83.1298 218.86C83.2537 218.896 83.3776 218.875 83.4796 218.802C87.3274 216.178 88.661 211.514 86.7225 207.47C86.6642 207.353 86.5695 207.266 86.4456 207.236C86.329 207.207 86.1978 207.222 86.0958 207.295C82.3063 209.816 80.9654 214.473 82.8456 218.627ZM83.1298 212.637C83.6108 210.902 84.6456 209.408 86.1541 208.286C87.5387 211.682 86.4529 215.457 83.4213 217.781C82.78 216.105 82.6707 214.298 83.1298 212.629V212.637Z" fill="#FD6D40"/>
<path d="M82.2261 219.501C82.3427 219.443 82.4229 219.348 82.4593 219.224C82.4957 219.1 82.4739 218.977 82.4083 218.867C79.9743 215.092 75.3103 213.788 71.0544 215.69C70.9378 215.748 70.8577 215.85 70.8212 215.967C70.7848 216.098 70.8067 216.229 70.8795 216.331C73.4302 220.106 78.0941 221.411 82.2261 219.501ZM71.8852 216.273C75.4488 214.91 79.2382 215.967 81.4099 218.918C79.6682 219.611 77.8536 219.713 76.1265 219.217C74.4649 218.736 72.9783 217.701 71.8925 216.273H71.8852Z" fill="#FD6D40"/>
<path d="M83.035 219.99C82.984 219.873 82.882 219.793 82.7581 219.756C82.6342 219.72 82.5031 219.742 82.401 219.815C78.5533 222.438 77.2197 227.102 79.1581 231.147C79.2164 231.263 79.3112 231.351 79.435 231.38C79.5516 231.409 79.6828 231.394 79.7848 231.322C83.5743 228.8 84.9152 224.143 83.035 219.99ZM82.7435 225.973C82.2626 227.707 81.2278 229.201 79.7193 230.323C78.3346 226.927 79.4278 223.145 82.4521 220.828C83.0934 222.504 83.2026 224.311 82.7435 225.98V225.973Z" fill="#FD6D40"/>
<path d="M83.6544 219.108H83.6471C83.5378 219.166 83.4504 219.261 83.4212 219.385V219.399C83.3848 219.516 83.4067 219.647 83.4722 219.749C85.9063 223.517 90.5702 224.821 94.8115 222.926C94.9281 222.875 95.0156 222.773 95.052 222.649C95.0885 222.518 95.0666 222.387 94.9937 222.285C92.4431 218.51 87.7791 217.206 83.6471 219.115L83.6544 219.108ZM84.4706 219.691C86.2123 218.998 88.0269 218.896 89.754 219.392C91.4156 219.873 92.9022 220.908 93.9881 222.336C90.4245 223.699 86.635 222.642 84.4633 219.691H84.4706Z" fill="#FD6D40"/>
<path d="M30.864 72.1195C30.9223 72.2361 31.0244 72.3163 31.1483 72.3527C31.2721 72.3892 31.396 72.3673 31.498 72.2944C35.3458 69.671 36.6794 65.007 34.741 60.9624C34.6827 60.8458 34.5879 60.7584 34.464 60.7292C34.3475 60.7001 34.2163 60.7147 34.1143 60.7875C30.3248 63.309 28.9839 67.9657 30.864 72.1195ZM31.1483 66.1365C31.6292 64.4021 32.6641 62.9082 34.1726 61.7859C35.5572 65.1819 34.4714 68.9568 31.4398 71.2815C30.7985 69.6054 30.6891 67.7981 31.1483 66.1292V66.1365Z" fill="#FFD06A"/>
<path d="M30.2446 73.0013C30.3612 72.943 30.4414 72.8483 30.4778 72.7244C30.5142 72.6005 30.4924 72.4766 30.4268 72.3673C27.9928 68.5924 23.3288 67.2879 19.0729 69.19C18.9563 69.2483 18.8761 69.3503 18.8397 69.4669C18.8033 69.5981 18.8251 69.7292 18.898 69.8313C21.4486 73.6062 26.1126 74.9106 30.2446 73.0013ZM19.9037 69.773C23.4673 68.4102 27.2567 69.4669 29.4284 72.4183C27.6867 73.1106 25.8721 73.2126 24.145 72.7171C22.4835 72.2361 20.9968 71.2013 19.911 69.773H19.9037Z" fill="#FFD06A"/>
<path d="M31.0535 73.4823C31.0025 73.3657 30.9005 73.2856 30.7766 73.2491C30.6527 73.2127 30.5215 73.2345 30.4195 73.3074C26.5717 75.9309 25.2381 80.5949 27.1766 84.6394C27.2349 84.756 27.3296 84.8435 27.4535 84.8726C27.5701 84.9018 27.7013 84.8872 27.8033 84.8143C31.5928 82.2929 32.9337 77.6362 31.0535 73.4823ZM30.762 79.4726C30.281 81.207 29.2462 82.701 27.7377 83.8232C26.3531 80.4273 27.4462 76.6451 30.4705 74.3277C31.1118 76.0038 31.2211 77.8111 30.762 79.4799V79.4726Z" fill="#FFD06A"/>
<path d="M31.6729 72.6078H31.6657C31.5563 72.6661 31.4689 72.7608 31.4398 72.8847V72.8993C31.4033 73.0159 31.4251 73.1471 31.4907 73.2491C33.9247 77.0167 38.5887 78.3212 42.83 76.4264C42.9466 76.3754 43.0341 76.2734 43.0705 76.1495C43.107 76.0183 43.0851 75.8872 43.0122 75.7851C40.4616 72.0102 35.7977 70.7058 31.6657 72.6151L31.6729 72.6078ZM32.4891 73.1835C34.2308 72.4912 36.0454 72.3892 37.7725 72.8847C39.4341 73.3657 40.9207 74.4005 42.0066 75.8288C38.443 77.1916 34.6535 76.1349 32.4819 73.1835H32.4891Z" fill="#FFD06A"/>
<path d="M195.007 27.185C195.043 27.2579 195.109 27.3162 195.189 27.3381C195.269 27.3599 195.349 27.338 195.422 27.3016C197.937 25.5818 198.811 22.5356 197.543 19.883C197.507 19.8028 197.441 19.7518 197.361 19.7299C197.281 19.7081 197.201 19.7226 197.135 19.7664C194.657 21.4133 193.783 24.4668 195.007 27.1777V27.185ZM195.196 23.2716C195.51 22.1348 196.188 21.1583 197.171 20.4295C198.075 22.6522 197.368 25.1227 195.386 26.6457C194.963 25.5453 194.898 24.3648 195.196 23.2789V23.2716Z" fill="#003F6A"/>
<path d="M194.606 27.7607C194.679 27.7243 194.737 27.6587 194.759 27.5785C194.781 27.4984 194.767 27.4109 194.723 27.3453C193.134 24.8749 190.081 24.0223 187.297 25.2684C187.224 25.3049 187.166 25.3705 187.144 25.4506C187.122 25.5381 187.137 25.6182 187.18 25.6911C188.849 28.1615 191.903 29.0142 194.606 27.768V27.7607ZM187.843 25.6474C190.175 24.7583 192.653 25.4433 194.074 27.3818C192.937 27.8336 191.749 27.8992 190.613 27.5785C189.527 27.2652 188.55 26.5875 187.843 25.6547V25.6474Z" fill="#003F6A"/>
<path d="M195.138 28.0814C195.102 28.0085 195.036 27.9502 194.956 27.9283C194.876 27.9065 194.788 27.921 194.723 27.9648C192.209 29.6846 191.334 32.7308 192.602 35.3834C192.639 35.4636 192.704 35.5146 192.784 35.5365C192.864 35.5583 192.945 35.5437 193.01 35.5C195.488 33.853 196.362 30.7996 195.138 28.0887V28.0814ZM194.949 31.9947C194.635 33.1316 193.958 34.1081 192.974 34.8368C192.07 32.6142 192.784 30.1364 194.759 28.6206C195.182 29.721 195.248 30.9016 194.949 31.9875V31.9947Z" fill="#003F6A"/>
<path d="M195.539 27.5057C195.466 27.5421 195.415 27.6077 195.393 27.6879C195.371 27.7753 195.386 27.8555 195.43 27.9283C197.018 30.3915 200.072 31.2514 202.848 30.0053C202.921 29.9688 202.979 29.9033 203.001 29.8231C203.023 29.7356 203.009 29.6555 202.965 29.5826C201.296 27.1121 198.243 26.2595 195.539 27.5057ZM196.071 27.8846C197.208 27.4328 198.396 27.3672 199.533 27.6879C200.618 28.0012 201.588 28.679 202.302 29.6118C199.97 30.5008 197.492 29.8158 196.071 27.8773V27.8846Z" fill="#003F6A"/>
<path d="M236.72 151.509C236.757 151.582 236.822 151.64 236.903 151.662C236.983 151.684 237.063 151.662 237.136 151.626C239.65 149.906 240.525 146.86 239.257 144.207C239.22 144.127 239.154 144.076 239.074 144.054C238.994 144.032 238.914 144.047 238.848 144.091C236.371 145.738 235.496 148.791 236.72 151.502V151.509ZM236.91 147.589C237.223 146.452 237.901 145.475 238.885 144.746C239.788 146.969 239.082 149.44 237.099 150.963C236.677 149.862 236.611 148.682 236.91 147.596V147.589Z" fill="#FEC5B3"/>
<path d="M236.32 152.085C236.393 152.048 236.451 151.983 236.473 151.903C236.495 151.823 236.48 151.735 236.436 151.67C234.848 149.199 231.794 148.346 229.01 149.593C228.937 149.629 228.879 149.695 228.857 149.775C228.835 149.862 228.85 149.942 228.894 150.015C230.563 152.486 233.616 153.338 236.32 152.092V152.085ZM229.55 149.972C231.882 149.082 234.359 149.768 235.78 151.706C234.644 152.158 233.456 152.223 232.319 151.903C231.233 151.589 230.256 150.912 229.55 149.979V149.972Z" fill="#FEC5B3"/>
<path d="M236.844 152.398C236.808 152.325 236.742 152.267 236.662 152.245C236.582 152.223 236.495 152.238 236.429 152.282C233.915 154.002 233.04 157.048 234.308 159.7C234.345 159.78 234.41 159.831 234.49 159.853C234.571 159.875 234.651 159.861 234.716 159.817C237.194 158.17 238.069 155.117 236.844 152.406V152.398ZM236.655 156.319C236.342 157.456 235.664 158.432 234.68 159.161C233.776 156.938 234.491 154.461 236.465 152.945C236.888 154.045 236.954 155.226 236.655 156.312V156.319Z" fill="#FEC5B3"/>
<path d="M237.252 151.823C237.18 151.859 237.129 151.925 237.107 152.005C237.085 152.092 237.099 152.172 237.143 152.245C238.732 154.708 241.785 155.568 244.562 154.322C244.635 154.286 244.693 154.22 244.715 154.14C244.737 154.053 244.722 153.972 244.678 153.9C243.01 151.429 239.956 150.576 237.252 151.823ZM237.784 152.202C238.921 151.75 240.109 151.684 241.246 152.005C242.332 152.318 243.301 152.996 244.015 153.929C241.683 154.818 239.205 154.133 237.784 152.194V152.202Z" fill="#FEC5B3"/>
<path d="M177.227 109.054H181.279L181.017 128.759H177.489L177.227 109.054Z" fill="white"/>
<path d="M174.941 118.44V123.046C174.299 123.279 173.658 123.512 173.075 123.804C172.492 124.095 171.763 124.504 170.889 124.999L170.364 125.291C168.878 126.107 167.653 126.719 166.72 127.156C165.788 127.623 164.709 128.002 163.543 128.293C162.377 128.614 161.124 128.759 159.783 128.759L159.316 128.468V124.008L159.783 123.717C161.124 123.717 162.377 123.6 163.543 123.367C164.709 123.134 165.992 122.755 167.391 122.259C168.207 121.997 168.907 121.793 169.49 121.647L168.761 121.355C167.07 120.685 165.846 120.335 165.088 120.335C164.738 120.335 164.418 120.452 164.184 120.627C163.922 120.802 163.689 121.064 163.456 121.414L160.628 120.364C161.036 118.907 161.619 117.828 162.377 117.129C163.135 116.458 164.01 116.108 165.001 116.108C165.584 116.108 166.225 116.196 166.895 116.371C167.537 116.546 168.557 116.866 169.898 117.333C170.597 117.624 171.384 117.857 172.201 118.091C173.017 118.324 173.6 118.44 173.979 118.44H174.941Z" fill="white"/>
<path d="M160.832 124.008V128.468L160.366 128.759C159.608 128.759 158.908 128.643 158.209 128.41C157.509 128.176 156.897 127.827 156.431 127.36C155.556 128.293 154.361 128.759 152.903 128.759C152.262 128.759 151.65 128.643 151.067 128.41C150.484 128.176 150.018 127.856 149.61 127.419C149.201 127.856 148.706 128.176 148.152 128.41C147.598 128.643 147.044 128.759 146.461 128.759C145.674 128.759 144.975 128.614 144.392 128.293C143.78 127.972 143.284 127.477 142.934 126.836C142.468 127.506 141.885 128.002 141.185 128.293C140.456 128.614 139.553 128.759 138.503 128.759L138.037 128.468V124.008L138.503 123.716C139.174 123.716 139.699 123.6 140.078 123.396C140.456 123.221 140.777 122.842 141.039 122.317C141.273 121.793 141.535 121.006 141.768 119.898L144.771 120.364C144.596 121.589 144.421 122.55 144.304 123.192C144.654 123.891 145.237 124.212 146.053 124.212C146.578 124.212 146.986 124.095 147.278 123.833C147.569 123.6 147.773 123.192 147.919 122.667C148.123 121.822 148.327 120.597 148.56 118.965L151.679 119.373L151.504 120.772C151.329 121.997 151.242 122.696 151.242 122.871C151.242 123.279 151.388 123.629 151.738 123.862C152.058 124.095 152.495 124.212 153.049 124.212C153.516 124.212 153.924 124.095 154.274 123.804C154.623 123.542 154.827 123.163 154.915 122.638C154.973 122.23 155.061 121.647 155.148 120.889C155.235 120.131 155.323 119.315 155.41 118.411L158.588 118.615C158.413 120.539 158.267 122.055 158.092 123.104C158.325 123.308 158.675 123.454 159.083 123.571C159.491 123.687 159.929 123.716 160.366 123.716L160.832 124.008Z" fill="white"/>
<path d="M139.552 124.008V128.468L139.086 128.759C137.949 128.759 137.016 128.614 136.258 128.264C135.5 127.943 134.917 127.448 134.451 126.748C133.984 127.389 133.314 127.885 132.439 128.235C131.565 128.585 130.574 128.759 129.408 128.759L128.941 128.468V124.008L129.408 123.716C131.215 123.716 132.235 123.221 132.469 122.172C132.643 121.268 132.848 120.073 133.052 118.615L136.345 119.023C136.083 120.889 135.967 122.026 135.967 122.376C135.967 122.842 136.2 123.192 136.695 123.396C137.191 123.629 137.978 123.716 139.086 123.716L139.552 124.008ZM132.381 114.243L135.005 111.619L137.628 114.243L135.005 116.837L132.381 114.243Z" fill="white"/>
<path d="M130.448 124.008V128.468L129.981 128.759C128.844 128.759 127.912 128.614 127.154 128.264C126.396 127.943 125.813 127.448 125.346 126.777C124.705 127.623 123.714 128.206 122.344 128.526C120.974 128.876 118.963 129.022 116.281 129.022C113.832 129.022 111.85 128.847 110.334 128.439C108.818 128.031 107.711 127.389 107.011 126.515C106.311 125.64 105.962 124.504 105.962 123.046C105.962 122.113 106.107 121.093 106.428 119.927C106.749 118.79 107.157 117.741 107.682 116.808L110.451 117.624C110.247 118.207 110.101 118.761 109.984 119.344C109.868 119.927 109.839 120.452 109.839 120.86C109.839 121.647 110.043 122.259 110.48 122.696C110.888 123.163 111.588 123.483 112.55 123.658C113.512 123.833 114.852 123.921 116.543 123.921C118.35 123.921 119.691 123.891 120.624 123.775C121.557 123.687 122.198 123.512 122.606 123.25C123.014 122.988 123.277 122.609 123.393 122.084C123.597 121.064 123.772 119.898 123.918 118.615L127.241 119.023C126.979 121.064 126.862 122.172 126.862 122.376C126.862 122.842 127.095 123.192 127.591 123.396C128.086 123.629 128.874 123.717 129.981 123.717L130.448 124.008ZM119.05 116.546L117.068 114.563L115.086 116.546L112.462 113.951L115.086 111.328L117.068 113.31L119.05 111.328L121.673 113.951L119.05 116.546Z" fill="white"/>
<path d="M98.8772 107.655H103.658L103.104 123.017H99.431L98.8772 107.655ZM103.191 128.526C102.754 128.934 102.113 129.109 101.267 129.109C99.5185 129.109 98.644 128.351 98.644 126.777C98.644 126.019 98.848 125.436 99.2853 125.028C99.7225 124.62 100.393 124.416 101.267 124.416C102.113 124.416 102.754 124.62 103.191 125.028C103.629 125.436 103.862 126.019 103.862 126.777C103.862 127.535 103.629 128.118 103.191 128.526Z" fill="white"/>
</svg>
