<svg width="51" height="51" viewBox="0 0 51 51" fill="none" xmlns="http://www.w3.org/2000/svg">
<path d="M25.7676 24.1053C25.7156 24.3114 25.7549 24.5308 25.882 24.7026L25.891 24.7096C26.0102 24.8825 26.2027 24.9892 26.4084 25.0046C34.1568 25.6963 40.8169 21.0969 42.6108 13.824L42.6214 13.8105C42.6609 13.6019 42.6145 13.3915 42.4964 13.2267L42.4874 13.2197C42.3692 13.0549 42.1803 12.9437 41.9781 12.9238C34.4155 12.152 27.7508 16.748 25.7702 24.0927L25.7631 24.1018L25.7676 24.1053ZM32.4913 16.6814C34.9486 14.9559 37.8714 14.131 40.9998 14.2794C39.1843 20.1201 33.7701 23.8486 27.4008 23.6309C28.3505 20.7869 30.1361 18.3412 32.4913 16.6814Z" fill="#FCDA99"/>
<path d="M13.6755 7.81543L13.6665 7.80839C13.4613 7.76438 13.2455 7.79912 13.0772 7.92177L13.0701 7.9308C12.8973 8.04992 12.7861 8.2389 12.7637 8.45363C12.0501 16.0254 16.6867 22.6565 24.0406 24.579C24.2468 24.631 24.4616 24.5882 24.6345 24.4691C24.8073 24.3499 24.923 24.1645 24.95 23.9533C25.8133 16.5057 21.1802 9.87013 13.6745 7.80739L13.6755 7.81543ZM23.6014 22.966C20.6224 22.0124 18.1677 20.2198 16.4724 17.7426C14.8462 15.3628 14.0223 12.448 14.1338 9.45054C20.1754 11.4736 23.9491 16.8578 23.6059 22.9695L23.6014 22.966Z" fill="#FCDA99"/>
<path d="M24.5675 26.0712L24.5746 26.0621C24.6186 25.857 24.5838 25.6411 24.4567 25.4693L24.4476 25.4623C24.3285 25.2895 24.135 25.1747 23.9248 25.1558C16.1764 24.464 9.51624 29.0635 7.72237 36.3363L7.71182 36.3498C7.67232 36.5585 7.71861 36.7689 7.83674 36.9336L7.84576 36.9407C7.96841 37.109 8.15289 37.2167 8.35507 37.2366C15.9177 38.0083 22.5823 33.4124 24.563 26.0676L24.5675 26.0712ZM9.33791 35.8845C11.1524 30.0357 16.5711 26.3108 22.9369 26.533C21.9871 29.377 20.2016 31.8227 17.8463 33.4825C15.3891 35.208 12.4663 36.0329 9.33791 35.8845Z" fill="#FCDA99"/>
<path d="M26.3009 25.5886L26.2874 25.578C26.0822 25.534 25.8709 25.5723 25.7061 25.6904L25.692 25.7085C25.5182 25.8196 25.407 26.0086 25.3916 26.2143C24.5317 33.6573 29.1648 40.2929 36.649 42.3461L36.658 42.3531C36.8642 42.4052 37.088 42.3694 37.2608 42.2503L37.2679 42.2413C37.4487 42.1211 37.5599 41.9322 37.5824 41.7174C38.2959 34.1457 33.6593 27.5146 26.3054 25.5921L26.3009 25.5886ZM26.7357 27.1981C29.7147 28.1516 32.1693 29.9442 33.8646 32.4214C35.4908 34.8012 36.3148 37.716 36.2032 40.7135C30.1617 38.6904 26.388 33.3062 26.7312 27.1945L26.7357 27.1981Z" fill="#FCDA99"/>
</svg>
