<svg width="170" height="259" viewBox="0 0 170 259" fill="none" xmlns="http://www.w3.org/2000/svg">
<g clip-path="url(#clip0_1831_14903)">
<rect width="169.667" height="258.858" rx="25" transform="matrix(-1 0 0 1 169.667 0)" fill="#CCD9E1"/>
<g clip-path="url(#clip1_1831_14903)">
<path d="M-56.5005 304.66V116.33C-56.5005 116.33 -37.0005 38.8803 83.3595 37.7703C203.71 36.6603 226 116.33 226 116.33V304.66H-56.5005Z" fill="#AAD3D4" stroke="#003F6A" stroke-width="3" stroke-miterlimit="10"/>
<path d="M74.6494 31.2998C63.0194 31.2998 53.5894 40.7298 53.5894 52.3598C53.5894 63.9898 63.0194 73.4198 74.6494 73.4198C86.2794 73.4198 95.7094 63.9898 95.7094 52.3598C95.7094 40.7298 86.2794 31.2998 74.6494 31.2998Z" fill="white"/>
<path d="M118.279 35.0596C106.649 35.0596 97.2192 44.4896 97.2192 56.1196C97.2192 67.7496 106.649 77.1796 118.279 77.1796C129.909 77.1796 139.339 67.7496 139.339 56.1196C139.339 44.4896 129.909 35.0596 118.279 35.0596Z" fill="white"/>
<path d="M115.65 47.8398C107.96 47.8398 101.73 54.0698 101.73 61.7598V62.5098C101.73 70.1998 107.96 76.4298 115.65 76.4298C123.34 76.4298 129.57 70.1998 129.57 62.5098V61.7598C129.57 54.0698 123.34 47.8398 115.65 47.8398Z" fill="#003F6A"/>
<path d="M77.2896 44.0801C69.5996 44.0801 63.3696 50.3101 63.3696 58.0001V58.7501C63.3696 66.4401 69.5996 72.6701 77.2896 72.6701C84.9796 72.6701 91.2096 66.4401 91.2096 58.7501V58.0001C91.2096 50.3101 84.9796 44.0801 77.2896 44.0801Z" fill="#003F6A"/>
<path d="M84.98 97.9297C88.35 93.1397 99.05 86.5197 105.47 86.2897C103.31 86.2797 99.29 84.4397 100.54 77.1797M106.25 99.7497C104.69 96.6397 111.7 90.6697 109.62 87.8197C108.75 86.6797 107.28 86.2297 105.47 86.2997" stroke="#7FBDBF" stroke-width="3" stroke-linecap="round" stroke-linejoin="round"/>
<path d="M68.9194 19.32C62.0894 17.82 46.1194 17.32 36.9194 27.32" stroke="#003F6A" stroke-width="4" stroke-linecap="round" stroke-linejoin="round"/>
<path d="M116.919 23.32C123.759 21.82 139.719 21.32 148.919 31.32" stroke="#003F6A" stroke-width="4" stroke-linecap="round" stroke-linejoin="round"/>
</g>
</g>
<defs>
<clipPath id="clip0_1831_14903">
<rect width="169.667" height="258.858" rx="25" transform="matrix(-1 0 0 1 169.667 0)" fill="white"/>
</clipPath>
<clipPath id="clip1_1831_14903">
<rect width="285.5" height="290.16" fill="white" transform="translate(-58.0005 16)"/>
</clipPath>
</defs>
</svg>
