<svg width="24" height="24" viewBox="0 0 24 24" fill="none" xmlns="http://www.w3.org/2000/svg">
<path d="M5.84631 8.52593C6.12399 8.52498 6.40167 8.52403 6.68776 8.52304C7.14071 8.52396 7.14071 8.52396 7.6028 8.5249C7.91061 8.52461 8.21843 8.52432 8.53557 8.52402C9.1878 8.52381 9.84003 8.52438 10.4923 8.52564C11.4944 8.52726 12.4966 8.52565 13.4988 8.52372C14.1307 8.52392 14.7627 8.5243 15.3947 8.5249C15.6967 8.52429 15.9986 8.52367 16.3098 8.52304C16.5874 8.524 16.8651 8.52495 17.1512 8.52593C17.3969 8.52617 17.6426 8.52641 17.8957 8.52666C18.4585 8.56509 18.4585 8.56509 18.7611 8.86769C18.7893 9.31358 18.7967 9.76081 18.7955 10.2076C18.7955 10.4923 18.7954 10.777 18.7954 11.0704C18.7939 11.3799 18.7923 11.6894 18.7907 12.0083C18.7903 12.3236 18.7898 12.6388 18.7894 12.9636C18.7877 13.975 18.7839 14.9863 18.78 15.9977C18.7785 16.6815 18.7772 17.3653 18.7759 18.0491C18.7726 19.7293 18.7673 21.4096 18.7611 23.0898C20.1591 23.0898 21.5572 23.0898 22.9975 23.0898C22.9975 23.3894 22.9975 23.689 22.9975 23.9976C15.4083 23.9976 7.81916 23.9976 0 23.9976C0 23.6981 0 23.3985 0 23.0898C1.39801 23.0898 2.79601 23.0898 4.23639 23.0898C4.23401 22.446 4.23401 22.446 4.23158 21.7891C4.22612 20.2028 4.22264 18.6164 4.21976 17.0301C4.21824 16.3424 4.21617 15.6546 4.21356 14.9669C4.2099 13.9807 4.20817 12.9945 4.20684 12.0083C4.20527 11.6988 4.20371 11.3893 4.2021 11.0704C4.20208 10.7856 4.20206 10.5009 4.20203 10.2076C4.20136 9.95561 4.20069 9.70362 4.2 9.444C4.27003 8.33491 4.88609 8.52687 5.84631 8.52593ZM6.95978 11.2885C6.95978 11.8876 6.95978 12.4868 6.95978 13.1041C7.55892 13.1041 8.15807 13.1041 8.77537 13.1041C8.77537 12.5049 8.77537 11.9058 8.77537 11.2885C8.17622 11.2885 7.57708 11.2885 6.95978 11.2885ZM10.591 11.2885C10.591 11.8876 10.591 12.4868 10.591 13.1041C11.1901 13.1041 11.7893 13.1041 12.4066 13.1041C12.4066 12.5049 12.4066 11.9058 12.4066 11.2885C11.8074 11.2885 11.2083 11.2885 10.591 11.2885ZM14.2222 11.2885C14.2222 11.8876 14.2222 12.4868 14.2222 13.1041C14.8213 13.1041 15.4204 13.1041 16.0377 13.1041C16.0377 12.5049 16.0377 11.9058 16.0377 11.2885C15.4386 11.2885 14.8395 11.2885 14.2222 11.2885ZM6.95978 14.9197C6.95978 15.5188 6.95978 16.118 6.95978 16.7353C7.55892 16.7353 8.15807 16.7353 8.77537 16.7353C8.77537 16.1361 8.77537 15.537 8.77537 14.9197C8.17622 14.9197 7.57708 14.9197 6.95978 14.9197ZM10.591 14.9197C10.591 15.5188 10.591 16.118 10.591 16.7353C11.1901 16.7353 11.7893 16.7353 12.4066 16.7353C12.4066 16.1361 12.4066 15.537 12.4066 14.9197C11.8074 14.9197 11.2083 14.9197 10.591 14.9197ZM14.2222 14.9197C14.2222 15.5188 14.2222 16.118 14.2222 16.7353C14.8213 16.7353 15.4204 16.7353 16.0377 16.7353C16.0377 16.1361 16.0377 15.537 16.0377 14.9197C15.4386 14.9197 14.8395 14.9197 14.2222 14.9197ZM8.47277 18.5509C8.47277 20.0487 8.47277 21.5466 8.47277 23.0898C8.57263 23.0898 8.67249 23.0898 8.77537 23.0898C8.77537 21.6918 8.77537 20.2938 8.77537 18.8535C9.57423 18.8535 10.3731 18.8535 11.1962 18.8535C11.1962 20.2515 11.1962 21.6495 11.1962 23.0898C11.3959 23.0898 11.5956 23.0898 11.8014 23.0898C11.8014 21.6918 11.8014 20.2938 11.8014 18.8535C12.6002 18.8535 13.3991 18.8535 14.2222 18.8535C14.2222 20.2515 14.2222 21.6495 14.2222 23.0898C14.322 23.0898 14.4219 23.0898 14.5248 23.0898C14.5248 21.592 14.5248 20.0941 14.5248 18.5509C12.5276 18.5509 10.5304 18.5509 8.47277 18.5509Z" fill="#042A39"/>
<path d="M6.65625 6.14429C9.8517 6.14429 13.0471 6.14429 16.3394 6.14429C16.3394 6.84329 16.3394 7.54229 16.3394 8.26248C13.144 8.26248 9.94853 8.26248 6.65625 8.26248C6.65625 7.56348 6.65625 6.86447 6.65625 6.14429Z" fill="#042A39"/>
<path d="M10.8958 1C11.2952 1 11.6947 1 12.1062 1C12.2061 1.19972 12.3059 1.39943 12.4088 1.6052C12.8082 1.70506 13.2077 1.80491 13.6192 1.9078C13.4195 2.90637 13.2198 3.90495 13.014 4.93379C12.0154 4.93379 11.0168 4.93379 9.98801 4.93379C9.7883 3.93521 9.58858 2.93663 9.38281 1.9078C9.78224 1.80794 10.1817 1.70808 10.5932 1.6052C10.6931 1.40548 10.7929 1.20577 10.8958 1Z" fill="#042A39"/>
<path d="M20.5794 3.11816C20.9788 3.21802 21.3783 3.31788 21.7898 3.42076C21.7898 3.62048 21.7898 3.82019 21.7898 4.02596C22.1892 4.02596 22.5887 4.02596 23.0002 4.02596C22.9003 5.02454 22.8005 6.02311 22.6976 7.05195C21.5992 7.05195 20.5007 7.05195 19.369 7.05195C19.2691 6.05337 19.1693 5.0548 19.0664 4.02596C19.4658 3.9261 19.8653 3.82625 20.2768 3.72336C20.3767 3.52365 20.4765 3.32393 20.5794 3.11816Z" fill="#042A39"/>
<path d="M1.51299 3.11816C1.81257 3.11816 2.11214 3.11816 2.42079 3.11816C2.52065 3.31788 2.62051 3.51759 2.72339 3.72336C3.12282 3.82322 3.52225 3.92308 3.93379 4.02596C3.83393 5.02454 3.73407 6.02311 3.63119 7.05195C2.53275 7.05195 1.43432 7.05195 0.302599 7.05195C0.302599 6.55266 0.302599 6.05337 0.302599 5.53896C0.212576 5.03258 0.114603 4.52735 0 4.02596C0.399431 4.02596 0.798861 4.02596 1.2104 4.02596C1.31025 3.72639 1.41011 3.42682 1.51299 3.11816Z" fill="#042A39"/>
<path d="M15.7357 1.60522C16.1351 1.70508 16.5345 1.80494 16.946 1.90782C16.946 2.10754 16.946 2.30725 16.946 2.51302C17.4453 2.61288 17.9446 2.71274 18.459 2.81562C18.2593 3.71434 18.0596 4.61306 17.8538 5.53901C16.8553 5.53901 15.8567 5.53901 14.8279 5.53901C14.3915 4.66633 14.3472 3.77658 14.2227 2.81562C14.4161 2.72825 14.6096 2.64087 14.8089 2.55085C15.4791 2.2624 15.4791 2.2624 15.7357 1.60522Z" fill="#042A39"/>
<path d="M6.35466 1.60522C6.65423 1.60522 6.9538 1.60522 7.26245 1.60522C7.36231 1.80494 7.46217 2.00466 7.56505 2.21042C8.1753 2.55342 8.1753 2.55342 8.77545 2.81562C8.67559 3.61448 8.57573 4.41334 8.47285 5.23641C7.34283 5.5023 6.3039 5.56598 5.14426 5.53901C4.94455 4.64029 4.74483 3.74157 4.53906 2.81562C5.03835 2.71576 5.53764 2.61591 6.05206 2.51302C6.15192 2.21345 6.25177 1.91388 6.35466 1.60522Z" fill="#042A39"/>
<path d="M14.5234 15.2223C14.9229 15.2223 15.3223 15.2223 15.7338 15.2223C15.7338 15.6217 15.7338 16.0212 15.7338 16.4327C15.3344 16.4327 14.935 16.4327 14.5234 16.4327C14.5234 16.0333 14.5234 15.6338 14.5234 15.2223Z" fill="#042A39"/>
<path d="M10.8945 15.2223C11.294 15.2223 11.6934 15.2223 12.1049 15.2223C12.1049 15.6217 12.1049 16.0212 12.1049 16.4327C11.7055 16.4327 11.3061 16.4327 10.8945 16.4327C10.8945 16.0333 10.8945 15.6338 10.8945 15.2223Z" fill="#042A39"/>
<path d="M7.26562 15.2223C7.66506 15.2223 8.06449 15.2223 8.47602 15.2223C8.47602 15.6217 8.47602 16.0212 8.47602 16.4327C8.07659 16.4327 7.67716 16.4327 7.26562 16.4327C7.26562 16.0333 7.26562 15.6338 7.26562 15.2223Z" fill="#042A39"/>
<path d="M14.5234 11.5909C14.9229 11.5909 15.3223 11.5909 15.7338 11.5909C15.7338 11.9904 15.7338 12.3898 15.7338 12.8013C15.3344 12.8013 14.935 12.8013 14.5234 12.8013C14.5234 12.4019 14.5234 12.0025 14.5234 11.5909Z" fill="#042A39"/>
<path d="M10.8945 11.5909C11.294 11.5909 11.6934 11.5909 12.1049 11.5909C12.1049 11.9904 12.1049 12.3898 12.1049 12.8013C11.7055 12.8013 11.3061 12.8013 10.8945 12.8013C10.8945 12.4019 10.8945 12.0025 10.8945 11.5909Z" fill="#042A39"/>
<path d="M7.26562 11.5909C7.66506 11.5909 8.06449 11.5909 8.47602 11.5909C8.47602 11.9904 8.47602 12.3898 8.47602 12.8013C8.07659 12.8013 7.67716 12.8013 7.26562 12.8013C7.26562 12.4019 7.26562 12.0025 7.26562 11.5909Z" fill="#042A39"/>
</svg>
