<svg width="24" height="24" viewBox="0 0 24 24" fill="none" xmlns="http://www.w3.org/2000/svg">
<path d="M9.66707 1.12332C10.051 1.35677 10.2515 1.69388 10.376 2.11787C10.4026 2.10077 10.4293 2.08367 10.4568 2.06604C10.5094 2.03262 10.5094 2.03262 10.5632 1.99853C10.598 1.97637 10.6327 1.95422 10.6685 1.9314C10.9412 1.77283 11.2491 1.79428 11.5545 1.8241C11.9255 1.93195 12.1418 2.13655 12.3401 2.46061C12.3586 2.43461 12.377 2.4086 12.3959 2.38181C12.6173 2.07715 12.8439 1.82214 13.224 1.72617C13.6001 1.68276 13.9367 1.70568 14.2552 1.92202C14.53 2.1587 14.6572 2.40819 14.7462 2.75439C14.7624 2.80286 14.7786 2.85133 14.7953 2.90127C14.848 2.86997 14.9006 2.83866 14.9549 2.80641C15.2316 2.6419 15.5092 2.62302 15.8265 2.65646C16.139 2.7482 16.4468 2.91109 16.6229 3.19295C16.7721 3.47947 16.8148 3.70228 16.8085 4.02741C16.8521 4.00317 16.8956 3.97894 16.9405 3.95397C17.2523 3.82307 17.6098 3.82497 17.9306 3.92356C18.2481 4.06843 18.4734 4.26725 18.6325 4.57786C18.6865 4.75163 18.6856 4.90455 18.6837 5.08623C18.6833 5.15048 18.683 5.21473 18.6827 5.28093C18.6745 5.44732 18.6745 5.44732 18.6254 5.59421C18.6663 5.59194 18.7073 5.58967 18.7495 5.58733C19.2218 5.57222 19.5439 5.62762 19.8959 5.95225C20.1795 6.26392 20.2264 6.5362 20.2178 6.95024C20.1802 7.23819 20.0593 7.49385 19.8529 7.6996C19.8833 7.70566 19.9136 7.71172 19.9448 7.71796C20.3033 7.805 20.5489 7.95418 20.7859 8.23819C20.9595 8.52839 21.038 8.83319 20.9823 9.16847C20.891 9.51857 20.7346 9.78304 20.4422 10.0008C20.3282 10.0627 20.2217 10.1051 20.0985 10.1477C20.1331 10.1789 20.1331 10.1789 20.1685 10.2106C20.4739 10.4976 20.6114 10.775 20.6415 11.1947C20.6337 11.5419 20.5188 11.8325 20.2784 12.0835C20.0354 12.2967 19.7724 12.3834 19.4601 12.449C19.4976 12.4883 19.5351 12.5277 19.5737 12.5683C19.7669 12.8005 19.8395 13.0583 19.8714 13.3548C19.8296 13.743 19.7061 14.0461 19.411 14.3095C19.1628 14.4858 18.94 14.5618 18.6376 14.5574C18.5788 14.5567 18.5788 14.5567 18.5187 14.5561C18.4743 14.5552 18.4743 14.5552 18.4289 14.5543C18.4467 14.5823 18.4644 14.6103 18.4826 14.6391C18.6816 14.9858 18.7344 15.2844 18.6745 15.6805C18.5672 16.0229 18.3811 16.2625 18.0852 16.4639C18.0528 16.48 18.0204 16.4962 17.987 16.5128C17.9344 17.0338 17.9344 17.0338 18.1159 17.5105C18.349 17.7369 18.621 17.7226 18.9292 17.7277C18.977 17.7268 19.0249 17.7258 19.0742 17.7248C19.4295 17.719 19.4295 17.719 19.613 17.8262C19.7492 17.9829 19.7596 18.0979 19.7478 18.2965C19.7211 18.8393 19.7211 18.8393 19.9473 19.3138C20.1003 19.4724 20.2694 19.608 20.4422 19.7444C20.5222 19.904 20.5142 20.0077 20.4913 20.185C20.3741 20.3619 20.2253 20.5143 20.0599 20.6471C19.9207 20.7665 19.8187 20.8566 19.7756 21.0387C19.7679 21.1723 19.7682 21.3029 19.7731 21.4366C19.7873 21.9392 19.7873 21.9392 19.663 22.1263C19.44 22.2933 19.2634 22.2594 18.9936 22.2445C18.6336 22.2398 18.3955 22.2634 18.13 22.5185C18.0107 22.6504 17.9001 22.7868 17.7906 22.9269C17.6171 23.0134 17.4389 23.0139 17.2505 22.9759C17.1264 22.8809 17.0412 22.7596 16.9466 22.6362C16.7494 22.4065 16.5958 22.2738 16.2872 22.2426C16.1415 22.2367 15.9992 22.2382 15.8536 22.2456C15.5172 22.2615 15.5172 22.2615 15.3278 22.1512C15.1963 21.9268 15.2274 21.7393 15.2403 21.4856C15.2437 21.1825 15.2388 20.9454 15.0345 20.7083C14.9147 20.5888 14.7866 20.4846 14.6541 20.3795C14.5211 20.2681 14.501 20.2351 14.4454 20.0594C14.4525 19.8661 14.4766 19.7951 14.5989 19.6464C14.6718 19.5874 14.7449 19.5284 14.8189 19.4707C15.0086 19.3157 15.1621 19.1752 15.217 18.9296C15.2357 18.736 15.2389 18.5465 15.2325 18.3522C15.2211 18.0039 15.2211 18.0039 15.3293 17.8547C15.4859 17.7514 15.5656 17.7322 15.7515 17.7369C16.3388 17.7573 16.3388 17.7573 16.8484 17.5105C17.0459 17.2564 17.0673 16.9934 17.0491 16.6792C16.9988 16.4896 16.9602 16.441 16.7963 16.3384C16.7559 16.3178 16.7155 16.2973 16.6739 16.2761C16.5073 16.1904 16.4484 16.0915 16.3666 15.9253C16.3098 15.7474 16.2621 15.5684 16.2193 15.3867C16.1938 15.4068 16.1683 15.4269 16.142 15.4475C16.1077 15.4739 16.0735 15.5003 16.0382 15.5275C16.0046 15.5536 15.971 15.5797 15.9364 15.6067C15.6245 15.8161 15.3082 15.8187 14.9426 15.7784C14.578 15.6716 14.34 15.4713 14.157 15.1419C14.0987 15.0122 14.0534 14.8858 14.0096 14.7502C13.9644 14.7812 13.9644 14.7812 13.9182 14.8127C13.8785 14.8396 13.8388 14.8664 13.7979 14.894C13.7389 14.9341 13.7389 14.9341 13.6788 14.9749C13.3937 15.1522 13.0572 15.1187 12.733 15.0929C12.4618 15.0159 12.2791 14.8592 12.0946 14.6523C12.0815 14.6836 12.0683 14.715 12.0547 14.7473C11.8911 15.1073 11.7043 15.3677 11.3391 15.5399C11.0026 15.6574 10.6903 15.6637 10.3555 15.538C10.0706 15.3976 9.90664 15.2101 9.73766 14.946C9.68905 14.8733 9.68905 14.8733 9.63945 14.7992C9.60907 14.8426 9.57869 14.886 9.54738 14.9307C9.33925 15.1755 9.07222 15.3147 8.75387 15.358C8.35061 15.3692 8.03883 15.3124 7.7367 15.0379C7.51672 14.802 7.40338 14.5225 7.3316 14.2116C7.29919 14.2409 7.26678 14.2702 7.23339 14.3004C6.93314 14.5187 6.6219 14.6082 6.25132 14.5543C5.82602 14.4451 5.55742 14.2332 5.32143 13.8689C5.21351 13.5848 5.25882 13.2382 5.26926 12.9386C5.2421 12.9463 5.21495 12.9541 5.18697 12.9621C4.84834 13.0376 4.50706 13.0202 4.19589 12.8634C3.94992 12.6956 3.76165 12.4728 3.6243 12.2103C3.5577 11.7952 3.56753 11.4415 3.79616 11.078C3.87312 10.9852 3.9497 10.9122 4.04168 10.8332C4.01022 10.823 3.97876 10.8129 3.94635 10.8024C3.58371 10.6736 3.33293 10.5198 3.14228 10.1791C2.97779 9.81104 2.95394 9.49914 3.08109 9.11645C3.20357 8.83829 3.39643 8.64949 3.64885 8.483C3.82378 8.43404 3.82378 8.43404 3.94347 8.43404C3.90701 8.3997 3.87055 8.36537 3.83299 8.32999C3.55164 8.03669 3.42082 7.76895 3.38799 7.36298C3.39963 7.01009 3.51828 6.7098 3.75952 6.45125C4.01082 6.23543 4.31309 6.12425 4.64319 6.12974C4.73434 6.13125 4.73434 6.13125 4.82733 6.1328C4.80404 6.08433 4.78074 6.03585 4.75674 5.98591C4.60737 5.63269 4.60558 5.31721 4.72912 4.9577C4.8961 4.64319 5.14472 4.40605 5.47795 4.27528C5.75047 4.19531 6.09144 4.19251 6.34953 4.32119C6.33333 4.27271 6.31712 4.22424 6.30043 4.1743C6.26901 3.79893 6.25382 3.45174 6.49684 3.14609C6.75325 2.87392 6.98054 2.66919 7.36631 2.64977C7.73456 2.64351 7.73456 2.64351 7.92084 2.70542C7.91296 2.64417 7.91296 2.64417 7.90492 2.58168C7.85473 2.11193 7.87385 1.79161 8.17556 1.4171C8.5662 1.01223 9.13572 0.877008 9.66707 1.12332ZM9.65537 3.27289C9.37122 3.4448 9.01932 3.41731 8.70035 3.36642C8.66997 3.35834 8.63959 3.35026 8.60828 3.34194C8.61638 3.37223 8.62449 3.40253 8.63283 3.43374C8.69848 3.84282 8.67943 4.20375 8.46097 4.566C8.27913 4.77079 8.08809 4.92815 7.82263 5.00666C7.68465 5.0134 7.55207 5.01597 7.41446 5.01278C7.37809 5.01234 7.34173 5.0119 7.30426 5.01144C7.21516 5.0103 7.12607 5.00854 7.03698 5.00666C7.03926 5.05046 7.04153 5.09427 7.04388 5.1394C7.05659 5.56378 7.04588 5.93196 6.76653 6.27184C6.45875 6.56375 6.07193 6.63423 5.66208 6.67139C5.67386 6.71519 5.68563 6.75899 5.69776 6.80412C5.80944 7.25826 5.84761 7.58899 5.62526 8.00867C5.40753 8.268 5.18831 8.41379 4.87643 8.53196C4.89599 8.55386 4.91555 8.57576 4.9357 8.59833C5.26645 8.97467 5.38843 9.2439 5.38473 9.74723C5.34636 10.0933 5.17563 10.3539 4.92554 10.5884C4.97975 10.6062 4.97975 10.6062 5.03506 10.6243C5.40175 10.7499 5.64542 10.8505 5.84929 11.1912C6.00712 11.5193 5.97811 11.8484 5.9567 12.2041C6.03855 12.1999 6.03855 12.1999 6.12204 12.1955C6.93975 12.1654 6.93975 12.1654 7.28249 12.449C7.52656 12.7127 7.61965 12.9806 7.67532 13.3303C7.69152 13.298 7.70773 13.2657 7.72442 13.2324C7.80422 13.1865 7.80422 13.1865 7.92084 13.1344C7.99224 13.0951 7.99224 13.0951 8.06508 13.0549C8.37235 12.9273 8.73296 12.9325 9.04638 13.034C9.42803 13.2125 9.58737 13.4378 9.73766 13.8199C9.77007 13.7846 9.80247 13.7492 9.83587 13.7128C10.1293 13.4193 10.437 13.2745 10.8517 13.266C11.314 13.2698 11.5633 13.4214 11.8982 13.722C11.906 13.6936 11.9138 13.6652 11.9218 13.6359C12.0245 13.2931 12.1493 13.0637 12.466 12.8743C12.7848 12.7182 13.1061 12.6903 13.453 12.7745C13.7465 12.8779 13.9498 13.0105 14.1079 13.2813C14.1842 13.4579 14.2476 13.6362 14.3043 13.8199C14.3292 13.7998 14.3541 13.7798 14.3798 13.7591C14.734 13.4827 15.0308 13.3764 15.4827 13.4282C15.86 13.5168 16.1036 13.6946 16.3175 14.0158C16.4106 14.2225 16.4378 14.4279 16.4648 14.6523C16.5005 14.623 16.5005 14.623 16.5369 14.5932C16.9049 14.3031 17.2263 14.1938 17.6924 14.1626C17.672 14.1243 17.672 14.1243 17.6512 14.0852C17.4571 13.692 17.3859 13.3276 17.5175 12.9019C17.6485 12.5847 17.8627 12.3949 18.1619 12.2347C18.3153 12.1955 18.4682 12.1736 18.6254 12.1552C18.6052 12.1274 18.5851 12.0995 18.5644 12.0708C18.3309 11.7372 18.1907 11.446 18.2325 11.029C18.3264 10.6287 18.4785 10.3779 18.8218 10.1477C18.919 10.0906 19.0122 10.045 19.1164 10.0008C19.0809 9.97054 19.0455 9.94024 19.009 9.90903C18.7418 9.63648 18.6104 9.32826 18.5947 8.94814C18.6091 8.568 18.7622 8.3028 18.9691 7.99337C18.9406 7.98858 18.9121 7.98378 18.8828 7.97884C18.4787 7.90172 18.2294 7.74555 17.987 7.40582C17.7755 7.00673 17.8093 6.65233 17.9379 6.23072C17.865 6.23328 17.865 6.23328 17.7906 6.23589C16.9978 6.25601 16.9978 6.25601 16.7013 5.98629C16.3669 5.63322 16.3039 5.33181 16.2684 4.85977C16.2248 4.88401 16.1813 4.90825 16.1364 4.93322C15.8269 5.06522 15.4116 5.07118 15.0961 4.95158C14.758 4.74931 14.5238 4.5497 14.4213 4.15575C14.3966 4.04797 14.3739 3.94018 14.3534 3.83156C14.3273 3.84513 14.3012 3.8587 14.2743 3.87268C14.2397 3.89042 14.205 3.90815 14.1692 3.92643C14.1351 3.94404 14.1009 3.96164 14.0657 3.97979C13.7542 4.12088 13.3874 4.12785 13.0644 4.01823C12.7746 3.89414 12.5764 3.69107 12.3892 3.43986C12.3701 3.47237 12.351 3.50487 12.3313 3.53836C12.1248 3.86341 11.9332 4.06992 11.5545 4.1743C11.1748 4.22481 10.8386 4.20847 10.5233 3.97845C10.2085 3.70641 10.1061 3.44557 10.0323 3.04816C9.90527 3.04816 9.75648 3.2024 9.65537 3.27289ZM16.4648 19.4016C16.352 19.5391 16.352 19.5391 16.3727 19.6923C16.4226 19.8662 16.464 19.9344 16.6121 20.0381C16.7666 20.0535 16.8655 20.0587 17.0049 19.9892C17.097 19.9792 17.097 19.9792 17.2014 19.9769C17.2358 19.9757 17.2702 19.9744 17.3057 19.9731C17.3361 19.9784 17.3665 19.9837 17.3978 19.9892C17.5114 20.1591 17.5127 20.2303 17.496 20.4298C17.4636 20.4783 17.4312 20.5268 17.3978 20.5767C17.3696 20.7933 17.3741 20.8861 17.5021 21.0664C17.6348 21.1771 17.6348 21.1771 17.7906 21.1704C18.0344 21.0793 18.1457 20.9367 18.2724 20.7144C18.384 20.3572 18.3716 20.0379 18.2032 19.7008C18.0303 19.4414 17.7939 19.2509 17.496 19.1568C17.1008 19.1089 16.7659 19.1219 16.4648 19.4016Z" fill="#042A39"/>
</svg>
