<svg xmlns="http://www.w3.org/2000/svg" xmlns:xlink="http://www.w3.org/1999/xlink" width="98.802" height="62.201" viewBox="0 0 98.802 62.201">
  <defs>
    <clipPath id="clip-path">
      <rect id="Rectangle_41" data-name="Rectangle 41" width="98.802" height="62.201" fill="none"/>
    </clipPath>
  </defs>
  <g id="LOGO_Colour" data-name="LOGO Colour" transform="translate(0 0)">
    <path id="Path_47" data-name="Path 47" d="M8.3,83.068l-.883-.9-.882.9.882.9Z" transform="translate(-3.66 -46.05)" fill="#0f2837"/>
    <path id="Path_48" data-name="Path 48" d="M3.566,83.068l-.883-.9-.883.9.883.9Z" transform="translate(-1.009 -46.05)" fill="#0f2837"/>
    <path id="Path_49" data-name="Path 49" d="M42.047,82.906l-.882-.9-.883.9.883.9Z" transform="translate(-22.575 -45.96)" fill="#0f2837"/>
    <g id="Group_5" data-name="Group 5" transform="translate(0 0)">
      <g id="Group_4" data-name="Group 4" transform="translate(0 0)" clip-path="url(#clip-path)">
        <path id="Path_50" data-name="Path 50" d="M20.356,89.658a1.831,1.831,0,0,0-2.541-.933,2.125,2.125,0,0,0-.691.569,2.842,2.842,0,0,0-.463.855,3.152,3.152,0,0,0-.171,1.047,2.1,2.1,0,0,0,.534,1.531,1.959,1.959,0,0,0,1.473.548,2.488,2.488,0,0,0,.8-.127,2.16,2.16,0,0,0,.663-.356v1q0,.285-.94.427c-.627.1-11.324.142-12.558.142H6.14a1.562,1.562,0,0,1-1.012-.263,1.052,1.052,0,0,1-.3-.876l.057-4.827-1.125.2v.869a6.3,6.3,0,0,0-2.684,1.125,2.315,2.315,0,0,0-.96,1.866A1.751,1.751,0,0,0,.8,93.873a2.244,2.244,0,0,0,.732.37,3.076,3.076,0,0,0,.9.128,2.8,2.8,0,0,0,1.41-.342q.241,1.61,2.293,1.609h.328c.5,0,10.711-.007,11.091-.021s.717-.04,1.012-.078a6.939,6.939,0,0,0,.761-.136,3.045,3.045,0,0,0,.591-.206,1.53,1.53,0,0,0,.783-.748,3.53,3.53,0,0,0,.227-1.431,7.667,7.667,0,0,0-.577-3.36m-1.011,2.435a2.611,2.611,0,0,1-.719.1,1.383,1.383,0,0,1-.918-.271.984.984,0,0,1-.32-.8,1.47,1.47,0,0,1,.356-1,1.13,1.13,0,0,1,.883-.406.971.971,0,0,1,.876.5,3.867,3.867,0,0,1,.406,1.608,1.593,1.593,0,0,1-.562.271M2.608,93.133a3.277,3.277,0,0,1-.576-.05,1.82,1.82,0,0,1-.491-.156.888.888,0,0,1-.335-.278.713.713,0,0,1-.122-.427.878.878,0,0,1,.222-.577,2.058,2.058,0,0,1,.6-.47,4.042,4.042,0,0,1,.862-.341,6.163,6.163,0,0,1,1.011-.193L3.8,92.933a3.283,3.283,0,0,1-1.2.2" transform="translate(-0.066 -49.536)" fill="#0f2837"/>
        <path id="Path_51" data-name="Path 51" d="M83.441,86.34l-.882-.9-.883.9.883.9Z" transform="translate(-45.773 -47.884)" fill="#0f2837"/>
        <path id="Path_52" data-name="Path 52" d="M88.17,86.34l-.882-.9-.883.9.883.9Z" transform="translate(-48.423 -47.884)" fill="#0f2837"/>
        <path id="Path_53" data-name="Path 53" d="M121.243,85.821l-.883-.9-.882.9.882.9Z" transform="translate(-66.958 -47.594)" fill="#0f2837"/>
        <path id="Path_54" data-name="Path 54" d="M122.724,90.9l.883-.9-.883-.9-.882.9Z" transform="translate(-68.283 -49.936)" fill="#0f2837"/>
        <path id="Path_55" data-name="Path 55" d="M118.878,90,118,89.1l-.882.9.882.9Z" transform="translate(-65.633 -49.936)" fill="#0f2837"/>
        <path id="Path_56" data-name="Path 56" d="M95.591,84.184l.042,6.978a.455.455,0,0,1-.149.342,1.085,1.085,0,0,1-.385.228,2.376,2.376,0,0,1-.533.121c-.2.024-10.149.035-10.365.035q-1.695,0-1.695-.883c0-.075.019-.28.056-.612s.081-.7.129-1.1l-.969-.114c-.019.124-.037.266-.056.428s-.043.322-.071.484-.057.32-.085.477-.053.287-.072.392a.988.988,0,0,1-.562.712c-.3.142-10.513.213-11.139.213h0c-.284,0-.556,0-.812-.014s-.494-.024-.712-.043a2.292,2.292,0,0,0,.74-1.737,2.733,2.733,0,0,0-.178-.99,2.592,2.592,0,0,0-.484-.8,2.313,2.313,0,0,0-.712-.541,1.96,1.96,0,0,0-1.723,0,2.33,2.33,0,0,0-.712.541,2.591,2.591,0,0,0-.484.8,2.732,2.732,0,0,0-.177.99,2.259,2.259,0,0,0,.74,1.737q-.342.028-.727.043c-.256.01-10.289.014-10.564.014a1.53,1.53,0,0,1-1-.263,1.1,1.1,0,0,1-.306-.876l.057-6.764-1.125.2.057,6.992q.03,1.993,2.321,1.993c.531,0,10.821-.042,11.333-.127a8.538,8.538,0,0,0,1.453-.371,8.559,8.559,0,0,0,1.452.371,9.534,9.534,0,0,0,1.567.127c.6,0,10.88-.083,11.313-.249a1.823,1.823,0,0,0,.933-.7,2.352,2.352,0,0,0,2.22.954h0c.354,0,10.438-.035,10.756-.107a2.547,2.547,0,0,0,.854-.356,1.937,1.937,0,0,0,.612-.655,1.969,1.969,0,0,0,.235-1l.058-7.063ZM66.716,91.546q-1.31-.427-1.31-1.41a1.358,1.358,0,0,1,.377-.954,1.232,1.232,0,0,1,.42-.285,1.366,1.366,0,0,1,1.025,0,1.222,1.222,0,0,1,.42.285,1.347,1.347,0,0,1,.378.954q0,.982-1.31,1.41" transform="translate(-28.891 -47.067)" fill="#0f2837"/>
        <path id="Path_57" data-name="Path 57" d="M158.448,93.169l-.071-8.985,1.125-.2-.071,9.185Z" transform="translate(-88.758 -47.067)" fill="#0f2837"/>
        <path id="Path_58" data-name="Path 58" d="M175.274,91.851a2.113,2.113,0,0,1-.655,1.63,2.545,2.545,0,0,1-1.794.605,2.581,2.581,0,0,1-1.837-.591,2.226,2.226,0,0,1-.627-1.7,4.264,4.264,0,0,1,.2-1.317,3.952,3.952,0,0,1,.534-1.09,2.631,2.631,0,0,1,.784-.74,1.8,1.8,0,0,1,.946-.271,1.832,1.832,0,0,1,.961.271,2.541,2.541,0,0,1,.776.74,3.869,3.869,0,0,1,.52,1.1,4.638,4.638,0,0,1,.193,1.36m-3.5-4.614-.882-.9.882-.9.883.9Zm2.535,4.742a3.726,3.726,0,0,0-.107-.919,2.418,2.418,0,0,0-.306-.726,1.568,1.568,0,0,0-.47-.477,1.1,1.1,0,0,0-.6-.171,1.2,1.2,0,0,0-.576.149,1.5,1.5,0,0,0-.478.406,2.108,2.108,0,0,0-.32.6,2.164,2.164,0,0,0-.121.727,1.147,1.147,0,0,0,.384.932,1.694,1.694,0,0,0,1.111.32,2.437,2.437,0,0,0,.569-.064,1.588,1.588,0,0,0,.47-.185,1.223,1.223,0,0,0,.321-.27.5.5,0,0,0,.121-.32m-.456-4.742-.883-.9.883-.9.883.9Z" transform="translate(-95.474 -47.884)" fill="#0f2837"/>
        <path id="Path_59" data-name="Path 59" d="M180.627,100.247a9.733,9.733,0,0,0,1.424-.655,7.294,7.294,0,0,0,1.133-.775A4.006,4.006,0,0,0,183.93,98a1.406,1.406,0,0,0,.271-.776,2.258,2.258,0,0,0-.1-.584,6.508,6.508,0,0,0-.277-.775q-.179-.421-.42-.877t-.513-.882l1.025-.57a6.533,6.533,0,0,1,.939,1.766,5.434,5.434,0,0,1,.343,1.808,3.568,3.568,0,0,1-1.025,2.456,7.2,7.2,0,0,1-2.892,1.8Z" transform="translate(-101.228 -52.422)" fill="#0f2837"/>
        <path id="Path_60" data-name="Path 60" d="M195.407,93.169l-.071-8.985,1.125-.2-.071,9.185Z" transform="translate(-109.471 -47.067)" fill="#0f2837"/>
        <path id="Path_61" data-name="Path 61" d="M199.514,96.49a9.777,9.777,0,0,0,1.424-.655,7.32,7.32,0,0,0,1.132-.776,4.025,4.025,0,0,0,.747-.812,1.4,1.4,0,0,0,.27-.776,2.272,2.272,0,0,0-.1-.584,6.526,6.526,0,0,0-.277-.775q-.178-.421-.42-.877t-.513-.882l1.025-.57a6.551,6.551,0,0,1,.94,1.766,5.454,5.454,0,0,1,.342,1.808,3.562,3.562,0,0,1-1.025,2.456,7.205,7.205,0,0,1-2.891,1.8Zm2.607-7.86-.883-.9.883-.9.882.9Z" transform="translate(-111.812 -48.665)" fill="#0f2837"/>
        <path id="Path_62" data-name="Path 62" d="M214.158,99.86q3.077-.428,3.546-2.235a2.1,2.1,0,0,1-.663.327,2.75,2.75,0,0,1-.8.114,1.9,1.9,0,0,1-1.51-.655,2.53,2.53,0,0,1-.57-1.723,3.43,3.43,0,0,1,.171-1.1,2.808,2.808,0,0,1,.47-.876,2.128,2.128,0,0,1,.712-.576,1.98,1.98,0,0,1,.9-.207,1.933,1.933,0,0,1,1.73,1,5.391,5.391,0,0,1,.62,2.826,4.191,4.191,0,0,1-.292,1.581,3.966,3.966,0,0,1-.826,1.281,4.41,4.41,0,0,1-1.289.918,5.64,5.64,0,0,1-1.68.491Zm2.264-2.947a2.652,2.652,0,0,0,.776-.114,1.755,1.755,0,0,0,.592-.284,3.838,3.838,0,0,0-.42-1.737,1.159,1.159,0,0,0-1.909-.2,1.616,1.616,0,0,0-.349,1.082,1.2,1.2,0,0,0,.349.926,1.345,1.345,0,0,0,.961.327" transform="translate(-120.019 -52.078)" fill="#0f2837"/>
        <path id="Path_63" data-name="Path 63" d="M.505,116.4H1.661l2.549,4.357L6.76,116.4H7.889l.389,8.375H7.1l-.276-6.429L4.461,122.3h-.6l-2.322-3.9-.289,6.379H.116Z" transform="translate(-0.065 -65.231)" fill="#0f2837"/>
        <path id="Path_64" data-name="Path 64" d="M22.212,116.312l.9.9-.9.9-.9-.9Zm-.558,2.573h1.129v5.839H21.654Z" transform="translate(-11.945 -65.184)" fill="#0f2837"/>
        <path id="Path_65" data-name="Path 65" d="M28.294,127.828v-5.468c0-.08,0-.2-.013-.371h1.08l.039.879q.113-.15.276-.332a1.854,1.854,0,0,1,.4-.332,2.328,2.328,0,0,1,.558-.251,2.416,2.416,0,0,1,.722-.1,2.081,2.081,0,0,1,1.7.665,2.758,2.758,0,0,1,.552,1.808v3.5H32.474v-3.416a1.731,1.731,0,0,0-.351-1.2,1.28,1.28,0,0,0-.992-.382,1.466,1.466,0,0,0-1.336.721,2.29,2.29,0,0,0-.283.728,3.943,3.943,0,0,0-.087.835v2.713Z" transform="translate(-15.849 -68.289)" fill="#0f2837"/>
        <path id="Path_66" data-name="Path 66" d="M43.638,116.312l.9.9-.9.9-.9-.9Zm-.557,2.573H44.21v5.839H43.081Z" transform="translate(-23.954 -65.184)" fill="#0f2837"/>
        <path id="Path_67" data-name="Path 67" d="M49.486,126.295a2.385,2.385,0,0,0,.754.5,2.562,2.562,0,0,0,1.016.188,2.161,2.161,0,0,0,.943-.182.6.6,0,0,0,.377-.571.7.7,0,0,0-.081-.346.738.738,0,0,0-.277-.257,2.372,2.372,0,0,0-.514-.207c-.214-.063-.48-.132-.8-.207a4.851,4.851,0,0,1-.672-.2,2.217,2.217,0,0,1-.6-.333,1.614,1.614,0,0,1-.427-.5,1.446,1.446,0,0,1-.163-.709,1.4,1.4,0,0,1,.195-.748,1.731,1.731,0,0,1,.52-.54,2.521,2.521,0,0,1,.736-.333,3.151,3.151,0,0,1,.847-.113,3.712,3.712,0,0,1,1.274.195,2.943,2.943,0,0,1,.937.546l-.616.778a2.269,2.269,0,0,0-.659-.4,2.411,2.411,0,0,0-.923-.164,1.821,1.821,0,0,0-.866.177.6.6,0,0,0-.327.577A.6.6,0,0,0,50.6,124a7.252,7.252,0,0,0,1.135.346,7.069,7.069,0,0,1,.772.232,2.377,2.377,0,0,1,.629.339,1.534,1.534,0,0,1,.427.509,1.577,1.577,0,0,1,.156.728,1.462,1.462,0,0,1-.2.772,1.775,1.775,0,0,1-.539.559,2.564,2.564,0,0,1-.778.339,3.707,3.707,0,0,1-.917.113,3.236,3.236,0,0,1-2.486-.891Z" transform="translate(-27.346 -68.224)" fill="#0f2837"/>
        <path id="Path_68" data-name="Path 68" d="M62.788,120.674H61.733v-.942h1.055v-1.909h1.129v1.909h1.708v.942H63.917v2.875a1.562,1.562,0,0,0,.22.967.764.764,0,0,0,.622.263,1.267,1.267,0,0,0,.539-.1,1.685,1.685,0,0,0,.428-.3l.515.691a2.42,2.42,0,0,1-.748.509,2.39,2.39,0,0,1-.909.157,1.7,1.7,0,0,1-1.362-.5,2.358,2.358,0,0,1-.434-1.57Z" transform="translate(-34.597 -66.031)" fill="#0f2837"/>
        <path id="Path_69" data-name="Path 69" d="M74.17,127.892v-5.474c0-.075,0-.2-.013-.364h1.08l.039.942a3.032,3.032,0,0,1,.263-.333,1.98,1.98,0,0,1,.4-.333,2.489,2.489,0,0,1,.541-.257,2.148,2.148,0,0,1,.708-.107,2.208,2.208,0,0,1,.346.025,1.68,1.68,0,0,1,.3.076l-.252,1.054a1.618,1.618,0,0,0-.577-.088,1.635,1.635,0,0,0-.672.138,1.594,1.594,0,0,0-.532.384,1.852,1.852,0,0,0-.49,1.262v3.076Z" transform="translate(-41.559 -68.353)" fill="#0f2837"/>
        <path id="Path_70" data-name="Path 70" d="M84.217,129.435a1.479,1.479,0,0,0,.288.2.846.846,0,0,0,.4.088.652.652,0,0,0,.345-.088.856.856,0,0,0,.265-.27,2.692,2.692,0,0,0,.225-.439c.072-.172.153-.37.245-.6l.15-.376-2.611-5.788H84.82l1.882,4.407,1.659-4.407H89.59l-2.335,5.688q-.163.4-.333.885a5.407,5.407,0,0,1-.422.917,2.54,2.54,0,0,1-.614.723,1.435,1.435,0,0,1-.917.289,2,2,0,0,1-.74-.12,1.776,1.776,0,0,1-.527-.32Z" transform="translate(-46.81 -68.464)" fill="#0f2837"/>
        <path id="Path_71" data-name="Path 71" d="M106.043,127.939a3.089,3.089,0,0,1-1.243-.245,2.937,2.937,0,0,1-.973-.672,3.149,3.149,0,0,1-.64-.986,3.2,3.2,0,0,1,0-2.4,3.154,3.154,0,0,1,.64-.986,2.963,2.963,0,0,1,.973-.672,3.247,3.247,0,0,1,2.474,0,3.038,3.038,0,0,1,.979.672,3.143,3.143,0,0,1,0,4.369,3.01,3.01,0,0,1-.979.672,3.06,3.06,0,0,1-1.231.245m0-.979a1.807,1.807,0,0,0,.817-.182,1.929,1.929,0,0,0,.615-.477,2.08,2.08,0,0,0,.383-.678,2.4,2.4,0,0,0,.132-.785,2.374,2.374,0,0,0-.132-.773,2.113,2.113,0,0,0-.389-.684,2,2,0,0,0-.616-.484,1.758,1.758,0,0,0-.81-.182,1.793,1.793,0,0,0-.815.182,1.941,1.941,0,0,0-.616.477,2.084,2.084,0,0,0-.383.678,2.409,2.409,0,0,0-.132.785,2.351,2.351,0,0,0,.132.778,2.094,2.094,0,0,0,.389.678,1.965,1.965,0,0,0,.615.484,1.759,1.759,0,0,0,.809.182" transform="translate(-57.698 -68.224)" fill="#0f2837"/>
        <path id="Path_72" data-name="Path 72" d="M119.577,119.6h-1.055v-.942h1.055v-.477a2.8,2.8,0,0,1,.169-1.024,2.011,2.011,0,0,1,.451-.71,1.776,1.776,0,0,1,.648-.407,2.207,2.207,0,0,1,.766-.132,2.959,2.959,0,0,1,.911.144,2.187,2.187,0,0,1,.821.5l-.565.728a1.52,1.52,0,0,0-.992-.389,1.025,1.025,0,0,0-.785.314,1.567,1.567,0,0,0-.3,1.08v.377h1.67v.942h-1.67v4.9h-1.129Z" transform="translate(-66.422 -64.959)" fill="#0f2837"/>
        <path id="Path_73" data-name="Path 73" d="M142.5,123.046a2.937,2.937,0,0,1-.428.515,3.91,3.91,0,0,1-.7.546,4.308,4.308,0,0,1-.954.433,3.831,3.831,0,0,1-1.193.176,4.293,4.293,0,0,1-1.7-.327,3.9,3.9,0,0,1-1.317-.91,4.149,4.149,0,0,1-.86-1.381,5.014,5.014,0,0,1,0-3.459,4.338,4.338,0,0,1,.86-1.406,3.984,3.984,0,0,1,1.324-.949,4.156,4.156,0,0,1,1.715-.345,4.013,4.013,0,0,1,1.193.164,3.957,3.957,0,0,1,.922.407,3.536,3.536,0,0,1,.678.534,3.984,3.984,0,0,1,.459.553l-.855.728a5.025,5.025,0,0,0-.357-.446,2.505,2.505,0,0,0-.5-.421,2.946,2.946,0,0,0-.665-.314,2.765,2.765,0,0,0-.866-.125A2.751,2.751,0,0,0,137.1,118a3.163,3.163,0,0,0-.584,1.055,4.011,4.011,0,0,0-.2,1.28,3.832,3.832,0,0,0,.207,1.274,3.144,3.144,0,0,0,.584,1.037,2.68,2.68,0,0,0,.916.691,2.828,2.828,0,0,0,1.206.251,2.924,2.924,0,0,0,.973-.144,2.811,2.811,0,0,0,.691-.345,2.721,2.721,0,0,0,.464-.408c.122-.138.226-.253.308-.346Z" transform="translate(-75.683 -64.975)" fill="#0f2837"/>
        <path id="Path_74" data-name="Path 74" d="M154.7,122.166h1.131v3.427a1.755,1.755,0,0,0,.338,1.2,1.266,1.266,0,0,0,.979.37,1.5,1.5,0,0,0,.811-.2,1.618,1.618,0,0,0,.522-.521,2.142,2.142,0,0,0,.282-.728,4.269,4.269,0,0,0,.081-.835v-2.712h1.131v5.48c0,.122,0,.241.013.359H158.9l-.038-.867a4.22,4.22,0,0,1-.276.327,1.9,1.9,0,0,1-.4.32,2.508,2.508,0,0,1-.553.245,2.342,2.342,0,0,1-.714.1,2.048,2.048,0,0,1-1.683-.659,2.756,2.756,0,0,1-.541-1.8Z" transform="translate(-86.695 -68.465)" fill="#0f2837"/>
        <rect id="Rectangle_40" data-name="Rectangle 40" width="1.131" height="8.375" transform="translate(74.832 51.165)" fill="#0f2837"/>
        <path id="Path_75" data-name="Path 75" d="M176.12,120.674h-1.054v-.942h1.054v-1.909h1.129v1.909h1.708v.942h-1.708v2.875a1.562,1.562,0,0,0,.22.967.765.765,0,0,0,.622.263,1.265,1.265,0,0,0,.539-.1,1.677,1.677,0,0,0,.428-.3l.515.691a2.161,2.161,0,0,1-1.657.666,1.7,1.7,0,0,1-1.362-.5,2.358,2.358,0,0,1-.434-1.57Z" transform="translate(-98.111 -66.031)" fill="#0f2837"/>
        <path id="Path_76" data-name="Path 76" d="M186.916,122.166h1.131v3.427a1.755,1.755,0,0,0,.338,1.2,1.266,1.266,0,0,0,.979.37,1.5,1.5,0,0,0,.81-.2,1.614,1.614,0,0,0,.522-.521,2.151,2.151,0,0,0,.283-.728,4.3,4.3,0,0,0,.081-.835v-2.712h1.131v5.48c0,.122,0,.241.013.359h-1.08l-.038-.867a4.219,4.219,0,0,1-.276.327,1.9,1.9,0,0,1-.4.32,2.508,2.508,0,0,1-.553.245,2.34,2.34,0,0,1-.714.1,2.048,2.048,0,0,1-1.683-.659,2.756,2.756,0,0,1-.541-1.8Z" transform="translate(-104.752 -68.465)" fill="#0f2837"/>
        <path id="Path_77" data-name="Path 77" d="M202.467,127.892v-5.474c0-.075,0-.2-.013-.364h1.08l.039.942a3.03,3.03,0,0,1,.263-.333,1.99,1.99,0,0,1,.4-.333,2.5,2.5,0,0,1,.541-.257,2.15,2.15,0,0,1,.708-.107,2.208,2.208,0,0,1,.346.025,1.68,1.68,0,0,1,.3.076l-.252,1.054a1.8,1.8,0,0,0-1.248.05,1.6,1.6,0,0,0-.533.384,1.855,1.855,0,0,0-.49,1.262v3.076Z" transform="translate(-113.46 -68.353)" fill="#0f2837"/>
        <path id="Path_78" data-name="Path 78" d="M217.124,126.925a3.519,3.519,0,0,1-.3.29,2.577,2.577,0,0,1-.522.339,4.034,4.034,0,0,1-.753.282,3.754,3.754,0,0,1-.986.119,3.309,3.309,0,0,1-1.242-.226,2.746,2.746,0,0,1-.968-.64,2.854,2.854,0,0,1-.62-.992,3.567,3.567,0,0,1-.221-1.281,3.327,3.327,0,0,1,.214-1.2,2.846,2.846,0,0,1,2.7-1.852,2.709,2.709,0,0,1,1.294.289,2.564,2.564,0,0,1,.885.766,3.3,3.3,0,0,1,.509,1.093,4.986,4.986,0,0,1,.163,1.281h-4.608a1.78,1.78,0,0,0,.169.716,1.843,1.843,0,0,0,.421.565,2.038,2.038,0,0,0,.6.376,1.872,1.872,0,0,0,.717.138,2.607,2.607,0,0,0,1.217-.251,2.479,2.479,0,0,0,.691-.49Zm-1.018-2.573a1.9,1.9,0,0,0-.477-1.155,1.533,1.533,0,0,0-1.206-.478,1.8,1.8,0,0,0-.721.138,1.751,1.751,0,0,0-.547.364,1.633,1.633,0,0,0-.35.52,1.692,1.692,0,0,0-.139.61Z" transform="translate(-118.536 -68.24)" fill="#0f2837"/>
        <path id="Path_79" data-name="Path 79" d="M175.4,8.723c-.612,8.358.137,16.682-.063,25.114-.036,1.55.156,3.208.042,4.765-.013.184-.065.324-.347.328a3.746,3.746,0,0,0-1.153,0c-.125-1.117-.077-1.981-.178-2.942a59.873,59.873,0,0,1-.114-6.1c-.03-3.915-.362-7.9-.076-11.812a49.787,49.787,0,0,0,.042-5.072,37.052,37.052,0,0,1-.059-4.278,7.741,7.741,0,0,1,1.906-.011" transform="translate(-97.175 -4.859)" fill="#eb5a3c"/>
        <path id="Path_80" data-name="Path 80" d="M8.907,3.392c.684.067.984.271,1.037,1.037.079,1.146-.087,1.774.035,2.9.407,3.74-.466,7.53-.075,11.271.207,1.978.008,3.756.079,5.743.1,2.952-.029,6.3-.1,9.768H.674a8.89,8.89,0,0,1-.165-3.36,9.264,9.264,0,0,0,.077-1.593c-.02-2.176.116-4.114.1-6.289a24.869,24.869,0,0,0-.233-3.825c-.185-1.117.1-3.071-.064-4.19C.176,13.443.065,5.052.138,3.444c0,0,7.686-.158,8.768-.052" transform="translate(-0.065 -1.88)" fill="#eb5a3c"/>
        <path id="Path_81" data-name="Path 81" d="M57.952,7.848c-.528-.2-.449.427-.442.757.006.3,0,.494-.007.9-.011.808.058,3.013.067,3.808.016,1.338.1,2.506.077,3.561-.044,1.985-.053,3.97.028,5.954.2,4.94-.036,9.891.112,14.8.013.427.281.546.67.645l.571.095c-.019-4.206.314-8.615.047-12.81-.111-1.749-.045-3.5-.05-5.249,0-1.683-.014-3.365.018-5.048.018-1.02.008-2.041-.025-3.06-.04-1.265.028-3.7-.313-4.034-.206-.205-.405-.192-.754-.322" transform="translate(-32.225 -4.377)" fill="#6e1946"/>
        <path id="Path_82" data-name="Path 82" d="M36.484,30.59c.56-.013.451-.428.446-.761,0-.306.069-.5.076-.908.015-.814-.043-3.038-.048-3.84-.009-1.349-.087-2.528-.058-3.591.055-2,.074-4,0-6-.178-4.982.087-9.973-.035-14.924-.011-.43-.294-.451-.777-.467l-.668.031c0,4.241.044,8.753.1,13.268.023,1.768,0,3.143,0,4.911,0,1.7.033,3.05.029,4.747,0,.9-.041,1.891-.051,3.139-.011,1.276-.072,3.686.227,4.069a.794.794,0,0,0,.753.329" transform="translate(-19.852 -0.054)" fill="#91b9b4"/>
        <path id="Path_83" data-name="Path 83" d="M64.242,36.429c-.511-.065-.581-.295-.564-.881.051-1.734-.061-5.438-.244-7.707a30.136,30.136,0,0,1,.137-6.18,32.586,32.586,0,0,0-.079-4.194c-.011-2.291.13-4.085.12-5.63-.007-.953-.036-1.905-.081-2.857-.042-.888-.03-2.852-.023-3.069a3.374,3.374,0,0,1,.813-.024,2.818,2.818,0,0,1,1.079.28,23.836,23.836,0,0,1,.149,3.891c0,.628-.042,3.223,0,3.847.069,1.037.032,2.084.039,3.127.009,1.328.089,2.654.086,3.982,0,1.685-.142,3.362-.182,5.046-.076,3.1.316,7.11.283,9.7-.007.516.053.794-.5.794,0,0-.522-.064-1.033-.129" transform="translate(-35.495 -3.292)" fill="#eb5a3c"/>
        <path id="Path_84" data-name="Path 84" d="M167.027,33.505c.1-1.288-.173-3.281-.175-4.316,0-.607-.071-3.119-.032-3.724.064-1,.017-2.017.016-3.027,0-1.285.072-2.569.058-3.855-.018-1.631-.176-3.253-.233-4.883-.119-3.391.381-7.9.174-10.294a13.429,13.429,0,0,0-3.049-.206,36.619,36.619,0,0,0-.175,6.088c.023,1.5-.11,3.233-.08,5.45.023,1.686.454,3.7.279,5.063a26.85,26.85,0,0,0-.094,5.984c.274,2.84.174,7.5.21,7.562Z" transform="translate(-91.643 -1.79)" fill="#b41932"/>
        <path id="Path_85" data-name="Path 85" d="M191.449,33.32c.136-3.507.117-5.631.175-8.661.04-2.137-.3-4.848-.259-7.1a71.687,71.687,0,0,0-.207-9.38c-.074-.864.05-2.491.018-3.357-.022-.58-.044-1.328-.065-1.909a14.44,14.44,0,0,0,5.027.147c3.5-.735,9.291.022,9.291.022a5.88,5.88,0,0,1,.382,2.294,37.969,37.969,0,0,0-.03,4.172c.083,2.386-.363,4.495-.363,7.866,0,2.214.333,3.67.409,5.145.078,1.517-.186,2.79-.088,5.2.061,1.484.027,5.374.051,5.731,0,0-10.426.06-12.65-.206a4.225,4.225,0,0,0-1.691.038" transform="translate(-107.102 -1.536)" fill="#6e1946"/>
        <path id="Path_86" data-name="Path 86" d="M145.974.149c.058,5.24.1,11.05.363,15.783.086,1.578.04,3.557.1,5.357.028.8-.111,2.4-.175,3.466-.051.862-.029,1.727-.008,2.59a22.708,22.708,0,0,1-.038,2.87,5.531,5.531,0,0,0-1.7,0,7.048,7.048,0,0,1-.054-2.093c.109-6.288-.328-10.881-.225-16.671.034-1.88-.027-4.447-.175-6.321a26.437,26.437,0,0,1,.127-5.062,14.093,14.093,0,0,1,1.78.081" transform="translate(-80.701 -0.037)" fill="#fac39b"/>
        <path id="Path_87" data-name="Path 87" d="M183.632.541c.162,2.7.036,4.483.087,6.808.046,2.041.272,3.782.148,6.125-.107,2.022.1,4.049.143,6.075q.063,2.957.1,5.914c.035,1.527.069,2.909.071,4.438,0,.256-.03.8-.028,1.059a4.475,4.475,0,0,0-1.062-.055,10.215,10.215,0,0,1-2.732-.113c-.326-.074-.052-5.4-.044-5.893q.051-3,.033-6c-.01-2.026-.2-4.176-.238-6.2-.039-2.047.073-3.969.019-6.015-.054-2.065-.115-3.823-.169-5.888-.011-.421.385-.64,1.051-.458.886.243,1.814-.047,2.619.209" transform="translate(-100.855 -0.15)" fill="#ff9619"/>
        <path id="Path_88" data-name="Path 88" d="M27.384,6.529a1.345,1.345,0,0,1,1.087,1.358c.017.989,0,1.867-.026,2.727-.026.963-.055,1.9-.043,2.951.052,4.275.236,8.359.045,12.787-.162,3.751.184,7.411.144,10.849-1.142-.065-2.494-.167-3.6-.22.312-6.345.113-12.353.04-18.957-.041-3.715.571-6.613.05-11.561a9.535,9.535,0,0,1,2.3.065" transform="translate(-14.007 -3.598)" fill="#6e1946"/>
        <path id="Path_89" data-name="Path 89" d="M102.159,19.247c-.079-2.26-.063-6.534.108-8.8.191-2.525-.434-6.349-1.83-6.265a36.862,36.862,0,0,0-3.769.131c-.979.05-2.23.055-3.206.139a29.594,29.594,0,0,1-3.54-.074c-2.1,0-3.909.17-6.006.173-2.032,0-4.3-.052-6.322-.205a59.483,59.483,0,0,0-6.082-.37c-.286.008-.449,1.291-.506,2.863-.054,1.516-.153,4.8-.027,6.369a4.536,4.536,0,0,1,3.226-1.681,12.245,12.245,0,0,1,2.964.018,7.358,7.358,0,0,0-1.257-1.175,2.564,2.564,0,0,0-1.164-.616c-.537-.079-1.093-.028-1.636-.056A2.969,2.969,0,0,1,75.9,8.711c.914.126,2.447,1.716,3,1.281.615-.482.373-2.377,1.187-2.583.662-.167,1.1,2.357,1.419,2.914a4.648,4.648,0,0,1,3.056-1.771c.627-.073,2.556.157,2.817,1.079a4.13,4.13,0,0,0-3.984,1.76,6.1,6.1,0,0,1,6.189.837A5.874,5.874,0,0,1,90.762,13.5a1.685,1.685,0,0,1,.422,1.349c-.8-.161-1.547-1.54-2.935-1.967a6.088,6.088,0,0,0-3.57.067c2.638.427,6.28,3.936,5.022,6.809-.407.929-.52.308-.665-.472a4.45,4.45,0,0,0-.873-2.059A11.026,11.026,0,0,0,86.89,15.78a4.5,4.5,0,0,0-2.322-.943c1.7.477,2.789,3.856,2.935,4.217a8.023,8.023,0,0,1,.371,2.808c.013.537.057,2.4-.624,2.578.01,0,.112-4.512-3.082-7.095a8.807,8.807,0,0,1,.8,4.882,6.157,6.157,0,0,1-.6,2.483c-.087.182-.425,1.011-.558,1.041-.426.1-.2-2.526-.264-2.989-.079-.573-1.113-4.447-2.2-3.5-.551.483-.271,2.662-.2,3.63.083,1.191.226,2.928.247,4.121a54.827,54.827,0,0,0,.432,6.7c2.839-1.529,15.333-7.93,17.117-2.65.006.167-.1.049-.1.049h0c-1.222-1.828-4.555-.886-6.222-.372a42.763,42.763,0,0,0-8.5,3.9c4.42.011,11.231,0,16.278,0a2.052,2.052,0,0,0,2.052-2.123c-.029-.854-.051-1.875-.051-2.986,0-1.243.065-2.6.1-3.84.068-2.484-.258-3.958-.345-6.442m-24.79,2.6c-.176.642-.392,1.734-.424,2.013s-.261,1.822-.261,1.822a.564.564,0,0,1-.206-.284,9.82,9.82,0,0,1-.5-3.685c.217-3.542,1.478-4.483,1.484-4.473-.568-.325-1.71,1.009-2.308,1.85-.8,1.124-.662,1.9-.764,3.644-.429-.087-.854-.8-.882-1.332a7.939,7.939,0,0,1,2.4-6.315,6.392,6.392,0,0,0-1.82.315,4.6,4.6,0,0,0-2.4,2.259c-1.121,2.182-.406,4.779-.562,7.161-.091,1.374.111,2.727.1,4.1-.01,1.037-.272,1.233.764,1.326a10.176,10.176,0,0,1,1.223.188,11.585,11.585,0,0,1,6.122,3.438c.274-3.179.311-6.109.311-9.3,0-1.262.208-3.964-.633-5.043s-1.443,1.6-1.641,2.315M71.375,31.13c-.055,1.233.018,2.23.04,3.668a20.871,20.871,0,0,1,3.149.1c1.164.072,2.4-.055,3.565.1-1.781-1.931-4.054-3.631-6.754-3.867m1.993-17.043A13.908,13.908,0,0,1,75.8,12.9a4.546,4.546,0,0,0-3.961.346c-1.1.7-.731,2.625-.874,3.861a7.916,7.916,0,0,1,2.4-3.023" transform="translate(-39.744 -2.222)" fill="#0f2837"/>
        <path id="Path_90" data-name="Path 90" d="M155.055,5.217a.338.338,0,0,1,.292.327c.083,3.437.158,6.535.38,10.086a30.374,30.374,0,0,1-.045,5.144c-.27,2.177.285,3.943.131,6.132-.2,2.888.223,5.26.059,8.15l-3.588.079c-.3.01-.564-.27-.522-.961s-.018-3.666-.018-5.9a61.942,61.942,0,0,0,.049-6.795c-.122-1.227.17-2.531.1-3.761-.129-2.23-.2-4.177-.247-6.41-.028-1.318,0-3.344-.039-4.639-.029-.9.167-1.565.666-1.79.571-.256,2.135.25,2.783.338" transform="translate(-84.962 -2.695)" fill="#91b9b4"/>
        <path id="Path_91" data-name="Path 91" d="M41.446,29.669c-.036.834-.053,1.12-.053,1.435,0,.209.186.246.355.339.113.062,1.079.265,1.394.332a4.779,4.779,0,0,0,.945.1c.93-.016,1.85.305,2.777.218a.2.2,0,0,0,.087-.03.809.809,0,0,0,.408-.69c.107-.789-.109-1.478.012-2.916s.014-5.333.022-6.268c.058-7.094-.345-7.211-.165-12.686a26.165,26.165,0,0,0-.2-4.595,13.141,13.141,0,0,1-.18-2.825.54.54,0,0,0-.5-.646c-1.537-.08-4.765.166-4.765.166a7.9,7.9,0,0,0-.166,2.356c.031.669-.1,1.771-.1,2.441,0,.756-.051,1.508-.017,2.263.092,2.024.147,4.051.085,6.076-.156,5.13.295,8.106.1,13.148Z" transform="translate(-23.143 -0.795)" fill="#ff9619"/>
      </g>
    </g>
  </g>
</svg>
