<svg width="32" height="32" viewBox="0 0 32 32" fill="none" xmlns="http://www.w3.org/2000/svg">
<path d="M0 4C0 1.79086 1.79086 0 4 0H28C30.2091 0 32 1.79086 32 4V28C32 30.2091 30.2091 32 28 32H4C1.79086 32 0 30.2091 0 28V4Z" fill="#1B8354"/>
<path d="M23.2943 15.9991C23.2943 15.6878 23.1562 15.399 23.0255 15.1821C22.8845 14.9481 22.6947 14.7065 22.4866 14.4709C22.0691 13.9984 21.5244 13.4909 20.9958 13.0318C20.464 12.5701 19.9341 12.1449 19.5382 11.8359C19.34 11.6812 19.1746 11.555 19.0584 11.4672C19.0003 11.4233 18.9545 11.389 18.923 11.3655L18.8867 11.3385L18.877 11.3314L18.8737 11.329C18.5958 11.1242 18.2042 11.1833 17.9994 11.4612C17.7947 11.7391 17.8541 12.1304 18.1319 12.3351L18.1425 12.3429L18.1759 12.3677C18.2054 12.3897 18.2491 12.4224 18.305 12.4646C18.4166 12.549 18.5768 12.6712 18.7691 12.8213C19.1545 13.1221 19.6663 13.5329 20.1762 13.9757C20.6892 14.4211 21.1861 14.8868 21.5499 15.2986C21.5729 15.3246 21.5951 15.3502 21.6166 15.3753L9.33594 15.3753C8.99076 15.3753 8.71094 15.6551 8.71094 16.0003C8.71094 16.3455 8.99076 16.6253 9.33594 16.6253L21.6145 16.6253C21.5937 16.6497 21.5721 16.6744 21.5499 16.6996C21.1861 17.1114 20.6892 17.577 20.1762 18.0225C19.6663 18.4653 19.1545 18.8761 18.7691 19.1769C18.5768 19.327 18.4166 19.4492 18.305 19.5336C18.2491 19.5757 18.2054 19.6084 18.1759 19.6304L18.1425 19.6553L18.1319 19.6631C17.8541 19.8678 17.7947 20.2591 17.9994 20.537C18.2042 20.8149 18.5958 20.874 18.8737 20.6692L18.877 20.6668L18.8867 20.6596L18.923 20.6327C18.9545 20.6092 19.0003 20.5748 19.0584 20.531C19.1746 20.4432 19.34 20.317 19.5382 20.1623C19.9341 19.8533 20.464 19.4281 20.9958 18.9663C21.5244 18.5073 22.0691 17.9998 22.4866 17.5272C22.6947 17.2917 22.8845 17.0501 23.0255 16.8161C23.1555 16.6005 23.2926 16.3139 23.2943 16.0047" fill="white"/>
</svg>
