<svg width="32" height="32" viewBox="0 0 32 32" fill="none" xmlns="http://www.w3.org/2000/svg">
<g clip-path="url(#clip0_6951_1069)">
<path d="M16 2.88294C20.2722 2.88294 20.7782 2.8992 22.4653 2.97618C24.0253 3.04737 24.8725 3.30803 25.4363 3.52708C26.1831 3.81733 26.7162 4.16411 27.276 4.72397C27.8359 5.28383 28.1827 5.81688 28.4729 6.56366C28.692 7.12752 28.9526 7.97471 29.0238 9.53463C29.1008 11.2218 29.1171 11.7278 29.1171 16C29.1171 20.2722 29.1008 20.7782 29.0238 22.4654C28.9526 24.0254 28.692 24.8725 28.4729 25.4364C28.1827 26.1832 27.8359 26.7162 27.276 27.2761C26.7162 27.836 26.1831 28.1827 25.4363 28.4729C24.8725 28.692 24.0253 28.9527 22.4653 29.0239C20.7784 29.1009 20.2724 29.1171 16 29.1171C11.7275 29.1171 11.2215 29.1009 9.53463 29.0239C7.97464 28.9527 7.12745 28.692 6.56366 28.4729C5.81682 28.1827 5.28376 27.836 4.7239 27.2761C4.16404 26.7162 3.81727 26.1832 3.52708 25.4364C3.30796 24.8725 3.04731 24.0254 2.97611 22.4654C2.89914 20.7782 2.88288 20.2722 2.88288 16C2.88288 11.7278 2.89914 11.2218 2.97611 9.53469C3.04731 7.97471 3.30796 7.12752 3.52708 6.56366C3.81727 5.81688 4.16404 5.28383 4.7239 4.72397C5.28376 4.16411 5.81682 3.81733 6.56366 3.52708C7.12745 3.30803 7.97464 3.04737 9.53456 2.97618C11.2218 2.8992 11.7278 2.88294 16 2.88294ZM16 0C11.6546 0 11.1098 0.0184185 9.40322 0.0962843C7.70014 0.174023 6.53711 0.444458 5.51933 0.840011C4.46719 1.2489 3.57491 1.79599 2.68542 2.68548C1.79593 3.57497 1.24884 4.46725 0.839948 5.51939C0.444394 6.53717 0.17396 7.70021 0.0962208 9.40328C0.018355 11.1098 0 11.6547 0 16C0 20.3454 0.018355 20.8903 0.0962208 22.5968C0.17396 24.2999 0.444394 25.4629 0.839948 26.4807C1.24884 27.5327 1.79593 28.4251 2.68542 29.3146C3.57491 30.2041 4.46719 30.7512 5.51933 31.1601C6.53711 31.5556 7.70014 31.826 9.40322 31.9038C11.1098 31.9816 11.6546 32 16 32C20.3453 32 20.8902 31.9816 22.5967 31.9038C24.2998 31.826 25.4628 31.5556 26.4806 31.1601C27.5327 30.7512 28.425 30.2041 29.3145 29.3146C30.204 28.4251 30.7511 27.5328 31.16 26.4807C31.5555 25.4629 31.826 24.2999 31.9037 22.5968C31.9816 20.8903 32 20.3454 32 16C32 11.6547 31.9816 11.1098 31.9037 9.40328C31.826 7.70021 31.5555 6.53717 31.16 5.51939C30.7511 4.46725 30.204 3.57497 29.3145 2.68548C28.425 1.79599 27.5327 1.2489 26.4806 0.840011C25.4628 0.444458 24.2998 0.174023 22.5967 0.0962843C20.8902 0.0184185 20.3453 0 16 0ZM16 7.78379C11.4623 7.78379 7.78373 11.4623 7.78373 16C7.78373 20.5377 11.4623 24.2163 16 24.2163C20.5377 24.2163 24.2162 20.5377 24.2162 16C24.2162 11.4623 20.5377 7.78379 16 7.78379ZM16 21.3334C13.0545 21.3334 10.6666 18.9455 10.6666 16C10.6666 13.0545 13.0545 10.6667 16 10.6667C18.9455 10.6667 21.3333 13.0545 21.3333 16C21.3333 18.9455 18.9455 21.3334 16 21.3334ZM26.4608 7.45918C26.4608 8.51958 25.6012 9.37921 24.5408 9.37921C23.4804 9.37921 22.6208 8.51958 22.6208 7.45918C22.6208 6.39878 23.4804 5.53921 24.5408 5.53921C25.6012 5.53921 26.4608 6.39878 26.4608 7.45918Z" fill="#F4F3E5"/>
</g>
<defs>
<clipPath id="clip0_6951_1069">
<rect width="32" height="32" fill="white"/>
</clipPath>
</defs>
</svg>
