<svg width="32" height="32" viewBox="0 0 32 32" fill="none" xmlns="http://www.w3.org/2000/svg">
<g clip-path="url(#clip0_6951_1074)">
<path d="M28.4443 0C30.408 0 32 1.59198 32 3.55566V28.4443C32 30.408 30.408 32 28.4443 32H3.55566C1.59198 32 0 30.408 0 28.4443V3.55566C0 1.59198 1.59198 0 3.55566 0H28.4443ZM4.90332 27.5557H9.6748V12.1484H4.90332V27.5557ZM21.9473 11.6777C18.678 11.678 17.3018 14.2236 17.3018 14.2236V12.1484H12.7256V27.5557H17.3018V19.4678C17.3018 17.3007 18.2997 16.0108 20.209 16.0107C21.9641 16.0107 22.8066 17.2503 22.8066 19.4678V27.5557H27.5557V17.8008C27.5557 13.6733 25.2153 11.6777 21.9473 11.6777ZM7.2666 4.44434C5.70792 4.44434 4.44452 5.7172 4.44434 7.28711C4.44434 8.85718 5.70781 10.1309 7.2666 10.1309C8.82524 10.1307 10.0879 8.85706 10.0879 7.28711C10.0877 5.71731 8.82513 4.44452 7.2666 4.44434Z" fill="#F4F3E5"/>
</g>
<defs>
<clipPath id="clip0_6951_1074">
<rect width="32" height="32" fill="white"/>
</clipPath>
</defs>
</svg>
