<svg width="288" height="106" viewBox="0 0 288 106" fill="none" xmlns="http://www.w3.org/2000/svg">
<g clip-path="url(#clip0_16_3728)">
<path d="M174.57 79.516C169.524 79.516 166.239 82.8173 166.239 87.6422C166.239 92.4671 169.479 95.1018 174.356 95.1018C179.233 95.1018 182.687 91.8852 182.687 86.9333C182.687 82.3729 179.865 79.5054 174.57 79.5054M174.446 93.0914C171.839 93.0914 170.156 90.9329 170.156 87.4412C170.156 83.7484 171.76 81.5158 174.537 81.5158C177.314 81.5158 178.781 83.759 178.781 87.293C178.781 90.8271 177.144 93.102 174.446 93.102M164.885 91.4937L163.033 94.0119C161.43 94.7209 159.455 95.1124 157.4 95.1124C150.458 95.1124 146.089 91.1445 146.089 84.5102C146.089 77.876 150.887 73.1569 158.032 73.1569C160.516 73.1569 162.299 73.4214 163.982 73.9293C163.982 73.9293 163.564 75.8762 163.44 76.4476C163.304 77.0189 162.796 77.8866 161.803 77.8231L161.408 77.7808V76.0772C161.34 76.0455 161.261 76.0243 161.182 75.9926C160.347 75.7281 159.184 75.5905 157.953 75.5905C153.415 75.5905 150.424 78.8918 150.424 84.0764C150.424 89.2611 153.37 92.4777 158.54 92.4777C160.561 92.4777 162.706 92.0016 164.602 91.1022L164.896 91.4937H164.885ZM212.456 93.1443L212.377 93.5781C212.162 94.3611 212.038 94.6362 211.157 94.6362H205.84V94.2024C205.84 93.7792 205.84 93.4511 206.755 93.0808L207.376 92.8163V85.0075C207.376 82.7644 206.247 81.9391 204.565 81.9391C203.131 81.9391 201.743 82.3729 200.569 83.0818C200.648 83.5156 200.693 83.9812 200.693 84.5314V93.2078L201.98 93.1337L201.901 93.5675C201.686 94.3505 201.562 94.6256 200.681 94.6256H195.364V94.1918C195.364 93.7686 195.364 93.4406 196.279 93.0702L196.9 92.8057V84.997C196.9 82.7538 195.771 81.9285 194.089 81.9285C192.7 81.9285 191.357 82.32 190.217 82.9443V93.1972L191.515 93.1231L191.436 93.557C191.221 94.34 191.097 94.6151 190.217 94.6151H184.9V94.1812C184.9 93.758 184.9 93.43 185.814 93.0597L186.435 92.7951V82.1613L184.911 82.193V81.7909C184.911 81.0503 185.114 80.8281 186.074 80.5741L190.217 79.5689V82.4364L191.684 80.3202C192.779 79.8123 193.953 79.4525 195.556 79.4525C198.085 79.4525 199.801 80.4366 200.433 82.5528L201.946 80.3202C202.95 79.8123 204.474 79.4525 206.066 79.4525C209.182 79.4525 211.157 81.0608 211.157 84.4785V93.1972L212.456 93.1231V93.1443ZM139.361 94.6045L139.338 94.6256L138.085 94.4563V94.414C138.085 92.8269 138.017 91.2821 138.006 90.8377C137.543 83.558 137.204 79.4631 136.493 72.6172V72.5855L136.516 72.5643C137.679 71.8448 138.954 71.3793 140.411 71.1465H140.467V71.1888C140.828 77.0083 140.964 81.1455 141.144 88.785C141.189 90.954 140.569 92.9538 139.372 94.5833L139.361 94.6045ZM53.4415 90.0335C53.498 90.4356 52.7868 91.663 52.3578 92.319C52.0417 92.8163 51.7031 93.2607 51.4208 93.5887C51.0709 93.9908 50.8112 94.1918 50.6193 94.2341C49.4114 94.4881 47.8649 94.6256 46.386 94.6256C44.4105 94.6256 42.943 94.3611 41.9044 93.8215C40.7303 93.2078 40.132 92.2132 40.132 90.8694C40.132 90.1287 40.2675 88.9437 40.9448 87.5681L40.9787 87.4941L42.2656 87.7269L42.2318 87.9279C42.1527 88.3511 42.085 88.7532 42.085 89.1024C42.085 89.7372 42.4688 90.224 43.2477 90.5414C43.9928 90.8482 45.0765 91.007 46.4763 91.007C48.0906 91.007 49.784 90.8271 50.958 90.5308C50.1001 88.2136 48.4632 85.0605 46.3409 81.6216L46.2957 81.5582L46.3522 81.5052C47.2779 80.5212 48.0794 79.77 49.2308 79.0505L49.3437 78.9764L49.4001 79.0928C51.4434 83.2934 53.1029 87.7903 53.4415 90.0441V90.0335ZM34.6231 103.44L34.6908 103.514L34.6231 103.577C33.5732 104.72 32.7266 105.492 32.038 105.947L31.9702 105.99L31.9025 105.947C31.0333 105.397 30.1302 104.551 29.3512 103.567L29.3061 103.503L29.3512 103.44C30.006 102.614 30.8414 101.842 31.767 101.186C30.9429 100.636 30.085 99.8209 29.3512 98.8898L29.3061 98.8263L29.3512 98.7628C30.0398 97.8951 30.9204 97.091 31.9025 96.4244L31.9702 96.3715L32.038 96.4244C33.1104 97.2603 33.9796 98.0433 34.6231 98.7522L34.6908 98.8263L34.6231 98.8898C33.6184 99.9796 32.8282 100.71 32.1621 101.186C33.1781 101.979 34.0022 102.731 34.6231 103.429V103.44ZM190.036 61.1052C189.11 61.4967 187.936 61.6131 186.966 61.6131C183.726 61.6131 182.337 60.1635 182.337 57.2114V48.7255H180.17V48.334C180.17 47.625 180.418 47.3076 181.265 47.1172L182.337 46.842L185.069 42.9906H186.119V46.842H189.788V48.7255H186.119V56.6189C186.119 58.5446 186.92 59.1689 188.478 59.1689C189.314 59.1689 190.454 59.0101 191.549 58.4599L191.763 58.7774L190.036 61.0946M216.192 56.9151C216.192 59.8249 213.506 61.5496 209.588 61.5496C207.489 61.5496 204.836 61.1581 203.199 60.3751L203.707 57.3066C203.831 56.4072 204.215 56.1321 205.095 56.1321L205.558 56.2168V58.735C206.698 59.2852 208.335 59.6768 209.6 59.6768C211.914 59.6768 212.919 58.9678 212.919 57.7087C212.919 56.8834 212.331 56.2908 209.769 55.4655L207.963 54.873C205.107 53.9313 203.549 53.1483 203.549 50.7464C203.549 47.7626 206.326 45.9956 210.232 45.9956C212.083 45.9956 213.889 46.313 215.368 46.8209L214.86 49.6143C214.736 50.4819 214.442 50.7147 213.551 50.7147L213.043 50.6406V48.4821C212.196 48.1329 211.191 47.8896 210.266 47.8896C208.335 47.8896 206.811 48.5562 206.811 49.9317C206.811 50.9157 207.489 51.3495 209.882 52.1325L211.564 52.6827C214.883 53.7832 216.192 54.7989 216.192 56.9257M254.552 59.6556L254.473 60.0894C254.258 60.8724 254.134 61.1475 253.253 61.1475H247.936V60.7137C247.936 60.2904 247.936 59.9624 248.851 59.5921L249.472 59.3276V51.5188C249.472 49.2757 248.252 48.4504 246.356 48.4504C244.922 48.4504 243.534 48.8419 242.36 49.4661V59.7191L243.635 59.645L243.556 60.0788C243.342 60.8618 243.218 61.1369 242.337 61.1369H237.02V60.7031C237.02 60.2799 237.02 59.9519 237.934 59.5815L238.555 59.317V48.6831L237.031 48.7149V48.3128C237.031 47.5721 237.235 47.3499 238.194 47.096L242.36 46.0802V48.9053L243.827 46.7891C245.001 46.313 246.311 45.9638 247.914 45.9638C251.278 45.9638 253.253 47.5721 253.253 51.0321V59.7191L254.552 59.645V59.6556ZM178.33 49.0111C176.602 49.0111 174.627 49.2863 173.453 49.7941V59.7297L174.751 59.6556L174.672 60.0894C174.458 60.8724 174.333 61.1475 173.453 61.1475H168.136V60.7137C168.136 60.2904 168.136 59.9624 169.05 59.5921L169.671 59.3276V48.6937L168.147 48.7255V48.3234C168.147 47.5827 168.35 47.3605 169.31 47.1066L173.453 46.1014V49.2863L174.796 47.0537C175.507 46.4611 177.11 46.0379 178.33 46.0379V49.0217M164.557 21.7652C164.557 25.5849 161.272 28.1349 155.707 28.1349C153.009 28.1349 149.34 27.5424 147.116 26.3996L147.703 24.1565C147.985 23.0984 148.29 22.6963 149.306 22.6646L149.803 22.7069V24.4739C151.699 25.3415 153.98 25.8071 155.707 25.8071C158.868 25.8071 160.471 24.4739 160.471 22.6646C160.471 21.2467 159.76 20.5378 156.926 19.4374L153.551 18.1359C149.848 16.7181 147.906 15.6177 147.906 12.5492C147.906 8.33795 151.609 6.13712 156.587 6.13712C158.868 6.13712 161.396 6.41222 163.711 7.16347C163.711 7.16347 163.293 9.00455 163.169 9.58651C163.033 10.1579 162.514 11.0255 161.521 10.962L161.125 10.9197V9.20559C159.816 8.69771 158.111 8.4226 156.633 8.4226C153.81 8.4226 151.823 9.44895 151.823 11.4488C151.823 12.8243 152.625 13.5332 155.526 14.6336L159.229 16.0515C163.361 17.5857 164.535 19.0036 164.535 21.7546M184.956 15.2262V14.8029C184.956 14.0517 185.272 13.8295 186.006 13.6284L190.239 12.6338V22.5905C190.239 24.8337 191.583 25.6167 193.445 25.6167C194.755 25.6167 196.188 25.3415 197.283 24.7173V15.2367L195.76 15.2685V14.8664C195.76 14.1152 195.963 13.9035 196.934 13.6496L201.077 12.6444V25.5849H202.612V26.2938C202.612 27.0028 202.115 27.1721 200.704 27.4366L197.261 28.0714L197.283 25.2675L195.805 27.2779C194.755 27.754 193.321 28.1455 191.763 28.1455C188.557 28.1455 186.458 26.4949 186.458 23.0666V15.2367H184.967L184.956 15.2262ZM227.368 10.6658L224.546 8.07343L227.368 5.43877L230.111 8.07343L227.368 10.6658ZM230.856 26.1669L230.777 26.6007C230.563 27.3837 230.439 27.6588 229.558 27.6588H224.241V27.225C224.241 26.8017 224.241 26.4737 225.156 26.0928L225.776 25.8283V15.1838L224.252 15.2156V14.8135C224.252 14.0622 224.456 13.8506 225.426 13.5967L229.581 12.5915V26.2409L230.879 26.1669H230.856ZM281.069 59.6556L280.99 60.0894C280.776 60.8724 280.651 61.1475 279.771 61.1475H274.454V60.7137C274.454 60.2904 274.454 59.9624 275.368 59.5815L275.989 59.317V41.4881L274.465 41.5198V41.1178C274.465 40.3665 274.668 40.1549 275.639 39.9009L279.793 38.8958V59.7297L281.092 59.6556H281.069ZM196.888 44.1545L194.066 41.5622L196.888 38.9275L199.632 41.5622L196.888 44.1545ZM200.377 59.6556L200.298 60.0894C200.083 60.8724 199.959 61.1475 199.078 61.1475H193.761V60.7137C193.761 60.2904 193.761 59.9624 194.676 59.5815L195.297 59.317V48.6726L193.773 48.7043V48.3022C193.773 47.551 193.976 47.3394 194.947 47.0854L199.101 46.0802V59.7297L200.399 59.6556H200.377ZM269.566 93.1443L269.487 93.5781C269.272 94.3611 269.148 94.6362 268.268 94.6362H262.95V94.2024C262.95 93.7792 262.951 93.4511 263.865 93.0808L264.486 92.8163V85.0075C264.486 82.7644 263.267 81.9391 261.37 81.9391C259.936 81.9391 258.548 82.3306 257.374 82.9548V93.2078L258.649 93.1337L258.57 93.5675C258.356 94.3505 258.232 94.6256 257.351 94.6256H252.034V94.1918C252.034 93.7686 252.034 93.4406 252.949 93.0702L253.569 92.8057V82.1719L252.046 82.2036V81.8015C252.046 81.0609 252.249 80.8387 253.208 80.5847L257.374 79.5689V82.3941L258.841 80.2779C260.015 79.8017 261.325 79.4525 262.928 79.4525C266.292 79.4525 268.268 81.0609 268.268 84.5208V93.2078L269.566 93.1337V93.1443ZM124.132 23.0984C123.635 24.3787 123.06 25.8389 121.761 26.7277C120.587 27.4472 114.446 27.6482 113.272 27.6482H110.337C109.761 27.6482 109.547 27.426 109.242 27.1191C109.118 26.9922 108.971 26.844 108.779 26.6853C108.644 27.7117 108.316 30.0183 108.068 30.3781C107.267 31.6795 106.217 32.7588 104.93 33.5735C103.801 34.293 102.503 34.8009 101.058 35.0972H101.046H101.035C100.437 35.0972 97.513 33.4995 96.1132 32.198L96.0568 32.1451L96.5422 31.0129L96.6438 31.0447C97.705 31.3304 98.8225 31.4679 100.064 31.4679C103.101 31.4679 105.607 29.4999 106.759 26.1986C105.833 24.5586 104.241 22.2942 102.503 20.1251L102.446 20.0511L102.503 19.9876C103.462 18.9612 104.444 18.2523 105.573 17.7656L105.675 17.7233C106.183 18.5274 107.65 22.0826 109.118 23.2783C109.739 23.7861 110.394 24.0083 111.263 24.0083H113.092C113.092 24.0083 119.221 23.9237 120.903 23.6274C121.321 22.2942 121.536 21.5112 121.874 20.3262C121.931 20.1146 121.998 19.8924 122.066 19.6384V19.5855L122.134 19.5643C122.947 19.2469 124.268 19.0036 125.238 18.8872L125.396 18.866L125.363 19.0141C125.013 20.4743 124.674 21.6594 124.324 22.6434L124.166 23.0561L124.132 23.0984ZM134.665 17.0249L134.631 17.173C133.998 19.7336 133.468 21.8075 132.949 23.2677C132.35 24.9395 131.56 26.0822 130.522 26.7594C129.562 27.3519 128.331 27.6588 126.954 27.6588C125.758 27.6588 124.471 27.3413 123.229 26.7488L123.127 26.6959C123.951 25.8389 124.426 24.7913 124.821 23.7967H124.888C125.633 23.9554 126.379 24.0295 127.09 24.0295C128.038 24.0295 128.885 23.9237 129.686 23.7015C130.059 22.5588 130.375 21.3419 130.725 20.0616C130.917 19.321 131.131 18.5592 131.357 17.755V17.7021L131.425 17.6809C132.057 17.427 133.107 17.2154 134.529 17.0461L134.687 17.0249H134.665ZM135.026 9.38547L135.105 9.32198L135.184 9.38547C136.414 10.4118 137.216 11.1313 137.724 11.7979L137.769 11.8614L137.724 11.9249C137.385 12.4116 136.742 13.1946 135.173 14.3479L135.105 14.4008L135.037 14.3479C133.998 13.5861 133.174 12.7925 132.531 11.9249L132.486 11.8614L132.542 11.7979C133.445 10.8245 134.281 10.0203 135.037 9.39605L135.026 9.38547ZM127.101 11.9249L127.056 11.8614L127.112 11.7979C128.015 10.8351 128.851 10.0203 129.607 9.39605L129.686 9.33256L129.765 9.39605C130.996 10.4224 131.797 11.1419 132.305 11.8085L132.35 11.872L132.305 11.9355C131.966 12.4222 131.323 13.2052 129.754 14.3585L129.686 14.4114L129.618 14.3585C128.58 13.5967 127.756 12.8031 127.112 11.9355L127.101 11.9249ZM130.251 7.72426L130.194 7.65019L130.318 7.52322C131.052 6.76139 131.752 6.04189 132.407 5.50226L132.474 5.43877L132.553 5.50226C133.649 6.35931 134.348 7.02591 134.766 7.60787L134.811 7.67135L134.766 7.73484C134.247 8.47551 133.524 9.15269 132.553 9.80871L132.486 9.85103L132.418 9.79813C131.481 9.11036 130.77 8.43318 130.251 7.73484V7.72426ZM143.03 23.9131C143.03 24.3046 142.431 25.4156 141.878 26.2833C141.438 26.9816 140.625 28.1455 140.173 28.1455C137.735 28.1455 134.653 27.4683 132.328 26.4102L132.226 26.3679C132.847 25.6378 133.355 24.7067 133.761 23.5534C133.773 23.5216 133.784 23.4899 133.795 23.4476L133.874 23.4687C135.929 24.0507 138.277 24.4316 140.354 24.5162C139.733 22.4106 138.819 19.6173 137.769 16.4006L137.679 16.1361L137.746 16.0938C138.751 15.4272 139.835 14.951 141.268 14.549L141.393 14.5172L141.415 14.6336C142.363 18.9507 142.928 22.2413 143.018 23.9237L143.03 23.9131ZM36.2035 86.182C36.497 87.4094 36.7228 88.6897 36.8696 90.0123C36.926 90.5096 35.673 92.8692 34.4538 94.0119C34.307 94.1495 34.1377 94.2024 34.0022 94.2341C32.5911 94.5198 31.9251 94.6468 29.0464 94.6468H15.624C13.8065 94.6468 12.3277 94.4987 11.2214 94.213C10.8263 94.1178 10.2619 93.3877 9.84417 92.7951C8.57982 90.8694 8.32018 88.9966 8.28632 88.5416C8.28632 88.5416 7.95894 84.9864 7.83476 83.7167C6.45753 84.4256 5.41896 85.0499 4.5723 85.653C3.57888 86.3619 2.83382 87.0708 2.31454 87.8221C3.21764 89.0812 4.9787 89.8007 7.14615 89.8007C7.25903 89.8007 7.62028 89.7901 7.62028 89.7901L7.64285 89.8748C7.84605 90.6789 8.13956 91.4619 8.52338 92.2132L8.56854 92.2978L8.48951 92.3507C7.89121 92.7422 7.30419 93.0808 6.70588 93.3771H6.68331L6.66073 93.3877C3.82724 93.3877 1.00504 92.1814 0.0793538 90.5837C-0.191578 90.0229 0.418018 86.9544 0.926014 86.309C2.19036 84.4997 4.66261 82.5104 7.54125 80.9656L7.41708 79.6748L7.47352 79.643C8.57983 78.9447 9.57324 78.4579 11.1311 78.2146L11.2553 78.1934V78.3204C11.2891 79.3891 11.4246 83.7378 11.4698 84.9652C11.5149 86.2561 11.5375 87.8009 11.402 89.4516C11.3794 89.7267 11.3343 90.2451 11.673 90.5943C11.9439 90.8906 12.4632 91.0069 13.434 91.0175C13.5695 91.0175 29.0577 91.0175 29.0577 91.0175C32.2976 91.0175 32.862 90.88 34.2393 90.5414C34.2957 90.5308 34.3409 90.5202 34.3973 90.4991C33.878 88.4569 32.9185 85.6741 31.688 82.6374L31.6654 82.5739L31.7219 82.521C32.5347 81.8333 33.4829 81.2936 34.4538 80.9656L34.5441 80.9339L34.5892 81.0079C35.5149 82.4681 36.2374 83.5368 36.9373 84.4573L36.9712 84.5102L36.9373 84.5631C36.689 85.0181 36.4406 85.6001 36.2035 86.1609V86.182ZM8.85076 71.8025C8.32018 71.4639 7.51868 70.8502 6.3898 69.5065L6.33335 69.443L6.3898 69.3795C7.20259 68.406 8.04925 67.6442 8.98622 67.0411L9.05396 66.9988L9.12169 67.0517C10.1603 67.8981 11.0295 68.6811 11.6955 69.3795L11.7633 69.4535L11.6955 69.5276C10.657 70.6069 9.9119 71.3475 9.22329 71.8237C10.2167 72.6278 11.0408 73.3897 11.6955 74.0668L11.7633 74.1409L11.6955 74.215C10.6005 75.3577 9.82159 76.1195 9.1104 76.5851L9.04267 76.6274L8.97493 76.5851C8.45565 76.2677 7.60899 75.6751 6.37851 74.2044L6.32206 74.1409L6.37851 74.0774C7.15744 73.1569 7.95894 72.4162 8.83947 71.8237L8.85076 71.8025ZM99.1612 22.8021C99.1612 23.1513 98.5855 24.2094 98.0549 25.0453C97.7162 25.5849 96.8583 26.8546 96.3955 26.9922C94.815 27.4472 90.9768 27.6694 84.6551 27.6694H74.0436C72.2261 27.6694 70.7473 27.5212 69.641 27.2355C69.2459 27.1403 68.6814 26.4102 68.2637 25.8177C66.9994 23.892 66.7398 22.0191 66.7059 21.5641C66.7059 21.5641 66.3785 18.0089 66.2543 16.7392C64.8771 17.4482 63.8385 18.0724 62.9919 18.6755C61.9985 19.3845 61.2534 20.0934 60.7341 20.8446C61.6372 22.1038 63.3983 22.8233 65.5657 22.8233C65.6786 22.8233 66.0398 22.8127 66.0398 22.8127L66.0624 22.8973C66.2656 23.7015 66.5591 24.4845 66.943 25.2357L66.9881 25.3204L66.9091 25.3733C66.3108 25.7648 65.7238 26.1034 65.1255 26.3996H65.1029L65.0803 26.4102C62.2468 26.4102 59.4246 25.204 58.4989 23.6063C58.228 23.0455 58.8376 19.977 59.3456 19.3316C60.6099 17.5222 63.0822 15.533 65.9608 13.9882L65.8366 12.6973L65.8931 12.6656C66.9994 11.9672 67.9928 11.4805 69.5507 11.2371L69.6748 11.216V11.3429C69.7087 12.4116 69.8442 16.7604 69.8893 17.9878C69.9345 19.2787 69.9571 20.8235 69.8216 22.4741C69.799 22.7492 69.7539 23.2677 70.0925 23.6169C70.3635 23.9131 70.8828 24.0295 71.8536 24.0401C71.9552 24.0401 84.6664 24.0401 84.6664 24.0401C90.1753 24.0401 94.0587 23.8073 96.5422 23.3206C95.2101 20.8446 92.5573 18.2946 89.7125 16.8027L88.8207 17.1201L85.4453 14.8981V14.8452C85.355 13.7448 85.8066 11.1525 86.3258 10.7504C89.2383 8.75061 93.6749 6.08421 98.4952 3.43897L98.5629 3.39665L98.9693 3.72466L98.1904 7.79832L89.0239 12.6021C92.7153 14.5066 95.0747 16.5699 96.4067 17.9772C98.1226 19.7865 99.1273 21.543 99.1725 22.8127L99.1612 22.8021ZM67.259 4.8145C66.7285 4.4759 65.927 3.86221 64.7981 2.51843L64.7416 2.45494L64.7981 2.39146C65.6109 1.41801 66.4575 0.65618 67.3945 0.053066L67.4622 0.0107422L67.53 0.063647C68.5685 0.910123 69.4378 1.69311 70.1038 2.39146L70.1716 2.46552L70.1038 2.53959C69.0652 3.61885 68.3202 4.35951 67.6316 4.83566C68.625 5.63981 69.4491 6.40164 70.1038 7.07882L70.1716 7.15289L70.1038 7.22695C69.0088 8.3697 68.2299 9.13152 67.5187 9.59709L67.451 9.63941L67.3832 9.59709C66.8639 9.27966 66.0173 8.68713 64.7868 7.21637L64.7303 7.15289L64.7868 7.0894C65.5657 6.16886 66.3672 5.42819 67.2477 4.83566L67.259 4.8145ZM87.5112 40.3665L87.4547 40.2924L87.6353 40.102C88.4594 39.2555 89.2383 38.4619 90.006 37.8271L90.085 37.7636L90.164 37.8271C91.4397 38.8958 92.2525 39.5835 92.704 40.2395L92.7492 40.2924L92.704 40.3453C92.117 41.1812 91.2816 41.9748 90.1527 42.7684L90.085 42.8213L90.0173 42.7684C88.9787 42.0065 88.1546 41.213 87.5112 40.3453V40.3665ZM96.0342 56.6506C95.9552 56.9998 95.4585 57.9626 94.8602 58.8832C94.3522 59.6768 93.6636 60.629 93.2685 60.7031C92.0154 60.9994 88.3691 61.1369 82.1377 61.1369C82.1377 61.1369 14.1001 61.1369 14.0662 61.1369C13.3211 61.1369 12.5083 60.9041 11.7407 60.4703C10.657 59.8672 9.58453 58.6927 8.56854 57.296L8.52338 57.2325L9.39262 56.2274L9.47164 56.2697C10.6005 56.7881 11.7858 57.1585 13.0163 57.3489C13.7614 57.4653 14.529 57.5182 15.2741 57.5076C15.2741 57.5076 79.1349 57.5288 81.6184 57.5288C82.4312 57.5288 89.7463 57.3807 93.562 57.2854C94.0812 53.2224 92.4782 50.2703 91.8686 49.4344C91.2026 48.5138 90.4463 48.0377 89.6673 48.0377C88.99 48.0377 88.2901 48.4398 87.6579 49.191C87.0709 49.8894 86.5968 50.8417 86.3033 51.8892C87.9176 52.8203 89.6673 53.2964 92.5121 53.5504H92.5686C92.7492 54.5132 92.8169 55.4867 92.7492 56.4813C92.7266 56.4813 92.704 56.4813 92.6814 56.4813C89.5093 56.312 87.3983 55.783 86.1452 55.1058C84.847 54.4074 84.2148 53.434 84.2148 52.1325C84.2148 50.5877 84.847 48.7043 85.863 47.2018C87.0483 45.4771 88.5384 44.5248 90.085 44.5248C91.6316 44.5248 92.9072 45.2655 93.9571 46.6833C94.9505 48.0271 96.4745 51.0427 96.0342 56.6612V56.6506ZM96.9825 55.6666C97.0163 54.7883 97.005 53.9524 96.9486 53.1377C98.5403 52.651 99.7482 51.1062 100.019 50.5136C100.347 52.8203 98.6645 54.5027 96.9825 55.6666ZM146.461 50.9792C145.445 50.9792 144.407 51.3813 143.154 51.9844L143.075 52.0267L142.251 51.0744L142.307 51.0109C144.068 48.8101 145.965 47.551 147.489 47.551C147.793 47.551 148.109 47.5933 148.448 47.6779L148.651 47.7309L147.285 51.0956L147.105 51.0638C146.868 51.0215 146.665 51.0004 146.473 51.0004L146.461 50.9792ZM182.281 25.6167V25.8494C182.281 26.6747 181.716 27.2144 180.61 27.426L177.46 28.0185C177.246 27.3943 177.043 26.4843 176.952 25.5003L175.27 27.5424C174.514 27.9339 173.543 28.1349 172.234 28.1349C168.949 28.1349 167.007 26.5584 167.007 24.0083C167.007 22.7915 167.515 21.5324 168.35 20.4637L175.869 19.4162L176.049 19.3845V21.5641H175.869H171.037C170.789 22.1884 170.653 22.781 170.653 23.3312C170.653 24.8654 171.624 25.8918 173.6 25.8918C174.909 25.8918 175.959 25.5743 176.93 25.0241V17.9455C176.93 15.7869 175.586 14.9934 173.554 14.9934C171.997 14.9934 170.145 15.3531 168.034 16.1784L167.786 15.861L169.558 13.2687C171.206 12.7608 173.103 12.5174 174.785 12.5174C178.454 12.5174 180.723 14.0093 180.723 17.7127V25.6167H182.258H182.281ZM181.637 21.1092V18.5486C183.252 18.0724 184.471 16.5065 184.742 15.9139C185.069 18.2523 183.342 19.9453 181.637 21.1197V21.1092ZM233.746 59.1054V59.3382C233.746 60.1635 233.182 60.7031 232.076 60.9147L228.926 61.5073C228.712 60.883 228.508 59.973 228.418 58.989L226.736 61.0311C225.98 61.4226 225.009 61.6236 223.699 61.6236C220.414 61.6236 218.473 60.0471 218.473 57.4971C218.473 56.2803 218.981 55.0211 219.816 53.9525L227.334 52.9049L227.515 52.8732V55.0529H227.334H222.503C222.254 55.6771 222.119 56.2697 222.119 56.8199C222.119 58.3541 223.09 59.3805 225.065 59.3805C226.375 59.3805 227.425 59.063 228.395 58.5128V51.4342C228.395 49.2757 227.052 48.4821 225.02 48.4821C223.462 48.4821 221.611 48.8418 219.5 49.6672L219.252 49.3497L221.024 46.7574C222.672 46.2495 224.569 46.0062 226.251 46.0062C229.919 46.0062 232.188 47.4981 232.188 51.2014V59.1054H233.724H233.746ZM233.103 54.5979V52.0373C234.717 51.5612 235.936 49.9952 236.207 49.4026C236.535 51.741 234.807 53.434 233.103 54.6085V54.5979ZM248.738 92.5941V92.8269C248.738 93.6522 248.173 94.1918 247.067 94.4034L243.918 94.996C243.703 94.3717 243.5 93.4617 243.41 92.4777L241.728 94.5198C240.971 94.9113 240 95.1124 238.691 95.1124C235.406 95.1124 233.464 93.5358 233.464 90.9858C233.464 89.769 233.972 88.5098 234.807 87.4412L242.326 86.3937L242.506 86.3619V88.5416H242.326H237.494C237.246 89.1659 237.11 89.7584 237.11 90.3086C237.11 91.8428 238.081 92.8692 240.057 92.8692C241.366 92.8692 242.416 92.5518 243.387 92.0016V84.9229C243.387 82.7644 242.044 81.9708 240.012 81.9708C238.454 81.9708 236.602 82.3306 234.491 83.1559L234.243 82.8385L236.015 80.2461C237.664 79.7382 239.56 79.4949 241.242 79.4949C244.911 79.4949 247.18 80.9868 247.18 84.6901V92.5941H248.715H248.738ZM248.094 88.0866V85.526C249.709 85.0499 250.928 83.4839 251.199 82.8913C251.526 85.2297 249.799 86.9227 248.094 88.0972V88.0866ZM271.62 59.1054V59.3382C271.62 60.1635 271.056 60.7031 269.95 60.9147L266.8 61.5073C266.585 60.883 266.382 59.973 266.292 58.989L264.61 61.0311C263.854 61.4226 262.883 61.6236 261.573 61.6236C258.288 61.6236 256.347 60.0471 256.347 57.4971C256.347 56.2803 256.855 55.0211 257.69 53.9525L265.208 52.9049L265.389 52.8732V55.0529H265.208H260.377C260.128 55.6771 259.993 56.2697 259.993 56.8199C259.993 58.3541 260.964 59.3805 262.939 59.3805C264.249 59.3805 265.299 59.063 266.269 58.5128V51.4342C266.269 49.2757 264.926 48.4821 262.894 48.4821C261.336 48.4821 259.485 48.8418 257.374 49.6672L257.125 49.3497L258.898 46.7574C260.546 46.2495 262.443 46.0062 264.125 46.0062C267.793 46.0062 270.062 47.4981 270.062 51.2014V59.1054H271.598H271.62ZM270.977 54.5979V52.0373C272.591 51.5612 273.81 49.9952 274.081 49.4026C274.409 51.741 272.681 53.434 270.977 54.6085V54.5979ZM220.471 20.4531C222.085 19.977 223.304 18.411 223.575 17.8185C223.903 20.1569 222.175 21.8604 220.471 23.0243V20.4637V20.4531ZM221.114 25.5743V26.2833C221.114 26.9922 220.55 27.2567 219.127 27.4577L215.775 27.9339V15.3425C215.379 15.1309 214.33 14.6336 212.952 14.6336C209.961 14.6336 208.188 16.6546 208.188 20.7283C208.188 23.6169 209.746 25.6484 212.444 25.6484C213.156 25.6484 213.934 25.4791 214.702 25.1723L214.883 25.0982V27.3943L214.702 27.4683C213.923 27.7752 212.693 28.1243 211.056 28.1243C206.755 28.1243 204.271 25.4156 204.271 21.1197C204.271 15.8504 207.308 12.5068 212.535 12.4645C213.63 12.4645 214.725 12.5809 215.775 12.8983V7.94646L214.273 7.9782V7.57612C214.273 6.82488 214.476 6.61326 215.447 6.35931L219.579 5.35412V25.5637H221.114V25.5743ZM230.981 86.4783C230.981 91.7053 227.989 95.0806 222.774 95.1229C221.995 95.1229 221.261 95.0595 220.538 94.9431L220.335 94.8902V92.6258L220.527 92.6893C221.08 92.8586 221.679 92.9644 222.299 92.9644C225.325 92.9644 227.052 90.9223 227.052 86.8804C227.052 83.9706 225.539 81.9708 222.807 81.9708C221.758 81.9708 220.493 82.2882 219.443 83.0712V100.71L221.69 100.551L221.566 101.059C221.351 101.842 221.227 102.117 220.347 102.117H214.126V101.683C214.126 101.26 214.126 100.932 215.041 100.562L215.662 100.297L215.639 82.2142L214.138 82.2459V81.8438C214.138 81.1032 214.341 80.881 215.3 80.627L219.443 79.6218V82.5633L220.787 80.3308C221.622 79.8229 222.853 79.5054 224.23 79.5054C228.52 79.5054 230.958 82.2142 230.958 86.4995L230.981 86.4783ZM134.427 73.9504C134.055 74.3419 133.603 74.8498 133.107 75.4847C133.129 76.1513 133.141 76.8179 133.163 77.4739C133.276 81.4523 133.378 85.2192 133.445 90.0229C133.445 90.3827 132.87 91.4514 132.339 92.2978C131.989 92.848 131.199 94.0543 130.736 94.1918C130.567 94.2447 129.426 94.6468 126.762 94.6468C125.272 94.6468 124.008 94.2447 123.003 93.4406L122.947 93.3982C123.805 92.2767 124.426 91.0916 124.753 90.4038L124.843 90.4779C125.284 90.8482 125.893 91.0175 126.762 91.0175C128.794 91.0175 129.517 90.8377 130.815 90.5202L130.917 90.4991C130.725 88.002 130.567 85.7694 130.42 83.6003C130.217 80.6165 130.014 77.7913 129.754 74.67C129.483 74.2996 129.235 73.9399 128.975 73.5484C128.873 73.4108 128.783 73.2627 128.681 73.1146L128.636 73.0511L128.681 72.9876C129.314 72.1517 130.239 71.1994 131.188 70.4587L131.221 70.4376H131.955L134.518 73.887L134.461 73.9504H134.427ZM124.177 89.5044C124.177 89.5044 123.093 92.192 121.276 93.9696C121.107 94.1389 120.926 94.2553 120.813 94.287C120.147 94.5304 119.041 94.6468 117.449 94.6468C116.061 94.6468 114.706 94.3505 113.306 93.7368L113.193 93.6945C114.029 92.8586 114.559 91.7899 114.954 90.7318H115.022C115.891 90.9329 116.783 91.0175 117.731 91.0175C118.871 91.0175 120.012 90.9223 121.028 90.7318C120.847 90.224 120.689 89.6314 120.565 88.986C120.294 87.4517 119.978 85.2298 119.887 83.5897V83.5262L119.944 83.4945C121.174 82.9019 122.495 82.6268 123.387 82.4999L123.511 82.4787V82.5951C123.59 88.6157 124.143 89.4939 124.143 89.4939L124.177 89.5044ZM106.465 85.8858C105.494 86.0022 104.173 86.2455 103.361 86.5629L103.304 86.5841V86.637C103.225 86.8804 103.157 87.1026 103.101 87.3036C102.762 88.531 102.548 89.2822 102.13 90.6155C100.967 90.8271 95.244 91.0281 93.5845 91.0281C91.0558 91.0281 89.3738 90.8694 88.0982 90.6789C89.1593 89.6949 90.0286 88.5522 90.6043 87.3777C91.1687 86.2455 91.4622 85.1028 91.4622 84.0658C91.4622 82.9125 90.8752 81.9285 89.7576 81.2196C88.6513 80.5212 87.1273 80.1509 85.3324 80.1509C83.1424 80.1509 81.2007 80.5424 78.8075 81.4524H78.7736L78.7511 81.4841C77.8705 82.5951 77.0351 84.2034 76.7191 84.8382L76.6852 84.9123L77.5996 85.6741C77.5996 85.6741 81.4604 83.7696 85.1518 83.7696C86.5516 83.7696 87.8498 83.96 89.2158 84.3621C88.5836 86.4148 87.2854 88.1289 85.2421 89.6103C83.8423 88.4252 82.6908 86.9544 81.72 85.1345L81.6974 85.0922C80.6363 85.3673 79.7106 85.7059 79.0446 85.9704L79.0897 86.0445C80.038 87.8327 81.0991 89.3563 82.2393 90.5731C80.2412 90.8165 72.9938 91.007 69.6523 91.007H68.5234C68.4218 88.4464 67.8122 86.108 66.7736 84.4256C66.243 83.558 65.6109 82.8702 64.8997 82.4046C64.1546 81.9073 63.3418 81.664 62.4726 81.664C60.9147 81.664 59.3907 82.6586 58.1941 84.4679C57.1556 86.0233 56.5121 87.9491 56.5121 89.515C56.5121 90.2663 56.7266 90.954 57.1556 91.5572C57.5732 92.1497 58.1941 92.6787 59.0069 93.1126C60.5648 93.9485 62.8451 94.4669 65.6109 94.5939C64.9448 95.7366 64.0079 96.6995 62.8903 97.3767C61.7275 98.0962 60.418 98.4771 59.0972 98.4771C57.8555 98.4771 56.7379 98.3395 55.6767 98.0539L55.5864 98.0327L55.0558 99.1649L55.1123 99.2178C56.5798 100.551 59.4472 102.117 60.0229 102.117H60.0455C62.0662 101.673 63.8837 100.741 65.2835 99.4188C66.6382 98.1385 67.6316 96.4985 68.1396 94.6574H69.6297C73.8517 94.6574 82.5328 94.0225 84.9938 92.8375C85.9646 93.3877 87.1273 93.758 88.4143 94.0754C91.6542 94.8584 96.3164 94.6256 99.9401 94.6256C102.864 94.6256 104.343 92.9856 105.517 89.5891C105.968 88.2771 106.386 86.563 106.533 86.0233L106.567 85.8752L106.397 85.8963L106.465 85.8858ZM58.6118 89.2822C58.9956 88.076 59.4923 87.0708 60.0568 86.3831C60.6777 85.6212 61.3437 85.2403 62.0549 85.2403C63.7595 85.2403 65.2383 87.3777 66.1189 91.1128C62.8112 90.9964 60.4858 90.425 58.6118 89.2928V89.2822ZM165.957 60.7243L165.912 61.1581H157.321L157.411 60.7243C157.626 59.6873 157.84 59.2853 158.777 59.3276L159.997 59.4016L158.552 55.73L158.45 55.7512C156.678 56.1639 155.413 57.0844 154.059 58.0579C153.02 58.8091 151.948 59.5815 150.582 60.1635C149.035 60.8301 147.342 61.1475 145.389 61.1475H111.048C110.326 61.1475 109.457 60.8089 108.576 60.1846C108.441 61.2427 108.113 63.5282 107.865 63.888C107.063 65.1894 106.014 66.2687 104.727 67.0834C103.598 67.8029 102.299 68.3108 100.855 68.6071H100.843H100.832C100.234 68.6071 97.3098 67.0093 95.91 65.7079L95.8536 65.655L96.339 64.5228L96.4406 64.5546C97.5018 64.8402 98.6193 64.9778 99.8611 64.9778C102.898 64.9778 105.404 63.0097 106.555 59.7085C105.63 58.0684 104.038 55.8041 102.299 53.635L102.243 53.561L102.299 53.4975C103.27 52.4711 104.241 51.7622 105.37 51.2755L105.472 51.2331C106.228 52.4605 107.323 55.5396 108.915 56.7881C109.547 57.2749 110.19 57.5182 111.06 57.5182H145.174C151.045 57.5182 151.507 55.6877 161.566 52.2912H161.6H161.633C162.22 52.397 162.785 52.4605 163.349 52.4605H165.043L165.28 52.7356V52.7885C164.919 54.0054 164.648 54.5238 164.038 55.6031L164.004 55.656H162.909L164.32 59.1583L164.806 59.2853C165.743 59.5604 165.912 59.846 165.957 60.7243ZM115.925 84.0129L115.891 84.1611C115.248 86.7957 114.807 88.4464 114.401 89.6843C113.927 91.1445 113.261 92.7634 111.906 93.6522C110.935 94.2976 109.649 94.6362 108.204 94.6362C107.007 94.6362 105.72 94.3188 104.478 93.7263L104.343 93.6628C104.986 92.9644 105.551 92.0227 106.047 90.7848H106.115C106.871 90.9329 107.628 90.9964 108.328 90.9964C109.265 90.9964 110.123 90.8906 110.924 90.6684C111.297 89.5362 111.613 88.33 111.951 87.0497C112.155 86.2984 112.358 85.526 112.584 84.7219V84.669L112.651 84.6478C113.284 84.4044 114.322 84.1822 115.756 84.0129L115.914 83.9918L115.925 84.0129ZM145.953 56.6929L152.636 40.303L156.384 39.52L161.238 51.54C157.953 52.651 155.639 53.6139 153.901 54.3651C152.964 53.9313 151.677 53.2118 150.932 52.7568L152.173 49.6037C153.596 50.4925 155.379 51.6246 157.152 52.1325L153.697 43.3292L148.55 56.4072C147.782 56.5765 146.958 56.6718 145.965 56.7035L145.953 56.6929ZM12.3842 89.642L12.2826 89.7055C12.2826 89.6208 12.2826 89.5468 12.2826 89.4939C12.3503 88.6474 12.3842 87.8327 12.3842 87.0602C13.9872 86.5735 15.2064 85.0181 15.4773 84.4256C15.8047 86.764 14.0775 88.4675 12.3729 89.6314L12.3842 89.642ZM70.7812 22.6646L70.6796 22.7281C70.6796 22.6434 70.6796 22.5693 70.6796 22.5164C70.7473 21.67 70.7812 20.8552 70.7812 20.0828C72.3842 19.5961 73.6034 18.0407 73.8743 17.4482C74.2017 19.7865 72.4745 21.4901 70.7699 22.654L70.7812 22.6646ZM287.989 80.3413C287.989 80.9233 287.707 81.2831 286.984 81.4841L286.454 81.5687L277.728 102.381L274.318 101.641L278.608 94.6468H277.005L271.677 81.5582L271.338 81.4947C270.537 81.2619 270.322 80.8916 270.322 80.3519V79.9181H277.502L277.378 80.3943C277.163 81.1772 276.621 81.3677 276.271 81.3677H275.662L279.737 92.2555L283.823 81.4418H282.401L282.525 80.9762C282.649 80.5001 282.864 79.9181 283.744 79.9181H288V80.3519L287.989 80.3413Z" fill="#F4F3E5"/>
</g>
<defs>
<clipPath id="clip0_16_3728">
<rect width="288" height="106" fill="white"/>
</clipPath>
</defs>
</svg>
