<svg width="176" height="48" viewBox="0 0 176 48" fill="none" xmlns="http://www.w3.org/2000/svg">
<g clip-path="url(#clip0_3539_3125)">
<path d="M163.024 25.8884C162.799 25.7541 162.381 25.5443 161.813 25.3597C160.987 25.0912 159.843 24.8982 158.474 25.1164C158.015 25.1919 157.53 25.3094 157.029 25.494C156.979 25.5108 156.929 25.5276 156.887 25.5443C156.629 25.645 156.378 25.7541 156.119 25.8884C155.902 25.9975 155.685 26.1234 155.468 26.2492C154.976 26.5429 154.491 26.887 154.015 27.2562C153.481 23.9751 153.74 20.9374 153.865 19.4436C153.865 19.4436 153.873 19.4353 153.882 19.4436C155.034 20.1737 154.708 22.2129 154.466 22.8003C154.466 22.8087 154.483 22.8255 154.483 22.8087C155.919 21.0968 155.218 19.2171 154.925 18.7388C154.917 18.7304 154.925 18.7136 154.942 18.722C155.151 18.8898 155.318 19.066 155.46 19.2506C155.902 19.8213 156.069 20.4422 156.111 20.9877C156.136 21.273 156.128 21.5415 156.111 21.7681C156.111 21.8269 156.111 21.8856 156.094 21.9443C156.094 21.9527 156.103 21.9527 156.111 21.9527C156.495 21.1891 156.687 20.0311 156.111 18.8982C155.952 18.5961 155.735 18.294 155.46 18.0003C155.376 17.9164 155.293 17.8325 155.201 17.7485C155.193 17.7401 155.201 17.7234 155.209 17.7318C155.293 17.7485 155.376 17.7737 155.46 17.8073C155.71 17.8912 155.919 18.0087 156.111 18.1513C156.545 18.4786 156.846 18.9234 157.021 19.3849C157.163 19.7709 157.23 20.1653 157.23 20.5178C157.23 20.5262 157.255 20.5346 157.255 20.5178C157.53 19.5192 157.363 18.7639 157.021 18.2101C156.779 17.8157 156.445 17.5304 156.111 17.329C155.886 17.1947 155.66 17.094 155.46 17.0353C155.343 17.0017 155.234 16.9765 155.151 16.9681C155.134 16.9681 155.143 16.9429 155.151 16.9429C155.259 16.9346 155.36 16.9262 155.46 16.9262C155.702 16.9262 155.919 16.9429 156.111 16.9765C156.495 17.052 156.796 17.1863 157.021 17.3374C157.388 17.5891 157.564 17.8744 157.631 17.9919C157.631 18.0087 157.656 17.9919 157.656 17.9835C157.605 17.4548 157.363 17.0436 157.021 16.7499C156.762 16.5234 156.445 16.3555 156.111 16.2632C155.894 16.2045 155.677 16.1709 155.46 16.1709C155.168 16.1709 154.884 16.2129 154.642 16.322C154.633 16.322 154.625 16.322 154.625 16.3052C154.834 15.9947 155.134 15.8101 155.451 15.7094C155.668 15.6422 155.894 15.6171 156.103 15.6339C156.303 15.6422 156.487 15.6926 156.637 15.7597C156.645 15.7597 156.654 15.7513 156.645 15.7429C156.478 15.5499 156.295 15.4073 156.103 15.2982C155.894 15.1807 155.677 15.1052 155.451 15.08C154.867 15.0129 154.274 15.2646 153.882 15.8604H153.865C153.79 15.7262 153.715 15.5751 153.648 15.4157C153.489 15.0464 153.364 14.6353 153.289 14.2241C153.289 14.2157 153.272 14.2157 153.272 14.2241C153.205 14.6353 153.072 15.0548 152.913 15.4241C152.846 15.5835 152.771 15.7346 152.696 15.8604H152.679C151.987 14.8115 150.692 14.8283 149.908 15.7346C149.899 15.7429 149.908 15.7597 149.924 15.7513C150.45 15.4996 151.444 15.5751 151.936 16.2968C151.936 16.3052 151.936 16.3136 151.92 16.3136C151.152 15.9863 149.966 16.1961 149.331 16.9597C149.106 17.2283 148.947 17.5723 148.914 17.9835C148.914 18.0003 148.931 18.0087 148.931 17.9919C148.981 17.8996 149.106 17.6982 149.331 17.4968C149.699 17.1695 150.35 16.8339 151.41 16.9346C151.427 16.9346 151.427 16.9513 151.41 16.9597C150.868 17.0269 149.741 17.522 149.323 18.6381C149.139 19.1332 149.098 19.7541 149.298 20.5178C149.298 20.5262 149.323 20.5262 149.323 20.5178C149.323 20.501 149.323 20.4842 149.323 20.4674C149.331 19.452 149.916 18.0842 151.344 17.7401C151.352 17.7401 151.36 17.7485 151.352 17.7569C149.749 19.1751 149.908 20.9206 150.434 21.9527C150.434 21.9695 150.459 21.9527 150.459 21.9527C150.392 21.1723 150.333 19.7793 151.619 18.7304C151.628 18.722 151.644 18.7304 151.636 18.7471C151.344 19.2255 150.642 21.1136 152.078 22.8171C152.087 22.8255 152.103 22.8171 152.103 22.8087C151.861 22.2297 151.536 20.1821 152.688 19.452H152.705C152.83 20.9457 153.097 23.9919 152.554 27.273C151.628 26.5597 150.651 25.9304 149.682 25.5611C149.565 25.5192 149.448 25.4772 149.331 25.4353C148.33 25.108 147.42 25.0073 146.618 25.0492C145.332 25.108 144.355 25.494 143.821 25.7625C143.713 25.8129 143.621 25.8716 143.546 25.9052C143.52 25.922 143.546 25.9639 143.571 25.9555C143.654 25.9304 143.738 25.9052 143.821 25.88C144.806 25.6031 145.741 25.5276 146.618 25.6031C147.578 25.687 148.488 25.9555 149.331 26.3415C150.517 26.8786 151.594 27.6422 152.563 28.4562C151.193 29.6562 150.041 30.8227 149.331 31.2339C149.298 31.2506 149.265 31.2758 149.231 31.2926C149.064 31.0576 148.772 30.9234 148.446 30.9989C148.171 31.0576 147.946 31.2842 147.879 31.5611C147.82 31.8129 147.879 32.073 148.029 32.2157C148.405 32.5933 148.831 32.6185 149.331 32.4087C150.283 32.0059 151.461 30.7471 152.905 29.4129C153.022 29.3038 153.147 29.1863 153.272 29.0772C153.398 29.1863 153.514 29.2954 153.64 29.4129C154.291 30.0171 154.9 30.6045 155.443 31.108C155.668 31.3178 155.886 31.5024 156.094 31.6786C156.42 31.9471 156.72 32.1653 157.004 32.3164C157.555 32.6101 158.04 32.6436 158.449 32.2828C158.474 32.266 158.491 32.2408 158.516 32.2241C158.607 32.1318 158.716 31.8213 158.666 31.5695C158.632 31.4269 158.557 31.2926 158.449 31.1919C158.349 31.0996 158.232 31.0325 158.098 30.9989C157.781 30.9318 157.489 31.066 157.322 31.2926C157.23 31.2422 157.121 31.1751 157.013 31.0996C156.754 30.9234 156.445 30.6632 156.103 30.3611C155.894 30.1765 155.677 29.9835 155.451 29.7737C155.001 29.3709 154.516 28.9094 153.99 28.4562C154.45 28.0702 154.942 27.6926 155.451 27.3485C155.668 27.2059 155.886 27.0632 156.103 26.929C156.395 26.7527 156.704 26.5849 157.013 26.4422C157.472 26.2157 157.956 26.0311 158.457 25.8884C159.492 25.5947 160.603 25.4856 161.797 25.6786C162.181 25.7374 162.582 25.8297 162.982 25.9555C163.016 25.9639 163.032 25.922 163.007 25.9052" fill="#F4F3E5"/>
<path d="M153.296 43.5935L151.105 45.7949L153.296 47.9963L155.486 45.7949L153.296 43.5935Z" fill="#F4F3E5"/>
<path d="M135.668 30.977L134.875 33.4268L137.312 34.2241L138.106 31.7744L135.668 30.977Z" fill="#F4F3E5"/>
<path d="M142.783 9.44428L142.449 11.5576L144.552 11.8935L144.886 9.78013L142.783 9.44428Z" fill="#F4F3E5"/>
<path d="M169.701 22.495L168.195 24.0078L169.701 25.5212L171.206 24.0083L169.701 22.495Z" fill="#F4F3E5"/>
<path d="M168.434 17.4718L167.469 19.3789L169.366 20.3494L170.332 18.4422L168.434 17.4718Z" fill="#F4F3E5"/>
<path d="M144.548 36.1184L142.445 36.4531L142.778 38.5666L144.881 38.2319L144.548 36.1184Z" fill="#F4F3E5"/>
<path d="M163.829 9.45822L161.727 9.79297L162.06 11.9065L164.162 11.5717L163.829 9.45822Z" fill="#F4F3E5"/>
<path d="M148.69 38.2336L146.793 39.2041L147.759 41.1112L149.656 40.1408L148.69 38.2336Z" fill="#F4F3E5"/>
<path d="M153.298 6.00642L151.793 7.51953L153.298 9.03264L154.804 7.51953L153.298 6.00642Z" fill="#F4F3E5"/>
<path d="M150.868 8.60598L149.832 10.0381L151.257 11.0793L152.293 9.64723L150.868 8.60598Z" fill="#F4F3E5"/>
<path d="M155.321 36.9118L154.285 38.3438L155.71 39.3852L156.746 37.9533L155.321 36.9118Z" fill="#F4F3E5"/>
<path d="M141.16 16.3796L139.484 16.9268L140.029 18.6107L141.704 18.0636L141.16 16.3796Z" fill="#F4F3E5"/>
<path d="M166.57 29.3929L164.895 29.9395L165.438 31.6236L167.114 31.077L166.57 29.3929Z" fill="#F4F3E5"/>
<path d="M139.016 25.005L137.98 26.4375L139.406 27.4783L140.441 26.0458L139.016 25.005Z" fill="#F4F3E5"/>
<path d="M174.596 28.6535L171.836 30.0664L173.242 32.8406L176.002 31.4277L174.596 28.6535Z" fill="#F4F3E5"/>
<path d="M141.829 39.8592L138.77 40.3457L139.254 43.4207L142.313 42.9343L141.829 39.8592Z" fill="#F4F3E5"/>
<path d="M167.333 4.5847L164.273 5.07227L164.759 8.14714L167.818 7.65958L167.333 4.5847Z" fill="#F4F3E5"/>
<path d="M134.39 25.1539L132.879 27.2451L134.953 28.759L136.464 26.6678L134.39 25.1539Z" fill="#F4F3E5"/>
<path d="M147.766 6.88876L146.801 8.7959L148.698 9.76638L149.664 7.85924L147.766 6.88876Z" fill="#F4F3E5"/>
<path d="M138.167 17.4693L136.27 18.4404L137.236 20.3472L139.133 19.3761L138.167 17.4693Z" fill="#F4F3E5"/>
<path d="M153.298 38.9668L151.793 40.4805L153.299 41.993L154.804 40.4794L153.298 38.9668Z" fill="#F4F3E5"/>
<path d="M165.434 16.3725L164.891 18.0566L166.566 18.6032L167.11 16.919L165.434 16.3725Z" fill="#F4F3E5"/>
<path d="M144.098 33.2471H142.336V35.0177H144.098V33.2471Z" fill="#F4F3E5"/>
<path d="M133.35 15.174L130.59 16.5869L131.996 19.3611L134.756 17.9482L133.35 15.174Z" fill="#F4F3E5"/>
<path d="M132.004 28.6452L130.598 31.4189L133.357 32.8328L134.764 30.0591L132.004 28.6452Z" fill="#F4F3E5"/>
<path d="M143.912 5.491L143.121 7.94141L145.567 8.73924L146.358 6.28883L143.912 5.491Z" fill="#F4F3E5"/>
<path d="M161.038 39.2686L160.246 41.7188L162.684 42.5148L163.476 40.0647L161.038 39.2686Z" fill="#F4F3E5"/>
<path d="M170.926 30.9694L168.48 31.7686L169.273 34.2185L171.719 33.4194L170.926 30.9694Z" fill="#F4F3E5"/>
<path d="M172.203 25.1622L170.129 26.6758L171.64 28.7673L173.714 27.2538L172.203 25.1622Z" fill="#F4F3E5"/>
<path d="M169.263 13.7636L168.469 16.2217L170.906 17.0178L171.701 14.5597L169.263 13.7636Z" fill="#F4F3E5"/>
<path d="M167.911 9.30664H165.348V11.8829H167.911V9.30664Z" fill="#F4F3E5"/>
<path d="M145.563 39.2707L143.125 40.0664L143.919 42.5247L146.357 41.729L145.563 39.2707Z" fill="#F4F3E5"/>
<path d="M155.952 40.9136L154.445 42.998L156.526 44.5169L158.032 42.4324L155.952 40.9136Z" fill="#F4F3E5"/>
<path d="M137.236 27.6586L136.27 29.5654L138.167 30.5366L139.133 28.6298L137.236 27.6586Z" fill="#F4F3E5"/>
<path d="M144.098 12.9814H142.336V14.7521H144.098V12.9814Z" fill="#F4F3E5"/>
<path d="M139.41 20.5305L137.984 21.5713L139.02 23.0038L140.445 21.963L139.41 20.5305Z" fill="#F4F3E5"/>
<path d="M160.324 10.1112L158.648 10.6572L159.192 12.3416L160.867 11.7956L160.324 10.1112Z" fill="#F4F3E5"/>
<path d="M155.718 8.59742L154.293 9.63867L155.329 11.0708L156.754 10.0295L155.718 8.59742Z" fill="#F4F3E5"/>
<path d="M163.939 30.4834L162.496 30.7129L162.724 32.1634L164.168 31.9339L163.939 30.4834Z" fill="#F4F3E5"/>
<path d="M165.701 22.9702L164.668 24.0088L165.701 25.047L166.734 24.0084L165.701 22.9702Z" fill="#F4F3E5"/>
<path d="M173.253 15.176L171.848 17.9502L174.608 19.3631L176.014 16.5889L173.253 15.176Z" fill="#F4F3E5"/>
<path d="M167.919 36.1094H165.348V38.694H167.919V36.1094Z" fill="#F4F3E5"/>
<path d="M137.316 13.7612L134.879 14.5586L135.675 17.0163L138.112 16.2189L137.316 13.7612Z" fill="#F4F3E5"/>
<path d="M162.676 5.48668L160.238 6.2832L161.031 8.7332L163.468 7.93668L162.676 5.48668Z" fill="#F4F3E5"/>
<path d="M150.06 3.47749L148.555 5.5625L150.636 7.0806L152.141 4.9956L150.06 3.47749Z" fill="#F4F3E5"/>
<path d="M169.35 27.6467L167.453 28.6182L168.42 30.5248L170.317 29.5533L169.35 27.6467Z" fill="#F4F3E5"/>
<path d="M136.894 22.4977L135.395 24.0049L136.894 25.5121L138.394 24.0049L136.894 22.4977Z" fill="#F4F3E5"/>
<path d="M167.577 25.0066L166.152 26.0479L167.188 27.48L168.613 26.4387L167.577 25.0066Z" fill="#F4F3E5"/>
<path d="M147.395 35.6535L145.719 36.1992L146.262 37.8837L147.938 37.338L147.395 35.6535Z" fill="#F4F3E5"/>
<path d="M153.295 35.4303L152.262 36.4688L153.295 37.5072L154.328 36.4688L153.295 35.4303Z" fill="#F4F3E5"/>
<path d="M145.408 13.0856L145.18 14.5361L146.623 14.7656L146.851 13.3151L145.408 13.0856Z" fill="#F4F3E5"/>
<path d="M141.191 26.8667L140.527 28.1748L141.829 28.8422L142.493 27.5341L141.191 26.8667Z" fill="#F4F3E5"/>
<path d="M141.251 9.30664H138.68V11.8829H141.251V9.30664Z" fill="#F4F3E5"/>
<path d="M156.53 3.47311L154.449 4.99121L155.955 7.07621L158.036 5.55812L156.53 3.47311Z" fill="#F4F3E5"/>
<path d="M157.892 38.2348L156.926 40.1416L158.823 41.1127L159.789 39.2059L157.892 38.2348Z" fill="#F4F3E5"/>
<path d="M139.138 32.4597L138.805 34.5732L140.908 34.908L141.241 32.7945L139.138 32.4597Z" fill="#F4F3E5"/>
<path d="M165.665 13.0916L165.332 15.2051L167.435 15.5398L167.768 13.4263L165.665 13.0916Z" fill="#F4F3E5"/>
<path d="M164.262 33.2471H162.5V35.0177H164.262V33.2471Z" fill="#F4F3E5"/>
<path d="M167.184 20.5195L166.148 21.9521L167.574 22.9926L168.609 21.56L167.184 20.5195Z" fill="#F4F3E5"/>
<path d="M151.26 36.9202L149.836 37.9619L150.872 39.3937L152.297 38.3519L151.26 36.9202Z" fill="#F4F3E5"/>
<path d="M149.148 11.1622L148.484 12.4707L149.786 13.1374L150.45 11.8289L149.148 11.1622Z" fill="#F4F3E5"/>
<path d="M156.795 34.86L156.133 36.1689L157.435 36.8347L158.098 35.5258L156.795 34.86Z" fill="#F4F3E5"/>
<path d="M159.961 33.2417L159.734 34.6924L161.178 34.9206L161.405 33.4699L159.961 33.2417Z" fill="#F4F3E5"/>
<path d="M141.825 19.1546L140.523 19.8213L141.187 21.1298L142.489 20.4631L141.825 19.1546Z" fill="#F4F3E5"/>
<path d="M165.411 26.8538L164.109 27.5205L164.773 28.829L166.075 28.1623L165.411 26.8538Z" fill="#F4F3E5"/>
<path d="M142.657 30.482L142.43 31.9326L143.873 32.1616L144.101 30.711L142.657 30.482Z" fill="#F4F3E5"/>
<path d="M161.189 13.0703L159.746 13.2998L159.973 14.742L161.416 14.5125L161.189 13.0703Z" fill="#F4F3E5"/>
<path d="M149.782 34.8639L148.48 35.5312L149.144 36.8394L150.446 36.172L149.782 34.8639Z" fill="#F4F3E5"/>
<path d="M139.259 4.58821L138.773 7.66309L141.833 8.15065L142.318 5.07577L139.259 4.58821Z" fill="#F4F3E5"/>
<path d="M164.759 39.849L164.273 42.9238L167.333 43.4114L167.818 40.3365L164.759 39.849Z" fill="#F4F3E5"/>
<path d="M153.296 0.00364828L151.105 2.20508L153.296 4.4065L155.486 2.20507L153.296 0.00364828Z" fill="#F4F3E5"/>
<path d="M134.953 19.2361L132.879 20.75L134.39 22.8413L136.464 21.3274L134.953 19.2361Z" fill="#F4F3E5"/>
<path d="M171.644 19.231L170.133 21.3223L172.207 22.8362L173.718 20.7449L171.644 19.231Z" fill="#F4F3E5"/>
<path d="M141.251 36.1094H138.68V38.694H141.251V36.1094Z" fill="#F4F3E5"/>
<path d="M150.631 40.8991L148.551 42.418L150.057 44.5024L152.138 42.9836L150.631 40.8991Z" fill="#F4F3E5"/>
<path d="M162.056 36.1082L161.723 38.2217L163.825 38.5564L164.159 36.4429L162.056 36.1082Z" fill="#F4F3E5"/>
<path d="M140.915 13.091L138.812 13.4258L139.146 15.5393L141.248 15.2045L140.915 13.091Z" fill="#F4F3E5"/>
<path d="M167.45 32.4709L165.348 32.8057L165.681 34.9192L167.784 34.5844L167.45 32.4709Z" fill="#F4F3E5"/>
<path d="M158.835 6.88823L156.938 7.85938L157.904 9.76617L159.801 8.79503L158.835 6.88823Z" fill="#F4F3E5"/>
<path d="M146.266 10.1155L145.723 11.7998L147.398 12.3461L147.942 10.6618L146.266 10.1155Z" fill="#F4F3E5"/>
<path d="M159.216 35.6587L158.672 37.3428L160.347 37.8896L160.892 36.2056L159.216 35.6587Z" fill="#F4F3E5"/>
<path d="M140.04 29.3931L139.496 31.0771L141.172 31.624L141.716 29.9399L140.04 29.3931Z" fill="#F4F3E5"/>
<path d="M164.262 12.9814H162.5V14.7521H164.262V12.9814Z" fill="#F4F3E5"/>
<path d="M153.295 10.5018L152.262 11.54L153.295 12.5786L154.328 11.5404L153.295 10.5018Z" fill="#F4F3E5"/>
<path d="M143.877 15.8497L142.434 16.0781L142.661 17.5288L144.104 17.3003L143.877 15.8497Z" fill="#F4F3E5"/>
<path d="M140.908 22.9741L139.875 24.0127L140.908 25.0509L141.941 24.0123L140.908 22.9741Z" fill="#F4F3E5"/>
<path d="M164.784 19.1603L164.121 20.4688L165.423 21.1354L166.086 19.827L164.784 19.1603Z" fill="#F4F3E5"/>
<path d="M162.733 15.8347L162.504 17.2852L163.947 17.5151L164.176 16.0647L162.733 15.8347Z" fill="#F4F3E5"/>
<path d="M146.611 33.2383L145.168 33.4678L145.396 34.9183L146.839 34.6888L146.611 33.2383Z" fill="#F4F3E5"/>
<path d="M157.442 11.1515L156.141 11.8193L156.805 13.1272L158.106 12.4594L157.442 11.1515Z" fill="#F4F3E5"/>
<path d="M60.1791 21.0465C60.1791 19.3011 59.77 17.9248 58.9601 16.9179C58.192 15.9696 57.0064 15.2815 55.395 14.8535L54.9358 16.4479C57.1149 17.0018 58.2421 18.3528 58.3255 20.4927H54.0508V21.9948H60.1791V21.0381V21.0465Z" fill="#F4F3E5"/>
<path d="M49.2518 22.0023H52.3995V18.3436C52.3995 16.1282 51.3141 15.0205 49.1516 15.0205C47.9494 15.0205 47.0143 15.3813 46.338 16.103C45.7118 16.7744 45.3945 17.6219 45.3945 18.6625C45.3945 20.8862 46.6803 22.0023 49.2518 22.0023ZM47.7406 17.0765C48.0496 16.7072 48.467 16.5226 49.0014 16.5226C50.0283 16.5226 50.5376 17.2107 50.5376 18.5785V20.5002H49.4522C48.0078 20.5002 47.2898 19.8289 47.2898 18.4779C47.2898 17.8988 47.4401 17.4373 47.749 17.0765" fill="#F4F3E5"/>
<path d="M50.2135 14.1058C50.4807 14.1058 50.7061 14.0135 50.8898 13.8205C51.0735 13.6275 51.1653 13.3925 51.1653 13.124C51.1653 12.8555 51.0735 12.6121 50.8898 12.4275C50.7061 12.2345 50.4807 12.1338 50.2135 12.1338C49.9463 12.1338 49.7293 12.2345 49.5372 12.4275C49.3536 12.6205 49.2617 12.8555 49.2617 13.124C49.2617 13.3925 49.3536 13.6275 49.5372 13.8205C49.7209 14.0135 49.9463 14.1058 50.2135 14.1058Z" fill="#F4F3E5"/>
<path d="M72.0461 23.463C71.8457 23.6644 71.7539 23.8994 71.7539 24.1679C71.7539 24.4365 71.8541 24.6882 72.0461 24.8812C72.2382 25.0742 72.4719 25.1749 72.7391 25.1749C73.0063 25.1749 73.2484 25.0742 73.4404 24.8812C73.6408 24.6882 73.7326 24.4533 73.7326 24.1763C73.7326 23.8994 73.6325 23.6644 73.4404 23.4714C73.2484 23.2784 73.0146 23.1777 72.7391 23.1777C72.4636 23.1777 72.2382 23.2784 72.0461 23.4714" fill="#F4F3E5"/>
<path d="M65.1721 22.0027H66.2992V22.2209C66.2992 23.5048 65.4643 24.1426 63.8028 24.1426C63.0598 24.1426 62.3083 24.0587 61.5653 23.8992L61.4484 25.4601C62.1915 25.5859 62.9178 25.6531 63.6442 25.6531C65.1721 25.6531 66.3243 25.3006 67.1008 24.5957C67.8021 23.9664 68.1444 23.1104 68.1444 22.0363V22.0111H76.6188C76.7858 21.0293 76.8693 20.1314 76.8693 19.3342C76.8693 17.916 76.5186 16.8671 75.8256 16.1957C75.0992 15.4824 73.9387 15.13 72.3524 15.13C71.8013 15.13 71.1835 15.172 70.5156 15.2643V16.758C71.0833 16.6741 71.6343 16.6405 72.1687 16.6405C73.1789 16.6405 73.9137 16.8755 74.3645 17.337C74.782 17.7817 74.999 18.4699 74.999 19.4097C74.999 19.7622 74.974 20.123 74.9323 20.509H68.1611V15.5328C67.2844 15.1971 66.2825 15.0293 65.1554 15.0293C63.903 15.0293 62.9345 15.3985 62.2499 16.1286C61.6404 16.7915 61.3398 17.6307 61.3398 18.6545C61.3398 20.895 62.6256 22.0111 65.1971 22.0111M63.6693 17.0768C63.9782 16.7076 64.3956 16.523 64.93 16.523C65.4643 16.523 65.9319 16.6069 66.2992 16.7831V20.5006H65.3808C63.9364 20.5006 63.2184 19.8293 63.2184 18.4782C63.2184 17.8992 63.3687 17.4377 63.6776 17.0768" fill="#F4F3E5"/>
<path d="M47.8229 14.1058C48.0984 14.1058 48.3238 14.0135 48.5075 13.8205C48.6912 13.6275 48.783 13.3925 48.783 13.124C48.783 12.8555 48.6912 12.6121 48.5075 12.4275C48.3238 12.2345 48.0901 12.1338 47.8229 12.1338C47.5557 12.1338 47.3386 12.2345 47.1466 12.4275C46.9629 12.6205 46.8711 12.8555 46.8711 13.124C46.8711 13.3925 46.9629 13.6275 47.1466 13.8205C47.3303 14.0135 47.5557 14.1058 47.8229 14.1058Z" fill="#F4F3E5"/>
<path d="M117.699 14.9375H115.745V20.3753H113.057V14.9375H111.103V22.0788C111.103 23.6816 110.51 24.1599 109.508 24.1599C109.032 24.1599 108.665 24.0844 108.314 23.9837L108.164 25.5445C108.515 25.6368 108.949 25.6955 109.408 25.6955C112.405 25.6955 113.057 23.883 113.057 21.9865V21.9277H117.69V14.9459L117.699 14.9375Z" fill="#F4F3E5"/>
<path d="M106.952 14.031C107.503 14.031 107.971 13.5694 107.971 13.0072C107.971 12.4449 107.495 11.9834 106.952 11.9834C106.41 11.9834 105.934 12.4617 105.934 13.0072C105.934 13.5526 106.393 14.031 106.952 14.031Z" fill="#F4F3E5"/>
<path d="M117.641 23.925C117.641 23.3292 117.198 22.918 116.639 22.918C116.079 22.918 115.637 23.3459 115.637 23.925C115.637 24.504 116.063 24.932 116.639 24.932C117.215 24.932 117.641 24.504 117.641 23.925Z" fill="#F4F3E5"/>
<path d="M104.465 21.919H107.93V14.9372H105.977V20.375H104.465H104.24H102.938V11.4463H100.992V21.919H104.24H104.465Z" fill="#F4F3E5"/>
<path d="M86.7812 23.925C86.7812 24.4872 87.2071 24.932 87.7831 24.932C88.3592 24.932 88.785 24.504 88.785 23.925C88.785 23.3459 88.3425 22.918 87.7831 22.918C87.2238 22.918 86.7812 23.3459 86.7812 23.925Z" fill="#F4F3E5"/>
<path d="M86.3385 26.6686L86.4721 25.1246C84.7772 25.1246 84.0341 24.3693 84.0341 23.5553C84.0341 22.649 84.6269 21.919 86.8144 21.919H98.8706V18.1595C98.8706 16.0784 97.8353 14.7441 95.5309 14.7441C92.9761 14.7441 91.6903 16.4644 91.6903 18.3525C91.6903 19.4099 91.9742 20.0728 92.5169 20.4756C92.5169 20.4756 92.2079 20.3749 91.6903 20.3749H89.8451C89.8869 19.9469 89.9036 19.5274 89.9036 19.1749C89.9036 16.3218 88.5844 14.8532 85.2615 14.8532C84.6269 14.8532 83.9506 14.912 83.3662 14.9875V16.5148C83.9172 16.4392 84.4599 16.3973 85.0694 16.3973C87.1984 16.3973 87.9666 17.3623 87.9666 19.2504C87.9666 19.6197 87.9332 20.0225 87.8914 20.3749H86.8895C83.5081 20.3749 82.1055 21.8015 82.1055 23.6728C82.1055 25.3931 83.4497 26.677 86.3468 26.677M95.3723 16.2882C96.3658 16.2882 96.9503 16.9092 96.9503 18.3945V20.3665H95.8315C94.2952 20.3665 93.6189 19.6868 93.6189 18.2854C93.6189 17.1274 94.2702 16.2798 95.3806 16.2798" fill="#F4F3E5"/>
<path d="M21.7336 22.792C21.1992 22.792 20.7734 23.22 20.7734 23.757C20.7734 24.2941 21.1909 24.7221 21.7336 24.7221C22.2763 24.7221 22.6937 24.2773 22.6937 23.757C22.6937 23.2367 22.2512 22.792 21.7336 22.792Z" fill="#F4F3E5"/>
<path d="M24.0969 22.792C23.5625 22.792 23.1367 23.22 23.1367 23.757C23.1367 24.2941 23.5542 24.7221 24.0969 24.7221C24.6396 24.7221 25.057 24.2773 25.057 23.757C25.057 23.2367 24.6145 22.792 24.0969 22.792Z" fill="#F4F3E5"/>
<path d="M34.765 20.1562H32.3103C32.3604 19.7198 32.3688 19.3087 32.3688 18.9478C32.3688 16.0947 31.0496 14.6261 27.7267 14.6261C27.0921 14.6261 26.4576 14.6849 25.8982 14.794V16.3212C26.4325 16.2289 26.9752 16.1702 27.5513 16.1702C29.6637 16.1702 30.4318 17.1352 30.4318 19.0233C30.4318 19.3926 30.3984 19.7954 30.3566 20.1562H23.9028V14.7184H21.9491V20.1562H18.8599H19.5695H17.3403H19.6196H19.3942H19.5695H16.9563H17.1984H11.2037V11.2275H9.25V21.7003H12.4978H14.0675H17.1984H16.9563H19.5695H18.8599H19.6113H17.5491H17.9916H19.5612H18.8515H20.4128H25.1802H32.995H36.6853V11.2275H34.7316V20.1562H34.765Z" fill="#F4F3E5"/>
<path d="M41.0279 11.2363H39.0742V21.7091H41.0279V11.2363Z" fill="#F4F3E5"/>
<path d="M4.15052 12.1257C3.96684 12.3187 3.875 12.5537 3.875 12.8222C3.875 13.0908 3.96684 13.3257 4.15052 13.5104C4.3342 13.7034 4.55963 13.8041 4.8268 13.8041C5.09398 13.8041 5.3194 13.7034 5.50308 13.5104C5.68677 13.3173 5.77861 13.0824 5.77861 12.8222C5.77861 12.5621 5.68677 12.3104 5.50308 12.1257C5.3194 11.9327 5.09398 11.832 4.8268 11.832C4.55963 11.832 4.34255 11.9327 4.15052 12.1257Z" fill="#F4F3E5"/>
<path d="M1.75208 12.1257C1.5684 12.3187 1.47656 12.5537 1.47656 12.8222C1.47656 13.0908 1.5684 13.3257 1.75208 13.5104C1.93577 13.7034 2.16119 13.8041 2.42837 13.8041C2.69554 13.8041 2.92931 13.7034 3.113 13.5104C3.29668 13.3173 3.38852 13.0824 3.38852 12.8222C3.38852 12.5621 3.29668 12.3104 3.113 12.1257C2.92931 11.9327 2.69554 11.832 2.42837 11.832C2.16119 11.832 1.94411 11.9327 1.75208 12.1257Z" fill="#F4F3E5"/>
<path d="M3.75712 14.7188C2.55484 14.7188 1.61973 15.0796 0.943454 15.8013C0.317268 16.4726 0 17.3201 0 18.3691C0 20.5929 1.28577 21.709 3.85731 21.709H7.00494V18.0502C7.00494 15.8348 5.91955 14.7271 3.75712 14.7271M5.15142 20.1985H4.05769C2.61328 20.1985 1.89526 19.5187 1.89526 18.1677C1.89526 17.5971 2.04554 17.1271 2.35446 16.7747C2.66338 16.4055 3.08084 16.2208 3.61518 16.2208C4.64213 16.2208 5.15142 16.909 5.15142 18.2768V20.1985Z" fill="#F4F3E5"/>
<path d="M6.06336 34.4476C5.95483 34.7916 5.80454 35.0769 5.59581 35.3035L6.28044 35.9497L5.62921 36.6378L4.91118 35.9497C4.6941 36.0839 4.50207 36.1762 4.34344 36.235C4.07627 36.3273 3.75065 36.3692 3.38329 36.3692C2.60682 36.3692 1.95558 36.1343 1.44629 35.6643C0.82845 35.1021 0.519531 34.2713 0.519531 33.1804C0.519531 32.0895 0.836799 31.2503 1.47133 30.6881C1.98898 30.2266 2.63187 30 3.39999 30C4.16811 30 4.81934 30.2434 5.34534 30.7301C5.95483 31.2923 6.25539 32.0811 6.25539 33.0881C6.25539 33.6252 6.1886 34.0699 6.06336 34.4308M3.7924 35.2615C3.86754 35.2448 3.95938 35.2112 4.07627 35.1608L3.46678 34.5818L4.10966 33.9105L4.71915 34.4895C4.81099 34.2965 4.87779 34.1203 4.91953 33.9776C4.97797 33.7594 5.01137 33.4993 5.01137 33.2056C5.01137 32.5343 4.87779 32.014 4.60226 31.6448C4.32674 31.2755 3.92598 31.0909 3.39999 31.0909C2.90739 31.0909 2.50663 31.2671 2.21441 31.6196C1.92219 31.972 1.7719 32.5007 1.7719 33.2056C1.7719 34.028 1.98063 34.6154 2.40644 34.9762C2.68196 35.2112 3.00758 35.3203 3.39164 35.3203C3.53357 35.3203 3.67551 35.3035 3.80909 35.2699" fill="#F4F3E5"/>
<path d="M7.28906 30.4785H8.55813V34.1708C8.55813 34.582 8.60823 34.8841 8.70007 35.0771C8.85035 35.4128 9.18432 35.5806 9.68527 35.5806C10.1862 35.5806 10.5202 35.4128 10.6705 35.0771C10.7707 34.8841 10.8124 34.582 10.8124 34.1708V30.4785H12.0815V34.1708C12.0815 34.8086 11.9813 35.3037 11.7893 35.6645C11.4219 36.3191 10.7206 36.6463 9.68527 36.6463C8.64997 36.6463 7.94865 36.3191 7.58128 35.6645C7.3809 35.3121 7.28906 34.8086 7.28906 34.1708V30.4785Z" fill="#F4F3E5"/>
<path d="M15.0871 30.6289H16.4981L18.6105 36.6457H17.2579L16.8655 35.4121H14.6613L14.2522 36.6457H12.9414L15.0788 30.6289H15.0871ZM15.0036 34.3716H16.5399L15.7801 32.0051L15.0036 34.3716Z" fill="#F4F3E5"/>
<path d="M19.4609 30.6289H20.7133V35.5632H23.694V36.6457H19.4609V30.6289Z" fill="#F4F3E5"/>
<path d="M25.7636 30.6289H24.5195V36.6457H25.7636V30.6289Z" fill="#F4F3E5"/>
<path d="M31.3581 30.6289V31.6946H29.5714V36.6457H28.3107V31.6946H26.5156V30.6289H31.3581Z" fill="#F4F3E5"/>
<path d="M35.5826 30.6289H37.002L34.9982 34.3883V36.6457H33.7542V34.3883L31.6836 30.6289H33.153L34.3971 33.2471L35.5826 30.6289Z" fill="#F4F3E5"/>
<path d="M44.6506 35.9413C44.1997 36.4112 43.5485 36.6462 42.6885 36.6462C41.8286 36.6462 41.1773 36.4112 40.7265 35.9413C40.117 35.3707 39.8164 34.5399 39.8164 33.4574C39.8164 32.3748 40.117 31.5273 40.7265 30.9734C41.1773 30.5035 41.8286 30.2686 42.6885 30.2686C43.5485 30.2686 44.1997 30.5035 44.6506 30.9734C45.2517 31.5273 45.5523 32.3497 45.5523 33.4574C45.5523 34.5651 45.2517 35.3623 44.6506 35.9413ZM43.8741 35.0266C44.1663 34.6574 44.3082 34.1371 44.3082 33.4574C44.3082 32.7776 44.1663 32.2574 43.8741 31.8965C43.5819 31.5273 43.1895 31.3427 42.6969 31.3427C42.2043 31.3427 41.8035 31.5273 41.5113 31.8965C41.2191 32.2658 41.0688 32.786 41.0688 33.4658C41.0688 34.1455 41.2191 34.6658 41.5113 35.035C41.8035 35.4042 42.2043 35.5888 42.6969 35.5888C43.1895 35.5888 43.5819 35.4042 43.8741 35.035" fill="#F4F3E5"/>
<path d="M46.5977 30.6377H50.8641V31.695H47.8417V33.0797H50.4884V34.1202H47.8417V36.6461H46.5977V30.6377Z" fill="#F4F3E5"/>
<path d="M54.1445 30.6289H55.3886V35.5632H58.3775V36.6457H54.1445V30.6289Z" fill="#F4F3E5"/>
<path d="M60.4471 30.6289H59.2031V36.6457H60.4471V30.6289Z" fill="#F4F3E5"/>
<path d="M61.6914 30.6377H65.9578V31.695H62.9354V33.0797H65.5821V34.1202H62.9354V36.6461H61.6914V30.6377Z" fill="#F4F3E5"/>
<path d="M71.2778 31.6946H68.1135V32.9702H71.019V34.0191H68.1135V35.5632H71.4281V36.6457H66.8945V30.6289H71.2778V31.6946Z" fill="#F4F3E5"/>
<path d="M78.8893 34.0443C78.5387 34.338 78.0377 34.4807 77.3865 34.4807H76.1425V36.6457H74.8984V30.6289H77.47C78.0628 30.6289 78.5387 30.78 78.8893 31.0904C79.24 31.4009 79.4153 31.8793 79.4153 32.5338C79.4153 33.2471 79.24 33.7422 78.8893 34.0359M77.9375 31.8709C77.7789 31.7366 77.5535 31.6695 77.2696 31.6695H76.1425V33.4401H77.2696C77.5535 33.4401 77.7789 33.3646 77.9375 33.2219C78.0962 33.0793 78.1713 32.8527 78.1713 32.5338C78.1713 32.2149 78.0878 31.9967 77.9375 31.8625" fill="#F4F3E5"/>
<path d="M84.334 30.7883C84.5511 30.8807 84.7431 31.0233 84.8934 31.2079C85.0186 31.359 85.1188 31.5268 85.194 31.7114C85.2691 31.896 85.3025 32.1058 85.3025 32.3408C85.3025 32.6261 85.2274 32.903 85.0854 33.18C84.9435 33.4569 84.7097 33.6499 84.3758 33.7674C84.6513 33.8765 84.8433 34.0359 84.9602 34.2457C85.0771 34.4471 85.1355 34.766 85.1355 35.1855V35.5883C85.1355 35.8653 85.1439 36.0499 85.1689 36.1506C85.2023 36.3016 85.2775 36.4191 85.4027 36.4946V36.6457H84.0251C83.9834 36.5114 83.9583 36.4023 83.9416 36.3268C83.9082 36.159 83.8915 35.9828 83.8915 35.8065V35.2443C83.8748 34.8583 83.8164 34.6065 83.6828 34.4807C83.5576 34.3548 83.3154 34.2876 82.9731 34.2876H81.7541V36.6457H80.5352V30.6289H83.3989C83.808 30.6289 84.1253 30.6876 84.3424 30.78M81.7541 31.6779V33.2974H83.0983C83.3655 33.2974 83.5659 33.2639 83.6995 33.1967C83.9333 33.0793 84.0501 32.8527 84.0501 32.517C84.0501 32.1562 83.9333 31.9044 83.7078 31.7786C83.5826 31.7114 83.3822 31.6695 83.1317 31.6695H81.7541V31.6779Z" fill="#F4F3E5"/>
<path d="M91.1974 35.9413C90.7466 36.4112 90.0953 36.6462 89.2354 36.6462C88.3754 36.6462 87.7242 36.4112 87.2733 35.9413C86.6638 35.3707 86.3633 34.5399 86.3633 33.4574C86.3633 32.3748 86.6638 31.5273 87.2733 30.9734C87.7242 30.5035 88.3754 30.2686 89.2354 30.2686C90.0953 30.2686 90.7466 30.5035 91.1974 30.9734C91.7986 31.5273 92.0991 32.3497 92.0991 33.4574C92.0991 34.5651 91.7986 35.3623 91.1974 35.9413ZM90.4126 35.0266C90.7048 34.6574 90.8468 34.1371 90.8468 33.4574C90.8468 32.7776 90.7048 32.2574 90.4126 31.8965C90.1204 31.5273 89.728 31.3427 89.2354 31.3427C88.7428 31.3427 88.342 31.5273 88.0498 31.8965C87.7576 32.2658 87.6073 32.786 87.6073 33.4658C87.6073 34.1455 87.7576 34.6658 88.0498 35.035C88.342 35.4042 88.7428 35.5888 89.2354 35.5888C89.728 35.5888 90.1204 35.4042 90.4126 35.035" fill="#F4F3E5"/>
<path d="M97.1603 32.3497C97.0684 31.9385 96.8346 31.6532 96.4673 31.4854C96.2586 31.3931 96.0331 31.3511 95.7827 31.3511C95.2984 31.3511 94.906 31.5357 94.5971 31.8966C94.2882 32.2658 94.1295 32.8112 94.1295 33.5413C94.1295 34.2714 94.2965 34.8001 94.6305 35.1105C94.9644 35.421 95.3485 35.5721 95.7743 35.5721C96.2001 35.5721 96.5341 35.4546 96.8012 35.2112C97.0684 34.9679 97.2354 34.649 97.2938 34.263H95.9079V33.256H98.4043V36.4784H97.5777L97.4525 35.7315C97.2104 36.0168 96.9933 36.2182 96.8012 36.3357C96.4673 36.5371 96.0665 36.6378 95.5823 36.6378C94.7891 36.6378 94.1379 36.3609 93.6369 35.8071C93.1109 35.2532 92.8438 34.498 92.8438 33.5329C92.8438 32.5679 93.1109 31.7791 93.6453 31.1917C94.1796 30.6043 94.8809 30.3105 95.7576 30.3105C96.5174 30.3105 97.1269 30.5036 97.5861 30.8896C98.0453 31.2756 98.3124 31.7623 98.3792 32.3413H97.1519L97.1603 32.3497Z" fill="#F4F3E5"/>
<path d="M103.522 30.7883C103.739 30.8807 103.931 31.0233 104.081 31.2079C104.206 31.359 104.306 31.5268 104.381 31.7114C104.457 31.896 104.49 32.1058 104.49 32.3408C104.49 32.6261 104.415 32.903 104.273 33.18C104.131 33.4569 103.889 33.6499 103.563 33.7674C103.839 33.8765 104.031 34.0359 104.148 34.2457C104.265 34.4471 104.323 34.766 104.323 35.1855V35.5883C104.323 35.8653 104.331 36.0499 104.356 36.1506C104.39 36.3016 104.465 36.4191 104.59 36.4946V36.6457H103.213C103.171 36.5114 103.146 36.4023 103.129 36.3268C103.096 36.159 103.079 35.9828 103.079 35.8065V35.2443C103.062 34.8583 103.004 34.6065 102.87 34.4807C102.745 34.3548 102.503 34.2876 102.161 34.2876H100.942V36.6457H99.7227V30.6289H102.586C102.996 30.6289 103.313 30.6876 103.53 30.78M100.933 31.6779V33.2974H102.277C102.545 33.2974 102.745 33.2639 102.879 33.1967C103.112 33.0793 103.229 32.8527 103.229 32.517C103.229 32.1562 103.112 31.9044 102.887 31.7786C102.762 31.7114 102.561 31.6695 102.311 31.6695H100.933V31.6779Z" fill="#F4F3E5"/>
<path d="M107.478 30.6289H108.889L111.001 36.6457H109.649L109.256 35.4121H107.052L106.643 36.6457H105.332L107.469 30.6289H107.478ZM107.394 34.3716H108.931L108.171 32.0051L107.394 34.3716Z" fill="#F4F3E5"/>
<path d="M115.821 30.6289H117.616V36.6457H116.447V32.5758C116.447 32.4583 116.447 32.2988 116.447 32.0807C116.447 31.8709 116.447 31.703 116.447 31.5939L115.311 36.6373H114.092L112.965 31.5939C112.965 31.7114 112.965 31.8709 112.965 32.0807C112.965 32.2904 112.965 32.4583 112.965 32.5758V36.6457H111.805V30.6289H113.625L114.71 35.3534L115.787 30.6289H115.821Z" fill="#F4F3E5"/>
</g>
<defs>
<clipPath id="clip0_3539_3125">
<rect width="176" height="48" fill="white"/>
</clipPath>
</defs>
</svg>
