<?xml version="1.0" encoding="UTF-8"?>
<svg id="Layer_1" xmlns="http://www.w3.org/2000/svg" version="1.1" viewBox="0 0 1685.57 359.81">
  <!-- Generator: Adobe Illustrator 30.1.0, SVG Export Plug-In . SVG Version: 2.1.1 Build 136)  -->
  <defs>
    <style>
      .st0 {
        fill: #fff;
      }
    </style>
  </defs>
  <rect class="st0" x="838.4" y="56.44" width="2.02" height="246.57"/>
  <g>
    <path class="st0" d="M592.17,142.63s1.42-1.01,4.11-2.59c2.81-1.65,7.08-3.91,12.68-6.14,5.92-2.37,13.32-4.73,21.8-6.48-.25-.18-5.6-4.5-7.71-5.86-9.75-6.3-13.59-4.26-13.59-4.26,4.86-3.5,9.75-6.33,14.62-8.36,0,0,.76-.44,2.22-.79,1.56-.37,4.05-.57,7.3.06,3.64.71,14.1,5.6,14.28,5.7,0-.16.5-4.86.68-6.52.5-4.88,1.57-4.57,2.44-4.64h15.6c.85.07,1.92-.22,2.42,4.64.18,1.66.66,6.36.68,6.52.18-.1,10.64-4.99,14.28-5.7,3.25-.63,5.74-.43,7.3-.06,1.47.35,2.22.79,2.22.79,4.86,2.03,9.75,4.85,14.62,8.36,0,0-3.83-2.04-13.59,4.26-2.12,1.37-7.46,5.68-7.71,5.86,8.46,1.75,15.88,4.1,21.8,6.48,5.6,2.25,9.87,4.51,12.68,6.14,2.69,1.57,4.11,2.59,4.11,2.59,2.41,5.77,4.52,12.4,6.4,19.71,0,0-1.53-.85-4.38-2.19-3-1.4-7.58-3.36-13.57-5.35-6.21-2.06-14.53-4.19-23.47-5.83,3.16,3.54,15.76,17.79,20.96,24.65,11.81,15.53,18.36,26.9,18.36,26.9-4.04,7.05-8.55,14.62-13.54,22.65,0,0-7.27-12.18-20.24-29.25-6.54-8.61-23.3-27.78-23.55-28.06,0,.38,0,83.79.04,91.66h-.04v.09h-27.16c.06-7.87.03-91.39.04-91.75-.25.28-17.01,19.46-23.55,28.06-12.99,17.08-20.24,29.25-20.24,29.25-4.99-8.04-9.52-15.6-13.54-22.65,0,0,6.57-11.37,18.36-26.9,5.21-6.86,17.82-21.11,20.96-24.65-8.95,1.65-17.28,3.78-23.47,5.83-5.99,1.98-10.58,3.95-13.57,5.35-2.85,1.34-4.38,2.19-4.38,2.19,1.88-7.32,4-13.94,6.4-19.71M550.15,288.79h217.23V71.57h-217.23v217.23h0Z"/>
    <path class="st0" d="M123.97,120.34h1.06c6.95,0,10.47,4.58,10.47,13.88,0,7.42-3.88,13.06-10.71,13.06s-10.94-5.3-10.94-13.65c0-7.42,3.76-13.29,10.12-13.29M82.19,160.61h42.6c16.13,0,27.07-10.59,27.07-26.84s-10.59-26.6-27.66-26.6-26.6,10.36-26.6,26.72c0,3.88.59,7.54,1.88,10.94h-16.95c-16.95,0-23.06-4.47-23.06-17.19v-17.19h-16.25v17.19c0,22.01,12.94,32.95,38.96,32.95"/>
    <rect class="st0" x="117.98" y="84.81" width="14.59" height="13.53"/>
    <path class="st0" d="M479.47,105.99c-11.41,0-21.18,4.11-29.19,12.47,3.88,5.3,6.6,8.95,8.24,11.18,4.7-4.82,12.71-8.48,19.77-8.48,13.76,0,23.89,10.36,24.59,23.65H194.45v-37.55h-16.6v43.89c0,10.36-5.42,15.54-16.25,15.54v13.29c18.71,0,29.31-6.48,32.01-19.42h326.79v-5.42c0-30.72-14-49.08-40.96-49.2"/>
    <rect class="st0" x="56.25" y="199.55" width="14.51" height="13.57"/>
    <rect class="st0" x="78.24" y="199.55" width="14.51" height="13.57"/>
    <path class="st0" d="M70.99,236.04h10.77v15.44c0,9.59-4.22,16.03-11.12,16.03s-11.24-6.79-11.24-14.97c0-9.12,4.91-16.5,11.59-16.5M66.2,281.09c8.08,0,13.69-2.45,16.61-7.02,3.75,9.59,10.3,14.4,19.66,14.4h27.15c6.79,0,12.16-2.34,16.03-7.14,3.39-4.1,5.14-9.24,5.14-15.44v-30.42h-16.38v25.85c0,7.61-2.81,11.47-8.31,11.47h-15.56c-7.95,0-11.93-4.22-11.93-11.94v-36.86c-20.83,0-31.25,0-31.25.12-15.44,0-24.22,11.24-24.22,28.66,0,16.14,9,28.31,23.05,28.31"/>
    <rect class="st0" x="135.09" y="294.31" width="14.63" height="13.57"/>
    <rect class="st0" x="113.1" y="294.31" width="14.51" height="13.57"/>
    <path class="st0" d="M161.77,288.45h58.85v-15.79c0-17.67-8.3-29.37-24.22-34.98-4.33-1.53-11.58-2.22-21.87-2.22v13.69c20.83,0,29.72,7.26,29.72,23.64h-42.47v15.67h0Z"/>
    <path class="st0" d="M358.28,249.14c4.57-2.22,9.24-3.28,13.93-3.28s9.71,1.29,14.73,3.86c-1.06,1.75-2.92,3.63-5.38,5.73-2.69,2.45-5.26,4.33-7.61,5.38-2.69-3.16-5.14-5.49-7.26-7.02s-4.91-3.16-8.42-4.69M267.77,272.78h-9.47c-6.08,0-10.06-5.02-10.06-11.69,0-6.2,3.28-11,9.47-11s10.06,4.45,10.06,11.36v11.36h0ZM258.18,235.35c-15.56,0-26.56,10.65-26.56,26.44s11.24,26.68,26.56,26.68c5.49,0,8.77-.24,10.06-.71-1.29,4.57-5.02,6.9-11.36,6.9h-1.4v13.1h1.75c15.91,0,24.8-6.43,26.68-19.3h62.9c4.8,0,9.59-.82,14.51-2.34,4.57-1.53,8.2-3.51,11-5.85,5.26,5.49,11.36,8.2,18.13,8.2h105.53c5.85,0,11.12-2.1,15.67-6.2,5.73-5.14,8.55-12.28,8.55-21.42v-25.38h-16.5v26.79c0,7.02-2.81,10.53-8.31,10.53h-10.42c1.29-3.51,1.98-7.49,1.98-11.81v-25.5h-16.38v26.79c0,7.02-2.81,10.53-8.3,10.53h-10.42c1.29-3.51,1.98-7.49,1.98-11.81v-25.5h-16.5v26.09c0,3.16-.24,5.14-.71,6.08-1.29,3.39-3.86,5.14-7.61,5.14h-35.09c-3.75,0-6.67-.94-8.77-2.92,4.22-2.57,8.65-6.55,13.46-12.05,4.33-5.04,7.26-9.24,8.53-12.4-11.12-8.53-23.17-12.87-36.15-12.87-10.89,0-21.76,3.16-32.41,9.47v13.46c4.57.82,9.36,2.81,14.28,5.85,4.1,2.57,7.14,5.02,8.89,7.49-4.33,2.69-9.47,3.98-15.2,3.98h-62.43v-10.65c0-15.56-11-26.79-25.97-26.79"/>
  </g>
  <g>
    <path class="st0" d="M1358.05,252.58c-13,0-21.45,9.07-21.45,22.34s8.34,20.5,20.91,20.5,21.45-8.85,21.45-22.44c0-12.52-7.26-20.4-20.91-20.4M1357.73,289.91c-6.72,0-11.05-5.93-11.05-15.54,0-10.14,4.12-16.29,11.26-16.29s10.94,6.15,10.94,15.86-4.22,15.97-11.16,15.97"/>
    <path class="st0" d="M1333.11,285.49l-4.77,6.91c-4.11,1.94-9.21,3.02-14.52,3.02-17.87,0-29.14-10.9-29.14-29.13s12.35-31.18,30.76-31.18c6.39,0,11,.72,15.33,2.12,0,0-1.07,5.34-1.41,6.92-.34,1.58-1.67,3.96-4.23,3.78l-1.03-.12v-4.69c-.19-.08-.38-.14-.57-.22-2.14-.73-5.13-1.09-8.31-1.09-11.7,0-19.39,9.06-19.39,23.3s7.58,23.09,20.91,23.09c5.2,0,10.72-1.29,15.6-3.78l.76,1.08Z"/>
    <path class="st0" d="M1452.27,290.23v-23.95c0-9.39-5.09-13.81-13.11-13.81-4.12,0-8.02.97-10.62,2.37l-3.9,6.15c-1.63-5.83-6.07-8.52-12.57-8.52-4.12,0-7.15.97-9.97,2.37l-3.79,5.82v-7.88l-10.67,2.77c-2.48.7-3.03,1.29-3.03,3.34l.03,1.1,3.91-.08.02,29.21-1.61.72c-2.36,1.02-2.35,1.93-2.35,3.09v1.19h13.68c2.27,0,2.6-.76,3.14-2.91l.21-1.19-3.34.21v-28.16c2.92-1.72,6.39-2.8,9.96-2.8,4.33,0,7.26,2.27,7.26,8.42l-.02,21.44-1.61.72c-2.36,1.02-2.35,1.93-2.35,3.09v1.19h13.68c2.27,0,2.6-.76,3.14-2.91l.21-1.19-3.32.21v-23.84c0-1.51-.11-2.81-.33-3.99,3.03-1.94,6.61-3.13,10.29-3.13,4.33,0,7.26,2.27,7.26,8.42v21.44s-1.61.72-1.61.72c-2.36,1.02-2.35,1.93-2.35,3.09v1.19s13.68,0,13.68,0c2.28,0,2.6-.76,3.14-2.91l.21-1.19-3.33.21Z"/>
    <polygon class="st0" points="1425.27 290.34 1425.27 290.34 1425.29 290.34 1425.27 290.34"/>
    <path class="st0" d="M1267.37,294.04l-.05.07-3.24-.46v-.12c0-4.35-.17-8.61-.22-9.81-1.19-20.01-2.06-31.24-3.9-50.05v-.08s.06-.05.06-.05c2.99-1.99,6.27-3.27,10.02-3.91l.15-.03v.15c.95,15.99,1.29,27.34,1.74,48.34.11,5.95-1.47,11.47-4.57,15.94Z"/>
    <path class="st0" d="M1046.11,281.48c.15,1.1-1.68,4.47-2.79,6.29-.82,1.36-1.68,2.6-2.41,3.5-.89,1.09-1.57,1.67-2.08,1.76-3.12.69-7.09,1.08-10.89,1.08-5.1,0-8.88-.73-11.54-2.22-3.03-1.7-4.56-4.43-4.56-8.1,0-2.05.36-5.28,2.08-9.08l.09-.21,3.32.64-.09.56c-.2,1.16-.38,2.26-.38,3.23,0,1.74,1,3.07,2.98,3.94,1.91.84,4.71,1.27,8.32,1.27,4.15,0,8.53-.5,11.54-1.31-2.2-6.36-6.41-15.04-11.9-24.47l-.11-.18.14-.16c2.38-2.7,4.46-4.77,7.42-6.74l.28-.19.14.31c5.25,11.53,9.54,23.9,10.42,30.08Z"/>
    <path class="st0" d="M997.66,318.33l.16.19-.16.19c-2.69,3.13-4.87,5.26-6.66,6.52l-.16.12-.17-.11c-2.23-1.52-4.56-3.84-6.57-6.54l-.13-.17.13-.17c1.68-2.26,3.83-4.39,6.23-6.18-2.12-1.51-4.32-3.74-6.23-6.3l-.13-.17.13-.17c1.76-2.37,4.03-4.59,6.56-6.43l.18-.13.17.14c2.75,2.28,4.99,4.44,6.65,6.4l.16.19-.16.19c-2.58,3-4.61,5.01-6.35,6.3,2.61,2.19,4.74,4.26,6.35,6.16Z"/>
    <path class="st0" d="M1397.87,202c-2.38,1.08-5.42,1.4-7.91,1.4-8.34,0-11.92-3.99-11.92-12.08v-23.31h-5.59v-1.08c0-1.94.65-2.81,2.82-3.34l2.77-.76,7.04-10.57h2.71v10.57h9.46v5.18h-9.46v21.69c0,5.29,2.06,7.01,6.07,7.01,2.16,0,5.09-.43,7.91-1.94l.54.86-4.44,6.36"/>
    <path class="st0" d="M1465.24,190.52c0,7.99-6.93,12.73-17.01,12.73-5.42,0-12.24-1.08-16.47-3.24l1.3-8.42c.32-2.48,1.3-3.24,3.57-3.24l1.19.22v6.91c2.93,1.51,7.15,2.59,10.4,2.59,5.96,0,8.56-1.94,8.56-5.4,0-2.27-1.52-3.88-8.12-6.15l-4.66-1.62c-7.37-2.59-11.37-4.75-11.37-11.33,0-8.2,7.15-13.06,17.22-13.06,4.77,0,9.43.86,13.22,2.27l-1.3,7.66c-.32,2.37-1.08,3.02-3.36,3.02l-1.3-.22v-5.93c-2.17-.97-4.77-1.62-7.15-1.62-4.98,0-8.89,1.84-8.89,5.61,0,2.7,1.73,3.88,7.91,6.04l4.33,1.51c8.56,3.02,11.92,5.83,11.92,11.65"/>
    <path class="st0" d="M1564,198.01l-.21,1.18c-.54,2.16-.87,2.91-3.14,2.91h-13.68v-1.19c0-1.16,0-2.07,2.35-3.09l1.61-.72v-21.46c0-6.15-3.14-8.42-8.02-8.42-3.68,0-7.26,1.08-10.29,2.8v28.17l3.27-.21-.21,1.18c-.54,2.16-.87,2.91-3.14,2.91h-13.68v-1.19c0-1.16-.01-2.07,2.35-3.09l1.61-.72-.02-29.21-3.91.08-.03-1.1c0-2.05.56-2.64,3.03-3.35l10.73-2.78v7.77l3.79-5.83c3.03-1.3,6.39-2.27,10.51-2.27,8.67,0,13.76,4.42,13.76,13.92v23.86s3.34-.21,3.34-.21Z"/>
    <path class="st0" d="M1367.72,168.76c-4.44,0-9.53.76-12.56,2.16v27.3l3.34-.21-.22,1.19c-.54,2.16-.87,2.91-3.14,2.91h-13.68v-1.18c0-1.17-.01-2.07,2.35-3.09l1.61-.72v-29.21l-3.93.08-.02-1.1c0-2.05.56-2.64,3.03-3.34l10.67-2.77v8.74l3.46-6.15c1.84-1.62,5.96-2.8,9.1-2.8v8.2"/>
    <path class="st0" d="M1332.26,93.89c0,10.48-8.46,17.51-22.79,17.51-6.94,0-16.38-1.62-22.13-4.76l1.52-6.16c.72-2.91,1.52-4,4.12-4.11l1.28.13v4.87c4.88,2.38,10.77,3.65,15.22,3.65,8.14,0,12.26-3.68,12.26-8.65,0-3.89-1.85-5.84-9.12-8.86l-8.68-3.57c-9.55-3.89-14.54-6.92-14.54-15.35,0-11.57,9.55-17.62,22.35-17.62,5.86,0,12.37.76,18.34,2.81,0,0-1.07,5.06-1.41,6.64-.34,1.58-1.68,3.96-4.23,3.78l-1.03-.12v-4.7c-3.36-1.41-7.76-2.15-11.56-2.15-7.27,0-12.37,2.81-12.37,8.32,0,3.78,2.06,5.73,9.55,8.75l9.55,3.89c10.63,4.21,13.67,8.1,13.67,15.67"/>
    <path class="st0" d="M1384.85,75.95v-1.17c0-2.05.82-2.67,2.71-3.24l10.89-2.72v27.34c0,6.16,3.47,8.32,8.25,8.32,3.36,0,7.05-.76,9.87-2.48v-26.05l-3.92.08-.02-1.1c0-2.05.56-2.65,3.04-3.35l10.67-2.76v35.56h3.97v1.96c0,1.95-1.27,2.42-4.91,3.14l-8.88,1.74.05-7.7-3.8,5.51c-2.71,1.3-6.4,2.38-10.41,2.38-8.25,0-13.67-4.54-13.67-13.94v-21.51h-3.84Z"/>
    <g>
      <polygon class="st0" points="1494.06 63.41 1486.79 56.27 1494.06 49.03 1501.11 56.27 1494.06 63.41"/>
      <path class="st0" d="M1503.04,105.99l-.22,1.19c-.54,2.16-.87,2.92-3.15,2.92h-13.7v-1.19c0-1.17-.01-2.08,2.35-3.1l1.6-.72v-29.26l-3.92.08-.02-1.1c0-2.05.56-2.65,3.04-3.35l10.69-2.77v37.51l3.34-.22Z"/>
    </g>
    <path class="st0" d="M1632.33,198l-.22,1.19c-.54,2.16-.87,2.92-3.15,2.92h-13.7v-1.19c0-1.17-.01-2.08,2.35-3.1l1.6-.72v-48.98l-3.92.08-.02-1.1c0-2.05.56-2.65,3.04-3.35l10.69-2.77v57.23l3.34-.22Z"/>
    <g>
      <polygon class="st0" points="1415.55 155.42 1408.28 148.28 1415.55 141.04 1422.6 148.28 1415.55 155.42"/>
      <path class="st0" d="M1424.53,198l-.22,1.19c-.54,2.16-.87,2.92-3.15,2.92h-13.7v-1.19c0-1.17-.01-2.08,2.35-3.1l1.6-.72v-29.26l-3.92.08-.02-1.1c0-2.05.56-2.65,3.04-3.35l10.69-2.77v37.51l3.34-.22Z"/>
    </g>
    <path class="st0" d="M1602.72,290.01l-.21,1.18c-.54,2.16-.87,2.91-3.14,2.91h-13.68v-1.19c0-1.16,0-2.07,2.35-3.09l1.61-.72v-21.46c0-6.15-3.14-8.42-8.02-8.42-3.68,0-7.26,1.08-10.29,2.8v28.17l3.27-.21-.21,1.18c-.54,2.16-.87,2.91-3.14,2.91h-13.68v-1.19c0-1.16-.01-2.07,2.35-3.09l1.61-.72-.02-29.21-3.91.08-.03-1.1c0-2.05.56-2.64,3.03-3.35l10.73-2.78v7.77l3.79-5.83c3.03-1.3,6.39-2.27,10.51-2.27,8.67,0,13.76,4.42,13.76,13.92v23.86s3.34-.21,3.34-.21Z"/>
    <path class="st0" d="M1228.18,97.57c-1.29,3.52-2.75,7.52-6.1,9.98h-.01c-3.03,1.98-18.83,2.54-21.87,2.54h-7.57c-1.48,0-2.04-.61-2.81-1.44-.33-.36-.7-.75-1.2-1.19-.34,2.81-1.2,9.16-1.82,10.16-2.06,3.59-4.78,6.54-8.09,8.78-2.91,1.96-6.26,3.37-9.97,4.2h-.03s-.03,0-.03,0c-1.54,0-9.07-4.38-12.66-7.96l-.14-.14,1.26-3.12.25.07c2.72.79,5.6,1.18,8.8,1.18,7.83,0,14.26-5.4,17.23-14.46-2.4-4.51-6.49-10.74-10.97-16.68l-.14-.19.16-.18c2.49-2.83,4.99-4.77,7.9-6.11l.26-.12c1.32,2.2,5.08,11.96,8.87,15.26,1.59,1.38,3.29,1.99,5.51,1.99h4.72s15.78-.23,20.11-1.03c1.07-3.66,1.64-5.82,2.49-9.06.15-.58.32-1.2.49-1.88l.04-.14.13-.06c2.09-.87,5.49-1.53,7.98-1.85l.41-.05-.09.41c-.9,4.01-1.78,7.27-2.68,9.98h0s-.42,1.13-.42,1.13Z"/>
    <path class="st0" d="M1255.31,80.87l-.1.41c-1.64,7.04-3,12.75-4.34,16.75-1.54,4.6-3.59,7.73-6.25,9.59-2.46,1.62-5.64,2.48-9.19,2.48-3.08,0-6.4-.86-9.61-2.5l-.26-.13c2.12-2.37,3.33-5.25,4.35-7.97l.17.04c1.92.4,3.83.6,5.67.6,2.43,0,4.62-.3,6.7-.91.95-3.13,1.79-6.47,2.67-10,.51-2.03,1.03-4.14,1.62-6.35l.04-.14.13-.06c1.63-.68,4.32-1.27,7.98-1.75l.42-.05Z"/>
    <path class="st0" d="M1256.26,59.87l.19-.17.19.17c3.16,2.81,5.25,4.8,6.54,6.63l.11.16-.11.17c-.88,1.34-2.52,3.49-6.56,6.65l-.18.14-.18-.14c-2.68-2.09-4.79-4.26-6.45-6.64l-.13-.19.15-.17c2.33-2.67,4.49-4.89,6.42-6.61Z"/>
    <path class="st0" d="M1235.85,66.84l-.13-.19.15-.17c2.32-2.66,4.48-4.88,6.42-6.61l.19-.17.19.17c3.16,2.81,5.25,4.8,6.54,6.63l.11.16-.11.17c-.88,1.34-2.52,3.49-6.56,6.65l-.18.14-.18-.14c-2.68-2.09-4.79-4.26-6.45-6.64Z"/>
    <path class="st0" d="M1243.97,55.29l-.13-.19.32-.36c1.9-2.1,3.69-4.08,5.38-5.56l.19-.16.19.16c2.82,2.36,4.63,4.2,5.69,5.78l.11.16-.11.16c-1.33,2.04-3.2,3.9-5.71,5.69l-.18.13-.17-.14c-2.4-1.89-4.23-3.75-5.58-5.67Z"/>
    <path class="st0" d="M1276.89,99.78c0,1.08-1.53,4.12-2.95,6.5-1.14,1.91-3.23,5.12-4.38,5.12-6.27,0-14.21-1.87-20.21-4.76l-.26-.12c1.59-2,2.9-4.57,3.96-7.75.03-.09.06-.19.09-.28l.2.06c5.29,1.61,11.34,2.65,16.69,2.87-1.59-5.78-3.95-13.45-6.67-22.3l-.22-.71.17-.12c2.58-1.82,5.38-3.13,9.07-4.25l.31-.09.06.31c2.44,11.85,3.91,20.91,4.12,25.51h0Z"/>
    <path class="st0" d="M1001.79,270.84v.02c.75,3.34,1.32,6.88,1.71,10.52.15,1.38-3.08,7.85-6.22,10.98-.38.38-.8.53-1.15.61-3.63.79-5.35,1.14-12.76,1.14h-34.55c-4.68,0-8.5-.41-11.34-1.2-1.02-.28-2.48-2.27-3.53-3.89-3.26-5.3-3.91-10.45-4.02-11.69,0,0-.84-9.77-1.17-13.26-3.55,1.96-6.23,3.65-8.42,5.32-2.56,1.95-4.46,3.91-5.83,5.97,2.34,3.45,6.85,5.43,12.43,5.43.3,0,1.22-.03,1.22-.03l.06.24c.51,2.2,1.27,4.37,2.26,6.44l.11.22-.2.14c-1.55,1.07-3.05,2-4.61,2.82l-.06.03h-.07c-7.29,0-14.57-3.31-16.94-7.71v-.02c-.72-1.53.86-9.95,2.18-11.73,3.25-4.96,9.61-10.44,17.05-14.67l-.32-3.55.14-.1c2.83-1.92,5.4-3.24,9.43-3.93l.33-.06v.33c.1,2.93.45,14.87.56,18.26.11,3.55.18,7.79-.16,12.31-.06.76-.16,2.18.69,3.15.7.81,2.02,1.14,4.55,1.16.36,0,40.23,0,40.23,0,8.34,0,9.8-.39,13.34-1.32.13-.03.27-.07.41-.11-1.33-5.6-3.8-13.25-6.97-21.59l-.07-.19.15-.13c2.11-1.89,4.54-3.36,7.03-4.26l.23-.08.12.21c2.39,4.01,4.26,6.93,6.05,9.48l.1.14-.08.16c-.63,1.26-1.28,2.86-1.9,4.4Z"/>
    <path class="st0" d="M931.35,231.35c-1.36-.93-3.42-2.61-6.32-6.3l-.14-.18.14-.18c2.1-2.67,4.28-4.77,6.67-6.43l.19-.13.17.15c2.67,2.32,4.91,4.47,6.63,6.39l.17.19-.17.19c-2.67,2.98-4.6,5-6.36,6.3,2.55,2.22,4.69,4.29,6.36,6.15l.18.19-.17.19c-2.82,3.15-4.81,5.23-6.66,6.52l-.16.11-.17-.11c-1.35-.88-3.51-2.51-6.68-6.54l-.14-.18.14-.18c2-2.54,4.07-4.56,6.32-6.18Z"/>
    <path class="st0" d="M1163.88,96.74c-.11-3.48-2.71-8.32-7.11-13.28-3.43-3.86-9.49-9.52-19.01-14.77l23.6-13.19,2-11.2-1.04-.89-.18.1c-12.4,7.27-23.82,14.59-31.33,20.08h-.01c-1.34,1.1-2.49,8.25-2.27,11.26v.14s8.7,6.1,8.7,6.1l2.29-.87c7.31,4.12,14.16,11.11,17.58,17.92-6.39,1.32-16.4,1.97-30.58,1.97,0,0-32.75,0-33,0-2.53-.02-3.85-.36-4.55-1.16-.85-.97-.74-2.39-.69-3.15.35-4.53.28-8.77.16-12.31-.11-3.39-.46-15.34-.55-18.26v-.33s-.34.06-.34.06c-4.03.69-6.59,2.02-9.43,3.93l-.14.1.32,3.55c-7.43,4.23-13.8,9.7-17.05,14.67-1.32,1.78-2.9,10.2-2.19,11.73v.02c2.37,4.39,9.65,7.71,16.95,7.71h.07l.06-.03c1.56-.81,3.06-1.74,4.61-2.82l.2-.14-.11-.22c-.99-2.07-1.75-4.24-2.26-6.44l-.06-.24s-.92.03-1.22.03c-5.58,0-10.09-1.98-12.43-5.43,1.36-2.06,3.27-4.02,5.83-5.97,2.18-1.67,4.86-3.36,8.42-5.32.33,3.48,1.17,13.26,1.17,13.26.11,1.24.77,6.39,4.02,11.69,1.05,1.62,2.51,3.61,3.53,3.89,2.84.79,6.66,1.2,11.34,1.2h27.32c16.28,0,26.17-.6,30.23-1.85,1.21-.38,3.4-3.86,4.28-5.34,1.38-2.3,2.86-5.21,2.86-6.16h0Z"/>
    <path class="st0" d="M1081.73,47.33c-1.36-.93-3.42-2.61-6.32-6.3l-.14-.18.14-.18c2.1-2.67,4.28-4.77,6.67-6.43l.19-.13.17.15c2.67,2.32,4.91,4.47,6.63,6.39l.17.19-.17.19c-2.67,2.98-4.6,5-6.36,6.3,2.55,2.22,4.69,4.29,6.36,6.15l.18.19-.17.19c-2.82,3.15-4.81,5.23-6.66,6.52l-.16.11-.17-.11c-1.35-.88-3.51-2.51-6.68-6.54l-.14-.18.14-.18c2-2.54,4.07-4.56,6.32-6.18Z"/>
    <path class="st0" d="M1133.87,145.01l-.13-.19.47-.51c2.12-2.32,4.13-4.5,6.1-6.26l.19-.17.19.17c3.29,2.93,5.38,4.83,6.55,6.64l.1.16-.1.16c-1.5,2.3-3.65,4.48-6.57,6.66l-.18.13-.18-.14c-2.67-2.09-4.78-4.26-6.45-6.65Z"/>
    <path class="st0" d="M1155.82,189.76v.03c-.2.93-1.5,3.56-3.04,6.11-1.31,2.17-3.08,4.8-4.1,5.01-3.23.8-12.61,1.19-28.66,1.19,0,0-175.22,0-175.28,0-1.91,0-4.02-.65-6-1.82-2.79-1.66-5.54-4.88-8.18-8.72l-.12-.18,2.25-2.76.21.1c2.9,1.43,5.97,2.43,9.14,2.96,1.92.32,3.88.47,5.82.44,0,0,164.46.05,170.85.05,2.09,0,20.94-.42,30.74-.68,1.33-11.16-2.8-19.28-4.36-21.58-1.72-2.52-3.68-3.85-5.67-3.85-1.76,0-3.54,1.09-5.16,3.16-1.5,1.92-2.74,4.54-3.5,7.41,4.16,2.57,8.67,3.85,15.98,4.56h.15c.47,2.64.63,5.33.46,8.04-.06,0-.12,0-.18,0-8.17-.47-13.61-1.93-16.83-3.77-3.35-1.92-4.98-4.59-4.98-8.16,0-4.25,1.63-9.43,4.26-13.54,3.04-4.75,6.9-7.36,10.88-7.36s7.26,2.05,9.96,5.93c2.57,3.69,6.5,11.98,5.36,27.41Z"/>
    <path class="st0" d="M1158.27,187.06c.09-2.4.06-4.72-.1-6.94,4.1-1.35,7.22-5.59,7.91-7.22.83,6.34-3.49,10.96-7.82,14.15Z"/>
    <path class="st0" d="M1316.57,187.26c-4.55,1.14-7.83,3.67-11.3,6.33-2.67,2.05-5.43,4.18-8.94,5.79-3.97,1.83-8.35,2.72-13.38,2.72h-88.44c-1.86,0-4.11-.94-6.37-2.66-.35,2.92-1.2,9.18-1.82,10.18-2.06,3.59-4.78,6.54-8.09,8.78-2.91,1.96-6.26,3.38-9.97,4.2h-.03s-.03,0-.03,0c-1.54,0-9.06-4.38-12.66-7.96l-.14-.14,1.25-3.12.25.07c2.72.79,5.6,1.17,8.8,1.17,7.83,0,14.26-5.4,17.23-14.46-2.4-4.51-6.49-10.73-10.97-16.68l-.14-.19.16-.18c2.49-2.83,5-4.77,7.9-6.12l.26-.12c1.96,3.38,4.77,11.85,8.87,15.26,1.62,1.35,3.29,1.99,5.51,1.99l87.84.02c15.12,0,16.3-5.06,42.22-14.38l.07-.03.08.02c1.51.3,2.96.45,4.42.45h4.36l.61.76-.04.14c-.9,3.34-1.58,4.77-3.17,7.72l-.08.15h-2.53l-11.74.26Z"/>
    <path class="st0" d="M1285.69,174.17c-2.61,0-5.3,1.11-8.53,2.77l-.21.11-2.14-2.63.14-.18c4.55-6.04,9.41-9.5,13.34-9.5.79,0,1.61.11,2.48.33l.53.14-3.53,9.24-.46-.09c-.61-.12-1.14-.18-1.63-.18Z"/>
    <g>
      <path class="st0" d="M1377.93,104.48v.65c0,2.27-1.46,3.75-4.31,4.32l-8.11,1.62c-.54-1.73-1.08-4.21-1.3-6.92l-4.34,5.62c-1.95,1.08-4.45,1.62-7.81,1.62-8.46,0-13.45-4.32-13.45-11.35,0-3.35,1.3-6.81,3.47-9.73l19.37-2.87.47-.08v5.98h-.46s-12.43,0-12.43,0c-.65,1.73-.98,3.35-.98,4.87,0,4.21,2.5,7.02,7.59,7.02,3.36,0,6.08-.86,8.57-2.38v-19.46c0-5.94-3.47-8.11-8.68-8.11-4.01,0-8.79.98-14.21,3.24l-.65-.86,4.56-7.13c4.23-1.41,9.12-2.05,13.46-2.05,9.44,0,15.3,4.11,15.3,14.27v21.72h3.95Z"/>
      <path class="st0" d="M1376.28,92.11v-7.04c4.14-1.32,7.3-5.6,8-7.25.84,6.43-3.61,11.09-8,14.29Z"/>
    </g>
    <g>
      <path class="st0" d="M1510.47,196.49v.65c0,2.27-1.46,3.75-4.31,4.32l-8.11,1.62c-.54-1.73-1.08-4.21-1.3-6.92l-4.34,5.62c-1.95,1.08-4.45,1.62-7.81,1.62-8.46,0-13.45-4.32-13.45-11.35,0-3.35,1.3-6.81,3.47-9.73l19.37-2.87.47-.08v5.98h-.46s-12.43,0-12.43,0c-.65,1.73-.98,3.35-.98,4.87,0,4.21,2.5,7.02,7.59,7.02,3.36,0,6.08-.86,8.57-2.38v-19.46c0-5.94-3.47-8.11-8.68-8.11-4.01,0-8.79.98-14.21,3.24l-.65-.86,4.56-7.13c4.23-1.41,9.12-2.05,13.46-2.05,9.44,0,15.3,4.11,15.3,14.27v21.72h3.95Z"/>
      <path class="st0" d="M1508.81,184.11v-7.04c4.14-1.32,7.3-5.6,8-7.25.84,6.43-3.61,11.09-8,14.29Z"/>
    </g>
    <g>
      <path class="st0" d="M1549.07,288.5v.65c0,2.27-1.46,3.75-4.31,4.32l-8.11,1.62c-.54-1.73-1.08-4.21-1.3-6.92l-4.34,5.62c-1.95,1.08-4.45,1.62-7.81,1.62-8.46,0-13.45-4.32-13.45-11.35,0-3.35,1.3-6.81,3.47-9.73l19.37-2.87.47-.08v5.98h-.46s-12.43,0-12.43,0c-.65,1.73-.98,3.35-.98,4.87,0,4.21,2.5,7.02,7.59,7.02,3.36,0,6.08-.86,8.57-2.38v-19.46c0-5.94-3.47-8.11-8.68-8.11-4.01,0-8.79.98-14.21,3.24l-.65-.86,4.56-7.13c4.23-1.41,9.12-2.05,13.46-2.05,9.44,0,15.3,4.11,15.3,14.27v21.72h3.95Z"/>
      <path class="st0" d="M1547.41,276.12v-7.04c4.14-1.32,7.3-5.6,8-7.25.84,6.43-3.61,11.09-8,14.29Z"/>
    </g>
    <g>
      <path class="st0" d="M1607.98,196.49v.65c0,2.27-1.46,3.75-4.31,4.32l-8.11,1.62c-.54-1.73-1.08-4.21-1.3-6.92l-4.34,5.62c-1.95,1.08-4.45,1.62-7.81,1.62-8.46,0-13.45-4.32-13.45-11.35,0-3.35,1.3-6.81,3.47-9.73l19.37-2.87.47-.08v5.98h-.46s-12.43,0-12.43,0c-.65,1.73-.98,3.35-.98,4.87,0,4.21,2.5,7.02,7.59,7.02,3.36,0,6.08-.86,8.57-2.38v-19.46c0-5.94-3.47-8.11-8.68-8.11-4.01,0-8.79.98-14.21,3.24l-.65-.86,4.56-7.13c4.23-1.41,9.12-2.05,13.46-2.05,9.44,0,15.3,4.11,15.3,14.27v21.72h3.95Z"/>
      <path class="st0" d="M1606.33,184.11v-7.04c4.14-1.32,7.3-5.6,8-7.25.84,6.43-3.61,11.09-8,14.29Z"/>
    </g>
    <path class="st0" d="M1476.25,90.31c4.14-1.32,7.3-5.6,8-7.25.84,6.43-3.61,11.09-8,14.29v-7.04Z"/>
    <path class="st0" d="M1477.9,104.36v1.95c0,1.95-1.45,2.68-5.11,3.24l-8.63,1.31v-34.58c-1.03-.59-3.72-1.95-7.27-1.95-7.7,0-12.26,5.56-12.26,16.75,0,7.94,4,13.51,10.96,13.51,1.84,0,3.84-.46,5.81-1.31l.47-.2v6.32l-.47.2c-1.99.83-5.18,1.8-9.39,1.8-11.07,0-17.47-7.46-17.47-19.24,0-14.48,7.81-23.67,21.27-23.78,2.82,0,5.64.33,8.35,1.19v-13.61l-3.87.08-.03-1.1c0-2.05.56-2.65,3.04-3.35l10.65-2.76v55.53h3.95Z"/>
    <path class="st0" d="M1503.32,271.68c0,14.35-7.69,23.63-21.12,23.74-2,0-3.91-.16-5.75-.51l-.51-.13v-6.21l.51.17c1.43.48,2.97.74,4.56.74,7.8,0,12.24-5.61,12.24-16.72,0-7.98-3.9-13.49-10.94-13.49-2.71,0-5.96.86-8.67,3.02v48.45s5.78-.43,5.78-.43l-.33,1.4c-.54,2.16-.87,2.91-3.14,2.91h-16.01v-1.19c0-1.16-.01-2.07,2.35-3.09l1.61-.72-.06-49.69-3.86.08-.03-1.1c0-2.05.56-2.64,3.03-3.35l10.66-2.76v8.07l3.47-6.15c2.16-1.4,5.31-2.27,8.88-2.27,11.05,0,17.33,7.45,17.33,19.21Z"/>
    <path class="st0" d="M1254.69,237.27c-.97,1.06-2.11,2.48-3.39,4.21.05,1.84.09,3.66.14,5.47.28,10.94.54,21.27.72,34.47,0,.98-1.48,3.92-2.86,6.25-.89,1.51-2.94,4.84-4.13,5.19-.44.13-3.36,1.26-10.24,1.26h0c-3.82,0-7.08-1.12-9.68-3.32l-.14-.12c2.22-3.08,3.81-6.32,4.65-8.22l.23.2c1.13,1.01,2.7,1.49,4.95,1.49,5.24,0,7.08-.49,10.43-1.37l.25-.07c-.5-6.86-.9-13.01-1.28-18.95-.54-8.21-1.04-15.96-1.73-24.54-.7-1.01-1.34-2.02-2.02-3.08-.25-.39-.5-.78-.76-1.18l-.11-.16.11-.16c1.61-2.31,4.02-4.91,6.44-6.96l.08-.07h1.88l6.61,9.49-.16.17Z"/>
    <path class="st0" d="M1228.3,279.99s-2.8,7.37-7.46,12.26c-.44.46-.89.79-1.19.88-1.72.66-4.55.98-8.65.98-3.57,0-7.06-.81-10.67-2.49l-.28-.13c2.16-2.29,3.53-5.23,4.55-8.15l.17.04c2.24.51,4.52.76,6.99.76,2.95,0,5.88-.27,8.5-.79-.48-1.4-.88-3.01-1.2-4.8-.69-4.21-1.51-10.31-1.74-14.82v-.19s.16-.09.16-.09c3.17-1.64,6.57-2.39,8.86-2.72l.33-.05v.33c.2,16.53,1.64,18.97,1.64,18.97Z"/>
    <path class="st0" d="M1182.68,270.03c-2.49.32-5.89.98-7.98,1.85l-.13.06-.04.14c-.17.66-.33,1.27-.48,1.84-.88,3.37-1.42,5.43-2.5,9.1-3.01.58-17.73,1.13-22.02,1.13-6.51,0-10.84-.43-14.11-.96,2.73-2.72,4.96-5.84,6.46-9.06,1.44-3.1,2.21-6.24,2.21-9.09,0-3.18-1.51-5.88-4.38-7.82-2.84-1.92-6.78-2.94-11.4-2.94-5.63,0-10.65,1.07-16.79,3.58l-.08.03-.05.07c-2.26,3.04-4.41,7.46-5.23,9.22l-.09.2,2.36,2.1s9.94-5.23,19.44-5.23c3.62,0,6.96.52,10.48,1.62-1.63,5.64-4.98,10.36-10.24,14.43-3.61-3.26-6.58-7.29-9.06-12.29l-.06-.12c-2.72.75-5.13,1.67-6.84,2.4l.1.21c2.45,4.92,5.18,9.11,8.12,12.46-5.15.68-23.81,1.19-32.4,1.19h-2.9c-.25-7.04-1.84-13.45-4.5-18.07-1.37-2.4-3-4.27-4.82-5.56-1.92-1.36-4.02-2.05-6.24-2.05-4.01,0-7.93,2.73-11.02,7.69-2.67,4.27-4.32,9.58-4.32,13.86,0,2.05.56,3.95,1.67,5.62,1.08,1.64,2.68,3.08,4.76,4.27,4.02,2.31,9.89,3.72,17,4.08-1.73,3.13-4.14,5.77-7,7.65-3,1.97-6.38,3.01-9.75,3.01-3.2,0-6.08-.38-8.8-1.18l-.25-.07-1.38,3.12.15.14c3.79,3.66,11.16,7.96,12.66,7.96h.07c5.21-1.22,9.87-3.79,13.49-7.42,3.5-3.51,6.04-8.03,7.36-13.08h3.83c10.86,0,33.23-1.74,39.57-5.01,2.51,1.5,5.48,2.54,8.81,3.4,8.34,2.15,20.34,1.52,29.68,1.52,7.52,0,11.33-4.5,14.35-13.84,1.17-3.62,2.24-8.3,2.62-9.79l.1-.41-.42.05ZM1059.44,279.35c.98-3.31,2.27-6.06,3.72-7.98,1.59-2.09,3.32-3.15,5.14-3.15,4.39,0,8.2,5.87,10.47,16.13-8.51-.33-14.49-1.88-19.34-5Z"/>
    <path class="st0" d="M1316.7,186.85l3.84,10.44-3.15-.22c-2.42-.11-2.97.98-3.52,3.83l-.22,1.2h22.11l.11-1.2c-.11-2.41-.55-3.17-2.97-3.94l-1.25-.34-3.75-9.91-11.2.14Z"/>
    <path class="st0" d="M1206.62,264.94c-3.67.48-6.35,1.06-7.98,1.74l-.13.06-.04.14c-.59,2.23-1.12,4.35-1.63,6.4-.88,3.51-1.71,6.83-2.65,9.95-2.08.61-4.27.91-6.7.91-1.79,0-3.75-.19-5.69-.56l-.17-.03c-1.3,3.4-2.73,5.97-4.39,7.89l.35.18c3.2,1.63,6.51,2.49,9.58,2.49,3.72,0,7.01-.94,9.52-2.72,3.48-2.46,5.2-6.9,6.42-10.91,1.05-3.42,2.19-7.96,3.84-15.19l.09-.41-.41.05Z"/>
    <path class="st0" d="M1291.01,189.02l13.26-35.93,8.9,24.19c-4.58-1.38-9.14-4.49-12.82-6.94l-3.2,8.67c1.93,1.24,5.23,3.23,7.66,4.41,4.5-2.09,10.44-4.73,18.9-7.77l-12.51-33.02-9.64,2.16-17.2,45.04c2.56-.09,4.68-.36,6.65-.81Z"/>
    <path class="st0" d="M948.42,266.11c-.7,1.64-3.84,5.9-7.97,7.23,0,0,0,0,0,0-.01,2.11-.08,4.35-.26,6.67,0,.13-.03.34-.03.57l.26-.19c4.39-3.2,8.84-7.86,8-14.29Z"/>
    <path class="st0" d="M1098.79,82.09c-.7,1.64-3.84,5.9-7.97,7.23,0,0,0,0,0,0-.01,2.11-.08,4.35-.26,6.67,0,.13-.03.34-.03.57l.26-.19c4.39-3.2,8.84-7.86,8-14.29Z"/>
    <path class="st0" d="M1650.12,254.84c0,1.61-.74,2.59-2.58,3.13l-1.38.23-22.48,57.17-8.78-2.05,11.05-19.21h-4.11l-13.72-35.96-.86-.18c-2.06-.65-2.61-1.66-2.61-3.13l.02-1.19h18.47l-.32,1.3c-.54,2.16-1.95,2.68-2.86,2.68h-1.57l10.51,29.91,10.51-29.7-3.67.02.33-1.29c.32-1.3.87-2.92,3.14-2.92h10.95l-.02,1.19Z"/>
  </g>
</svg>