<svg width="93" height="63" viewBox="0 0 93 63" fill="none" xmlns="http://www.w3.org/2000/svg">
<g clip-path="url(#clip0_3061_4340)">
<path d="M66.3048 35.7714V35.8402C66.3048 40.3845 63.0347 43.7237 57.7207 43.7237C53.4289 43.7237 50.4654 42.0024 48.4219 39.5582L52.0327 36.0808C53.6675 37.9403 55.3707 38.9725 57.7891 38.9725C59.7647 38.9725 61.1614 37.8368 61.1614 36.0466C61.1351 35.9992 61.5466 32.9143 56.4946 32.9143H54.3147L53.4969 29.5399L61.1459 21.7636L58.0806 23.7569H49.8186V19.2131H65.9298V23.2064L59.901 29.024C63.1369 29.575 66.3048 31.2959 66.3048 35.7714ZM51.3512 8.19393C51.3512 6.0122 52.8988 4.25619 55.0707 4.25619H57.5182L56.8775 4.57939C56.9066 10.5593 56.7603 11.3125 57.1381 12.1867L55.0979 12.1862C52.926 12.1862 51.3512 10.4027 51.3512 8.22146V8.19393ZM55.0707 13.1881H57.244V12.397C57.4025 12.6751 57.6157 12.891 57.9302 13.0419C58.6215 13.3742 58.1191 13.1653 77.9447 13.227V3.25479H76.8991V12.1701C76.8991 12.1701 58.771 12.2408 58.4265 12.0842C58.1275 11.948 58.0188 11.6367 57.9691 11.3049C57.8899 10.7662 57.9382 10.7563 57.9236 3.25479H55.0979C52.2065 3.25479 50.238 5.5732 50.238 8.22146V8.24898C50.238 10.8968 52.1794 13.1881 55.0707 13.1881ZM85.6514 2.19739H83.3604C83.4101 1.43044 83.0595 0 84.6029 0H85.3406V0.736576C84.6264 0.790205 84.2153 0.5605 84.2153 1.13809V1.3825H85.6514V2.19739ZM88.2995 13.3348C88.0206 13.3348 87.7371 13.2954 87.4498 13.2156L87.7244 12.1986C88.1973 12.3348 88.8019 12.3429 89.0513 11.9148C89.3423 11.4079 89.2383 11.2295 89.2538 3.25479H90.2994C90.2694 10.6989 90.3716 10.9067 90.2014 11.7695C90.0008 12.779 89.3962 13.3348 88.2995 13.3348ZM57.9236 2.19739H56.8775V1.14046H57.9236V2.19739ZM80.9392 5.8442C81.4299 4.87649 82.4601 4.33782 83.5132 4.32643V4.32453H85.2029L84.6057 4.6259V9.37188C83.7827 9.3472 83.2044 9.45114 82.4423 9.20625C81.4018 8.87498 80.6969 8.06436 80.6969 6.88784C80.6969 6.50958 80.7775 6.16123 80.9392 5.8442ZM80.9392 9.58972C82.3007 10.5721 84.1572 10.4098 84.2542 10.4283L84.6057 9.68274C84.549 10.4056 84.8021 11.4155 84.1352 11.9214C83.5713 12.3481 82.566 12.3343 81.9455 12.1853C81.6886 12.1241 81.3943 12.0182 81.0629 11.8687L80.7362 12.8858C81.399 13.1331 82.0326 13.3348 82.7361 13.3348C83.756 13.3348 84.4965 13.0904 84.9587 12.602C85.4203 12.1127 85.6514 11.4544 85.6514 10.6267V3.25479C84.3644 3.29561 83.3881 3.12333 82.2135 3.53243C79.0663 4.62828 79.0035 8.1944 80.9392 9.58972ZM55.8319 2.19739H54.7858V1.14046H55.8319V2.19739ZM45.0075 3.2434H46.0873V13.1677H45.2034L38.2485 4.241L38.8634 5.68758V13.1677H37.7831V3.2434H38.8212L45.4626 11.7814L45.0075 10.5636V3.2434ZM4.22244 13.2384L0 3.2434H1.23453C1.29734 3.39717 4.66254 11.6338 5.00374 12.4691L4.89688 11.3785L8.23443 3.2434H9.42631L5.20434 13.2384H4.22244ZM22.934 3.2434H24.042V13.1672H22.934V3.2434ZM34.819 8.2338C34.819 10.4881 33.2203 12.3025 30.9758 12.3025C28.7312 12.3025 27.1039 10.4597 27.1039 8.20579V8.17684C27.1039 5.92298 28.7036 4.10859 30.9477 4.10859C33.1922 4.10859 34.819 5.95146 34.819 8.20579V8.2338ZM30.9758 3.07349C27.9879 3.07349 25.9538 5.46926 25.9538 8.20579V8.2338C25.9538 10.9699 27.9598 13.3376 30.9477 13.3376C33.9356 13.3376 35.9697 10.9418 35.9697 8.20579V8.17684C35.9697 5.44126 33.9637 3.07349 30.9758 3.07349ZM21.1056 10.4739V10.5019C21.1056 12.2029 19.7028 13.3091 17.7531 13.3091C16.1961 13.3091 14.9198 12.7847 13.7415 11.7211L14.4286 10.8991C15.4527 11.8346 16.4346 12.302 17.7957 12.302C19.1142 12.302 19.9836 11.5939 19.9836 10.6153V10.5873C19.9836 7.81757 14.1343 9.64477 14.1343 5.83755V5.80955C14.1343 4.25002 15.4949 3.1015 17.3608 3.1015C18.7912 3.1015 19.8153 3.51297 20.8113 4.32121L20.1664 5.18545C17.9401 3.35161 15.2423 4.05401 15.2423 5.71036V5.73884C15.2423 6.67427 15.7471 7.1987 17.9077 7.66665C20.0961 8.14884 21.1056 8.95708 21.1056 10.4739ZM12.0397 13.1677H10.9317V3.24388H12.0397V13.1677ZM76.534 14.2835H77.5801V15.3404H76.534V14.2835ZM74.4422 14.2835H75.4883V15.3404H74.4422V14.2835ZM8.76921 38.7314H17.8609V43.3108H0.216067V39.1106C9.03261 31.5342 12.2745 30.0534 12.2745 26.7521C12.2745 24.7208 10.9458 23.6193 9.07245 23.6193C7.23284 23.6193 5.97253 24.6516 4.20135 26.8546L0.52259 23.8604C2.87308 20.6241 5.1556 18.8681 9.41319 18.8681C14.3523 18.8681 17.6223 21.7945 17.6223 26.3046V26.3729C17.6223 32.0282 13.3942 33.8512 6.14407 39.7675L5.1317 40.5572L8.76921 38.7314ZM87.5163 31.3306C87.5163 35.4615 84.587 38.8354 80.3627 38.8354C76.1388 38.8354 73.1416 35.3927 73.1416 31.2613V31.1925C73.1416 27.0616 76.0714 23.6881 80.2947 23.6881C84.5181 23.6881 87.5163 27.1309 87.5163 31.2613V31.3306ZM80.3627 18.7998C73.0056 18.7998 67.6574 24.4109 67.6574 31.2613V31.3306C67.6574 38.1814 72.9367 43.7237 80.2947 43.7237C87.6527 43.7237 93 38.1121 93 31.2613V31.1925C93 24.3421 87.7202 18.7998 80.3627 18.7998Z" fill="#F4F3E5"/>
<path d="M32.1137 17.2148L33.3215 18.3862L32.1624 19.6063L30.9551 18.435" fill="#F4F3E5"/>
<path d="M34.8774 18.435L36.0843 19.6063L37.2434 18.3862L36.036 17.2148" fill="#F4F3E5"/>
<path d="M33.1772 19.9731L34.1179 20.8848L35.0197 19.9347L34.0799 19.0229" fill="#F4F3E5"/>
<path d="M36.6245 20.4946L37.5647 21.4068L38.4665 20.4566L37.5263 19.5444" fill="#F4F3E5"/>
<path d="M31.6401 21.4257L32.5803 22.3379L33.4821 21.3878L32.5428 20.4756" fill="#F4F3E5"/>
<path d="M34.7949 21.5361L35.7346 22.4483L36.6369 21.4981L35.6967 20.5859" fill="#F4F3E5"/>
<path d="M33.5605 22.6292L34.2219 23.2708L34.8565 22.6021L34.1952 21.9604" fill="#F4F3E5"/>
<path d="M36.0557 23.1331L36.717 23.7747L37.3521 23.106L36.6907 22.4648" fill="#F4F3E5"/>
<path d="M41.5039 18.0488L43.5554 17.6679L43.9309 19.7415L41.8794 20.1224L41.5039 18.0488Z" fill="#F4F3E5"/>
<path d="M38.8267 18.9175L40.4725 18.6123L40.7734 20.2761L39.1275 20.5813L38.8267 18.9175Z" fill="#F4F3E5"/>
<path d="M42.0083 21.2358L43.6541 20.9303L43.9553 22.594L42.3096 22.8996L42.0083 21.2358Z" fill="#F4F3E5"/>
<path d="M39.7388 21.48L41.0204 21.2422L41.2547 22.5372L39.9731 22.775L39.7388 21.48Z" fill="#F4F3E5"/>
<path d="M42.2319 23.9404L43.5136 23.7027L43.7479 24.9981L42.4663 25.2359L42.2319 23.9404Z" fill="#F4F3E5"/>
<path d="M37.8184 22.0063L39.1004 21.7685L39.3348 23.0639L38.0527 23.3018L37.8184 22.0063Z" fill="#F4F3E5"/>
<path d="M40.1445 23.7031L41.4262 23.4654L41.6605 24.7608L40.3789 24.9986L40.1445 23.7031Z" fill="#F4F3E5"/>
<path d="M38.5112 23.8599L39.413 23.6924L39.578 24.6037L38.6762 24.7711L38.5112 23.8599Z" fill="#F4F3E5"/>
<path d="M40.2432 25.7437L41.1445 25.5768L41.309 26.4876L40.4076 26.6545L40.2432 25.7437Z" fill="#F4F3E5"/>
<path d="M47.6061 24.8413L46.7095 26.7454L48.5936 27.6509L49.4893 25.7473" fill="#F4F3E5"/>
<path d="M44.9319 23.9619L44.2129 25.4892L45.7239 26.2158L46.4429 24.6885" fill="#F4F3E5"/>
<path d="M46.1682 27.7241L45.4492 29.2519L46.9607 29.978L47.6797 28.4507" fill="#F4F3E5"/>
<path d="M44.188 26.5786L43.6284 27.768L44.8053 28.3337L45.3654 27.1443" fill="#F4F3E5"/>
<path d="M44.7857 30.0493L44.2256 31.2387L45.402 31.8044L45.9626 30.615" fill="#F4F3E5"/>
<path d="M42.3257 25.8701L41.7656 27.0595L42.9425 27.6252L43.5026 26.4358" fill="#F4F3E5"/>
<path d="M43.2305 28.6221L42.6704 29.8114L43.8468 30.3771L44.4074 29.1878" fill="#F4F3E5"/>
<path d="M41.8151 27.7832L41.4209 28.6199L42.2486 29.0176L42.6428 28.1814" fill="#F4F3E5"/>
<path d="M41.7339 31.1685L42.127 30.3319L42.9544 30.7306L42.5613 31.5671L41.7339 31.1685Z" fill="#F4F3E5"/>
<path d="M48.6208 33.958L46.792 34.9717L47.7955 36.8203L49.6243 35.8066" fill="#F4F3E5"/>
<path d="M46.9621 31.6636L45.4951 32.477L46.2999 33.9597L47.7669 33.1462" fill="#F4F3E5"/>
<path d="M45.7868 35.4458L44.3193 36.2593L45.1245 37.7424L46.5915 36.9289" fill="#F4F3E5"/>
<path d="M44.8439 33.3457L43.7017 33.9793L44.3278 35.1335L45.471 34.5004" fill="#F4F3E5"/>
<path d="M43.3194 36.5137L42.1768 37.1473L42.8034 38.3015L43.9461 37.6684" fill="#F4F3E5"/>
<path d="M43.7433 31.6704L42.6006 32.3035L43.2272 33.4587L44.3704 32.8251" fill="#F4F3E5"/>
<path d="M42.8844 34.437L41.7417 35.0706L42.3683 36.2248L43.511 35.5917" fill="#F4F3E5"/>
<path d="M42.2218 32.9199L41.418 33.3656L41.859 34.1776L42.6623 33.7324" fill="#F4F3E5"/>
<path d="M40.9986 35.1743L40.1948 35.62L40.6354 36.432L41.4392 35.9868" fill="#F4F3E5"/>
<path d="M41.8379 43.7778L42.0932 41.6851L44.1636 41.9441L43.9083 44.0368L41.8379 43.7778Z" fill="#F4F3E5"/>
<path d="M42.2847 40.582L42.4901 38.9034L44.1506 39.1118L43.9452 40.7904L42.2847 40.582Z" fill="#F4F3E5"/>
<path d="M39.1411 42.9541L39.3466 41.2755L41.0076 41.4839L40.8021 43.1626L39.1411 42.9541Z" fill="#F4F3E5"/>
<path d="M40.0068 40.3726L40.1664 39.0655L41.4595 39.2274L41.3 40.5344L40.0068 40.3726Z" fill="#F4F3E5"/>
<path d="M36.9351 42.0386L37.0946 40.7315L38.3878 40.8934L38.2282 42.2005L36.9351 42.0386Z" fill="#F4F3E5"/>
<path d="M40.0825 38.3589L40.2425 37.0514L41.5361 37.2137L41.3761 38.5212L40.0825 38.3589Z" fill="#F4F3E5"/>
<path d="M37.7847 40.0933L37.9446 38.7863L39.2382 38.9486L39.0782 40.2556L37.7847 40.0933Z" fill="#F4F3E5"/>
<path d="M38.5576 38.1353L38.67 37.2158L39.5793 37.3298L39.467 38.2492L38.5576 38.1353Z" fill="#F4F3E5"/>
<path d="M36.2583 39.2388L36.3706 38.3194L37.2804 38.4333L37.1681 39.3527L36.2583 39.2388Z" fill="#F4F3E5"/>
<path d="M35.9261 45.7995L34.3972 44.3647L32.978 45.91L34.5069 47.3443" fill="#F4F3E5"/>
<path d="M35.6444 16.2687L34.1155 14.834L32.6963 16.3793L34.2252 17.8135" fill="#F4F3E5"/>
<path d="M37.5574 43.4849L36.3308 42.334L35.1924 43.5736L36.4189 44.7241" fill="#F4F3E5"/>
<path d="M33.6355 43.5508L32.4085 42.3999L31.27 43.6396L32.4966 44.79" fill="#F4F3E5"/>
<path d="M35.3097 41.9844L34.3546 41.0884L33.4683 42.0532L34.423 42.9493" fill="#F4F3E5"/>
<path d="M31.8547 41.5206L30.9 40.6245L30.0137 41.5894L30.9689 42.4859" fill="#F4F3E5"/>
<path d="M36.5363 40.4004L35.5811 39.5044L34.6948 40.4693L35.6495 41.3653" fill="#F4F3E5"/>
<path d="M33.6677 40.4488L32.7125 39.5527L31.8262 40.5176L32.7809 41.4136" fill="#F4F3E5"/>
<path d="M34.8829 39.3353L34.2112 38.7046L33.5879 39.3837L34.2595 40.014" fill="#F4F3E5"/>
<path d="M32.3804 38.8729L31.7088 38.2427L31.085 38.9214L31.7566 39.5516" fill="#F4F3E5"/>
<path d="M24.561 42.395L26.6065 41.9799L27.0156 44.047L24.9702 44.4621L24.561 42.395Z" fill="#F4F3E5"/>
<path d="M27.7095 41.8081L29.3501 41.4752L29.6783 43.1336L28.0377 43.4666L27.7095 41.8081Z" fill="#F4F3E5"/>
<path d="M24.4922 39.542L26.1327 39.2087L26.4613 40.8671L24.8208 41.2004L24.4922 39.542Z" fill="#F4F3E5"/>
<path d="M27.1914 39.5557L28.469 39.2964L28.7245 40.5877L27.447 40.847L27.1914 39.5557Z" fill="#F4F3E5"/>
<path d="M29.1025 38.9966L30.3801 38.7373L30.6358 40.0291L29.3582 40.2884L29.1025 38.9966Z" fill="#F4F3E5"/>
<path d="M26.748 37.3389L28.0256 37.0796L28.2812 38.3709L27.0036 38.6302L26.748 37.3389Z" fill="#F4F3E5"/>
<path d="M28.8335 37.4634L29.7324 37.2813L29.9119 38.1897L29.013 38.3718L28.8335 37.4634Z" fill="#F4F3E5"/>
<path d="M27.0718 35.6079L27.9702 35.4254L28.1501 36.3337L27.2517 36.5162L27.0718 35.6079Z" fill="#F4F3E5"/>
<path d="M20.8044 37.358L21.6692 35.4396L19.7705 34.5654L18.9058 36.4838" fill="#F4F3E5"/>
<path d="M23.4915 38.1927L24.1852 36.6536L22.6624 35.9526L21.9683 37.4918" fill="#F4F3E5"/>
<path d="M22.1932 34.452L22.8873 32.9129L21.3641 32.2114L20.6704 33.751" fill="#F4F3E5"/>
<path d="M23.0059 35.0195L23.5457 33.8208L24.7308 34.3681L24.1909 35.5668L23.0059 35.0195Z" fill="#F4F3E5"/>
<path d="M25.779 38.5606L26.3194 37.3622L25.1337 36.8164L24.5933 38.0148" fill="#F4F3E5"/>
<path d="M22.3545 31.5581L22.8946 30.3595L24.0796 30.907L23.5395 32.1056L22.3545 31.5581Z" fill="#F4F3E5"/>
<path d="M24.8818 35.6948L25.4219 34.4962L26.6069 35.0437L26.0668 36.2423L24.8818 35.6948Z" fill="#F4F3E5"/>
<path d="M23.9312 32.9609L24.4716 31.7625L25.6564 32.3104L25.1159 33.5088L23.9312 32.9609Z" fill="#F4F3E5"/>
<path d="M26.5452 34.3191L26.9253 33.4762L26.091 33.0918L25.7109 33.9352" fill="#F4F3E5"/>
<path d="M26.1897 31.7732L26.5698 30.9298L25.7356 30.5459L25.3555 31.3893" fill="#F4F3E5"/>
<path d="M19.6389 28.2594L21.4514 27.2153L20.4174 25.3838L18.6055 26.4279" fill="#F4F3E5"/>
<path d="M21.336 30.5263L22.7898 29.6886L21.9602 28.2192L20.5068 29.0574" fill="#F4F3E5"/>
<path d="M22.4487 26.7245L23.9026 25.8868L23.073 24.417L21.6196 25.2551" fill="#F4F3E5"/>
<path d="M23.4261 28.8086L24.5575 28.156L23.9122 27.0122L22.7803 27.6643" fill="#F4F3E5"/>
<path d="M24.8988 25.6162L26.0302 24.9636L25.3848 23.8198L24.2529 24.4719" fill="#F4F3E5"/>
<path d="M24.5531 30.4653L25.6855 29.8132L25.0401 28.6689L23.9077 29.3215" fill="#F4F3E5"/>
<path d="M25.3676 27.685L26.4994 27.0329L25.8541 25.8887L24.7222 26.5412" fill="#F4F3E5"/>
<path d="M26.0552 29.1906L26.8515 28.7317L26.3974 27.9272L25.6011 28.3857" fill="#F4F3E5"/>
<path d="M27.2403 26.9157L28.0371 26.4568L27.5829 25.6523L26.7861 26.1113" fill="#F4F3E5"/>
<path d="M23.9634 20.1943L24.1847 18.0981L26.2585 18.3226L26.0372 20.4188L23.9634 20.1943Z" fill="#F4F3E5"/>
<path d="M24.0254 23.0347L24.2031 21.3533L25.8673 21.5336L25.6896 23.215L24.0254 23.0347Z" fill="#F4F3E5"/>
<path d="M27.1284 20.6099L27.3062 18.928L28.9703 19.1083L28.7926 20.7902L27.1284 20.6099Z" fill="#F4F3E5"/>
<path d="M26.7163 22.8789L26.8548 21.5694L28.1504 21.7099L28.0119 23.0194L26.7163 22.8789Z" fill="#F4F3E5"/>
<path d="M29.7563 21.1562L29.8943 19.8467L31.1899 19.9866L31.052 21.2962L29.7563 21.1562Z" fill="#F4F3E5"/>
<path d="M26.6699 24.8887L26.8084 23.5792L28.104 23.7197L27.9655 25.0292L26.6699 24.8887Z" fill="#F4F3E5"/>
<path d="M28.9409 23.1143L29.0794 21.8047L30.375 21.9453L30.2365 23.2548L28.9409 23.1143Z" fill="#F4F3E5"/>
<path d="M28.6255 24.7422L28.7228 23.821L29.6344 23.9198L29.537 24.841L28.6255 24.7422Z" fill="#F4F3E5"/>
<path d="M30.9058 23.5981L31.0026 22.6769L31.9146 22.7752L31.8178 23.6964L30.9058 23.5981Z" fill="#F4F3E5"/>
<path d="M40.7482 32.384C39.6562 31.7471 38.1367 31.562 36.5624 32.1457C35.8743 32.4091 35.1853 32.869 34.6042 33.3194C34.2381 31.0722 34.4167 28.9863 34.502 27.9617C34.5025 27.956 34.509 27.9531 34.5142 27.9565C35.3002 28.4572 35.0799 29.8563 34.9149 30.2564C34.9116 30.2644 34.9233 30.2697 34.929 30.263C35.9085 29.0917 35.43 27.7984 35.2289 27.471C35.1924 27.4116 35.4141 27.5915 35.5959 27.8274C36.2807 28.7101 35.9643 29.7016 36.0407 29.6783C36.0426 29.6778 36.0449 29.6783 36.0459 29.6759C36.501 28.7718 36.3547 27.6252 35.4188 26.797C35.3761 26.7605 35.543 26.8155 35.5959 26.8345C36.3941 27.115 36.8103 27.9475 36.8047 28.6897C36.8047 28.853 37.3437 27.2954 36.0407 26.5037C35.797 26.3561 35.5467 26.275 35.3831 26.255C35.2557 26.2413 36.081 26.1155 36.6608 26.5132C37.009 26.751 37.1004 27.0386 37.0915 26.9579C36.9903 25.9152 35.7764 25.5033 35.0405 25.816C34.9627 25.8554 35.3302 25.3039 36.0407 25.3467C36.1776 25.3547 36.3041 25.3846 36.4053 25.4335C36.4124 25.4368 36.4189 25.4273 36.4138 25.4212C35.8771 24.7999 34.9941 24.7871 34.5254 25.5056C34.5221 25.5104 34.5151 25.5104 34.5123 25.5056C34.3347 25.1834 34.1861 24.771 34.1219 24.3818C34.1064 24.2821 34.0736 24.8635 33.7174 25.5056C33.7146 25.5104 33.708 25.5104 33.7048 25.5056C33.2347 24.7852 32.3526 24.7994 31.8164 25.4212C31.8108 25.4273 31.8173 25.4368 31.8248 25.4335C32.1829 25.2612 32.8592 25.312 33.1981 25.8042C33.2023 25.8108 33.1962 25.8194 33.1887 25.816C32.4304 25.4933 31.239 25.9314 31.1382 26.9579C31.1377 26.9665 31.149 26.9712 31.1532 26.9636C31.1869 26.8995 31.2704 26.7629 31.4264 26.6243C32.0329 26.0832 32.9867 26.2398 32.8466 26.255C32.474 26.3015 31.7091 26.6376 31.4264 27.4055C31.1954 28.0329 31.418 28.8592 31.4264 28.6546C31.4339 27.9565 31.829 27.0215 32.8044 26.7833C32.8119 26.7814 32.8175 26.7918 32.8114 26.797C31.2957 28.1463 32.2124 29.8031 32.1984 29.6721C32.1515 29.1373 32.1126 28.1824 32.9886 27.4615C32.9952 27.4562 33.0055 27.4634 33.0008 27.471C32.7997 27.7984 32.3216 29.0917 33.3007 30.263C33.3064 30.2697 33.3181 30.2644 33.3148 30.2564C33.1503 29.8563 32.93 28.4572 33.7155 27.9565C33.7207 27.9531 33.7272 27.956 33.7277 27.9617C33.8135 28.9863 33.9921 31.0722 33.6255 33.3194C32.3807 32.356 31.1551 31.7243 29.5765 31.7945C28.7826 31.8297 28.0294 32.0636 27.4815 32.384C27.4618 32.3954 27.4763 32.4243 27.4974 32.4177C29.7935 31.6745 31.7808 32.5762 33.6284 34.1329C32.6952 34.9563 31.8483 35.8182 31.3561 36.0783C31.2413 35.9193 31.0421 35.8277 30.8242 35.8756C30.4136 35.9672 30.3156 36.4878 30.5383 36.7118C31.3449 37.5267 32.6061 35.9098 34.1149 34.5581C35.5669 35.8576 36.8862 37.5263 37.6914 36.7118C37.7556 36.6468 37.8302 36.4323 37.7917 36.2619C37.6947 35.8367 37.1365 35.7138 36.8736 36.0783C36.4002 35.8367 35.5692 34.9862 34.6014 34.1329C36.4621 32.5624 38.4277 31.6859 40.7318 32.4177C40.7534 32.4243 40.7679 32.3954 40.7482 32.384Z" fill="#F4F3E5"/>
<path d="M33.4011 54.6301H33.9996V49.2026H33.4011V54.6301ZM17.7182 54.025L16.7832 51.7038C17.7506 50.8746 18.9509 51.027 19.7233 51.7038L18.7882 54.025H17.7182ZM14.4186 54.025C13.9481 54.0108 13.6172 54.0701 13.1804 53.9311C11.5629 53.4137 12.0025 51.1366 13.8126 51.1366H14.4186V54.025ZM31.059 54.025C30.0949 53.9951 29.2265 54.1973 28.7845 53.4204C28.8717 53.0322 28.8239 52.6838 28.837 50.9022H28.2385V52.9515C28.2385 54.4555 26.4462 54.3577 26.0234 53.4546C25.8538 53.0915 25.9573 52.9396 25.9264 50.9022H25.3274V52.997C25.3274 53.6805 24.9051 54.025 24.3174 54.025H23.1578V50.9022H22.5593V54.025H19.4168L20.4643 51.4921C19.87 50.9662 19.0427 50.4712 18.2497 50.4712C17.444 50.4712 16.6327 50.9449 16.0347 51.4921L17.0897 54.025H15.0172V50.5244H14.0596C12.706 50.5244 11.5826 51.3122 11.5826 52.6036C11.5826 54.9021 14.3671 54.6187 14.4186 54.6301C14.4093 54.7047 14.4932 55.2239 14.1491 55.4849C13.8276 55.7288 13.2535 55.7217 12.8959 55.6363C12.7487 55.6007 12.5804 55.5404 12.3911 55.4545L12.2041 56.0368C12.5837 56.1783 12.946 56.2941 13.3486 56.2941C14.4894 56.2941 15.0172 55.7179 15.0172 54.7436V54.6301C24.7856 54.568 24.4969 54.7725 25.0921 54.4412C25.319 54.3155 25.5022 54.1465 25.6419 53.9344C25.7867 54.1764 25.9836 54.3658 26.2329 54.502C26.7565 54.7863 27.5551 54.7597 28.0402 54.5167C28.2919 54.3909 28.4855 54.1968 28.62 53.9344C28.851 54.334 29.2096 54.5907 29.9295 54.623V54.6301H31.6576V49.2026H31.059V54.025ZM84.7663 53.7569C84.2367 55.0103 82.4135 55.0464 81.8858 53.7379C81.7306 53.3539 81.7306 52.8988 81.8858 52.5092C82.5246 50.906 84.8901 51.3663 84.8901 53.1257C84.8901 53.352 84.8488 53.5628 84.7663 53.7569ZM78.9602 53.7569C78.5023 54.8342 77.1225 54.9937 76.4011 54.241C75.8092 53.6211 75.8265 52.6117 76.3979 52.0028C76.8633 51.5021 77.5808 51.4214 78.1297 51.6506C78.9949 52.0161 79.2831 52.997 78.9602 53.7569ZM64.4036 54.025C63.9457 54.0108 63.6138 54.0715 63.1798 53.9273C61.6036 53.4028 61.9795 51.129 63.8121 51.129H64.4036V54.025ZM87.3587 54.025H85.3016C85.9437 52.5979 84.9463 50.925 83.3035 50.925C81.7906 50.925 80.7323 52.4949 81.3505 54.025H79.495C80.1207 52.6397 79.1725 50.925 77.4974 50.925C75.9835 50.925 74.9262 52.4954 75.5444 54.025H73.6438V49.2026H73.0453V54.025H71.1377C71.1049 53.4038 71.2769 52.4845 70.7633 51.904C70.415 51.5063 70.0274 51.3825 69.4987 51.3825H66.8502L67.9769 49.2026H67.3259L66.1766 51.3749C66.2137 51.616 66.2859 51.8044 66.4461 51.9871C69.4397 52.0127 69.6351 51.9235 69.989 52.0744C70.2664 52.1907 70.4356 52.4029 70.4942 52.6606C70.5655 52.9709 70.5294 53.2044 70.5392 54.025H65.0021V50.5244H64.0591C62.473 50.5244 61.59 51.4798 61.59 52.5808C61.59 53.9605 62.6858 54.6301 64.0591 54.6301H75.9334C76.814 55.5907 78.2965 55.5091 79.106 54.6301H81.7395C82.6174 55.5879 84.0984 55.5124 84.9126 54.6301H87.9576V49.2026H87.3587V54.025ZM89.7007 54.6301H90.2992V49.2026H89.7007V54.6301ZM45.5978 55.9619H46.2128V55.3406H45.5978V55.9619ZM51.4499 54.025L50.5144 51.7038C51.4743 50.8808 52.6727 51.0199 53.455 51.7038L52.5199 54.025H51.4499ZM55.692 54.025H53.1484L54.1955 51.4921C53.5998 50.9634 52.7697 50.4712 51.9809 50.4712C51.1724 50.4712 50.3635 50.9473 49.7659 51.4921L50.8209 54.025H48.5918V50.5244H47.9928V54.7588C47.9928 55.2936 47.9544 55.689 47.4243 55.689C47.3011 55.689 47.2359 55.678 47.1178 55.6434L46.9608 56.2262C47.4609 56.3648 48.0514 56.3183 48.3448 55.8817C48.6101 55.4863 48.5787 54.9405 48.5918 54.6301H56.291V49.2026H55.692V54.025ZM10.251 51.0536C9.58549 50.3179 8.81497 50.5847 8.5525 50.5244V51.129C8.98932 51.1461 9.19132 51.0801 9.48754 51.2235C9.73688 51.345 9.91311 51.541 9.98529 51.8172C10.0664 52.1347 10.0209 52.3824 10.034 54.025H7.22798V54.6301H10.6325C10.6077 52.3378 10.6944 52.0948 10.5388 51.5827C10.4765 51.3763 10.3804 51.1997 10.251 51.0536ZM43.4095 55.969H44.0244V55.3477H43.4095V55.969ZM39.7701 54.025C39.3132 54.0108 38.9809 54.0715 38.5464 53.9273C36.9683 53.4024 37.3484 51.129 39.1786 51.129H39.7701V54.025ZM46.2048 50.5244H45.6063V54.025H43.3467V50.5244H42.7482V54.025H40.3686V50.5244C39.6159 50.5481 38.4929 50.3701 37.6301 51.11C36.4068 52.1594 36.7222 54.6301 39.4261 54.6301H46.2048V50.5244ZM42.3611 55.969H42.976V55.3477H42.3611V55.969ZM2.36062 49.2026H1.7457V49.8239H2.36062V49.2026ZM63.9508 49.2026H63.3359V49.8239H63.9508V49.2026ZM40.3658 49.2026H39.7509V49.8239H40.3658V49.2026ZM5.89174 55.969H6.50666V55.3477H5.89174V55.969ZM39.3174 49.2026H38.7024V49.8239H39.3174V49.2026ZM3.40908 49.2026H2.79416V49.8239H3.40908V49.2026ZM4.84328 55.969H5.4582V55.3477H4.84328V55.969ZM2.81338 54.025C2.35734 54.0108 2.02316 54.0715 1.59009 53.9273C0.0148243 53.4043 0.386965 51.129 2.22236 51.129H2.81338V54.025ZM6.38996 50.5244H5.79144V54.025H3.4119V50.5244C2.69433 50.5467 2.12393 50.4518 1.45136 50.6791C0.887527 50.8708 0.426804 51.2235 0.175585 51.7645C-0.0859442 52.3274 -0.0386064 53.044 0.202301 53.5034C0.63584 54.3321 1.54276 54.6301 2.46889 54.6301H6.38996V50.5244ZM58.0341 54.6301H58.6326V49.2026H58.0341V54.6301ZM64.9988 49.2026H64.3839V49.8239H64.9988V49.2026Z" fill="#F4F3E5"/>
<path d="M0.586426 58.6055H1.33774V60.7782L3.37139 58.6055H4.29377L2.51649 60.4635L4.37298 62.9262H3.46325L2.00375 60.9818L1.33774 61.6733V62.9262H0.586426" fill="#F4F3E5"/>
<path d="M5.05811 58.6055H5.80942V62.9262H5.05811V58.6055Z" fill="#F4F3E5"/>
<path d="M6.96631 58.6055H7.66278L9.95328 61.5931V58.6055H10.6919V62.9262H10.0629L7.70543 59.8522V62.9262H6.96631" fill="#F4F3E5"/>
<path d="M11.6221 60.778V60.7656C11.6221 59.5559 12.5384 58.5308 13.8268 58.5308C14.572 58.5308 15.0304 58.741 15.47 59.1174L14.9938 59.6916C13.8362 58.6959 12.4104 59.413 12.4104 60.7533V60.7656C12.4104 61.6546 12.9902 62.3086 13.8633 62.3086C14.2669 62.3086 14.6334 62.179 14.8959 61.9816V61.1728H13.8024V60.5127H15.6228V62.3271C14.0939 63.6498 11.6221 62.9701 11.6221 60.778Z" fill="#F4F3E5"/>
<path d="M18.2547 62.2347C20.2485 62.2347 20.2246 59.2965 18.2547 59.2965H17.412V62.2347H18.2547ZM16.6606 58.6055H18.2547C21.3049 58.6055 21.2637 62.9262 18.2547 62.9262H16.6606V58.6055Z" fill="#F4F3E5"/>
<path d="M24.9134 60.778V60.7656C24.9134 59.9261 24.3088 59.2289 23.4596 59.2289C22.6108 59.2289 22.0183 59.9137 22.0183 60.7533V60.7656C22.0183 61.6052 22.6229 62.3029 23.4717 62.3029C24.321 62.3029 24.9134 61.6175 24.9134 60.778ZM21.2305 60.778V60.7656C21.2305 59.5497 22.1589 58.5308 23.4717 58.5308C24.785 58.5308 25.7013 59.5374 25.7013 60.7533V60.7656C25.7013 61.9816 24.7733 63 23.4596 63C22.1468 63 21.2305 61.9939 21.2305 60.778Z" fill="#F4F3E5"/>
<path d="M26.6343 58.6055H27.4343L28.7354 60.6486L30.036 58.6055H30.8361V62.9262H30.0848V59.8276L28.7354 61.8645H28.711L27.3734 59.8399V62.9262H26.6343" fill="#F4F3E5"/>
<path d="M37.2635 60.778V60.7656C37.2635 59.9261 36.6589 59.2289 35.8097 59.2289C34.9609 59.2289 34.3684 59.9137 34.3684 60.7533V60.7656C34.3684 61.6052 34.973 62.3029 35.8218 62.3029C36.6711 62.3029 37.2635 61.6175 37.2635 60.778ZM33.5806 60.778V60.7656C33.5806 59.5497 34.509 58.5308 35.8218 58.5308C37.1351 58.5308 38.0514 59.5374 38.0514 60.7533V60.7656C38.0514 61.9816 37.1229 63 35.8097 63C34.4969 63 33.5806 61.9939 33.5806 60.778Z" fill="#F4F3E5"/>
<path d="M38.9854 58.6055H42.1673V59.297H39.7367V60.4759H41.8926V61.1669H39.7367V62.9262H38.9854" fill="#F4F3E5"/>
<path d="M44.5381 62.2965L44.9899 61.7531C45.3991 62.1114 45.8082 62.315 46.3397 62.315C46.8037 62.315 47.0971 62.099 47.0971 61.7716V61.7597C47.0971 60.7944 44.7087 61.4531 44.7087 59.8086V59.7963C44.7087 58.4703 46.5417 58.1319 47.72 59.0868L47.317 59.6606C46.3336 58.9197 45.4605 59.2111 45.4605 59.7289V59.7412C45.4605 60.6928 47.8484 60.091 47.8484 61.6852V61.6975C47.8484 63.2124 45.7272 63.3686 44.5381 62.2965Z" fill="#F4F3E5"/>
<path d="M51.226 61.2101L50.4869 59.4817L49.7539 61.2101H51.226ZM50.1509 58.5742H50.8469L52.7282 62.9258H51.9342L51.5007 61.8826H49.4788L49.0396 62.9258H48.2695L50.1509 58.5742Z" fill="#F4F3E5"/>
<path d="M53.1704 61.0933V58.6055H53.9217V61.0625C53.9217 61.865 54.3309 62.2969 55.0025 62.2969C55.6685 62.2969 56.0777 61.8897 56.0777 61.0933V58.6055H56.829V61.0563C56.829 62.3462 56.1082 62.9945 54.9903 62.9945C53.8786 62.9945 53.1704 62.3462 53.1704 61.0933Z" fill="#F4F3E5"/>
<path d="M59.5222 62.2347C61.5161 62.2347 61.4926 59.2965 59.5222 59.2965H58.6795V62.2347H59.5222ZM57.9282 58.6055H59.5222C62.5725 58.6055 62.5312 62.9262 59.5222 62.9262H57.9282V58.6055Z" fill="#F4F3E5"/>
<path d="M62.7461 58.6055H63.4974V62.9262H62.7461V58.6055Z" fill="#F4F3E5"/>
<path d="M69.0625 61.2101L68.3233 59.4817L67.5903 61.2101H69.0625ZM67.9873 58.5742H68.6833L70.5646 62.9258H69.7707L69.3371 61.8826H67.3152L66.876 62.9258H66.106L67.9873 58.5742Z" fill="#F4F3E5"/>
<path d="M73.1253 60.7473C73.6629 60.7473 74.005 60.4635 74.005 60.025V60.0126C74.005 59.5499 73.6751 59.2965 73.1192 59.2965H72.0262V60.7473H73.1253ZM71.2749 58.6055H73.1801C74.0838 58.6055 74.7685 59.0654 74.7685 59.9695C74.7512 60.0169 74.8576 60.9699 73.7482 61.2907L74.9026 62.9262H74.0167L72.9664 61.4198C72.8844 61.4198 71.9779 61.4198 72.0262 61.4198V62.9262H71.2749V58.6055Z" fill="#F4F3E5"/>
<path d="M78.4116 61.2101L77.6725 59.4817L76.9394 61.2101H78.4116ZM77.3364 58.5742H78.0329L79.9137 62.9258H79.1198L78.6862 61.8826H76.6643L76.2251 62.9258H75.4551L77.3364 58.5742Z" fill="#F4F3E5"/>
<path d="M82.608 62.2537C83.1212 62.2537 83.4324 62.0496 83.4324 61.6609V61.6486C83.4324 61.2846 83.1455 61.0682 82.5531 61.0682H81.3622V62.2537H82.608ZM82.3881 60.4265C82.8704 60.4265 83.1943 60.2352 83.1943 59.8399V59.8276C83.1943 59.4882 82.9257 59.2784 82.443 59.2784H81.3622V60.4265H82.3881ZM80.623 58.6055H82.5409C83.2927 58.6055 83.9456 58.9614 83.9456 59.7042C83.9283 59.7516 84.0225 60.3183 83.3349 60.6795C83.8359 60.8522 84.1837 61.1427 84.1837 61.7288V61.7411C84.1837 62.5128 83.5547 62.9262 82.6019 62.9262H80.623V58.6055Z" fill="#F4F3E5"/>
<path d="M85.1143 58.6055H85.8656V62.9262H85.1143V58.6055Z" fill="#F4F3E5"/>
<path d="M89.539 61.2101L88.7999 59.4817L88.0669 61.2101H89.539ZM88.4638 58.5742H89.1598L91.0412 62.9258H90.2472L89.8137 61.8826H87.7917L87.3526 62.9258H86.5825L88.4638 58.5742Z" fill="#F4F3E5"/>
</g>
<defs>
<clipPath id="clip0_3061_4340">
<rect width="93" height="63" fill="white"/>
</clipPath>
</defs>
</svg>
