<svg width="14" height="16" viewBox="0 0 14 16" fill="none" xmlns="http://www.w3.org/2000/svg">
<g id="elements">
<g id="Icon">
<path d="M4.33333 4.16665C4.05719 4.16665 3.83333 4.3905 3.83333 4.66665C3.83333 4.94279 4.05719 5.16665 4.33333 5.16665H9.66667C9.94281 5.16665 10.1667 4.94279 10.1667 4.66665C10.1667 4.3905 9.94281 4.16665 9.66667 4.16665H4.33333Z" fill="#0D121C"/>
<path d="M3.83333 7.99998C3.83333 7.72384 4.05719 7.49998 4.33333 7.49998H9.66667C9.94281 7.49998 10.1667 7.72384 10.1667 7.99998C10.1667 8.27612 9.94281 8.49998 9.66667 8.49998H4.33333C4.05719 8.49998 3.83333 8.27612 3.83333 7.99998Z" fill="#0D121C"/>
<path d="M4.33333 10.8333C4.05719 10.8333 3.83333 11.0572 3.83333 11.3333C3.83333 11.6095 4.05719 11.8333 4.33333 11.8333H7C7.27614 11.8333 7.5 11.6095 7.5 11.3333C7.5 11.0572 7.27614 10.8333 7 10.8333H4.33333Z" fill="#0D121C"/>
<path fill-rule="evenodd" clip-rule="evenodd" d="M7.38886 0.833313H6.61115C5.31057 0.833305 4.28627 0.833298 3.4859 0.934927C2.66658 1.03896 2.00643 1.25715 1.48368 1.75086C0.956897 2.24837 0.720403 2.8831 0.608366 3.67012C0.499979 4.43151 0.499988 5.40358 0.5 6.62709V9.37286C0.499988 10.5964 0.499978 11.5685 0.608365 12.3298C0.720402 13.1169 0.956896 13.7516 1.48368 14.2491C2.00643 14.7428 2.66658 14.961 3.4859 15.065C4.28627 15.1667 5.31058 15.1667 6.61116 15.1666H7.38889C8.68945 15.1667 9.71374 15.1667 10.5141 15.065C11.3334 14.961 11.9936 14.7428 12.5163 14.2491C13.0431 13.7516 13.2796 13.1169 13.3916 12.3298C13.5 11.5684 13.5 10.5964 13.5 9.37285V6.62714C13.5 5.40362 13.5 4.43151 13.3916 3.67012C13.2796 2.8831 13.0431 2.24838 12.5163 1.75086C11.9936 1.25715 11.3334 1.03896 10.5141 0.934927C9.71373 0.833298 8.68944 0.833305 7.38886 0.833313ZM2.17031 2.47787C2.47455 2.19053 2.89341 2.01819 3.61186 1.92696C4.34191 1.83426 5.30267 1.83331 6.64706 1.83331H7.35294C8.69734 1.83331 9.65809 1.83426 10.3881 1.92696C11.1066 2.01819 11.5255 2.19053 11.8297 2.47787C12.1299 2.7614 12.3069 3.14574 12.4016 3.81106C12.4988 4.49382 12.5 5.39463 12.5 6.66665V9.33331C12.5 10.6053 12.4988 11.5061 12.4016 12.1889C12.3069 12.8542 12.1299 13.2386 11.8297 13.5221C11.5255 13.8094 11.1066 13.9818 10.3881 14.073C9.65809 14.1657 8.69734 14.1666 7.35294 14.1666H6.64706C5.30267 14.1666 4.34191 14.1657 3.61186 14.073C2.89341 13.9818 2.47455 13.8094 2.17031 13.5221C1.8701 13.2386 1.6931 12.8542 1.59838 12.1889C1.50119 11.5061 1.5 10.6053 1.5 9.33331L1.5 6.66665C1.5 5.39462 1.50119 4.49382 1.59838 3.81105C1.6931 3.14574 1.8701 2.7614 2.17031 2.47787Z" fill="#0D121C"/>
</g>
</g>
</svg>
