<svg width="25" height="24" viewBox="0 0 25 24" fill="none" xmlns="http://www.w3.org/2000/svg">
<path d="M11.741 11.7512C11.6716 11.7501 11.5913 11.75 11.4922 11.75C11.078 11.75 10.7422 11.4142 10.7422 11C10.7422 10.5858 11.078 10.25 11.4922 10.25L11.5266 10.25C11.7317 10.2499 11.9535 10.2498 12.1408 10.275C12.3601 10.3045 12.6403 10.3803 12.8761 10.6161C13.1119 10.8519 13.1877 11.1321 13.2172 11.3514C13.2424 11.5387 13.2423 11.7605 13.2422 11.9656L13.2422 17C13.2422 17.4142 12.9064 17.75 12.4922 17.75C12.078 17.75 11.7422 17.4142 11.7422 17V12C11.7422 11.9009 11.7422 11.8206 11.741 11.7512Z" fill="#008ece"/>
<path d="M12.2422 7C11.6899 7 11.2422 7.44772 11.2422 8C11.2422 8.55228 11.6899 9 12.2422 9H12.2512C12.8035 9 13.2512 8.55228 13.2512 8C13.2512 7.44772 12.8035 7 12.2512 7H12.2422Z" fill="#008ece"/>
<path fill-rule="evenodd" clip-rule="evenodd" d="M1.5 12C1.5 17.9371 6.31294 22.75 12.25 22.75C18.1871 22.75 23 17.9371 23 12C23 6.06294 18.1871 1.25 12.25 1.25C6.31294 1.25 1.5 6.06294 1.5 12ZM12.25 21.25C7.14137 21.25 3 17.1086 3 12C3 6.89137 7.14137 2.75 12.25 2.75C17.3586 2.75 21.5 6.89137 21.5 12C21.5 17.1086 17.3586 21.25 12.25 21.25Z" fill="#008ece"/>
</svg>
