<svg width="25" height="25" viewBox="0 0 25 25" fill="none" xmlns="http://www.w3.org/2000/svg">
<path fill-rule="evenodd" clip-rule="evenodd" d="M8.3594 8.61592C8.98756 7.32323 10.4131 6.65112 12.8 6.65112C15.1868 6.65112 16.6124 7.32323 17.2406 8.61592C17.5322 9.21606 17.6054 9.86888 17.5974 10.4734C17.5923 10.8641 17.5524 11.2603 17.5032 11.637C18.1977 11.9654 18.9756 12.5152 19.5537 13.1141C19.9361 13.5103 20.2971 13.9944 20.4596 14.5227C20.6359 15.096 20.5766 15.7479 20.0644 16.273C19.593 16.7562 19.0078 16.8961 18.4404 16.7666C17.9335 16.651 17.4924 16.3348 17.1516 16.0197C16.9677 15.8498 16.7926 15.6608 16.6307 15.4654C16.4091 16.071 16.1345 16.666 15.7942 17.1897C15.1469 18.1855 14.1772 19.04 12.8 19.04C11.4219 19.04 10.4519 18.1845 9.80463 17.1879C9.46438 16.664 9.18993 16.0688 8.96844 15.463C8.80675 15.6584 8.632 15.8473 8.44852 16.0173C8.10796 16.3328 7.66707 16.6497 7.16022 16.7659C6.59275 16.896 6.00716 16.7564 5.53558 16.273C5.02335 15.7479 4.96403 15.096 5.14036 14.5227C5.30284 13.9944 5.66386 13.5103 6.04623 13.1141C6.62433 12.5152 7.4023 11.9654 8.09671 11.637C8.04757 11.2603 8.00764 10.8641 8.00252 10.4734C7.99461 9.86888 8.06778 9.21606 8.3594 8.61592ZM8.34933 13.2007C7.9388 13.4437 7.48787 13.7804 7.12548 14.1559C6.81591 14.4766 6.63696 14.7592 6.57408 14.9637C6.52504 15.1231 6.55499 15.1699 6.60929 15.2255C6.70424 15.3229 6.75123 15.3207 6.825 15.3038C6.95941 15.273 7.16845 15.1584 7.42914 14.9169C7.8573 14.5203 8.23543 13.9605 8.43152 13.5915C8.40217 13.459 8.37481 13.3285 8.34933 13.2007ZM17.1676 13.5953C17.3636 13.9638 17.7417 14.5225 18.1698 14.9183C18.4305 15.1592 18.6395 15.2735 18.774 15.3042C18.8481 15.3211 18.8955 15.3231 18.9907 15.2255C19.045 15.1699 19.0749 15.1231 19.0259 14.9637C18.963 14.7592 18.7841 14.4766 18.4745 14.1559C18.1121 13.7804 17.6612 13.4437 17.2506 13.2007C17.2249 13.3298 17.1973 13.4615 17.1676 13.5953ZM9.50239 10.4538C9.50876 10.9397 9.58278 11.4575 9.66468 12.0096C9.73005 12.4502 9.82267 12.9663 9.95069 13.5053C10.1946 14.5325 10.5546 15.5887 11.0626 16.3709C11.3669 16.8394 11.6935 17.1673 12.05 17.3542V16.0966L11.3149 15.4731C10.999 15.2052 10.9601 14.7319 11.228 14.416C11.4959 14.1001 11.9692 14.0612 12.2851 14.3291L12.8 14.7658L13.3149 14.3291C13.6308 14.0612 14.104 14.1001 14.372 14.416C14.6399 14.7319 14.601 15.2052 14.2851 15.4731L13.55 16.0966V17.3542C13.9061 17.1674 14.2324 16.84 14.5365 16.3722C15.0443 15.5909 15.4043 14.5357 15.6484 13.509C15.7769 12.9686 15.8698 12.4512 15.9353 12.0096C16.0172 11.4575 16.0912 10.9397 16.0976 10.4538C16.1039 9.96948 16.0407 9.57878 15.8914 9.27151C15.6377 8.74939 14.9631 8.15112 12.8 8.15112C10.6368 8.15112 9.96227 8.74939 9.70855 9.27151C9.55925 9.57878 9.49605 9.96948 9.50239 10.4538Z" fill="#008ece"/>
<path fill-rule="evenodd" clip-rule="evenodd" d="M6.2682 5.44621C6.06009 5.95418 6.08805 6.33166 6.1963 6.54304C6.29561 6.73696 6.30569 6.96448 6.22391 7.16642C6.14213 7.36837 5.97657 7.52477 5.77031 7.59494C4.83624 7.91273 4.31116 8.59048 4.08504 9.38137C3.8515 10.1982 3.94978 11.1071 4.26604 11.7667C4.36158 11.9659 4.36441 12.1971 4.27377 12.3986C3.6052 13.885 3.39612 15.5002 3.66199 16.8145C3.9249 18.1142 4.62763 19.0547 5.76084 19.4235C5.94936 19.4848 6.10592 19.6184 6.19629 19.7948C6.92792 21.2234 9.35912 22.211 12.5985 21.3074C12.7303 21.2706 12.8697 21.2706 13.0015 21.3074C16.2408 22.211 18.672 21.2234 19.4037 19.7948C19.494 19.6184 19.6506 19.4848 19.8391 19.4235C20.9723 19.0547 21.6751 18.1142 21.938 16.8145C22.2038 15.5002 21.9948 13.885 21.3262 12.3986C21.2356 12.1971 21.2384 11.9659 21.3339 11.7667C21.6502 11.1071 21.7485 10.1982 21.5149 9.38137C21.2888 8.59048 20.7637 7.91273 19.8296 7.59494C19.6234 7.52477 19.4578 7.36837 19.3761 7.16642C19.2943 6.96448 19.3043 6.73696 19.4037 6.54304C19.5119 6.33166 19.5399 5.95418 19.3318 5.44621C19.1294 4.95232 18.7333 4.42172 18.1653 3.99321C17.0564 3.15663 15.2978 2.71393 13.129 3.77267C12.9214 3.87403 12.6786 3.87403 12.471 3.77267C10.3022 2.71393 8.54355 3.15663 7.43469 3.99321C6.8667 4.42172 6.47054 4.95233 6.2682 5.44621ZM12.8 2.27241C10.2573 1.15965 8.02446 1.66925 6.53129 2.79576C5.76621 3.37297 5.19287 4.11429 4.88017 4.87755C4.67537 5.37744 4.5678 5.92885 4.63074 6.45887C3.56792 7.02811 2.9299 7.96496 2.64283 8.96903C2.34386 10.0147 2.41636 11.1533 2.77396 12.0901C2.0995 13.7353 1.87403 15.5412 2.19177 17.1119C2.51368 18.7033 3.41487 20.1096 5.01173 20.7468C6.30597 22.8611 9.46443 23.6712 12.8 22.8064C16.1355 23.6712 19.294 22.8611 20.5882 20.7468C22.1851 20.1096 23.0863 18.7033 23.4082 17.1119C23.7259 15.5412 23.5005 13.7353 22.826 12.0901C23.1836 11.1533 23.2561 10.0147 22.9571 8.96903C22.6701 7.96496 22.032 7.02811 20.9692 6.45887C21.0322 5.92885 20.9246 5.37744 20.7198 4.87755C20.4071 4.11429 19.8337 3.37297 19.0687 2.79576C17.5755 1.66925 15.3427 1.15965 12.8 2.27241Z" fill="#008ece"/>
</svg>
