<svg width="18" height="20" viewBox="0 0 18 20" fill="none" xmlns="http://www.w3.org/2000/svg">
<g id="elements">
<path id="Icon" fill-rule="evenodd" clip-rule="evenodd" d="M0.122658 1.66633C0.122657 1.32116 0.402478 1.04133 0.747656 1.04133L1.5297 1.04133C2.58127 1.04133 3.4979 1.75701 3.75294 2.77719L3.75582 2.78872L4.17628 4.79134L14.8709 4.79134C15.2907 4.79128 15.6771 4.79122 15.9858 4.84023C16.3314 4.8951 16.6917 5.02736 16.9466 5.37814C17.192 5.7158 17.2234 6.09759 17.1993 6.44716C17.1766 6.77646 17.0952 7.18092 17.0024 7.6416L16.9946 7.68059C16.6566 9.3591 16.324 10.9419 15.542 12.0833C15.1368 12.6747 14.6097 13.1539 13.9084 13.4793C13.2142 13.8015 12.3819 13.958 11.3837 13.958L5.71661 13.958C5.03313 13.9605 4.43176 14.4829 4.31125 15.208L13.2477 15.208C14.2832 15.208 15.1227 16.0475 15.1227 17.083C15.1227 18.1185 14.2832 18.958 13.2477 18.958C12.2121 18.958 11.3727 18.1185 11.3727 17.083C11.3727 16.8639 11.4103 16.6535 11.4793 16.458L9.18263 16.458C9.25173 16.6535 9.28932 16.8639 9.28932 17.083C9.28932 18.1185 8.44986 18.958 7.41432 18.958C6.37879 18.958 5.53932 18.1185 5.53932 17.083C5.53932 16.8639 5.57692 16.6535 5.64602 16.458L4.00718 16.458C3.44885 16.458 3.03932 15.994 3.03932 15.4759C3.03932 14.369 3.67651 13.3925 4.61275 12.9538L3.0726 5.6181C3.05662 5.57122 3.04606 5.52183 3.04165 5.47068L2.53766 3.07018C2.41822 2.61189 2.00418 2.29133 1.5297 2.29133L0.747658 2.29133C0.40248 2.29133 0.122657 2.01151 0.122658 1.66633ZM13.2477 16.458C12.9025 16.458 12.6227 16.7378 12.6227 17.083C12.6227 17.4282 12.9025 17.708 13.2477 17.708C13.5928 17.708 13.8727 17.4282 13.8727 17.083C13.8727 16.7378 13.5928 16.458 13.2477 16.458ZM6.78932 17.083C6.78932 16.7378 7.06915 16.458 7.41432 16.458C7.7595 16.458 8.03932 16.7378 8.03932 17.083C8.03932 17.4282 7.7595 17.708 7.41432 17.708C7.06915 17.708 6.78932 17.4282 6.78932 17.083ZM6.06767 12.708L6.06432 12.708L5.8384 12.708L4.43872 6.04134L14.826 6.04134C15.3061 6.04134 15.591 6.04321 15.7898 6.07476C15.8803 6.08914 15.9199 6.10543 15.9333 6.11225L15.936 6.11371C15.9377 6.11598 15.9425 6.12411 15.9474 6.14891C15.9544 6.1847 15.96 6.2491 15.9522 6.36134C15.9359 6.59923 15.8721 6.92246 15.7691 7.43389C15.4172 9.18185 15.1206 10.4869 14.5108 11.3768C14.2202 11.801 13.8608 12.1233 13.3822 12.3455C12.8964 12.5709 12.2552 12.708 11.3837 12.708L6.06767 12.708Z" fill="#003F6A"/>
</g>
</svg>
