<svg width="18" height="18" viewBox="0 0 18 18" fill="none" xmlns="http://www.w3.org/2000/svg">
<g id="elements">
<g id="Icon">
<path d="M8.15951 12.332C8.15951 11.8718 8.5326 11.4987 8.99284 11.4987H9.00032C9.46056 11.4987 9.83366 11.8718 9.83366 12.332C9.83366 12.7923 9.46056 13.1654 9.00032 13.1654H8.99284C8.5326 13.1654 8.15951 12.7923 8.15951 12.332Z" fill="#D92D20"/>
<path d="M8.37435 9.83203C8.37435 10.1772 8.65417 10.457 8.99935 10.457C9.34453 10.457 9.62435 10.1772 9.62435 9.83203V6.4987C9.62435 6.15352 9.34453 5.8737 8.99935 5.8737C8.65417 5.8737 8.37435 6.15352 8.37435 6.4987V9.83203Z" fill="#D92D20"/>
<path fill-rule="evenodd" clip-rule="evenodd" d="M7.63434 0.677865C8.52138 0.38342 9.47732 0.38342 10.3644 0.677865C11.2477 0.971093 11.9413 1.66654 12.6381 2.64365C13.3326 3.61753 14.1 4.97541 15.0892 6.72578L15.128 6.7945C16.1174 8.54513 16.8848 9.90295 17.363 11.0041C17.8435 12.1106 18.0829 13.066 17.8919 13.9838C17.6996 14.9079 17.2255 15.7483 16.535 16.3834C15.8462 17.017 14.9083 17.2843 13.7273 17.4127C12.5531 17.5404 11.017 17.5404 9.03998 17.5404H8.95873C6.9817 17.5404 5.44563 17.5404 4.27137 17.4127C3.09041 17.2843 2.15251 17.017 1.4637 16.3834C0.773201 15.7483 0.299082 14.9079 0.10681 13.9838C-0.0841524 13.066 0.155183 12.1106 0.635728 11.0041C1.11395 9.90295 1.88131 8.54513 2.87067 6.79449L2.9095 6.72578C3.89869 4.97542 4.66608 3.61753 5.36057 2.64365C6.05737 1.66654 6.75096 0.971093 7.63434 0.677865ZM9.97057 1.86421C9.3392 1.65464 8.65951 1.65464 8.02814 1.86421C7.53148 2.02907 7.03221 2.45245 6.3783 3.36942C5.72664 4.28323 4.991 5.58323 3.97823 7.37531C2.96553 9.16726 2.23122 10.4683 1.78227 11.502C1.33254 12.5376 1.21987 13.197 1.3306 13.7292C1.47027 14.4005 1.81397 15.0072 2.30995 15.4635C2.69948 15.8218 3.30645 16.0504 4.40647 16.17C5.50515 16.2895 6.97319 16.2904 8.99935 16.2904C11.0255 16.2904 12.4936 16.2895 13.5922 16.17C14.6923 16.0504 15.2992 15.8218 15.6888 15.4635C16.1847 15.0072 16.5284 14.4005 16.6681 13.7292C16.7788 13.197 16.6662 12.5376 16.2164 11.502C15.7675 10.4683 15.0332 9.16726 14.0205 7.37531C13.0077 5.58323 12.2721 4.28323 11.6204 3.36942C10.9665 2.45245 10.4672 2.02907 9.97057 1.86421Z" fill="#D92D20"/>
</g>
</g>
</svg>
