<svg width="47" height="20" viewBox="0 0 47 20" fill="none" xmlns="http://www.w3.org/2000/svg">
<path fill-rule="evenodd" clip-rule="evenodd" d="M8.83821 3.08897C8.30407 3.72539 7.44944 4.22736 6.59481 4.15565C6.48798 3.29514 6.90639 2.38084 7.39602 1.81613C7.93016 1.16179 8.86492 0.695675 9.62162 0.659821C9.71064 1.55619 9.36345 2.43462 8.83821 3.08897ZM9.61266 4.32597C8.85975 4.28233 8.17275 4.55395 7.61784 4.77335C7.26074 4.91454 6.95835 5.03409 6.72829 5.03409C6.47012 5.03409 6.15524 4.90814 5.8017 4.76673C5.33845 4.58143 4.80882 4.36958 4.25343 4.37975C2.98038 4.39768 1.79637 5.12373 1.14649 6.28004C-0.188866 8.59266 0.799299 12.0168 2.09015 13.8991C2.72222 14.8314 3.47892 15.8532 4.47599 15.8174C4.91464 15.8007 5.23017 15.6659 5.55673 15.5264C5.93268 15.3657 6.32323 15.1989 6.93304 15.1989C7.52172 15.1989 7.89519 15.3614 8.2537 15.5174C8.59458 15.6657 8.92194 15.8082 9.40791 15.7994C10.4406 15.7815 11.0905 14.8672 11.7225 13.935C12.4046 12.9345 12.7044 11.958 12.7499 11.8098L12.7552 11.7927C12.7541 11.7916 12.7457 11.7877 12.7309 11.7809L12.7309 11.7809L12.7308 11.7809L12.7308 11.7808C12.5028 11.6757 10.76 10.8724 10.7433 8.71815C10.7265 6.90998 12.1256 5.99385 12.3459 5.84964L12.3459 5.84962L12.3459 5.8496C12.3593 5.84085 12.3683 5.83494 12.3724 5.83186C11.4822 4.50524 10.0934 4.36182 9.61266 4.32597ZM16.7614 15.7008V1.72644H21.9693C24.6578 1.72644 26.5362 3.59088 26.5362 6.31583C26.5362 9.04077 24.6222 10.9231 21.8981 10.9231H18.9158V15.7008H16.7614ZM18.9154 3.55507H21.3991C23.2686 3.55507 24.3369 4.559 24.3369 6.32483C24.3369 8.09067 23.2686 9.10356 21.3902 9.10356H18.9154V3.55507ZM33.6495 14.0246C33.0798 15.1182 31.8245 15.8084 30.4714 15.8084C28.4683 15.8084 27.0707 14.6072 27.0707 12.7966C27.0707 11.0039 28.4238 9.97304 30.9254 9.82066L33.6139 9.65931V8.88844C33.6139 7.75006 32.875 7.13157 31.5575 7.13157C30.4714 7.13157 29.6791 7.69628 29.5188 8.55679H27.5781C27.6404 6.74613 29.3319 5.42848 31.6198 5.42848C34.0857 5.42848 35.6882 6.7282 35.6882 8.74502V15.7008H33.694V14.0246H33.6495ZM31.0497 14.1501C29.9013 14.1501 29.1713 13.5943 29.1713 12.7428C29.1713 11.8644 29.8746 11.3534 31.2189 11.2728L33.6136 11.1204V11.9092C33.6136 13.2179 32.5097 14.1501 31.0497 14.1501ZM42.3024 16.2476C41.4388 18.6947 40.4507 19.5014 38.3497 19.5014C38.1895 19.5014 37.6553 19.4835 37.5307 19.4476V17.7714C37.6642 17.7894 37.9936 17.8073 38.1628 17.8073C39.1153 17.8073 39.6495 17.4039 39.9789 16.3552L40.1747 15.7367L36.5247 5.56294H38.777L41.3142 13.8185H41.3587L43.8959 5.56294H46.0859L42.3024 16.2476Z" fill="black"/>
</svg>
