<svg width="8" height="14" viewBox="0 0 8 14" fill="none" xmlns="http://www.w3.org/2000/svg">
<g id="elements">
<path id="Icon" d="M7.44471 1.41426C7.28334 1.53615 6.8016 1.90006 6.52389 2.11679C5.96767 2.55086 5.22858 3.14397 4.49169 3.78378C3.75107 4.42682 3.02978 5.10233 2.49954 5.70244C2.23366 6.00335 2.03162 6.26769 1.90013 6.48582C1.77645 6.69097 1.75073 6.81216 1.75073 6.81216C1.75073 6.81216 1.77645 6.92978 1.90012 7.13492C2.03162 7.35305 2.23365 7.61739 2.49953 7.9183C3.02978 8.51841 3.75108 9.19392 4.4917 9.83696C5.2286 10.4768 5.9677 11.0699 6.52392 11.504C6.80163 11.7207 7.2827 12.0841 7.44407 12.206C7.77759 12.4516 7.84953 12.9216 7.6039 13.2551C7.35826 13.5886 6.88877 13.6599 6.55524 13.4143L6.5527 13.4123C6.38345 13.2845 5.88443 12.9076 5.60108 12.6865C5.0323 12.2426 4.27139 11.6322 3.50829 10.9696C2.74891 10.3103 1.97021 9.58462 1.37546 8.91151C1.07884 8.5758 0.812122 8.23551 0.615496 7.90935C0.43128 7.60377 0.249997 7.21688 0.25 6.81036C0.250003 6.40386 0.431287 6.01697 0.615502 5.71139C0.812128 5.38523 1.07884 5.04494 1.37546 4.70924C1.97021 4.03612 2.7489 3.31045 3.50827 2.65113C4.27137 1.98857 5.03226 1.37814 5.60104 0.934266C5.88459 0.71298 6.38363 0.336053 6.55253 0.208476L6.55472 0.206827C6.88824 -0.0388081 7.35821 0.0320874 7.60385 0.365609C7.84947 0.699119 7.77821 1.16862 7.44471 1.41426Z" fill="white"/>
</g>
</svg>
