<svg width="24" height="25" viewBox="0 0 24 25" fill="none" xmlns="http://www.w3.org/2000/svg">
<path d="M10.1738 3.91996C11.265 2.89485 12.9195 2.89485 14.0107 3.91996C16.2008 5.97754 19.051 9.21741 19.7668 12.5582C19.8535 12.9633 20.2522 13.2213 20.6572 13.1345C21.0623 13.0477 21.3203 12.649 21.2335 12.244C20.4133 8.41564 17.2468 4.90212 15.0377 2.82674C13.3693 1.25925 10.8152 1.25925 9.14677 2.82674C7.85311 4.04212 6.26782 5.71758 5.00125 7.63957C3.74053 9.55269 2.75012 11.7786 2.75012 14.0792C2.75012 18.5549 6.29982 23.1511 12.0923 23.1511C15.76 23.1511 18.5464 21.299 20.0838 18.7934C20.3004 18.4403 20.1899 17.9785 19.8368 17.7619C19.4838 17.5452 19.022 17.6558 18.8053 18.0089C17.5256 20.0944 15.2104 21.6511 12.0923 21.6511C7.20776 21.6511 4.25012 17.8082 4.25012 14.0792C4.25012 12.1955 5.06952 10.262 6.25375 8.46495C7.43213 6.67679 8.92693 5.09142 10.1738 3.91996Z" fill="#008ece"/>
<path d="M15.9502 11.0531C15.8115 10.7884 15.529 10.6313 15.2309 10.6531C14.9329 10.675 14.6763 10.8717 14.5778 11.1539L13.0526 15.5213L12.3242 14.1307C12.196 13.8859 12.0743 13.6535 11.9499 13.4669C11.8103 13.2574 11.6363 13.0558 11.3797 12.9045C11.1253 12.7544 10.8647 12.6981 10.6145 12.6734C10.3881 12.6511 10.1197 12.6511 9.83105 12.6511L9.00012 12.6511C8.58591 12.6511 8.25012 12.9869 8.25012 13.4011C8.25012 13.8153 8.58591 14.1511 9.00012 14.1511H9.80043C10.1302 14.1511 10.3233 14.152 10.4672 14.1662C10.5327 14.1726 10.57 14.1805 10.5909 14.1863C10.609 14.1914 10.6154 14.1952 10.6177 14.1965C10.6198 14.1978 10.6243 14.2004 10.6342 14.2106C10.6464 14.2231 10.6682 14.2484 10.7018 14.2989C10.7768 14.4114 10.862 14.5719 11.0101 14.8547L12.5262 17.7491C12.6649 18.0138 12.9475 18.171 13.2455 18.1491C13.5435 18.1272 13.8001 17.9305 13.8987 17.6484L15.4238 13.2809L16.1522 14.6715C16.2805 14.9164 16.4021 15.1487 16.5265 15.3354C16.6661 15.5448 16.8402 15.7464 17.0967 15.8977C17.3511 16.0479 17.6117 16.1041 17.8619 16.1288C18.0883 16.1512 18.3567 16.1512 18.6453 16.1511L20.0001 16.1511C20.4143 16.1511 20.7501 15.8153 20.7501 15.4011C20.7501 14.9869 20.4143 14.6511 20.0001 14.6511L18.676 14.6511C18.3463 14.6511 18.1531 14.6503 18.0092 14.6361C17.9437 14.6296 17.9064 14.6218 17.8855 14.6159C17.8674 14.6108 17.8611 14.6071 17.8588 14.6058C17.8566 14.6045 17.8522 14.6019 17.8422 14.5917C17.83 14.5792 17.8083 14.5538 17.7747 14.5034C17.6996 14.3908 17.6145 14.2304 17.4663 13.9475L15.9502 11.0531Z" fill="#008ece"/>
</svg>
