<svg width="46" height="52" viewBox="0 0 46 52" fill="none" xmlns="http://www.w3.org/2000/svg">
<g id="elements">
<g id="Icon">
<path d="M28.25 12.0013C28.25 11.0348 29.0335 10.2513 30 10.2513L34.6667 10.2513C35.6332 10.2513 36.4167 11.0348 36.4167 12.0013C36.4167 12.9678 35.6332 13.7513 34.6667 13.7513L30 13.7513C29.0335 13.7513 28.25 12.9678 28.25 12.0013Z" fill="#007960"/>
<path d="M9.58333 30.668C9.58333 29.7015 10.3668 28.918 11.3333 28.918H12.5614C13.5279 28.918 14.3114 29.7015 14.3114 30.668C14.3114 31.6345 13.5279 32.418 12.5614 32.418H11.3333C10.3668 32.418 9.58333 31.6345 9.58333 30.668Z" fill="#007960"/>
<path d="M20.636 30.668C20.636 29.7015 21.4195 28.918 22.386 28.918H23.614C24.5805 28.918 25.364 29.7015 25.364 30.668C25.364 31.6345 24.5805 32.418 23.614 32.418H22.386C21.4195 32.418 20.636 31.6345 20.636 30.668Z" fill="#007960"/>
<path d="M31.6886 30.668C31.6886 29.7015 32.4721 28.918 33.4386 28.918H34.6667C35.6332 28.918 36.4167 29.7015 36.4167 30.668C36.4167 31.6345 35.6332 32.418 34.6667 32.418H33.4386C32.4721 32.418 31.6886 31.6345 31.6886 30.668Z" fill="#007960"/>
<path d="M11.3333 38.2513C10.3668 38.2513 9.58333 39.0348 9.58333 40.0013C9.58333 40.9678 10.3668 41.7513 11.3333 41.7513H12.5614C13.5279 41.7513 14.3114 40.9678 14.3114 40.0013C14.3114 39.0348 13.5279 38.2513 12.5614 38.2513H11.3333Z" fill="#007960"/>
<path d="M22.386 38.2513C21.4195 38.2513 20.636 39.0348 20.636 40.0013C20.636 40.9678 21.4195 41.7513 22.386 41.7513H23.614C24.5805 41.7513 25.364 40.9678 25.364 40.0013C25.364 39.0348 24.5805 38.2513 23.614 38.2513H22.386Z" fill="#007960"/>
<path d="M33.4386 38.2513C32.4721 38.2513 31.6886 39.0348 31.6886 40.0013C31.6886 40.9678 32.4721 41.7513 33.4386 41.7513H34.6667C35.6332 41.7513 36.4167 40.9678 36.4167 40.0013C36.4167 39.0348 35.6332 38.2513 34.6667 38.2513H33.4386Z" fill="#007960"/>
<path fill-rule="evenodd" clip-rule="evenodd" d="M23.1329 0.917969H22.8671C18.03 0.917937 14.2213 0.91791 11.2455 1.318C8.19211 1.72851 5.75498 2.58888 3.83794 4.50591C1.92091 6.42295 1.06054 8.86008 0.650029 11.9134C0.249942 14.8892 0.249968 18.698 0.250001 23.5351V28.4675C0.249968 33.3046 0.249942 37.1134 0.650029 40.0892C1.06054 43.1425 1.92091 45.5797 3.83794 47.4967C5.75498 49.4137 8.19211 50.2741 11.2455 50.6846C14.2213 51.0847 18.03 51.0847 22.8671 51.0846H23.1329C27.97 51.0847 31.7787 51.0847 34.7545 50.6846C37.8079 50.2741 40.245 49.4137 42.1621 47.4967C44.0791 45.5797 44.9395 43.1425 45.35 40.0892C45.7501 37.1134 45.75 33.3046 45.75 28.4675V23.5351C45.75 18.698 45.7501 14.8892 45.35 11.9134C44.9395 8.86008 44.0791 6.42295 42.1621 4.50591C40.245 2.58888 37.8079 1.72851 34.7545 1.318C31.7787 0.91791 27.97 0.917937 23.1329 0.917969ZM6.31282 6.98079C7.47116 5.82244 9.04659 5.14512 11.7118 4.78679C14.4274 4.42169 18.0008 4.41797 23 4.41797C27.9992 4.41797 31.5726 4.42169 34.2882 4.78679C36.9534 5.14512 38.5288 5.82244 39.6872 6.98079C40.8455 8.13913 41.5228 9.71456 41.8812 12.3798C42.1381 14.2907 42.2161 16.6263 42.2397 19.5846H3.76029C3.78394 16.6263 3.86191 14.2907 4.11882 12.3798C4.47715 9.71456 5.15447 8.13913 6.31282 6.98079ZM3.75004 23.0846L3.75 28.3346C3.75 33.3339 3.75372 36.9072 4.11882 39.6228C4.47715 42.2881 5.15447 43.8635 6.31282 45.0218C7.47116 46.1802 9.04659 46.8575 11.7118 47.2158C14.4274 47.5809 18.0008 47.5846 23 47.5846C27.9992 47.5846 31.5726 47.5809 34.2882 47.2158C36.9534 46.8575 38.5288 46.1802 39.6872 45.0218C40.8455 43.8635 41.5228 42.2881 41.8812 39.6228C42.2463 36.9072 42.25 33.3339 42.25 28.3346L42.25 23.0846H3.75004Z" fill="#007960"/>
</g>
</g>
</svg>
