<svg width="22" height="24" viewBox="0 0 22 24" fill="none" xmlns="http://www.w3.org/2000/svg">
<path fill-rule="evenodd" clip-rule="evenodd" d="M0.749333 2.00019C0.749333 1.58597 1.08512 1.25019 1.49933 1.25019L2.43778 1.25019C3.69967 1.25019 4.79962 2.109 5.10567 3.33321L5.10913 3.34705L5.61368 5.7502L18.4472 5.75019C18.951 5.75012 19.4147 5.75005 19.7851 5.80886C20.1998 5.87471 20.6322 6.03342 20.9381 6.45436C21.2326 6.85954 21.2702 7.31769 21.2413 7.73717C21.2141 8.13234 21.1164 8.61769 21.005 9.17051L20.9956 9.21729C20.5901 11.2315 20.191 13.1309 19.2526 14.5006C18.7664 15.2102 18.1338 15.7852 17.2922 16.1758C16.4592 16.5623 15.4605 16.7502 14.2626 16.7502L7.46208 16.7502C6.64189 16.7532 5.92026 17.3801 5.77564 18.2502L16.4993 18.2502C17.742 18.2502 18.7493 19.2575 18.7493 20.5002C18.7493 21.7428 17.742 22.7502 16.4993 22.7502C15.2567 22.7502 14.2493 21.7428 14.2493 20.5002C14.2493 20.2372 14.2944 19.9848 14.3774 19.7502L11.6213 19.7502C11.7042 19.9848 11.7493 20.2372 11.7493 20.5002C11.7493 21.7428 10.742 22.7502 9.49933 22.7502C8.25669 22.7502 7.24933 21.7428 7.24933 20.5002C7.24933 20.2372 7.29445 19.9848 7.37736 19.7502L5.41076 19.7502C4.74076 19.7502 4.24933 19.1934 4.24933 18.5716C4.24933 17.2434 5.01396 16.0716 6.13744 15.5451L4.28927 6.7423C4.27009 6.68605 4.25742 6.62678 4.25213 6.56541L3.64734 3.6848C3.50401 3.13485 3.00716 2.75019 2.43778 2.75019L1.49933 2.75019C1.08512 2.75019 0.749333 2.4144 0.749333 2.00019ZM16.4993 19.7502C16.0851 19.7502 15.7493 20.086 15.7493 20.5002C15.7493 20.9144 16.0851 21.2502 16.4993 21.2502C16.9135 21.2502 17.2493 20.9144 17.2493 20.5002C17.2493 20.086 16.9135 19.7502 16.4993 19.7502ZM8.74933 20.5002C8.74933 20.086 9.08512 19.7502 9.49933 19.7502C9.91355 19.7502 10.2493 20.086 10.2493 20.5002C10.2493 20.9144 9.91355 21.2502 9.49933 21.2502C9.08512 21.2502 8.74933 20.9144 8.74933 20.5002ZM7.88334 15.2502L7.87933 15.2502L7.60822 15.2502L5.92861 7.2502L18.3934 7.2502C18.9694 7.2502 19.3113 7.25243 19.5499 7.2903C19.6585 7.30755 19.706 7.3271 19.7221 7.33528L19.7254 7.33704C19.7273 7.33976 19.7332 7.34952 19.739 7.37928C19.7475 7.42222 19.7541 7.49951 19.7448 7.63419C19.7252 7.91966 19.6487 8.30754 19.5251 8.92126C19.1028 11.0188 18.7468 12.5849 18.0152 13.6527C17.6663 14.1618 17.2352 14.5486 16.6608 14.8151C16.0779 15.0857 15.3084 15.2502 14.2626 15.2502L7.88334 15.2502Z" fill="#0D121C"/>
</svg>
