<svg width="12" height="16" viewBox="0 0 12 16" fill="none" xmlns="http://www.w3.org/2000/svg">
<g id="elements">
<g id="Icon">
<path fill-rule="evenodd" clip-rule="evenodd" d="M6.41178 1.32946C7.06732 0.832187 8.15008 0.541677 9.33431 1.27543C10.1803 1.79958 10.6277 2.87256 10.4697 4.06292C10.3102 5.26406 9.54522 6.59056 7.97626 7.76357L7.91782 7.80732C7.4035 8.19253 6.99443 8.49892 6.3347 8.49892C5.67496 8.49892 5.26589 8.19253 4.75157 7.80732L4.69313 7.76357C3.12418 6.59056 2.3592 5.26406 2.19971 4.06292C2.04166 2.87256 2.48912 1.79958 3.33508 1.27543C4.51932 0.541677 5.60208 0.832187 6.25761 1.32946L6.3347 1.38782L6.41178 1.32946ZM8.80762 2.12548C8.02532 1.64077 7.39169 1.84129 7.01614 2.12617L7.00426 2.13518C6.90888 2.20754 6.81854 2.27608 6.74418 2.32526C6.70461 2.35142 6.65424 2.38252 6.59808 2.40816C6.54577 2.43204 6.45222 2.46834 6.3347 2.46834C6.21718 2.46834 6.12363 2.43204 6.07131 2.40816C6.01515 2.38252 5.96478 2.35142 5.92522 2.32526C5.85085 2.27608 5.76051 2.20754 5.66512 2.13517L5.65325 2.12617C5.2777 1.84129 4.64407 1.64077 3.86177 2.12548C3.41729 2.40088 3.07354 3.04655 3.19101 3.93129C3.30705 4.80525 3.88434 5.91031 5.29192 6.96267C5.88341 7.40489 6.03568 7.49892 6.3347 7.49892C6.63371 7.49892 6.78598 7.40489 7.37747 6.96267C8.78505 5.91031 9.36234 4.80525 9.47838 3.93129C9.59585 3.04655 9.2521 2.40088 8.80762 2.12548Z" fill="#007960"/>
<path d="M0.168294 9.33252C0.168294 9.05638 0.392152 8.83252 0.668294 8.83252H2.26484C2.53586 8.83252 2.80377 8.89355 3.04751 9.01148L4.40883 9.67014C4.51588 9.72194 4.63478 9.74927 4.75596 9.74927H5.45104C6.00927 9.74927 6.51436 10.0128 6.83 10.4264L9.58121 9.58108L9.58223 9.58076C10.3359 9.34642 11.1429 9.62832 11.6049 10.268C12.0192 10.8417 11.8591 11.6694 11.237 12.0284L6.22657 14.9193C5.78991 15.1712 5.27227 15.2336 4.7893 15.0902L0.525862 13.8251C0.26113 13.7466 0.110203 13.4683 0.188758 13.2036C0.267314 12.9388 0.545603 12.7879 0.810337 12.8665L5.07377 14.1316C5.29185 14.1963 5.52611 14.1689 5.72681 14.0531L10.7372 11.1622C10.8314 11.1078 10.8715 10.9605 10.7941 10.8534C10.5762 10.5517 10.2103 10.4325 9.87868 10.5358L9.87679 10.5364L7.16729 11.3689C7.16796 11.3882 7.16829 11.4077 7.16829 11.4272C7.16829 11.6879 6.99079 11.9012 6.7574 11.9657L5.06345 12.4341C4.64311 12.5503 4.19293 12.5101 3.80052 12.3202L2.34526 11.6161C2.09669 11.4958 1.99268 11.1968 2.11295 10.9483C2.23322 10.6997 2.53223 10.5957 2.7808 10.7159L4.23606 11.4201C4.40899 11.5037 4.60957 11.522 4.79697 11.4702L6.08646 11.1137C5.96908 10.9014 5.73539 10.7493 5.45104 10.7493H4.75596C4.48494 10.7493 4.21703 10.6882 3.97329 10.5703L2.61197 9.91165C2.50492 9.85986 2.38602 9.83252 2.26484 9.83252H0.668294C0.392152 9.83252 0.168294 9.60866 0.168294 9.33252Z" fill="#007960"/>
</g>
</g>
</svg>
