<svg width="25" height="24" viewBox="0 0 25 24" fill="none" xmlns="http://www.w3.org/2000/svg">
<path fill-rule="evenodd" clip-rule="evenodd" d="M9.45 2.75C6.82665 2.75 4.7 4.87665 4.7 7.5C4.7 10.1234 6.82665 12.25 9.45 12.25C12.0734 12.25 14.2 10.1234 14.2 7.5C14.2 4.87665 12.0734 2.75 9.45 2.75ZM6.2 7.5C6.2 5.70507 7.65508 4.25 9.45 4.25C11.2449 4.25 12.7 5.70507 12.7 7.5C12.7 9.29493 11.2449 10.75 9.45 10.75C7.65508 10.75 6.2 9.29493 6.2 7.5Z" fill="#008ece"/>
<path fill-rule="evenodd" clip-rule="evenodd" d="M14.3229 15.4501C11.337 13.85 7.56302 13.85 4.57705 15.4501C4.48396 15.5 4.36751 15.5591 4.23466 15.6265C3.64225 15.9271 2.72353 16.3932 2.09369 16.9481C1.7054 17.2901 1.28928 17.7785 1.21232 18.4123C1.12804 19.1061 1.47259 19.7168 2.0557 20.2168C3.05061 21.0699 4.24243 21.75 5.77572 21.75H13.1243C14.6576 21.75 15.8494 21.0699 16.8443 20.2168C17.4274 19.7168 17.772 19.1061 17.6877 18.4123C17.6107 17.7785 17.1946 17.2901 16.8063 16.9481C16.1765 16.3932 15.2578 15.9271 14.6654 15.6265C14.5325 15.5591 14.4161 15.5 14.3229 15.4501ZM3.03208 19.0781C2.67866 18.775 2.69812 18.6191 2.70125 18.5941C2.71121 18.5121 2.78868 18.3349 3.08522 18.0736C3.55454 17.6602 4.22828 17.316 4.82069 17.0134C4.98377 16.9301 5.14079 16.8498 5.28557 16.7722C7.82896 15.4093 11.071 15.4093 13.6144 16.7722C13.7592 16.8499 13.9162 16.93 14.0793 17.0134C14.6717 17.316 15.3455 17.6602 15.8148 18.0736C16.1113 18.3349 16.1887 18.5112 16.1986 18.5931C16.2018 18.6182 16.2213 18.775 15.8679 19.0781C15.0234 19.8022 14.1666 20.25 13.1243 20.25H5.77572C4.73339 20.25 3.87657 19.8022 3.03208 19.0781Z" fill="#008ece"/>
<path d="M16.0958 5.80443C16.2749 5.7689 16.4618 5.75 16.6546 5.75C18.1281 5.75 19.1999 6.82206 19.1999 8C19.1999 9.17794 18.1281 10.25 16.6546 10.25C16.4618 10.25 16.2749 10.2311 16.0958 10.1956C15.6895 10.115 15.2948 10.379 15.2142 10.7853C15.1336 11.1916 15.3976 11.5863 15.8039 11.6669C16.0789 11.7214 16.3636 11.75 16.6546 11.75C18.8209 11.75 20.6999 10.1358 20.6999 8C20.6999 5.86423 18.8209 4.25 16.6546 4.25C16.3636 4.25 16.0789 4.27855 15.8039 4.3331C15.3976 4.41369 15.1336 4.80839 15.2142 5.21469C15.2948 5.62099 15.6895 5.88503 16.0958 5.80443Z" fill="#008ece"/>
<path d="M17.9499 14.25C17.5356 14.25 17.1999 14.5858 17.1999 15C17.1999 15.4142 17.5356 15.75 17.9499 15.75C18.26 15.75 18.7981 15.8438 19.4291 16.0395C20.0487 16.2318 20.6959 16.5032 21.2206 16.8174C21.7734 17.1484 22.0731 17.4575 22.1688 17.6752C22.2061 17.7602 22.2038 17.8104 22.1925 17.852C22.1784 17.9039 22.1279 18.0185 21.9425 18.1839C21.194 18.8516 20.4505 19.25 19.5561 19.25H19.0659C18.6517 19.25 18.3159 19.5858 18.3159 20C18.3159 20.4142 18.6517 20.75 19.0659 20.75H19.5561C20.9615 20.75 22.0471 20.1006 22.941 19.3032C23.2772 19.0034 23.5297 18.6521 23.6402 18.2448C23.7535 17.8273 23.6972 17.425 23.542 17.0718C23.2526 16.4132 22.6129 15.9027 21.9912 15.5305C21.3414 15.1414 20.5791 14.8258 19.8736 14.6069C19.1794 14.3915 18.4768 14.25 17.9499 14.25Z" fill="#008ece"/>
</svg>
