<svg width="10" height="12" viewBox="0 0 10 12" fill="none" xmlns="http://www.w3.org/2000/svg">
<g id="Group 14149">
<path id="Path 15002" d="M9.4601 7.22907C9.20375 7.13063 8.95409 7.00234 8.69568 6.90287C8.12373 6.65427 7.49397 6.56926 6.87657 6.65729C6.20337 6.78462 5.60594 7.16864 5.2103 7.728C5.16469 7.77972 5.11563 7.82821 5.0636 7.87345C5.05496 7.80269 5.05353 7.73123 5.05909 7.66016C5.10421 7.40381 5.14461 7.14764 5.2128 6.89436C5.32328 6.3563 5.56821 5.8548 5.92465 5.43687C6.28108 5.01894 6.73746 4.69812 7.25134 4.5041C7.28868 4.49353 7.32705 4.48664 7.36574 4.48357C7.33795 4.51111 7.30792 4.5363 7.27599 4.55892C6.76131 4.88066 6.34139 5.3335 6.05933 5.87096C5.92603 6.1309 5.9322 6.14789 6.2347 6.13508C6.43862 6.13357 6.64184 6.11227 6.84165 6.07149C7.35498 5.98068 7.83273 5.74792 8.22079 5.39982C8.60884 5.05172 8.89181 4.60203 9.03765 4.10155C9.07969 3.96671 9.05809 3.90831 8.91761 3.88575C8.20207 3.73636 7.45999 3.77583 6.7643 4.00016C6.30275 4.18178 5.89013 4.46892 5.5594 4.83855C5.22867 5.20819 4.98896 5.64999 4.85957 6.12882C4.66474 6.68817 4.53557 7.2705 4.37766 7.84216C4.36638 7.88215 4.35611 7.92162 4.34637 7.96007C4.31768 7.92621 4.29113 7.89059 4.26688 7.85342C4.13922 7.62578 4.02802 7.38911 3.88549 7.17224C3.46069 6.55916 2.89507 6.05689 2.23611 5.70749C2.18914 5.67761 2.14384 5.64503 2.1003 5.61036C2.15956 5.61398 2.21841 5.62287 2.27616 5.63664C2.8514 5.80486 3.36604 6.135 3.75881 6.58769C3.86135 6.70254 3.97063 6.80819 4.07625 6.91739C4.06138 6.73333 4.04698 6.55065 4.03006 6.36864C4.0257 6.34443 4.01797 6.32109 4.00703 6.29905C3.88011 6.00613 3.68898 5.74549 3.44789 5.53626C3.20679 5.32702 2.92186 5.17457 2.614 5.09015C1.96589 4.90812 1.27559 4.94665 0.651816 5.1998C0.387263 5.27875 0.36991 5.37621 0.450917 5.60385C0.659498 6.18867 1.0449 6.69392 1.55367 7.04983C2.06245 7.40573 2.66929 7.59464 3.29017 7.59006C3.63932 7.60903 3.73165 7.68016 3.8224 8.01239C4.05102 8.85732 4.08985 9.74246 3.93618 10.6042C3.927 10.7094 3.88341 10.8086 3.81214 10.8866C3.74087 10.9645 3.64599 11.0167 3.54202 11.0353C3.2344 11.1158 2.92666 11.1974 2.62827 11.3076C2.21811 11.4574 1.81416 11.6286 1.41323 11.8008C1.34043 11.8326 1.29221 11.9173 1.23274 11.9783C1.31118 11.986 1.38911 12.0013 1.46756 12.0013C2.46356 12.0037 3.45963 12.0037 4.45564 12.0013H4.77395C5.69681 12.0013 6.61975 12.0013 7.54261 12.0013C7.59531 11.9954 7.64692 11.9826 7.69632 11.9633C7.67436 11.9214 7.64522 11.8839 7.6102 11.8521C7.43152 11.7146 7.23708 11.599 7.03091 11.5077C6.48335 11.3221 5.92089 11.1794 5.37077 11.0015C5.23798 10.9589 5.05593 10.8636 5.02004 10.7529C4.77813 10.0872 4.79649 9.35481 5.07136 8.70208C5.27644 8.24065 5.35437 8.21247 5.84041 8.34885C6.46736 8.59011 7.14527 8.66835 7.81073 8.57641C8.50122 8.45315 9.11717 8.06723 9.52932 7.49969C9.61802 7.36998 9.6293 7.2947 9.4601 7.22907Z" fill="white"/>
<path id="Path 15003" d="M3.3573 4.74474C3.84788 4.99359 4.25143 5.38542 4.5145 5.86853C4.53588 5.90078 4.56173 5.92977 4.59136 5.95464C4.61617 5.92273 4.63545 5.88683 4.64831 5.8485C4.75863 5.40074 4.81685 4.94175 4.82167 4.48063C4.77639 3.84769 4.53129 3.24545 4.12172 2.76078C3.71214 2.2761 3.15921 1.93415 2.54268 1.78394C1.92129 1.5845 1.90481 1.60281 1.90481 2.0786C1.87513 2.61408 1.99533 3.14725 2.25191 3.6182C2.50849 4.08915 2.89128 4.47932 3.3573 4.74474Z" fill="white"/>
<path id="Path 15004" d="M5.43988 2.52546C5.60138 2.48291 5.64496 2.52893 5.70136 2.66941C5.7603 2.84109 5.8829 2.98375 6.04383 3.0677C6.20476 3.15165 6.39177 3.17067 6.56629 3.12078C6.65712 3.09506 6.74177 3.0511 6.81526 2.99185C6.88875 2.9326 6.94962 2.85912 6.994 2.7758C7.03839 2.69249 7.06543 2.60123 7.07361 2.50719C7.0818 2.41314 7.0709 2.31829 7.04157 2.22856C6.99953 2.06962 7.04155 2.01643 7.18101 1.9667C7.3114 1.92983 7.42721 1.85332 7.51234 1.7479C7.59746 1.64248 7.64771 1.51337 7.65628 1.37815C7.668 1.26629 7.6529 1.15325 7.6121 1.04844C7.57129 0.943642 7.50598 0.850056 7.42171 0.775572C7.33745 0.701087 7.23658 0.647739 7.12756 0.620109C7.01854 0.59248 6.90455 0.591245 6.79498 0.616604C6.62323 0.659159 6.53402 0.664458 6.46378 0.45989C6.43516 0.374397 6.38963 0.295416 6.32997 0.227823C6.27031 0.160231 6.19771 0.105366 6.11643 0.0663525C6.03515 0.0273392 5.94688 0.0050335 5.85682 0.000762861C5.76677 -0.00350778 5.67682 0.0101716 5.59221 0.0413183C5.50447 0.0677794 5.42282 0.111655 5.35213 0.169994C5.28145 0.228333 5.22315 0.300145 5.18053 0.381283C5.1379 0.46242 5.11184 0.551082 5.10392 0.64239C5.096 0.733697 5.10633 0.825743 5.13434 0.913009C5.17125 1.04785 5.17734 1.11816 5.0143 1.17712C4.92315 1.20246 4.83834 1.24633 4.76496 1.30605C4.69158 1.36576 4.63129 1.43999 4.58797 1.52409C4.54464 1.6082 4.51914 1.7003 4.51311 1.79471C4.50709 1.88913 4.52063 1.98391 4.55292 2.07284C4.61092 2.25021 4.73681 2.39732 4.90302 2.48215C5.06923 2.56699 5.26222 2.58254 5.43988 2.52546ZM6.09815 1.26424C6.13961 1.26349 6.18079 1.27154 6.21894 1.28777C6.2571 1.304 6.29137 1.32798 6.31958 1.35837C6.34779 1.38875 6.36932 1.42476 6.38267 1.46401C6.39602 1.50326 6.40089 1.5449 6.39706 1.58618C6.39919 1.62727 6.39224 1.66826 6.37666 1.70634C6.36108 1.74443 6.33726 1.77866 6.30694 1.80648C6.27662 1.8343 6.24058 1.85506 6.2013 1.86731C6.16201 1.87957 6.12051 1.88297 6.07975 1.87733C6.03875 1.87897 5.99787 1.87177 5.95997 1.85605C5.92206 1.84032 5.88801 1.81664 5.8602 1.78645C5.8324 1.75626 5.81155 1.72038 5.799 1.68131C5.78644 1.64224 5.78247 1.60088 5.78748 1.56014C5.79568 1.36378 5.92077 1.28166 6.09765 1.26474L6.09815 1.26424Z" fill="white"/>
</g>
</svg>
