<svg width="16" height="16" viewBox="0 0 16 16" fill="none" xmlns="http://www.w3.org/2000/svg">
<g id="elements">
<g id="Icon">
<path d="M13.3415 3.01096C13.4724 3.2541 13.3814 3.55733 13.1383 3.68822C12.936 3.79712 12.6973 4.0731 12.4855 4.39368C12.3871 4.54267 12.3063 4.68286 12.2501 4.78586C12.2221 4.83712 12.1812 4.9175 12.167 4.94542C12.0872 5.11195 11.922 5.22107 11.7375 5.22898C11.5529 5.2369 11.379 5.14242 11.2853 4.98326C11.194 4.82829 11.0887 4.72396 11.0099 4.66007C10.9705 4.62818 10.9013 4.58479 10.9013 4.58479C10.657 4.46373 10.5544 4.1685 10.6722 3.92156C10.7911 3.67233 11.0895 3.56667 11.3388 3.68557C11.4197 3.7242 11.5565 3.81675 11.6296 3.87525C11.8502 3.54134 12.2257 3.0438 12.6642 2.8077C12.9074 2.67681 13.2106 2.76781 13.3415 3.01096Z" fill="#0D121C"/>
<path fill-rule="evenodd" clip-rule="evenodd" d="M8.85675 3.98865C8.85675 5.72865 10.2721 7.14399 12.0121 7.14399C13.7521 7.14399 15.1681 5.72865 15.1681 3.98865C15.1681 2.24865 13.7521 0.833313 12.0121 0.833313C10.2721 0.833313 8.85675 2.24865 8.85675 3.98865ZM9.85675 3.98865C9.85675 2.79998 10.8234 1.83331 12.0121 1.83331C13.2008 1.83331 14.1681 2.79998 14.1681 3.98865C14.1681 5.17732 13.2008 6.14399 12.0121 6.14399C10.8234 6.14399 9.85675 5.17732 9.85675 3.98865Z" fill="#0D121C"/>
<path fill-rule="evenodd" clip-rule="evenodd" d="M7.67199 15.1666C4.55004 15.1666 2.98331 15.1666 1.90799 14.0926C0.833321 13.0173 0.833313 11.4499 0.833313 8.32791C0.833313 5.20591 0.833321 3.63791 1.90799 2.56391C2.98265 1.48991 4.54998 1.48859 7.67199 1.48859C7.94798 1.48859 8.17199 1.71259 8.17199 1.98859C8.17199 2.26459 7.94798 2.48859 7.67199 2.48859C4.82599 2.48859 3.39733 2.48859 2.61466 3.27059C1.83331 4.05127 1.83331 5.47644 1.83331 8.31357V8.32791C1.83331 8.49733 1.83331 8.66174 1.83348 8.82127H4.6173C5.2913 8.82127 5.92599 9.28529 6.31466 10.0633C6.56599 10.5666 7.02065 10.8213 7.66665 10.8213C8.31265 10.8213 8.76798 10.566 9.01932 10.0633C9.40665 9.28596 10.0413 8.82127 10.716 8.82127H13.5111C13.5113 8.66173 13.5113 8.49734 13.5113 8.32792C13.5113 8.05192 13.7353 7.82791 14.0113 7.82791C14.2873 7.82791 14.5113 8.05191 14.5113 8.32791C14.5113 11.4499 14.5113 13.0173 13.436 14.0919C12.3613 15.1666 10.794 15.1666 7.67199 15.1666ZM4.6173 9.82127H1.83891C1.86236 11.701 1.98403 12.7534 2.61531 13.3853C3.39729 14.1666 4.82592 14.1666 7.67178 14.1666C10.5176 14.1666 11.9473 14.1666 12.7293 13.3853C13.3606 12.754 13.4823 11.7012 13.5057 9.82127H10.716C10.378 9.82127 10.08 10.1766 9.91398 10.5099C9.49131 11.3559 8.69265 11.8213 7.66665 11.8213C6.63931 11.8213 5.84197 11.3553 5.41997 10.5099C5.25397 10.1773 4.9553 9.82127 4.6173 9.82127Z" fill="#0D121C"/>
</g>
</g>
</svg>
