<svg width="19" height="21" viewBox="0 0 19 21" fill="none" xmlns="http://www.w3.org/2000/svg">
<g id="elements">
<path id="Icon" fill-rule="evenodd" clip-rule="evenodd" d="M0.917481 13.2508C0.91733 13.2447 0.917254 13.2385 0.917254 13.2323L0.917254 3.9892L0.917125 3.92129C0.916205 3.59828 0.91518 3.23864 1.09539 2.8704C1.27444 2.50454 1.51391 2.31905 1.7305 2.15129L1.76135 2.12736C3.25248 0.968765 6.16326 -0.0940881 9.76526 1.74076C12.1673 2.96434 14.27 2.88564 15.6871 2.49272L15.724 2.48248C16.1541 2.3632 16.529 2.25922 16.8202 2.20766C16.972 2.18077 17.1433 2.15985 17.3139 2.17004C17.4873 2.18039 17.7157 2.22616 17.9239 2.38447C18.2937 2.6657 18.362 3.10284 18.3882 3.34205C18.4173 3.60916 18.4173 3.95451 18.4173 4.33414L18.4173 11.9013C18.4173 11.9169 18.4174 11.934 18.4176 11.9523C18.4195 12.1466 18.4229 12.4815 18.2424 12.7858C18.0633 13.0879 17.7913 13.2336 17.634 13.3179L17.5967 13.338C16.0125 14.204 12.7993 14.9697 9.0844 13.0773C5.80385 11.4062 3.36948 12.6434 2.41748 13.5361L2.41748 19.5004C2.41748 19.9146 2.08169 20.2504 1.66748 20.2504C1.25327 20.2504 0.917481 19.9146 0.917481 19.5004L0.917481 13.2508ZM2.68169 3.31184C3.78454 2.45493 6.07596 1.54485 9.0844 3.07734C11.8519 4.48711 14.3446 4.42155 16.0879 3.93818C16.4503 3.83768 16.713 3.76535 16.9111 3.71992C16.9168 3.88029 16.9173 4.0903 16.9173 4.3743L16.9173 11.9013C16.9173 11.9399 16.9172 11.972 16.9171 12L16.8772 12.0218C15.6702 12.6816 12.9832 13.38 9.76526 11.7408C6.63411 10.1458 4.02963 10.738 2.41748 11.685L2.41748 5.50043C2.41748 5.49421 2.4174 5.48801 2.41725 5.48183V3.9892C2.41725 3.78151 2.41815 3.68034 2.42599 3.60462C2.43135 3.55281 2.43757 3.54018 2.4422 3.53078L2.4427 3.52976C2.45232 3.5101 2.45824 3.50135 2.46065 3.49797C2.46288 3.49485 2.46689 3.48955 2.47701 3.47939C2.48863 3.46774 2.50772 3.45022 2.54253 3.42163C2.57855 3.39205 2.62106 3.35895 2.68169 3.31184Z" fill="#007960"/>
</g>
</svg>
