<svg width="16" height="12" viewBox="0 0 16 12" fill="none" xmlns="http://www.w3.org/2000/svg">
<g id="Group 14049">
<path id="Path 15006" d="M15.6894 7.20132C15.5954 6.45439 15.5953 6.45432 14.8316 6.46238C14.1953 6.45906 13.5657 6.59204 12.9851 6.85235C12.4044 7.11267 11.8864 7.49448 11.4655 7.97175C11.0447 8.44903 10.7309 9.01089 10.5454 9.61953C10.3598 10.2282 10.3066 10.8693 10.3896 11.5002C10.4049 11.5665 10.4361 11.6281 10.4806 11.6796C10.5251 11.7311 10.5816 11.7712 10.6449 11.796C11.3005 11.9652 11.9879 11.9682 12.6451 11.8052C13.3023 11.6422 13.9086 11.3182 14.4092 10.8623C14.9098 10.4063 15.289 9.83296 15.5125 9.19381C15.736 8.55466 15.7968 7.86986 15.6894 7.20132Z" fill="white"/>
<path id="Path 15007" d="M12.4811 0.284485C12.4416 0.222299 12.3879 0.170549 12.3244 0.133285C12.2608 0.0960208 12.1893 0.0744181 12.1158 0.0703125C10.9867 0.136638 9.92504 0.630145 9.14639 1.45046C8.36774 2.27078 7.93029 3.35657 7.92285 4.48757C7.99002 4.9356 8.04309 5.38833 8.14654 5.83099C8.18146 5.89551 8.23151 5.95065 8.29232 5.9917C8.35314 6.03275 8.42293 6.05822 8.49584 6.06648C9.20264 6.11462 9.90983 5.9782 10.5479 5.67027C11.1859 5.36234 11.7328 4.89377 12.1348 4.31046C12.5368 3.72715 12.7802 3.04906 12.8409 2.34323C12.9016 1.63739 12.7777 0.927883 12.4811 0.284485Z" fill="white"/>
<path id="Path 15008" d="M6.24622 3.40882C6.20726 3.39202 6.1709 3.36984 6.13127 3.35372C5.28711 2.98975 4.34408 2.92433 3.45788 3.16873C2.69086 3.37449 1.99154 3.77892 1.43047 4.34094C0.869391 4.90296 0.466334 5.60279 0.261866 6.37017C0.252518 6.43604 0.259399 6.50335 0.281873 6.56597C0.304346 6.62859 0.341827 6.68474 0.390927 6.72963C1.09546 7.20342 1.91656 7.47457 2.7647 7.51351C3.65002 7.52522 4.51555 7.2512 5.23292 6.73226C5.9503 6.21331 6.48128 5.47703 6.74721 4.63252C7.0562 3.7687 7.0563 3.76885 6.24622 3.40882Z" fill="white"/>
</g>
</svg>
