<svg xmlns="http://www.w3.org/2000/svg" width="17" height="17" viewBox="0 0 17 17" fill="none">
	<path fill-rule="evenodd" clip-rule="evenodd" d="M7.86015 1.88877C7.86005 1.88896 7.86024 1.88859 7.86015 1.88877L6.5417 4.54745C6.40174 4.83431 6.16762 5.08001 5.92654 5.26024C5.68495 5.44085 5.38428 5.59464 5.07442 5.6477L5.07242 5.64803L2.68047 6.04873C2.01532 6.1605 1.79677 6.42453 1.74553 6.5863C1.69362 6.75021 1.72175 7.09653 2.19922 7.57795L4.05902 9.45311C4.30033 9.69642 4.46154 10.0215 4.5504 10.3345C4.63937 10.6479 4.6725 11.0078 4.59869 11.3399L4.59787 11.3435L4.06541 13.6648C3.86671 14.5306 4.06739 14.8499 4.17108 14.9262C4.27192 15.0003 4.62989 15.0979 5.38809 14.6442L7.63454 13.3034C7.94684 13.1202 8.32102 13.0446 8.6644 13.0446C9.00718 13.0446 9.38155 13.12 9.69229 13.3056C9.69222 13.3055 9.69237 13.3056 9.69229 13.3056L11.9341 14.6436C11.934 14.6436 11.9342 14.6437 11.9341 14.6436C12.6986 15.0988 13.0561 15.0016 13.1551 14.9289C13.2564 14.8544 13.4571 14.537 13.2577 13.6644L12.7245 11.3399C12.6507 11.0078 12.6838 10.6479 12.7728 10.3345C12.8616 10.0215 13.0228 9.69642 13.2641 9.45311L15.1239 7.57795L15.1253 7.57659C15.6059 7.0953 15.6326 6.74991 15.5808 6.58731C15.5291 6.42509 15.3084 6.1606 14.6427 6.04873L12.2507 5.64803C11.9377 5.59543 11.6347 5.44222 11.3911 5.26103C11.1484 5.08043 10.914 4.83448 10.774 4.54745L9.45448 1.88667C9.1378 1.24471 8.8166 1.11719 8.66065 1.11719C8.50372 1.11719 8.18049 1.24644 7.86015 1.88877ZM10.4632 1.38862C10.0675 0.586587 9.4476 -0.0078125 8.66065 -0.0078125C7.8746 -0.0078125 7.2528 0.585495 6.85331 1.38687L6.85279 1.38792L5.53294 4.04944L5.53091 4.05356C5.49077 4.1362 5.39553 4.25259 5.25293 4.3592C5.1106 4.4656 4.97295 4.5235 4.88532 4.5387C4.88507 4.53874 4.88482 4.53879 4.88456 4.53883L2.49432 4.93923C1.62965 5.08454 0.90677 5.50862 0.673035 6.24663C0.439979 6.98249 0.783059 7.74766 1.40046 8.37017L3.26026 10.2453C3.33391 10.3196 3.41642 10.4595 3.46817 10.6418C3.51957 10.8228 3.52413 10.9877 3.50082 11.0942C3.50072 11.0947 3.50061 11.0952 3.5005 11.0957L2.96891 13.4132C2.9689 13.4133 2.96891 13.4132 2.96891 13.4132C2.74768 14.3772 2.82444 15.3321 3.50441 15.8323C4.18723 16.3347 5.11911 16.1162 5.96574 15.6096L8.20378 14.2738C8.20426 14.2735 8.20473 14.2732 8.2052 14.2729C8.3055 14.2146 8.47062 14.1696 8.6644 14.1696C8.85959 14.1696 9.02132 14.2152 9.11549 14.2715L11.358 15.6099C12.2056 16.1147 13.1386 16.3372 13.8214 15.8353C14.5018 15.3352 14.5749 14.3785 14.3544 13.4137L13.8227 11.0957C13.8226 11.0952 13.8225 11.0947 13.8223 11.0942C13.799 10.9877 13.8036 10.8228 13.855 10.6418C13.9067 10.4595 13.9893 10.3196 14.0629 10.2453L15.9214 8.37153C15.9216 8.37132 15.9218 8.37112 15.922 8.37092C16.5433 7.74839 16.8876 6.98256 16.6526 6.24561C16.4175 5.50806 15.6932 5.08449 14.8291 4.93928L12.4369 4.53854C12.345 4.5231 12.2053 4.46455 12.0626 4.35842C11.9198 4.25217 11.8248 4.13603 11.7848 4.05356L10.4632 1.38862C10.4633 1.38874 10.4632 1.38851 10.4632 1.38862Z" fill="#F9FAFB"/>
</svg>