<svg width="25" height="26" viewBox="0 0 25 26" fill="none" xmlns="http://www.w3.org/2000/svg">
<g id="elements">
<g id="Icon">
<path d="M12.6805 0.458008H11.3195C9.04349 0.457993 7.25098 0.457982 5.85032 0.635833C4.41652 0.817893 3.26126 1.19972 2.34644 2.06371C1.42457 2.93437 1.0107 4.04513 0.81464 5.42242C0.624963 6.75485 0.624979 8.45598 0.625 10.5971V15.4022C0.624979 17.5434 0.624962 19.2445 0.814639 20.5769C1.0107 21.9542 1.42457 23.065 2.34644 23.9356C3.26125 24.7996 4.41652 25.1815 5.85032 25.3635C7.25098 25.5414 9.04351 25.5414 11.3195 25.5413H11.3824L11.3995 25.5412L11.4167 25.5413H13.1667C13.6499 25.5413 14.0417 25.1496 14.0417 24.6663C14.0417 24.1831 13.6499 23.7913 13.1667 23.7913H11.4167L11.3995 23.7915L11.3824 23.7913C9.02967 23.7913 7.34834 23.7897 6.07076 23.6275C4.81346 23.4678 4.08046 23.1662 3.54803 22.6634C3.02267 22.1672 2.71292 21.4946 2.54717 20.3303C2.37708 19.1354 2.375 17.559 2.375 15.333L2.375 10.6663C2.375 8.4403 2.37708 6.8639 2.54717 5.66906C2.71292 4.50475 3.02267 3.83216 3.54803 3.33598C4.08046 2.83313 4.81346 2.53154 6.07076 2.37189C7.34834 2.20967 9.02967 2.20801 11.3824 2.20801H12.6177C14.9703 2.20801 16.6517 2.20967 17.9292 2.37189C19.1865 2.53154 19.9195 2.83313 20.452 3.33598C20.9773 3.83216 21.2871 4.50475 21.4528 5.66906C21.6229 6.8639 21.625 8.44031 21.625 10.6663C21.625 11.1496 22.0168 11.5413 22.5 11.5413C22.9832 11.5413 23.375 11.1496 23.375 10.6663V10.5971C23.375 8.45599 23.375 6.75485 23.1854 5.42242C22.9893 4.04513 22.5754 2.93437 21.6536 2.06371C20.7387 1.19972 19.5835 0.817894 18.1497 0.635833C16.749 0.457982 14.9565 0.457994 12.6805 0.458008Z" fill="#007960"/>
<path d="M7.33333 6.29134C6.85009 6.29134 6.45833 6.68309 6.45833 7.16634C6.45833 7.64959 6.85009 8.04134 7.33333 8.04134H16.6667C17.1499 8.04134 17.5417 7.64959 17.5417 7.16634C17.5417 6.68309 17.1499 6.29134 16.6667 6.29134H7.33333Z" fill="#007960"/>
<path d="M6.45833 12.9997C6.45833 12.5164 6.85009 12.1247 7.33333 12.1247H13.1667C13.6499 12.1247 14.0417 12.5164 14.0417 12.9997C14.0417 13.4829 13.6499 13.8747 13.1667 13.8747H7.33333C6.85009 13.8747 6.45833 13.4829 6.45833 12.9997Z" fill="#007960"/>
<path fill-rule="evenodd" clip-rule="evenodd" d="M20.1667 13.2913C17.7518 13.2913 15.7917 15.2462 15.7917 17.6607C15.7917 19.0276 16.42 20.2473 17.4033 21.0482L16.5229 24.1256L16.5166 24.1487C16.2903 25.0302 17.162 25.7882 18.0013 25.453L20.1667 24.5883L22.3541 25.4619C23.1731 25.7889 24.0328 25.0735 23.8499 24.2047L23.8457 24.1858L23.0816 20.9189C23.9775 20.119 24.5417 18.956 24.5417 17.6607C24.5417 15.2462 22.5816 13.2913 20.1667 13.2913ZM17.5417 17.6607C17.5417 16.2154 18.7156 15.0413 20.1667 15.0413C21.6178 15.0413 22.7917 16.2154 22.7917 17.6607C22.7917 19.1059 21.6178 20.28 20.1667 20.28C18.7156 20.28 17.5417 19.1059 17.5417 17.6607ZM18.5671 23.3427L18.9885 21.8697C19.3634 21.9741 19.7585 22.03 20.1667 22.03C20.6302 22.03 21.0769 21.958 21.4962 21.8245L21.86 23.3802L20.6645 22.9027C20.3449 22.7751 19.9884 22.7751 19.6688 22.9027L18.5671 23.3427Z" fill="#007960"/>
</g>
</g>
</svg>
