<svg width="18" height="18" viewBox="0 0 18 18" fill="none" xmlns="http://www.w3.org/2000/svg">
<g id="elements">
<path id="Icon" fill-rule="evenodd" clip-rule="evenodd" d="M7.16168 0.9375H7.08832C5.88662 0.937491 4.9346 0.937484 4.18144 1.02651C3.40821 1.11791 2.77169 1.30979 2.23998 1.74615C2.05959 1.89419 1.89419 2.05959 1.74615 2.23997C1.30979 2.77168 1.11791 3.40821 1.02651 4.18144C0.937484 4.9346 0.937491 5.88662 0.9375 7.08832V7.16168C0.937491 8.36338 0.937484 9.3154 1.02651 10.0686C1.11791 10.8418 1.30979 11.4783 1.74615 12.01C1.89419 12.1904 2.05959 12.3558 2.23997 12.5038C2.74388 12.9174 3.34192 13.1114 4.06158 13.2083C4.64573 13.2871 5.34888 13.3061 6.19553 13.3109C6.2053 13.7774 6.22694 14.1872 6.27489 14.5438C6.36566 15.2189 6.55983 15.7873 7.01126 16.2387C7.4627 16.6902 8.03111 16.8843 8.70619 16.9751C9.35641 17.0625 10.1832 17.0625 11.2088 17.0625H12.0412C13.0668 17.0625 13.8936 17.0625 14.5438 16.9751C15.2189 16.8843 15.7873 16.6902 16.2387 16.2387C16.6902 15.7873 16.8843 15.2189 16.9751 14.5438C17.0625 13.8936 17.0625 13.0668 17.0625 12.0412V11.2088C17.0625 10.1832 17.0625 9.35641 16.9751 8.70619C16.8843 8.03111 16.6902 7.4627 16.2387 7.01126C15.7873 6.55983 15.2189 6.36566 14.5438 6.27489C14.1872 6.22694 13.7774 6.2053 13.3109 6.19553C13.3061 5.34888 13.2871 4.64573 13.2083 4.06158C13.1114 3.34192 12.9174 2.74388 12.5039 2.23998C12.3558 2.05959 12.1904 1.89419 12.01 1.74615C11.4783 1.30979 10.8418 1.11791 10.0686 1.02651C9.3154 0.937484 8.36338 0.937491 7.16168 0.9375ZM12.1858 6.18751C12.1808 5.35487 12.1621 4.72113 12.0934 4.21182C12.0118 3.60599 11.8662 3.23635 11.6342 2.95367C11.5329 2.83025 11.4198 2.71708 11.2963 2.61579C10.9983 2.37118 10.6035 2.22258 9.9365 2.14373C9.25707 2.06342 8.37159 2.0625 7.125 2.0625C5.87842 2.0625 4.99293 2.06342 4.3135 2.14373C3.64648 2.22258 3.25172 2.37118 2.95367 2.61579C2.83025 2.71708 2.71708 2.83025 2.61579 2.95367C2.37118 3.25172 2.22258 3.64648 2.14373 4.3135C2.06342 4.99293 2.0625 5.87842 2.0625 7.125C2.0625 8.37158 2.06342 9.25707 2.14373 9.9365C2.22258 10.6035 2.37118 10.9983 2.61579 11.2963C2.71708 11.4198 2.83025 11.5329 2.95367 11.6342C3.23635 11.8662 3.60599 12.0118 4.21182 12.0934C4.72113 12.1621 5.35487 12.1808 6.18751 12.1858C6.1875 12.138 6.1875 12.0898 6.1875 12.0412V11.2088C6.18748 10.1832 6.18747 9.35641 6.27489 8.70619C6.36566 8.03111 6.55983 7.4627 7.01126 7.01126C7.4627 6.55983 8.03111 6.36566 8.70619 6.27489C9.35641 6.18747 10.1832 6.18749 11.2088 6.1875H12.0412C12.0898 6.1875 12.138 6.1875 12.1858 6.18751ZM7.80676 7.80676C8.01433 7.59919 8.30576 7.46385 8.85609 7.38986C9.4226 7.3137 10.1734 7.3125 11.25 7.3125H12C13.0766 7.3125 13.8274 7.3137 14.3939 7.38986C14.9442 7.46385 15.2357 7.59919 15.4432 7.80676C15.6508 8.01433 15.7862 8.30576 15.8601 8.85609C15.9363 9.4226 15.9375 10.1734 15.9375 11.25V12C15.9375 13.0766 15.9363 13.8274 15.8601 14.3939C15.7861 14.9442 15.6508 15.2357 15.4432 15.4432C15.2357 15.6508 14.9442 15.7861 14.3939 15.8601C13.8274 15.9363 13.0766 15.9375 12 15.9375H11.25C10.1734 15.9375 9.4226 15.9363 8.85609 15.8601C8.30576 15.7861 8.01433 15.6508 7.80676 15.4432C7.59918 15.2357 7.46385 14.9442 7.38986 14.3939C7.31369 13.8274 7.3125 13.0766 7.3125 12V11.25C7.3125 10.1734 7.3137 9.4226 7.38986 8.85609C7.46385 8.30576 7.59919 8.01433 7.80676 7.80676Z" fill="#007960"/>
</g>
</svg>
