<svg width="17" height="18" viewBox="0 0 17 18" fill="none" xmlns="http://www.w3.org/2000/svg">
<g id="elements">
<g id="Icon">
<path d="M6.41667 13.375C6.07149 13.375 5.79167 13.0952 5.79167 12.75L5.79167 7.74999C5.79167 7.40481 6.07149 7.12499 6.41667 7.12499C6.76184 7.12499 7.04167 7.40481 7.04167 7.74999L7.04167 12.75C7.04167 13.0952 6.76184 13.375 6.41667 13.375Z" fill="#B42318"/>
<path d="M11.2083 7.74999C11.2083 7.40481 10.9285 7.12499 10.5833 7.12499C10.2382 7.12499 9.95833 7.40481 9.95833 7.74999V12.75C9.95833 13.0952 10.2382 13.375 10.5833 13.375C10.9285 13.375 11.2083 13.0952 11.2083 12.75V7.74999Z" fill="#B42318"/>
<path fill-rule="evenodd" clip-rule="evenodd" d="M8.55518 0.041657H8.50181C8.08075 0.0416454 7.72356 0.0416355 7.42715 0.0686194C7.11261 0.0972542 6.81962 0.159273 6.53631 0.30992C6.42449 0.369375 6.3178 0.437996 6.21732 0.51508C5.96273 0.710391 5.78477 0.951267 5.62826 1.2256C5.48076 1.48411 5.33263 1.80912 5.15799 2.19226L4.80879 2.95832H1C0.654822 2.95832 0.375 3.23815 0.375 3.58332C0.375 3.9285 0.654822 4.20832 1 4.20832H1.66161L2.13194 11.9992C2.1948 13.0406 2.24469 13.867 2.34847 14.5271C2.45489 15.204 2.62601 15.7678 2.96926 16.2611C3.28326 16.7123 3.68781 17.0931 4.15712 17.3794C4.67013 17.6923 5.24321 17.8291 5.92534 17.8945C6.59048 17.9584 7.41832 17.9583 8.46154 17.9583H8.52628C9.56813 17.9583 10.395 17.9584 11.0593 17.8947C11.7407 17.8293 12.3131 17.6928 12.8258 17.3804C13.2948 17.0947 13.6992 16.7145 14.0133 16.264C14.3567 15.7716 14.5283 15.2087 14.6355 14.5327C14.7401 13.8735 14.7911 13.0483 14.8554 12.0084L15.3376 4.20832H16C16.3452 4.20832 16.625 3.9285 16.625 3.58332C16.625 3.23815 16.3452 2.95832 16 2.95832H12.2714L11.8618 2.11341C11.6826 1.74385 11.5306 1.43014 11.3809 1.18073C11.222 0.915968 11.0433 0.683946 10.7918 0.496331C10.6924 0.42219 10.5871 0.356239 10.477 0.299128C10.1985 0.154613 9.91174 0.0950577 9.60418 0.0675493C9.31446 0.0416362 8.96584 0.0416457 8.55518 0.041657ZM14.0852 4.20832H11.8935C11.8847 4.20852 11.8758 4.20851 11.8669 4.20832H5.22416C5.215 4.20853 5.20582 4.20853 5.19663 4.20832H2.91389L3.37772 11.8916C3.44298 12.9725 3.48992 13.739 3.5833 14.333C3.6751 14.9169 3.80366 15.2717 3.99526 15.547C4.21011 15.8558 4.4869 16.1164 4.80801 16.3122C5.09437 16.4869 5.45632 16.5938 6.04471 16.6503C6.64321 16.7077 7.41114 16.7083 8.49397 16.7083C9.57539 16.7083 10.3423 16.7077 10.94 16.6504C11.5277 16.594 11.8893 16.4873 12.1754 16.3129C12.4963 16.1174 12.7731 15.8573 12.988 15.5491C13.1796 15.2742 13.3085 14.9199 13.401 14.3368C13.4951 13.7438 13.543 12.9784 13.6098 11.899L14.0852 4.20832ZM10.8822 2.95832H6.18253L6.28421 2.73527C6.47304 2.32101 6.598 2.04831 6.71397 1.84505C6.82406 1.6521 6.90305 1.56448 6.97817 1.50685C7.02384 1.47181 7.07234 1.44062 7.12316 1.4136C7.20676 1.36914 7.31925 1.33361 7.54048 1.31347C7.77353 1.29226 8.0735 1.29166 8.52877 1.29166C8.97294 1.29166 9.26535 1.29223 9.49283 1.31258C9.70866 1.33188 9.81899 1.36595 9.90136 1.40869C9.9514 1.43465 9.99924 1.46463 10.0444 1.49833C10.1188 1.55381 10.1976 1.63823 10.3091 1.82402C10.4267 2.01984 10.5547 2.28271 10.7485 2.68239L10.8822 2.95832Z" fill="#B42318"/>
</g>
</g>
</svg>
