<svg width="20" height="22" viewBox="0 0 20 22" fill="none" xmlns="http://www.w3.org/2000/svg">
<g id="elements">
<g id="Icon">
<path d="M7.5 16.25C7.08579 16.25 6.75 15.9142 6.75 15.5L6.75 9.5C6.75 9.08579 7.08579 8.75 7.5 8.75C7.91421 8.75 8.25 9.08579 8.25 9.5L8.25 15.5C8.25 15.9142 7.91421 16.25 7.5 16.25Z" fill="#0D121C"/>
<path d="M13.25 9.5C13.25 9.08579 12.9142 8.75 12.5 8.75C12.0858 8.75 11.75 9.08579 11.75 9.5V15.5C11.75 15.9142 12.0858 16.25 12.5 16.25C12.9142 16.25 13.25 15.9142 13.25 15.5V9.5Z" fill="#0D121C"/>
<path fill-rule="evenodd" clip-rule="evenodd" d="M10.0662 0.250001H10.0022C9.4969 0.249987 9.06827 0.249975 8.71258 0.282355C8.33514 0.316717 7.98355 0.391139 7.64357 0.571916C7.50939 0.643262 7.38136 0.725608 7.26078 0.818108C6.95528 1.05248 6.74173 1.34153 6.55391 1.67073C6.37691 1.98095 6.19915 2.37095 5.98959 2.83073L5.57055 3.75H1C0.585786 3.75 0.25 4.08579 0.25 4.5C0.25 4.91422 0.585786 5.25 1 5.25H1.79393L2.35833 14.5991C2.43377 15.8488 2.49362 16.8404 2.61816 17.6325C2.74587 18.4449 2.95121 19.1214 3.36311 19.7133C3.73991 20.2547 4.22537 20.7118 4.78854 21.0553C5.40416 21.4307 6.09186 21.5949 6.91041 21.6735C7.70858 21.75 8.70198 21.75 9.95385 21.75H10.0315C11.2818 21.75 12.274 21.75 13.0712 21.6736C13.8888 21.5952 14.5758 21.4313 15.1909 21.0565C15.7537 20.7137 16.239 20.2574 16.616 19.7169C17.028 19.126 17.234 18.4504 17.3627 17.6392C17.4881 16.8482 17.5493 15.858 17.6265 14.6101L18.2051 5.25H19C19.4142 5.25 19.75 4.91422 19.75 4.5C19.75 4.08579 19.4142 3.75 19 3.75H14.5256L14.0341 2.7361C13.8192 2.29263 13.6367 1.91618 13.4571 1.61688C13.2664 1.29917 13.052 1.02075 12.7501 0.795609C12.6308 0.70664 12.5045 0.627499 12.3724 0.558966C12.0382 0.385548 11.6941 0.314081 11.325 0.281071C10.9774 0.249976 10.559 0.249987 10.0662 0.250001ZM16.7022 5.25H14.0723C14.0616 5.25023 14.0509 5.25023 14.0403 5.25H6.06899C6.058 5.25025 6.04698 5.25025 6.03595 5.25H3.29666L3.85327 14.47C3.93157 15.767 3.9879 16.6868 4.09996 17.3996C4.21012 18.1003 4.36439 18.5261 4.59431 18.8565C4.85213 19.2269 5.18428 19.5396 5.56961 19.7747C5.91325 19.9842 6.34758 20.1126 7.05365 20.1803C7.77186 20.2492 8.69337 20.25 9.99277 20.25C11.2905 20.25 12.2107 20.2492 12.928 20.1805C13.6332 20.1128 14.0671 19.9848 14.4105 19.7755C14.7956 19.5409 15.1277 19.2288 15.3856 18.8589C15.6156 18.5291 15.7702 18.1039 15.8812 17.4042C15.9941 16.6925 16.0517 15.7741 16.1317 14.4788L16.7022 5.25ZM12.8587 3.75H7.21904L7.34105 3.48234C7.56765 2.98523 7.7176 2.65798 7.85677 2.41407C7.98887 2.18253 8.08366 2.07739 8.1738 2.00823C8.22861 1.96619 8.28681 1.92876 8.3478 1.89633C8.44812 1.84298 8.5831 1.80035 8.84858 1.77618C9.12824 1.75072 9.4882 1.75 10.0345 1.75C10.5675 1.75 10.9184 1.75069 11.1914 1.77511C11.4504 1.79827 11.5828 1.83916 11.6816 1.89044C11.7417 1.92159 11.7991 1.95756 11.8533 1.99801C11.9426 2.06458 12.0371 2.16588 12.1709 2.38884C12.312 2.62382 12.4657 2.93926 12.6982 3.41888L12.8587 3.75Z" fill="#0D121C"/>
</g>
</g>
</svg>
