<svg width="24" height="25" viewBox="0 0 24 25" fill="none" xmlns="http://www.w3.org/2000/svg">
<path fill-rule="evenodd" clip-rule="evenodd" d="M17.4879 18.1531C16.6559 18.1531 15.81 17.7471 14.602 17.1671L9.17046 14.5591C9.72086 16.4913 10.6558 17.3499 11.6054 17.9721C12.2784 18.4131 12.7054 19.1371 12.7474 19.9091C12.7864 20.6231 12.4904 21.2951 11.9364 21.7521L10.4454 22.9811C10.3074 23.0951 10.1374 23.1521 9.96841 23.1521C9.80341 23.1521 9.63939 23.0981 9.50239 22.9901C6.20745 20.3771 6.22235 18.7672 6.25835 14.8763L6.26 14.6881C6.26208 14.4537 6.2642 14.2141 6.26562 13.9651C6.18583 13.9801 6.11631 13.9911 6.048 13.9991C5.065 14.1111 4.144 13.8331 3.452 13.2161C2.688 12.5351 2.25 11.4921 2.25 10.3571V9.44609C2.25 8.31009 2.688 7.26809 3.452 6.58709C4.143 5.97009 5.06402 5.69209 6.04702 5.80409C6.23402 5.82509 6.42995 5.86909 6.82095 5.95709C7.21295 6.04509 7.59195 6.00209 7.94995 5.83009L14.6062 2.63509C16.2037 1.86828 17.168 1.40542 18.307 1.78809C19.461 2.17509 19.864 3.02109 20.473 4.30109C22.17 7.86009 22.17 11.9431 20.473 15.5021C19.8632 16.7817 19.4598 17.6282 18.306 18.0151C18.026 18.1091 17.757 18.1521 17.486 18.1521L17.4879 18.1531ZM8.25098 12.4778C8.36901 12.5185 8.48546 12.5663 8.59995 12.6211L15.252 15.8151C16.75 16.5341 17.295 16.7741 17.831 16.5941C18.358 16.4171 18.5469 16.0621 19.1209 14.8581C20.6219 11.7091 20.6219 8.09609 19.1209 4.94709C18.5469 3.74209 18.358 3.38709 17.832 3.21009C17.296 3.03009 16.751 3.27009 15.253 3.98909L8.60103 7.18209C8.48626 7.23721 8.36944 7.28523 8.25098 7.32609V12.4778ZM6.75098 12.336C6.66593 12.3482 6.58088 12.3639 6.49595 12.3831L6.4284 12.3981C6.1428 12.4618 5.98037 12.4979 5.88003 12.5091C5.31103 12.5741 4.83198 12.4351 4.45298 12.0971C4.00798 11.7001 3.75298 11.0661 3.75298 10.3571V9.44609C3.75298 8.73709 4.00798 8.10309 4.45298 7.70609C4.83098 7.36809 5.31095 7.22909 5.87895 7.29409C5.98205 7.30555 6.15169 7.34343 6.45135 7.41035L6.49497 7.42009C6.58021 7.4392 6.66559 7.45489 6.75098 7.46717V12.336ZM9.96538 21.4321C7.75706 19.5697 7.72541 18.5447 7.75637 15.0853C8.30352 16.9436 9.25425 18.2257 10.7824 19.2261C11.0584 19.4071 11.2334 19.6921 11.2494 19.9901C11.2584 20.1581 11.2194 20.3981 10.9814 20.5941L9.96538 21.4321Z" fill="#008ece"/>
</svg>
