<svg width="19" height="17" viewBox="0 0 19 17" fill="none" xmlns="http://www.w3.org/2000/svg">
<g id="elements">
<g id="Icon">
<path d="M10.4167 1C10.4167 0.585786 10.081 0.25 9.66675 0.25C9.25253 0.25 8.91675 0.585786 8.91675 1V9.46193L8.91069 9.45478C8.70001 9.20615 8.49372 8.94338 8.30081 8.69766L8.25608 8.64069C8.06385 8.39596 7.86162 8.13885 7.70456 7.97726C7.41586 7.68023 6.94103 7.67349 6.64401 7.96219C6.34698 8.25089 6.34023 8.72572 6.62894 9.02274C6.71764 9.114 6.86326 9.29581 7.07646 9.56724L7.12351 9.62718C7.31357 9.86931 7.53657 10.1534 7.76628 10.4245C8.01249 10.715 8.28806 11.0168 8.56354 11.2515C8.70158 11.369 8.85718 11.485 9.02457 11.5746C9.18601 11.661 9.40846 11.75 9.66675 11.75C9.92503 11.75 10.1475 11.661 10.3089 11.5746C10.4763 11.485 10.6319 11.369 10.77 11.2515C11.0454 11.0168 11.321 10.715 11.5672 10.4245C11.7969 10.1534 12.0199 9.86936 12.2099 9.62723L12.257 9.56724C12.4702 9.29581 12.6159 9.114 12.7046 9.02274C12.9933 8.72572 12.9865 8.25089 12.6895 7.96219C12.3925 7.67349 11.9176 7.68023 11.6289 7.97726C11.4719 8.13885 11.2696 8.39596 11.0774 8.64069L11.0327 8.69763C10.8398 8.94335 10.6335 9.20615 10.4228 9.45478L10.4167 9.46193V1Z" fill="#007960"/>
<path d="M2.41675 13C2.41675 12.5858 2.08096 12.25 1.66675 12.25C1.25253 12.25 0.916748 12.5858 0.916748 13C0.916748 13.6367 0.948982 14.199 1.05393 14.6768C1.16075 15.163 1.35286 15.6083 1.70567 15.9611C2.05847 16.3139 2.50374 16.506 2.98998 16.6128C3.46773 16.7178 4.03002 16.75 4.66675 16.75H14.6667C15.3035 16.75 15.8658 16.7178 16.3435 16.6128C16.8298 16.506 17.275 16.3139 17.6278 15.9611C17.9806 15.6083 18.1727 15.163 18.2796 14.6768C18.3845 14.199 18.4167 13.6367 18.4167 13C18.4167 12.5858 18.081 12.25 17.6667 12.25C17.2525 12.25 16.9167 12.5858 16.9167 13C16.9167 13.6043 16.8842 14.0375 16.8145 14.3549C16.7466 14.6639 16.6541 14.8135 16.5672 14.9004C16.4802 14.9874 16.3306 15.0799 16.0217 15.1477C15.7042 15.2175 15.271 15.25 14.6667 15.25H4.66675C4.06248 15.25 3.62926 15.2175 3.31183 15.1477C3.00289 15.0799 2.85327 14.9874 2.76633 14.9004C2.67938 14.8135 2.58687 14.6639 2.519 14.3549C2.44926 14.0375 2.41675 13.6043 2.41675 13Z" fill="#007960"/>
</g>
</g>
</svg>
