<svg width="20" height="20" viewBox="0 0 20 20" fill="none" xmlns="http://www.w3.org/2000/svg">
<g id="elements">
<g id="Icon">
<path d="M10 0.25H9.94305C7.87002 0.249986 6.23769 0.249975 4.96234 0.421441C3.65376 0.597375 2.60928 0.966104 1.78769 1.78769C0.966104 2.60928 0.597375 3.65376 0.421441 4.96234C0.249975 6.23769 0.249986 7.87002 0.25 9.94305V10.0569C0.249986 12.13 0.249975 13.7623 0.421441 15.0377C0.597375 16.3462 0.966104 17.3907 1.78769 18.2123C2.60928 19.0339 3.65376 19.4026 4.96234 19.5786C6.23769 19.75 7.87002 19.75 9.94306 19.75H10.0569C12.13 19.75 13.7623 19.75 15.0377 19.5786C16.3462 19.4026 17.3907 19.0339 18.2123 18.2123C19.0339 17.3907 19.4026 16.3462 19.5786 15.0377C19.75 13.7623 19.75 12.13 19.75 10.0569V10C19.75 9.58579 19.4142 9.25 19 9.25C18.5858 9.25 18.25 9.58579 18.25 10C18.25 12.1425 18.2484 13.674 18.0919 14.8378C17.9384 15.98 17.6481 16.6552 17.1516 17.1516C16.6552 17.6481 15.98 17.9384 14.8378 18.0919C13.674 18.2484 12.1425 18.25 10 18.25C7.85748 18.25 6.32604 18.2484 5.16221 18.0919C4.01997 17.9384 3.34478 17.6481 2.84835 17.1516C2.35192 16.6552 2.06164 15.98 1.90807 14.8378C1.75159 13.674 1.75 12.1425 1.75 10C1.75 7.85748 1.75159 6.32604 1.90807 5.16221C2.06164 4.01997 2.35192 3.34478 2.84835 2.84835C3.34478 2.35192 4.01997 2.06164 5.16221 1.90807C6.32604 1.75159 7.85748 1.75 10 1.75C10.4142 1.75 10.75 1.41421 10.75 1C10.75 0.585787 10.4142 0.25 10 0.25Z" fill="#0D121C"/>
<path fill-rule="evenodd" clip-rule="evenodd" d="M18.9497 1.0503C17.8827 -0.0167667 16.1526 -0.0167654 15.0855 1.0503L8.36945 7.76637C7.40084 8.73474 6.80884 9.3266 6.40167 10.0553C6.17455 10.4617 5.97615 11.0782 5.8006 11.709C5.62 12.358 5.44221 13.1047 5.27249 13.8175L5.27041 13.8263C5.21009 14.0796 5.28552 14.3462 5.46969 14.5303C5.65385 14.7145 5.92037 14.7899 6.17373 14.7296L6.18242 14.7275C6.89524 14.5578 7.64198 14.38 8.29098 14.1994C8.92183 14.0239 9.53832 13.8255 9.94476 13.5983C10.6734 13.1912 11.2653 12.5992 12.2337 11.6306L18.9497 4.91448C20.0168 3.84742 20.0168 2.11736 18.9497 1.0503ZM16.1462 2.11096C16.6275 1.62968 17.4078 1.62968 17.8891 2.11096C18.3703 2.59224 18.3703 3.37254 17.8891 3.85382L17.0176 4.72525L15.2748 2.98239L16.1462 2.11096ZM14.2141 4.04305L15.957 5.78591L11.2534 10.4894C10.1793 11.5636 9.73822 11.9955 9.21305 12.2889C8.98259 12.4177 8.52868 12.5763 7.88884 12.7543C7.61543 12.8304 7.32217 12.9064 7.01767 12.9823C7.09362 12.6778 7.1696 12.3846 7.24569 12.1112C7.42374 11.4713 7.58232 11.0174 7.7111 10.787C8.00456 10.2618 8.43647 9.82068 9.51057 8.74658L14.2141 4.04305Z" fill="#0D121C"/>
</g>
</g>
</svg>
