<svg width="25" height="25" viewBox="0 0 25 25" fill="none" xmlns="http://www.w3.org/2000/svg">
<path fill-rule="evenodd" clip-rule="evenodd" d="M12.8 23.1511C6.86293 23.1511 2.04999 18.3382 2.04999 12.4011C2.04999 6.46406 6.86293 1.65112 12.8 1.65112C18.737 1.65112 23.55 6.46406 23.55 12.4011C23.55 18.3382 18.737 23.1511 12.8 23.1511ZM8.844 20.7649C5.83508 19.3392 3.71833 16.3376 3.55957 12.826C4.22855 13.1746 5.0134 13.4193 5.88877 13.4193C6.52251 13.4193 6.98836 13.4502 7.33487 13.5152C7.68028 13.5799 7.85381 13.6689 7.94831 13.7463C8.10798 13.8771 8.2584 14.1564 8.2584 15.1529L8.2584 15.2272C8.25835 16.15 8.25832 16.6983 8.33164 17.1886C8.40715 17.6936 8.5589 18.1284 8.80021 18.8198L8.82021 18.8771C9.10239 19.6858 9.14166 20.2775 8.844 20.7649ZM12.8 21.6511C11.9197 21.6511 11.0681 21.5282 10.2615 21.2985C10.745 20.3054 10.539 19.2498 10.2365 18.3829C9.96949 17.6177 9.86757 17.3173 9.81515 16.9668C9.76043 16.6009 9.7584 16.1719 9.7584 15.1529C9.7584 14.1626 9.64886 13.2001 8.89864 12.5858C8.53819 12.2906 8.0943 12.1313 7.61105 12.0408C7.12891 11.9505 6.55488 11.9193 5.88877 11.9193C5.03883 11.9193 4.26885 11.5742 3.63904 11.1125C4.13808 7.53222 6.68641 4.60813 10.0608 3.56343C10.0388 3.84445 10.0501 4.12528 10.0974 4.39801C10.2348 5.19025 10.6858 5.93667 11.5127 6.338C11.8279 6.49102 11.9546 6.64551 12.0244 6.77452C12.1081 6.92937 12.1493 7.11693 12.1956 7.42831C12.2006 7.46174 12.2056 7.49643 12.2107 7.53225C12.2958 8.12817 12.4258 9.03824 13.4319 9.68939C14.1114 10.1291 14.9618 10.2869 15.863 10.0217C16.7471 9.76157 17.6187 9.11441 18.4314 8.06243C18.9324 7.41398 19.6113 7.08166 20.2629 6.93494C21.3864 8.4663 22.05 10.3562 22.05 12.4011C22.05 12.5167 22.0479 12.6318 22.0437 12.7464C21.1863 12.5427 20.2091 12.6329 19.2357 13.3326C18.3347 13.9801 17.6006 14.0358 16.9261 14.0665L16.8337 14.0705C16.5273 14.0834 16.1368 14.0999 15.7892 14.2095C15.336 14.3525 14.9579 14.6432 14.697 15.1431C14.3314 15.8437 14.3916 16.4616 14.5894 17.0018C14.6769 17.2405 14.7933 17.4706 14.8917 17.6649L14.8981 17.6776C15.004 17.8869 15.0969 18.0711 15.1745 18.268C15.3206 18.6388 15.4089 19.0472 15.3159 19.5923C15.2348 20.0673 15.0093 20.6845 14.5015 21.495C13.9499 21.5975 13.3812 21.6511 12.8 21.6511ZM16.4988 20.882C19.2209 19.6931 21.2602 17.232 21.8651 14.2503C21.3075 14.0718 20.7191 14.1136 20.1111 14.5506C18.8563 15.4525 17.7693 15.5296 16.9945 15.565C16.5876 15.5836 16.3911 15.5925 16.2404 15.6401C16.1593 15.6656 16.1006 15.6956 16.0268 15.8371C15.8996 16.0808 15.9098 16.2453 15.998 16.486C16.0516 16.6324 16.1288 16.7876 16.2365 17.0003L16.2444 17.0159C16.3443 17.2134 16.4656 17.4529 16.5701 17.718C16.7936 18.2853 16.9431 18.9737 16.7945 19.8446C16.7387 20.1715 16.6423 20.5159 16.4988 20.882ZM11.6411 3.22302C11.5475 3.54334 11.5271 3.86327 11.5753 4.1417C11.6451 4.54373 11.8475 4.83316 12.1677 4.98857C12.7324 5.26266 13.1081 5.62498 13.3439 6.06125C13.5658 6.47169 13.6332 6.89791 13.6793 7.20757L13.6832 7.23396C13.7775 7.868 13.82 8.15379 14.2469 8.4301C14.5671 8.6373 14.9662 8.72202 15.4395 8.58274C15.9299 8.43846 16.5577 8.03423 17.2444 7.14538C17.8026 6.42285 18.4934 5.97319 19.1796 5.7031C17.5199 4.12185 15.2733 3.15112 12.8 3.15112C12.4075 3.15112 12.0207 3.17557 11.6411 3.22302Z" fill="#008ece"/>
</svg>
