<svg width="26" height="24" viewBox="0 0 26 24" fill="none" xmlns="http://www.w3.org/2000/svg">
<path d="M11.8244 16.666C11.8244 16.0217 12.3467 15.4993 12.991 15.4993H13.0015C13.6459 15.4993 14.1682 16.0217 14.1682 16.666C14.1682 17.3103 13.6459 17.8327 13.0015 17.8327H12.991C12.3467 17.8327 11.8244 17.3103 11.8244 16.666Z" fill="#B42318"/>
<path d="M12.1252 13.166C12.1252 13.6493 12.5169 14.041 13.0002 14.041C13.4834 14.041 13.8752 13.6493 13.8752 13.166V8.49935C13.8752 8.0161 13.4834 7.62435 13.0002 7.62435C12.5169 7.62435 12.1252 8.0161 12.1252 8.49935V13.166Z" fill="#B42318"/>
<path fill-rule="evenodd" clip-rule="evenodd" d="M11.0891 0.350183C12.331 -0.0620403 13.6693 -0.0620403 14.9112 0.350183C16.1479 0.760702 17.1189 1.73433 18.0945 3.10229C19.0667 4.46572 20.1411 6.36675 21.526 8.81726L21.5803 8.91347C22.9654 11.3644 24.0397 13.2653 24.7092 14.8069C25.382 16.356 25.7171 17.6936 25.4497 18.9785C25.1805 20.2722 24.5168 21.4488 23.5501 22.338C22.5858 23.225 21.2727 23.5992 19.6193 23.779C17.9754 23.9577 15.8249 23.9577 13.057 23.9577H12.9433C10.1755 23.9577 8.02496 23.9577 6.38099 23.779C4.72764 23.5992 3.41458 23.225 2.45025 22.338C1.48356 21.4488 0.819789 20.2722 0.550608 18.9785C0.283261 17.6936 0.61833 16.356 1.29109 14.8069C1.9606 13.2653 3.03491 11.3643 4.42001 8.91346L4.47437 8.81726C5.85924 6.36676 6.93359 4.46572 7.90587 3.10229C8.88139 1.73433 9.85242 0.760702 11.0891 0.350183ZM14.3599 2.01107C13.476 1.71766 12.5244 1.71766 11.6405 2.01107C10.9451 2.24188 10.2462 2.8346 9.33069 4.11835C8.41838 5.39769 7.38848 7.21769 5.9706 9.7266C4.55281 12.2353 3.52478 14.0568 2.89625 15.504C2.26663 16.9538 2.1089 17.8769 2.26392 18.622C2.45946 19.5618 2.94063 20.4113 3.635 21.05C4.18034 21.5516 5.0301 21.8718 6.57013 22.0392C8.10829 22.2064 10.1635 22.2077 13.0002 22.2077C15.8368 22.2077 17.892 22.2064 19.4302 22.0392C20.9702 21.8718 21.82 21.5516 22.3653 21.05C23.0597 20.4113 23.5409 19.5618 23.7364 18.622C23.8914 17.8769 23.7337 16.9538 23.1041 15.504C22.4755 14.0568 21.4475 12.2353 20.0297 9.7266C18.6119 7.21769 17.582 5.39769 16.6696 4.11835C15.7542 2.8346 15.0552 2.24188 14.3599 2.01107Z" fill="#B42318"/>
</svg>
