<svg width="24" height="24" viewBox="0 0 24 24" fill="none" xmlns="http://www.w3.org/2000/svg">
<path fill-rule="evenodd" clip-rule="evenodd" d="M12.8585 2.95425C12.4701 2.30692 11.5319 2.30692 11.1435 2.95425L0.909677 20.0106C0.509762 20.6771 0.989874 21.5251 1.76717 21.5251L22.2348 21.5251C23.0121 21.5251 23.4922 20.6771 23.0923 20.0106L12.8585 2.95425Z" fill="white"/>
<path fill-rule="evenodd" clip-rule="evenodd" d="M12.8565 2.95425C12.4681 2.30692 11.5299 2.30692 11.1415 2.95425L0.907724 20.0106C0.507809 20.6771 0.987921 21.5251 1.76522 21.5251L22.2328 21.5251C23.0101 21.5251 23.4902 20.6771 23.0903 20.0106L12.8565 2.95425ZM11.999 8.5251C11.4467 8.5251 10.999 8.97281 10.999 9.5251L10.999 13.5251C10.999 14.0774 11.4467 14.5251 11.999 14.5251C12.5513 14.5251 12.999 14.0774 12.999 13.5251L12.999 9.5251C12.999 8.97281 12.5513 8.5251 11.999 8.5251ZM11.999 16.5251C11.4467 16.5251 10.999 16.9728 10.999 17.5251C10.999 18.0774 11.4467 18.5251 11.999 18.5251C12.5513 18.5251 12.999 18.0774 12.999 17.5251C12.999 16.9728 12.5513 16.5251 11.999 16.5251Z" fill="#B54708"/>
</svg>
