<svg width="25" height="25" viewBox="0 0 25 25" fill="none" xmlns="http://www.w3.org/2000/svg">
<path d="M21.2421 17.1509H22.3961C22.8101 17.1509 23.1461 16.8149 23.1461 16.4009C23.1461 15.9869 22.8101 15.6509 22.3961 15.6509H21.2381C19.9341 15.6509 19.3891 15.6429 18.9821 15.4279C18.5443 15.197 18.1475 14.6604 17.3562 13.5905L15.0332 10.4535C14.7442 10.0631 14.0717 9.15468 12.9481 9.51791C12.4441 9.68091 12.0201 10.0409 11.6471 10.3579C11.638 10.3656 11.6289 10.3733 11.6199 10.381C11.5049 10.4785 11.3963 10.5707 11.2981 10.6439C11.0111 10.8589 10.6501 10.8149 10.4001 10.5329C10.0601 10.1499 10.0601 9.50291 10.4001 9.11991L11.8661 7.46991C12.3671 6.90591 12.7991 6.41993 13.3791 6.25993C13.9481 6.10393 14.6981 6.14891 15.3601 6.18991L15.4601 6.19591C15.9391 6.22491 16.4021 6.44293 16.7651 6.81093C17.5751 7.62793 18.5131 8.38393 19.8811 8.38393L22.3981 8.38393C22.8121 8.38393 23.1481 8.04793 23.1481 7.63393C23.1481 7.21993 22.8121 6.88393 22.3981 6.88393L19.8811 6.88393C19.1061 6.88393 18.5221 6.45192 17.8321 5.75592C17.2101 5.12592 16.4011 4.74992 15.5531 4.69792L15.4486 4.69158C14.6719 4.64466 13.7912 4.59145 12.9841 4.81293C12.4868 4.94971 12.0827 5.19034 11.7283 5.48067C11.7148 5.47407 11.701 5.46784 11.687 5.46199L10.294 4.88298C9.00196 4.34598 7.55896 4.75798 6.61796 5.93098C6.24596 6.39498 5.76497 6.65098 5.26497 6.65098L2.39996 6.65098C1.98596 6.65098 1.64996 6.98698 1.64996 7.40098C1.64996 7.81498 1.98596 8.15098 2.39996 8.15098H5.26497C6.21497 8.15098 7.13396 7.68397 7.78796 6.86997C8.30896 6.21997 9.04896 5.98997 9.71896 6.26797L10.6029 6.63538L9.28206 8.12292C8.43406 9.07692 8.43406 10.5729 9.28206 11.5279C10.0571 12.3999 11.2851 12.5309 12.2021 11.8419C12.3431 11.7359 12.4851 11.6159 12.6211 11.4999C12.8881 11.2729 13.1911 11.0159 13.4131 10.9439C13.4381 10.9359 13.4501 10.9349 13.4501 10.9349C13.4961 10.9489 13.5991 11.0309 13.8321 11.3469L16.1606 14.4911C16.3267 14.7155 16.479 14.9212 16.6216 15.1099L15.29 16.398C13.812 17.827 13.069 18.544 12.292 18.637C12.2575 18.6409 12.223 18.6439 12.1886 18.6468L12.187 18.647C11.4074 18.7029 10.532 18.1387 8.78418 17.0121L8.77477 17.006C7.79169 16.3725 7.24861 16.0226 6.60096 15.827L6.51096 15.8C5.86396 15.618 5.24797 15.618 4.02097 15.618H2.39996C1.98596 15.618 1.64996 15.954 1.64996 16.368C1.64996 16.782 1.98596 17.118 2.39996 17.118H4.02097C5.10495 17.118 5.65097 17.118 6.09896 17.242L6.17097 17.264C6.613 17.3977 7.06498 17.6887 7.96802 18.2701L7.97733 18.2761C9.82102 19.4647 10.8854 20.1508 12.0705 20.151C12.1443 20.151 12.2191 20.1489 12.294 20.142H12.311C12.3666 20.137 12.4233 20.1319 12.474 20.126C13.748 19.974 14.666 19.087 16.338 17.471L17.5964 16.2539C17.8148 16.4589 18.0364 16.6222 18.2861 16.7539C19.0381 17.1509 19.8211 17.1509 21.2421 17.1509Z" fill="#008ece"/>
</svg>
