<svg width="25" height="25" viewBox="0 0 25 25" fill="none" xmlns="http://www.w3.org/2000/svg">
<path d="M11.825 10.1937C12.205 10.0293 12.6467 10.2044 12.8113 10.5843C12.8759 10.7337 12.8854 10.8925 12.8533 11.0403C12.9127 11.1477 12.9499 11.2693 12.95 11.4007V12.3538L17.0925 14.1966C17.6849 13.4 18.631 12.8821 19.7 12.8821C21.4949 12.8821 22.9499 14.3372 22.95 16.1321C22.95 17.9271 21.4949 19.3821 19.7 19.3821C17.905 19.3821 16.45 17.9271 16.45 16.1321C16.45 15.9417 16.4664 15.755 16.4978 15.5735L12.95 13.9954V17.6556C13.2331 17.6604 13.491 17.6711 13.7166 17.7015C14.1264 17.7566 14.5404 17.8838 14.8787 18.222C15.2169 18.5602 15.344 18.9743 15.3992 19.3841C15.4499 19.7612 15.45 20.2288 15.45 20.7542V21.0481C15.45 21.5735 15.4499 22.0411 15.3992 22.4183C15.344 22.8281 15.2169 23.2422 14.8787 23.5804C14.5404 23.9185 14.1264 24.0458 13.7166 24.1009C13.3394 24.1516 12.8717 24.1507 12.3464 24.1507H12.0535C11.5282 24.1507 11.0605 24.1516 10.6833 24.1009C10.2735 24.0458 9.85951 23.9185 9.52124 23.5804C9.18305 23.2422 9.05588 22.8281 9.00073 22.4183C8.95002 22.0411 8.94991 21.5735 8.94995 21.0481V20.7542C8.94991 20.2288 8.95002 19.7612 9.00073 19.3841C9.05588 18.9743 9.18305 18.5602 9.52124 18.222C9.85951 17.8838 10.2735 17.7566 10.6833 17.7015C10.9089 17.6711 11.1668 17.6604 11.45 17.6556V12.0374L7.82202 13.7835C7.90455 14.0698 7.94993 14.372 7.94995 14.6849C7.94995 16.4798 6.49488 17.9349 4.69995 17.9349C2.90503 17.9349 1.44995 16.4798 1.44995 14.6849C1.45008 12.89 2.90511 11.4349 4.69995 11.4349C5.64138 11.4349 6.4863 11.8382 7.07983 12.4778L11.825 10.1937ZM12.1003 19.1507C11.5137 19.1507 11.1487 19.1532 10.8835 19.1888C10.6442 19.2209 10.5968 19.2684 10.5828 19.2825H10.5818L10.5808 19.2835C10.5667 19.2976 10.5192 19.3451 10.4871 19.5843C10.4514 19.8494 10.45 20.2142 10.45 20.8011V21.0013C10.45 21.5881 10.4514 21.9529 10.4871 22.2181C10.5192 22.4573 10.5667 22.5048 10.5808 22.5188L10.5818 22.5198H10.5828C10.5968 22.534 10.6443 22.5814 10.8835 22.6136C11.1487 22.6492 11.5137 22.6507 12.1003 22.6507H12.2996C12.8862 22.6507 13.2512 22.6492 13.5164 22.6136C13.7556 22.5814 13.8031 22.534 13.8171 22.5198H13.8181L13.8191 22.5188C13.8332 22.5048 13.8807 22.4573 13.9128 22.2181C13.9485 21.9529 13.95 21.5881 13.95 21.0013V20.8011C13.95 20.2142 13.9485 19.8494 13.9128 19.5843C13.8807 19.3451 13.8332 19.2976 13.8191 19.2835L13.8181 19.2825H13.8171C13.8031 19.2684 13.7557 19.2209 13.5164 19.1888C13.2512 19.1532 12.8862 19.1507 12.2996 19.1507H12.1003ZM19.7 14.3821C18.7335 14.3821 17.95 15.1657 17.95 16.1321C17.95 17.0986 18.7335 17.8821 19.7 17.8821C20.6665 17.8821 21.45 17.0986 21.45 16.1321C21.4499 15.1657 20.6664 14.3821 19.7 14.3821ZM4.69995 12.9349C3.73353 12.9349 2.95008 13.7185 2.94995 14.6849C2.94995 15.6514 3.73345 16.4349 4.69995 16.4349C5.66645 16.4349 6.44995 15.6514 6.44995 14.6849C6.44982 13.7185 5.66637 12.9349 4.69995 12.9349Z" fill="#008ece"/>
<path d="M6.19995 0.638062C9.27343 0.638062 11.8645 2.69299 12.6804 5.5033C13.9022 3.77049 15.9185 2.63806 18.2 2.63806H21.2C21.6142 2.63806 21.95 2.97385 21.95 3.38806V4.38806C21.95 8.11598 18.9279 11.1381 15.2 11.1381H12.95V17.3881C12.95 17.8023 12.6142 18.1381 12.2 18.1381C11.7857 18.1381 11.45 17.8023 11.45 17.3881V9.38416C11.45 9.30175 11.4528 9.21975 11.4558 9.13806H9.19995C5.47203 9.13806 2.44995 6.11598 2.44995 2.38806V1.38806C2.44995 0.973848 2.78574 0.638062 3.19995 0.638062H6.19995ZM18.2 4.13806C15.3005 4.13806 12.95 6.48857 12.95 9.38806V9.63806H15.2C18.0994 9.63806 20.45 7.28756 20.45 4.38806V4.13806H18.2ZM3.94995 2.38806C3.94995 5.28756 6.30046 7.63806 9.19995 7.63806H11.45V7.38806C11.45 4.48857 9.09945 2.13806 6.19995 2.13806H3.94995V2.38806Z" fill="#008ece"/>
</svg>
