<svg width="25" height="25" viewBox="0 0 25 25" fill="none" xmlns="http://www.w3.org/2000/svg">
<path fill-rule="evenodd" clip-rule="evenodd" d="M8.38569 1.65112C6.98525 1.65112 5.84998 2.7864 5.84998 4.18684C5.84998 5.11818 6.17114 5.97451 6.70877 6.65112H6.07305C5.62867 6.65111 5.25527 6.65111 4.95079 6.67318C4.63477 6.6961 4.3279 6.74595 4.0355 6.88101C3.70432 7.03398 3.40839 7.26346 3.19278 7.56222C2.98905 7.84452 2.91296 8.14862 2.87987 8.44073C2.84991 8.70518 2.84994 9.02229 2.84998 9.36515V9.43709C2.84994 9.77996 2.84991 10.0971 2.87987 10.3615C2.91296 10.6536 2.98905 10.9577 3.19278 11.24C3.36722 11.4817 3.59425 11.6781 3.84998 11.8253L3.84998 15.4569C3.84996 17.0595 3.84994 18.3384 3.98481 19.3415C4.12413 20.3778 4.41963 21.2312 5.09477 21.9063C5.76991 22.5815 6.62332 22.877 7.65959 23.0163C8.66268 23.1512 9.94164 23.1511 11.5442 23.1511H13.6557C15.2583 23.1511 16.5373 23.1512 17.5404 23.0163C18.5766 22.877 19.43 22.5815 20.1052 21.9063C20.7803 21.2312 21.0758 20.3778 21.2151 19.3415C21.35 18.3384 21.35 17.0595 21.35 15.4569V11.8253C21.6057 11.6781 21.8327 11.4817 22.0072 11.24C22.2109 10.9577 22.287 10.6536 22.3201 10.3615C22.3501 10.0971 22.35 9.77997 22.35 9.4371V9.36514C22.35 9.02228 22.3501 8.70518 22.3201 8.44073C22.287 8.14862 22.2109 7.84452 22.0072 7.56222C21.7916 7.26346 21.4956 7.03398 21.1645 6.88101C20.8721 6.74595 20.5652 6.6961 20.2492 6.67318C19.9447 6.65111 19.5713 6.65111 19.1269 6.65112H18.4912C19.0288 5.97451 19.35 5.11818 19.35 4.18684C19.35 2.7864 18.2147 1.65112 16.8143 1.65112H16.4571C14.843 1.65112 13.4228 2.48119 12.6 3.73774C11.7772 2.48119 10.3569 1.65112 8.74283 1.65112H8.38569ZM13.35 21.6511H13.6C15.2711 21.6511 16.449 21.6495 17.3405 21.5297C18.2104 21.4127 18.6945 21.1957 19.0445 20.8457C19.3945 20.4957 19.6116 20.0116 19.7285 19.1416C19.8484 18.2501 19.85 17.0722 19.85 15.4011V12.1464C19.6343 12.1511 19.3935 12.1511 19.1273 12.1511H13.35V21.6511ZM11.85 12.1511V21.6511H11.6C9.92886 21.6511 8.75097 21.6495 7.85946 21.5297C6.98953 21.4127 6.50542 21.1957 6.15543 20.8457C5.80545 20.4957 5.58839 20.0116 5.47143 19.1416C5.35157 18.2501 5.34998 17.0722 5.34998 15.4011V12.1464C5.56568 12.1511 5.80643 12.1511 6.07264 12.1511H11.85ZM12.5988 10.6511C12.5992 10.6511 12.5996 10.6511 12.6 10.6511C12.6004 10.6511 12.6008 10.6511 12.6012 10.6511H19.1C19.5784 10.6511 19.897 10.6507 20.1407 10.633C20.379 10.6157 20.4798 10.5852 20.5355 10.5595C20.6604 10.5018 20.7432 10.4283 20.7909 10.3622C20.7924 10.3601 20.7967 10.3542 20.8028 10.3356C20.8103 10.3128 20.8209 10.2701 20.8296 10.1927C20.8489 10.0229 20.85 9.79216 20.85 9.40112C20.85 9.01009 20.8489 8.77938 20.8296 8.60959C20.8209 8.53215 20.8103 8.48944 20.8028 8.46662C20.7967 8.44803 20.7925 8.44235 20.791 8.44021C20.7433 8.37411 20.6604 8.30045 20.5355 8.24277C20.4798 8.21706 20.379 8.18653 20.1407 8.16926C19.897 8.15159 19.5784 8.15112 19.1 8.15112H6.09998C5.62161 8.15112 5.30298 8.15159 5.05927 8.16926C4.82096 8.18653 4.72013 8.21706 4.66447 8.24277C4.53958 8.30045 4.4568 8.37394 4.40911 8.44003C4.40755 8.44218 4.4033 8.44804 4.39719 8.46662C4.38968 8.48944 4.37911 8.53215 4.37033 8.60959C4.3511 8.77938 4.34998 9.01009 4.34998 9.40112C4.34998 9.79216 4.3511 10.0229 4.37033 10.1927C4.37911 10.2701 4.38968 10.3128 4.39719 10.3356C4.4033 10.3542 4.40742 10.3599 4.40898 10.362C4.45667 10.4281 4.53958 10.5018 4.66447 10.5595C4.72013 10.5852 4.82096 10.6157 5.05927 10.633C5.30298 10.6507 5.62161 10.6511 6.09998 10.6511H12.5988ZM11.85 6.25827V6.65112H9.81426C8.45327 6.65112 7.34998 5.54782 7.34998 4.18684C7.34998 3.61483 7.81368 3.15112 8.38569 3.15112H8.74283C10.4589 3.15112 11.85 4.54224 11.85 6.25827ZM17.85 4.18684C17.85 5.54782 16.7467 6.65112 15.3857 6.65112L13.35 6.65112V6.25827C13.35 4.54224 14.7411 3.15112 16.4571 3.15112H16.8143C17.3863 3.15112 17.85 3.61483 17.85 4.18684Z" fill="#008ece"/>
</svg>
