<svg width="28" height="30" viewBox="0 0 28 30" fill="none" xmlns="http://www.w3.org/2000/svg">
<g id="elements">
<g id="Icon">
<path d="M15.0002 1.66797C15.0002 1.11568 14.5525 0.667969 14.0002 0.667969C13.448 0.667969 13.0002 1.11568 13.0002 1.66797V4.33464C13.0002 4.88692 13.448 5.33464 14.0002 5.33464C14.5525 5.33464 15.0002 4.88692 15.0002 4.33464V1.66797Z" fill="#007960"/>
<path d="M8.70735 2.96086C8.31683 2.57034 7.68366 2.57034 7.29314 2.96086C6.90261 3.35139 6.90261 3.98455 7.29314 4.37508L9.29314 6.37508C9.68366 6.7656 10.3168 6.7656 10.7074 6.37508C11.0979 5.98455 11.0979 5.35139 10.7074 4.96086L8.70735 2.96086Z" fill="#007960"/>
<path d="M20.7073 4.37508C21.0979 3.98455 21.0979 3.35139 20.7073 2.96086C20.3168 2.57034 19.6837 2.57034 19.2931 2.96086L17.2931 4.96086C16.9026 5.35139 16.9026 5.98455 17.2931 6.37508C17.6837 6.7656 18.3168 6.7656 18.7073 6.37508L20.7073 4.37508Z" fill="#007960"/>
<path fill-rule="evenodd" clip-rule="evenodd" d="M14.0409 8.66797H13.9596C13.3276 8.66795 12.7913 8.66794 12.3464 8.70606C11.8753 8.74643 11.4329 8.83395 11.003 9.04978C10.6421 9.23095 10.3142 9.4715 10.0323 9.76108C9.69748 10.105 9.47805 10.5004 9.29283 10.9388C9.11731 11.3542 8.94825 11.87 8.74803 12.4809L8.27838 13.9137C8.03472 14.6568 7.81878 15.3154 7.72404 15.8567C7.62265 16.436 7.61803 17.0975 8.03973 17.6925C8.46452 18.2919 9.09273 18.5011 9.67405 18.5878C10.2125 18.6681 10.8982 18.6681 11.6662 18.668H16.3342C17.1023 18.6681 17.788 18.6681 18.3264 18.5878C18.9078 18.5011 19.536 18.2919 19.9608 17.6925C20.3825 17.0975 20.3778 16.436 20.2765 15.8567C20.1817 15.3154 19.9658 14.6568 19.7221 13.9137L19.2525 12.4809C19.0523 11.87 18.8832 11.3542 18.7077 10.9388C18.5224 10.5004 18.303 10.105 17.9682 9.76108C17.6863 9.4715 17.3584 9.23095 16.9975 9.04978C16.5676 8.83395 16.1252 8.74643 15.6541 8.70606C15.2092 8.66794 14.6729 8.66795 14.0409 8.66797ZM11.9003 10.8372C12.0192 10.7775 12.1845 10.7273 12.5171 10.6988C12.8666 10.6688 13.3167 10.668 14.0002 10.668C14.6838 10.668 15.1339 10.6688 15.4833 10.6988C15.816 10.7273 15.9813 10.7775 16.1002 10.8372C16.2608 10.9178 16.4079 11.0254 16.5351 11.1561C16.6309 11.2545 16.7321 11.4019 16.8654 11.7172C17.0047 12.0469 17.1484 12.483 17.3644 13.1417L17.7996 14.4695C18.072 15.3006 18.2396 15.8199 18.3064 16.2015C18.3378 16.3807 18.3359 16.4754 18.3304 16.5192C18.3296 16.5252 18.3289 16.5299 18.3282 16.5334L18.3225 16.5363C18.2885 16.553 18.2057 16.5837 18.0314 16.6097C17.6585 16.6653 17.1251 16.668 16.2622 16.668H11.7383C10.8754 16.668 10.342 16.6653 9.96906 16.6097C9.79482 16.5837 9.71204 16.553 9.67804 16.5363L9.67233 16.5334L9.67129 16.5276L9.67011 16.5192C9.66459 16.4754 9.66273 16.3807 9.69409 16.2015C9.76089 15.8199 9.92848 15.3006 10.2009 14.4695L10.6361 13.1417C10.852 12.483 10.9958 12.0469 11.1351 11.7172C11.2684 11.4019 11.3696 11.2545 11.4654 11.1561C11.5926 11.0254 11.7397 10.9178 11.9003 10.8372Z" fill="#007960"/>
<path fill-rule="evenodd" clip-rule="evenodd" d="M21.3744 19.3346H21.2931C20.6611 19.3346 20.1248 19.3346 19.6799 19.3727C19.2088 19.4131 18.7664 19.5006 18.3365 19.7164C17.9756 19.8976 17.6477 20.1382 17.3658 20.4277C17.031 20.7717 16.8116 21.167 16.6264 21.6054C16.4508 22.0209 16.2818 22.5367 16.0816 23.1476L15.6119 24.5803C15.3683 25.3235 15.1523 25.982 15.0576 26.5234C14.9562 27.1027 14.9516 27.7642 15.3733 28.3592C15.7981 28.9585 16.4263 29.1678 17.0076 29.2545C17.5461 29.3348 18.2317 29.3347 18.9998 29.3346H23.6678C24.4358 29.3347 25.1215 29.3348 25.66 29.2545C26.2413 29.1678 26.8695 28.9585 27.2943 28.3592C27.716 27.7642 27.7114 27.1027 27.61 26.5234C27.5152 25.982 27.2993 25.3235 27.0556 24.5803L26.586 23.1476C26.3858 22.5367 26.2167 22.0209 26.0412 21.6054C25.856 21.167 25.6366 20.7717 25.3018 20.4277C25.0199 20.1382 24.6919 19.8976 24.3311 19.7164C23.9012 19.5006 23.4587 19.4131 22.9876 19.3727C22.5427 19.3346 22.0064 19.3346 21.3744 19.3346ZM19.2338 21.5038C19.3527 21.4442 19.518 21.3939 19.8507 21.3654C20.2001 21.3355 20.6502 21.3346 21.3338 21.3346C22.0173 21.3346 22.4675 21.3355 22.8169 21.3654C23.1496 21.3939 23.3149 21.4442 23.4337 21.5038C23.5943 21.5845 23.7414 21.6921 23.8686 21.8228C23.9644 21.9212 24.0657 22.0685 24.1989 22.3838C24.3382 22.7135 24.482 23.1496 24.6979 23.8084L25.1331 25.1362C25.4055 25.9672 25.5731 26.4865 25.6399 26.8682C25.6713 27.0474 25.6694 27.142 25.6639 27.1859C25.6632 27.1919 25.6624 27.1966 25.6617 27.2001L25.656 27.203C25.622 27.2197 25.5392 27.2504 25.365 27.2764C24.992 27.332 24.4586 27.3346 23.5957 27.3346H19.0719C18.2089 27.3346 17.6756 27.332 17.3026 27.2764C17.1284 27.2504 17.0456 27.2197 17.0116 27.203L17.0059 27.2001C17.0052 27.1966 17.0044 27.1919 17.0036 27.1859C16.9981 27.142 16.9963 27.0474 17.0276 26.8682C17.0944 26.4865 17.262 25.9672 17.5344 25.1362L17.9696 23.8084C18.1856 23.1496 18.3294 22.7135 18.4687 22.3838C18.6019 22.0685 18.7031 21.9212 18.7989 21.8228C18.9262 21.6921 19.0732 21.5845 19.2338 21.5038Z" fill="#007960"/>
<path fill-rule="evenodd" clip-rule="evenodd" d="M6.62647 19.3346H6.70777C7.33975 19.3346 7.87607 19.3346 8.32097 19.3727C8.79208 19.4131 9.23449 19.5006 9.66441 19.7164C10.0253 19.8976 10.3532 20.1382 10.6351 20.4277C10.9699 20.7717 11.1893 21.167 11.3745 21.6054C11.5501 22.0209 11.7191 22.5367 11.9194 23.1476L12.389 24.5803C12.6326 25.3235 12.8486 25.982 12.9433 26.5234C13.0447 27.1027 13.0493 27.7642 12.6276 28.3592C12.2028 28.9585 11.5746 29.1678 10.9933 29.2545C10.4548 29.3348 9.76918 29.3347 9.00112 29.3346H4.33311C3.56506 29.3347 2.8794 29.3348 2.34093 29.2545C1.7596 29.1678 1.13139 28.9585 0.706597 28.3592C0.284905 27.7642 0.289525 27.1027 0.390907 26.5234C0.485655 25.982 0.70159 25.3235 0.945253 24.5803L1.41489 23.1476C1.61511 22.5367 1.78417 22.0209 1.9597 21.6054C2.14492 21.167 2.36435 20.7717 2.69913 20.4277C2.98102 20.1382 3.30896 19.8976 3.66983 19.7164C4.09975 19.5006 4.54216 19.4131 5.01327 19.3727C5.45816 19.3346 5.99448 19.3346 6.62647 19.3346ZM5.18402 21.3654C4.85132 21.3939 4.68604 21.4442 4.56716 21.5038C4.40657 21.5845 4.25949 21.6921 4.13226 21.8228C4.03648 21.9212 3.93522 22.0685 3.80201 22.3838C3.6627 22.7135 3.51892 23.1496 3.30298 23.8084L2.86776 25.1362C2.59535 25.9672 2.42776 26.4865 2.36096 26.8682C2.3296 27.0474 2.33146 27.142 2.33698 27.1859C2.33773 27.1919 2.33851 27.1966 2.3392 27.2001L2.34492 27.203C2.37891 27.2197 2.4617 27.2504 2.63593 27.2764C3.00888 27.332 3.54225 27.3346 4.40521 27.3346H8.92902C9.79198 27.3346 10.3254 27.332 10.6983 27.2764C10.8725 27.2504 10.9553 27.2197 10.9893 27.203L10.995 27.2001C10.9957 27.1966 10.9965 27.1919 10.9973 27.1859C11.0028 27.142 11.0046 27.0474 10.9733 26.8682C10.9065 26.4865 10.7389 25.9672 10.4665 25.1362L10.0313 23.8084C9.81532 23.1496 9.67153 22.7135 9.53223 22.3838C9.39901 22.0685 9.29776 21.9212 9.20198 21.8228C9.07474 21.6921 8.92767 21.5845 8.76707 21.5038C8.6482 21.4442 8.48291 21.3939 8.15022 21.3654C7.80081 21.3355 7.35067 21.3346 6.66712 21.3346C5.98357 21.3346 5.53342 21.3355 5.18402 21.3654Z" fill="#007960"/>
</g>
</g>
</svg>
