<svg width="16" height="16" viewBox="0 0 16 16" fill="none" xmlns="http://www.w3.org/2000/svg">
<g id="Icon">
<g id="Icon_2">
<path d="M7.33331 11.3333C7.33331 10.9651 7.63179 10.6667 7.99998 10.6667H8.00597C8.37416 10.6667 8.67263 10.9651 8.67263 11.3333C8.67263 11.7015 8.37416 12 8.00597 12H7.99998C7.63179 12 7.33331 11.7015 7.33331 11.3333Z" fill="#0D121C"/>
<path fill-rule="evenodd" clip-rule="evenodd" d="M2.16665 6.89365L1.67937 7.36089C1.48005 7.55201 1.16354 7.54536 0.972417 7.34604C0.781296 7.14673 0.787942 6.83021 0.98726 6.63909L3.90941 3.83713C4.77563 3.00652 5.46213 2.34824 6.07159 1.90237C6.69964 1.44289 7.30075 1.16666 7.99998 1.16666C8.69921 1.16666 9.30033 1.44289 9.92837 1.90237C10.5378 2.34825 11.2243 3.00653 12.0906 3.83713L15.0127 6.63909C15.212 6.83021 15.2187 7.14673 15.0275 7.34604C14.8364 7.54536 14.5199 7.55201 14.3206 7.36089L13.8333 6.89365V9.0376C13.8333 10.2628 13.8333 11.2332 13.7312 11.9927C13.6261 12.7743 13.4047 13.4069 12.9058 13.9058C12.4069 14.4047 11.7743 14.6261 10.9927 14.7312C10.2332 14.8333 9.26278 14.8333 8.03762 14.8333H7.96237C6.73721 14.8333 5.76677 14.8333 5.0073 14.7312C4.22568 14.6261 3.59305 14.4047 3.09414 13.9058C2.59523 13.4069 2.37382 12.7743 2.26874 11.9927C2.16663 11.2332 2.16664 10.2628 2.16665 9.0376L2.16665 6.89365ZM4.5748 4.58454C5.47374 3.72258 6.11273 3.11132 6.66204 2.70944C7.19903 2.31659 7.59464 2.16666 7.99998 2.16666C8.40532 2.16666 8.80093 2.31659 9.33792 2.70944C9.88724 3.11132 10.5262 3.72258 11.4252 4.58454L12.8333 5.93478V8.99999C12.8333 10.2712 12.8323 11.1743 12.7401 11.8594C12.65 12.5302 12.4809 12.9166 12.1987 13.1987C11.9166 13.4809 11.5301 13.65 10.8594 13.7401C10.1743 13.8323 9.27119 13.8333 7.99998 13.8333C6.72877 13.8333 5.82566 13.8323 5.14055 13.7401C4.46982 13.65 4.08339 13.4809 3.80125 13.1987C3.51911 12.9166 3.35 12.5302 3.25982 11.8594C3.16771 11.1743 3.16665 10.2712 3.16665 8.99999V5.93478L4.5748 4.58454Z" fill="#0D121C"/>
</g>
</g>
</svg>
