<svg width="22" height="22" viewBox="0 0 22 22" fill="none" xmlns="http://www.w3.org/2000/svg">
<path fill-rule="evenodd" clip-rule="evenodd" d="M11 22C17.0751 22 22 17.0751 22 11C22 4.92487 17.0751 0 11 0C4.92487 0 0 4.92487 0 11C0 17.0751 4.92487 22 11 22ZM11 10C10.4477 10 10 10.4477 10 11V15C10 15.5523 10.4477 16 11 16C11.5523 16 12 15.5523 12 15V11C12 10.4477 11.5523 10 11 10ZM11 6C10.4477 6 10 6.44772 10 7C10 7.55228 10.4477 8 11 8C11.5523 8 12 7.55228 12 7C12 6.44772 11.5523 6 11 6Z" fill="#175CD3"/>
</svg>
