<svg width="18" height="18" viewBox="0 0 18 18" fill="none" xmlns="http://www.w3.org/2000/svg">
<g id="elements">
<g id="Icon">
<path d="M8.57594 8.7926C8.51806 8.79167 8.45114 8.79164 8.36857 8.79164C8.02339 8.79164 7.74357 8.51182 7.74357 8.16664C7.74357 7.82146 8.02339 7.54164 8.36857 7.54164L8.39728 7.54163C8.56821 7.54157 8.75303 7.54149 8.90905 7.56247C9.09182 7.58704 9.32531 7.65024 9.52181 7.84674C9.71831 8.04324 9.7815 8.27673 9.80608 8.4595C9.82705 8.61551 9.82698 8.80034 9.82691 8.97127L9.8269 13.1666C9.8269 13.5118 9.54708 13.7916 9.2019 13.7916C8.85673 13.7916 8.5769 13.5118 8.5769 13.1666V8.99998C8.5769 8.91741 8.57688 8.85048 8.57594 8.7926Z" fill="#D28F0F"/>
<path d="M8.99357 4.83329C8.53333 4.83329 8.16024 5.20639 8.16024 5.66663C8.16024 6.12686 8.53333 6.49996 8.99357 6.49996H9.00106C9.46129 6.49996 9.83439 6.12686 9.83439 5.66663C9.83439 5.20639 9.46129 4.83329 9.00106 4.83329H8.99357Z" fill="#D28F0F"/>
<path fill-rule="evenodd" clip-rule="evenodd" d="M0.041748 8.99996C0.041748 13.9475 4.05253 17.9583 9.00008 17.9583C13.9476 17.9583 17.9584 13.9475 17.9584 8.99996C17.9584 4.05241 13.9476 0.041626 9.00008 0.041626C4.05253 0.041626 0.041748 4.05241 0.041748 8.99996ZM9.00008 16.7083C4.74289 16.7083 1.29175 13.2572 1.29175 8.99996C1.29175 4.74276 4.74289 1.29163 9.00008 1.29163C13.2573 1.29163 16.7084 4.74276 16.7084 8.99996C16.7084 13.2572 13.2573 16.7083 9.00008 16.7083Z" fill="#D28F0F"/>
</g>
</g>
</svg>
