<svg width="16" height="16" viewBox="0 0 16 16" fill="none" xmlns="http://www.w3.org/2000/svg">
<path fill-rule="evenodd" clip-rule="evenodd" d="M7.99996 15.3334C12.05 15.3334 15.3333 12.0501 15.3333 8.00002C15.3333 3.94993 12.05 0.666687 7.99996 0.666687C3.94987 0.666687 0.666626 3.94993 0.666626 8.00002C0.666626 12.0501 3.94987 15.3334 7.99996 15.3334ZM7.99996 7.33335C7.63177 7.33335 7.33329 7.63183 7.33329 8.00002V10.6667C7.33329 11.0349 7.63177 11.3334 7.99996 11.3334C8.36815 11.3334 8.66663 11.0349 8.66663 10.6667V8.00002C8.66663 7.63183 8.36815 7.33335 7.99996 7.33335ZM7.99996 4.66669C7.63177 4.66669 7.33329 4.96516 7.33329 5.33335C7.33329 5.70154 7.63177 6.00002 7.99996 6.00002C8.36815 6.00002 8.66663 5.70154 8.66663 5.33335C8.66663 4.96516 8.36815 4.66669 7.99996 4.66669Z" fill="#384250"/>
</svg>
