<svg width="22" height="30" viewBox="0 0 22 30" fill="none" xmlns="http://www.w3.org/2000/svg">
<g id="Group 26677">
<path id="Primary (Stroke)" fill-rule="evenodd" clip-rule="evenodd" d="M3.79525 15.612L2.67183 17.8643L7.70202 19.3028L9.49176 16.2699L3.79525 15.612ZM11.1349 14.4463L18.5882 13.5856L18.5906 13.5853C19.2084 13.5126 19.8208 13.8315 20.1053 14.4005L21.3941 16.9781L21.3949 16.9796C21.8256 17.838 21.5711 18.8322 20.8883 19.4011V25.2527C20.8883 26.3934 20.1109 27.3851 19.0071 27.6636C18.9975 27.666 18.9879 27.6683 18.9783 27.6704L11.8443 29.2479C11.3788 29.3636 10.8903 29.3643 10.4248 29.2477L3.295 27.6736C3.28385 27.6711 3.27274 27.6685 3.26167 27.6656C2.16228 27.3831 1.38472 26.3943 1.38472 25.2527V19.4024C0.699162 18.8329 0.448236 17.8365 0.878033 16.9797L2.16323 14.4032C2.44509 13.8335 3.05764 13.5068 3.68462 13.586L11.1349 14.4463ZM3.38472 20.1483L7.15912 21.2277L7.16041 21.2281C8.02662 21.4767 8.95286 21.1097 9.41406 20.3368L11.1349 17.4206L12.8533 20.3326L12.8558 20.3368C13.3171 21.1098 14.2435 21.4768 15.1098 21.228L18.8883 20.1481V25.2527C18.8883 25.4693 18.7425 25.6627 18.5282 25.7217L11.3985 27.2982C11.3881 27.3005 11.3777 27.3029 11.3674 27.3056C11.2131 27.3449 11.0529 27.3443 10.9048 27.3062C10.8936 27.3033 10.8824 27.3006 10.8711 27.2981L3.7473 25.7253C3.52964 25.6637 3.38472 25.468 3.38472 25.2527V20.1483ZM19.6011 17.8643L18.475 15.612L12.7781 16.2699L14.5679 19.3028L19.6011 17.8643ZM18.8253 15.5715L18.8214 15.572L18.8253 15.5715Z" fill="#007960"/>
<path id="Union" fill-rule="evenodd" clip-rule="evenodd" d="M5.54564 0.7199C5.25485 0.622346 4.93537 0.663641 4.67893 0.831927C4.4225 1.00021 4.25748 1.27688 4.23125 1.58248C4.04822 3.71544 4.58752 5.84803 5.76251 7.63757C6.8036 9.22317 8.29021 10.4579 10.0276 11.1917V14.5902H12.0276V13.6327C12.3613 13.5365 12.689 13.4194 13.0088 13.282C14.3667 12.6975 15.5423 11.7583 16.4122 10.5629C17.1488 9.55057 17.6433 8.38616 17.8616 7.15933C17.922 6.81944 17.6233 6.53512 17.2868 6.61225C15.7145 6.97264 14.2769 7.78768 13.1573 8.96278C12.7259 9.41564 12.3501 9.91309 12.035 10.4444C12.1817 8.35928 11.6402 6.28208 10.4915 4.53259C9.3167 2.74338 7.57491 1.40067 5.54564 0.7199ZM8.81964 5.6303C9.47958 6.6354 9.88601 7.77731 10.0144 8.95903C8.98081 8.37181 8.09433 7.54502 7.43435 6.53986C6.77436 5.53469 6.3681 4.39261 6.24013 3.21079C7.27344 3.79833 8.15971 4.62521 8.81964 5.6303ZM14.1227 9.88249C13.5523 10.4812 13.098 11.173 12.7759 11.9224C13.7897 11.4284 14.6686 10.6928 15.3341 9.77835C15.6388 9.35954 15.8941 8.90967 16.0966 8.43778C15.363 8.79579 14.6935 9.28331 14.1227 9.88249Z" fill="#007960"/>
</g>
</svg>
