<svg width="25" height="25" viewBox="0 0 25 25" fill="none" xmlns="http://www.w3.org/2000/svg">
<path fill-rule="evenodd" clip-rule="evenodd" d="M10.4779 20.154C9.95594 20.154 9.43693 19.9859 8.98693 19.6559L6.99791 18.195C6.66391 17.95 6.59193 17.4799 6.83693 17.1469C7.08193 16.8129 7.55092 16.7409 7.88492 16.9859L9.87296 18.446C10.183 18.673 10.5689 18.7129 10.9049 18.5529C10.9857 18.5149 11.1044 18.4679 11.3176 18.3835L11.3519 18.37C11.6409 18.256 12.4039 17.954 12.8069 17.746C12.7519 17.547 12.6449 17.3719 12.4949 17.2429C12.3189 17.0919 12.1049 17.0279 11.8909 17.0609L11.7209 17.087L11.7175 17.0875C10.9931 17.2004 10.0916 17.3409 9.2379 16.7149L7.47491 15.425C7.01091 15.085 6.15491 15.1379 5.39991 15.1859L5.3499 15.1889C5.08841 15.2049 4.84057 15.22 4.59894 15.22C4.18494 15.22 3.84894 14.884 3.84894 14.47C3.84894 14.056 4.18494 13.72 4.59894 13.72C4.80894 13.72 5.0509 13.7049 5.3069 13.6889C6.26473 13.6289 7.4592 13.5541 8.3609 14.2149L10.1239 15.5049C10.4609 15.7519 10.8429 15.7069 11.4889 15.6059L11.6629 15.579C12.3029 15.479 12.9629 15.67 13.4699 16.104C13.5998 16.2152 13.7168 16.3391 13.8199 16.4735L17.3757 14.8307C17.3967 14.8207 17.4177 14.8128 17.4397 14.8048C18.4477 14.4468 19.5797 14.7268 20.3247 15.5168L20.9907 16.2128C21.2667 16.5008 21.3927 16.8947 21.3357 17.2937C21.2787 17.6887 21.0507 18.0267 20.7087 18.2227L12.8587 22.7807C12.4467 23.0247 11.9707 23.1507 11.4877 23.1507L11.4886 23.1498C11.2326 23.1498 10.9737 23.1138 10.7227 23.0418L4.38468 21.1498C3.98768 21.0318 3.76168 20.6138 3.88068 20.2168C3.99868 19.8198 4.41669 19.5938 4.81369 19.7128L11.1447 21.6027C11.4707 21.6967 11.8127 21.6557 12.0997 21.4857L19.7247 17.0588L19.2377 16.5498C18.8987 16.1898 18.4167 16.0628 17.9697 16.2078L14.3432 17.8832C14.347 17.9418 14.3489 18.0007 14.3489 18.0599C14.3489 18.7369 13.7149 19.0479 11.9029 19.7639C11.7549 19.8219 11.5879 19.8889 11.5449 19.9089C11.2019 20.0719 10.8389 20.1519 10.4769 20.1529L10.4779 20.154Z" fill="#008ece"/>
<path d="M6.06769 2.84558C9.14117 2.84558 11.7322 4.9005 12.5482 7.71082C13.77 5.97801 15.7863 4.84558 18.0677 4.84558L21.0677 4.84558C21.4819 4.84558 21.8177 5.18137 21.8177 5.59558V6.59558C21.8177 10.3235 18.7956 13.3456 15.0677 13.3456L12.8177 13.3456V13.6249C12.8177 14.0391 12.4819 14.3749 12.0677 14.3749C11.6535 14.3749 11.3177 14.0391 11.3177 13.6249V11.5917C11.3177 11.5093 11.3206 11.4273 11.3235 11.3456H9.06769C5.33977 11.3456 2.31769 8.3235 2.31769 4.59558L2.31769 3.59558C2.31769 3.18137 2.65347 2.84558 3.06769 2.84558L6.06769 2.84558ZM18.0677 6.34558C15.1682 6.34558 12.8177 8.69609 12.8177 11.5956V11.8456L15.0677 11.8456C17.9672 11.8456 20.3177 9.49508 20.3177 6.59558V6.34558L18.0677 6.34558ZM3.81769 4.59558C3.81769 7.49508 6.16819 9.84558 9.06769 9.84558H11.3177V9.59558C11.3177 6.69609 8.96718 4.34558 6.06769 4.34558L3.81769 4.34558V4.59558Z" fill="#008ece"/>
</svg>
