<svg width="24" height="24" viewBox="0 0 24 24" fill="none" xmlns="http://www.w3.org/2000/svg">
<path opacity="0.4" d="M6.57757 15.4816C5.1628 16.324 1.45336 18.0441 3.71266 20.1966C4.81631 21.248 6.04549 22 7.59087 22H16.4091C17.9545 22 19.1837 21.248 20.2873 20.1966C22.5466 18.0441 18.8372 16.324 17.4224 15.4816C14.1048 13.5061 9.89519 13.5061 6.57757 15.4816Z" fill="#007960"/>
<path fill-rule="evenodd" clip-rule="evenodd" d="M12 1.25C9.1005 1.25 6.75 3.6005 6.75 6.5C6.75 9.39949 9.1005 11.75 12 11.75C14.8995 11.75 17.25 9.39949 17.25 6.5C17.25 3.6005 14.8995 1.25 12 1.25ZM8.25 6.5C8.25 4.42893 9.92893 2.75 12 2.75C14.0711 2.75 15.75 4.42893 15.75 6.5C15.75 8.57107 14.0711 10.25 12 10.25C9.92893 10.25 8.25 8.57107 8.25 6.5Z" fill="#007960"/>
<path fill-rule="evenodd" clip-rule="evenodd" d="M18.2288 15.0792C18.0662 14.9874 17.9226 14.9064 17.8063 14.8372C14.2523 12.7209 9.74809 12.7209 6.19404 14.8372C6.07773 14.9064 5.93405 14.9875 5.77139 15.0793C5.05857 15.4814 3.98106 16.0893 3.2429 16.8118C2.78123 17.2637 2.34257 17.8592 2.26283 18.5888C2.17802 19.3646 2.51649 20.0927 3.1955 20.7396C4.36695 21.8556 5.77274 22.75 7.59104 22.75H16.4093C18.2276 22.75 19.6334 21.8556 20.8048 20.7396C21.4839 20.0927 21.8223 19.3646 21.7375 18.5888C21.6578 17.8592 21.2191 17.2637 20.7575 16.8118C20.0193 16.0893 18.9417 15.4813 18.2288 15.0792ZM6.96146 16.126C10.0426 14.2913 13.9577 14.2913 17.0389 16.126C17.2068 16.226 17.3907 16.3303 17.5834 16.4397C18.296 16.8439 19.1281 17.316 19.7082 17.8838C20.0683 18.2363 20.2218 18.5271 20.2464 18.7517C20.2659 18.9301 20.2208 19.2242 19.7702 19.6535C18.7343 20.6404 17.6818 21.25 16.4093 21.25H7.59104C6.3186 21.25 5.26602 20.6404 4.23017 19.6535C3.77954 19.2242 3.73445 18.9301 3.75395 18.7517C3.77851 18.5271 3.93202 18.2363 4.29214 17.8838C4.87223 17.316 5.70426 16.844 6.41686 16.4397C6.60953 16.3304 6.7936 16.226 6.96146 16.126Z" fill="#007960"/>
</svg>
