<svg width="14" height="16" viewBox="0 0 14 16" fill="none" xmlns="http://www.w3.org/2000/svg">
<path d="M4.16366 1.89125C5.30652 1.47982 6.24023 2.51982 6.56366 3.09125C4.86766 3.46497 4.27223 4.01354 3.13509 4.91983C2.10652 3.9484 2.73509 2.40554 4.16366 1.89125Z" fill="#F7A812"/>
<path fill-rule="evenodd" clip-rule="evenodd" d="M5.63907 2.17017C5.23243 1.89694 4.73234 1.74731 4.18301 1.94507C3.48281 2.19714 2.98236 2.69998 2.78166 3.25364C2.5866 3.79174 2.67322 4.37995 3.13876 4.84385C3.20142 4.79382 3.26252 4.74484 3.32235 4.69689C3.78551 4.32563 4.17184 4.01595 4.61073 3.75668C5.10436 3.46507 5.6635 3.23758 6.47459 3.05271C6.30731 2.77932 6.01538 2.42302 5.63907 2.17017ZM5.70281 2.07531C6.12845 2.36131 6.44832 2.77154 6.61338 3.06316L6.65148 3.13047L6.57595 3.14711C5.7328 3.3329 5.1658 3.56151 4.66886 3.85508C4.2375 4.1099 3.85815 4.41394 3.3944 4.78562C3.32206 4.8436 3.24766 4.90322 3.17069 4.96457L3.1319 4.99548L3.09584 4.96142C2.56387 4.459 2.45986 3.80602 2.67421 3.21469C2.8878 2.62549 3.41592 2.09976 4.1443 1.83754C4.73782 1.62387 5.27601 1.78853 5.70281 2.07531Z" fill="#003F6A"/>
<path d="M9.42081 0.348355C7.92024 -0.651645 6.3351 1.79636 5.76367 3.09121C6.72367 2.90836 7.84024 3.31978 8.27796 3.54836C9.1351 2.86264 10.6208 1.14836 9.42081 0.348355Z" fill="#F7A812"/>
<path fill-rule="evenodd" clip-rule="evenodd" d="M8.2805 0.118177C8.66437 0.00453362 9.06249 0.0408858 9.45253 0.300811L9.45254 0.300816C9.76699 0.510451 9.90899 0.783752 9.92611 1.0862C9.94302 1.38499 9.83788 1.7066 9.67123 2.01817C9.33781 2.64153 8.74593 3.24719 8.31368 3.59298L8.28458 3.61627L8.25153 3.59901C8.03683 3.4869 7.65267 3.32855 7.2034 3.22108C6.75381 3.11353 6.24347 3.058 5.77439 3.14735L5.66748 3.16772L5.71142 3.06815C5.99881 2.41692 6.54149 1.47426 7.20364 0.818615C7.53468 0.49082 7.8993 0.231027 8.2805 0.118177ZM5.85976 3.01719C6.31971 2.95032 6.80492 3.00824 7.22999 3.10993C7.66634 3.21431 8.04339 3.36579 8.27101 3.48056C8.69297 3.13724 9.25397 2.55595 9.57045 1.96427C9.73237 1.66155 9.82724 1.36173 9.812 1.09266C9.79698 0.827261 9.6747 0.586278 9.38915 0.395914C9.0289 0.155839 8.66617 0.123191 8.31294 0.227762C7.95703 0.333126 7.60829 0.578762 7.28405 0.899824C6.66755 1.51027 6.15304 2.37988 5.85976 3.01719Z" fill="#003F6A"/>
<path d="M11.8481 6.66496L13.4481 7.22268C13.6276 7.28553 13.6973 7.50268 13.5864 7.6581L12.1213 9.7141L11.8859 9.10153L12.9144 7.8341C13.0481 7.66953 12.9613 7.42153 12.7544 7.37468L11.999 7.20668L11.8481 6.66382V6.66496Z" fill="#668CA6"/>
<path fill-rule="evenodd" clip-rule="evenodd" d="M11.8514 6.65542L11.791 6.66366V6.7054L11.8015 6.70904L11.9531 7.25485L12.7418 7.43024C12.7418 7.43024 12.7419 7.43025 12.7418 7.43024C12.9077 7.46789 12.9768 7.66658 12.8701 7.79791L11.8207 9.09102L12.1061 9.83372L13.633 7.69112C13.633 7.69113 13.633 7.69112 13.633 7.69112C13.766 7.50456 13.6822 7.24396 13.4671 7.16858L11.867 6.61084L11.8514 6.65542ZM13.4293 7.27644L11.9328 6.75482L12.0449 7.15818L12.7671 7.31878C13.0148 7.37491 13.1195 7.67217 12.9588 7.86995C12.9588 7.86996 12.9588 7.86994 12.9588 7.86995L11.9511 9.11172L12.1365 9.59417L13.5399 7.62478C13.6285 7.5005 13.5729 7.32679 13.4293 7.27644C13.4293 7.27645 13.4293 7.27644 13.4293 7.27644Z" fill="#003F6A"/>
<path d="M7.0779 12.9768C9.88666 12.9768 12.1636 10.6999 12.1636 7.89113C12.1636 5.08237 9.88666 2.80542 7.0779 2.80542C4.26914 2.80542 1.99219 5.08237 1.99219 7.89113C1.99219 10.6999 4.26914 12.9768 7.0779 12.9768Z" fill="#668CA6"/>
<path fill-rule="evenodd" clip-rule="evenodd" d="M7.07793 2.91973C4.33229 2.91973 2.1065 5.14552 2.1065 7.89116C2.1065 10.6368 4.33229 12.8626 7.07793 12.8626C9.82357 12.8626 12.0494 10.6368 12.0494 7.89116C12.0494 5.14552 9.82357 2.91973 7.07793 2.91973ZM1.87793 7.89116C1.87793 5.01928 4.20605 2.69116 7.07793 2.69116C9.94981 2.69116 12.2779 5.01928 12.2779 7.89116C12.2779 10.763 9.94981 13.0912 7.07793 13.0912C4.20605 13.0912 1.87793 10.763 1.87793 7.89116Z" fill="#003F6A"/>
<path d="M6.44932 12.8052L6.22075 15.491C6.22075 15.491 3.99218 16.0624 3.93504 15.6624C3.8779 15.2624 5.53504 14.8052 5.53504 14.8052V12.5195" fill="#668CA6"/>
<path d="M6.39217 12.8053C6.36588 13.1082 6.34074 13.4122 6.31446 13.7151L6.19217 15.1573C6.18303 15.2682 6.17274 15.3791 6.1636 15.4899L6.20588 15.4351C5.66531 15.5733 5.1076 15.6968 4.55103 15.7379C4.41388 15.7482 4.26874 15.7573 4.13274 15.7311C4.08588 15.7219 4.04817 15.7128 4.01045 15.6853C3.99674 15.6751 3.98645 15.6556 3.99103 15.6293C4.00931 15.5151 4.14874 15.4316 4.23788 15.3768C4.39446 15.2796 4.56474 15.2042 4.73503 15.1345C5.00017 15.0282 5.27331 14.9345 5.54988 14.8591C5.57388 14.8522 5.59217 14.8293 5.59217 14.8042V12.5185C5.59217 12.4453 5.47788 12.4453 5.47788 12.5185V14.8042L5.52017 14.7493C5.2676 14.8191 5.01731 14.9036 4.77274 14.9985C4.58645 15.0705 4.40131 15.1493 4.22874 15.2499C4.1076 15.3196 3.96474 15.4088 3.90188 15.5402C3.76588 15.8236 4.16245 15.8625 4.34417 15.8613C4.72017 15.8613 5.09845 15.7905 5.46531 15.7173C5.7236 15.6671 5.98074 15.6111 6.2356 15.5448C6.26188 15.5379 6.2756 15.5151 6.27788 15.4899C6.30417 15.1871 6.32931 14.8831 6.3556 14.5802L6.47788 13.1379C6.48703 13.0271 6.49731 12.9162 6.50646 12.8053C6.51217 12.7322 6.39788 12.7322 6.39217 12.8053Z" fill="#003F6A"/>
<path d="M7.30664 12.8057L8.22093 15.5486C8.22093 15.5486 10.9638 16.1772 11.0209 15.7772C11.0781 15.3772 8.90664 14.8629 8.90664 14.8629L8.22093 12.52" fill="#668CA6"/>
<path d="M7.25175 12.8204C7.42546 13.3404 7.59804 13.8604 7.77175 14.3804L8.08718 15.3256C8.11232 15.3999 8.13518 15.4742 8.16146 15.5473C8.17975 15.5987 8.21289 15.6033 8.25975 15.6136C8.88946 15.7542 9.52718 15.8787 10.1695 15.9416C10.3295 15.9576 10.4918 15.969 10.6529 15.9644C10.7603 15.961 10.8815 15.9553 10.9798 15.9062C11.0575 15.8662 11.0986 15.7896 11.0712 15.7027C11.0369 15.5942 10.9226 15.5199 10.8312 15.4639C10.5203 15.273 10.1557 15.1599 9.81061 15.0513C9.53289 14.9644 9.25175 14.8867 8.96946 14.817C8.95346 14.8136 8.93861 14.809 8.92261 14.8056L8.96261 14.8456C8.88604 14.5827 8.80832 14.3199 8.73175 14.057L8.36146 12.7919C8.33289 12.6947 8.30432 12.5987 8.27689 12.5016C8.25632 12.4307 8.14546 12.4616 8.16718 12.5324C8.24375 12.7953 8.32146 13.0582 8.39804 13.321L8.76832 14.5862C8.79689 14.6833 8.82546 14.7793 8.85289 14.8764C8.85861 14.8947 8.87346 14.9119 8.89289 14.9164C9.18204 14.985 9.47004 15.065 9.75346 15.1542C9.98089 15.225 10.2072 15.3004 10.4277 15.3919C10.59 15.4593 10.7717 15.5336 10.9009 15.6559C10.9409 15.6936 10.9626 15.729 10.966 15.7656C10.966 15.7702 10.9626 15.7782 10.958 15.7839C10.9477 15.7953 10.9386 15.801 10.9146 15.8113C10.8015 15.8616 10.6255 15.8547 10.494 15.8502C10.0426 15.8364 9.59118 15.7576 9.14775 15.6776C8.95232 15.6422 8.75689 15.6033 8.56261 15.5633C8.49518 15.5496 8.42889 15.5347 8.36146 15.521C8.32604 15.513 8.28718 15.4993 8.25175 15.497C8.24718 15.497 8.24261 15.4947 8.23689 15.4936L8.27689 15.5336C8.17404 15.225 8.07118 14.9164 7.96832 14.6079C7.80375 14.1153 7.64032 13.6239 7.47575 13.1313C7.43804 13.0182 7.40032 12.9039 7.36261 12.7907C7.33975 12.721 7.22889 12.7507 7.25289 12.8216L7.25175 12.8204Z" fill="#003F6A"/>
<path d="M5.30653 4.00537C6.1591 4.00537 6.84939 4.69566 6.84939 5.54823C6.84939 6.4008 6.1591 7.09109 5.30653 7.09109C4.45396 7.09109 3.76367 6.4008 3.76367 5.54823C3.76367 4.69566 4.45396 4.00537 5.30653 4.00537Z" fill="white"/>
<path d="M6.51884 5.96206C6.51884 5.39904 6.06242 4.94263 5.49941 4.94263C4.93639 4.94263 4.47998 5.39904 4.47998 5.96206V6.01691C4.47998 6.57993 4.93639 7.03634 5.49941 7.03634C6.06242 7.03634 6.51884 6.57993 6.51884 6.01691V5.96206Z" fill="#003F6A"/>
<path d="M8.8495 4.00537C7.99693 4.00537 7.30664 4.69566 7.30664 5.54823C7.30664 6.4008 7.99693 7.09109 8.8495 7.09109C9.70207 7.09109 10.3924 6.4008 10.3924 5.54823C10.3924 4.69566 9.70207 4.00537 8.8495 4.00537Z" fill="white"/>
<path d="M9.67558 5.96206C9.67558 5.39904 9.21916 4.94263 8.65615 4.94263C8.09313 4.94263 7.63672 5.39904 7.63672 5.96206V6.01691C7.63672 6.57993 8.09313 7.03634 8.65615 7.03634C9.21916 7.03634 9.67558 6.57993 9.67558 6.01691V5.96206Z" fill="#003F6A"/>
<path fill-rule="evenodd" clip-rule="evenodd" d="M4.71503 7.38053C4.74462 7.36956 4.7775 7.38466 4.78847 7.41425C4.90433 7.72678 5.02291 7.86827 5.16729 7.91907C5.3162 7.97146 5.51111 7.93533 5.80234 7.83711C5.83225 7.82702 5.86467 7.84309 5.87475 7.87299C5.88484 7.9029 5.86877 7.93531 5.83887 7.9454C5.55067 8.0426 5.31987 8.09391 5.12936 8.02687C4.9343 7.95824 4.79974 7.77344 4.68131 7.45397C4.67034 7.42438 4.68544 7.3915 4.71503 7.38053Z" fill="#003F6A"/>
<path d="M11.7339 8.16316C11.503 8.13459 11.5773 8.69345 11.6436 8.97688C11.6813 9.17002 11.4276 9.62716 11.5533 9.79059C11.6802 9.95288 12.1705 9.92545 12.2219 9.77231C12.2722 9.62259 12.4208 8.99516 12.4208 8.63402C12.4208 8.27288 12.023 8.20088 11.7339 8.16431V8.16316Z" fill="#668CA6"/>
<path fill-rule="evenodd" clip-rule="evenodd" d="M11.6297 8.13056C11.6621 8.10921 11.7001 8.10141 11.7409 8.10646L11.7911 8.11267V8.1142C11.9255 8.13271 12.0824 8.16193 12.2113 8.22634C12.2847 8.26302 12.3518 8.31235 12.4005 8.38005C12.4497 8.44845 12.4779 8.53249 12.4779 8.63403C12.4779 8.82043 12.4398 9.0721 12.3963 9.29349C12.3527 9.51506 12.3024 9.71216 12.2761 9.79051M11.6297 8.13056C11.5982 8.15124 11.5764 8.18166 11.5613 8.21438L11.6297 8.13056ZM11.5613 8.21438C11.5316 8.27844 11.5212 8.36441 11.5202 8.45237L11.5613 8.21438ZM11.5202 8.45237C11.5181 8.62999 11.5542 8.84493 11.5877 8.98877L11.5202 8.45237ZM11.5877 8.98877C11.5944 9.02418 11.5884 9.07818 11.572 9.14985C11.561 9.19853 11.5465 9.25006 11.5314 9.30397C11.5244 9.32881 11.5173 9.35415 11.5103 9.37996C11.4888 9.45959 11.4687 9.54253 11.4628 9.61711C11.4569 9.69003 11.4634 9.76733 11.5081 9.82544L11.5081 9.82544L11.5083 9.82579C11.5508 9.88019 11.6189 9.91347 11.6889 9.93282C11.7602 9.95253 11.841 9.95989 11.9182 9.95684C11.9952 9.95381 12.0718 9.94029 12.1344 9.91582C12.194 9.89252 12.2549 9.85359 12.2761 9.79051M11.6345 8.4537C11.6326 8.61875 11.6666 8.82429 11.6993 8.96388L11.6995 8.9649L11.6997 8.96594C11.7117 9.02712 11.7001 9.10237 11.6835 9.17521C11.6718 9.22673 11.656 9.28285 11.6405 9.33819C11.6337 9.36237 11.627 9.38639 11.6206 9.40982C11.5992 9.48904 11.5817 9.5631 11.5767 9.62624C11.5715 9.69088 11.5804 9.73196 11.5985 9.75559C11.6195 9.78227 11.6603 9.80634 11.7193 9.82267C11.7772 9.83867 11.846 9.84532 11.9137 9.84265C11.9815 9.83997 12.045 9.82806 12.0928 9.80938C12.1435 9.78954 12.1632 9.76762 12.1678 9.75413L12.1678 9.75412C12.1917 9.68275 12.2409 9.49129 12.2841 9.27143C12.3274 9.05139 12.3636 8.80877 12.3636 8.63403C12.3636 8.555 12.3421 8.49461 12.3077 8.4468C12.2728 8.39828 12.2224 8.35962 12.1602 8.32858C12.0344 8.26573 11.8717 8.23935 11.7267 8.22101L11.7137 8.21936C11.7043 8.21991 11.6977 8.22263 11.6924 8.22606C11.684 8.23158 11.6742 8.24235 11.6649 8.26243C11.6457 8.30398 11.6355 8.37009 11.6345 8.4537Z" fill="#003F6A"/>
<path d="M1.99327 7.71411L0.49384 8.75983C0.336126 8.86954 0.330411 9.1004 0.480126 9.21811L2.45841 10.7781L2.51327 10.1244L1.17384 9.19868C0.998983 9.07754 1.0127 8.81354 1.20013 8.71183L2.00127 8.27868L1.99441 7.71411H1.99327Z" fill="#668CA6"/>
<path fill-rule="evenodd" clip-rule="evenodd" d="M1.97531 7.65698H2.05087L2.05883 8.31254L1.22738 8.76206C1.22738 8.76207 1.22739 8.76206 1.22738 8.76206C1.07755 8.84339 1.0664 9.0547 1.20634 9.1517C1.20633 9.15169 1.20636 9.15171 1.20634 9.1517L2.57298 10.0962L2.50647 10.8888L0.444808 9.26305C0.444801 9.26304 0.444816 9.26305 0.444808 9.26305C0.265035 9.12167 0.271866 8.84465 0.461209 8.71293L1.97531 7.65698ZM1.93858 7.82194L0.526529 8.80671C0.400452 8.89442 0.395814 9.07914 0.515447 9.1732L2.41036 10.6675L2.45356 10.1526L1.14135 9.2457C0.931628 9.10041 0.947876 8.78372 1.17287 8.66162L1.94371 8.24486L1.93858 7.82194Z" fill="#003F6A"/>
<path d="M2.39581 9.18163C2.60953 9.08906 2.6941 9.64677 2.7101 9.93706C2.72839 10.1336 3.09981 10.5005 3.02439 10.6925C2.94896 10.8845 2.46896 10.9953 2.37753 10.8628C2.28839 10.7336 1.96953 10.1725 1.86781 9.82506C1.76724 9.47763 2.12839 9.29706 2.39581 9.18163Z" fill="#668CA6"/>
<path fill-rule="evenodd" clip-rule="evenodd" d="M2.45336 9.23003C2.44496 9.22747 2.43424 9.22704 2.41854 9.23384L2.41847 9.23387C2.28444 9.29172 2.1358 9.36246 2.03267 9.45803C1.98175 9.50522 1.94413 9.55653 1.92417 9.613C1.90449 9.66866 1.9007 9.73281 1.92269 9.80886C1.97193 9.97699 2.07489 10.2 2.17813 10.3993C2.28129 10.5983 2.38201 10.7684 2.42457 10.8301L2.42458 10.8301C2.43248 10.8416 2.45727 10.8571 2.51164 10.8619C2.56276 10.8665 2.62713 10.8601 2.69314 10.8437C2.75896 10.8273 2.82318 10.8016 2.87428 10.7699C2.92653 10.7376 2.95882 10.7029 2.97121 10.6714C2.9821 10.6437 2.97931 10.6018 2.95627 10.5412C2.93382 10.4821 2.89638 10.416 2.85364 10.3461C2.84096 10.3253 2.82772 10.3041 2.81441 10.2827C2.78406 10.2341 2.75329 10.1847 2.72762 10.1386C2.69126 10.0733 2.659 10.0043 2.65322 9.94212L2.65312 9.94105L2.65306 9.93998C2.64517 9.79695 2.6204 9.59007 2.57244 9.43215C2.54814 9.35215 2.51986 9.29158 2.4898 9.25714C2.47527 9.2405 2.46291 9.23295 2.45336 9.23003ZM2.7671 9.9325C2.75892 9.78526 2.7334 9.56885 2.68179 9.39894C2.65623 9.3148 2.6223 9.23515 2.5759 9.18199C2.55219 9.15482 2.52276 9.13172 2.48672 9.12072C2.44954 9.10938 2.41089 9.11262 2.37318 9.12894C2.23978 9.18652 2.07414 9.26378 1.95499 9.3742C1.89477 9.43001 1.84424 9.4962 1.81642 9.57491C1.78831 9.65442 1.78468 9.74309 1.81294 9.84072L1.81299 9.84089C1.86548 10.0202 1.97278 10.2514 2.07666 10.4518C2.18064 10.6525 2.28391 10.8275 2.3305 10.895C2.36832 10.9498 2.43781 10.9701 2.50152 10.9758C2.56847 10.9817 2.64595 10.9732 2.7208 10.9546C2.79584 10.9358 2.87148 10.9061 2.93445 10.8671C2.99627 10.8288 3.05227 10.7776 3.07759 10.7132C3.10442 10.6449 3.08907 10.5689 3.0631 10.5006C3.03655 10.4307 2.99413 10.3568 2.95116 10.2865C2.93719 10.2636 2.92322 10.2412 2.90953 10.2193C2.87998 10.1719 2.85173 10.1266 2.82747 10.083C2.79172 10.0188 2.77074 9.96855 2.7671 9.9325Z" fill="#003F6A"/>
</svg>
