<svg width="12" height="14" viewBox="0 0 12 14" fill="none" xmlns="http://www.w3.org/2000/svg">
<g id="elements">
<g id="Icon">
<path fill-rule="evenodd" clip-rule="evenodd" d="M6.00029 3.93685C4.63108 3.93685 3.52112 5.04681 3.52112 6.41602C3.52112 7.78522 4.63108 8.89518 6.00029 8.89518C7.36949 8.89518 8.47945 7.78522 8.47945 6.41602C8.47945 5.04681 7.36949 3.93685 6.00029 3.93685ZM4.39612 6.41602C4.39612 5.53006 5.11433 4.81185 6.00029 4.81185C6.88624 4.81185 7.60445 5.53006 7.60445 6.41602C7.60445 7.30197 6.88624 8.02018 6.00029 8.02018C5.11433 8.02018 4.39612 7.30197 4.39612 6.41602Z" fill="#384250"/>
<path fill-rule="evenodd" clip-rule="evenodd" d="M6.0009 0.728516C3.76897 0.728516 1.63961 2.04862 0.748329 4.13208C-0.0811452 6.07106 0.367895 7.72112 1.30283 9.13408C2.06937 10.2925 3.18737 11.3264 4.196 12.2591C4.3883 12.437 4.57672 12.6112 4.75788 12.7819L4.75885 12.7828C5.09428 13.0968 5.53984 13.2702 6.0009 13.2702C6.46195 13.2702 6.90751 13.0968 7.24295 12.7828C7.41417 12.6224 7.59167 12.4589 7.77273 12.2921C8.79235 11.3526 9.92607 10.308 10.7006 9.13485C11.6345 7.72045 12.0819 6.06866 11.2535 4.13208C10.3622 2.04862 8.23282 0.728516 6.0009 0.728516ZM1.55281 4.47623C2.29879 2.73243 4.09959 1.60352 6.0009 1.60352C7.90221 1.60352 9.70301 2.73243 10.449 4.47623C11.1327 6.07442 10.7877 7.4149 9.97043 8.65275C9.26019 9.72851 8.21978 10.6885 7.19707 11.6321C7.01175 11.8031 6.82701 11.9735 6.64492 12.144C6.47437 12.3037 6.24366 12.3952 6.0009 12.3952C5.75832 12.3952 5.52777 12.3039 5.35726 12.1444C5.16333 11.9617 4.96635 11.7793 4.76881 11.5964C3.75914 10.6614 2.73522 9.71317 2.03255 8.65123C1.2145 7.41493 0.868238 6.07648 1.55281 4.47623Z" fill="#384250"/>
</g>
</g>
</svg>
