<svg width="28" height="10" viewBox="0 0 28 10" fill="none" xmlns="http://www.w3.org/2000/svg">
<g id="Mada">
<path id="Vector" d="M12.0802 5.9707H0.8125V9.72437H12.0802V5.9707Z" fill="#84B740"/>
<path id="Vector_2" d="M12.0802 0.848633H0.8125V4.60564H12.0802V0.848633Z" fill="#259BD6"/>
<path id="Vector_3" d="M23.3444 8.96146L23.2942 8.97149C23.1203 9.00495 23.0567 9.01833 22.9296 9.01833C22.6352 9.01833 22.2872 8.86778 22.2872 8.15854C22.2872 7.79387 22.3475 7.30878 22.8961 7.30878H22.8995C22.9931 7.31547 23.1002 7.3255 23.3009 7.38572L23.3444 7.3991V8.96146ZM23.4348 5.42525L23.3444 5.44198V6.75342L23.2641 6.73L23.2407 6.72331C23.1504 6.69655 22.943 6.63633 22.7422 6.63633C21.6449 6.63633 21.4141 7.46602 21.4141 8.16188C21.4141 9.11535 21.9493 9.66402 22.8827 9.66402C23.2775 9.66402 23.5686 9.62387 23.863 9.52685C24.134 9.43987 24.231 9.31608 24.231 9.05179V5.28809C23.97 5.33492 23.699 5.38176 23.4348 5.42525Z" fill="#27292D"/>
<path id="Vector_4" d="M26.609 8.98442L26.5621 8.9978L26.3949 9.04129C26.2376 9.08144 26.0971 9.10486 25.99 9.10486C25.7324 9.10486 25.5785 8.97773 25.5785 8.76027C25.5785 8.61976 25.6421 8.38223 26.0636 8.38223H26.609V8.98442ZM26.2242 6.61914C25.8863 6.61914 25.5384 6.67936 25.1068 6.81318L24.8258 6.89682L24.9195 7.53247L25.1938 7.44214C25.4815 7.34846 25.8395 7.28824 26.1071 7.28824C26.2276 7.28824 26.5956 7.28824 26.5956 7.68636V7.86033H26.0837C25.1503 7.86033 24.7188 8.15808 24.7188 8.79707C24.7188 9.34239 25.1169 9.67025 25.786 9.67025C25.9934 9.67025 26.2811 9.6301 26.5287 9.56988L26.5421 9.56654L26.5554 9.56988L26.6391 9.58327C26.9 9.6301 27.171 9.67694 27.4353 9.72712V7.63952C27.4353 6.96373 27.0272 6.61914 26.2242 6.61914Z" fill="#27292D"/>
<path id="Vector_5" d="M20.109 8.98442L20.0621 8.9978L19.8949 9.04129C19.7376 9.08144 19.6004 9.10486 19.49 9.10486C19.2324 9.10486 19.0785 8.97773 19.0785 8.76027C19.0785 8.61976 19.1421 8.38223 19.5603 8.38223H20.1056V8.98442H20.109ZM19.7276 6.61914C19.3863 6.61914 19.0417 6.67936 18.6102 6.81318L18.3292 6.89682L18.4228 7.53247L18.6972 7.44214C18.9849 7.34846 19.3428 7.28824 19.6105 7.28824C19.7309 7.28824 20.0989 7.28824 20.0989 7.68636V7.86033H19.5871C18.6537 7.86033 18.2188 8.15808 18.2188 8.79707C18.2188 9.34239 18.6169 9.67025 19.2893 9.67025C19.4967 9.67025 19.7844 9.6301 20.032 9.56988L20.0454 9.56654L20.0588 9.56988L20.1391 9.58327C20.4034 9.6301 20.671 9.67694 20.9353 9.73047V7.64287C20.9387 6.96038 20.5305 6.61914 19.7276 6.61914Z" fill="#27292D"/>
<path id="Vector_6" d="M16.5834 6.62639C16.1585 6.62639 15.8072 6.7669 15.6768 6.82712L15.6433 6.84385L15.6132 6.82043C15.4325 6.68996 15.1683 6.62305 14.8002 6.62305C14.4757 6.62305 14.1713 6.66988 13.8401 6.7669C13.5557 6.85389 13.4453 6.99105 13.4453 7.24866V9.63401H14.3352V7.42931L14.3787 7.41593C14.5594 7.35571 14.6664 7.34568 14.7701 7.34568C15.0277 7.34568 15.1582 7.48284 15.1582 7.75048V9.63735H16.0347V7.71368C16.0347 7.59994 16.0113 7.53303 16.008 7.51964L15.9779 7.46277L16.0381 7.43601C16.1719 7.37579 16.3191 7.34568 16.473 7.34568C16.6503 7.34568 16.8611 7.41593 16.8611 7.75048V9.63735H17.7343V7.6635C17.7343 6.96429 17.3596 6.62639 16.5834 6.62639Z" fill="#27292D"/>
<path id="Vector_7" d="M25.9574 3.29755C25.827 3.29755 25.6095 3.28417 25.4389 3.25071L25.3887 3.24067V1.95265C25.3887 1.8456 25.3686 1.77869 25.3653 1.76865L25.3385 1.71512L25.3954 1.6917C25.4088 1.68501 25.4222 1.68167 25.4389 1.67498L25.4489 1.66828C25.469 1.66159 25.4891 1.6549 25.5091 1.64821C25.5192 1.64487 25.5259 1.64152 25.5326 1.64152C25.73 1.58799 25.9106 1.59468 25.9909 1.58799H25.9942C26.5396 1.58799 26.6031 2.07309 26.6031 2.43775C26.5998 3.147 26.2485 3.29755 25.9574 3.29755ZM25.9541 0.848633C25.9474 0.848633 25.9374 0.848633 25.9307 0.848633C25.4188 0.848633 24.8936 0.989145 24.7062 1.26348C24.6059 1.3973 24.549 1.56457 24.5456 1.76196V3.09013C24.5456 3.20387 24.5222 3.24737 24.5189 3.2574L24.4888 3.31428H22.8729V2.39091H22.8695C22.8495 1.41737 22.274 0.882088 21.441 0.882088H21.344H20.628C20.5946 1.11962 20.5678 1.2869 20.5344 1.52443H21.344C21.7689 1.52443 21.993 1.88574 21.993 2.4411V3.37115L21.9361 3.34104C21.9261 3.33769 21.8558 3.31428 21.7454 3.31428H20.347C20.3203 3.49159 20.2868 3.72243 20.25 3.95327H24.549C24.6962 3.92316 24.8668 3.8964 25.014 3.87298C25.2315 3.98003 25.6363 4.03691 25.914 4.03691C26.8474 4.03691 27.4529 3.4113 27.4529 2.44779C27.4495 1.49432 26.8641 0.868706 25.9541 0.848633Z" fill="#27292D"/>
<path id="Vector_8" d="M18.4101 4.345H18.4502C19.3836 4.345 19.8185 4.03722 19.8185 3.27778C19.8185 2.73247 19.4204 2.29755 18.7513 2.29755H17.8915C17.6339 2.29755 17.48 2.15035 17.48 1.90278C17.48 1.7355 17.5436 1.52808 17.9651 1.52808H19.8453C19.8854 1.28386 19.9055 1.12996 19.9423 0.885742H17.9885C17.0785 0.885742 16.6202 1.26713 16.6202 1.90278C16.6202 2.53173 17.0183 2.85959 17.6874 2.85959H18.5472C18.8048 2.85959 18.9587 3.06367 18.9587 3.27778C18.9587 3.4183 18.8952 3.70935 18.477 3.70935H18.3331L15.5797 3.70266H15.0779C14.653 3.70266 14.3553 3.46179 14.3553 2.90309V2.51835C14.3553 1.93623 14.5861 1.57492 15.0779 1.57492H15.8942C15.931 1.32735 15.9544 1.17011 15.9879 0.935925H14.9709H14.8738C14.0408 0.935925 13.4654 1.49463 13.4453 2.46817V2.50497V2.90309C13.4654 3.87663 14.0408 4.34166 14.8738 4.34166H14.9709H15.6868L17.1789 4.345H18.0688H18.4101Z" fill="#27292D"/>
</g>
</svg>
