<svg width="16" height="16" viewBox="0 0 16 16" fill="none" xmlns="http://www.w3.org/2000/svg">
<g id="Icon">
<g id="Icon_2">
<path fill-rule="evenodd" clip-rule="evenodd" d="M8.8003 6.94681C9.08031 7.11347 9.31368 7.16678 9.50701 7.16678L9.52036 7.17345C9.75369 7.17345 9.92036 7.08679 10.0204 7.01346C10.207 6.87346 10.4937 6.54678 10.327 5.84012L10.147 4.99344L10.807 4.32677C11.127 4.0001 11.2536 3.62013 11.1403 3.26679C11.027 2.92013 10.707 2.67345 10.2537 2.59345L9.42701 2.46007C9.41368 2.45341 9.38697 2.44681 9.38697 2.44681L8.92034 1.50011C8.71367 1.08011 8.38035 0.833445 8.01368 0.833445C7.66035 0.826778 7.30701 1.07344 7.09368 1.50011L6.62037 2.45348L5.76035 2.59345C5.31368 2.67345 4.99363 2.91345 4.8803 3.26012C4.76697 3.61345 4.88704 4.0001 5.20704 4.32677L5.87371 5.02013L5.68702 5.84012C5.52036 6.54678 5.80032 6.88012 5.98699 7.01346C6.17366 7.14679 6.5737 7.31347 7.1937 6.94681L8.00701 6.47342L8.8003 6.94681ZM8.52036 5.6068C8.37369 5.52013 8.187 5.47342 8.00034 5.47342L8.02036 5.46674C7.83369 5.46674 7.647 5.51346 7.49366 5.60013L6.70037 6.07343C6.69511 6.07606 6.69088 6.07973 6.68688 6.08321C6.68072 6.08856 6.67508 6.09345 6.667 6.09345C6.667 6.08012 6.67368 6.04674 6.67368 6.04674L6.86036 5.22008C6.92703 4.89341 6.81367 4.50681 6.58701 4.28014L5.92701 3.61347C5.92229 3.60875 5.91757 3.60486 5.91314 3.60122C5.90505 3.59456 5.89795 3.58872 5.89365 3.58011C5.90031 3.57344 5.92701 3.57343 5.92701 3.57343L6.79363 3.43346C7.0803 3.38013 7.37369 3.16008 7.52036 2.88675L7.98699 1.94681C7.98991 1.94096 7.99412 1.93511 7.99792 1.92982C8.0028 1.92304 8.00701 1.91719 8.00701 1.91344C8.01368 1.92011 8.02036 1.94013 8.02036 1.94013L8.49366 2.90009C8.63366 3.16009 8.92699 3.38013 9.23365 3.44013L10.0803 3.58011C10.0937 3.58677 10.107 3.58678 10.1204 3.58678C10.107 3.59345 10.087 3.62015 10.087 3.62015L9.42701 4.28681C9.20035 4.52015 9.08699 4.90677 9.15366 5.2401L9.34034 6.06009C9.34701 6.07342 9.34702 6.08679 9.34702 6.10013C9.33368 6.09346 9.31365 6.08011 9.31365 6.08011L8.52036 5.6068Z" fill="#0D121C"/>
<path fill-rule="evenodd" clip-rule="evenodd" d="M0.833328 14.6666C0.833328 14.94 1.05999 15.1666 1.33333 15.1666H14.6667C14.94 15.1666 15.1667 14.94 15.1667 14.6666C15.1667 14.3933 14.94 14.1666 14.6667 14.1666H14.1667V13.3333C14.1667 12.2866 14.1666 11.7133 13.7266 11.2733C13.2866 10.8333 12.7133 10.8333 11.6667 10.8333H11.3333C11.0006 10.8333 10.7303 10.8333 10.5 10.8685V10.6666C10.5 9.61998 10.5 9.04667 10.06 8.60667C9.61997 8.16667 9.04666 8.16665 8 8.16665C6.95333 8.16665 6.38002 8.16667 5.94002 8.60667C5.69178 8.85491 5.58358 9.14558 5.53643 9.53975C5.29955 9.49998 5.01786 9.49998 4.66668 9.49998H4.33333C3.28666 9.49998 2.71335 9.5 2.27335 9.94C1.83335 10.38 1.83333 10.9533 1.83333 12V14.1666H1.33333C1.05999 14.1666 0.833328 14.3933 0.833328 14.6666ZM9.5 14.1666H6.5V10.6666C6.5 9.94014 6.5 9.45994 6.64664 9.31329C6.79329 9.16665 7.2732 9.16665 7.9997 9.16665C8.7262 9.16665 9.2067 9.16665 9.35335 9.31329C9.5 9.45994 9.5 9.93985 9.5 10.6664V14.1666ZM13.1667 13.3333V14.1666H10.5V12.6666C10.5 12.34 10.5 11.9266 10.54 11.8866C10.5933 11.8333 11.0062 11.8333 11.3328 11.8333H11.6667C12.3932 11.8333 12.8734 11.8333 13.02 11.98C13.1667 12.1266 13.1667 12.6068 13.1667 13.3333ZM2.83333 14.1666H5.5V11.3333C5.5 11.0067 5.5 10.5933 5.44669 10.54C5.40669 10.5 4.99333 10.5 4.66666 10.5H4.33333C3.60683 10.5 3.12662 10.5 2.97998 10.6466C2.83333 10.7933 2.83333 11.2732 2.83333 11.9997V14.1666Z" fill="#0D121C"/>
</g>
</g>
</svg>
