<svg width="25" height="15" viewBox="0 0 25 15" fill="none" xmlns="http://www.w3.org/2000/svg">
<g id="Mastercard">
<path id="Left" fill-rule="evenodd" clip-rule="evenodd" d="M16.911 14.9986C20.9746 14.9986 24.2689 11.7436 24.2689 7.72832C24.2689 3.71304 20.9746 0.458008 16.911 0.458008C15.0898 0.458008 13.4232 1.11178 12.1383 2.19477C10.8535 1.11179 9.18686 0.458019 7.36568 0.458019C3.30204 0.458019 0.0078125 3.71305 0.0078125 7.72833C0.0078125 11.7436 3.30204 14.9986 7.36568 14.9986C9.18686 14.9986 10.8535 14.3449 12.1383 13.2619C13.4232 14.3449 15.0898 14.9986 16.911 14.9986Z" fill="#ED0006"/>
<path id="Right" fill-rule="evenodd" clip-rule="evenodd" d="M12.1406 13.2619C13.7227 11.9284 14.7259 9.94411 14.7259 7.72832C14.7259 5.51254 13.7227 3.52826 12.1406 2.19475C13.4255 1.11178 15.0921 0.458008 16.9133 0.458008C20.9769 0.458008 24.2711 3.71304 24.2711 7.72832C24.2711 11.7436 20.9769 14.9986 16.9133 14.9986C15.0921 14.9986 13.4255 14.3449 12.1406 13.2619Z" fill="#F9A000"/>
<path id="Middle" fill-rule="evenodd" clip-rule="evenodd" d="M12.1399 13.2615C13.722 11.928 14.7252 9.94369 14.7252 7.7279C14.7252 5.51212 13.722 3.52785 12.1399 2.19434C10.5579 3.52785 9.55469 5.51212 9.55469 7.7279C9.55469 9.94369 10.5579 11.928 12.1399 13.2615Z" fill="#FF5E00"/>
</g>
</svg>
