<svg width="30" height="26" viewBox="0 0 30 26" fill="none" xmlns="http://www.w3.org/2000/svg">
<g id="elements">
<g id="Icon">
<path fill-rule="evenodd" clip-rule="evenodd" d="M14.9993 8.66797C12.6061 8.66797 10.666 10.6081 10.666 13.0013C10.666 15.3945 12.6061 17.3346 14.9993 17.3346C17.3926 17.3346 19.3327 15.3945 19.3327 13.0013C19.3327 10.6081 17.3926 8.66797 14.9993 8.66797ZM12.666 13.0013C12.666 11.7126 13.7107 10.668 14.9993 10.668C16.288 10.668 17.3327 11.7126 17.3327 13.0013C17.3327 14.29 16.288 15.3346 14.9993 15.3346C13.7107 15.3346 12.666 14.29 12.666 13.0013Z" fill="#007960"/>
<path d="M6.33268 13.0013C7.06906 13.0013 7.66602 13.5983 7.66602 14.3346V14.3466C7.66602 15.083 7.06906 15.6799 6.33268 15.6799C5.5963 15.6799 4.99935 15.083 4.99935 14.3466V14.3346C4.99935 13.5983 5.5963 13.0013 6.33268 13.0013Z" fill="#007960"/>
<path d="M24.9993 11.6576C24.9993 10.9212 24.4024 10.3242 23.666 10.3242C22.9296 10.3242 22.3327 10.9212 22.3327 11.6576V11.6695C22.3327 12.4059 22.9296 13.0029 23.666 13.0029C24.4024 13.0029 24.9993 12.4059 24.9993 11.6695V11.6576Z" fill="#007960"/>
<path fill-rule="evenodd" clip-rule="evenodd" d="M21.666 0.667969C18.988 0.667969 16.5058 1.19402 14.5762 2.09525C12.9524 2.85366 10.7669 3.33464 8.33268 3.33464C6.98335 3.33464 5.70586 3.18673 4.55595 2.92335C2.78735 2.51826 0.666016 3.73035 0.666016 5.81993V20.1827C0.666016 21.2451 0.808977 22.2886 1.37026 23.1514C1.956 24.0517 2.88668 24.5928 4.10942 24.8729C5.412 25.1712 6.83956 25.3346 8.33268 25.3346C11.0107 25.3346 13.4929 24.8086 15.4225 23.9074C17.0463 23.1489 19.2318 22.668 21.666 22.668C23.0154 22.668 24.2928 22.8159 25.4428 23.0793C27.2113 23.4843 29.3327 22.2723 29.3327 20.1827V5.81993C29.3327 4.75746 29.1897 3.71401 28.6284 2.85124C28.0427 1.95086 27.112 1.4098 25.8893 1.12974C24.5867 0.831391 23.1591 0.667969 21.666 0.667969ZM15.4225 3.90735C17.0463 3.14894 19.2318 2.66797 21.666 2.66797C23.0154 2.66797 24.2928 2.81587 25.4428 3.07926C26.329 3.28224 26.7316 3.60316 26.952 3.94187C27.1968 4.31818 27.3327 4.89092 27.3327 5.81993V20.1827C27.3327 20.7193 26.6806 21.311 25.8893 21.1297C24.5867 20.8314 23.1591 20.668 21.666 20.668C18.988 20.668 16.5058 21.194 14.5762 22.0953C12.9524 22.8537 10.7669 23.3346 8.33268 23.3346C6.98334 23.3346 5.70586 23.1867 4.55595 22.9234C3.66972 22.7204 3.26707 22.3994 3.04672 22.0607C2.80191 21.6844 2.66602 21.1117 2.66602 20.1827V5.81993C2.66602 5.2833 3.31809 4.69162 4.10942 4.87287C5.412 5.17121 6.83956 5.33464 8.33268 5.33464C11.0107 5.33464 13.4929 4.80858 15.4225 3.90735Z" fill="#007960"/>
</g>
</g>
</svg>
