<svg width="12" height="16" viewBox="0 0 12 16" fill="none" xmlns="http://www.w3.org/2000/svg">
<g id="elements">
<g id="Icon">
<path fill-rule="evenodd" clip-rule="evenodd" d="M5.98464 8.49936H6.01934C6.16867 8.49536 8.29865 8.41072 9.69265 6.99005C11.1033 5.55205 11.1667 3.34399 11.1687 3.25066C11.172 3.11399 11.1187 2.98268 11.022 2.88601C10.926 2.78935 10.7954 2.73672 10.6574 2.74005C10.6568 2.74007 10.6562 2.74009 10.6553 2.74012C10.5946 2.74214 9.70013 2.77194 8.69798 3.15268C8.43932 3.25068 8.31001 3.53934 8.40801 3.79734C8.50601 4.05601 8.79467 4.18538 9.05267 4.08738C9.44201 3.93938 9.81533 3.85468 10.106 3.80535C9.99999 4.46002 9.71933 5.53472 8.978 6.29005C8.42866 6.85005 7.70798 7.15136 7.11198 7.31336C7.50331 6.64869 7.90202 5.71468 7.90202 4.66668C7.90202 2.65201 6.42934 1.05802 6.36667 0.991351C6.272 0.890685 6.14002 0.833344 6.00202 0.833344C5.86402 0.833344 5.73197 0.890685 5.63731 0.991351C5.57464 1.05802 4.10199 2.65201 4.10199 4.66668C4.10199 5.71468 4.50066 6.64869 4.89199 7.31336C4.29599 7.15136 3.57534 6.85005 3.02601 6.29005C2.28401 5.53405 2.00335 4.45935 1.89802 3.80535C2.18868 3.85402 2.562 3.93938 2.95134 4.08738C3.20934 4.18538 3.498 4.05534 3.596 3.79734C3.694 3.53934 3.56399 3.25068 3.30599 3.15268C2.28999 2.76668 1.38468 2.74072 1.34668 2.74005C1.21202 2.73738 1.07867 2.78935 0.982003 2.88601C0.885336 2.98268 0.832656 3.11399 0.835322 3.25066C0.836655 3.34399 0.899998 5.55205 2.31133 6.99005C3.70533 8.41072 5.83464 8.49536 5.98464 8.49936ZM5.1013 4.66603C5.1013 3.62069 5.62797 2.67939 6.00131 2.14272C6.3753 2.67939 6.9013 3.62136 6.9013 4.66603C6.9013 5.71069 6.3753 6.65267 6.00131 7.18933C5.62731 6.65267 5.1013 5.71136 5.1013 4.66603Z" fill="#0D121C"/>
<path fill-rule="evenodd" clip-rule="evenodd" d="M4.58529 13.1686C4.23729 13.1686 3.89128 13.0565 3.59128 12.8365L2.26527 11.8626C2.0426 11.6992 1.99461 11.3859 2.15795 11.1639C2.32128 10.9412 2.63394 10.8932 2.85661 11.0565L4.18197 12.0299C4.38864 12.1812 4.64593 12.2078 4.86993 12.1012C4.92378 12.0758 5.0029 12.0445 5.14508 11.9883L5.16791 11.9792C5.36057 11.9032 5.86929 11.7019 6.13796 11.5632C6.10129 11.4306 6.02995 11.3139 5.92995 11.2279C5.81262 11.1272 5.66995 11.0845 5.52728 11.1065L5.41394 11.1239L5.41168 11.1242C4.92873 11.1995 4.32771 11.2932 3.7586 10.8759L2.58327 10.0159C2.27394 9.78922 1.70327 9.82452 1.19994 9.85652L1.16659 9.85855C0.992268 9.86917 0.827044 9.87924 0.665955 9.87924C0.389955 9.87924 0.165955 9.65524 0.165955 9.37924C0.165955 9.10324 0.389955 8.87924 0.665955 8.87924C0.805954 8.87924 0.967261 8.8692 1.13793 8.85853C1.77649 8.81854 2.5728 8.76867 3.17393 9.20918L4.34929 10.0692C4.57395 10.2339 4.82858 10.2039 5.25925 10.1365L5.37526 10.1186C5.80193 10.0519 6.24195 10.1792 6.57995 10.4686C6.66651 10.5427 6.74451 10.6253 6.81325 10.7149L9.18376 9.61974C9.19776 9.61307 9.2118 9.60775 9.22647 9.60242C9.89847 9.36375 10.6531 9.55043 11.1498 10.0771L11.5938 10.5411C11.7778 10.7331 11.8618 10.9957 11.8238 11.2617C11.7858 11.5251 11.6338 11.7504 11.4058 11.8811L6.17243 14.9197C5.89777 15.0824 5.58044 15.1664 5.25844 15.1664L5.25909 15.1658C5.08842 15.1658 4.91581 15.1418 4.74848 15.0938L0.523119 13.8324C0.258451 13.7538 0.107782 13.4751 0.187115 13.2104C0.265782 12.9458 0.544454 12.7951 0.80912 12.8744L5.02979 14.1344C5.24712 14.1971 5.47511 14.1697 5.66644 14.0564L10.7498 11.1051L10.4251 10.7658C10.1991 10.5258 9.87779 10.4411 9.57979 10.5378L7.16213 11.6547C7.16467 11.6938 7.16595 11.733 7.16595 11.7725C7.16595 12.2239 6.74329 12.4312 5.53529 12.9085C5.43662 12.9472 5.32528 12.9919 5.29662 13.0052C5.06795 13.1139 4.82591 13.1672 4.58457 13.1678L4.58529 13.1686ZM10.9064 11.0137C10.9064 11.0137 10.9058 11.0137 10.9051 11.0144L10.9064 11.0137Z" fill="#0D121C"/>
</g>
</g>
</svg>
