<svg width="50" height="49" viewBox="0 0 50 49" fill="none" xmlns="http://www.w3.org/2000/svg">
<g id="elements">
<g id="Icon">
<path d="M31.1875 24.7622C31.1875 23.8302 31.943 23.0747 32.875 23.0747H39.625C40.557 23.0747 41.3125 23.8302 41.3125 24.7622C41.3125 25.6942 40.557 26.4497 39.625 26.4497H32.875C31.943 26.4497 31.1875 25.6942 31.1875 24.7622Z" fill="#007960"/>
<path d="M31.1875 33.7622C31.1875 32.8302 31.943 32.0747 32.875 32.0747H39.625C40.557 32.0747 41.3125 32.8302 41.3125 33.7622C41.3125 34.6942 40.557 35.4497 39.625 35.4497H32.875C31.943 35.4497 31.1875 34.6942 31.1875 33.7622Z" fill="#007960"/>
<path d="M10.375 9.57469C9.44302 9.57469 8.6875 10.3302 8.6875 11.2622C8.6875 12.1942 9.44302 12.9497 10.375 12.9497H17.125C18.057 12.9497 18.8125 12.1942 18.8125 11.2622C18.8125 10.3302 18.057 9.57469 17.125 9.57469H10.375Z" fill="#007960"/>
<path d="M10.375 18.5747C9.44302 18.5747 8.6875 19.3302 8.6875 20.2622C8.6875 21.1942 9.44302 21.9497 10.375 21.9497H17.125C18.057 21.9497 18.8125 21.1942 18.8125 20.2622C18.8125 19.3302 18.057 18.5747 17.125 18.5747H10.375Z" fill="#007960"/>
<path d="M10.375 27.5747C9.44302 27.5747 8.6875 28.3302 8.6875 29.2622C8.6875 30.1942 9.44302 30.9497 10.375 30.9497H17.125C18.057 30.9497 18.8125 30.1942 18.8125 29.2622C18.8125 28.3302 18.057 27.5747 17.125 27.5747H10.375Z" fill="#007960"/>
<path fill-rule="evenodd" clip-rule="evenodd" d="M16.117 0.574694H11.383C9.36146 0.574631 7.67567 0.574578 6.33743 0.754499C4.92489 0.94441 3.64959 1.36217 2.62478 2.38698C1.59998 3.41178 1.18222 4.68708 0.992308 6.09962C0.812386 7.43786 0.812439 9.12358 0.812502 11.1451V38.3792C0.812439 40.4007 0.812386 42.0865 0.992308 43.4248C1.18222 44.8373 1.59998 46.1126 2.62478 47.1374C3.64959 48.1622 4.92489 48.58 6.33743 48.7699C7.67569 48.9498 9.36144 48.9498 11.383 48.9497L38.617 48.9497C40.6385 48.9498 42.3244 48.9498 43.6626 48.7699C45.0751 48.58 46.3504 48.1622 47.3752 47.1374C48.4 46.1126 48.8178 44.8373 49.0077 43.4248C49.1876 42.0866 49.1876 40.4009 49.1875 38.3794V24.6452C49.1876 22.6237 49.1876 20.9378 49.0077 19.5996C48.8178 18.1871 48.4 16.9118 47.3752 15.887C46.3504 14.8622 45.0751 14.4444 43.6626 14.2545C42.3243 14.0746 40.6386 14.0746 38.617 14.0747L26.6875 14.0747V11.1452C26.6876 9.12366 26.6876 7.43786 26.5077 6.09962C26.3178 4.68708 25.9 3.41178 24.8752 2.38698C23.8504 1.36217 22.5751 0.94441 21.1626 0.754499C19.8243 0.574578 18.1386 0.574631 16.117 0.574694ZM26.6875 17.4497L26.6875 45.5747H38.5C40.669 45.5747 42.126 45.5711 43.2129 45.425C44.2512 45.2854 44.6955 45.0442 44.9887 44.7509C45.282 44.4577 45.5232 44.0134 45.6628 42.9751C45.8089 41.8882 45.8125 40.4312 45.8125 38.2622V24.7622C45.8125 22.5932 45.8089 21.1362 45.6628 20.0493C45.5232 19.011 45.282 18.5667 44.9887 18.2735C44.6955 17.9802 44.2512 17.739 43.2129 17.5994C42.126 17.4533 40.669 17.4497 38.5 17.4497H26.6875ZM5.01127 4.77346C5.30448 4.48025 5.74885 4.239 6.78714 4.0994C7.87397 3.95328 9.33098 3.9497 11.5 3.9497H16C18.169 3.9497 19.626 3.95328 20.7129 4.0994C21.7512 4.239 22.1955 4.48025 22.4887 4.77346C22.782 5.06667 23.0232 5.51104 23.1628 6.54933C23.3089 7.63616 23.3125 9.09317 23.3125 11.2622V45.5747H11.5C9.33098 45.5747 7.87397 45.5711 6.78714 45.425C5.74885 45.2854 5.30448 45.0442 5.01127 44.7509C4.71806 44.4577 4.47681 44.0134 4.33721 42.9751C4.19109 41.8882 4.18751 40.4312 4.18751 38.2622V11.2622C4.18751 9.09317 4.19109 7.63616 4.33721 6.54933C4.47681 5.51104 4.71806 5.06667 5.01127 4.77346Z" fill="#007960"/>
</g>
</g>
</svg>
