<svg width="16" height="16" viewBox="0 0 16 16" fill="none" xmlns="http://www.w3.org/2000/svg">
<g id="elements">
<g id="Icon">
<path fill-rule="evenodd" clip-rule="evenodd" d="M12.0243 0.833313H11.9756C11.4829 0.833305 11.0778 0.833298 10.7502 0.864453C10.4097 0.896827 10.1015 0.966336 9.82109 1.13815C9.54274 1.30872 9.30872 1.54274 9.13815 1.82109C8.96634 2.10145 8.89683 2.40968 8.86445 2.75017C8.8333 3.07784 8.8333 3.48285 8.83331 3.97561V4.02435C8.8333 4.51711 8.8333 4.92212 8.86445 5.24979C8.89683 5.59028 8.96634 5.89851 9.13815 6.17887C9.30872 6.45722 9.54274 6.69124 9.82109 6.86181C10.1015 7.03362 10.4097 7.10313 10.7502 7.13551C11.0778 7.16666 11.4828 7.16666 11.9756 7.16665H12.0244C12.5171 7.16666 12.9221 7.16666 13.2498 7.13551C13.5903 7.10313 13.8985 7.03362 14.1789 6.86181C14.4572 6.69124 14.6912 6.45722 14.8618 6.17887C15.0336 5.89851 15.1031 5.59028 15.1355 5.24979C15.1667 4.92212 15.1667 4.51712 15.1666 4.02435V3.97561C15.1667 3.48285 15.1667 3.07784 15.1355 2.75017C15.1031 2.40968 15.0336 2.10145 14.8618 1.82109C14.6912 1.54274 14.4572 1.30872 14.1789 1.13815C13.8985 0.966336 13.5903 0.896827 13.2498 0.864453C12.9221 0.833298 12.5171 0.833305 12.0243 0.833313ZM10.3436 1.99079C10.4404 1.93144 10.5775 1.88538 10.8448 1.85996C11.1196 1.83384 11.4768 1.83331 12 1.83331C12.5231 1.83331 12.8804 1.83384 13.1551 1.85996C13.4224 1.88538 13.5595 1.93144 13.6564 1.99079C13.8002 2.0789 13.9211 2.1998 14.0092 2.34358C14.0685 2.44042 14.1146 2.57754 14.14 2.84483C14.1661 3.11956 14.1666 3.47682 14.1666 3.99998C14.1666 4.52314 14.1661 4.8804 14.14 5.15513C14.1146 5.42242 14.0685 5.55954 14.0092 5.65638C13.9211 5.80017 13.8002 5.92106 13.6564 6.00917C13.5595 6.06852 13.4224 6.11458 13.1551 6.14C12.8804 6.16612 12.5231 6.16665 12 6.16665C11.4768 6.16665 11.1196 6.16612 10.8448 6.14C10.5775 6.11458 10.4404 6.06852 10.3436 6.00917C10.1998 5.92106 10.0789 5.80017 9.99079 5.65638C9.93144 5.55954 9.88538 5.42242 9.85996 5.15513C9.83384 4.8804 9.83331 4.52314 9.83331 3.99998C9.83331 3.47682 9.83384 3.11956 9.85996 2.84483C9.88538 2.57754 9.93144 2.44042 9.99079 2.34358C10.0789 2.1998 10.1998 2.0789 10.3436 1.99079Z" fill="#0D121C"/>
<path fill-rule="evenodd" clip-rule="evenodd" d="M3.97562 0.833313H4.02435C4.51711 0.833305 4.92212 0.833298 5.24979 0.864453C5.59028 0.896827 5.89851 0.966336 6.17887 1.13815C6.45722 1.30872 6.69124 1.54274 6.86181 1.82109C7.03362 2.10145 7.10313 2.40968 7.13551 2.75017C7.16666 3.07783 7.16666 3.48284 7.16665 3.97559V4.02435C7.16666 4.51711 7.16666 4.92213 7.13551 5.24979C7.10313 5.59028 7.03362 5.89851 6.86181 6.17887C6.69124 6.45722 6.45722 6.69124 6.17887 6.86181C5.89851 7.03362 5.59028 7.10313 5.24979 7.13551C4.92213 7.16666 4.51713 7.16666 4.02437 7.16665H3.97561C3.48285 7.16666 3.07783 7.16666 2.75017 7.13551C2.40968 7.10313 2.10145 7.03362 1.82109 6.86181C1.54274 6.69124 1.30872 6.45722 1.13815 6.17887C0.966336 5.89851 0.896827 5.59028 0.864453 5.24979C0.833298 4.92212 0.833305 4.51712 0.833313 4.02435V3.97562C0.833305 3.48285 0.833298 3.07784 0.864453 2.75017C0.896827 2.40968 0.966336 2.10145 1.13815 1.82109C1.30872 1.54274 1.54274 1.30872 1.82109 1.13815C2.10145 0.966336 2.40968 0.896827 2.75017 0.864453C3.07784 0.833298 3.48285 0.833305 3.97562 0.833313ZM2.84483 1.85996C2.57754 1.88538 2.44042 1.93144 2.34358 1.99079C2.1998 2.0789 2.0789 2.1998 1.99079 2.34358C1.93144 2.44042 1.88538 2.57754 1.85996 2.84483C1.83384 3.11956 1.83331 3.47682 1.83331 3.99998C1.83331 4.52314 1.83384 4.8804 1.85996 5.15513C1.88538 5.42242 1.93144 5.55954 1.99079 5.65638C2.0789 5.80017 2.1998 5.92106 2.34358 6.00917C2.44042 6.06852 2.57754 6.11458 2.84483 6.14C3.11956 6.16612 3.47682 6.16665 3.99998 6.16665C4.52314 6.16665 4.8804 6.16612 5.15513 6.14C5.42242 6.11458 5.55954 6.06852 5.65638 6.00917C5.80017 5.92106 5.92106 5.80017 6.00917 5.65638C6.06852 5.55954 6.11458 5.42242 6.14 5.15513C6.16612 4.8804 6.16665 4.52314 6.16665 3.99998C6.16665 3.47682 6.16612 3.11956 6.14 2.84483C6.11458 2.57754 6.06852 2.44042 6.00917 2.34358C5.92106 2.1998 5.80017 2.0789 5.65638 1.99079C5.55954 1.93144 5.42242 1.88538 5.15513 1.85996C4.8804 1.83384 4.52314 1.83331 3.99998 1.83331C3.47682 1.83331 3.11956 1.83384 2.84483 1.85996Z" fill="#0D121C"/>
<path fill-rule="evenodd" clip-rule="evenodd" d="M3.97562 8.83331C3.48286 8.8333 3.07783 8.8333 2.75017 8.86445C2.40968 8.89683 2.10145 8.96634 1.82109 9.13815C1.54274 9.30872 1.30872 9.54274 1.13815 9.82109C0.966336 10.1015 0.896827 10.4097 0.864453 10.7502C0.833298 11.0778 0.833305 11.4829 0.833313 11.9756V12.0243C0.833305 12.5171 0.833298 12.9221 0.864453 13.2498C0.896827 13.5903 0.966336 13.8985 1.13815 14.1789C1.30872 14.4572 1.54274 14.6912 1.82109 14.8618C2.10145 15.0336 2.40968 15.1031 2.75017 15.1355C3.07784 15.1667 3.48285 15.1667 3.97561 15.1666H4.02435C4.51712 15.1667 4.92212 15.1667 5.24979 15.1355C5.59028 15.1031 5.89851 15.0336 6.17887 14.8618C6.45722 14.6912 6.69124 14.4572 6.86181 14.1789C7.03362 13.8985 7.10313 13.5903 7.13551 13.2498C7.16666 12.9221 7.16666 12.5171 7.16665 12.0244V11.9756C7.16666 11.4828 7.16666 11.0778 7.13551 10.7502C7.10313 10.4097 7.03362 10.1015 6.86181 9.82109C6.69124 9.54274 6.45722 9.30872 6.17887 9.13815C5.89851 8.96634 5.59028 8.89683 5.24979 8.86445C4.92213 8.8333 4.51713 8.8333 4.02437 8.83331H3.97562ZM2.34358 9.99079C2.44042 9.93144 2.57754 9.88538 2.84483 9.85996C3.11956 9.83384 3.47682 9.83331 3.99998 9.83331C4.52314 9.83331 4.8804 9.83384 5.15513 9.85996C5.42242 9.88538 5.55954 9.93144 5.65638 9.99079C5.80017 10.0789 5.92106 10.1998 6.00917 10.3436C6.06852 10.4404 6.11458 10.5775 6.14 10.8448C6.16612 11.1196 6.16665 11.4768 6.16665 12C6.16665 12.5231 6.16612 12.8804 6.14 13.1551C6.11458 13.4224 6.06852 13.5595 6.00917 13.6564C5.92106 13.8002 5.80017 13.9211 5.65638 14.0092C5.55954 14.0685 5.42242 14.1146 5.15513 14.14C4.8804 14.1661 4.52314 14.1666 3.99998 14.1666C3.47682 14.1666 3.11956 14.1661 2.84483 14.14C2.57754 14.1146 2.44042 14.0685 2.34358 14.0092C2.1998 13.9211 2.0789 13.8002 1.99079 13.6564C1.93144 13.5595 1.88538 13.4224 1.85996 13.1551C1.83384 12.8804 1.83331 12.5231 1.83331 12C1.83331 11.4768 1.83384 11.1196 1.85996 10.8448C1.88538 10.5775 1.93144 10.4404 1.99079 10.3436C2.0789 10.1998 2.1998 10.0789 2.34358 9.99079Z" fill="#0D121C"/>
<path fill-rule="evenodd" clip-rule="evenodd" d="M13.2498 8.86445C12.9221 8.8333 12.5171 8.8333 12.0243 8.83331H11.9756C11.4829 8.8333 11.0778 8.8333 10.7502 8.86445C10.4097 8.89683 10.1015 8.96634 9.82109 9.13815C9.54274 9.30872 9.30872 9.54274 9.13815 9.82109C8.96634 10.1015 8.89683 10.4097 8.86445 10.7502C8.8333 11.0778 8.8333 11.4829 8.83331 11.9756V12.0243C8.8333 12.5171 8.8333 12.9221 8.86445 13.2498C8.89683 13.5903 8.96634 13.8985 9.13815 14.1789C9.30872 14.4572 9.54274 14.6912 9.82109 14.8618C10.1015 15.0336 10.4097 15.1031 10.7502 15.1355C11.0778 15.1667 11.4828 15.1667 11.9756 15.1666H12.0244C12.5171 15.1667 12.9221 15.1667 13.2498 15.1355C13.5903 15.1031 13.8985 15.0336 14.1789 14.8618C14.4572 14.6912 14.6912 14.4572 14.8618 14.1789C15.0336 13.8985 15.1031 13.5903 15.1355 13.2498C15.1667 12.9221 15.1667 12.5171 15.1666 12.0244V11.9756C15.1667 11.4828 15.1667 11.0778 15.1355 10.7502C15.1031 10.4097 15.0336 10.1015 14.8618 9.82109C14.6912 9.54274 14.4572 9.30872 14.1789 9.13815C13.8985 8.96634 13.5903 8.89683 13.2498 8.86445ZM10.3436 9.99079C10.4404 9.93144 10.5775 9.88538 10.8448 9.85996C11.1196 9.83384 11.4768 9.83331 12 9.83331C12.5231 9.83331 12.8804 9.83384 13.1551 9.85996C13.4224 9.88538 13.5595 9.93144 13.6564 9.99079C13.8002 10.0789 13.9211 10.1998 14.0092 10.3436C14.0685 10.4404 14.1146 10.5775 14.14 10.8448C14.1661 11.1196 14.1666 11.4768 14.1666 12C14.1666 12.5231 14.1661 12.8804 14.14 13.1551C14.1146 13.4224 14.0685 13.5595 14.0092 13.6564C13.9211 13.8002 13.8002 13.9211 13.6564 14.0092C13.5595 14.0685 13.4224 14.1146 13.1551 14.14C12.8804 14.1661 12.5231 14.1666 12 14.1666C11.4768 14.1666 11.1196 14.1661 10.8448 14.14C10.5775 14.1146 10.4404 14.0685 10.3436 14.0092C10.1998 13.9211 10.0789 13.8002 9.99079 13.6564C9.93144 13.5595 9.88538 13.4224 9.85996 13.1551C9.83384 12.8804 9.83331 12.5231 9.83331 12C9.83331 11.4768 9.83384 11.1196 9.85996 10.8448C9.88538 10.5775 9.93144 10.4404 9.99079 10.3436C10.0789 10.1998 10.1998 10.0789 10.3436 9.99079Z" fill="#0D121C"/>
</g>
</g>
</svg>
