<svg width="40" height="41" viewBox="0 0 40 41" fill="none" xmlns="http://www.w3.org/2000/svg">
<path d="M13.6836 27.8018C17.4501 25.302 22.5499 25.302 26.2998 27.8018C27.8498 28.8518 28.75 30.7354 28.75 32.9854C28.75 33.6687 28.1833 34.2354 27.5 34.2354V34.2188C26.8167 34.2188 26.25 33.6521 26.25 32.9688C26.25 32.2855 26.1166 30.6859 24.917 29.8691C22.0003 27.9358 18.0163 27.9191 15.083 29.8691C13.8834 30.6692 13.75 32.3022 13.75 32.9688C13.75 33.6354 13.1833 34.2188 12.5 34.2188C11.8167 34.2188 11.25 33.6521 11.25 32.9688C11.25 30.7354 12.1336 28.8351 13.6836 27.8018ZM10.833 17.5547C11.5163 17.5547 12.083 18.1214 12.083 18.8047C12.083 19.488 11.5163 20.0547 10.833 20.0547C9.31646 20.0548 7.84958 20.555 6.58301 21.5049C5.56662 22.2716 5.41699 23.6884 5.41699 24.4717C5.41683 25.1548 4.85008 25.8045 4.16699 25.8047C3.48366 25.8047 2.91699 25.321 2.91699 24.6377C2.91706 22.338 3.68324 20.5715 5.08301 19.5049C6.79958 18.2216 8.78312 17.5548 10.833 17.5547ZM29.167 17.5547C31.2169 17.5548 33.2004 18.2216 34.917 19.5049C36.3168 20.5716 37.083 22.3385 37.083 24.4717C37.0829 25.1549 36.5162 25.8047 35.833 25.8047C35.1498 25.8045 34.583 25.3209 34.583 24.6377C34.583 23.6878 34.4333 22.2715 33.4004 21.5049C32.1338 20.555 30.6669 20.0548 29.167 20.0547C28.4837 20.0547 27.917 19.488 27.917 18.8047C27.917 18.1214 28.4837 17.5547 29.167 17.5547ZM20 13.3877C22.9833 13.3877 25.417 15.8214 25.417 18.8047C25.417 21.788 22.9833 24.2217 20 24.2217C17.0167 24.2217 14.583 21.788 14.583 18.8047C14.583 15.8214 17.0167 13.3877 20 13.3877ZM20 15.8877C18.4 15.8877 17.083 17.2047 17.083 18.8047C17.083 20.4047 18.4 21.7217 20 21.7217C21.6 21.7217 22.917 20.4047 22.917 18.8047C22.917 17.2047 21.6 15.8877 20 15.8877ZM10.833 6.72168C13.3663 6.72168 15.417 8.77135 15.417 11.3047C15.417 13.838 13.3663 15.8877 10.833 15.8877C8.29982 15.8875 6.25 13.8379 6.25 11.3047C6.25 8.77146 8.29982 6.72186 10.833 6.72168ZM29.167 6.72168C31.7002 6.72186 33.75 8.77146 33.75 11.3047C33.75 13.8379 31.7002 15.8875 29.167 15.8877C26.6337 15.8877 24.583 13.838 24.583 11.3047C24.583 8.77135 26.6337 6.72168 29.167 6.72168ZM10.833 9.22168C9.68316 9.22186 8.75 10.1548 8.75 11.3047C8.75 12.4546 9.68316 13.3875 10.833 13.3877C11.983 13.3877 12.917 12.4547 12.917 11.3047C12.917 10.1547 11.983 9.22168 10.833 9.22168ZM29.167 9.22168C28.017 9.22168 27.083 10.1547 27.083 11.3047C27.083 12.4547 28.017 13.3877 29.167 13.3877C30.3168 13.3875 31.25 12.4546 31.25 11.3047C31.25 10.1548 30.3168 9.22186 29.167 9.22168Z" fill="#008ece"/>
</svg>
