<svg width="18" height="18" viewBox="0 0 18 18" fill="none" xmlns="http://www.w3.org/2000/svg">
<g id="elements">
<g id="Icon">
<path fill-rule="evenodd" clip-rule="evenodd" d="M3.95062 0.250002C3.28578 0.249966 2.71289 0.249936 2.25415 0.311611C1.76252 0.37771 1.29125 0.526768 0.909007 0.909015C0.526761 1.29126 0.377702 1.76252 0.311603 2.25416C0.249928 2.71289 0.249959 3.28574 0.249994 3.95058V14.0494C0.249959 14.7142 0.249928 15.2871 0.311603 15.7458C0.377702 16.2375 0.526761 16.7087 0.909007 17.091C1.29125 17.4732 1.76252 17.6223 2.25415 17.6884C2.7129 17.7501 3.28576 17.75 3.95063 17.75H4.04937C4.71423 17.75 5.2871 17.7501 5.74584 17.6884C6.23748 17.6223 6.70874 17.4732 7.09099 17.091C7.47324 16.7087 7.62229 16.2375 7.68839 15.7458C7.75007 15.2871 7.75004 14.7142 7.75 14.0494V3.95064C7.75004 3.28577 7.75007 2.71291 7.68839 2.25416C7.62229 1.76252 7.47324 1.29126 7.09099 0.909015C6.70874 0.526768 6.23748 0.37771 5.74584 0.311611C5.28711 0.249936 4.71427 0.249966 4.04942 0.250002H3.95062ZM1.96967 1.96968C2.02676 1.91258 2.12872 1.84197 2.45403 1.79823C2.80091 1.7516 3.27169 1.75001 4 1.75001C4.72831 1.75001 5.19909 1.7516 5.54597 1.79823C5.87127 1.84197 5.97324 1.91258 6.03033 1.96968C6.08742 2.02677 6.15803 2.12873 6.20177 2.45403C6.24841 2.80091 6.25 3.2717 6.25 4.00001V14C6.25 14.7283 6.24841 15.1991 6.20177 15.546C6.15803 15.8713 6.08742 15.9732 6.03033 16.0303C5.97324 16.0874 5.87127 16.158 5.54597 16.2018C5.19909 16.2484 4.72831 16.25 4 16.25C3.27169 16.25 2.80091 16.2484 2.45403 16.2018C2.12872 16.158 2.02676 16.0874 1.96967 16.0303C1.91257 15.9732 1.84196 15.8713 1.79823 15.546C1.75159 15.1991 1.75 14.7283 1.75 14V4.00001C1.75 3.2717 1.75159 2.80091 1.79823 2.45403C1.84196 2.12873 1.91257 2.02677 1.96967 1.96968Z" fill="white"/>
<path fill-rule="evenodd" clip-rule="evenodd" d="M13.9506 0.250002C13.2858 0.249966 12.7129 0.249936 12.2542 0.311611C11.7625 0.37771 11.2913 0.526768 10.909 0.909015C10.5268 1.29126 10.3777 1.76252 10.3116 2.25416C10.2499 2.7129 10.25 3.28576 10.25 3.95062V14.0494C10.25 14.7142 10.2499 15.2871 10.3116 15.7458C10.3777 16.2375 10.5268 16.7087 10.909 17.091C11.2913 17.4732 11.7625 17.6223 12.2542 17.6884C12.7129 17.7501 13.2858 17.75 13.9506 17.75H14.0494C14.7142 17.75 15.2871 17.7501 15.7458 17.6884C16.2375 17.6223 16.7087 17.4732 17.091 17.091C17.4732 16.7087 17.6223 16.2375 17.6884 15.7458C17.7501 15.2871 17.75 14.7143 17.75 14.0494V3.95064C17.75 3.28579 17.7501 2.7129 17.6884 2.25416C17.6223 1.76252 17.4732 1.29126 17.091 0.909015C16.7087 0.526768 16.2375 0.37771 15.7458 0.311611C15.2871 0.249936 14.7143 0.249966 14.0494 0.250002H13.9506ZM11.9697 1.96968C12.0268 1.91258 12.1287 1.84197 12.454 1.79823C12.8009 1.7516 13.2717 1.75001 14 1.75001C14.7283 1.75001 15.1991 1.7516 15.546 1.79823C15.8713 1.84197 15.9732 1.91258 16.0303 1.96968C16.0874 2.02677 16.158 2.12873 16.2018 2.45403C16.2484 2.80091 16.25 3.2717 16.25 4.00001V14C16.25 14.7283 16.2484 15.1991 16.2018 15.546C16.158 15.8713 16.0874 15.9732 16.0303 16.0303C15.9732 16.0874 15.8713 16.158 15.546 16.2018C15.1991 16.2484 14.7283 16.25 14 16.25C13.2717 16.25 12.8009 16.2484 12.454 16.2018C12.1287 16.158 12.0268 16.0874 11.9697 16.0303C11.9126 15.9732 11.842 15.8713 11.7982 15.546C11.7516 15.1991 11.75 14.7283 11.75 14V4.00001C11.75 3.2717 11.7516 2.80091 11.7982 2.45403C11.842 2.12873 11.9126 2.02677 11.9697 1.96968Z" fill="white"/>
</g>
</g>
</svg>
