<svg width="25" height="25" viewBox="0 0 25 25" fill="none" xmlns="http://www.w3.org/2000/svg">
<path fill-rule="evenodd" clip-rule="evenodd" d="M10.6565 3.15112H13.753C15.593 3.15111 17.0379 3.15111 18.177 3.27972C19.3397 3.41099 20.2824 3.6847 21.0661 4.3033C21.3007 4.48849 21.5182 4.69304 21.716 4.91479C22.7593 6.08438 22.9139 7.67076 22.9499 9.88897C22.9566 10.3031 22.6263 10.6443 22.2121 10.651C21.7979 10.6577 21.4568 10.3274 21.4501 9.91328C21.4486 9.82397 21.4469 9.73661 21.445 9.65112H2.96454C2.95028 10.2972 2.94995 11.039 2.94995 11.9011C2.94995 13.6897 2.95138 14.96 3.07558 15.9335C3.19714 16.8862 3.42614 17.4553 3.81296 17.889C3.95211 18.045 4.10594 18.1898 4.27288 18.3216C4.74449 18.6938 5.36948 18.9156 6.40085 19.032C7.44598 19.15 8.80627 19.1511 10.7041 19.1511H11.2C11.6142 19.1511 11.95 19.4869 11.95 19.9011C11.95 20.3153 11.6142 20.6511 11.2 20.6511H10.6566C8.81662 20.6511 7.37167 20.6511 6.23256 20.5225C5.06992 20.3913 4.12716 20.1175 3.34349 19.4989C3.10888 19.3137 2.89135 19.1092 2.69356 18.8875C2.02707 18.1402 1.72942 17.2345 1.58765 16.1233C1.44993 15.0439 1.44994 13.6779 1.44995 11.9539V11.8484C1.44994 10.1244 1.44993 8.75837 1.58765 7.67893C1.72942 6.56771 2.02707 5.662 2.69356 4.91479C2.89135 4.69304 3.10888 4.4885 3.34349 4.3033C4.12716 3.6847 5.06992 3.41099 6.23256 3.27972C7.37166 3.15111 8.81661 3.15111 10.6565 3.15112ZM20.5966 5.91326C21.0294 6.39851 21.2551 7.03769 21.3649 8.15112H3.04373C3.05334 8.05426 3.06392 7.9602 3.07558 7.86876C3.19714 6.91601 3.42614 6.34692 3.81296 5.91326C3.95211 5.75726 4.10594 5.61246 4.27288 5.48069C4.74449 5.10842 5.36948 4.8867 6.40085 4.77025C7.44598 4.65225 8.80627 4.65112 10.7041 4.65112H13.7055C15.6033 4.65112 16.9636 4.65225 18.0087 4.77025C19.0401 4.8867 19.6651 5.10842 20.1367 5.48069C20.3036 5.61246 20.4575 5.75726 20.5966 5.91326Z" fill="#008ece"/>
<path d="M20.0413 12.3494C19.7365 12.0688 19.2621 12.0884 18.9815 12.3931C18.7408 12.6546 18.721 13.0412 18.9129 13.3228H17.0776C15.0864 13.3228 13.45 14.9127 13.45 16.9011C13.45 17.3469 13.5329 17.7751 13.685 18.1704C13.8337 18.557 14.2677 18.7498 14.6543 18.6011C15.0409 18.4524 15.2337 18.0185 15.085 17.6319C14.9979 17.4054 14.95 17.1595 14.95 16.9011C14.95 15.7655 15.8903 14.8228 17.0776 14.8228L20.2071 14.8229C20.3089 14.823 20.4532 14.8232 20.5743 14.8064C20.6726 14.7927 21.1002 14.7273 21.2849 14.2893C21.4723 13.8446 21.2113 13.4912 21.1497 13.4107C21.0751 13.3132 20.9718 13.212 20.9 13.1416L20.8822 13.1241C20.8764 13.1184 20.8704 13.1128 20.8644 13.1072L20.0413 12.3494Z" fill="#008ece"/>
<path d="M22.7149 15.6319C22.5662 15.2453 22.1322 15.0524 21.7456 15.2011C21.359 15.3498 21.1662 15.7838 21.3149 16.1704C21.402 16.3969 21.45 16.6427 21.45 16.9011C21.45 18.0367 20.5097 18.9794 19.3223 18.9794L16.1928 18.9794C16.091 18.9793 15.9467 18.9791 15.8256 18.9959C15.7273 19.0096 15.2997 19.0749 15.1151 19.513C14.9276 19.9576 15.1886 20.3111 15.2502 20.3916C15.3248 20.4891 15.4281 20.5903 15.4999 20.6606L15.5177 20.6782C15.5235 20.6839 15.5295 20.6895 15.5355 20.695L16.3586 21.4529C16.6634 21.7334 17.1378 21.7139 17.4184 21.4091C17.6591 21.1476 17.6789 20.7611 17.487 20.4794H19.3223C21.3135 20.4794 22.95 18.8895 22.95 16.9011C22.95 16.4554 22.867 16.0272 22.7149 15.6319Z" fill="#008ece"/>
</svg>
