<svg width="184" height="183" viewBox="0 0 184 183" fill="none" xmlns="http://www.w3.org/2000/svg">
<path d="M91.999 2C141.199 2 181.084 41.8847 181.084 91.085C181.084 140.285 141.199 180.17 91.999 180.17C42.7988 180.17 2.91406 140.285 2.91406 91.085C2.91408 41.8847 42.7988 2.00002 91.999 2Z" fill="#F3F4F6" stroke="white" stroke-width="4"/>
<path fill-rule="evenodd" clip-rule="evenodd" d="M92 55.2539C82.335 55.2539 74.5 63.0889 74.5 72.7539C74.5 82.4189 82.335 90.2539 92 90.2539C101.665 90.2539 109.5 82.4189 109.5 72.7539C109.5 63.0889 101.665 55.2539 92 55.2539ZM79.5 72.7539C79.5 65.8503 85.0964 60.2539 92 60.2539C98.9036 60.2539 104.5 65.8503 104.5 72.7539C104.5 79.6575 98.9036 85.2539 92 85.2539C85.0964 85.2539 79.5 79.6575 79.5 72.7539Z" fill="#0D121C"/>
<path fill-rule="evenodd" clip-rule="evenodd" d="M112.763 101.351C112.221 101.045 111.742 100.775 111.354 100.544C99.5075 93.4904 84.4936 93.4904 72.6468 100.544C72.2591 100.775 71.7802 101.046 71.238 101.351C68.8619 102.692 65.2702 104.718 62.8097 107.127C61.2708 108.633 59.8086 110.618 59.5428 113.05C59.2601 115.636 60.3883 118.063 62.6517 120.219C66.5565 123.939 71.2425 126.921 77.3035 126.921H106.698C112.759 126.921 117.445 123.939 121.349 120.219C123.613 118.063 124.741 115.636 124.458 113.05C124.193 110.618 122.73 108.633 121.192 107.127C118.731 104.718 115.139 102.692 112.763 101.351ZM75.2049 104.841C85.4755 98.725 98.5257 98.725 108.796 104.841C109.356 105.174 109.969 105.522 110.611 105.886C112.987 107.234 115.76 108.807 117.694 110.7C118.894 111.875 119.406 112.844 119.488 113.593C119.553 114.188 119.403 115.168 117.901 116.599C114.448 119.889 110.939 121.921 106.698 121.921H77.3035C73.062 121.921 69.5534 119.889 66.1006 116.599C64.5985 115.168 64.4482 114.188 64.5132 113.593C64.595 112.844 65.1067 111.875 66.3071 110.7C68.2408 108.807 71.0142 107.234 73.3895 105.886C74.0318 105.522 74.6453 105.174 75.2049 104.841Z" fill="#0D121C"/>
</svg>
