<svg width="16" height="16" viewBox="0 0 16 16" fill="none" xmlns="http://www.w3.org/2000/svg">
<g id="elements">
<path id="Icon" d="M8.62565 1.33594C8.62565 0.99076 8.34583 0.710938 8.00065 0.710938C7.65547 0.710938 7.37565 0.99076 7.37565 1.33594V7.3776H1.33398C0.988806 7.3776 0.708984 7.65743 0.708984 8.0026C0.708984 8.34778 0.988806 8.6276 1.33398 8.6276H7.37565V14.6693C7.37565 15.0145 7.65547 15.2943 8.00065 15.2943C8.34583 15.2943 8.62565 15.0145 8.62565 14.6693V8.6276H14.6673C15.0125 8.6276 15.2923 8.34778 15.2923 8.0026C15.2923 7.65743 15.0125 7.3776 14.6673 7.3776H8.62565V1.33594Z" fill="#003F6A"/>
</g>
</svg>
