<svg width="24" height="25" viewBox="0 0 24 25" fill="none" xmlns="http://www.w3.org/2000/svg">
<path fill-rule="evenodd" clip-rule="evenodd" d="M6.59692 13.8592L5.75436 15.5483L9.527 16.6272L10.8693 14.3525L6.59692 13.8592ZM12.1017 12.9849L17.6916 12.3394L17.6934 12.3392C18.1568 12.2846 18.6161 12.5237 18.8295 12.9505L19.7961 14.8837L19.7966 14.8848C20.1197 15.5286 19.9288 16.2743 19.4167 16.701V21.0897C19.4167 21.9452 18.8337 22.689 18.0058 22.8979C17.9986 22.8997 17.9914 22.9014 17.9842 22.903L12.6337 24.0861C12.2846 24.1728 11.9182 24.1733 11.5691 24.0859L6.22174 22.9054C6.21337 22.9035 6.20504 22.9015 6.19674 22.8994C5.3722 22.6875 4.78903 21.9458 4.78903 21.0897V16.7019C4.27486 16.2748 4.08667 15.5275 4.40901 14.885L5.37291 12.9525C5.58431 12.5253 6.04372 12.2802 6.51395 12.3396L12.1017 12.9849ZM6.28903 17.2614L9.11983 18.0709L9.1208 18.0712C9.77046 18.2577 10.4651 17.9824 10.811 17.4028L12.1017 15.2156L13.3905 17.3996L13.3924 17.4028C13.7383 17.9825 14.4331 18.2577 15.0828 18.0711L17.9167 17.2612V21.0897C17.9167 21.2521 17.8073 21.3971 17.6466 21.4414L12.2993 22.6238C12.2915 22.6255 12.2838 22.6273 12.276 22.6293C12.1603 22.6588 12.0402 22.6583 11.9291 22.6298C11.9207 22.6276 11.9123 22.6256 11.9038 22.6237L6.56096 21.4441C6.39772 21.3979 6.28903 21.2512 6.28903 21.0897V17.2614ZM18.4513 15.5483L17.6067 13.8591L13.3341 14.3525L14.6764 16.6272L18.4513 15.5483ZM17.8694 13.8288L17.8666 13.8291L17.8694 13.8288Z" fill="#008ece"/>
<path d="M6.10254 1.40112C9.17602 1.40112 11.7671 3.45605 12.583 6.26636C13.8048 4.53355 15.8211 3.40112 18.1025 3.40112H21.1025C21.5168 3.40112 21.8525 3.73691 21.8525 4.15112V5.15112C21.8525 8.87905 18.8305 11.9011 15.1025 11.9011H12.8525V13.0789C12.8525 13.4931 12.5168 13.8289 12.1025 13.8289C11.6883 13.8289 11.3525 13.4931 11.3525 13.0789V10.1472C11.3526 10.0648 11.3554 9.98281 11.3584 9.90112H9.10254C5.37462 9.90112 2.35254 6.87905 2.35254 3.15112V2.15112C2.35254 1.73691 2.68833 1.40112 3.10254 1.40112H6.10254ZM18.1025 4.90112C15.203 4.90112 12.8525 7.25163 12.8525 10.1511V10.4011H15.1025C18.002 10.4011 20.3525 8.05062 20.3525 5.15112V4.90112H18.1025ZM3.85254 3.15112C3.85254 6.05062 6.20304 8.40112 9.10254 8.40112H11.3525V8.15112C11.3525 5.25163 9.00203 2.90112 6.10254 2.90112H3.85254V3.15112Z" fill="#008ece"/>
</svg>
