<svg xmlns="http://www.w3.org/2000/svg" width="40" height="40" viewBox="0 0 40 40" fill="none">
<path d="M0 20C0 8.95431 8.95431 0 20 0C31.0457 0 40 8.95431 40 20C40 31.0457 31.0457 40 20 40C8.95431 40 0 31.0457 0 20Z" fill="#009174"/>
<path fill-rule="evenodd" clip-rule="evenodd" d="M11.042 20.0013C11.042 15.0537 15.0528 11.043 20.0003 11.043C20.6131 11.043 21.2121 11.1046 21.7913 11.2222C22.1296 11.2908 22.3482 11.6207 22.2795 11.959C22.2108 12.2973 21.8809 12.5158 21.5427 12.4472C21.0449 12.3461 20.5291 12.293 20.0003 12.293C15.7431 12.293 12.292 15.7441 12.292 20.0013C12.292 24.2585 15.7431 27.7096 20.0003 27.7096C24.2575 27.7096 27.7087 24.2585 27.7087 20.0013C27.7087 19.4726 27.6555 18.9568 27.5545 18.4589C27.4858 18.1206 27.7044 17.7907 28.0427 17.7221C28.381 17.6535 28.7109 17.8721 28.7795 18.2104C28.897 18.7895 28.9587 19.3885 28.9587 20.0013C28.9587 24.9488 24.9478 28.9596 20.0003 28.9596C15.0528 28.9596 11.042 24.9488 11.042 20.0013ZM20.0003 16.4596C18.0443 16.4596 16.4587 18.0453 16.4587 20.0013C16.4587 21.9573 18.0443 23.543 20.0003 23.543C21.9563 23.543 23.542 21.9573 23.542 20.0013C23.542 19.6561 23.8218 19.3763 24.167 19.3763C24.5122 19.3763 24.792 19.6561 24.792 20.0013C24.792 22.6476 22.6467 24.793 20.0003 24.793C17.354 24.793 15.2087 22.6476 15.2087 20.0013C15.2087 17.3549 17.354 15.2096 20.0003 15.2096C20.3455 15.2096 20.6253 15.4895 20.6253 15.8346C20.6253 16.1798 20.3455 16.4596 20.0003 16.4596ZM26.5864 11.7799C26.3783 11.1117 25.5459 10.8021 24.9598 11.2811C24.3563 11.7743 23.6334 12.4223 23.2262 13.2681C22.8521 14.0452 22.7649 14.9436 23.1543 15.9574L19.5836 19.5281C19.3395 19.7721 19.3395 20.1679 19.5836 20.4119C19.8277 20.656 20.2234 20.656 20.4675 20.4119L24.0212 16.8583C25.1013 17.2619 26.0264 17.1549 26.8108 16.7535C27.6317 16.3335 28.2461 15.6138 28.7095 15.0543C29.198 14.4644 28.8861 13.6092 28.1945 13.4092C28.1866 13.4069 28.1787 13.4048 28.1708 13.4029L26.9549 13.1025L26.5918 11.7982C26.5901 11.7921 26.5883 11.786 26.5864 11.7799ZM26.2414 15.6408C25.7679 15.883 25.1851 15.9797 24.3826 15.658C24.0407 14.8844 24.1175 14.2984 24.3525 13.8103C24.5874 13.3222 25.0012 12.8894 25.4824 12.474L25.8485 13.7894C25.909 14.0066 26.0818 14.1744 26.3008 14.2285L27.5176 14.5291C27.1185 14.9929 26.7134 15.3992 26.2414 15.6408Z" fill="white"/>
</svg>