<svg width="15" height="12" viewBox="0 0 15 12" fill="none" xmlns="http://www.w3.org/2000/svg">
<g id="elements">
<path id="Icon" d="M6.04134 1C6.04134 0.654822 6.32116 0.375 6.66634 0.375H10.4163C12.8326 0.375 14.7913 2.33375 14.7913 4.75C14.7913 7.16625 12.8326 9.125 10.4163 9.125H2.05198C2.18923 9.25636 2.33894 9.39156 2.49276 9.52511C2.79434 9.78696 3.09776 10.0305 3.3269 10.2093C3.44114 10.2985 3.53616 10.3709 3.60228 10.4209C3.63532 10.4458 3.70113 10.4951 3.71844 10.508C3.99633 10.7127 4.04094 11.0927 3.83625 11.3706C3.63156 11.6486 3.2402 11.7079 2.96226 11.5032L2.96111 11.5023C2.9407 11.4871 2.88353 11.4445 2.8489 11.4183C2.7783 11.365 2.678 11.2885 2.55786 11.1947C2.31825 11.0077 1.99667 10.7498 1.67325 10.469C1.35294 10.1909 1.01652 9.87807 0.755267 9.58239C0.625272 9.43527 0.500664 9.27766 0.405168 9.11925C0.320013 8.97799 0.208006 8.75641 0.208008 8.5C0.20801 8.24359 0.320018 8.022 0.405172 7.88075C0.500669 7.72234 0.625277 7.56473 0.755272 7.41761C1.01652 7.12193 1.35294 6.80912 1.67325 6.53101C1.99667 6.25021 2.31826 5.99226 2.55787 5.80526C2.678 5.71151 2.7783 5.635 2.84889 5.58167C2.88356 5.55549 2.94079 5.51284 2.96116 5.49766L2.96116 5.49766L2.96226 5.49684C3.2402 5.29214 3.63156 5.35143 3.83625 5.62937C4.03589 5.90044 3.98435 6.27929 3.72384 6.48774L3.60228 6.57913C3.53616 6.62907 3.44114 6.70155 3.3269 6.7907C3.09776 6.96952 2.79435 7.21304 2.49277 7.47489C2.33895 7.60844 2.18924 7.74364 2.05199 7.875H10.4163C12.1422 7.875 13.5413 6.47589 13.5413 4.75C13.5413 3.02411 12.1422 1.625 10.4163 1.625H6.66634C6.32116 1.625 6.04134 1.34518 6.04134 1Z" fill="#9DA4AE"/>
</g>
</svg>
