<svg width="18" height="18" viewBox="0 0 18 18" fill="none" xmlns="http://www.w3.org/2000/svg">
<path fill-rule="evenodd" clip-rule="evenodd" d="M8.12761 0C3.64029 0 0.00260544 3.63769 0.00260544 8.125C0.00260544 12.6123 3.64029 16.25 8.12761 16.25C10.1463 16.25 11.993 15.5138 13.414 14.2953L16.8523 17.7336C17.0964 17.9777 17.4921 17.9777 17.7362 17.7336C17.9803 17.4895 17.9803 17.0938 17.7362 16.8497L14.2979 13.4114C15.5164 11.9904 16.2526 10.1437 16.2526 8.125C16.2526 3.63769 12.6149 0 8.12761 0ZM1.25261 8.125C1.25261 4.32804 4.33065 1.25 8.12761 1.25C11.9246 1.25 15.0026 4.32804 15.0026 8.125C15.0026 11.922 11.9246 15 8.12761 15C4.33065 15 1.25261 11.922 1.25261 8.125Z" fill="#FCFCFD"/>
</svg>
