<svg width="21" height="19" viewBox="0 0 21 19" fill="none" xmlns="http://www.w3.org/2000/svg">
<g id="elements">
<path id="Ellipse 1911" d="M19.6971 4.01001C19.6971 5.66686 18.354 7.01001 16.6971 7.01001C15.0403 7.01001 13.6971 5.66686 13.6971 4.01001C13.6971 2.35316 15.0403 1.01001 16.6971 1.01001C18.354 1.01001 19.6971 2.35316 19.6971 4.01001Z" stroke="#009174" stroke-width="1.5"/>
<path id="Ellipse 1948" d="M7.69714 9.51001C7.69714 11.1669 6.354 12.51 4.69714 12.51C3.04029 12.51 1.69714 11.1669 1.69714 9.51001C1.69714 7.85316 3.04029 6.51001 4.69714 6.51001C6.354 6.51001 7.69714 7.85316 7.69714 9.51001Z" stroke="#009174" stroke-width="1.5"/>
<path id="Ellipse 1949" d="M19.6971 15.01C19.6971 16.6669 18.354 18.01 16.6971 18.01C15.0403 18.01 13.6971 16.6669 13.6971 15.01C13.6971 13.3532 15.0403 12.01 16.6971 12.01C18.354 12.01 19.6971 13.3532 19.6971 15.01Z" stroke="#009174" stroke-width="1.5"/>
<path id="Vector" d="M7.42566 8.25972L13.9257 5.26025M7.42566 10.7603L13.9257 13.7597" stroke="#009174" stroke-width="1.5"/>
</g>
</svg>
