<svg width="26" height="26" viewBox="0 0 26 26" fill="none" xmlns="http://www.w3.org/2000/svg">
<g id="elements">
<path id="Icon" d="M2 1C2 0.447715 1.55229 0 1 0C0.447717 0 5.36277e-07 0.447715 5.36277e-07 1V15.741C-2.29888e-05 17.8778 -4.1763e-05 19.5831 0.179773 20.9205C0.365536 22.3022 0.759543 23.4401 1.65973 24.3403C2.55992 25.2405 3.6978 25.6345 5.07949 25.8202C6.41694 26 8.12222 26 10.259 26H25C25.5523 26 26 25.5523 26 25C26 24.4477 25.5523 24 25 24H10.3333C8.10518 24 6.53466 23.9979 5.34598 23.8381C5.09798 23.8047 4.87349 23.7653 4.66924 23.7193C4.96369 21.6753 5.829 18.0658 7.05879 14.967C7.68356 13.3926 8.38027 12.0074 9.10865 11.0337C9.87246 10.0128 10.4865 9.68574 10.9043 9.68574C11.156 9.68574 11.4277 9.80078 11.7848 10.1788C12.157 10.573 12.5005 11.1223 12.9098 11.7894L12.947 11.85C13.3196 12.4576 13.7557 13.1686 14.2712 13.7221C14.8179 14.3091 15.571 14.8471 16.5819 14.8471C18.1979 14.8471 19.2227 13.7271 19.8993 12.5446C20.534 11.4352 21.0175 10.0038 21.4661 8.67559L21.5556 8.41096C22.0511 6.94759 22.5191 5.62606 23.1235 4.66448C23.7154 3.72271 24.3022 3.33333 25 3.33333C25.5523 3.33333 26 2.88562 26 2.33333C26 1.78105 25.5523 1.33333 25 1.33333C23.3167 1.33333 22.1951 2.38317 21.4302 3.60023C20.6777 4.79747 20.1405 6.35438 19.6612 7.76944L19.5977 7.95722C19.123 9.36007 18.6975 10.6177 18.1633 11.5515C17.6047 12.5278 17.1038 12.8471 16.5819 12.8471C16.3504 12.8471 16.0894 12.7398 15.7348 12.3591C15.3662 11.9633 15.0255 11.4133 14.6145 10.7434L14.5959 10.713C14.2174 10.0962 13.7718 9.36989 13.2388 8.80556C12.6818 8.21586 11.9205 7.68574 10.9043 7.68574C9.48755 7.68574 8.35287 8.70528 7.5072 9.83568C6.62611 11.0134 5.85258 12.5844 5.19982 14.2292C4.05694 17.1091 3.21639 20.3914 2.81988 22.6289C2.49907 22.1869 2.28735 21.5868 2.16194 20.654C2.00213 19.4653 2 17.8948 2 15.6667V1Z" fill="#007960"/>
</g>
</svg>
