<svg width="25" height="25" viewBox="0 0 25 25" fill="none" xmlns="http://www.w3.org/2000/svg">
<path d="M14.4527 1.65094C16.4756 1.65093 18.0711 1.65079 19.3111 1.81891C20.5831 1.99137 21.6024 2.35414 22.3834 3.1734C23.166 3.99448 23.4713 5.02498 23.567 6.29254C23.66 7.52506 23.5612 9.09658 23.4351 11.0845L23.2926 13.3209C23.1946 14.8717 23.1326 15.8613 22.7642 16.6685C22.2274 17.845 21.2386 18.7591 20.0201 19.2115C19.1846 19.5217 18.1847 19.5214 16.6041 19.5211C16.3054 19.5211 16.0728 19.6084 15.9937 19.6519L11.7242 22.4566C11.405 22.6664 11.0989 22.8677 10.8365 22.9898C10.5619 23.1176 10.1206 23.2624 9.66463 23.022C9.20421 22.7792 9.07797 22.3288 9.0328 22.0279C8.99008 21.743 8.98975 21.3787 8.98983 21.0015L8.98397 19.7388C8.96196 19.6381 8.87955 19.5509 8.76327 19.5269C7.90037 19.527 6.93049 19.5207 6.45565 19.4273C4.96046 19.1332 3.68235 18.0796 3.00252 16.7271C2.77312 16.2706 3.14302 15.7819 3.65389 15.7818C3.98233 15.7818 4.2677 15.9938 4.42733 16.2808C4.90206 17.1345 5.74274 17.7584 6.74569 17.9556C7.05825 18.017 7.49627 18.0211 8.48299 18.0211C8.68114 18.0208 8.88209 18.0199 9.06405 18.0572C9.75594 18.199 10.3057 18.7344 10.4527 19.4302C10.4913 19.6129 10.4901 19.8149 10.4898 20.0093L10.4937 21.4664L15.1939 18.3824C15.3914 18.2496 15.9152 17.9914 16.4322 18.0211C18.2432 18.0211 18.9481 18.0092 19.4976 17.8052C20.3468 17.49 21.0305 16.8552 21.4 16.0455C21.6382 15.5232 21.6941 14.8373 21.8072 13.0533L21.9342 11.0494C22.0648 8.98917 22.1561 7.52185 22.0719 6.40582C21.9893 5.31258 21.7447 4.67782 21.2974 4.20856C20.8486 3.73771 20.2169 3.45535 19.1099 3.30524C17.9825 3.15237 16.4885 3.15094 14.3951 3.15094H11.3131C9.21973 3.15094 7.72572 3.15237 6.59823 3.30524C5.49128 3.45535 4.85956 3.7377 4.41073 4.20856C4.08537 4.54993 3.86725 4.97879 3.74081 5.60797C3.66377 5.99143 3.34579 6.29254 2.95467 6.29254C2.51547 6.29253 2.16295 5.91764 2.23788 5.48492C2.39505 4.57902 2.71559 3.81258 3.32479 3.1734C4.10573 2.35416 5.12505 1.99137 6.39706 1.81891C7.63707 1.65079 9.23261 1.65093 11.2555 1.65094H14.4527Z" fill="#008ece"/>
<path d="M2.11404 11.5443L1.03473 11.2905L1.38913 8.29423H4.81635V9.34938H2.49664L2.36374 10.5133C2.42817 10.4757 2.53691 10.4314 2.68995 10.3804C2.84567 10.3267 3.0175 10.2998 3.20544 10.2998C3.4954 10.2998 3.75181 10.3441 3.97465 10.4327C4.20018 10.5186 4.3908 10.6462 4.54653 10.8153C4.70225 10.9818 4.81904 11.1872 4.8969 11.4315C4.97745 11.6758 5.01772 11.955 5.01772 12.2692C5.01772 12.5215 4.9761 12.7659 4.89287 13.0021C4.81233 13.2357 4.68748 13.4465 4.51834 13.6344C4.35187 13.8197 4.14111 13.9673 3.88605 14.0774C3.63099 14.1848 3.32894 14.2385 2.97991 14.2385C2.71948 14.2385 2.46576 14.1982 2.21875 14.1177C1.97175 14.0371 1.7489 13.9217 1.55022 13.7713C1.35423 13.6183 1.19851 13.4344 1.08306 13.2196C0.970295 13.0021 0.915255 12.7591 0.91794 12.4907H2.28319C2.29125 12.633 2.32481 12.7565 2.38387 12.8612C2.44294 12.9659 2.52214 13.0478 2.62148 13.1068C2.72351 13.1632 2.8403 13.1914 2.97186 13.1914C3.1061 13.1914 3.21752 13.1646 3.30612 13.1109C3.39472 13.0572 3.46453 12.9833 3.51554 12.8894C3.56655 12.7954 3.6028 12.688 3.62428 12.5672C3.64576 12.4437 3.6565 12.3135 3.6565 12.1765C3.6565 12.0316 3.64039 11.9013 3.60817 11.7859C3.57863 11.6704 3.53031 11.5724 3.46319 11.4919C3.39606 11.4087 3.30881 11.3456 3.20141 11.3026C3.0967 11.2597 2.97051 11.2382 2.82285 11.2382C2.62685 11.2382 2.47247 11.2717 2.35971 11.3389C2.24695 11.406 2.16506 11.4744 2.11404 11.5443Z" fill="#008ece"/>
<path d="M9.81019 10.6905V11.7617C9.81019 12.1832 9.76052 12.5497 9.66118 12.8612C9.56453 13.1726 9.42491 13.4304 9.24234 13.6344C9.06246 13.8385 8.84767 13.9902 8.59798 14.0895C8.34829 14.1888 8.07309 14.2385 7.77238 14.2385C7.53075 14.2385 7.30522 14.2076 7.0958 14.1459C6.88638 14.0814 6.6971 13.9848 6.52795 13.8559C6.36149 13.7244 6.21785 13.5606 6.09703 13.3646C5.97621 13.1686 5.88359 12.9377 5.81915 12.6719C5.75471 12.4034 5.72249 12.1 5.72249 11.7617V10.6905C5.72249 10.2663 5.77082 9.89978 5.86748 9.59102C5.96682 9.27957 6.10777 9.02183 6.29034 8.81778C6.47291 8.61373 6.68904 8.46203 6.93874 8.36269C7.18843 8.26335 7.46362 8.21368 7.76433 8.21368C8.00597 8.21368 8.23015 8.2459 8.43689 8.31034C8.6463 8.37209 8.83559 8.46875 9.00473 8.6003C9.17388 8.72918 9.31752 8.89161 9.43565 9.08761C9.55647 9.2836 9.6491 9.51584 9.71354 9.78433C9.77797 10.0501 9.81019 10.3522 9.81019 10.6905ZM8.45299 11.9268V10.5173C8.45299 10.3294 8.44226 10.1656 8.42078 10.026C8.40198 9.88635 8.37245 9.76822 8.33218 9.67156C8.29459 9.57491 8.2476 9.49705 8.19122 9.43798C8.13484 9.37623 8.0704 9.33193 7.99791 9.30508C7.92811 9.27555 7.85024 9.26078 7.76433 9.26078C7.65693 9.26078 7.56028 9.2836 7.47436 9.32924C7.39113 9.3722 7.31998 9.44201 7.26092 9.53866C7.20185 9.63532 7.15621 9.76419 7.12399 9.92528C7.09446 10.0864 7.07969 10.2837 7.07969 10.5173V11.9268C7.07969 12.1175 7.08909 12.2839 7.10788 12.4262C7.12936 12.5658 7.15889 12.6853 7.19648 12.7847C7.23675 12.8813 7.28508 12.9605 7.34146 13.0223C7.39785 13.0813 7.46228 13.1243 7.53477 13.1511C7.60726 13.178 7.68647 13.1914 7.77238 13.1914C7.87709 13.1914 7.97106 13.1699 8.05429 13.127C8.13752 13.084 8.20867 13.0142 8.26774 12.9176C8.32949 12.8182 8.37513 12.688 8.40467 12.5269C8.43689 12.3631 8.45299 12.1631 8.45299 11.9268Z" fill="#008ece"/>
<path d="M14.5946 10.6905V11.7617C14.5946 12.1832 14.5449 12.5497 14.4456 12.8612C14.3489 13.1726 14.2093 13.4304 14.0268 13.6344C13.8469 13.8385 13.6321 13.9902 13.3824 14.0895C13.1327 14.1888 12.8575 14.2385 12.5568 14.2385C12.3152 14.2385 12.0896 14.2076 11.8802 14.1459C11.6708 14.0814 11.4815 13.9848 11.3124 13.8559C11.1459 13.7244 11.0023 13.5606 10.8814 13.3646C10.7606 13.1686 10.668 12.9377 10.6036 12.6719C10.5391 12.4034 10.5069 12.1 10.5069 11.7617V10.6905C10.5069 10.2663 10.5552 9.89978 10.6519 9.59102C10.7512 9.27957 10.8922 9.02183 11.0748 8.81778C11.2573 8.61373 11.4735 8.46203 11.7232 8.36269C11.9728 8.26335 12.248 8.21368 12.5487 8.21368C12.7904 8.21368 13.0146 8.2459 13.2213 8.31034C13.4307 8.37209 13.62 8.46875 13.7892 8.6003C13.9583 8.72918 14.1019 8.89161 14.2201 9.08761C14.3409 9.2836 14.4335 9.51584 14.498 9.78433C14.5624 10.0501 14.5946 10.3522 14.5946 10.6905ZM13.2374 11.9268V10.5173C13.2374 10.3294 13.2267 10.1656 13.2052 10.026C13.1864 9.88635 13.1569 9.76822 13.1166 9.67156C13.079 9.57491 13.032 9.49705 12.9756 9.43798C12.9193 9.37623 12.8548 9.33193 12.7823 9.30508C12.7125 9.27555 12.6347 9.26078 12.5487 9.26078C12.4414 9.26078 12.3447 9.2836 12.2588 9.32924C12.1756 9.3722 12.1044 9.44201 12.0453 9.53866C11.9863 9.63532 11.9406 9.76419 11.9084 9.92528C11.8789 10.0864 11.8641 10.2837 11.8641 10.5173V11.9268C11.8641 12.1175 11.8735 12.2839 11.8923 12.4262C11.9138 12.5658 11.9433 12.6853 11.9809 12.7847C12.0212 12.8813 12.0695 12.9605 12.1259 13.0223C12.1823 13.0813 12.2467 13.1243 12.3192 13.1511C12.3917 13.178 12.4709 13.1914 12.5568 13.1914C12.6615 13.1914 12.7555 13.1699 12.8387 13.127C12.9219 13.084 12.9931 13.0142 13.0522 12.9176C13.1139 12.8182 13.1596 12.688 13.1891 12.5269C13.2213 12.3631 13.2374 12.1631 13.2374 11.9268Z" fill="#008ece"/>
<path d="M16.4673 11.5443L15.388 11.2905L15.7424 8.29423H19.1696V9.34938H16.8499L16.717 10.5133C16.7814 10.4757 16.8902 10.4314 17.0432 10.3804C17.1989 10.3267 17.3708 10.2998 17.5587 10.2998C17.8487 10.2998 18.1051 10.3441 18.3279 10.4327C18.5534 10.5186 18.7441 10.6462 18.8998 10.8153C19.0555 10.9818 19.1723 11.1872 19.2502 11.4315C19.3307 11.6758 19.371 11.955 19.371 12.2692C19.371 12.5215 19.3294 12.7659 19.2461 13.0021C19.1656 13.2357 19.0407 13.4465 18.8716 13.6344C18.7051 13.8197 18.4944 13.9673 18.2393 14.0774C17.9842 14.1848 17.6822 14.2385 17.3332 14.2385C17.0727 14.2385 16.819 14.1982 16.572 14.1177C16.325 14.0371 16.1022 13.9217 15.9035 13.7713C15.7075 13.6183 15.5518 13.4344 15.4363 13.2196C15.3235 13.0021 15.2685 12.7591 15.2712 12.4907H16.6364C16.6445 12.633 16.6781 12.7565 16.7371 12.8612C16.7962 12.9659 16.8754 13.0478 16.9747 13.1068C17.0768 13.1632 17.1936 13.1914 17.3251 13.1914C17.4594 13.1914 17.5708 13.1646 17.6594 13.1109C17.748 13.0572 17.8178 12.9833 17.8688 12.8894C17.9198 12.7954 17.9561 12.688 17.9775 12.5672C17.999 12.4437 18.0097 12.3135 18.0097 12.1765C18.0097 12.0316 17.9936 11.9013 17.9614 11.7859C17.9319 11.6704 17.8836 11.5724 17.8164 11.4919C17.7493 11.4087 17.6621 11.3456 17.5547 11.3026C17.45 11.2597 17.3238 11.2382 17.1761 11.2382C16.9801 11.2382 16.8257 11.2717 16.713 11.3389C16.6002 11.406 16.5183 11.4744 16.4673 11.5443Z" fill="#008ece"/>
</svg>
