<svg width="25" height="26" viewBox="0 0 25 26" fill="none" xmlns="http://www.w3.org/2000/svg">
<g id="elements">
<g id="Icon">
<path d="M12.1805 0.460938H10.8195C8.54349 0.460923 6.75098 0.460911 5.35032 0.638762C3.91652 0.820823 2.76126 1.20265 1.84644 2.06664C0.924569 2.9373 0.510705 4.04806 0.31464 5.42535C0.124963 6.75777 0.124979 8.45891 0.125 10.6001V15.4051C0.124979 17.5463 0.124962 19.2474 0.314639 20.5799C0.510704 21.9571 0.924568 23.0679 1.84644 23.9386C2.76125 24.8026 3.91652 25.1844 5.35032 25.3664C6.75098 25.5443 8.54351 25.5443 10.8195 25.5443H10.8824L10.8995 25.5441L10.9167 25.5443H12.6667C13.1499 25.5443 13.5417 25.1525 13.5417 24.6693C13.5417 24.186 13.1499 23.7943 12.6667 23.7943H10.9167L10.8995 23.7944L10.8824 23.7943C8.52967 23.7943 6.84834 23.7926 5.57076 23.6304C4.31346 23.4707 3.58046 23.1691 3.04803 22.6663C2.52267 22.1701 2.21292 21.4975 2.04717 20.3332C1.87708 19.1384 1.875 17.562 1.875 15.3359L1.875 10.6693C1.875 8.44323 1.87708 6.86683 2.04717 5.67199C2.21292 4.50768 2.52267 3.83509 3.04803 3.33891C3.58046 2.83606 4.31346 2.53447 5.57076 2.37482C6.84834 2.2126 8.52967 2.21094 10.8824 2.21094H12.1177C14.4703 2.21094 16.1517 2.2126 17.4292 2.37482C18.6865 2.53447 19.4195 2.83606 19.952 3.33891C20.4773 3.83509 20.7871 4.50768 20.9528 5.67199C21.1229 6.86683 21.125 8.44324 21.125 10.6693C21.125 11.1525 21.5168 11.5443 22 11.5443C22.4832 11.5443 22.875 11.1525 22.875 10.6693V10.6001C22.875 8.45892 22.875 6.75778 22.6854 5.42535C22.4893 4.04806 22.0754 2.9373 21.1536 2.06664C20.2387 1.20265 19.0835 0.820823 17.6497 0.638763C16.249 0.460912 14.4565 0.460923 12.1805 0.460938Z" fill="#007960"/>
<path d="M6.83333 6.29427C6.35009 6.29427 5.95833 6.68602 5.95833 7.16927C5.95833 7.65252 6.35009 8.04427 6.83333 8.04427H16.1667C16.6499 8.04427 17.0417 7.65252 17.0417 7.16927C17.0417 6.68602 16.6499 6.29427 16.1667 6.29427H6.83333Z" fill="#007960"/>
<path d="M5.95833 13.0026C5.95833 12.5194 6.35009 12.1276 6.83333 12.1276H12.6667C13.1499 12.1276 13.5417 12.5194 13.5417 13.0026C13.5417 13.4859 13.1499 13.8776 12.6667 13.8776H6.83333C6.35009 13.8776 5.95833 13.4859 5.95833 13.0026Z" fill="#007960"/>
<path fill-rule="evenodd" clip-rule="evenodd" d="M19.6667 13.2943C17.2518 13.2943 15.2917 15.2491 15.2917 17.6636C15.2917 19.0305 15.92 20.2502 16.9033 21.0512L16.0229 24.1285L16.0166 24.1516C15.7903 25.0332 16.662 25.7911 17.5013 25.456L19.6667 24.5912L21.8541 25.4648C22.6731 25.7919 23.5328 25.0764 23.3499 24.2076L23.3457 24.1887L22.5816 20.9218C23.4775 20.1219 24.0417 18.9589 24.0417 17.6636C24.0417 15.2491 22.0816 13.2943 19.6667 13.2943ZM17.0417 17.6636C17.0417 16.2183 18.2156 15.0443 19.6667 15.0443C21.1178 15.0443 22.2917 16.2183 22.2917 17.6636C22.2917 19.1088 21.1178 20.2829 19.6667 20.2829C18.2156 20.2829 17.0417 19.1088 17.0417 17.6636ZM18.0671 23.3456L18.4885 21.8726C18.8634 21.9771 19.2585 22.0329 19.6667 22.0329C20.1302 22.0329 20.5769 21.9609 20.9962 21.8274L21.36 23.3831L20.1645 22.9057C19.8449 22.778 19.4884 22.778 19.1688 22.9057L18.0671 23.3456Z" fill="#007960"/>
</g>
</g>
</svg>
