<svg width="25" height="25" viewBox="0 0 25 25" fill="none" xmlns="http://www.w3.org/2000/svg">
<path d="M5.35352 10.2617C5.56779 10.2617 5.76534 10.2622 5.93066 10.2734C6.10819 10.2856 6.30362 10.3124 6.50195 10.3945C6.93071 10.5721 7.27161 10.913 7.44922 11.3418C7.53137 11.5401 7.55818 11.7356 7.57031 11.9131C7.58159 12.0784 7.58204 12.276 7.58203 12.4902V19.5332C7.58204 19.7475 7.58159 19.945 7.57031 20.1104C7.55818 20.2879 7.53137 20.4833 7.44922 20.6816C7.27161 21.1104 6.93071 21.4513 6.50195 21.6289C6.30362 21.7111 6.10819 21.7379 5.93066 21.75C5.76534 21.7613 5.56779 21.7617 5.35352 21.7617H5.31055C5.09627 21.7617 4.89872 21.7613 4.7334 21.75C4.55588 21.7379 4.36044 21.7111 4.16211 21.6289C3.73335 21.4513 3.39246 21.1104 3.21484 20.6816C3.13269 20.4833 3.10589 20.2879 3.09375 20.1104C3.08247 19.945 3.08202 19.7475 3.08203 19.5332V12.4902C3.08202 12.276 3.08247 12.0784 3.09375 11.9131C3.10589 11.7356 3.13269 11.5401 3.21484 11.3418C3.39246 10.913 3.73335 10.5721 4.16211 10.3945C4.36044 10.3124 4.55588 10.2856 4.7334 10.2734C4.89873 10.2622 5.09627 10.2617 5.31055 10.2617H5.35352ZM19.3535 8.26172C19.5678 8.26171 19.7653 8.26216 19.9307 8.27344C20.1082 8.28557 20.3036 8.31238 20.502 8.39453C20.9307 8.57214 21.2716 8.91304 21.4492 9.3418C21.5314 9.54013 21.5582 9.73556 21.5703 9.91309C21.5816 10.0784 21.582 10.276 21.582 10.4902V19.5332C21.582 19.7475 21.5816 19.945 21.5703 20.1104C21.5582 20.2879 21.5314 20.4833 21.4492 20.6816C21.2716 21.1104 20.9307 21.4513 20.502 21.6289C20.3036 21.7111 20.1082 21.7379 19.9307 21.75C19.7653 21.7613 19.5678 21.7617 19.3535 21.7617H19.3105C19.0963 21.7617 18.8987 21.7613 18.7334 21.75C18.5559 21.7379 18.3604 21.7111 18.1621 21.6289C17.7334 21.4513 17.3925 21.1104 17.2148 20.6816C17.1327 20.4833 17.1059 20.2879 17.0938 20.1104C17.0825 19.945 17.082 19.7475 17.082 19.5332V10.4902C17.082 10.276 17.0825 10.0784 17.0938 9.91309C17.1059 9.73556 17.1327 9.54013 17.2148 9.3418C17.3925 8.91304 17.7334 8.57214 18.1621 8.39453C18.3604 8.31238 18.5559 8.28557 18.7334 8.27344C18.8987 8.26216 19.0963 8.26171 19.3105 8.26172H19.3535ZM12.3535 12.2617C12.5678 12.2617 12.7653 12.2622 12.9307 12.2734C13.1082 12.2856 13.3036 12.3124 13.502 12.3945C13.9307 12.5721 14.2716 12.913 14.4492 13.3418C14.5314 13.5401 14.5582 13.7356 14.5703 13.9131C14.5816 14.0784 14.582 14.276 14.582 14.4902V19.5332C14.582 19.7474 14.5816 19.9441 14.5703 20.1094C14.5582 20.2869 14.5313 20.4823 14.4492 20.6807C14.2716 21.1094 13.9306 21.4503 13.502 21.6279C13.3036 21.7101 13.1082 21.7379 12.9307 21.75C12.7653 21.7613 12.5678 21.7608 12.3535 21.7607H12.3105C12.0963 21.7608 11.8987 21.7613 11.7334 21.75C11.5559 21.7379 11.3605 21.7101 11.1621 21.6279C10.7334 21.4503 10.3924 21.1094 10.2148 20.6807C10.1327 20.4823 10.1059 20.2869 10.0938 20.1094C10.0825 19.9441 10.082 19.7474 10.082 19.5332V14.4902C10.082 14.276 10.0825 14.0784 10.0938 13.9131C10.1059 13.7356 10.1327 13.5401 10.2148 13.3418C10.3925 12.913 10.7334 12.5721 11.1621 12.3945C11.3604 12.3124 11.5559 12.2856 11.7334 12.2734C11.8987 12.2622 12.0963 12.2617 12.3105 12.2617H12.3535ZM4.83594 11.7695C4.76912 11.7741 4.74076 11.7804 4.7334 11.7822C4.67459 11.8075 4.62781 11.8543 4.60254 11.9131C4.60067 11.9204 4.5944 11.9488 4.58984 12.0156C4.58247 12.1236 4.58203 12.2685 4.58203 12.5117V19.5117C4.58203 19.7549 4.58248 19.8998 4.58984 20.0078C4.5944 20.0746 4.60067 20.103 4.60254 20.1104C4.62781 20.1692 4.67459 20.2159 4.7334 20.2412C4.74076 20.2431 4.76912 20.2493 4.83594 20.2539C4.94394 20.2613 5.0888 20.2617 5.33203 20.2617C5.57526 20.2617 5.72012 20.2613 5.82812 20.2539C5.89493 20.2493 5.9233 20.2431 5.93066 20.2412C5.98948 20.2159 6.03625 20.1692 6.06152 20.1104C6.06339 20.103 6.06966 20.0746 6.07422 20.0078C6.08159 19.8998 6.08203 19.7549 6.08203 19.5117V12.5117C6.08203 12.2685 6.08159 12.1236 6.07422 12.0156C6.06966 11.9488 6.06339 11.9204 6.06152 11.9131C6.03625 11.8543 5.98948 11.8075 5.93066 11.7822C5.9233 11.7804 5.89493 11.7741 5.82812 11.7695C5.72012 11.7622 5.57526 11.7617 5.33203 11.7617C5.0888 11.7617 4.94394 11.7622 4.83594 11.7695ZM18.8359 9.76953C18.7691 9.77409 18.7408 9.78036 18.7334 9.78223C18.6746 9.8075 18.6278 9.85427 18.6025 9.91309C18.6007 9.92045 18.5944 9.94881 18.5898 10.0156C18.5825 10.1236 18.582 10.2685 18.582 10.5117V19.5117C18.582 19.7549 18.5825 19.8998 18.5898 20.0078C18.5944 20.0746 18.6007 20.103 18.6025 20.1104C18.6278 20.1692 18.6746 20.2159 18.7334 20.2412C18.7408 20.2431 18.7691 20.2493 18.8359 20.2539C18.9439 20.2613 19.0888 20.2617 19.332 20.2617C19.5753 20.2617 19.7201 20.2613 19.8281 20.2539C19.8949 20.2493 19.9233 20.2431 19.9307 20.2412C19.9895 20.2159 20.0362 20.1692 20.0615 20.1104C20.0634 20.103 20.0697 20.0746 20.0742 20.0078C20.0816 19.8998 20.082 19.7549 20.082 19.5117V10.5117C20.082 10.2685 20.0816 10.1236 20.0742 10.0156C20.0697 9.9488 20.0634 9.92045 20.0615 9.91309C20.0362 9.85427 19.9895 9.8075 19.9307 9.78223C19.9233 9.78036 19.8949 9.77409 19.8281 9.76953C19.7201 9.76216 19.5753 9.76172 19.332 9.76172C19.0888 9.76172 18.9439 9.76216 18.8359 9.76953ZM11.8359 13.7695C11.7691 13.7741 11.7408 13.7804 11.7334 13.7822C11.6746 13.8075 11.6278 13.8543 11.6025 13.9131C11.6007 13.9204 11.5944 13.9488 11.5898 14.0156C11.5825 14.1236 11.582 14.2685 11.582 14.5117V19.5107C11.582 19.754 11.5825 19.8998 11.5898 20.0078C11.5944 20.0743 11.6007 20.103 11.6025 20.1104C11.6279 20.169 11.6747 20.216 11.7334 20.2412C11.7409 20.2431 11.7695 20.2494 11.8359 20.2539C11.9439 20.2613 12.0888 20.2607 12.332 20.2607C12.5752 20.2607 12.7201 20.2613 12.8281 20.2539C12.8946 20.2494 12.9231 20.2431 12.9307 20.2412C12.9893 20.216 13.0362 20.169 13.0615 20.1104C13.0634 20.103 13.0697 20.0743 13.0742 20.0078C13.0816 19.8998 13.082 19.754 13.082 19.5107V14.5117C13.082 14.2685 13.0816 14.1236 13.0742 14.0156C13.0697 13.9488 13.0634 13.9204 13.0615 13.9131C13.0362 13.8543 12.9895 13.8075 12.9307 13.7822C12.9233 13.7804 12.8949 13.7741 12.8281 13.7695C12.7201 13.7622 12.5753 13.7617 12.332 13.7617C12.0888 13.7617 11.9439 13.7622 11.8359 13.7695Z" fill="#008ece"/>
<path d="M19.3597 2.6875L19.4398 2.69141C19.6263 2.71146 19.7994 2.80156 19.9241 2.94434C20.0665 3.10732 20.1319 3.32366 20.1028 3.53809L19.7991 5.77539L19.7845 5.85059C19.6956 6.22025 19.3392 6.47022 18.9544 6.41797C18.5442 6.36205 18.2571 5.98356 18.3128 5.57324L18.3528 5.27344L13.7874 9.14551C13.0813 9.7442 12.1209 9.94767 11.2327 9.68652L4.67901 7.75781L4.60675 7.73242C4.25494 7.58883 4.06181 7.19955 4.1712 6.82715C4.28078 6.45474 4.65412 6.23109 5.02765 6.30078L5.10284 6.31934L11.6556 8.24707C12.0593 8.36587 12.4957 8.27316 12.8167 8.00098L17.3148 4.1875H16.7669C16.3528 4.18733 16.0169 3.85161 16.0169 3.4375C16.0169 3.02339 16.3528 2.68767 16.7669 2.6875H19.3597Z" fill="#008ece"/>
</svg>
