<svg width="18" height="18" viewBox="0 0 18 18" fill="none" xmlns="http://www.w3.org/2000/svg">
<g id="elements">
<g id="Icon">
<path d="M12.7939 6.92229C13.0271 6.66784 13.0099 6.27249 12.7555 6.03924C12.501 5.806 12.1057 5.82319 11.8724 6.07764L7.73021 10.5964L6.10845 8.97469C5.86437 8.73061 5.46864 8.73061 5.22456 8.97469C4.98048 9.21877 4.98048 9.61449 5.22456 9.85857L7.3079 11.9419C7.42844 12.0624 7.59298 12.1285 7.76341 12.1248C7.93385 12.1211 8.09537 12.048 8.21056 11.9223L12.7939 6.92229Z" fill="#00587c"/>
<path fill-rule="evenodd" clip-rule="evenodd" d="M8.99984 17.9583C4.05229 17.9583 0.0415039 13.9475 0.0415039 8.99996C0.0415039 4.05241 4.05229 0.041626 8.99984 0.041626C13.9474 0.041626 17.9582 4.05241 17.9582 8.99996C17.9582 13.9475 13.9474 17.9583 8.99984 17.9583ZM1.2915 8.99996C1.2915 13.2572 4.74264 16.7083 8.99984 16.7083C13.257 16.7083 16.7082 13.2572 16.7082 8.99996C16.7082 4.74276 13.257 1.29163 8.99984 1.29163C4.74264 1.29163 1.2915 4.74276 1.2915 8.99996Z" fill="#00587c"/>
</g>
</g>
</svg>
