<svg width="14" height="16" viewBox="0 0 14 16" fill="none" xmlns="http://www.w3.org/2000/svg">
<g id="elements">
<g id="Icon">
<path d="M2.34842 11.1691C2.62443 11.1607 2.84144 10.9302 2.83311 10.6542C2.82478 10.3782 2.59427 10.1612 2.31826 10.1695C1.80785 10.1849 1.30667 10.2354 0.939088 10.6035C0.684385 10.8586 0.585099 11.173 0.541061 11.501C0.499957 11.8072 0.499978 12.1895 0.500001 12.6335V12.6993C0.499978 13.1432 0.499957 13.5256 0.541061 13.8318C0.585099 14.1598 0.684385 14.4742 0.939088 14.7293C1.19389 14.9844 1.50812 15.084 1.83601 15.1281C2.14189 15.1693 2.52384 15.1693 2.96705 15.1693L11.033 15.1693C11.4762 15.1693 11.8581 15.1693 12.164 15.1281C12.4919 15.084 12.8061 14.9844 13.0609 14.7293C13.3156 14.4742 13.4149 14.1598 13.4589 13.8318C13.5001 13.5256 13.5 13.1432 13.5 12.6993V12.6335C13.5 12.1895 13.5001 11.8072 13.4589 11.501C13.4149 11.173 13.3156 10.8586 13.0609 10.6035C12.6933 10.2354 12.1922 10.1849 11.6817 10.1695C11.4057 10.1612 11.1752 10.3782 11.1669 10.6542C11.1586 10.9302 11.3756 11.1607 11.6516 11.1691C12.1768 11.1849 12.2934 11.2501 12.3533 11.3101C12.3915 11.3484 12.4387 11.4167 12.4678 11.6341C12.4989 11.8658 12.5 12.1802 12.5 12.6664C12.5 13.1526 12.4989 13.467 12.4678 13.6987C12.4387 13.9161 12.3915 13.9844 12.3533 14.0227C12.3152 14.0608 12.2473 14.1079 12.0306 14.1371C11.7994 14.1682 11.4856 14.1693 11 14.1693L3 14.1693C2.51444 14.1693 2.20065 14.1682 1.96945 14.1371C1.75271 14.1079 1.6848 14.0608 1.64671 14.0227C1.60852 13.9844 1.56135 13.9161 1.53217 13.6987C1.50106 13.467 1.5 13.1526 1.5 12.6664C1.5 12.1802 1.50106 11.8658 1.53217 11.6341C1.56135 11.4167 1.60852 11.3484 1.64671 11.3101C1.70665 11.2501 1.82319 11.1849 2.34842 11.1691Z" fill="#007960"/>
<path fill-rule="evenodd" clip-rule="evenodd" d="M3.66667 12.1693C3.39053 12.1693 3.16667 12.3931 3.16667 12.6693C3.16667 12.9454 3.39053 13.1693 3.66667 13.1693L10.3333 13.1693C10.6095 13.1693 10.8333 12.9454 10.8333 12.6693C10.8333 12.3931 10.6095 12.1693 10.3333 12.1693H9.55059C9.73145 11.8027 9.83333 11.3908 9.83333 10.955C9.83333 9.40681 8.55504 8.16928 7 8.16928C5.44496 8.16928 4.16667 9.40681 4.16667 10.955C4.16667 11.3908 4.26855 11.8027 4.44941 12.1693L3.66667 12.1693ZM5.16667 10.955C5.16667 11.4224 5.35072 11.8492 5.65579 12.1693H8.34421C8.64928 11.8492 8.83333 11.4224 8.83333 10.955C8.83333 9.97844 8.02229 9.16928 7 9.16928C5.97771 9.16928 5.16667 9.97844 5.16667 10.955Z" fill="#007960"/>
<path d="M12.3332 7.16928C12.6093 7.16928 12.8332 6.94542 12.8332 6.66928C12.8332 6.39313 12.6093 6.16928 12.3332 6.16928H10.7367C10.6155 6.16928 10.4966 6.14194 10.3895 6.09015L9.02821 5.43148C8.78447 5.31355 8.51656 5.25252 8.24554 5.25252H7.55045C7.26611 5.25252 7.03242 5.10044 6.91504 4.88808L8.20453 4.53156C8.39193 4.47975 8.59251 4.49807 8.76543 4.58174L10.2207 5.28586C10.4693 5.40613 10.7683 5.30212 10.8886 5.05354C11.0088 4.80497 10.9048 4.50596 10.6562 4.38569L9.20097 3.68157C8.80856 3.49171 8.35839 3.4515 7.93805 3.56772L6.2441 4.03606C6.01071 4.10059 5.8332 4.31385 5.8332 4.57461C5.8332 4.59412 5.83354 4.61353 5.83421 4.63285L3.12451 5.46538L3.12262 5.46596C2.79099 5.56929 2.42506 5.45009 2.20716 5.14835C2.12981 5.04125 2.16988 4.89394 2.26411 4.83958L7.2745 1.94867C7.47519 1.83288 7.70945 1.8055 7.92753 1.87021L12.191 3.13532C12.4557 3.21387 12.734 3.06295 12.8125 2.79821C12.8911 2.53348 12.7402 2.25519 12.4754 2.17664L8.212 0.91153C7.72903 0.768217 7.21139 0.830568 6.77474 1.08251L1.76435 3.97341C1.14223 4.33236 0.982113 5.16005 1.39645 5.7338C1.85837 6.37346 2.66541 6.65536 3.41908 6.42101L3.42009 6.4207L6.17145 5.57537C6.48708 5.98896 6.9922 6.25252 7.55045 6.25252H8.24554C8.36671 6.25252 8.48562 6.27986 8.59267 6.33165L9.95399 6.99032C10.1977 7.10825 10.4656 7.16928 10.7367 7.16928H12.3332Z" fill="#007960"/>
</g>
</g>
</svg>
