<svg width="25" height="19" viewBox="0 0 25 19" fill="none" xmlns="http://www.w3.org/2000/svg">
<path d="M17.9379 1.02837C18.1991 0.706943 18.6711 0.657925 18.9926 0.918999C19.314 1.18016 19.363 1.65221 19.102 1.97369L17.8022 3.57427C17.6432 3.76993 17.3958 3.8728 17.145 3.84771C16.4052 3.77383 15.6556 4.0626 15.1118 4.76177C15.1043 4.77135 15.0962 4.78089 15.0883 4.79009L10.2016 10.4737C10.1343 10.5605 10.107 10.6736 10.1176 10.7842L12.1508 8.41314C12.4204 8.09868 12.894 8.06156 13.2084 8.33111C13.5228 8.60059 13.5588 9.07423 13.2895 9.38873L10.3012 12.8741C10.1725 13.0405 10.1917 13.3015 10.3422 13.461L10.5727 13.6631L13.8491 9.81451L13.9018 9.75884C14.1761 9.4961 14.6101 9.47827 14.9057 9.72955C15.2211 9.998 15.2591 10.4717 14.9907 10.7872L11.0053 15.4698L10.9457 15.5596C10.8967 15.649 10.8783 15.7362 10.8813 15.8057C10.8849 15.8891 10.917 15.9583 10.9887 16.0157C11.1075 16.1106 11.2319 16.1437 11.3246 16.1397C11.4081 16.1361 11.4772 16.104 11.5346 16.0323L11.5493 16.0147L15.5493 11.3145C15.8177 10.9996 16.2906 10.9614 16.6059 11.2295C16.9213 11.498 16.9593 11.9717 16.6909 12.2872L13.7182 15.7794L13.8881 15.9151C14.0071 16.0103 14.1322 16.0432 14.225 16.0391C14.3083 16.0355 14.3767 16.0042 14.434 15.9327L14.4526 15.9102L18.9526 10.71C19.2236 10.3968 19.698 10.3628 20.0112 10.6338C20.3241 10.9048 20.358 11.3783 20.0873 11.6915L19.4701 12.4044V13.9014C19.4702 14.5678 19.7156 14.7715 19.7983 14.8047L19.9672 14.8721L21.6869 7.04009C21.7119 6.92643 21.7632 6.82007 21.8364 6.72955L22.7973 5.54107L22.8481 5.48345C23.1156 5.21324 23.5499 5.18466 23.852 5.42876C24.1741 5.68907 24.2245 6.16128 23.9643 6.48345L23.1147 7.53326L21.353 15.5616C21.3473 15.5872 21.3398 15.6128 21.3315 15.6377C21.1063 16.3133 20.3725 16.6697 19.7416 16.3956V16.3975L19.2416 16.1973C18.3986 15.8601 18.031 14.9915 17.977 14.129L15.5873 16.8917L15.5864 16.8907C14.8685 17.7622 13.6922 17.6792 12.9516 17.087L12.7455 16.9219L12.6909 16.9874L12.6899 16.9864C11.9723 17.8625 10.793 17.78 10.0512 17.1866C9.51267 16.7556 9.32889 16.1528 9.39691 15.5782C9.38343 15.5893 9.37032 15.6011 9.35589 15.6114L9.04632 15.8165C8.42283 16.1973 7.80333 16.389 7.20843 16.4971L6.08636 17.792C5.81513 18.1049 5.34174 18.1393 5.02874 17.8682C4.71573 17.5969 4.68227 17.1226 4.95355 16.8096L6.25335 15.3096L6.35003 15.2169C6.45434 15.1329 6.58015 15.0778 6.71429 15.0586C7.33693 14.9697 7.91113 14.7997 8.48382 14.3907C8.66061 14.2644 8.87348 14.2271 9.07074 14.2676C8.63366 13.6343 8.56033 12.7254 9.07855 12.0098C8.53107 11.3558 8.41026 10.3127 9.0346 9.53228L9.0512 9.51177L13.9496 3.81451C13.5587 3.94044 13.1384 3.72846 13.0082 3.33794C12.8988 3.00964 12.8612 2.96294 12.8041 2.92486C12.7819 2.91005 12.7602 2.89409 12.7397 2.87701C12.4794 2.66025 12.149 2.67783 11.8959 2.9815C11.8815 2.99881 11.866 3.01536 11.85 3.0313L11.5502 3.33111C11.4096 3.47176 11.2189 3.55083 11.02 3.55083C10.821 3.55083 10.6303 3.47176 10.4897 3.33111L10.225 3.06646C9.88889 2.79514 9.58094 2.8591 9.39593 3.08111C9.39143 3.08651 9.38692 3.09243 9.38226 3.09771L8.1137 4.53326C8.31111 5.14899 8.21712 5.85756 7.84417 6.41705C7.84069 6.42227 7.83705 6.42753 7.83343 6.43267L6.29339 8.61919C7.3468 9.89003 7.41922 11.6956 6.55902 13.0938L6.51507 13.1573C6.28415 13.4592 5.85751 13.5434 5.52679 13.3399C5.17402 13.1228 5.06459 12.6604 5.28167 12.3077L5.38812 12.1163C5.87752 11.1421 5.67509 9.97338 4.84027 9.2774C4.54031 9.02743 4.48187 8.58895 4.70648 8.26958L6.59613 5.58306C6.80909 5.26209 6.70655 4.91156 6.5512 4.78716C6.52964 4.76991 6.50922 4.75103 6.48968 4.7315L6.33831 4.58013L3.50628 7.86919C3.23803 8.23024 3.06976 8.55968 3.06976 8.90142C3.06975 8.92621 3.06832 8.95097 3.06585 8.97564L2.76605 11.9756C2.75098 12.1264 2.69088 12.2691 2.5932 12.3848L1.59222 13.5704L1.53949 13.627C1.26629 13.8908 0.832198 13.9102 0.53558 13.6602C0.219069 13.393 0.178539 12.9191 0.445736 12.6026L1.29632 11.5938L1.57171 8.8438C1.59019 8.01884 2.00322 7.37331 2.31976 6.95123L2.35199 6.91119L5.4516 3.31158C5.46374 3.29747 5.47652 3.28372 5.48968 3.27056C5.6714 3.08888 5.95085 2.90148 6.31976 2.90142C6.68863 2.90142 6.96808 3.0889 7.14984 3.27056L7.19085 3.31158L8.25726 2.10455C9.00614 1.22226 10.1471 1.21038 10.9897 1.76958C11.7296 1.11491 12.8009 1.02804 13.6362 1.67681L13.7338 1.74712C14.199 2.10712 14.3463 2.61001 14.4311 2.86431C14.4784 3.00645 14.4796 3.15214 14.4448 3.28716C15.1396 2.66968 15.9936 2.34795 16.8735 2.33697L17.9379 1.02837Z" fill="#008ece"/>
</svg>
