<svg width="20" height="22" viewBox="0 0 20 22" fill="none" xmlns="http://www.w3.org/2000/svg">
<g id="Group 14151">
<g id="Group 14029">
<path id="Path 14968" d="M11.884 20.6678C11.1104 20.5278 10.8948 20.3086 10.8186 19.5342C10.7351 18.7591 10.6933 17.98 10.6931 17.2004C10.7038 15.901 10.7124 14.5981 10.8295 13.3065C10.8365 12.9011 10.9343 12.5027 11.1155 12.14C11.2968 11.7773 11.557 11.4595 11.877 11.2105C12.197 10.9616 12.5687 10.7874 12.9648 10.7009C13.3609 10.6144 13.7714 10.6179 14.1661 10.7107C14.819 10.8055 15.454 11.0223 16.0976 11.1825C16.1615 11.1983 16.2269 11.2061 16.2915 11.2168C16.2512 11.1599 16.2028 11.1091 16.1479 11.066C15.6015 10.7003 14.9832 10.4556 14.3346 10.3481C13.686 10.2405 13.0219 10.2729 12.3868 10.4428C12.3029 10.4558 12.2179 10.4602 12.1332 10.4557C12.1464 10.3735 12.1688 10.2931 12.2 10.2158C12.5355 9.57928 13.0693 9.06906 13.7206 8.76309C14.4241 8.44086 15.177 8.24004 15.9475 8.16859C16.0072 8.15518 16.065 8.13401 16.1192 8.10545C16.0733 8.07332 16.0251 8.04422 15.9754 8.01847C15.9292 8.00119 15.8809 7.99081 15.8317 7.98761C15.3957 7.94307 14.959 7.89617 14.5215 7.86169C14.2981 7.84373 14.2026 7.80202 14.2062 7.51972C14.1946 6.99313 14.1526 6.46772 14.0805 5.94596C14.0606 5.88023 14.0291 5.81871 13.9872 5.76428C13.9635 5.82386 13.947 5.88595 13.9383 5.94947C13.9332 6.25331 13.9383 6.55651 13.9383 6.85963C13.9425 7.08021 13.9006 7.2995 13.8152 7.50289C13.7297 7.70627 13.6026 7.88928 13.442 8.04057C12.9715 8.49526 12.5139 8.96518 12.0492 9.42633C11.7719 9.70288 11.4917 9.97582 11.213 10.2502C11.1118 10.3508 11.0205 10.3937 10.9609 10.2106C10.9368 10.1549 10.9078 10.1018 10.874 10.0513C10.8195 10.0892 10.7682 10.1316 10.721 10.1783C10.6886 10.2263 10.6605 10.277 10.6369 10.3298C10.6046 10.3837 10.5702 10.4369 10.5372 10.4908C10.5109 10.4278 10.4941 10.3613 10.4875 10.2934C10.4923 9.84637 10.5296 9.40039 10.5989 8.9588C10.8345 7.87199 11.0299 6.75349 12.0441 6.04452C12.0714 6.02441 12.0823 5.98353 12.1009 5.95192C12.0599 5.93143 12.0174 5.91373 11.9738 5.89931C11.7992 5.85909 11.5765 5.87654 11.458 5.77094C11.2483 5.58777 11.2374 5.72905 11.1706 5.87055C10.9101 6.4452 10.6444 7.01978 10.3734 7.59443C10.3372 7.64775 10.2928 7.69525 10.2418 7.73472C10.2095 7.67726 10.1536 7.6232 10.1478 7.56286C10.1155 7.26117 10.0975 6.95963 10.0759 6.65866C10.0314 6.08401 9.9891 5.50943 9.93811 4.93478C9.91991 4.85072 9.89085 4.76907 9.85182 4.69243C9.8117 4.76434 9.77791 4.83955 9.75064 4.91725C9.70323 5.08605 9.67227 5.26019 9.6263 5.42827C9.60679 5.46976 9.5797 5.50713 9.54651 5.53876C9.50866 5.51256 9.47543 5.48041 9.44812 5.44335C9.39878 5.3476 9.35521 5.24893 9.31747 5.14803C9.18349 4.80514 8.97386 4.49676 8.70439 4.24594C8.43491 3.99511 8.11251 3.80822 7.7609 3.69914C7.69757 3.6821 7.63291 3.67045 7.56765 3.66406C7.60582 3.72315 7.65 3.77807 7.6997 3.82786C8.40866 4.39031 8.94287 5.14299 9.23979 5.99787C9.25616 6.06195 9.2671 6.1273 9.27223 6.19323C9.2162 6.16522 9.15941 6.13628 9.10195 6.11186C8.77224 5.97466 8.44458 5.83457 8.11129 5.70886C8.06388 5.69091 7.9907 5.74347 7.9282 5.76358C7.96894 5.81017 8.01318 5.85374 8.06043 5.8937C8.44075 6.14858 8.80357 6.42863 9.14649 6.73196C9.31633 6.93784 9.42266 7.18857 9.45251 7.45378C9.52434 7.86609 9.52433 8.28993 9.55019 8.70942C9.63447 10.0053 9.7175 11.3018 9.79939 12.5991C9.79723 12.6552 9.78864 12.7109 9.77361 12.765C9.72045 12.735 9.67189 12.697 9.62981 12.6528C9.10713 11.9047 8.43601 11.2724 7.65813 10.7953C7.33554 10.5952 7.07225 10.3126 6.89546 9.97664C6.71866 9.64073 6.63485 9.26397 6.65257 8.88479C6.65257 8.5163 6.72431 8.14774 6.76095 7.77997C6.75828 7.72538 6.74883 7.67125 6.73289 7.61898C6.6862 7.64771 6.61657 7.66362 6.59645 7.70456C6.49146 7.87854 6.40702 8.06417 6.34497 8.25767C6.23131 8.78653 6.27017 9.33678 6.45703 9.84441C6.5734 10.2136 6.5419 10.2609 6.1533 10.1948C5.79616 10.1398 5.4435 10.059 5.0981 9.95279C4.78348 9.85294 4.48611 9.69853 4.17724 9.57785C4.11537 9.56304 4.05055 9.56641 3.99047 9.58732C3.97589 9.62844 3.97709 9.67336 3.99398 9.71358C4.18433 9.97074 4.00985 10.0728 3.8116 10.1748C3.73343 10.2155 3.65927 10.2634 3.59028 10.3183C3.56036 10.3528 3.53622 10.3919 3.51855 10.434C3.56573 10.4564 3.61616 10.4712 3.66797 10.4778C3.73546 10.4676 3.8016 10.4505 3.86543 10.4263C4.32115 10.2886 4.8009 10.2484 5.27312 10.3088C5.74534 10.3692 6.19936 10.5287 6.60575 10.7767C7.57365 11.4015 8.33701 12.2966 8.80101 13.3511C8.83493 13.4353 8.86127 13.5222 8.87993 13.611C8.79301 13.6052 8.70765 13.596 8.62073 13.5938C8.1008 13.5284 7.57488 13.5243 7.05399 13.5815C6.31334 13.7847 5.58617 14.0343 4.87679 14.3286C4.85739 14.3365 4.84514 14.4393 4.85592 14.4443C5.02759 14.5241 5.00969 14.6413 4.9436 14.7842C4.92564 14.8259 4.9602 14.8903 4.97026 14.9434C5.02554 14.9313 5.07875 14.9112 5.12826 14.8838C5.27193 14.7682 5.41117 14.6425 5.55915 14.5247C6.02975 14.1131 6.6433 13.9029 7.26741 13.9393C8.82974 14.0693 9.51851 14.7174 9.53072 16.103C9.49871 17.2672 9.22997 18.4128 8.74069 19.4697C8.58914 19.8477 8.34531 20.1818 8.03167 20.4416C7.71803 20.7014 7.34454 20.8786 6.94491 20.9572C6.72942 21.0132 6.50306 21.035 6.28254 21.081C6.21078 21.1028 6.14122 21.1312 6.07491 21.1662C6.13737 21.2212 6.20549 21.2695 6.27816 21.31C6.34316 21.3326 6.41292 21.3387 6.48088 21.3279C7.21859 21.2618 7.96052 21.2232 8.69176 21.1126C9.33233 20.9001 10.0169 20.8559 10.6794 20.9845C11.6432 21.2802 12.6502 21.4101 13.6575 21.3682C13.8334 21.3761 14.0096 21.3744 14.1854 21.3637C14.3655 21.3349 14.5442 21.2972 14.7206 21.2504C14.5563 21.1553 14.3812 21.0803 14.199 21.027C13.4297 20.8955 12.6526 20.8057 11.884 20.6678Z" fill="white"/>
<path id="Path 14969" d="M7.7185 14.7969C7.72512 14.7546 7.72686 14.7119 7.72359 14.6692C7.69342 14.6937 7.66397 14.7185 7.6338 14.7408C7.39532 14.9232 7.15756 15.1073 6.91549 15.2883C6.88119 15.3023 6.84482 15.3105 6.80781 15.3121C6.82388 15.2761 6.84412 15.2421 6.86814 15.2108C7.08363 14.9838 7.29905 14.7641 7.51455 14.5335C7.63091 14.4056 7.56344 14.3531 7.41546 14.3438C6.91062 14.3623 6.4235 14.5345 6.01935 14.8376C5.61521 15.1407 5.31338 15.5601 5.15426 16.0396C5.08243 16.3269 5.18942 16.4549 5.49973 16.452C5.9881 16.4138 6.45566 16.2381 6.84832 15.9452C7.24098 15.6523 7.54261 15.2541 7.7185 14.7969Z" fill="white"/>
<path id="Path 14970" d="M4.36058 4.90012C4.59157 4.97778 4.83116 5.0275 5.07398 5.04813C5.43537 5.08402 5.80024 5.03779 6.14145 4.91345C6.48267 4.7891 6.79139 4.58981 7.04495 4.32982C7.07524 4.29365 7.10138 4.25408 7.12264 4.21197C7.07811 4.21843 7.03213 4.22192 6.98831 4.23126C6.69524 4.29375 6.40211 4.36141 6.10761 4.42031C6.07025 4.42677 6.02648 4.39918 5.98625 4.38769C6.02073 4.37404 6.05811 4.36205 6.08972 4.34841C6.37704 4.2342 6.67068 4.12224 6.95657 4.00012C7.01044 3.97786 7.045 3.91003 7.08809 3.86334C7.04069 3.83245 6.99762 3.78153 6.94447 3.77004C6.62266 3.69462 6.29803 3.62652 5.97766 3.55469C5.64666 3.5649 5.32112 3.64197 5.02085 3.78161C4.72058 3.92126 4.45173 4.12046 4.23063 4.367C4.01299 4.60548 4.05386 4.79596 4.36058 4.90012Z" fill="white"/>
<path id="Path 14971" d="M7.54363 12.5742C7.60032 12.5732 7.65665 12.5635 7.7104 12.5454C7.69795 12.4828 7.67634 12.4223 7.64639 12.3658C7.35062 11.9805 6.9463 11.6924 6.48545 11.5388C6.0246 11.3852 5.52824 11.3733 5.06041 11.5041C4.67396 11.6262 4.61514 11.8163 4.89959 12.1137C5.15549 12.3931 5.46703 12.6162 5.81414 12.7681C6.16126 12.92 6.53621 12.9974 6.91511 12.9958C7.02932 12.9757 7.24059 12.9434 7.45033 12.9039C7.49553 12.8898 7.53854 12.8695 7.57818 12.8435C7.53723 12.8277 7.49691 12.8098 7.45524 12.7962C7.16792 12.7043 6.88069 12.6136 6.59839 12.5181C6.55673 12.5044 6.52651 12.4602 6.48843 12.4307C6.53302 12.4295 6.57766 12.4308 6.62207 12.4349C6.92878 12.4773 7.23619 12.5289 7.54363 12.5742Z" fill="white"/>
<path id="Path 14972" d="M4.52429 8.87405L4.68668 8.84669C4.62921 8.80431 4.57391 8.7596 4.51429 8.71937C4.30311 8.58146 4.08894 8.44816 3.88279 8.30234C3.83466 8.27002 3.81098 8.20219 3.77721 8.15047C3.8275 8.1749 3.87563 8.20011 3.92663 8.22238C4.19456 8.33874 4.46182 8.45942 4.73262 8.56645C4.79653 8.57788 4.86198 8.57788 4.92588 8.56645C4.92084 8.50205 4.90945 8.4382 4.89203 8.376C4.70164 7.93928 4.3893 7.56695 3.99239 7.30344C3.59548 7.03994 3.13088 6.89656 2.6545 6.89062C2.24363 6.89062 2.11425 7.09263 2.31394 7.45251C2.52212 7.86501 2.83688 8.21409 3.2255 8.46403C3.61413 8.71398 4.06259 8.85571 4.52429 8.87405Z" fill="white"/>
<path id="Path 14973" d="M8.64265 10.4448C8.7506 10.5601 8.86647 10.6675 8.98953 10.7665C9.02616 10.6092 9.0614 10.4514 9.10018 10.2933C9.1055 9.85402 8.99371 9.42131 8.77645 9.03944C8.5592 8.65758 8.24436 8.3404 7.86401 8.12051C7.5695 7.97038 7.41358 8.02641 7.34965 8.30009C7.28791 8.79155 7.36595 9.29039 7.57483 9.73952C7.7837 10.1886 8.11497 10.5696 8.53059 10.8391C8.5725 10.8534 8.61626 10.8616 8.66054 10.8629C8.64042 10.8213 8.61964 10.779 8.59881 10.7388C8.47669 10.4967 8.35021 10.2553 8.23456 10.0089C8.21042 9.93639 8.19589 9.86103 8.19142 9.78476C8.23452 9.84223 8.27974 9.89734 8.31997 9.95767C8.427 10.12 8.52053 10.294 8.64265 10.4448Z" fill="white"/>
<path id="Path 14974" d="M11.2191 8.89169C11.2391 8.94312 11.2662 8.99127 11.2996 9.03514C11.3397 8.99487 11.3735 8.94892 11.4001 8.89871C11.5107 8.56756 11.6157 8.23135 11.7242 7.89805C11.739 7.86527 11.7572 7.83426 11.7787 7.80546C11.7943 7.83591 11.8039 7.86925 11.8068 7.90331C11.7536 8.26678 11.6968 8.62961 11.6407 8.99235C11.6328 9.04623 11.625 9.10052 11.6157 9.15439C11.6688 9.14092 11.7198 9.12017 11.7672 9.09266C12.0653 8.86963 12.3102 8.58324 12.4841 8.25405C12.658 7.92486 12.7567 7.56116 12.7729 7.18921C12.7629 7.03765 12.7606 6.91977 12.7463 6.8034C12.7339 6.69624 12.7138 6.5902 12.6859 6.48598C12.5947 6.16346 12.4195 6.10401 12.1458 6.29939C11.7697 6.60602 11.4847 7.00939 11.3214 7.46629C11.1581 7.92319 11.1227 8.41617 11.2191 8.89169Z" fill="white"/>
<path id="Path 14975" d="M16.3179 6.29047C16.3561 6.26996 16.3953 6.25161 16.4356 6.23575C16.4184 6.27741 16.4127 6.33367 16.3811 6.36097C16.1282 6.5858 15.8712 6.80543 15.614 7.02667C15.5594 7.07336 15.5019 7.11576 15.4458 7.1603C15.5163 7.1895 15.5906 7.20889 15.6664 7.21782C16.123 7.23828 16.576 7.13059 16.9745 6.90706C17.3731 6.68354 17.7013 6.35291 17.9219 5.95271C18.1603 5.51741 18.0547 5.33952 17.4312 5.34383C17.0065 5.36878 16.5946 5.49789 16.2318 5.72017C15.8691 5.94245 15.5667 6.25098 15.3517 6.61806C15.3141 6.69349 15.2834 6.7722 15.2598 6.85305C15.3417 6.84675 15.4221 6.82776 15.4983 6.79693C15.7777 6.63459 16.0486 6.45927 16.3179 6.29047Z" fill="white"/>
<path id="Path 14976" d="M10.5173 4.9116C10.5397 4.95389 10.5651 4.99442 10.5934 5.03296C10.625 4.99202 10.6754 4.95549 10.6848 4.9088C10.7566 4.58628 10.8169 4.26228 10.8822 3.93761C10.8966 3.86577 10.9138 3.79963 10.9289 3.73067C10.9584 3.78868 10.9785 3.85122 10.9885 3.91551C10.9792 4.25312 10.9605 4.58911 10.944 4.92528C10.944 4.98275 10.9362 5.03722 10.9319 5.09469C10.9906 5.07067 11.0459 5.03914 11.0964 5.00069C11.5795 4.50894 11.8612 3.8542 11.8864 3.16528C11.8276 2.87872 11.7543 2.59559 11.6667 2.3165C11.5604 2.01337 11.3793 1.98877 11.1314 2.20426C10.7928 2.55717 10.5568 2.99589 10.4486 3.47288C10.3404 3.94986 10.3641 4.44712 10.5173 4.9116Z" fill="white"/>
<path id="Path 14977" d="M12.0739 13.0244C12.0423 13.0582 12.01 13.092 11.9769 13.1244C12.0237 13.1476 12.0744 13.1622 12.1263 13.1675C12.6123 13.153 13.0828 12.9937 13.4777 12.7101C13.8726 12.4266 14.1739 12.0313 14.343 11.5755C14.4608 11.2386 14.3568 11.0973 13.8963 11.1017C13.7685 11.1354 13.5371 11.1792 13.3217 11.2532C12.9864 11.3618 12.6778 11.5399 12.4162 11.7761C12.1547 12.0123 11.946 12.301 11.8038 12.6235C11.7773 12.7018 11.7593 12.7827 11.75 12.8648C11.8309 12.8427 11.9088 12.811 11.982 12.7701C12.2399 12.5783 12.4899 12.3773 12.7435 12.1812C12.7851 12.1482 12.8303 12.1195 12.8748 12.0893C12.8623 12.1444 12.8404 12.1967 12.8101 12.2444C12.5666 12.508 12.3196 12.7658 12.0739 13.0244Z" fill="white"/>
<path id="Path 14978" d="M19.0871 9.74547C18.6255 9.62841 18.1409 9.63775 17.6841 9.77248C17.2274 9.90721 16.8153 10.1623 16.4911 10.5111C16.4558 10.5642 16.4267 10.6213 16.4043 10.6809C16.4707 10.6895 16.538 10.6875 16.6039 10.6756C16.9192 10.5751 17.2324 10.4673 17.5463 10.3617C17.5894 10.3474 17.634 10.3437 17.6778 10.3323C17.6498 10.3718 17.6305 10.4237 17.5931 10.4431C17.2957 10.6054 16.9948 10.7617 16.6952 10.9183C16.6291 10.9535 16.5623 10.9839 16.4962 11.0162C16.5527 11.0525 16.6135 11.0818 16.6772 11.1032C16.897 11.1441 17.119 11.175 17.3402 11.2066C17.71 11.2197 18.0776 11.1446 18.4126 10.9874C18.7476 10.8303 19.0403 10.5955 19.2667 10.3028C19.4908 10.0291 19.4261 9.84963 19.0871 9.74547Z" fill="white"/>
<path id="Path 14979" d="M15.9314 11.625C15.9023 11.6939 15.8824 11.7666 15.8724 11.8407C15.876 12.0562 15.8955 12.2717 15.907 12.4836C15.907 12.531 15.907 12.5796 15.907 12.6271C15.8725 12.5854 15.8172 12.5468 15.8079 12.5008C15.7591 12.2645 15.7232 12.0245 15.6801 11.7867C15.6675 11.7361 15.6513 11.6864 15.6318 11.638C15.5959 11.6677 15.5626 11.7006 15.5321 11.7358C15.317 12.0758 15.2078 12.4718 15.2185 12.874C15.2292 13.2761 15.3594 13.6662 15.5924 13.9942C15.7806 14.232 15.9558 14.2375 16.0787 13.9588C16.2206 13.5908 16.3428 13.2156 16.445 12.8347C16.3215 12.4712 16.2087 12.1237 16.0859 11.7804C16.055 11.7208 15.9809 11.6774 15.9314 11.625Z" fill="white"/>
<path id="Path 14980" d="M7.2654 3.17108C7.2797 3.13644 7.28896 3.09999 7.29276 3.0627C7.27767 2.80052 7.25837 2.53888 7.24401 2.2767C7.2464 2.23529 7.25348 2.19437 7.2654 2.15464C7.28839 2.18338 7.32573 2.20997 7.33292 2.24373C7.39469 2.49729 7.45084 2.75227 7.50758 3.00799C7.51764 3.05324 7.52559 3.09986 7.53564 3.14583C7.57587 3.11063 7.63823 3.08335 7.65332 3.04026C7.77543 2.68469 7.88823 2.32686 8.00388 1.9677C7.94832 1.52807 7.77458 1.11193 7.5011 0.763267C7.35743 0.583689 7.20939 0.59092 7.07004 0.776244C6.86969 1.13448 6.7717 1.54068 6.78664 1.95086C6.80159 2.36105 6.92902 2.75928 7.15492 3.10199C7.18835 3.13008 7.22545 3.15344 7.2654 3.17108Z" fill="white"/>
<path id="Path 14981" d="M14.3027 5.5405C14.3253 5.5 14.3427 5.45666 14.3544 5.41178C14.3918 5.15247 14.4262 4.8918 14.4593 4.63034C14.4643 4.59299 14.4672 4.5541 14.4715 4.5146C14.4981 4.55195 14.5433 4.58664 14.5477 4.62543C14.5584 4.89695 14.5584 5.16906 14.5648 5.43914C14.5682 5.48423 14.5741 5.52909 14.5827 5.57347C14.6228 5.5536 14.6606 5.52945 14.6955 5.50157C14.9601 5.20506 15.1331 4.83828 15.1935 4.4455C15.254 4.05272 15.1993 3.6511 15.0361 3.28877C14.8831 2.97558 14.7121 2.9545 14.4973 3.23966C14.198 3.6376 14.0198 4.11365 13.9844 4.61035C14.0562 4.88259 14.1203 5.15539 14.1957 5.42476C14.2086 5.46858 14.266 5.50028 14.3027 5.5405Z" fill="white"/>
<path id="Path 14982" d="M3.07469 13.369C2.87212 13.5558 2.89796 13.6932 3.13572 13.8239C3.50278 13.9877 3.90736 14.049 4.30648 14.0014C4.7056 13.9539 5.0844 13.7993 5.40271 13.5539C5.43381 13.5189 5.46188 13.4813 5.48671 13.4416C5.43715 13.4258 5.38327 13.3892 5.3373 13.3964C5.06721 13.4323 4.79786 13.482 4.5285 13.5258C4.49043 13.5323 4.45664 13.5372 4.41714 13.5444C4.44515 13.5135 4.46666 13.4668 4.50114 13.4539C4.75686 13.3641 5.01541 13.2823 5.27329 13.1982C5.32788 13.1795 5.38247 13.1621 5.43778 13.1456C5.3875 13.1054 5.34373 13.0453 5.28626 13.0288C4.99894 12.9476 4.70525 12.878 4.41433 12.8047C3.91375 12.8227 3.43713 13.0233 3.07469 13.369Z" fill="white"/>
<path id="Path 14983" d="M2.20113 9.98138C2.45613 9.92463 2.712 9.87031 2.96556 9.80566C3.01154 9.79417 3.0474 9.74293 3.08762 9.71061C3.05132 9.67987 3.01007 9.65586 2.96556 9.63906C2.69692 9.59453 2.42683 9.55862 2.15746 9.51911L2.04242 9.50227C2.08121 9.48001 2.11936 9.43431 2.15887 9.43072C2.43111 9.42282 2.7033 9.42409 2.97626 9.42266C3.02942 9.42266 3.0818 9.42683 3.13567 9.42827C3.11196 9.37708 3.08245 9.32907 3.04746 9.28482C2.75557 9.01481 2.39108 8.836 1.99893 8.77028C1.60678 8.70456 1.20406 8.7547 0.840094 8.91479C0.55277 9.05845 0.520375 9.21518 0.768193 9.41775C1.17221 9.75591 1.675 9.95355 2.20113 9.98138Z" fill="white"/>
<path id="Path 14984" d="M2.64321 12.7979C3.0177 12.6639 3.35065 12.4342 3.60897 12.1318C3.86729 11.8294 4.04185 11.4648 4.11561 11.074C4.11293 11.0201 4.10365 10.9667 4.08772 10.9151C4.03691 10.9382 3.99002 10.9695 3.94901 11.0074C3.78092 11.2106 3.61931 11.4189 3.45482 11.6236C3.43006 11.649 3.404 11.673 3.3766 11.6955C3.3766 11.6582 3.36868 11.6127 3.3852 11.5833C3.52886 11.3311 3.67601 11.0805 3.82327 10.832L3.88079 10.7334C3.83947 10.7268 3.7975 10.725 3.75575 10.7278C3.36367 10.839 3.01354 11.0644 2.75001 11.3753C2.48648 11.6861 2.32162 12.0685 2.27616 12.4734C2.26467 12.7665 2.38103 12.8697 2.64321 12.7979Z" fill="white"/>
<path id="Path 14985" d="M12.5536 16.0849C12.8545 16.3234 13.0485 16.2529 13.0923 15.8787C13.1424 15.5744 13.1263 15.2628 13.0451 14.9653C12.9639 14.6678 12.8195 14.3914 12.6218 14.1548C12.4826 14.018 12.3322 13.893 12.1721 13.7812C12.2188 13.9687 12.259 14.1547 12.3158 14.3386C12.3589 14.4822 12.4206 14.6218 12.4745 14.764C12.361 14.6347 12.2462 14.5061 12.1341 14.3747C12.1184 14.35 12.1052 14.3238 12.0946 14.2965C12.0264 14.1614 11.9589 14.0257 11.8914 13.8914C11.8583 14.0595 11.8245 14.2281 11.7914 14.394C11.7902 14.4136 11.7902 14.4333 11.7914 14.4529C11.7759 14.7664 11.8373 15.079 11.9701 15.3634C12.103 15.6479 12.3032 15.8955 12.5536 16.0849Z" fill="white"/>
<path id="Path 14986" d="M5.55342 6.96852C5.79765 7.06262 6.03966 7.16189 6.28173 7.26173C6.34207 7.28616 6.39958 7.31546 6.4592 7.34275C6.4543 7.26902 6.43861 7.19655 6.41255 7.1274C6.25882 6.79748 6.01767 6.51594 5.71529 6.31334C5.4129 6.11074 5.0607 5.99473 4.6971 5.97803C4.27473 5.96223 4.15918 6.07238 4.2813 6.37191C4.45594 6.73448 4.72492 7.04324 5.06011 7.26594C5.3953 7.48865 5.78424 7.61688 6.18615 7.63737C6.23013 7.63083 6.27354 7.62029 6.31558 7.60581C6.29115 7.5663 6.27672 7.51445 6.24367 7.49147C6.00591 7.33847 5.76456 7.19125 5.52536 7.04112C5.49232 7.02173 5.46367 6.99675 5.43207 6.97448C5.47157 6.97448 5.51894 6.95487 5.55342 6.96852Z" fill="white"/>
<path id="Path 14987" d="M6.00616 3.25466C6.03922 3.26325 6.07337 3.26707 6.10752 3.26659C6.08957 3.23498 6.0729 3.20139 6.05351 3.16978C5.95438 3.01391 5.85321 2.86026 5.75696 2.70295C5.74433 2.6693 5.73682 2.63396 5.73469 2.59808C5.76246 2.6204 5.78875 2.6441 5.81361 2.66963C5.96445 2.83412 6.11031 3.00511 6.26834 3.16242C6.29155 3.18337 6.31945 3.19838 6.34971 3.20626C6.37997 3.21414 6.41165 3.21463 6.44213 3.20766C6.46432 3.18389 6.48141 3.15589 6.49228 3.12524C6.50316 3.09459 6.50768 3.06228 6.50543 3.02984C6.48375 2.73588 6.37796 2.45418 6.20082 2.21858C6.02368 1.98299 5.78257 1.80335 5.50618 1.70089C5.24041 1.61829 5.109 1.71212 5.11546 1.98148C5.15887 2.2469 5.2615 2.49944 5.41569 2.71979C5.56989 2.94013 5.77167 3.12296 6.00616 3.25466Z" fill="white"/>
<path id="Path 14988" d="M7.27565 6.23438C6.96175 6.23438 6.85191 6.37776 6.99629 6.66508C7.11688 6.90117 7.2911 7.10583 7.50504 7.26239C7.71898 7.41894 7.96657 7.52331 8.22808 7.56683C8.26107 7.56793 8.29397 7.56282 8.32506 7.55175C8.29777 7.52589 8.27262 7.49478 8.24316 7.47108C8.0995 7.35471 7.95595 7.24131 7.81228 7.12279C7.78891 7.09539 7.7707 7.06407 7.75844 7.0302C7.79198 7.04082 7.82463 7.05381 7.85613 7.06948C8.05151 7.17795 8.24461 7.29372 8.44501 7.39356C8.47508 7.404 8.50723 7.40747 8.53884 7.40373C8.57044 7.4 8.60077 7.38932 8.62757 7.37217C8.65415 7.35493 8.64625 7.26078 8.62757 7.20978C8.51554 6.93735 8.32964 6.70171 8.09077 6.52935C7.8519 6.35698 7.56951 6.25482 7.27565 6.23438Z" fill="white"/>
<path id="Path 14989" d="M12.2786 5.19825C12.3073 5.16377 12.3504 5.13499 12.3626 5.09548C12.4201 4.91015 12.4675 4.72071 12.5199 4.53395C12.5291 4.50933 12.5399 4.48527 12.5522 4.46205C12.5636 4.48678 12.5709 4.51316 12.5737 4.54026C12.5572 4.73277 12.5371 4.92514 12.5213 5.11477C12.5198 5.16844 12.5213 5.22225 12.5257 5.27576C12.5678 5.25685 12.6074 5.23265 12.6435 5.20386C12.8122 5.04645 12.9473 4.85679 13.0408 4.64583C13.1342 4.43488 13.184 4.20698 13.1872 3.97627C13.166 3.82288 13.136 3.67098 13.0974 3.52102C13.0306 3.29906 12.8876 3.28952 12.7174 3.42456C12.4964 3.63325 12.3335 3.89608 12.2446 4.18672C12.1557 4.47736 12.144 4.78591 12.2104 5.0825C12.2293 5.1232 12.2521 5.16203 12.2786 5.19825Z" fill="white"/>
<path id="Path 14990" d="M14.2541 14.671C14.5414 14.6897 14.6758 14.5404 14.5587 14.2775C14.4502 14.0411 14.2883 13.8331 14.0858 13.67C13.8832 13.5068 13.6455 13.3928 13.3915 13.3371C13.3536 13.3339 13.3154 13.3374 13.2787 13.3473C13.3028 13.3829 13.3298 13.4161 13.3597 13.4469C13.4826 13.5568 13.6111 13.6625 13.734 13.7717C13.7582 13.7998 13.7779 13.8314 13.7922 13.8657C13.7535 13.8506 13.7157 13.8337 13.6787 13.8148C13.502 13.7121 13.3296 13.5991 13.1479 13.5086C13.0774 13.491 13.0042 13.4876 12.9324 13.4981C12.9231 13.5723 12.9278 13.6473 12.946 13.7198C13.0532 13.9848 13.2327 14.2146 13.4639 14.3827C13.6951 14.5508 13.9689 14.6507 14.2541 14.671Z" fill="white"/>
<path id="Path 14991" d="M17.1087 7.68183C17.0719 7.71143 17.0387 7.74527 17.0096 7.78249C17.0527 7.78249 17.0965 7.78261 17.1389 7.77758C17.3041 7.76106 17.4672 7.73927 17.6317 7.72778C17.659 7.72778 17.6891 7.75959 17.7171 7.77899C17.6926 7.79114 17.6671 7.80122 17.641 7.80915C17.4621 7.85512 17.2817 7.89011 17.105 7.9526C17.0332 7.97774 16.9773 8.05621 16.9141 8.11008C16.9859 8.16755 17.047 8.2537 17.1296 8.27668C17.3083 8.32122 17.4893 8.35601 17.6718 8.38085C18.0289 8.386 18.3746 8.25629 18.64 8.01749C18.9094 7.78332 18.8779 7.57265 18.5375 7.47209C18.2986 7.3991 18.0466 7.38005 17.7995 7.41632C17.5524 7.4526 17.3165 7.54328 17.1087 7.68183Z" fill="white"/>
<path id="Path 14992" d="M2.1802 10.9397C2.03223 10.9714 1.88435 11.0015 1.73494 11.0316C1.85346 10.9684 1.97121 10.9048 2.08901 10.8394C2.10739 10.8331 2.12499 10.8245 2.14145 10.8142C2.25063 10.7129 2.357 10.6117 2.46833 10.5104L2.06902 10.3516C1.81986 10.353 1.57449 10.4139 1.35369 10.5294C1.13289 10.6448 0.943009 10.8113 0.7997 11.0152C0.610066 11.3025 0.68193 11.4787 1.03031 11.5002C1.25472 11.5147 1.47963 11.4841 1.69198 11.4101C1.90432 11.3361 2.09974 11.2201 2.26649 11.0692C2.31617 11.0151 2.35949 10.9555 2.39573 10.8917C2.32462 10.9075 2.25203 10.9254 2.1802 10.9397Z" fill="white"/>
<path id="Path 14993" d="M17.3495 11.7387C17.3158 11.7266 17.2805 11.72 17.2447 11.7188C17.2562 11.751 17.2698 11.7823 17.2855 11.8127C17.3782 11.9708 17.4753 12.1289 17.5665 12.2883C17.5778 12.3219 17.5836 12.3571 17.5837 12.3925C17.5578 12.3674 17.5306 12.343 17.5062 12.3157C17.3625 12.1476 17.2189 11.9715 17.063 11.8127C17.0381 11.793 17.0091 11.7793 16.9781 11.7724C16.9471 11.7656 16.915 11.7657 16.8841 11.7731C16.8518 11.7825 16.8281 11.8715 16.8252 11.9239C16.8372 12.2176 16.9325 12.502 17.0998 12.7436C17.2672 12.9852 17.4997 13.1745 17.7704 13.289C18.07 13.3982 18.1734 13.3297 18.1741 12.9383C18.1338 12.6898 18.0389 12.4533 17.8963 12.2459C17.7538 12.0385 17.5671 11.8654 17.3495 11.7387Z" fill="white"/>
<path id="Path 14994" d="M3.75035 15.0702C3.85594 14.9718 3.95142 14.8597 4.05198 14.7563C3.91838 14.7139 3.78559 14.6738 3.65127 14.6329C3.39811 14.6311 3.14847 14.6923 2.92489 14.811C2.70131 14.9298 2.51083 15.1025 2.37055 15.3133C2.20534 15.5654 2.26849 15.7181 2.56731 15.7584C2.95924 15.8091 3.35569 15.7076 3.67494 15.4746C3.80411 15.3726 3.92427 15.2598 4.0341 15.1372C3.90265 15.1803 3.7719 15.2269 3.63829 15.2621C3.53629 15.2879 3.43136 15.2995 3.32648 15.3168C3.40909 15.2672 3.48954 15.2148 3.57358 15.1667C3.63555 15.1406 3.69481 15.1081 3.75035 15.0702Z" fill="white"/>
<path id="Path 14995" d="M9.44267 3.88065C9.44267 3.71113 9.44267 3.54229 9.44267 3.37349C9.44267 3.36487 9.43548 3.35548 9.43548 3.34543C9.43548 3.31095 9.43548 3.27363 9.43548 3.23915C9.4599 3.26861 9.49732 3.2931 9.50738 3.32614C9.54976 3.45615 9.58418 3.58826 9.62225 3.71756C9.63733 3.76641 9.65814 3.81145 9.67538 3.86101C9.71252 3.8193 9.74364 3.77274 9.76798 3.72247C9.82185 3.52709 9.86576 3.33043 9.93616 3.04239C9.8342 2.77664 9.7142 2.51806 9.577 2.26866C9.43837 2.04311 9.28316 2.07551 9.1826 2.32548C9.02582 2.67679 9.01497 3.07591 9.15243 3.43522C9.23472 3.5926 9.33193 3.74181 9.44267 3.88065Z" fill="white"/>
<path id="Path 14996" d="M2.92484 6.37532C2.99308 6.35593 3.01253 6.37533 3.0348 6.43495C3.05949 6.50734 3.11099 6.56752 3.17878 6.60295C3.24656 6.63838 3.32551 6.6461 3.39904 6.62505C3.43728 6.61432 3.47295 6.59626 3.50391 6.57138C3.53488 6.54651 3.56042 6.51557 3.57914 6.48054C3.59787 6.44551 3.60934 6.40717 3.61282 6.3676C3.61629 6.32804 3.61164 6.28786 3.59931 6.25011C3.58135 6.18259 3.59933 6.16119 3.65824 6.13892C3.71309 6.12386 3.76184 6.09192 3.79765 6.04773C3.83347 6.00354 3.85461 5.94949 3.85798 5.89271C3.86293 5.84588 3.85666 5.79845 3.83974 5.75451C3.82283 5.71057 3.79572 5.67124 3.76065 5.63982C3.72559 5.6084 3.68359 5.58589 3.63807 5.57388C3.59254 5.56188 3.54483 5.56069 3.49883 5.57073C3.42699 5.59012 3.38886 5.59171 3.35941 5.50479C3.34691 5.46918 3.32759 5.43611 3.30241 5.40799C3.27724 5.37987 3.24682 5.35699 3.2128 5.34064C3.17878 5.3243 3.14193 5.31501 3.10425 5.31294C3.06656 5.31086 3.02867 5.31621 2.99306 5.32872C2.95603 5.34007 2.92163 5.35864 2.89187 5.38343C2.86212 5.40822 2.83765 5.43885 2.8198 5.47322C2.80194 5.50759 2.79123 5.5451 2.78806 5.58371C2.78488 5.62231 2.78938 5.66122 2.80138 5.69805C2.81647 5.75407 2.81859 5.78411 2.75035 5.80853C2.71193 5.81908 2.67605 5.8374 2.64513 5.86254C2.61421 5.88768 2.58895 5.91897 2.57077 5.95444C2.5526 5.9899 2.5419 6.02899 2.53956 6.06878C2.53721 6.10856 2.54322 6.14822 2.5571 6.18557C2.58193 6.25864 2.63424 6.31926 2.70283 6.35463C2.77142 6.38999 2.85092 6.39746 2.92484 6.37532Z" fill="white"/>
<path id="Path 14997" d="M7.51986 4.60428C7.48143 4.59898 7.44225 4.60143 7.40482 4.61165C7.36739 4.62186 7.33246 4.63946 7.30205 4.66356C7.27165 4.68766 7.24655 4.71784 7.22805 4.75194C7.20955 4.78605 7.19817 4.82345 7.19455 4.86208C7.18522 4.91954 7.17505 4.94744 7.10178 4.94169C7.06247 4.93574 7.02233 4.938 6.98394 4.94836C6.94554 4.95871 6.90971 4.97711 6.87871 5.00202C6.84772 5.02693 6.82237 5.05794 6.80401 5.09321C6.78565 5.12848 6.77472 5.16718 6.77209 5.20685C6.76403 5.28471 6.78699 5.36266 6.8361 5.42361C6.88521 5.48456 6.95648 5.52366 7.03427 5.53234C7.1061 5.54455 7.11327 5.56979 7.10968 5.633C7.10282 5.70899 7.12533 5.78463 7.17263 5.84449C7.21994 5.90436 7.28844 5.94372 7.36396 5.95462C7.40321 5.96036 7.44326 5.95803 7.48163 5.94796C7.52 5.93789 7.556 5.92032 7.58738 5.89605C7.61876 5.87178 7.6448 5.84157 7.66419 5.80696C7.68358 5.77236 7.69583 5.73416 7.70014 5.69473C7.71164 5.6229 7.73673 5.61187 7.79923 5.61546C7.85613 5.62463 7.91462 5.61598 7.96618 5.59021C8.01773 5.56443 8.05985 5.52304 8.08666 5.47201C8.11025 5.43086 8.12372 5.3847 8.12594 5.33733C8.12815 5.28995 8.11893 5.24265 8.09928 5.19949C8.07963 5.15632 8.05001 5.11844 8.01282 5.089C7.97564 5.05956 7.93203 5.0393 7.88551 5.03008C7.81368 5.01787 7.77782 5.00418 7.78572 4.91223C7.78856 4.87454 7.78387 4.83695 7.77204 4.80105C7.76021 4.76514 7.74132 4.73182 7.71663 4.70319C7.69194 4.67457 7.66184 4.65107 7.62807 4.6341C7.59429 4.61712 7.55757 4.60701 7.51986 4.60428Z" fill="white"/>
<path id="Path 14998" d="M9.81658 1.49531C9.87404 1.53625 9.87128 1.56274 9.84183 1.61877C9.8027 1.68423 9.79032 1.76261 9.80746 1.83693C9.8246 1.91124 9.86987 1.97585 9.93373 2.01756C9.96658 2.0397 10.0036 2.05498 10.0425 2.06245C10.0814 2.06993 10.1214 2.06944 10.1601 2.06105C10.1988 2.05266 10.2355 2.03661 10.2678 2.0137C10.3001 1.9908 10.3274 1.96152 10.3481 1.92777C10.3876 1.87031 10.4157 1.86882 10.4711 1.89971C10.5184 1.93154 10.5745 1.9479 10.6315 1.94636C10.6886 1.94481 10.7436 1.92563 10.7892 1.89129C10.8281 1.86446 10.8601 1.82878 10.8825 1.78712C10.9048 1.74547 10.9169 1.699 10.9177 1.65174C10.9186 1.60448 10.9082 1.55772 10.8874 1.5153C10.8665 1.47288 10.8359 1.43583 10.7979 1.40763C10.7369 1.36381 10.7109 1.33579 10.7576 1.25821C10.7957 1.19237 10.8062 1.11428 10.7867 1.04076C10.7672 0.967234 10.7192 0.904357 10.6534 0.866088C10.6208 0.845275 10.5844 0.831308 10.5463 0.824701C10.5082 0.818093 10.4693 0.818883 10.4316 0.827507C10.3939 0.83613 10.3582 0.852341 10.3267 0.874856C10.2953 0.897372 10.2686 0.925769 10.2483 0.958682C10.2153 1.00681 10.1944 1.03077 10.1305 0.992704C10.0976 0.97041 10.0605 0.955006 10.0214 0.94781C9.98233 0.940613 9.94224 0.941502 9.90356 0.950615C9.86488 0.959729 9.82852 0.976883 9.79676 1.00077C9.765 1.02466 9.73839 1.05487 9.7189 1.08951C9.67824 1.15633 9.66569 1.23653 9.684 1.31258C9.70231 1.38863 9.74997 1.45431 9.81658 1.49531Z" fill="white"/>
<path id="Path 14999" d="M15.883 4.85052C15.9548 4.86201 15.962 4.88727 15.9591 4.95048C15.9521 5.02667 15.9746 5.10253 16.0219 5.16267C16.0692 5.22281 16.1377 5.26278 16.2134 5.27386C16.2527 5.27959 16.2928 5.27701 16.3313 5.26684C16.3697 5.25668 16.4057 5.23901 16.437 5.21458C16.4683 5.19015 16.4944 5.15956 16.5136 5.12479C16.5329 5.09002 16.5449 5.05174 16.5489 5.01221C16.5604 4.94469 16.5849 4.93037 16.6482 4.93539C16.705 4.94446 16.7632 4.93556 16.8148 4.90979C16.8663 4.88403 16.9085 4.84255 16.9354 4.79159C16.959 4.75061 16.9726 4.70451 16.9749 4.65726C16.9771 4.61001 16.968 4.56318 16.9484 4.52012C16.9288 4.47706 16.8992 4.43932 16.8621 4.40999C16.825 4.38066 16.7814 4.36052 16.735 4.35142C16.6631 4.33849 16.6266 4.32478 16.6352 4.23427C16.6413 4.15836 16.6171 4.08328 16.5678 4.02523C16.5185 3.96718 16.4482 3.93079 16.3723 3.92457C16.334 3.91925 16.2951 3.92185 16.2578 3.93193C16.2205 3.94202 16.1856 3.95962 16.1552 3.98349C16.1248 4.00737 16.0996 4.03697 16.081 4.07083C16.0624 4.10468 16.0507 4.14182 16.0468 4.18026C16.0382 4.23988 16.0282 4.26666 15.9549 4.26163C15.9156 4.25557 15.8754 4.25764 15.8369 4.26794C15.7984 4.27824 15.7624 4.29668 15.7313 4.3216C15.7003 4.34653 15.6748 4.37747 15.6564 4.4128C15.638 4.44812 15.6271 4.48704 15.6245 4.52679C15.6168 4.60385 15.6395 4.6809 15.6878 4.74144C15.7362 4.80197 15.8062 4.84096 15.883 4.85052Z" fill="white"/>
<path id="Path 15000" d="M15.7479 8.83097C15.7095 8.82555 15.6703 8.82786 15.6329 8.83798C15.5954 8.84811 15.5604 8.86586 15.5299 8.88989C15.4994 8.91393 15.4741 8.94385 15.4556 8.97793C15.437 9.012 15.4254 9.04942 15.4217 9.08806C15.4131 9.14696 15.4031 9.17411 15.3298 9.16908C15.2905 9.16302 15.2504 9.16548 15.212 9.17574C15.1735 9.18601 15.1376 9.20386 15.1066 9.22871C15.0755 9.25355 15.05 9.28466 15.0315 9.3199C15.0131 9.35514 15.0021 9.39385 14.9994 9.43354C14.9919 9.51147 15.0152 9.58934 15.0643 9.65029C15.1134 9.71124 15.1846 9.75051 15.2623 9.75972C15.3341 9.76978 15.3406 9.79542 15.3377 9.85863C15.331 9.93467 15.3536 10.0105 15.4008 10.0705C15.4481 10.1304 15.5165 10.1701 15.592 10.1813C15.6313 10.1869 15.6713 10.1844 15.7097 10.1743C15.748 10.1641 15.7841 10.1467 15.8154 10.1224C15.8468 10.0981 15.8728 10.0676 15.8922 10.0329C15.9116 9.99831 15.9239 9.96017 15.9282 9.92071C15.939 9.84888 15.9641 9.83784 16.0273 9.84215C16.0836 9.85102 16.1413 9.84199 16.1921 9.81619C16.2429 9.7904 16.2842 9.74937 16.3103 9.69869C16.3341 9.65779 16.3477 9.61162 16.3501 9.56436C16.3525 9.5171 16.3435 9.46997 16.324 9.42687C16.3044 9.38378 16.2748 9.34608 16.2377 9.31674C16.2006 9.2874 16.157 9.26722 16.1106 9.25817C16.0387 9.24452 16.0022 9.23114 16.0101 9.14207C16.0133 9.10443 16.009 9.06621 15.9976 9.03019C15.9862 8.99417 15.9678 8.96087 15.9434 8.93198C15.9191 8.90309 15.8893 8.87919 15.8558 8.86183C15.8222 8.84448 15.7856 8.83414 15.7479 8.83097Z" fill="white"/>
<path id="Path 15001" d="M8.47571 15.2054C8.43733 15.2006 8.39829 15.2035 8.36102 15.2138C8.32375 15.2242 8.289 15.2418 8.2586 15.2657C8.2282 15.2896 8.20273 15.3193 8.1839 15.353C8.16506 15.3868 8.15318 15.424 8.14882 15.4625C8.1402 15.5207 8.13018 15.5496 8.05763 15.5439C8.01832 15.5378 7.97821 15.5399 7.93978 15.5502C7.90135 15.5604 7.86545 15.5783 7.83439 15.6031C7.80332 15.628 7.77777 15.6591 7.75933 15.6943C7.74088 15.7296 7.72995 15.7683 7.72724 15.808C7.71899 15.8858 7.74191 15.9638 7.79107 16.0247C7.84023 16.0856 7.9116 16.1244 7.98941 16.1327C8.06124 16.145 8.06904 16.1709 8.06114 16.2341C8.05451 16.3102 8.07739 16.3859 8.12497 16.4456C8.17255 16.5053 8.24136 16.5445 8.317 16.555C8.35621 16.5607 8.39604 16.5582 8.43432 16.548C8.47261 16.5378 8.50847 16.5201 8.53972 16.4958C8.57097 16.4714 8.59695 16.4413 8.61618 16.4067C8.63541 16.372 8.64746 16.3338 8.6516 16.2944C8.66238 16.2226 8.68765 16.2119 8.75086 16.2183C8.80722 16.2268 8.86469 16.2174 8.91553 16.1917C8.96638 16.1659 9.00792 16.125 9.03443 16.0745C9.05789 16.0335 9.07132 15.9877 9.07354 15.9405C9.07577 15.8934 9.06673 15.8464 9.04724 15.8034C9.02774 15.7604 8.99842 15.7227 8.96148 15.6933C8.92454 15.6639 8.88114 15.6437 8.83486 15.6343C8.76303 15.6221 8.72558 15.6091 8.7342 15.5193C8.73787 15.4817 8.73417 15.4435 8.72315 15.4074C8.71214 15.3713 8.69404 15.338 8.67002 15.3089C8.646 15.2797 8.61657 15.2554 8.58321 15.2377C8.54985 15.2199 8.51331 15.209 8.47571 15.2054Z" fill="white"/>
</g>
</g>
</svg>
