<svg width="16" height="14" viewBox="0 0 16 14" fill="none" xmlns="http://www.w3.org/2000/svg">
<g id="elements">
<g id="Icon">
<path fill-rule="evenodd" clip-rule="evenodd" d="M6.0002 0.832031C4.25129 0.832031 2.83353 2.2498 2.83353 3.9987C2.83353 5.7476 4.25129 7.16536 6.0002 7.16536C7.7491 7.16536 9.16686 5.7476 9.16686 3.9987C9.16686 2.2498 7.7491 0.832031 6.0002 0.832031ZM3.83353 3.9987C3.83353 2.80208 4.80358 1.83203 6.0002 1.83203C7.19681 1.83203 8.16686 2.80208 8.16686 3.9987C8.16686 5.19532 7.19681 6.16536 6.0002 6.16536C4.80358 6.16536 3.83353 5.19532 3.83353 3.9987Z" fill="#007960"/>
<path fill-rule="evenodd" clip-rule="evenodd" d="M9.24883 9.29878C7.25819 8.232 4.74221 8.232 2.75156 9.29878C2.6895 9.33204 2.61187 9.37143 2.5233 9.41637C2.12836 9.61676 1.51588 9.92752 1.09599 10.2974C0.837128 10.5255 0.559717 10.8511 0.508405 11.2735C0.452222 11.7361 0.681923 12.1432 1.07066 12.4766C1.73394 13.0453 2.52848 13.4987 3.55068 13.4987H8.44971C9.47191 13.4987 10.2665 13.0453 10.9297 12.4766C11.3185 12.1432 11.5482 11.7361 11.492 11.2735C11.4407 10.8511 11.1633 10.5255 10.9044 10.2974C10.4845 9.92752 9.87205 9.61677 9.47712 9.41638C9.38853 9.37144 9.3109 9.33205 9.24883 9.29878ZM1.72158 11.7174C1.48597 11.5154 1.49894 11.4115 1.50103 11.3947C1.50767 11.3401 1.55932 11.2219 1.75701 11.0478C2.06989 10.7722 2.51905 10.5427 2.91399 10.3409C3.02271 10.2854 3.12739 10.2319 3.22391 10.1802C4.9195 9.27153 7.08089 9.27153 8.77648 10.1802C8.87303 10.2319 8.97766 10.2854 9.0864 10.3409C9.48134 10.5427 9.9305 10.7722 10.2434 11.0478C10.4411 11.2219 10.4926 11.3395 10.4993 11.3941C10.5014 11.4108 10.5144 11.5154 10.2788 11.7174C9.71582 12.2001 9.1446 12.4987 8.44971 12.4987H3.55068C2.85579 12.4987 2.28458 12.2001 1.72158 11.7174Z" fill="#007960"/>
<path d="M10.4307 2.86832C10.5501 2.84463 10.6747 2.83203 10.8033 2.83203C11.7856 2.83203 12.5001 3.54674 12.5001 4.33203C12.5001 5.11733 11.7856 5.83203 10.8033 5.83203C10.6747 5.83203 10.5501 5.81943 10.4307 5.79574C10.1598 5.74201 9.89671 5.91804 9.84299 6.1889C9.78926 6.45977 9.96528 6.7229 10.2361 6.77663C10.4195 6.813 10.6093 6.83203 10.8033 6.83203C12.2475 6.83203 13.5001 5.75588 13.5001 4.33203C13.5001 2.90819 12.2475 1.83203 10.8033 1.83203C10.6093 1.83203 10.4195 1.85107 10.2361 1.88743C9.96528 1.94116 9.78926 2.20429 9.84299 2.47516C9.89671 2.74602 10.1598 2.92205 10.4307 2.86832Z" fill="#007960"/>
<path d="M11.6668 8.4987C11.3906 8.4987 11.1668 8.72256 11.1668 8.9987C11.1668 9.27484 11.3906 9.4987 11.6668 9.4987C11.8735 9.4987 12.2323 9.56122 12.6529 9.69173C13.066 9.81989 13.4975 10.0008 13.8473 10.2103C14.2158 10.431 14.4156 10.637 14.4794 10.7822C14.5043 10.8388 14.5027 10.8723 14.4952 10.9C14.4858 10.9346 14.4521 11.011 14.3285 11.1213C13.8295 11.5664 13.3338 11.832 12.7376 11.832H12.4108C12.1347 11.832 11.9108 12.0559 11.9108 12.332C11.9108 12.6082 12.1347 12.832 12.4108 12.832H12.7376C13.6745 12.832 14.3983 12.3991 14.9942 11.8675C15.2183 11.6676 15.3866 11.4334 15.4603 11.1619C15.5358 10.8836 15.4984 10.6154 15.3949 10.3799C15.202 9.9408 14.7754 9.6005 14.361 9.35233C13.9278 9.09294 13.4196 8.88257 12.9493 8.73664C12.4865 8.59306 12.018 8.4987 11.6668 8.4987Z" fill="#007960"/>
</g>
</g>
</svg>
