<svg width="20" height="22" viewBox="0 0 20 22" fill="none" xmlns="http://www.w3.org/2000/svg">
<path fill-rule="evenodd" clip-rule="evenodd" d="M9.99977 0.25C7.10028 0.25 4.74977 2.6005 4.74977 5.5C4.74977 8.39949 7.10028 10.75 9.99977 10.75C12.8993 10.75 15.2498 8.39949 15.2498 5.5C15.2498 2.6005 12.8993 0.25 9.99977 0.25ZM6.24977 5.5C6.24977 3.42893 7.9287 1.75 9.99977 1.75C12.0708 1.75 13.7498 3.42893 13.7498 5.5C13.7498 7.57107 12.0708 9.25 9.99977 9.25C7.9287 9.25 6.24977 7.57107 6.24977 5.5Z" fill="white"/>
<path fill-rule="evenodd" clip-rule="evenodd" d="M16.2286 14.0792C16.066 13.9874 15.9224 13.9064 15.8061 13.8372C12.252 11.7209 7.74786 11.7209 4.19381 13.8372C4.0775 13.9064 3.93382 13.9875 3.77116 14.0793C3.05835 14.4814 1.98083 15.0893 1.24267 15.8118C0.780999 16.2637 0.342345 16.8592 0.262599 17.5888C0.177793 18.3646 0.516256 19.0927 1.19527 19.7396C2.36672 20.8556 3.77251 21.75 5.59082 21.75H14.4091C16.2274 21.75 17.6332 20.8556 18.8046 19.7396C19.4836 19.0927 19.8221 18.3646 19.7373 17.5888C19.6575 16.8592 19.2189 16.2637 18.7572 15.8118C18.0191 15.0893 16.9414 14.4813 16.2286 14.0792ZM4.96123 15.126C8.04241 13.2913 11.9575 13.2913 15.0387 15.126C15.2065 15.226 15.3905 15.3303 15.5832 15.4397C16.2958 15.8439 17.1279 16.316 17.708 16.8838C18.0681 17.2363 18.2216 17.5271 18.2462 17.7517C18.2657 17.9301 18.2206 18.2242 17.77 18.6535C16.7341 19.6404 15.6815 20.25 14.4091 20.25H5.59082C4.31837 20.25 3.26579 19.6404 2.22994 18.6535C1.77931 18.2242 1.73422 17.9301 1.75372 17.7517C1.77828 17.5271 1.93179 17.2363 2.29191 16.8838C2.872 16.316 3.70403 15.844 4.41663 15.4397C4.6093 15.3304 4.79337 15.226 4.96123 15.126Z" fill="white"/>
</svg>
