<svg width="14" height="14" viewBox="0 0 14 14" fill="none" xmlns="http://www.w3.org/2000/svg">
<path d="M7 0.728516C9.49083 0.728516 11.5205 2.75917 11.5205 5.25C11.5204 6.69648 10.8321 7.98523 9.77051 8.81348V11.9639C9.77051 12.5646 9.77063 13.0019 9.36816 13.2002C9.26902 13.2468 9.17534 13.2705 9.08203 13.2705C8.79056 13.2703 8.50498 13.0601 8.14355 12.7861L7.4375 12.2559C7.25668 12.1217 7.05835 11.9697 7 11.9639C6.94165 11.9697 6.74332 12.1217 6.5625 12.2559L5.8623 12.7803C5.37821 13.1419 5.03429 13.4043 4.63184 13.2002C4.22937 13.0019 4.22949 12.5646 4.22949 11.9639V8.81348C3.16794 7.98523 2.47964 6.69648 2.47949 5.25C2.47949 2.75917 4.50917 0.728516 7 0.728516ZM8.89551 9.35059C8.3181 9.61882 7.67653 9.77051 7 9.77051C6.32347 9.77051 5.6819 9.61882 5.10449 9.35059V12.2607C5.1744 12.2083 5.25636 12.15 5.33203 12.0918L6.03711 11.5615C6.41044 11.2815 6.66167 11.0947 7 11.0947C7.33833 11.0947 7.58956 11.2815 7.96289 11.5615L8.66211 12.0859C8.74378 12.1443 8.82551 12.2034 8.89551 12.2559V9.35059ZM7 1.60352C4.9875 1.60352 3.35449 3.2375 3.35449 5.25C3.35474 7.26229 4.98765 8.89551 7 8.89551C9.01235 8.89551 10.6453 7.26229 10.6455 5.25C10.6455 3.2375 9.0125 1.60352 7 1.60352ZM7.01172 2.47266C7.25662 2.47276 7.48393 2.6134 7.59473 2.84082L8.02051 3.71582L8.93652 3.86719C9.17565 3.90805 9.37437 4.07725 9.4502 4.31055C9.5259 4.54964 9.46695 4.80654 9.29785 4.9873L8.62695 5.6875L8.77344 6.66699C8.80843 6.92362 8.70313 7.16861 8.49902 7.31445C8.3007 7.45445 8.03809 7.47212 7.82227 7.35547L7 6.91797L6.17773 7.35547C6.08442 7.40796 5.979 7.43163 5.87402 7.43164C5.74577 7.43164 5.61177 7.39601 5.50098 7.31445C5.29098 7.16862 5.19156 6.91783 5.22656 6.66699L5.37207 5.6875H5.39551L4.72461 4.9873C4.54964 4.8065 4.49163 4.54968 4.57324 4.31055C4.64908 4.07721 4.84775 3.90802 5.08691 3.86719L6.00195 3.71582L6.42773 2.84082C6.53857 2.61332 6.76672 2.47266 7.01172 2.47266ZM6.72559 4.19922C6.63225 4.39172 6.45124 4.52652 6.24707 4.56152L5.61133 4.66602L6.07812 5.15625C6.21802 5.302 6.28197 5.51178 6.25293 5.71582L6.1543 6.375L6.69629 6.08984C6.78962 6.03734 6.895 6.01367 7 6.01367C7.10487 6.0137 7.20951 6.03744 7.30273 6.08984L7.8457 6.375L7.74609 5.71582C7.71707 5.51179 7.78197 5.30198 7.92188 5.15625L8.3877 4.66602L7.75195 4.56152C7.5479 4.52645 7.36771 4.39163 7.27441 4.19922L7 3.63379L6.72559 4.19922Z" fill="#0D121C"/>
</svg>
