<svg xmlns="http://www.w3.org/2000/svg" xmlns:xlink="http://www.w3.org/1999/xlink" width="34.019" height="10.986" viewBox="0 0 34.019 10.986">
  <defs>
    <clipPath id="clip-path">
      <rect id="Rectangle_5112" data-name="Rectangle 5112" width="34.019" height="10.986" fill="none"/>
    </clipPath>
  </defs>
  <g id="Group_8375" data-name="Group 8375" transform="translate(-1161 -700.2)">
    <g id="Group_18006" data-name="Group 18006" transform="translate(1161 700.2)">
      <g id="Group_18005" data-name="Group 18005" clip-path="url(#clip-path)">
        <path id="Path_17837" data-name="Path 17837" d="M12.916.194,8.462,10.82H5.557L3.365,2.34a1.164,1.164,0,0,0-.653-.934A11.508,11.508,0,0,0,0,.5L.065.194H4.743A1.281,1.281,0,0,1,6.01,1.278L7.168,7.427,10.028.194ZM24.3,7.351c.012-2.8-3.878-2.959-3.851-4.212.008-.381.371-.787,1.166-.89a5.185,5.185,0,0,1,2.71.476L24.809.471A7.387,7.387,0,0,0,22.238,0c-2.717,0-4.629,1.444-4.645,3.513C17.575,5.042,18.957,5.9,20,6.4c1.071.521,1.431.855,1.427,1.321-.008.713-.855,1.028-1.646,1.04a5.759,5.759,0,0,1-2.823-.671l-.5,2.328a8.333,8.333,0,0,0,3.057.565c2.888,0,4.777-1.426,4.786-3.636m7.175,3.469h2.542L31.8.194H29.453a1.251,1.251,0,0,0-1.17.78L24.158,10.82h2.886l.573-1.587h3.527ZM28.409,7.055l1.447-3.99.833,3.99ZM16.844.194,14.571,10.82H11.822L14.1.194Z" fill="#1434cb"/>
      </g>
    </g>
  </g>
</svg>
