<svg width="15" height="14" viewBox="0 0 15 14" fill="none" xmlns="http://www.w3.org/2000/svg">
<g id="elements">
<g id="Icon">
<path fill-rule="evenodd" clip-rule="evenodd" d="M7.70476 0.166657H7.62853C6.16806 0.166648 5.02094 0.166641 4.12533 0.287052C3.20756 0.410444 2.47939 0.668467 1.90726 1.2406C1.33512 1.81273 1.0771 2.5409 0.953709 3.45867C0.833297 4.35428 0.833304 5.5014 0.833313 6.96187V7.03811C0.833304 8.49858 0.833297 9.6457 0.953709 10.5413C1.0771 11.4591 1.33512 12.1873 1.90726 12.7594C2.47939 13.3315 3.20756 13.5895 4.12533 13.7129C5.02094 13.8333 6.16805 13.8333 7.62851 13.8333H7.70476C9.16522 13.8333 10.3124 13.8333 11.208 13.7129C12.1257 13.5895 12.8539 13.3315 13.426 12.7594C13.9982 12.1873 14.2562 11.4591 14.3796 10.5413C14.5 9.6457 14.5 8.49859 14.5 7.03812V6.96188C14.5 5.50142 14.5 4.35428 14.3796 3.45867C14.2562 2.5409 13.9982 1.81273 13.426 1.2406C12.8539 0.668467 12.1257 0.410444 11.208 0.287052C10.3124 0.166641 9.16523 0.166648 7.70476 0.166657ZM2.61436 1.94771C2.96972 1.59234 3.45169 1.38662 4.25858 1.27814C5.07984 1.16772 6.15973 1.16666 7.66665 1.16666C9.17356 1.16666 10.2534 1.16772 11.0747 1.27814C11.8816 1.38662 12.3636 1.59234 12.7189 1.94771C13.0743 2.30307 13.28 2.78504 13.3885 3.59192C13.4989 4.41319 13.5 5.49307 13.5 6.99999C13.5 8.50691 13.4989 9.58679 13.3885 10.4081C13.28 11.2149 13.0743 11.6969 12.7189 12.0523C12.3636 12.4076 11.8816 12.6134 11.0747 12.7218C10.2534 12.8323 9.17356 12.8333 7.66665 12.8333C6.15973 12.8333 5.07984 12.8323 4.25858 12.7218C3.45169 12.6134 2.96972 12.4076 2.61436 12.0523C2.259 11.6969 2.05327 11.2149 1.94479 10.4081C1.83438 9.58679 1.83331 8.50691 1.83331 6.99999C1.83331 5.49307 1.83438 4.41319 1.94479 3.59192C2.05327 2.78504 2.259 2.30307 2.61436 1.94771Z" fill="#0D121C"/>
<path fill-rule="evenodd" clip-rule="evenodd" d="M5.97682 5.35725C6.37416 5.38436 6.71276 5.44083 7.02887 5.57177C7.7948 5.88903 8.40536 6.49381 8.7301 7.25567C8.92248 7.08094 9.14512 6.93879 9.38981 6.83744C9.62424 6.74033 9.87023 6.70078 10.1436 6.68213C10.4086 6.66405 10.7336 6.66405 11.1329 6.66405H11.1504C11.4265 6.66405 11.6504 6.88791 11.6504 7.16405V7.18157C11.6504 7.58086 11.6504 7.90579 11.6323 8.17081C11.6136 8.44419 11.5741 8.69018 11.477 8.92461C11.2458 9.48273 10.8024 9.92615 10.2443 10.1573C10.0098 10.2544 9.76384 10.294 9.49046 10.3126C9.34136 10.3228 9.1733 10.3273 8.9837 10.3292V13.3307H11.1504C11.4265 13.3307 11.6504 12.8879 11.6504 13.1641C11.6504 13.4402 11.4265 13.6641 11.1504 13.6641H4.4837C4.20756 13.6641 3.9837 13.4402 3.9837 13.1641C3.9837 12.8879 4.20756 13.3307 4.4837 13.3307H7.9837V10.3301C7.59699 10.3286 7.27023 10.3233 6.99059 10.3042C6.59324 10.2771 6.25465 10.2206 5.93854 10.0897C5.16262 9.76827 4.54615 9.15181 4.22475 8.37588C4.09382 8.05978 4.03735 7.72118 4.01024 7.32384C3.9837 6.93488 3.9837 6.45477 3.9837 5.84897V5.83072C3.9837 5.55458 4.20756 5.33072 4.4837 5.33072H4.50195C5.10775 5.33072 5.58787 5.33071 5.97682 5.35725ZM4.98433 6.33135C4.98583 6.70846 4.99089 7.00617 5.00792 7.25577C5.03155 7.60219 5.07658 7.81925 5.14863 7.9932C5.36853 8.52409 5.79033 8.94589 6.32122 9.16579C6.49517 9.23784 6.71223 9.28287 7.05866 9.30651C7.30825 9.32354 7.60596 9.32859 7.98307 9.33009C7.98157 8.95297 7.97652 8.65527 7.95949 8.40567C7.93585 8.05925 7.89083 7.84219 7.81878 7.66824C7.59887 7.13734 7.17708 6.71555 6.64618 6.49565C6.47223 6.42359 6.25518 6.37857 5.90875 6.35493C5.65916 6.3379 5.36145 6.33285 4.98433 6.33135ZM10.6488 7.66564C10.647 7.83728 10.643 7.97942 10.6346 8.10274C10.6194 8.3252 10.5913 8.44965 10.5531 8.54193C10.4234 8.85502 10.1747 9.10377 9.86158 9.23345C9.7693 9.27168 9.64485 9.29978 9.42239 9.31496C9.29907 9.32338 9.15693 9.3273 8.9853 9.32913C8.98712 9.15749 8.99104 9.01535 8.99946 8.89203C9.01464 8.66957 9.04275 8.54512 9.08097 8.45285C9.21065 8.13975 9.4594 7.891 9.7725 7.76132C9.86477 7.7231 9.98922 7.69499 10.2117 7.67981C10.335 7.67139 10.4771 7.66747 10.6488 7.66564Z" fill="#0D121C"/>
</g>
</g>
</svg>
