<svg width="19" height="23" viewBox="0 0 19 23" fill="none" xmlns="http://www.w3.org/2000/svg">
<path d="M1.39979 12.6511C0.98558 12.6511 0.649794 12.9869 0.649794 13.4011C0.649794 13.8153 0.98558 14.1511 1.39979 14.1511H3.79461C3.97638 14.1511 4.15474 14.1921 4.31531 14.2698L6.35728 15.2578C6.7229 15.4347 7.12476 15.5262 7.53129 15.5262H8.57392C9.00044 15.5262 9.35097 15.7544 9.52704 16.0729L7.59281 16.6077C7.31171 16.6854 7.01083 16.6579 6.75145 16.5324L4.56855 15.4763C4.19569 15.2958 3.74718 15.4519 3.56677 15.8247C3.38637 16.1976 3.54238 16.6461 3.91524 16.8265L6.09814 17.8827C6.68675 18.1675 7.36201 18.2278 7.99253 18.0535L10.5334 17.3509C10.8835 17.2541 11.1498 16.9343 11.1498 16.5431C11.1498 16.5139 11.1493 16.4847 11.1483 16.4558L15.2128 15.207L15.2157 15.2061C15.7131 15.0511 16.262 15.2299 16.5889 15.6825C16.7049 15.8432 16.6448 16.0641 16.5034 16.1457L8.98785 20.482C8.68682 20.6557 8.33542 20.6968 8.0083 20.5997L1.61315 18.7021C1.21605 18.5842 0.798614 18.8106 0.680781 19.2077C0.562948 19.6048 0.789339 20.0223 1.18644 20.1401L7.58159 22.0377C8.30605 22.2527 9.08251 22.1592 9.73749 21.7813L17.2531 17.4449C18.1863 16.9065 18.4264 15.665 17.8049 14.8043C17.112 13.8449 15.9015 13.422 14.771 13.7735L14.7695 13.774L10.6424 15.042C10.169 14.4216 9.4113 14.0263 8.57392 14.0263H7.53129C7.34953 14.0263 7.17117 13.9852 7.01059 13.9076L4.96862 12.9196C4.603 12.7427 4.20115 12.6511 3.79461 12.6511H1.39979Z" fill="#008ece"/>
<path fill-rule="evenodd" clip-rule="evenodd" d="M14.2381 4.39161C14.2042 4.44752 14.1688 4.50575 14.131 4.56486C14.2081 4.62884 14.2831 4.69613 14.3619 4.76677L14.3822 4.785C15.46 5.75112 16.7049 7.3974 17.1062 9.6231C17.2977 10.6849 16.8458 11.6001 16.13 12.2127C15.4269 12.8144 14.4514 13.1511 13.4509 13.1511L9.34902 13.1511C8.3485 13.1511 7.37296 12.8144 6.66995 12.2127C5.95411 11.6001 5.50221 10.6849 5.69367 9.6231C6.09498 7.3974 7.33988 5.75112 8.41771 4.785L8.43805 4.76677C8.51677 4.69617 8.59187 4.62882 8.66893 4.56485C8.63112 4.50578 8.59578 4.44758 8.56184 4.3917L8.51925 4.3218L8.50284 4.29506L8.4724 4.23469C8.32911 3.95048 8.19366 3.68184 8.10672 3.44273C8.0092 3.17452 7.9456 2.87543 8.0048 2.53807C8.04395 2.31503 8.14249 2.06729 8.26716 1.87832C8.59018 1.38867 9.10612 1.20361 9.56518 1.03897C9.60039 1.02634 9.63526 1.01383 9.66969 1.00131C10.8994 0.554249 11.9713 0.529302 13.1529 0.960687C13.1872 0.973238 13.2221 0.985788 13.2573 0.99847C13.7423 1.17308 14.297 1.37276 14.6179 1.94386C14.6893 2.07091 14.7551 2.23668 14.7903 2.37815C14.8812 2.74393 14.8248 3.07277 14.7216 3.37096C14.631 3.63269 14.4837 3.92487 14.3294 4.23089L14.2971 4.29506L14.2807 4.3218L14.2381 4.39161ZM10.1822 2.41104C11.1107 2.07347 11.8177 2.07008 12.6384 2.36972C12.9552 2.48536 13.1131 2.54519 13.221 2.60486C13.2908 2.64341 13.3 2.66018 13.3087 2.676L13.3097 2.67763L13.3132 2.68493C13.3162 2.6914 13.3198 2.69967 13.3235 2.70897C13.3272 2.71826 13.3302 2.72675 13.3325 2.73351L13.3348 2.74104L12.6384 2.36972L13.3354 2.75914C13.3338 2.77531 13.3279 2.8117 13.3041 2.88039C13.2519 3.03119 13.1562 3.22575 12.9858 3.5639C12.9336 3.64894 12.8926 3.71532 12.8553 3.77255C12.8145 3.83506 12.7869 3.87307 12.7665 3.89795C12.7538 3.91351 12.7461 3.92117 12.7428 3.92418L12.7418 3.92464C12.7312 3.92931 12.6873 3.94691 12.5374 3.9576C12.3809 3.96876 12.1741 3.9692 11.846 3.9692H10.954C10.6258 3.9692 10.419 3.96876 10.2625 3.9576C10.1126 3.94691 10.0687 3.92931 10.0581 3.92464L10.0571 3.92418C10.0538 3.92117 10.0461 3.91351 10.0334 3.89796C10.013 3.87307 9.98536 3.83506 9.94461 3.77255C9.9073 3.71532 9.8663 3.64894 9.81407 3.5639C9.65743 3.25294 9.56774 3.07129 9.51642 2.93016C9.49273 2.86498 9.48538 2.82928 9.48304 2.81225C9.48196 2.80436 9.48197 2.80057 9.48198 2.79973L9.48221 2.79749C9.48241 2.79655 9.48339 2.79207 9.4857 2.78422C9.4886 2.77441 9.49265 2.76252 9.49773 2.74973C9.50282 2.73694 9.50804 2.72551 9.51269 2.71636C9.51651 2.70885 9.51879 2.70507 9.51919 2.70441L9.52012 2.70291C9.52435 2.6959 9.53534 2.67768 9.61262 2.63728C9.72272 2.57971 9.88049 2.52073 10.1822 2.41104ZM10.8012 5.4692C10.224 5.4692 10.096 5.47804 9.92986 5.54043C9.75594 5.60574 9.70278 5.64752 9.4189 5.90197C8.52315 6.70488 7.49782 8.07038 7.16986 9.88927C7.09002 10.3321 7.25534 10.7394 7.64526 11.0731C8.04799 11.4177 8.66673 11.6511 9.34902 11.6511L13.4509 11.6511C14.1332 11.6511 14.7519 11.4177 15.1546 11.0731C15.5446 10.7394 15.7099 10.3321 15.63 9.88927C15.3021 8.07038 14.2768 6.70488 13.381 5.90197C13.0971 5.64752 13.044 5.60574 12.87 5.54043C12.7039 5.47804 12.5759 5.4692 11.9987 5.4692H10.8012Z" fill="#008ece"/>
</svg>
