<svg version="1.2" xmlns="http://www.w3.org/2000/svg" viewBox="0 0 512 512" width="512" height="512">
	<title>counter(2)</title>
	<style>
		.s0 { fill: #004631 } 
		.s1 { fill: #000000 } 
		.s2 { fill: #16a249 } 
	</style>
	<path class="s0" d="m472.4 120.2h-432.8c-21.9 0-39.6 17.8-39.6 39.6v192.4c0 21.8 17.7 39.6 39.6 39.6h432.9c21.8 0 39.6-17.7 39.6-39.6v-192.4c0-21.8-17.7-39.6-39.6-39.6zm24.6 232c0 13.5-11 24.6-24.6 24.6h-432.8c-13.5 0-24.6-11-24.6-24.6v-192.4c0-13.5 11-24.6 24.6-24.6h432.9c13.5 0 24.6 11 24.6 24.6v192.4z"/>
	<path class="s1" d="m472.4 152.3h-118.2c-4.1 0-7.5 3.4-7.5 7.5 0 4.1 3.4 7.5 7.5 7.5h46.1c-11.2 15.7-18.5 25.2-22.7 30.8-6.6 8.6-8.3 10.9-7 15.4 0.8 2.5 2.7 4.4 5.2 5.3 1 0.3 2.5 0.8 22.6 0.8 20.1 0 19.2 0 34.5-0.3 4.1 0 7.5-3.5 7.4-7.6-0.1-4.1-3.5-7.4-7.6-7.4-12.9 0.2-29.9 0.3-41.2 0.2 5.3-7 14.1-18.6 27.2-37.2h46.1v177.4h-28.3c-1.6-8.6-6.4-16-13-21.2 8.3-6.5 13.6-16.5 13.6-27.8 0-19.5-15.8-35.3-35.3-35.3-19.5 0-31.4 12-34.6 28.5-0.8 4.1 1.9 8 5.9 8.8 4.1 0.8 8-1.8 8.8-5.9 1.9-9.5 10.2-16.4 19.9-16.4 9.7 0 20.3 9.1 20.3 20.3 0 11.2-9.1 20.3-20.3 20.3-11.2 0-7.5 3.4-7.5 7.5 0 4.1 3.4 7.5 7.5 7.5 8.9 0 16.4 5.8 19.2 13.7h-85.5v-177.4h16.5c4.1 0 7.5-3.4 7.5-7.5 0-4.1-3.4-7.5-7.5-7.5h-312.4c-4.1 0-7.5 3.4-7.5 7.5v192.4c0 4.1 3.4 7.5 7.5 7.5h74c4.1 0 7.5-3.4 7.5-7.5 0-4.1-3.4-7.5-7.5-7.5h-66.5v-177.4h129.3v177.4h-80.7c-4.1 0-7.5 3.4-7.5 7.5 0 4.1 3.4 7.5 7.5 7.5h376.8c4.1 0 7.5-3.4 7.5-7.5v-192.4c0-4.1-3.4-7.5-7.5-7.5zm-281 15h129.3v177.4h-129.3z"/>
	<path class="s2" d="m265 195h-22.9c-4.1 0-7.5 3.4-7.5 7.5 0 4.1 3.4 7.5 7.5 7.5h15.4v99.7c0 4.1 3.4 7.5 7.5 7.5 4.1 0 7.5-3.4 7.5-7.5v-107.2c0-4.1-3.4-7.5-7.5-7.5z"/>
	<path class="s2" d="m150 280.9v-49.6c0-21.2-17.3-38.5-38.5-38.5-21.2 0-38.5 17.3-38.5 38.5v49.6c0 21.2 17.3 38.5 38.5 38.5 21.2 0 38.5-17.3 38.5-38.5zm-62 0v-49.6c0-13 10.5-23.5 23.5-23.5 13 0 23.5 10.5 23.5 23.5v49.6c0 13-10.5 23.5-23.5 23.5-13 0-23.5-10.5-23.5-23.5z"/>
</svg>