<svg version="1.2" xmlns="http://www.w3.org/2000/svg" viewBox="0 0 512 512" width="512" height="512">
	<title>arrow</title>
	<style>
		.s0 { fill: #009767 } 
	</style>
	<path class="s0" d="m512 256c0 141.2-114.8 256-256 256-141.2 0-256-114.8-256-256 0-141.2 114.8-256 256-256 141.2 0 256 114.8 256 256zm-32 0c0-123.5-100.5-224-224-224-123.5 0-224 100.5-224 224 0 123.5 100.5 224 224 224 123.5 0 224-100.5 224-224zm-129.5-44c6.3 6.3 6.3 16.4 0 22.6-3.1 3.2-7.2 4.7-11.3 4.7-4.1 0-8.2-1.5-11.3-4.7l-55.9-55.8v193.1c0 8.8-7.2 16-16 16-8.8 0-16-7.2-16-16v-193.1l-55.9 55.8c-6.2 6.3-16.4 6.3-22.6 0-6.2-6.2-6.2-16.3 0-22.6l83.2-83.2c6.2-6.2 16.4-6.2 22.6 0z"/>
</svg>