<svg version="1.2" xmlns="http://www.w3.org/2000/svg" viewBox="0 0 684 683" width="684" height="683">
	<title>whatsapp(1)</title>
	<style>
		.s0 { fill: #000000 } 
	</style>
	<path fill-rule="evenodd" class="s0" d="m661.2 338.4c-0.1 174.8-142.4 317.1-317.1 317.1h-0.2c-53.1 0-105.2-13.3-151.5-38.6l-168.2 44.1 45-164.3c-27.7-48.1-42.3-102.7-42.3-158.6 0.1-174.8 142.3-317.1 317.2-317.1 84.8 0 164.4 33.1 224.3 93 59.9 59.9 92.8 139.6 92.8 224.4zm-53.6-0.1c0.1-70.4-27.3-136.6-77.1-186.4-49.8-49.9-115.9-77.3-186.3-77.3-145.4 0-263.7 118.2-263.7 263.5-0.1 49.8 13.9 98.3 40.3 140.3l6.2 10-26.6 97.3 99.8-26.2 9.6 5.7c40.5 24 86.8 36.7 134.1 36.7h0.2c145.2 0 263.5-118.2 263.5-263.6zm-103.8 75.5c2 3.3 2 19.1-4.6 37.7-6.6 18.5-38.3 35.4-53.5 37.6-13.6 2.1-30.9 2.9-49.9-3.1-11.5-3.7-26.3-8.5-45.2-16.7-79.5-34.3-131.4-114.4-135.3-119.6-4-5.3-32.4-43-32.4-82 0-39 20.5-58.2 27.7-66.1 7.3-8 15.9-9.9 21.2-9.9 5.3 0 10.5 0 15.2 0.2 4.8 0.3 11.4-1.8 17.8 13.6 6.6 15.9 22.4 54.9 24.4 58.9 2 3.9 3.3 8.6 0.7 13.9-2.7 5.2-11.3 16.4-19.8 27.1-3.5 4.3-8.1 8.2-3.5 16.1 4.6 8 20.5 33.9 44.1 54.9 30.2 27 55.8 35.4 63.7 39.4 7.9 3.9 12.5 3.3 17.2-2 4.6-5.3 19.8-23.2 25.1-31.1 5.2-7.9 10.5-6.6 17.8-4 7.3 2.7 46.2 21.9 54.1 25.8 8 4 13.2 6 15.2 9.3z"/>
</svg>