<svg version="1.2" xmlns="http://www.w3.org/2000/svg" viewBox="0 0 512 512" width="512" height="512">
	<title>tik-tok(1)</title>
	<style>
		.s0 { fill: #000000 } 
	</style>
	<path class="s0" d="m464.7 112.5c-53.7 0-97.4-43.8-97.4-97.5 0-8.3-6.7-15-15-15h-80.4c-8.3 0-15 6.7-15 15v329.4c0 31.6-25.7 57.3-57.3 57.3-31.6 0-57.3-25.7-57.3-57.3 0-31.6 25.7-57.3 57.3-57.3 8.3 0 15-6.7 15-15v-80.4c0-8.3-6.7-15-15-15-92.4 0-167.6 75.2-167.6 167.7 0 92.4 75.2 167.6 167.6 167.6 92.5 0 167.7-75.2 167.7-167.6v-145.8c29.8 15.9 63 24.2 97.4 24.2 8.3 0 15-6.7 15-15v-80.3c0-8.3-6.7-15-15-15zm-15 79.7c-32-2.7-62.4-13.9-88.7-32.8-4.5-3.3-10.6-3.7-15.6-1.1-5 2.5-8.1 7.7-8.1 13.3v172.8c0 75.9-61.8 137.6-137.7 137.6-75.9 0-137.6-61.7-137.6-137.6 0-70.9 53.8-129.4 122.6-136.9v50.9c-41 7.1-72.3 42.9-72.3 86 0 48.1 39.2 87.3 87.3 87.3 48.2 0 87.3-39.2 87.3-87.3v-314.4h51.2c6.9 58.3 53.3 104.7 111.6 111.6z"/>
</svg>