<svg version="1.2" xmlns="http://www.w3.org/2000/svg" viewBox="0 0 512 512" width="512" height="512">
	<style>
		.s0 { fill: #1b4345 } 
	</style>
	<g>
		<g>
			<path class="s0" d="m449.6 177.8l-50.19-18.27c18.15-14.99 25.9-38.78 20.34-61.38-10.91-44.4-65.05-61.26-99.26-31.02l-34.65 30.63-6.85-45.94c-6.78-45.23-59.14-66.99-95.98-40.04-18.42 13.48-28.22 36.71-23.87 60.29l-47.32-17.22c-23.28-8.47-49.12 3.57-57.6 26.86l-20.49 56.29c-2.82 7.78 1.18 16.37 8.96 19.2 3.15 1.15 230.74 83.98 234.08 85.2-9.47 0-216.9 0-226.03 0-8.27 0-14.98 6.71-14.98 14.98v209.69c0 24.77 20.16 44.93 44.94 44.93h119.82 59.91 119.82c24.78 0 44.94-20.16 44.94-44.93v-170.65l11.58 4.22c7.74 2.82 16.36-1.15 19.2-8.95l20.49-56.3c8.47-23.28-3.57-49.12-26.86-57.59zm-264.06 304.25h-104.84c-8.26 0-14.98-6.72-14.98-14.98v-194.71h119.82zm59.91 0h-29.95v-209.69h29.95zm94.88-392.47c17.38-15.36 44.81-6.74 50.33 15.73 5.9 23.96-17.26 44.74-40.45 36.32-19.71-7.18-28.95-10.54-48.7-17.73zm-139.64-53.61c18.72-13.7 45.24-2.59 48.67 20.3l7.68 51.45c-5.53-2.02-43.26-15.75-48.7-17.73-23.18-8.44-27.56-39.46-7.65-54.02zm7.06 149.44l-140.75-51.23 15.37-42.22c2.83-7.76 11.44-11.78 19.2-8.95 15.75 5.73 121.81 44.33 126.67 46.1zm56.3 20.49l-28.15-10.24 20.49-56.3 28.15 10.24zm131.18 261.18c0 8.26-6.72 14.98-14.98 14.98h-104.84v-209.69h83.66l36.16 13.16c0 0 0 181.55 0 181.55zm53.08-241.93l-15.37 42.23-140.74-51.23 20.49-56.3 126.67 46.1c7.76 2.83 11.77 11.44 8.95 19.2z"/>
		</g>
	</g>
	<g>
	</g>
	<g>
	</g>
	<g>
	</g>
	<g>
	</g>
	<g>
	</g>
	<g>
	</g>
	<g>
	</g>
	<g>
	</g>
	<g>
	</g>
	<g>
	</g>
	<g>
	</g>
	<g>
	</g>
	<g>
	</g>
	<g>
	</g>
	<g>
	</g>
</svg>