<?xml version="1.0" standalone="no"?>
<!DOCTYPE svg PUBLIC "-//W3C//DTD SVG 20010904//EN"
 "http://www.w3.org/TR/2001/REC-SVG-20010904/DTD/svg10.dtd">
<svg version="1.0" xmlns="http://www.w3.org/2000/svg"
 width="512.000000pt" height="512.000000pt" viewBox="0 0 512.000000 512.000000"
 preserveAspectRatio="xMidYMid meet">

<g transform="translate(0.000000,512.000000) scale(0.100000,-0.100000)"
fill="#ffffffff" stroke="none">
<path d="M4395 5103 c-71 -26 -3938 -2260 -3990 -2306 -24 -21 -56 -63 -72
-95 -24 -49 -28 -69 -28 -142 0 -73 4 -93 28 -142 16 -32 48 -74 72 -95 57
-50 3923 -2282 3995 -2306 147 -51 324 30 393 181 l22 47 0 2315 0 2315 -28
56 c-32 67 -100 133 -165 161 -65 29 -164 33 -227 11z m105 -2543 c0 -1232 -1
-2240 -3 -2240 -2 0 -768 441 -1703 981 -934 540 -1806 1042 -1936 1118 -131
75 -238 138 -238 141 0 3 149 91 331 195 181 105 1051 607 1932 1116 881 510
1605 927 1610 928 4 1 7 -1007 7 -2239z"/>
</g>
</svg>
