<svg version="1.2" xmlns="http://www.w3.org/2000/svg" viewBox="0 0 128 128" width="128" height="128">
	<title>signature</title>
	<style>
		.s0 { fill: #01a685 } 
		.s1 { fill: #1c4246 } 
		.s2 { fill: none;stroke: #00a668;stroke-linecap: round;stroke-linejoin: round;stroke-width: 6 } 
	</style>
	<g>
		<path class="s0" d="m83.6 108c-0.7 0-1.4-0.2-1.9-0.7-1.3-1.1-1.4-3-0.3-4.2l2.9-3.4c1.3-2 3.5-3.2 5.8-3.1 2.3 0.1 4.3 1.4 5.4 3.5l0.9 1.7c0 0 0 0.2 0.3 0.2 0.3 0 0.3 0 0.3-0.2l2.1-6.7c0.9-2.8 3.3-4.8 6.2-5 2.9-0.3 5.7 1.2 7 3.8l3 5.7c0.6 1.1 1.6 1.8 2.8 2 1.2 0.2 2.4-0.2 3.3-1.1 0.9-0.9 3.1-1.2 4.2 0 1.2 1.2 1.2 3.1 0 4.2-2.2 2.2-5.3 3.2-8.4 2.8-3.1-0.5-5.7-2.3-7.2-5.1l-3-5.7c-0.3-0.6-0.9-0.7-1.2-0.6-0.3 0-0.8 0.2-1 0.8l-2.1 6.7c-0.8 2.5-2.9 4.2-5.5 4.4-2.6 0.2-5-1.2-6.2-3.5l-0.9-1.7c0-0.2-0.2-0.2-0.2-0.2 0 0-0.4 0-0.6 0.4 0 0-0.2 0.3-0.3 0.4l-3 3.5c-0.7 0.7-1.5 1.1-2.4 1.1z"/>
		<path class="s1" d="m104 20h-80c-7.2 0-13 5.8-13 13v62c0 7.2 5.8 13 13 13h25c1.7 0 3-1.3 3-3 0-1.7-1.3-3-3-3h-25c-3.9 0-7-3.1-7-7v-62c0-3.9 3.1-7 7-7h80c3.9 0 7 3.1 7 7v44c0 1.7 1.3 3 3 3 1.7 0 3-1.3 3-3v-44c0-7.2-5.8-13-13-13z"/>
	</g>
	<path class="s0" d="m65 102c-1.7 0-3 1.3-3 3 0 1.7 1.3 3 3 3h4c1.7 0 3-1.3 3-3 0-1.7-1.3-3-3-3z"/>
	<path class="s2" d="m100.6 47.8c0 0-20.4 24.2-36.6 24.2-16.2 0-36.6-24.2-36.6-24.2"/>
</svg>