<svg width="22" height="22" viewBox="0 0 22 22" fill="none" xmlns="http://www.w3.org/2000/svg">
<g id="elements">
<g id="Icon">
<path d="M7.5 14.25C7.08579 14.25 6.75 13.9142 6.75 13.5C6.75 13.0858 7.08579 12.75 7.5 12.75H14.5C14.9142 12.75 15.25 13.0858 15.25 13.5C15.25 13.9142 14.9142 14.25 14.5 14.25H7.5Z" fill="#007960"/>
<path d="M7.5 9.25C7.08579 9.25 6.75 8.91421 6.75 8.5C6.75 8.08579 7.08579 7.75 7.5 7.75H11C11.4142 7.75 11.75 8.08579 11.75 8.5C11.75 8.91421 11.4142 9.25 11 9.25H7.5Z" fill="#007960"/>
<path fill-rule="evenodd" clip-rule="evenodd" d="M13.2204 0.822726C11.7601 0.725659 10.2369 0.725857 8.77965 0.822726C4.213 1.12629 0.589716 4.81258 0.291801 9.42235C0.236066 10.2848 0.236066 11.1768 0.291801 12.0392C0.402725 13.7556 1.15148 15.304 1.98381 16.5604C2.23314 17.0419 2.10323 17.7641 1.6369 18.6478L1.61542 18.6885C1.45874 18.9852 1.30536 19.2757 1.21688 19.5234C1.12313 19.7858 1.02623 20.2025 1.26791 20.6145C1.48996 20.9931 1.84475 21.1318 2.13152 21.1873C2.36961 21.2334 2.66155 21.2403 2.93544 21.2469L2.98117 21.248C4.40092 21.2825 5.40136 20.8726 6.1938 20.2883C6.35108 20.1723 6.45909 20.0929 6.54041 20.037C6.65868 20.0804 6.8203 20.1467 7.05839 20.2448C7.59978 20.4677 8.21472 20.6013 8.77965 20.6389C10.2369 20.7357 11.7601 20.7359 13.2204 20.6389C17.787 20.3353 21.4103 16.649 21.7082 12.0392C21.7639 11.1768 21.7639 10.2848 21.7082 9.42235C21.4103 4.81258 17.787 1.12629 13.2204 0.822726ZM8.87914 2.31942C10.2702 2.22695 11.7269 2.22676 13.1209 2.31942C16.9202 2.57198 19.9609 5.64417 20.2113 9.51909C20.2629 10.3171 20.2629 11.1445 20.2113 11.9425C19.9609 15.8174 16.9202 18.8896 13.1209 19.1422C11.7269 19.2348 10.2702 19.2346 8.87914 19.1422C8.46321 19.1145 8.00903 19.0141 7.62962 18.8578L7.61025 18.8498C7.37077 18.7512 7.1633 18.6657 7.0002 18.6084C6.8727 18.5636 6.61726 18.474 6.3539 18.5064C6.10242 18.5373 5.89552 18.6664 5.78243 18.7396C5.65222 18.8239 5.49489 18.9399 5.32122 19.068L5.30355 19.081C4.764 19.4789 4.08642 19.7744 3.01768 19.7484C2.91937 19.746 2.8344 19.7439 2.75892 19.7413C2.81456 19.6302 2.88175 19.5028 2.96352 19.3479C3.4627 18.4019 3.95276 17.022 3.28442 15.812C3.2744 15.7939 3.26364 15.7761 3.25215 15.7589C2.48344 14.6046 1.87658 13.3027 1.78868 11.9425C1.73711 11.1445 1.73711 10.3171 1.78868 9.51909C2.0391 5.64418 5.07977 2.57198 8.87914 2.31942Z" fill="#007960"/>
</g>
</g>
</svg>
