<svg width="23" height="21" viewBox="0 0 23 21" fill="none" xmlns="http://www.w3.org/2000/svg">
<path fill-rule="evenodd" clip-rule="evenodd" d="M11.9998 2.24976C8.68541 2.24976 6.1309 4.37222 5.7888 6.91724C5.9325 6.97381 6.0772 7.04004 6.22548 7.1079L6.30953 7.1463L6.37492 7.17599C6.64762 7.29964 6.91474 7.42075 7.12782 7.60606C7.7507 8.14776 7.7501 8.86274 7.74976 9.27619L7.74975 13.7237C7.7501 14.1372 7.7507 14.8521 7.12782 15.3938C6.91474 15.5791 6.64762 15.7003 6.37493 15.8239L6.30953 15.8536L6.22548 15.892C5.86257 16.0581 5.52106 16.2144 5.16336 16.2433C4.11828 16.3278 3.5329 15.615 3.18899 15.1962L3.16094 15.162C3.07377 15.0562 2.96645 14.9318 2.85055 14.7975C2.63867 14.552 2.39815 14.2732 2.19979 14.0137C1.87214 13.5849 1.54381 13.0711 1.38072 12.474C1.20608 11.8348 1.20608 11.1651 1.38072 10.5259C1.49906 10.0926 1.71319 9.71034 1.99584 9.30908C2.26957 8.92051 2.63833 8.47262 3.09431 7.91878L3.11286 7.89626C3.13155 7.87355 3.15113 7.84946 3.17163 7.82423C3.40258 7.53998 3.751 7.11116 4.28025 6.89108C4.63591 3.36281 8.05582 0.749756 11.9998 0.749755C15.9437 0.749754 19.3636 3.36281 19.7193 6.89108C20.2485 7.11117 20.597 7.53998 20.8279 7.82423L20.8289 7.82543C20.849 7.85023 20.8683 7.87391 20.8867 7.89626L20.9052 7.91872C21.3612 8.47257 21.73 8.9205 22.0037 9.30908C22.2864 9.71034 22.5005 10.0926 22.6188 10.5259C22.7935 11.1651 22.7935 11.8348 22.6188 12.474C22.4557 13.0711 22.1274 13.5849 21.7997 14.0137C21.6014 14.2732 21.3609 14.5519 21.1491 14.7974C21.0332 14.9317 20.9258 15.0562 20.8386 15.162L20.8106 15.1962C20.5833 15.4729 20.2507 15.8779 19.7498 16.0966L19.7498 16.2998C19.7498 18.6288 17.4583 20.2498 14.9998 20.2498L12.9998 20.2498C12.5856 20.2498 12.2498 19.914 12.2498 19.4998C12.2498 19.0855 12.5856 18.7498 12.9998 18.7498L14.9998 18.7498C16.9595 18.7498 18.2498 17.5053 18.2498 16.2998L18.2498 16.0978C18.0932 16.0381 17.9358 15.966 17.7741 15.892L17.69 15.8536L17.6246 15.8239C17.3519 15.7003 17.0848 15.5791 16.8717 15.3938C16.2488 14.8521 16.2494 14.1372 16.2498 13.7237L16.2498 9.27619C16.2494 8.86274 16.2488 8.14776 16.8717 7.60606C17.0848 7.42075 17.3519 7.29963 17.6246 7.17599L17.69 7.1463L17.7741 7.1079C17.9223 7.04004 18.067 6.97381 18.2107 6.91724C17.8686 4.37222 15.3141 2.24975 11.9998 2.24976ZM19.0177 14.75C19.0117 14.7498 19.0057 14.7498 18.9998 14.7498C18.9953 14.7498 18.9907 14.7498 18.9862 14.7499C18.9768 14.7496 18.9671 14.749 18.9571 14.7482C18.8975 14.7434 18.815 14.7177 18.3118 14.4885C17.9282 14.3138 17.8819 14.2845 17.8561 14.262C17.8113 14.223 17.793 14.1909 17.778 14.1303C17.756 14.0411 17.7498 13.9225 17.7498 13.6955L17.7498 9.3044C17.7498 9.07737 17.756 8.9588 17.778 8.86957C17.793 8.80904 17.8113 8.77685 17.8561 8.73791C17.8819 8.7154 17.9282 8.68609 18.3118 8.51137C18.815 8.28216 18.8975 8.25653 18.9571 8.25171C18.9722 8.25048 18.9867 8.24983 19.0006 8.24976L19.0058 8.24976C19.1032 8.25027 19.1737 8.27992 19.2588 8.34359C19.3924 8.44355 19.5178 8.59356 19.7287 8.84967C20.2075 9.43127 20.54 9.83588 20.7774 10.1729C21.0096 10.5025 21.1176 10.7226 21.1719 10.9212C21.2758 11.3016 21.2758 11.6983 21.1719 12.0787C21.0832 12.4032 20.888 12.7363 20.6079 13.1029C20.4278 13.3386 20.2537 13.5393 20.0696 13.7517C19.946 13.8941 19.8179 14.0418 19.6806 14.2086C19.4856 14.4455 19.364 14.5818 19.2433 14.6677C19.1697 14.7201 19.1056 14.7474 19.0177 14.75ZM4.99891 8.24976L4.99371 8.24975C4.89639 8.25027 4.82585 8.27993 4.74074 8.34359C4.60713 8.44355 4.48173 8.59356 4.27087 8.84967C3.79204 9.43127 3.45955 9.83588 3.22214 10.1729C2.98996 10.5025 2.88194 10.7226 2.82769 10.9212C2.72375 11.3016 2.72376 11.6983 2.82769 12.0787C2.91634 12.4032 3.11153 12.7363 3.39165 13.1029C3.57173 13.3386 3.74585 13.5393 3.92998 13.7517C4.0535 13.8941 4.1816 14.0418 4.31896 14.2086C4.51395 14.4455 4.63552 14.5818 4.75629 14.6677C4.84572 14.7314 4.92122 14.758 5.04244 14.7482C5.10204 14.7434 5.18454 14.7177 5.68777 14.4885C6.07137 14.3138 6.1176 14.2845 6.14348 14.262C6.18826 14.223 6.20658 14.1909 6.22152 14.1303C6.24356 14.0411 6.24974 13.9225 6.24974 13.6955L6.24974 9.3044C6.24974 9.07737 6.24357 8.9588 6.22153 8.86957C6.20658 8.80904 6.18826 8.77685 6.14348 8.73791C6.1176 8.7154 6.07137 8.68609 5.68777 8.51137C5.18453 8.28216 5.10204 8.25653 5.04244 8.25171C5.0273 8.25048 5.01283 8.24983 4.99891 8.24976Z" fill="#0D121C"/>
</svg>
