<svg width="24" height="25" viewBox="0 0 24 25" fill="none" xmlns="http://www.w3.org/2000/svg">
<path fill-rule="evenodd" clip-rule="evenodd" d="M2.33223 3.15856C2.46045 2.90779 2.71836 2.75 3 2.75H8C8.24083 2.75 8.46701 2.86565 8.60801 3.06088L13.544 9.89534L20.4697 2.96967C20.7626 2.67678 21.2374 2.67678 21.5303 2.96967C21.8232 3.26256 21.8232 3.73744 21.5303 4.03033L14.4336 11.1271L21.608 21.0609C21.7729 21.2892 21.796 21.5907 21.6678 21.8414C21.5396 22.0922 21.2817 22.25 21 22.25H16C15.7592 22.25 15.533 22.1344 15.392 21.9391L10.456 15.1047L3.53033 22.0303C3.23744 22.3232 2.76257 22.3232 2.46967 22.0303C2.17678 21.7374 2.17678 21.2626 2.46967 20.9697L9.56641 13.8729L2.39199 3.93912C2.22709 3.71079 2.20401 3.40933 2.33223 3.15856ZM4.46682 4.25L16.3835 20.75H19.5332L7.61652 4.25H4.46682Z" fill="#0D121C"/>
</svg>
