<svg width="25" height="24" viewBox="0 0 25 24" fill="none" xmlns="http://www.w3.org/2000/svg">
<path fill-rule="evenodd" clip-rule="evenodd" d="M12.5 1.75C6.83908 1.75 2.25 6.33908 2.25 12C2.25 17.6609 6.83908 22.25 12.5 22.25C18.1609 22.25 22.75 17.6609 22.75 12C22.75 6.33908 18.1609 1.75 12.5 1.75ZM0.75 12C0.75 5.51065 6.01065 0.25 12.5 0.25C18.9893 0.25 24.25 5.51065 24.25 12C24.25 18.4893 18.9893 23.75 12.5 23.75C6.01065 23.75 0.75 18.4893 0.75 12Z" fill="#007960"/>
<path d="M5.57227 13.6508C5.57227 15.1541 6.4706 16.0341 8.0656 16.0341C9.86227 16.0341 10.6873 15.1266 10.6873 13.1374V7.48161C10.6873 7.24367 10.4944 7.05078 10.2564 7.05078C10.0185 7.05078 9.8256 7.24367 9.8256 7.48161V13.1374C9.8256 14.4666 9.44977 14.9249 8.38643 14.9249H7.75393C6.8556 14.9249 6.3056 14.4116 6.3056 13.5224C6.3056 13.1872 6.40136 12.7669 6.54831 12.3587C6.62124 12.1562 6.51753 11.9273 6.31146 11.8649C6.13621 11.8119 5.94815 11.8995 5.88619 12.0718C5.68976 12.6181 5.57227 13.1867 5.57227 13.6508Z" fill="#007960"/>
<path d="M11.9437 12.2208C11.9437 13.3849 12.4295 13.8341 13.6303 13.8341H14.0639C15.3564 13.8341 15.9706 13.2841 15.9706 12.1383C15.9706 11.8633 15.9339 11.4691 15.8606 10.9833L15.8007 10.583C15.7681 10.3644 15.5631 10.2145 15.3449 10.2496C15.1249 10.285 14.977 10.4944 15.0174 10.7135L15.0906 11.1116C15.1731 11.6341 15.2006 11.9274 15.2006 12.1383C15.2006 12.6424 14.8981 12.7983 14.0639 12.7983H13.8687H13.5662C13.0253 12.7983 12.7962 12.6424 12.7962 12.1383V7.47703C12.7962 7.24162 12.6053 7.05078 12.3699 7.05078C12.1345 7.05078 11.9437 7.24162 11.9437 7.47703V12.2208Z" fill="#007960"/>
<path d="M14.0272 15.5116C14.0272 15.8691 14.2106 16.0341 14.4856 16.0341H14.6231C14.8981 16.0341 15.0906 15.8691 15.0906 15.5116C15.0906 15.1449 14.8981 14.9891 14.6231 14.9891H14.4856C14.2106 14.9891 14.0272 15.1449 14.0272 15.5116Z" fill="#007960"/>
<path d="M12.7347 15.5116C12.7347 15.8691 12.9181 16.0341 13.1931 16.0341H13.3306C13.6056 16.0341 13.7981 15.8691 13.7981 15.5116C13.7981 15.1449 13.6056 14.9891 13.3306 14.9891H13.1931C12.9181 14.9891 12.7347 15.1449 12.7347 15.5116Z" fill="#007960"/>
<path d="M16.7141 15.3466V15.6766C16.7141 15.8741 16.8742 16.0341 17.0716 16.0341C18.795 16.0341 19.4825 14.8516 19.4825 13.3391C19.4825 12.9083 19.4275 12.3949 19.3266 11.8174L19.2652 11.449C19.2285 11.2285 19.0179 11.081 18.798 11.1219C18.583 11.1619 18.4401 11.3675 18.4775 11.583L18.6025 12.3033C18.6575 12.6608 18.7033 13.0183 18.7033 13.3483C18.7033 14.3383 18.3 14.9983 17.0625 14.9983C16.8701 14.9983 16.7141 15.1542 16.7141 15.3466Z" fill="#007960"/>
<path fill-rule="evenodd" clip-rule="evenodd" d="M6.08194 15.5511C5.60957 15.0966 5.37207 14.4433 5.37207 13.6516C5.37207 13.1579 5.49608 12.5659 5.6978 12.0049C5.79803 11.7261 6.09854 11.5924 6.36919 11.6743C6.69413 11.7726 6.84465 12.1263 6.73629 12.4273C6.59334 12.8243 6.5054 13.2202 6.5054 13.5232C6.5054 13.9258 6.62885 14.2196 6.83111 14.4135C7.03454 14.6086 7.34196 14.7257 7.75374 14.7257H8.38624C8.8949 14.7257 9.17863 14.6155 9.34902 14.4047C9.5297 14.1811 9.6254 13.7959 9.6254 13.1382V7.4824C9.6254 7.134 9.90784 6.85156 10.2562 6.85156C10.6046 6.85156 10.8871 7.134 10.8871 7.4824V13.1382C10.8871 14.1549 10.6771 14.9382 10.1982 15.4668C9.7154 15.9997 8.99517 16.2349 8.0654 16.2349C7.23215 16.2349 6.55326 16.0046 6.08194 15.5511ZM12.1988 13.6098C11.8684 13.2962 11.7435 12.8251 11.7435 12.2216V7.47781C11.7435 7.13194 12.0239 6.85156 12.3697 6.85156C12.7156 6.85156 12.996 7.13194 12.996 7.47781V12.1391C12.996 12.3659 13.0478 12.4568 13.1047 12.5032C13.1726 12.5587 13.3036 12.5991 13.566 12.5991H14.0637C14.4808 12.5991 14.7165 12.5577 14.8462 12.4841C14.9038 12.4515 14.9378 12.4138 14.96 12.3677C14.984 12.3182 15.0004 12.2465 15.0004 12.1391C15.0004 11.9447 14.975 11.6645 14.8932 11.1461L14.8205 10.7505C14.7599 10.421 14.9821 10.1061 15.3129 10.0529C15.6411 10.0001 15.9492 10.2255 15.9984 10.5542L16.0581 10.9542C16.1321 11.4441 16.1704 11.8495 16.1704 12.1391C16.1704 12.7467 16.0067 13.2346 15.6348 13.566C15.2676 13.8931 14.7333 14.0349 14.0637 14.0349H13.6301C13.0127 14.0349 12.5266 13.921 12.1988 13.6098ZM15.8604 10.9841L15.8006 10.5838C15.7679 10.3651 15.5629 10.2152 15.3447 10.2504C15.1247 10.2858 14.9769 10.4952 15.0172 10.7143L15.0904 11.1124C15.1729 11.6349 15.2004 11.9282 15.2004 12.1391C15.2004 12.6432 14.8979 12.7991 14.0637 12.7991H13.566C13.0251 12.7991 12.796 12.6432 12.796 12.1391V7.47781C12.796 7.2424 12.6051 7.05156 12.3697 7.05156C12.1343 7.05156 11.9435 7.2424 11.9435 7.47781V12.2216C11.9435 13.3857 12.4293 13.8349 13.6301 13.8349H14.0637C15.3562 13.8349 15.9704 13.2849 15.9704 12.1391C15.9704 11.8641 15.9337 11.4699 15.8604 10.9841ZM13.9112 15.1137C13.8844 15.0625 13.851 15.0157 13.8106 14.9742C13.68 14.84 13.5048 14.7899 13.3304 14.7899H13.1929C13.0182 14.7899 12.8439 14.8402 12.7153 14.9762C12.5882 15.1105 12.5345 15.2981 12.5345 15.5124C12.5345 15.7234 12.5888 15.9097 12.7144 16.0442C12.8416 16.1805 13.0151 16.2349 13.1929 16.2349H13.3304C13.5078 16.2349 13.6823 16.1808 13.8115 16.0462C13.8514 16.0046 13.8845 15.958 13.9112 15.907C13.9367 15.9571 13.9685 16.003 14.0069 16.0442C14.1341 16.1805 14.3076 16.2349 14.4854 16.2349H14.6229C14.8003 16.2349 14.9748 16.1808 15.104 16.0462C15.2324 15.9124 15.2904 15.7259 15.2904 15.5124C15.2904 15.2956 15.2331 15.1078 15.1031 14.9742C14.9725 14.84 14.7973 14.7899 14.6229 14.7899H14.4854C14.3107 14.7899 14.1364 14.8402 14.0078 14.9762C13.9689 15.0173 13.9369 15.0634 13.9112 15.1137ZM16.5139 15.6774V15.3474C16.5139 15.0446 16.7594 14.7991 17.0623 14.7991C17.6468 14.7991 17.9924 14.6439 18.197 14.4128C18.4058 14.1767 18.5031 13.8223 18.5031 13.3491C18.5031 13.0359 18.4595 12.6918 18.4049 12.3363L18.2802 11.618C18.2241 11.2946 18.4385 10.9861 18.7613 10.9261C19.0911 10.8647 19.4072 11.086 19.4623 11.4169L19.5235 11.7838C19.6253 12.3675 19.6823 12.8937 19.6823 13.3399C19.6823 14.1225 19.5049 14.8469 19.0794 15.3794C18.6478 15.9194 17.9831 16.2349 17.0714 16.2349C16.7635 16.2349 16.5139 15.9853 16.5139 15.6774ZM19.3264 11.8182L19.265 11.4498C19.2283 11.2293 19.0177 11.0818 18.7978 11.1227C18.5828 11.1627 18.4399 11.3683 18.4773 11.5838L18.6023 12.3041C18.6573 12.6616 18.7031 13.0191 18.7031 13.3491C18.7031 14.3391 18.2998 14.9991 17.0623 14.9991C16.8699 14.9991 16.7139 15.155 16.7139 15.3474V15.6774C16.7139 15.8748 16.874 16.0349 17.0714 16.0349C18.7948 16.0349 19.4823 14.8524 19.4823 13.3399C19.4823 12.9091 19.4273 12.3957 19.3264 11.8182ZM5.57207 13.6516C5.57207 15.1549 6.4704 16.0349 8.0654 16.0349C9.86207 16.0349 10.6871 15.1274 10.6871 13.1382V7.4824C10.6871 7.24445 10.4942 7.05156 10.2562 7.05156C10.0183 7.05156 9.8254 7.24445 9.8254 7.4824V13.1382C9.8254 14.4674 9.44957 14.9257 8.38624 14.9257H7.75374C6.8554 14.9257 6.3054 14.4124 6.3054 13.5232C6.3054 13.188 6.40117 12.7677 6.54811 12.3595C6.62104 12.1569 6.51733 11.9281 6.31126 11.8657C6.13601 11.8127 5.94795 11.9003 5.886 12.0726C5.68957 12.6189 5.57207 13.1874 5.57207 13.6516ZM14.4854 16.0349C14.2104 16.0349 14.027 15.8699 14.027 15.5124C14.027 15.1457 14.2104 14.9899 14.4854 14.9899H14.6229C14.8979 14.9899 15.0904 15.1457 15.0904 15.5124C15.0904 15.8699 14.8979 16.0349 14.6229 16.0349H14.4854ZM12.7345 15.5124C12.7345 15.8699 12.9179 16.0349 13.1929 16.0349H13.3304C13.6054 16.0349 13.7979 15.8699 13.7979 15.5124C13.7979 15.1457 13.6054 14.9899 13.3304 14.9899H13.1929C12.9179 14.9899 12.7345 15.1457 12.7345 15.5124Z" fill="#007960"/>
</svg>
