<svg width="25" height="24" viewBox="0 0 25 24" fill="none" xmlns="http://www.w3.org/2000/svg">
<path d="M14.4165 6C14.4165 5.58579 14.7523 5.25 15.1665 5.25L17.1665 5.25C17.5807 5.25 17.9165 5.58579 17.9165 6C17.9165 6.41421 17.5807 6.75 17.1665 6.75L15.1665 6.75C14.7523 6.75 14.4165 6.41421 14.4165 6Z" fill="#007960"/>
<path d="M6.4165 14C6.4165 13.5858 6.75229 13.25 7.1665 13.25H7.69282C8.10703 13.25 8.44282 13.5858 8.44282 14C8.44282 14.4142 8.10703 14.75 7.69282 14.75H7.1665C6.75229 14.75 6.4165 14.4142 6.4165 14Z" fill="#007960"/>
<path d="M11.1533 14C11.1533 13.5858 11.4891 13.25 11.9033 13.25H12.4297C12.8439 13.25 13.1797 13.5858 13.1797 14C13.1797 14.4142 12.8439 14.75 12.4297 14.75H11.9033C11.4891 14.75 11.1533 14.4142 11.1533 14Z" fill="#007960"/>
<path d="M15.8902 14C15.8902 13.5858 16.226 13.25 16.6402 13.25H17.1665C17.5807 13.25 17.9165 13.5858 17.9165 14C17.9165 14.4142 17.5807 14.75 17.1665 14.75H16.6402C16.226 14.75 15.8902 14.4142 15.8902 14Z" fill="#007960"/>
<path d="M7.1665 17.25C6.75229 17.25 6.4165 17.5858 6.4165 18C6.4165 18.4142 6.75229 18.75 7.1665 18.75H7.69282C8.10703 18.75 8.44282 18.4142 8.44282 18C8.44282 17.5858 8.10703 17.25 7.69282 17.25H7.1665Z" fill="#007960"/>
<path d="M11.9033 17.25C11.4891 17.25 11.1533 17.5858 11.1533 18C11.1533 18.4142 11.4891 18.75 11.9033 18.75H12.4297C12.8439 18.75 13.1797 18.4142 13.1797 18C13.1797 17.5858 12.8439 17.25 12.4297 17.25H11.9033Z" fill="#007960"/>
<path d="M16.6402 17.25C16.226 17.25 15.8902 17.5858 15.8902 18C15.8902 18.4142 16.226 18.75 16.6402 18.75H17.1665C17.5807 18.75 17.9165 18.4142 17.9165 18C17.9165 17.5858 17.5807 17.25 17.1665 17.25H16.6402Z" fill="#007960"/>
<path fill-rule="evenodd" clip-rule="evenodd" d="M12.2235 1.25H12.1096C10.0365 1.24999 8.40419 1.24997 7.12885 1.42144C5.82027 1.59738 4.77578 1.9661 3.95419 2.78769C3.13261 3.60928 2.76388 4.65376 2.58795 5.96234C2.41648 7.23769 2.41649 8.87002 2.4165 10.9431V13.0569C2.41649 15.13 2.41648 16.7623 2.58795 18.0377C2.76388 19.3462 3.13261 20.3907 3.95419 21.2123C4.77578 22.0339 5.82027 22.4026 7.12885 22.5786C8.4042 22.75 10.0365 22.75 12.1096 22.75H12.2234C14.2965 22.75 15.9288 22.75 17.2042 22.5786C18.5127 22.4026 19.5572 22.0339 20.3788 21.2123C21.2004 20.3907 21.5691 19.3462 21.7451 18.0377C21.9165 16.7623 21.9165 15.13 21.9165 13.0569V10.9431C21.9165 8.87002 21.9165 7.23769 21.7451 5.96234C21.5691 4.65376 21.2004 3.60928 20.3788 2.78769C19.5572 1.9661 18.5127 1.59738 17.2042 1.42144C15.9288 1.24997 14.2965 1.24999 12.2235 1.25ZM5.01485 3.84835C5.51129 3.35192 6.18647 3.06164 7.32872 2.90807C8.49254 2.75159 10.024 2.75 12.1665 2.75C14.309 2.75 15.8405 2.75159 17.0043 2.90807C18.1465 3.06164 18.8217 3.35192 19.3182 3.84835C19.8146 4.34478 20.1049 5.01997 20.2584 6.16221C20.3685 6.98117 20.402 7.98215 20.4121 9.25H3.92091C3.93105 7.98215 3.96446 6.98117 4.07457 6.16221C4.22814 5.01997 4.51842 4.34478 5.01485 3.84835ZM3.91652 10.75L3.9165 13C3.9165 15.1425 3.9181 16.674 4.07457 17.8378C4.22814 18.98 4.51842 19.6552 5.01485 20.1516C5.51129 20.6481 6.18647 20.9384 7.32872 21.0919C8.49254 21.2484 10.024 21.25 12.1665 21.25C14.309 21.25 15.8405 21.2484 17.0043 21.0919C18.1465 20.9384 18.8217 20.6481 19.3182 20.1516C19.8146 19.6552 20.1049 18.98 20.2584 17.8378C20.4149 16.674 20.4165 15.1425 20.4165 13L20.4165 10.75H3.91652Z" fill="#007960"/>
</svg>
