<svg width="1440" height="550" viewBox="0 0 1440 550" fill="none" xmlns="http://www.w3.org/2000/svg">
<g clip-path="url(#clip0_721_6532)">
<rect width="1440" height="550" fill="#102938"/>
<path d="M-29 736H2051.34V-335H-29V736Z" fill="#102938"/>
<mask id="mask0_721_6532" style="mask-type:luminance" maskUnits="userSpaceOnUse" x="607" y="161" width="226" height="144">
<path d="M832.844 161H607V304.722H832.844V161Z" fill="white"/>
</mask>
<g mask="url(#mask0_721_6532)">
<path d="M612.316 187.593C614.575 187.593 616.299 186.698 617.446 184.689H617.555C618.199 187.618 619.915 188.873 623.222 188.957H628.177H644.081C649.749 188.957 651.941 186.371 651.941 179.775C651.941 173.64 649.145 168.826 645.195 168.826C641.571 168.826 638.59 173.062 638.59 177.004C638.59 180.561 640.783 182.354 644.551 182.354C646.417 182.354 647.99 181.927 649.322 181.097L649.431 181.165C649.213 184.002 647.849 184.538 644.081 184.538H624.051C621.146 184.538 620.242 183.609 620.242 181.022V170.433H617.229V172.878L612.851 175.28C609.227 177.256 607 179.515 607 182.42C607 185.325 609.193 187.585 612.316 187.585M645.153 178.586C642.424 178.586 641.06 178.009 641.06 176.502C641.06 175.104 642.458 173.062 644.399 173.062C646.66 173.062 648.451 175.397 649.095 178.118C647.772 178.477 646.476 178.586 645.153 178.586ZM613.78 177.624L617.229 176.117V181.934C615.973 182.797 614.533 183.19 612.709 183.19C610.884 183.19 609.62 182.513 609.62 181.324C609.62 179.993 610.842 178.954 613.78 177.624Z" fill="white"/>
<path d="M612.852 168.358L614.827 166.424L616.836 168.358H617.196L619.566 166.03L617.196 163.662H616.836L614.827 165.637L612.852 163.662H612.492L610.09 166.03L612.492 168.358H612.852Z" fill="white"/>
<path d="M645.008 165.705L647.378 163.369L645.008 161H644.648L642.246 163.369L644.648 165.705H645.008Z" fill="white"/>
<path d="M662.241 188.957H664.97C667.196 188.957 669.239 188.598 670.996 187.92C672.721 188.564 674.655 188.957 676.706 188.957H678.354C680.808 188.95 682.49 188.045 683.661 186.12C684.524 188.062 686.206 188.957 688.827 188.957H690.048C694.35 188.957 696.762 186.262 696.762 181.457V162.222H693.464V181.382C693.464 183.575 692.316 184.538 689.696 184.538H689.663C686.825 184.538 685.645 183.818 685.645 181.449V177.499H682.917V181.625C682.917 182.345 682.958 183.023 683.025 183.634C681.988 184.279 680.69 184.529 679.149 184.529H675.885C677.032 183.09 677.676 181.374 677.676 179.432C677.676 175.699 674.99 172.258 671.432 172.258C667.875 172.258 664.686 176.276 664.686 180.336C664.686 181.843 665.263 183.274 666.225 184.538H663.07C660.341 184.538 659.227 183.566 659.227 181.273V162.214H655.922V181.449C655.922 186.655 657.822 188.95 662.241 188.95M670.703 176.761C673.215 176.761 675.224 178.77 675.224 181.064C675.224 182.429 673.751 183.752 671.851 184.295C669.23 183.609 667.113 181.6 667.113 179.624C667.113 178.042 668.695 176.753 670.703 176.753" fill="white"/>
<path d="M669.239 169.153L671.206 167.211L673.215 169.153H673.574L675.944 166.817L673.574 164.448H673.215L671.206 166.424L669.239 164.448H668.878L666.477 166.817L668.878 169.153H669.239Z" fill="white"/>
<path d="M682.297 174.393L684.274 172.451L686.282 174.393H686.642L689.011 172.058L686.642 169.689H686.282L684.274 171.664L682.297 169.689H681.938L679.535 172.058L681.938 174.393H682.297Z" fill="white"/>
<path d="M684.446 170.049L686.74 167.789L684.446 165.562H684.087L681.793 167.789L684.087 170.049H684.446Z" fill="white"/>
<path d="M705.264 162.222H701.957V188.957H705.264V162.222Z" fill="white"/>
<path d="M724.914 188.598L727.325 190.933H727.685L730.053 188.598L727.685 186.229H727.325L724.914 188.598Z" fill="white"/>
<path d="M729.764 177.222C721.478 180.704 717.242 184.898 717.242 190.607C717.242 196.676 721.762 200.617 729.011 200.617C732.778 200.617 736.335 199.546 738.553 197.68V194.122H738.227C735.75 195.194 732.845 195.88 729.723 195.88C723.663 195.88 720.071 193.226 720.071 189.384C720.071 185.149 723.947 182.102 730.769 179.8L732.56 179.156V181.633C732.56 186.689 734.352 188.957 738.478 188.957H754.474C756.843 188.957 758.384 188.38 759.572 186.807L769.374 189.25C770.127 189.426 770.663 189.141 770.881 188.421L771.099 187.735C771.709 185.836 772.17 183.643 772.17 181.993C772.17 177.397 769.943 174.669 766.46 174.669C763.807 174.669 762.05 176.36 759.932 180.588L759.103 182.236C758.275 183.927 757.412 184.529 755.295 184.529H739.29C736.385 184.529 735.164 183.809 735.164 181.441V178.318L737.85 177.423V173.229H737.382C735.439 173.229 734.544 173.154 732.175 172.978L722.197 172.04C719.294 171.79 718.389 172.719 718.389 174.912V178.645H720.683V178.034C720.683 176.494 721.26 176.343 722.44 176.385L730.518 176.745V176.887L729.731 177.213L729.764 177.222ZM761.773 182.571C762.92 180.168 764.251 179.022 766.117 179.022C768.344 179.022 769.708 180.453 769.708 182.713C769.708 183.249 769.676 183.752 769.567 184.153C769.458 184.546 769.173 184.689 768.629 184.58L761.631 182.889L761.773 182.563V182.571Z" fill="white"/>
<path d="M782.515 188.957H798.946C803.249 188.957 805.265 186.555 805.265 181.457C805.265 179.842 805.015 177.615 804.621 175.356H801.608L801.465 175.531C802.001 178.118 802.328 180.336 802.328 181.734C802.328 183.675 801.29 184.538 798.954 184.538H783.343C780.615 184.538 779.501 183.566 779.501 181.273V162.214H776.195V181.449C776.195 186.655 778.095 188.95 782.515 188.95" fill="white"/>
<path d="M802.778 172.233L805.147 169.906L802.778 167.537H802.427L800.016 169.906L802.427 172.233H802.778Z" fill="white"/>
<path d="M832.203 175.356H829.189L829.048 175.531C829.583 178.118 829.909 180.336 829.909 181.742C829.909 183.684 828.871 184.538 826.536 184.538H820.87C817.965 184.538 816.634 183.752 816.099 181.449L815.378 178.578H812.398L812.222 178.754C813.227 182.202 813.696 184.529 813.696 185.861C813.696 190.564 811.001 193.753 807.451 193.753C806.196 193.753 804.907 193.469 803.434 192.858L803.148 193.11V195.553C804.689 197.135 806.446 198.106 808.531 198.106C812.298 198.106 815.495 193.837 816.106 187.735L816.181 187.702C817.111 188.564 818.408 188.957 820.057 188.957H826.553C830.855 188.957 832.873 186.555 832.873 181.457C832.873 179.842 832.621 177.615 832.228 175.356" fill="white"/>
<path d="M829.122 196.751L831.49 194.415L829.122 192.046H828.761L826.359 194.415L828.761 196.751H829.122Z" fill="white"/>
<path d="M616.895 206.904L614.886 208.879L612.911 206.904H612.55L610.148 209.273L612.55 211.609H612.911L614.886 209.666L616.895 211.609H617.255L619.623 209.273L617.255 206.904H616.895Z" fill="white"/>
<path d="M622.339 232.2H630.232C635.899 232.2 638.092 229.613 638.092 223.017C638.092 216.882 635.296 212.068 631.345 212.068C627.72 212.068 624.742 216.303 624.742 220.255C624.742 223.804 626.934 225.604 630.701 225.604C632.568 225.604 634.141 225.177 635.472 224.348L635.581 224.424C635.372 227.261 634.007 227.797 630.232 227.797H623.167C620.263 227.797 620.313 226.867 620.313 224.281V213.693H617.3V216.137L612.921 218.539C609.297 220.514 607.07 222.774 607.07 225.679C607.07 228.583 609.264 230.852 612.386 230.852C614.646 230.852 616.371 229.956 617.517 227.947H617.626C618.271 230.877 619.041 232.132 622.347 232.216L622.339 232.2ZM631.311 221.828C628.583 221.828 627.219 221.251 627.219 219.753C627.219 218.355 628.617 216.303 630.559 216.303C632.818 216.303 634.609 218.639 635.263 221.369C633.94 221.728 632.643 221.828 631.311 221.828ZM617.291 225.168C616.035 226.031 614.596 226.424 612.771 226.424C610.946 226.424 609.682 225.738 609.682 224.558C609.682 223.226 610.905 222.188 613.843 220.858L617.291 219.351V225.168Z" fill="white"/>
<path d="M630.806 204.25L628.395 206.62L630.806 208.946H631.157L633.535 206.62L631.157 204.25H630.806Z" fill="white"/>
<path d="M652.149 239.992L654.124 238.05L656.133 239.992H656.493L658.861 237.657L656.493 235.288H656.133L654.124 237.264L652.149 235.288H651.789L649.387 237.657L651.789 239.992H652.149Z" fill="white"/>
<path d="M677.742 209.348L675.34 211.717L677.742 214.044H678.102L680.47 211.717L678.102 209.348H677.742Z" fill="white"/>
<path d="M694.139 224.633C694.139 226.817 692.993 227.788 690.373 227.788C689.008 227.788 687.686 227.538 686.572 227.068C686.782 226.382 686.89 225.67 686.89 224.876C686.89 220.715 683.626 217.158 679.357 217.158C675.95 217.158 673.507 218.916 670.175 222.867L666.868 226.776C666.509 226.315 666.291 225.629 666.291 224.733V222.649H663.562V224.909C663.562 225.629 663.604 226.274 663.67 226.884C662.633 227.529 661.335 227.781 659.795 227.781H659.762C656.924 227.781 655.744 227.06 655.744 224.692V220.74H653.015V224.867C653.015 225.587 653.057 226.265 653.124 226.876C652.086 227.52 650.789 227.772 649.248 227.772H649.215C646.486 227.772 645.373 226.801 645.373 224.508V205.447H642.066V224.683C642.066 229.89 643.966 232.183 648.386 232.183H648.42C650.898 232.183 652.58 231.288 653.769 229.345C654.631 231.288 656.313 232.183 658.933 232.183H658.967C661.444 232.183 663.16 231.288 664.315 229.345C665.211 231.288 666.968 232.183 669.664 232.183H678.889C681.19 232.183 683.124 231.463 684.522 230.241C686.054 231.454 687.829 232.166 689.545 232.175H690.733C695.035 232.175 697.446 229.488 697.446 224.674V205.439H694.148V224.599L694.139 224.633ZM679.751 227.788H670.493C670.057 227.788 669.706 227.788 669.304 227.754L669.271 227.613L670.886 225.779C673.43 222.908 675.766 221.578 678.821 221.578C681.876 221.578 684.422 223.369 684.422 225.922C684.422 227.286 683.274 227.788 679.758 227.788" fill="white"/>
<path d="M705.94 205.472H702.633V232.208H705.94V205.472Z" fill="white"/>
<path d="M731.52 214.798L733.496 212.864L735.505 214.798H735.864L738.234 212.462L735.864 210.102H735.505L733.496 212.068L731.52 210.102H731.168L728.758 212.462L731.168 214.798H731.52Z" fill="white"/>
<path d="M749.822 212.068C746.197 212.068 743.217 216.303 743.217 220.246C743.217 223.804 745.411 225.595 749.177 225.595C751.044 225.595 752.618 225.169 753.949 224.34L754.057 224.415C753.84 227.252 752.475 227.788 748.709 227.788H740.246C739.887 222.155 737.191 217.919 733.534 217.919C729.875 217.919 726.861 222.331 726.861 226.608C726.861 230.232 729.264 232.208 733.215 232.208H737.559C736.839 235.112 734.58 236.084 729.415 236.084C723.999 236.084 720.91 233.857 720.91 229.981C720.91 228.542 721.162 226.968 721.588 225.353V225.068H718.969C718.324 227.186 718.031 229.228 718.031 231.095C718.031 237.196 722.233 240.821 729.34 240.821C735.659 240.821 739.242 238.025 740.103 232.208H748.709C754.375 232.208 756.568 229.622 756.568 223.026C756.568 216.89 753.773 212.077 749.822 212.077M749.788 221.828C747.06 221.828 745.695 221.251 745.695 219.753C745.695 218.355 747.093 216.303 749.035 216.303C751.295 216.303 753.086 218.639 753.731 221.36C752.409 221.719 751.111 221.828 749.788 221.828ZM733.541 227.788C730.704 227.788 729.34 227.252 729.34 225.779C729.34 224.306 730.704 222.297 732.713 222.297C735.082 222.297 736.982 224.808 737.551 227.788H733.534H733.541Z" fill="white"/>
<path d="M752.013 206.62L749.645 204.25H749.285L746.883 206.62L749.285 208.946H749.645L752.013 206.62Z" fill="white"/>
<path d="M763.854 205.472H760.547V232.208H763.854V205.472Z" fill="white"/>
<path d="M771.925 222.013C772.93 225.461 773.398 227.788 773.398 229.12C773.398 233.823 770.711 237.012 767.153 237.012C765.898 237.012 764.609 236.728 763.136 236.117L762.852 236.368V238.812C764.391 240.386 766.15 241.357 768.233 241.357C772 241.357 775.198 237.088 775.808 230.986L775.876 230.952C776.813 231.815 778.102 232.208 779.751 232.208C782.12 232.208 783.661 231.63 784.849 230.057L794.651 232.5C795.405 232.677 795.94 232.392 796.157 231.672L796.375 230.986C796.987 229.086 797.446 226.893 797.446 225.244C797.446 220.648 795.219 217.919 791.737 217.919C789.084 217.919 787.327 219.61 785.209 223.837L784.38 225.486C783.552 227.169 782.69 227.779 780.572 227.779C777.667 227.779 776.336 226.993 775.801 224.692L775.081 221.82H772.101L771.925 221.996V222.013ZM787.034 225.813C788.18 223.41 789.511 222.264 791.378 222.264C793.605 222.264 794.969 223.695 794.969 225.956C794.969 226.491 794.935 226.993 794.826 227.395C794.717 227.788 794.433 227.931 793.889 227.822L786.891 226.131L787.034 225.804V225.813Z" fill="white"/>
<path d="M825.355 202.886L822.953 205.255L825.355 207.582H825.715L828.084 205.255L825.715 202.886H825.355Z" fill="white"/>
<path d="M823.313 248.422H823.673L826.041 246.094L823.673 243.726H823.313L821.304 245.692L819.329 243.726H818.968L816.566 246.094L818.968 248.422H819.329L821.304 246.488L823.313 248.422Z" fill="white"/>
<path d="M811.608 223.519H809.131C808.662 225.168 808.344 227.504 808.344 229.797C808.344 237.08 812.688 240.637 820.941 240.637C828.266 240.637 832.601 237.699 832.601 233.137C832.601 231.27 831.672 229.872 829.588 228.935V228.826C831.781 227.713 832.601 225.486 832.601 221.644C832.601 215.542 829.839 210.696 825.889 210.696C822.23 210.696 819.25 214.964 819.25 218.983C819.25 222.465 821.477 224.222 825.21 224.222C827.077 224.222 828.692 223.829 829.948 223.001L830.09 223.076C829.873 226.013 828.475 226.951 824.423 226.667L821.302 226.415L821.125 226.633V230.827L824.173 231.045C828.985 231.371 830.132 232.082 830.132 233.162C830.132 234.778 826.725 235.782 821.234 235.782C814.379 235.782 811.081 233.589 811.081 228.818C811.081 227.127 811.299 225.26 811.617 223.796V223.511L811.608 223.519ZM825.855 220.472C823.126 220.472 821.728 219.895 821.728 218.389C821.728 216.99 823.126 214.939 825.101 214.939C827.394 214.939 829.228 217.233 829.873 219.996C828.508 220.322 827.185 220.464 825.855 220.464" fill="white"/>
<path d="M830.228 295.23H706.496V297.096H830.228V295.23Z" fill="white"/>
<path d="M613.752 259.68C615.4 259.68 616.128 260.475 616.639 261.103L618.857 258.634C618.439 258.165 617.058 256.809 613.994 256.809C609.441 256.809 607.105 260.057 607.105 264.962C607.105 269.608 608.972 272.805 613.743 272.805C616.43 272.805 618.003 271.783 618.673 270.98L616.807 268.578C616.337 269.13 615.476 269.892 614.028 269.892C611.7 269.892 610.587 267.958 610.587 264.735C610.587 261.245 611.65 259.671 613.743 259.671" fill="white"/>
<path d="M624.656 272.83C626.23 272.83 627.234 272.319 627.963 271.432H628.054L628.523 272.587H631.37V260.04H628.013V268.728C627.837 269.13 627.302 270.235 625.836 270.235C624.706 270.235 624.036 269.524 624.036 268.151V260.04H620.68V268.46C620.68 271.44 621.969 272.838 624.656 272.838" fill="white"/>
<path d="M634.383 255.745V269.499C634.383 271.583 635.605 272.788 637.648 272.788C638.384 272.788 638.845 272.629 639.246 272.478V269.833C639.137 269.858 639.029 269.876 638.777 269.876C638.159 269.876 637.731 269.565 637.731 268.637V255.754H634.375L634.383 255.745Z" fill="white"/>
<path d="M645.331 272.696C647.415 272.696 648.395 272.228 648.822 271.917L647.951 269.406C647.465 269.783 646.771 269.958 646.244 269.958C645.424 269.958 644.929 269.515 644.929 268.644V262.576H648.06V260.023H644.929V256.868H642.795L641.64 259.822L640.016 260.491V262.576H641.615V268.553C641.615 271.599 643.172 272.688 645.322 272.688" fill="white"/>
<path d="M657.524 271.424H657.617L658.085 272.579H660.931V260.032H657.574V268.721C657.399 269.122 656.863 270.235 655.399 270.235C654.269 270.235 653.599 269.524 653.599 268.142V260.032H650.242V268.453C650.242 271.433 651.531 272.83 654.218 272.83C655.8 272.83 656.796 272.319 657.524 271.433" fill="white"/>
<path d="M667.28 264.075C668.016 263.471 669.171 263.078 670.209 263.078C670.653 263.078 671.205 263.103 671.657 263.187V259.881C671.364 259.814 670.946 259.772 670.594 259.772C668.946 259.772 667.866 260.659 667.346 261.882H667.263L666.577 260.04H663.957V272.587H667.288V264.075H667.28Z" fill="white"/>
<path d="M683.518 264.878C683.518 261.814 681.675 259.789 678.479 259.789C674.854 259.789 672.594 262.208 672.594 266.276C672.594 270.612 674.611 272.83 678.57 272.83C680.973 272.83 682.186 272.228 683.166 271.432L681.702 269.055C681.232 269.549 680.304 270.185 678.947 270.185C676.813 270.185 675.925 269.097 675.883 267.121H683.366C683.5 266.142 683.525 265.523 683.525 264.878M680.361 264.894H675.942C675.984 263.43 676.872 262.316 678.386 262.316C679.743 262.316 680.361 263.095 680.361 264.56V264.894Z" fill="white"/>
<path d="M693.874 254.766C692.811 254.766 691.965 255.612 691.965 256.767C691.965 257.813 692.811 258.65 693.874 258.65C695.004 258.65 695.849 257.805 695.849 256.767C695.849 255.612 695.004 254.766 693.874 254.766Z" fill="white"/>
<path d="M695.603 260.032H692.246V272.579H695.603V260.032Z" fill="white"/>
<path d="M709.307 272.579V263.891C709.307 261.07 707.91 259.713 705.466 259.713C704.152 259.713 702.845 260.291 702.092 261.203H702.009L701.34 260.023H698.719V272.571H702.076V264.041C702.452 263.128 703.256 262.551 704.227 262.551C705.357 262.551 705.959 263.305 705.959 264.593V272.571H709.316L709.307 272.579Z" fill="white"/>
<path d="M731.256 272.579V257.009H727.858V263.405H722.191V257.009H718.793V272.579H722.191V266.209H727.858V272.579H731.256Z" fill="white"/>
<path d="M733.898 266.36C733.898 270.244 735.254 272.822 739.566 272.822C743.876 272.822 745.366 270.135 745.366 266.267C745.366 262.4 744.01 259.805 739.682 259.805C735.355 259.805 733.907 262.493 733.907 266.36M741.909 266.41C741.909 268.963 741.373 270.21 739.666 270.21C737.957 270.21 737.33 268.837 737.33 266.234C737.33 263.63 738 262.434 739.532 262.434C741.264 262.434 741.909 263.807 741.909 266.41Z" fill="white"/>
<path d="M751.689 270.16C750.182 270.16 748.96 269.247 748.4 268.603L746.398 270.913C747.085 271.649 748.751 272.805 751.505 272.805C755.146 272.805 756.46 270.562 756.46 268.896C756.46 264.702 750.551 265.364 750.551 263.48C750.551 262.903 751.044 262.501 751.798 262.501C752.953 262.501 753.823 263.162 754.267 263.682L756.419 261.571C755.598 260.618 754.15 259.814 751.89 259.814C748.977 259.814 747.227 261.655 747.227 263.698C747.227 267.874 753.137 267.272 753.137 269.097C753.137 269.674 752.735 270.16 751.698 270.16" fill="white"/>
<path d="M758.722 276.89H762.054V272.445C762.657 272.579 763.252 272.646 763.988 272.646C767.009 272.646 769.63 270.403 769.63 265.782C769.63 261.873 767.738 259.805 764.984 259.805C763.411 259.805 762.456 260.543 761.988 261.095H761.895L761.184 260.023H758.715V276.881L758.722 276.89ZM762.013 263.471C762.415 262.869 763.101 262.518 763.854 262.518C765.168 262.518 766.215 263.58 766.215 266.075C766.215 269.005 765.218 269.942 763.595 269.942C763.259 269.942 762.506 269.851 762.02 269.565V263.48L762.013 263.471Z" fill="white"/>
<path d="M773.701 254.766C772.638 254.766 771.793 255.612 771.793 256.767C771.793 257.813 772.638 258.65 773.701 258.65C774.831 258.65 775.677 257.805 775.677 256.767C775.677 255.612 774.831 254.766 773.701 254.766Z" fill="white"/>
<path d="M775.431 260.032H772.074V272.579H775.431V260.032Z" fill="white"/>
<path d="M782.515 272.696C784.599 272.696 785.579 272.228 786.005 271.917L785.135 269.406C784.65 269.783 783.954 269.958 783.427 269.958C782.607 269.958 782.113 269.515 782.113 268.644V262.576H785.243V260.023H782.113V256.868H779.979L778.824 259.822L777.199 260.491V262.576H778.799V268.553C778.799 271.599 780.356 272.688 782.507 272.688" fill="white"/>
<path d="M786.786 269.314C786.786 271.114 788.05 272.78 790.495 272.78C792.294 272.78 793.223 272.001 793.691 271.382H793.775C794.152 272.16 794.839 272.738 796.044 272.738C796.596 272.738 797.174 272.646 797.71 272.319V270.01H797.358C796.755 270.01 796.487 269.699 796.487 268.988V263.966C796.487 260.919 794.713 259.814 791.516 259.814C788.736 259.814 787.497 261.48 787.004 262.175L789.381 263.932C789.691 263.196 790.336 262.509 791.532 262.509C792.553 262.509 793.332 262.928 793.332 264.334V265.314C789.381 265.112 786.777 266.444 786.777 269.331M793.332 269.34C792.955 269.85 792.218 270.226 791.398 270.226C790.527 270.226 790.043 269.716 790.043 269.005C790.043 267.917 791.13 267.406 793.332 267.557V269.331V269.34Z" fill="white"/>
<path d="M799.626 255.745V269.499C799.626 271.583 800.848 272.788 802.89 272.788C803.627 272.788 804.088 272.629 804.49 272.478V269.833C804.381 269.858 804.272 269.876 804.02 269.876C803.401 269.876 802.974 269.565 802.974 268.637V255.754H799.617L799.626 255.745Z" fill="white"/>
<path d="M806.395 256.767C806.395 257.813 807.239 258.659 808.303 258.659C809.433 258.659 810.278 257.813 810.278 256.767C810.278 255.612 809.433 254.766 808.303 254.766C807.239 254.766 806.395 255.612 806.395 256.767Z" fill="white"/>
<path d="M810.031 260.032H806.676V272.579H810.031V260.032Z" fill="white"/>
<path d="M817.128 272.696C819.212 272.696 820.192 272.228 820.619 271.917L819.749 269.406C819.263 269.783 818.569 269.958 818.04 269.958C817.221 269.958 816.726 269.515 816.726 268.644V262.576H819.857V260.023H816.726V256.868H814.592L813.437 259.822L811.812 260.491V262.576H813.412V268.553C813.412 271.599 814.969 272.688 817.12 272.688" fill="white"/>
<path d="M829.138 260.032L827.959 264.292C827.49 265.983 827.205 267.532 827.029 268.67H826.938C826.779 267.598 826.293 265.715 825.824 264.292L824.426 260.032H820.676L825.381 272.537C825.272 273.801 824.56 274.488 823.354 274.488C822.802 274.488 822.333 274.354 821.999 274.178L821.446 276.931C821.756 277.09 822.601 277.308 823.488 277.308C826.418 277.308 827.665 275.4 828.377 273.199L832.596 260.023H829.13L829.138 260.032Z" fill="white"/>
<path d="M613.215 284.599H607.883V300.168H611.281V294.635H612.57C617.123 294.635 618.655 292.124 618.655 289.219C618.655 285.779 616.37 284.599 613.215 284.599ZM612.394 291.864H611.281V287.47H612.662C614.395 287.47 615.148 288.157 615.148 289.689C615.148 290.885 614.663 291.864 612.394 291.864Z" fill="white"/>
<path d="M624.297 289.462H624.204L623.518 287.621H620.898V300.168H624.229V291.664C624.966 291.061 626.121 290.667 627.159 290.667C627.603 290.667 628.155 290.693 628.607 290.776V287.47C628.314 287.403 627.896 287.361 627.544 287.361C625.904 287.361 624.816 288.248 624.305 289.471" fill="white"/>
<path d="M635.319 287.395C631.167 287.395 629.543 290.082 629.543 293.949C629.543 297.817 630.9 300.411 635.21 300.411C639.521 300.411 641.01 297.724 641.01 293.857C641.01 289.989 639.655 287.395 635.327 287.395M635.319 297.79C633.628 297.79 632.984 296.419 632.984 293.815C632.984 291.212 633.644 290.014 635.185 290.014C636.917 290.014 637.562 291.387 637.562 293.991C637.562 296.594 637.026 297.79 635.319 297.79Z" fill="white"/>
<path d="M642.693 293.857C642.693 298.369 645.02 299.658 647.623 299.658C648.753 299.658 649.623 299.365 650.093 298.946H650.176V299.59C650.176 301.365 649.439 302.01 647.707 302.01C646.393 302.01 645.179 301.407 644.552 300.545L642.668 303.014C643.379 303.859 644.618 304.722 647.707 304.722C651.064 304.722 653.457 303.031 653.457 299.615V288.223C652.344 287.737 650.989 287.47 648.795 287.47C644.686 287.47 642.684 290.333 642.684 293.865M650.151 296.301C649.732 296.719 649.13 296.946 648.393 296.946C646.903 296.946 646.016 296.301 646.016 293.723C646.016 291.321 647.012 290.107 648.77 290.107C649.305 290.107 649.682 290.174 650.143 290.325V296.301H650.151Z" fill="white"/>
<path d="M659.886 289.462H659.795L659.109 287.621H656.488V300.168H659.82V291.664C660.556 291.061 661.711 290.667 662.75 290.667C663.193 290.667 663.754 290.693 664.198 290.776V287.47C663.905 287.403 663.486 287.361 663.134 287.361C661.495 287.361 660.406 288.248 659.895 289.471" fill="white"/>
<path d="M674.409 296.569V291.546C674.409 288.5 672.634 287.395 669.437 287.395C666.658 287.395 665.419 289.06 664.926 289.755L667.303 291.513C667.613 290.776 668.257 290.09 669.454 290.09C670.475 290.09 671.254 290.509 671.254 291.907V292.885C667.303 292.685 664.699 294.016 664.699 296.904C664.699 298.703 665.963 300.369 668.408 300.369C670.207 300.369 671.136 299.59 671.606 298.971H671.689C672.065 299.749 672.752 300.327 673.957 300.327C674.509 300.327 675.087 300.235 675.623 299.908V297.599H675.263C674.661 297.599 674.393 297.288 674.393 296.577M671.254 296.929C670.877 297.44 670.14 297.817 669.32 297.817C668.449 297.817 667.963 297.306 667.963 296.594C667.963 295.506 669.052 294.995 671.254 295.146V296.92V296.929Z" fill="white"/>
<path d="M691.157 287.328C689.383 287.328 688.11 288.148 687.475 289.019H687.382C686.939 288.132 686.16 287.328 684.252 287.328C683.004 287.328 681.716 287.796 680.945 288.793H680.854L680.3 287.612H677.547V300.16H680.904V291.63C681.213 290.81 682.016 290.14 682.837 290.14C683.993 290.14 684.611 290.869 684.611 292.342V300.16H687.968V291.589C688.344 290.701 689.216 290.149 690.06 290.149C690.906 290.149 691.685 290.634 691.685 292.099V300.16H695.042V291.496C695.042 288.634 693.644 287.319 691.174 287.319" fill="white"/>
</g>
<path d="M147.998 422.48V413.15H137.907V403.758H127.815V394.366H118.905V403.758H108.814V413.15H98.6914V422.48H147.998Z" fill="#E9593E"/>
<path d="M-17.8324 419.933V429.295H-8.34737L-1.63862 435.917L5.07014 429.295H14.5551V419.933L21.2639 413.325L14.5551 406.69V397.329H5.07014L-1.63862 390.708L-8.34737 397.329H-17.8324V406.69L-24.5547 413.325L-17.8324 419.933Z" fill="#8FB7B2"/>
<path d="M489.67 422.588V413.257H479.579V403.866H469.487V394.473H460.577V403.866H450.485V413.257H440.363V422.588H489.67Z" fill="#E9593E"/>
<path d="M306.485 417.189V426.551H315.97L322.679 433.173L329.388 426.551H338.873V417.189L345.581 410.581L338.873 403.946V394.585H329.388L322.679 387.964L315.97 394.585H306.485V403.946L299.762 410.581L306.485 417.189Z" fill="#8FB7B2"/>
<path d="M370.645 394.366H415.455L392.937 426.827L370.645 394.366Z" fill="#8FB7B2"/>
<path d="M282.022 486.274H237.211L259.728 453.812L282.022 486.274Z" fill="#8FB7B2"/>
<path d="M299.762 467.531V476.861H309.853V486.253H319.945V495.645H328.854V486.253H338.945V476.861H349.068V467.531H299.762Z" fill="#8FB7B2"/>
<path d="M-24.5547 453.812V463.143H-14.4637V472.534H-4.37216V481.926H4.53771V472.534H14.6293V463.143H24.7511V453.812H-24.5547Z" fill="#8FB7B2"/>
<path d="M202.646 406.69V397.329H193.162L186.453 390.708L179.744 397.329H170.259V406.69L163.551 413.298L170.259 419.933V429.295H179.744L186.453 435.917L193.162 429.295H202.646V419.933L209.369 413.298L202.646 406.69Z" fill="#8FB7B2"/>
<path d="M657.789 419.869V429.23H667.273L673.982 435.851L680.691 429.23H690.176V419.869L696.884 413.261L690.176 406.626V397.264H680.691L673.982 390.643L667.273 397.264H657.789V406.626L651.066 413.261L657.789 419.869Z" fill="#8FB7B2"/>
<path d="M521.929 419.933V429.295H531.415L538.123 435.917L544.832 429.295H554.317V419.933L561.026 413.325L554.317 406.69V397.329H544.832L538.123 390.708L531.415 397.329H521.929V406.69L515.207 413.325L521.929 419.933Z" fill="#8FB7B2"/>
<path d="M515.207 467.531V476.861H525.298V486.253H535.39V495.645H544.3V486.253H554.391V476.861H564.513V467.531H515.207Z" fill="#8FB7B2"/>
<path d="M37.9961 395.28H82.8066L60.289 427.741L37.9961 395.28Z" fill="#8FB7B2"/>
<path d="M409.748 469.796V460.434H400.263L393.554 453.812L386.846 460.434H377.36V469.796L370.652 476.404L377.36 483.039V492.4H386.846L393.554 499.021L400.263 492.4H409.748V483.039L416.47 476.404L409.748 469.796Z" fill="#8FB7B2"/>
<path d="M284.208 423.394V414.064H274.117V404.672H264.026V395.28H255.116V404.672H245.024V414.064H234.902V423.394H284.208Z" fill="#8FB7B2"/>
<path d="M77.0924 461.107V451.746H67.6074L60.8987 445.124L54.1898 451.746H44.705V461.107L37.9961 467.715L44.705 474.35V483.712H54.1898L60.8987 490.333L67.6074 483.712H77.0924V474.35L83.8148 467.715L77.0924 461.107Z" fill="#8FB7B2"/>
<path d="M648.586 467.67V477H658.677V486.391H668.769V495.783H677.679V486.391H687.77V477H697.892V467.67H648.586Z" fill="#8FB7B2"/>
<path d="M164.016 458.385V467.716H174.107V477.107H184.199V486.499H193.108V477.107H203.2V467.716H213.322V458.385H164.016Z" fill="#8FB7B2"/>
<path d="M626.188 423.487V414.157H616.097V404.766H606.006V395.374H597.096V404.766H587.004V414.157H576.883V423.487H626.188Z" fill="#8FB7B2"/>
<path d="M622.858 486.456H578.047L600.564 453.994L622.858 486.456Z" fill="#8FB7B2"/>
<path d="M490.986 486.274H446.176L468.693 453.812L490.986 486.274Z" fill="#6E1946"/>
<path d="M146.279 481.701H101.469L123.986 449.239L146.279 481.701Z" fill="#6E1946"/>
<path d="M960.672 422.48V413.15H950.581V403.758H940.49V394.366H931.581V403.758H921.489V413.15H911.367V422.48H960.672Z" fill="#E9593E"/>
<path d="M794.844 419.933V429.295H804.329L811.038 435.917L817.746 429.295H827.232V419.933L833.94 413.325L827.232 406.69V397.329H817.746L811.038 390.708L804.329 397.329H794.844V406.69L788.121 413.325L794.844 419.933Z" fill="#8FB7B2"/>
<path d="M1302.34 422.588V413.257H1292.26V403.866H1282.16V394.473H1273.26V403.866H1263.16V413.257H1253.04V422.588H1302.34Z" fill="#E9593E"/>
<path d="M1119.16 417.189V426.551H1128.65L1135.36 433.173L1142.07 426.551H1151.56V417.189L1158.26 410.581L1151.56 403.946V394.585H1142.07L1135.36 387.964L1128.65 394.585H1119.16V403.946L1112.45 410.581L1119.16 417.189Z" fill="#8FB7B2"/>
<path d="M1183.32 394.366H1228.13L1205.61 426.827L1183.32 394.366Z" fill="#8FB7B2"/>
<path d="M763.297 422.48V413.149H753.206V403.758H743.115V394.366H734.205V403.758H724.114V413.149H713.992V422.48H763.297Z" fill="#8FB7B2"/>
<path d="M1094.71 486.274H1049.89L1072.41 453.812L1094.71 486.274Z" fill="#8FB7B2"/>
<path d="M1112.45 467.531V476.861H1122.54V486.253H1132.62V495.645H1141.54V486.253H1151.63V476.861H1161.75V467.531H1112.45Z" fill="#8FB7B2"/>
<path d="M788.121 453.812V463.143H798.212V472.534H808.304V481.926H817.214V472.534H827.306V463.143H837.427V453.812H788.121Z" fill="#8FB7B2"/>
<path d="M1015.33 406.69V397.329H1005.84L999.133 390.708L992.424 397.329H982.94V406.69L976.23 413.298L982.94 419.933V429.295H992.424L999.133 435.917L1005.84 429.295H1015.33V419.933L1022.05 413.298L1015.33 406.69Z" fill="#8FB7B2"/>
<path d="M1334.6 419.933V429.295H1344.09L1350.79 435.917L1357.5 429.295H1366.98V419.933L1373.7 413.325L1366.98 406.69V397.329H1357.5L1350.79 390.708L1344.09 397.329H1334.6V406.69L1327.88 413.325L1334.6 419.933Z" fill="#8FB7B2"/>
<path d="M1327.88 467.531V476.861H1337.97V486.253H1348.06V495.645H1356.97V486.253H1367.06V476.861H1377.19V467.531H1327.88Z" fill="#8FB7B2"/>
<path d="M850.668 395.28H895.479L872.96 427.741L850.668 395.28Z" fill="#8FB7B2"/>
<path d="M1222.42 469.796V460.434H1212.94L1206.23 453.812L1199.53 460.434H1190.03V469.796L1183.32 476.404L1190.03 483.039V492.4H1199.53L1206.23 499.021L1212.94 492.4H1222.42V483.039L1229.14 476.404L1222.42 469.796Z" fill="#8FB7B2"/>
<path d="M1096.89 423.394V414.064H1086.79V404.672H1076.7V395.28H1067.79V404.672H1057.7V414.064H1047.58V423.394H1096.89Z" fill="#8FB7B2"/>
<path d="M889.764 461.107V451.746H880.279L873.57 445.124L866.862 451.746H857.376V461.107L850.668 467.715L857.376 474.35V483.712H866.862L873.57 490.333L880.279 483.712H889.764V474.35L896.486 467.715L889.764 461.107Z" fill="#8FB7B2"/>
<path d="M763.897 476.213H719.086L741.603 443.752L763.897 476.213Z" fill="#8FB7B2"/>
<path d="M976.684 458.385V467.716H986.775V477.107H996.867V486.499H1005.78V477.107H1015.87V467.716H1025.99V458.385H976.684Z" fill="#8FB7B2"/>
<path d="M1438.87 423.487V414.157H1428.77V404.766H1418.69V395.374H1409.77V404.766H1399.68V414.157H1389.57V423.487H1438.87Z" fill="#8FB7B2"/>
<path d="M1435.53 486.456H1390.72L1413.24 453.994L1435.53 486.456Z" fill="#8FB7B2"/>
<path d="M1303.66 486.274H1258.86L1281.37 453.812L1303.66 486.274Z" fill="#6E1946"/>
<path d="M958.947 481.701H914.137L936.654 449.239L958.947 481.701Z" fill="#6E1946"/>
</g>
<defs>
<clipPath id="clip0_721_6532">
<rect width="1440" height="550" fill="white"/>
</clipPath>
</defs>
</svg>
