<svg width="92" height="32" viewBox="0 0 92 32" fill="none" xmlns="http://www.w3.org/2000/svg">
<path d="M5.30417 23.6306C5.18539 23.5096 2.87405 23.6149 2.89626 23.5318C2.08053 23.5064 1.48016 22.964 1.48016 21.9715C1.38069 22.0546 1.35815 19.9583 1.39678 19.9199C1.42898 19.0044 2.1961 18.3918 3.03436 18.4366C2.86729 18.3342 5.11167 18.433 5.21114 18.4523C6.11958 18.4173 6.65943 19.081 6.70128 19.9679C6.71062 19.9679 6.71705 22.0195 6.76534 22.1344C6.73605 22.7982 6.09769 23.5669 5.30417 23.6306ZM1.39678 9.65572C1.39678 7.74162 5.07014 8.15303 5.21114 8.19134C6.11958 8.15625 6.65943 8.82003 6.70128 9.70369V9.7069C6.7074 9.80895 6.66555 11.7202 6.66555 11.8669C6.63657 12.5307 6.09769 13.3059 5.30417 13.3696C5.18539 13.2486 3.00539 13.2708 2.89626 13.2708C2.08053 13.2454 1.38745 12.703 1.38745 11.7105C1.38745 11.4237 1.38391 9.73878 1.39678 9.65572ZM8.22908 0.687201C8.26127 0.0137574 7.09917 0.189198 6.87093 0.409387C6.6884 0.58805 6.69774 1.57729 6.76534 1.95039C6.76534 1.95039 6.76534 3.35747 2.86117 2.88201C2.06443 2.74165 1.37779 3.13729 1.37779 1.27727C1.37779 1.27727 1.32596 0.788924 1.38745 0.546845C1.43831 -0.0245518 0.131984 0.317002 0.109128 0.584835C-0.150656 -0.0306645 0.157738 30.969 0 31.4702C0.109129 31.2597 1.07326 31.5365 1.55388 31.4C1.56997 30.8991 1.45119 30.4745 1.52491 30.0438C1.53843 28.4359 1.80755 28.5572 3.08554 28.2572C3.98787 28.1931 4.54671 28.2446 5.3428 28.4104C6.07805 28.6432 6.90473 28.9786 6.8838 30.7173L6.86159 31.1638C7.03092 31.0875 8.09259 31.401 8.10418 30.733C8.0369 30.312 8.22264 0.884856 8.22908 0.687201Z" fill="#0E2837"/>
<path d="M88.5157 13.3144C88.4194 13.241 86.1947 13.2603 86.1718 13.2442C85.4205 13.2986 84.6595 12.555 84.7142 11.7351C84.6147 11.7541 84.7625 9.69289 84.7174 9.66746C84.7718 8.82823 85.3918 8.14899 86.2716 8.17732C86.1718 8.22528 88.3937 8.20307 88.5353 8.15833C89.2864 8.15833 90.0889 8.75193 90.0281 9.54642C90.0696 9.60694 89.9959 11.888 90.0535 11.8819C89.9672 12.7083 89.267 13.3048 88.5157 13.3144ZM88.5157 23.5754C88.4194 23.5052 86.1947 23.5213 86.1718 23.5052C85.4205 23.5597 84.6595 22.816 84.7142 21.9961C84.6147 22.0151 84.7625 19.9539 84.7174 19.9285C84.7718 19.0892 85.3918 18.41 86.2716 18.4383C86.1718 18.4863 88.3937 18.4641 88.5353 18.4193C89.2864 18.4193 90.0889 19.0129 90.0281 19.8074C90.0696 19.8712 89.9959 22.1526 90.0535 22.1429C89.9672 22.9693 89.267 23.5658 88.5157 23.5754ZM91.11 0.322299C91.0553 0.152972 89.9254 0.207376 89.8417 0.204157C89.6907 0.3223 89.7164 0.689281 89.7264 1.01796C89.7325 1.94314 89.2706 3.06308 88.3876 3.14903C88.1948 3.11716 86.5443 3.28294 86.0659 3.14259C85.1092 3.00577 84.6176 2.38641 84.4187 1.94314C84.3868 1.63989 84.4383 0.992202 84.3833 0.53927C84.316 -0.0382438 83.0251 0.593351 83.0251 0.593351C83.1958 1.57937 82.8713 30.2629 83.0251 30.8883C83.0222 31.5901 84.223 31.5328 84.3579 31.3638C84.4799 31.0384 84.4544 30.7097 84.4927 30.4895C84.5761 29.545 84.984 28.9421 85.9758 28.9421C86.5572 28.9231 87.6652 28.8497 88.3203 28.8815C89.023 28.8654 89.9382 29.076 89.8417 29.743C89.7937 30.164 89.7422 30.7448 89.8256 31.3828C89.9991 31.5776 91.1519 31.4594 91.2516 31.0416C91.1068 30.6076 91.1554 0.513515 91.11 0.322299Z" fill="#0E2837"/>
<path d="M31.1729 0.321932C31.9287 0.389534 32.2606 0.596525 32.3192 1.37234C32.4065 2.53445 32.2223 3.17119 32.3575 4.30948C32.8088 8.09937 31.8434 11.9404 32.2751 15.7323C32.5033 17.7365 32.2848 19.5392 32.362 21.5525C32.4776 24.5443 32.3298 27.9383 32.2497 31.4507H22.0721C21.715 30.9923 21.7801 28.6545 21.8892 28.0458C21.9848 27.5137 21.9793 26.9713 21.9742 26.4317C21.952 24.2266 22.1017 22.2633 22.0798 20.0578C22.0666 18.7621 22.0537 17.4603 21.8226 16.1817C21.6185 15.0498 21.9362 13.0691 21.7524 11.9347C21.5213 10.5083 21.3996 2.00425 21.4797 0.375048C21.4797 0.375048 29.976 0.214735 31.1729 0.321932Z" fill="#F05B4E"/>
<path d="M18.387 0.294589C19.0244 0.362191 19.3041 0.568859 19.3534 1.34499C19.4265 2.5071 19.2719 3.14385 19.3859 4.28181C19.7658 8.07203 18.952 11.9131 19.3161 15.7049C19.5086 17.7088 19.3241 19.5116 19.3898 21.5248C19.4873 24.517 19.3621 27.9109 19.2948 31.4233H10.7152C10.4145 30.9649 10.4695 28.6272 10.5613 28.0185C10.6418 27.4863 10.6376 26.9439 10.6334 26.4044C10.6144 24.1993 10.7409 22.2359 10.7222 20.0305C10.711 18.7348 10.7 17.433 10.5053 16.1543C10.333 15.0225 10.6012 13.0417 10.446 11.9073C10.2516 10.4809 10.1483 1.97659 10.2162 0.347705C10.2162 0.347705 17.3781 0.187391 18.387 0.294589Z" fill="#FABD96"/>
<path d="M35.1756 0.141107C35.0349 0.164607 34.9293 0.309788 34.9258 0.483944C34.8549 4.08455 34.7912 7.32976 34.6016 11.0492C34.5266 12.5251 34.4654 14.7055 34.6406 16.4386C34.871 18.7194 34.3969 20.5694 34.5288 22.8621C34.7027 25.8871 34.3383 28.3713 34.478 31.3989L37.5426 31.4817C37.7953 31.492 38.0242 31.1987 37.9888 30.4744C37.9527 29.7507 38.0036 26.6343 38.0036 24.2956C38.0036 21.9569 37.7509 19.7817 37.9611 17.1778C38.0654 15.893 37.8166 14.5261 37.8771 13.2375C37.9875 10.9014 38.0483 8.86175 38.0876 6.52176C38.1111 5.14172 38.0857 3.01934 38.1211 1.66279C38.1462 0.71701 38.3352 0.378034 37.9099 0.143037C37.4225 -0.125117 35.7283 0.0496834 35.1756 0.141107Z" fill="#91BAB4"/>
<path d="M54.2296 2.64688C54.3191 1.79542 54.6786 0.566031 53.8816 0.498107C53.1856 0.438553 48.2484 0.393486 47.5405 0.398315C45.187 0.414411 40.3548 0.189071 40.2878 0.206132C40.0918 0.255707 40.0889 31.4578 40.0889 31.4578C43.9827 31.5393 54.555 31.2885 54.555 31.2885C54.9973 30.5584 54.6648 24.8544 54.5789 24.0844C54.3451 22.019 54.208 19.951 54.3635 17.884C54.7585 12.6504 53.6173 9.61342 54.1201 4.46795L54.2296 2.64688Z" fill="#F89C49"/>
<path d="M80.093 0.422313C77.0055 0.239465 73.2385 0.187316 69.1006 0.206309C69.8342 8.72544 69.0224 31.2607 69.127 31.309L80.8598 31.4741C81.2525 30.1459 80.8804 2.88978 80.093 0.422313Z" fill="#BB3B44"/>
<path d="M56.9833 31.2989C57.0796 27.7028 57.0657 25.5254 57.1066 22.4202C57.1353 20.2293 56.8945 17.4499 56.9231 15.1417C56.9766 10.9063 57.0091 9.45707 56.7776 5.52553C56.7255 4.63995 56.8127 2.97212 56.7895 2.08428C56.775 1.4897 56.7596 0.722258 56.7441 0.127683L66.8435 0.300552C67.0859 0.902853 67.1191 2.30511 67.1133 2.65181C67.0666 5.2474 67.0303 4.33445 67.0917 6.9294C67.1503 9.3753 66.8361 11.5373 66.8361 14.9937C66.8361 17.2635 67.0705 18.7565 67.1243 20.2682C67.1799 21.8237 66.9936 23.1284 67.0631 25.5953C67.1049 27.1169 67.0814 31.1051 67.0988 31.4721C67.0988 31.4721 59.7444 31.5336 58.1757 31.26C57.3477 31.1161 56.9833 31.2989 56.9833 31.2989Z" fill="#672A55"/>
</svg>
