<?xml version="1.0" encoding="UTF-8"?><svg id="Layer_2" xmlns="http://www.w3.org/2000/svg" viewBox="0 0 354.7 195.3"><defs><style>.cls-1{fill:#f49d41;}.cls-2{fill:#f8c29b;}.cls-3{fill:#e95345;}.cls-4{fill:#be343b;}.cls-5{fill:#113241;}.cls-6{fill:#6e2a52;}.cls-7{fill:#80b9bb;}</style></defs><g id="Layer_1-2"><g><g><polygon class="cls-5" points="214.7 117.6 212.3 115.2 209.9 117.6 212.3 120 214.7 117.6"/><polygon class="cls-5" points="209.1 117.6 206.7 115.2 204.3 117.6 206.7 120 209.1 117.6"/><g><polygon class="cls-5" points="0 161.7 3.7 161.7 3.7 172.3 17.6 172.3 17.6 161.7 21.3 161.7 21.3 187.2 17.6 187.2 17.6 175.6 3.7 175.6 3.7 187.2 0 187.2 0 161.7"/><path class="cls-5" d="M42.8,184.6c-.2,.2-.5,.5-.9,.9s-.9,.7-1.6,1c-.7,.3-1.4,.6-2.3,.9-.9,.2-1.9,.4-3,.4s-2.6-.2-3.8-.7c-1.1-.5-2.1-1.1-2.9-2-.8-.8-1.4-1.8-1.9-3-.4-1.2-.7-2.5-.7-3.9s.2-2.5,.6-3.7c.4-1.1,1-2.1,1.8-2.9,.8-.8,1.7-1.5,2.8-2,1.1-.5,2.3-.7,3.6-.7s2.8,.3,3.9,.9c1.1,.6,2,1.4,2.7,2.3,.7,1,1.2,2.1,1.5,3.3,.3,1.2,.5,2.5,.5,3.9h-14c0,.8,.2,1.5,.5,2.2,.3,.7,.7,1.2,1.3,1.7,.5,.5,1.1,.9,1.8,1.1,.7,.3,1.4,.4,2.2,.4,1.5,0,2.7-.3,3.7-.8,1-.5,1.7-1,2.1-1.5l2,2.1Zm-3.1-7.8c-.1-1.4-.6-2.5-1.5-3.5-.9-1-2.1-1.5-3.7-1.5s-1.5,.1-2.2,.4c-.7,.3-1.2,.7-1.7,1.1-.5,.5-.8,1-1.1,1.6-.3,.6-.4,1.2-.4,1.9h10.5Z"/><path class="cls-5" d="M47.1,187.2v-16.7c0-.2,0-.6,0-1.1h3.3v2.9c.3-.3,.6-.6,.9-1,.3-.4,.7-.7,1.2-1,.5-.3,1-.6,1.6-.8,.6-.2,1.3-.3,2.2-.3s.7,0,1.1,0c.3,0,.6,.1,.9,.2l-.8,3.2c-.5-.2-1-.3-1.8-.3s-1.4,.1-2,.4c-.6,.3-1.2,.7-1.6,1.2-.5,.5-.8,1.1-1.1,1.7-.3,.7-.4,1.4-.4,2.1v9.4h-3.4Z"/><path class="cls-5" d="M60.9,162.4h3.9v3.9h-3.9v-3.9Zm.2,7h3.4v17.8h-3.4v-17.8Z"/><path class="cls-5" d="M71,172.3h-3.2v-2.9h3.2v-5.8h3.4v5.8h5.2v2.9h-5.2v8.8c0,1.4,.2,2.4,.7,2.9,.4,.5,1.1,.8,1.9,.8s1.2-.1,1.6-.3c.4-.2,.9-.5,1.3-.9l1.6,2.1c-.7,.7-1.5,1.2-2.3,1.5-.8,.3-1.7,.5-2.8,.5-1.9,0-3.3-.5-4.1-1.5-.9-1-1.3-2.6-1.3-4.8v-9.1Z"/><path class="cls-5" d="M95.3,185c-.7,.9-1.5,1.6-2.6,2-1.1,.4-2.2,.7-3.3,.7s-1.5,0-2.2-.3c-.7-.2-1.4-.5-2-1-.6-.4-1.1-1-1.5-1.7-.4-.7-.6-1.6-.6-2.6,0-1.9,.7-3.4,2-4.6,1.3-1.1,3.3-1.7,5.8-1.7s.8,0,1.3,0c.5,0,.9,0,1.3,0s.8,0,1.1,0c.3,0,.5,0,.7,0v-.6c0-1.3-.4-2.3-1.2-2.8-.8-.6-1.9-.9-3.3-.9s-2.4,.2-3.2,.6c-.8,.4-1.5,.7-2,1.1l-1.6-2.3c.3-.3,.7-.5,1.1-.8,.4-.3,.9-.5,1.5-.7,.6-.2,1.2-.4,2-.5,.7-.1,1.6-.2,2.6-.2,2.3,0,4.1,.6,5.4,1.7,1.3,1.1,2,2.7,2,4.7v11c0,.2,0,.5,0,.9h-3.2v-2.1Zm-.1-6.3c-.1,0-.3,0-.6,0-.3,0-.6,0-1,0-.4,0-.8,0-1.2,0-.4,0-.9,0-1.3,0-1,0-1.8,.1-2.4,.3-.6,.2-1.1,.5-1.4,.9-.3,.3-.6,.7-.7,1.1-.1,.4-.2,.8-.2,1.2,0,1,.3,1.7,1,2.2,.7,.5,1.6,.7,2.8,.7s1.3-.1,1.9-.3c.6-.2,1.1-.5,1.6-.9,.5-.4,.8-.8,1.1-1.3,.3-.5,.4-1,.4-1.6v-2Z"/><path class="cls-5" d="M105.6,190.8c.6,.4,1.3,.8,2.2,1.1,.9,.3,1.9,.4,3.1,.4s3-.5,3.8-1.4c.8-.9,1.3-2.2,1.3-3.7v-2.2c-.2,.2-.4,.4-.7,.6-.3,.3-.7,.5-1.1,.8-.4,.2-1,.5-1.6,.6-.6,.2-1.3,.3-2.1,.3-1.3,0-2.5-.2-3.5-.7-1-.4-1.9-1.1-2.5-1.8-.7-.8-1.2-1.7-1.6-2.8-.4-1.1-.5-2.3-.5-3.5s.2-2.6,.7-3.8c.5-1.2,1.2-2.2,2-3,.9-.9,1.9-1.5,3.2-2s2.6-.7,4.1-.7,2.8,.1,4.1,.4c1.2,.3,2.3,.5,3,.8v17c0,2.6-.7,4.6-2.2,6-1.5,1.4-3.6,2.1-6.3,2.1s-3.3-.2-4.3-.6c-1.1-.4-1.9-.8-2.6-1.4l1.6-2.5Zm10.4-18.3c-.2,0-.6-.2-1.2-.3-.5-.1-1.4-.2-2.5-.2s-1.8,.2-2.6,.5c-.8,.3-1.5,.8-2,1.3-.6,.6-1,1.3-1.3,2-.3,.8-.5,1.7-.5,2.6s0,1.6,.3,2.3c.2,.7,.5,1.3,.9,1.9,.4,.5,.9,1,1.6,1.3,.6,.3,1.4,.5,2.3,.5s1.6-.1,2.2-.4c.6-.3,1.2-.6,1.6-1,.4-.4,.7-.9,.9-1.4,.2-.5,.3-1.1,.3-1.6v-7.4Z"/><path class="cls-5" d="M140.4,184.6c-.2,.2-.5,.5-.9,.9s-.9,.7-1.6,1c-.7,.3-1.4,.6-2.3,.9-.9,.2-1.9,.4-3,.4s-2.6-.2-3.8-.7c-1.1-.5-2.1-1.1-2.9-2-.8-.8-1.4-1.8-1.9-3-.4-1.2-.7-2.5-.7-3.9s.2-2.5,.6-3.7c.4-1.1,1-2.1,1.8-2.9,.8-.8,1.7-1.5,2.8-2,1.1-.5,2.3-.7,3.6-.7s2.8,.3,3.9,.9c1.1,.6,2,1.4,2.7,2.3,.7,1,1.2,2.1,1.5,3.3,.3,1.2,.5,2.5,.5,3.9h-14c0,.8,.2,1.5,.5,2.2,.3,.7,.7,1.2,1.3,1.7,.5,.5,1.1,.9,1.8,1.1,.7,.3,1.4,.4,2.2,.4,1.5,0,2.7-.3,3.7-.8,1-.5,1.7-1,2.1-1.5l2,2.1Zm-3.1-7.8c-.1-1.4-.6-2.5-1.5-3.5-.9-1-2.1-1.5-3.7-1.5s-1.5,.1-2.2,.4c-.7,.3-1.2,.7-1.7,1.1-.5,.5-.8,1-1.1,1.6-.3,.6-.4,1.2-.4,1.9h10.5Z"/><path class="cls-5" d="M173.8,182.7c-.3,.5-.7,1-1.3,1.6-.6,.6-1.3,1.1-2.1,1.7-.8,.5-1.8,1-2.9,1.3-1.1,.4-2.3,.5-3.6,.5-1.9,0-3.6-.3-5.2-1-1.6-.7-2.9-1.6-4-2.8-1.1-1.2-2-2.6-2.6-4.2-.6-1.6-.9-3.4-.9-5.3s.3-3.6,.9-5.2c.6-1.6,1.5-3.1,2.6-4.3,1.1-1.2,2.5-2.2,4-2.9,1.6-.7,3.3-1.1,5.2-1.1s2.6,.2,3.6,.5c1.1,.3,2,.7,2.8,1.2,.8,.5,1.5,1,2.1,1.6,.6,.6,1,1.1,1.4,1.7l-2.6,2.2c-.3-.4-.7-.9-1.1-1.4-.4-.5-.9-.9-1.5-1.3-.6-.4-1.3-.7-2-1-.8-.3-1.6-.4-2.6-.4s-2.7,.3-3.8,.8c-1.1,.5-2.1,1.3-2.8,2.2-.8,.9-1.4,2-1.8,3.2-.4,1.2-.6,2.5-.6,3.9s.2,2.7,.6,3.9c.4,1.2,1,2.3,1.8,3.2,.8,.9,1.7,1.6,2.8,2.1,1.1,.5,2.3,.8,3.7,.8s2.1-.1,3-.4c.8-.3,1.5-.6,2.1-1.1,.6-.4,1-.8,1.4-1.2,.4-.4,.7-.8,.9-1.1l2.6,2.1Z"/><path class="cls-5" d="M185.3,187.7c-1.4,0-2.6-.2-3.8-.7-1.1-.5-2.1-1.2-3-2-.8-.9-1.5-1.9-2-3-.5-1.1-.7-2.4-.7-3.7s.2-2.5,.7-3.7c.5-1.1,1.1-2.1,2-3,.8-.9,1.8-1.5,3-2,1.1-.5,2.4-.7,3.8-.7s2.6,.2,3.7,.7c1.1,.5,2.1,1.2,3,2,.8,.9,1.5,1.9,2,3,.5,1.1,.7,2.4,.7,3.7s-.2,2.5-.7,3.7c-.5,1.1-1.1,2.1-2,3s-1.8,1.5-3,2c-1.1,.5-2.4,.7-3.7,.7m0-3c.9,0,1.7-.2,2.5-.6,.7-.4,1.4-.9,1.9-1.5,.5-.6,.9-1.3,1.2-2.1,.3-.8,.4-1.6,.4-2.4s-.1-1.6-.4-2.4c-.3-.8-.7-1.5-1.2-2.1-.5-.6-1.1-1.1-1.9-1.5-.7-.4-1.5-.6-2.5-.6s-1.7,.2-2.5,.6c-.7,.4-1.4,.9-1.9,1.5-.5,.6-.9,1.3-1.2,2.1-.3,.8-.4,1.6-.4,2.4s.1,1.6,.4,2.4,.7,1.5,1.2,2.1c.5,.6,1.1,1.1,1.9,1.5,.7,.4,1.5,.6,2.5,.6"/><path class="cls-5" d="M198.6,187.2v-16.7c0-.2,0-.6,0-1.1h3.3v2.7c.3-.3,.6-.6,.9-1,.3-.4,.7-.7,1.2-1,.5-.3,1-.6,1.6-.8,.6-.2,1.3-.3,2.2-.3,1.4,0,2.5,.3,3.4,.8,.9,.5,1.6,1.3,2.1,2.4,.7-.8,1.6-1.6,2.6-2.2s2.3-1,3.8-1c2.3,0,4,.7,5.1,2,1.1,1.4,1.6,3.2,1.6,5.5v10.7h-3.4v-10.4c0-1.7-.3-2.9-1-3.7-.6-.8-1.6-1.2-2.8-1.2s-1.4,.1-2,.4c-.6,.3-1.1,.7-1.6,1.2-.4,.5-.8,1.1-1,1.7-.2,.7-.4,1.3-.4,2v9.9h-3.4v-10.4c0-1.7-.3-2.9-1-3.7-.7-.8-1.6-1.2-2.8-1.2s-1.7,.2-2.4,.6c-.6,.4-1.2,.9-1.5,1.6-.4,.7-.7,1.4-.8,2.2-.2,.8-.2,1.7-.2,2.5v8.3h-3.4Z"/><path class="cls-5" d="M231.1,187.2v-16.7c0-.2,0-.6,0-1.1h3.3v2.7c.3-.3,.6-.6,.9-1,.3-.4,.7-.7,1.2-1,.5-.3,1-.6,1.6-.8,.6-.2,1.3-.3,2.2-.3,1.4,0,2.5,.3,3.4,.8,.9,.5,1.6,1.3,2.1,2.4,.7-.8,1.6-1.6,2.6-2.2s2.3-1,3.8-1c2.3,0,4,.7,5.1,2,1.1,1.4,1.6,3.2,1.6,5.5v10.7h-3.4v-10.4c0-1.7-.3-2.9-1-3.7-.6-.8-1.6-1.2-2.8-1.2s-1.4,.1-2,.4c-.6,.3-1.1,.7-1.6,1.2-.4,.5-.8,1.1-1,1.7-.2,.7-.4,1.3-.4,2v9.9h-3.4v-10.4c0-1.7-.3-2.9-1-3.7-.7-.8-1.6-1.2-2.8-1.2s-1.7,.2-2.4,.6c-.6,.4-1.2,.9-1.5,1.6-.4,.7-.7,1.4-.8,2.2-.2,.8-.2,1.7-.2,2.5v8.3h-3.4Z"/><path class="cls-5" d="M263.5,162.4h3.9v3.9h-3.9v-3.9Zm.2,7h3.4v17.8h-3.4v-17.8Z"/><path class="cls-5" d="M273.3,182.7c.6,.6,1.4,1.1,2.3,1.5,.9,.4,1.9,.6,3.1,.6s2.1-.2,2.9-.6c.8-.4,1.1-.9,1.1-1.7s0-.8-.2-1.1c-.2-.3-.4-.6-.8-.8-.4-.2-.9-.4-1.6-.6-.6-.2-1.5-.4-2.4-.6-.7-.2-1.4-.4-2-.6-.7-.3-1.3-.6-1.8-1-.5-.4-1-.9-1.3-1.5-.3-.6-.5-1.3-.5-2.2s.2-1.6,.6-2.3c.4-.6,.9-1.2,1.6-1.6,.7-.4,1.4-.8,2.2-1,.8-.2,1.7-.3,2.6-.3,1.5,0,2.8,.2,3.9,.6,1.1,.4,2,1,2.8,1.7l-1.9,2.4c-.5-.5-1.2-.9-2-1.2-.8-.3-1.7-.5-2.8-.5s-2,.2-2.6,.5c-.7,.4-1,.9-1,1.8s.4,1.3,1.3,1.7c.9,.4,2,.7,3.5,1.1,.8,.2,1.6,.4,2.4,.7s1.4,.6,1.9,1c.5,.4,1,.9,1.3,1.5,.3,.6,.5,1.4,.5,2.2s-.2,1.7-.6,2.4c-.4,.7-1,1.2-1.6,1.7-.7,.5-1.5,.8-2.4,1-.9,.2-1.8,.3-2.8,.3-3.4,0-5.9-.9-7.6-2.7l2.1-2.3Z"/><path class="cls-5" d="M291.3,182.7c.6,.6,1.4,1.1,2.3,1.5,.9,.4,1.9,.6,3.1,.6s2.1-.2,2.9-.6c.8-.4,1.1-.9,1.1-1.7s0-.8-.2-1.1c-.2-.3-.4-.6-.8-.8-.4-.2-.9-.4-1.6-.6-.6-.2-1.5-.4-2.4-.6-.7-.2-1.4-.4-2-.6-.7-.3-1.3-.6-1.8-1-.5-.4-1-.9-1.3-1.5-.3-.6-.5-1.3-.5-2.2s.2-1.6,.6-2.3c.4-.6,.9-1.2,1.6-1.6,.7-.4,1.4-.8,2.2-1,.8-.2,1.7-.3,2.6-.3,1.5,0,2.8,.2,3.9,.6,1.1,.4,2,1,2.8,1.7l-1.9,2.4c-.5-.5-1.2-.9-2-1.2-.8-.3-1.7-.5-2.8-.5s-2,.2-2.6,.5c-.7,.4-1,.9-1,1.8s.4,1.3,1.3,1.7c.9,.4,2,.7,3.5,1.1,.8,.2,1.6,.4,2.4,.7s1.4,.6,1.9,1c.5,.4,1,.9,1.3,1.5,.3,.6,.5,1.4,.5,2.2s-.2,1.7-.6,2.4c-.4,.7-1,1.2-1.6,1.7-.7,.5-1.5,.8-2.4,1-.9,.2-1.8,.3-2.8,.3-3.4,0-5.9-.9-7.6-2.7l2.1-2.3Z"/><path class="cls-5" d="M308.1,162.4h3.9v3.9h-3.9v-3.9Zm.2,7h3.4v17.8h-3.4v-17.8Z"/><path class="cls-5" d="M325.3,187.7c-1.4,0-2.6-.2-3.8-.7-1.1-.5-2.1-1.2-3-2-.8-.9-1.5-1.9-2-3-.5-1.1-.7-2.4-.7-3.7s.2-2.5,.7-3.7c.5-1.1,1.1-2.1,2-3,.8-.9,1.8-1.5,3-2,1.1-.5,2.4-.7,3.8-.7s2.6,.2,3.7,.7c1.1,.5,2.1,1.2,3,2,.8,.9,1.5,1.9,2,3,.5,1.1,.7,2.4,.7,3.7s-.2,2.5-.7,3.7c-.5,1.1-1.1,2.1-2,3s-1.8,1.5-3,2c-1.1,.5-2.4,.7-3.7,.7m0-3c.9,0,1.7-.2,2.5-.6,.7-.4,1.4-.9,1.9-1.5,.5-.6,.9-1.3,1.2-2.1,.3-.8,.4-1.6,.4-2.4s-.1-1.6-.4-2.4c-.3-.8-.7-1.5-1.2-2.1-.5-.6-1.1-1.1-1.9-1.5-.7-.4-1.5-.6-2.5-.6s-1.7,.2-2.5,.6c-.7,.4-1.4,.9-1.9,1.5-.5,.6-.9,1.3-1.2,2.1-.3,.8-.4,1.6-.4,2.4s.1,1.6,.4,2.4c.3,.8,.7,1.5,1.2,2.1,.5,.6,1.1,1.1,1.9,1.5,.7,.4,1.5,.6,2.5,.6"/><path class="cls-5" d="M338.6,187.2v-16.7c0-.2,0-.6,0-1.1h3.3v2.7c.3-.3,.6-.6,1-1,.3-.4,.7-.7,1.2-1,.5-.3,1.1-.6,1.7-.8,.6-.2,1.4-.3,2.2-.3,2.3,0,4,.7,5.2,2,1.1,1.4,1.7,3.2,1.7,5.5v10.7h-3.4v-10.4c0-1.7-.4-2.9-1.1-3.7-.7-.8-1.7-1.2-3-1.2s-1.8,.2-2.5,.6c-.7,.4-1.2,.9-1.6,1.6-.4,.7-.7,1.4-.9,2.2-.2,.8-.3,1.7-.3,2.5v8.3h-3.4Z"/><polygon class="cls-5" points="12.2 123.6 9.8 121.2 7.4 123.6 9.8 126 12.2 123.6"/><path class="cls-5" d="M25.5,131.4c-.2-.8-.4-1.6-.7-2.4-.3-.8-.6-1.5-.9-2.1l-2.8,1.5c.3,.6,.6,1.3,.9,2,.3,.7,.5,1.4,.7,2.1,.2,.7,.4,1.4,.5,2,.1,.6,.2,1.2,.2,1.7s-.3,.6-.8,.9c-.5,.3-1.3,.6-2.2,.8-.9,.2-2,.4-3.3,.5-1.3,.1-2.6,.2-4,.2s-3.4,0-4.7-.3c-1.3-.2-2.3-.5-3.2-.8-.8-.4-1.4-.9-1.8-1.5-.4-.6-.6-1.3-.6-2.2s.1-1.4,.3-2.2c.2-.8,.5-1.7,.9-2.6l-2-1c-.7,1.1-1.2,2.3-1.6,3.6-.4,1.2-.6,2.4-.6,3.4s.3,2.3,.8,3.2c.5,.9,1.3,1.6,2.4,2.2,1.1,.6,2.4,1,4.1,1.3,1.6,.3,3.6,.4,5.9,.4,4.5,0,7.8-.5,9.9-1.5,2.1-1,3.2-2.6,3.2-4.7s0-1.4-.2-2.3c-.1-.8-.3-1.6-.5-2.4"/><polygon class="cls-5" points="15 118.7 12.6 116.3 10.2 118.7 12.6 121.1 15 118.7"/><polygon class="cls-5" points="15.4 126 17.7 123.6 15.4 121.2 13 123.6 15.4 126"/><polygon class="cls-5" points="30.7 142 33.3 142 33.5 117.3 30.5 117.9 30.7 142"/><polygon class="cls-5" points="167.2 125.8 164.9 123.4 162.5 125.8 164.9 128.2 167.2 125.8"/><polygon class="cls-5" points="161.7 125.8 159.3 123.4 156.9 125.8 159.3 128.2 161.7 125.8"/><path class="cls-5" d="M180.8,136.6c0,.4-.1,.7-.4,.9-.3,.3-.6,.5-1,.6-.4,.2-.9,.3-1.4,.3-.5,0-1.1,0-1.6,0h-9.2c-3,0-4.6-.8-4.6-2.4s0-.8,.2-1.6c.1-.9,.2-1.9,.3-2.9l-2.6-.3c0,.3-.1,.7-.2,1.1,0,.4-.1,.9-.2,1.3,0,.4-.2,.9-.2,1.3,0,.4-.1,.8-.2,1.1-.2,.9-.7,1.5-1.5,1.9-.8,.4-2,.6-3.7,.6H51.5c-.6,0-1.1,0-1.6-.1-.4,0-.8-.2-1.1-.4-.3-.2-.6-.5-.8-.8-.2-.3-.4-.8-.7-1.3-.2-.4-.4-1.1-.7-2-.3-.9-.6-1.9-.9-2.8l-2.9,1.3c.5,1.5,.9,2.7,1.3,3.6,.4,1,.7,1.8,1.1,2.4-.3,1.5-1.3,3-3,4.4-1.7,1.4-4,2.6-6.8,3.7l1.8,3c2.7-1,4.9-2.2,6.6-3.7,1.7-1.5,2.9-3.2,3.4-5,1.1,.7,2.5,1.1,4.2,1.1h103.1c1.6,0,3-.2,4.1-.7,1.2-.4,2-1.1,2.5-1.9,1,1.7,3,2.6,6,2.6h0s9.2,0,9.2,0c.9,0,1.8,0,2.7-.3,.9-.2,1.6-.5,2.3-1,.7-.4,1.2-1,1.6-1.8,.4-.7,.6-1.6,.6-2.7l.2-19-3,.5v18.7Z"/><polygon class="cls-5" points="188.8 142 191.4 142 191.6 117.3 188.6 117.9 188.8 142"/><path class="cls-5" d="M314.1,127.2l.5,1.4c1.9-.6,3.9-1,5.9-1.1l.3-1.8c-.4,0-.7,0-1.1,.1-.4,0-.8,.1-1.2,.2-.7,0-1.2-.2-1.6-.5-.4-.3-.6-.6-.6-1s.1-.6,.4-.9c.3-.2,.7-.3,1.1-.3s.8,.1,1.2,.3l.8-1.1c-.6-.6-1.3-1-2.1-1s-1.5,.3-2.1,.9c-.6,.6-.9,1.3-.9,2.1s.4,1.6,1.3,2.1c-.3,.1-.6,.2-.9,.3-.3,.1-.6,.2-1,.3"/><polygon class="cls-5" points="324 147.5 326.4 149.9 328.8 147.5 326.4 145 324 147.5"/><polygon class="cls-5" points="329.6 147.5 332 149.9 334.4 147.5 332 145 329.6 147.5"/><path class="cls-5" d="M354,131.8c-.5-1.4-1.2-2.7-2.1-3.9-.9-1.2-2.1-2.3-3.4-3.2-1.3-.9-2.8-1.7-4.4-2.3l-1.3,2.9c1.4,.5,2.7,1.1,3.8,1.9,1.2,.8,2.1,1.7,3,2.7,.8,1,1.4,2.1,1.9,3.2,.4,1.1,.7,2.3,.7,3.5s-.4,1.1-1.2,1.4c-.8,.4-1.9,.5-3.1,.5s-.6,0-.9,0c-.3,0-.6,0-.8,0,1.2-1.2,1.9-2.7,1.9-4.4s-.1-1.6-.4-2.4c-.3-.8-.7-1.4-1.2-2-.5-.6-1.1-1-1.7-1.3-.7-.3-1.4-.5-2.1-.5s-1.5,.2-2.1,.5c-.7,.3-1.2,.8-1.7,1.3-.5,.6-.9,1.2-1.2,2-.3,.7-.4,1.5-.4,2.4,0,1.7,.6,3.1,1.8,4.3-.6,0-1.1,0-1.8,.1-.6,0-1.2,0-1.9,0-3,0-4.6-.8-4.6-2.4s0-.8,.2-1.6c.1-.9,.2-1.9,.3-2.9l-2.6-.3c0,.3-.1,.7-.2,1.1,0,.4-.1,.9-.2,1.3,0,.4-.2,.9-.2,1.3,0,.4-.1,.8-.2,1.1-.2,.9-.7,1.5-1.5,1.9s-2,.6-3.7,.6c-3,0-4.5-.8-4.5-2.4s0-.8,.2-1.6c.1-.9,.2-1.9,.3-2.9l-2.6-.3c0,.3-.1,.7-.2,1.1,0,.4-.1,.9-.2,1.3,0,.4-.2,.9-.2,1.3,0,.4-.1,.8-.2,1.1-.2,.9-.7,1.5-1.5,1.9-.8,.4-2,.6-3.7,.6h-91.4c-1.2,0-2.2-.2-2.7-.7-.6-.5-.8-1.3-.8-2.4l.2-13-3,.5v2.3c-3.1,.6-5.5,1.6-7.2,3-1.7,1.4-2.6,3-2.6,5s.2,1.5,.5,2.2c.3,.7,.8,1.2,1.3,1.6,.6,.4,1.2,.8,2,1,.8,.2,1.6,.3,2.4,.3,1.5,0,2.7-.3,3.8-.9,.4,2.9,2.5,4.3,6.2,4.3h91.4c1.6,0,3-.2,4.1-.7,1.2-.4,2-1.1,2.5-1.9,1,1.7,3,2.6,6,2.6h0c1.6,0,3-.2,4.1-.7,1.2-.4,2-1.1,2.5-1.9,1,1.7,3,2.6,6,2.6s2.2-.1,3.5-.4c1.3-.2,2.5-.6,3.6-1,.9,.4,1.8,.7,2.8,1,1,.2,1.9,.4,2.8,.4,2.2,0,3.8-.5,5-1.5,1.2-1,1.8-2.5,1.8-4.4s-.2-2.9-.7-4.3m-145,3.5c-.5,0-1.1,0-1.5-.1-.5,0-.9-.2-1.3-.4-.4-.2-.7-.4-.9-.7-.2-.3-.3-.7-.3-1.1s.2-1.1,.6-1.5c.4-.5,.9-.9,1.6-1.3,.7-.4,1.4-.7,2.3-.9,.9-.2,1.8-.4,2.7-.5v6.2c-.8,.4-1.9,.5-3.1,.5m133.4,2.3c-.9-.4-1.7-.9-2.2-1.5-.5-.6-.8-1.3-.8-2s.3-1.6,.9-2.2c.6-.6,1.3-.9,2.2-.9s1.6,.3,2.2,.9c.6,.6,.9,1.3,.9,2.2,0,1.6-1,2.8-3.1,3.5"/></g></g><g><path class="cls-2" d="M307.4,84.5c-.2,.3,0-7.4,0-7.5,0,0,0,0,0,0h-7.5s0,0,0,0c0,0,.3-7.2,0-7.5t0,0c-.2,0-7.4,0-7.5,0h0c-.3,0,0,7.3,0,7.5,0,0,0,0,0,0,.1,.1-7.4,0-7.5,0,0,0,0,0,0,0,0,.1-.4,7.5,0,7.5,0,0,0,0,0,0,.2,.3-7.1,0-7.2,0,0,0,0,0,0,0v-7.5s0,0,0,0c0,0-7,.4-7.5,0,0,0,0,0,0,0,0-.2-.6-7.6,0-7.5,0,0,0,0,0,0-.9,.2-7.4,0-7.5,0,0,0,0,0,0,0,0,.1,0,7.4,0,7.5,0,0,0,0,0,0-.6,.2-7.5-.3-7.5,0-1.2-.2,1.1,6.8,0,7.4,0,0,0,0,0,0,0-.2-6.3,.1-7.3,0,0,0,0,0,0,0-.6-.3-.7-7.8,0-7.5,0-.2-7.4,0-7.5,0,0,0,0,0,0,0,0,0-.8-7,0-7.5,0,0,0,0,0,0-.2-.4-8.1,0-7.5,0-1.1,0-1.1,7.1,0,7.5,.8-.2-7.4,0-7.5,0,0,0,0,0,0,0v7.5s0,0,0,0c-.1,0-7.5,.3-7.2,0,.4-.1,0-7.4,0-7.5,0,0,0,0,0,0h-7.5s0,0,0,0v-7.5c0,0,0,0,0,0h-7.5s0,0,0,0c0,0-1.2,7.2,0,7.5,0,0,0,0,0,0-.5,.4-7.4,0-7.5,0,0,0,0,0,0,0,0,.1-.5,7.5,0,7.5,.8,0-5.9-.4-7.1,0,0,0,0,0,0,0,0-.3,0-7.4,0-7.5,0,0,0,0,0,0h-7.4s0,0,0,0v-7.5s0,0,0,0c0,0-7.1-.3-7.5,0,0,0,0,0,0,0,.8,.4,0,7.3,0,7.5,0,0,0,0,0,0-.5,.2-7.2,0-7.5,0,0,0,0,0,0,0,.3,.2,.5,7.8,0,7.5-.4-.2-6.2-.1-7,0,0,0,0,0,0,0,.9-.5-.1-7.4-.2-7.4,0,0,0,0,0,0h-7.5s0,0,0,0v-7.5s0,0,0,0h-7.6s-.2,7.3,0,7.5c0,0,0,0,0,0-1,.3-7.5,0-7.5,0h0v7.5s0,0,0,0c0,0-6.4-.3-7.2,0,0,0,0,0,0,0-.5-.2,.6-7.1,0-7.5,0,0,0,0,0,0-1.3,.2-7.4-.4-7.5,0-1.2,.5,.3-7.4,0-7.5,0,0,0,0,0,0,0,0-6.3-.2-7.5,0-.8-.2-.7,7,0,7.5,0,0,0,0,0,0-.4,.2-6.2,0-7.4,0,0,0,0,0,0,0,.6,.3-.4,7.3,0,7.5,1,.3-6.8,0-7.2,0t0,0c-.5-.3,1.2-7.5,0-7.5,.2-.4-6.3,.3-7.5,0-.9,.3-.4-7.2,0-7.5,.8-.3-7.2-.4-7.5,0,0,0,0,0,0,0,.2,.2,.2,7.5,0,7.5,.8,.4-7,.2-7.4,0,0,0,0,0,0,0,.5,.4,.5,7.3,0,7.5t0,0c-.1,0-6.7,.3-7.1,0,0,0,0,0,0,0,1.3,0-.8-7.1-.1-7.5,0,0,0,0,0,0-1.5,0-8.3,.4-7.4,0,.5-.2,.3-7.3,0-7.5t0,0c-.3,0-7.5-.4-7.5,0-.6-.1-.3,7,0,7.5,0,0,0,0,0,0-1.3,.4-6.4,0-7.5,0,0,0,0,0,0,0,.2,.3,0,7.4,0,7.5,0,0,0,0,0,0h-4.5s0,0,0,0c0,.1-.5,8,0,8.4,0,0,0,0,0,0,3.7,.3,5.5-.2,9.8,0,3.7-.3,25.7-.3,29.8,0h0c3.4-.3,9.1,.3,12.5,0h0c2.9,.2,21.2,0,23.5,0h0c1.8-.2,34-.4,36,0,1.9,.3,14.7,.2,17.1,0,2.3-.4,69.6,0,72.1,0,3.2,0,13.9,.1,17.2,0,2.1,0,5.2-.1,6.3,0,3.1,.4,22.9-.5,25.2-.2,4.6,.6,6.1,.4,10.8,.2,3-.3,7-.4,9.7,0,.9,0-1.1-8.4,0-8.4,0,0,0,0,0,0-.4-.2-4.2,0-5,0"/><path class="cls-6" d="M77,39c0-.4,0-7.4,0-7.5,0-.3-7.1-.5-7.2,0,0,.5,0,6.9,0,7.5,0-.4-7.5,.3-7.5,0-.1-.2,0,7.8,0,7.5,0,.2,0,6.9,0,7.5,0,.5,7.5-.6,7.5,0,0,0,0,7.9,0,7.5,0,0,7.2,.1,7.2,0,0,.5,0-7.8,0-7.5,0,.1,7.6,.6,7.5,0,0-.4,0-8,0-7.5,0,0,0-7.1,0-7.5,0,.5-7.6,0-7.5,0"/><path class="cls-7" d="M106.7,39s0-8,0-7.5c0-.6-7.2-.1-7.2,0,0-.2,0,7.2,0,7.5,0,.6-7.6-.4-7.5,0,0,.1,0,7.2,0,7.5,0,.5,0,7.2,0,7.5,0-.2,7.4,.4,7.5,0,0,0,0,7.3,0,7.5,0,.6,7.2,0,7.2,0,0,.2,0-7.2,0-7.5,.1,.2,7.5-.1,7.5,0,0,0,0-7.7,0-7.5,0-.5,0-7.8,0-7.5,0,.1-7.5-.3-7.5,0"/><path class="cls-5" d="M136.4,39c0,.3,0-7.7,0-7.5,0,.1-7.2,0-7.2,0,0,.5,0,7.4,0,7.5,0-.4-7.5,.5-7.5,0-.1,.3,0,7.2,0,7.5,0-.5,0,7.8,0,7.5,0-.1,7.6,.2,7.5,0,0-.3,0,6.9,0,7.5,0,0,7.2-.2,7.2,0,0-.2,0-7.1,0-7.5,0,.3,7.5,.5,7.5,0,0,.4,0-7.2,0-7.5-.1-.5,0-7.1,0-7.5,0,.1-7.5,.5-7.5,0"/><path class="cls-1" d="M166.1,39c0-.3,0-8,0-7.5,0,.4-7.1,0-7.2,0,0-.3,0,7.3,0,7.5,0,.3-7.6-.3-7.5,0,0-.6,0,7.9,0,7.5,0,0,0,7.6,0,7.5,0,.3,7.5-.5,7.5,0,0,.1,0,7.3,0,7.5-.1-.5,7.2,.2,7.2,0,.1,.2,0-7.5,0-7.5,0,.4,7.4,0,7.5,0,0-.1,0-7.6,0-7.5,0,.3,0-7,0-7.5,0-.4-7.5,.4-7.5,0"/><path class="cls-3" d="M195.8,39c0-.3,0-7.8,0-7.5,0-.2-7.2-.6-7.2,0-.1,0,0,7,0,7.5,0,0-7.5,.1-7.5,0,0-.1,0,7.5,0,7.5,0,.4,0,7,0,7.5,0,.3,7.6,0,7.5,0,0-.5,0,8,0,7.5,0-.3,7.2-.2,7.2,0,0-.4,0-7.2,0-7.5,.1,.6,7.6-.3,7.5,0-.1,0,0-7.7,0-7.5,0,0,0-7.5,0-7.5,0,.5-7.5,.1-7.5,0"/><path class="cls-4" d="M225.5,39c0-.4,0-7.1,0-7.5,0-.6-7.1,.4-7.2,0,0-.4,0,7,0,7.5,0-.3-7.5,.2-7.5,0,0,.4,0,7.6,0,7.5,0,.2,0,7.5,0,7.5,0,.5,7.6,.1,7.5,0-.1,.4,0,7.6,0,7.5,0-.5,7.2-.3,7.2,0,0-.1,0-6.9,0-7.5,0,.6,7.4,.6,7.5,0,0,.2,0-7.3,0-7.5,0-.2,0-7.7,0-7.5,0-.1-7.5,.4-7.5,0"/><path class="cls-7" d="M255.1,39c0-.5,0-7.3,0-7.5,.1-.2-7.1-.3-7.2,0,0,.4,0,8,0,7.5,0,0-7.6,0-7.5,0,0,.4,0,7.1,0,7.5,0,.4,0,7,0,7.5,0,.1,7.6,.2,7.5,0,0,.4,0,7.9,0,7.5,0-.6,7.2,0,7.2,0,0-.2,0-7.2,0-7.5,0,0,7.6,.4,7.5,0,0,0,0-7.1,0-7.5,0-.2,0-7.6,0-7.5,0,.5-7.5,0-7.5,0"/><path class="cls-3" d="M284.8,39c0,.3,0-7.1,0-7.5,0,.6-7.3-.3-7.2,0,0,0,0,7.2,0,7.5,0-.3-7.6,.4-7.5,0,0,0,0,7.9,0,7.5,0-.4,0,7.3,0,7.5,0,.6,7.5-.3,7.5,0,0,.1,0,7.6,0,7.5,0,0,7.1,.1,7.2,0,0,.1,0-7.4,0-7.5-.1,.5,7.5,.5,7.5,0-.1-.1,0-6.9,0-7.5,0,0,0-8,0-7.5,0-.4-7.6-.1-7.5,0"/><path class="cls-2" d="M307.4,8.6c-.2-.3,0,7.2,0,7.5,0,0,0,0,0,0h-7.5s0,0,0,0c0,.2,.3,7.2,0,7.5t0,0c-.2,0-7.4,0-7.5,0t0,0c-.3,0,0-7.3,0-7.5,0,0,0,0,0,0,0,0-7.4,0-7.5,0,0,0,0,0,0,0,0-.1-.4-7.5,0-7.5,0,0,0,0,0,0,.1-.3-6.9,0-7.2,0,0,0,0,0,0,0v7.4s0,0,0,0c-.2,0-7-.3-7.5,0h0c0,.2-.5,7,0,7.5,0,0,0,0,0,0-.8,0-7.4,0-7.5,0,0,0,0,0,0,0,0-.1,0-7.4,0-7.5,0,0,0,0,0,0-.6-.2-7.5,.3-7.5,0-1.3,.2,1.2-7.2,0-7.5,1,.2-6.1,0-7.2,0,0,0,0,0,0,0-.5,.3-.6,7,0,7.5,0,0,0,0,0,0h-7.4s0,0,0,0c0,.2-.8,7,0,7.5,0,0,0,0,0,0-.3,.4-8.1,0-7.5,0-1.1,0-1.1-6.9-.1-7.4,0,0,0,0,0,0-.6,0-7.3,0-7.5,0,0,0,0,0,0,0v-7.4s0,0,0,0c-.2,0-7.5-.3-7.2,0,.4,.1,0,7.2,0,7.5,0,0,0,0,0,0h-7.5s0,0,0,0v7.4c0,0,0,0,0,0h-7.4s0,0,0,0c0-.2-1.2-7.2,0-7.5,0,0,0,0,0,0-.6-.4-7.4,0-7.5,0,0,0,0,0,0,0,0-.1-.4-7,0-7.4,0,0,0,0,0,0-.6,0-5.9,.3-7,0,0,0,0,0,0,0,0,.4,0,7.2,0,7.5,0,0,0,0,0,0h-7.4s0,0,0,0v7.4s0,0,0,0c-.2,0-7,.3-7.5,0,0,0,0,0,0,0,.8-.5,0-7.3-.1-7.5,0,0,0,0,0,0-.5-.2-7.2,0-7.5,0,0,0,0,0,0,0,.2-.3,.5-7.7,0-7.5-.4,.2-6,.1-7,0,0,0,0,0,0,0,.9,.6-.1,7.2-.2,7.4,0,0,0,0,0,0h-7.4s0,0,0,0v7.4s0,0,0,0h-7.6s-.2-7.2,0-7.5c0,0,0,0,0,0-1-.3-7.4,0-7.4,0h0v-7.5s0,0,0,0c-.2,0-6.4,.3-7.1,0,0,0,0,0,0,0-.5,.2,.6,7.1,0,7.5,0,0,0,0,0,0-1.3-.2-7.3,.4-7.5,0-1.2-.5,.3,7.4,0,7.5h0s-6.3,.2-7.5,0c-.8,.2-.7-6.9,0-7.5,0,0,0,0,0,0-.4-.1-6.1,0-7.4,0,0,0,0,0,0,0,.5-.4-.4-7.3,0-7.5,1-.3-6.7,0-7.2,0h0c-.5,.3,1.2,7.5,0,7.5,.2,.4-6.3-.3-7.5,0-.9-.3-.4,7.2,0,7.5,.8,.3-7.3,.4-7.5,0,0,0,0,0,0,0,0,0,.3-7.5,0-7.5,.8-.4-6.7-.2-7.4,0,0,0,0,0,0,0,.5-.7,.5-7.3-.1-7.4h0c-.1,0-6.6-.3-7.1,0,0,0,0,0,0,0,1.2,0-.8,7-.1,7.4,0,0,0,0,0,0-1.4,0-8.4-.4-7.5,0,.5,.2,.3,7.3,0,7.5h0c-.3,0-7.5,.4-7.5,0-.6,.1-.3-6.9,0-7.5,0,0,0,0,0,0-1.4-.4-6.4,.1-7.5,0,0,0,0,0,0,0,.2-.2,0-7.3,0-7.5,0,0,0,0,0,0h-4.5s0,0,0,0c0-.2-.5-8,0-8.4,0,0,0,0,0,0,3.7-.3,5.5,.2,9.8,0h0c3.7,.3,25.7,.3,29.8,0h0c3.4,.3,9.1-.3,12.5,0h0c2.9-.2,21.2,0,23.5,0h0c1.8,.2,34,.4,36,0,1.9-.3,14.7-.2,17.1,0,2.3,.4,69.6,0,72.1,0,3.2,0,13.9-.1,17.2,0,2.1,0,5.2,.1,6.3,0,3.1-.4,22.9,.5,25.2,.2,4.6-.6,6.1-.4,10.8-.2,3,.3,7,.4,9.7,0,.9,0-1.1,8.2,0,8.4,0,0,0,0,0,0-.5,.2-4.2,0-4.9,0"/></g></g></g></svg>