<svg width="20" height="20" viewBox="0 0 20 20" fill="none" xmlns="http://www.w3.org/2000/svg">
<path fill-rule="evenodd" clip-rule="evenodd" d="M6.49751 6.29613C6.49751 3.35832 9.01888 1.0415 12.0468 1.0415L14.8498 1.0415C15.0661 1.0415 15.2802 1.05138 15.4738 1.09137C15.6725 1.1324 15.8914 1.21341 16.0759 1.38684C16.439 1.72828 16.4596 2.23161 16.4596 2.59243V4.44428C16.4596 4.8051 16.439 5.30843 16.0759 5.64987C15.8914 5.8233 15.6725 5.90431 15.4738 5.94534C15.2802 5.98533 15.0661 5.99521 14.8498 5.99521L12.0468 5.99521C11.8111 5.99521 11.6869 6.1657 11.6869 6.29613V7.98595L13.6957 7.98595C13.9729 7.98595 14.2376 7.99966 14.467 8.05075C14.6961 8.10179 14.9667 8.20688 15.1626 8.45113C15.3638 8.70179 15.4021 8.99299 15.3905 9.23345C15.3791 9.46765 15.3174 9.72041 15.2406 9.97298L14.8185 11.3619C14.7317 11.6476 14.6018 12.0046 14.2767 12.2352C13.961 12.4591 13.5809 12.4767 13.2736 12.4767H11.6869V17.4072C11.6869 17.7681 11.6663 18.2714 11.3031 18.6128C11.1187 18.7863 10.8998 18.8673 10.7011 18.9083C10.5075 18.9483 10.2934 18.9582 10.0771 18.9582H8.10736C7.89103 18.9582 7.67697 18.9483 7.48332 18.9083C7.28465 18.8673 7.06575 18.7863 6.88128 18.6128C6.51811 18.2714 6.49751 17.7681 6.49751 17.4072L6.49751 12.4767H5.15282C4.93649 12.4767 4.72242 12.4668 4.52877 12.4268C4.33011 12.3858 4.1112 12.3048 3.92673 12.1313C3.56357 11.7899 3.54297 11.2866 3.54297 10.9258V9.53687C3.54297 9.17605 3.56357 8.67273 3.92673 8.33129C4.1112 8.15786 4.33011 8.07685 4.52877 8.03582C4.72242 7.99582 4.93649 7.98595 5.15282 7.98595L6.49751 7.98595V6.29613ZM12.0468 2.2915C9.63547 2.2915 7.74751 4.1202 7.74751 6.29613L7.74751 8.61095C7.74751 8.95613 7.46769 9.23595 7.12251 9.23595H5.15282C4.98456 9.23595 4.87704 9.24379 4.80775 9.25517C4.7993 9.3125 4.79297 9.40098 4.79297 9.53687L4.79297 10.9258C4.79297 11.0617 4.7993 11.1501 4.80775 11.2075C4.87704 11.2188 4.98456 11.2267 5.15282 11.2267H7.12251C7.46769 11.2267 7.74751 11.5065 7.74751 11.8517L7.74751 17.4072C7.74751 17.5431 7.75385 17.6316 7.7623 17.689C7.8316 17.7003 7.93911 17.7082 8.10736 17.7082H10.0771C10.2453 17.7082 10.3528 17.7003 10.4221 17.6889C10.4306 17.6316 10.4369 17.5431 10.4369 17.4072V11.8517C10.4369 11.5065 10.7167 11.2267 11.0619 11.2267H13.2736C13.4148 11.2267 13.4961 11.2197 13.5447 11.2107C13.563 11.1743 13.5884 11.1106 13.6225 10.9984L14.0446 9.60952C14.0925 9.45206 14.1191 9.33924 14.1321 9.25932C14.0369 9.24506 13.8975 9.23595 13.6957 9.23595H11.0619C10.7167 9.23595 10.4369 8.95613 10.4369 8.61095L10.4369 6.29613C10.4369 5.40382 11.1945 4.74521 12.0468 4.74521L14.8498 4.74521C15.018 4.74521 15.1256 4.73737 15.1949 4.72599C15.2033 4.66866 15.2096 4.58018 15.2096 4.44428V2.59243C15.2096 2.45653 15.2033 2.36806 15.1949 2.31072C15.1256 2.29935 15.018 2.2915 14.8498 2.2915L12.0468 2.2915Z" fill="#161616"/>
</svg>
