<svg width="20" height="20" viewBox="0 0 20 20" fill="none" xmlns="http://www.w3.org/2000/svg">
<path fill-rule="evenodd" clip-rule="evenodd" d="M5.6237 10.0002C5.6237 7.58392 7.58245 5.62516 9.9987 5.62516C12.4149 5.62516 14.3737 7.58392 14.3737 10.0002C14.3737 12.4164 12.4149 14.3752 9.9987 14.3752C7.58245 14.3752 5.6237 12.4164 5.6237 10.0002ZM9.9987 6.87516C8.27281 6.87516 6.8737 8.27427 6.8737 10.0002C6.8737 11.7261 8.27281 13.1252 9.9987 13.1252C11.7246 13.1252 13.1237 11.7261 13.1237 10.0002C13.1237 8.27427 11.7246 6.87516 9.9987 6.87516Z" fill="#161616"/>
<path d="M14.5885 6.25016C15.0488 6.25016 15.4219 5.87707 15.4219 5.41683C15.4219 4.95659 15.0488 4.5835 14.5885 4.5835H14.5811C14.1208 4.5835 13.7477 4.95659 13.7477 5.41683C13.7477 5.87707 14.1208 6.25016 14.5811 6.25016H14.5885Z" fill="#161616"/>
<path fill-rule="evenodd" clip-rule="evenodd" d="M10.0463 1.4585C11.8719 1.45849 13.3058 1.45848 14.4253 1.60899C15.5726 1.76323 16.4828 2.08576 17.1979 2.80092C17.9131 3.51609 18.2356 4.4263 18.3899 5.57352C18.5404 6.69302 18.5404 8.12692 18.5404 9.95249V10.0478C18.5404 11.8734 18.5404 13.3073 18.3899 14.4268C18.2356 15.574 17.9131 16.4842 17.1979 17.1994C16.4828 17.9146 15.5726 18.2371 14.4253 18.3913C13.3058 18.5418 11.8719 18.5418 10.0464 18.5418H9.95106C8.12548 18.5418 6.69156 18.5418 5.57205 18.3913C4.42484 18.2371 3.51462 17.9146 2.79946 17.1994C2.08429 16.4842 1.76177 15.574 1.60753 14.4268C1.45701 13.3073 1.45702 11.8734 1.45703 10.0478V9.95252C1.45702 8.12693 1.45701 6.69303 1.60753 5.57352C1.76177 4.4263 2.08429 3.51609 2.79946 2.80092C3.51462 2.08576 4.42484 1.76323 5.57205 1.60899C6.69156 1.45848 8.12545 1.45849 9.95102 1.4585H10.0463ZM5.73861 2.84784C4.73001 2.98345 4.12755 3.2406 3.68334 3.68481C3.23914 4.12901 2.98198 4.73147 2.84638 5.74008C2.70836 6.76666 2.70703 8.11652 2.70703 10.0002C2.70703 11.8838 2.70836 13.2337 2.84638 14.2602C2.98198 15.2689 3.23914 15.8713 3.68334 16.3155C4.12755 16.7597 4.73001 17.0169 5.73861 17.1525C6.76519 17.2905 8.11505 17.2918 9.9987 17.2918C11.8823 17.2918 13.2322 17.2905 14.2588 17.1525C15.2674 17.0169 15.8699 16.7597 16.3141 16.3155C16.7583 15.8713 17.0154 15.2689 17.151 14.2602C17.289 13.2337 17.2904 11.8838 17.2904 10.0002C17.2904 8.11652 17.289 6.76666 17.151 5.74007C17.0154 4.73147 16.7583 4.12901 16.3141 3.68481C15.8699 3.2406 15.2674 2.98345 14.2588 2.84784C13.2322 2.70982 11.8823 2.7085 9.9987 2.7085C8.11505 2.7085 6.76519 2.70982 5.73861 2.84784Z" fill="#161616"/>
</svg>
