<svg width="20" height="20" viewBox="0 0 20 20" fill="none" xmlns="http://www.w3.org/2000/svg">
<path fill-rule="evenodd" clip-rule="evenodd" d="M4.85605 6.18687C4.85605 3.34516 7.15971 1.0415 10.0014 1.0415C12.8431 1.0415 15.1468 3.34516 15.1468 6.18687C15.1468 7.61489 15.1762 8.71186 15.3536 9.60446C15.6255 8.75673 16.2623 7.9158 17.09 7.06421C17.3306 6.8167 17.7263 6.81108 17.9738 7.05167C18.2213 7.29226 18.2269 7.68794 17.9863 7.93546C16.7966 9.15948 16.4003 9.99613 16.4669 10.6213C16.5309 11.2211 17.0623 11.9283 18.6337 12.7843C18.8999 12.9293 19.0186 13.2397 18.9318 13.5185C18.9551 13.5937 18.9644 13.674 18.9576 13.7558C18.9352 14.0223 18.7458 14.245 18.4863 14.3099C17.5724 14.5384 17.1423 14.7382 16.867 15.0135C16.5916 15.2889 16.3918 15.719 16.1633 16.6329C16.0938 16.9111 15.8438 17.1063 15.557 17.1063C14.0858 17.1063 13.2728 17.5168 12.5859 17.9395C12.495 17.9955 12.4026 18.0548 12.308 18.1155C11.6977 18.507 10.9944 18.9582 10.0014 18.9582C9.0084 18.9582 8.30525 18.5071 7.69499 18.1156C7.60037 18.0548 7.5078 17.9955 7.41691 17.9395C6.73 17.5168 5.91704 17.1063 4.44586 17.1063C4.15907 17.1063 3.90908 16.9111 3.83952 16.6329C3.61104 15.719 3.41118 15.2889 3.13586 15.0135C2.86054 14.7382 2.43041 14.5384 1.5165 14.3099C1.25707 14.245 1.06765 14.0223 1.04528 13.7558C1.03841 13.674 1.04774 13.5937 1.07107 13.5185C0.984208 13.2397 1.10291 12.9293 1.3691 12.7843C2.94055 11.9283 3.47197 11.2211 3.5359 10.6213C3.60255 9.99613 3.20624 9.15948 2.01649 7.93546C1.7759 7.68794 1.78152 7.29226 2.02904 7.05167C2.27656 6.81108 2.67224 6.8167 2.91283 7.06421C3.74057 7.9158 4.37731 8.75673 4.64921 9.60446C4.82668 8.71186 4.85605 7.61489 4.85605 6.18687ZM10.0014 2.2915C7.85006 2.2915 6.10605 4.03552 6.10605 6.18687C6.10605 8.13987 6.06524 9.75514 5.50622 11.0787C5.07535 12.0988 4.36047 12.902 3.25296 13.5867C3.54258 13.7325 3.79774 13.9076 4.01975 14.1297C4.46372 14.5736 4.72044 15.1502 4.92898 15.8697C6.41004 15.9538 7.33169 16.4194 8.07203 16.875C8.1898 16.9474 8.29885 17.0162 8.40131 17.0807C9.01874 17.4698 9.39699 17.7082 10.0014 17.7082C10.6058 17.7082 10.984 17.4699 11.6014 17.0808C11.7039 17.0162 11.813 16.9474 11.9308 16.875C12.6711 16.4194 13.5928 15.9538 15.0739 15.8697C15.2824 15.1502 15.5391 14.5736 15.9831 14.1297C16.2051 13.9076 16.4603 13.7325 16.7499 13.5867C15.6424 12.902 14.9275 12.0988 14.4966 11.0787C13.9376 9.75514 13.8968 8.13987 13.8968 6.18687C13.8968 4.03552 12.1528 2.2915 10.0014 2.2915Z" fill="#161616"/>
</svg>
