<svg width="20" height="20" viewBox="0 0 20 20" fill="none" xmlns="http://www.w3.org/2000/svg">
<path fill-rule="evenodd" clip-rule="evenodd" d="M7.47908 5.20834L7.40186 5.20826C7.00214 5.20758 6.6334 5.20696 6.27075 5.3726C6.00729 5.49295 5.78311 5.69741 5.61987 5.90162C5.45663 6.10583 5.30657 6.36953 5.24721 6.65304C5.16585 7.04165 5.23295 7.33735 5.30473 7.65366L5.31464 7.69741C5.67674 9.30099 6.52326 10.8734 7.8256 12.1757C9.12794 13.4781 10.7003 14.3246 12.3039 14.6867L12.3476 14.6966C12.664 14.7684 12.9597 14.8355 13.3483 14.7541C13.6318 14.6947 13.8955 14.5447 14.0997 14.3814C14.3039 14.2182 14.5084 13.994 14.6287 13.7306C14.7944 13.3679 14.7937 12.9992 14.7931 12.5995L14.793 12.5222C14.793 12.3386 14.7873 12.0293 14.6682 11.7435C14.5259 11.402 14.2327 11.1206 13.7732 11.0485L13.7684 11.0478C13.199 10.9586 12.7659 10.8907 12.4597 10.8462C12.3064 10.8239 12.1792 10.8066 12.0797 10.7953C11.9979 10.786 11.8854 10.7743 11.7912 10.7799C11.3833 10.8037 11.0588 10.9692 10.8075 11.1414C10.6475 11.2511 10.4737 11.3978 10.3371 11.5133C10.2834 11.5586 10.2354 11.5991 10.1963 11.6306L9.62802 12.0882C9.30953 11.85 9.00211 11.5845 8.70948 11.2918C8.41685 10.9992 8.15136 10.6918 7.91314 10.3733L8.3707 9.80501C8.40221 9.76587 8.44271 9.71792 8.48804 9.66424C8.60347 9.52758 8.75027 9.35377 8.85987 9.19384C9.0321 8.94251 9.19759 8.61804 9.22146 8.21007C9.22697 8.11593 9.21529 8.00339 9.206 7.92159C9.1947 7.82208 9.17742 7.69488 9.15514 7.54163C9.11063 7.23539 9.04279 6.80251 8.95352 6.23291L8.95277 6.22813C8.88075 5.7686 8.59931 5.47543 8.25784 5.33313C7.97199 5.21401 7.66272 5.20834 7.47908 5.20834ZM12.5792 13.4674C11.9606 13.3277 11.3431 13.1024 10.7469 12.7921L10.9802 12.6043C11.0717 12.5306 11.1453 12.4681 11.211 12.4122C11.3186 12.3207 11.4051 12.2472 11.5141 12.1726C11.6541 12.0766 11.7562 12.0373 11.8502 12.0288C11.8513 12.0289 11.8528 12.029 11.8549 12.0291C11.8659 12.03 11.8919 12.032 11.9386 12.0373C12.0185 12.0464 12.1303 12.0614 12.2799 12.0832C12.5693 12.1252 12.9786 12.1893 13.5276 12.2753C13.5298 12.2872 13.5319 12.3013 13.5339 12.318C13.5405 12.3739 13.543 12.4404 13.543 12.5222C13.543 13.0429 13.531 13.1252 13.4917 13.2112C13.4759 13.2459 13.4207 13.3239 13.3192 13.4051C13.2177 13.4862 13.1295 13.5228 13.0921 13.5306C12.9909 13.5518 12.9458 13.5502 12.5792 13.4674ZM7.39707 9.02108L7.20917 9.25445C6.89896 8.65826 6.67364 8.04075 6.53394 7.42209C6.45116 7.05548 6.44949 7.01045 6.47068 6.9092C6.47851 6.87185 6.5151 6.78365 6.59626 6.68211C6.67742 6.58058 6.7554 6.52546 6.79011 6.50961C6.87607 6.47034 6.95844 6.45834 7.47908 6.45834C7.56093 6.45834 7.62737 6.4608 7.68337 6.46742C7.69997 6.46938 7.71409 6.47155 7.726 6.47372C7.81204 7.02274 7.87607 7.43203 7.91814 7.72144C7.93988 7.87098 7.95492 7.98285 7.96399 8.06268C7.96929 8.10941 7.97131 8.13537 7.97218 8.14642C7.97234 8.14849 7.97246 8.15003 7.97255 8.15109C7.96407 8.24507 7.92467 8.34725 7.82875 8.48723C7.75408 8.59619 7.68058 8.68267 7.58913 8.79027C7.53327 8.85601 7.4707 8.92963 7.39707 9.02108Z" fill="#161616"/>
<path fill-rule="evenodd" clip-rule="evenodd" d="M10.0013 1.0415C5.05377 1.0415 1.04298 5.05229 1.04298 9.99984C1.04298 11.2339 1.29288 12.4112 1.74541 13.4827C1.86413 13.7638 1.94416 13.9537 1.99761 14.0997C2.05213 14.2486 2.05979 14.3024 2.06075 14.3163C2.06616 14.3946 2.04636 14.501 1.91123 15.006L1.06422 18.1716C1.00653 18.3873 1.06821 18.6173 1.22604 18.7751C1.38388 18.9329 1.6139 18.9946 1.82953 18.9369L4.99517 18.0899C5.5002 17.9548 5.6066 17.935 5.68485 17.9404C5.69873 17.9414 5.75259 17.949 5.90146 18.0035C6.04742 18.057 6.23736 18.137 6.51844 18.2557C7.58992 18.7083 8.76724 18.9582 10.0013 18.9582C14.9489 18.9582 18.9597 14.9474 18.9597 9.99984C18.9597 5.05229 14.9489 1.0415 10.0013 1.0415ZM2.29298 9.99984C2.29298 5.74264 5.74412 2.2915 10.0013 2.2915C14.2585 2.2915 17.7097 5.74264 17.7097 9.99984C17.7097 14.257 14.2585 17.7082 10.0013 17.7082C8.93729 17.7082 7.92513 17.4929 7.00477 17.1042L6.99032 17.0981C6.72746 16.9871 6.50932 16.895 6.33133 16.8298C6.153 16.7645 5.96526 16.7068 5.77115 16.6934C5.45598 16.6716 5.12907 16.7595 4.75346 16.8605L2.55132 17.4498L3.1406 15.2477C3.24164 14.8721 3.32958 14.5452 3.30777 14.23C3.29433 14.0359 3.23668 13.8482 3.17137 13.6698C3.1062 13.4919 3.01408 13.2738 2.90308 13.011L2.89692 12.9964C2.50821 12.076 2.29298 11.0639 2.29298 9.99984Z" fill="#161616"/>
</svg>
