<svg width="20" height="20" viewBox="0 0 20 20" fill="none" xmlns="http://www.w3.org/2000/svg">
<path fill-rule="evenodd" clip-rule="evenodd" d="M11.5416 7.61811L11.4735 7.58055C10.7864 7.20193 10.2245 6.89227 9.76186 6.7007C9.29222 6.50622 8.8106 6.38222 8.32028 6.51073C8.04173 6.58374 7.78024 6.71333 7.55679 6.89398C7.14654 7.22566 7.00152 7.70057 6.9379 8.17915C6.87636 8.64206 6.87638 9.24085 6.8764 9.95532V10.0444C6.87638 10.7589 6.87636 11.3577 6.9379 11.8206C7.00152 12.2992 7.14654 12.7741 7.55679 13.1057C7.78024 13.2864 8.04173 13.416 8.32028 13.489C8.8106 13.6175 9.29222 13.4935 9.76186 13.299C10.2245 13.1075 10.7864 12.7978 11.4735 12.4192L11.5416 12.3816C12.1703 12.0352 12.6895 11.7491 13.0631 11.484C13.4375 11.2184 13.7927 10.8893 13.9102 10.4093C13.9762 10.1398 13.9762 9.85991 13.9102 9.59044C13.7927 9.11044 13.4375 8.7813 13.0631 8.5157C12.6895 8.25059 12.1703 7.9645 11.5416 7.61811ZM8.6372 7.71989C8.72658 7.69647 8.89264 7.69369 9.2836 7.85559C9.67406 8.01728 10.1749 8.29218 10.9038 8.69387C11.5757 9.0641 12.0313 9.31629 12.3398 9.53516C12.6544 9.75837 12.69 9.86296 12.6961 9.88783C12.7143 9.96192 12.7143 10.0378 12.6961 10.1119C12.69 10.1368 12.6544 10.2414 12.3398 10.4646C12.0313 10.6834 11.5757 10.9356 10.9038 11.3059C10.1749 11.7075 9.67406 11.9825 9.2836 12.1441C8.89264 12.306 8.72658 12.3033 8.6372 12.2798C8.52307 12.2499 8.4229 12.1986 8.34267 12.1337C8.3046 12.1029 8.22545 12.0204 8.177 11.6559C8.12773 11.2853 8.12641 10.7706 8.12641 9.99987C8.12641 9.22909 8.12773 8.71446 8.177 8.34387C8.22545 7.97938 8.3046 7.89682 8.34267 7.86604C8.4229 7.80118 8.52307 7.7498 8.6372 7.71989Z" fill="#161616"/>
<path fill-rule="evenodd" clip-rule="evenodd" d="M10.0014 2.2915C8.45255 2.2915 6.96451 2.44447 5.58202 2.72628L5.47596 2.74788C3.8971 3.06925 2.84509 3.28337 1.93855 4.44894C1.04174 5.60199 1.04224 6.93917 1.04301 9.01017L1.04301 10.9895C1.04224 13.0605 1.04174 14.3977 1.93855 15.5507C2.84509 16.7163 3.8971 16.9304 5.47595 17.2518L5.58202 17.2734C6.96451 17.5552 8.45255 17.7082 10.0014 17.7082C11.5502 17.7082 13.0383 17.5552 14.4208 17.2734L14.5268 17.2518C16.1057 16.9304 17.1577 16.7163 18.0642 15.5507C18.9611 14.3977 18.9606 13.0605 18.9598 10.9895L18.9598 9.01016C18.9606 6.93917 18.9611 5.60199 18.0642 4.44894C17.1577 3.28337 16.1057 3.06925 14.5268 2.74788L14.4208 2.72628C13.0383 2.44447 11.5502 2.2915 10.0014 2.2915ZM5.83169 3.9511C7.12977 3.68649 8.53409 3.5415 10.0014 3.5415C11.4687 3.5415 12.873 3.68649 14.1711 3.9511C15.8812 4.29969 16.4766 4.44367 17.0775 5.21636C17.6817 5.99318 17.7097 6.86537 17.7097 9.19688L17.7097 10.8028C17.7097 13.1343 17.6817 14.0065 17.0775 14.7833C16.4766 15.556 15.8812 15.7 14.1711 16.0486C12.873 16.3132 11.4687 16.4582 10.0014 16.4582C8.53409 16.4582 7.12977 16.3132 5.83169 16.0486C4.12161 15.7 3.52622 15.556 2.92524 14.7833C2.32105 14.0065 2.29306 13.1343 2.29306 10.8028V9.19688C2.29306 6.86537 2.32105 5.99318 2.92524 5.21636C3.52622 4.44367 4.12161 4.29969 5.83169 3.9511Z" fill="#161616"/>
</svg>
