<svg width="109" height="65" viewBox="0 0 109 65" fill="none" xmlns="http://www.w3.org/2000/svg">
<g id="Asset 3 1" clip-path="url(#clip0_268_36530)">
<g id="Layer_1">
<g id="Group">
<path id="Vector" d="M75.6887 50.9152C75.8858 50.83 76.046 50.7141 76.1692 50.5698C76.2899 50.4255 76.3811 50.2575 76.4377 50.0682C76.4944 49.8789 76.5215 49.6778 76.5215 49.4696V42.6582H75.5557V49.2189C75.5557 49.4247 75.531 49.5808 75.4818 49.692C75.4325 49.8032 75.366 49.8884 75.2822 49.9523C75.1984 50.0162 75.1097 50.054 75.0112 50.0706C74.9126 50.0871 74.8215 50.0966 74.7328 50.0966H73.8039C73.56 50.0966 73.3579 50.0445 73.2003 49.9428C73.0401 49.8411 72.912 49.7039 72.8159 49.5311C72.7173 49.3608 72.6434 49.1573 72.5892 48.9231C72.5375 48.6889 72.4981 48.4428 72.471 48.1826C72.4586 47.9531 72.4143 47.7141 72.3404 47.4681C72.2665 47.222 72.1507 46.9996 71.9905 46.8009C71.8304 46.6022 71.6259 46.4389 71.3746 46.3112C71.1208 46.1834 70.8103 46.1195 70.4408 46.1195C70.2831 46.1195 70.1205 46.1313 69.9505 46.155C69.7805 46.1787 69.6154 46.2047 69.4577 46.2331C69.2975 46.2615 69.1472 46.297 69.0043 46.3372C68.8614 46.3774 68.7432 46.4129 68.652 46.446L68.8935 47.3545C69.1029 47.267 69.3271 47.1984 69.5661 47.1511C69.8051 47.1037 70.0047 47.0801 70.1599 47.0801C70.5344 47.0801 70.8325 47.1794 71.0592 47.3805C71.2834 47.5816 71.4263 47.9318 71.4879 48.4334C71.5544 48.8924 71.6259 49.2449 71.7072 49.4909C71.7885 49.7346 71.8846 49.9381 71.9979 50.0966H66.7351C66.713 49.4436 66.6563 48.4073 66.5627 48.1802C66.4395 47.8868 66.2744 47.6503 66.0625 47.4704C65.8506 47.2906 65.5969 47.1605 65.3012 47.0824C65.0055 47.002 61.1201 46.9641 60.7702 46.9641H60.5115L63.6332 44.9058L63.1035 44.2292L59.1121 46.9216V47.8561H63.1429C63.5396 47.8561 64.7518 47.8892 64.9834 47.9555C65.215 48.0217 65.3924 48.1353 65.5156 48.2914C65.6363 48.4476 65.7151 48.6605 65.7472 48.9302C65.757 49.0083 65.7644 49.6305 65.7718 50.099H57.3726V48.3813C57.3726 48.0501 57.3208 47.7473 57.2149 47.4728C57.1114 47.196 56.9636 46.9618 56.7739 46.7654C56.5842 46.569 56.3526 46.4153 56.0741 46.3064C55.7982 46.1976 55.4853 46.1432 55.1379 46.1432C54.7905 46.1432 54.4505 46.2142 54.145 46.3561C53.8394 46.4981 53.5783 46.6897 53.359 46.931C53.1397 47.1723 52.9673 47.4539 52.8465 47.778C52.7233 48.1021 52.6642 48.4428 52.6642 48.8024C52.6642 49.0745 52.711 49.3442 52.8046 49.614C52.8983 49.8837 53.0486 50.1226 53.2555 50.3332C53.4625 50.5414 53.7335 50.7141 54.0711 50.8466C54.4086 50.9814 54.8176 51.0477 55.2956 51.0477H56.4314C56.4215 51.4191 56.3599 51.722 56.2441 51.9562C56.1283 52.1904 55.9781 52.375 55.7908 52.5075C55.6036 52.6423 55.3867 52.7322 55.1404 52.7772C54.894 52.8221 54.6353 52.8458 54.3593 52.8458C54.1942 52.8458 54.0218 52.841 53.8444 52.8292C53.667 52.8198 53.4822 52.8056 53.2949 52.789C53.2777 52.9357 53.2629 53.08 53.2481 53.222C53.2358 53.3639 53.221 53.5177 53.2087 53.6786C53.396 53.707 53.5783 53.7259 53.7581 53.7354C53.9355 53.7425 54.1105 53.7472 54.2805 53.7472C54.7289 53.7472 55.1404 53.6975 55.5124 53.6005C55.8844 53.5011 56.2072 53.345 56.4831 53.1273C56.7566 52.9097 56.971 52.6305 57.1237 52.2874C57.2765 51.9444 57.3578 51.5303 57.3726 51.0453H71.1602C71.3203 51.0453 71.4805 51.0027 71.6406 50.9176C71.8008 50.8324 71.9683 50.6408 72.1457 50.3427C72.3428 50.5934 72.567 50.7732 72.8208 50.8821C73.0746 50.9909 73.3752 51.0453 73.7177 51.0453H74.9471C75.2428 51.0453 75.4892 51.0027 75.6887 50.9176M56.4142 50.0966H55.2389C55.0221 50.0966 54.8151 50.0682 54.6205 50.0114C54.4258 49.9546 54.2534 49.8671 54.0982 49.7488C53.9429 49.6305 53.8222 49.472 53.7335 49.278C53.6448 49.084 53.6005 48.8474 53.6005 48.573C53.6005 48.3387 53.6399 48.1282 53.7212 47.9436C53.8025 47.7567 53.9084 47.5958 54.0415 47.4586C54.1745 47.3214 54.3298 47.2173 54.5071 47.1487C54.687 47.0801 54.8693 47.0446 55.0566 47.0446C55.4754 47.0446 55.8056 47.1936 56.0495 47.4941C56.2934 47.7922 56.4142 48.2157 56.4142 48.7575V50.099V50.0966Z" fill="#37336E"/>
<path id="Vector_2" d="M33.7247 50.5698C33.8479 50.4255 33.9366 50.2575 33.9933 50.0682C34.0499 49.8789 34.0795 49.6778 34.0795 49.4696V42.6582H33.1137V49.2189C33.1137 49.4247 33.089 49.5808 33.0398 49.692C32.9905 49.8032 32.924 49.8884 32.8402 49.9523C32.7564 50.0162 32.6677 50.054 32.5692 50.0706C32.4706 50.0871 32.3795 50.0966 32.2908 50.0966H31.6797C31.4087 50.0966 31.1845 50.0611 31.0071 49.9901C30.8297 49.9192 30.6843 49.8222 30.5759 49.6991C30.4675 49.5761 30.3887 49.4294 30.3443 49.2638C30.2975 49.0958 30.2753 48.9136 30.2753 48.7125V46.5998H29.3145V50.9885C29.3145 51.5232 29.2307 51.9231 29.0631 52.1904C28.8956 52.4554 28.5778 52.5879 28.1121 52.5879C28.0333 52.5879 27.9495 52.5879 27.8608 52.5808C27.7721 52.5761 27.6883 52.569 27.6095 52.5548L27.3212 52.5051L27.2177 53.4325C27.3089 53.4444 27.4321 53.4585 27.5898 53.4775C27.7475 53.494 27.9199 53.5035 28.1121 53.5035C28.4595 53.5035 28.7699 53.442 29.0434 53.319C29.3144 53.1959 29.5411 53.0232 29.7234 52.8056C29.9033 52.5855 30.0413 52.3276 30.1349 52.0343C30.2285 51.7385 30.2753 51.4239 30.2753 51.0903V50.2054C30.3419 50.3947 30.4281 50.5438 30.539 50.655C30.6498 50.7661 30.7706 50.8513 30.8987 50.9128C31.0268 50.9743 31.1599 51.0122 31.3003 51.0264C31.4186 51.0382 31.5393 51.043 31.6576 51.0453L32.5051 51.0477C32.8008 51.0477 33.0472 51.0051 33.2467 50.9199C33.4438 50.8348 33.604 50.7188 33.7272 50.5745" fill="#37336E"/>
<path id="Vector_3" d="M3.26434 44.9033C3.42202 44.9033 3.55261 44.8513 3.66348 44.7472C3.77189 44.6431 3.82609 44.5153 3.82609 44.3639C3.82609 44.2125 3.77189 44.0847 3.66348 43.9783C3.55507 43.8718 3.42202 43.8174 3.26434 43.8174C3.10665 43.8174 2.981 43.8718 2.87259 43.9783C2.76418 44.0847 2.70998 44.2125 2.70998 44.3639C2.70998 44.5153 2.76418 44.6431 2.87259 44.7472C2.981 44.8513 3.11158 44.9033 3.26434 44.9033Z" fill="#37336E"/>
<path id="Vector_4" d="M1.6382 44.9033C1.79589 44.9033 1.92893 44.8513 2.03981 44.7472C2.15068 44.6431 2.20735 44.5153 2.20735 44.3639C2.20735 44.2125 2.15314 44.0847 2.03981 43.9783C1.92893 43.8718 1.79589 43.8174 1.6382 43.8174C1.49037 43.8174 1.35979 43.8718 1.24892 43.9783C1.13804 44.0847 1.08138 44.2125 1.08138 44.3639C1.08138 44.5153 1.13558 44.6431 1.24892 44.7472C1.35979 44.8513 1.49037 44.9033 1.6382 44.9033Z" fill="#37336E"/>
<path id="Vector_5" d="M12.1859 52.3906C12.0331 52.3906 11.9025 52.4427 11.7941 52.5468C11.6857 52.6509 11.6315 52.7786 11.6315 52.9301C11.6315 53.0815 11.6857 53.2021 11.7941 53.3062C11.9025 53.4103 12.0331 53.4624 12.1859 53.4624C12.3386 53.4624 12.4766 53.4103 12.5875 53.3062C12.6984 53.2021 12.755 53.0767 12.755 52.9301C12.755 52.7834 12.6984 52.6532 12.5875 52.5468C12.4766 52.4427 12.3436 52.3906 12.1859 52.3906Z" fill="#37336E"/>
<path id="Vector_6" d="M10.5647 53.4624C10.7224 53.4624 10.8554 53.4103 10.9638 53.3062C11.0722 53.2021 11.1264 53.0767 11.1264 52.9301C11.1264 52.7834 11.0722 52.6532 10.9638 52.5468C10.8554 52.4427 10.7224 52.3906 10.5647 52.3906C10.407 52.3906 10.2813 52.4427 10.1729 52.5468C10.0645 52.6509 10.0103 52.7786 10.0103 52.9301C10.0103 53.0815 10.0645 53.2021 10.1729 53.3062C10.2813 53.4103 10.4119 53.4624 10.5647 53.4624Z" fill="#37336E"/>
<path id="Vector_7" d="M18.8925 50.5739C19.06 50.4249 19.2251 50.2285 19.3852 49.9824C19.4419 50.1906 19.5281 50.3633 19.6439 50.5006C19.7597 50.6354 19.8903 50.7443 20.0381 50.8271C20.186 50.9075 20.3461 50.9643 20.5137 50.9974C20.6837 51.0282 20.8561 51.0447 21.0286 51.0447H27.3434V48.3168C27.3434 47.9903 27.2941 47.6946 27.1956 47.4296C27.097 47.1646 26.9541 46.9352 26.7669 46.7435C26.5796 46.5519 26.3554 46.4028 26.0918 46.2987C25.8281 46.1946 25.5325 46.1426 25.2073 46.1426C24.8204 46.1426 24.4657 46.2136 24.1454 46.3555C23.8251 46.4975 23.5491 46.6796 23.315 46.9044C23.081 47.1292 22.9036 47.3894 22.7804 47.6851C22.6572 47.9809 22.5931 48.2837 22.5931 48.5889C22.5931 48.9201 22.6498 49.2135 22.7656 49.4738C22.8814 49.734 23.0268 49.9422 23.2066 50.1007H21.0656C20.7477 50.1007 20.4964 50.0534 20.3141 49.9588C20.1318 49.8641 19.9913 49.7529 19.8952 49.6228C19.7992 49.4927 19.7376 49.3578 19.7129 49.2159C19.6858 49.0739 19.6735 48.9556 19.6735 48.8586C19.6735 48.0093 19.469 47.3516 19.0625 46.8831C18.6559 46.4147 18.0843 46.1804 17.3476 46.1804C16.9953 46.1804 16.6701 46.2443 16.3744 46.3697C16.0788 46.4951 15.825 46.6702 15.6131 46.8926C15.4012 47.1173 15.2361 47.3823 15.1129 47.6922C14.9922 48.0022 14.9306 48.3358 14.9306 48.6954C14.9306 48.984 14.901 49.2182 14.8395 49.4004C14.7779 49.5826 14.699 49.7246 14.6054 49.831C14.5093 49.9351 14.4009 50.0061 14.2752 50.0439C14.152 50.0818 14.0239 50.1007 13.8933 50.1007H13.2035C12.9472 50.1007 12.7279 50.0652 12.5506 49.9943C12.3707 49.9233 12.2278 49.8263 12.1169 49.7033C12.006 49.5802 11.9297 49.4335 11.8853 49.2679C11.841 49.1 11.8213 48.9178 11.8213 48.7167V46.6039H10.8554V49.2135C10.8554 49.4856 10.8062 49.7009 10.7051 49.8618C10.6041 50.0227 10.407 50.1031 10.1114 50.1031H4.7131V48.3855C4.7131 48.0542 4.65889 47.7514 4.55295 47.4769C4.447 47.2001 4.29917 46.9659 4.10946 46.7695C3.91974 46.5732 3.68814 46.4194 3.40973 46.3106C3.13378 46.2017 2.8258 46.1473 2.48579 46.1473C2.12854 46.1473 1.79838 46.2183 1.49287 46.3602C1.18735 46.5022 0.923723 46.6938 0.701978 46.9352C0.480233 47.1765 0.307765 47.458 0.182109 47.7821C0.0589175 48.1063 -0.00514221 48.447 -0.00514221 48.8066C-0.00514221 49.0787 0.0416706 49.3484 0.135296 49.6181C0.228922 49.8878 0.379216 50.1268 0.586178 50.3373C0.79314 50.5455 1.06416 50.7182 1.40171 50.8507C1.73925 50.9856 2.14825 51.0518 2.62623 51.0518H10.1877C10.3454 51.0518 10.4957 51.04 10.646 51.0163C10.7938 50.9927 10.9318 50.9501 11.0575 50.8886C11.1831 50.8247 11.2989 50.7348 11.4049 50.6118C11.5084 50.4911 11.6044 50.3326 11.6931 50.1362C11.7942 50.4674 11.974 50.7017 12.2352 50.8413C12.4963 50.9808 12.8068 51.0518 13.169 51.0518H13.9894C14.2457 51.0518 14.4994 50.9714 14.7483 50.8081C14.9971 50.6449 15.177 50.3988 15.2903 50.0676C15.517 50.4272 15.788 50.6898 16.1059 50.8578C16.4237 51.0258 16.8154 51.1086 17.2811 51.1086C17.4733 51.1086 17.6605 51.0968 17.8429 51.0731C18.0252 51.0495 18.205 50.9998 18.3775 50.9217C18.5524 50.8436 18.7225 50.7324 18.89 50.5834M23.6797 47.9407C23.7659 47.7538 23.8768 47.5929 24.0172 47.4557C24.1552 47.3184 24.3178 47.2143 24.5001 47.1457C24.6825 47.0771 24.8722 47.0416 25.0693 47.0416C25.3009 47.0416 25.498 47.0795 25.6631 47.1505C25.8282 47.2238 25.9637 47.3184 26.0671 47.4367C26.1706 47.555 26.2495 47.6851 26.2987 47.8318C26.348 47.9785 26.3751 48.1205 26.3751 48.2577V50.096H24.9978C24.7096 50.0581 24.4706 49.9824 24.2784 49.8712C24.0911 49.7742 23.9236 49.6252 23.7758 49.4193C23.6279 49.2135 23.554 48.932 23.554 48.5724C23.554 48.3381 23.5959 48.1276 23.6822 47.943L23.6797 47.9407ZM3.75467 50.096H2.59174C2.37492 50.096 2.16796 50.0676 1.97332 50.0108C1.77867 49.954 1.6062 49.8665 1.45098 49.7482C1.29576 49.6299 1.17503 49.4714 1.08634 49.2774C0.997638 49.0834 0.953289 48.8468 0.953289 48.5724C0.953289 48.3381 0.99271 48.1276 1.07402 47.943C1.15532 47.7561 1.26373 47.5952 1.40171 47.458C1.53968 47.3208 1.69244 47.2167 1.86244 47.1481C2.03245 47.0795 2.20984 47.044 2.3971 47.044C2.83566 47.044 3.1732 47.193 3.40727 47.4935C3.64133 47.7916 3.75713 48.2151 3.75713 48.7569V50.0984L3.75467 50.096ZM17.3427 50.1646C17.0865 50.1646 16.8672 50.1244 16.6873 50.0463C16.5075 49.9659 16.3547 49.8618 16.234 49.7293C16.1133 49.5968 16.0221 49.4454 15.9654 49.2727C15.9088 49.1 15.8817 48.9083 15.8817 48.6977C15.8817 48.4422 15.9186 48.2151 15.995 48.0116C16.0714 47.8082 16.1773 47.6355 16.3104 47.4935C16.4459 47.3516 16.6011 47.2404 16.781 47.1599C16.9583 47.0795 17.1456 47.0416 17.3427 47.0416C17.525 47.0416 17.7049 47.0818 17.8823 47.1599C18.0597 47.2404 18.2149 47.3492 18.3504 47.4935C18.4859 47.6355 18.5919 47.8082 18.6732 48.0116C18.7545 48.2151 18.7939 48.4422 18.7939 48.6977C18.7939 48.9059 18.7643 49.0976 18.7077 49.2727C18.651 49.4454 18.5648 49.5992 18.4465 49.7293C18.3282 49.8618 18.1779 49.9659 17.9932 50.0463C17.8084 50.1268 17.5916 50.1646 17.3427 50.1646Z" fill="#37336E"/>
<path id="Vector_8" d="M24.2784 44.9033C24.4311 44.9033 24.5617 44.8513 24.6726 44.7472C24.7835 44.6431 24.8377 44.5153 24.8377 44.3639C24.8377 44.2125 24.7835 44.0847 24.6726 43.9783C24.5617 43.8718 24.4287 43.8174 24.2784 43.8174C24.1281 43.8174 23.9876 43.8718 23.8792 43.9783C23.7708 44.0847 23.7166 44.2125 23.7166 44.3639C23.7166 44.5153 23.7708 44.6431 23.8792 44.7472C23.9876 44.8513 24.1207 44.9033 24.2784 44.9033Z" fill="#37336E"/>
<path id="Vector_9" d="M25.8971 44.9033C26.0548 44.9033 26.1854 44.8513 26.2963 44.7472C26.4047 44.6431 26.4589 44.5153 26.4589 44.3639C26.4589 44.2125 26.4047 44.0847 26.2963 43.9783C26.1878 43.8718 26.0548 43.8174 25.8971 43.8174C25.7394 43.8174 25.6138 43.8718 25.5029 43.9783C25.392 44.0847 25.3354 44.2125 25.3354 44.3639C25.3354 44.5153 25.392 44.6431 25.5029 44.7472C25.6138 44.8513 25.7444 44.9033 25.8971 44.9033Z" fill="#37336E"/>
<path id="Vector_10" d="M40.8674 44.9033C41.0251 44.9033 41.1581 44.8513 41.269 44.7472C41.3799 44.6431 41.4365 44.5153 41.4365 44.3639C41.4365 44.2125 41.3823 44.0847 41.269 43.9783C41.1581 43.8718 41.0251 43.8174 40.8674 43.8174C40.7195 43.8174 40.589 43.8718 40.4781 43.9783C40.3672 44.0847 40.3105 44.2125 40.3105 44.3639C40.3105 44.5153 40.3647 44.6431 40.4781 44.7472C40.589 44.8513 40.7195 44.9033 40.8674 44.9033Z" fill="#37336E"/>
<path id="Vector_11" d="M42.4935 44.9033C42.6512 44.9033 42.7818 44.8513 42.8926 44.7472C43.001 44.6431 43.0552 44.5153 43.0552 44.3639C43.0552 44.2125 43.001 44.0847 42.8926 43.9783C42.7842 43.8718 42.6512 43.8174 42.4935 43.8174C42.3358 43.8174 42.2102 43.8718 42.1017 43.9783C41.9933 44.0847 41.9391 44.2125 41.9391 44.3639C41.9391 44.5153 41.9933 44.6431 42.1017 44.7472C42.2102 44.8513 42.3407 44.9033 42.4935 44.9033Z" fill="#37336E"/>
<path id="Vector_12" d="M51.2204 50.3562C51.4003 50.1362 51.5333 49.8878 51.6146 49.611C51.6984 49.3342 51.7378 49.0503 51.7378 48.7616C51.7378 48.376 51.691 48.0258 51.5974 47.7112C51.5037 47.3965 51.3608 47.1268 51.1686 46.902C50.9765 46.6773 50.7375 46.5022 50.4467 46.3721C50.156 46.2419 49.8185 46.1781 49.4316 46.1781C49.0842 46.1781 48.759 46.2419 48.4609 46.3673C48.1628 46.4927 47.9065 46.6654 47.6946 46.8878C47.4803 47.1102 47.3128 47.3728 47.1896 47.6804C47.0664 47.988 47.0023 48.3263 47.0023 48.693C47.0023 49.6299 46.6549 50.0984 45.9576 50.0984H43.9422V48.3807C43.9422 48.0495 43.888 47.7467 43.7821 47.4722C43.6761 47.1954 43.5283 46.9612 43.3386 46.7648C43.1489 46.5684 42.9173 46.4147 42.6389 46.3058C42.3629 46.197 42.0549 46.1426 41.7149 46.1426C41.3577 46.1426 41.0275 46.2136 40.722 46.3555C40.4165 46.4975 40.1529 46.6891 39.9311 46.9304C39.7094 47.1717 39.5369 47.4533 39.4112 47.7774C39.288 48.1015 39.224 48.4422 39.224 48.8018C39.224 49.0739 39.2708 49.3436 39.3644 49.6134C39.458 49.8831 39.6083 50.122 39.8153 50.3326C40.0223 50.5408 40.2933 50.7135 40.6308 50.846C40.9684 50.9808 41.3774 51.0471 41.8554 51.0471H45.9084C46.2558 51.0471 46.549 50.9714 46.783 50.8176C47.0171 50.6662 47.2093 50.413 47.3571 50.0629C47.5049 50.2876 47.6651 50.4674 47.8351 50.6023C48.0051 50.7372 48.1825 50.8389 48.3648 50.9099C48.5471 50.9808 48.7295 51.0258 48.9142 51.0471C49.0966 51.0684 49.269 51.0778 49.4292 51.0778C49.8554 51.0778 50.2151 51.014 50.5059 50.8838C50.7966 50.7537 51.0331 50.5786 51.2155 50.361M42.9838 50.096H41.8209C41.604 50.096 41.3971 50.0676 41.2049 50.0108C41.0103 49.954 40.8378 49.8665 40.6826 49.7482C40.5274 49.6299 40.4066 49.4714 40.3179 49.2774C40.2292 49.0834 40.1849 48.8468 40.1849 48.5724C40.1849 48.3381 40.2243 48.1276 40.3056 47.943C40.3869 47.7561 40.4953 47.5952 40.6308 47.458C40.7688 47.3208 40.9216 47.2167 41.0916 47.1481C41.2616 47.0795 41.439 47.044 41.6262 47.044C42.0648 47.044 42.4023 47.193 42.6364 47.4935C42.8705 47.7916 42.9863 48.2151 42.9863 48.7569V50.0984L42.9838 50.096ZM50.0525 50.0439C49.8677 50.1244 49.6559 50.1622 49.4169 50.1622C49.1508 50.1622 48.929 50.122 48.7467 50.0439C48.5668 49.9635 48.4165 49.8594 48.2983 49.7269C48.18 49.5944 48.0938 49.443 48.0347 49.2703C47.9755 49.0976 47.946 48.9059 47.946 48.6954C47.946 48.4399 47.9854 48.2127 48.0642 48.0093C48.1431 47.8058 48.249 47.6331 48.3845 47.4911C48.52 47.3492 48.6752 47.238 48.8551 47.1575C49.0325 47.0771 49.2198 47.0393 49.4169 47.0393C49.5918 47.0393 49.7667 47.0795 49.9417 47.1575C50.1191 47.238 50.2743 47.3468 50.4098 47.4911C50.5453 47.6331 50.6512 47.8058 50.7326 48.0093C50.8139 48.2127 50.8533 48.4399 50.8533 48.6954C50.8533 48.9036 50.8237 49.0952 50.767 49.2703C50.7104 49.443 50.6241 49.5968 50.5059 49.7269C50.3876 49.8594 50.2373 49.9635 50.0525 50.0439Z" fill="#37336E"/>
<path id="Vector_13" d="M79.01 42.6582H78.0688V51.043H79.01V42.6582Z" fill="#37336E"/>
<path id="Vector_14" d="M84.7901 44.9033C84.9478 44.9033 85.0784 44.8513 85.1893 44.7472C85.2977 44.6431 85.3519 44.5153 85.3519 44.3639C85.3519 44.2125 85.2977 44.0847 85.1893 43.9783C85.0809 43.8718 84.9478 43.8174 84.7901 43.8174C84.6324 43.8174 84.5068 43.8718 84.3984 43.9783C84.29 44.0847 84.2358 44.2125 84.2358 44.3639C84.2358 44.5153 84.29 44.6431 84.3984 44.7472C84.5068 44.8513 84.6374 44.9033 84.7901 44.9033Z" fill="#37336E"/>
<path id="Vector_15" d="M83.164 44.9033C83.3217 44.9033 83.4547 44.8513 83.5656 44.7472C83.6765 44.6431 83.7331 44.5153 83.7331 44.3639C83.7331 44.2125 83.6765 44.0847 83.5656 43.9783C83.4547 43.8718 83.3217 43.8174 83.164 43.8174C83.0162 43.8174 82.8856 43.8718 82.7747 43.9783C82.6638 44.0847 82.6072 44.2125 82.6072 44.3639C82.6072 44.5153 82.6614 44.6431 82.7747 44.7472C82.8856 44.8513 83.0162 44.9033 83.164 44.9033Z" fill="#37336E"/>
<path id="Vector_16" d="M95.6754 44.4886H95.3674C95.1579 44.4886 94.9732 44.4603 94.8155 44.4058C94.6553 44.3514 94.5247 44.2804 94.4237 44.1953C94.3227 44.1101 94.2463 44.0131 94.1995 43.9043C94.1502 43.7954 94.1281 43.6842 94.1281 43.5707C94.1281 43.3483 94.2118 43.1898 94.3769 43.0904C94.542 42.9934 94.7539 42.9437 95.0101 42.9437C95.0717 42.9437 95.1456 42.9484 95.2343 42.9555C95.323 42.965 95.392 42.9721 95.4388 42.9816L95.5177 42.3996C95.4265 42.3783 95.3279 42.3641 95.2269 42.3546C95.1235 42.3475 95.0249 42.3428 94.9288 42.3428C94.7021 42.3428 94.5026 42.3735 94.3276 42.4374C94.1527 42.5013 94.0073 42.5841 93.8891 42.6906C93.7708 42.797 93.6821 42.9177 93.6205 43.0549C93.5589 43.1898 93.5293 43.3341 93.5293 43.4855C93.5293 43.6227 93.5663 43.7836 93.6378 43.9682C93.7092 44.1527 93.8398 44.3254 94.027 44.4886H93.1253V45.0778H95.6729V44.4886" fill="#37336E"/>
<path id="Vector_17" d="M98.6664 53.4624C98.8241 53.4624 98.9547 53.4103 99.0656 53.3062C99.174 53.2021 99.2282 53.0767 99.2282 52.9301C99.2282 52.7834 99.174 52.6532 99.0656 52.5468C98.9572 52.4427 98.8241 52.3906 98.6664 52.3906C98.5087 52.3906 98.3831 52.4427 98.2747 52.5468C98.1663 52.6509 98.1121 52.7786 98.1121 52.9301C98.1121 53.0815 98.1663 53.2021 98.2747 53.3062C98.3831 53.4103 98.5137 53.4624 98.6664 53.4624Z" fill="#37336E"/>
<path id="Vector_18" d="M100.854 52.9301C100.854 52.7786 100.798 52.6532 100.687 52.5468C100.576 52.4427 100.443 52.3906 100.285 52.3906C100.127 52.3906 100.002 52.4427 99.8934 52.5468C99.785 52.6509 99.7308 52.7786 99.7308 52.9301C99.7308 53.0815 99.785 53.2021 99.8934 53.3062C100.002 53.4103 100.132 53.4624 100.285 53.4624C100.438 53.4624 100.576 53.4103 100.687 53.3062C100.798 53.2021 100.854 53.0767 100.854 52.9301Z" fill="#37336E"/>
<path id="Vector_19" d="M108.963 48.3882C108.822 47.0799 107.995 45.7881 105.762 45.7881C104.469 45.7881 103.565 46.1856 103.565 46.1856L103.698 47.0089C103.698 47.0089 104.274 46.7321 105.319 46.6516C105.826 46.6138 106.849 46.6162 107.347 47.0704C108.253 47.8985 107.958 50.094 107.958 50.094H106.763V49.2092C106.763 48.9915 106.728 48.7928 106.657 48.6106C106.588 48.4284 106.489 48.2746 106.366 48.1445C106.24 48.0144 106.088 47.915 105.908 47.8441C105.725 47.7731 105.523 47.7376 105.302 47.7376C105.067 47.7376 104.851 47.7849 104.649 47.8772C104.449 47.9718 104.277 48.0972 104.129 48.2557C103.983 48.4142 103.87 48.5988 103.786 48.8117C103.705 49.0246 103.663 49.2494 103.663 49.486C103.663 49.6658 103.693 49.8432 103.754 50.0207C103.764 50.0467 103.779 50.0704 103.789 50.094H101.31C101.054 50.094 100.835 50.0585 100.657 49.9876C100.48 49.9166 100.334 49.8196 100.224 49.6966C100.113 49.5735 100.036 49.4268 99.992 49.2612C99.9476 49.0932 99.9255 48.9111 99.9255 48.71V46.5972H98.9596V49.2068C98.9596 49.4789 98.9104 49.6942 98.8093 49.8551C98.7083 50.0159 98.5112 50.0964 98.2156 50.0964H96.1829C95.9267 50.0964 95.7074 50.0609 95.53 49.9899C95.3526 49.9189 95.2072 49.8219 95.0963 49.6989C94.9855 49.5759 94.9091 49.4292 94.8647 49.2636C94.8204 49.0956 94.7982 48.9134 94.7982 48.7123V46.5996H93.8324V49.2092C93.8324 49.4813 93.7831 49.6966 93.6821 49.8574C93.5811 50.0183 93.384 50.0988 93.0883 50.0988H86.2389V48.3811C86.2389 48.0499 86.1847 47.7471 86.0787 47.4726C85.9728 47.1958 85.8249 46.9616 85.6352 46.7652C85.4455 46.5688 85.2139 46.415 84.9355 46.3062C84.6595 46.1974 84.3516 46.143 84.0116 46.143C83.6543 46.143 83.3241 46.2139 83.0186 46.3559C82.7131 46.4979 82.4495 46.6895 82.2277 46.9308C82.006 47.1721 81.8335 47.4537 81.7079 47.7778C81.5847 48.1019 81.5206 48.4426 81.5206 48.8022C81.5206 49.0743 81.5674 49.344 81.6611 49.6137C81.7547 49.8835 81.905 50.1224 82.1119 50.333C82.3189 50.5412 82.5899 50.7139 82.9275 50.8464C83.265 50.9812 83.674 51.0475 84.152 51.0475H93.1622C93.3199 51.0475 93.4702 51.0357 93.6205 51.012C93.7683 50.9883 93.9063 50.9457 94.032 50.8842C94.1576 50.8204 94.2734 50.7305 94.3769 50.6074C94.4804 50.4868 94.5765 50.3282 94.6652 50.1319C94.7662 50.4631 94.946 50.6973 95.2072 50.8369C95.4684 50.9765 95.7788 51.0475 96.141 51.0475H98.2895C98.4472 51.0475 98.5974 51.0357 98.7477 51.012C98.8956 50.9883 99.0335 50.9457 99.1592 50.8842C99.2849 50.8204 99.4007 50.7305 99.5041 50.6074C99.6076 50.4868 99.7037 50.3282 99.7924 50.1319C99.8934 50.4631 100.073 50.6973 100.334 50.8369C100.596 50.9765 100.906 51.0475 101.268 51.0475H108.958C108.958 51.0475 109.042 49.1737 108.958 48.3929M85.2804 50.0964H84.1175C83.9007 50.0964 83.6937 50.068 83.4991 50.0112C83.3044 49.9544 83.132 49.8669 82.9767 49.7486C82.8215 49.6303 82.7008 49.4718 82.6121 49.2778C82.5234 49.0838 82.479 48.8472 82.479 48.5727C82.479 48.3385 82.5185 48.128 82.5998 47.9434C82.6811 47.7565 82.7895 47.5956 82.9275 47.4584C83.0654 47.3212 83.2182 47.2171 83.3882 47.1485C83.5582 47.0799 83.7356 47.0444 83.9229 47.0444C84.3614 47.0444 84.699 47.1934 84.933 47.4939C85.1671 47.792 85.2829 48.2155 85.2829 48.7573V50.0988L85.2804 50.0964ZM105.021 50.0538C104.925 50.0254 104.838 49.9828 104.762 49.9237C104.686 49.8645 104.624 49.7865 104.58 49.6895C104.535 49.5925 104.513 49.4765 104.513 49.3393C104.513 49.2234 104.533 49.1193 104.572 49.027C104.612 48.9347 104.666 48.8543 104.735 48.7857C104.804 48.7171 104.88 48.665 104.964 48.6319C105.048 48.5988 105.136 48.5798 105.23 48.5798C105.449 48.5798 105.614 48.6532 105.73 48.8022C105.846 48.9513 105.903 49.1595 105.903 49.4292V50.0964H105.326C105.218 50.0964 105.117 50.0822 105.021 50.0538Z" fill="#37336E"/>
<path id="Vector_20" d="M36.4078 42.6582H35.4666V51.043H36.4078V42.6582Z" fill="#37336E"/>
<path id="Vector_21" d="M4.67858 57.7331C4.53075 57.5225 4.35335 57.3403 4.15624 57.1913C3.95914 57.0422 3.75217 56.9192 3.53782 56.8269C3.32593 56.7346 3.10911 56.666 2.8923 56.6234C2.67794 56.5809 2.47098 56.5596 2.27387 56.5596H-0.000244141V62.2235H2.27634C2.47344 62.2235 2.68041 62.2022 2.89476 62.1597C3.10911 62.1171 3.32593 62.0485 3.54028 61.9562C3.75464 61.8639 3.9616 61.7409 4.15871 61.5918C4.35581 61.4428 4.53075 61.2606 4.68104 61.05C4.82887 60.8395 4.9496 60.5958 5.0383 60.3237C5.12699 60.0516 5.17134 59.7393 5.17134 59.3939C5.17134 59.0485 5.12699 58.7338 5.0383 58.4618C4.9496 58.1897 4.82887 57.9436 4.68104 57.7354M4.14885 60.3521C4.03305 60.6147 3.8729 60.8348 3.67333 61.0051C3.47376 61.1754 3.23231 61.3008 2.95636 61.3813C2.68041 61.4617 2.37489 61.5043 2.05213 61.5043H0.798038V57.2812H2.05213C2.37489 57.2812 2.67794 57.3214 2.95636 57.4042C3.22984 57.4846 3.4713 57.6124 3.67087 57.7827C3.87044 57.9531 4.03059 58.1731 4.14639 58.4381C4.26219 58.7031 4.32132 59.0248 4.32132 59.3987C4.32132 59.7725 4.26219 60.0942 4.14639 60.3592L4.14885 60.3521Z" fill="#37336E"/>
<path id="Vector_22" d="M6.62994 56.5576C6.48457 56.5576 6.35892 56.6097 6.2579 56.709C6.15688 56.8084 6.1076 56.9267 6.1076 57.0616C6.1076 57.2059 6.15688 57.3242 6.25543 57.4164C6.35399 57.5087 6.47964 57.556 6.6324 57.556C6.78516 57.556 6.90589 57.5087 7.00198 57.4164C7.09807 57.3242 7.14734 57.2035 7.14734 57.0616C7.14734 56.9267 7.09807 56.8084 6.99951 56.709C6.90096 56.6097 6.7753 56.5576 6.6324 56.5576" fill="#37336E"/>
<path id="Vector_23" d="M7.00197 58.4434H6.25543V62.2241H7.00197V58.4434Z" fill="#37336E"/>
<path id="Vector_24" d="M11.3605 58.9514C11.2299 58.7692 11.0574 58.6272 10.848 58.5279C10.5868 58.4072 10.3208 58.3457 10.0522 58.3457C9.73929 58.3457 9.45349 58.393 9.19725 58.4829C8.94101 58.5752 8.71926 58.7077 8.53694 58.878C8.35462 59.0484 8.20925 59.2589 8.1107 59.505C8.01214 59.7487 7.9604 60.0279 7.9604 60.3354C7.9604 60.6099 8.01214 60.8701 8.1107 61.1043C8.21171 61.3409 8.35462 61.5468 8.5394 61.7195C8.72419 61.8922 8.94594 62.027 9.19971 62.124C9.45349 62.2187 9.73929 62.2684 10.0522 62.2684C10.3183 62.2684 10.5819 62.2116 10.8308 62.098C11.0377 62.0058 11.2151 61.8662 11.3605 61.684V62.0034C11.3605 62.1927 11.3383 62.3748 11.2964 62.5475C11.2545 62.7179 11.1806 62.8717 11.0772 63.0042C10.9737 63.1343 10.8308 63.2408 10.6534 63.3165C10.4735 63.3922 10.2419 63.4324 9.96596 63.4324C9.69001 63.4324 9.43131 63.3803 9.21203 63.2786C8.99275 63.1745 8.78086 63.0184 8.58622 62.8149L8.54433 62.7723L8.00968 63.359L8.0491 63.3945C8.33244 63.6572 8.63303 63.8441 8.93854 63.9482C9.2416 64.0523 9.589 64.1067 9.96843 64.1067C10.6632 64.1067 11.2028 63.9269 11.565 63.572C11.9296 63.2171 12.112 62.6895 12.112 62.0058V58.4427H11.363V58.9514M11.2743 60.8062C11.2176 60.9577 11.1314 61.0949 11.0205 61.2108C10.9096 61.3267 10.7716 61.4214 10.609 61.4924C10.4464 61.5633 10.2592 61.5988 10.0522 61.5988C9.8748 61.5988 9.7048 61.5657 9.54711 61.5018C9.38943 61.4379 9.25145 61.348 9.13565 61.2345C9.01739 61.1209 8.92623 60.9861 8.85724 60.8323C8.79072 60.6785 8.75622 60.5129 8.75622 60.3354C8.75622 60.1462 8.78825 59.9711 8.84985 59.8126C8.91144 59.6564 9.00014 59.5168 9.11348 59.3985C9.22681 59.2802 9.36232 59.1856 9.52001 59.1194C9.6777 59.0507 9.85509 59.0176 10.0522 59.0176C10.2493 59.0176 10.4267 59.0507 10.5869 59.1146C10.7495 59.1785 10.8874 59.2684 11.0032 59.382C11.1166 59.4955 11.2053 59.6328 11.2669 59.7913C11.3285 59.9498 11.3605 60.1272 11.3605 60.3189C11.3605 60.4892 11.3309 60.6525 11.2743 60.8062Z" fill="#37336E"/>
<path id="Vector_25" d="M13.6691 56.5576C13.5237 56.5576 13.3981 56.6097 13.2971 56.709C13.1961 56.8084 13.1468 56.9267 13.1468 57.0616C13.1468 57.2059 13.1961 57.3242 13.2946 57.4164C13.3932 57.5087 13.5188 57.556 13.6716 57.556C13.8243 57.556 13.9451 57.5087 14.0411 57.4164C14.1372 57.3242 14.1865 57.2035 14.1865 57.0616C14.1865 56.9267 14.1372 56.8084 14.0387 56.709C13.9401 56.6097 13.8169 56.5576 13.6716 56.5576" fill="#37336E"/>
<path id="Vector_26" d="M14.0411 58.4434H13.2946V62.2241H14.0411V58.4434Z" fill="#37336E"/>
<path id="Vector_27" d="M17.392 61.5255C17.3106 61.5658 17.2244 61.5965 17.1283 61.6155C17.0347 61.6344 16.9411 61.6462 16.8499 61.6462C16.7218 61.6462 16.6208 61.6273 16.5518 61.5871C16.4828 61.5468 16.4335 61.4972 16.4015 61.4285C16.367 61.3599 16.3473 61.2748 16.3424 61.1801C16.3374 61.0808 16.335 60.9696 16.335 60.8536V59.0674H17.4609V58.4428H16.335V57.3994H15.586V58.4428H14.7532V59.0674H15.586V61.0311C15.586 61.2227 15.5983 61.4002 15.6229 61.5563C15.6476 61.7172 15.7042 61.8568 15.7855 61.968C15.8693 62.0815 15.9826 62.1691 16.128 62.2306C16.2709 62.2897 16.4606 62.3205 16.6947 62.3205C16.8179 62.3205 16.9485 62.3087 17.084 62.285C17.2195 62.2613 17.3451 62.2259 17.4585 62.1809L17.493 62.1667L17.4659 61.4877L17.3895 61.5255" fill="#37336E"/>
<path id="Vector_28" d="M21.5189 61.8524C21.5065 61.7436 21.5016 61.6347 21.5016 61.533V59.9502C21.5016 59.4202 21.371 59.0157 21.1148 58.7483C20.8561 58.481 20.4299 58.3438 19.8435 58.3438C19.5601 58.3438 19.2792 58.3911 19.0058 58.4857C18.7298 58.5803 18.4884 58.727 18.2839 58.9234L18.2469 58.9589L18.72 59.4392L18.7594 59.4037C18.9072 59.2735 19.0797 59.1765 19.2719 59.1103C19.464 59.0464 19.6611 59.0133 19.8632 59.0133C20.149 59.0133 20.3732 59.0772 20.5284 59.2073C20.6836 59.3351 20.76 59.5196 20.76 59.7728V59.8295H20.5654C20.3313 59.8295 20.0701 59.8414 19.7893 59.8603C19.5059 59.8816 19.2374 59.936 18.991 60.0212C18.7421 60.1087 18.5278 60.2412 18.3602 60.421C18.1878 60.6032 18.1015 60.854 18.1015 61.171C18.1015 61.3579 18.141 61.5259 18.2223 61.6678C18.3011 61.8074 18.4095 61.9281 18.545 62.0251C18.6781 62.1221 18.8358 62.1954 19.0131 62.2451C19.1905 62.2948 19.3803 62.3185 19.5774 62.3185C19.8804 62.3185 20.1465 62.2546 20.3633 62.1268C20.5358 62.0251 20.6836 61.9021 20.8019 61.7601C20.8019 61.8003 20.8019 61.8429 20.8044 61.8902C20.8068 61.9967 20.8191 62.0937 20.8413 62.1812L20.8512 62.2215H21.5731L21.5632 62.1599C21.5484 62.0653 21.5361 61.9636 21.5238 61.85M20.7575 60.6363C20.7526 60.7806 20.7255 60.9202 20.6762 61.048C20.6294 61.1734 20.5604 61.2846 20.4717 61.3792C20.383 61.4738 20.2722 61.5495 20.1441 61.6063C20.0159 61.6631 19.8582 61.6915 19.6808 61.6915C19.4517 61.6915 19.2595 61.6465 19.1092 61.5566C18.9639 61.4715 18.8949 61.3248 18.8949 61.1142C18.8949 60.88 19.0033 60.7168 19.2226 60.615C19.4542 60.5086 19.772 60.4565 20.1712 60.4565H20.7551V60.6363H20.7575Z" fill="#37336E"/>
<path id="Vector_29" d="M23.416 56.1836H22.667V62.2237H23.416V56.1836Z" fill="#37336E"/>
<path id="Vector_30" d="M29.3958 59.728H30.7287V61.3439C30.5291 61.4409 30.3049 61.5143 30.0659 61.5663C29.4327 61.7012 28.866 61.6633 28.393 61.4788C28.1072 61.3676 27.8583 61.2091 27.6563 61.008C27.4518 60.8069 27.2916 60.5655 27.1758 60.2911C27.0625 60.0167 27.0034 59.7162 27.0034 59.3968C27.0034 59.0774 27.06 58.7627 27.1758 58.4883C27.2892 58.2138 27.4493 57.9749 27.6538 57.7761C27.8583 57.5774 28.0998 57.4189 28.3757 57.3077C28.6517 57.1965 28.9547 57.1397 29.28 57.1397C29.5658 57.1397 29.8491 57.1941 30.1226 57.3006C30.3936 57.4071 30.6277 57.5608 30.8174 57.7596L30.8568 57.8022L31.4481 57.206L31.4112 57.1705C31.1278 56.8984 30.8051 56.7044 30.4478 56.5908C30.093 56.4796 29.7185 56.4229 29.3317 56.4229C28.8882 56.4229 28.4718 56.4962 28.0899 56.6381C27.7105 56.7825 27.3705 56.9836 27.0847 57.2415C26.7964 57.4993 26.5697 57.814 26.4047 58.1783C26.242 58.5427 26.1583 58.952 26.1583 59.3992C26.1583 59.8463 26.2371 60.2414 26.3923 60.6058C26.5476 60.9701 26.7693 61.2871 27.0477 61.5474C27.3261 61.8076 27.6612 62.0135 28.0406 62.1554C28.4201 62.2997 28.8463 62.3707 29.3021 62.3707C29.6816 62.3707 30.061 62.3281 30.433 62.243C30.8051 62.1578 31.1623 62.0253 31.4999 61.8455L31.527 61.8313V59.0111H29.3958V59.7304" fill="#37336E"/>
<path id="Vector_31" d="M36.2009 58.9017C36.0161 58.7266 35.7943 58.5894 35.5381 58.4924C35.2819 58.3954 35.001 58.3457 34.6955 58.3457C34.3899 58.3457 34.114 58.3954 33.8578 58.4924C33.6015 58.5894 33.3798 58.7266 33.195 58.9017C33.0102 59.0768 32.8648 59.285 32.7589 59.5263C32.6529 59.7676 32.5987 60.0397 32.5987 60.3331C32.5987 60.6264 32.6529 60.8961 32.7589 61.1375C32.8648 61.3788 33.0127 61.5894 33.195 61.7621C33.3798 61.9371 33.6015 62.0744 33.8578 62.1714C34.114 62.2684 34.3949 62.3181 34.6955 62.3181C34.9961 62.3181 35.2819 62.2684 35.5381 62.1714C35.7943 62.0744 36.0161 61.9371 36.2009 61.7621C36.3857 61.587 36.531 61.3788 36.637 61.1375C36.7429 60.8961 36.7971 60.6264 36.7971 60.3331C36.7971 60.0397 36.7429 59.7676 36.637 59.5263C36.531 59.285 36.3832 59.0744 36.2009 58.9017ZM35.9101 60.8536C35.851 61.0097 35.7623 61.1493 35.6465 61.2676C35.5332 61.3859 35.3952 61.4782 35.2375 61.5444C35.0798 61.6107 34.8975 61.6461 34.6979 61.6461C34.4984 61.6461 34.3185 61.613 34.1608 61.5444C34.0031 61.4782 33.8652 61.3835 33.7518 61.2676C33.6385 61.1493 33.5498 61.0121 33.4906 60.8536C33.4315 60.695 33.3995 60.5223 33.3995 60.3354C33.3995 60.1485 33.4291 59.9711 33.4906 59.8126C33.5498 59.6564 33.6385 59.5168 33.7518 59.3985C33.8652 59.2802 34.0031 59.1856 34.1608 59.1194C34.3185 59.0507 34.4984 59.0176 34.6979 59.0176C34.8975 59.0176 35.0823 59.0531 35.2375 59.1194C35.3952 59.188 35.5332 59.2826 35.6465 59.3985C35.7598 59.5168 35.8485 59.654 35.9101 59.8126C35.9693 59.9711 36.0013 60.1462 36.0013 60.3354C36.0013 60.5247 35.9717 60.695 35.9101 60.8536Z" fill="#37336E"/>
<path id="Vector_32" d="M39.2092 61.2446L38.0586 58.4765L38.0463 58.4434H37.1839L38.7756 62.1909L38.7904 62.2241H39.5714L41.1261 58.4434H40.3179L39.2092 61.2446Z" fill="#37336E"/>
<path id="Vector_33" d="M44.9327 58.8733C44.7651 58.703 44.5656 58.5705 44.334 58.4806C44.1048 58.3907 43.8511 58.3457 43.58 58.3457C43.2918 58.3457 43.0208 58.3954 42.7744 58.4924C42.528 58.5894 42.3136 58.7266 42.1338 58.9017C41.9539 59.0744 41.811 59.2873 41.7125 59.5287C41.6114 59.77 41.5622 60.0421 41.5622 60.3331C41.5622 60.6028 41.609 60.8607 41.7001 61.102C41.7938 61.3433 41.9268 61.5562 42.0968 61.7337C42.2668 61.9111 42.4787 62.0531 42.7251 62.1572C42.9715 62.2613 43.2499 62.3157 43.5529 62.3157C43.9201 62.3157 44.2477 62.2565 44.5262 62.143C44.8046 62.0271 45.0657 61.8212 45.2973 61.5278L45.3294 61.4853L44.7651 61.0641L44.7307 61.1043C44.5804 61.2794 44.4128 61.4143 44.2305 61.5042C44.0506 61.5941 43.8215 61.639 43.5505 61.639C43.3854 61.639 43.2326 61.6083 43.0922 61.5491C42.9518 61.49 42.8286 61.4072 42.7226 61.3054C42.6191 61.2037 42.5305 61.0831 42.4664 60.9435C42.4097 60.8228 42.3728 60.695 42.3604 60.5649H45.4452V60.3189C45.4452 60.0089 45.4008 59.7298 45.3121 59.4861C45.2234 59.2424 45.0953 59.0342 44.9278 58.8638M42.3678 59.9498C42.4147 59.6777 42.5354 59.4553 42.7276 59.2873C42.9321 59.1075 43.2105 59.0176 43.5529 59.0176C43.8954 59.0176 44.1664 59.1075 44.3537 59.285C44.5286 59.4529 44.6272 59.6753 44.6469 59.9498H42.3678Z" fill="#37336E"/>
<path id="Vector_34" d="M48.2835 58.3457C48.1234 58.3457 47.9706 58.367 47.8277 58.4096C47.6873 58.4522 47.5591 58.5066 47.4458 58.5728C47.3349 58.6391 47.2364 58.7172 47.1526 58.8023C47.1132 58.8425 47.0762 58.8851 47.0467 58.9301C47.0467 58.8828 47.0442 58.8354 47.0393 58.7905C47.0343 58.6911 47.0319 58.5941 47.0319 58.4971V58.4451H46.3174V58.4971C46.3174 58.6178 46.3223 58.7526 46.3321 58.9017C46.342 59.0436 46.3469 59.2022 46.3469 59.3701V62.2258H47.0959V60.3851C47.0959 59.9711 47.1822 59.6446 47.3522 59.4127C47.5197 59.1832 47.7858 59.072 48.1628 59.072C48.2761 59.072 48.387 59.0862 48.488 59.117L48.5545 59.1359L48.6063 58.4119L48.5668 58.3978C48.4831 58.367 48.3845 58.3528 48.281 58.3528" fill="#37336E"/>
<path id="Vector_35" d="M52.6051 58.781C52.4794 58.6438 52.3193 58.535 52.1295 58.4593C51.9398 58.3836 51.7132 58.3457 51.4545 58.3457C51.2943 58.3457 51.1416 58.367 50.9986 58.4096C50.8582 58.4522 50.7301 58.5066 50.6168 58.5728C50.5059 58.6391 50.4073 58.7172 50.3236 58.8023C50.2841 58.8425 50.2472 58.8851 50.2176 58.9301C50.2176 58.8828 50.2151 58.8354 50.2102 58.7905C50.2053 58.6911 50.2004 58.5941 50.2004 58.4971V58.4451H49.4859V58.4971C49.4859 58.6178 49.4908 58.7526 49.5006 58.9017C49.5105 59.0436 49.5154 59.2022 49.5154 59.3701V62.2258H50.2644V60.3851C50.2644 60.1793 50.2866 59.9924 50.3334 59.8244C50.3778 59.6588 50.4467 59.5145 50.5379 59.3962C50.6266 59.2779 50.7449 59.1856 50.8853 59.1194C51.0282 59.0531 51.2007 59.02 51.3978 59.02C51.6836 59.02 51.8856 59.1004 52.0162 59.2637C52.1493 59.4293 52.2158 59.6682 52.2158 59.9687V62.2258H52.9648V59.9048C52.9648 59.6777 52.9352 59.4671 52.8761 59.2802C52.817 59.0886 52.7233 58.923 52.6001 58.7858" fill="#37336E"/>
<path id="Vector_36" d="M59.6097 58.7816C59.489 58.642 59.3313 58.5332 59.1391 58.4598C58.947 58.3865 58.708 58.3486 58.4296 58.3486C58.1265 58.3486 57.8777 58.4149 57.683 58.5426C57.5155 58.6562 57.3627 58.8076 57.2247 58.9969C57.2001 58.9543 57.173 58.907 57.141 58.8573C57.0868 58.7721 57.0104 58.6893 56.9143 58.616C56.8182 58.5426 56.695 58.4788 56.5521 58.4267C56.4068 58.3747 56.2244 58.3486 56.0101 58.3486C55.8499 58.3486 55.6972 58.3699 55.5543 58.4125C55.4138 58.4551 55.2857 58.5095 55.1724 58.5758C55.0615 58.642 54.9629 58.7201 54.8792 58.8053C54.8398 58.8455 54.8028 58.8881 54.7732 58.933C54.7732 58.8857 54.7708 58.8384 54.7658 58.7934C54.7609 58.6941 54.756 58.5971 54.756 58.5001V58.448H54.0415V58.5001C54.0415 58.6207 54.0464 58.7556 54.0563 58.9046C54.0661 59.0466 54.071 59.2051 54.071 59.3731V62.2287H54.82V60.388C54.82 60.1822 54.8422 59.9953 54.889 59.8273C54.9334 59.6617 55.0024 59.5174 55.0935 59.3991C55.1822 59.2808 55.3005 59.1885 55.4409 59.1223C55.5838 59.056 55.7563 59.0229 55.9534 59.0229C56.1949 59.0229 56.3649 59.0986 56.4684 59.2548C56.5768 59.4157 56.631 59.6996 56.631 60.0923V62.2287H57.38V60.0544C57.38 59.9007 57.4046 59.7587 57.4563 59.631C57.5056 59.5032 57.5746 59.3944 57.6584 59.3045C57.7422 59.2169 57.8407 59.1459 57.954 59.0963C58.0649 59.0466 58.1881 59.0205 58.3162 59.0205C58.4912 59.0205 58.6365 59.0466 58.7499 59.101C58.8632 59.1554 58.9519 59.2264 59.016 59.3139C59.0825 59.4038 59.1268 59.5056 59.1515 59.6168C59.1761 59.7327 59.1909 59.8533 59.1909 59.9787V62.2287H59.9399V59.9456C59.9399 59.7067 59.9153 59.4866 59.8635 59.2926C59.8118 59.0963 59.7255 58.9259 59.6073 58.7863" fill="#37336E"/>
<path id="Vector_37" d="M64.1925 58.8733C64.0249 58.703 63.8254 58.5705 63.5938 58.4806C63.3646 58.3907 63.1109 58.3457 62.8398 58.3457C62.5516 58.3457 62.2805 58.3954 62.0342 58.4924C61.7878 58.5894 61.5734 58.7266 61.3936 58.9017C61.2137 59.0744 61.0708 59.2873 60.9723 59.5287C60.8712 59.77 60.822 60.0421 60.822 60.3331C60.822 60.6028 60.8688 60.8607 60.9599 61.102C61.0536 61.3433 61.1866 61.5562 61.3566 61.7337C61.5266 61.9111 61.7385 62.0531 61.9849 62.1572C62.2313 62.2613 62.5097 62.3157 62.8127 62.3157C63.1798 62.3157 63.5075 62.2565 63.786 62.143C64.0644 62.0271 64.3255 61.8212 64.5571 61.5278L64.5916 61.4853L64.0274 61.0641L63.9929 61.1043C63.8426 61.2794 63.6751 61.4143 63.4928 61.5042C63.3129 61.5941 63.0838 61.639 62.8127 61.639C62.6477 61.639 62.4949 61.6083 62.3545 61.5491C62.214 61.49 62.0908 61.4072 61.9849 61.3054C61.8814 61.2037 61.7927 61.0831 61.7286 60.9435C61.672 60.8228 61.635 60.695 61.6227 60.5649H64.7074V60.3189C64.7074 60.0089 64.6631 59.7298 64.5744 59.4861C64.4857 59.2424 64.3576 59.0342 64.19 58.8638M61.6301 59.9498C61.6769 59.6777 61.7976 59.4553 61.9898 59.2873C62.1943 59.1075 62.4727 59.0176 62.8152 59.0176C63.1577 59.0176 63.4287 59.1075 63.616 59.285C63.7909 59.4529 63.8894 59.6753 63.9091 59.9498H61.6301Z" fill="#37336E"/>
<path id="Vector_38" d="M68.6939 58.781C68.5682 58.6438 68.4081 58.535 68.2184 58.4593C68.0287 58.3836 67.802 58.3457 67.5433 58.3457C67.3831 58.3457 67.2304 58.367 67.0875 58.4096C66.947 58.4522 66.8189 58.5066 66.7056 58.5728C66.5947 58.6391 66.4962 58.7172 66.4124 58.8023C66.373 58.8425 66.336 58.8851 66.3064 58.9301C66.3064 58.8828 66.304 58.8354 66.299 58.7905C66.2941 58.6911 66.2917 58.5941 66.2917 58.4971V58.4451H65.5771V58.4971C65.5771 58.6178 65.5821 58.7526 65.5919 58.9017C65.6018 59.0436 65.6067 59.2022 65.6067 59.3701V62.2258H66.3557V60.3851C66.3557 60.1793 66.3779 59.9924 66.4247 59.8244C66.4691 59.6588 66.538 59.5145 66.6292 59.3962C66.7179 59.2779 66.8362 59.1856 66.9766 59.1194C67.1195 59.0531 67.292 59.02 67.4891 59.02C67.7749 59.02 67.9769 59.1004 68.1075 59.2637C68.2406 59.4293 68.3071 59.6682 68.3071 59.9687V62.2258H69.0561V59.9048C69.0561 59.6777 69.0265 59.4671 68.9674 59.2802C68.9083 59.0886 68.8146 58.923 68.6914 58.7858" fill="#37336E"/>
<path id="Vector_39" d="M72.1901 61.5255C72.1088 61.5658 72.0225 61.5965 71.9264 61.6155C71.8304 61.6344 71.7392 61.6462 71.648 61.6462C71.5175 61.6462 71.4189 61.6273 71.3499 61.5871C71.2809 61.5468 71.2317 61.4972 71.1996 61.4285C71.1651 61.3599 71.1454 61.2748 71.1405 61.1801C71.1356 61.0808 71.1306 60.9696 71.1306 60.8536V59.0674H72.2566V58.4428H71.1306V57.3994H70.3816V58.4428H69.5489V59.0674H70.3816V61.0311C70.3816 61.2227 70.3939 61.4002 70.4186 61.5563C70.4457 61.7172 70.4999 61.8568 70.5812 61.968C70.665 62.0815 70.7808 62.1691 70.9237 62.2306C71.0666 62.2897 71.2563 62.3205 71.4904 62.3205C71.6135 62.3205 71.7441 62.3087 71.8796 62.285C72.0151 62.2613 72.1408 62.2259 72.2541 62.1809L72.2886 62.1667L72.2615 61.4877L72.1852 61.5255" fill="#37336E"/>
<path id="Vector_40" d="M77.4725 56.5571H76.7506L74.1513 62.221H75.0531L75.6444 60.8583H78.4679L79.0593 62.221H79.9758L77.4849 56.5878L77.4701 56.5547M75.9647 60.139L77.0931 57.5791L78.1673 60.139H75.9647Z" fill="#37336E"/>
<path id="Vector_41" d="M83.8218 61.299V58.4434H83.0728V60.284C83.0728 60.4851 83.0507 60.6744 83.0038 60.8424C82.9595 61.008 82.8905 61.1547 82.7969 61.2753C82.7057 61.3936 82.5899 61.4859 82.4495 61.5498C82.309 61.6137 82.1366 61.6468 81.9395 61.6468C81.6537 61.6468 81.4516 61.5687 81.321 61.4055C81.1905 61.2399 81.1215 61.0033 81.1215 60.7028V58.4457H80.3725V60.7667C80.3725 60.9891 80.402 61.1996 80.4612 61.3889C80.5203 61.5829 80.6139 61.7485 80.7371 61.8834C80.8628 62.0182 81.0205 62.1271 81.2102 62.2051C81.3999 62.2808 81.6266 62.3211 81.8877 62.3211C82.0479 62.3211 82.1982 62.2998 82.3386 62.2596C82.479 62.2193 82.6072 62.1649 82.7205 62.0963C82.8338 62.0277 82.9324 61.9496 83.0162 61.8621C83.0556 61.8195 83.0901 61.7793 83.1221 61.7343C83.1221 61.7816 83.1246 61.8266 83.127 61.8715C83.132 61.9709 83.1344 62.0703 83.1344 62.1697V62.2217H83.8539V62.1697C83.8539 62.0466 83.8489 61.9118 83.8391 61.7651C83.8292 61.6184 83.8243 61.4623 83.8243 61.299" fill="#37336E"/>
<path id="Vector_42" d="M87.1135 61.5255C87.0322 61.5658 86.9435 61.5965 86.8499 61.6155C86.7563 61.6344 86.6626 61.6462 86.5715 61.6462C86.4434 61.6462 86.3423 61.6273 86.2734 61.5871C86.2044 61.5468 86.1551 61.4972 86.1231 61.4285C86.0886 61.3599 86.0689 61.2748 86.0639 61.1801C86.059 61.0808 86.0541 60.9696 86.0541 60.8536V59.0674H87.18V58.4428H86.0541V57.3994H85.3051V58.4428H84.4723V59.0674H85.3051V61.0311C85.3051 61.2227 85.3174 61.4002 85.342 61.5563C85.3667 61.7172 85.4233 61.8568 85.5046 61.968C85.5884 62.0815 85.7017 62.1691 85.8471 62.2306C85.99 62.2897 86.1797 62.3205 86.4163 62.3205C86.5394 62.3205 86.67 62.3087 86.8055 62.285C86.9411 62.2613 87.0667 62.2259 87.18 62.1809L87.2145 62.1667L87.1874 61.4877L87.1111 61.5255" fill="#37336E"/>
<path id="Vector_43" d="M91.1173 58.7814C90.9916 58.6441 90.8339 58.5353 90.6442 58.4596C90.4569 58.3839 90.2303 58.346 89.9716 58.346C89.8213 58.346 89.6759 58.365 89.5404 58.4052C89.4049 58.443 89.2817 58.4927 89.1733 58.5542C89.0649 58.6134 88.9688 58.682 88.8875 58.7577C88.8505 58.7932 88.816 58.8287 88.7865 58.8618V56.1836H88.0375V62.2237H88.7865V60.3831C88.7865 60.1772 88.8086 59.9903 88.8555 59.8224C88.8998 59.6567 88.9688 59.5124 89.0575 59.3941C89.1462 59.2758 89.262 59.1836 89.4024 59.1173C89.5453 59.0511 89.7178 59.0179 89.9149 59.0179C90.1982 59.0179 90.4003 59.0984 90.5333 59.2616C90.6688 59.4272 90.7354 59.6638 90.7354 59.9667V62.2237H91.4844V59.9028C91.4844 59.678 91.4548 59.4675 91.3957 59.2782C91.3341 59.0866 91.2404 58.9209 91.1173 58.7837" fill="#37336E"/>
<path id="Vector_44" d="M95.9685 58.9017C95.7838 58.7266 95.562 58.5894 95.3058 58.4924C95.0495 58.3954 94.7662 58.3457 94.4631 58.3457C94.1601 58.3457 93.8817 58.3954 93.6254 58.4924C93.3692 58.5894 93.1474 58.7266 92.9627 58.9017C92.7779 59.0768 92.6325 59.285 92.5266 59.5263C92.4206 59.7676 92.3664 60.0397 92.3664 60.3331C92.3664 60.6264 92.4206 60.8961 92.5266 61.1375C92.6325 61.3788 92.7803 61.5894 92.9627 61.7621C93.1474 61.9371 93.3692 62.0744 93.6254 62.1714C93.8817 62.2684 94.1625 62.3181 94.4631 62.3181C94.7637 62.3181 95.0495 62.2684 95.3058 62.1714C95.562 62.0744 95.7838 61.9371 95.9685 61.7621C96.1533 61.587 96.2987 61.3788 96.4046 61.1375C96.5106 60.8961 96.5648 60.6264 96.5648 60.3331C96.5648 60.0397 96.5106 59.7676 96.4046 59.5263C96.2987 59.285 96.1509 59.0744 95.9685 58.9017ZM95.6753 60.8536C95.6162 61.0097 95.5275 61.1493 95.4117 61.2676C95.2984 61.3859 95.1604 61.4782 95.0027 61.5444C94.845 61.6107 94.6627 61.6461 94.4631 61.6461C94.2636 61.6461 94.0837 61.613 93.926 61.5444C93.7683 61.4782 93.6304 61.3835 93.517 61.2676C93.4037 61.1493 93.315 61.0121 93.2559 60.8536C93.1943 60.695 93.1647 60.5223 93.1647 60.3354C93.1647 60.1485 93.1943 59.9711 93.2559 59.8126C93.315 59.6564 93.4037 59.5168 93.517 59.3985C93.6304 59.2802 93.7683 59.1856 93.926 59.1194C94.0837 59.0507 94.2636 59.0176 94.4631 59.0176C94.6627 59.0176 94.8475 59.0531 95.0027 59.1194C95.1604 59.188 95.2984 59.2826 95.4117 59.3985C95.525 59.5168 95.6137 59.654 95.6753 59.8126C95.7345 59.9711 95.7665 60.1462 95.7665 60.3354C95.7665 60.5247 95.7369 60.695 95.6753 60.8536Z" fill="#37336E"/>
<path id="Vector_45" d="M99.445 58.3457C99.2849 58.3457 99.1321 58.367 98.9892 58.4096C98.8488 58.4522 98.7206 58.5066 98.6073 58.5728C98.4964 58.6391 98.3979 58.7172 98.3141 58.8023C98.2747 58.8425 98.2377 58.8851 98.2082 58.9301C98.2082 58.8828 98.2057 58.8354 98.2008 58.7905C98.1958 58.6911 98.1909 58.5941 98.1909 58.4971V58.4451H97.4764V58.4971C97.4764 58.6178 97.4813 58.7526 97.4912 58.9017C97.501 59.0436 97.506 59.2022 97.506 59.3701V62.2258H98.255V60.3851C98.255 59.9711 98.3412 59.6446 98.5112 59.4127C98.6787 59.1832 98.9448 59.072 99.3218 59.072C99.4351 59.072 99.546 59.0862 99.647 59.117L99.7136 59.1359L99.7653 58.4119L99.7259 58.3978C99.6421 58.367 99.546 58.3528 99.4401 58.3528" fill="#37336E"/>
<path id="Vector_46" d="M101.249 58.4434H100.502V62.2241H101.249V58.4434Z" fill="#37336E"/>
<path id="Vector_47" d="M100.876 56.5576C100.731 56.5576 100.605 56.6097 100.504 56.709C100.403 56.8084 100.354 56.9267 100.354 57.0616C100.354 57.2059 100.403 57.3242 100.502 57.4164C100.601 57.5087 100.726 57.556 100.879 57.556C101.032 57.556 101.152 57.5087 101.249 57.4164C101.345 57.3242 101.394 57.2035 101.394 57.0616C101.394 56.9267 101.345 56.8084 101.246 56.709C101.148 56.6097 101.024 56.5576 100.879 56.5576" fill="#37336E"/>
<path id="Vector_48" d="M104.481 61.5255C104.4 61.5658 104.311 61.5965 104.217 61.6155C104.124 61.6344 104.03 61.6462 103.939 61.6462C103.811 61.6462 103.71 61.6273 103.641 61.5871C103.572 61.5468 103.523 61.4972 103.491 61.4285C103.456 61.3599 103.436 61.2748 103.431 61.1801C103.427 61.0808 103.422 60.9696 103.422 60.8536V59.0674H104.548V58.4428H103.422V57.3994H102.673V58.4428H101.84V59.0674H102.673V61.0311C102.673 61.2227 102.685 61.4002 102.71 61.5563C102.734 61.7172 102.791 61.8568 102.872 61.968C102.956 62.0815 103.069 62.1691 103.215 62.2306C103.358 62.2897 103.547 62.3205 103.784 62.3205C103.907 62.3205 104.038 62.3087 104.173 62.285C104.309 62.2613 104.434 62.2259 104.548 62.1809L104.582 62.1667L104.555 61.4877L104.479 61.5255" fill="#37336E"/>
<path id="Vector_49" d="M108.184 58.4434L107.078 61.2493L105.935 58.4765L105.92 58.4434H105.06L106.669 62.1933L106.413 62.8652C106.346 63.0427 106.262 63.187 106.169 63.2911C106.08 63.3881 105.942 63.4378 105.755 63.4378C105.664 63.4378 105.582 63.4354 105.516 63.4283C105.452 63.4212 105.385 63.407 105.324 63.3834L105.26 63.3597L105.161 63.9938L105.198 64.0103C105.292 64.0553 105.393 64.0837 105.501 64.0955C105.605 64.1073 105.706 64.1121 105.797 64.1121C105.996 64.1121 106.166 64.086 106.304 64.034C106.445 63.9819 106.565 63.9062 106.666 63.8092C106.768 63.7146 106.851 63.5987 106.923 63.4662C106.992 63.3384 107.058 63.1917 107.122 63.0356L109.002 58.4481H108.187" fill="#37336E"/>
<g id="Clip path group">
<mask id="mask0_268_36530" style="mask-type:luminance" maskUnits="userSpaceOnUse" x="55" y="11" width="11" height="14">
<g id="clippath">
<path id="Vector_50" d="M55.5321 17.2576C55.3375 17.3878 55.2241 17.6007 55.2241 17.8278V23.5628C55.2241 23.946 55.5493 24.2583 55.9485 24.2583C56.3476 24.2583 56.6729 23.946 56.6729 23.5628V18.1922L63.0172 13.9264C63.2316 14.0353 63.478 14.0968 63.7367 14.0968C64.599 14.0968 65.2963 13.4272 65.2963 12.5992C65.2963 11.7711 64.599 11.1016 63.7367 11.1016C62.8743 11.1016 62.1771 11.7711 62.1771 12.5992C62.1771 12.6607 62.182 12.7222 62.1894 12.7837L55.5321 17.26" fill="white"/>
</g>
</mask>
<g mask="url(#mask0_268_36530)">
<g id="Group_2">
<path id="Vector_51" d="M65.2963 11.0996H55.2241V24.2588H65.2963V11.0996Z" fill="url(#paint0_linear_268_36530)"/>
</g>
</g>
</g>
<g id="Clip path group_2">
<mask id="mask1_268_36530" style="mask-type:luminance" maskUnits="userSpaceOnUse" x="50" y="4" width="13" height="21">
<g id="clippath-1">
<path id="Vector_52" d="M51.0282 15.7318V21.4407C50.533 21.6915 50.193 22.1907 50.193 22.7656C50.193 23.5937 50.8902 24.2632 51.7526 24.2632C52.6149 24.2632 53.3122 23.5937 53.3122 22.7656C53.3122 22.1907 52.9746 21.6915 52.477 21.4407V16.0937L61.8518 9.78862C62.0465 9.65849 62.1598 9.44556 62.1598 9.21843V4.96218C62.1598 4.5789 61.8346 4.2666 61.4355 4.2666C61.0363 4.2666 60.7111 4.5789 60.7111 4.96218V8.85645L51.3337 15.1616C51.1391 15.2917 51.0258 15.5046 51.0258 15.7318" fill="white"/>
</g>
</mask>
<g mask="url(#mask1_268_36530)">
<g id="Group_3">
<path id="Vector_53" d="M62.1646 4.26855H50.1953V24.2628H62.1646V4.26855Z" fill="url(#paint1_linear_268_36530)"/>
</g>
</g>
</g>
<g id="Clip path group_3">
<mask id="mask2_268_36530" style="mask-type:luminance" maskUnits="userSpaceOnUse" x="59" y="17" width="5" height="4">
<g id="clippath-2">
<path id="Vector_54" d="M62.2731 17.6435L59.8783 19.2547C59.5506 19.4747 59.4718 19.91 59.7009 20.2247C59.8413 20.4187 60.068 20.5204 60.2947 20.5204C60.4376 20.5204 60.583 20.4802 60.7086 20.395L63.1035 18.7839C63.4311 18.5638 63.51 18.1285 63.2809 17.8138C63.0517 17.4992 62.5984 17.4211 62.2707 17.6435" fill="white"/>
</g>
</mask>
<g mask="url(#mask2_268_36530)">
<g id="Group_4">
<path id="Vector_55" d="M63.5125 17.4238H59.4693V20.5208H63.5125V17.4238Z" fill="url(#paint2_linear_268_36530)"/>
</g>
</g>
</g>
<g id="Clip path group_4">
<mask id="mask3_268_36530" style="mask-type:luminance" maskUnits="userSpaceOnUse" x="42" y="21" width="25" height="15">
<g id="clippath-3">
<path id="Vector_56" d="M66.8436 21.6911C66.6095 21.3693 66.1488 21.2912 65.8137 21.516L54.4973 29.1247L43.1809 21.516C42.8458 21.2912 42.3851 21.3693 42.151 21.6911C41.917 22.0128 41.9983 22.4553 42.3333 22.6777L53.2087 29.9907L50.023 32.1342C49.8061 32.0253 49.5598 31.9638 49.2986 31.9638C48.4239 31.9638 47.7119 32.6452 47.7119 33.4875C47.7119 34.3297 48.4215 35.0111 49.2986 35.0111C50.1757 35.0111 50.8853 34.3297 50.8853 33.4875C50.8853 33.4236 50.8804 33.3597 50.8705 33.2958L54.4973 30.8566L58.1241 33.2958C58.1167 33.3597 58.1093 33.4212 58.1093 33.4875C58.1093 34.3274 58.8189 35.0111 59.696 35.0111C60.5731 35.0111 61.2827 34.3297 61.2827 33.4875C61.2827 32.6452 60.5731 31.9638 59.696 31.9638C59.4348 31.9638 59.1884 32.0253 58.9716 32.1342L55.7859 29.9907L66.6612 22.6777C66.9963 22.4529 67.0776 22.0105 66.8436 21.6911Z" fill="white"/>
</g>
</mask>
<g mask="url(#mask3_268_36530)">
<g id="Group_5">
<path id="Vector_57" d="M67.0776 21.291H41.9219V35.0085H67.0776V21.291Z" fill="url(#paint3_linear_268_36530)"/>
</g>
</g>
</g>
<g id="Clip path group_5">
<mask id="mask4_268_36530" style="mask-type:luminance" maskUnits="userSpaceOnUse" x="45" y="2" width="5" height="4">
<g id="clippath-4">
<path id="Vector_58" d="M46.7264 5.21287L49.1212 3.60169C49.4489 3.38167 49.5277 2.94634 49.2986 2.63168C49.1582 2.43767 48.9315 2.33594 48.7048 2.33594C48.5619 2.33594 48.4165 2.37616 48.2909 2.46133L45.896 4.07251C45.5684 4.29254 45.4895 4.72786 45.7186 5.04253C45.9478 5.35719 46.4011 5.4329 46.7288 5.21287" fill="white"/>
</g>
</mask>
<g mask="url(#mask4_268_36530)">
<g id="Group_6">
<path id="Vector_59" d="M49.5302 2.33594H45.487V5.4329H49.5302V2.33594Z" fill="url(#paint4_linear_268_36530)"/>
</g>
</g>
</g>
<g id="Clip path group_6">
<mask id="mask5_268_36530" style="mask-type:luminance" maskUnits="userSpaceOnUse" x="46" y="0" width="13" height="19">
<g id="clippath-5">
<path id="Vector_60" d="M56.5201 2.9319V6.76229L47.1427 13.0674C46.9481 13.1975 46.8348 13.4105 46.8348 13.6376V17.8939C46.8348 18.2771 47.16 18.5894 47.5591 18.5894C47.9583 18.5894 48.2835 18.2771 48.2835 17.8939V13.9996L57.6608 7.69446C57.8555 7.56433 57.9688 7.3514 57.9688 7.12427V2.9319C58.4641 2.68111 58.8041 2.1819 58.8041 1.60699C58.8041 0.778925 58.1068 0.109375 57.2445 0.109375C56.3821 0.109375 55.6849 0.778925 55.6849 1.60699C55.6849 2.1819 56.0224 2.68111 56.5201 2.9319Z" fill="white"/>
</g>
</mask>
<g mask="url(#mask5_268_36530)">
<g id="Group_7">
<path id="Vector_61" d="M58.8041 0.109375H46.8348V18.5894H58.8041V0.109375Z" fill="url(#paint5_linear_268_36530)"/>
</g>
</g>
</g>
<g id="Clip path group_7">
<mask id="mask6_268_36530" style="mask-type:luminance" maskUnits="userSpaceOnUse" x="43" y="0" width="11" height="12">
<g id="clippath-6">
<path id="Vector_62" d="M45.2628 11.7564C46.1252 11.7564 46.8224 11.0869 46.8224 10.2588C46.8224 10.1973 46.8175 10.1358 46.8101 10.0743L53.4674 5.598C53.662 5.46788 53.7754 5.25495 53.7754 5.02782V0.811786C53.7754 0.42851 53.4502 0.116211 53.051 0.116211C52.6519 0.116211 52.3266 0.42851 52.3266 0.811786V4.66821L45.9823 8.93393C45.7679 8.82509 45.5215 8.76358 45.2628 8.76358C44.4005 8.76358 43.7032 9.43313 43.7032 10.2612C43.7032 11.0893 44.4005 11.7588 45.2628 11.7588" fill="white"/>
</g>
</mask>
<g mask="url(#mask6_268_36530)">
<g id="Group_8">
<path id="Vector_63" d="M53.7754 0.116211H43.7032V11.7588H53.7754V0.116211Z" fill="url(#paint6_linear_268_36530)"/>
</g>
</g>
</g>
</g>
</g>
</g>
<defs>
<linearGradient id="paint0_linear_268_36530" x1="61.1414" y1="5.11331" x2="61.1414" y2="32.0748" gradientUnits="userSpaceOnUse">
<stop stop-color="#2D8386"/>
<stop offset="0.25" stop-color="#12818B"/>
<stop offset="0.48" stop-color="#00808F"/>
<stop offset="1" stop-color="#774880"/>
</linearGradient>
<linearGradient id="paint1_linear_268_36530" x1="57.0884" y1="5.11261" x2="57.0884" y2="32.0741" gradientUnits="userSpaceOnUse">
<stop stop-color="#2D8386"/>
<stop offset="0.25" stop-color="#12818B"/>
<stop offset="0.48" stop-color="#00808F"/>
<stop offset="1" stop-color="#774880"/>
</linearGradient>
<linearGradient id="paint2_linear_268_36530" x1="62.2341" y1="5.11348" x2="62.2341" y2="32.075" gradientUnits="userSpaceOnUse">
<stop stop-color="#2D8386"/>
<stop offset="0.25" stop-color="#12818B"/>
<stop offset="0.48" stop-color="#00808F"/>
<stop offset="1" stop-color="#774880"/>
</linearGradient>
<linearGradient id="paint3_linear_268_36530" x1="55.4784" y1="5.11242" x2="55.4784" y2="32.0739" gradientUnits="userSpaceOnUse">
<stop stop-color="#2D8386"/>
<stop offset="0.25" stop-color="#12818B"/>
<stop offset="0.48" stop-color="#00808F"/>
<stop offset="1" stop-color="#774880"/>
</linearGradient>
<linearGradient id="paint4_linear_268_36530" x1="48.3912" y1="5.11294" x2="48.3912" y2="32.0744" gradientUnits="userSpaceOnUse">
<stop stop-color="#2D8386"/>
<stop offset="0.25" stop-color="#12818B"/>
<stop offset="0.48" stop-color="#00808F"/>
<stop offset="1" stop-color="#774880"/>
</linearGradient>
<linearGradient id="paint5_linear_268_36530" x1="53.5393" y1="5.11269" x2="53.5393" y2="32.0742" gradientUnits="userSpaceOnUse">
<stop stop-color="#2D8386"/>
<stop offset="0.25" stop-color="#12818B"/>
<stop offset="0.48" stop-color="#00808F"/>
<stop offset="1" stop-color="#774880"/>
</linearGradient>
<linearGradient id="paint6_linear_268_36530" x1="49.4864" y1="5.11243" x2="49.4864" y2="32.0739" gradientUnits="userSpaceOnUse">
<stop stop-color="#2D8386"/>
<stop offset="0.25" stop-color="#12818B"/>
<stop offset="0.48" stop-color="#00808F"/>
<stop offset="1" stop-color="#774880"/>
</linearGradient>
<clipPath id="clip0_268_36530">
<rect width="109" height="64" fill="white" transform="translate(-0.000244141 0.109375)"/>
</clipPath>
</defs>
</svg>
