<svg width="194" height="65" viewBox="0 0 194 65" fill="none" xmlns="http://www.w3.org/2000/svg">
<g id="Asset 11 1" clip-path="url(#clip0_268_35760)">
<g id="Layer_1">
<g id="Group">
<g id="Group_2">
<path id="Vector" d="M3.53537 35.5412H3.62068C4.09318 35.5875 4.47709 35.2177 4.51975 34.752V34.6596C4.51975 34.1015 4.09318 33.6855 3.62068 33.6855C3.10553 33.6855 2.72162 34.1477 2.72162 34.6596C2.72162 35.1218 3.10553 35.5412 3.53537 35.5412Z" fill="#168080"/>
<path id="Vector_2" d="M5.9733 35.5412H6.05862C6.53112 35.5875 6.91502 35.2177 6.95768 34.752V34.6596C6.95768 34.1015 6.53112 33.6855 6.05862 33.6855C5.54346 33.6855 5.15955 34.1477 5.15955 34.6596C5.1169 35.1218 5.5008 35.5412 5.9733 35.5412Z" fill="#168080"/>
<path id="Vector_3" d="M8.24397 45.2822H8.20131C7.72881 45.236 7.3449 45.6057 7.30225 46.1176V46.1639C7.30225 46.722 7.72881 47.1379 8.20131 47.1379C8.71647 47.1379 9.10037 46.6758 9.10037 46.1639C9.10037 45.6519 8.71647 45.2822 8.24397 45.2822Z" fill="#168080"/>
<path id="Vector_4" d="M10.6392 45.2822H10.5966C10.1241 45.236 9.74017 45.6057 9.69751 46.1176V46.1639C9.69751 46.722 10.1241 47.1379 10.5966 47.1379C11.1117 47.1379 11.4956 46.6758 11.4956 46.1639C11.4956 45.6519 11.1117 45.2822 10.6392 45.2822Z" fill="#168080"/>
<path id="Vector_5" d="M16.2469 40.4116C16.1616 39.3914 16.89 38.5097 17.7891 38.4173H18.0024C18.6028 38.4635 19.2 38.6022 19.7579 38.9292L20.2304 37.493C19.5019 37.1233 18.6882 36.8887 17.8744 36.8887C16.0763 36.8887 14.836 38.0476 14.836 40.1806C14.8786 40.9698 15.0066 41.759 15.3085 42.4984H12.2274V36.9811H10.7705V42.4984H6.87565V36.9811H4.56565C2.34096 36.9811 0.841431 38.4635 0.841431 40.5538C0.841431 42.6442 2.25565 44.0768 4.35237 44.0768H20.4896V42.4984H16.8933C16.5094 41.8478 16.2928 41.1546 16.2502 40.4116H16.2469ZM5.46143 42.4522H4.22112C3.06612 42.4522 2.20971 41.663 2.20971 40.4579C2.20971 39.2527 3.06612 38.4635 4.22112 38.4635H5.46143V42.4522Z" fill="#168080"/>
<path id="Vector_6" d="M33.2865 35.8684H33.3718C33.8443 35.9146 34.2282 35.5449 34.2708 35.0792V34.9868C34.2708 34.4286 33.8443 34.0127 33.3718 34.0127C32.8566 34.0127 32.4727 34.4748 32.4727 34.9868C32.4727 35.4489 32.8566 35.8684 33.2865 35.8684Z" fill="#168080"/>
<path id="Vector_7" d="M35.7244 35.8681H35.8097C36.2822 35.9143 36.6661 35.5446 36.7088 35.0326C36.7514 34.5207 36.4102 34.1048 35.9377 34.0586H35.8097C35.3372 34.0124 34.9533 34.3821 34.9107 34.894V34.9402C34.868 35.4486 35.2519 35.8681 35.7244 35.8681Z" fill="#168080"/>
<path id="Vector_8" d="M42.3165 36.7966C41.4601 36.8428 40.6463 37.0739 39.9179 37.5396L40.433 38.9758C40.9482 38.6061 41.588 38.3714 42.2312 38.3714C43.9866 38.3714 44.3279 40.5968 45.3122 42.4987H37.9491V36.9814H36.4922V42.4987H32.5974V40.5968C32.5974 38.3252 31.3144 36.8392 29.3883 36.8392C27.4622 36.8392 26.1793 38.3714 26.1793 40.5968V40.5506C26.1793 41.8944 25.5788 42.4987 24.4238 42.4987H23.4394V34.1055H21.9825V44.0771H24.4238C25.4935 44.0771 26.3925 43.7999 26.8224 42.9182C27.3802 43.7536 28.2793 44.0771 29.3916 44.0771H47.199V42.4987C45.8733 41.802 45.8307 36.793 42.3197 36.793L42.3165 36.7966ZM29.3883 42.4525C28.4893 42.545 27.7182 41.8482 27.6329 40.8741V40.5506C27.6329 39.2531 28.3613 38.3714 29.3883 38.3714C30.4154 38.3714 31.1438 39.2531 31.1438 40.5506V42.4987H29.3883V42.4525Z" fill="#168080"/>
<path id="Vector_9" d="M43.3009 45.2817H43.2582C42.7857 45.2355 42.3591 45.559 42.3165 46.0709C42.2738 46.5828 42.5724 47.045 43.0449 47.0912H43.2582C43.7307 47.1374 44.1146 46.7677 44.1573 46.2558V46.1634C44.1573 45.6514 43.7734 45.2817 43.3009 45.2817Z" fill="#168080"/>
<path id="Vector_10" d="M54.0896 42.4519H48.9938V44.0303H55.5432V34.0586H54.0896V42.4519Z" fill="#168080"/>
<path id="Vector_11" d="M51.9929 35.0791H50.536V41.6629H51.9929V35.0791Z" fill="#168080"/>
<path id="Vector_12" d="M58.8835 34.0586H57.4266V44.0303H58.8835V34.0586Z" fill="#168080"/>
<path id="Vector_13" d="M64.9177 35.6337C65.4143 35.6337 65.8168 35.1976 65.8168 34.6596C65.8168 34.1217 65.4143 33.6855 64.9177 33.6855C64.4212 33.6855 64.0187 34.1217 64.0187 34.6596C64.0187 35.1976 64.4212 35.6337 64.9177 35.6337Z" fill="#168080"/>
<path id="Vector_14" d="M67.3163 35.6337C67.8128 35.6337 68.2154 35.1976 68.2154 34.6596C68.2154 34.1217 67.8128 33.6855 67.3163 33.6855C66.8198 33.6855 66.4172 34.1217 66.4172 34.6596C66.4172 35.1976 66.8198 35.6337 67.3163 35.6337Z" fill="#168080"/>
<path id="Vector_15" d="M69.4984 45.2822H69.4557C68.9832 45.236 68.5993 45.6057 68.5566 46.1176V46.1639C68.5566 46.722 68.9832 47.1379 69.4557 47.1379C69.9282 47.1379 70.3548 46.6758 70.3548 46.1639C70.3121 45.6519 69.9282 45.2822 69.4984 45.2822Z" fill="#168080"/>
<path id="Vector_16" d="M71.897 45.2822H71.8543C71.3818 45.236 70.9979 45.6057 70.9553 46.1176V46.1639C70.9553 46.722 71.3818 47.1379 71.8543 47.1379C72.3268 47.1379 72.7534 46.6758 72.7534 46.1639C72.7534 45.6519 72.3695 45.2822 71.897 45.2822Z" fill="#168080"/>
<path id="Vector_17" d="M84.6939 35.8686H84.7792C85.2517 35.9148 85.6356 35.5451 85.6782 35.0794V34.987C85.7209 34.4289 85.337 33.9667 84.8218 33.9205C84.3067 33.8743 83.8801 34.2902 83.8375 34.8483C83.7948 35.3603 84.1787 35.8224 84.6939 35.8686Z" fill="#168080"/>
<path id="Vector_18" d="M89.6616 34.0586H89.619C89.1465 34.0124 88.7626 34.3821 88.7199 34.894V34.9402C88.7199 35.4983 89.1465 35.9143 89.619 35.9143C90.1341 35.9143 90.518 35.4521 90.518 34.9402C90.4754 34.4781 90.1341 34.0586 89.6616 34.0586Z" fill="#168080"/>
<path id="Vector_19" d="M92.1423 34.0586C91.6698 34.0124 91.2859 34.3821 91.2432 34.894V34.9402C91.2006 35.4983 91.5418 35.9605 92.057 36.0067C92.5721 36.0529 92.9987 35.6832 93.0413 35.1251C93.084 34.5669 92.7427 34.1048 92.2276 34.0586H92.1423Z" fill="#168080"/>
<path id="Vector_20" d="M97.5367 42.4519H94.4982V36.9346H93.0413V42.4519H88.674V36.9346H87.2171V42.4519H83.109V40.55C83.109 38.2783 81.826 36.7924 79.8999 36.7924C77.9738 36.7924 76.6909 38.3246 76.6909 40.55V40.5037C76.6909 41.8475 76.0904 42.4519 74.9354 42.4519H73.4785V36.9346H71.979V42.4519H68.0841V36.9346H65.7282C63.5035 36.9346 62.004 38.417 62.004 40.5073C62.004 42.5976 63.4182 44.0303 65.5149 44.0303H74.8894C75.9591 44.0303 76.8582 43.753 77.288 42.8713C77.8459 43.7068 78.7449 44.0303 79.8573 44.0303H98.9049V34.0586H97.4481V42.4519H97.5334H97.5367ZM66.7158 42.4519H65.4755C64.3205 42.4519 63.4641 41.6627 63.4641 40.4575C63.4641 39.2524 64.3205 38.4632 65.4755 38.4632H66.7158V42.4519ZM79.8999 42.4519C79.0009 42.5443 78.2298 41.8475 78.1445 40.8735V40.55C78.1445 39.2524 78.8729 38.3708 79.8999 38.3708C80.927 38.3708 81.6554 39.2524 81.6554 40.55V42.4981H79.8999V42.4519Z" fill="#168080"/>
<path id="Vector_21" d="M102.288 34.0586H100.831V44.0303H102.288V34.0586Z" fill="#168080"/>
<path id="Vector_22" d="M107.21 36.9346C104.985 36.9346 103.486 38.417 103.486 40.5073C103.486 42.5976 104.9 44.0303 106.997 44.0303H108.109C108.066 44.9119 107.508 45.143 106.741 45.143C106.097 45.143 105.458 45.0043 104.857 44.8195L105.156 46.4903C105.714 46.6752 106.268 46.7214 106.826 46.7214C108.667 46.7214 109.608 45.9784 109.608 43.6143V36.9346H107.21ZM108.109 40.4575V42.4519H106.869C105.714 42.4519 104.857 41.6627 104.857 40.4575C104.857 39.2524 105.714 38.4632 106.869 38.4632H108.109V40.4575Z" fill="#168080"/>
<path id="Vector_23" d="M76.4316 24.5533C76.4316 22.3279 75.4899 21.1689 73.3505 21.1689H72.3235V22.7473H73.5212C74.5055 22.7473 75.0207 23.3055 75.0207 24.4644V26.736H71.0405V28.3144H76.3922L76.4349 24.5568L76.4316 24.5533Z" fill="#168080"/>
<path id="Vector_24" d="M80.1132 27.9376V21.1191H78.6564V28.1686C78.6564 29.1427 78.2298 29.4662 77.6293 29.4662C77.3307 29.4662 77.0715 29.42 76.7303 29.42L76.6023 30.7638C76.9009 30.8562 77.2028 30.8562 77.5014 30.8562C79.0009 30.9486 80.1132 30.2518 80.1132 27.934V27.9376Z" fill="#168080"/>
<path id="Vector_25" d="M83.2403 18.2891H81.7834V28.2607H83.2403V18.2891Z" fill="#168080"/>
<path id="Vector_26" d="M87.9489 28.2145H89.0612C89.0186 29.0961 88.4607 29.3272 87.6929 29.3272C87.0498 29.3272 86.41 29.2348 85.7668 29.0037L86.0654 30.6746C86.492 30.8594 86.9645 30.9056 87.4337 30.9056C89.1465 30.9056 90.3868 30.2551 90.4722 28.2145H93.5532C94.5376 28.2145 95.394 27.891 95.7779 27.0556C96.3357 27.891 97.2348 28.2145 98.3472 28.2145H106.009V18.2891H104.552V26.6823H101.556V24.7804C101.556 22.5088 100.273 21.0228 98.3472 21.0228C96.4211 21.0228 95.1381 22.5052 95.1381 24.7804V24.7342C95.1381 26.078 94.5376 26.7285 93.3826 26.7285H90.4295V21.165H88.1622C85.9375 21.165 84.4379 22.6474 84.4379 24.7378C84.4379 26.8281 85.8522 28.2145 87.9489 28.2145ZM96.595 24.7378C96.595 23.4402 97.3234 22.5586 98.3931 22.5586C99.4628 22.5586 100.149 23.4402 100.149 24.7378V26.6859H98.3931C97.494 26.7783 96.7229 26.0815 96.6376 25.1075C96.595 24.9688 96.595 24.8302 96.595 24.7378ZM87.8209 22.7434H89.0612V26.7321H87.8636C86.7086 26.7321 85.8521 25.9429 85.8521 24.7378V24.6916C85.8095 23.4864 86.6659 22.7434 87.8209 22.7434Z" fill="#168080"/>
<path id="Vector_27" d="M109.395 18.2891H107.938V28.2607H109.395V18.2891Z" fill="#168080"/>
<path id="Vector_28" d="M30.3727 19.7287H30.458C30.9305 19.775 31.3144 19.4052 31.3571 18.9395V18.8471C31.3571 18.289 30.9305 17.873 30.458 17.873C29.9429 17.873 29.559 18.3352 29.559 18.8471C29.559 19.359 29.9002 19.7287 30.3727 19.7287Z" fill="#168080"/>
<path id="Vector_29" d="M27.9774 19.7287H28.0627C28.5352 19.775 28.9191 19.4052 28.9618 18.9395V18.8471C28.9618 18.289 28.5352 17.873 28.0627 17.873C27.5902 17.873 27.1636 18.3352 27.1636 18.8471C27.121 19.359 27.5049 19.7287 27.9774 19.7287Z" fill="#168080"/>
<path id="Vector_30" d="M28.7485 28.2148H36.6235V21.1191H35.1666V26.6364H31.2717V21.1191H28.9158C26.6911 21.1191 25.1916 22.6016 25.1916 24.6919C25.2342 26.7786 26.6485 28.2148 28.7452 28.2148H28.7485ZM28.6205 22.6975H29.8608V26.64H28.6205C27.4655 26.64 26.6091 25.8508 26.6091 24.6457C26.6091 23.4867 27.4655 22.6975 28.6205 22.6975Z" fill="#168080"/>
<path id="Vector_31" d="M49.4237 18.9397H49.509C49.9356 18.9859 50.3227 18.6624 50.3654 18.1967V18.1043C50.4081 17.5923 50.0668 17.1302 49.5943 17.084C49.1218 17.0378 48.6952 17.4075 48.6526 17.9194C48.6099 18.4313 48.9512 18.8935 49.4237 18.9397Z" fill="#168080"/>
<path id="Vector_32" d="M48.2654 20.8879H48.3507C48.7772 20.8417 49.1218 20.4258 49.0791 19.9601C49.0365 19.4979 48.6526 19.1247 48.2227 19.1709C47.7962 19.2171 47.4943 19.5868 47.4943 20.0525C47.4516 20.5146 47.8355 20.8879 48.2654 20.8879Z" fill="#168080"/>
<path id="Vector_33" d="M49.8076 19.9599V20.0523C49.7649 20.5642 50.1061 21.0264 50.5786 21.0726C51.0511 21.1188 51.4777 20.7491 51.5204 20.2372C51.563 19.7253 51.2218 19.2631 50.7493 19.2169H50.664C50.2374 19.1245 49.8502 19.448 49.8076 19.9599Z" fill="#168080"/>
<path id="Vector_34" d="M41.0762 28.2145H64.4059V18.2891H62.949V26.6823H60.1238V21.1188H58.667V26.6361H54.7721V21.1188H53.3152V26.6361H50.2768V22.0929H48.8199V26.6361H46.208V22.0929H44.7512V26.6361H41.0696V20.9766H39.6127V28.211C39.6127 29.185 39.1862 29.5085 38.5857 29.5085C38.2871 29.5085 38.0279 29.4623 37.6866 29.4623L37.5587 30.8061C37.8572 30.8985 38.1591 30.8985 38.4577 30.8985C39.9572 30.9447 41.0269 30.2942 41.0696 28.2074L41.0762 28.2145Z" fill="#168080"/>
<path id="Vector_35" d="M67.7462 18.2891H66.2893V28.2607H67.7462V18.2891Z" fill="#168080"/>
<path id="Vector_36" d="M32.4727 31.3212C32.9693 31.3212 33.3718 30.8851 33.3718 30.3471C33.3718 29.8091 32.9693 29.373 32.4727 29.373C31.9762 29.373 31.5737 29.8091 31.5737 30.3471C31.5737 30.8851 31.9762 31.3212 32.4727 31.3212Z" fill="#168080"/>
<path id="Vector_37" d="M34.868 31.3212C35.3645 31.3212 35.7671 30.8851 35.7671 30.3471C35.7671 29.8091 35.3645 29.373 34.868 29.373C34.3715 29.373 33.9689 29.8091 33.9689 30.3471C33.9689 30.8851 34.3715 31.3212 34.868 31.3212Z" fill="#168080"/>
<path id="Vector_38" d="M56.7868 29.4658H56.7015C56.229 29.4196 55.8451 29.7893 55.8024 30.3012V30.3474C55.7598 30.9056 56.101 31.3677 56.6162 31.4139C57.1313 31.4601 57.5579 31.0904 57.6005 30.5323C57.6859 30.0204 57.302 29.512 56.7868 29.4658Z" fill="#168080"/>
</g>
<g id="Group_3">
<path id="Vector_39" d="M148.252 16.6645C148.55 16.7107 148.852 16.7569 149.151 16.8031C150.519 14.0658 152.147 11.4245 153.945 9.01065C149.364 5.16063 144.186 2.14602 138.707 0.105469L148.252 16.6609V16.6645ZM172.907 37.6281L157.154 32.1108L175.604 64.109C176.717 55.2038 175.775 46.0676 172.907 37.6281Z" fill="#168080"/>
<path id="Vector_40" d="M147.139 25.2927C153.945 13.5116 162.807 4.88725 175.647 0.109375L157.196 32.1076L138.746 64.1058C137.076 49.4985 140.331 37.113 147.136 25.2892L147.139 25.2927Z" fill="#F3901D"/>
<path id="Vector_41" d="M120.512 19.2166L140.16 26.1275C142.257 24.8761 144.399 23.7634 146.582 22.7432C146.88 22.0002 147.182 21.2607 147.481 20.4715C147.996 19.2202 148.593 18.0151 149.193 16.8064C139.563 15.0431 129.759 15.8785 120.512 19.2166ZM174.19 26.1275L157.154 32.1105L193.838 45.0043C188.703 37.2119 181.98 30.7667 174.19 26.1275Z" fill="#2DB174"/>
<path id="Vector_42" d="M120.512 45.0009L141.486 37.6279C142.257 35.4025 143.113 33.2233 144.098 31.1365C144.698 28.2605 145.512 25.477 146.582 22.7432C136.18 27.5673 127.491 34.5706 120.512 45.0044V45.0009ZM166.102 16.6642L157.154 32.107L193.838 19.2132C184.89 15.9675 175.388 15.0858 166.098 16.6607L166.102 16.6642Z" fill="#F8B213"/>
</g>
</g>
</g>
</g>
<defs>
<clipPath id="clip0_268_35760">
<rect width="193" height="64" fill="white" transform="translate(0.838135 0.109375)"/>
</clipPath>
</defs>
</svg>
