<svg width="56" height="65" viewBox="0 0 56 65" fill="none" xmlns="http://www.w3.org/2000/svg">
<g id="Group">
<g id="Group_2">
<g id="Group_3">
<path id="Vector" d="M12.1187 37.505L11.7889 37.5837L10.4576 39.0295C14.7049 38.0489 20.8447 37.4395 27.6561 37.4395C34.4676 37.4395 40.5953 38.0489 44.8547 39.0295L46.2825 37.4788C41.9004 36.4851 35.7245 35.915 29.267 35.915C22.8095 35.915 16.4988 36.4982 12.1167 37.505H12.1187Z" fill="#076562"/>
<path id="Vector_2" d="M11.801 37.5706L11.8734 37.2124C12.8005 32.4534 13.3374 25.6521 13.3374 18.5867C13.3374 11.5212 12.8146 4.86848 11.9116 0.109375L10.4717 1.67317C11.3746 6.28594 11.9357 12.9539 11.9357 20.3514C11.9357 27.7488 11.3746 34.4037 10.4717 39.0296L11.803 37.5706H11.801Z" fill="#076562"/>
</g>
<path id="Vector_3" d="M46.186 0.229492C41.8039 1.19704 35.6641 1.75398 29.2689 1.75398C22.8738 1.75398 16.7441 1.19704 12.3499 0.229492C13.2408 5.0017 13.7657 11.6697 13.7657 18.6019C13.7657 25.5342 13.2529 32.2022 12.3499 36.9744C16.7441 36.0068 22.8838 35.4499 29.2669 35.4499C35.65 35.4499 41.7898 36.0068 46.184 36.9744C45.2931 32.2022 44.7802 25.5473 44.7802 18.6019C44.7802 11.6566 45.2931 5.0017 46.184 0.229492H46.186ZM34.9442 9.41571L34.9321 9.49434L35.0045 9.50744C35.0165 9.50744 35.469 9.57297 35.4429 10.1976V10.25L35.4791 10.2762C35.4791 10.2762 35.8813 10.5274 35.9436 10.8463C35.9678 10.938 35.9557 11.0188 35.9195 11.1106C35.8712 11.1237 35.7365 11.1368 35.6018 11.1368C35.3202 11.1368 35.1251 11.0843 35.0527 10.9904L35.0407 10.9773H35.0166C35.0166 10.9642 34.552 10.831 34.1256 10.4466L34.0895 10.4073L34.0412 10.4335C34.0412 10.4335 33.9185 10.5121 33.7234 10.5121C33.5042 10.5121 33.3092 10.4204 33.1141 10.2347L33.0658 10.1823L33.0176 10.2478C33.0176 10.2478 32.9814 10.3134 32.8949 10.3396C32.8708 10.3527 32.8466 10.3527 32.8225 10.3658C32.7984 10.3789 32.7742 10.3789 32.7501 10.3789H32.738C32.5791 10.3789 32.3961 10.3134 32.2011 10.1539L32.1287 10.1015L32.0925 10.1932C32.0925 10.2063 31.9819 10.4706 31.469 10.4706C31.3846 10.4706 31.2981 10.4575 31.2136 10.4444C31.1292 10.4051 30.4695 10.1255 29.8964 9.99449C29.824 9.98139 29.7617 9.96828 29.7013 9.95518H29.7134C29.8964 9.87655 30.1035 9.79574 30.2865 9.74332C30.6043 9.65159 30.8718 9.58389 30.8718 9.58389H30.8838C31.3846 9.31961 31.4811 9.01384 31.5073 8.86751C31.7144 8.86751 31.8612 8.81509 31.9718 8.74739L31.9959 8.73428C32.008 8.73428 32.362 8.58795 32.6314 8.58795C32.742 8.58795 32.8386 8.61416 32.8748 8.66658C32.911 8.70589 32.923 8.75831 32.911 8.83912L32.8989 8.97235L33.0095 8.91993C33.0095 8.91993 33.4741 8.70807 33.7777 8.70807C33.8763 8.70807 33.9487 8.73428 33.9728 8.77359C33.9849 8.81291 33.9969 8.86533 33.9728 8.94614L33.9487 9.06626L34.0593 9.04005C34.0593 9.04005 34.194 9.01384 34.365 9.01384C34.6344 9.01384 34.8175 9.07937 34.9019 9.18639C34.9381 9.2388 34.9622 9.31961 34.9502 9.41134L34.9442 9.41571ZM34.2242 14.1486C34.2242 14.1486 33.834 13.7511 33.5284 13.0871L33.5042 13.0347L33.456 13.0478H33.4198C33.285 13.0478 32.9552 12.9823 32.6757 12.3446L32.6395 12.2659L32.5791 12.3183C32.5791 12.3183 32.5429 12.3446 32.4685 12.3446C32.3941 12.3446 32.2855 12.3183 32.1508 12.172C32.1387 12.1589 32.1146 12.1327 32.0905 12.1065C32.0181 12.0279 31.9437 11.9077 31.8592 11.7614L31.8109 11.6544L31.7747 11.7068L31.7506 11.7461C31.7385 11.7592 31.6782 11.8531 31.5193 11.8531C31.3604 11.8531 31.1533 11.7614 30.922 11.5758C30.8617 11.4971 30.2986 10.8201 29.8119 10.3702C29.7395 10.3046 29.6651 10.25 29.6048 10.1976C29.5565 10.1714 29.5063 10.1321 29.4701 10.1059C29.4701 10.0928 29.4821 10.0928 29.4821 10.0928C29.5183 10.0928 29.5545 10.0928 29.5927 10.1059C30.2021 10.1845 31.1674 10.5973 31.1795 10.5973H31.1915C31.2901 10.6235 31.3866 10.6235 31.4731 10.6235C31.9115 10.6235 32.1086 10.4379 32.181 10.3308C32.376 10.4772 32.5711 10.5427 32.7541 10.5427C32.7541 10.5427 32.7662 10.5296 32.7782 10.5296C32.7662 10.5689 32.7662 10.6082 32.7541 10.6497L32.7179 10.7567H32.8165C33.0115 10.7567 33.5726 10.8092 33.6953 11.0494C33.7315 11.1149 33.7315 11.2088 33.6832 11.3137L33.647 11.4054L33.7315 11.4316C33.7315 11.4316 34.2684 11.6042 34.4394 11.9754C34.4997 12.0956 34.4997 12.2135 34.4635 12.3467L34.4514 12.4123L34.4997 12.4516C34.5238 12.4647 34.9261 12.7836 34.7692 13.4977L34.7571 13.5371L34.7692 13.5764C34.7692 13.5895 35.2579 14.3714 34.9884 14.7689C34.7813 14.6903 34.3408 14.4631 34.2443 14.1726V14.1595L34.2322 14.1464L34.2242 14.1486ZM32.7099 14.2272C32.7219 14.2403 32.917 14.6116 32.5751 14.9305L32.5389 14.9567L32.551 15.0091C32.5631 15.1293 32.5993 15.4722 32.4907 15.6578C32.4545 15.7233 32.4062 15.7648 32.3318 15.7779C32.1488 15.5792 31.9175 15.2341 31.9296 15.0484V15.0222L31.9175 14.996C31.9175 14.996 31.7466 14.5723 31.7224 14.0285L31.7104 13.9761L31.6742 13.9499C31.6621 13.9367 31.2961 13.7642 31.284 13.1417V13.0631H31.2237C31.2116 13.0631 30.918 13.0369 30.8456 12.373L30.8335 12.2812L30.7491 12.3074C30.7491 12.3074 30.4796 12.3992 30.1397 11.7767C30.1156 11.6697 29.8703 10.9009 29.6028 10.3854C30.1277 10.8354 30.7994 11.6588 30.8114 11.6719L30.8235 11.685C31.093 11.8837 31.3242 11.9907 31.5073 11.9907C31.6299 11.9907 31.7265 11.9383 31.7767 11.899C31.8371 12.0191 31.8994 12.0978 31.9597 12.1764C31.9477 12.1895 31.9356 12.1895 31.9235 12.2026L31.825 12.2812L31.9235 12.3467C32.1789 12.5062 32.547 12.8229 32.5329 12.9823C32.5329 13.0216 32.5088 13.0609 32.4484 13.0893L32.3499 13.1417L32.4343 13.2204C32.545 13.3405 32.8245 13.6834 32.8124 13.9236C32.8124 14.0023 32.7883 14.0569 32.74 14.1224L32.6797 14.1617L32.7159 14.2272H32.7099ZM25.997 14.9174C25.643 14.5985 25.8501 14.2272 25.8622 14.2141L25.8984 14.1486L25.8381 14.1093C25.7777 14.07 25.7395 14.0023 25.7395 13.9367C25.7275 13.6987 26.009 13.3536 26.1176 13.2335L26.2021 13.1549L26.1035 13.1024C26.0553 13.0631 26.0191 13.0369 26.0191 12.9954C26.007 12.836 26.373 12.5171 26.6164 12.3598L26.7149 12.2943L26.6164 12.2157C26.6043 12.2157 26.5922 12.2026 26.5802 12.1895C26.6405 12.1109 26.7028 12.0169 26.7632 11.9121C26.8114 11.9514 26.8979 12.0038 27.0326 12.0038C27.2277 12.0038 27.459 11.8968 27.7164 11.6981L27.7285 11.685C27.7405 11.6719 28.4243 10.8375 28.9492 10.3723C28.6938 10.89 28.4484 11.6588 28.4122 11.7636C28.0704 12.3861 27.8029 12.2943 27.8029 12.2943L27.7305 12.2681L27.7184 12.3751C27.646 13.0369 27.3524 13.0653 27.3403 13.0653H27.2679V13.1439C27.2559 13.7664 26.8899 13.9389 26.8778 13.952L26.8416 13.9651V14.0176C26.8175 14.5483 26.6345 14.9851 26.6345 14.9851V15.0375C26.6465 15.2232 26.4032 15.5683 26.2322 15.767C26.1719 15.7408 26.1216 15.7015 26.0854 15.6469C25.9386 15.435 26.0251 14.9982 26.0251 14.9982L26.0372 14.9458L26.001 14.9196L25.997 14.9174ZM23.8009 13.4846C23.642 12.7552 24.0442 12.4516 24.0704 12.4385L24.1186 12.3992L24.1066 12.3336C24.0704 12.2004 24.0824 12.0825 24.1307 11.9623C24.2896 11.6042 24.8386 11.4185 24.8386 11.4185L24.911 11.3923L24.8748 11.3006C24.8265 11.1936 24.8265 11.1018 24.8627 11.0363C24.9854 10.7982 25.5344 10.7436 25.7415 10.7436H25.8401L25.8039 10.6366C25.8039 10.5973 25.7918 10.558 25.7918 10.5165C25.8039 10.5165 25.816 10.5296 25.828 10.5296C25.999 10.5296 26.182 10.4641 26.377 10.3177C26.4494 10.4248 26.6465 10.6104 27.0849 10.6104C27.1694 10.6104 27.2679 10.5973 27.3665 10.5842H27.3785C27.3906 10.5842 28.3559 10.1736 28.9653 10.0928C29.0015 10.0797 29.0377 10.0797 29.1 10.119H29.1121C29.0638 10.1452 29.0276 10.1714 28.9773 10.2107C28.9049 10.2631 28.8426 10.3177 28.7702 10.3833C28.2815 10.8332 27.7204 11.5102 27.6601 11.5889C27.4168 11.7745 27.2217 11.8662 27.0628 11.8662C26.9039 11.8662 26.8436 11.7592 26.8436 11.7592L26.8195 11.7068L26.7833 11.6413L26.7229 11.7483C26.6385 11.8946 26.5641 12.0126 26.4917 12.0934C26.4675 12.1196 26.4555 12.1458 26.4313 12.1589C26.2966 12.3052 26.188 12.3315 26.1257 12.3315C26.0533 12.3315 26.0151 12.3052 26.0151 12.3052L25.9427 12.2528L25.9065 12.3315C25.6249 12.967 25.2971 13.0347 25.1624 13.0347H25.1262L25.0779 13.0216L25.0538 13.074C24.736 13.7358 24.3459 14.1355 24.3459 14.1355L24.3217 14.1617C24.2232 14.4544 23.7848 14.6793 23.5777 14.758C23.3082 14.3605 23.7969 13.5786 23.7969 13.5655L23.821 13.5261L23.8089 13.4868L23.8009 13.4846ZM27.0226 22.2996H28.9391L28.5369 20.3776L28.8547 20.0325L28.4525 18.2962L28.7702 18.1236L28.3559 16.2278L28.734 15.9221L28.4042 14.3059L28.7823 14.0809L28.5389 12.6503L28.8567 12.4254L28.8084 10.8747V10.8616C28.8144 10.8288 28.8506 10.7021 28.9251 10.5514C28.9975 10.4007 29.1081 10.226 29.2609 10.0928C29.5786 10.3854 29.7134 10.8747 29.7134 10.8747L29.6651 12.4254L29.9829 12.6503L29.7516 14.0809L30.1297 14.3059L29.7999 15.9221L30.1779 16.2278L29.7637 18.1236L30.0814 18.2962L29.6792 20.0325L29.9969 20.3776L29.643 22.2865H31.5233C31.5233 22.2865 31.7667 22.3935 31.6943 22.6053C31.6098 22.8041 30.6324 23.8787 30.546 23.8241C30.4615 23.7716 30.4615 23.3741 30.4112 23.2933C30.363 23.2409 29.9587 23.717 29.7637 23.8372C29.7637 23.8372 29.5686 23.586 29.275 23.3872C28.9814 23.586 28.6656 23.8372 28.6656 23.8372C28.4706 23.7301 28.189 23.254 28.1528 23.3064C28.0925 23.3851 28.0925 23.7826 28.0181 23.8372C27.9336 23.8896 26.9562 22.8172 26.8698 22.6184C26.7853 22.4197 27.0286 22.2996 27.0286 22.2996H27.0226ZM33.1744 6.79045L33.1986 6.86908L33.271 6.82977C33.271 6.82977 33.3433 6.79045 33.4419 6.79045C33.6128 6.79045 33.7355 6.89747 33.832 7.09622L33.8562 7.13554H33.9406C34.013 7.13554 34.3066 7.14864 34.4414 7.30808C34.4776 7.34739 34.5017 7.4151 34.5017 7.49373C34.367 7.61385 34.0633 7.85192 33.8783 7.85192C33.8662 7.85192 33.8421 7.83881 33.83 7.83881H33.7938C33.7938 7.83881 33.5384 7.93054 33.1965 7.93054C33.1241 7.93054 33.0377 7.93054 32.9653 7.91744L32.917 7.90433L32.8929 7.94365C32.8929 7.95675 32.7099 8.28873 32.2956 8.28873C32.2473 8.28873 32.197 8.28873 32.1488 8.27563L32.0764 8.26252L32.0643 8.34115C32.0643 8.34115 32.0522 8.41977 31.9658 8.51369C31.9537 8.52679 31.9296 8.553 31.9054 8.56611C31.8692 8.60542 31.8069 8.61853 31.7466 8.64473C31.7224 8.64473 31.7104 8.65784 31.6862 8.65784C31.6138 8.67094 31.5394 8.67094 31.4429 8.67094H31.3584V8.69715L31.3705 8.77578V8.78888C31.3705 8.8282 31.3464 9.12086 30.8335 9.39824C30.7612 9.42445 30.2604 9.54457 29.8079 9.71712C29.6772 9.76953 29.5465 9.83287 29.4379 9.88529C29.4419 9.88092 29.4419 9.87655 29.4419 9.87655C29.454 9.87655 29.454 9.86345 29.454 9.86345C29.5022 9.79793 29.5525 9.73022 29.6128 9.6647C29.9185 9.33272 30.3087 8.98763 30.3087 8.98763L30.3207 8.97453C30.6143 8.57703 30.6143 8.29747 30.5902 8.16642C30.9442 7.96767 30.9924 7.7034 30.9924 7.57017C31.1513 7.50465 31.2619 7.41073 31.3343 7.3059H31.3584C31.3946 7.3059 31.4429 7.319 31.4811 7.41292L31.5294 7.53304L31.6018 7.42602C31.7606 7.18796 32.0543 6.81666 32.2111 6.81666C32.2232 6.81666 32.2715 6.81666 32.2956 6.93679L32.3197 7.07002L32.4042 6.99139C32.5027 6.89966 32.7823 6.64631 32.9894 6.64631C33.0739 6.64631 33.1362 6.69872 33.1724 6.79264L33.1744 6.79045ZM30.1096 7.02852L30.194 7.12025L30.2182 6.98702C30.2785 6.64194 30.4253 6.25754 30.5359 6.25754C30.5359 6.25754 30.56 6.27064 30.5842 6.30996L30.6566 6.41698L30.6928 6.29685C30.741 6.16362 30.9361 5.76612 31.1071 5.76612C31.1433 5.76612 31.1674 5.77923 31.2056 5.81854L31.2659 5.87096L31.3142 5.80544C31.3142 5.80544 31.4127 5.6591 31.5696 5.6591C31.642 5.6591 31.7285 5.69842 31.8129 5.76612L31.8491 5.79233L31.8853 5.76612C31.8853 5.76612 32.0683 5.646 32.2393 5.646C32.3378 5.646 32.4102 5.69842 32.4464 5.77923C32.362 5.99108 32.191 6.29685 32.0563 6.32306H32.0321L32.0201 6.33617C32.0201 6.34927 31.7647 6.61354 31.3966 6.75988L31.3484 6.77298V6.8254C31.3484 6.8254 31.3484 6.95863 31.2498 7.10278C31.1895 7.2098 31.0789 7.31463 30.8959 7.38016L30.8718 7.39326L30.8235 7.40636L30.8356 7.43257L30.8476 7.48499V7.53741C30.8476 7.60293 30.8235 7.69685 30.7249 7.81479C30.6646 7.88031 30.5902 7.94801 30.4695 8.01354L30.4092 8.03975L30.3972 8.05285V8.06595L30.4333 8.13148C30.4333 8.14458 30.544 8.36954 30.2141 8.83475C30.1779 8.87406 29.9326 9.08592 29.6893 9.33927C29.6289 9.40479 29.5786 9.45939 29.5424 9.51181C29.4942 9.56423 29.4439 9.63194 29.3956 9.68435C29.4077 9.65814 29.4077 9.63194 29.4198 9.59262C29.6028 8.94395 29.9085 7.74926 30.0291 6.98047C30.0533 6.98047 30.0774 6.99357 30.1015 7.01978L30.1096 7.02852ZM28.6455 6.43227H28.6938L28.6817 6.34054C28.6214 5.77049 28.6576 5.29436 28.7662 5.14803C28.7782 5.12182 28.8144 5.12182 28.8144 5.12182C28.8265 5.12182 28.8386 5.12182 28.8627 5.13493L28.9472 5.18734L28.9592 5.08032C29.0316 4.6304 29.1905 4.37705 29.277 4.24601C29.3615 4.36613 29.5083 4.6304 29.5947 5.08032L29.6189 5.18734L29.7033 5.13493C29.7154 5.13493 29.7395 5.12182 29.7516 5.12182C29.7637 5.12182 29.7757 5.12182 29.7999 5.14803C29.8984 5.28126 29.9346 5.77049 29.8843 6.34054L29.8723 6.43227H29.9326C29.9447 6.49779 29.9326 6.64412 29.8964 6.86908C29.8843 6.90839 29.8843 6.96081 29.8723 7.00231C29.8602 7.05473 29.8481 7.13554 29.8723 7.21416C29.7617 7.758 29.5786 8.51369 29.3836 9.26938C29.3836 9.28248 29.3715 9.30869 29.3715 9.3218C29.3474 9.40042 29.3232 9.46813 29.3112 9.54676C29.3112 9.54676 29.2991 9.55986 29.2991 9.57297V9.54676C29.275 9.46813 29.2629 9.40042 29.2388 9.3218C29.2388 9.30869 29.2267 9.28248 29.2267 9.26938C29.0196 8.51369 28.8486 7.758 28.738 7.21416C28.726 7.13554 28.7139 7.06783 28.7018 7.00231C28.6898 6.94989 28.6777 6.91058 28.6777 6.86908C28.6415 6.65723 28.6294 6.49779 28.6415 6.43227H28.6455ZM26.2906 5.65037C26.4615 5.65037 26.6445 5.77049 26.6445 5.77049L26.6807 5.7967L26.7169 5.77049C26.8014 5.70497 26.8879 5.66347 26.9602 5.66347C27.1191 5.66347 27.2157 5.8098 27.2157 5.8098L27.2639 5.87533L27.3243 5.82291C27.3484 5.7836 27.3846 5.77049 27.4228 5.77049C27.5937 5.77049 27.7888 6.15489 27.8371 6.30122L27.8853 6.42135L27.9577 6.31433C27.9819 6.27501 28.006 6.26191 28.0301 6.26191C28.1146 6.26191 28.2493 6.64631 28.3237 6.99139L28.3479 7.12462L28.4323 7.03289C28.4685 7.00668 28.4927 6.99357 28.5168 6.99357C28.6516 7.76237 28.9572 8.95487 29.102 9.63194C29.1141 9.65814 29.1141 9.69746 29.1262 9.72367C29.0779 9.67125 29.0276 9.60354 28.9794 9.55113C28.919 9.4856 28.8687 9.4179 28.8084 9.36548C28.5651 9.11431 28.3318 8.90246 28.2835 8.86096C27.9537 8.39793 28.0643 8.17079 28.0643 8.17079L28.1126 8.09216V8.07906L28.1005 8.06595L28.0402 8.03975C27.9175 7.97422 27.8451 7.90652 27.7848 7.84099C27.6862 7.72087 27.6621 7.61603 27.6621 7.56362V7.5112L27.6742 7.45878L27.6862 7.43257L27.638 7.41947L27.6138 7.40636C27.4429 7.32774 27.3202 7.22072 27.2599 7.1137C27.1754 6.98047 27.1614 6.84942 27.1614 6.83632L27.1493 6.7839L27.1131 6.7708C26.7471 6.62446 26.4897 6.34709 26.4897 6.34709L26.4776 6.33398H26.4655C26.3429 6.30777 26.1719 6.002 26.0754 5.79015C26.1116 5.69842 26.1739 5.65692 26.2825 5.65692L26.2906 5.65037ZM24.0804 7.30808C24.2152 7.14864 24.5068 7.13554 24.5932 7.13554H24.6777L24.7018 7.08312C24.8004 6.88437 24.9331 6.77735 25.092 6.77735C25.1905 6.77735 25.2629 6.81666 25.2629 6.81666L25.3353 6.85598L25.3594 6.77735C25.3956 6.67033 25.458 6.63102 25.5425 6.63102C25.7858 6.63102 26.1277 6.9761 26.1397 6.9761L26.2242 7.05473L26.2604 6.9215C26.2845 6.80137 26.3328 6.80137 26.3449 6.80137C26.4917 6.80137 26.7974 7.17267 26.9542 7.41073L27.0266 7.51775L27.0749 7.39763C27.1111 7.3059 27.1593 7.29061 27.1976 7.29061H27.2096C27.282 7.38234 27.3926 7.48936 27.5515 7.55488C27.5515 7.68811 27.5998 7.93928 27.9537 8.15113C27.9296 8.27126 27.9296 8.54864 28.2232 8.95924L28.2353 8.97235C28.2473 8.97235 28.6254 9.30433 28.9311 9.64941C28.9794 9.71493 29.0417 9.78264 29.09 9.84816C29.09 9.8569 29.0819 9.86563 29.0658 9.87437V9.88747C28.9552 9.82195 28.8225 9.76735 28.6877 9.71493C28.2493 9.52928 27.7486 9.40916 27.6742 9.39606C27.1614 9.13178 27.1372 8.82601 27.1372 8.7867V8.77359L27.1493 8.69497V8.66876H27.0648C26.9663 8.68186 26.8939 8.66876 26.8215 8.65565C26.7974 8.65565 26.7853 8.64255 26.7612 8.64255C26.7008 8.61634 26.6385 8.59013 26.6023 8.56392C26.5781 8.53771 26.554 8.52461 26.542 8.51151C26.4696 8.43288 26.4434 8.33896 26.4434 8.33896L26.4313 8.26034L26.371 8.27344C26.3227 8.28655 26.2725 8.28655 26.2242 8.28655C25.822 8.28655 25.6511 7.95457 25.639 7.94146L25.6149 7.90215L25.5666 7.91525C25.4942 7.91525 25.4198 7.92836 25.3353 7.92836C24.9814 7.92836 24.726 7.83663 24.726 7.83663H24.6898C24.6777 7.84973 24.6536 7.84973 24.6415 7.84973C24.4464 7.84973 24.1528 7.61167 24.0181 7.49154C24.0181 7.42602 24.0422 7.35831 24.0784 7.3059L24.0804 7.30808ZM22.5802 10.8463C22.6526 10.5274 23.0447 10.2762 23.0447 10.2762L23.0809 10.25V10.1976C23.0568 9.57515 23.5073 9.50744 23.5193 9.50744L23.5917 9.49434V9.41571C23.5797 9.32398 23.5917 9.24317 23.64 9.19075C23.7245 9.08373 23.9215 9.01821 24.1769 9.01821C24.3479 9.01821 24.4947 9.04442 24.4947 9.04442L24.6053 9.07063L24.5812 8.95051C24.5691 8.87188 24.5691 8.80417 24.5932 8.77796C24.6174 8.73865 24.6918 8.71244 24.7883 8.71244C25.094 8.71244 25.5565 8.9243 25.5565 8.9243L25.6671 8.97671L25.6551 8.84349C25.6551 8.75175 25.6551 8.69715 25.6913 8.65784C25.7275 8.60542 25.8139 8.57921 25.9346 8.57921C26.2041 8.57921 26.558 8.72554 26.558 8.72554L26.5822 8.73865C26.6807 8.80417 26.8255 8.85877 27.0347 8.85877C27.0588 9.01821 27.1573 9.30869 27.6581 9.57515H27.6822C27.6822 9.57515 27.9376 9.64067 28.2554 9.73459C28.4384 9.80011 28.6455 9.86782 28.8285 9.94644H28.8406C28.7803 9.95955 28.7179 9.97265 28.6576 9.98576C28.0844 10.1321 27.4127 10.4095 27.3263 10.4357C27.2277 10.4619 27.1433 10.4619 27.0709 10.4619C26.558 10.4619 26.4474 10.1845 26.4474 10.1845L26.4233 10.0928L26.3509 10.1452C26.1558 10.2915 25.9728 10.3702 25.8139 10.3702H25.8019C25.7777 10.3702 25.7536 10.357 25.7295 10.357C25.7053 10.3439 25.6812 10.3439 25.6571 10.3308C25.5726 10.2915 25.5223 10.2391 25.5223 10.2391L25.4741 10.1736L25.4258 10.226C25.2428 10.4117 25.0357 10.5034 24.8285 10.5034C24.6455 10.5034 24.5108 10.4248 24.5108 10.4248L24.4746 10.3985L24.4384 10.4379C24.012 10.8223 23.5475 10.9686 23.5475 10.9686H23.5234L23.4872 10.9948C23.4148 11.0865 23.2177 11.1411 22.9502 11.1411C22.8034 11.1411 22.6807 11.128 22.6204 11.1149C22.5721 11.0232 22.5601 10.9424 22.5842 10.8507L22.5802 10.8463ZM33.9788 25.2044C32.6455 26.1632 31.3323 27.2946 30.2222 28.3254C30.8416 28.9435 31.4731 29.6184 32.0985 30.3479L32.1588 30.2824C32.195 30.2431 32.2433 30.2431 32.2815 30.2824C32.3056 30.3086 32.3056 30.3479 32.3056 30.3741C32.3539 30.3217 32.3901 30.2824 32.4042 30.2278C32.3439 30.0683 32.3921 29.8696 32.5269 29.7363C32.6978 29.5638 32.9411 29.5638 33.0759 29.7363C33.1986 29.8958 33.1744 30.1601 33.0035 30.3195C32.8929 30.4265 32.7601 30.4527 32.6375 30.4265C32.553 30.5728 32.6013 30.7192 32.6013 30.7192C32.7722 31.1167 33.4801 31.4749 34.0533 31.4618C34.4796 31.4618 34.7853 31.3154 35.2257 30.8393C35.7265 30.2955 36.1649 30.8524 36.1649 30.8524C36.8607 31.9532 35.4328 32.9338 34.4555 32.96C33.2227 32.9863 32.1126 32.1781 31.831 31.8069C31.7204 31.6736 31.648 31.6212 31.5495 31.6736C31.5012 31.6998 31.4771 31.7937 31.4509 31.8855C31.463 32.0318 31.4147 32.1781 31.3041 32.283C31.1332 32.4424 30.8899 32.4424 30.7551 32.283C30.6204 32.1104 30.6445 31.8462 30.8154 31.6867C30.8999 31.6081 31.0226 31.5666 31.1211 31.5666C31.1332 31.5666 31.1453 31.5535 31.1573 31.5535C31.1453 31.5535 31.1332 31.5404 31.1211 31.5273C31.0849 31.488 31.0849 31.4356 31.1211 31.3941L31.2559 31.2477C31.0025 30.9725 30.2745 30.1972 29.273 29.2231C28.2715 30.1972 27.5435 30.9725 27.2901 31.2477L27.4369 31.3941C27.4731 31.4334 27.4731 31.4858 27.4369 31.5273C27.4248 31.5404 27.4127 31.5535 27.4007 31.5535C27.4127 31.5535 27.4248 31.5666 27.4369 31.5666C27.5475 31.5666 27.6561 31.6059 27.7426 31.6867C27.9135 31.8462 27.9376 32.1104 27.8029 32.283C27.6681 32.4424 27.4248 32.4424 27.2539 32.283C27.1433 32.176 27.095 32.0318 27.1071 31.8855C27.095 31.7937 27.0588 31.6998 27.0085 31.6736C26.91 31.6212 26.8376 31.6736 26.739 31.8069C26.4575 32.1781 25.3474 32.9863 24.1267 32.96C23.101 32.9338 21.6852 31.9532 22.3811 30.8524C22.3811 30.8524 22.8215 30.2955 23.3202 30.8393C23.7586 31.3154 24.0523 31.4618 24.4927 31.4618C25.0538 31.4749 25.7617 31.1167 25.9326 30.7192C25.9326 30.7192 25.9809 30.5728 25.8964 30.4265C25.7737 30.4527 25.641 30.4265 25.5304 30.3195C25.3594 30.1601 25.3353 29.8958 25.4701 29.7363C25.6048 29.5638 25.8481 29.5638 26.0191 29.7363C26.1538 29.8696 26.2021 30.0683 26.1418 30.2278C26.1659 30.2802 26.19 30.3195 26.2403 30.3741C26.2403 30.3479 26.2403 30.3086 26.2644 30.2824C26.3006 30.2431 26.3489 30.2431 26.3871 30.2824L26.4474 30.3479C27.0729 29.6184 27.7043 28.9435 28.3237 28.3254C27.2136 27.2946 25.9004 26.1654 24.5671 25.2044C20.4042 22.1947 17.267 22.4874 17.267 22.4874C19.6219 21.533 22.5882 22.4612 23.9316 23.2824C24.8929 23.8699 26.9522 25.2437 29.271 27.4081C31.5897 25.2437 33.649 23.8721 34.6103 23.2824C35.9537 22.4612 38.92 21.533 41.275 22.4874C41.275 22.4874 38.1377 22.1947 33.9748 25.2044H33.9788Z" fill="#076562"/>
</g>
<g id="Group_4">
<path id="Vector_4" d="M2.58619 47.3625L3.62792 48.0439L4.0784 47.2402L2.98841 46.5325L2.63647 47.1594L1.6229 46.4648L1.17041 47.3079L2.27448 48.0024L2.58619 47.3625Z" fill="#076562"/>
<path id="Vector_5" d="M4.0403 49.9216C3.96388 49.8539 3.78892 49.6901 3.50134 49.4717C3.2399 49.2686 3.06293 49.0917 2.96237 48.9541L2.09762 50.1794C1.4219 51.1447 1.08405 51.8546 1.08405 52.3154C1.08405 52.6277 1.22281 52.8461 1.51039 52.9815C1.73563 53.0907 1.99908 53.1322 2.30074 53.0907C2.76529 53.0361 3.16549 52.8592 3.49128 52.5731C3.66624 52.4355 3.84121 52.2324 4.01818 51.9747C4.26956 51.4156 4.39425 51.0093 4.39425 50.7625C4.39425 50.4371 4.28163 50.151 4.04432 49.9195L4.0403 49.9216ZM3.43899 51.8C3.07499 51.9638 2.72507 52.0446 2.39928 52.0446C2.03528 52.0446 1.86031 51.8808 1.86031 51.5553C1.86031 51.4592 1.88646 51.3522 1.93673 51.243C2.21225 50.8062 2.45156 50.4524 2.65066 50.1816C3.31431 50.6315 3.66624 51.0246 3.67831 51.3784C3.69038 51.5422 3.61597 51.6929 3.441 51.8021L3.43899 51.8Z" fill="#076562"/>
<path id="Vector_6" d="M7.29807 49.6487C7.17338 50.2471 7.09696 50.6555 7.04669 50.887C7.8853 51.5401 8.29958 52.0577 8.29958 52.4377C8.29958 52.9685 7.96172 53.58 7.27193 54.3029C6.58213 55.0237 6.00697 55.3775 5.51828 55.3775C5.29305 55.3775 5.00546 55.2967 4.64146 55.1329C4.27746 54.9691 4.07837 54.8883 4.05222 54.8883C4.00195 54.8883 3.97781 54.9145 3.97781 54.9691C3.97781 55.146 4.31567 55.3775 4.9934 55.6636C5.62085 55.9213 6.07132 56.0436 6.33477 56.0436C6.87374 56.0436 7.38656 55.6636 7.86318 54.9014C8.40214 54.0714 8.66559 53.2961 8.66559 52.5731C8.66559 51.8109 8.52683 51.1841 8.25131 50.6948C8.05021 50.3672 7.73849 50.0287 7.29807 49.6465V49.6487Z" fill="#076562"/>
<path id="Vector_7" d="M18.3508 55.2164L19.3785 55.9088L19.829 55.0788L18.8033 54.4258L18.3508 55.2164Z" fill="#076562"/>
<path id="Vector_8" d="M24.2534 47.757L25.3072 48.4363L25.7576 47.6347L24.6676 46.9271L24.3157 47.5517L23.3021 46.8594L22.8496 47.7024L23.9276 48.3839L24.2534 47.757Z" fill="#076562"/>
<path id="Vector_9" d="M29.1041 46.6128C28.8406 46.4621 28.5651 46.3005 28.2896 46.1367C28.2152 46.0952 28.177 46.0406 28.177 45.9729C28.177 45.9314 28.189 45.8768 28.2272 45.796C28.2655 45.7152 28.2775 45.6606 28.2775 45.6191C28.2775 45.5776 28.2534 45.5383 28.189 45.523C28.1508 45.4815 28.0764 45.5492 27.9879 45.7261L27.4992 46.6522C27.461 46.733 27.4369 46.816 27.4369 46.8968C27.4369 47.0191 27.4992 47.1152 27.6119 47.196L27.6742 47.2222C28.0382 49.5897 28.2252 51.1273 28.2252 51.8088C28.2252 51.9726 28.2132 52.0534 28.187 52.0534H25.818C25.7054 52.0534 25.643 52.0119 25.631 51.9311C25.631 51.918 25.643 51.8219 25.6692 51.6319C25.8079 50.7888 25.8824 50.1489 25.8824 49.7121C25.8824 49.6443 25.8824 49.6028 25.8703 49.5897C25.5063 50.0244 25.2308 50.3935 25.0176 50.7058L24.9935 52.0534H20.356L20.2554 51.9857C20.0925 51.8634 20.0181 51.6996 20.0181 51.4964C20.3821 51.3064 20.8829 51.2103 21.5344 51.2103C21.6732 51.2103 21.7858 51.2103 21.8723 51.2234C22.0593 50.7604 22.1981 50.4066 22.2725 50.162C22.2222 50.162 22.1217 50.162 21.9467 50.1751H21.633C21.1564 50.1751 20.4042 50.0113 19.3766 49.6858C18.6868 49.4674 18.186 49.3451 17.8723 49.3451C17.3213 49.3451 16.8949 49.7252 16.5933 50.4874C16.5309 50.6643 16.4927 50.815 16.4927 50.9373C16.5048 50.9504 16.5048 50.9635 16.5048 50.9788C16.9432 50.625 17.2951 50.4481 17.5566 50.4481L18.0694 50.5704C18.7833 50.7342 19.3223 50.8565 19.6863 50.9373C18.8477 51.6865 18.0815 52.0534 17.3937 52.0534H11.7044C11.4671 52.0534 11.2901 51.9988 11.2036 51.8896C11.1654 51.8481 11.1292 51.8088 11.1152 51.7935C11.0649 51.6712 10.9643 50.7451 10.8135 49.0175L10.5118 45.167C10.2363 45.5754 10.0232 45.8746 9.89847 46.0646C10.0855 48.2837 10.2484 50.6228 10.3751 53.0864H17.3675C17.8059 53.0864 18.1699 52.9357 18.4575 52.6234C18.5701 52.5011 18.7713 52.3504 19.0347 52.1604C19.3102 51.9704 19.4993 51.8197 19.6119 51.6843C19.6622 52.1189 19.7004 52.3919 19.7366 52.5142C19.8251 52.8811 19.9739 53.0712 20.2011 53.0712H24.4364C24.4867 53.0712 24.5752 52.962 24.6878 52.7588C24.8004 52.5557 24.8748 52.4465 24.901 52.4465C24.9251 52.4596 24.9633 52.5273 25.0256 52.6649C25.088 52.8003 25.1383 52.8833 25.1885 52.9226C25.3132 53.0187 25.4399 53.0581 25.5646 53.0581H28.3218C28.4103 53.0581 28.5088 52.785 28.5973 52.2543C28.6858 51.7498 28.722 51.3698 28.722 51.112L28.4082 47.683C28.4465 47.6962 28.4827 47.7093 28.547 47.7245L29.098 46.6085L29.1041 46.6128Z" fill="#076562"/>
<path id="Vector_10" d="M31.1593 45.1846C30.6585 46.0822 30.4192 46.6676 30.4574 46.9537C30.7088 49.5112 30.9079 51.6887 31.0467 53.4993C31.3483 52.6956 31.4851 52.1103 31.4851 51.7433L31.3604 48.4913C31.2599 46.3552 31.1975 45.2523 31.1593 45.1846Z" fill="#076562"/>
<path id="Vector_11" d="M38.1296 47.3625L39.1693 48.0439L39.6198 47.2402L38.5439 46.5325L38.1799 47.1594L37.1764 46.4648L36.7138 47.3079L37.8159 48.0024L38.1296 47.3625Z" fill="#076562"/>
<path id="Vector_12" d="M39.5836 49.9216C39.5072 49.8539 39.3323 49.6901 39.0447 49.4717C38.7832 49.2686 38.6063 49.0917 38.5057 48.9541L37.641 50.1794C36.9652 51.1447 36.6274 51.8546 36.6274 52.3154C36.6274 52.6277 36.7661 52.8461 37.0537 52.9815C37.279 53.0907 37.5424 53.1322 37.8441 53.0907C38.3086 53.0361 38.7088 52.8592 39.0346 52.5731C39.2096 52.4355 39.3866 52.2324 39.5615 51.9747C39.8129 51.4156 39.9376 51.0093 39.9376 50.7625C39.9376 50.4371 39.825 50.151 39.5877 49.9195L39.5836 49.9216ZM38.9944 51.8C38.6324 51.9638 38.2805 52.0446 37.9547 52.0446C37.5907 52.0446 37.4157 51.8808 37.4157 51.5553C37.4157 51.4592 37.4398 51.3522 37.4901 51.243C37.7656 50.8062 38.005 50.4524 38.204 50.1816C38.8697 50.6315 39.2196 51.0246 39.2317 51.3784C39.2317 51.5422 39.1573 51.6929 38.9944 51.8021V51.8Z" fill="#076562"/>
<path id="Vector_13" d="M42.8415 49.6487C42.7168 50.2471 42.6404 50.6555 42.5901 50.887C43.4287 51.5401 43.843 52.0577 43.843 52.4377C43.843 52.9685 43.5051 53.58 42.8154 54.3029C42.1256 55.0237 41.5504 55.3775 41.0617 55.3775C40.8365 55.3775 40.5489 55.2967 40.1849 55.1329C39.8209 54.9691 39.6218 54.8883 39.5956 54.8883C39.5454 54.8883 39.5212 54.9145 39.5212 54.9691C39.5212 55.146 39.8591 55.3775 40.5368 55.6636C41.1643 55.9213 41.6148 56.0436 41.8782 56.0436C42.4172 56.0436 42.93 55.6636 43.4187 54.9014C43.9576 54.0714 44.2211 53.2961 44.2211 52.5731C44.2211 51.8109 44.0823 51.1841 43.8068 50.6948C43.5936 50.3672 43.2799 50.0287 42.8415 49.6465V49.6487Z" fill="#076562"/>
<path id="Vector_14" d="M46.3126 45.1846C45.8119 46.0822 45.5726 46.6676 45.6108 46.9537C45.8621 49.5112 46.0612 51.6887 46.2 53.4993C46.5017 52.6956 46.6384 52.1103 46.6384 51.7433L46.5137 48.4913C46.4252 46.3552 46.3508 45.2523 46.3126 45.1846Z" fill="#076562"/>
<path id="Vector_15" d="M51.0869 50.6968C50.8998 50.3692 50.5861 50.0154 50.1477 49.6484C50.023 50.2469 49.9466 50.6553 49.8963 50.8868C50.7349 51.5398 51.1492 52.0575 51.1492 52.4375C51.1492 52.9682 50.8114 53.5798 50.1216 54.3027C49.4318 55.0234 48.8566 55.3773 48.3679 55.3773C48.1427 55.3773 47.8551 55.2965 47.4911 55.1326C47.1271 54.9688 46.928 54.888 46.9019 54.888C46.8516 54.888 46.8275 54.9142 46.8275 54.9688C46.8275 55.1458 47.1653 55.3773 47.843 55.6634C48.4705 55.9211 48.921 56.0434 49.1844 56.0434C49.7234 56.0434 50.2362 55.6634 50.7249 54.9011C51.2638 54.0712 51.5273 53.2958 51.5273 52.5729C51.5032 51.8238 51.3644 51.1991 51.0889 50.6946L51.0869 50.6968Z" fill="#076562"/>
<path id="Vector_16" d="M50.3227 47.4839L49.2709 46.8047L48.8063 47.6215L49.8722 48.3139L50.3227 47.4839Z" fill="#076562"/>
<path id="Vector_17" d="M55.5977 49.9896C55.3483 49.4589 55.1351 49.2012 54.9481 49.2012C54.6726 49.2012 54.3589 49.5135 53.9949 50.1403C53.657 50.7388 53.4941 51.2018 53.5062 51.5272C53.5062 51.8395 53.5685 52.1125 53.6691 52.3441C53.8078 52.6433 53.9949 52.8071 54.2583 52.8224C54.558 52.8486 54.7731 52.8224 54.9099 52.7394C55.1231 52.6018 55.3362 52.3047 55.5353 51.8133C55.5856 51.9771 55.6118 52.1802 55.6118 52.438C55.6238 52.9687 55.3242 53.554 54.7229 54.194C54.1718 54.7793 53.5826 55.1877 52.9934 55.4323C52.8667 55.4738 52.744 55.5 52.5791 55.5C52.4403 55.5 52.2292 55.4585 51.9536 55.3908C51.6781 55.3078 51.465 55.2816 51.3403 55.2816C51.2518 55.2816 51.2015 55.3231 51.2015 55.3908C51.2015 55.5284 51.5514 55.6617 52.2674 55.8408C52.8305 55.9762 53.2689 56.0439 53.5826 56.0723C53.9446 56.1007 54.3086 55.9085 54.6967 55.5C55.0105 55.1746 55.2598 54.7924 55.4489 54.3578C55.8129 53.5278 55.9999 52.6302 55.9999 51.6757C55.9999 51.0904 55.8732 50.5335 55.5977 49.9874V49.9896ZM54.7329 51.7303C54.558 51.7303 54.383 51.691 54.206 51.6211C53.9808 51.525 53.8682 51.4027 53.8541 51.2411C53.8541 51.0904 53.9426 50.9135 54.1296 50.7104C54.3166 50.5072 54.4675 50.4111 54.6062 50.4111C54.7933 50.4264 54.9582 50.5618 55.107 50.8349C55.2337 51.0795 55.294 51.3241 55.294 51.5425C55.2176 51.6779 55.0185 51.7325 54.7309 51.7325L54.7329 51.7303Z" fill="#076562"/>
</g>
<g id="Group_5">
<path id="Vector_18" d="M1.12624 58.2197L2.31276 61.6247L3.52141 58.2197H4.3198V62.7342H3.62598V59.6219L2.52393 62.7342H2.0654L1.01965 59.6219V62.7342H0.32785V58.2197H1.12624Z" fill="#076562"/>
<path id="Vector_19" d="M4.86081 59.469V62.7342H5.54256V59.469H4.86081ZM4.86081 58.2197V58.8575H5.54256V58.2197H4.86081Z" fill="#076562"/>
<path id="Vector_20" d="M6.0332 59.4682H6.725V59.7368C6.85371 59.6342 6.99449 59.5446 7.14733 59.4944C7.30017 59.4442 7.45301 59.418 7.61791 59.418C7.77075 59.418 7.91153 59.4442 8.04024 59.4813C8.16894 59.5315 8.26346 59.5971 8.35798 59.6844C8.44044 59.774 8.51082 59.8766 8.55708 60.0033C8.60333 60.13 8.62746 60.2588 8.62746 60.4117V62.7312H7.94572V60.4751C7.94572 60.2829 7.90952 60.1431 7.83913 60.0535C7.76874 59.9771 7.67422 59.9269 7.54552 59.9269C7.42887 59.9269 7.32229 59.9531 7.22777 60.0033C7.13325 60.0535 7.04074 60.1191 6.97035 60.1955C6.89997 60.2719 6.84165 60.3615 6.79338 60.4641C6.74713 60.5668 6.73506 60.6673 6.73506 60.783V62.7334H6.03119V59.4704L6.0332 59.4682Z" fill="#076562"/>
<path id="Vector_21" d="M9.15637 59.469V62.7342H9.83812V59.469H9.15637ZM9.15637 58.2197V58.8575H9.83812V58.2197H9.15637Z" fill="#076562"/>
<path id="Vector_22" d="M11.0226 61.6479C11.0226 61.7637 11.0468 61.8641 11.0689 61.9406C11.1051 62.017 11.1393 62.0804 11.1855 62.1328C11.2318 62.183 11.2921 62.2223 11.3504 62.2485C11.4208 62.2747 11.4912 62.2878 11.5616 62.2878C11.6199 62.2878 11.6903 62.2747 11.7607 62.2616C11.8311 62.2485 11.8894 62.2223 11.9477 62.1983C12.006 62.1721 12.0543 62.1219 12.0885 62.0585C12.1247 62.0083 12.1468 61.9318 12.1468 61.8423C12.1468 61.7659 12.1227 61.7025 12.0885 61.6392C12.0523 61.5889 12.006 61.5365 11.9477 61.4994C11.8894 61.4601 11.819 61.423 11.7366 61.3836C11.6541 61.3443 11.5716 61.3203 11.4892 61.281C11.3605 61.2308 11.2318 61.1783 11.1011 61.1281C10.9724 61.0779 10.8537 61.0123 10.7612 60.9359C10.6546 60.8595 10.5742 60.7699 10.5138 60.6673C10.4434 60.5646 10.4193 60.4379 10.4193 60.285C10.4193 60.1322 10.4555 60.0055 10.5138 59.9028C10.5722 59.8002 10.6546 59.6997 10.7612 59.6342C10.8678 59.5578 10.9844 59.5075 11.1252 59.4682C11.266 59.4289 11.4067 59.418 11.5596 59.418C11.7245 59.418 11.8773 59.4311 12.0302 59.4682C12.1709 59.5075 12.2997 59.5709 12.4062 59.6473C12.5128 59.7237 12.5933 59.8264 12.6637 59.9531C12.722 60.0797 12.7582 60.2217 12.7702 60.3855H12.0885C12.0764 60.296 12.0523 60.2326 12.0302 60.1693C11.994 60.1191 11.9598 60.0666 11.9135 60.0295C11.8673 59.9902 11.819 59.9662 11.7607 59.9531C11.7024 59.94 11.644 59.9269 11.5737 59.9269C11.4329 59.9269 11.3162 59.9662 11.2459 60.0295C11.1634 60.0929 11.1292 60.1824 11.1292 60.285C11.1292 60.3615 11.1533 60.4117 11.1875 60.4772C11.2237 60.5275 11.27 60.5799 11.3283 60.617C11.3866 60.6542 11.457 60.6935 11.5395 60.7328C11.6219 60.7721 11.7044 60.7961 11.7868 60.8354C11.9155 60.8857 12.0442 60.9381 12.175 60.9883C12.3037 61.0386 12.4223 61.1041 12.5148 61.1805C12.6214 61.257 12.7019 61.3334 12.7622 61.4361C12.8205 61.5387 12.8567 61.6523 12.8567 61.7811C12.8567 61.9602 12.8205 62.1131 12.7501 62.2398C12.6797 62.3665 12.5852 62.4691 12.4686 62.5587C12.3519 62.6351 12.2112 62.6985 12.0583 62.7378C11.9055 62.7771 11.7406 62.788 11.5656 62.788C11.4007 62.788 11.2378 62.7618 11.095 62.7116C10.9422 62.6613 10.8135 62.5958 10.7069 62.4953C10.5903 62.4058 10.5078 62.2791 10.4374 62.1393C10.367 61.9996 10.3308 61.8336 10.3208 61.6414H11.0246V61.6545L11.0226 61.6479Z" fill="#076562"/>
<path id="Vector_23" d="M14.2282 58.5387V59.4691H14.6747V59.9802H14.2282V61.9699C14.2282 62.0857 14.2524 62.173 14.2866 62.2123C14.3228 62.2517 14.369 62.2757 14.4273 62.2757C14.4515 62.2757 14.4857 62.2757 14.5339 62.2626C14.5802 62.2495 14.6626 62.2364 14.7571 62.2233V62.7081C14.6747 62.7343 14.5922 62.7474 14.4997 62.7584C14.4173 62.7715 14.3348 62.7846 14.2644 62.7846C14.1699 62.7846 14.0774 62.7715 13.995 62.7453C13.9125 62.719 13.83 62.6819 13.7717 62.6295C13.7013 62.5793 13.6551 62.5028 13.6189 62.4264C13.5827 62.3368 13.5606 62.2342 13.5606 62.1206V59.9649H13.0799V59.4538H13.5264V58.5234H14.2303V58.5365L14.2282 58.5387Z" fill="#076562"/>
<path id="Vector_24" d="M15.1313 59.4684H15.7426L15.7788 59.7611C15.8613 59.6453 15.9558 59.558 16.0724 59.5056C16.1891 59.4422 16.2957 59.416 16.4244 59.416C16.4606 59.416 16.5068 59.4291 16.5651 59.4422C16.6235 59.4553 16.6818 59.4684 16.7421 59.4925V60.104C16.5551 60.0276 16.4364 59.9882 16.4022 59.9882C16.3077 59.9882 16.2253 60.0145 16.1549 60.0516C16.0845 60.0909 16.0141 60.1542 15.9679 60.2307C15.9216 60.3071 15.8733 60.3836 15.8512 60.4862C15.8271 60.5889 15.815 60.6784 15.815 60.792V62.7424H15.1333V59.4662L15.1313 59.4684Z" fill="#076562"/>
<path id="Vector_25" d="M18.2544 61.7009L18.9583 59.4688H19.6621L18.3952 63.3957C18.3489 63.5224 18.3006 63.6381 18.2423 63.7277C18.184 63.8172 18.1136 63.8937 18.0432 63.9439C17.9728 63.9942 17.9025 64.0466 17.82 64.0706C17.7496 64.0968 17.6672 64.1099 17.5968 64.1099C17.5385 64.1099 17.4681 64.1099 17.3977 64.0968C17.3273 64.0837 17.2448 64.0575 17.1503 64.0204V63.4722C17.1865 63.4853 17.2207 63.4984 17.2569 63.5115C17.2931 63.5246 17.3273 63.5377 17.3735 63.5617C17.4097 63.5748 17.4439 63.5879 17.4681 63.601C17.5043 63.6141 17.5143 63.6141 17.5385 63.6141C17.5626 63.6141 17.5847 63.601 17.6088 63.5639C17.633 63.5377 17.6551 63.5006 17.6792 63.4481C17.7034 63.3979 17.7154 63.3586 17.7376 63.3084C17.7617 63.2581 17.7738 63.2188 17.7838 63.1686L17.9125 62.7361L16.8084 59.484H17.5364L18.2524 61.7031L18.2544 61.7009Z" fill="#076562"/>
<path id="Vector_26" d="M23.9497 60.4516C23.8914 60.2485 23.7969 60.0694 23.6682 59.9165C23.5395 59.7636 23.3866 59.6479 23.2097 59.5605C23.0226 59.471 22.8235 59.4316 22.5862 59.4316C22.3489 59.4316 22.1398 59.471 21.9648 59.5605C21.7879 59.6369 21.635 59.7636 21.5184 59.9165C21.3897 60.0694 21.2951 60.2485 21.2368 60.4516C21.1785 60.6547 21.1423 60.8709 21.1423 61.1003C21.1423 61.3427 21.1785 61.5611 21.2368 61.7511C21.3072 61.9543 21.4017 62.1333 21.5184 62.2862C21.635 62.4391 21.7879 62.5549 21.9648 62.6422C22.1519 62.7318 22.3509 62.7689 22.5862 62.7689C22.8215 62.7689 23.0327 62.7318 23.2097 62.6422C23.3846 62.5527 23.5375 62.4391 23.6682 62.2862C23.7969 62.1333 23.8914 61.9543 23.9497 61.7511C24.0081 61.548 24.0443 61.3318 24.0443 61.1003C24.0443 60.8688 24.0081 60.6547 23.9497 60.4516ZM23.2901 61.5611C23.2559 61.7009 23.2077 61.8298 23.1373 61.9302C23.0669 62.0438 22.9844 62.1202 22.8899 62.1858C22.7954 62.2491 22.6908 62.2753 22.5742 62.2753C22.4575 62.2753 22.3509 62.2491 22.2564 62.1858C22.1619 62.1224 22.0915 62.0329 22.0211 61.9302C21.9507 61.8276 21.9025 61.6987 21.8683 61.5611C21.8321 61.4213 21.82 61.2663 21.82 61.1003C21.82 60.9474 21.8442 60.7945 21.8683 60.6416C21.9025 60.5018 21.9507 60.373 22.0211 60.2725C22.0795 60.1589 22.1619 60.0825 22.2564 60.017C22.3509 59.9536 22.4555 59.9274 22.5742 59.9274C22.6928 59.9274 22.7954 59.9536 22.8899 60.017C22.9844 60.0803 23.0669 60.1699 23.1373 60.2725C23.2077 60.3752 23.2559 60.5018 23.2901 60.6416C23.3263 60.7945 23.3484 60.9474 23.3484 61.1003C23.3484 61.2663 23.3243 61.4191 23.2901 61.5611Z" fill="#076562"/>
<path id="Vector_27" d="M24.8406 59.4691V58.755C24.8406 58.6523 24.8527 58.5759 24.8869 58.4863C24.9231 58.4099 24.9693 58.3334 25.0397 58.2701C25.1101 58.2068 25.1805 58.1674 25.275 58.1303C25.3695 58.091 25.4741 58.0801 25.5927 58.0801C25.6631 58.0801 25.7335 58.0932 25.828 58.1194C25.9226 58.1456 26.005 58.1958 26.0855 58.2461V58.744C25.9909 58.7047 25.9085 58.6676 25.8381 58.6414C25.7798 58.6152 25.7436 58.6021 25.7315 58.6021C25.6732 58.6021 25.6249 58.6152 25.5907 58.6523C25.5545 58.6916 25.5324 58.755 25.5324 58.8314V59.4691H26.0372V59.9911H25.5324V62.7322H24.8406V59.9911H24.3479V59.4691H24.8406Z" fill="#076562"/>
<path id="Vector_28" d="M28.3981 60.4122C28.3981 60.7441 28.4343 61.0237 28.5047 61.2661C28.5751 61.5086 28.6696 61.7117 28.7863 61.8646C28.9029 62.0175 29.0437 62.1441 29.1845 62.2206C29.3373 62.297 29.4902 62.3363 29.643 62.3363C29.7958 62.3363 29.9487 62.297 30.0774 62.2337C30.2061 62.1703 30.3127 62.0677 30.4172 61.9541C30.5118 61.8384 30.5942 61.7117 30.6525 61.5588C30.7109 61.419 30.7591 61.2661 30.7933 61.1132H31.4851C31.4389 61.3557 31.3685 61.585 31.274 61.7881C31.1794 62.0043 31.0507 62.1834 30.8979 62.3363C30.7451 62.4892 30.558 62.6159 30.3569 62.7054C30.1458 62.795 29.9105 62.8452 29.653 62.8452C29.3594 62.8452 29.09 62.795 28.8547 62.6792C28.6194 62.5635 28.4082 62.4106 28.2433 62.1944C28.0784 61.9912 27.9376 61.7226 27.8552 61.4299C27.7606 61.1242 27.7144 60.7791 27.7144 60.3969C27.7144 60.2047 27.7385 60.0016 27.7727 59.8094C27.8089 59.6172 27.8672 59.4402 27.9497 59.2611C28.0201 59.0952 28.1146 58.9292 28.2312 58.7894C28.3378 58.6496 28.4665 58.5208 28.6194 58.4072C28.7601 58.3045 28.925 58.215 29.1 58.1647C29.277 58.1014 29.464 58.0752 29.6752 58.0752C29.9326 58.0752 30.1679 58.1145 30.379 58.191C30.5781 58.2674 30.7672 58.3701 30.92 58.5098C31.0729 58.6365 31.2016 58.8025 31.3081 58.9816C31.4147 59.1607 31.4851 59.3638 31.5434 59.58H30.8396C30.733 59.248 30.5822 59.0056 30.3931 58.8396C30.2061 58.6736 29.9708 58.5972 29.6772 58.5972C29.4902 58.5972 29.3252 58.6474 29.1724 58.737C29.0196 58.8396 28.8909 58.9663 28.7742 59.1323C28.6676 59.2983 28.5751 59.4883 28.5168 59.7067C28.4223 59.936 28.4002 60.1654 28.4002 60.4078L28.3981 60.4122Z" fill="#076562"/>
<path id="Vector_29" d="M34.7371 60.4516C34.6787 60.2485 34.5842 60.0694 34.4555 59.9165C34.3268 59.7636 34.174 59.6479 33.997 59.5605C33.81 59.471 33.6109 59.4316 33.3756 59.4316C33.1403 59.4316 32.9291 59.471 32.7521 59.5605C32.5752 59.6369 32.4223 59.7636 32.3057 59.9165C32.177 60.0694 32.0825 60.2485 32.0241 60.4516C31.9658 60.6547 31.9296 60.8709 31.9296 61.1003C31.9296 61.3427 31.9658 61.5611 32.0241 61.7511C32.0945 61.9543 32.1891 62.1333 32.3057 62.2862C32.4223 62.4391 32.5752 62.5549 32.7521 62.6422C32.9392 62.7318 33.1383 62.7689 33.3756 62.7689C33.6129 62.7689 33.822 62.7318 33.997 62.6422C34.174 62.5527 34.3268 62.4391 34.4555 62.2862C34.5842 62.1333 34.6787 61.9543 34.7371 61.7511C34.7954 61.548 34.8316 61.3318 34.8316 61.1003C34.8316 60.8688 34.7954 60.6547 34.7371 60.4516ZM34.0915 61.5611C34.0553 61.7009 34.0091 61.8298 33.9387 61.9302C33.8683 62.0438 33.7858 62.1202 33.6913 62.1858C33.5968 62.2491 33.4922 62.2753 33.3756 62.2753C33.2589 62.2753 33.1523 62.2491 33.0578 62.1858C32.9633 62.1224 32.8929 62.0329 32.8225 61.9302C32.7521 61.8276 32.7059 61.6987 32.6697 61.5611C32.6355 61.4213 32.6234 61.2663 32.6234 61.1003C32.6234 60.9474 32.6355 60.7945 32.6697 60.6416C32.7059 60.5018 32.7521 60.373 32.8225 60.2725C32.8829 60.1589 32.9633 60.0825 33.0578 60.017C33.1523 59.9536 33.2569 59.9274 33.3756 59.9274C33.4942 59.9274 33.5968 59.9536 33.6913 60.017C33.7858 60.0803 33.8663 60.1699 33.9387 60.2725C34.0091 60.3752 34.0553 60.5018 34.0915 60.6416C34.1277 60.7945 34.1498 60.9474 34.1498 61.1003C34.1498 61.2663 34.1257 61.4191 34.0915 61.5611Z" fill="#076562"/>
<path id="Vector_30" d="M35.3022 59.4682H35.9839V59.7106C36.1006 59.608 36.2313 59.5315 36.3721 59.4813C36.5128 59.4311 36.6415 59.418 36.7703 59.418C36.9231 59.418 37.0518 59.4573 37.1926 59.5206C37.3213 59.584 37.4399 59.6997 37.5445 59.8526C37.6028 59.7762 37.6732 59.7128 37.7436 59.6604C37.814 59.6102 37.8964 59.5577 37.9789 59.5206C38.0614 59.4813 38.1438 59.4573 38.2263 59.4442C38.3087 59.4311 38.3912 59.418 38.4736 59.418C38.6265 59.418 38.7672 59.4442 38.8959 59.4944C39.0247 59.5446 39.1312 59.6211 39.2237 59.7106C39.3183 59.8002 39.3887 59.9028 39.4349 60.0295C39.4812 60.1562 39.5174 60.2851 39.5174 60.4248V62.7334H38.8356V60.5537C38.8356 60.427 38.8235 60.3375 38.7894 60.2479C38.7652 60.1715 38.731 60.1081 38.6828 60.0557C38.6365 60.0055 38.5883 59.9793 38.542 59.9531C38.4957 59.94 38.4354 59.9269 38.3892 59.9269C38.3188 59.9269 38.2363 59.9531 38.1659 59.9902C38.0955 60.0295 38.0252 60.0928 37.9668 60.1562C37.9085 60.2326 37.8602 60.3091 37.814 60.4117C37.7778 60.5144 37.7557 60.6148 37.7557 60.7306V62.7203H37.0739V60.5406C37.0739 60.4139 37.0619 60.3244 37.0377 60.2348C37.0136 60.1584 36.9794 60.095 36.9311 60.0426C36.8949 59.9924 36.8487 59.9662 36.8024 59.94C36.7562 59.9269 36.7079 59.9138 36.6617 59.9138C36.5671 59.9138 36.4746 59.94 36.3922 59.9902C36.3097 60.0404 36.2393 60.1169 36.181 60.1933C36.1227 60.2698 36.0744 60.3724 36.0402 60.462C36.004 60.5646 35.994 60.6542 35.994 60.7415V62.705H35.3122V59.466H35.3002L35.3022 59.4682Z" fill="#076562"/>
<path id="Vector_31" d="M40.0322 59.4682H40.7139V59.7106C40.8306 59.608 40.9613 59.5315 41.102 59.4813C41.2428 59.4311 41.3715 59.418 41.5002 59.418C41.6531 59.418 41.7818 59.4573 41.9226 59.5206C42.0513 59.584 42.1699 59.6997 42.2745 59.8526C42.3328 59.7762 42.4032 59.7128 42.4736 59.6604C42.544 59.6102 42.6264 59.5577 42.7089 59.5206C42.7913 59.4813 42.8738 59.4573 42.9562 59.4442C43.0387 59.4311 43.1211 59.418 43.2036 59.418C43.3564 59.418 43.4972 59.4442 43.6259 59.4944C43.7546 59.5446 43.8612 59.6211 43.9537 59.7106C44.0482 59.8002 44.1186 59.9028 44.1649 60.0295C44.2111 60.1562 44.2473 60.2851 44.2473 60.4248V62.7334H43.5656V60.5537C43.5656 60.427 43.5535 60.3375 43.5193 60.2479C43.4952 60.1715 43.461 60.1081 43.4128 60.0557C43.3665 60.0055 43.3182 59.9793 43.272 59.9531C43.2257 59.94 43.1654 59.9269 43.1191 59.9269C43.0487 59.9269 42.9663 59.9531 42.8959 59.9902C42.8255 60.0295 42.7551 60.0928 42.6968 60.1562C42.6385 60.2326 42.5902 60.3091 42.544 60.4117C42.5078 60.5144 42.4857 60.6148 42.4857 60.7306V62.7203H41.8039V60.5406C41.8039 60.4139 41.7918 60.3244 41.7677 60.2348C41.7436 60.1584 41.7094 60.095 41.6611 60.0426C41.6249 59.9924 41.5787 59.9662 41.5324 59.94C41.4862 59.9269 41.4379 59.9138 41.3916 59.9138C41.2971 59.9138 41.2046 59.94 41.1222 59.9902C41.0397 60.0404 40.9693 60.1169 40.911 60.1933C40.8527 60.2698 40.8044 60.3724 40.7702 60.462C40.734 60.5646 40.724 60.6542 40.724 60.7415V62.705H40.0422V59.466H40.0302L40.0322 59.4682Z" fill="#076562"/>
<path id="Vector_32" d="M47.6059 61.0112C47.6059 60.7819 47.5817 60.5635 47.5113 60.3734C47.4409 60.1834 47.3464 60.0174 47.2298 59.8755C47.1011 59.7357 46.9603 59.6199 46.7833 59.5435C46.6064 59.467 46.4073 59.4277 46.1961 59.4277C45.9729 59.4277 45.7617 59.4802 45.5867 59.5675C45.4098 59.6571 45.2569 59.7706 45.1282 59.9257C44.9995 60.0786 44.907 60.2446 44.8346 60.4477C44.7642 60.6377 44.728 60.8561 44.728 61.0723C44.728 61.3017 44.7642 61.531 44.8346 61.7341C44.905 61.9372 44.9995 62.1163 45.1282 62.2823C45.2569 62.4483 45.4098 62.575 45.5867 62.6645C45.7738 62.7541 45.9729 62.8043 46.1961 62.8043C46.3489 62.8043 46.5018 62.7781 46.6546 62.7279C46.8075 62.6624 46.9482 62.599 47.0649 62.4964C47.1936 62.4068 47.3002 62.2801 47.3826 62.1404C47.4771 62.0006 47.5355 61.8346 47.5697 61.6555H46.9362C46.8075 62.0748 46.5601 62.2801 46.2202 62.2801C46.1136 62.2801 46.0191 62.2408 45.9266 62.1906C45.8341 62.1382 45.7637 62.0617 45.6913 61.9591C45.6209 61.8695 45.5626 61.756 45.5264 61.6271C45.4942 61.5048 45.4681 61.3803 45.458 61.2449H47.6059V61.0025V61.0112ZM46.9241 60.7819C46.9241 60.7819 46.9241 60.7731 46.9241 60.7688H45.4822C45.4942 60.6552 45.5184 60.5525 45.5526 60.4499C45.5888 60.3472 45.6471 60.2599 45.7054 60.1812C45.7758 60.1048 45.8462 60.0546 45.9266 60.0021C46.0091 59.9628 46.1036 59.9388 46.1981 59.9388C46.3027 59.9388 46.3972 59.965 46.4917 60.0021C46.5742 60.0415 46.6566 60.1048 46.715 60.1812C46.7853 60.2577 46.8316 60.3472 46.8678 60.4499C46.902 60.5482 46.912 60.6465 46.9261 60.7688V60.7819H46.9241Z" fill="#076562"/>
<path id="Vector_33" d="M48.0522 59.4684H48.6636L48.6998 59.7611C48.7823 59.6453 48.8768 59.558 48.9934 59.5056C49.1101 59.4422 49.2167 59.416 49.3454 59.416C49.3816 59.416 49.4278 59.4291 49.4861 59.4422C49.5445 59.4553 49.6028 59.4684 49.6631 59.4925V60.104C49.4761 60.0276 49.3574 59.9882 49.3232 59.9882C49.2287 59.9882 49.1463 60.0145 49.0759 60.0516C49.0055 60.0887 48.9351 60.1542 48.8888 60.2307C48.8426 60.3071 48.7943 60.3836 48.7722 60.4862C48.7481 60.5889 48.736 60.6784 48.736 60.792V62.7424H48.0543V59.4662L48.0522 59.4684Z" fill="#076562"/>
<path id="Vector_34" d="M51.996 60.5521C51.9377 60.3227 51.8673 60.1699 51.7607 60.0803C51.6662 59.9908 51.5374 59.9405 51.3846 59.9405C51.268 59.9405 51.1734 59.9667 51.0789 60.0301C50.9844 60.0934 50.914 60.1699 50.8557 60.2725C50.7974 60.3752 50.7491 60.4887 50.7149 60.6285C50.6787 60.7683 50.6687 60.9081 50.6687 61.05C50.6687 61.2029 50.6807 61.3558 50.7149 61.5087C50.7511 61.6616 50.7974 61.7883 50.8557 61.904C50.914 62.0198 50.9965 62.1071 51.0789 62.1836C51.1614 62.26 51.266 62.2862 51.3725 62.2862C51.455 62.2862 51.5254 62.26 51.5958 62.2229C51.6662 62.1836 51.7245 62.1333 51.7727 62.0569C51.819 61.9936 51.8673 61.904 51.9015 61.8145C51.9377 61.7249 51.9598 61.6223 51.9839 61.5218H52.6998C52.6757 61.7249 52.6295 61.904 52.5591 62.0569C52.4887 62.2098 52.3942 62.3496 52.2775 62.4653C52.1609 62.5811 52.0302 62.6575 51.8673 62.7209C51.7144 62.7842 51.5395 62.8104 51.3504 62.8104C51.1151 62.8104 50.904 62.7602 50.729 62.6575C50.554 62.5549 50.4113 62.4151 50.3067 62.2491C50.19 62.0831 50.1076 61.8931 50.0593 61.6878C50.0131 61.4847 49.9769 61.2663 49.9769 61.0631C49.9769 60.8338 50.0131 60.6176 50.0835 60.4254C50.1538 60.2223 50.2484 60.0563 50.365 59.9034C50.4816 59.7636 50.6345 59.6348 50.8115 59.5583C50.9884 59.4688 51.1755 59.4316 51.3866 59.4316C51.5736 59.4316 51.7506 59.4579 51.8914 59.5212C52.0442 59.5714 52.1729 59.661 52.2795 59.7636C52.3861 59.8663 52.4786 59.9798 52.549 60.1196C52.6194 60.2594 52.6656 60.4123 52.7018 60.5652H51.998V60.5521H51.996Z" fill="#076562"/>
<path id="Vector_35" d="M56 61.0112C56 60.7819 55.9758 60.5635 55.9054 60.3734C55.835 60.1834 55.7405 60.0174 55.6239 59.8755C55.4952 59.7357 55.3544 59.6199 55.1774 59.5435C55.0005 59.467 54.8014 59.4277 54.5902 59.4277C54.367 59.4277 54.1558 59.4802 53.9809 59.5675C53.8039 59.6571 53.651 59.7706 53.5223 59.9257C53.3936 60.0786 53.2991 60.2446 53.2287 60.4477C53.1583 60.6377 53.1221 60.8561 53.1221 61.0723C53.1221 61.3017 53.1583 61.531 53.2287 61.7341C53.2991 61.9372 53.3936 62.1163 53.5223 62.2823C53.651 62.4483 53.8039 62.575 53.9809 62.6645C54.1679 62.7541 54.367 62.8043 54.5902 62.8043C54.743 62.8043 54.8959 62.7781 55.0487 62.7279C55.2016 62.6624 55.3423 62.599 55.461 62.4964C55.5897 62.4068 55.6963 62.2801 55.7767 62.1404C55.8712 62.0006 55.9296 61.8346 55.9638 61.6555H55.3303C55.2016 62.0748 54.9542 62.2801 54.6143 62.2801C54.5078 62.2801 54.4152 62.2408 54.3207 62.1906C54.2262 62.1382 54.1558 62.0617 54.0854 61.9591C54.015 61.8695 53.9567 61.756 53.9225 61.6271C53.8883 61.5048 53.8642 61.3803 53.8521 61.2449H56V61.0025V61.0112ZM55.3182 60.7819C55.3182 60.7819 55.3182 60.7731 55.3182 60.7688H53.8763C53.8883 60.6552 53.9125 60.5525 53.9467 60.4499C53.9829 60.3472 54.0412 60.2599 54.0995 60.1812C54.1699 60.1048 54.2403 60.0546 54.3227 60.0021C54.4052 59.9628 54.4977 59.9388 54.5922 59.9388C54.6968 59.9388 54.7913 59.965 54.8858 60.0021C54.9683 60.0415 55.0507 60.1048 55.1091 60.1812C55.1794 60.2577 55.2257 60.3472 55.2619 60.4499C55.2961 60.5482 55.3082 60.6465 55.3202 60.7688V60.7819H55.3182Z" fill="#076562"/>
</g>
</g>
</svg>
