<svg width="94" height="64" viewBox="0 0 94 64" fill="none" xmlns="http://www.w3.org/2000/svg">
<g id="Group">
<path id="Vector" d="M3.02538 60.2095C3.08241 60.3025 3.11703 60.3025 3.15165 60.2095L4.90918 55.7218C4.93159 55.6617 4.96824 55.6289 5.01304 55.6289H5.33482C5.39184 55.6289 5.45091 55.7054 5.45091 55.7847V60.9338C5.45091 61.0267 5.39184 61.0896 5.33482 61.0896H5.01304C4.9438 61.0896 4.89697 61.0131 4.89697 60.9338V56.9244L3.35734 60.7807C3.18424 61.1962 2.80544 61.1962 2.64455 60.7807L1.37986 57.4327V60.9475C1.37986 61.0404 1.33506 61.1032 1.26378 61.1032H0.954219C0.895159 61.1032 0.838135 61.0267 0.838135 60.9475V55.7956C0.838135 55.7027 0.895159 55.6426 0.954219 55.6426H1.276C1.32284 55.6426 1.35745 55.6726 1.37986 55.7355L3.02335 60.2068L3.02538 60.2095Z" fill="#808080"/>
<path id="Vector_2" d="M6.86438 57.0332H7.18615C7.25539 57.0332 7.30019 57.1097 7.30019 57.189V60.936C7.30019 61.0289 7.25539 61.0918 7.18615 61.0918H6.86438C6.79513 61.0918 6.74829 61.0153 6.74829 60.936V57.189C6.74829 57.0961 6.80735 57.0332 6.86438 57.0332Z" fill="#808080"/>
<path id="Vector_3" d="M7.0252 55.6289C7.18609 55.6289 7.32457 55.8148 7.32457 56.0307C7.32457 56.2466 7.18609 56.4324 7.0252 56.4324C6.86432 56.4324 6.72583 56.2466 6.72583 56.0307C6.72583 55.8148 6.86432 55.6289 7.0252 55.6289Z" fill="#808080"/>
<path id="Vector_4" d="M12.701 57.0332H13.0228C13.0921 57.0332 13.1369 57.1097 13.1369 57.189V60.936C13.1369 61.0289 13.0798 61.0918 13.0228 61.0918H12.701C12.644 61.0918 12.585 61.0153 12.585 60.936V57.189C12.585 57.0961 12.644 57.0332 12.701 57.0332Z" fill="#808080"/>
<path id="Vector_5" d="M12.862 55.6289C13.0229 55.6289 13.1614 55.8148 13.1614 56.0307C13.1614 56.2466 13.0229 56.4324 12.862 56.4324C12.7011 56.4324 12.5626 56.2466 12.5626 56.0307C12.5626 55.8148 12.7011 55.6289 12.862 55.6289Z" fill="#808080"/>
<path id="Vector_6" d="M54.3809 57.0332H54.7026C54.7597 57.0332 54.8167 57.1097 54.8167 57.189V60.936C54.8167 61.0289 54.7597 61.0918 54.7026 61.0918H54.3809C54.3116 61.0918 54.2648 61.0153 54.2648 60.936V57.189C54.2648 57.0961 54.3238 57.0332 54.3809 57.0332Z" fill="#808080"/>
<path id="Vector_7" d="M54.5418 55.6289C54.7027 55.6289 54.8412 55.8148 54.8412 56.0307C54.8412 56.2466 54.7027 56.4324 54.5418 56.4324C54.3809 56.4324 54.2424 56.2466 54.2424 56.0307C54.2424 55.8148 54.3809 55.6289 54.5418 55.6289Z" fill="#808080"/>
<path id="Vector_8" d="M10.8274 58.6512C10.8274 57.6947 10.2286 57.3722 9.00059 57.3858V60.9169C9.00059 60.9962 8.94357 61.0727 8.88451 61.0727H8.56274C8.50368 61.0727 8.44666 60.9962 8.44666 60.9169V57.1699C8.44666 57.077 8.50368 57.0141 8.56274 57.0141C9.0454 57.0141 9.52806 56.9977 10.0107 57.0141C10.8722 57.0606 11.3772 57.7849 11.3772 58.9109V60.9306C11.3772 61.0099 11.3202 61.0864 11.2612 61.0864H10.9394C10.8803 61.0864 10.8233 61.0099 10.8233 60.9306V58.6485L10.8274 58.6512Z" fill="#808080"/>
<path id="Vector_9" d="M61.8387 58.6512C61.8387 57.6947 61.24 57.3722 60.012 57.3858V60.9169C60.012 60.9962 59.9549 61.0727 59.8959 61.0727H59.5741C59.515 61.0727 59.458 60.9962 59.458 60.9169V57.1699C59.458 57.077 59.515 57.0141 59.5741 57.0141C60.0568 57.0141 60.5394 56.9977 61.0221 57.0141C61.8835 57.0606 62.3886 57.7849 62.3886 58.9109V60.9306C62.3886 61.0099 62.3316 61.0864 62.2725 61.0864H61.9507C61.8917 61.0864 61.8347 61.0099 61.8347 60.9306V58.6485L61.8387 58.6512Z" fill="#808080"/>
<path id="Vector_10" d="M41.5345 59.4381C41.5345 60.3947 42.1332 60.7172 43.3613 60.7035V57.1724C43.3613 57.0931 43.4183 57.0166 43.4773 57.0166H43.7991C43.8582 57.0166 43.9152 57.0931 43.9152 57.1724V60.9194C43.9152 61.0123 43.8582 61.0752 43.7991 61.0752C43.3165 61.0752 42.8338 61.0916 42.3511 61.0752C41.4897 61.0287 40.9846 60.3045 40.9846 59.1784V57.1587C40.9846 57.0795 41.0416 57.0029 41.1007 57.0029H41.4225C41.4815 57.0029 41.5386 57.0795 41.5386 57.1587V59.4408L41.5345 59.4381Z" fill="#808080"/>
<path id="Vector_11" d="M17.045 59.1928V55.7847C17.045 55.6918 17.1021 55.6289 17.1611 55.6289H17.4829C17.5521 55.6289 17.599 55.7054 17.599 55.7847V56.9572C17.599 57.0036 17.6214 57.0337 17.658 57.0337H18.4625C18.4971 57.0337 18.5215 57.0638 18.5215 57.1102V57.3261C18.5215 57.3726 18.4991 57.4027 18.4625 57.4027H17.658C17.6234 57.4027 17.599 57.4327 17.599 57.4792V59.5618C17.599 60.1795 17.8637 60.5348 18.3932 60.6878C18.715 60.7807 18.8067 61.106 18.4156 61.0896C17.5644 61.0595 17.0471 60.3189 17.0471 59.1928" fill="#808080"/>
<path id="Vector_12" d="M51.8759 59.1928V55.7847C51.8759 55.6918 51.9329 55.6289 51.9919 55.6289H52.3137C52.3728 55.6289 52.4298 55.7054 52.4298 55.7847V56.9572C52.4298 57.0036 52.4522 57.0337 52.4889 57.0337H53.2933C53.3279 57.0337 53.3523 57.0638 53.3523 57.1102V57.3261C53.3523 57.3726 53.3299 57.4027 53.2933 57.4027H52.4889C52.4542 57.4027 52.4298 57.4327 52.4298 57.4792V59.5618C52.4298 60.1795 52.6945 60.5348 53.224 60.6878C53.5458 60.7807 53.6375 61.106 53.2464 61.0896C52.385 61.0595 51.8779 60.3189 51.8779 59.1928" fill="#808080"/>
<path id="Vector_13" d="M30.0768 57.5251V60.9332C30.0768 61.0125 30.1338 61.089 30.1929 61.089H30.5146C30.5737 61.089 30.6307 61.0125 30.6307 60.9332V58.591C30.6307 58.5445 30.6531 58.5117 30.6898 58.5117H31.4942C31.5288 58.5117 31.5533 58.4817 31.5533 58.4352V58.2193C31.5533 58.1728 31.5309 58.14 31.4942 58.14H30.6898C30.6551 58.14 30.6307 58.11 30.6307 58.0635V57.1698C30.6307 56.5521 30.8955 56.1968 31.425 56.0438C31.7467 55.9509 31.8384 55.6284 31.4474 55.642C30.5859 55.6584 30.0788 56.3963 30.0788 57.5224" fill="#808080"/>
<path id="Vector_14" d="M19.389 58.9138V60.9335C19.389 61.0128 19.4461 61.0893 19.5051 61.0893H19.8269C19.886 61.0893 19.943 61.0128 19.943 60.9335V58.5585C19.943 57.9408 20.2077 57.5855 20.7372 57.4325C21.059 57.3395 21.1506 57.017 20.7596 57.0307C19.8982 57.0608 19.3911 57.785 19.3911 58.911" fill="#808080"/>
<path id="Vector_15" d="M23.8368 61.1662C23.8368 61.1197 23.8144 61.0896 23.7798 61.0896C23.5619 61.0896 23.4234 61.0896 23.124 61.0732C22.2626 61.0268 21.7555 60.3025 21.7555 59.1765V57.154C21.7555 57.0775 21.8125 57.001 21.8716 57.001H22.1933C22.2524 57.001 22.3094 57.0775 22.3094 57.154V59.4225C22.3094 60.1167 22.6434 60.7316 23.0915 60.7316C23.3664 60.7316 23.8491 60.4392 23.8491 59.6684V57.154C23.8491 57.0775 23.9061 57.001 23.9651 57.001H24.2869C24.346 57.001 24.403 57.0775 24.403 57.154V61.6581C24.403 62.7841 23.8979 63.5248 23.0344 63.5549C22.6455 63.5713 22.7371 63.246 23.0568 63.1531C23.5863 63.0001 23.8511 62.5983 23.8613 61.9834L23.8389 61.1662H23.8368Z" fill="#808080"/>
<path id="Vector_16" d="M33.7649 55.6287H36.3961C36.4429 55.6287 36.4776 55.6752 36.4776 55.7353V56.0441C36.4776 56.1043 36.4429 56.1507 36.3961 56.1507H34.2007V57.9709H35.7648C35.8116 57.9709 35.8442 58.0174 35.8442 58.0775V58.3864C35.8442 58.4492 35.8096 58.4957 35.7648 58.4957H34.2007V60.5619H36.3961C36.4429 60.5619 36.4776 60.6084 36.4776 60.6712V60.9801C36.4776 61.0429 36.4429 61.0866 36.3961 61.0866H33.7649C33.6956 61.0866 33.6488 61.0101 33.6488 60.9336V55.7818C33.6488 55.7025 33.7079 55.626 33.7649 55.626" fill="#808080"/>
<path id="Vector_17" d="M28.7999 59.7471C28.7999 60.2555 28.4903 60.6873 28.0993 60.6873H27.6859C27.3071 60.6873 26.9853 60.2719 26.9853 59.7471V58.3724C26.9975 57.8504 27.3071 57.4322 27.6859 57.4322H28.0993C28.4781 57.4322 28.7999 57.8477 28.7999 58.3724V59.7471ZM28.25 57.0332H27.5596C26.9283 57.0332 26.411 57.7274 26.411 58.5747V59.5449C26.411 60.3949 26.9283 61.0863 27.5596 61.0863H28.25C28.8813 61.0863 29.3986 60.3921 29.3986 59.5449V58.5747C29.3986 57.7274 28.8813 57.0332 28.25 57.0332Z" fill="#808080"/>
<path id="Vector_18" d="M58.1384 59.7471C58.1384 60.2555 57.8268 60.6873 57.4378 60.6873H57.0244C56.6456 60.6873 56.3238 60.2719 56.3238 59.7471V58.3724C56.336 57.8504 56.6456 57.4322 57.0244 57.4322H57.4378C57.8166 57.4322 58.1384 57.8477 58.1384 58.3724V59.7471ZM57.5763 57.0332H56.8859C56.2546 57.0332 55.7373 57.7274 55.7373 58.5747V59.5449C55.7373 60.3949 56.2546 61.0863 56.8859 61.0863H57.5763C58.2076 61.0863 58.7249 60.3921 58.7249 59.5449V58.5747C58.7249 57.7274 58.2076 57.0332 57.5763 57.0332Z" fill="#808080"/>
<path id="Vector_19" d="M39.396 60.6576C39.396 60.704 39.3736 60.7341 39.337 60.7341H38.3024C37.8421 60.7341 37.4633 60.2257 37.4633 59.6081V58.5285C37.4633 57.9108 37.8421 57.4025 38.3024 57.4025H39.337C39.3716 57.4025 39.396 57.4325 39.396 57.4817V60.6576ZM39.8318 55.6287H39.5101C39.453 55.6287 39.396 55.7052 39.396 55.7845V56.957C39.396 57.0034 39.3736 57.0335 39.337 57.0335H38.0499C37.4165 57.0335 36.9012 57.7277 36.9012 58.575V59.5452C36.9012 60.3952 37.4185 61.0866 38.0499 61.0866H39.8298C39.899 61.0866 39.9459 61.0101 39.9459 60.9336V55.7818C39.9459 55.6888 39.8868 55.626 39.8298 55.626" fill="#808080"/>
<path id="Vector_20" d="M50.371 59.7778C50.371 60.1467 50.1877 60.8109 49.2794 60.718C48.8192 60.6715 48.4404 60.2096 48.4404 59.5919V58.5124C48.4404 57.8947 48.8192 57.3864 49.2794 57.3864H50.314C50.3486 57.3864 50.371 57.4164 50.371 57.4656V59.7778ZM50.7967 57.0338H49.0269C48.3935 57.0338 47.8783 57.728 47.8783 58.5752V59.5455C47.8783 60.3955 48.3956 61.0869 49.0269 61.0869C49.589 61.0869 50.2794 60.9803 50.3608 60.994C50.4179 61.0104 50.4403 61.0869 50.5339 61.0869H50.7987C50.8679 61.0869 50.9148 61.0104 50.9148 60.9311V57.1841C50.9148 57.0912 50.8557 57.0283 50.7987 57.0283" fill="#808080"/>
<path id="Vector_21" d="M45.7846 61.0893C45.1533 61.0893 44.636 60.3951 44.636 59.5478V58.5776C44.636 57.7276 45.1533 57.0361 45.7846 57.0361H47.2896C47.3018 57.0361 47.312 57.0525 47.312 57.0662V57.3586C47.312 57.375 47.2998 57.3887 47.2896 57.3887H46.0269C45.5667 57.3887 45.1879 57.8971 45.1879 58.5147V59.5943C45.1879 60.212 45.5667 60.7203 46.0269 60.7203H47.2896C47.3018 60.7203 47.312 60.7367 47.312 60.7504V61.0428C47.312 61.0592 47.2998 61.0729 47.2896 61.0729L45.7846 61.0893Z" fill="#808080"/>
<path id="Vector_22" d="M15.7701 57.34C16.045 57.34 16.045 56.8316 15.7823 56.7988C15.0125 56.6922 14.2997 56.9218 14.1164 57.739C13.98 58.3567 14.2549 58.9115 14.9209 59.081C15.7945 59.2969 16.1265 59.8681 15.7599 60.3928C15.5644 60.6552 14.9779 60.5623 14.5543 60.5951C14.094 60.6251 14.1511 61.087 14.5543 61.087C15.2447 61.1034 16.0125 61.2264 16.2894 60.6087C16.5766 59.9637 16.3342 59.0673 15.7945 58.9142C15.0695 58.712 14.6215 58.4988 14.7131 57.9413C14.7926 57.3864 15.151 57.3564 15.7701 57.34Z" fill="#808080"/>
<path id="Vector_23" d="M62.4824 25.7256C62.9426 25.7256 63.3092 26.2175 63.3092 26.8352C63.3092 27.4529 62.9426 27.9476 62.4824 27.9476C62.0221 27.9476 61.6555 27.4556 61.6555 26.8352C61.6677 26.2175 62.0343 25.7256 62.4824 25.7256Z" fill="#0D7762"/>
<path id="Vector_24" d="M62.4823 16.1797C62.9771 16.1797 63.3783 16.7208 63.3783 17.3822C63.3783 18.0436 62.9751 18.5848 62.4823 18.5848C61.9894 18.5848 61.5862 18.0436 61.5862 17.3822C61.5862 16.7208 61.9894 16.1797 62.4823 16.1797Z" fill="#0D7762"/>
<path id="Vector_25" d="M66.5961 20.7139C67.091 20.7139 67.4922 21.255 67.4922 21.9164C67.4922 22.5778 67.089 23.119 66.5961 23.119C66.1033 23.119 65.7001 22.5778 65.7001 21.9164C65.7001 21.255 66.1033 20.7139 66.5961 20.7139Z" fill="#0D7768"/>
<path id="Vector_26" d="M58.5538 20.9131C59.0487 20.9131 59.4499 21.4542 59.4499 22.1156C59.4499 22.777 59.0467 23.3182 58.5538 23.3182C58.061 23.3182 57.6577 22.777 57.6577 22.1156C57.6455 21.4515 58.0487 20.9131 58.5538 20.9131Z" fill="#0D7768"/>
<path id="Vector_27" d="M50.2549 22.5938C50.7152 22.5938 51.0818 23.0857 51.0818 23.7034C51.0818 24.3211 50.7152 24.8157 50.2549 24.8157C49.7947 24.8157 49.4281 24.3211 49.4281 23.7034C49.4281 23.0857 49.7947 22.5938 50.2549 22.5938Z" fill="#02746C"/>
<path id="Vector_28" d="M74.7667 22.458C75.2269 22.458 75.5935 22.95 75.5935 23.5676C75.5935 24.1853 75.2269 24.68 74.7667 24.68C74.3064 24.68 73.9398 24.1853 73.9398 23.5676C73.9398 22.95 74.3186 22.458 74.7667 22.458Z" fill="#02746C"/>
<path id="Vector_29" d="M66.8038 11.8613C67.3435 11.8613 67.7691 12.4462 67.7691 13.1568C67.7691 13.8674 67.3313 14.4523 66.8038 14.4523C66.2764 14.4523 65.8385 13.8647 65.8385 13.1568C65.8385 12.4489 66.2641 11.8613 66.8038 11.8613Z" fill="#02746C"/>
<path id="Vector_30" d="M58.3237 12.001C58.8634 12.001 59.289 12.5859 59.289 13.2965C59.289 14.007 58.8512 14.5919 58.3237 14.5919C57.7963 14.5919 57.3584 14.0043 57.3584 13.2965C57.3584 12.5886 57.7963 12.001 58.3237 12.001Z" fill="#02746C"/>
<path id="Vector_31" d="M54.1061 16.8438C54.6457 16.8438 55.0714 17.4286 55.0714 18.1392C55.0714 18.8498 54.6335 19.4347 54.1061 19.4347C53.5786 19.4347 53.1407 18.8471 53.1407 18.1392C53.1407 17.4314 53.5786 16.8438 54.1061 16.8438Z" fill="#02746C"/>
<path id="Vector_32" d="M71.0215 16.6279C71.5958 16.6279 72.0561 17.2456 72.0561 18.0163C72.0561 18.7871 71.5958 19.4047 71.0215 19.4047C70.4472 19.4047 69.9869 18.7871 69.9869 18.0163C69.9869 17.2456 70.4574 16.6279 71.0215 16.6279Z" fill="#02746C"/>
<path id="Vector_33" d="M71.331 8.05176C71.9624 8.05176 72.4695 8.72956 72.4695 9.57954C72.4695 10.4295 71.9644 11.1073 71.331 11.1073C70.6977 11.1073 70.1926 10.4295 70.1926 9.57954C70.1926 8.72956 70.6977 8.05176 71.331 8.05176Z" fill="#028075"/>
<path id="Vector_34" d="M76.1353 5.1084C76.9173 5.1084 77.5486 5.95565 77.5486 7.00515C77.5486 8.05464 76.9173 8.9019 76.1353 8.9019C75.3533 8.9019 74.7219 8.05464 74.7219 7.00515C74.7219 5.95565 75.3533 5.1084 76.1353 5.1084Z" fill="#038077"/>
<path id="Vector_35" d="M81.1227 3.02539C82.031 3.02539 82.7662 4.01203 82.7662 5.23098C82.7662 6.44992 82.029 7.43656 81.1227 7.43656C80.2165 7.43656 79.4792 6.44719 79.4792 5.23098C79.4792 4.01476 80.2144 3.02539 81.1227 3.02539Z" fill="#0D8074"/>
<path id="Vector_36" d="M86.2242 1.60645C87.1773 1.60645 87.937 2.63954 87.937 3.90496C87.937 5.17037 87.1672 6.20346 86.2242 6.20346C85.2813 6.20346 84.5013 5.17037 84.5013 3.90496C84.5013 2.63954 85.2711 1.60645 86.2242 1.60645Z" fill="#2C8080"/>
<path id="Vector_37" d="M91.4073 0.664062C92.4643 0.664062 93.3257 1.82015 93.3257 3.23861C93.3257 4.65707 92.4643 5.81316 91.4073 5.81316C90.3503 5.81316 89.4889 4.65707 89.4889 3.23861C89.4889 1.82015 90.3503 0.664062 91.4073 0.664062Z" fill="#2E8080"/>
<path id="Vector_38" d="M75.8134 13.4492C76.4448 13.4492 76.9519 14.127 76.9519 14.977C76.9519 15.827 76.4468 16.5048 75.8134 16.5048C75.1801 16.5048 74.675 15.827 74.675 14.977C74.6628 14.1462 75.1801 13.4492 75.8134 13.4492Z" fill="#028075"/>
<path id="Vector_39" d="M80.8112 10.9814C81.5932 10.9814 82.2245 11.8287 82.2245 12.8782C82.2245 13.9277 81.5932 14.7749 80.8112 14.7749C80.0292 14.7749 79.3978 13.9277 79.3978 12.8782C79.3978 11.8287 80.0292 10.9814 80.8112 10.9814Z" fill="#038077"/>
<path id="Vector_40" d="M86.0756 9.41016C86.9839 9.41016 87.7191 10.3968 87.7191 11.6157C87.7191 12.8347 86.9839 13.8213 86.0756 13.8213C85.1673 13.8213 84.4321 12.832 84.4321 11.6157C84.4321 10.3995 85.1694 9.41016 86.0756 9.41016Z" fill="#0D8074"/>
<path id="Vector_41" d="M91.6151 9.16406C92.5682 9.16406 93.3279 10.1972 93.3279 11.4626C93.3279 12.728 92.558 13.7747 91.6151 13.7747C90.6722 13.7747 89.8922 12.7416 89.8922 11.4626C89.8922 10.1835 90.662 9.16406 91.6151 9.16406Z" fill="#2C8080"/>
<path id="Vector_42" d="M80.135 19.126C80.7663 19.126 81.2734 19.8038 81.2734 20.6538C81.2734 21.5037 80.7684 22.1815 80.135 22.1815C79.5016 22.1815 78.9966 21.5037 78.9966 20.6538C78.9966 19.8038 79.5016 19.126 80.135 19.126Z" fill="#028075"/>
<path id="Vector_43" d="M86.0756 17.2295C86.8576 17.2295 87.489 18.0767 87.489 19.1262C87.489 20.1757 86.8576 21.023 86.0756 21.023C85.2936 21.023 84.6622 20.1757 84.6622 19.1262C84.6622 18.0767 85.2936 17.2295 86.0756 17.2295Z" fill="#038077"/>
<path id="Vector_44" d="M91.7637 17.0273C92.6149 17.0273 93.3033 17.9539 93.3033 19.0935C93.3033 20.2332 92.6129 21.1597 91.7637 21.1597C90.9144 21.1597 90.224 20.2332 90.224 19.0935C90.2118 17.9511 90.9144 17.0273 91.7637 17.0273Z" fill="#0D8074"/>
<path id="Vector_45" d="M53.772 8.25391C54.4033 8.25391 54.9104 8.93171 54.9104 9.78169C54.9104 10.6317 54.4053 11.3095 53.772 11.3095C53.1386 11.3095 52.6335 10.6317 52.6335 9.78169C52.6335 8.93171 53.1386 8.25391 53.772 8.25391Z" fill="#028075"/>
<path id="Vector_46" d="M49.0371 5.38379C49.8191 5.38379 50.4504 6.23104 50.4504 7.28054C50.4504 8.33004 49.8191 9.17729 49.0371 9.17729C48.255 9.17729 47.6237 8.33004 47.6237 7.28054C47.6115 6.23104 48.255 5.38379 49.0371 5.38379Z" fill="#0D8074"/>
<path id="Vector_47" d="M44.015 3.28809C44.9232 3.28809 45.6584 4.27472 45.6584 5.49367C45.6584 6.71262 44.9212 7.69926 44.015 7.69926C43.1087 7.69926 42.3715 6.70989 42.3715 5.49367C42.3715 4.27746 43.1067 3.28809 44.015 3.28809Z" fill="#0D8074"/>
<path id="Vector_48" d="M38.9255 1.94629C39.8786 1.94629 40.6383 2.97939 40.6383 4.25846C40.6383 5.53754 39.8685 6.55697 38.9255 6.55697C37.9826 6.55697 37.2026 5.52387 37.2026 4.25846C37.2026 2.99305 37.9724 1.94629 38.9255 1.94629Z" fill="#2C8080"/>
<path id="Vector_49" d="M33.7549 0.664062C34.8118 0.664062 35.6733 1.82015 35.6733 3.23861C35.6733 4.65707 34.8118 5.81316 33.7549 5.81316C32.6979 5.81316 31.8364 4.65707 31.8364 3.23861C31.8364 1.82015 32.6979 0.664062 33.7549 0.664062Z" fill="#2E8080"/>
<path id="Vector_50" d="M49.314 13.6514C49.9453 13.6514 50.4524 14.3292 50.4524 15.1792C50.4524 16.0291 49.9473 16.7069 49.314 16.7069C48.6806 16.7069 48.1755 16.0291 48.1755 15.1792C48.1755 14.3292 48.6806 13.6514 49.314 13.6514Z" fill="#028075"/>
<path id="Vector_51" d="M44.2694 11.1973C45.0515 11.1973 45.6828 12.0445 45.6828 13.094C45.6828 14.1435 45.0515 14.9908 44.2694 14.9908C43.4874 14.9908 42.8561 14.1435 42.8561 13.094C42.8561 12.0445 43.4874 11.1973 44.2694 11.1973Z" fill="#0D8074"/>
<path id="Vector_52" d="M38.9257 9.60938C39.834 9.60938 40.5692 10.596 40.5692 11.815C40.5692 13.0339 39.832 14.0205 38.9257 14.0205C38.0194 14.0205 37.2822 13.0312 37.2822 11.815C37.2822 10.5987 38.0174 9.60938 38.9257 9.60938Z" fill="#0D8074"/>
<path id="Vector_53" d="M33.5471 9.36328C34.5002 9.36328 35.27 10.3964 35.27 11.6618C35.27 12.9272 34.5002 13.974 33.5471 13.974C32.594 13.974 31.8344 12.9409 31.8344 11.6618C31.8344 10.3827 32.5919 9.36328 33.5471 9.36328Z" fill="#2C8080"/>
<path id="Vector_54" d="M45.0149 19.3252C45.6462 19.3252 46.1533 20.003 46.1533 20.853C46.1533 21.703 45.6483 22.3808 45.0149 22.3808C44.3815 22.3808 43.8765 21.703 43.8765 20.853C43.8765 20.003 44.3815 19.3252 45.0149 19.3252Z" fill="#028075"/>
<path id="Vector_55" d="M39.2229 17.4453C40.005 17.4453 40.6363 18.2926 40.6363 19.3421C40.6363 20.3916 40.005 21.2388 39.2229 21.2388C38.4409 21.2388 37.8096 20.3916 37.8096 19.3421C37.8096 18.2926 38.4409 17.4453 39.2229 17.4453Z" fill="#0D8074"/>
<path id="Vector_56" d="M33.2946 17.2432C34.1459 17.2432 34.8343 18.1697 34.8343 19.3094C34.8343 20.4491 34.1439 21.3756 33.2946 21.3756C32.4454 21.3756 31.755 20.4491 31.755 19.3094C31.755 18.1697 32.4454 17.2432 33.2946 17.2432Z" fill="#0D8074"/>
<path id="Vector_57" d="M9.04742 49.0117C9.30199 49.0117 9.50767 49.2878 9.50767 49.6294C9.50767 49.971 9.30199 50.2471 9.04742 50.2471C8.79285 50.2471 8.58716 49.971 8.58716 49.6294C8.58716 49.2878 8.79285 49.0117 9.04742 49.0117Z" fill="#028075"/>
<path id="Vector_58" d="M31.985 39.3125C32.2396 39.3125 32.4453 39.5885 32.4453 39.9302C32.4453 40.2718 32.2396 40.5478 31.985 40.5478C31.7305 40.5478 31.5248 40.2718 31.5248 39.9302C31.5248 39.5885 31.7305 39.3125 31.985 39.3125Z" fill="#028075"/>
<path id="Vector_59" d="M10.5973 49.0117C10.3326 49.0117 10.1269 49.2905 10.1371 49.6294C10.1371 49.971 10.3448 50.2471 10.5973 50.2471C10.8499 50.2471 11.0576 49.971 11.0576 49.6294C11.0576 49.2878 10.8499 49.0117 10.5973 49.0117Z" fill="#028075"/>
<path id="Vector_60" d="M46.0962 39.3125C46.3508 39.3125 46.5565 39.5885 46.5565 39.9302C46.5565 40.2718 46.3508 40.5478 46.0962 40.5478C45.8417 40.5478 45.636 40.2718 45.636 39.9302C45.636 39.5885 45.8417 39.3125 46.0962 39.3125Z" fill="#028075"/>
<path id="Vector_61" d="M33.5349 40.5478C33.7875 40.5478 33.9952 40.2691 33.9952 39.9302C33.9952 39.5913 33.7875 39.3125 33.5349 39.3125C33.2824 39.3125 33.0645 39.5885 33.0747 39.9302C33.0747 40.2691 33.2824 40.5478 33.5349 40.5478Z" fill="#028075"/>
<path id="Vector_62" d="M44.5567 40.5478C44.8092 40.5478 45.0169 40.2691 45.0169 39.9302C45.0169 39.5913 44.8092 39.3125 44.5567 39.3125C44.3041 39.3125 44.0862 39.5885 44.0964 39.9302C44.0964 40.2691 44.3041 40.5478 44.5567 40.5478Z" fill="#028075"/>
<path id="Vector_63" d="M55.5886 42.1963H54.8412C54.7943 42.1963 54.7617 42.2428 54.7495 42.3029V47.7472C54.7495 49.5646 54.1162 49.6275 53.8636 49.7505C53.5317 49.9063 53.6111 50.4146 54.0021 50.3354C54.5764 50.2288 55.668 49.674 55.668 47.2224V42.3029C55.668 42.2428 55.6334 42.1963 55.5886 42.1963Z" fill="#028075"/>
<path id="Vector_64" d="M55.2322 39.3125C55.4868 39.3125 55.6925 39.5885 55.6925 39.9302C55.6925 40.2718 55.4868 40.5478 55.2322 40.5478C54.9777 40.5478 54.772 40.2718 54.772 39.9302C54.772 39.5885 54.9777 39.3125 55.2322 39.3125Z" fill="#028075"/>
<path id="Vector_65" d="M61.4721 46.3449C61.4721 46.4077 61.4252 46.4679 61.3804 46.4679H57.9896C57.9448 46.4679 57.898 46.4077 57.898 46.3449V44.757C57.898 44.0464 58.2645 43.1991 59.2991 43.1991H61.3804C61.4252 43.1991 61.4721 43.262 61.4721 43.3221V46.3449ZM62.2989 42.166H59.6453C58.014 42.166 56.9673 42.9203 56.9795 45.0521V47.3342C56.9795 47.3944 57.0141 47.4408 57.0589 47.4408H61.3927C61.4375 47.4709 61.4843 47.5174 61.4843 47.5802V48.9686C61.4721 49.3075 61.1157 49.5863 60.91 49.8159C60.7267 50.0318 60.7267 50.1848 61.1157 50.1411C61.6106 50.0782 62.3926 49.2611 62.3804 48.5067V42.2753C62.3804 42.2152 62.3458 42.1688 62.301 42.1688" fill="#028075"/>
<path id="Vector_66" d="M53.0246 39.2959H52.2772C52.2303 39.2959 52.1978 39.3588 52.1978 39.4189V47.3776C52.1978 47.4377 52.2324 47.4842 52.2772 47.4842H53.0246C53.0714 47.4842 53.104 47.4377 53.104 47.3776V39.4052C53.104 39.3451 53.0694 39.2986 53.0246 39.2986" fill="#028075"/>
<path id="Vector_67" d="M38.9481 39.2959H38.2006C38.166 39.2959 38.1212 39.3588 38.1212 39.4189V47.3776C38.1212 47.4377 38.1558 47.4842 38.2006 47.4842H38.9481C38.9929 47.4842 39.0275 47.4377 39.0275 47.3776V39.4052C39.0275 39.3451 38.9929 39.2986 38.9481 39.2986" fill="#028075"/>
<path id="Vector_68" d="M50.5665 42.1963H49.8191C49.7722 42.1963 49.7397 42.2428 49.7274 42.3029V47.7472C49.7274 49.5646 49.0941 49.6275 48.8415 49.7505C48.5096 49.9063 48.589 50.4146 48.98 50.3354C49.5543 50.2288 50.6459 49.674 50.6459 47.2224V42.3029C50.6459 42.2428 50.6113 42.1963 50.5665 42.1963Z" fill="#028075"/>
<path id="Vector_69" d="M46.913 46.3451C46.913 46.4052 46.8661 46.4681 46.8213 46.4681H43.4305C43.3857 46.4681 43.3388 46.4052 43.3388 46.3451V44.7572C43.3388 44.0493 43.7054 43.1993 44.742 43.1993H46.8213C46.8661 43.1993 46.913 43.2622 46.913 43.3223V46.3451ZM47.75 42.1963H45.0964C43.4651 42.1963 42.4183 42.9506 42.4305 45.0824V47.3645C42.4305 47.4246 42.4651 47.4711 42.51 47.4711H47.75C47.7948 47.4711 47.8294 47.4246 47.8294 47.3645V42.3056C47.8294 42.2455 47.7948 42.199 47.75 42.199" fill="#028075"/>
<path id="Vector_70" d="M6.63398 46.1283C6.63398 46.1912 6.59935 46.2541 6.54029 46.2541H2.53035C2.48351 46.2541 2.43666 46.1912 2.43666 46.1283V43.3215C2.43666 43.2614 2.48351 43.1985 2.53035 43.1985H5.2308C6.26536 43.1985 6.63398 44.0485 6.63398 44.7564V46.1283ZM36.5121 39.282H35.7769C35.73 39.282 35.6975 39.3285 35.6975 39.3886V46.142C35.6975 46.2049 35.6628 46.2513 35.616 46.2513H33.3066C33.2597 46.2513 33.2271 46.2049 33.2271 46.142V42.272C33.2271 42.2091 33.1925 42.1627 33.1457 42.1627H32.3983C32.3534 42.1627 32.3188 42.2091 32.3188 42.272V46.142C32.3188 46.2049 32.2842 46.2513 32.2394 46.2513H22.7939C22.7471 46.2513 22.7023 46.1885 22.7023 46.1256V44.7536C22.7023 44.0458 23.0689 43.1794 24.1034 43.1794H27.9301C27.9769 43.1794 28.0095 43.1329 28.0095 43.0728V42.2857C28.0095 42.2255 27.9749 42.1791 27.9301 42.1791H24.4496C22.8184 42.1791 21.7716 42.9361 21.7838 45.0652V46.1283C21.7838 46.1912 21.7492 46.2377 21.7023 46.2377H14.0266C13.9798 46.2377 13.9472 46.1912 13.9472 46.1283V39.3585C13.9472 39.2984 13.9126 39.252 13.8678 39.252H13.1204C13.0756 39.252 13.0409 39.2984 13.0409 39.3585V46.1447C13.0409 46.2076 13.0063 46.2541 12.9615 46.2541H10.3751C10.3303 46.2541 10.2957 46.2076 10.2957 46.1447V42.3513C10.2957 42.2884 10.2611 42.2447 10.2163 42.2447H9.46884C9.422 42.2447 9.38941 42.2911 9.38941 42.3513V46.1447C9.38941 46.2076 9.3548 46.2541 9.30795 46.2541H7.62984C7.58504 46.2541 7.55042 46.2076 7.55042 46.1447V45.0816C7.56264 42.9525 6.51586 42.1982 4.88459 42.1982H1.60983C1.56502 42.1982 1.5304 42.2447 1.5304 42.3048V48.968H1.54262C1.5304 49.3096 1.17604 49.5857 0.968316 49.818C0.785028 50.0339 0.785025 50.187 1.17604 50.1405C1.67092 50.0804 2.45092 49.2604 2.44074 48.5061V47.4566H36.5243C36.5711 47.4566 36.6037 47.4102 36.6037 47.35V39.3913C36.6037 39.3312 36.5691 39.2847 36.5243 39.2847" fill="#028075"/>
</g>
</svg>
