<svg width="181" height="65" viewBox="0 0 181 65" fill="none" xmlns="http://www.w3.org/2000/svg">
<g id="Frame">
<g id="Group 1000004852">
<path id="Vector" d="M0.227257 38.9697H2.35828L5.41063 43.5187L5.50051 43.7371L5.54546 43.5187L8.62028 38.9697H9.76631V47.642H8.53039V40.8315L8.41803 41.1646L5.83758 44.8919H5.1185L2.56052 41.1646L2.44817 40.8981V47.642H1.21599V39.8359L0.227257 39.5694V38.9697Z" fill="#025F53"/>
<path id="Vector_2" d="M13.3805 39.7035L12.3693 40.3253L11.7626 39.3037L12.7963 38.7041L13.3805 39.7035ZM13.1783 41.6097V47.6429H12.0098V42.3647L11.2682 42.1649V41.6319H13.1745V41.6097H13.1783Z" fill="#025F53"/>
<path id="Vector_3" d="M20.8746 43.5599V47.6425H19.706V43.8486C19.706 42.9603 19.324 42.5161 18.5151 42.4717C17.9083 42.4273 17.2117 42.7826 16.4065 43.4933V47.6425H15.238V42.3644L14.4965 42.1423V41.6093H16.2904L16.3803 42.6309C17.2342 41.8314 18.0844 41.4316 18.9383 41.4316C20.0618 41.4538 20.8671 42.1867 20.8671 43.5599" fill="#025F53"/>
<path id="Vector_4" d="M24.2416 39.7035L23.2304 40.3253L22.6237 39.3037L23.6574 38.7041L24.2416 39.7035ZM24.0394 41.6097V47.6429H22.8709V42.3647L22.1293 42.1649V41.6319H24.0356V41.6097H24.0394Z" fill="#025F53"/>
<path id="Vector_5" d="M28.3238 47.7534C27.38 47.8867 26.3051 47.7312 25.3838 47.3537L25.6085 46.4876C27.0692 46.9984 28.8406 47.1538 28.8856 46.0434C28.8856 45.7991 28.7957 45.5993 28.4362 45.4216C28.2564 45.3328 28.0991 45.2439 27.9867 45.1995C27.8519 45.1551 27.6272 45.0663 27.3126 44.9552C26.0767 44.5111 25.4288 44.0669 25.4737 43.1601C25.5186 41.2983 28.2115 41.1872 29.762 41.872L29.5373 42.7381C28.3238 42.2273 26.5748 42.2495 26.5973 43.1379C26.5973 43.4488 26.777 43.6264 27.1141 43.7819C27.3613 43.9151 27.4512 43.9373 27.8107 44.0484C27.9905 44.115 28.1028 44.1594 28.1927 44.2038C29.4062 44.648 30.0541 45.0922 30.0092 46.0656C29.9417 46.9984 29.2451 47.6202 28.3276 47.7497" fill="#025F53"/>
<path id="Vector_6" d="M34.5858 47.5541C33.5746 47.8872 32.8368 47.8872 32.3425 47.5097C31.8481 47.1544 31.5784 46.6214 31.5784 45.8922V42.4759H30.5448V41.9429L31.5784 41.5209V40.1699H32.7694V41.6134H34.0503V42.5018H32.7694V45.7627C32.7694 46.6732 33.1739 47.0507 34.3836 46.6732L34.5858 47.5615V47.5541Z" fill="#025F53"/>
<path id="Vector_7" d="M37.009 42.6081C37.8854 41.6976 38.4884 41.2756 39.4322 41.4977L39.3198 42.5193C38.4884 42.3638 37.9266 42.7636 37.054 43.6741V47.6456H35.863V42.3675L35.1214 42.1454V41.6125H36.9154L37.0053 42.6118L37.009 42.6081Z" fill="#025F53"/>
<path id="Vector_8" d="M45.0012 41.6094H46.2109L42.7541 50.2816H41.5219L42.8215 47.1762H42.3496L39.9714 41.6094H41.1624L43.1586 46.3101L45.0012 41.6094Z" fill="#025F53"/>
<path id="Vector_9" d="M52.9897 46.843C53.5515 46.843 54.0009 46.6431 54.3567 46.2434C54.7162 45.8436 54.8735 45.2884 54.8735 44.6037C54.8735 43.9189 54.6938 43.3822 54.3567 42.9862C53.9972 42.5865 53.5477 42.3866 52.9897 42.3866C52.4317 42.3866 51.956 42.5865 51.6227 42.9862C51.2632 43.3859 51.1059 43.9189 51.1059 44.6037C51.1059 45.2884 51.2856 45.8473 51.6227 46.2434C51.9822 46.6431 52.4317 46.843 52.9897 46.843ZM52.9897 47.7757C52.0684 47.7757 51.3493 47.4648 50.7688 46.8874C50.1845 46.2878 49.8924 45.5364 49.8924 44.6037C49.8924 43.6709 50.1845 42.9196 50.7688 42.32C51.353 41.7203 52.0721 41.4316 52.9897 41.4316C53.9073 41.4316 54.6488 41.7203 55.2106 42.32C55.7949 42.9196 56.087 43.6709 56.087 44.6037C56.087 45.5364 55.7949 46.31 55.2106 46.8874C54.6488 47.487 53.911 47.7757 52.9897 47.7757Z" fill="#025F53"/>
<path id="Vector_10" d="M60.8884 39.1702C59.409 38.7926 58.9371 39.2146 58.9371 40.1029V41.6093H60.4614V42.4977H58.9371V47.6203H57.7686V42.4977H56.8248V41.6093H57.7686V40.1214C57.7686 39.3441 58.0158 38.7445 58.5551 38.3707C59.0719 37.9931 59.9221 37.9709 61.1356 38.2818L60.8884 39.1702Z" fill="#025F53"/>
<path id="Vector_11" d="M70.9443 39.9691H66.8807V43.1412H70.1803V44.1368H66.8807V47.642H65.6486V39.8581L64.6374 39.5694V38.9697H70.9443V39.9691Z" fill="#025F53"/>
<path id="Vector_12" d="M73.9967 39.7035L72.9855 40.3253L72.3788 39.3037L73.4125 38.7041L73.9967 39.7035ZM73.7945 41.6097V47.6429H72.626V42.3647L71.8844 42.1649V41.6319H73.7907V41.6097H73.7945Z" fill="#025F53"/>
<path id="Vector_13" d="M81.5133 43.5599V47.6425H80.3448V43.8486C80.3448 42.9603 79.9628 42.5161 79.1538 42.4717C78.5471 42.4273 77.8505 42.7826 77.0453 43.4933V47.6425H75.8767V42.3644L75.1352 42.1423V41.6093H76.9292L77.019 42.6309C77.8729 41.8314 78.7231 41.4316 79.577 41.4316C80.7006 41.4538 81.5058 42.1867 81.5058 43.5599" fill="#025F53"/>
<path id="Vector_14" d="M86.7416 46.003L86.7641 44.7815C85.1724 44.6927 84.4982 44.7371 84.1387 45.2257C83.7567 45.6699 83.8241 46.7988 84.8128 46.9098C85.3521 46.9542 86.0038 46.6433 86.7416 45.9993M83.1537 47.1319C82.8391 46.7321 82.7043 46.2658 82.7492 45.7994C82.7941 45.333 82.929 44.9555 83.1762 44.689C83.4908 44.3337 83.8952 44.1116 84.4345 44.0228C84.9739 43.9561 85.7604 43.9339 86.7678 43.9783V43.2899C86.7678 42.3349 85.7791 42.1351 83.7829 42.6903L83.5582 41.8242C84.5469 41.491 85.487 41.38 86.4083 41.4688C87.3296 41.5577 87.9139 42.1351 87.9139 43.1085L87.8914 46.8802L88.6554 47.0801V47.6131H86.8614L86.794 46.7025C86.0075 47.4354 85.3783 47.8351 84.5282 47.7907C83.9215 47.7685 83.472 47.5464 83.1574 47.1245" fill="#025F53"/>
<path id="Vector_15" d="M95.7413 43.5599V47.6425H94.5728V43.8486C94.5728 42.9603 94.1908 42.5161 93.3819 42.4717C92.7751 42.4273 92.0785 42.7826 91.2733 43.4933V47.6425H90.1048V42.3644L89.3633 42.1423V41.6093H91.1572L91.2471 42.6309C92.101 41.8314 92.9512 41.4316 93.8051 41.4316C94.9286 41.4538 95.7339 42.1867 95.7339 43.5599" fill="#025F53"/>
<path id="Vector_16" d="M97.9174 46.9318C97.378 46.3322 97.1084 45.5808 97.1084 44.6037C97.1084 43.6265 97.378 42.8974 97.8949 42.2978C98.4117 41.7203 99.1083 41.4316 99.981 41.4316C100.723 41.4316 101.415 41.6315 102.067 42.0535L101.865 42.8752C101.191 42.4976 100.606 42.3422 100.116 42.3644C98.9922 42.3866 98.2994 43.2527 98.2994 44.6037C98.2994 45.9547 98.996 46.7986 100.161 46.8652C100.745 46.8874 101.352 46.7098 102.022 46.3766L102.224 47.1983C101.528 47.5759 100.786 47.798 100.026 47.798C99.172 47.8202 98.4529 47.5315 97.9174 46.9318Z" fill="#025F53"/>
<path id="Vector_17" d="M107.524 44.0487C107.614 43.0938 107.232 42.409 106.086 42.3831C105.119 42.3831 104.471 43.0271 104.359 44.0487H107.524ZM103.932 46.8876C103.415 46.288 103.146 45.5366 103.146 44.6039C103.146 43.6712 103.415 42.8976 103.955 42.298C104.494 41.6983 105.213 41.4096 106.086 41.4319C108.329 41.4319 108.846 43.2048 108.509 44.826H104.314C104.337 46.1141 105.056 46.821 106.355 46.821C106.984 46.821 107.614 46.6433 108.239 46.3324L108.441 47.1319C107.835 47.5761 107.074 47.7982 106.175 47.7982C105.209 47.7982 104.471 47.4873 103.932 46.8876Z" fill="#025F53"/>
<path id="Vector_18" d="M92.6217 15.5928V16.3701L91.5468 16.6588V29.21H89.839V15.5928H92.6217Z" fill="#025F53"/>
<path id="Vector_19" d="M97.9398 17.6766L96.3931 18.6093L95.4717 17.0363L97.0672 16.1035L97.9398 17.6766Z" fill="#025F53"/>
<path id="Vector_20" d="M95.674 20.4707V30.1867C95.674 31.3416 95.6066 32.1818 93.7452 31.8264L93.4082 33.1145C96.82 33.8918 97.3556 32.0263 97.3818 30.1423V21.5367L98.438 21.248V20.4707H95.6778H95.674Z" fill="#025F53"/>
<path id="Vector_21" d="M84.2735 20.4707V30.1867C84.2735 31.3416 84.2061 32.1818 82.3447 31.8264L82.0076 33.1145C85.4195 33.8918 85.9551 32.0263 85.9813 30.1423V21.5367L87.0375 21.248V20.4707H84.2772H84.2735Z" fill="#025F53"/>
<path id="Vector_22" d="M79.8992 17.6766L78.3487 18.6093L77.4049 17.0363L79.0004 16.1035L79.8992 17.6766Z" fill="#025F53"/>
<path id="Vector_23" d="M77.0715 17.6766L75.521 18.6093L74.5997 17.0363L76.1952 16.1035L77.0715 17.6766Z" fill="#025F53"/>
<path id="Vector_24" d="M76.1502 27.8142C75.2289 27.8142 73.9069 27.3034 73.9069 24.9974C73.9069 21.9364 76.6446 21.8476 77.6558 21.8476H78.5996V27.8142H76.154H76.1502ZM77.6521 20.4707C76.0604 20.4707 72.1766 20.7594 72.1766 24.9937C72.1766 28.8987 75.0941 29.2096 76.1502 29.2096H80.3037V21.5589L81.4048 21.248V20.4707H77.6558H77.6521Z" fill="#025F53"/>
<path id="Vector_25" d="M106.917 27.8142H104.966C103.352 27.8142 102.228 26.5261 102.228 25.0641C102.228 24.0647 102.475 23.2911 102.992 22.7137C103.487 22.1363 104.138 21.8476 104.966 21.8476H106.917V27.8142ZM108.625 20.4707H104.966C103.644 20.4707 102.588 20.8927 101.756 21.7366C100.925 22.6027 100.498 23.6872 100.498 25.0419C100.498 28.1029 103.213 29.1911 104.962 29.1911H106.936C106.936 32.0744 105.03 32.3409 101.91 31.4304L101.573 32.7407C103.794 33.4069 105.524 33.4069 106.756 32.7185C107.992 32.03 108.618 30.9677 108.618 29.1911V20.4744L108.625 20.4707Z" fill="#025F53"/>
<path id="Vector_26" d="M26.0355 31.786L26.9568 33.3369L28.5261 32.4041L27.631 30.8311L26.0355 31.786Z" fill="#025F53"/>
<path id="Vector_27" d="M23.208 31.786L24.1518 33.3369L25.6985 32.4041L24.8034 30.8311L23.208 31.786Z" fill="#025F53"/>
<path id="Vector_28" d="M9.13712 17.3915L8.26074 15.8369L6.66903 16.7697L7.59035 18.3205L9.13712 17.3915Z" fill="#025F53"/>
<path id="Vector_29" d="M6.33185 17.3915L5.433 15.8369L3.84129 16.7697L4.75886 18.3205L6.33185 17.3915Z" fill="#025F53"/>
<path id="Vector_30" d="M64.907 15.5928V29.21H66.611V16.6588L67.6897 16.3701V15.5928H64.907Z" fill="#025F53"/>
<path id="Vector_31" d="M54.1807 27.8144H51.7351C50.8138 27.8144 49.4917 27.3036 49.4917 24.9977C49.4917 21.9367 50.8175 21.8478 51.825 21.8478C52.8325 21.8478 54.1583 21.9367 54.1583 24.9977V27.8144H54.1807ZM60.0794 15.5926V27.8144H55.9035V24.9977C55.9035 20.7634 53.413 20.4746 51.8175 20.4746C50.222 20.4746 47.7539 20.7634 47.7539 24.9977V25.5085C47.7539 27.8144 46.4281 27.8144 45.5106 27.8144H38.8666V15.5926H37.1625V29.2098H45.4881C46.2072 29.2098 47.8214 29.2987 48.7652 28.0772C49.709 29.0766 51.0759 29.2098 51.7051 29.2098H61.7573V16.6549L62.8359 16.3661V15.5889H60.0757L60.0794 15.5926Z" fill="#025F53"/>
<path id="Vector_32" d="M7.27569 26.8817H6.1746C5.25328 26.8817 2.94248 26.7484 2.94248 24.287C2.94248 21.226 5.32069 21.1372 6.3319 21.1372H7.27569V26.8817ZM32.3424 15.5926V27.8144H29.2676C28.3912 27.8144 27.0916 27.8144 27.0017 25.7528V20.4746H25.2977V25.5085C25.2977 27.8144 23.9306 27.8144 23.0318 27.8144H9.18201C9.09212 27.8144 9.00224 27.7478 9.00224 27.6367V20.8707L10.1033 20.5598V19.7825H6.35437C4.76266 19.7825 1.21594 20.0712 1.21594 24.3055C1.21594 28.2105 5.1222 28.2993 6.1746 28.2993H7.27569V28.5214C7.27569 28.8989 7.59029 29.2098 7.9723 29.2098H22.9869C23.6835 29.2098 25.1628 29.2764 26.1066 28.2549C27.0504 29.2987 28.5522 29.2098 29.2264 29.2098H34.0053V16.6549L35.0839 16.3661V15.5889H32.3461L32.3424 15.5926Z" fill="#025F53"/>
</g>
<g id="Group 1000004853">
<path id="Vector_33" d="M139.131 58.1029C140.812 58.1029 142.857 58.8579 143.977 59.9646L147.681 63.6253C148.243 64.1805 148.984 64.4692 149.767 64.4692C150.55 64.4692 151.295 64.1583 151.853 63.6253L155.557 59.9646C156.834 58.6988 159.351 57.8808 161.145 58.1695L166.328 58.9912C167.942 59.2355 169.448 58.1473 169.695 56.5742L170.527 51.4515C170.819 49.6786 172.366 47.5688 173.983 46.7508L178.65 44.4005C180.107 43.6676 180.669 41.9169 179.927 40.4733L177.549 35.8615C176.717 34.2662 176.717 31.6456 177.549 30.0503L179.927 25.4385C180.287 24.75 180.354 23.9542 180.107 23.2214C179.86 22.4885 179.343 21.8704 178.65 21.515L173.983 19.1647C172.369 18.343 170.819 16.2369 170.527 14.464L169.695 9.34131C169.583 8.56402 169.156 7.89778 168.504 7.43511C167.875 6.96874 167.092 6.79108 166.306 6.90212L161.122 7.72382C159.328 8.01252 156.815 7.19082 155.535 5.92866L151.831 2.26803C151.269 1.71283 150.527 1.42412 149.744 1.42412C148.962 1.42412 148.22 1.73504 147.658 2.26803L143.954 5.92866C142.673 7.19453 140.16 8.01252 138.366 7.72382L133.183 6.90212C131.569 6.65783 130.063 7.74603 129.816 9.3191L128.985 14.4418C128.693 16.2147 127.146 18.3245 125.528 19.1425L120.861 21.4928C120.165 21.8482 119.648 22.4478 119.401 23.1992C119.154 23.932 119.221 24.7315 119.58 25.4163L121.959 30.0281C122.79 31.6234 122.79 34.244 121.959 35.8393L119.58 40.4511C119.221 41.1396 119.154 41.9391 119.401 42.6682C119.648 43.4011 120.165 44.0192 120.861 44.3746L125.528 46.7249C127.142 47.5466 128.693 49.6527 128.985 51.4256L129.816 56.5483C130.063 58.1436 131.588 59.2318 133.183 58.9653L138.366 58.1436C138.614 58.1214 138.883 58.0992 139.131 58.0992M149.771 64.9355C148.849 64.9355 147.999 64.5802 147.347 63.9584L143.643 60.2978C142.453 59.1207 140.119 58.3694 138.46 58.6359L133.277 59.4576C131.415 59.7463 129.663 58.4804 129.37 56.6408L128.539 51.5182C128.269 49.8785 126.835 47.9019 125.329 47.1506L120.663 44.8002C119.854 44.4005 119.251 43.6898 118.959 42.8274C118.667 41.9613 118.757 41.0545 119.161 40.255L121.539 35.6431C122.303 34.1551 122.303 31.7382 121.539 30.2539L119.184 25.6198C118.779 24.8203 118.689 23.9135 118.981 23.0474C119.273 22.1813 119.858 21.4928 120.685 21.0746L125.352 18.7242C126.854 17.9691 128.292 16.0185 128.562 14.3529L129.393 9.23027C129.685 7.3907 131.434 6.12484 133.299 6.41354L138.483 7.23524C140.142 7.50174 142.479 6.74666 143.666 5.57334L147.37 1.9127C148.022 1.26867 148.876 0.935547 149.793 0.935547C150.711 0.935547 151.565 1.29088 152.216 1.9127L155.92 5.57334C157.111 6.75036 159.445 7.50174 161.104 7.23524L166.287 6.41354C167.186 6.28029 168.081 6.48017 168.823 7.01316C169.564 7.54615 170.058 8.32344 170.19 9.20806L171.021 14.3307C171.291 15.9704 172.725 17.9469 174.231 18.6983L178.897 21.0487C179.706 21.4484 180.313 22.1591 180.601 23.0215C180.893 23.8876 180.803 24.7944 180.399 25.5939L178.021 30.2058C177.257 31.69 177.257 34.1107 178.021 35.595L180.399 40.2068C181.253 41.8724 180.579 43.9119 178.897 44.7558L174.231 47.1062C172.729 47.8612 171.291 49.8118 171.021 51.4737L170.19 56.5964C169.897 58.436 168.148 59.7018 166.283 59.4131L161.1 58.5914C159.441 58.3249 157.104 59.08 155.917 60.2533L152.19 63.9584C151.538 64.5802 150.684 64.9355 149.767 64.9355" fill="#025F53"/>
<path id="Vector_34" d="M140.614 56.9074C142.565 56.9074 144.857 57.6846 146.157 58.858L148.49 60.964C149.95 62.2706 152.216 62.1855 153.561 60.7419L155.692 58.436C157.149 56.8629 160.111 55.7525 162.268 55.9968L165.411 56.3521C166.354 56.4632 167.295 56.1967 168.036 55.5971C168.778 54.9975 169.272 54.1535 169.362 53.2245L169.721 50.1191C169.969 47.9908 171.695 45.3962 173.583 44.3302L176.343 42.7756C177.174 42.3092 177.781 41.5542 178.028 40.6473C178.275 39.7368 178.163 38.7856 177.691 37.9639L176.122 35.236C175.043 33.3742 174.909 30.2688 175.807 28.2922L177.111 25.4533C177.92 23.6804 177.133 21.5706 175.339 20.7526L172.467 19.4645C170.493 18.5762 168.515 16.137 168.088 14.0309L167.459 10.9699C167.055 9.06374 165.171 7.82009 163.216 8.19762L160.119 8.81945C157.988 9.2414 154.958 8.4197 153.34 6.97988L151.007 4.87381C149.546 3.56354 147.28 3.65237 145.936 5.09589L143.805 7.40183C142.348 8.97491 139.385 10.0853 137.228 9.84102L134.086 9.48569C133.142 9.37465 132.202 9.64115 131.46 10.2408C130.719 10.8404 130.224 11.6843 130.135 12.6133L129.775 15.7188C129.528 17.847 127.801 20.4417 125.914 21.5077L123.153 23.0622C122.322 23.5286 121.715 24.2837 121.472 25.1905C121.225 26.101 121.337 27.0523 121.809 27.874L123.382 30.6019C124.461 32.4637 124.595 35.5691 123.697 37.5456L122.393 40.3845C121.584 42.1575 122.371 44.2673 124.165 45.0852L127.06 46.3733C129.033 47.2616 131.011 49.7008 131.434 51.8069L132.063 54.8679C132.266 55.8007 132.805 56.5964 133.614 57.1072C134.423 57.6402 135.363 57.8179 136.307 57.618L139.404 56.9962C139.763 56.9296 140.19 56.9074 140.617 56.9074M150.913 62.3631C149.924 62.3631 148.962 62.0078 148.175 61.3194L145.842 59.2133C144.336 57.8623 141.486 57.085 139.49 57.4848L136.393 58.1066C135.337 58.3287 134.262 58.1066 133.34 57.5292C132.442 56.9296 131.816 56.0412 131.591 55.0012L130.962 51.9401C130.558 49.9673 128.719 47.6836 126.854 46.8397L123.981 45.5516C122.992 45.1075 122.255 44.308 121.873 43.3123C121.491 42.3129 121.536 41.2284 121.985 40.2513L123.288 37.4124C124.142 35.5728 124.007 32.6672 122.996 30.8906L121.427 28.1627C120.888 27.2299 120.753 26.1455 121.045 25.1239C121.337 24.0801 122.011 23.2399 122.951 22.7069L125.711 21.1523C127.483 20.153 129.123 17.7138 129.348 15.7188L129.708 12.6133C129.82 11.5473 130.359 10.5961 131.209 9.92985C132.063 9.26361 133.116 8.9527 134.194 9.08595L137.337 9.44128C139.355 9.66336 142.138 8.64178 143.509 7.15754L145.64 4.8516C147.142 3.23412 149.726 3.10087 151.362 4.60732L153.696 6.71338C155.197 8.06437 158.048 8.84166 160.048 8.44191L163.145 7.82009C165.343 7.37592 167.474 8.77503 167.924 10.9477L168.553 14.0087C168.957 15.9816 170.796 18.2653 172.661 19.1092L175.534 20.3936C177.575 21.3041 178.474 23.6989 177.553 25.6939L176.249 28.5328C175.395 30.3724 175.53 33.278 176.541 35.0546L178.111 37.7825C178.65 38.7152 178.785 39.7997 178.493 40.8213C178.201 41.8651 177.526 42.7053 176.586 43.2383L173.826 44.7891C172.055 45.7885 170.414 48.2277 170.19 50.2227L169.83 53.3281C169.718 54.3941 169.178 55.3454 168.324 56.0116C167.471 56.6779 166.418 56.9888 165.34 56.8555L162.197 56.5002C160.179 56.2781 157.396 57.2997 156.025 58.7839L153.894 61.0899C153.108 61.9338 152.007 62.352 150.909 62.352" fill="#00695A"/>
<path id="Vector_35" d="M142.295 55.7303C144.449 55.7303 146.894 56.4854 148.4 57.6809L149.254 58.3916C151.048 59.8536 153.718 59.613 155.201 57.8364L155.92 56.9925C157.538 55.0641 160.879 53.6205 163.392 53.776L164.515 53.8426C165.639 53.9092 166.714 53.5317 167.568 52.7988C168.422 52.066 168.916 51.0481 168.98 49.9377L169.047 48.8273C169.204 46.3437 171.066 43.216 173.178 41.8836L174.122 41.2839C176.073 40.0403 176.657 37.4678 175.425 35.5172L174.819 34.5845C173.47 32.4784 173.114 28.8844 174.032 26.5563L174.437 25.5347C175.29 23.3842 174.212 20.9672 172.058 20.1233L171.025 19.7236C168.669 18.8131 166.246 16.1074 165.617 13.6904L165.347 12.6244C164.763 10.4073 162.452 9.05261 160.208 9.63002L159.13 9.89651C156.684 10.5183 153.115 9.74106 151.164 8.14578L150.31 7.43512C149.434 6.72446 148.336 6.39134 147.213 6.50238C146.089 6.61342 145.082 7.14641 144.363 7.99032L143.643 8.83423C142.029 10.7626 138.685 12.2062 136.172 12.0507L135.048 11.9841C133.925 11.9175 132.85 12.295 131.996 13.0279C131.142 13.7607 130.648 14.7786 130.584 15.889L130.516 16.9994C130.359 19.483 128.498 22.6106 126.385 23.9431L125.442 24.5427C124.498 25.1424 123.85 26.0751 123.603 27.1596C123.356 28.2478 123.558 29.3767 124.165 30.3094L124.771 31.2422C126.12 33.3483 126.475 36.9423 125.558 39.2704L125.153 40.292C124.749 41.3358 124.771 42.4647 125.221 43.4862C125.67 44.5078 126.498 45.3036 127.532 45.7034L128.565 46.1031C130.921 47.0136 133.344 49.7193 133.973 52.1363L134.243 53.2023C134.827 55.4194 137.138 56.7741 139.381 56.1967L140.46 55.9302C140.999 55.8191 141.628 55.7303 142.299 55.7303M151.924 59.8092C150.868 59.8092 149.816 59.4539 148.939 58.7432L148.085 58.0325C146.246 56.5224 142.857 55.7932 140.546 56.3669L139.468 56.6334C136.954 57.2775 134.396 55.7895 133.745 53.3059L133.475 52.2399C132.868 49.9562 130.58 47.3838 128.359 46.5176L127.326 46.1179C126.157 45.6737 125.239 44.7854 124.745 43.6565C124.251 42.5239 124.228 41.2617 124.678 40.1069L125.082 39.0853C125.959 36.8904 125.621 33.4741 124.341 31.4791L123.734 30.5463C123.06 29.5026 122.835 28.2626 123.105 27.0412C123.374 25.8197 124.116 24.8018 125.168 24.1356L126.112 23.536C128.131 22.2701 129.884 19.3201 130.041 16.9476L130.108 15.8372C130.176 14.5935 130.737 13.4646 131.681 12.6429C132.625 11.8212 133.835 11.3993 135.071 11.4881L136.194 11.5547C138.595 11.7102 141.76 10.3333 143.288 8.51591L144.007 7.67201C144.793 6.71706 145.935 6.12114 147.171 6.0101C148.43 5.89906 149.64 6.25439 150.606 7.05388L151.46 7.76454C153.299 9.27099 156.688 10.0039 158.999 9.42644L160.077 9.15995C162.59 8.51591 165.148 10.0039 165.8 12.4875L166.07 13.5534C166.676 15.8372 168.965 18.4096 171.186 19.2757L172.219 19.6755C174.62 20.6082 175.811 23.3139 174.867 25.6865L174.463 26.708C173.586 28.9029 173.923 32.3193 175.204 34.3143L175.811 35.247C177.204 37.3975 176.553 40.2809 174.373 41.6578L173.429 42.2574C171.41 43.5196 169.658 46.4732 169.5 48.8458L169.433 49.9562C169.366 51.1998 168.804 52.3288 167.864 53.1505C166.92 53.9722 165.71 54.3941 164.474 54.3053L163.351 54.2387C160.973 54.0832 157.785 55.4601 156.257 57.2775L155.538 58.1214C154.639 59.2318 153.295 59.8055 151.924 59.8055" fill="#05705F"/>
<path id="Vector_36" d="M144.449 54.5087C146.535 54.5087 148.823 55.1306 150.306 56.1929C151.25 56.8813 152.415 57.1478 153.583 56.9701C154.752 56.7925 155.782 56.1707 156.456 55.2416C158.006 53.1578 161.392 51.4477 164.021 51.4477H164.044C166.467 51.4477 168.44 49.4971 168.44 47.0986C168.44 44.504 170.167 41.1543 172.302 39.6256C174.276 38.2043 174.702 35.4764 173.291 33.548C171.74 31.4419 171.16 27.7369 171.965 25.2533C172.729 22.9696 171.448 20.5082 169.137 19.7531C166.647 18.9536 163.954 16.2923 163.145 13.8087C162.403 11.525 159.913 10.2591 157.602 11.0142C155.111 11.8137 151.34 11.2141 149.231 9.68173C148.287 8.99328 147.123 8.72678 145.954 8.90444C144.786 9.08211 143.756 9.70393 143.082 10.633C141.531 12.7168 138.145 14.4269 135.516 14.4269H135.494C133.071 14.4269 131.093 16.3775 131.093 18.7759C131.093 21.3706 129.367 24.7203 127.232 26.249C126.288 26.9374 125.659 27.9331 125.483 29.0879C125.303 30.2427 125.573 31.3938 126.269 32.3266C127.82 34.4326 128.4 38.1377 127.595 40.6213C127.236 41.7317 127.326 42.905 127.865 43.9488C128.404 44.9926 129.303 45.7662 130.423 46.1215C132.913 46.921 135.606 49.5823 136.415 52.0659C137.157 54.3496 139.647 55.6154 141.958 54.8604C142.677 54.6161 143.55 54.505 144.449 54.505M152.887 57.4809C151.853 57.4809 150.868 57.17 150.037 56.5704C148.018 55.1306 144.449 54.5532 142.07 55.3045C139.512 56.1262 136.752 54.7271 135.921 52.1991C135.157 49.8487 132.599 47.3207 130.221 46.5657C128.985 46.1659 127.977 45.322 127.393 44.1709C126.809 43.0161 126.696 41.7095 127.101 40.488C127.865 38.1377 127.326 34.6103 125.842 32.6153C125.078 31.5715 124.764 30.3093 124.989 29.0213C125.191 27.7332 125.887 26.6265 126.94 25.8714C128.958 24.4279 130.599 21.2373 130.599 18.7722C130.599 16.111 132.797 13.9605 135.468 13.9605H135.49C137.981 13.9605 141.19 12.343 142.673 10.3443C143.437 9.30049 144.557 8.63795 145.861 8.43807C147.164 8.2382 148.441 8.54911 149.497 9.30419C151.516 10.744 155.085 11.3214 157.463 10.5663C160.021 9.74465 162.781 11.1438 163.613 13.6718C164.377 16.0221 166.935 18.5502 169.313 19.3052C171.871 20.1269 173.264 22.8548 172.433 25.3828C171.669 27.7332 172.231 31.2606 173.691 33.2556C175.261 35.4061 174.792 38.4227 172.59 39.9995C170.572 41.443 168.931 44.6336 168.931 47.0986C168.931 49.7599 166.733 51.9104 164.062 51.9104H164.04C161.549 51.9104 158.317 53.5316 156.857 55.5266C156.093 56.5704 154.973 57.2329 153.669 57.4328C153.4 57.455 153.13 57.4772 152.883 57.4772" fill="#0B7864"/>
<path id="Vector_37" d="M146.988 53.113C148.714 53.113 150.535 53.535 151.789 54.3123C152.711 54.8897 153.785 55.0674 154.842 54.8231C155.898 54.5788 156.793 53.957 157.377 53.0501C158.654 51.0107 161.684 49.2118 164.111 49.0564C165.19 48.9897 166.175 48.5012 166.894 47.6832C167.613 46.8615 167.95 45.8436 167.882 44.7776C167.725 42.3828 169.096 39.1664 170.957 37.634C172.661 36.2164 172.886 33.6847 171.474 31.9784C169.905 30.1388 169.118 26.7447 169.725 24.4165C170.264 22.266 168.939 20.0896 166.785 19.5603C164.429 18.9829 161.781 16.6992 160.86 14.4599C160.456 13.4605 159.692 12.6869 158.684 12.265C157.695 11.843 156.576 11.8208 155.587 12.2206C153.343 13.1089 149.819 12.8202 147.756 11.5321C145.872 10.3551 143.355 10.9325 142.168 12.798C140.864 14.8374 137.861 16.6363 135.434 16.7917C133.213 16.9472 131.505 18.8534 131.662 21.0705C131.82 23.4653 130.449 26.6817 128.588 28.2104C126.884 29.6317 126.659 32.1597 128.071 33.866C129.64 35.7056 130.427 39.0997 129.82 41.4279C129.55 42.4717 129.73 43.534 130.269 44.4667C130.831 45.3772 131.707 46.0398 132.76 46.2841C135.116 46.8615 137.763 49.1452 138.685 51.3845C139.089 52.3839 139.853 53.1575 140.861 53.5794C141.849 54.0014 142.969 54.0236 143.958 53.6238C144.857 53.2685 145.909 53.113 146.988 53.113ZM153.943 55.3746C153.111 55.3746 152.284 55.1525 151.564 54.6861C149.613 53.4869 146.291 53.2019 144.16 54.0421C143.037 54.4862 141.804 54.464 140.703 53.9977C139.58 53.5313 138.73 52.6652 138.28 51.5585C137.426 49.4524 134.913 47.2797 132.67 46.7467C131.501 46.458 130.516 45.7252 129.887 44.7073C129.258 43.6857 129.078 42.468 129.37 41.3132C129.932 39.1183 129.191 35.9018 127.711 34.1473C126.12 32.2634 126.363 29.4244 128.273 27.8477C130.045 26.3856 131.348 23.369 131.191 21.0816C131.011 18.6202 132.895 16.4919 135.385 16.3143C137.674 16.1588 140.546 14.4747 141.76 12.5426C143.085 10.4587 145.89 9.81469 147.999 11.125C149.95 12.3242 153.272 12.6092 155.403 11.769C156.527 11.3248 157.737 11.347 158.86 11.8134C159.984 12.2798 160.834 13.1459 161.283 14.2526C162.137 16.3587 164.65 18.5351 166.894 19.0644C169.317 19.664 170.8 22.1032 170.193 24.4979C169.631 26.6928 170.373 29.9093 171.852 31.66C173.444 33.544 173.201 36.383 171.291 37.9597C169.519 39.4218 168.216 42.4384 168.373 44.7258C168.463 45.925 168.058 47.0539 167.272 47.9645C166.485 48.875 165.388 49.4043 164.175 49.4968C161.886 49.6523 159.014 51.3364 157.8 53.2685C157.171 54.2679 156.164 54.9748 154.973 55.2413C154.613 55.3524 154.276 55.3746 153.939 55.3746" fill="#14806A"/>
<path id="Vector_38" d="M149.591 51.6472C150.939 51.6472 152.261 51.9137 153.295 52.4245C155.111 53.3573 157.381 52.6466 158.321 50.8514C159.355 48.8786 162.003 46.9909 164.223 46.6578C166.242 46.3469 167.658 44.4629 167.343 42.4642C167.006 40.2693 168.04 37.2083 169.632 35.6315C171.088 34.2102 171.111 31.8598 169.654 30.42C168.081 28.8469 167.074 25.7637 167.456 23.5651C167.613 22.588 167.388 21.6367 166.804 20.815C166.22 20.0155 165.366 19.4825 164.381 19.3308C162.16 18.9754 159.534 17.0692 158.523 15.0705C158.074 14.2044 157.31 13.5382 156.37 13.2309C155.426 12.92 154.419 12.9867 153.52 13.4308C151.501 14.4302 148.246 14.408 146.25 13.3864C145.374 12.9422 144.366 12.8534 143.4 13.1421C142.456 13.4308 141.674 14.0749 141.224 14.9595C140.19 16.9323 137.543 18.82 135.322 19.1531C133.303 19.464 131.887 21.348 132.202 23.343C132.539 25.5379 131.505 28.5989 129.914 30.1535C128.457 31.5711 128.434 33.9252 129.891 35.365C131.46 36.9381 132.449 40.0213 132.09 42.2199C131.932 43.1971 132.157 44.1483 132.741 44.97C133.325 45.7695 134.179 46.3025 135.164 46.4542C137.385 46.8096 140.011 48.7158 141.022 50.7145C141.471 51.5806 142.235 52.2432 143.175 52.5541C144.119 52.865 145.127 52.7984 146.025 52.3542C147.014 51.8878 148.291 51.6435 149.595 51.6435M154.999 53.3128C154.347 53.3128 153.696 53.1574 153.07 52.8465C151.186 51.8915 148.112 51.8693 146.224 52.8021C145.235 53.2906 144.093 53.3795 143.014 53.0241C141.936 52.6688 141.086 51.9359 140.591 50.9625C139.647 49.1007 137.179 47.3018 135.071 46.9465C133.97 46.7689 133.007 46.1692 132.355 45.2624C131.704 44.3519 131.434 43.2674 131.614 42.1792C131.951 40.1175 131.03 37.2342 129.55 35.724C127.936 34.1065 127.936 31.4675 129.595 29.8685C131.101 28.4065 132.063 25.5231 131.749 23.4578C131.389 21.1962 132.985 19.0902 135.273 18.7349C137.359 18.4239 139.85 16.651 140.838 14.7855C141.355 13.8084 142.232 13.0792 143.284 12.7461C144.363 12.4129 145.482 12.5018 146.494 13.0126C148.377 13.9675 151.452 13.9897 153.34 13.057C154.329 12.5684 155.471 12.4796 156.55 12.8349C157.628 13.1902 158.478 13.9231 158.973 14.8966C159.916 16.7583 162.385 18.5572 164.493 18.9125C165.594 19.0902 166.557 19.6898 167.208 20.5966C167.86 21.5072 168.13 22.5917 167.95 23.6799C167.613 25.7415 168.534 28.6249 170.014 30.135C171.628 31.7525 171.628 34.3916 169.969 35.9905C168.467 37.4526 167.501 40.3359 167.815 42.4013C168.175 44.6628 166.579 46.7689 164.291 47.1242C162.205 47.4351 159.714 49.208 158.725 51.0735C157.984 52.4948 156.505 53.3128 154.999 53.3128Z" fill="#188072"/>
<path id="Vector_39" d="M143.509 15.053C142.142 15.053 140.861 15.8525 140.321 17.1813C139.535 19.0875 137.269 21.064 135.25 21.5711C133.412 22.0374 132.31 23.877 132.76 25.6759C133.277 27.6709 132.603 30.5986 131.254 32.1754C130.67 32.8639 130.4 33.7485 130.468 34.659C130.558 35.5696 130.985 36.3876 131.681 36.965C133.273 38.2974 134.464 41.0253 134.329 43.087C134.194 44.9488 135.632 46.57 137.516 46.7032C139.602 46.8365 142.183 48.3688 143.306 50.1195C143.801 50.8746 144.565 51.4076 145.437 51.6038C146.336 51.8037 147.254 51.6482 148.018 51.1818C149.789 50.0936 152.797 49.8049 154.729 50.5822C155.583 50.9153 156.501 50.9153 157.355 50.5378C158.209 50.1825 158.86 49.5162 159.194 48.6982C159.98 46.792 162.246 44.8155 164.265 44.3084C166.104 43.8421 167.205 42.0025 166.755 40.2036C166.238 38.2086 166.912 35.3031 168.257 33.7041C168.841 33.0156 169.111 32.131 169.044 31.2205C168.954 30.3099 168.527 29.4919 167.83 28.9145C166.238 27.582 165.047 24.8542 165.182 22.7925C165.317 20.9307 163.879 19.3095 161.995 19.1763C159.909 19.043 157.329 17.5144 156.205 15.7599C155.194 14.1869 153.085 13.6983 151.471 14.694C149.7 15.7822 146.692 16.0709 144.76 15.2936C144.355 15.1381 143.928 15.0493 143.505 15.0493M146.246 52.1368C145.954 52.1368 145.662 52.1146 145.37 52.048C144.359 51.8259 143.486 51.204 142.947 50.3416C141.913 48.7019 139.468 47.2806 137.516 47.1474C135.363 47.0141 133.745 45.1745 133.88 43.0426C134.015 41.1142 132.891 38.5417 131.389 37.2981C130.603 36.6318 130.108 35.725 130.022 34.6812C129.932 33.6597 130.247 32.664 130.899 31.8645C132.157 30.3803 132.782 27.6487 132.31 25.7869C131.794 23.7252 133.052 21.6377 135.138 21.1084C137.022 20.642 139.157 18.8024 139.895 17.0036C140.704 15.0308 142.969 14.0758 144.966 14.8531C146.782 15.5638 149.61 15.3195 151.25 14.2979C152.126 13.7427 153.179 13.5873 154.19 13.8093C155.201 14.0314 156.074 14.6532 156.613 15.5194C157.647 17.1591 160.092 18.5804 162.044 18.7136C164.197 18.8469 165.815 20.6864 165.68 22.8184C165.545 24.7468 166.669 27.3192 168.171 28.5629C168.98 29.2291 169.452 30.136 169.564 31.1798C169.654 32.2013 169.339 33.197 168.688 33.9965C167.429 35.4807 166.804 38.2086 167.272 40.0741C167.789 42.1357 166.53 44.2233 164.444 44.7526C162.561 45.219 160.426 47.0585 159.688 48.8574C159.306 49.8123 158.564 50.5637 157.602 50.9635C156.636 51.3632 155.583 51.3854 154.617 51.0079C152.801 50.2972 149.973 50.5415 148.333 51.5631C147.681 51.9406 146.966 52.1405 146.246 52.1405" fill="#1E8077"/>
<path id="Vector_40" d="M140.119 46.8585C142.026 46.8585 144.471 47.9911 145.64 49.431C146.157 50.075 146.921 50.497 147.771 50.5858C148.625 50.6746 149.452 50.4525 150.104 49.9195C151.632 48.7203 154.392 48.1688 156.254 48.6759C157.063 48.898 157.913 48.7869 158.654 48.3872C159.396 47.9652 159.935 47.299 160.16 46.5032C160.677 44.6636 162.583 42.5983 164.4 41.9135C166.036 41.3139 166.868 39.4966 166.261 37.8754C165.587 36.0802 165.901 33.3079 166.957 31.7089C167.924 30.2654 167.519 28.3148 166.059 27.3598C164.444 26.2938 163.051 23.8769 162.961 21.9707C162.894 20.2421 161.392 18.9097 159.662 18.9763C157.733 19.0651 155.153 17.9103 153.939 16.4038C153.422 15.7598 152.658 15.3379 151.808 15.249C150.954 15.1602 150.127 15.3823 149.475 15.9153C147.951 17.1145 145.187 17.666 143.325 17.1589C142.516 16.9368 141.666 17.0479 140.925 17.4476C140.183 17.8696 139.644 18.5358 139.419 19.3316C138.902 21.1712 136.996 23.2328 135.176 23.9213C134.389 24.21 133.764 24.7874 133.404 25.561C133.045 26.3161 133.022 27.1785 133.314 27.9557C133.988 29.7509 133.674 32.5232 132.618 34.1222C132.146 34.8106 131.988 35.6546 132.168 36.4726C132.348 37.2943 132.82 38.0049 133.517 38.4676C135.131 39.5336 136.524 41.9505 136.614 43.8567C136.704 45.5853 138.183 46.9178 139.913 46.8511H140.116M148.13 51.0744C147.995 51.0744 147.861 51.0744 147.703 51.0522C146.737 50.9411 145.864 50.4747 145.258 49.7197C144.134 48.3206 141.733 47.2583 139.917 47.3249C137.898 47.4137 136.213 45.8851 136.123 43.8863C136.033 42.0912 134.756 39.8482 133.228 38.8525C132.419 38.3195 131.861 37.52 131.681 36.5688C131.479 35.6138 131.681 34.6626 132.198 33.8631C133.187 32.3752 133.502 29.7805 132.85 28.1186C132.513 27.2303 132.535 26.2568 132.94 25.3685C133.344 24.4802 134.063 23.8139 134.981 23.4845C136.685 22.8627 138.46 20.9343 138.932 19.2021C139.179 18.2693 139.808 17.5179 140.636 17.0294C141.49 16.563 142.475 16.4298 143.396 16.6963C145.145 17.1626 147.707 16.6518 149.142 15.5414C149.906 14.9418 150.846 14.6753 151.812 14.7864C152.778 14.8974 153.651 15.3638 154.257 16.1188C155.381 17.5142 157.804 18.5802 159.598 18.5136C161.617 18.4248 163.302 19.9534 163.392 21.9522C163.482 23.7473 164.759 25.9903 166.287 26.986C167.969 28.0742 168.418 30.3135 167.321 31.9754C166.332 33.4634 166.017 36.058 166.669 37.7199C167.366 39.5817 166.422 41.647 164.538 42.354C162.834 42.9758 161.059 44.9042 160.587 46.6327C160.34 47.5655 159.711 48.3169 158.883 48.8054C158.029 49.2718 157.044 49.4051 156.123 49.1386C154.374 48.65 151.793 49.183 150.377 50.2934C149.726 50.8042 148.943 51.0707 148.134 51.0707" fill="#35807E"/>
<path id="Vector_41" d="M143.172 46.9251C144.853 46.9251 146.831 47.6358 147.95 48.6981C149.119 49.8085 150.98 49.7863 152.126 48.6314C153.385 47.3434 155.898 46.5032 157.692 46.7474C158.456 46.8585 159.242 46.6586 159.868 46.1922C160.497 45.7259 160.901 45.0374 161.014 44.2861C161.261 42.5131 162.785 40.3589 164.403 39.5409C165.1 39.1856 165.617 38.5638 165.841 37.8124C166.066 37.0573 165.999 36.28 165.639 35.5953C164.785 34 164.74 31.4017 165.549 29.7842C166.268 28.3443 165.662 26.5899 164.201 25.8793C162.564 25.0798 160.991 22.9959 160.677 21.223C160.542 20.4679 160.115 19.8053 159.463 19.339C158.812 18.8948 158.025 18.7171 157.265 18.8504C155.471 19.1613 152.954 18.384 151.632 17.1441C150.463 16.0337 148.602 16.0559 147.456 17.2107C146.198 18.4988 143.685 19.339 141.891 19.0947C141.127 18.9836 140.344 19.1835 139.715 19.6499C139.086 20.1163 138.681 20.8047 138.569 21.5561C138.322 23.329 136.797 25.4832 135.179 26.3234C134.483 26.6787 133.966 27.3006 133.745 28.0297C133.52 28.7848 133.588 29.5584 133.947 30.2468C134.801 31.8421 134.846 34.4405 134.037 36.058C133.318 37.5015 133.925 39.2522 135.385 39.9629C137.022 40.7624 138.595 42.8462 138.91 44.6192C139.044 45.3742 139.471 46.0405 140.123 46.5032C140.775 46.9473 141.557 47.125 142.321 46.9917C142.591 46.9473 142.883 46.9251 143.175 46.9251M149.992 49.9861C149.138 49.9861 148.288 49.6752 147.613 49.0312C146.4 47.8764 144.067 47.1694 142.408 47.4581C141.509 47.6136 140.614 47.4137 139.85 46.8807C139.108 46.3699 138.591 45.5926 138.438 44.708C138.145 43.0683 136.689 41.1362 135.161 40.407C133.479 39.5853 132.76 37.5681 133.591 35.884C134.333 34.3775 134.288 31.9569 133.501 30.4948C133.074 29.6953 132.985 28.7885 133.254 27.9224C133.524 27.0563 134.108 26.3493 134.913 25.9274C136.393 25.1501 137.808 23.1773 138.056 21.5117C138.19 20.6233 138.662 19.8276 139.378 19.2946C140.119 18.7394 141.018 18.5173 141.913 18.6505C143.572 18.8948 145.909 18.0953 147.074 16.8998C148.377 15.5673 150.553 15.5229 151.898 16.8332C153.111 17.988 155.445 18.6949 157.104 18.4062C158.003 18.2508 158.898 18.4506 159.662 18.9836C160.403 19.4944 160.92 20.2717 161.077 21.1563C161.37 22.796 162.826 24.7281 164.354 25.461C166.036 26.2827 166.755 28.2999 165.924 29.984C165.182 31.4942 165.227 33.9112 166.014 35.3732C166.441 36.1727 166.53 37.0795 166.261 37.9456C165.991 38.8118 165.407 39.5187 164.602 39.9407C163.122 40.718 161.707 42.6908 161.459 44.3527C161.325 45.241 160.853 46.0368 160.137 46.5698C159.396 47.1028 158.497 47.3471 157.602 47.2138C155.943 46.9695 153.606 47.769 152.441 48.9646C151.767 49.653 150.894 49.9861 149.995 49.9861" fill="#408080"/>
<path id="Vector_42" d="M146.471 46.5916C147.819 46.5916 149.276 46.9914 150.22 47.6576C151.433 48.5237 153.138 48.2572 154.014 47.058C155.003 45.707 157.201 44.5966 158.883 44.5966C159.602 44.5966 160.295 44.3079 160.811 43.7971C161.328 43.2863 161.62 42.6201 161.598 41.8909C161.598 40.2068 162.699 38.0526 164.066 37.0569C165.28 36.1908 165.545 34.5067 164.65 33.3075C163.639 31.9565 163.261 29.558 163.774 27.9627C163.999 27.2743 163.931 26.5414 163.594 25.9233C163.257 25.2792 162.695 24.8129 162.002 24.5908C160.388 24.08 158.636 22.3737 158.119 20.7747C157.894 20.0863 157.4 19.5311 156.77 19.2238C156.119 18.8907 155.377 18.8463 154.684 19.0684C153.07 19.6014 150.643 19.2238 149.276 18.2245C148.692 17.8025 147.973 17.6471 147.258 17.7581C146.538 17.8691 145.913 18.2467 145.486 18.8463C144.497 20.1973 142.299 21.3077 140.617 21.3077C139.115 21.3077 137.902 22.5291 137.902 24.0134C137.902 25.6975 136.801 27.8517 135.434 28.8473C134.85 29.2693 134.468 29.8911 134.355 30.5981C134.243 31.3087 134.423 32.0157 134.85 32.5931C135.861 33.9441 136.243 36.3426 135.726 37.9379C135.501 38.6263 135.569 39.3592 135.906 39.9773C136.243 40.6213 136.805 41.0877 137.498 41.3098C139.112 41.8206 140.864 43.5269 141.381 45.1259C141.853 46.5435 143.378 47.2986 144.816 46.8544C145.31 46.6545 145.872 46.5879 146.475 46.5879M151.812 48.631C151.16 48.631 150.508 48.4312 149.95 48.0314C148.692 47.1431 146.426 46.7878 144.969 47.2541C143.31 47.7871 141.49 46.8988 140.951 45.2369C140.479 43.7971 138.842 42.1759 137.359 41.7095C136.55 41.443 135.902 40.8878 135.498 40.1365C135.116 39.3814 135.026 38.5412 135.295 37.7417C135.767 36.3019 135.408 34.0366 134.486 32.8189C133.992 32.1304 133.79 31.3124 133.902 30.4685C134.037 29.6246 134.486 28.8955 135.183 28.4069C136.419 27.5186 137.471 25.4791 137.471 23.9505C137.471 22.2219 138.887 20.8006 140.658 20.7784C142.209 20.7784 144.25 19.7346 145.149 18.4947C145.643 17.8062 146.385 17.3621 147.235 17.2288C148.089 17.0956 148.917 17.2954 149.613 17.784C150.872 18.6723 153.138 19.0277 154.617 18.5613C155.426 18.2948 156.276 18.3614 157.04 18.739C157.804 19.1165 158.366 19.7827 158.632 20.5563C159.104 21.9999 160.74 23.6173 162.223 24.0837C163.032 24.3502 163.684 24.9054 164.085 25.6568C164.467 26.4119 164.557 27.2521 164.287 28.0516C163.815 29.4951 164.175 31.7566 165.096 32.9743C165.59 33.6628 165.793 34.4808 165.68 35.3247C165.545 36.1686 165.096 36.8978 164.422 37.3864C163.186 38.2747 162.134 40.3141 162.134 41.8465C162.134 42.6904 161.796 43.4862 161.19 44.0858C160.583 44.6854 159.797 45.0185 158.946 45.0185C157.396 45.0185 155.355 46.0623 154.46 47.3023C153.785 48.1906 152.797 48.6347 151.812 48.6347" fill="#4D877F"/>
<path id="Vector_43" d="M149.771 45.7923C150.692 45.7923 151.609 45.9699 152.306 46.3252C152.89 46.614 153.583 46.6806 154.212 46.4807C154.842 46.2808 155.358 45.8367 155.669 45.2593C156.388 43.8638 158.227 42.5536 159.8 42.3093C161.167 42.0872 162.089 40.825 161.886 39.4704C161.639 37.938 162.336 35.7875 163.459 34.6808C163.931 34.2144 164.201 33.5926 164.201 32.9301C164.201 32.2675 163.931 31.642 163.459 31.1793C162.336 30.0689 161.643 27.9407 161.886 26.3898C162.111 25.0351 161.167 23.7729 159.8 23.5509C158.25 23.3066 156.388 21.9778 155.669 20.6009C155.377 20.0235 154.838 19.5793 154.212 19.3794C153.583 19.1796 152.89 19.224 152.306 19.5349C150.89 20.2456 148.625 20.2456 147.213 19.5349C146.628 19.2462 145.932 19.1796 145.306 19.3794C144.677 19.5793 144.138 20.0235 143.846 20.6009C143.127 21.9963 141.288 23.3066 139.715 23.5509C139.063 23.6619 138.479 23.995 138.078 24.5502C137.673 25.0832 137.516 25.7495 137.629 26.3898C137.876 27.9221 137.179 30.0726 136.059 31.1793C135.587 31.6457 135.318 32.2675 135.318 32.9301C135.318 33.5926 135.587 34.2181 136.059 34.6808C137.183 35.7912 137.876 37.9195 137.629 39.4704C137.516 40.1144 137.696 40.7769 138.078 41.3099C138.482 41.8429 139.044 42.1982 139.715 42.3093C141.265 42.5536 143.127 43.8824 143.846 45.2593C144.138 45.8367 144.677 46.2808 145.306 46.4807C145.935 46.6806 146.632 46.6362 147.213 46.3252C147.932 45.9699 148.849 45.7923 149.771 45.7923ZM153.448 47.0581C152.976 47.0581 152.527 46.9471 152.1 46.7472C150.842 46.1032 148.688 46.1032 147.434 46.7472C146.737 47.1025 145.928 47.1692 145.168 46.9249C144.404 46.6806 143.801 46.1698 143.441 45.4628C142.789 44.2192 141.063 42.9792 139.67 42.7571C138.883 42.6239 138.209 42.2242 137.741 41.5801C137.269 40.9361 137.089 40.1588 137.202 39.3852C137.426 38.012 136.752 35.9911 135.763 34.9954C135.202 34.4402 134.887 33.7074 134.887 32.9116C134.887 32.1158 135.202 31.3829 135.763 30.8277C136.775 29.8283 137.423 27.8333 137.202 26.4379C137.067 25.6606 137.269 24.887 137.741 24.243C138.213 23.599 138.909 23.177 139.67 23.066C141.059 22.8439 142.789 21.6039 143.441 20.3603C143.801 19.6718 144.407 19.1388 145.168 18.8983C145.932 18.654 146.741 18.7206 147.434 19.0759C148.692 19.72 150.845 19.72 152.1 19.0759C152.797 18.7206 153.606 18.654 154.366 18.8983C155.13 19.1426 155.733 19.6533 156.092 20.3603C156.744 21.6039 158.471 22.8439 159.864 23.066C161.478 23.3103 162.602 24.8167 162.332 26.4379C162.107 27.8148 162.781 29.832 163.766 30.8277C164.328 31.3829 164.643 32.1158 164.643 32.9116C164.643 33.7074 164.328 34.4439 163.766 34.9954C162.755 35.9948 162.107 37.9898 162.332 39.3852C162.579 40.9805 161.478 42.4906 159.864 42.7571C158.474 42.9792 156.744 44.2192 156.092 45.4628C155.733 46.1513 155.126 46.6843 154.366 46.9249C154.051 47.0137 153.759 47.0581 153.445 47.0581" fill="#5C8A7E"/>
<path id="Vector_44" d="M159.216 35.5686L158.811 35.4354C158.182 35.2355 157.463 35.1467 156.658 35.1467C154.639 35.1689 152.347 35.8129 150.486 36.8752C149.947 33.7254 150.194 30.0869 150.284 29.1357C151.048 29.5577 151.988 30.3793 152.594 32.5965L152.684 32.8852L152.729 32.5965C153.179 30.1129 151.471 28.5139 151.403 28.4509C151.471 28.4509 151.92 28.4509 152.572 28.7619C153.179 29.0284 154.074 29.628 154.95 30.8901L155.13 31.1566L155.063 30.8235C154.411 27.6515 151.785 27.0074 151.628 26.963C151.673 26.9408 152.505 26.3412 154.995 27.1407L155.22 27.2073L155.063 27.0296C153.538 25.2567 151.224 25.7416 150.954 25.786C151.044 25.5861 151.426 25.0975 152.19 24.5645L152.415 24.4091L152.123 24.4535C150.864 24.6312 150.171 25.2086 150.014 25.4306C149.992 25.1641 149.947 24.6534 149.767 24.2758L149.699 24.1426L149.632 24.2758C149.475 24.6534 149.407 25.1641 149.385 25.4306C149.227 25.2308 148.531 24.6312 147.276 24.4535L146.984 24.4091L147.209 24.5645C147.973 25.0753 148.332 25.5639 148.445 25.786C148.22 25.7416 145.864 25.253 144.336 27.0296L144.179 27.2073L144.404 27.1407C146.894 26.319 147.748 26.9186 147.771 26.963C147.613 27.0074 144.988 27.6515 144.336 30.8235L144.269 31.1566L144.449 30.8901C145.325 29.628 146.22 29.0284 146.827 28.7619C147.456 28.4732 147.905 28.4509 147.995 28.4509C147.928 28.5176 146.224 30.1129 146.67 32.5965L146.714 32.8852L146.804 32.5965C147.411 30.3793 148.355 29.5799 149.115 29.1357C149.183 30.0684 149.43 33.7254 148.913 36.8752C147.052 35.8092 144.759 35.1689 142.741 35.1467H142.651C141.864 35.1467 141.172 35.2355 140.587 35.4354L140.183 35.5686H140.61C144.134 35.5686 146.265 36.4348 148.711 37.919C148.666 37.9634 148.598 38.0078 148.531 38.0522C147.52 38.7629 145.164 40.447 143.999 40.447C143.797 40.447 143.617 40.4248 143.437 40.3804L143.213 40.3138L143.392 40.5136C143.527 40.6691 143.864 41.0688 144.471 41.0688C145.909 41.0688 147.883 39.7178 149.07 38.8961C149.295 38.7407 149.497 38.6074 149.632 38.5186C149.789 38.6074 149.992 38.7407 150.216 38.8961C151.407 39.7178 153.381 41.0688 154.819 41.0688C155.426 41.0688 155.74 40.6913 155.898 40.5136L156.077 40.3138L155.853 40.3804C155.695 40.4248 155.493 40.447 155.291 40.447C154.122 40.447 151.767 38.7629 150.759 38.0522C150.692 38.0078 150.624 37.9634 150.58 37.919C153.025 36.4348 155.16 35.5686 158.68 35.5686H159.22H159.216Z" fill="#025F53"/>
</g>
</g>
</svg>
