<svg width="64" height="65" viewBox="0 0 64 65" fill="none" xmlns="http://www.w3.org/2000/svg">
<g id="Asset 8 1" clip-path="url(#clip0_268_35939)">
<g id="Layer_1">
<g id="Group">
<path id="Vector" d="M25.6303 33.8689C26.6231 33.8689 27.8305 34.3147 28.4916 34.9681L30.6785 37.1294C31.0102 37.4572 31.448 37.6277 31.9102 37.6277C32.3723 37.6277 32.8124 37.4441 33.1419 37.1294L35.3288 34.9681C36.0828 34.2207 37.5688 33.7377 38.628 33.9082L41.6883 34.3933C42.6414 34.5376 43.5303 33.8951 43.6762 32.9663L44.1671 29.9418C44.3396 28.895 45.2528 27.6494 46.2081 27.1664L48.9633 25.7787C49.8235 25.346 50.1552 24.3123 49.7173 23.4601L48.3132 20.7371C47.8223 19.7952 47.8223 18.248 48.3132 17.3061L49.7173 14.5832C49.9296 14.1767 49.9694 13.7069 49.8235 13.2742C49.6775 12.8415 49.3724 12.4765 48.9633 12.2667L46.2081 10.879C45.2551 10.3939 44.3396 9.15043 44.1671 8.10365L43.6762 5.07913C43.6099 4.62021 43.3578 4.22684 42.973 3.95368C42.6016 3.67832 42.1394 3.57343 41.675 3.63899L38.6147 4.12413C37.5555 4.29459 36.0718 3.80944 35.3155 3.06424L33.1286 0.902935C32.7969 0.575133 32.3591 0.404676 31.8969 0.404676C31.4348 0.404676 30.997 0.588245 30.6653 0.902935L28.4783 3.06424C27.7221 3.81163 26.2384 4.29459 25.1792 4.12413L22.1188 3.63899C21.1658 3.49475 20.2769 4.13725 20.1309 5.06602L19.64 8.09053C19.4675 9.13731 18.5543 10.383 17.599 10.8659L14.8438 12.2536C14.4325 12.4634 14.1274 12.8174 13.9814 13.2611C13.8355 13.6938 13.8753 14.1658 14.0876 14.5701L15.4917 17.293C15.9826 18.2349 15.9826 19.7821 15.4917 20.724L14.0876 23.447C13.8753 23.8534 13.8355 24.3255 13.9814 24.756C14.1274 25.1887 14.4325 25.5536 14.8438 25.7634L17.599 27.1511C18.5521 27.6363 19.4675 28.8797 19.64 29.9265L20.1309 32.951C20.2769 33.8929 21.1768 34.5354 22.1188 34.378L25.1792 33.8929C25.3251 33.8798 25.4843 33.8667 25.6303 33.8667M31.9124 37.903C31.3684 37.903 30.8665 37.6932 30.4817 37.3261L28.2948 35.1648C27.5916 34.4698 26.214 34.0262 25.2345 34.1835L22.1741 34.6687C21.0751 34.8392 20.0402 34.0918 19.8678 33.0056L19.3769 29.9811C19.2177 29.013 18.3708 27.8461 17.4818 27.4024L14.7266 26.0147C14.249 25.7787 13.893 25.3591 13.7205 24.8499C13.548 24.3386 13.6011 23.8032 13.8399 23.3311L15.2441 20.6082C15.6952 19.7297 15.6952 18.3026 15.2441 17.4263L13.8532 14.6903C13.6144 14.2182 13.5613 13.6828 13.7338 13.1715C13.9063 12.6601 14.2512 12.2536 14.7399 12.0067L17.4951 10.619C18.3818 10.1732 19.2309 9.02149 19.3901 8.03809L19.881 5.01357C20.0535 3.92745 21.0862 3.18006 22.1874 3.35052L25.2477 3.83567C26.2273 3.99301 27.6071 3.5472 28.3081 2.85445L30.495 0.693142C30.8798 0.312892 31.3839 0.116211 31.9257 0.116211C32.4674 0.116211 32.9716 0.326004 33.3564 0.693142L35.5433 2.85445C36.2464 3.54939 37.6241 3.99301 38.6036 3.83567L41.664 3.35052C42.1947 3.27185 42.7232 3.38986 43.161 3.70455C43.5988 4.01924 43.8907 4.47816 43.9681 5.00046L44.459 8.02497C44.6182 8.99308 45.4651 10.1601 46.354 10.6037L49.1092 11.9914C49.5869 12.2274 49.9451 12.647 50.1154 13.1562C50.2878 13.6675 50.2348 14.2029 49.996 14.675L48.5918 17.3979C48.1407 18.2742 48.1407 19.7035 48.5918 20.5798L49.996 23.3027C50.5001 24.2861 50.1021 25.4902 49.1092 25.9885L46.354 27.3762C45.4673 27.822 44.6182 28.9737 44.459 29.9549L43.9681 32.9794C43.7956 34.0655 42.763 34.8129 41.6618 34.6425L38.6014 34.1573C37.6218 34 36.242 34.4458 35.5411 35.1385L33.3409 37.3261C32.9561 37.6932 32.452 37.903 31.9102 37.903" fill="#025F53"/>
<path id="Vector_2" d="M26.5059 33.1631C27.658 33.1631 29.0113 33.622 29.7786 34.3148L31.1562 35.5582C32.0185 36.3297 33.3564 36.2794 34.1502 35.4271L35.4084 34.0656C36.2686 33.1369 38.0177 32.4813 39.2913 32.6255L41.1466 32.8353C41.7038 32.9009 42.2588 32.7435 42.6966 32.3895C43.1345 32.0355 43.4264 31.5372 43.4794 30.9887L43.6917 29.1552C43.8376 27.8986 44.857 26.3667 45.9715 25.7373L47.6012 24.8195C48.0921 24.5441 48.4503 24.0983 48.5962 23.5629C48.7422 23.0253 48.6758 22.4636 48.3972 21.9785L47.4707 20.3679C46.8339 19.2687 46.7543 17.4352 47.285 16.2682L48.0545 14.592C48.5321 13.5453 48.0677 12.2996 47.0086 11.8167L45.3125 11.0562C44.1472 10.5317 42.9797 9.09153 42.7276 7.84807L42.3561 6.04078C42.1173 4.91533 41.005 4.18106 39.8508 4.40396L38.0221 4.7711C36.7639 5.02023 34.975 4.53508 34.0197 3.68498L32.6421 2.44152C31.7797 1.66791 30.4419 1.72036 29.6481 2.57264L28.3899 3.93411C27.5297 4.86288 25.7806 5.51849 24.507 5.37426L22.6517 5.16446C22.0945 5.0989 21.5395 5.25625 21.1016 5.61027C20.6638 5.9643 20.3719 6.46256 20.3189 7.01108L20.1066 8.84458C19.9606 10.1012 18.9413 11.6331 17.8268 12.2625L16.1971 13.1803C15.7062 13.4557 15.348 13.9015 15.2043 14.4369C15.0583 14.9745 15.1247 15.5361 15.4033 16.0213L16.332 17.6319C16.9688 18.7311 17.0484 20.5646 16.5177 21.7316L15.7482 23.4077C15.2706 24.4545 15.735 25.7001 16.7941 26.1831L18.5034 26.9436C19.6688 27.4681 20.8363 28.9082 21.0862 30.1517L21.4577 31.959C21.5771 32.5097 21.8955 32.9795 22.3731 33.2811C22.8507 33.5958 23.4058 33.7007 23.963 33.5827L25.7917 33.2155C26.004 33.1762 26.2561 33.1631 26.5081 33.1631M32.5868 36.3843C32.0031 36.3843 31.4348 36.1745 30.9704 35.768L29.5928 34.5246C28.7039 33.7269 27.0211 33.268 25.8426 33.504L24.0139 33.8712C23.3903 34.0023 22.7557 33.8711 22.2117 33.5302C21.681 33.1762 21.3117 32.6517 21.179 32.0376L20.8075 30.2304C20.5687 29.0656 19.483 27.7172 18.3818 27.219L16.6858 26.4585C16.102 26.1962 15.6664 25.7242 15.4409 25.1363C15.2153 24.5463 15.2419 23.906 15.5072 23.329L16.2767 21.6529C16.7809 20.5668 16.7013 18.8513 16.1042 17.8023L15.1777 16.1917C14.8593 15.641 14.7797 15.0007 14.9522 14.3975C15.1247 13.7813 15.5227 13.2852 16.0777 12.9705L17.7074 12.0527C18.7533 11.4626 19.7218 10.0225 19.8545 8.84458L20.0668 7.01108C20.1331 6.3817 20.4515 5.82007 20.9535 5.4267C21.4577 5.03334 22.079 4.84977 22.7159 4.92844L24.5711 5.13824C25.7629 5.26936 27.4059 4.6662 28.2152 3.78988L29.4734 2.42841C30.3601 1.47341 31.8859 1.39474 32.8522 2.28418L34.2298 3.52764C35.1165 4.32529 36.7993 4.78421 37.9801 4.54819L39.8088 4.18106C41.1068 3.91882 42.365 4.74488 42.6303 6.02767L43.0018 7.83495C43.2406 8.99974 44.3263 10.3481 45.4275 10.8464L47.1236 11.6047C48.3287 12.1423 48.8594 13.5562 48.3154 14.7341L47.5459 16.4102C47.0417 17.4964 47.1213 19.2119 47.7184 20.2608L48.6449 21.8714C48.9633 22.4221 49.0429 23.0624 48.8704 23.6656C48.698 24.2819 48.2999 24.7779 47.7449 25.0926L46.1152 26.0083C45.0693 26.5983 44.1008 28.0385 43.9681 29.2164L43.7558 31.0499C43.6895 31.6792 43.3711 32.2409 42.8669 32.6342C42.3627 33.0276 41.7414 33.2112 41.1045 33.1325L39.2493 32.9227C38.0575 32.7916 36.4145 33.3947 35.6052 34.2711L34.347 35.6325C33.8826 36.1308 33.2325 36.3777 32.5846 36.3777" fill="#00695A"/>
<path id="Vector_3" d="M27.4988 32.4681C28.7702 32.4681 30.2142 32.9139 31.1031 33.6197L31.6073 34.0393C32.6664 34.9025 34.2431 34.7605 35.1187 33.7115L35.5433 33.2133C36.4985 32.0747 38.471 31.2224 39.9547 31.3142L40.6181 31.3535C41.2814 31.3929 41.9161 31.17 42.4202 30.7373C42.9244 30.3046 43.2163 29.7036 43.2539 29.048L43.2937 28.3924C43.3865 26.926 44.4855 25.0794 45.7327 24.2927L46.2899 23.9387C47.442 23.2044 47.7869 21.6856 47.0594 20.5339L46.7012 19.9832C45.9052 18.7397 45.6951 16.6177 46.2368 15.2432L46.4757 14.64C46.9798 13.3703 46.343 11.9433 45.0715 11.445L44.4612 11.209C43.0703 10.6714 41.6397 9.07394 41.2682 7.64691L41.109 7.01753C40.764 5.7085 39.3997 4.90867 38.0751 5.24958L37.4383 5.40693C35.9944 5.77407 33.8871 5.31514 32.735 4.37326L32.2308 3.95367C31.7134 3.53409 31.0655 3.33741 30.4021 3.40297C29.7388 3.46853 29.1439 3.78322 28.7194 4.28147L28.2948 4.77973C27.3418 5.9183 25.3671 6.77058 23.8834 6.6788L23.22 6.63946C22.5566 6.60013 21.922 6.82303 21.4179 7.25573C20.9137 7.68843 20.6218 8.2894 20.5842 8.945L20.5444 9.6006C20.4515 11.067 19.3526 12.9136 18.1054 13.7003L17.5482 14.0543C16.9909 14.4084 16.6084 14.9591 16.4625 15.5994C16.3165 16.2419 16.4359 16.9084 16.7941 17.4591L17.1524 18.0098C17.9484 19.2533 18.1585 21.3752 17.6167 22.7498L17.3779 23.353C17.1391 23.9692 17.1524 24.6358 17.4177 25.2389C17.6831 25.8421 18.1717 26.3119 18.7821 26.548L19.3924 26.784C20.7832 27.3216 22.2139 28.9191 22.5854 30.3461L22.7446 30.9755C23.0896 32.2845 24.4539 33.0843 25.7784 32.7434L26.4153 32.5861C26.7337 32.5205 27.1052 32.4681 27.501 32.4681M33.1839 34.8763C32.5603 34.8763 31.9389 34.6665 31.4215 34.2469L30.9174 33.8273C29.8316 32.9357 27.8305 32.5052 26.4661 32.8439L25.8293 33.0013C24.3455 33.3815 22.8353 32.503 22.4505 31.0367L22.2913 30.4073C21.9331 29.0589 20.582 27.5401 19.2707 27.0287L18.6604 26.7927C17.9705 26.5305 17.4288 26.006 17.1369 25.3395C16.845 24.6707 16.8317 23.9255 17.0971 23.2437L17.3359 22.6406C17.8533 21.3446 17.6543 19.3276 16.8981 18.1497L16.5399 17.599C16.1418 16.9827 16.0092 16.2506 16.1684 15.5294C16.3276 14.8083 16.7654 14.2073 17.3868 13.8139L17.944 13.4599C19.1359 12.7125 20.1707 10.9708 20.2636 9.57001L20.3034 8.91441C20.3432 8.18013 20.6749 7.5136 21.2321 7.02845C21.7893 6.54331 22.5036 6.29418 23.2333 6.34663L23.8967 6.38596C25.3141 6.47775 27.1826 5.6648 28.0848 4.59179L28.5093 4.09354C28.9737 3.52972 29.6481 3.17788 30.3778 3.11232C31.1208 3.04676 31.835 3.25655 32.4055 3.72858L32.9097 4.14817C33.9954 5.0376 35.9966 5.4703 37.3609 5.12939L37.9978 4.97204C39.4815 4.59179 40.9918 5.4703 41.3765 6.93667L41.5357 7.56605C41.894 8.91441 43.245 10.4332 44.5563 10.9446L45.1666 11.1806C46.584 11.7313 47.2872 13.3288 46.7299 14.7296L46.4911 15.3328C45.9737 16.6287 46.1727 18.6457 46.929 19.8236L47.2872 20.3744C48.1098 21.644 47.725 23.3464 46.4381 24.1594L45.8808 24.5134C44.689 25.2586 43.6541 27.0025 43.5612 28.4033L43.5214 29.0589C43.4816 29.7932 43.1499 30.4597 42.5949 30.9449C42.0377 31.43 41.3235 31.6791 40.5938 31.6267L39.9304 31.5874C38.5262 31.4956 36.6445 32.3085 35.7423 33.3815L35.3177 33.8798C34.787 34.5354 33.9932 34.8741 33.1839 34.8741" fill="#05705F"/>
<path id="Vector_4" d="M28.7702 31.7467C30.0019 31.7467 31.353 32.1138 32.2286 32.741C32.7859 33.1475 33.4736 33.3048 34.1635 33.1999C34.8534 33.095 35.4615 32.7279 35.8595 32.1794C36.7749 30.949 38.7739 29.9394 40.3262 29.9394H40.3395C41.7701 29.9394 42.9355 28.7877 42.9355 27.3716C42.9355 25.8397 43.9548 23.8619 45.2153 22.9594C46.3806 22.1202 46.6327 20.5096 45.799 19.3711C44.8836 18.1276 44.5408 15.9401 45.0162 14.4737C45.4673 13.1253 44.7111 11.6721 43.3468 11.2263C41.8763 10.7542 40.2864 9.18298 39.8088 7.71661C39.3709 6.36825 37.9005 5.62087 36.5361 6.06668C35.0656 6.53871 32.8389 6.18468 31.594 5.27995C31.0368 4.87348 30.3491 4.71613 29.6592 4.82103C28.9693 4.92593 28.3612 5.29306 27.9631 5.84159C27.0477 7.07193 25.0487 8.08156 23.4964 8.08156H23.4832C22.0525 8.08156 20.8849 9.23324 20.8849 10.6493C20.8849 12.1813 19.8656 14.159 18.6052 15.0616C18.0479 15.468 17.6764 16.0559 17.5725 16.7377C17.4664 17.4195 17.6256 18.0992 18.0369 18.6499C18.9523 19.8934 19.2951 22.0809 18.8196 23.5472C18.6074 24.2029 18.6604 24.8956 18.9789 25.5119C19.2973 26.1281 19.828 26.5849 20.4891 26.7947C21.9596 27.2667 23.5495 28.838 24.0271 30.3043C24.4649 31.6527 25.9354 32.4001 27.2998 31.9543C27.7243 31.81 28.2395 31.7445 28.7702 31.7445M33.7522 33.5015C33.1419 33.5015 32.5603 33.3179 32.0694 32.9639C30.8776 32.1138 28.7702 31.7729 27.3661 32.2165C25.8558 32.7017 24.2261 31.8756 23.7352 30.383C23.2841 28.9953 21.7739 27.5027 20.3697 27.0569C19.64 26.8209 19.0452 26.3226 18.7002 25.643C18.3553 24.9612 18.2889 24.1897 18.5278 23.4686C18.9789 22.0809 18.6604 19.9982 17.7848 18.8203C17.3337 18.2041 17.1479 17.4589 17.2806 16.6984C17.4 15.9379 17.8113 15.2845 18.4327 14.8386C19.6245 13.9864 20.5931 12.1026 20.5931 10.6472C20.5931 9.0759 21.8911 7.80621 23.4677 7.80621H23.4809C24.9514 7.80621 26.8465 6.85121 27.7221 5.67113C28.1732 5.05486 28.8344 4.66368 29.6039 4.54568C30.3734 4.42767 31.1274 4.61124 31.751 5.05705C32.9429 5.90715 35.0502 6.24806 36.4543 5.80225C37.9646 5.3171 39.5943 6.14316 40.0852 7.63575C40.5363 9.02345 42.0465 10.516 43.4507 10.9618C44.961 11.447 45.7835 13.0576 45.2926 14.5502C44.8416 15.9379 45.1732 18.0205 46.0356 19.1984C46.9621 20.4681 46.6857 22.2492 45.3855 23.1801C44.1937 24.0324 43.2251 25.9162 43.2251 27.3716C43.2251 28.9429 41.9271 30.2125 40.3505 30.2125H40.3372C38.8668 30.2125 36.9585 31.1697 36.0961 32.3476C35.645 32.9639 34.9838 33.3551 34.2143 33.4731C34.0551 33.4862 33.8959 33.4993 33.75 33.4993" fill="#0B7864"/>
<path id="Vector_5" d="M30.2695 30.9233C31.2888 30.9233 32.3635 31.1724 33.1043 31.6313C33.6482 31.9722 34.2829 32.0771 34.9064 31.9329C35.53 31.7887 36.0585 31.4215 36.4034 30.8861C37.1575 29.682 38.9464 28.6199 40.3793 28.5281C41.0161 28.4888 41.5977 28.2003 42.0222 27.7174C42.4468 27.2322 42.6458 26.6313 42.606 26.0019C42.5131 24.588 43.3224 22.6889 44.4214 21.7842C45.4275 20.9472 45.5602 19.4524 44.7266 18.445C43.8001 17.3588 43.3357 15.3549 43.6939 13.9803C44.0123 12.7106 43.2296 11.4256 41.9581 11.1131C40.5672 10.7722 39.0039 9.42385 38.4599 8.10172C38.2211 7.51168 37.77 7.05494 37.1752 6.80581C36.5914 6.55668 35.9302 6.54357 35.3465 6.77959C34.0219 7.30407 31.9412 7.13361 30.7228 6.37311C29.6105 5.67817 28.1246 6.01909 27.4236 7.1205C26.6541 8.32463 24.8807 9.3867 23.4478 9.47849C22.1365 9.57027 21.1282 10.6957 21.2211 12.0047C21.3139 13.4187 20.5046 15.3177 19.4056 16.2203C18.3995 17.0594 18.2668 18.552 19.1005 19.5595C20.027 20.6456 20.4913 22.6496 20.1331 24.0241C19.9739 24.6404 20.0801 25.2676 20.3985 25.8183C20.7302 26.3559 21.2476 26.7471 21.8689 26.8913C23.2598 27.2322 24.8232 28.5806 25.3671 29.9027C25.6059 30.4928 26.057 30.9495 26.6519 31.1986C27.2356 31.4478 27.8968 31.4609 28.4806 31.2249C29.0113 31.0151 29.6326 30.9233 30.2695 30.9233ZM34.3757 32.2585C33.8848 32.2585 33.3962 32.1274 32.9716 31.852C31.8195 31.144 29.8582 30.9757 28.6 31.4718C27.9366 31.734 27.2091 31.7209 26.559 31.4456C25.8956 31.1702 25.3937 30.6588 25.1283 30.0054C24.6242 28.762 23.1404 27.4792 21.8159 27.1645C21.126 26.994 20.5444 26.5613 20.1729 25.9604C19.8014 25.3572 19.6953 24.6382 19.8678 23.9564C20.1995 22.6605 19.7616 20.7614 18.8882 19.7256C17.9484 18.6132 18.0921 16.9371 19.2199 16.0061C20.2658 15.1429 21.0353 13.3618 20.9424 12.0113C20.8363 10.558 21.9486 9.30147 23.419 9.19658C24.7701 9.10479 26.4661 8.11046 27.1826 6.96971C27.9653 5.73936 29.6216 5.35911 30.8665 6.13272C32.0186 6.84078 33.9799 7.00905 35.2381 6.51297C35.9015 6.25073 36.6157 6.26385 37.2791 6.5392C37.9425 6.81455 38.4444 7.32592 38.7098 7.97934C39.2139 9.2228 40.6977 10.5078 42.0222 10.8203C43.4529 11.1743 44.3285 12.6145 43.9703 14.0284C43.6386 15.3243 44.0765 17.2233 44.9499 18.257C45.8897 19.3694 45.7459 21.0455 44.6182 21.9765C43.5723 22.8397 42.8028 24.6207 42.8957 25.9713C42.9487 26.6793 42.7099 27.3459 42.2456 27.8835C41.7812 28.4211 41.1333 28.7336 40.4169 28.7882C39.0658 28.88 37.3698 29.8743 36.6533 31.0151C36.2818 31.6051 35.687 32.0225 34.9838 32.1798C34.7716 32.2454 34.5725 32.2585 34.3735 32.2585" fill="#14806A"/>
<path id="Vector_6" d="M31.8063 30.0581C32.6023 30.0581 33.3829 30.2154 33.9932 30.517C35.0656 31.0677 36.4057 30.6481 36.9607 29.5882C37.571 28.4234 39.1343 27.3089 40.4456 27.1122C41.6375 26.9286 42.4733 25.8163 42.2876 24.6362C42.0886 23.3403 42.6989 21.533 43.6386 20.6021C44.4988 19.7629 44.5121 18.3752 43.6519 17.5251C42.7232 16.5963 42.1284 14.7759 42.3539 13.4778C42.4468 12.9009 42.3141 12.3393 41.9691 11.8541C41.6242 11.3821 41.12 11.0674 40.5385 10.9778C39.2272 10.768 37.6771 9.64257 37.0801 8.46249C36.8147 7.95111 36.3636 7.55775 35.8086 7.37637C35.2514 7.1928 34.6566 7.23214 34.1259 7.49438C32.934 8.08442 31.0124 8.07131 29.8338 7.46815C29.3164 7.20591 28.7216 7.15346 28.1511 7.32392C27.5939 7.49438 27.1317 7.87463 26.8664 8.39692C26.2561 9.56171 24.6927 10.6762 23.3814 10.8729C22.1896 11.0565 21.3537 12.1688 21.5395 13.3467C21.7385 14.6426 21.1282 16.4499 20.1884 17.3678C19.3282 18.2048 19.315 19.5946 20.1751 20.4447C21.1016 21.3735 21.6854 23.1939 21.4731 24.492C21.3803 25.0689 21.5129 25.6306 21.8579 26.1157C22.2028 26.5877 22.707 26.9024 23.2886 26.992C24.5998 27.2018 26.1499 28.3273 26.7469 29.5074C27.0123 30.0187 27.4634 30.4099 28.0184 30.5935C28.5756 30.777 29.1705 30.7377 29.7012 30.4755C30.2849 30.2001 31.039 30.0559 31.8085 30.0559M34.9993 31.0415C34.6145 31.0415 34.2298 30.9497 33.8605 30.7661C32.7483 30.2023 30.9328 30.1892 29.8184 30.7399C29.2346 31.0284 28.5602 31.0808 27.9233 30.871C27.2865 30.6612 26.7845 30.2285 26.4927 29.6538C25.9354 28.5545 24.4782 27.4925 23.2333 27.2827C22.5832 27.1778 22.0149 26.8237 21.6301 26.2883C21.2454 25.7507 21.0862 25.1104 21.1923 24.4679C21.3913 23.2507 20.8474 21.5483 19.9739 20.6567C19.0209 19.7017 19.0209 18.1436 20.0004 17.1995C20.8894 16.3363 21.4577 14.6339 21.2719 13.4145C21.0596 12.0792 22.0016 10.8358 23.3527 10.626C24.5844 10.4424 26.0548 9.39563 26.6386 8.29421C26.9437 7.71728 27.4612 7.28677 28.0825 7.09009C28.7194 6.89341 29.3805 6.94586 29.9776 7.24743C31.0898 7.81125 32.9053 7.82436 34.0197 7.27366C34.6035 6.98519 35.2779 6.93274 35.9148 7.14254C36.5516 7.35233 37.0536 7.78503 37.3454 8.35977C37.9027 9.459 39.3599 10.5211 40.6048 10.7309C41.2549 10.8358 41.8232 11.1898 42.208 11.7252C42.5927 12.2628 42.7519 12.9031 42.6458 13.5456C42.4468 14.7628 42.9907 16.4652 43.8642 17.3568C44.8172 18.3118 44.8172 19.87 43.8376 20.8141C42.9509 21.6773 42.3804 23.3796 42.5662 24.5991C42.7785 25.9343 41.8365 27.1778 40.4854 27.3876C39.2537 27.5711 37.7833 28.6179 37.1995 29.7193C36.7617 30.5585 35.8882 31.0415 34.9993 31.0415Z" fill="#188072"/>
<path id="Vector_7" d="M28.2152 8.45097C27.4081 8.45097 26.6519 8.92301 26.3334 9.70755C25.8691 10.833 24.5313 12 23.3394 12.2994C22.2537 12.5747 21.6036 13.6608 21.8689 14.7229C22.1741 15.9008 21.7761 17.6294 20.98 18.5604C20.6351 18.9669 20.4759 19.4891 20.5157 20.0267C20.5687 20.5643 20.8208 21.0473 21.2321 21.3882C22.1719 22.1749 22.8751 23.7855 22.7955 25.0028C22.7159 26.102 23.565 27.0592 24.6772 27.1379C25.9089 27.2165 27.4324 28.1213 28.0958 29.1549C28.3877 29.6007 28.8388 29.9154 29.354 30.0313C29.8847 30.1493 30.4265 30.0575 30.8776 29.7821C31.9235 29.1396 33.6991 28.9692 34.8401 29.4281C35.3443 29.6248 35.886 29.6248 36.3902 29.4019C36.8943 29.1921 37.2791 28.7987 37.4759 28.3158C37.9403 27.1903 39.2781 26.0233 40.4699 25.7239C41.5556 25.4486 42.2057 24.3625 41.9404 23.3004C41.6352 22.1225 42.0333 20.407 42.8271 19.4629C43.1721 19.0564 43.3313 18.5342 43.2915 17.9966C43.2384 17.459 42.9863 16.976 42.575 16.6351C41.6352 15.8484 40.9321 14.2378 41.0117 13.0205C41.0913 11.9213 40.2422 10.9641 39.1299 10.8854C37.8982 10.8068 36.3747 9.90423 35.7113 8.86837C35.1143 7.9396 33.8694 7.65114 32.9163 8.23899C31.8704 8.88149 30.0948 9.05194 28.9538 8.59302C28.715 8.50124 28.4629 8.44879 28.213 8.44879M29.8316 30.3459C29.6592 30.3459 29.4867 30.3328 29.3142 30.2935C28.7172 30.1624 28.2019 29.7952 27.8835 29.286C27.2732 28.3179 25.8293 27.4788 24.6772 27.4001C23.4058 27.3214 22.4505 26.2353 22.5301 24.9765C22.6097 23.838 21.9463 22.3192 21.0596 21.5849C20.5953 21.1915 20.3034 20.6561 20.2525 20.0399C20.1995 19.4367 20.3852 18.8488 20.77 18.3768C21.5129 17.5005 21.8822 15.8877 21.6036 14.7885C21.2984 13.5712 22.0414 12.3387 23.2731 12.0262C24.3853 11.7508 25.6457 10.6647 26.0814 9.60265C26.559 8.43786 27.8968 7.87404 29.0754 8.33296C30.1478 8.75255 31.8173 8.60832 32.7859 8.00516C33.3033 7.67736 33.9246 7.58558 34.5217 7.7167C35.1187 7.84782 35.6339 8.21496 35.9524 8.72633C36.5627 9.69443 38.0066 10.5336 39.1587 10.6123C40.4301 10.691 41.3854 11.7771 41.3058 13.0358C41.2262 14.1744 41.8895 15.6932 42.7762 16.4275C43.2539 16.8208 43.5325 17.3563 43.5988 17.9725C43.6519 18.5757 43.4662 19.1635 43.0814 19.6356C42.3384 20.5119 41.9691 22.1225 42.2456 23.2239C42.5507 24.4411 41.8077 25.6737 40.5761 25.9862C39.4638 26.2615 38.2034 27.3476 37.7678 28.4097C37.5422 28.9735 37.1044 29.4172 36.5361 29.6532C35.9656 29.8892 35.3443 29.9023 34.7738 29.6794C33.7013 29.2598 32.0318 29.4041 31.0633 30.0072C30.6785 30.2301 30.2562 30.3481 29.8316 30.3481" fill="#1E8077"/>
<path id="Vector_8" d="M26.214 27.2299C27.3396 27.2299 28.7835 27.8986 29.4734 28.7487C29.7786 29.1289 30.2297 29.378 30.7316 29.4305C31.2358 29.4829 31.7245 29.3518 32.1092 29.0371C33.0114 28.3291 34.6411 28.0035 35.7401 28.3029C36.2177 28.434 36.7197 28.3684 37.1575 28.1324C37.5953 27.8833 37.9137 27.4899 38.0464 27.0201C38.3516 25.9339 39.4771 24.7145 40.5495 24.3102C41.5158 23.9562 42.0067 22.8832 41.6485 21.926C41.2505 20.8661 41.4362 19.2293 42.0598 18.2852C42.6303 17.433 42.3915 16.2813 41.5291 15.7175C40.5761 15.0881 39.7535 13.661 39.7004 12.5356C39.6606 11.515 38.7739 10.7283 37.7523 10.7677C36.6135 10.8201 35.09 10.1383 34.3735 9.24884C34.0684 8.86859 33.6173 8.61946 33.1153 8.56701C32.6112 8.51456 32.1225 8.64568 31.7377 8.96037C30.8377 9.66842 29.2059 9.99404 28.1069 9.69465C27.6292 9.56353 27.1273 9.62909 26.6895 9.86511C26.2516 10.1142 25.9332 10.5076 25.8005 10.9774C25.4954 12.0636 24.3699 13.2808 23.2952 13.6873C22.8308 13.8577 22.4616 14.1986 22.2493 14.6554C22.037 15.1012 22.0237 15.6104 22.1962 16.0693C22.5942 17.1292 22.4085 18.766 21.7849 19.7101C21.5063 20.1166 21.4134 20.6148 21.5196 21.0978C21.6257 21.5829 21.9043 22.0025 22.3156 22.2757C23.2687 22.9051 24.0912 24.3321 24.1443 25.4575C24.1974 26.4781 25.0708 27.2648 26.0924 27.2255H26.2118M30.9439 29.719C30.8643 29.719 30.7847 29.719 30.6918 29.7058C30.1213 29.6403 29.6061 29.3649 29.2479 28.9191C28.5845 28.0931 27.1671 27.4659 26.0946 27.5052C24.9028 27.5577 23.9077 26.6551 23.8546 25.475C23.8016 24.4151 23.0475 23.0908 22.1454 22.503C21.6677 22.1883 21.3382 21.7162 21.2321 21.1546C21.1127 20.5908 21.2321 20.0291 21.5373 19.5571C22.121 18.6786 22.3068 17.1467 21.922 16.1655C21.723 15.641 21.7363 15.0662 21.9751 14.5417C22.2139 14.0173 22.6385 13.6239 23.1802 13.4294C24.1863 13.0623 25.2345 11.9237 25.5131 10.901C25.659 10.3503 26.0305 9.90663 26.5192 9.61816C27.0234 9.34281 27.6049 9.26414 28.1489 9.42148C29.1815 9.69683 30.694 9.39526 31.5409 8.73965C31.992 8.38563 32.547 8.22828 33.1175 8.29384C33.688 8.3594 34.2033 8.63476 34.5615 9.08057C35.2249 9.90444 36.6555 10.5338 37.7147 10.4945C38.9066 10.442 39.9016 11.3446 39.9547 12.5247C40.0078 13.5846 40.7618 14.9089 41.664 15.4967C42.6568 16.1392 42.9222 17.4614 42.2743 18.4426C41.6905 19.3211 41.5048 20.853 41.8895 21.8342C42.3008 22.9335 41.7436 24.1529 40.6313 24.5703C39.6252 24.9374 38.5771 26.076 38.2985 27.0965C38.1525 27.6473 37.781 28.0909 37.2924 28.3793C36.7882 28.6547 36.2066 28.7334 35.6627 28.576C34.63 28.2876 33.1065 28.6023 32.2706 29.2579C31.8859 29.5594 31.4237 29.7168 30.9461 29.7168" fill="#35807E"/>
<path id="Vector_9" d="M28.0162 27.2691C29.009 27.2691 30.1766 27.6887 30.8377 28.3159C31.5277 28.9715 32.6266 28.9584 33.3033 28.2765C34.0463 27.516 35.53 27.02 36.5892 27.1642C37.0403 27.2298 37.5046 27.1117 37.8739 26.8364C38.2454 26.561 38.4842 26.1546 38.5506 25.7109C38.6965 24.6642 39.5965 23.3923 40.5517 22.9093C40.963 22.6995 41.2682 22.3324 41.4009 21.8888C41.5335 21.443 41.4937 20.984 41.2814 20.5798C40.7773 19.6379 40.7507 18.1038 41.2284 17.1488C41.6529 16.2987 41.2947 15.2628 40.4323 14.8432C39.466 14.3712 38.5373 13.1408 38.3516 12.0941C38.2719 11.6482 38.0199 11.2571 37.6351 10.9817C37.2504 10.7195 36.786 10.6146 36.3371 10.6933C35.2779 10.8768 33.792 10.4179 33.0114 9.68581C32.3215 9.03021 31.2225 9.04332 30.5459 9.72514C29.8029 10.4856 28.3191 10.9817 27.26 10.8375C26.8089 10.7719 26.3467 10.8899 25.9752 11.1653C25.6037 11.4406 25.3649 11.8471 25.2986 12.2907C25.1526 13.3375 24.2527 14.6094 23.2974 15.1055C22.8861 15.3153 22.581 15.6824 22.4505 16.1129C22.3178 16.5587 22.3576 17.0155 22.5699 17.4219C23.0741 18.3638 23.1006 19.8979 22.623 20.8529C22.1984 21.7052 22.5566 22.7389 23.419 23.1585C24.3853 23.6305 25.3141 24.8608 25.4998 25.9076C25.5794 26.3534 25.8315 26.7468 26.2162 27.02C26.601 27.2822 27.0632 27.3871 27.5142 27.3084C27.6735 27.2822 27.8459 27.2691 28.0184 27.2691M32.0429 29.0764C31.5387 29.0764 31.0368 28.8928 30.6387 28.5126C29.9223 27.8307 28.5447 27.4133 27.5651 27.5838C27.0344 27.6756 26.5059 27.5576 26.0548 27.2429C25.617 26.9413 25.3119 26.4824 25.2212 25.9601C25.0487 24.992 24.1885 23.8512 23.2864 23.4207C22.2935 22.9356 21.8689 21.7445 22.3598 20.7502C22.7977 19.8608 22.7711 18.4316 22.3068 17.5683C22.0547 17.0963 22.0016 16.5609 22.1608 16.0495C22.32 15.5382 22.665 15.1208 23.1404 14.8716C24.0139 14.4127 24.8497 13.2479 24.9956 12.2645C25.0752 11.74 25.3539 11.2702 25.7762 10.9555C26.214 10.6277 26.7447 10.4966 27.2732 10.5752C28.2528 10.7195 29.6326 10.2474 30.3203 9.54158C31.0898 8.75485 32.3746 8.72863 33.1684 9.50224C33.8848 10.1841 35.2624 10.6015 36.242 10.431C36.7727 10.3392 37.3012 10.4572 37.7523 10.7719C38.1901 11.0735 38.4953 11.5324 38.5882 12.0547C38.7606 13.0228 39.6208 14.1636 40.523 14.5963C41.5158 15.0814 41.9404 16.2724 41.4495 17.2668C41.0117 18.1584 41.0382 19.5854 41.5026 20.4486C41.7547 20.9207 41.8077 21.4561 41.6485 21.9674C41.4893 22.4788 41.1444 22.8962 40.6689 23.1453C39.7955 23.6043 38.9596 24.7691 38.8137 25.7503C38.7341 26.2748 38.4555 26.7446 38.0331 27.0593C37.5953 27.374 37.0646 27.5182 36.5361 27.4395C35.5565 27.2953 34.1767 27.7673 33.489 28.4732C33.091 28.8797 32.5758 29.0764 32.0451 29.0764" fill="#408080"/>
<path id="Vector_10" d="M29.9643 27.0721C30.7604 27.0721 31.6205 27.3081 32.1778 27.7014C32.8942 28.2128 33.9003 28.0555 34.4178 27.3474C35.0015 26.5498 36.2995 25.8942 37.2924 25.8942C37.7169 25.8942 38.126 25.7237 38.4312 25.4221C38.7363 25.1206 38.9088 24.7272 38.8955 24.2967C38.8955 23.3023 39.5456 22.0305 40.3527 21.4426C41.0692 20.9313 41.2262 19.9369 40.6977 19.2289C40.1006 18.4312 39.8773 17.0151 40.1803 16.0732C40.3129 15.6668 40.2731 15.2341 40.0741 14.8691C39.8751 14.4889 39.5434 14.2135 39.1343 14.0824C38.1813 13.7808 37.1464 12.7734 36.8413 11.8293C36.7086 11.4228 36.4167 11.095 36.0452 10.9136C35.6605 10.7169 35.2226 10.6907 34.8136 10.8218C33.8605 11.1365 32.4276 10.9136 31.6205 10.3236C31.2756 10.0745 30.851 9.98267 30.4287 10.0482C30.0041 10.1138 29.6348 10.3367 29.3828 10.6907C28.799 11.4884 27.501 12.144 26.5081 12.144C25.6214 12.144 24.905 12.8651 24.905 13.7415C24.905 14.7358 24.2549 16.0077 23.4478 16.5955C23.1028 16.8447 22.8773 17.2118 22.8109 17.6292C22.7446 18.0488 22.8507 18.4662 23.1028 18.8071C23.6999 19.6047 23.9254 21.0208 23.6203 21.9627C23.4876 22.3692 23.5274 22.8019 23.7264 23.1669C23.9254 23.5471 24.2571 23.8225 24.6662 23.9536C25.6192 24.2552 26.6541 25.2626 26.9592 26.2067C27.2378 27.0437 28.1378 27.4895 28.9869 27.2272C29.2788 27.1092 29.6105 27.0699 29.9665 27.0699M33.1175 28.2762C32.7328 28.2762 32.348 28.1582 32.0186 27.9222C31.2756 27.3977 29.9378 27.1879 29.0776 27.4632C28.098 27.7779 27.0234 27.2535 26.7049 26.2722C26.4263 25.4221 25.46 24.465 24.5844 24.1896C24.1067 24.0323 23.7242 23.7045 23.4854 23.2608C23.2598 22.815 23.2067 22.3189 23.366 21.8469C23.6446 20.9968 23.4323 19.6594 22.8883 18.9404C22.5964 18.5339 22.477 18.051 22.5434 17.5527C22.623 17.0544 22.8883 16.6239 23.2996 16.3355C24.0293 15.811 24.6507 14.6069 24.6507 13.7043C24.6507 12.6838 25.4865 11.8446 26.5325 11.8315C27.4479 11.8315 28.653 11.2152 29.1837 10.4831C29.4756 10.0766 29.9135 9.8144 30.4154 9.73573C30.9196 9.65706 31.4082 9.77507 31.8195 10.0635C32.5625 10.588 33.9003 10.7978 34.7738 10.5225C35.2514 10.3651 35.7533 10.4044 36.2044 10.6274C36.6555 10.8503 36.9872 11.2436 37.1442 11.7004C37.4228 12.5526 38.3891 13.5076 39.2648 13.783C39.7424 13.9403 40.1272 14.2681 40.3638 14.7118C40.5893 15.1576 40.6424 15.6536 40.4832 16.1257C40.2046 16.978 40.4169 18.3132 40.9608 19.0322C41.2527 19.4387 41.3721 19.9216 41.3058 20.4199C41.2262 20.9181 40.9608 21.3487 40.5628 21.6371C39.8331 22.1616 39.2117 23.3657 39.2117 24.2705C39.2117 24.7687 39.0127 25.2386 38.6545 25.5926C38.2963 25.9466 37.8319 26.1433 37.33 26.1433C36.4145 26.1433 35.2094 26.7596 34.6809 27.4917C34.2829 28.0161 33.6991 28.2784 33.1175 28.2784" fill="#4D877F"/>
<path id="Vector_11" d="M31.9124 26.6003C32.4564 26.6003 32.9981 26.7052 33.4094 26.915C33.7544 27.0854 34.1635 27.1247 34.5349 27.0067C34.9064 26.8887 35.2116 26.6265 35.3951 26.2856C35.8197 25.4617 36.9054 24.6881 37.8341 24.5439C38.6412 24.4127 39.1852 23.6675 39.0658 22.8677C38.9198 21.963 39.3311 20.6933 39.9945 20.0399C40.2731 19.7645 40.4323 19.3974 40.4323 19.0062C40.4323 18.615 40.2731 18.2457 39.9945 17.9725C39.3311 17.3169 38.9221 16.0603 39.0658 15.1447C39.1985 14.3449 38.6412 13.5996 37.8341 13.4685C36.9187 13.3243 35.8197 12.5398 35.3951 11.7268C35.2226 11.3859 34.9042 11.1237 34.5349 11.0056C34.1635 10.8876 33.7544 10.9139 33.4094 11.0974C32.5736 11.517 31.2358 11.517 30.4021 11.0974C30.0572 10.927 29.6459 10.8876 29.2766 11.0056C28.9051 11.1237 28.5867 11.3859 28.4142 11.7268C27.9897 12.5507 26.9039 13.3243 25.9752 13.4685C25.5905 13.5341 25.2455 13.7308 25.0089 14.0586C24.7701 14.3733 24.6772 14.7666 24.7436 15.1447C24.8895 16.0494 24.4782 17.3191 23.8171 17.9725C23.5384 18.2479 23.3792 18.615 23.3792 19.0062C23.3792 19.3974 23.5384 19.7667 23.8171 20.0399C24.4804 20.6955 24.8895 21.952 24.7436 22.8677C24.6772 23.2479 24.7834 23.6391 25.0089 23.9538C25.2477 24.2685 25.5794 24.4783 25.9752 24.5439C26.8907 24.6881 27.9897 25.4726 28.4142 26.2856C28.5867 26.6265 28.9051 26.8887 29.2766 27.0067C29.6481 27.1247 30.0594 27.0985 30.4021 26.915C30.8267 26.7052 31.3685 26.6003 31.9124 26.6003ZM34.0839 27.3477C33.8052 27.3477 33.5399 27.2821 33.2878 27.1641C32.5448 26.7838 31.2734 26.7838 30.5326 27.1641C30.1213 27.3739 29.6437 27.4132 29.1948 27.269C28.7437 27.1247 28.3877 26.8232 28.1754 26.4058C27.7907 25.6715 26.7713 24.9394 25.9487 24.8083C25.4843 24.7296 25.0863 24.4936 24.8099 24.1133C24.5313 23.7331 24.4251 23.2742 24.4915 22.8174C24.6242 22.0067 24.2261 20.8135 23.6424 20.2256C23.3107 19.8978 23.1249 19.4651 23.1249 18.9953C23.1249 18.5254 23.3107 18.0927 23.6424 17.7649C24.2394 17.1749 24.6219 15.997 24.4915 15.1731C24.4119 14.7142 24.5313 14.2574 24.8099 13.8772C25.0885 13.4969 25.4998 13.2478 25.9487 13.1822C26.7691 13.0511 27.7907 12.319 28.1754 11.5848C28.3877 11.1783 28.7459 10.8636 29.1948 10.7215C29.6459 10.5773 30.1235 10.6167 30.5326 10.8264C31.2756 11.2067 32.547 11.2067 33.2878 10.8264C33.6991 10.6167 34.1767 10.5773 34.6256 10.7215C35.0767 10.8658 35.4327 11.1674 35.645 11.5848C36.0297 12.319 37.0491 13.0511 37.8717 13.1822C38.8248 13.3265 39.4881 14.2159 39.3289 15.1731C39.1962 15.986 39.5943 17.1771 40.1758 17.7649C40.5075 18.0927 40.6933 18.5254 40.6933 18.9953C40.6933 19.4651 40.5075 19.9 40.1758 20.2256C39.5788 20.8157 39.1962 21.9936 39.3289 22.8174C39.4749 23.7593 38.8248 24.6509 37.8717 24.8083C37.0513 24.9394 36.0297 25.6715 35.645 26.4058C35.4327 26.8122 35.0745 27.1269 34.6256 27.269C34.4399 27.3214 34.2674 27.3477 34.0816 27.3477" fill="#5C8A7E"/>
<path id="Vector_12" d="M37.4892 20.5645L37.2504 20.4858C36.8789 20.3678 36.4543 20.3154 35.9789 20.3154C34.787 20.3285 33.4337 20.7088 32.3348 21.3359C32.0163 19.4762 32.1623 17.328 32.2154 16.7664C32.6664 17.0155 33.2215 17.5007 33.5797 18.8097L33.6328 18.9801L33.6593 18.8097C33.9246 17.3433 32.9163 16.3993 32.8765 16.3621C32.9163 16.3621 33.1817 16.3621 33.5664 16.5457C33.9246 16.703 34.4531 17.057 34.9706 17.8022L35.0767 17.9596L35.0369 17.7629C34.6521 15.8901 33.1021 15.5098 33.0092 15.4836C33.0357 15.4705 33.5266 15.1165 34.9971 15.5885L35.1298 15.6278L35.0369 15.5229C34.1369 14.4761 32.7704 14.7624 32.6112 14.7887C32.6642 14.6706 32.8898 14.3822 33.3409 14.0675L33.4736 13.9757L33.3011 14.0019C32.5581 14.1068 32.149 14.4477 32.0561 14.5789C32.0429 14.4215 32.0163 14.1199 31.9102 13.897L31.8704 13.8184L31.8306 13.897C31.7377 14.1199 31.6979 14.4215 31.6847 14.5789C31.5918 14.4609 31.1805 14.1068 30.4397 14.0019L30.2673 13.9757L30.3999 14.0675C30.851 14.3691 31.0633 14.6575 31.1296 14.7887C30.997 14.7624 29.6061 14.474 28.7039 15.5229L28.611 15.6278L28.7437 15.5885C30.2142 15.1033 30.7183 15.4574 30.7316 15.4836C30.6387 15.5098 29.0887 15.8901 28.7039 17.7629L28.6641 17.9596L28.7702 17.8022C29.2877 17.057 29.8162 16.703 30.1744 16.5457C30.5459 16.3752 30.8112 16.3621 30.8643 16.3621C30.8245 16.4014 29.8184 17.3433 30.0815 18.8097L30.108 18.9801L30.1611 18.8097C30.5193 17.5007 31.0766 17.0286 31.5254 16.7664C31.5653 17.3171 31.7112 19.4762 31.406 21.3359C30.3071 20.7066 28.9538 20.3285 27.7619 20.3154H27.7088C27.2445 20.3154 26.8354 20.3678 26.4904 20.4858L26.2516 20.5645H26.5037C28.5845 20.5645 29.8427 21.0759 31.2866 21.9522C31.2601 21.9784 31.2203 22.0047 31.1805 22.0309C30.5835 22.4505 29.1926 23.4448 28.5049 23.4448C28.3855 23.4448 28.2793 23.4317 28.1732 23.4055L28.0405 23.3661L28.1467 23.4841C28.2263 23.5759 28.4253 23.8119 28.7835 23.8119C29.6326 23.8119 30.7979 23.0143 31.4989 22.5291C31.6316 22.4374 31.751 22.3587 31.8306 22.3062C31.9235 22.3587 32.0429 22.4374 32.1756 22.5291C32.8787 23.0143 34.0441 23.8119 34.8932 23.8119C35.2514 23.8119 35.4371 23.589 35.53 23.4841L35.6361 23.3661L35.5035 23.4055C35.4106 23.4317 35.2912 23.4448 35.1718 23.4448C34.4819 23.4448 33.091 22.4505 32.4962 22.0309C32.4564 22.0047 32.4166 21.9784 32.39 21.9522C33.834 21.0759 35.0944 20.5645 37.173 20.5645H37.4914H37.4892Z" fill="#025F53"/>
<path id="Vector_13" d="M-0.000244141 57.4316H1.25795L3.06012 60.1174L3.11319 60.2464L3.13972 60.1174L4.95515 57.4316H5.63179V62.5519H4.90208V58.5309L4.83574 58.7276L3.3122 60.9282H2.88764L1.37736 58.7276L1.31102 58.5702V62.5519H0.583524V57.943L-0.000244141 57.7857V57.4316Z" fill="#025F53"/>
<path id="Vector_14" d="M7.76564 57.8635L7.1686 58.2306L6.81038 57.6275L7.42069 57.2734L7.76564 57.8635ZM7.64623 58.9889V62.5511H6.95633V59.4347L6.5185 59.3167V59.002H7.64402V58.9889H7.64623Z" fill="#025F53"/>
<path id="Vector_15" d="M12.1903 60.1413V62.5518H11.5004V60.3118C11.5004 59.7873 11.2749 59.5251 10.7973 59.4988C10.439 59.4726 10.0277 59.6824 9.55233 60.102V62.5518H8.86242V59.4355L8.42459 59.3043V58.9897H9.48378L9.53685 59.5928C10.041 59.1208 10.543 58.8848 11.0471 58.8848C11.7105 58.8979 12.1859 59.3306 12.1859 60.1413" fill="#025F53"/>
<path id="Vector_16" d="M14.1782 57.8635L13.5812 58.2306L13.223 57.6275L13.8333 57.2734L14.1782 57.8635ZM14.0588 58.9889V62.5511H13.3689V59.4347L12.9311 59.3167V59.002H14.0566V58.9889H14.0588Z" fill="#025F53"/>
<path id="Vector_17" d="M16.5885 62.6172C16.0313 62.6959 15.3966 62.6041 14.8527 62.3812L14.9853 61.8698C15.8477 62.1714 16.8937 62.2632 16.9202 61.6076C16.9202 61.4633 16.8671 61.3453 16.6548 61.2404C16.5487 61.188 16.4558 61.1355 16.3895 61.1093C16.3099 61.0831 16.1772 61.0306 15.9915 60.9651C15.2618 60.7028 14.8792 60.4406 14.9057 59.9052C14.9323 58.806 16.5222 58.7404 17.4376 59.1447L17.3049 59.6561C16.5885 59.3545 15.5558 59.3676 15.5691 59.8921C15.5691 60.0757 15.6753 60.1805 15.8743 60.2723C16.0202 60.351 16.0733 60.3641 16.2856 60.4297C16.3917 60.469 16.458 60.4952 16.5111 60.5215C17.2275 60.7837 17.6101 61.0459 17.5836 61.6207C17.5438 62.1714 17.1325 62.5385 16.5907 62.615" fill="#025F53"/>
<path id="Vector_18" d="M20.2857 62.4994C19.6887 62.6961 19.253 62.6961 18.9612 62.4732C18.6693 62.2634 18.5101 61.9487 18.5101 61.5182V59.5011H17.8998V59.1864L18.5101 58.9373V58.1396H19.2132V58.9919H19.9695V59.5164H19.2132V61.4417C19.2132 61.9793 19.4521 62.2022 20.1663 61.9793L20.2857 62.5038V62.4994Z" fill="#025F53"/>
<path id="Vector_19" d="M21.7164 59.5796C22.2338 59.0421 22.5898 58.7929 23.147 58.924L23.0807 59.5272C22.5898 59.4354 22.2581 59.6714 21.7429 60.209V62.5539H21.0397V59.4376L20.6019 59.3065V58.9918H21.6611L21.7142 59.5818L21.7164 59.5796Z" fill="#025F53"/>
<path id="Vector_20" d="M26.4352 58.9893H27.1494L25.1084 64.1095H24.3809L25.1482 62.276H24.8696L23.4655 58.9893H24.1686L25.3472 61.7646L26.4352 58.9893Z" fill="#025F53"/>
<path id="Vector_21" d="M31.1517 62.0797C31.4834 62.0797 31.7488 61.9617 31.9588 61.7257C32.1711 61.4897 32.264 61.1619 32.264 60.7576C32.264 60.3533 32.1579 60.0364 31.9588 59.8026C31.7466 59.5666 31.4812 59.4486 31.1517 59.4486C30.8223 59.4486 30.5414 59.5666 30.3446 59.8026C30.1324 60.0386 30.0395 60.3533 30.0395 60.7576C30.0395 61.1619 30.1456 61.4919 30.3446 61.7257C30.5569 61.9617 30.8223 62.0797 31.1517 62.0797ZM31.1517 62.6304C30.6078 62.6304 30.1832 62.4469 29.8405 62.106C29.4955 61.7519 29.323 61.3083 29.323 60.7576C29.323 60.2069 29.4955 59.7633 29.8405 59.4092C30.1854 59.0552 30.61 58.8848 31.1517 58.8848C31.6935 58.8848 32.1313 59.0552 32.463 59.4092C32.808 59.7633 32.9804 60.2069 32.9804 60.7576C32.9804 61.3083 32.808 61.765 32.463 62.106C32.1313 62.46 31.6957 62.6304 31.1517 62.6304Z" fill="#025F53"/>
<path id="Vector_22" d="M35.8153 57.5491C34.9418 57.3262 34.6632 57.5754 34.6632 58.0998V58.9893H35.5632V59.5138H34.6632V62.5383H33.9733V59.5138H33.4161V58.9893H33.9733V58.1108C33.9733 57.6519 34.1192 57.2978 34.4377 57.0771C34.7428 56.8542 35.2448 56.8411 35.9612 57.0247L35.8153 57.5491Z" fill="#025F53"/>
<path id="Vector_23" d="M41.7524 58.0217H39.3532V59.8945H41.3013V60.4824H39.3532V62.5519H38.6257V57.9561L38.0287 57.7857V57.4316H41.7524V58.0217Z" fill="#025F53"/>
<path id="Vector_24" d="M43.5546 57.8635L42.9576 58.2306L42.5993 57.6275L43.2097 57.2734L43.5546 57.8635ZM43.4352 58.9889V62.5511H42.7453V59.4347L42.3075 59.3167V59.002H43.433V58.9889H43.4352Z" fill="#025F53"/>
<path id="Vector_25" d="M47.9926 60.1413V62.5518H47.3027V60.3118C47.3027 59.7873 47.0771 59.5251 46.5995 59.4988C46.2413 59.4726 45.83 59.6824 45.3546 60.102V62.5518H44.6647V59.4355L44.2268 59.3043V58.9897H45.286L45.3391 59.5928C45.8432 59.1208 46.3452 58.8848 46.8494 58.8848C47.5127 58.8979 47.9881 59.3306 47.9881 60.1413" fill="#025F53"/>
<path id="Vector_26" d="M51.0795 61.5831L51.0927 60.8619C50.153 60.8095 49.7549 60.8357 49.5427 61.1241C49.3171 61.3864 49.3569 62.0529 49.9407 62.1185C50.2591 62.1447 50.6439 61.9611 51.0795 61.5809M48.9611 62.2496C48.7753 62.0136 48.6957 61.7382 48.7223 61.4629C48.7488 61.1875 48.8284 60.9646 48.9744 60.8073C49.1601 60.5975 49.3989 60.4664 49.7173 60.4139C50.0358 60.3746 50.5001 60.3615 51.0949 60.3877V59.9812C51.0949 59.4174 50.5112 59.2994 49.3326 59.6272L49.1999 59.1158C49.7837 58.9191 50.3387 58.8536 50.8827 58.906C51.4266 58.9585 51.7716 59.2994 51.7716 59.8741L51.7583 62.101L52.2094 62.219V62.5337H51.1502L51.1104 61.9961C50.6461 62.4288 50.2746 62.6648 49.7726 62.6386C49.4144 62.6255 49.149 62.4943 48.9633 62.2452" fill="#025F53"/>
<path id="Vector_27" d="M56.3931 60.1413V62.5518H55.7032V60.3118C55.7032 59.7873 55.4776 59.5251 55 59.4988C54.6418 59.4726 54.2305 59.6824 53.7551 60.102V62.5518H53.0652V59.4355L52.6273 59.3043V58.9897H53.6865L53.7396 59.5928C54.2438 59.1208 54.7457 58.8848 55.2499 58.8848C55.9132 58.8979 56.3887 59.3306 56.3887 60.1413" fill="#025F53"/>
<path id="Vector_28" d="M57.6778 62.1322C57.3594 61.7782 57.2002 61.3345 57.2002 60.7576C57.2002 60.1807 57.3594 59.7502 57.6645 59.3961C57.9697 59.0552 58.381 58.8848 58.8962 58.8848C59.334 58.8848 59.7431 59.0028 60.1279 59.2519L60.0085 59.737C59.6104 59.5141 59.2655 59.4224 58.9758 59.4355C58.3124 59.4486 57.9034 59.96 57.9034 60.7576C57.9034 61.5553 58.3146 62.0535 59.0023 62.0928C59.3473 62.106 59.7055 62.0011 60.1013 61.8044L60.2207 62.2895C59.8095 62.5124 59.3716 62.6436 58.9227 62.6436C58.4186 62.6567 57.994 62.4862 57.6778 62.1322Z" fill="#025F53"/>
<path id="Vector_29" d="M63.3497 60.4295C63.4027 59.8657 63.1772 59.4614 62.5005 59.4461C61.93 59.4461 61.5475 59.8264 61.4812 60.4295H63.3497ZM61.2291 62.1057C60.9239 61.7517 60.7647 61.308 60.7647 60.7573C60.7647 60.2066 60.9239 59.7499 61.2423 59.3959C61.5608 59.0418 61.9853 58.8714 62.5005 58.8845C63.8251 58.8845 64.1302 59.9313 63.9312 60.8884H61.4546C61.4679 61.6489 61.8924 62.0664 62.6597 62.0664C63.0312 62.0664 63.4027 61.9615 63.772 61.7779L63.8914 62.2499C63.5332 62.5122 63.0843 62.6433 62.5536 62.6433C61.9831 62.6433 61.5475 62.4597 61.2291 62.1057Z" fill="#025F53"/>
<path id="Vector_30" d="M54.5511 43.6289V44.0878L53.9165 44.2583V51.6688H52.9082V43.6289H54.5511Z" fill="#025F53"/>
<path id="Vector_31" d="M57.6911 44.8594L56.7778 45.4101L56.2339 44.4814L57.1759 43.9307L57.6911 44.8594Z" fill="#025F53"/>
<path id="Vector_32" d="M56.3533 46.5088V52.2453C56.3533 52.9271 56.3135 53.4232 55.2145 53.2134L55.0155 53.9739C57.0299 54.4328 57.3461 53.3314 57.3616 52.2191V47.1382L57.9852 46.9677V46.5088H56.3555H56.3533Z" fill="#025F53"/>
<path id="Vector_33" d="M49.6223 46.5088V52.2453C49.6223 52.9271 49.5825 53.4232 48.4835 53.2134L48.2845 53.9739C50.2989 54.4328 50.6151 53.3314 50.6306 52.2191V47.1382L51.2542 46.9677V46.5088H49.6245H49.6223Z" fill="#025F53"/>
<path id="Vector_34" d="M47.0395 44.8594L46.1241 45.4101L45.5668 44.4814L46.5088 43.9307L47.0395 44.8594Z" fill="#025F53"/>
<path id="Vector_35" d="M45.37 44.8594L44.4546 45.4101L43.9106 44.4814L44.8526 43.9307L45.37 44.8594Z" fill="#025F53"/>
<path id="Vector_36" d="M44.8261 50.8445C44.2821 50.8445 43.5015 50.5429 43.5015 49.1815C43.5015 47.3742 45.118 47.3217 45.715 47.3217H46.2722V50.8445H44.8283H44.8261ZM45.7128 46.5088C44.773 46.5088 42.4799 46.6792 42.4799 49.1793C42.4799 51.4848 44.2025 51.6684 44.8261 51.6684H47.2783V47.1513L47.9284 46.9677V46.5088H45.715H45.7128Z" fill="#025F53"/>
<path id="Vector_37" d="M62.9914 50.8445H61.8394C60.8863 50.8445 60.223 50.084 60.223 49.2208C60.223 48.6308 60.3689 48.174 60.6741 47.8331C60.9659 47.4922 61.3507 47.3217 61.8394 47.3217H62.9914V50.8445ZM63.9998 46.5088H61.8394C61.0588 46.5088 60.4352 46.7579 59.9443 47.2562C59.4534 47.7675 59.2014 48.4079 59.2014 49.2077C59.2014 51.015 60.8045 51.6575 61.8372 51.6575H63.0025C63.0025 53.3598 61.877 53.5172 60.035 52.9796L59.836 53.7532C61.1473 54.1466 62.1688 54.1466 62.8963 53.7401C63.6261 53.3336 63.9953 52.7064 63.9953 51.6575V46.511L63.9998 46.5088Z" fill="#025F53"/>
<path id="Vector_38" d="M15.2374 53.1898L15.7814 54.1055L16.7079 53.5547L16.1794 52.626L15.2374 53.1898Z" fill="#025F53"/>
<path id="Vector_39" d="M13.5679 53.1898L14.1252 54.1055L15.0384 53.5547L14.5099 52.626L13.5679 53.1898Z" fill="#025F53"/>
<path id="Vector_40" d="M5.2603 44.6903L4.74287 43.7725L3.80309 44.3232L4.34706 45.2388L5.2603 44.6903Z" fill="#025F53"/>
<path id="Vector_41" d="M3.60408 44.6903L3.07338 43.7725L2.13361 44.3232L2.67536 45.2388L3.60408 44.6903Z" fill="#025F53"/>
<path id="Vector_42" d="M38.1879 43.6289V51.6688H39.194V44.2583L39.8309 44.0878V43.6289H38.1879Z" fill="#025F53"/>
<path id="Vector_43" d="M31.8549 50.8442H30.411C29.867 50.8442 29.0864 50.5426 29.0864 49.1811C29.0864 47.3738 29.8692 47.3214 30.4641 47.3214C31.0589 47.3214 31.8417 47.3738 31.8417 49.1811V50.8442H31.8549ZM35.3376 43.6282V50.8442H32.8721V49.1811C32.8721 46.6811 31.4016 46.5106 30.4596 46.5106C29.5176 46.5106 28.0604 46.6811 28.0604 49.1811V49.4827C28.0604 50.8442 27.2776 50.8442 26.7359 50.8442H22.8131V43.6282H21.807V51.668H26.7226C27.1472 51.668 28.1002 51.7205 28.6575 50.9993C29.2147 51.5894 30.0218 51.668 30.3933 51.668H36.3283V44.2554L36.9651 44.0849V43.626H35.3354L35.3376 43.6282Z" fill="#025F53"/>
<path id="Vector_44" d="M4.16132 50.2935H3.51121C2.96724 50.2935 1.60291 50.2148 1.60291 48.7615C1.60291 46.9543 3.00705 46.9018 3.60408 46.9018H4.16132V50.2935ZM18.9612 43.6282V50.8442H17.1457C16.6283 50.8442 15.861 50.8442 15.8079 49.6269V46.5106H14.8018V49.4827C14.8018 50.8442 13.9947 50.8442 13.464 50.8442H5.28684C5.23377 50.8442 5.1807 50.8048 5.1807 50.7393V46.7445L5.8308 46.5609V46.102H3.61735C2.67757 46.102 0.583525 46.2724 0.583525 48.7725C0.583525 51.078 2.88985 51.1304 3.51121 51.1304H4.16132V51.2616C4.16132 51.4845 4.34706 51.668 4.57261 51.668H13.4375C13.8488 51.668 14.7222 51.7074 15.2794 51.1042C15.8367 51.7205 16.7234 51.668 17.1214 51.668H19.943V44.2554L20.5798 44.0849V43.626H18.9634L18.9612 43.6282Z" fill="#025F53"/>
</g>
</g>
</g>
<defs>
<clipPath id="clip0_268_35939">
<rect width="64" height="64" fill="white" transform="translate(-0.000244141 0.109375)"/>
</clipPath>
</defs>
</svg>
