<svg width="64" height="65" viewBox="0 0 64 65" fill="none" xmlns="http://www.w3.org/2000/svg">
<g id="Asset 9 1" clip-path="url(#clip0_268_35929)">
<g id="Layer_1">
<g id="Group">
<path id="Vector" d="M63.8681 58.2624C63.8175 58.0976 63.7386 57.9532 63.6474 57.8335C63.5563 57.7116 63.447 57.6145 63.3154 57.5468C63.1858 57.4814 63.0542 57.4385 62.9145 57.4385C62.6331 57.4385 62.3617 57.5152 62.1026 57.6687C61.8313 57.8222 61.5802 58.0547 61.3291 58.3527V55.2375H61.0983L60.5152 55.4903V62.03H61.3291V58.6936C61.4182 58.5943 61.5194 58.5062 61.6106 58.4295C61.7118 58.3527 61.811 58.285 61.9021 58.2195C62.0034 58.1654 62.1026 58.1202 62.1937 58.0863C62.2949 58.0525 62.386 58.0435 62.465 58.0435C62.6553 58.0435 62.8153 58.1202 62.9368 58.2737C63.0582 58.4272 63.119 58.6484 63.119 58.9464V62.0165H63.9309V58.7907C63.9512 58.6033 63.9309 58.4272 63.8702 58.2624M59.6324 61.477C59.5514 61.5334 59.4724 61.556 59.3813 61.556C59.3206 61.556 59.2619 61.5447 59.2112 61.5221C59.1606 61.4996 59.112 61.4657 59.0715 61.4228C59.031 61.3799 59.0007 61.3235 58.9804 61.2693C58.9602 61.2151 58.9501 61.1497 58.9501 61.0819V57.9103H59.8733V57.5355H58.9501V55.9937H58.7071C58.6686 56.224 58.618 56.4339 58.5674 56.6416C58.5168 56.8515 58.4378 57.0276 58.3467 57.1811C58.2556 57.3346 58.1361 57.4565 57.9863 57.5446C57.8344 57.6326 57.6441 57.6777 57.4234 57.6777V57.8967H58.1361V61.0684C58.1361 61.2219 58.1564 61.3664 58.1867 61.4996C58.2171 61.6305 58.2677 61.7411 58.3386 61.8291C58.4094 61.9172 58.4904 61.9939 58.5896 62.0391C58.6909 62.0955 58.8103 62.1181 58.9521 62.1181C59.2133 62.1181 59.4441 62.0639 59.6142 61.942C59.7944 61.8201 59.9341 61.6553 60.0454 61.4567L59.845 61.3032C59.7741 61.3709 59.7033 61.4363 59.6344 61.4792M56.0365 55.4768V62.0165H56.8504V55.2239H56.6176L56.0365 55.4768ZM54.0988 61.0797C54.0178 61.1474 53.9388 61.2129 53.8578 61.267C53.7768 61.3235 53.706 61.3777 53.627 61.4205C53.546 61.4634 53.4671 61.4996 53.384 61.5312C53.3051 61.5537 53.214 61.574 53.1228 61.574C53.0317 61.574 52.9528 61.5515 52.8718 61.5086C52.7928 61.4634 52.722 61.4093 52.6612 61.3325C52.6005 61.2535 52.5519 61.179 52.5114 61.0684C52.4709 60.9691 52.4608 60.8697 52.4608 60.7614C52.4608 60.653 52.481 60.5514 52.5316 60.4521C52.5822 60.3528 52.643 60.2647 52.7321 60.1767C52.811 60.0887 52.9123 60.0119 53.0236 59.9352C53.135 59.8584 53.2443 59.7907 53.3658 59.7252C53.4853 59.6598 53.6068 59.6033 53.7363 59.5491C53.8578 59.495 53.9874 59.4498 54.0988 59.4047V61.0774V61.0797ZM54.5928 57.7568C54.4815 57.6574 54.3316 57.5694 54.1413 57.5152C53.9591 57.461 53.7282 57.4272 53.4569 57.4272C53.2383 57.4272 53.0257 57.4497 52.8252 57.5039C52.6248 57.5581 52.4425 57.6371 52.3028 57.7229C52.151 57.8222 52.0315 57.9328 51.9424 58.0525C51.8513 58.1857 51.8108 58.3166 51.8108 58.4701C51.8108 58.5491 51.8209 58.6146 51.8412 58.68C51.8614 58.7478 51.8918 58.8019 51.9303 58.8448C51.9708 58.8877 52.0113 58.9329 52.072 58.9554C52.1226 58.978 52.1834 58.9983 52.2421 58.9983C52.3211 58.9983 52.3939 58.9758 52.4425 58.9442C52.4932 58.9103 52.5336 58.8652 52.564 58.811C52.5944 58.7568 52.6146 58.6891 52.6248 58.6236C52.6349 58.5469 52.645 58.4791 52.645 58.3933C52.645 58.3076 52.6551 58.2286 52.6754 58.1383C52.6956 58.0615 52.726 57.9848 52.7746 57.9193C52.8252 57.8538 52.8961 57.7996 52.975 57.7658C53.0662 57.7229 53.1755 57.7116 53.3172 57.7116C53.4367 57.7116 53.548 57.7342 53.6493 57.7658C53.7505 57.7996 53.8295 57.8651 53.9003 57.9532C53.9712 58.0412 54.0198 58.1518 54.0603 58.294C54.1008 58.4385 54.1109 58.6033 54.1109 58.811V59.0864C53.9307 59.1406 53.7384 59.1857 53.548 59.2512C53.3577 59.3076 53.1654 59.3731 52.9852 59.4498C52.805 59.5266 52.6349 59.6146 52.4729 59.7026C52.313 59.802 52.1712 59.9126 52.0518 60.0322C51.9303 60.1519 51.8311 60.2963 51.7602 60.4499C51.6893 60.6034 51.661 60.7794 51.661 60.9668C51.661 61.1203 51.6812 61.2738 51.7319 61.407C51.7825 61.5402 51.8513 61.6598 51.9424 61.7592C52.0315 61.8585 52.1429 61.9352 52.2745 62.0007C52.4041 62.0571 52.5438 62.0887 52.7058 62.0887C52.8758 62.0887 53.0277 62.0662 53.1573 62.021C53.2869 61.9781 53.4083 61.9217 53.5197 61.8562C53.6311 61.7885 53.7303 61.7118 53.8214 61.6237C53.9125 61.547 54.0117 61.4589 54.1028 61.3822V61.9984H54.9147V58.6078C54.9147 58.4317 54.8844 58.2669 54.8358 58.1225C54.7953 57.9802 54.7062 57.8583 54.5948 57.7477M48.0752 58.4927C48.1359 58.3505 48.2048 58.2173 48.2959 58.1179C48.387 58.0096 48.4862 57.9306 48.5976 57.8651C48.7089 57.7996 48.8284 57.7771 48.9499 57.7771C49.0997 57.7771 49.2313 57.8109 49.3609 57.8651C49.4905 57.9306 49.6018 58.0096 49.6929 58.1179C49.7942 58.2286 49.863 58.3505 49.9136 58.504C49.9643 58.6484 49.9926 58.8132 49.9926 58.978H47.9537C47.9841 58.7907 48.0144 58.6372 48.0731 58.4927M50.7053 60.7388C50.6142 60.872 50.4947 60.9939 50.3631 61.091C50.2315 61.1903 50.0817 61.2783 49.9217 61.3348C49.7618 61.4002 49.5897 61.4341 49.4095 61.4341C49.1989 61.4341 49.0086 61.3799 48.8264 61.2806C48.6461 61.1722 48.4963 61.0278 48.3647 60.8404C48.2351 60.653 48.1339 60.4341 48.063 60.1677C47.9922 59.9148 47.9517 59.6282 47.9517 59.3324H51.0029C51.0029 59.0773 50.9625 58.8358 50.8734 58.6168C50.7822 58.3866 50.6628 58.1879 50.5008 58.0118C50.3409 57.8358 50.1505 57.7026 49.9278 57.592C49.7071 57.4926 49.456 57.4385 49.1847 57.4385C48.883 57.4385 48.6036 57.5039 48.3607 57.6258C48.1096 57.7455 47.899 57.9215 47.7289 58.1428C47.5589 58.364 47.4192 58.6281 47.3179 58.9374C47.2167 59.2444 47.1762 59.5762 47.1762 59.9397C47.1762 60.2377 47.2268 60.5221 47.3361 60.7885C47.4374 61.0526 47.5872 61.2828 47.7674 61.4815C47.9476 61.6801 48.1582 61.8337 48.3991 61.9443C48.6401 62.0549 48.9013 62.1203 49.1827 62.1203C49.3933 62.1203 49.6039 62.0774 49.8144 61.9872C50.025 61.8991 50.2153 61.7772 50.3874 61.635C50.5575 61.4815 50.7195 61.3054 50.8491 61.1068C50.9807 60.9081 51.0698 60.6891 51.1305 60.4589L50.8997 60.3483C50.8612 60.4815 50.7883 60.6124 50.6992 60.7433M45.3337 58.8448H42.661V56.1924H41.7681V62.0165H42.661V59.2196H45.3337V62.0165H46.2266V56.1924H45.3337V58.8448ZM39.0793 55.4452C38.978 55.3774 38.8687 55.3233 38.7168 55.2804C38.5771 55.2375 38.4151 55.2262 38.2349 55.2262C38.0244 55.2262 37.8239 55.2691 37.6417 55.3571C37.4514 55.4452 37.2914 55.5784 37.1598 55.7319C37.0181 55.8966 36.9087 56.084 36.8379 56.294C36.7589 56.5152 36.7184 56.7454 36.7184 56.987V57.5152H35.866V57.8899H36.7184V62.0075H37.5303V57.8899H38.6257V57.5152H37.5303V56.4475C37.5303 56.3391 37.5425 56.2172 37.5708 56.1179C37.6012 56.0095 37.6417 55.9079 37.6903 55.8334C37.7409 55.7454 37.8016 55.6799 37.8705 55.6348C37.9414 55.5806 38.0223 55.5558 38.1033 55.5558C38.2127 55.5558 38.2937 55.5784 38.3544 55.6235C38.4151 55.6664 38.4556 55.7228 38.484 55.777C38.5144 55.8425 38.5346 55.9079 38.5548 55.9869C38.5751 56.0637 38.5933 56.1314 38.6257 56.1969C38.6561 56.2624 38.6966 56.3188 38.7452 56.3504C38.7958 56.3933 38.8748 56.4159 38.976 56.4159C39.0367 56.4159 39.0874 56.4046 39.1359 56.382C39.1866 56.3594 39.2372 56.3391 39.2655 56.294C39.306 56.2601 39.3364 56.2172 39.3566 56.163C39.3769 56.1066 39.387 56.0524 39.387 55.9869C39.387 55.8763 39.3566 55.777 39.3081 55.689C39.2473 55.6009 39.1785 55.5129 39.0772 55.4474M34.4406 60.7524C34.39 60.9623 34.309 61.1384 34.2098 61.2896C34.1085 61.4431 33.9992 61.565 33.8575 61.6531C33.7279 61.7411 33.576 61.7862 33.4161 61.7862C33.1974 61.7862 32.9949 61.7208 32.8248 61.5989C32.6548 61.477 32.5029 61.3009 32.3834 61.091C32.264 60.881 32.1729 60.6304 32.1121 60.3415C32.0514 60.0571 32.0129 59.7478 32.0129 59.416C32.0129 59.1857 32.0433 58.9758 32.102 58.7771C32.1627 58.5785 32.2437 58.4024 32.3328 58.2489C32.4341 58.0954 32.5434 57.9848 32.675 57.8967C32.8066 57.8087 32.9362 57.7635 33.0759 57.7635C33.3472 57.7635 33.5679 57.82 33.7481 57.9509C33.9303 58.0728 34.0802 58.2376 34.1895 58.4475C34.3009 58.6575 34.39 58.9103 34.4406 59.1857C34.4892 59.4724 34.5195 59.7681 34.5195 60.1C34.5195 60.3302 34.4892 60.5402 34.4406 60.7501M34.8212 58.0751C34.6309 57.8764 34.4001 57.7229 34.1389 57.6033C33.8797 57.4926 33.5861 57.4272 33.2764 57.4272C32.9666 57.4272 32.673 57.4926 32.4138 57.6145C32.1425 57.7342 31.9218 57.9103 31.7315 58.1315C31.5391 58.3527 31.3893 58.6055 31.28 58.89C31.1686 59.188 31.12 59.4972 31.12 59.8268C31.12 60.1564 31.1706 60.4431 31.28 60.7162C31.3913 60.9916 31.5412 61.2332 31.7315 61.4431C31.9218 61.6531 32.1526 61.8179 32.4138 61.9285C32.675 62.0504 32.9645 62.1045 33.2764 62.1045C33.5882 62.1045 33.8797 62.0368 34.1389 61.9059C34.4001 61.7727 34.6309 61.5966 34.8212 61.3777C35.0136 61.1587 35.1634 60.8923 35.2727 60.5966C35.3841 60.2986 35.4327 59.9781 35.4327 59.6372C35.4327 59.3302 35.3821 59.0435 35.2727 58.7794C35.1614 58.504 35.0116 58.2714 34.8212 58.0751ZM26.7486 60.7727L25.1632 57.5355H24.2399L26.3376 61.8178L26.0663 62.4906C26.0359 62.5673 25.9954 62.6554 25.9549 62.7547C25.9164 62.854 25.8658 62.942 25.8152 63.0188C25.7646 63.0955 25.7038 63.1633 25.635 63.2174C25.5641 63.2716 25.4933 63.2942 25.4143 63.2942C25.3353 63.2942 25.2726 63.2829 25.2219 63.2603C25.1713 63.2378 25.1328 63.2174 25.0924 63.1949C25.0519 63.1723 25.0012 63.1384 24.9628 63.1272C24.9122 63.1046 24.8433 63.0933 24.7623 63.0933C24.6915 63.0933 24.6226 63.1046 24.5619 63.1362C24.5011 63.1588 24.4505 63.2039 24.41 63.2468C24.3695 63.2897 24.3392 63.3461 24.3088 63.4003C24.2885 63.4545 24.2784 63.5222 24.2784 63.5877C24.2784 63.6644 24.2987 63.7321 24.329 63.7976C24.3594 63.8631 24.408 63.9195 24.4687 63.9624C24.5295 64.0053 24.5983 64.0391 24.6793 64.0707C24.7583 64.0933 24.8393 64.1046 24.9304 64.1046C25.06 64.1046 25.1916 64.082 25.3211 64.0256C25.4507 63.9714 25.5925 63.8947 25.7119 63.7953C25.8415 63.6847 25.963 63.5538 26.0723 63.4003C26.1837 63.2355 26.293 63.0481 26.374 62.8269L28.4615 57.5513H28.0303L26.7445 60.7681L26.7486 60.7727ZM23.9484 57.5897C23.8876 57.5468 23.8289 57.5017 23.7479 57.4701C23.669 57.4362 23.588 57.4272 23.4969 57.4272C23.3855 57.4272 23.2762 57.4497 23.1749 57.5039C23.0636 57.5581 22.9644 57.6258 22.8631 57.7139C22.7639 57.8019 22.6728 57.9012 22.5817 58.0118C22.4926 58.1202 22.4015 58.2421 22.3306 58.3753V57.5265H21.5187V62.0188H22.3306V58.9035C22.3914 58.8042 22.442 58.7049 22.5007 58.6281C22.5614 58.5401 22.612 58.4746 22.6708 58.4092C22.7214 58.3437 22.7821 58.2985 22.8307 58.2647C22.8813 58.2308 22.9421 58.2105 22.9907 58.2105C23.0615 58.2105 23.1203 58.2218 23.1608 58.2444C23.2114 58.2669 23.2498 58.2873 23.3005 58.3098C23.341 58.3324 23.3916 58.3663 23.4523 58.3888C23.5029 58.4114 23.5819 58.4227 23.673 58.4227C23.8249 58.4227 23.9342 58.3888 24.0152 58.3121C24.0942 58.2353 24.1347 58.1247 24.1347 57.9825C24.1347 57.9035 24.1144 57.838 24.084 57.7726C24.0435 57.7071 23.9949 57.6529 23.9443 57.5965M20.6238 61.477C20.5529 61.5334 20.4638 61.556 20.3727 61.556C20.3119 61.556 20.2532 61.5447 20.2026 61.5221C20.1419 61.4996 20.1034 61.4657 20.0629 61.4228C20.0224 61.3799 19.992 61.3235 19.9718 61.2693C19.9515 61.2151 19.9414 61.1497 19.9414 61.0819V57.9103H20.8647V57.5355H19.9414V55.9937H19.7106C19.6701 56.224 19.6195 56.4339 19.5689 56.6416C19.5182 56.8515 19.4393 57.0276 19.3482 57.1811C19.2591 57.3346 19.1376 57.4565 18.9878 57.5446C18.8359 57.6326 18.6557 57.6777 18.4249 57.6777V57.8967H19.1376V61.0684C19.1376 61.2219 19.1578 61.3664 19.1862 61.4996C19.2166 61.6305 19.2672 61.7411 19.338 61.8291C19.4089 61.9172 19.4899 61.9939 19.5891 62.0391C19.6883 62.0955 19.8078 62.1181 19.9495 62.1181C20.2107 62.1181 20.4415 62.0639 20.6217 61.942C20.8019 61.8201 20.9437 61.6553 21.053 61.4567L20.8525 61.3032C20.7614 61.3709 20.6926 61.4363 20.6217 61.4792M17.6413 59.8923C17.53 59.7817 17.4004 59.6936 17.2586 59.6056C17.1189 59.5288 16.9671 59.4521 16.8172 59.3753C16.6674 59.2986 16.5156 59.2308 16.3759 59.1654C16.2341 59.0999 16.1045 59.0209 15.9932 58.9464C15.8818 58.8674 15.7927 58.7703 15.7219 58.671C15.651 58.5717 15.6206 58.452 15.6206 58.3189C15.6206 58.2421 15.6409 58.1653 15.6814 58.0886C15.7219 58.0118 15.7725 57.9554 15.8413 57.9012C15.9122 57.8471 15.9932 57.8019 16.0924 57.768C16.1916 57.7342 16.2928 57.7252 16.4123 57.7252C16.633 57.7252 16.8355 57.7906 17.0258 57.9351C17.2181 58.0683 17.3882 58.276 17.5482 58.5627L17.8499 58.2647C17.7304 58.0886 17.6069 57.9441 17.4996 57.8358C17.3882 57.7252 17.2667 57.6371 17.1574 57.5807C17.046 57.5265 16.9246 57.4814 16.8051 57.461C16.6856 57.4385 16.554 57.4272 16.4224 57.4272C16.222 57.4272 16.0316 57.461 15.8616 57.5152C15.6915 57.5807 15.5396 57.6687 15.4202 57.7793C15.3007 57.8899 15.1995 58.0231 15.1286 58.1766C15.0577 58.3301 15.0294 58.4949 15.0294 58.6823C15.0294 58.881 15.0598 59.0457 15.1185 59.1789C15.1792 59.3234 15.2602 59.443 15.3696 59.5537C15.4708 59.6643 15.5903 59.7523 15.7198 59.8404C15.8494 59.9171 15.981 59.9939 16.1207 60.0706C16.2625 60.1361 16.392 60.2151 16.5216 60.2805C16.6532 60.346 16.7727 60.425 16.8739 60.4995C16.9731 60.5785 17.0643 60.6756 17.125 60.7749C17.1857 60.8742 17.2161 60.9939 17.2161 61.1384C17.2161 61.2264 17.1959 61.3032 17.1554 61.3799C17.1149 61.4567 17.0643 61.5334 16.9954 61.5899C16.9246 61.6553 16.8436 61.7005 16.7525 61.7343C16.6634 61.7682 16.552 61.7885 16.4427 61.7885C16.3232 61.7885 16.222 61.7772 16.1106 61.7456C16.0094 61.7118 15.9102 61.6576 15.819 61.5921C15.7279 61.5266 15.6388 61.4386 15.5376 61.328C15.4465 61.2174 15.3453 61.0842 15.2562 60.9307L14.9241 61.2603C15.0436 61.4363 15.1752 61.5808 15.2967 61.6914C15.4262 61.7998 15.5579 61.8901 15.6773 61.9443C15.8089 61.9984 15.9284 62.0436 16.06 62.0662C16.1896 62.0887 16.3111 62.1 16.4325 62.1C16.6937 62.1 16.9246 62.0662 17.125 61.9894C17.3255 61.9239 17.4854 61.8246 17.617 61.705C17.7466 61.5831 17.8478 61.4409 17.9086 61.2738C17.9693 61.109 18.0098 60.9329 18.0098 60.7456C18.0098 60.5582 17.9794 60.3957 17.9086 60.2512C17.8377 60.1293 17.7567 60.0074 17.6373 59.899M13.3448 57.689V62.0142H14.1567V57.4362H13.9158L13.3428 57.689H13.3448ZM14.0676 55.3549C14.0272 55.312 13.9765 55.2781 13.9158 55.2555C13.8551 55.233 13.7963 55.2217 13.7356 55.2217C13.6748 55.2217 13.6161 55.233 13.5554 55.2555C13.4946 55.2781 13.4542 55.3097 13.4035 55.3549C13.363 55.4 13.3246 55.4429 13.3023 55.4993C13.2719 55.5535 13.2618 55.61 13.2618 55.6754C13.2618 55.7409 13.2739 55.7973 13.3023 55.8515C13.3327 55.9057 13.363 55.9508 13.4035 55.996C13.444 56.0411 13.4946 56.0727 13.5554 56.0953C13.6161 56.1179 13.6748 56.1292 13.7356 56.1292C13.7963 56.1292 13.8551 56.1156 13.9158 56.0953C13.9765 56.0727 14.0272 56.0411 14.0676 55.996C14.1061 55.9531 14.1385 55.9079 14.1669 55.8515C14.1972 55.7973 14.2074 55.7409 14.2074 55.6754C14.2074 55.61 14.1972 55.5535 14.1669 55.4993C14.1466 55.4452 14.1061 55.4 14.0676 55.3549ZM12.0591 57.8335C11.968 57.7116 11.8587 57.6145 11.727 57.5468C11.5975 57.4814 11.4659 57.4385 11.3261 57.4385C11.0447 57.4385 10.7734 57.5152 10.5142 57.6687C10.2429 57.8222 9.99185 58.0547 9.74078 58.3527V57.5378H8.92886V62.03H9.74078V58.6936C9.83189 58.5943 9.9311 58.5062 10.0323 58.4295C10.1336 58.3527 10.2328 58.285 10.334 58.2195C10.4353 58.1654 10.5345 58.1202 10.6256 58.0863C10.7248 58.0525 10.8159 58.0435 10.8949 58.0435C11.0872 58.0435 11.2472 58.1202 11.3687 58.2737C11.4881 58.4272 11.5489 58.6484 11.5489 58.9464V62.0165H12.3608V58.7907C12.3608 58.6033 12.3304 58.4272 12.2818 58.2624C12.2312 58.0976 12.1624 57.9532 12.0611 57.8335M7.86182 55.3549C7.82133 55.312 7.77071 55.2781 7.70996 55.2555C7.64922 55.233 7.5905 55.2217 7.52976 55.2217C7.46902 55.2217 7.4103 55.233 7.34956 55.2555C7.28882 55.2781 7.24832 55.3097 7.19771 55.3549C7.15721 55.4 7.12684 55.4429 7.09647 55.4993C7.0661 55.5535 7.05597 55.61 7.05597 55.6754C7.05597 55.7409 7.06812 55.7973 7.09647 55.8515C7.12684 55.9057 7.15721 55.9508 7.19771 55.996C7.2382 56.0389 7.28882 56.0727 7.34956 56.0953C7.4103 56.1179 7.46902 56.1292 7.52976 56.1292C7.5905 56.1292 7.64922 56.1156 7.70996 56.0953C7.77071 56.0727 7.82133 56.0411 7.86182 55.996C7.90029 55.9531 7.94079 55.9079 7.96306 55.8515C7.99343 55.7973 8.00153 55.7409 8.00153 55.6754C8.00153 55.61 7.9914 55.5535 7.96306 55.4993C7.93269 55.4452 7.90232 55.4 7.86182 55.3549ZM7.12886 57.689V62.0142H7.94078V57.4362H7.69984L7.12684 57.689H7.12886ZM3.02269 60.662H2.9822L0.914938 56.1924H-0.000244141V62.0165H0.390531V57.2714H0.451273L2.66229 62.0165H2.84249L5.02111 57.2398H5.05148V62.0165H5.94439V56.1924H5.05148L3.02269 60.662Z" fill="#808048"/>
<path id="Vector_2" d="M43.9791 20.4107C43.4871 20.7403 42.985 21.1037 42.7238 21.3024C41.92 21.9186 41.0979 22.5688 40.284 23.2392C36.688 26.2235 33.1245 29.7248 30.4033 33.0816H23.9059C23.9059 33.0816 39.8001 18.0427 47.0891 16.8869C53.5845 15.862 56.1154 21.0157 55.5728 26.5644C55.6437 25.8827 55.6335 25.1896 55.5343 24.5711C55.3035 23.0857 54.7305 21.8645 53.9368 20.9164C53.295 20.1466 52.5013 19.4626 51.4362 19.0224C50.513 18.6364 49.5289 18.4738 48.4538 18.5822C48.4639 18.5935 46.587 18.6815 43.9771 20.4107" fill="#808048"/>
<path id="Vector_3" d="M19.9414 20.4107C20.4334 20.7403 20.9356 21.1037 21.1968 21.3024C22.0006 21.9186 22.8226 22.5688 23.6366 23.2392C27.2325 26.2235 30.7961 29.7248 33.5173 33.0816H40.0147C40.0147 33.0816 24.1205 18.0427 16.8314 16.8869C10.3361 15.862 7.80513 21.0157 8.34776 26.5644C8.2769 25.8827 8.28702 25.1896 8.38623 24.5711C8.61705 23.0857 9.19005 21.8645 9.98375 20.9164C10.6256 20.1466 11.4193 19.4626 12.4843 19.0224C13.3975 18.6364 14.3916 18.4738 15.4667 18.5822C15.4566 18.5935 17.3234 18.6815 19.9434 20.4107" fill="#808048"/>
<path id="Vector_4" d="M48.7271 51.0838C48.7271 52.3728 48.2534 52.901 47.1013 52.901C46.9818 52.901 46.7996 52.8784 46.6599 52.8468L46.5485 53.6279C46.911 53.6821 47.0709 53.6934 47.3523 53.6934C48.0347 53.6934 49.6221 53.4631 49.6221 51.3705V44.4222H48.7292V51.0838H48.7271ZM45.1231 40.3272C44.7404 40.3272 44.4408 40.6568 44.4408 41.0767C44.4408 41.4965 44.7425 41.8261 45.1231 41.8261C45.5038 41.8261 45.8054 41.4965 45.8054 41.0767C45.7953 40.6703 45.4936 40.3272 45.1231 40.3272ZM56.3078 51.0838C56.3078 52.3728 55.836 52.901 54.6819 52.901C54.5624 52.901 54.3802 52.8784 54.2405 52.8468L54.1292 53.6279C54.4916 53.6821 54.6515 53.6934 54.933 53.6934C55.6153 53.6934 57.2108 53.4631 57.2108 51.3705V44.4222H56.3179V51.0838H56.3078ZM63.3761 43.5982C61.0477 43.5982 59.2194 45.3364 59.2194 47.5713C59.2194 49.8061 60.9161 50.4675 62.0601 50.4675C62.22 50.4675 62.3314 50.4675 62.4022 50.4562L62.8436 49.9483L63.034 49.7293H62.4427C61.3089 49.7293 60.173 49.025 60.173 47.4516C60.173 46.0407 61.3575 44.4673 62.955 44.4673H63.1048V50.6097C63.1048 51.7881 62.9044 52.8784 61.4486 52.8784C61.3291 52.8784 61.157 52.8559 60.9869 52.8243L60.8756 53.5737C61.0862 53.6166 61.3271 53.6505 61.6794 53.6505C62.3719 53.6505 63.9977 53.3976 63.9977 51.0296V43.6524C63.7467 43.6185 63.5462 43.5982 63.3761 43.5982ZM56.7593 40.3272C56.3867 40.3272 56.077 40.6568 56.077 41.0767C56.077 41.4965 56.3786 41.8261 56.7593 41.8261C57.1399 41.8261 57.4416 41.4965 57.4416 41.0767C57.4315 40.6703 57.1318 40.3272 56.7593 40.3272ZM44.7911 49.7406H43.9386C42.3816 49.7406 41.679 48.5532 41.679 47.3726C41.679 45.3025 43.1146 44.1806 44.459 44.1806H44.7911V49.7406ZM40.7152 47.5058C40.7152 49.1898 41.9888 50.4675 43.6774 50.4675H45.686V43.4312C45.4248 43.3973 45.1332 43.377 44.8113 43.377C42.5132 43.377 40.7152 45.1919 40.7152 47.5058ZM52.3616 50.4675H53.2545V39.2256H52.3616V50.4675ZM4.42786 41.8126C4.80041 41.8126 5.1102 41.483 5.1102 41.0631C5.1102 40.6432 4.80851 40.3137 4.42786 40.3137C4.04721 40.3137 3.74552 40.6432 3.74552 41.0631C3.74552 41.483 4.04721 41.8126 4.42786 41.8126ZM43.0862 41.8239C43.4689 41.8239 43.7686 41.4943 43.7686 41.0744C43.7686 40.6545 43.4669 40.3249 43.0862 40.3249C42.7056 40.3249 42.4039 40.6545 42.4039 41.0744C42.4039 41.4943 42.7056 41.8239 43.0862 41.8239ZM2.39097 41.8126C2.77365 41.8126 3.07331 41.483 3.07331 41.0631C3.07331 40.6432 2.77162 40.3137 2.39097 40.3137C2.01032 40.3137 1.70863 40.6432 1.70863 41.0631C1.70863 41.483 2.01032 41.8126 2.39097 41.8126ZM35.3639 50.4675H36.2568V39.2256H35.3639V50.4675ZM27.8541 49.6187L27.8237 49.7406H21.4175L21.4579 49.542C22.0208 46.8105 24.2582 44.6863 25.8152 44.6863C26.3173 44.6863 27.9533 44.9391 27.9533 48.2643C27.9533 48.4629 27.9533 49.1785 27.8521 49.6187M31.6383 49.7406H28.747L28.7774 49.542C28.8685 48.9912 28.909 48.4088 28.909 48.0769C28.909 46.1401 28.1254 43.8713 25.9164 43.8713C25.1632 43.8713 24.4303 44.2461 23.8289 44.7089C23.1344 45.2371 22.523 45.8963 22.0512 46.6683C21.5288 47.5487 21.1279 48.5284 20.6865 49.4539C20.646 49.542 20.5954 49.6413 20.5569 49.7293H20.5063V45.9865H19.6134V49.7293H17.0035V49.3546C17.0035 45.3906 14.3916 43.9932 12.1543 43.9932H8.71019V44.8285C8.96125 44.8059 11.8931 44.7946 12.0348 44.7946C14.5354 44.7946 16.0296 46.578 16.0418 49.5623V49.7271H4.99074V43.4176C4.72955 43.3837 4.25778 43.3634 4.05531 43.3634C2.43147 43.3679 0.0119019 44.6547 0.0119019 47.4178C0.0119019 48.3433 0.313588 49.1266 0.894688 49.6752C1.4272 50.1808 2.17027 50.4675 2.9741 50.4675H3.25554L3.82854 49.7948L3.87916 49.7406H3.22719C1.89086 49.7406 0.987827 48.7948 0.987827 47.3726C0.987827 46.0746 1.56083 45.3026 2.04272 44.8849C2.64406 44.368 3.35677 44.1806 3.77792 44.1806H4.08973V50.4675H32.513V39.2256H31.6201V49.7406H31.6404H31.6383Z" fill="#037040"/>
<path id="Vector_5" d="M18.5261 24.1552L16.3171 21.7217L14.3673 23.8572L12.4215 21.7217L10.2125 24.1552L12.4215 26.5864L14.3673 24.4532L16.3171 26.5864L18.5261 24.1552Z" fill="#037040"/>
<path id="Vector_6" d="M42.1609 6.07573C41.9908 5.64682 41.7884 5.21565 41.5474 4.80931C39.5409 1.3961 35.704 0.0642267 32.351 1.35321C32.1506 0.558601 32.0008 0.109375 32.0008 0.109375C32.0008 0.109375 31.8408 0.572145 31.6505 1.35321C28.3056 0.0642267 24.4708 1.40739 22.4622 4.80931C22.2213 5.21565 22.0208 5.64682 21.8487 6.07573C23.264 4.36912 25.2037 3.41197 27.2102 3.27879C25.3434 4.85221 24.1387 7.33085 24.1387 10.1052C24.1387 10.5883 24.1772 11.0736 24.2501 11.5364C24.6307 9.02617 26.0177 6.87711 27.925 5.60167C26.7182 8.2451 26.7688 11.4913 28.336 14.1573C28.5769 14.5636 28.8482 14.9496 29.1398 15.2905C27.8339 11.9766 28.5668 8.11191 30.9479 5.63553C30.8973 6.27438 30.8588 6.95612 30.8588 7.6514C30.8588 11.8231 32.0028 15.2025 32.0028 15.2025C32.0028 15.2025 33.1468 11.8231 33.1468 7.6514C33.1468 6.95837 33.1164 6.28567 33.0577 5.63553C35.4368 8.11191 36.1697 11.9766 34.8658 15.2905C35.1573 14.9383 35.4287 14.5636 35.6696 14.1573C37.2367 11.4913 37.2955 8.2451 36.0806 5.60167C37.998 6.87937 39.3749 9.02617 39.7555 11.5364C39.8264 11.0736 39.8669 10.5996 39.8669 10.1052C39.8669 7.31956 38.6622 4.85221 36.7954 3.27879C38.814 3.41197 40.7618 4.36912 42.167 6.07573" fill="#037040"/>
<path id="Vector_7" d="M24.0577 20.2451C24.0577 20.2451 29.7108 11.3058 39.6401 22.8976C48.9985 33.819 52.5033 31.9814 55.1638 28.5141C55.1638 28.5141 55.0241 28.943 54.7811 29.3493C54.6009 29.6698 54.4896 29.8459 54.4491 29.9001C53.1249 31.8505 51.2358 33.0605 48.9175 33.0808C45.9371 33.1147 42.2399 31.1552 38.1054 26.146C28.8989 14.9944 24.0577 20.2451 24.0577 20.2451Z" fill="#037040"/>
</g>
</g>
</g>
<defs>
<clipPath id="clip0_268_35929">
<rect width="64" height="64" fill="white" transform="translate(-0.000244141 0.109375)"/>
</clipPath>
</defs>
</svg>
