<svg width="67" height="65" viewBox="0 0 67 65" fill="none" xmlns="http://www.w3.org/2000/svg">
<g id="Asset 5 1" clip-path="url(#clip0_268_36383)">
<g id="Layer_1">
<g id="_x37_uoDrF.tif">
<g id="Group">
<path id="Vector" d="M33.363 0.109375C33.4551 0.277676 33.5472 0.445977 33.6392 0.614277C34.0996 1.28748 34.6547 1.96068 35.2966 2.38384C36.0358 2.88874 36.9566 3.14119 37.8774 3.22534C38.5219 3.3095 39.1664 3.30949 39.903 3.39365C42.4838 3.6461 44.9699 4.23515 47.2744 5.49981C49.3027 6.59377 50.868 8.02673 51.9756 9.87804C52.0676 10.0463 52.2518 10.1305 52.436 10.2146C54.0013 10.5512 55.5665 10.8878 57.1345 11.4769C58.8839 12.0659 60.5439 12.9075 62.0198 14.088C63.956 15.5185 65.2451 17.3722 66.1658 19.4784C66.4421 20.1516 66.7209 20.909 66.9051 21.5846C66.9051 21.6687 66.9972 21.837 66.9972 21.9212V63.9411C66.9972 64.1094 66.9051 64.1094 66.813 64.1094H0.286551C-0.0817541 64.1094 0.0103223 64.1094 0.0103223 63.8569V22.4237C0.0103223 21.2456 0.286551 20.1492 0.839009 19.1394C1.57825 17.6247 2.68317 16.36 3.97224 15.2661C6.18207 13.3282 8.85754 11.8976 11.7119 11.0561C12.5406 10.8037 13.4614 10.5512 14.3821 10.3829C14.5663 10.3829 14.7504 10.2988 14.8425 10.1305C16.4078 7.60357 18.7123 5.83641 21.5693 4.8242C22.9505 4.3193 24.3343 3.9827 25.7154 3.8144C26.7309 3.6461 27.8358 3.56195 28.8486 3.4778C29.4037 3.39365 29.8641 3.22534 30.4139 2.97289C31.4294 2.46799 32.2581 1.79479 32.9026 0.866729C33.0868 0.616682 33.2709 0.364231 33.363 0.109375Z" fill="#007D5B"/>
<path id="Vector_2" d="M65.7975 47.6061V55.6893C65.7975 55.7454 65.7668 55.7735 65.7054 55.7735H59.7152C59.6231 55.7735 59.531 55.7735 59.531 55.6052V52.91C59.531 52.7978 59.4696 52.7417 59.3469 52.7417H50.5944C50.4102 52.7417 50.3181 52.7417 50.3181 52.4892V49.8782C50.3181 49.8221 50.2874 49.794 50.2261 49.794H16.8681C16.776 49.794 16.684 49.8782 16.684 49.9623V52.6575C16.684 52.7697 16.6226 52.8258 16.4998 52.8258C14.29 52.8258 12.1696 52.8258 9.95712 52.7417H7.74466C7.56051 52.7417 7.46843 52.8258 7.46843 52.9941V55.7735C7.46843 55.8296 7.43686 55.8576 7.37373 55.8576H1.66236C1.53959 55.8576 1.47821 55.8015 1.47821 55.6893V23.0991C1.47821 21.5002 1.93859 20.0673 2.76728 18.7209C3.68804 17.2903 4.88767 16.0256 6.35826 15.0158C8.93902 13.078 11.8881 11.8999 15.1108 11.2267C15.3896 11.1425 15.5712 11.0584 15.7579 10.8059C17.2338 8.4473 19.4436 6.76429 22.2085 5.83623C23.5897 5.33133 25.0655 4.99473 26.4493 4.82643C27.3701 4.65813 28.2935 4.57398 29.2142 4.48983C29.7667 4.40568 30.2271 4.23738 30.6875 3.98492C31.7029 3.48002 32.4369 2.80682 33.0841 1.96291C33.1788 1.87876 33.1788 1.79461 33.2709 1.71046C33.3629 1.62631 33.3629 1.54216 33.455 1.45801C33.5471 1.54216 33.5471 1.62631 33.6392 1.71046C33.9154 2.21536 34.2837 2.72026 34.8388 3.14102C35.578 3.81422 36.4988 4.15082 37.5116 4.31912C37.972 4.40327 38.5245 4.40327 38.9848 4.48742C41.5656 4.65572 44.1438 5.16063 46.4483 6.34114C48.5687 7.35094 50.2261 8.86805 51.423 10.8035C51.5151 10.9718 51.6072 11.056 51.7913 11.056C53.7276 11.3926 55.6612 11.8975 57.5053 12.6548C59.4416 13.4963 61.191 14.5927 62.6642 16.1074C63.9533 17.4538 64.8767 19.0551 65.5239 20.7381C65.5239 20.8222 65.616 20.9064 65.616 20.9905C65.8922 21.5796 65.9843 22.2528 65.9843 22.9284V46.6756H65.8922C65.708 46.3414 65.616 46.0024 65.5239 45.6658C64.6952 42.7182 63.8639 39.857 63.0378 36.9094C62.2986 34.2142 61.4725 31.5189 60.7333 28.8237C60.4544 27.8981 60.1782 27.0542 59.994 26.1285C59.9327 25.9041 59.7792 25.7919 59.5337 25.7919C58.6129 25.7919 58.7944 25.7919 58.6129 25.1187C58.5515 24.8943 58.398 24.754 58.1525 24.6979H57.508C57.3238 24.6979 57.1397 24.6138 57.1397 24.3613V24.2772C57.0783 23.9406 56.8634 23.7723 56.4951 23.7723H56.2189C55.9427 23.7723 55.8532 23.6881 55.7585 23.4357C55.7585 23.3796 55.7278 23.3235 55.6665 23.2674C55.6665 23.0149 55.4823 22.9308 55.2061 22.9308C53.0857 22.6783 51.06 22.1734 49.2158 21.3319C48.3872 20.9112 47.5558 20.4904 46.7271 19.9855C46.543 19.8172 46.3588 19.7331 46.0826 19.5648C45.7169 19.3123 45.4381 18.9757 45.0671 18.8074C44.2385 18.3867 43.223 18.2184 42.3022 18.1342C41.3815 18.0501 40.366 18.1342 39.4452 18.3025C37.8799 18.6391 36.4988 19.3123 35.2071 20.1562C34.9309 20.3245 34.5625 20.577 34.2863 20.8294C34.1022 20.9977 34.0101 20.9977 33.8259 20.8294C32.6263 19.8196 31.1531 19.144 29.6799 18.555C28.667 18.2184 27.5595 18.0501 26.3625 18.0501C25.347 18.0501 24.3342 18.2184 23.4134 18.555C22.861 18.8074 22.3085 19.0599 21.9402 19.5648L21.8481 19.6489C20.5591 20.4904 19.1779 21.0795 17.7021 21.5868C16.1368 22.0917 14.5688 22.3441 13.0009 22.5124C12.7247 22.5124 12.6326 22.5966 12.6326 22.849C12.5405 23.4381 12.6326 23.5222 11.8039 23.6064C11.4356 23.6064 11.2488 23.7747 11.1594 24.1113C11.0647 24.4479 10.9752 24.4479 10.699 24.5321C10.5148 24.5321 10.3307 24.6162 10.1439 24.6162C9.95713 24.6162 9.86768 24.7004 9.86768 24.8687C9.7756 25.037 9.7756 25.2894 9.68353 25.4577C9.58882 25.626 9.49937 25.7102 9.31785 25.7102H8.85747C8.58124 25.7102 8.48917 25.7943 8.39709 26.0468C7.65785 28.5737 6.82916 31.1847 6.09255 33.7117C5.44539 35.9837 4.71141 38.1764 4.06424 40.4485C3.41971 42.4681 2.86725 44.4925 2.22008 46.5121C2.12801 46.6804 2.12801 46.9329 2.12801 47.1012C2.12801 47.6085 2.58839 47.9427 3.04877 48.0293H3.325C5.99521 48.0293 8.66806 48.1134 11.433 48.0293C14.4741 47.9451 17.5153 48.0293 20.6485 47.9451C23.6897 47.861 26.6387 47.9451 29.6799 47.861C30.2323 47.861 30.8769 47.7768 31.4293 47.7768C31.7056 47.7768 31.8897 47.861 32.0739 48.0293C32.4422 48.45 32.8131 48.7025 33.3629 48.8708C34.2837 49.1232 35.3886 48.8708 35.9437 48.1952C36.1279 47.9427 36.4041 47.8586 36.6829 47.8586C38.3429 47.8586 40.0003 47.9427 41.6577 47.9427H44.7909C45.8958 48.0269 46.9087 47.9427 48.0162 48.0269C49.0317 48.111 50.134 48.0268 51.1494 48.111C52.2544 48.1951 53.3593 48.111 54.4668 48.1952C55.4823 48.2793 56.4925 48.1952 57.508 48.2793C58.6155 48.3635 59.7204 48.2793 60.828 48.3635C61.8435 48.4476 62.8563 48.3635 63.8691 48.3635C64.1454 48.3635 64.4216 48.4476 64.7899 48.4476C65.2503 48.4476 65.6186 48.2793 65.8027 47.9403C65.6212 47.7696 65.6212 47.6854 65.8027 47.5989L65.7975 47.6061Z" fill="white"/>
<path id="Vector_3" d="M65.7054 47.6058C65.6133 47.94 65.3397 48.1949 65.0609 48.279C64.9688 48.3632 64.7846 48.3632 64.6926 48.3632C62.8484 48.3632 61.0069 48.279 59.1627 48.279C57.5974 48.279 56.0295 48.1949 54.4616 48.1949C52.3412 48.1949 50.2208 48.1107 48.1057 48.1107C45.9905 48.1107 43.8649 48.0266 41.7498 48.0266C39.8135 48.0266 37.972 47.9424 36.0384 47.9424C35.8543 47.9424 35.7622 47.9424 35.6701 48.1107C35.1176 48.7839 34.4731 49.1205 33.5497 49.1205C32.721 49.1205 32.0739 48.6998 31.6135 48.1107C31.4293 47.9424 31.3372 47.8583 31.0584 47.8583C28.0172 47.8583 24.884 47.8583 21.8429 47.9424C19.2621 47.9424 16.5919 47.9424 14.0111 48.0266C10.6017 48.0266 7.10013 48.0266 3.69067 48.1107H2.95406C2.12538 48.1107 1.66499 47.6034 1.75707 46.8485C1.84915 46.4277 1.94122 46.0911 2.12275 45.7545C4.05898 39.4384 5.99258 33.0358 7.92882 26.7221C8.02089 26.4696 8.11297 26.2172 8.20505 25.9647C8.20505 25.7964 8.29712 25.7964 8.48127 25.7964C8.7575 25.7964 8.94166 25.7964 9.21789 25.7123C9.40204 25.7123 9.40204 25.6281 9.49411 25.544C9.58619 25.2915 9.67827 25.0391 9.67827 24.7866C9.67827 24.7025 9.77297 24.6183 9.86242 24.6183C10.1386 24.6183 10.4175 24.5342 10.7832 24.5342C10.8753 24.5342 10.9673 24.45 10.9673 24.3659C10.9673 24.1976 11.0594 24.0293 11.0594 23.861C11.0594 23.6927 11.1541 23.6927 11.3356 23.6927C11.6119 23.6927 11.8907 23.6085 12.1643 23.6085C12.2564 23.6085 12.3485 23.6085 12.3485 23.4402C12.3485 23.2719 12.4406 23.0195 12.4406 22.8512C12.4406 22.6829 12.5326 22.5987 12.7168 22.5987C15.0213 22.3463 17.2312 21.8414 19.2595 20.9999C20.0882 20.6633 20.8248 20.2425 21.564 19.8218C21.564 19.8218 21.6561 19.8218 21.6561 19.7376C21.7482 19.8218 21.9323 19.7376 22.0244 19.8218C22.6689 21.084 23.2214 22.3487 23.8685 23.6951C25.2497 26.6428 26.6335 29.5904 28.0146 32.5381C28.8433 34.3918 29.7641 36.2431 30.5954 38.0127C30.5954 38.0968 30.6875 38.181 30.5954 38.2651C30.5033 38.3517 30.4112 38.3517 30.3191 38.2651C30.135 38.0127 30.0429 37.7602 29.8588 37.4236C27.9225 33.2978 25.9889 29.0855 24.0527 24.9597C23.3135 23.445 22.5768 21.9279 21.9323 20.3291C21.9323 20.2449 21.8402 20.2449 21.8402 20.1608C21.4719 20.9181 21.1036 21.6755 20.6432 22.4352C20.0882 23.5292 19.5383 24.6255 18.9832 25.6354C18.3387 26.9818 17.6942 28.3306 16.9576 29.5928C16.313 30.8551 15.6685 32.1197 15.0213 33.382C14.2847 34.8967 13.5481 36.3297 12.8115 37.8444C12.8115 37.9309 12.7168 38.0127 12.6273 38.0968H12.3511C12.2564 38.0127 12.3511 37.9285 12.4432 37.8444C13.7323 35.2333 15.116 32.5381 16.4051 29.9294C17.6047 27.4867 18.8912 25.0439 20.0908 22.6035C20.4591 21.9303 20.7353 21.173 21.1063 20.4974C21.1063 20.4132 21.1983 20.3291 21.1983 20.2449C20.83 20.4132 20.5512 20.5815 20.1829 20.7498C18.707 21.5072 17.1417 22.0121 15.5764 22.3487C14.7477 22.517 13.827 22.6853 12.9062 22.7694C12.722 22.7694 12.63 22.8536 12.63 23.0219C12.3537 24.5366 11.8013 25.9695 11.433 27.4843C10.6043 30.3478 9.68353 33.2113 8.85221 36.159C8.11297 38.6017 7.37636 41.1286 6.63975 43.5714C6.36352 44.4129 6.08729 45.2568 5.90314 46.0983C5.81106 46.3508 5.90314 46.3508 6.08729 46.4349C6.91598 46.6032 7.83674 46.6874 8.76013 46.7715C9.31259 46.7715 9.86505 46.8557 10.3254 46.7715C11.8013 46.6874 13.3692 46.6032 14.8398 46.2642C15.024 46.2642 15.3002 46.0959 15.4843 46.0959C17.6047 45.3386 19.8172 44.6654 22.1191 44.3264C25.7127 43.8215 29.1222 44.2422 32.3475 45.8411C32.7158 46.0094 33.0867 46.1777 33.4524 46.4301C33.5751 46.4862 33.6365 46.4582 33.6365 46.346V22.9353C33.7286 22.6829 33.8207 22.6829 34.0048 22.8512C34.0969 23.0195 34.0048 23.1878 34.0048 23.3561V46.1777C34.0048 46.2618 33.9128 46.4301 34.0969 46.5143C34.2811 46.5143 34.3731 46.4301 34.4652 46.346C36.4014 45.3362 38.5192 44.7471 40.7317 44.4081C41.4709 44.324 42.297 44.2398 43.1283 44.2398C44.9724 44.2398 46.7219 44.4923 48.474 44.9972C49.6736 45.3338 50.8706 45.7545 52.0676 46.1753C53.6329 46.6802 55.2929 47.1009 56.9503 47.1851C58.6076 47.274 60.1756 47.1057 61.8329 46.685C62.0171 46.6008 62.1092 46.5167 62.0171 46.3484C60.8201 42.2202 59.6231 38.0944 58.4235 33.9686C57.5027 30.8527 56.5793 27.6526 55.6586 24.5366C55.5665 24.2 55.4744 23.8634 55.3823 23.5268C55.2903 23.0219 55.1982 23.0219 54.7378 22.9377C53.1725 22.6853 51.6046 22.3487 50.0366 21.7596C48.8396 21.3389 47.64 20.7498 46.6272 19.9901C47.8242 22.4328 48.9317 24.8756 50.1287 27.4001C51.4178 30.1795 52.7095 32.9588 53.9986 35.6541C54.2748 36.3273 54.6431 37.0005 54.9193 37.6737C55.0114 37.7578 55.1035 37.9261 55.0114 38.0103H54.8272C54.7352 37.9261 54.7352 37.842 54.6431 37.7578C53.8144 35.9883 52.8936 34.1369 52.0649 32.3674C50.7759 29.588 49.4842 26.8086 48.103 24.0293C47.5506 22.767 46.906 21.5024 46.3536 20.3243C46.3536 20.2401 46.2615 20.156 46.2615 20.0718C46.0774 20.4926 45.8011 20.9133 45.617 21.2499C45.0619 22.3439 44.5094 23.4402 43.957 24.6183C43.3124 25.8806 42.6679 27.1453 42.0207 28.4075C41.4656 29.5015 40.9158 30.5978 40.3607 31.6918C39.8056 32.7857 39.2558 33.8821 38.7034 34.8919C38.243 35.82 37.7826 36.7456 37.3222 37.6713C37.3222 37.7578 37.2301 37.8396 37.2301 37.9237C37.1354 38.0079 37.046 38.0079 36.9539 38.0079C36.8618 37.9237 36.9539 37.8396 36.9539 37.6713C37.4143 36.7432 37.8747 35.82 38.3351 34.8919C39.0743 33.3772 39.8109 31.8601 40.5475 30.4295C41.1921 29.1673 41.8366 27.9026 42.4837 26.6403C43.1283 25.3781 43.7728 24.0293 44.42 22.767C44.8804 21.9255 45.2487 21.0816 45.709 20.156C45.8011 19.9877 45.8932 19.8194 45.9853 19.6511C45.9853 19.5669 45.8906 19.3986 45.9853 19.3145C46.1694 19.3145 46.2615 19.3986 46.351 19.4828C48.3793 20.9133 50.5917 21.8414 53.0778 22.3463C53.817 22.5146 54.4589 22.5987 55.1982 22.6829C55.3823 22.6829 55.4744 22.767 55.5639 22.9353C55.5639 23.1036 55.6586 23.1878 55.6586 23.3561C55.6586 23.5244 55.7506 23.5244 55.9348 23.5244C56.211 23.5244 56.4899 23.5244 56.7635 23.6085C56.8862 23.6085 56.9783 23.6927 57.0397 23.861C57.0397 24.0293 57.1318 24.1976 57.1318 24.2817C57.1318 24.3659 57.2265 24.45 57.3159 24.45H58.2367C58.4208 24.45 58.4208 24.5342 58.5129 24.6183C58.6076 24.8708 58.6076 25.1232 58.6971 25.2915C58.6971 25.3757 58.7892 25.4598 58.8812 25.4598H59.6178C59.802 25.4598 59.8941 25.5159 59.8941 25.6281C60.3545 27.227 60.8148 28.8283 61.2752 30.4271C62.7511 35.481 64.1348 40.5324 65.6054 45.5862C65.6975 45.8387 65.7896 46.1753 65.8817 46.4277V46.596C65.9764 46.8485 65.9764 47.1009 65.8817 47.3534C65.7922 47.5217 65.7922 47.6058 65.7001 47.6058H65.7054Z" fill="#1D1E1C"/>
<path id="Vector_4" d="M22.9504 55.1009C23.1346 55.1851 23.1346 55.2692 23.2267 55.3534C23.9633 56.3632 24.4237 57.4595 24.5157 58.6376C24.6078 59.1425 24.6078 59.6474 24.6999 60.1523C24.792 60.7414 25.1603 61.0804 25.8048 61.0804C25.989 61.0804 26.1731 61.0804 26.3599 60.9962C27.1886 60.8279 27.8331 60.5755 28.5697 60.1547C28.2041 59.6498 27.741 59.5657 27.0044 59.734C27.0044 59.3974 27.1886 59.0608 27.4648 58.8925C27.741 58.7242 28.1093 58.64 28.3856 58.64C29.3063 58.5559 30.135 58.64 31.0558 58.8925C31.4241 58.9766 31.4241 59.1449 31.332 59.3998C31.2399 59.5681 31.1479 59.6522 30.9663 59.7364C30.6901 59.8205 30.4113 59.9888 30.0456 60.1571C29.9228 60.2132 29.8912 60.2974 29.9509 60.4096C30.0456 60.5779 30.2271 60.6621 30.4113 60.6621C30.9663 60.8304 31.4267 60.7462 31.9792 60.5779C32.3475 60.4096 32.4396 60.1571 32.4396 59.8205C32.1633 58.1351 31.9792 56.368 31.703 54.6826C31.6109 53.9252 31.5188 53.0837 31.3346 52.3239C31.3346 51.9873 31.3346 51.819 31.6109 51.4824C31.8871 52.0715 32.166 52.5764 32.5316 53.1679H32.166C32.0713 53.1679 31.9818 53.1679 31.9818 53.3362C32.0739 53.6728 32.0739 54.0935 32.166 54.4301C32.258 55.1875 32.3501 55.9448 32.4422 56.7046C32.5343 57.3778 32.6263 57.9668 32.7184 58.6424C32.8131 59.2315 32.8131 59.8205 32.6263 60.412C32.4422 61.0011 32.0713 61.4218 31.3373 61.5901C30.8769 61.6743 30.4165 61.5901 29.9561 61.4218C29.6799 61.2535 29.4037 61.0852 29.2195 60.8328C29.1274 60.7486 29.0354 60.7486 28.9433 60.7486C28.3882 61.0852 27.8384 61.3377 27.1938 61.506C26.7335 61.6743 26.2731 61.7584 25.8127 61.7584C25.5365 61.7584 25.3523 61.6743 25.0761 61.5901C24.7999 61.506 24.7078 61.3377 24.6157 61.0852C24.5236 60.8328 24.4316 60.5779 24.4316 60.3279C24.4316 60.1596 24.4316 59.9913 24.3395 59.8229H24.2448C23.6002 60.9169 22.5874 61.5925 21.4798 62.1816C21.3878 62.2657 21.2036 62.2657 21.1142 62.3499C20.7459 62.5182 20.2855 62.5182 19.9145 62.434C19.4542 62.3499 19.27 62.0974 19.1753 61.7608C19.0832 61.5084 19.0832 61.2535 19.1753 61.0035V60.6669C19.0832 60.751 18.8991 60.8352 18.8096 60.9193C18.1651 61.3401 17.5206 61.6767 16.7813 61.9291C16.1368 62.1816 15.4002 62.2657 14.753 62.2657C13.1877 62.1816 12.5432 61.1718 12.5432 60.1595C12.5432 59.4863 12.7273 58.8973 13.0956 58.39C13.1877 58.3058 13.2798 58.1375 13.3719 58.0534C13.3719 58.2217 13.2798 58.3058 13.2798 58.39C13.0956 58.8107 12.9115 59.3156 12.9115 59.8205C12.9115 60.5779 13.2798 61.0828 14.1085 61.3353C14.9372 61.5877 15.6764 61.5036 16.5051 61.3353C17.0576 61.1669 17.61 60.9145 18.1625 60.6621C18.8991 60.2413 19.4515 59.8205 20.0987 59.3132C20.1908 59.2291 20.2829 59.1449 20.2829 58.979C20.2829 58.3034 20.1908 57.5485 20.0987 56.8729C20.0014 56.1997 20.0014 55.6106 19.9093 54.935C19.8146 54.1777 19.7251 53.4203 19.6331 52.7447C19.541 52.3239 19.541 51.819 19.4489 51.3983V51.1458C19.541 51.0617 19.6331 50.9775 19.7251 50.9775C19.8172 50.9775 19.8172 51.0617 19.9093 51.1458C20.0934 51.6531 20.275 52.0739 20.4617 52.5764V52.663C20.3697 52.663 20.2776 52.4947 20.0934 52.4947V52.663C20.1855 54.0094 20.3697 55.3582 20.4617 56.6204C20.4617 57.1277 20.5538 57.6302 20.5538 58.1375C20.5538 58.4741 20.4617 58.8949 20.3697 59.2339C20.1855 59.6546 20.0014 60.0754 19.541 60.3279C19.4489 60.412 19.3568 60.4962 19.3568 60.5803C19.3568 60.7486 19.3568 61.0011 19.4515 61.1694C19.5436 61.4218 19.7278 61.5901 20.0961 61.5901C20.4644 61.5901 20.8353 61.5901 21.201 61.4218C22.0297 61.0876 22.7663 60.5803 23.5055 59.9912C23.7818 59.7388 23.9659 59.4839 24.1501 59.2339C24.2421 59.1497 24.2421 58.9814 24.2421 58.8973C24.058 57.8033 23.687 56.7911 23.2267 55.7813C23.1346 55.6972 23.1346 55.613 23.1346 55.4471C22.9504 55.6948 22.9504 55.4423 22.9504 55.1057V55.1009Z" fill="white"/>
<path id="Vector_5" d="M41.1947 62.3427C42.2075 61.9219 43.223 61.5012 44.2358 61.0804C45.5249 60.4914 46.8166 59.8181 48.1057 59.1425C48.3819 58.9742 48.6581 58.8059 48.9344 58.6352C49.2106 58.4669 49.3947 58.2145 49.3947 57.8779C49.3947 57.7096 49.3947 57.6254 49.3 57.4571C48.9344 56.9498 48.5634 56.4473 48.2872 55.8583C48.1925 55.6058 48.103 55.4375 48.1925 55.1851C48.1925 55.0985 48.1925 55.0168 48.2872 54.9326C48.5634 55.1009 48.7476 55.3534 49.0238 55.5217C49.1159 55.6082 49.0238 55.69 49.0238 55.7741C48.9317 55.8583 48.9317 55.9424 49.0238 56.0266C49.208 56.279 49.3921 56.5315 49.5789 56.6998C49.7631 56.9522 49.8551 57.2888 49.8551 57.6254C49.8551 57.8779 49.7604 58.1327 49.7604 58.3828C49.6683 58.7194 49.4842 59.056 49.1159 59.2243C48.9317 59.3084 48.7476 59.4767 48.5608 59.5609C48.4994 59.617 48.438 59.6731 48.3766 59.7292C48.2819 60.0658 48.2819 60.4048 48.3766 60.739C48.4714 61.2463 48.837 61.4963 49.3921 61.5805C49.8525 61.5805 50.2208 61.5805 50.5891 61.4122C51.6967 60.9097 52.7095 60.2341 53.5382 59.3926C53.6303 59.306 53.6303 59.2243 53.7223 59.1401C53.8144 59.056 53.8144 58.8877 53.7223 58.8035C53.6303 58.7194 53.5382 58.7194 53.4461 58.7194C53.0804 58.8035 52.7095 58.8035 52.3412 58.8035C51.7861 58.7194 51.4204 58.3828 51.6967 57.7937C51.6967 57.7096 51.7887 57.6254 51.7887 57.5413C52.157 56.8681 52.8936 56.7839 53.4461 57.2888C53.8144 57.6254 53.9986 58.0462 54.0906 58.4669C54.0906 58.5511 54.0906 58.6352 54.1827 58.7194C54.2774 59.056 54.1827 59.395 53.9065 59.7292C53.1699 60.5707 52.3412 61.3281 51.2363 61.8354C50.6812 62.0878 50.2208 62.2561 49.5763 62.2561C48.6555 62.2561 48.1951 61.8354 48.103 60.9938V59.8157C48.011 59.8157 47.9189 59.8999 47.8268 59.8999C46.9981 60.4048 46.0774 60.9097 45.154 61.3305C44.6936 61.5829 44.2332 61.7512 43.6808 61.8354C42.76 62.172 41.9287 62.2561 41.1921 62.3403C41.1921 62.3964 41.1921 62.3964 41.1921 62.3403L41.1947 62.3427Z" fill="white"/>
<path id="Vector_6" d="M36.9566 59.0583C36.9566 59.3108 36.8618 59.5632 36.8618 59.8157C36.8618 60.1499 36.8618 60.4889 36.9566 60.8255C37.1407 61.3328 37.509 61.5828 38.1535 61.667C38.706 61.667 39.1664 61.5828 39.6268 61.3304C40.3634 60.9938 41.0079 60.573 41.6551 60.0681C41.8392 59.8998 42.0234 59.8157 42.1155 59.6474C42.2075 59.5632 42.2996 59.4791 42.3917 59.3949C42.5758 59.1425 42.6679 58.8876 42.4838 58.5534C42.2996 58.2168 42.1155 57.7961 41.9287 57.4571C41.8366 57.2046 41.7445 57.0363 41.7445 56.7815V56.4473C41.9287 56.5314 42.0207 56.6997 42.2049 56.7815C42.3891 56.868 42.4811 57.0339 42.6653 57.1181V57.2022C42.5732 57.2888 42.4811 57.2888 42.4811 57.3729C42.4811 57.4571 42.5732 57.5412 42.6653 57.6254C43.1257 58.3827 43.0336 59.2242 42.6653 59.984C42.6653 60.0705 42.5732 60.0705 42.5732 60.0705C41.9287 60.6596 41.1921 61.2486 40.3634 61.756C39.903 62.0084 39.4426 62.2609 38.8875 62.345C38.6113 62.4292 38.3324 62.4292 38.0588 62.345C37.5985 62.2609 37.3196 62.0084 37.0434 61.6694C36.7671 61.2486 36.7671 60.8279 36.7671 60.4071C36.5856 59.9864 36.6777 59.4815 36.9539 59.0607L36.9566 59.0583Z" fill="white"/>
<path id="Vector_7" d="M34.4679 60.9116C34.4679 60.2383 34.3758 59.6493 34.3758 58.9737C34.2837 58.0456 34.1916 57.0358 34.0996 56.1102C34.0075 55.1004 33.9154 54.1723 33.7339 53.1625C33.7339 52.8259 33.6392 52.4893 33.5497 52.2368C33.5497 52.0685 33.5497 51.8161 33.6418 51.6478C33.6418 51.5636 33.7339 51.4795 33.826 51.4795C33.918 51.4795 33.918 51.5636 34.0101 51.6478C34.2863 52.1527 34.5626 52.5734 34.6546 53.1625V53.3308C34.4705 53.2467 34.3784 53.1625 34.1943 53.1625C34.1943 53.3308 34.1943 53.5833 34.2863 53.7516C34.3784 54.7614 34.5626 55.8577 34.6546 56.8675C34.7467 57.5407 34.8388 58.2139 34.8388 58.8895C34.9335 59.5627 34.8388 60.1518 34.5626 60.7433C34.5626 60.7433 34.5626 60.8274 34.4705 60.9116H34.4679Z" fill="white"/>
<path id="Vector_8" d="M45.617 52.7421C45.4328 52.6579 45.3408 52.5737 45.1566 52.4896V52.6579C45.2487 53.6677 45.4328 54.6775 45.5249 55.6897C45.617 56.5312 45.7091 57.2886 45.8011 58.1325C45.8932 58.7215 45.8011 59.3947 45.5249 59.9021C45.5249 59.9862 45.4328 59.9862 45.4328 60.0703H45.3408C45.3408 59.7337 45.2487 59.4813 45.2487 59.1423C45.1566 58.1325 45.0645 57.1227 44.9725 56.1946C44.7883 54.8458 44.6962 53.4153 44.42 52.0688C44.42 51.8164 44.3279 51.5615 44.42 51.3115C44.42 51.2273 44.42 51.1432 44.5121 51.1432C44.6068 51.059 44.7883 51.059 44.7883 51.1432C45.1592 51.5639 45.4355 52.0688 45.6196 52.7421H45.617Z" fill="white"/>
<path id="Vector_9" d="M39.6294 55.4374C39.6294 55.6057 39.5373 55.6898 39.5373 55.8581C39.4452 56.1106 39.3532 56.363 39.169 56.6155C38.9849 56.7838 38.8007 57.0362 38.7086 57.2045C38.7086 57.2045 38.7086 57.2911 38.8007 57.2911C39.2611 57.5435 39.4452 57.9643 39.4452 58.4692C39.4452 58.6375 39.4452 58.8058 39.3532 58.9765C39.2611 59.2289 39.169 59.4814 38.8928 59.6497C38.7086 59.818 38.4324 59.9021 38.1562 59.9863C37.7879 60.0704 37.5116 59.9863 37.4196 59.6497V59.4814C37.4196 58.8082 37.5116 58.2191 37.972 57.6277C38.0641 57.5435 38.0641 57.4594 37.972 57.3752C37.6958 57.1228 37.5116 56.8703 37.2354 56.5337C37.1433 56.3654 37.0513 56.2813 37.0513 56.113V55.6922C37.4196 55.8605 37.6958 56.0288 38.0641 56.1971C37.9413 56.3654 37.972 56.5337 38.1562 56.702C38.2176 56.7581 38.3096 56.8142 38.4324 56.8703C38.8007 56.363 39.2611 55.8605 39.6294 55.3532C39.6294 55.2691 39.6294 55.3532 39.6294 55.4374Z" fill="white"/>
<path id="Vector_10" d="M25.5312 56.8697C25.5312 56.6173 25.7153 56.3624 25.9916 56.2807C26.6361 55.9441 27.1886 55.6075 27.8357 55.2709C28.7565 54.766 29.5852 54.3452 30.5086 53.8403C30.5086 53.8403 30.6006 53.8403 30.6006 53.7562C30.6927 53.7562 30.7848 53.672 30.7848 53.7562C30.8769 53.8403 30.8769 53.9244 30.7848 54.0086C30.6927 54.0927 30.6006 54.0928 30.6006 54.1769C29.1274 54.9343 27.5595 55.6916 26.0863 56.5355C25.9942 56.5355 25.9021 56.6197 25.9021 56.6197C25.81 56.7038 25.81 56.788 25.81 56.8721C25.81 56.9563 25.9021 56.9563 25.9942 56.9563C26.0863 56.9563 26.1784 57.0404 26.2704 57.1246C26.2704 57.2087 26.3625 57.2087 26.2704 57.2929C26.2704 57.377 26.1784 57.377 26.0863 57.377C25.6259 57.4612 25.5338 57.2087 25.5338 56.8721L25.5312 56.8697Z" fill="white"/>
<path id="Vector_11" d="M22.398 53.5015C22.7663 53.2491 23.2267 52.9942 23.5976 52.66C23.1372 52.5735 22.6768 52.66 22.3085 52.7442C22.2164 52.7442 22.1244 52.8283 22.0323 52.7442C21.9376 52.66 22.0323 52.5759 22.0323 52.4917C22.0323 52.3234 22.2164 52.1551 22.3085 52.071C22.7689 51.7344 23.324 51.6502 23.8738 51.8185C23.9966 51.8746 24.058 51.9588 24.058 52.071C23.9659 52.9125 23.5029 53.3332 22.5821 53.4174C22.398 53.5015 22.398 53.5857 22.398 53.5015Z" fill="white"/>
<path id="Vector_12" d="M35.2965 54.0908C36.0358 53.67 36.7724 53.2493 37.4169 52.7444C37.6011 52.5761 37.7852 52.4919 37.8773 52.3236C37.8773 52.2395 37.7852 52.2395 37.6932 52.1553C37.509 51.987 37.4169 51.9029 37.509 51.7346V51.5663C37.4169 51.4821 37.4169 51.398 37.509 51.3138C37.509 51.1455 37.6011 51.1455 37.7852 51.1455C38.2456 51.2321 38.6139 51.4821 38.8007 51.9029C38.8928 52.0712 38.8928 52.2395 38.706 52.3236C38.6139 52.4919 38.4298 52.4919 38.2456 52.4078C38.0615 52.3236 38.0615 52.4078 37.9694 52.4943C37.2301 53.2517 36.3094 53.7566 35.2965 54.0932C35.2965 54.1493 35.2965 54.1493 35.2965 54.0932V54.0908Z" fill="white"/>
<path id="Vector_13" d="M27.0965 52.7422C27.0965 52.4056 27.0965 52.1532 27.1886 51.8166C27.1886 51.73 27.1886 51.5641 27.2806 51.48C27.3727 51.3117 27.4648 51.2275 27.649 51.2275C27.8331 51.2275 27.9252 51.3117 28.0173 51.48C28.0173 51.5361 27.9866 51.5922 27.9252 51.6483H27.649C27.5569 51.6483 27.4648 51.6483 27.4648 51.8166C27.3727 51.9849 27.3727 52.1532 27.3727 52.3215C27.3727 52.6581 27.4648 52.9105 27.3727 53.2471C27.3727 53.3337 27.3727 53.4155 27.2806 53.4155C27.1886 53.4155 27.0965 53.3313 27.0965 53.2471C27.0044 53.163 26.9123 52.9947 26.9123 52.913C26.8203 52.8264 26.8203 52.6605 26.7282 52.5764C26.6361 52.4922 26.544 52.4081 26.452 52.4081C26.2678 52.4081 26.1757 52.3239 25.9916 52.2398C25.8074 52.1532 25.7153 51.9031 25.7153 51.819C25.8074 51.7324 25.9916 51.6507 26.1757 51.7324C26.3599 51.7324 26.452 51.819 26.452 51.9849C26.6361 52.2373 26.7282 52.4056 26.9123 52.6605C27.0044 52.6581 27.0044 52.7422 27.0965 52.7422Z" fill="white"/>
<path id="Vector_14" d="M42.1155 52.9943C41.9313 52.9943 41.8392 52.9101 41.8392 52.7418C41.7471 52.5735 41.6551 52.4052 41.563 52.2369C41.4999 52.1247 41.4078 52.0686 41.2868 52.0686C41.1026 52.0686 41.0105 52.0686 40.8264 51.9845C40.6422 51.9003 40.5502 51.8162 40.6422 51.6479C40.6422 51.5637 40.8264 51.3954 41.0079 51.3954C41.1894 51.3954 41.2841 51.4796 41.3762 51.5637C41.5604 51.732 41.7419 51.9845 41.8366 52.1528C41.8366 52.2393 41.9287 52.2393 42.0207 52.3211C42.0207 51.9845 42.1128 51.732 42.1128 51.393C42.1128 51.2247 42.1128 51.1406 42.2049 51.0564C42.297 50.8881 42.5732 50.8881 42.76 50.9723C42.8521 51.0564 42.8521 51.1406 42.76 51.2247C42.6986 51.2247 42.6372 51.2528 42.5758 51.3089C42.4531 51.3089 42.361 51.393 42.2996 51.5613C42.2075 51.9821 42.2075 52.4894 42.1155 52.9943Z" fill="white"/>
<path id="Vector_15" d="M50.7785 55.605C50.6838 55.605 50.5944 55.605 50.5944 55.5184C50.5944 55.4319 50.5944 55.4343 50.6864 55.4343C50.7785 55.4343 50.7785 55.3477 50.8706 55.3477C51.7914 54.8428 52.7148 54.4221 53.5434 53.9172C53.6355 53.9172 53.6355 53.833 53.7276 53.833C53.8197 53.833 53.9118 53.833 53.9118 53.9172V54.0855C53.9118 54.0855 53.8197 54.172 53.7276 54.172C52.8068 54.5928 51.9781 55.0135 51.0574 55.5184C50.9653 55.605 50.8732 55.605 50.7812 55.605H50.7785Z" fill="white"/>
<path id="Vector_16" d="M43.4992 54.5111C43.4992 54.5976 43.4072 54.5976 43.3151 54.6794C42.9468 54.8477 42.6705 55.016 42.3022 55.2684C41.7472 55.605 41.1973 55.8575 40.5528 56.1941C40.4607 56.2806 40.3686 56.2806 40.2766 56.2806C40.1845 56.2806 40.1845 56.2806 40.0924 56.1941C40.0924 56.138 40.1231 56.1099 40.1845 56.1099L40.2766 56.0258C41.1973 55.5185 42.1207 55.016 43.0415 54.4269C43.1336 54.4269 43.1336 54.3428 43.2256 54.3428C43.4072 54.3428 43.4992 54.4269 43.4992 54.5111Z" fill="white"/>
<path id="Vector_17" d="M46.5404 51.9848C46.4483 51.9848 46.3562 51.9848 46.3562 51.9007C46.3562 51.8165 46.3562 51.8165 46.4509 51.8165C46.4509 51.8165 46.543 51.8165 46.543 51.73C47.4638 51.3958 48.2925 51.1409 49.2159 50.8043C49.2772 50.8043 49.3386 50.7755 49.4 50.7178C49.4921 50.7178 49.5842 50.7178 49.5842 50.8043C49.5842 50.8909 49.5842 50.9726 49.4921 50.9726C49.4 50.9726 49.4 50.9726 49.3079 51.0568C48.3872 51.3092 47.5585 51.6458 46.6377 51.8983C46.6377 51.8983 46.6377 51.9848 46.5456 51.9848H46.5404Z" fill="white"/>
<path id="Vector_18" d="M48.5661 53.2491C48.3819 53.4174 48.2898 53.5857 48.1057 53.7564C48.0443 53.8125 47.9829 53.8125 47.9215 53.7564C47.7374 53.5881 47.4611 53.4198 47.277 53.2491C47.2156 53.193 47.2156 53.1369 47.277 53.0808C47.3691 52.9967 47.5532 52.8284 47.6453 52.7442C47.7067 52.6881 47.7681 52.6881 47.8295 52.7442C48.0136 52.9125 48.2898 53.0808 48.5661 53.2491Z" fill="white"/>
<path id="Vector_19" d="M37.1407 53.5859C37.4169 53.7542 37.6958 53.8384 37.9694 54.0067C38.0615 54.0067 38.0615 54.0908 37.9694 54.175C37.8773 54.3433 37.7852 54.5116 37.6932 54.6799C37.509 54.6799 37.3249 54.5116 37.1381 54.4274C36.7698 54.2591 36.7698 54.3433 36.9539 53.9225C36.9539 53.8384 37.046 53.7542 37.1381 53.5859H37.1407Z" fill="white"/>
<path id="Vector_20" d="M38.3377 53.3335C38.6139 53.5018 38.8902 53.5859 39.0743 53.7542C39.1357 53.8103 39.1664 53.8664 39.1664 53.9225C39.0743 54.0908 38.9822 54.175 38.9822 54.3433C38.9822 54.4274 38.8902 54.4274 38.7981 54.4274C38.6139 54.3433 38.3377 54.175 38.1535 54.0908C38.0588 54.0908 38.0588 54.0067 38.0588 53.9225C38.243 53.6701 38.243 53.5018 38.3351 53.3311L38.3377 53.3335Z" fill="white"/>
<path id="Vector_21" d="M16.4998 55.4375V56.279C16.4998 56.7839 16.684 56.7839 17.1443 56.6156H17.2364C17.2364 56.8681 17.1443 57.0364 17.0523 57.2047C16.8681 57.373 16.684 57.373 16.4998 57.2047C16.3157 57.0388 16.3157 56.7863 16.3157 56.5315C16.2236 56.1949 16.3157 55.7741 16.4998 55.4375Z" fill="white"/>
<path id="Vector_22" d="M29.5852 62.5104C29.401 62.6788 29.1248 62.847 28.7565 62.847C28.4803 62.847 28.2961 62.6787 28.4803 62.4263C28.4803 62.3421 28.5723 62.258 28.5723 62.1738C28.4803 62.0897 28.2961 62.0897 28.2961 62.0055V61.8372C28.2961 61.6689 28.3882 61.6689 28.6644 61.6689C28.6644 61.7555 28.6644 61.9214 28.7565 62.0055C28.8486 62.0897 28.8486 62.1738 28.7565 62.258C28.7565 62.3421 28.6644 62.4263 28.5723 62.4263C28.4803 62.5946 28.4803 62.6787 28.6644 62.6787C28.8486 62.6787 28.9406 62.6788 29.1248 62.5946C29.401 62.4263 29.4931 62.4263 29.5852 62.5104C29.5852 62.4543 29.5852 62.4543 29.5852 62.5104Z" fill="white"/>
<path id="Vector_23" d="M15.5791 58.8053C15.6711 59.0578 15.6711 59.3102 15.6711 59.5627C15.5791 59.5627 15.487 59.4785 15.487 59.3944C15.3949 59.3102 15.3949 59.2261 15.3028 59.1419C15.2081 58.8895 15.0266 58.7212 14.7478 58.7212C14.6557 58.7212 14.4715 58.637 14.4715 58.5529C14.3794 58.3846 14.3794 58.3004 14.5636 58.3004C14.7478 58.2163 14.8398 58.3004 15.024 58.387C15.2081 58.5553 15.3923 58.8077 15.4844 58.976C15.5764 59.0602 15.5764 58.8919 15.5764 58.8919C15.4844 58.8919 15.3923 58.8077 15.5764 58.8077L15.5791 58.8053Z" fill="white"/>
<path id="Vector_24" d="M29.6773 51.4791V51.8157C29.6773 52.1499 29.7693 52.2365 30.0456 52.1499H30.1376C30.1376 52.3182 30.0456 52.4865 29.8614 52.5707C29.6773 52.6572 29.4931 52.4865 29.401 52.3182V51.9816C29.401 51.8133 29.4931 51.645 29.5852 51.3926C29.7693 51.3926 29.6773 51.4767 29.6773 51.4767V51.4791Z" fill="white"/>
<path id="Vector_25" d="M25.255 54.0905C25.255 54.177 25.1629 54.3429 25.1629 54.4271C25.0708 54.6795 25.1629 54.7637 25.4391 54.7637H25.5312V54.8478C25.4391 55.1003 25.255 55.1844 25.0708 55.1003C24.8867 55.0161 24.7946 54.8478 24.8867 54.6795C24.8867 54.4271 24.9787 54.1746 25.255 54.0905C25.255 54.0063 25.1629 54.0063 25.255 54.0905Z" fill="white"/>
<path id="Vector_26" d="M28.4803 56.2784V56.7833C28.4803 57.1199 28.5723 57.1199 28.9406 57.0358H29.0327V57.2041C28.9406 57.3724 28.8486 57.4565 28.6644 57.4565C28.5723 57.4565 28.3882 57.2882 28.3882 57.2041V56.6992C28.3882 56.5309 28.3882 56.3626 28.4803 56.2784C28.4803 56.2223 28.4803 56.2223 28.4803 56.2784Z" fill="white"/>
<path id="Vector_27" d="M33.0867 61.2479C33.0867 61.4162 32.9946 61.5003 32.9946 61.6686C32.9026 61.9211 32.9946 61.9211 33.2709 61.9211H33.3629C33.2709 62.1735 33.0867 62.2577 32.9026 62.1735C32.7184 62.087 32.7184 61.9211 32.7184 61.7528C32.8105 61.5003 32.9026 61.332 33.0867 61.0771C33.0867 61.1613 33.0867 61.2454 33.0867 61.2454V61.2479Z" fill="white"/>
<path id="Vector_28" d="M21.8455 58.2163C21.8455 58.3005 21.7534 58.3846 21.7534 58.4688C21.6903 58.6371 21.7517 58.7493 21.9376 58.8054H22.0297V58.8895C21.8455 59.0578 21.6614 59.142 21.5693 59.0578C21.3851 58.9737 21.3851 58.8054 21.4772 58.5529C21.5693 58.3846 21.6614 58.2163 21.8455 58.2163C21.8455 58.1322 21.8455 58.048 21.8455 58.2163Z" fill="white"/>
<path id="Vector_29" d="M23.5029 61.9218C23.5029 62.006 23.4108 62.006 23.4108 62.0902C23.3187 62.2585 23.4108 62.3426 23.595 62.4268H23.687C23.595 62.5951 23.3187 62.6792 23.2267 62.5951C23.0425 62.5085 23.0425 62.3426 23.1346 62.0877C23.2267 61.9194 23.3187 61.8353 23.4108 61.7536C23.4108 61.7536 23.5029 61.7535 23.5029 61.667C23.5643 61.667 23.595 61.6958 23.595 61.7536C23.595 61.8113 23.5643 61.8682 23.5029 61.9243V61.9218Z" fill="white"/>
<path id="Vector_30" d="M50.4102 59.2266V59.479C50.4102 59.6473 50.4102 59.7315 50.6865 59.7315H50.8706C50.8706 59.7315 50.8706 59.8156 50.7785 59.8156C50.6865 59.9839 50.5023 60.0681 50.4102 59.9839C50.3181 59.8998 50.2261 59.7315 50.2261 59.6497C50.2261 59.479 50.3181 59.3107 50.4102 59.2266Z" fill="white"/>
<path id="Vector_31" d="M17.9757 62.0059C17.9143 62.2303 17.9757 62.3706 18.1598 62.4267C18.1598 62.5108 18.0678 62.5108 18.0678 62.595C17.8836 62.6791 17.7915 62.595 17.7915 62.4267C17.7915 62.3425 17.7915 62.2584 17.8836 62.1742C17.7915 62.0901 17.7915 62.0059 17.9757 62.0059C17.9757 61.9498 17.9757 61.9498 17.9757 62.0059Z" fill="white"/>
<path id="Vector_32" d="M15.579 58.2167C15.487 58.385 15.579 58.4691 15.579 58.5533C15.579 58.6374 15.579 58.6374 15.487 58.6374V58.0484C15.579 58.0484 15.487 57.9642 15.579 57.8801L15.6711 57.7959H15.9474L16.0421 57.8801C16.0421 57.8801 16.0421 57.9666 16.1341 57.9666V58.0508C15.8553 58.2167 15.6711 58.1325 15.579 58.2167Z" fill="white"/>
<path id="Vector_33" d="M21.6614 55.1847C21.5693 55.353 21.6614 55.353 21.8455 55.4371C21.7534 55.5213 21.6614 55.6054 21.5693 55.5213C21.4772 55.4371 21.4772 55.353 21.4772 55.2688C21.4772 55.1847 21.5693 55.1847 21.6614 55.1847C21.6614 55.1286 21.6614 55.1286 21.6614 55.1847Z" fill="white"/>
<path id="Vector_34" d="M15.487 58.7217C15.5817 58.6376 15.487 58.5534 15.5817 58.4692C15.5817 58.3851 15.5817 58.3009 15.6738 58.2168V58.8059C15.5817 58.89 15.6738 58.9742 15.5817 59.0583C15.5817 59.1425 15.487 59.1425 15.487 59.0583C15.487 58.89 15.3949 58.8059 15.487 58.7217Z" fill="white"/>
<path id="Vector_35" d="M46.4483 61.6692V61.8375C46.4483 61.8375 46.5404 61.8375 46.5404 61.9217C46.5404 61.9217 46.5404 62.0058 46.4483 62.0058C46.3562 62.0058 46.3562 62.0058 46.3562 61.9217C46.3562 61.8375 46.3562 61.7534 46.4483 61.6692Z" fill="white"/>
<path id="Vector_36" d="M47.0008 57.0384C47.0008 57.0384 47.0928 57.0384 47.0928 57.1249C47.0928 57.1249 47.0928 57.2091 47.0008 57.2091C46.9087 57.2091 46.9087 57.2091 46.9087 57.1249C46.9087 57.0672 46.9394 57.0384 47.0008 57.0384Z" fill="white"/>
<path id="Vector_37" d="M35.2966 54.0908C35.2966 54.1774 35.2045 54.2591 35.1124 54.2591C35.0203 54.2591 35.0203 54.2591 35.0203 54.175C35.1124 54.175 35.2045 54.0908 35.2966 54.0908Z" fill="white"/>
<path id="Vector_38" d="M21.8455 58.2163C21.7534 58.048 21.8455 58.048 21.9376 57.9639V58.048C21.9376 58.048 21.8455 58.1322 21.8455 58.2163Z" fill="white"/>
<path id="Vector_39" d="M29.6773 51.48C29.6773 51.4239 29.6466 51.3678 29.5852 51.3117C29.5852 51.2556 29.6159 51.2275 29.6773 51.2275C29.7693 51.3117 29.7693 51.3958 29.6773 51.48Z" fill="white"/>
<path id="Vector_40" d="M47.0008 57.0386C46.9087 56.9544 46.9087 56.8703 47.0008 56.7861V57.0386Z" fill="white"/>
<path id="Vector_41" d="M41.1947 62.3418C41.1947 62.3979 41.1947 62.3979 41.1947 62.3418C41.1947 62.4259 41.1026 62.4259 41.0105 62.4259C41.0105 62.4259 41.1026 62.3418 41.1947 62.3418Z" fill="white"/>
<path id="Vector_42" d="M23.595 61.8372C23.5029 61.7531 23.5029 61.8372 23.595 61.8372C23.595 61.7531 23.595 61.6689 23.687 61.6689C23.7791 61.6689 23.7791 61.6689 23.7791 61.7555C23.687 61.7555 23.595 61.7555 23.595 61.8372Z" fill="white"/>
<path id="Vector_43" d="M21.6613 55.1851C21.6613 55.129 21.6613 55.129 21.6613 55.1851C21.6613 55.0729 21.692 54.9887 21.7534 54.9326C21.7534 55.0168 21.7534 55.1009 21.6613 55.1851Z" fill="white"/>
<path id="Vector_44" d="M23.687 61.6693C23.687 61.5851 23.687 61.501 23.7791 61.501C23.7791 61.5851 23.687 61.6693 23.687 61.6693Z" fill="white"/>
<path id="Vector_45" d="M36.9566 59.0579C36.8618 58.9738 36.9566 58.8896 36.9566 58.8896C37.0486 58.9738 37.0486 59.0579 36.9566 59.0579Z" fill="white"/>
<path id="Vector_46" d="M17.9757 62.0052C17.8836 61.9211 17.9757 61.9211 17.9757 62.0052C17.9757 61.9211 17.9757 61.8369 18.0678 61.8369C18.0678 61.8369 17.9757 61.9211 17.9757 62.0052Z" fill="white"/>
<path id="Vector_47" d="M39.6294 55.4369C39.6294 55.4369 39.6294 55.3527 39.5373 55.3527C39.5373 55.3527 39.5373 55.2686 39.6294 55.2686V55.4393C39.6294 55.3832 39.6294 55.3832 39.6294 55.4393V55.4369Z" fill="white"/>
<path id="Vector_48" d="M22.398 53.502C22.398 53.5861 22.4927 53.502 22.4927 53.5861L22.398 53.502C22.398 53.5861 22.3059 53.5861 22.398 53.502C22.3366 53.502 22.3366 53.502 22.398 53.502Z" fill="white"/>
<path id="Vector_49" d="M25.255 54.0912C25.1936 54.0351 25.1936 54.0351 25.255 54.0912V54.0912Z" fill="white"/>
<path id="Vector_50" d="M50.4102 59.2259C50.3181 59.1418 50.3181 59.0576 50.4102 59.0576C50.5023 59.0576 50.5023 59.0576 50.4102 59.2259Z" fill="white"/>
<path id="Vector_51" d="M50.4102 59.0579C50.3181 58.9738 50.4102 58.8896 50.4102 58.8896C50.5023 58.9738 50.5023 59.0579 50.4102 59.0579Z" fill="white"/>
<path id="Vector_52" d="M46.4483 61.6688C46.4483 61.5847 46.4483 61.5005 46.4483 61.5847C46.5404 61.5847 46.5404 61.6688 46.4483 61.6688Z" fill="white"/>
<path id="Vector_53" d="M33.0867 61.2484V61.0801C33.1788 61.1642 33.1788 61.2484 33.0867 61.2484Z" fill="white"/>
<path id="Vector_54" d="M15.8553 57.9635H15.5791C15.6711 57.8794 15.7632 57.8794 15.8553 57.9635Z" fill="white"/>
<path id="Vector_55" d="M35.0203 54.1748C35.0817 54.2309 35.0817 54.2309 35.0203 54.1748C35.0203 54.2309 34.9896 54.259 34.9282 54.259C34.8669 54.259 34.8362 54.2309 34.8362 54.1748C34.9589 54.2309 35.0203 54.2309 35.0203 54.1748Z" fill="white"/>
<path id="Vector_56" d="M29.5852 62.511C29.5852 62.3427 29.6773 62.3427 29.5852 62.511C29.6466 62.4549 29.6466 62.4549 29.5852 62.511Z" fill="white"/>
<path id="Vector_57" d="M34.9282 54.2588C34.9282 54.3429 34.8362 54.3429 34.8362 54.3429L34.9282 54.2588Z" fill="white"/>
<path id="Vector_58" d="M16.4998 55.4367C16.4385 55.4367 16.4385 55.4367 16.4998 55.4367C16.4385 55.3806 16.4385 55.3525 16.4998 55.3525V55.4367Z" fill="white"/>
<path id="Vector_59" d="M15.487 57.9639C15.487 58.02 15.4563 58.0761 15.3949 58.1322C15.3949 58.0761 15.4256 58.02 15.487 57.9639Z" fill="white"/>
<path id="Vector_60" d="M15.9474 58.132V58.0479C16.0394 58.0479 15.9474 58.132 15.9474 58.132Z" fill="white"/>
<path id="Vector_61" d="M65.7054 47.6066V47.5225C65.7975 47.5225 65.7975 47.6066 65.7054 47.6066Z" fill="#7B9383"/>
<path id="Vector_62" d="M32.9026 14.5086C32.9026 13.2463 32.8105 11.8975 32.8105 10.6353V9.62546C32.6263 9.79376 32.5343 9.96206 32.4422 10.2145C32.3501 10.467 32.3501 10.6353 32.258 10.8877C32.258 10.9719 32.166 11.056 32.166 11.1402C32.0739 11.3085 31.9818 11.3085 31.7977 11.2243C31.6135 11.1402 31.5214 10.9719 31.5214 10.8036C31.4293 10.5511 31.4293 10.2987 31.4293 10.0462C31.4293 9.96206 31.4293 9.79376 31.3346 9.70961C31.2426 9.87791 31.2426 10.1304 31.1505 10.2987C31.0584 10.467 31.0584 10.6353 30.8743 10.8036C30.7822 10.9719 30.6901 10.9719 30.5086 10.8036C30.2324 10.5511 30.2324 10.2987 30.1403 10.0462V9.45716C30.1403 9.37301 30.1403 9.45716 30.0482 9.45716C29.9535 9.54131 29.864 9.70961 29.772 9.79376C29.5878 9.87791 29.4957 9.87791 29.4037 9.70961C29.3116 9.54131 29.3116 9.37301 29.3116 9.28886V8.61566C29.2195 8.69981 29.1274 8.78396 29.0354 8.86811C28.9433 8.95226 28.7591 9.03641 28.6697 9.03641C28.4855 8.95226 28.4855 8.78396 28.4855 8.69981C28.4855 8.3632 28.5776 8.11075 28.7618 7.8583C28.8538 7.77415 28.8538 7.69 28.9459 7.60585H28.7618C28.4855 7.60585 28.4855 7.5217 28.4855 7.26925C28.4855 7.1851 28.5776 7.0168 28.6697 6.93265C28.7618 6.76435 28.9459 6.59605 29.1301 6.42774C29.1915 6.37164 29.2221 6.28749 29.2221 6.17529C29.1301 6.00699 29.2221 5.83869 29.4063 5.67039C29.5905 5.50209 29.8667 5.41794 30.0508 5.33379C30.235 5.24964 30.4165 5.24964 30.5112 5.16549C30.1429 4.82889 30.235 4.82889 30.6033 4.66059C31.2478 4.32398 31.8924 4.32398 32.5395 4.57643C32.8158 4.66059 32.9999 4.74474 33.2788 4.91304C33.4629 4.99719 33.555 4.99719 33.6471 4.91304C34.2022 4.57643 34.752 4.40813 35.4912 4.40813C35.6754 4.40813 35.9516 4.40813 36.1358 4.49228C36.3199 4.57643 36.5041 4.74474 36.5041 4.91304C36.5041 4.99719 36.5961 4.99719 36.6882 5.08134C37.0565 5.08134 37.4275 5.24964 37.7931 5.41794C38.1614 5.58624 38.2535 5.83869 37.8852 6.17529C38.3456 6.34359 38.4377 6.6802 38.5297 7.10095C38.3456 7.0168 38.1614 6.93265 37.9747 7.0168C37.9747 7.10095 38.0667 7.1851 38.1588 7.1851C38.343 7.43755 38.5245 7.69 38.6192 7.94245C38.7139 8.11075 38.7139 8.3632 38.6192 8.5315C38.2535 8.5315 38.1588 8.1949 37.88 8.1949C37.7879 8.27905 37.88 8.3632 37.88 8.3632C37.972 8.69981 37.972 9.12056 37.7879 9.45716C37.7265 9.56936 37.6344 9.56936 37.5116 9.45716C37.4196 9.37301 37.3275 9.28886 37.3275 9.20471C37.2354 9.12056 37.2354 8.95226 37.0513 8.86811C37.0513 9.03641 37.1433 9.28886 37.1433 9.45716C37.238 9.79376 37.1433 10.1304 36.9592 10.467C36.8671 10.6353 36.683 10.6353 36.5909 10.5511C36.5014 10.467 36.4094 10.3828 36.4094 10.2145C36.3147 10.0462 36.3147 9.87791 36.2252 9.79376C36.2252 9.70961 36.1331 9.62546 36.0411 9.54131C36.0411 9.87791 36.1331 10.1304 36.0411 10.467C36.0411 10.6353 35.949 10.8877 35.7648 11.056C35.6727 11.2243 35.5807 11.2243 35.4886 11.056C35.3044 10.9719 35.2097 10.8036 35.2097 10.7194C35.1177 10.5511 35.0282 10.2987 34.9335 10.1304C34.8388 9.96206 34.8388 9.79376 34.6573 9.70961V11.3085C34.6573 11.8134 34.6573 12.4024 34.7494 12.9073C34.7494 13.4122 34.7494 14.0013 34.8414 14.5062C34.9335 14.6745 34.9335 14.8428 35.0256 14.9269C34.9309 14.9269 34.8414 15.0111 34.8414 15.0952C34.8414 16.0209 34.9335 17.0331 34.9335 17.9588C34.9335 18.0429 34.9335 18.1271 35.1177 18.1271C35.3018 18.1271 35.486 18.1271 35.578 18.2954C35.6394 18.3515 35.7008 18.3515 35.7622 18.2954C36.0384 18.2954 36.1305 18.2954 36.2226 18.5478C36.2226 18.632 36.3147 18.7161 36.4067 18.7161C36.5883 18.7161 36.5883 18.8844 36.4988 19.0527C36.4988 19.1369 36.4067 19.221 36.3147 19.221L36.2226 19.3052C35.7622 19.6418 35.2071 19.7259 34.6573 19.7259C34.0127 19.6418 33.4577 19.7259 32.8131 19.7259C32.629 19.7259 32.4448 19.7259 32.2607 19.5576C32.166 19.4735 31.9818 19.3893 31.8924 19.3052C31.8003 19.221 31.7082 19.221 31.7082 19.1369C31.6161 18.9686 31.7082 18.8003 31.8924 18.8003C31.9844 18.8003 32.0765 18.7161 32.0765 18.632C32.0765 18.5478 32.1686 18.4637 32.3527 18.4637C32.5369 18.4637 32.721 18.4637 32.8131 18.2954C32.9052 18.2112 32.9973 18.2112 33.0894 18.2112C33.2121 18.2112 33.2735 18.1551 33.2735 18.0429V17.0331C33.2735 16.5282 33.2735 15.9391 33.1814 15.4342C33.1814 15.2659 33.1814 15.1818 32.9973 15.1818C32.8131 14.8452 32.721 14.6769 32.9052 14.5086H32.9026Z" fill="#007D5B"/>
<path id="Vector_63" d="M21.8455 19.6467H21.6614C21.6 19.6467 21.5693 19.6186 21.5693 19.5625C21.7534 19.1418 22.1217 18.8893 22.5821 18.721C23.2266 18.3844 23.8712 18.2161 24.6104 18.132C26.1757 17.8795 27.6516 17.9637 29.2169 18.3844C30.8742 18.8893 32.3501 19.6467 33.6392 20.743L33.7312 20.8272C33.7926 20.8833 33.854 20.8833 33.9154 20.8272C34.0101 20.743 34.0995 20.6589 34.1916 20.5747C35.5728 19.4808 37.1381 18.721 38.8928 18.3003C40.7369 17.7954 42.4864 17.8795 44.2385 18.4686C44.3332 18.4686 44.4226 18.5527 44.5147 18.5527C45.0698 18.721 45.5302 18.9735 45.8958 19.3942C45.8958 19.4784 46.08 19.6467 45.9879 19.7308C45.8038 19.815 45.7117 19.7308 45.5275 19.6467C44.4226 19.3101 43.223 19.1418 42.1181 19.2259C40.7369 19.3101 39.3532 19.6467 38.0641 20.2357C37.0513 20.6565 36.1279 21.1614 35.2992 21.7504C35.115 21.8626 35.0843 22.0029 35.2071 22.1712C35.4833 22.5078 35.8516 22.8444 36.1279 23.181C36.2199 23.0127 36.2199 22.9286 36.312 22.7602C36.4962 22.5078 36.7724 22.4236 37.0486 22.5919C37.6011 22.8444 37.6932 23.3493 37.3249 23.7701C37.2328 23.8542 37.1407 23.9384 37.0486 23.9384C36.7724 24.1067 36.7724 24.3591 37.0486 24.5274C37.1407 24.6116 37.2328 24.5274 37.3249 24.5274C37.509 24.4433 37.7852 24.3591 37.9694 24.4433C38.4298 24.5274 38.7981 24.864 38.7981 25.3689V25.7897C38.7981 26.2946 38.243 26.6312 37.6932 26.547C37.2328 26.4629 36.8645 26.2946 36.5882 26.0421C36.2199 25.7055 35.7596 25.2848 35.4833 24.864C35.3912 24.7799 35.3912 24.6957 35.2992 24.6957C35.2071 24.7799 35.0229 24.7799 35.0229 24.9482C35.0229 25.2848 34.9309 25.5372 34.6546 25.6214C34.3784 25.7055 34.0101 25.5372 33.826 25.2006C33.7339 24.7799 33.7339 24.6116 34.1943 24.3591C34.2863 24.275 34.4705 24.1908 34.5626 24.1067C34.7467 23.9384 34.8388 23.9384 34.5626 23.7701C34.2863 23.5176 34.1022 23.2652 33.826 23.0127L33.7339 22.9286C33.6111 22.8725 33.519 22.9005 33.4576 23.0127C33.3656 23.2652 33.1814 23.3493 32.9973 23.5176C32.9052 23.6018 32.8131 23.6859 32.721 23.7701C32.5983 23.8823 32.5983 23.9945 32.721 24.1067C32.9052 24.1908 33.0893 24.3591 33.2761 24.4433C33.3682 24.5274 33.3682 24.6116 33.4603 24.6957V25.2006C33.3682 25.4531 32.9999 25.6214 32.721 25.6214C32.4422 25.6214 32.2607 25.4531 32.2607 25.2006V24.9482C32.2607 24.7799 32.1686 24.6957 31.9844 24.6957C31.8923 24.6957 31.8003 24.7799 31.7082 24.864C31.432 25.2848 31.0637 25.6214 30.6033 25.958C30.3271 26.2104 29.9587 26.3787 29.5878 26.4629C28.9433 26.6312 28.4829 26.2104 28.3882 25.6214C28.3882 25.3689 28.3882 25.2006 28.4829 24.9482C28.667 24.4433 29.2195 24.1908 29.772 24.3591C29.8351 24.3591 29.8965 24.3872 29.9561 24.4433C30.1403 24.5274 30.2323 24.4433 30.3244 24.275C30.4165 24.1067 30.4165 24.0225 30.2323 23.9384C29.5878 23.5176 29.5878 22.9286 30.2323 22.5919C30.6006 22.4236 30.7874 22.5078 31.061 22.7602C31.1531 22.8444 31.1531 23.0127 31.2452 23.181C31.6109 22.7602 31.9818 22.4236 32.258 22.0029C32.3527 21.9187 32.3527 21.8346 32.258 21.7504C32.1659 21.6663 32.0739 21.6663 31.9818 21.5821C30.5059 20.5723 28.8486 19.8126 27.007 19.476C25.2576 19.1394 23.5976 19.1394 21.9402 19.6443C22.0323 19.6443 21.9402 19.6443 21.8481 19.6443L21.8455 19.6467Z" fill="#007D5B"/>
<path id="Vector_64" d="M23.595 15.0156C23.687 15.1839 23.8712 15.1839 24.0553 15.1839C24.421 15.1839 24.6078 15.0156 24.884 14.8472C24.9787 14.7631 24.9787 14.6789 25.0682 14.5948C25.4365 15.1839 25.9889 14.9314 26.2652 14.4265C26.3283 14.4265 26.3599 14.4545 26.3599 14.5106C26.544 14.6789 26.7256 14.6789 26.9123 14.5106C27.0044 14.4265 27.0044 14.3423 27.0965 14.2582C27.1886 14.3423 27.2806 14.4265 27.4648 14.5106C27.741 14.5948 27.9252 14.5106 27.9252 14.2582V14.0057C27.741 13.4167 27.649 12.8276 27.4648 12.2362C27.4648 12.152 27.3727 11.9837 27.4648 11.8996C27.4648 11.8154 27.5569 11.8154 27.649 11.8154C27.741 11.8154 27.7437 11.8996 27.7437 11.8996C27.8357 12.152 28.0199 12.4045 28.1093 12.5728C28.204 12.6569 28.204 12.7411 28.0173 12.7411C27.9226 12.7411 27.9226 12.8252 27.9226 12.9094C28.1067 13.3301 28.1067 13.835 28.1067 14.2558V14.5082C28.0146 14.8448 27.6463 15.0131 27.278 14.8448C27.1859 14.7607 27.0939 14.8448 27.0018 14.929C26.7256 15.2656 26.5414 15.2656 26.1731 15.0131C26.0784 15.0973 25.9889 15.1814 25.8969 15.2656C25.6206 15.518 25.3418 15.518 25.0682 15.2656L24.9761 15.1814C24.9147 15.2375 24.8533 15.2936 24.792 15.3497C24.4237 15.6863 23.9633 15.6863 23.5029 15.4339C23.4108 15.4339 23.4108 15.3497 23.3187 15.3497C23.2267 15.2656 23.1346 15.2656 23.0425 15.3497C22.8584 15.518 22.6768 15.6863 22.398 15.7705C22.3059 15.7705 22.3059 15.8546 22.3059 15.9388C22.2138 16.6962 21.6614 17.1169 21.0168 17.4535C20.9248 17.4535 20.8327 17.5377 20.7406 17.5377C20.2802 17.6218 20.004 17.4535 19.9119 17.0328V16.8645C19.8172 16.8645 19.8172 16.9486 19.7278 17.0328C19.5436 17.2852 19.2674 17.4535 18.9911 17.6218C18.5308 17.8743 18.1625 17.706 17.9757 17.2011H18.0704C18.5308 17.3694 18.8991 17.2852 19.1753 16.9486C19.4515 16.612 19.8198 16.2754 20.1908 15.9388C20.2828 15.8546 20.3749 15.7705 20.3749 15.6863C20.467 15.4339 20.3749 15.3497 20.1908 15.3497C19.8225 15.2656 19.4542 15.1814 19.0859 15.0973C18.9017 15.0131 18.7175 14.929 18.5334 14.7607C18.4387 14.6765 18.3492 14.5924 18.4387 14.4241C18.5334 14.3399 18.6228 14.3399 18.807 14.3399C18.9911 14.3399 19.0832 14.4241 19.1727 14.5924C19.2674 14.7607 19.4489 14.8448 19.6331 14.8448C19.8172 14.8448 20.0014 14.929 20.1881 14.929C20.5538 15.0131 20.7406 15.1814 20.7406 15.518C20.7406 15.7705 20.6485 16.023 20.4644 16.2754C20.3723 16.3596 20.2802 16.4437 20.2802 16.4437C20.1881 16.5279 20.0961 16.6962 20.1881 16.8645C20.1881 17.0328 20.2802 17.1169 20.4644 17.1169C20.8327 17.2011 21.1089 17.1169 21.3851 16.9486C21.6614 16.7803 21.9402 16.5279 22.1217 16.1913C21.9376 16.1913 21.7561 16.2754 21.5693 16.2754C21.2931 16.2754 21.1089 16.1071 21.1089 15.8546C21.1089 15.6022 21.201 15.4339 21.4746 15.3497C21.6587 15.2656 21.8429 15.3497 22.0297 15.4339C22.2138 15.518 22.3953 15.518 22.5821 15.518C22.6768 15.518 22.7663 15.4339 22.7663 15.4339C22.8584 15.3497 22.9504 15.2656 22.8584 15.1814C22.8584 15.0973 22.6742 15.0973 22.5821 15.0973H22.1217C21.9376 15.0973 21.8455 15.0131 21.9376 14.8448C21.9376 14.6765 22.0297 14.5924 22.2138 14.5082C22.6742 14.1716 23.2267 14.0875 23.8712 14.2558C24.0553 14.2558 24.2395 14.3399 24.2395 14.5082C24.2395 14.6765 24.1474 14.7607 23.9633 14.929C23.8738 14.8448 23.6897 14.929 23.5976 15.0131L23.595 15.0156Z" fill="#1D1E1C"/>
<path id="Vector_65" d="M47.5532 14.7635C47.6453 14.6793 47.7374 14.5952 47.8294 14.511C47.9215 14.4269 47.9215 14.3427 47.7374 14.3427C46.9981 14.3427 46.2615 14.3427 45.5275 14.6793C45.4355 14.7635 45.2513 14.7635 45.1592 14.9318C45.7143 15.3526 46.08 15.8575 46.2641 16.4465C46.3562 16.6148 46.4483 16.7831 46.6325 16.9514C46.7245 17.0356 46.8166 17.1197 46.9087 17.1197C47.1849 17.2039 47.4611 17.0356 47.5532 16.7831C47.5532 16.3624 47.5532 15.9416 47.6453 15.5209C47.6453 15.3526 47.6453 15.1843 47.9215 15.1001V17.2063C47.9215 17.5429 48.1057 17.7112 48.4766 17.627C48.6608 17.627 48.7528 17.5429 48.8449 17.3746C48.937 17.038 49.4 16.7855 49.8604 16.7014V15.1867C49.8604 15.1025 49.8604 14.9342 49.9525 14.9342C50.0445 14.9342 50.1366 15.0184 50.1366 15.1025C50.2287 15.2708 50.3208 15.5233 50.3208 15.7757C50.1366 15.8318 50.0445 15.916 50.0445 16.0282V16.6172C50.1392 16.7014 50.2287 16.6172 50.3208 16.6172C50.5049 16.6172 50.6891 16.7014 50.7811 16.8697C50.9653 17.1221 50.8732 17.3746 50.597 17.4587C50.3208 17.627 50.0419 17.5429 49.8578 17.2904C49.7657 17.2063 49.8578 17.1221 49.6736 17.038H49.3053C49.1211 17.1221 49.0291 17.2063 48.9396 17.3746C49.0317 17.4587 49.1238 17.3746 49.2159 17.3746C49.5842 17.3746 49.6762 17.5429 49.7709 17.8795C49.7709 18.1319 49.5868 18.3844 49.3106 18.4685C49.0343 18.5527 48.7555 18.3844 48.6634 18.1319C48.5713 18.0478 48.5713 17.9636 48.3872 17.9636H48.2951C47.74 17.9636 47.5585 17.8795 47.4664 17.3746C47.3743 17.3746 47.2822 17.4587 47.1902 17.4587C46.7298 17.627 46.3615 17.5429 46.0853 17.1221C45.9932 16.9538 45.9011 16.7855 45.809 16.6172C45.809 16.5331 45.809 16.4489 45.7169 16.4489C45.7169 16.5331 45.6222 16.6172 45.6222 16.6172C45.5302 16.7855 45.346 16.9538 45.1619 17.038C44.7962 17.2063 44.4253 17.1221 44.2411 16.7855C44.149 16.7014 44.149 16.5331 44.0569 16.4489C44.0569 16.2806 43.9649 16.2806 43.7807 16.1965C43.6886 16.1965 43.5966 16.2806 43.5045 16.3648C43.4124 16.4489 43.3203 16.6172 43.3203 16.7014C43.2283 16.8697 43.1362 16.9538 42.9547 17.038C42.6784 17.1221 42.3996 17.038 42.3101 16.7855C42.218 16.5331 42.218 16.2806 42.218 16.0282C42.3101 16.1123 42.3101 16.1965 42.3101 16.1965C42.3101 16.3648 42.4022 16.4489 42.4943 16.5331C42.6784 16.7855 42.86 16.7855 43.1388 16.6172C43.2002 16.5611 43.2616 16.505 43.323 16.4489C43.4177 16.2806 43.5992 16.1123 43.7833 15.944C43.8781 15.8599 43.9675 15.7757 44.0596 15.7757C44.2437 15.7757 44.4279 15.7757 44.4279 15.944C44.4279 16.0282 44.52 16.1965 44.52 16.2806C44.52 16.4489 44.7041 16.5331 44.8883 16.5331C45.0724 16.5331 45.2566 16.5331 45.3486 16.4489C45.4407 16.3648 45.4407 16.2806 45.5328 16.1965C45.5328 16.0282 45.5328 15.8599 45.4381 15.6916C45.346 15.4391 45.1619 15.2708 44.9777 15.1025C44.7936 14.8501 44.7936 14.6818 45.0724 14.4293C45.1645 14.3452 45.3486 14.261 45.5328 14.1769C46.2694 13.9244 47.0981 13.7561 47.8373 13.8402H47.9294C48.2056 13.8402 48.2056 14.0086 48.1136 14.261C48.1136 14.3452 48.0215 14.3452 47.9294 14.4293C47.9294 14.6818 47.7426 14.7659 47.5585 14.7659L47.5532 14.7635Z" fill="#1D1E1C"/>
<path id="Vector_66" d="M37.6011 15.0999C37.509 15.2682 37.509 15.4365 37.4169 15.6048V15.7731C37.4169 15.9414 37.509 16.0255 37.6932 15.9414C37.8773 15.9414 38.0588 15.8572 38.1535 15.6889C38.6139 15.2682 39.0743 14.9316 39.7188 14.7633C39.6575 14.6511 39.4724 14.595 39.1638 14.595C39.1638 14.4267 39.2558 14.2584 39.44 14.1742C39.9951 13.8376 40.8211 13.8376 41.3762 14.3425C41.4683 14.4267 41.4683 14.5108 41.3762 14.595C41.2815 14.6791 41.1921 14.7633 41.1 14.7633C40.9158 14.8474 40.7317 14.9316 40.5449 14.9316C40.8211 15.184 41.2815 15.184 41.5604 15.0999C41.7445 15.0157 41.8366 14.8474 41.8366 14.595C41.8366 14.2584 41.7419 13.8376 41.7419 13.501V12.9961C41.7419 12.8278 41.7419 12.6595 41.926 12.4912C42.1102 12.7437 42.2023 13.0803 42.3864 13.3327C42.0181 13.4169 42.1102 13.6693 42.1102 13.8376V14.7633C42.1102 14.8474 42.1102 14.9316 42.0181 15.0157C41.834 15.3523 41.463 15.5206 41.0974 15.5206C40.7291 15.6048 40.4528 15.4365 40.2687 15.184C40.1459 15.0718 40.0231 15.0157 39.9004 15.0157C39.2558 15.184 38.6113 15.5206 38.1509 15.9414C37.9668 16.1097 37.6905 16.1938 37.4117 16.1938C37.1328 16.1938 37.0434 16.1097 37.0434 15.8572C37.1328 15.6048 37.317 15.2682 37.5932 15.0999C37.5932 15.0157 37.6853 15.0157 37.5932 15.0999H37.6011Z" fill="#1D1E1C"/>
<path id="Vector_67" d="M32.9026 14.5088V14.8454C32.9026 14.9295 32.8105 15.0137 32.7184 15.0137C32.3501 15.0137 31.9818 14.9295 31.6135 14.7612C31.4293 14.6771 31.2478 14.5929 31.1531 14.4246C31.061 14.3405 30.969 14.2563 30.8769 14.1722C30.6927 14.0039 30.6007 14.0039 30.4165 14.1722C30.3244 14.2563 30.2324 14.3405 30.1403 14.5088C30.0482 14.6771 30.0482 14.7612 29.9561 14.9295C29.8641 15.2661 29.6799 15.3503 29.3116 15.3503C29.0354 15.3503 28.8512 15.182 28.7591 14.9295V14.7612C28.7591 14.5929 28.6671 14.4246 28.8512 14.2563C28.9459 14.4246 29.0354 14.6771 29.1274 14.8454C29.3116 15.0978 29.5878 15.0137 29.772 14.7612C29.8667 14.5929 29.9561 14.4246 30.0482 14.2563C30.1403 14.0039 30.3244 13.8356 30.5086 13.6673C30.7848 13.4148 30.969 13.4148 31.1531 13.7514C31.4293 14.088 31.7977 14.3405 32.258 14.4246C32.3501 14.5088 32.6263 14.5088 32.9026 14.5088Z" fill="#1E1E1C"/>
<path id="Vector_68" d="M34.7441 14.9323C34.652 14.9323 34.5599 14.9323 34.5599 14.8482V14.5116C35.2965 14.4274 36.0358 14.175 36.7724 13.9225C36.8645 13.9225 36.8645 13.8384 36.9566 13.7542C36.9566 13.6701 37.0486 13.6701 37.1407 13.6701C37.2328 13.6701 37.2328 13.7542 37.2328 13.8384C37.3249 14.0908 37.509 14.175 37.6932 14.175C37.8773 14.175 37.9694 14.0908 37.9694 13.9225V13.7542C37.9694 13.6701 38.0615 13.5859 38.1535 13.5859C38.2456 13.5859 38.3377 13.6701 38.3377 13.7542V14.0067C38.243 14.3433 38.0615 14.5116 37.6932 14.5957C37.4169 14.6799 37.1381 14.5957 37.0486 14.3433C37.0486 14.3433 37.0486 14.2591 36.9566 14.2591C36.312 14.5116 35.5754 14.8482 34.7441 14.9323Z" fill="#1E1E1C"/>
<path id="Vector_69" d="M15.6711 16.7834C15.8553 16.8676 15.9474 16.9517 16.0394 17.0359C16.1315 17.12 16.3157 17.2042 16.4998 17.2042C16.684 17.2042 16.776 17.12 16.776 16.9517V16.6151C16.776 16.4468 16.776 16.1944 16.8681 16.0261C16.9628 15.7736 17.1443 15.6895 17.4232 15.8578C17.6994 16.0261 17.9757 16.0261 18.1598 15.8578C18.344 15.7736 18.344 15.6895 18.2519 15.5212C18.1598 15.437 18.1598 15.2687 18.2519 15.1846C18.344 15.1846 18.436 15.1846 18.436 15.2687C18.6202 15.437 18.7123 15.8578 18.6202 16.0261C18.5281 16.2785 18.344 16.3627 18.0651 16.3627C17.7862 16.3627 17.6047 16.3627 17.4206 16.2785C17.2364 16.1944 17.1443 16.1944 17.0523 16.4468C16.9602 16.6151 16.9602 16.8676 17.0523 17.0359C17.0523 17.2883 17.0523 17.4566 16.8681 17.6249C16.5919 17.7932 16.4077 17.7091 16.1289 17.5408C15.85 17.3725 15.7579 17.2042 15.6659 16.7834H15.6711Z" fill="#1F1E1C"/>
<path id="Vector_70" d="M43.4072 12.8256C43.4992 12.9939 43.4992 13.0781 43.4992 13.2464C43.5913 13.4147 43.5913 13.583 43.6834 13.7513C43.7755 13.9196 43.7755 14.0038 43.4992 14.0038H43.4072V15.6026C43.4072 15.8551 43.223 16.0234 43.1309 16.1917V13.3281C43.0389 13.1598 43.1309 12.9915 43.4072 12.8232V12.8256Z" fill="#22221F"/>
<path id="Vector_71" d="M51.8834 19.2255V18.8048C51.7914 17.8791 51.7914 17.0352 51.6993 16.1096C51.6993 15.8571 51.7914 15.6888 51.9755 15.5205C52.0676 15.8571 52.2518 16.1096 52.3412 16.4462C52.157 16.4462 52.0957 16.5303 52.157 16.6986C52.157 17.2035 52.2491 17.7084 52.2491 18.2133C52.2491 18.4658 52.157 18.8024 52.065 19.0548C52.0018 19.1109 51.9396 19.167 51.8782 19.2231C51.9396 19.2231 51.9396 19.2231 51.8782 19.2231L51.8834 19.2255Z" fill="#1E1E1C"/>
<path id="Vector_72" d="M29.4931 14.3406C29.401 14.0882 29.401 13.8357 29.309 13.6674C29.2169 13.1625 29.0327 12.7417 28.8486 12.2368C28.7565 11.9844 28.7565 11.8161 28.7565 11.4795C28.9407 11.6478 29.1248 11.8161 29.2169 11.9844V12.0685C29.1248 12.2368 29.2169 12.321 29.309 12.4893C29.4037 12.8259 29.4931 13.0783 29.5852 13.415C29.5852 13.7516 29.5852 14.0882 29.4931 14.3406Z" fill="#201F1D"/>
<path id="Vector_73" d="M21.7534 13.5835C21.5693 13.4152 21.4772 13.2469 21.5693 12.9945C21.5693 12.9103 21.6614 12.8262 21.7534 12.8262C21.8455 12.8262 21.9376 12.9103 21.9376 12.9945C22.0297 13.0786 21.9376 13.2469 22.0297 13.3311C22.1217 13.4152 22.1217 13.4994 22.1217 13.5835H22.0297C21.8455 13.4994 21.8455 13.5835 21.7534 13.5835C21.6587 13.836 21.4772 14.0043 21.3851 14.1726C21.293 14.2567 21.201 14.3409 21.0168 14.3409C21.3851 14.1726 21.5693 13.9201 21.7534 13.5835Z" fill="#232220"/>
<path id="Vector_74" d="M35.7596 15.5212C35.8209 15.5212 35.8209 15.5212 35.7596 15.5212C36.0051 15.3529 36.1901 15.3809 36.3146 15.6053C36.2199 15.6895 36.1305 15.7736 36.0384 15.8578C35.8543 15.7736 35.8543 15.6053 35.7622 15.5212C35.6701 15.6053 35.578 15.7736 35.486 15.7736C35.3939 15.6895 35.3018 15.6053 35.2097 15.5212V15.437C35.3018 15.3529 35.3939 15.1846 35.486 15.1846C35.6701 15.3529 35.6701 15.5212 35.7622 15.5212H35.7596Z" fill="#23211F"/>
<path id="Vector_75" d="M26.1757 12.9102C26.2678 13.0785 26.2678 13.1626 26.1757 13.3309C26.0837 13.4992 26.0836 13.5834 25.8074 13.5834C25.746 13.5834 25.6847 13.6114 25.6233 13.6675C25.5312 13.7517 25.4391 13.8358 25.2576 13.7517C25.1629 13.7517 25.0734 13.5834 25.0734 13.4151V13.3309C25.0734 13.3309 25.0734 13.2468 25.1655 13.2468C25.2576 13.2468 25.1655 13.3309 25.1655 13.3309C25.1655 13.4151 25.1655 13.4992 25.2576 13.4992C25.3497 13.4992 25.3497 13.4151 25.4417 13.4151C25.5338 13.3309 25.5338 13.2468 25.5338 13.1626C25.6259 13.1626 25.6259 13.2468 25.6259 13.3309C25.689 13.387 25.7504 13.387 25.8101 13.3309C26.081 13.0785 26.081 12.9943 26.1731 12.9102H26.1757Z" fill="#282423"/>
<path id="Vector_76" d="M44.0517 15.2684C43.9596 15.2684 43.9596 15.1843 43.8675 15.1843C43.7755 15.1001 43.6834 15.016 43.7755 14.9318C43.8675 14.8477 43.7755 14.7635 43.6834 14.6794C43.5913 14.5952 43.5913 14.5111 43.6834 14.4269L43.7755 14.3428H43.8675C43.9596 14.3428 44.0517 14.5111 44.1438 14.5952C44.2358 14.6794 44.1438 14.6794 44.1438 14.7635C44.0491 14.8477 44.0491 14.9318 44.1438 14.9318C44.2358 15.016 44.2358 15.1001 44.1438 15.1843C44.1438 15.1843 44.1438 15.2684 44.0491 15.2684H44.0517Z" fill="#23211F"/>
<path id="Vector_77" d="M15.8553 15.353C15.9474 15.2689 15.9474 15.1006 16.0394 15.0164H16.1315C16.2236 15.0164 16.3157 15.1006 16.4077 15.1006C16.4998 15.1006 16.5025 15.0164 16.5919 14.9323C16.5919 14.8481 16.684 14.8481 16.776 14.9323C16.8681 14.9323 16.8681 15.0164 16.9602 15.0164C17.0523 15.0164 17.0523 15.1006 17.0523 15.1847C17.0523 15.2689 16.9602 15.353 16.9602 15.353C16.8681 15.353 16.776 15.2689 16.5919 15.2689C16.4998 15.353 16.4998 15.4372 16.4077 15.5213C16.0394 15.5213 15.9474 15.4372 15.8553 15.353Z" fill="#232321"/>
<path id="Vector_78" d="M30.1376 12.6571C30.0456 12.5729 29.9535 12.4888 29.8614 12.4888V12.4046C30.1376 12.1522 30.0456 12.068 30.4139 12.4046C30.3218 12.4888 30.2297 12.5729 30.1376 12.6571C30.2297 12.7412 30.3218 12.8254 30.4139 12.8254V12.9095C30.3525 12.9656 30.2911 13.0217 30.2297 13.0778L30.1376 13.162C29.9535 13.0498 29.9535 12.8815 30.1376 12.6571Z" fill="#232321"/>
<path id="Vector_79" d="M38.4298 12.1523C38.3377 12.2365 38.2456 12.4048 38.2456 12.4889C38.2456 12.5731 38.3377 12.5731 38.4298 12.5731C38.5218 12.6572 38.5218 12.8255 38.4298 12.8255C38.3377 12.9097 38.1535 12.9097 38.0615 12.8255C37.9694 12.7414 37.9694 12.6572 37.9694 12.5731C37.9694 12.4048 38.1535 12.2365 38.4298 12.1523Z" fill="#242523"/>
<path id="Vector_80" d="M24.9787 16.447C25.3444 16.1104 25.7153 15.8579 26.2678 15.9421C25.9021 16.1945 25.4391 16.3628 24.9787 16.447Z" fill="#262422"/>
<path id="Vector_81" d="M44.7883 13.8356C45.2487 13.6673 45.7091 13.5832 46.2615 13.499C45.9853 13.7515 45.3408 13.9198 44.7883 13.8356Z" fill="#2A2624"/>
<path id="Vector_82" d="M48.6581 16.0256C48.7529 15.9414 48.8423 15.9414 48.9344 15.8573C48.9344 15.7731 48.8423 15.8573 48.8423 15.8573C48.6581 15.8573 48.5661 15.7731 48.7502 15.6048C48.8423 15.5207 49.0264 15.4365 49.2106 15.4365C49.3027 15.4365 49.3027 15.5207 49.3027 15.5207C49.3027 15.6048 49.3027 15.7731 49.2106 15.8573C49.0264 15.9414 48.9344 16.0256 48.6581 16.0256Z" fill="#232321"/>
<path id="Vector_83" d="M12.893 38.0054C13.0772 37.5005 13.4455 36.9956 13.6297 36.4066C16.3946 30.932 19.0674 25.544 21.8297 20.0718C21.8297 19.9876 21.9218 19.9035 21.9218 19.8193C22.0139 19.9035 22.0139 19.9876 22.0139 20.0718C24.7788 26.0513 27.5437 31.9466 30.306 37.9237C30.306 37.9237 30.306 38.0078 30.3981 38.0078C30.306 38.1761 30.2139 38.1761 30.0298 38.092C25.9758 38.0078 21.9192 38.092 17.8678 38.0078H13.1666C13.1666 38.0896 12.9799 38.0896 12.8878 38.0078L12.893 38.0054Z" fill="#C89956"/>
<path id="Vector_84" d="M40.2739 12.4893C39.9056 12.7418 39.4452 12.9101 38.9849 12.9942C38.8928 12.9942 38.8007 13.0784 38.7086 12.9942C38.7086 12.9101 38.8007 12.9101 38.8928 12.8259C39.4452 12.6576 39.8135 12.4893 40.2739 12.4893C40.2739 12.4332 40.2739 12.4332 40.2739 12.4893Z" fill="#2B2726"/>
<path id="Vector_85" d="M41.0105 13.1623C40.6422 13.4147 40.1819 13.4989 39.8136 13.6672H39.7215C39.6268 13.6672 39.5373 13.6672 39.5373 13.583C39.5373 13.4989 39.6294 13.4989 39.6294 13.4989C40.0898 13.3306 40.4581 13.1623 40.9185 13.0781C40.9185 13.0781 41.0105 13.0781 41.0105 13.1623Z" fill="#282623"/>
<path id="Vector_86" d="M38.0615 15.0156C38.1562 15.0998 38.2456 15.1839 38.3377 15.2681C38.2456 15.3522 38.1535 15.4364 37.9694 15.6047C37.8773 15.5205 37.7852 15.4364 37.6932 15.2681C37.7826 15.1839 37.8747 15.0998 38.0588 15.0156H38.0615Z" fill="#242220"/>
<path id="Vector_87" d="M17.8836 14.3408V14.6774C17.8836 14.7616 17.7915 14.8457 17.6995 14.7616C17.6381 14.7616 17.5767 14.7896 17.5153 14.8457C17.4539 14.9018 17.3925 14.9299 17.3312 14.9299C17.2391 14.9299 17.2391 14.8457 17.2391 14.7616V14.5933C17.3618 14.7055 17.4539 14.6774 17.5153 14.5091C17.6074 14.5091 17.6074 14.6774 17.6995 14.5933C17.7915 14.5091 17.7915 14.3408 17.8836 14.3408Z" fill="#373635"/>
<path id="Vector_88" d="M17.2364 18.0482C17.1444 18.2165 17.0523 18.3006 17.0523 18.3848C16.5919 18.3006 16.5919 18.2165 16.8681 17.8799C16.9602 17.8799 17.0523 18.0482 17.2364 18.0482Z" fill="#272725"/>
<path id="Vector_89" d="M50.8706 17.8799C50.8706 17.964 50.7785 18.0482 50.7785 18.1323C50.7785 18.2165 50.6838 18.3006 50.8706 18.3848C50.9627 18.3848 50.9627 18.4689 50.8706 18.5531C50.8706 18.6372 50.7785 18.6372 50.6864 18.6372C50.5944 18.6372 50.5023 18.6372 50.5023 18.5531V18.3006C50.5944 18.1323 50.6864 17.964 50.8706 17.8799Z" fill="#2B2926"/>
<path id="Vector_90" d="M17.2364 18.0475C17.1444 17.8792 17.2364 17.7951 17.3285 17.7109C17.4232 17.7109 17.6047 17.7951 17.6968 17.8792V17.9634C17.5741 18.1317 17.4206 18.1597 17.2364 18.0475Z" fill="#252522"/>
<path id="Vector_91" d="M40.0898 15.6056C40.0898 15.8861 40.1819 15.9983 40.366 15.9422V16.0263C40.2739 16.1946 40.1819 16.1946 40.0898 16.1946C39.9977 16.1946 39.9056 16.0263 39.9056 15.858C39.9056 15.7739 39.9056 15.6897 40.0898 15.6056C39.9977 15.6897 39.9977 15.6056 40.0898 15.6056C40.0284 15.6056 40.0284 15.6056 40.0898 15.6056C40.0898 15.5495 40.0898 15.5495 40.0898 15.6056Z" fill="#343432"/>
<path id="Vector_92" d="M23.1346 16.4468C23.196 16.5029 23.2881 16.5309 23.4108 16.5309V16.6151C23.3187 16.7834 23.2267 16.8675 23.1346 16.7834C23.0399 16.7834 22.9504 16.6151 22.9504 16.4468C22.9504 16.3626 22.9504 16.2785 23.0425 16.1943C23.2267 16.2785 23.1346 16.3626 23.1346 16.4468Z" fill="#32302F"/>
<path id="Vector_93" d="M23.7791 13.078C23.7791 13.078 23.8738 13.1621 23.9633 13.1621C24.0527 13.1621 24.0554 13.1621 24.0554 13.2463C23.9633 13.3304 23.8712 13.4146 23.7791 13.4146C23.687 13.3304 23.595 13.2463 23.595 13.1621C23.595 13.078 23.595 12.9938 23.687 12.9097C23.8686 12.8255 23.687 12.9938 23.7765 13.078H23.7791Z" fill="#292927"/>
<path id="Vector_94" d="M19.9093 13.9199C19.9093 14.0041 20.0014 14.0041 19.9093 13.9199C20.0934 13.9199 20.0934 14.0041 20.0934 14.0882C20.0014 14.1724 19.9093 14.1724 19.8172 14.0882C19.9119 14.0041 19.8172 14.0041 19.9119 13.9199H19.9093Z" fill="#443C3A"/>
<path id="Vector_95" d="M28.7565 14.34C28.6644 14.4242 28.6644 14.5083 28.6644 14.5925V14.8449C28.5697 14.6766 28.6644 14.4242 28.5697 14.2559C28.6942 14.2559 28.7565 14.2839 28.7565 14.34Z" fill="#858080"/>
<path id="Vector_96" d="M23.1346 16.4461C23.0399 16.362 23.1346 16.2778 23.0399 16.1937C23.0399 16.1095 23.1346 16.1095 23.1346 16.0254C23.2267 16.0254 23.2267 16.1095 23.2267 16.1095C23.2267 16.1937 23.1346 16.362 23.1346 16.4461Z" fill="#534E4D"/>
<path id="Vector_97" d="M23.7791 13.0781C23.687 13.0781 23.687 12.994 23.687 12.9098V12.7415C23.687 12.6854 23.7177 12.6293 23.7791 12.5732V13.0781Z" fill="#524D4B"/>
<path id="Vector_98" d="M19.9093 13.9194C19.7251 13.9194 19.7251 13.8353 19.8146 13.667C19.9093 13.8353 19.9093 13.9194 19.9093 13.9194Z" fill="#62605E"/>
<path id="Vector_99" d="M30.0456 9.28923C30.0456 9.23313 30.0763 9.20508 30.1376 9.20508V9.54168C30.0456 9.45753 30.1376 9.37338 30.0456 9.28923Z" fill="#80AB96"/>
<path id="Vector_100" d="M41.0105 13.1624C41.0105 13.0783 40.9185 13.1624 40.9185 13.0783C40.9185 13.0783 41.0105 13.0783 41.0105 12.9941H41.1026C41.1026 13.0783 41.0105 13.1624 41.0105 13.1624Z" fill="#80807E"/>
<path id="Vector_101" d="M48.6581 16.0254C48.7195 16.0254 48.7195 16.0254 48.6581 16.0254C48.6581 16.1095 48.5661 16.1095 48.474 16.1095C48.5661 16.0254 48.6581 16.0254 48.6581 16.0254Z" fill="#6A6362"/>
<path id="Vector_102" d="M23.2267 16.1097C23.2267 16.1097 23.2267 16.0256 23.1346 16.0256C23.1346 15.9695 23.1653 15.9414 23.2267 15.9414V16.1097Z" fill="#928785"/>
<path id="Vector_103" d="M40.0898 15.6048C40.0898 15.5487 40.0898 15.5487 40.0898 15.6048C40.0284 15.4926 40.0284 15.4365 40.0898 15.4365V15.6048Z" fill="#808080"/>
<path id="Vector_104" d="M37.6011 15.1001C37.6011 15.044 37.6011 15.044 37.6011 15.1001C37.6011 14.9318 37.6011 15.0159 37.6011 15.1001C37.6625 15.044 37.6625 15.044 37.6011 15.1001Z" fill="#807C7C"/>
<path id="Vector_105" d="M24.0553 13.1618C24.0553 13.0777 23.9606 13.0777 23.9606 13.0777C23.9606 13.0777 24.0553 12.9935 24.0553 13.1618Z" fill="#746362"/>
<path id="Vector_106" d="M47.5532 14.7637C47.5532 14.8198 47.5532 14.8198 47.5532 14.7637C47.4611 14.7637 47.4611 14.8478 47.5532 14.7637Z" fill="#4D4745"/>
<path id="Vector_107" d="M38.4298 12.068C38.4298 11.9838 38.5219 11.9838 38.4298 12.068C38.4912 12.068 38.4912 12.068 38.4298 12.068Z" fill="#808080"/>
<path id="Vector_108" d="M40.2739 12.4888C40.2739 12.4327 40.2739 12.4327 40.2739 12.4888C40.2739 12.4046 40.366 12.3205 40.2739 12.4888C40.366 12.4888 40.366 12.4046 40.2739 12.4888Z" fill="#928886"/>
<path id="Vector_109" d="M50.8706 17.8792C50.9627 17.795 50.9627 17.8792 50.8706 17.8792V17.8792Z" fill="#7F706F"/>
<path id="Vector_110" d="M47.4611 14.8477C47.4611 14.9038 47.4611 14.9038 47.4611 14.8477C47.3998 14.8477 47.3998 14.8477 47.4611 14.8477Z" fill="#677574"/>
<path id="Vector_111" d="M34.0075 25.1214C34.0996 25.2898 34.2837 25.4581 34.5599 25.4581C34.9282 25.5422 35.2045 25.3739 35.2045 24.9531V24.7848C35.2045 24.7007 35.2045 24.6165 35.2965 24.6165C35.5421 24.4482 35.7271 24.4763 35.8516 24.7007C36.1279 25.1214 36.4962 25.5422 36.9566 25.8788C37.2328 26.1313 37.6011 26.2996 37.972 26.3837C38.5271 26.4679 38.8928 26.2154 38.9875 25.7105V25.2056C38.8954 24.6165 38.343 24.3641 37.7905 24.4482C37.6958 24.4482 37.6037 24.5324 37.5116 24.5324C37.3889 24.5885 37.2661 24.5604 37.1433 24.4482C37.1433 24.4482 37.0513 24.3641 37.0513 24.2799C36.9285 24.1116 36.9592 23.9714 37.1433 23.8592C37.238 23.775 37.3275 23.775 37.4196 23.6909C37.6037 23.5226 37.6958 23.2701 37.6037 23.0177C37.5116 22.7652 37.3275 22.5969 36.9592 22.5128C36.775 22.5128 36.5909 22.5969 36.4988 22.7652C36.4067 22.9335 36.3147 23.1018 36.2226 23.2701C35.7622 22.7652 35.3939 22.3445 34.9335 21.9237C34.9335 21.8396 35.0282 21.8396 35.0282 21.8396C36.5014 20.8298 38.1588 19.9859 40.003 19.5651C41.0184 19.3127 42.1234 19.2285 43.2283 19.2285C44.149 19.3127 45.0724 19.481 45.9932 19.7334C45.6275 20.4066 45.2539 21.164 44.9777 21.8396C42.3075 27.1459 39.6347 32.5339 36.9618 37.8402C36.9618 37.8963 36.9311 37.9524 36.8697 38.0085C36.7777 38.0926 36.7777 38.1768 36.8697 38.3451C37.0539 38.85 37.4222 39.2707 37.7905 39.6915C38.8954 40.8696 40.3686 41.6294 41.9366 42.2184C43.0415 42.6392 44.2411 42.8075 45.4381 42.8916C47.0981 43.0599 48.6634 42.8075 50.1393 42.2184C51.3362 41.7135 52.4438 41.0403 53.4593 40.1964C54.0117 39.6915 54.5642 39.1024 54.9325 38.4268C55.0246 38.2585 55.0246 38.1744 54.9325 38.0902C54.7483 37.6695 54.5642 37.2487 54.38 36.828C51.7993 31.3534 49.2185 25.8812 46.6404 20.4066C46.5483 20.3225 46.5483 20.2383 46.5483 20.07C46.5483 20.0139 46.579 19.9859 46.6404 19.9859C47.0087 20.2383 47.377 20.4908 47.7453 20.6591C49.4053 21.5847 51.2468 22.2579 53.1804 22.5969C53.8249 22.6811 54.38 22.8494 55.0246 22.9335C55.2087 22.9335 55.3034 23.0177 55.3034 23.186C55.7638 24.9556 56.3163 26.6386 56.7766 28.4081C58.5261 34.3876 60.2782 40.3671 62.0276 46.4307V46.5149C62.1197 46.6014 62.0276 46.6832 61.9355 46.6832C61.4752 46.7673 61.0148 46.9356 60.5544 47.0198C59.4495 47.1881 58.3446 47.2722 57.237 47.2722C55.8559 47.1881 54.4721 46.9356 53.183 46.599C51.986 46.2624 50.7864 45.8417 49.4974 45.4209C48.3004 45.0843 47.1928 44.7477 45.9037 44.5794C44.7068 44.4111 43.4177 44.327 42.126 44.4111C39.269 44.4977 36.5961 45.2526 34.018 46.6014C34.018 46.6014 33.9233 46.6014 33.9233 46.6856C33.8619 46.6856 33.8312 46.6575 33.8312 46.6014V25.3787C33.9233 25.2922 33.8312 25.1239 34.0154 25.1239L34.0075 25.1214Z" fill="#C89956"/>
<path id="Vector_112" d="M21.8455 19.6462C22.398 19.4779 22.9504 19.3096 23.5029 19.2255C25.7154 18.8889 27.8331 19.3096 29.7693 20.2353C30.6901 20.656 31.6135 21.1609 32.4422 21.75C32.5343 21.75 32.5343 21.8342 32.6263 21.9183C32.166 22.3391 31.7977 22.844 31.3373 23.3489C31.2452 23.1806 31.2452 23.0123 31.1531 22.9281C30.969 22.5915 30.6927 22.5074 30.3244 22.7598C29.864 23.0123 29.864 23.5172 30.2297 23.8538C30.3244 23.9379 30.4139 24.0221 30.598 24.1062C30.6901 24.1062 30.6901 24.1904 30.6901 24.2745C30.598 24.4428 30.598 24.527 30.4139 24.6953C30.3525 24.7514 30.2911 24.7514 30.2297 24.6953C30.1376 24.6111 29.9535 24.6111 29.864 24.527C29.4037 24.4428 28.8486 24.6953 28.7591 25.116C28.6671 25.3685 28.6671 25.6209 28.7591 25.7892C28.8512 26.21 29.2195 26.4624 29.7746 26.4624C30.235 26.3783 30.5138 26.21 30.8795 25.9575C31.3399 25.6209 31.7082 25.2002 31.9844 24.7794C31.9844 24.6953 32.0765 24.6953 32.0765 24.6111L32.166 24.527C32.258 24.6111 32.3501 24.6111 32.4422 24.6953C32.5343 24.7794 32.5343 24.8636 32.5343 24.9477C32.5343 25.116 32.5343 25.3685 32.7184 25.4526C32.9026 25.5368 33.1788 25.5368 33.3629 25.4526C33.5471 25.3685 33.6392 25.2843 33.7313 25.2002V46.6754C33.5471 46.6754 33.5471 46.5912 33.3629 46.5071C31.7977 45.6655 30.2297 44.9923 28.4803 44.5692C26.915 44.2326 25.347 44.1484 23.7791 44.2326C21.2931 44.4009 18.8938 44.9899 16.5919 45.7497C16.3157 45.8339 16.0394 45.918 15.8553 46.0022C15.2108 46.2546 14.5662 46.4229 13.9191 46.5095C12.4432 46.7619 10.8779 46.8461 9.40469 46.7619C8.29977 46.7619 7.10015 46.5936 5.99523 46.4253C5.719 46.3412 5.719 46.4253 5.81108 46.0887C7.0107 42.2154 8.11562 38.4262 9.31261 34.5529C10.4175 31.0162 11.433 27.3953 12.5379 23.8586C12.63 23.522 12.63 23.1854 12.7221 22.9329C12.7221 22.6805 12.8141 22.6805 12.9983 22.6805C15.1187 22.428 17.0497 22.0073 18.9885 21.2499C19.8172 20.9133 20.5538 20.5767 21.2931 20.156C21.3851 20.0718 21.4772 20.0718 21.5693 19.9877C21.5693 20.0718 21.5693 20.156 21.4772 20.2401C20.4617 22.178 19.541 24.1134 18.5308 26.1354C16.5945 30.0929 14.5689 33.9662 12.6326 37.9261C12.6326 37.9822 12.6019 38.0383 12.5405 38.0944C12.4458 38.181 12.5405 38.3469 12.5405 38.431C12.8168 39.0201 13.1851 39.525 13.6455 39.9457C14.6609 40.9555 15.95 41.6311 17.4232 42.136C18.6202 42.5568 19.9119 42.8116 21.201 42.8934C23.1372 43.0617 24.8867 42.7251 26.5467 41.8836C27.8357 41.2897 28.9433 40.4482 29.864 39.436C30.1403 39.0994 30.4165 38.7628 30.6007 38.3421C30.6927 38.2555 30.6927 38.1738 30.7848 38.0896C30.6927 38.0896 30.6007 38.0896 30.6007 38.0055C30.3244 37.3323 30.0482 36.7432 29.772 36.0676C27.2833 30.6796 24.7972 25.3733 22.2165 19.9852C22.0323 19.9011 21.9402 19.8169 21.8481 19.6486L21.8455 19.6462Z" fill="#C89956"/>
<path id="Vector_113" d="M37.1407 38.0058C37.6958 36.8277 38.3403 35.7314 38.8902 34.5533C40.8264 30.6775 42.8521 26.7225 44.7883 22.8468C45.2487 22.0052 45.617 21.1613 46.0774 20.2357C46.0774 20.1515 46.0774 20.0674 46.2615 20.0674C46.3536 20.2357 46.3536 20.3198 46.4457 20.4881C49.2106 26.3835 51.9755 32.1947 54.7378 38.0876V38.1717C54.6431 38.34 54.5537 38.2559 54.4616 38.2559C50.3155 38.1717 46.2615 38.2559 42.1155 38.1717H37.6011C37.4169 38.0876 37.2328 38.1717 37.1407 38.0034V38.0058Z" fill="#C89956"/>
<path id="Vector_114" d="M9.22051 25.7943C9.03636 26.3834 8.85221 26.9724 8.66806 27.4797C6.73182 33.88 4.79822 40.2802 2.86199 46.6805V46.7646C2.86199 46.9329 2.86199 47.0171 3.04614 47.0988C3.32237 47.1854 3.69067 47.2671 3.9669 47.2671C4.52199 47.2671 5.16653 47.2671 5.71635 47.183C5.80843 47.183 5.90051 47.183 5.90051 47.0988C5.90051 46.9305 5.99258 47.0147 6.08466 47.0147C6.54504 47.0147 7.10013 47.0147 7.56051 46.9305C7.65259 46.9305 7.74466 46.9305 7.74466 46.8464C7.74466 46.7622 7.83674 46.8464 7.92882 46.8464C8.84958 46.9305 9.67827 46.9305 10.599 46.9305C12.0749 46.9305 13.456 46.7622 14.8398 46.5098C15.024 46.5098 15.116 46.4256 15.2081 46.4256C16.8655 45.8365 18.4334 45.3316 20.1829 44.9109C21.8402 44.5743 23.4082 44.3218 25.1576 44.4036C28.0146 44.4901 30.5927 45.1609 33.0841 46.5939C33.2682 46.6781 33.4524 46.7622 33.6365 46.9281C33.8207 47.0147 33.9128 47.0147 34.0048 46.9281C34.9256 46.4232 35.9411 46.0024 36.9539 45.5817C38.4271 45.0768 39.9004 44.7402 41.4683 44.656C42.7573 44.5695 44.1411 44.5695 45.4302 44.7402C46.9955 44.9085 48.5634 45.3292 50.0366 45.8341C51.2363 46.2549 52.4333 46.5915 53.6302 46.9281C55.2876 47.3489 56.9476 47.5172 58.605 47.4354C59.0654 47.4354 59.4337 47.3489 59.8941 47.2671C59.9861 47.2671 60.0782 47.183 60.0782 47.3513C60.0782 47.4354 60.1703 47.4354 60.2624 47.4354C60.7228 47.4354 61.0911 47.5196 61.5514 47.4354C61.6435 47.4354 61.7356 47.3513 61.7356 47.6037C61.7356 47.6879 61.8303 47.6879 61.8303 47.6879C62.7511 47.6879 63.5798 47.772 64.5005 47.6037H64.5952C64.8714 47.5172 64.8714 47.4354 64.8714 47.183C64.5031 46.0048 64.2269 44.8243 63.8586 43.728C62.5695 39.2656 61.2778 34.8008 59.9888 30.3384C59.6205 28.9079 59.1601 27.5591 58.7892 26.1285C58.7892 26.0444 58.6971 25.9602 58.7892 25.8761H59.5284C59.6205 25.8761 59.6205 25.9602 59.6205 26.0444C59.7125 26.4651 59.8967 26.8859 59.9888 27.3066C61.2778 31.769 62.4748 36.2338 63.7665 40.6962C64.2269 42.4657 64.7794 44.2329 65.2398 46.0024C65.3345 46.339 65.516 46.6756 65.516 47.0122V47.6855C65.4239 47.9379 65.3318 48.1062 65.0556 48.2745C64.8714 48.3587 64.7794 48.4428 64.5952 48.3587C63.2141 48.3587 61.7382 48.2745 60.3545 48.2745C58.5103 48.2745 56.7608 48.188 54.9193 48.188C52.7989 48.188 50.5891 48.1038 48.4687 48.1038C47.4532 48.1038 46.3483 48.1038 45.3355 48.0197C43.2151 48.0197 41.0053 47.9331 38.8849 47.9331C37.8694 47.9331 36.8566 47.9331 35.8437 47.8489C35.6596 47.8489 35.5675 47.8489 35.4754 48.0172C35.1098 48.5246 34.6467 48.8587 34.0022 48.9453C33.263 49.1136 32.7131 48.8612 32.158 48.5246C31.9739 48.3563 31.6977 48.188 31.603 47.9355C31.5109 47.7672 31.3267 47.7672 31.1426 47.7672H19.7172C16.9523 47.7672 14.2795 47.7672 11.5172 47.8514C8.57072 47.8514 5.71109 47.8513 2.76465 47.9355C2.5805 47.9355 2.48842 47.9355 2.30427 47.8514C1.84389 47.6831 1.65973 47.3464 1.75181 46.9257C1.84389 46.4184 2.02804 45.9159 2.21219 45.4086C4.14842 39.0083 6.08203 32.6081 8.01826 26.1237V25.9554C8.01826 25.8713 8.11034 25.7871 8.20241 25.7871C8.66806 25.7967 8.94429 25.7967 9.22051 25.7967V25.7943Z" fill="#C89956"/>
<path id="Vector_115" d="M37.1407 38.0059C37.2354 38.09 37.3249 38.0059 37.4169 38.0059H41.1026C44.8804 38.0059 48.6581 38.0059 52.4385 38.09H55.0193C55.1114 38.09 55.2035 38.09 55.2955 38.1766C55.2955 38.2607 55.2035 38.3449 55.2035 38.429C54.8352 39.1864 54.2827 39.7778 53.6382 40.2827C52.1623 41.545 50.5049 42.3889 48.5713 42.8096C47.4664 43.0621 46.4509 43.0621 45.346 42.9779C44.057 42.8938 42.8573 42.6413 41.6603 42.1364C40.4633 41.7157 39.3558 41.1266 38.435 40.3669C37.7905 39.7778 37.238 39.1888 36.8697 38.429C36.8697 38.3729 36.8382 38.3168 36.775 38.2607C36.7136 38.1485 36.775 38.0924 36.9592 38.0924C36.9592 38.0083 37.0513 38.0083 37.1433 38.0083L37.1407 38.0059Z" fill="#007D5B"/>
<path id="Vector_116" d="M12.63 38.0063H16.4998C20.3697 38.0063 24.1474 38.0063 28.0172 38.0905H30.598C30.6901 38.177 30.7822 38.0905 30.8742 38.177C30.8742 38.2612 30.7822 38.3453 30.7822 38.4295C30.3218 39.271 29.6773 39.9442 28.8459 40.6198C27.4648 41.7161 25.8995 42.4711 24.0553 42.8101C23.0399 43.0626 21.9349 43.0625 20.83 42.9784C19.633 42.8918 18.4334 42.637 17.3285 42.2162C15.9474 41.7113 14.6583 41.0381 13.6428 40.1101C13.0904 39.6052 12.7221 39.1003 12.4458 38.4247C12.4458 38.3405 12.3537 38.3405 12.3537 38.2564C12.2617 38.0881 12.3537 38.0881 12.5379 38.0881C12.4458 38.0039 12.5379 38.0039 12.63 38.0039V38.0063Z" fill="#007D5B"/>
<path id="Vector_117" d="M62.296 47.4384C62.6643 47.3543 62.9405 47.2701 63.3088 47.186C63.585 47.0994 63.585 47.0177 63.4929 46.7652C62.2039 42.387 60.9122 37.9222 59.6231 33.544C58.7944 30.6805 57.9657 27.817 57.1344 25.0376C57.1344 24.9535 57.1344 24.8693 57.0423 24.7852C57.3186 24.7852 57.6869 24.7852 57.9631 24.8693C58.0245 24.8693 58.0552 24.8974 58.0552 24.9535C58.1473 25.3742 58.2393 25.795 58.4235 26.1316C59.8046 31.0171 61.2805 35.9844 62.6616 40.8699C63.2167 42.9761 63.8586 44.9957 64.4111 47.0994V47.186C64.4111 47.2982 64.3497 47.3543 64.2269 47.3543C63.9507 47.4384 63.5824 47.4384 63.3062 47.4384C63.122 47.5226 62.6616 47.5226 62.2933 47.4384C62.2319 47.4384 62.2319 47.4384 62.2933 47.4384H62.296Z" fill="#C89956"/>
<path id="Vector_118" d="M5.16654 47.101C4.522 47.1852 3.87747 47.1852 3.2303 47.0169C3.04615 46.9608 2.98477 46.8766 3.04615 46.7644C3.87484 43.9009 4.7956 41.0374 5.62692 38.1739C6.91599 34.0481 8.11298 29.9199 9.40468 25.8783C9.49676 25.5417 9.58883 25.2051 9.68091 24.9526C9.68091 24.8685 9.77298 24.7843 9.86506 24.7843C10.1413 24.7843 10.4175 24.7843 10.6937 24.7002C10.6937 24.7843 10.599 24.8685 10.599 24.9526C8.57336 31.5212 6.63713 38.0897 4.60882 44.7424C4.42467 45.3315 4.24314 45.9205 4.05636 46.512C3.96165 46.7644 4.05636 46.8486 4.33259 46.9327C4.70353 46.9327 4.97975 47.0169 5.16391 47.101C5.16391 47.0169 5.25598 47.0169 5.16391 47.101H5.16654Z" fill="#C89956"/>
<path id="Vector_119" d="M6.63976 46.8491C5.99523 46.8491 5.35069 46.8491 4.70353 46.6808C4.60882 46.6808 4.51938 46.6808 4.51938 46.5966C4.4273 46.5966 4.33522 46.5125 4.4273 46.3442C4.61145 45.9234 4.70353 45.4161 4.88768 44.9136C6.82392 38.5975 8.66544 32.2814 10.599 25.9654C10.7832 25.2921 10.9674 24.5348 11.1541 23.8592C11.2155 23.6909 11.3374 23.6067 11.5198 23.6067C11.704 23.6067 11.9802 23.5226 12.259 23.6067C12.167 23.8592 12.0749 24.1116 11.9828 24.3641C9.77299 31.6058 7.6526 38.7658 5.44014 46.0076V46.0917C5.34543 46.26 5.44014 46.3442 5.62429 46.4283C6.08467 46.5125 6.45298 46.5966 6.91336 46.6808C6.82392 46.9332 6.73184 46.8491 6.63976 46.8491Z" fill="#C89956"/>
<path id="Vector_120" d="M60.3624 47.2699C60.9175 47.1016 61.4673 47.0174 62.1118 46.8491C62.2039 46.8491 62.296 46.765 62.388 46.6808V46.5125C62.1118 45.5027 61.8356 44.5746 61.5594 43.5648C60.1782 38.85 58.7944 34.2169 57.4133 29.5021C56.8608 27.7325 56.3084 25.8812 55.848 24.1117V23.9434C56.1242 23.9434 56.4031 23.9434 56.6767 24.0275C56.7688 24.0275 56.7688 24.1117 56.7688 24.1958C56.7688 24.28 56.7688 24.4483 56.8608 24.5324C56.8608 24.7007 56.8608 24.7849 57.045 24.9532C57.1371 24.9532 57.1371 25.0373 57.1371 25.1215C58.1525 28.574 59.1654 32.0266 60.0861 35.4792C61.1911 39.2684 62.296 42.9734 63.3114 46.765C63.3728 46.9878 63.2807 47.128 63.0352 47.1857C62.296 47.4382 61.6541 47.4382 60.9148 47.4382C60.6386 47.2699 60.5465 47.2699 60.3597 47.2699H60.3624Z" fill="#C89956"/>
<path id="Vector_121" d="M34.0075 25.121C33.9154 25.2893 33.9154 25.3735 33.9154 25.3735V46.4279C33.9154 46.484 33.947 46.5121 34.0101 46.5121C34.0101 46.5121 33.9154 46.5986 33.9154 46.5121V22.6807C34.3758 23.0173 34.6546 23.3539 35.0203 23.7746C34.7441 23.9429 34.4679 24.1112 34.1916 24.3637C34.0075 24.4478 34.0075 24.532 33.9154 24.7003C33.9154 24.8686 34.0075 25.0369 34.0075 25.121Z" fill="#C89956"/>
<path id="Vector_122" d="M33.6392 24.6168C33.3629 24.3643 32.9946 24.1119 32.6263 23.8594C32.9946 23.5228 33.2709 23.1862 33.6392 22.8496V24.6192V24.6168Z" fill="#C89956"/>
<path id="Vector_123" d="M6.63977 46.8488C6.73185 46.7646 6.82392 46.8488 6.82392 46.7646C6.916 46.7646 7.00808 46.7646 7.10015 46.8488C7.00808 46.8488 6.82392 46.9329 6.63977 46.8488Z" fill="#87802D"/>
<path id="Vector_124" d="M5.16653 47.1016C5.22792 47.0455 5.2893 47.0455 5.35069 47.1016C5.35069 47.1016 5.25861 47.1016 5.16653 47.1016Z" fill="#A18937"/>
<path id="Vector_125" d="M62.296 47.4375C62.2328 47.4936 62.1714 47.4936 62.1118 47.4375H62.296Z" fill="#958037"/>
<path id="Vector_126" d="M60.3624 47.2701C60.3624 47.3543 60.2703 47.3543 60.2703 47.2701C60.2703 47.186 60.3624 47.186 60.3624 47.2701Z" fill="#80802E"/>
<path id="Vector_127" d="M46.3562 19.8987C46.4483 19.8146 46.4483 19.8987 46.3562 19.8987C46.4176 19.9548 46.4176 19.9548 46.3562 19.8987Z" fill="#7F7B2F"/>
<path id="Vector_128" d="M46.3562 19.8994C46.4176 19.8994 46.4176 19.8994 46.3562 19.8994C46.3562 19.9555 46.3562 19.9555 46.3562 19.8994Z" fill="#A67F35"/>
<path id="Vector_129" d="M29.9535 59.5624C29.8614 59.8148 29.6773 59.9831 29.401 59.9831C29.1248 59.9831 28.9407 59.899 28.8486 59.6465C28.7565 59.5624 28.7565 59.4782 28.9433 59.4782C29.309 59.3941 29.6799 59.4782 29.9561 59.5624H29.9535Z" fill="#007D5B"/>
<path id="Vector_130" d="M52.9884 58.0485C52.7121 58.1326 52.4359 58.2168 52.1597 58.1326C52.0676 58.1326 51.9755 58.1326 51.9755 58.0485C51.9755 57.9643 52.0676 57.8802 52.1597 57.8802C52.3438 57.6277 52.8042 57.7119 52.9884 58.0485Z" fill="#007D5B"/>
<path id="Vector_131" d="M37.9694 59.1424C37.6011 59.1424 37.6011 59.0582 37.6011 58.8082C37.6011 58.4716 37.7852 58.1326 38.1562 57.8801C38.3403 57.7118 38.4324 57.7118 38.6165 57.8801C38.8007 58.0484 38.9822 58.2167 39.0769 58.4692V58.7216C38.9822 58.8899 38.8928 58.9741 38.7086 58.9741C38.4298 59.0582 38.1535 59.1424 37.9694 59.1424Z" fill="#007D5B"/>
<path id="Vector_132" d="M37.8773 51.9842C37.7826 51.9842 37.6932 51.9001 37.6932 51.8159C37.6932 51.6476 37.7852 51.5635 37.8773 51.5635C37.9694 51.5635 38.0615 51.65 38.0615 51.8159C38.1535 51.9001 37.9694 51.9842 37.8773 51.9842Z" fill="#007D5B"/>
<path id="Vector_133" d="M38.3377 51.9001C38.4298 51.9001 38.5218 51.9842 38.4298 51.9842C38.4298 52.0708 38.3377 52.0708 38.2456 52.0708C38.1535 52.0708 38.1535 52.0708 38.1535 51.9842C38.2456 51.9001 38.2456 51.8159 38.3377 51.9001Z" fill="#007D5B"/>
<path id="Vector_134" d="M23.2267 14.679C23.1346 14.679 23.0425 14.679 23.1346 14.5949C23.1346 14.5107 23.2267 14.5107 23.3187 14.5107C23.4108 14.5107 23.5029 14.5107 23.4108 14.5949C23.4108 14.679 23.3187 14.679 23.2267 14.679Z" fill="#BFC8C8"/>
<path id="Vector_135" d="M21.5693 15.7736C21.4772 15.8578 21.5693 15.8578 21.5693 15.7736C21.4465 15.8297 21.3851 15.8297 21.3851 15.7736C21.3851 15.6895 21.4772 15.6895 21.5693 15.6895V15.7736Z" fill="#B5C1C0"/>
<path id="Vector_136" d="M50.5944 16.9513C50.5944 17.0355 50.5023 17.0355 50.5023 17.0355C50.4102 17.0355 50.3181 17.0355 50.3181 16.9513C50.3181 16.8672 50.3181 16.8672 50.4102 16.8672C50.533 16.8672 50.5944 16.8952 50.5944 16.9513Z" fill="#B6BFBF"/>
<path id="Vector_137" d="M49.5815 17.8791C49.5815 17.9632 49.4894 17.9632 49.4894 17.9632C49.3974 17.9632 49.3053 17.9632 49.3053 17.8791C49.3053 17.7949 49.3974 17.7949 49.3974 17.7949C49.4895 17.7949 49.5815 17.7949 49.5815 17.8791Z" fill="#ABB6B6"/>
<path id="Vector_138" d="M21.7534 13.1621C21.8455 13.1621 21.9376 13.2463 21.9376 13.3304C21.9376 13.3304 21.9376 13.4146 21.8455 13.3304C21.7561 13.3304 21.7561 13.2463 21.7561 13.1621H21.7534Z" fill="#A4AAAB"/>
</g>
</g>
</g>
</g>
<defs>
<clipPath id="clip0_268_36383">
<rect width="67" height="64" fill="white" transform="translate(-0.000244141 0.109375)"/>
</clipPath>
</defs>
</svg>
