<svg width="188" height="65" viewBox="0 0 188 65" fill="none" xmlns="http://www.w3.org/2000/svg">
<g id="Asset 2 1" clip-path="url(#clip0_268_36238)">
<g id="Layer_1">
<g id="Group">
<g id="g1">
<path id="path1" opacity="0.99" fill-rule="evenodd" clip-rule="evenodd" d="M159.833 0.109375C159.939 0.119837 160.022 0.177379 160.084 0.284617C160.309 0.763264 160.483 1.27068 160.607 1.80687C160.66 2.05796 160.715 2.30644 160.768 2.55492C161.225 2.11289 161.743 1.87487 162.325 1.84349C162.594 1.82779 162.861 1.84349 163.128 1.89318C163.488 1.97165 163.843 2.07104 164.194 2.19397C163.898 2.36398 163.603 2.53923 163.309 2.71708C163.084 2.9054 162.877 3.12249 162.687 3.36574C164.094 3.28989 165.414 3.67961 166.644 4.54012C167.595 5.20447 168.442 6.04145 169.186 7.04844C169.825 7.92204 170.394 8.85579 170.893 9.84447C169.572 8.49223 168.083 7.52447 166.424 6.93597C165.866 6.73981 165.297 6.62734 164.717 6.59857C164.569 6.61164 164.421 6.63257 164.275 6.66134C165.23 7.18183 166.086 7.88019 166.847 8.75901C168.158 10.2813 169.106 12.0991 169.691 14.2151C169.986 15.3424 170.141 16.5011 170.152 17.6859C169.025 15.0363 167.5 12.7922 165.581 10.9561C165.1 10.5088 164.575 10.1636 164.004 9.92032C164.264 10.399 164.525 10.8802 164.787 11.3693C166.205 14.1131 166.847 17.1157 166.715 20.3825C166.697 20.9501 166.667 21.5151 166.625 22.08C166.349 20.6362 165.95 19.2448 165.429 17.9108C164.765 16.148 163.982 14.4845 163.078 12.9177C162.925 12.6614 162.758 12.4208 162.575 12.1932C163.223 16.0773 163.23 19.964 162.594 23.8534C162.462 21.8917 162.241 19.9431 161.93 18.0102C161.725 16.6841 161.425 15.3947 161.026 14.1392C160.933 13.875 160.83 13.6161 160.715 13.365C160.605 14.5472 160.483 15.7295 160.353 16.9117H160.695C160.625 18.5516 160.558 20.189 160.494 21.8316H160.777C160.708 23.5683 160.629 25.305 160.536 27.0365C160.671 27.0444 160.803 27.0522 160.938 27.0627C160.794 28.836 160.671 30.6146 160.567 32.3932C160.88 32.6364 161.174 32.911 161.452 33.2171C161.511 33.3086 161.573 33.4002 161.633 33.4917C161.644 33.6068 161.646 33.7245 161.644 33.8422H158.048C158.044 33.7323 158.048 33.6251 158.059 33.5179C158.381 33.068 158.75 32.694 159.164 32.3932C159.067 30.7323 158.957 29.0714 158.833 27.4131C158.838 27.3425 158.84 27.2719 158.844 27.2013C158.946 27.1542 159.05 27.1176 159.155 27.0888C159.169 27.0365 159.175 26.9842 159.175 26.9267C159.065 25.2789 158.959 23.6311 158.853 21.9833H159.155C159.096 20.3198 159.036 18.6537 158.975 16.9902C159.058 16.9875 159.138 16.9666 159.215 16.9274C159.076 15.7582 158.939 14.5891 158.802 13.4199C157.869 16.7103 157.327 20.0974 157.175 23.5814C156.789 22.3965 156.561 21.1646 156.491 19.8856C156.327 17.4087 156.502 14.971 157.013 12.5699C155.562 14.4871 154.47 16.692 153.74 19.1872C153.488 20.1079 153.274 21.039 153.098 21.9833C153.021 21.4523 152.948 20.9187 152.877 20.3852C152.772 18.9963 152.871 17.6336 153.18 16.2892C153.691 14.1235 154.459 12.1122 155.48 10.2603C154.92 10.5637 154.391 10.9378 153.894 11.385C152.983 12.2246 152.172 13.195 151.452 14.2935C150.722 15.4522 150.045 16.658 149.423 17.9135C149.655 15.9047 150.142 14.0006 150.89 12.1959C151.75 10.1871 152.972 8.60993 154.556 7.46431C154.858 7.26815 155.167 7.08506 155.48 6.91505C154.832 6.76858 154.181 6.76858 153.533 6.91505C151.951 7.24199 150.563 8.06066 149.374 9.37367C149.297 9.29782 149.229 9.2115 149.174 9.11211C149.761 8.05543 150.418 7.06675 151.144 6.14084C152.39 4.73106 153.857 3.88885 155.542 3.61945C156.03 3.54098 156.517 3.48867 157.009 3.45728C156.658 2.89756 156.204 2.53922 155.644 2.38491C156.29 1.85395 156.994 1.69963 157.752 1.92195C158.156 2.03704 158.52 2.2489 158.847 2.55753C158.946 1.9298 159.114 1.32822 159.35 0.760648C159.444 0.551404 159.561 0.365699 159.7 0.198304C159.749 0.166917 159.795 0.138146 159.841 0.111991L159.833 0.109375Z" fill="#87B924"/>
</g>
<g id="g3">
<path id="path3" opacity="0.98" fill-rule="evenodd" clip-rule="evenodd" d="M41.5038 25.6768H42.8097C42.8141 28.8311 42.8097 31.9855 42.7986 35.1398C42.7766 35.9402 42.5052 36.5679 41.9847 37.0256C41.7729 37.1826 41.5457 37.282 41.3008 37.3264C39.6949 37.3631 38.0868 37.3761 36.4787 37.3631V35.5165C38.0118 35.5217 39.5449 35.5165 41.0802 35.5034C41.2854 35.4956 41.4222 35.3752 41.4927 35.1424C41.5038 31.9881 41.506 28.8337 41.5038 25.6794V25.6768Z" fill="#026C67"/>
</g>
<g id="g4">
<path id="path4" opacity="0.99" fill-rule="evenodd" clip-rule="evenodd" d="M81.3225 25.6996H82.6085C82.6041 28.8382 82.6085 31.9743 82.6195 35.1129C82.7409 35.2987 82.8975 35.4111 83.0916 35.4504C83.2041 35.4739 83.3188 35.4922 83.4335 35.5C83.9563 35.5236 84.4791 35.5157 84.9997 35.4739C85.2401 35.4268 85.4629 35.3196 85.6637 35.1496C85.7078 35.1129 85.7343 35.0632 85.7431 35.0005C85.7299 34.9142 85.721 34.8252 85.7122 34.7389C85.7012 33.7816 85.699 32.8243 85.7012 31.867H87.0071C87.0027 32.8086 87.0071 33.7476 87.0181 34.6892C87.0688 35.092 87.2519 35.3457 87.5696 35.4504C87.6556 35.4739 87.7438 35.4896 87.8299 35.5C88.4255 35.5157 89.0211 35.5157 89.6189 35.5C89.9056 35.4817 90.0534 35.2934 90.06 34.9377C90.0799 31.8592 90.0865 28.7781 90.0799 25.6996H91.3659C91.3703 28.8696 91.3659 32.0423 91.3549 35.2123C91.3218 36.0153 91.0372 36.6352 90.5012 37.072C90.2497 37.242 89.9828 37.3414 89.6983 37.3728C89.0012 37.3963 88.3041 37.3885 87.6093 37.3466C87.1063 37.2603 86.674 36.9988 86.3144 36.5593C85.9174 37.0668 85.4321 37.3362 84.8585 37.3702C84.4107 37.3859 83.9607 37.3859 83.5129 37.3702C82.9791 37.3205 82.5688 37.0171 82.2864 36.46C81.9445 36.9988 81.4945 37.3022 80.9408 37.3702C80.5129 37.3859 80.0828 37.3859 79.6548 37.3702C79.143 37.3283 78.7504 37.0406 78.4791 36.5097C78.1416 36.9752 77.7224 37.2551 77.2239 37.3466C76.1938 37.3832 75.1614 37.3963 74.129 37.3832V35.5367C75.1062 35.5419 76.0835 35.5367 77.0629 35.5236C77.5438 35.466 77.7004 35.1548 77.5349 34.5872C77.4202 33.9961 77.3077 33.405 77.193 32.8139C77.1026 32.3431 76.8643 32.0737 76.4805 32.0031C75.9246 31.99 75.3687 31.9874 74.8129 31.99V30.1434C75.4305 30.1329 76.046 30.1434 76.6614 30.18C77.4754 30.3683 78.0291 30.9464 78.318 31.9141C78.4967 32.6909 78.6577 33.473 78.8011 34.2603C78.8519 34.5898 78.8783 34.922 78.8805 35.2594C79.0747 35.4294 79.293 35.5157 79.5335 35.521C79.9945 35.5367 80.4578 35.5367 80.9188 35.521C81.1328 35.4974 81.2629 35.3588 81.3114 35.1077C81.3225 31.9691 81.3247 28.833 81.3225 25.6943V25.6996Z" fill="#026C67"/>
</g>
<g id="g5">
<path id="path5" opacity="0.99" fill-rule="evenodd" clip-rule="evenodd" d="M44.6384 25.7754H45.9244V37.3858H44.6384V25.7754Z" fill="#026C67"/>
</g>
<g id="g6">
<path id="path6" opacity="0.99" fill-rule="evenodd" clip-rule="evenodd" d="M67.9834 25.7761H69.2694C69.265 28.8232 69.2694 31.8677 69.2804 34.9148C69.2804 35.0639 69.3069 35.2051 69.3599 35.3385C69.4304 35.4405 69.5209 35.4955 69.6312 35.5007C70.3481 35.5164 71.065 35.5164 71.7797 35.5007C71.9077 35.5059 71.9915 35.4353 72.0312 35.2888C72.0422 33.675 72.0444 32.0586 72.0422 30.4448H73.3283C73.3327 32.1188 73.3283 33.7901 73.3172 35.4641C73.2731 36.22 72.9886 36.7823 72.4636 37.1485C72.2408 37.274 72.0047 37.342 71.7599 37.3473C70.99 37.3708 70.2202 37.363 69.4503 37.3211C68.6871 37.1302 68.2216 36.56 68.054 35.6105C68.0231 35.4379 68.0032 35.2627 67.9944 35.0874C67.9834 31.9828 67.9812 28.8781 67.9834 25.7734V25.7761Z" fill="#026C67"/>
</g>
<g id="g7">
<path id="path7" opacity="0.99" fill-rule="evenodd" clip-rule="evenodd" d="M93.1152 25.7754H94.4012V37.3858H93.1152V25.7754Z" fill="#026C67"/>
</g>
<g id="g8">
<path id="path8" opacity="0.99" fill-rule="evenodd" clip-rule="evenodd" d="M108.464 25.7754H109.75V37.3858H108.464V25.7754Z" fill="#026C67"/>
</g>
<g id="g9">
<path id="path9" opacity="0.99" fill-rule="evenodd" clip-rule="evenodd" d="M7.97629 25.8018H9.26233C9.25792 28.9143 9.26233 32.0268 9.27336 35.1393C9.28218 35.3171 9.35277 35.4375 9.48512 35.5002C13.9719 35.5421 18.4587 35.5499 22.9455 35.5264C23.0536 35.5264 23.1242 35.4662 23.1573 35.3381C23.1705 34.998 23.1705 34.6554 23.1573 34.3154C23.0713 33.1672 22.5661 32.5473 21.6396 32.4557C19.0014 32.4426 16.3631 32.44 13.7249 32.4427C13.7204 31.7024 13.7249 30.9622 13.7359 30.2194C13.7822 29.2778 14.0999 28.5167 14.691 27.936C15.43 27.3031 16.1668 26.6675 16.9014 26.0267C17.1175 26.4792 17.3315 26.9317 17.5433 27.3868C16.844 28.0093 16.1403 28.6239 15.4344 29.2334C14.9999 29.61 14.8124 30.1305 14.8719 30.7948C17.0955 30.7896 19.319 30.7949 21.5426 30.8079C22.2595 30.8289 22.9014 31.1035 23.4705 31.6318C24.0639 32.3119 24.3882 33.1567 24.4455 34.1663C24.4632 34.556 24.4764 34.9483 24.4852 35.3407C24.6286 35.4479 24.7874 35.5028 24.9573 35.5028C25.5132 35.5264 26.0691 35.5185 26.625 35.4767C26.8941 35.4427 27.1389 35.3302 27.3573 35.1393C27.3286 34.0512 27.3176 32.9605 27.3264 31.8698H28.6125C28.6081 32.7853 28.6125 33.7007 28.6235 34.6162C28.661 35.1131 28.8794 35.4008 29.2765 35.4767C29.5963 35.5133 29.9184 35.5238 30.2404 35.5028C30.3794 35.495 30.5118 35.461 30.6419 35.4035C30.7059 35.359 30.7566 35.2962 30.7919 35.2151C30.8029 33.9989 30.8051 32.7853 30.8029 31.5691H32.089C32.0846 32.7434 32.089 33.9152 32.1 35.0896C32.1154 35.2334 32.1728 35.3459 32.2699 35.427C32.3537 35.4793 32.4419 35.5212 32.5302 35.5525C32.9449 35.6755 33.364 35.7801 33.7853 35.8638C34.114 35.8533 34.2772 35.6389 34.2772 35.2282C34.2574 33.7504 34.2508 32.2753 34.2574 30.7975H35.5434C35.5478 32.3537 35.5434 33.91 35.5324 35.4662C35.5015 36.3215 35.2037 36.9833 34.639 37.4514C34.2905 37.6711 33.9221 37.7548 33.5338 37.6999C33.0552 37.6005 32.5787 37.475 32.1066 37.3259C31.789 37.2134 31.5176 37.0094 31.2926 36.7138C31.0081 37.1166 30.6507 37.3364 30.2184 37.3756C29.8831 37.3965 29.5478 37.3887 29.2147 37.3494C28.6919 37.2683 28.2485 36.9989 27.8779 36.5386C27.4919 37.0565 27.0132 37.3337 26.4419 37.3756C25.9588 37.3913 25.4779 37.3913 24.9948 37.3756C24.6132 37.3285 24.3044 37.1166 24.0705 36.74C23.7683 37.1271 23.3999 37.339 22.9654 37.3756C18.4455 37.3991 13.9256 37.3913 9.40571 37.3494C8.84321 37.2265 8.43953 36.8472 8.19026 36.2143C8.10644 35.9815 8.04467 35.7409 8.00938 35.4898C7.97849 32.2622 7.96967 29.032 7.97849 25.8018H7.97629Z" fill="#026C67"/>
</g>
<g id="g10">
<path id="path10" opacity="0.98" fill-rule="evenodd" clip-rule="evenodd" d="M99.8035 27.0234H101.129V28.8465H99.8035V27.0234Z" fill="#026C67"/>
</g>
<g id="g11">
<path id="path11" opacity="0.98" fill-rule="evenodd" clip-rule="evenodd" d="M101.533 27.0234H102.859V28.8465H101.533V27.0234Z" fill="#026C67"/>
</g>
<g id="g12">
<path id="path12" opacity="0.98" fill-rule="evenodd" clip-rule="evenodd" d="M111.797 27.374H113.182V29.2206H111.797V27.374Z" fill="#026C67"/>
</g>
<g id="g13">
<path id="path13" opacity="0.98" fill-rule="evenodd" clip-rule="evenodd" d="M38.5721 27.5488H38.6317C39.042 29.9708 39.4501 32.3928 39.8582 34.8148H38.5126C38.1265 32.5184 37.7449 30.2219 37.3677 27.9229C37.7758 27.813 38.1773 27.6875 38.5721 27.5488Z" fill="#026C67"/>
</g>
<g id="g14">
<path id="path14" opacity="0.98" fill-rule="evenodd" clip-rule="evenodd" d="M60.1282 29.3721H61.4341V31.2187H60.1282V29.3721Z" fill="#026C67"/>
</g>
<g id="g15">
<path id="path15" opacity="0.97" fill-rule="evenodd" clip-rule="evenodd" d="M61.8157 29.3721H63.1414V31.2187H61.8157V29.3721Z" fill="#026C67"/>
</g>
<g id="g16">
<path id="path16" opacity="0.99" fill-rule="evenodd" clip-rule="evenodd" d="M65.2106 30.445H66.4966V37.3605C63.9995 37.3658 61.5002 37.3605 59.0032 37.3474C57.3818 37.2297 56.473 36.1678 56.2811 34.1643C56.2701 33.241 56.2678 32.3177 56.2701 31.3918H57.5561C57.5517 32.2497 57.5561 33.1076 57.5671 33.9629C57.6157 34.7397 57.9421 35.2262 58.5421 35.4224C58.6811 35.4616 58.8223 35.4852 58.9635 35.4983C61.0458 35.5113 63.1282 35.5139 65.2106 35.5113V30.4424V30.445Z" fill="#026C67"/>
</g>
<g id="g17">
<path id="path17" opacity="0.98" fill-rule="evenodd" clip-rule="evenodd" d="M2.61154 30.4707H3.99685V32.3173H2.61154V30.4707Z" fill="#026C67"/>
</g>
<g id="g18">
<path id="path18" opacity="0.99" fill-rule="evenodd" clip-rule="evenodd" d="M99.5233 30.4708C100.3 30.4655 101.076 30.4708 101.853 30.4838C102.709 30.5414 103.32 31.0436 103.69 31.9956C103.759 32.1996 103.818 32.4089 103.871 32.6207C103.942 33.0392 104.015 33.4551 104.092 33.8684C104.226 34.7812 104.079 35.6129 103.651 36.3662C103.256 36.9129 102.764 37.2241 102.175 37.3026C101.685 37.3183 101.198 37.3183 100.708 37.3026C99.5454 37.1038 98.9344 36.2747 98.8792 34.8178C98.8924 34.6164 98.9079 34.4176 98.9299 34.2188C99.1263 32.9686 99.3226 31.721 99.5233 30.4734V30.4708ZM100.547 32.1186C100.988 32.1133 101.431 32.1186 101.873 32.1316C102.159 32.1813 102.365 32.3696 102.486 32.694C102.629 33.2851 102.726 33.8893 102.777 34.5039C102.79 35.1971 102.521 35.5868 101.974 35.6783C101.586 35.694 101.198 35.694 100.809 35.6783C100.309 35.6391 100.086 35.3095 100.137 34.6923C100.269 33.8344 100.408 32.9765 100.549 32.1212L100.547 32.1186Z" fill="#026C67"/>
</g>
<g id="g19">
<path id="path19" opacity="0.99" fill-rule="evenodd" clip-rule="evenodd" d="M49.4803 30.4946C50.2016 30.424 50.8436 30.6594 51.4083 31.2061C51.92 31.8129 52.1914 32.5557 52.2223 33.4398C52.2355 34.8809 52.2355 36.3195 52.2223 37.758C52.1693 38.6918 51.7987 39.3457 51.1083 39.7171C50.9075 39.8243 50.7002 39.908 50.4862 39.9656C49.5972 40.214 48.7105 40.4677 47.8237 40.7267C47.7222 40.1853 47.6252 39.6465 47.5325 39.105C48.5538 38.8304 49.573 38.5349 50.5855 38.2184C50.7465 38.1347 50.8502 37.9882 50.8965 37.7816C50.9075 37.6403 50.9097 37.4991 50.9075 37.3579C50.3847 37.3683 49.8619 37.3552 49.3413 37.3212C48.2869 37.1408 47.5987 36.4215 47.2832 35.1608C47.2303 34.9149 47.195 34.6664 47.1818 34.4127C47.1443 33.8138 47.1774 33.2253 47.2832 32.6394C47.6318 31.3133 48.3641 30.5966 49.4825 30.492L49.4803 30.4946ZM49.5597 32.2183C49.9259 32.1791 50.2612 32.2837 50.5634 32.5295C50.7619 32.7545 50.8789 33.0317 50.9142 33.3665C50.9428 34.1224 50.9517 34.8809 50.945 35.6394C50.5171 35.6447 50.0869 35.6394 49.659 35.6264C49.0215 35.6028 48.6377 35.2079 48.5031 34.4415C48.4899 34.091 48.4899 33.7432 48.5031 33.3927C48.6178 32.6708 48.9685 32.2784 49.5575 32.2183H49.5597Z" fill="#026C67"/>
</g>
<g id="g20">
<path id="path20" opacity="0.99" fill-rule="evenodd" clip-rule="evenodd" d="M116.478 30.4941C117.186 30.4261 117.823 30.6537 118.386 31.182C118.911 31.7915 119.189 32.5447 119.22 33.4419C119.233 34.8831 119.233 36.3216 119.22 37.7602C119.167 38.6939 118.796 39.3478 118.106 39.7192C117.905 39.8264 117.698 39.9101 117.484 39.9677C116.595 40.2162 115.708 40.4699 114.821 40.7288C114.72 40.1874 114.623 39.6486 114.53 39.1072C115.551 38.8325 116.571 38.537 117.583 38.2205C117.744 38.1368 117.848 37.9903 117.894 37.7837C117.905 37.6425 117.907 37.5012 117.905 37.36C117.382 37.3704 116.86 37.3574 116.339 37.3234C115.284 37.1429 114.596 36.4236 114.281 35.1629C114.228 34.9171 114.193 34.6686 114.179 34.4149C114.144 33.8159 114.177 33.2274 114.281 32.6415C114.629 31.3154 115.362 30.5988 116.48 30.4941H116.478ZM116.54 32.2178C116.906 32.1786 117.241 32.2832 117.543 32.5291C117.748 32.7592 117.865 33.0469 117.894 33.3896C117.905 34.1376 117.907 34.8883 117.905 35.6363C117.484 35.6416 117.06 35.6363 116.639 35.6233C116.006 35.6102 115.622 35.2231 115.483 34.4619C115.443 34.0958 115.443 33.7296 115.483 33.3634C115.6 32.6468 115.951 32.2649 116.537 32.2152L116.54 32.2178Z" fill="#026C67"/>
</g>
<g id="g21">
<path id="path21" opacity="0.99" fill-rule="evenodd" clip-rule="evenodd" d="M105.751 30.9209H107.037C107.041 33.2252 107.037 35.5321 107.026 37.8364C106.933 38.9036 106.494 39.6569 105.709 40.0963C105.276 40.3081 104.844 40.52 104.414 40.7318C104.257 40.2166 104.094 39.7039 103.922 39.1965C104.385 38.969 104.846 38.7362 105.307 38.4982C105.526 38.3334 105.662 38.098 105.72 37.7867C105.751 35.4981 105.759 33.2095 105.751 30.9209Z" fill="#026C67"/>
</g>
<g id="g22">
<path id="path22" opacity="0.99" fill-rule="evenodd" clip-rule="evenodd" d="M111.938 30.9209H113.224C113.229 33.2252 113.224 35.5321 113.213 37.8364C113.112 38.8957 112.673 39.649 111.896 40.0963C111.464 40.3081 111.032 40.52 110.601 40.7318C110.445 40.2166 110.282 39.7039 110.109 39.1965C110.573 38.969 111.034 38.7362 111.495 38.4982C111.713 38.3334 111.85 38.098 111.907 37.7867C111.938 35.4981 111.947 33.2095 111.938 30.9209Z" fill="#026C67"/>
</g>
<g id="g23">
<path id="path23" opacity="0.99" fill-rule="evenodd" clip-rule="evenodd" d="M5.18375 31.2188H6.46979C6.4742 33.3661 6.46979 35.5135 6.45876 37.6609C6.31979 39.1648 5.64699 40.0018 4.44036 40.1692C3.87124 40.1849 3.30212 40.1849 2.73299 40.1692C2.01608 40.1221 1.3874 39.8161 0.844744 39.2459C0.341799 38.6155 0.0638559 37.8544 0.0109143 36.9625C-0.004527 36.5963 0.0020907 36.2302 0.0307674 35.864C0.134445 34.9982 0.238122 34.1325 0.341799 33.2667H1.58813C1.48446 34.1482 1.37857 35.0296 1.2771 35.9137C1.23078 36.3243 1.23739 36.7323 1.29695 37.1378C1.41607 37.6269 1.66534 37.9643 2.05137 38.15C2.21461 38.2206 2.38226 38.2703 2.55432 38.2991C3.183 38.3383 3.81168 38.3461 4.44257 38.3252C4.88375 38.2938 5.12639 38.0061 5.17492 37.4647C5.18595 35.3853 5.18816 33.3033 5.18595 31.224L5.18375 31.2188Z" fill="#026C67"/>
<g id="g24">
<path id="path24" fill-rule="evenodd" clip-rule="evenodd" d="M160.027 64.1091C144.585 64.1091 132.029 48.4969 132.029 29.2987L132.237 24.4783H136.622V17.1887H137.107V16.0117H139.207L139.807 17.275H140.893V26.5733H141.771V27.8654H142.093V20.4032H145.624V22.3257H146.802V25.9142H148.763V22.4408H151.395L152.341 23.9342V27.8942H157.741V28.8986H151.532V24.2769L151 23.4451H149.569V28.1217H148.483V26.916H145.991V23.3274H144.813V21.405H142.898V28.8959H140.959V27.5751H140.081V18.2768H139.342L138.742 17.0135H137.91V18.1905H137.425V25.48H133.016L132.854 29.2961C132.854 47.8927 145.042 63.0446 160.022 63.0446C175.003 63.0446 187.144 47.9503 187.19 29.4112H184.42V23.4713H182.781V20.4294H180.866V19.1373H178.534V20.0554L178.073 20.7145V26.2255H175.695V22.1217L175.095 21.2899H173.781V19.9115H172.281V28.8933H169.856V25.5637H167.71V28.8933H162.008V27.889H166.9V24.5594H170.639V27.889H171.447V18.9071H174.564V20.2855H175.442L176.481 21.7502V25.2237H177.242V20.3457L177.703 19.6866V18.1382H181.673V19.459H183.588V22.5009H185.227V28.4408H187.998V29.3301C187.998 48.5283 175.442 64.1118 160.022 64.1118" fill="#80BC00"/>
</g>
</g>
<g id="g25">
<path id="path25" opacity="0.98" fill-rule="evenodd" clip-rule="evenodd" d="M38.7331 38.0615H39.5361V39.011C39.2207 39.0031 38.9052 39.0162 38.592 39.0476C38.453 39.092 38.3559 39.1941 38.3008 39.3588C38.2611 39.5053 38.2478 39.6544 38.2611 39.8087C38.7354 39.8584 39.214 39.8741 39.6971 39.8584V40.8079H37.2067V39.8584H37.5486C37.5398 39.3824 37.6434 38.9482 37.8596 38.5611C38.0956 38.242 38.3868 38.0772 38.7331 38.0615Z" fill="#026C67"/>
</g>
<g id="g26">
<path id="path26" opacity="0.98" fill-rule="evenodd" clip-rule="evenodd" d="M70.9768 38.71H72.3025V40.533H70.9768V38.71Z" fill="#026C67"/>
</g>
<g id="g27">
<path id="path27" opacity="0.98" fill-rule="evenodd" clip-rule="evenodd" d="M72.6841 38.71H74.0099V40.533H72.6841V38.71Z" fill="#026C67"/>
</g>
<g id="g28">
<path id="path28" opacity="0.98" fill-rule="evenodd" clip-rule="evenodd" d="M85.6218 38.7598H87.0071V40.6063H85.6218V38.7598Z" fill="#026C67"/>
</g>
<g id="g29">
<path id="path29" opacity="0.96" fill-rule="evenodd" clip-rule="evenodd" d="M6.40792 46.9225C6.59983 46.8885 6.7741 46.9382 6.93072 47.0716C7.08954 47.3096 7.11381 47.5659 7.00131 47.8458C6.89322 48.0158 6.75425 48.0916 6.57998 48.0707C6.18953 48.0707 6.01527 47.8301 6.05718 47.3462C6.11895 47.1317 6.23586 46.9905 6.40792 46.9225Z" fill="#7DBC00"/>
</g>
<g id="g30">
<path id="path30" opacity="0.96" fill-rule="evenodd" clip-rule="evenodd" d="M12.1146 46.9223C12.3859 46.8647 12.5955 46.972 12.7477 47.2466C12.8469 47.6311 12.7499 47.9031 12.4565 48.0574C12.2028 48.1333 11.9933 48.0548 11.8234 47.8194C11.6712 47.3905 11.7683 47.0897 12.1146 46.9197V46.9223Z" fill="#7DBC00"/>
</g>
<g id="g31">
<path id="path31" opacity="0.96" fill-rule="evenodd" clip-rule="evenodd" d="M49.7406 46.9229C49.9105 46.8994 50.0715 46.936 50.2237 47.0354C50.42 47.2708 50.4575 47.5402 50.334 47.8462C50.2259 48.0162 50.0869 48.0921 49.9127 48.0711C49.584 48.0894 49.4075 47.8985 49.381 47.4957C49.381 47.1871 49.5024 46.9935 49.7428 46.9203L49.7406 46.9229Z" fill="#7DBC00"/>
</g>
<g id="g32">
<path id="path32" opacity="0.96" fill-rule="evenodd" clip-rule="evenodd" d="M55.1451 46.9222C55.3679 46.8829 55.5576 46.9588 55.7186 47.1471C55.8399 47.4034 55.8333 47.6519 55.6987 47.8951C55.5862 48.0285 55.4517 48.0861 55.2973 48.0704C54.8605 48.0311 54.6995 47.7487 54.8142 47.2203C54.8936 47.0608 55.0039 46.9614 55.1451 46.9195V46.9222Z" fill="#7DBC00"/>
</g>
<g id="g33">
<path id="path33" opacity="0.96" fill-rule="evenodd" clip-rule="evenodd" d="M66.6157 46.9223C67.1628 46.8726 67.3657 47.1708 67.229 47.8221C67.0679 48.0601 66.8628 48.1385 66.6157 48.0601C66.3069 47.9293 66.1966 47.6678 66.2848 47.2728C66.3576 47.0949 66.4679 46.9799 66.6157 46.9223Z" fill="#7DBC00"/>
</g>
<g id="g34">
<path id="path34" opacity="0.96" fill-rule="evenodd" clip-rule="evenodd" d="M70.9966 46.9222C71.2194 46.8829 71.4092 46.9588 71.5702 47.1471C71.6915 47.4034 71.6849 47.6519 71.5503 47.8951C71.4378 48.0285 71.3033 48.0861 71.1489 48.0704C70.7121 48.0311 70.5511 47.7487 70.6658 47.2203C70.7452 47.0608 70.8555 46.9614 70.9966 46.9195V46.9222Z" fill="#7DBC00"/>
</g>
<g id="g35">
<path id="path35" opacity="0.96" fill-rule="evenodd" clip-rule="evenodd" d="M110.533 46.9221C110.707 46.8986 110.868 46.943 111.016 47.0607C111.201 47.3066 111.223 47.5786 111.087 47.8715C110.895 48.0729 110.679 48.1279 110.434 48.0337C110.191 47.8899 110.101 47.6518 110.162 47.3223C110.182 47.2177 110.226 47.1287 110.293 47.0607C110.372 47.0058 110.454 46.9613 110.533 46.9221Z" fill="#7DBC00"/>
</g>
<g id="g36">
<path id="path36" opacity="0.99" fill-rule="evenodd" clip-rule="evenodd" d="M64.4672 47.0244H65.3915C65.3871 48.6644 65.3915 50.3043 65.4025 51.9443L65.4334 51.9809C65.5326 51.994 65.6341 51.9966 65.7356 51.994V52.9931C65.4157 53.0219 65.1135 52.9408 64.8312 52.7551C64.6326 52.5328 64.5157 52.2529 64.4804 51.9181C64.4694 50.286 64.4672 48.6565 64.4694 47.0244H64.4672Z" fill="#7DBC00"/>
</g>
<g id="g37">
<path id="path37" opacity="0.98" fill-rule="evenodd" clip-rule="evenodd" d="M91.0858 47.0244H92.0101V53.0167H91.0858C91.0902 52.8571 91.0858 52.7002 91.0748 52.5432C90.8586 52.8963 90.5718 53.0794 90.2101 53.0925C89.4248 52.9983 88.935 52.4752 88.7431 51.5206C88.6571 50.9033 88.71 50.3017 88.9042 49.7237C89.2703 48.8501 89.8373 48.5545 90.6027 48.837C90.8034 48.9442 90.9601 49.1169 91.0748 49.3496C91.0858 48.5754 91.088 47.8012 91.0858 47.027V47.0244ZM90.2012 49.6452C90.327 49.6792 90.4681 49.7158 90.6226 49.7577C90.8277 49.8963 90.9579 50.1082 91.0152 50.3932C91.0704 50.7385 91.0902 51.089 91.0748 51.4421C90.9689 51.905 90.7262 52.1326 90.3424 52.13C90.3512 52.1195 90.3578 52.1064 90.3623 52.0934C90.0578 52.0672 89.8527 51.8763 89.749 51.5179C89.599 50.9608 89.6387 50.4299 89.8703 49.9198C89.963 49.7917 90.0733 49.7001 90.2012 49.6452Z" fill="#7DBC00"/>
</g>
<g id="g38">
<path id="path38" opacity="0.97" fill-rule="evenodd" clip-rule="evenodd" d="M33.1478 47.174C33.2824 47.1636 33.4125 47.1792 33.5405 47.2237C33.5515 47.5323 33.5537 47.8384 33.5515 48.147C33.4302 48.1339 33.3088 48.1104 33.1897 48.0711C33.0949 48.1052 33.0022 48.1444 32.9074 48.1836C32.8456 48.2542 32.8103 48.3432 32.7971 48.4452C32.786 48.5707 32.7838 48.6937 32.786 48.8192H33.5691V49.6928H32.786V53.0145H31.8419V49.6928H31.3191V48.8192H31.8419C31.8596 47.7573 32.2941 47.208 33.1478 47.1714V47.174Z" fill="#7DBC00"/>
</g>
<g id="g39">
<path id="path39" opacity="0.98" fill-rule="evenodd" clip-rule="evenodd" d="M0.239902 47.2734C0.681082 47.2734 1.12447 47.2839 1.56565 47.2996C1.90094 48.7434 2.24507 50.1819 2.60022 51.6179C2.95537 50.1898 3.3039 48.7565 3.64581 47.3231C4.10905 47.2996 4.5745 47.2891 5.04215 47.297C5.11494 49.1959 5.19435 51.0921 5.28259 52.9884C4.96715 53.0146 4.65391 53.0381 4.33846 53.0643C4.2789 51.5917 4.21493 50.1192 4.14655 48.644C3.79361 50.0825 3.44508 51.5211 3.10095 52.9623C2.78551 52.9858 2.46566 52.9963 2.1458 52.9884C1.8083 51.5394 1.46197 50.0904 1.11123 48.644C1.04726 50.1008 0.989908 51.5577 0.941379 53.0146C0.625935 53.0093 0.310491 52.991 -0.00274658 52.9649C0.0832835 51.0686 0.162696 49.1697 0.237696 47.2734H0.239902Z" fill="#7DBC00"/>
</g>
<g id="g40">
<path id="path40" opacity="0.98" fill-rule="evenodd" clip-rule="evenodd" d="M35.678 47.2728C36.1125 47.2728 36.5493 47.2833 36.9839 47.299C37.3192 48.7427 37.6633 50.1813 38.0184 51.6172C38.3736 50.1891 38.7199 48.7558 39.064 47.3225C39.5273 47.299 39.9927 47.2885 40.4604 47.2963C40.531 49.1952 40.6126 51.0915 40.7008 52.9878C40.3854 53.0139 40.0721 53.0375 39.7567 53.0636C39.6971 51.5911 39.6332 50.1185 39.5648 48.6434C39.2118 50.0819 38.8633 51.5205 38.5192 52.9616C38.2015 52.9852 37.8839 52.9956 37.564 52.9878C37.2353 51.5702 36.8978 50.1551 36.5493 48.7428C36.4875 50.1656 36.4302 51.5885 36.3795 53.0113C36.064 53.0113 35.7486 52.9878 35.4353 52.9355C35.528 51.0471 35.6074 49.1586 35.6758 47.2676L35.678 47.2728Z" fill="#7DBC00"/>
</g>
<g id="g41">
<path id="path41" opacity="0.98" fill-rule="evenodd" clip-rule="evenodd" d="M17.1969 47.3486H18.1212V48.8212H18.9043V49.6948H18.1212C18.1168 50.4428 18.1212 51.1935 18.1322 51.9415C18.1499 51.9625 18.1653 51.9834 18.183 52.0043C18.4234 52.0174 18.6661 52.02 18.9065 52.0174V53.0165C18.6308 53.0218 18.3573 53.0165 18.0837 53.0035C17.7661 52.9485 17.5146 52.7602 17.3293 52.4411C17.2609 52.2763 17.2212 52.1011 17.208 51.918C17.1969 51.1778 17.1947 50.4376 17.1969 49.6948H16.6543V48.8212H17.1969V47.3486Z" fill="#7DBC00"/>
</g>
<g id="g42">
<path id="path42" opacity="0.98" fill-rule="evenodd" clip-rule="evenodd" d="M68.3451 47.3486H69.2694V48.8212H70.0525V49.6948H69.2694C69.265 50.4428 69.2694 51.1935 69.2804 51.9415L69.3312 52.0043C69.5716 52.0174 69.8143 52.02 70.0547 52.0174V53.0165C69.7812 53.0218 69.5054 53.0165 69.2319 53.0035C68.9143 52.9485 68.6628 52.7602 68.4775 52.4411C68.4091 52.2763 68.3694 52.1011 68.3562 51.918C68.3451 51.1778 68.3429 50.4376 68.3451 49.6948H67.8025V48.8212H68.3451V47.3486Z" fill="#7DBC00"/>
</g>
<g id="g43">
<path id="path43" opacity="0.98" fill-rule="evenodd" clip-rule="evenodd" d="M94.2402 47.3486H95.1843V49.5195H97.1123V47.3486H98.0564V53.0165H97.1123V50.5187H95.1843V53.0165H94.2402V47.3486Z" fill="#7DBC00"/>
</g>
<g id="g44">
<path id="path44" opacity="0.98" fill-rule="evenodd" clip-rule="evenodd" d="M9.8447 48.6729C10.0785 48.7147 10.2991 48.8115 10.5087 48.9606C10.8374 49.311 11.0072 49.7557 11.0204 50.2971C11.0315 51.1864 11.0337 52.0783 11.0315 52.9676H10.1072C10.116 52.0757 10.1072 51.1864 10.0763 50.2971C10.0124 49.7635 9.77632 49.5857 9.36382 49.7609C8.99985 49.9205 8.80352 50.2396 8.77043 50.7234C8.7594 51.4898 8.7572 52.2535 8.7594 53.0199H7.81528V48.7749H8.7594C8.75499 49.026 8.7594 49.2744 8.77043 49.5229C8.92926 49.1515 9.16529 48.8978 9.48294 48.7618C9.59544 48.7356 9.71014 48.7199 9.82485 48.7121C9.83588 48.7016 9.8425 48.6912 9.8447 48.6755V48.6729Z" fill="#7DBC00"/>
</g>
<g id="g45">
<path id="path45" opacity="0.99" fill-rule="evenodd" clip-rule="evenodd" d="M21.5955 48.6729H21.697V49.7714C21.4345 49.774 21.1808 49.8289 20.9337 49.9336C20.6823 50.0774 20.519 50.3154 20.4418 50.645C20.4308 51.4349 20.4286 52.2274 20.4308 53.0173H19.5065V48.7722H20.4308C20.4264 49.0312 20.4308 49.2875 20.4418 49.5464C20.7065 49.0103 21.0904 48.7199 21.5977 48.6729H21.5955Z" fill="#7DBC00"/>
</g>
<g id="g46">
<path id="path46" opacity="0.98" fill-rule="evenodd" clip-rule="evenodd" d="M29.2103 48.6729C29.9846 48.6859 30.5559 49.1096 30.9287 49.9466C31.2309 50.9065 31.0919 51.7514 30.5162 52.4811C29.8809 53.1167 29.1904 53.2239 28.447 52.8054C27.5956 52.1437 27.3242 51.2178 27.6331 50.0225C27.9529 49.2064 28.4801 48.7565 29.2103 48.6755V48.6729ZM29.1706 49.7191C29.5654 49.6903 29.8566 49.8891 30.0441 50.318C30.2382 50.9013 30.1478 51.4035 29.7728 51.8298C29.3162 52.1437 28.9235 52.0495 28.597 51.5421C28.3389 50.9275 28.4095 50.3834 28.8088 49.9074C28.9257 49.8263 29.047 49.7635 29.1706 49.7191Z" fill="#7DBC00"/>
</g>
<g id="g47">
<path id="path47" opacity="0.98" fill-rule="evenodd" clip-rule="evenodd" d="M47.4509 48.6725C48.084 48.7562 48.47 49.1904 48.6068 49.9699C48.6244 50.0928 48.6376 50.2183 48.6465 50.3439C48.6575 51.2175 48.6597 52.0911 48.6575 52.9647H47.7332C47.742 52.0806 47.7332 51.1992 47.7023 50.3177C47.6384 49.7528 47.3869 49.5644 46.9479 49.7554C46.6589 49.8914 46.4736 50.1451 46.3964 50.5165C46.3854 51.3482 46.3832 52.18 46.3854 53.0144H45.4413V48.7693H46.3854C46.381 48.9942 46.3854 49.2192 46.3964 49.4441C46.6369 48.9446 46.9876 48.6856 47.4509 48.6699V48.6725Z" fill="#7DBC00"/>
</g>
<g id="g48">
<path id="path48" opacity="0.98" fill-rule="evenodd" clip-rule="evenodd" d="M58.359 48.6725C59.151 48.7615 59.6429 49.2846 59.8348 50.2445C59.9473 51.0135 59.8414 51.7275 59.5127 52.3919C59.1157 52.996 58.6149 53.1818 58.0171 52.9542C57.7965 52.847 57.6267 52.6665 57.5054 52.418C57.4943 53.2001 57.4921 53.9821 57.4943 54.7642H56.5701V48.7458H57.4943C57.4899 48.9132 57.4943 49.0779 57.5054 49.2453C57.7193 48.887 58.0039 48.6961 58.359 48.6699V48.6725ZM58.198 49.6194C58.2421 49.6167 58.2488 49.6324 58.2179 49.6691C58.5708 49.7214 58.7892 49.962 58.8708 50.3936C58.9701 50.8905 58.9238 51.3666 58.7296 51.8164C58.5113 52.1355 58.2664 52.2062 57.9973 52.0283C57.759 51.9054 57.6135 51.6857 57.5649 51.3666C57.5098 51.0292 57.4899 50.6865 57.5054 50.3439C57.598 49.894 57.8296 49.6508 58.198 49.6194Z" fill="#7DBC00"/>
</g>
<g id="g49">
<path id="path49" opacity="0.97" fill-rule="evenodd" clip-rule="evenodd" d="M73.8687 48.6725C74.8658 48.6778 75.4261 49.2924 75.5452 50.5191C75.5563 50.7362 75.5585 50.9507 75.5562 51.1678C74.7401 51.207 73.9217 51.2253 73.1055 51.2175C73.1783 51.819 73.4584 52.1408 73.9504 52.18C74.2812 52.2088 74.5658 52.0806 74.804 51.7929C74.9761 51.9524 75.146 52.1146 75.3158 52.2794C75.3357 52.3055 75.3401 52.3343 75.3268 52.3657C74.8482 52.9464 74.2746 53.1687 73.6084 53.0274C72.8915 52.8679 72.4459 52.3474 72.2717 51.466C72.1503 50.6813 72.2827 49.9751 72.6731 49.3447C73.0018 48.9262 73.4011 48.7013 73.8687 48.6699V48.6725ZM73.7474 49.5461C74.0364 49.486 74.2812 49.588 74.4798 49.8469C74.5923 50.0771 74.6562 50.3256 74.6717 50.595H73.1055C73.1562 50.0849 73.3702 49.7345 73.7474 49.5461Z" fill="#7DBC00"/>
</g>
<g id="g50">
<path id="path50" opacity="0.98" fill-rule="evenodd" clip-rule="evenodd" d="M86.8262 48.6729C87.3358 48.7199 87.6953 49.0364 87.9005 49.6223C87.9667 49.8655 88.0064 50.114 88.0218 50.3703C88.0328 51.2361 88.035 52.1018 88.0328 52.9676H87.1086C87.1174 52.0861 87.1086 51.2021 87.0777 50.3207C87.0203 49.7635 86.7755 49.5752 86.3453 49.7583C86.0475 49.8969 85.8622 50.1585 85.7938 50.5456C85.7828 51.3695 85.7806 52.1934 85.7828 53.0173H84.8387V48.7722H85.7828C85.7784 48.9972 85.7828 49.2221 85.7938 49.4471C85.935 49.1358 86.1402 48.9161 86.4071 48.7853C86.5549 48.7513 86.6938 48.7147 86.8284 48.6729H86.8262Z" fill="#7DBC00"/>
</g>
<g id="g51">
<path id="path51" opacity="0.98" fill-rule="evenodd" clip-rule="evenodd" d="M100.386 48.6725C101.184 48.6882 101.765 49.1381 102.124 50.0195C102.448 51.309 102.131 52.2611 101.169 52.8783C100.326 53.2576 99.6138 53.0274 99.0292 52.1905C98.6586 51.5366 98.5792 50.8304 98.7888 50.0692C99.102 49.2192 99.6336 48.7536 100.386 48.6699V48.6725ZM100.326 49.7188C100.865 49.7109 101.182 50.0352 101.281 50.6917C101.319 51.1442 101.202 51.5235 100.931 51.8269C100.567 52.0963 100.218 52.0701 99.8851 51.751C99.541 51.2619 99.4969 50.7336 99.755 50.166C99.9028 49.9306 100.095 49.7815 100.328 49.7161L100.326 49.7188Z" fill="#7DBC00"/>
</g>
<g id="g52">
<path id="path52" opacity="0.98" fill-rule="evenodd" clip-rule="evenodd" d="M113.928 48.6729C114.539 48.7435 114.916 49.1515 115.064 49.8969C115.097 50.0774 115.117 50.2605 115.123 50.4462C115.134 51.2858 115.137 52.128 115.134 52.9676H114.19C114.195 52.094 114.19 51.2204 114.179 50.3468C114.129 49.7766 113.886 49.5831 113.447 49.7609C113.116 49.9152 112.924 50.2108 112.873 50.6476C112.862 51.4375 112.86 52.23 112.862 53.0199H111.938V48.7749H112.862C112.858 49.0155 112.862 49.2587 112.873 49.4994C113.107 48.9867 113.458 48.7121 113.928 48.6755V48.6729Z" fill="#7DBC00"/>
</g>
<g id="g53">
<path id="path53" opacity="0.97" fill-rule="evenodd" clip-rule="evenodd" d="M14.5653 48.7224C14.9778 48.6648 15.3594 48.7694 15.7102 49.0336C15.9617 49.2952 16.1161 49.6273 16.1712 50.0328C15.9109 50.0458 15.6484 50.0484 15.3881 50.0458C15.3043 49.7006 15.1124 49.541 14.8146 49.5724C14.6006 49.5515 14.4264 49.643 14.2918 49.847C14.2058 50.0406 14.2411 50.1845 14.4021 50.2838C14.5212 50.3335 14.6403 50.3754 14.7639 50.4094C15.1764 50.4408 15.5646 50.5742 15.9286 50.8096C16.2242 51.1784 16.3146 51.6152 16.1999 52.12C16.0345 52.5437 15.7697 52.8209 15.4058 52.9569C14.9712 53.1217 14.5433 53.106 14.1197 52.9072C13.6675 52.6535 13.4205 52.2167 13.3763 51.5969C13.6322 51.589 13.8859 51.5969 14.1396 51.623C14.1969 51.9578 14.3646 52.1461 14.6425 52.1854C14.8764 52.2141 15.0969 52.1644 15.3065 52.0363C15.4918 51.8349 15.4918 51.6361 15.3065 51.4373C15.2227 51.385 15.1344 51.3431 15.0462 51.3118C14.6911 51.2725 14.3425 51.1888 14.0006 51.0633C13.5859 50.8383 13.4094 50.4408 13.469 49.8784C13.5793 49.3658 13.8374 49.0205 14.2433 48.8427C14.3514 48.8008 14.4594 48.7616 14.5653 48.7302V48.7224Z" fill="#7DBC00"/>
</g>
<g id="g54">
<path id="path54" opacity="0.98" fill-rule="evenodd" clip-rule="evenodd" d="M52.3524 48.7219C52.8862 48.6329 53.3627 48.7951 53.7796 49.2084C54.0487 49.5222 54.2031 49.9093 54.2406 50.3697C53.9318 50.3749 53.6252 50.3697 53.3164 50.3566C53.1928 49.8518 52.9171 49.6425 52.4936 49.7315C52.2267 49.8073 52.0546 50.0113 51.9818 50.3435C51.9046 50.7672 51.9244 51.1831 52.0414 51.5911C52.2178 51.973 52.4825 52.1195 52.8355 52.0279C53.098 51.9416 53.259 51.735 53.3186 51.4028C53.6274 51.3897 53.934 51.3871 54.2428 51.3897C54.2296 51.7114 54.1458 52.0044 53.9914 52.2633C53.8678 52.3915 53.7509 52.5275 53.6406 52.6766C53.0958 53.1003 52.52 53.1762 51.9134 52.9015C51.5627 52.7237 51.3112 52.4203 51.159 51.9913C50.998 51.5362 50.945 51.0628 50.998 50.5684C51.0774 49.5275 51.5274 48.9102 52.3546 48.7219H52.3524Z" fill="#7DBC00"/>
</g>
<g id="g55">
<path id="path55" opacity="0.98" fill-rule="evenodd" clip-rule="evenodd" d="M61.6149 48.7223C61.9591 48.6569 62.2745 48.7432 62.5591 48.9838C62.6451 49.0728 62.7157 49.1774 62.7708 49.2951C62.7819 49.1198 62.7841 48.9446 62.7819 48.772H63.726V53.017H62.7819C62.7863 52.8496 62.7819 52.6848 62.7708 52.5175C62.5194 52.9307 62.2083 53.0929 61.8377 53.0039C61.5841 53.0039 61.3546 52.915 61.1451 52.7424C61.1385 52.7633 61.1296 52.779 61.1142 52.7921C60.6973 52.4285 60.4613 51.929 60.4017 51.2934C60.3355 50.5741 60.4635 49.9176 60.7833 49.3212C61.0017 48.9891 61.2796 48.7877 61.6171 48.7223H61.6149ZM61.9966 49.6194C62.1399 49.6482 62.2811 49.7031 62.4179 49.7816C62.5877 49.9411 62.6914 50.1556 62.7289 50.4172C62.7752 50.7572 62.7885 51.0972 62.7686 51.4398C62.6627 51.8714 62.4289 52.0963 62.0649 52.1147C61.8421 52.0807 61.6613 51.9551 61.5223 51.7406C61.2686 51.1521 61.2686 50.561 61.5223 49.9673C61.6436 49.7685 61.8002 49.6534 61.9944 49.6168L61.9966 49.6194Z" fill="#7DBC00"/>
</g>
<g id="g56">
<path id="path56" opacity="0.97" fill-rule="evenodd" clip-rule="evenodd" d="M77.1224 48.7223C77.5724 48.6595 77.9805 48.7903 78.3489 49.1094C78.5541 49.371 78.6798 49.6848 78.7305 50.0458C78.4769 50.051 78.221 50.0458 77.9673 50.0327C77.8658 49.7032 77.6717 49.5488 77.3849 49.5698C77.1489 49.5515 76.9658 49.6587 76.8335 49.8941C76.7893 50.1033 76.8533 50.2393 77.0254 50.3073C77.3849 50.4067 77.7467 50.4983 78.1107 50.582C78.2408 50.65 78.3666 50.7258 78.4923 50.8069C78.6599 50.9979 78.7636 51.2333 78.8033 51.5184C78.8386 52.1565 78.6202 52.6117 78.1504 52.8784C77.9298 52.9857 77.7026 53.0328 77.4665 53.0171V52.167C77.6651 52.1827 77.8283 52.1016 77.9585 51.9185C78.0423 51.7224 78.0136 51.5602 77.868 51.432C77.8107 51.3928 77.7489 51.3588 77.6871 51.3326C77.4268 51.2725 77.1665 51.2228 76.904 51.1836C76.6393 51.1286 76.4077 50.9926 76.2114 50.7703C75.8849 50.0406 76.0018 49.4468 76.5621 48.9839C76.7408 48.8609 76.9283 48.772 77.1246 48.7223H77.1224Z" fill="#7DBC00"/>
</g>
<g id="g57">
<path id="path57" opacity="0.98" fill-rule="evenodd" clip-rule="evenodd" d="M82.0041 48.7219C82.3659 48.6487 82.6945 48.7455 82.9879 49.0096C83.0673 49.0907 83.1313 49.1875 83.1798 49.2974C83.1909 49.1221 83.1931 48.9469 83.1909 48.7742H84.1151V53.0193H83.1909C83.1953 52.8362 83.1909 52.6531 83.1798 52.47C82.9438 52.8807 82.6195 53.0794 82.2048 53.069V52.9931C81.9666 52.9931 81.7482 52.9094 81.5519 52.7447C81.5453 52.7656 81.5364 52.7813 81.521 52.7943C81.1151 52.4439 80.8769 51.96 80.8085 51.3453C80.7225 50.545 80.8747 49.8283 81.2695 49.198C81.4769 48.9495 81.7217 48.7925 82.0019 48.7245L82.0041 48.7219ZM82.2864 49.6452C82.71 49.5903 82.9835 49.8126 83.1092 50.307C83.1997 50.6993 83.2085 51.0942 83.1401 51.4918C83.021 51.8763 82.7982 52.0829 82.4673 52.1169C82.1585 52.0777 81.9489 51.8763 81.8342 51.518C81.6842 50.9608 81.7239 50.4299 81.9556 49.9199C82.0482 49.7917 82.1585 49.7001 82.2864 49.6452Z" fill="#7DBC00"/>
</g>
<g id="g58">
<path id="path58" opacity="0.97" fill-rule="evenodd" clip-rule="evenodd" d="M107.82 48.7224C108.232 48.6648 108.614 48.7694 108.965 49.0336C109.214 49.2899 109.368 49.6195 109.426 50.0197C109.165 50.0458 108.903 50.0537 108.643 50.0458C108.603 49.8261 108.497 49.6797 108.32 49.609C108.098 49.5436 107.884 49.5672 107.679 49.6849C107.425 49.9281 107.438 50.1348 107.718 50.31C108.071 50.4068 108.426 50.4983 108.784 50.5846C109.26 50.7363 109.501 51.1182 109.507 51.7329C109.496 52.1278 109.362 52.4443 109.106 52.6823C108.826 52.9386 108.51 53.0511 108.162 53.0197V52.1697C108.356 52.1801 108.521 52.0964 108.654 51.9212C108.731 51.7302 108.702 51.5681 108.563 51.4347C108.504 51.3955 108.444 51.3641 108.382 51.3353C108.095 51.2751 107.806 51.2176 107.518 51.1601C107.352 51.0894 107.191 51.0084 107.034 50.9116C106.856 50.7468 106.752 50.5271 106.723 50.2498C106.686 49.7137 106.851 49.3004 107.215 49.0127C107.405 48.8688 107.606 48.7747 107.818 48.725L107.82 48.7224Z" fill="#7DBC00"/>
</g>
<g id="g59">
<path id="path59" opacity="0.98" fill-rule="evenodd" clip-rule="evenodd" d="M117.001 48.7221C117.334 48.6593 117.643 48.7378 117.925 48.9601C118.002 49.049 118.073 49.1432 118.137 49.2478C118.148 49.0909 118.15 48.9313 118.148 48.7744C118.463 48.7822 118.779 48.7744 119.092 48.7482C119.116 50.1789 119.118 51.6123 119.103 53.043C119.037 53.7178 118.746 54.1624 118.229 54.3795C118.086 54.4371 117.938 54.4789 117.788 54.5051C117.272 54.5181 116.758 54.5208 116.242 54.5181V53.5948C116.738 53.6001 117.232 53.5948 117.729 53.5818C117.927 53.5556 118.057 53.4275 118.121 53.1947C118.152 52.9723 118.159 52.7474 118.141 52.5199C117.907 52.8991 117.596 53.0822 117.208 53.0691V52.9933C116.968 53.0011 116.749 52.9174 116.555 52.7448C116.542 52.7657 116.524 52.784 116.504 52.7945C115.942 52.2635 115.704 51.5573 115.792 50.6733C115.818 50.1659 115.953 49.7081 116.193 49.3001C116.41 48.9836 116.681 48.7927 117.007 48.7247L117.001 48.7221ZM117.261 49.6454C117.771 49.6009 118.062 49.8912 118.135 50.519C118.148 50.8276 118.148 51.1336 118.135 51.4422C117.927 52.0778 117.574 52.2478 117.08 51.9549C116.888 51.7483 116.778 51.4841 116.749 51.1676C116.696 50.7334 116.756 50.3254 116.93 49.9435C117.016 49.7971 117.126 49.6977 117.261 49.6427V49.6454Z" fill="#7DBC00"/>
</g>
<g id="g60">
<path id="path60" opacity="0.98" fill-rule="evenodd" clip-rule="evenodd" d="M21.9374 48.7716C22.2749 48.7376 22.6169 48.7376 22.961 48.7716C23.2941 49.7394 23.6316 50.7045 23.9757 51.667C24.2823 50.6993 24.5933 49.7341 24.9088 48.7716C25.2375 48.7376 25.5661 48.7376 25.8926 48.7716C25.2441 50.7751 24.6 52.7812 23.9647 54.79H22.9808C23.1595 54.2119 23.3382 53.6313 23.5235 53.0559C23.0007 51.6225 22.4735 50.1945 21.9374 48.7742V48.7716Z" fill="#7DBC00"/>
</g>
<g id="g61">
<path id="path61" opacity="0.97" fill-rule="evenodd" clip-rule="evenodd" d="M43.7339 48.7461H44.6781V52.9911H43.7339C43.7384 52.7662 43.7339 52.5413 43.7229 52.3163C43.4913 52.8133 43.1428 53.0722 42.6773 53.0905C41.9869 52.9728 41.5986 52.4811 41.5126 51.618C41.4839 50.679 41.4729 49.7374 41.4817 48.7958H42.4259C42.4214 49.6772 42.4259 50.5613 42.4369 51.4427C42.5009 52.0077 42.7523 52.196 43.1913 52.0051C43.4737 51.8665 43.6501 51.6127 43.7229 51.2439C43.7339 50.4122 43.7362 49.5805 43.7339 48.7461Z" fill="#7DBC00"/>
</g>
<g id="g62">
<path id="path62" opacity="0.99" fill-rule="evenodd" clip-rule="evenodd" d="M105.109 48.7461H106.033V52.9911H105.109C105.113 52.7584 105.109 52.5256 105.098 52.2928C104.78 52.9545 104.321 53.1899 103.721 53.0042C103.368 52.8734 103.123 52.5936 102.989 52.1672C102.923 51.958 102.883 51.7409 102.867 51.5186C102.856 50.611 102.854 49.7034 102.856 48.7984H103.781C103.776 49.6485 103.781 50.4959 103.792 51.346C103.805 51.563 103.858 51.7618 103.953 51.9449C104.109 52.0809 104.279 52.1097 104.465 52.0312C104.813 51.9135 105.025 51.6363 105.098 51.1943C105.109 50.3782 105.111 49.5621 105.109 48.7487V48.7461Z" fill="#7DBC00"/>
</g>
<g id="g63">
<path id="path63" opacity="0.97" fill-rule="evenodd" clip-rule="evenodd" d="M6.08585 48.7715H7.02997V53.0165H6.08585V48.7715Z" fill="#7DBC00"/>
</g>
<g id="g64">
<path id="path64" opacity="0.99" fill-rule="evenodd" clip-rule="evenodd" d="M11.8322 48.7715H12.7565V53.0165H11.8322V48.7715Z" fill="#7DBC00"/>
</g>
<g id="g65">
<path id="path65" opacity="0.99" fill-rule="evenodd" clip-rule="evenodd" d="M49.4604 48.7715H50.3847V53.0165H49.4604V48.7715Z" fill="#7DBC00"/>
</g>
<g id="g66">
<path id="path66" opacity="0.99" fill-rule="evenodd" clip-rule="evenodd" d="M54.845 48.7715H55.7693V53.0165H54.845V48.7715Z" fill="#7DBC00"/>
</g>
<g id="g67">
<path id="path67" opacity="0.99" fill-rule="evenodd" clip-rule="evenodd" d="M66.3356 48.7715H67.2598V53.0165H66.3356V48.7715Z" fill="#7DBC00"/>
</g>
<g id="g68">
<path id="path68" opacity="0.99" fill-rule="evenodd" clip-rule="evenodd" d="M70.6945 48.7715H71.6187V53.0165H70.6945V48.7715Z" fill="#7DBC00"/>
</g>
<g id="g69">
<path id="path69" opacity="0.99" fill-rule="evenodd" clip-rule="evenodd" d="M110.191 48.7715H111.115V53.0165H110.191V48.7715Z" fill="#7DBC00"/>
</g>
<g id="g70">
<path id="path70" opacity="0.96" fill-rule="evenodd" clip-rule="evenodd" d="M75.9379 51.5909C76.1915 51.5856 76.4474 51.5909 76.7011 51.604C76.7651 51.9335 76.9327 52.1244 77.2041 52.1794C77.2835 52.1924 77.3651 52.1951 77.4445 52.1924V53.066C76.9857 53.0922 76.5886 52.917 76.2489 52.5429C76.068 52.2657 75.9643 51.9518 75.9379 51.5935V51.5909Z" fill="#7DBC00"/>
</g>
<g id="g71">
<path id="path71" opacity="0.96" fill-rule="evenodd" clip-rule="evenodd" d="M106.635 51.5909C106.889 51.5856 107.145 51.5909 107.398 51.604C107.458 51.9361 107.626 52.1271 107.901 52.1794C107.981 52.1924 108.062 52.1951 108.142 52.1924V53.066C107.723 53.087 107.348 52.9431 107.017 52.6292C106.79 52.3415 106.662 51.9963 106.635 51.5935V51.5909Z" fill="#7DBC00"/>
</g>
<g id="g72">
<path id="path72" fill-rule="evenodd" clip-rule="evenodd" d="M149.31 50.0898C149.079 50.0898 148.849 50.1761 148.64 50.32C148.062 50.8378 147.855 51.8161 148.225 52.5955C148.364 52.9695 148.664 53.1997 149.103 53.3435C149.218 53.3435 149.357 53.3723 149.518 53.3723C151.249 53.3723 152.73 52.0488 154 50.8091L154.232 50.5789L154.393 50.8954C154.971 52.1038 155.963 52.9695 157.027 53.2285H157.258C158.022 53.2285 158.853 52.7681 159.014 51.7899C159.107 51.0706 158.761 50.2938 158.205 49.9486C157.858 49.7759 157.441 49.8047 156.866 50.0924C156.727 50.15 156.68 50.3801 156.612 50.6966C156.544 51.0419 156.451 51.531 156.034 51.531C155.734 51.531 155.249 51.2145 155.063 50.7829C154.971 50.5528 154.971 50.2938 155.086 50.0924C155.963 48.4525 157.095 47.299 158.205 46.1769C158.712 45.6591 159.244 45.1412 159.729 44.5657L159.914 44.3643L160.1 44.5657C160.585 45.1124 161.092 45.6303 161.602 46.1482C162.78 47.299 163.982 48.4812 164.743 50.265C164.789 50.3514 164.836 50.4952 164.765 50.6966C164.65 51.0419 164.187 51.531 163.819 51.5597C163.611 51.6173 163.472 51.531 163.402 51.4447C163.263 51.272 163.287 51.0706 163.287 50.8692C163.287 50.7254 163.287 50.5815 163.265 50.524C163.104 50.0924 162.758 50.0061 162.387 49.891C161.716 49.6896 161.002 50.3226 160.839 51.2145C160.77 51.6173 160.816 52.0201 161 52.3653C161.37 52.9695 161.878 53.286 162.455 53.286C163.611 53.286 164.858 52.0776 165.458 50.9242L165.619 50.6077L165.85 50.8378C167.006 51.9887 168.506 53.3148 170.031 53.3148C170.447 53.3148 170.84 53.2285 171.208 53.0271C171.486 52.8832 171.694 52.5667 171.786 52.1639C171.879 51.7324 171.833 51.272 171.625 50.9268C171.372 50.4664 170.955 50.1787 170.494 50.1787C170.033 50.1787 169.594 50.4664 169.362 50.898L169.247 51.1282L169.04 51.0419C168.255 50.6678 167.284 50.1212 166.799 49.054C166.614 48.7088 166.706 48.1621 166.845 47.7881C167.006 47.4429 167.169 47.3565 167.306 47.3565C167.353 47.3565 167.421 47.3853 167.467 47.4141C167.838 47.7018 168.23 47.8744 168.599 47.8744C169.269 47.8744 169.755 47.3853 169.916 46.6085C169.984 46.2057 169.916 45.7741 169.708 45.4289C169.501 45.0549 169.201 44.7959 168.855 44.6808C168.808 44.6808 168.716 44.6521 168.647 44.6521C168.047 44.6521 167.445 45.0261 167.053 45.6015C166.799 45.9755 166.682 46.4359 166.567 46.925C166.453 47.3565 166.336 47.7881 166.128 48.1909L165.943 48.5074L161.068 42.8343L161.275 42.5753C166.519 36.298 173.518 34.0826 179.271 33.4209C178.532 33.3346 177.793 33.3058 177.054 33.3058C170.701 33.3058 164.694 36.0417 160.168 40.9641L160.007 41.1368L159.822 40.9641C157.441 38.7749 154.254 36.0992 150.605 34.7443C147.186 33.5072 143.767 33.0181 140.487 33.3633C146.24 33.9963 153.261 36.2143 158.505 42.5178L158.712 42.7767L153.883 48.3609L153.698 48.0444C153.491 47.6416 153.374 47.2101 153.259 46.7785C153.144 46.2894 153.027 45.8291 152.774 45.455C152.427 45.0235 152.057 44.7645 151.549 44.5056C150.764 44.3042 150.072 44.8508 149.908 45.8291C149.816 46.5483 150.162 47.3252 150.718 47.6704C150.786 47.6992 150.903 47.728 151.042 47.728C151.413 47.728 151.759 47.5553 152.105 47.3539L152.266 47.2676C152.335 47.2388 152.381 47.2388 152.427 47.2388C152.635 47.2388 152.842 47.4115 152.981 47.728C153.12 48.0732 153.188 48.5911 153.003 48.9363C152.542 49.9721 151.572 50.5187 150.786 50.8954L150.601 50.9817L150.486 50.7803C150.186 50.3775 149.747 50.0898 149.308 50.0898M149.496 54.0341C149.335 54.0341 149.172 54.0341 148.988 54.0053C148.364 53.8039 147.949 53.4586 147.718 52.912C147.233 51.8475 147.486 50.4926 148.318 49.7445C149.149 49.1404 150.166 49.4281 150.766 50.2624C151.437 49.9459 152.176 49.4568 152.544 48.68C152.566 48.6225 152.591 48.5074 152.544 48.306C152.498 48.1334 152.452 48.0471 152.405 47.9895L152.291 48.0471C151.92 48.2484 151.481 48.4498 151.02 48.4498C150.835 48.4498 150.674 48.4211 150.488 48.3348C149.703 47.8457 149.242 46.7811 149.357 45.7427C149.564 44.5919 150.303 43.8412 151.205 43.8412C151.366 43.8412 151.505 43.87 151.666 43.8988L151.713 43.9276C152.291 44.2153 152.73 44.503 153.169 45.0496C153.515 45.5387 153.654 46.0854 153.769 46.632C153.837 46.891 153.908 47.1211 153.976 47.3513L157.902 42.8029C151.92 35.8063 143.626 34.1088 137.69 33.8786L135.241 33.7923L137.643 33.2169C141.824 32.2099 146.284 32.5264 150.742 34.1375C154.415 35.461 157.58 38.1106 159.958 40.2998C164.555 35.3485 170.608 32.6414 177.03 32.6414C178.739 32.6414 180.425 32.8428 182.088 33.2169L184.561 33.7923L182.066 33.8786C176.13 34.08 167.836 35.8089 161.853 42.8029L165.78 47.3513C165.848 47.1211 165.919 46.8622 165.987 46.632C166.126 46.1142 166.265 45.5675 166.587 45.0784C167.141 44.244 168.089 43.7549 168.921 43.9276C169.428 44.0714 169.845 44.4454 170.123 44.9633C170.423 45.51 170.516 46.1142 170.401 46.6896C170.169 47.7829 169.477 48.4734 168.577 48.4734C168.16 48.4734 167.723 48.3295 167.306 48.0418C167.238 48.2144 167.167 48.5309 167.238 48.646C167.608 49.4516 168.347 49.9407 169.016 50.2572C169.362 49.7393 169.894 49.4516 170.472 49.4516C171.118 49.4516 171.718 49.8256 172.067 50.4874C172.367 51.0052 172.459 51.667 172.298 52.2999C172.159 52.9041 171.837 53.3645 171.42 53.5946C170.981 53.8248 170.52 53.9399 170.035 53.9399C168.44 53.9399 166.916 52.7027 165.738 51.5493C164.999 52.7577 163.704 53.9111 162.458 53.9111C161.719 53.9111 161.048 53.4796 160.563 52.7027C160.285 52.1849 160.192 51.5519 160.309 50.9765C160.516 49.9119 161.302 49.1064 162.133 49.1064C162.272 49.1064 162.387 49.1351 162.526 49.1639C162.965 49.3077 163.472 49.4516 163.75 50.1133C163.865 50.3147 163.865 50.6024 163.865 50.8326C163.98 50.8038 164.189 50.5737 164.282 50.4586C163.589 48.8762 162.48 47.7803 161.326 46.6582C160.865 46.2266 160.402 45.7663 159.963 45.2772C159.524 45.7951 159.039 46.2554 158.6 46.7157C157.468 47.8666 156.429 48.9337 155.597 50.4874C155.619 50.6024 155.922 50.8614 156.083 50.8614C156.105 50.8038 156.151 50.6312 156.175 50.5161C156.244 50.1421 156.361 49.653 156.753 49.4516C157.47 49.1063 158 49.0776 158.531 49.3365C159.294 49.8256 159.755 50.8902 159.641 51.8998C159.387 53.4534 158.092 54.0314 157.031 53.8876C155.9 53.6286 154.836 52.7655 154.166 51.5545C152.802 52.7917 151.278 54.0314 149.5 54.0314" fill="#80BC00"/>
</g>
</g>
</g>
</g>
<defs>
<clipPath id="clip0_268_36238">
<rect width="188" height="64" fill="white" transform="translate(-0.000244141 0.109375)"/>
</clipPath>
</defs>
</svg>
