<svg width="178" height="65" viewBox="0 0 178 65" fill="none" xmlns="http://www.w3.org/2000/svg">
<g id="Layer_1">
<g id="Clip path group">
<mask id="mask0_268_36617" style="mask-type:luminance" maskUnits="userSpaceOnUse" x="-1" y="0" width="179" height="65">
<g id="clippath">
<path id="Vector" d="M178 0.109375H-0.000244141V64.1094H178V0.109375Z" fill="white"/>
</g>
</mask>
<g mask="url(#mask0_268_36617)">
<g id="Group">
<path id="Vector_2" d="M146.308 25.7451L146.297 25.7383L127.93 14.7035C126.931 14.1023 125.526 14.1775 124.628 14.9289C123.633 15.7601 123.638 17.1058 124.637 17.9347L137.085 28.2385L124.259 37.0555C123.313 37.7044 123.042 38.8498 123.676 39.7606C124.385 40.7762 125.947 41.1201 127.167 40.5303L145.966 31.4379C146.44 31.2056 146.883 30.8845 147.225 30.4883C148.543 28.9672 148.13 26.8427 146.303 25.7451" fill="#36B69E"/>
<path id="Vector_3" d="M175.735 40.8152L156.793 31.5042C156.125 31.1763 155.343 31.001 154.514 31.0306C152.238 31.1148 150.939 32.3012 150.939 34.3096C150.939 41.2524 150.969 55.022 150.969 62.0833C150.969 63.149 152.044 64.037 153.352 64.1076C154.758 64.1828 155.967 63.2947 156.057 62.1266L158.645 39.8065L173.511 44.6248C174.657 44.9983 175.989 44.6339 176.635 43.7254C177.351 42.7143 176.949 41.4118 175.735 40.8152Z" fill="#065463"/>
<path id="Vector_4" d="M177.907 15.375C177.532 14.2433 176.126 13.5807 174.766 13.8926L158.538 17.6248L156.038 1.89005C155.838 0.867638 154.76 0.0934263 153.48 0.111643C152.072 0.12986 150.958 1.09535 150.969 2.26805C151.019 7.32775 150.969 17.4449 150.969 22.5046C150.969 25.2576 154.336 26.3483 156.388 25.565L176.512 17.8707C177.63 17.4449 178.246 16.3929 177.907 15.375Z" fill="#427EC0"/>
<path id="Vector_5" d="M1.32091 16.4587H2.25091C2.33297 16.4587 2.40956 16.4359 2.48068 16.3858C2.55179 16.338 2.59009 16.2788 2.59009 16.2128V15.3384C2.59009 15.2632 2.55726 15.2017 2.48888 15.1539C2.4205 15.1061 2.34391 15.0811 2.25365 15.0811H1.32364C1.23338 15.0811 1.15679 15.1061 1.09388 15.1539C1.03097 15.2017 1.00088 15.2655 1.00088 15.3384V16.2128C1.00088 16.2788 1.03097 16.338 1.09388 16.3858C1.15679 16.4336 1.23338 16.4587 1.32364 16.4587" fill="#065463"/>
<path id="Vector_6" d="M0.801199 22.3137C1.04738 22.5004 1.33732 22.637 1.67103 22.7236C2.002 22.8101 2.35759 22.8533 2.73506 22.8533H2.91012C3.22468 22.8533 3.53103 22.8146 3.83191 22.7349C4.1328 22.6575 4.3735 22.5437 4.5513 22.3934C4.70448 22.6165 4.92877 22.7782 5.22418 22.8761C5.5196 22.9718 5.90254 23.0219 6.37028 23.0219H7.25925C7.40148 23.0219 7.5574 23.015 7.72425 23.0059C7.8911 22.9945 8.05522 22.974 8.22207 22.9444C8.38893 22.9148 8.54757 22.8761 8.70075 22.826C8.85393 22.7782 8.99343 22.7167 9.11925 22.6416C9.35175 22.7987 9.64443 22.9012 9.99455 22.949C10.3447 22.9968 10.6893 23.0219 11.0312 23.0219H11.4497C11.7451 23.0219 12.0378 22.9968 12.325 22.9444C12.6122 22.8921 12.8447 22.7919 13.0253 22.6416C13.2414 22.8579 13.5614 23.0196 13.9881 23.1243C14.4148 23.2291 14.8579 23.2814 15.3147 23.2814C15.7715 23.2814 16.1845 23.2291 16.5456 23.1243C16.9094 23.0196 17.2075 22.8579 17.4428 22.6416C17.6753 22.7759 17.9406 22.8738 18.2388 22.933C18.5342 22.9923 18.835 23.0219 19.1414 23.0219H19.6803C19.8252 23.0219 19.9784 23.015 20.1453 23.0059C20.3121 22.9945 20.4762 22.974 20.6431 22.9444C20.8099 22.9148 20.9686 22.8761 21.1218 22.826C21.2749 22.7782 21.4144 22.7167 21.5403 22.6416C21.7728 22.7987 22.0654 22.9012 22.4156 22.949C22.7657 22.9968 23.1103 23.0219 23.4522 23.0219H23.8817C24.0239 23.0219 24.1798 23.015 24.3467 23.0059C24.5135 22.9945 24.6777 22.974 24.8445 22.9444C25.0114 22.9148 25.17 22.8761 25.3232 22.826C25.4764 22.7782 25.6159 22.7167 25.7417 22.6416C25.9742 22.7987 26.2669 22.9012 26.617 22.949C26.9671 22.9968 27.3117 23.0219 27.6537 23.0219H28.3129C28.4934 23.0219 28.6903 23.0219 28.9119 23.015C29.1335 23.0105 29.3441 23.0036 29.552 22.9922C29.7598 22.9809 29.9486 22.9695 30.1236 22.9535C30.2987 22.9376 30.4355 22.9194 30.5339 22.8966C30.6406 22.8602 30.7145 22.8146 30.7555 22.7623C30.7965 22.7099 30.8239 22.6461 30.843 22.571C30.8704 22.3683 30.8868 22.1474 30.8977 21.9038C30.9059 21.6602 30.9114 21.4393 30.9114 21.2366V14.7218C30.9114 14.6558 30.8868 14.5989 30.8376 14.5533C30.7883 14.5078 30.7281 14.4873 30.6543 14.4873H29.4289C29.3578 14.4873 29.2948 14.5101 29.2401 14.5533C29.1854 14.5989 29.1581 14.6535 29.1581 14.7218V21.2138C29.1581 21.3937 29.1253 21.5008 29.0569 21.5326C28.9885 21.5668 28.849 21.5827 28.6329 21.5827H27.4868C27.4239 21.5827 27.35 21.5827 27.2652 21.5782C27.1805 21.5736 27.0929 21.5645 27.0027 21.5509C26.9124 21.5372 26.8331 21.5167 26.7592 21.4894C26.6881 21.462 26.6389 21.4302 26.6115 21.3937V18.4107C26.6115 18.3515 26.5869 18.3014 26.5377 18.2604C26.4884 18.2195 26.4282 18.199 26.3571 18.199H25.1864C25.1044 18.199 25.0414 18.2195 24.9922 18.2604C24.943 18.3014 24.9184 18.3515 24.9184 18.4107V21.2025C24.9184 21.2935 24.891 21.3619 24.8363 21.4097C24.7816 21.4575 24.7159 21.4962 24.6421 21.5212C24.5655 21.5463 24.4834 21.5645 24.3932 21.5713C24.3029 21.5782 24.2181 21.5827 24.1361 21.5827H23.2881C23.2252 21.5827 23.1514 21.5827 23.0666 21.5782C22.9818 21.5736 22.8942 21.5645 22.804 21.5509C22.7137 21.5372 22.6344 21.5167 22.5605 21.4894C22.4894 21.462 22.4402 21.4302 22.4128 21.3937V18.4107C22.4128 18.3515 22.3882 18.3014 22.339 18.2604C22.2897 18.2195 22.2296 18.199 22.1584 18.199H20.9877C20.9057 18.199 20.8428 18.2195 20.7935 18.2604C20.7443 18.3014 20.7197 18.3515 20.7197 18.4107V21.2025C20.7197 21.2935 20.6923 21.3619 20.6403 21.4097C20.5856 21.4575 20.52 21.4962 20.4461 21.5212C20.3696 21.5463 20.2875 21.5645 20.1972 21.5713C20.107 21.5782 20.0222 21.5827 19.9401 21.5827H19.1058C19.0511 21.5827 18.98 21.5782 18.8898 21.5668C18.7995 21.5554 18.7147 21.5372 18.6326 21.5099C18.5533 21.4848 18.4767 21.4484 18.4111 21.4028C18.3427 21.3573 18.3017 21.2981 18.2825 21.2229C18.2989 21.1478 18.3099 21.0727 18.3099 20.993V20.1026C18.3099 19.2738 18.0445 18.6498 17.5139 18.2354C16.9832 17.821 16.2611 17.6138 15.3448 17.6138C14.4285 17.6138 13.6845 17.8255 13.1347 18.2468C12.5876 18.668 12.3141 19.292 12.3141 20.114V21.0544C12.3141 21.166 12.3004 21.2571 12.2731 21.3231C12.2539 21.3823 12.2184 21.4324 12.1664 21.4689C12.1117 21.5053 12.046 21.5326 11.9722 21.5463C11.8956 21.5622 11.8135 21.5713 11.7287 21.5736C11.6439 21.5782 11.5701 21.5782 11.5072 21.5782H10.8753C10.8124 21.5782 10.7386 21.5782 10.6538 21.5736C10.569 21.5691 10.4814 21.56 10.3912 21.5463C10.3009 21.5326 10.2216 21.5121 10.1477 21.4848C10.0766 21.4575 10.0274 21.4256 10 21.3892V18.4062C10 18.347 9.9754 18.2969 9.92617 18.2559C9.87693 18.2149 9.81676 18.1944 9.74564 18.1944H8.57493C8.49287 18.1944 8.42996 18.2149 8.38072 18.2559C8.33149 18.2969 8.30687 18.347 8.30687 18.4062V21.1979C8.30687 21.289 8.27952 21.3573 8.22754 21.4051C8.17284 21.4529 8.10719 21.4916 8.03334 21.5167C7.95675 21.5417 7.87469 21.56 7.78443 21.5668C7.69416 21.5736 7.60937 21.5782 7.53004 21.5782H6.64107C6.34566 21.5782 6.12957 21.5417 5.99554 21.4666C5.86151 21.3915 5.79313 21.2321 5.79313 20.9839V17.9121C5.79313 17.8528 5.77945 17.8073 5.7521 17.7777C5.72474 17.7481 5.66183 17.7208 5.56336 17.7003C5.35548 17.6479 5.07101 17.6069 4.70721 17.5773C4.34342 17.5477 3.98783 17.5318 3.63771 17.5318C2.45332 17.5318 1.55067 17.7777 0.937964 18.2673C0.30611 18.7614 -0.000244141 19.4468 -0.000244141 20.3281V20.5535C-0.000244141 20.9565 0.0708737 21.3049 0.215845 21.5964C0.35808 21.8879 0.555022 22.127 0.801199 22.3137ZM14.0072 20.2119C14.0072 19.7588 14.1112 19.4286 14.3163 19.2237C14.5215 19.0187 14.8552 18.9163 15.312 18.9163C15.7688 18.9163 16.0997 19.0187 16.3022 19.2237C16.5046 19.4286 16.6058 19.7588 16.6058 20.2119V20.6924C16.6058 21.1319 16.5018 21.4507 16.2967 21.6488C16.0888 21.8469 15.7633 21.9448 15.3147 21.9448C14.9728 21.9448 14.6965 21.8879 14.4804 21.7717C14.2644 21.6556 14.1194 21.4643 14.0483 21.1956C14.0209 21.0385 14.0072 20.8723 14.0072 20.6924V20.2119ZM1.69564 20.1277C1.69564 19.695 1.84882 19.3717 2.15244 19.1576C2.45879 18.9436 2.8855 18.8388 3.43256 18.8388C3.51188 18.8388 3.62677 18.8388 3.77447 18.8457C3.92218 18.8502 4.02339 18.8548 4.07809 18.8616V20.9588C4.07809 21.1319 3.9933 21.2594 3.82097 21.3414C3.65138 21.4233 3.41341 21.4643 3.10706 21.4643H2.90465C2.49162 21.4643 2.18526 21.3732 1.98832 21.1956C1.79138 21.0157 1.69291 20.7129 1.69291 20.2871V20.1299L1.69564 20.1277Z" fill="#065463"/>
<path id="Vector_7" d="M3.81278 16.4587H4.75646C4.84672 16.4587 4.92058 16.4359 4.97802 16.3858C5.03546 16.338 5.06555 16.2788 5.06555 16.2128V15.3384C5.06555 15.2632 5.03546 15.2017 4.97802 15.1539C4.92058 15.1061 4.84672 15.0811 4.75646 15.0811H3.81278C3.73345 15.0811 3.65687 15.1061 3.59122 15.1539C3.52284 15.2017 3.49001 15.2655 3.49001 15.3384V16.2128C3.49001 16.2788 3.52284 16.338 3.59122 16.3858C3.6596 16.4336 3.73345 16.4587 3.81278 16.4587Z" fill="#065463"/>
<path id="Vector_8" d="M7.24559 23.9961C7.15532 23.9961 7.07873 24.0189 7.01582 24.069C6.95291 24.1168 6.92282 24.1783 6.92282 24.2534V25.1506C6.92282 25.2098 6.95291 25.2644 7.01582 25.3123C7.07873 25.3601 7.15532 25.3851 7.24559 25.3851H8.17559C8.25765 25.3851 8.33424 25.3601 8.40535 25.3123C8.47647 25.2644 8.51477 25.2098 8.51477 25.1506V24.2534C8.51477 24.1783 8.48194 24.1168 8.41356 24.069C8.34518 24.0211 8.26859 23.9961 8.17832 23.9961H7.24832H7.24559Z" fill="#065463"/>
<path id="Vector_9" d="M9.73741 23.9961C9.65809 23.9961 9.5815 24.0189 9.51585 24.069C9.44747 24.1168 9.41465 24.1783 9.41465 24.2534V25.1506C9.41465 25.2098 9.44747 25.2644 9.51585 25.3123C9.58424 25.3601 9.65809 25.3851 9.73741 25.3851H10.6811C10.7714 25.3851 10.8452 25.3601 10.9027 25.3123C10.9628 25.2644 10.9902 25.2098 10.9902 25.1506V24.2534C10.9902 24.1783 10.9601 24.1168 10.9027 24.069C10.8452 24.0211 10.7714 23.9961 10.6811 23.9961H9.73741Z" fill="#065463"/>
<path id="Vector_10" d="M21.037 16.9528H22.0873C22.1776 16.9528 22.2514 16.9301 22.3089 16.88C22.3663 16.8322 22.3964 16.7729 22.3964 16.7069V15.8325C22.3964 15.7574 22.3663 15.6959 22.3089 15.6481C22.2514 15.6002 22.1803 15.5752 22.101 15.5752H21.037C20.9467 15.5752 20.8701 15.6002 20.8072 15.6481C20.7443 15.6959 20.7142 15.7574 20.7142 15.8325V16.7069C20.7142 16.7729 20.7416 16.8322 20.8017 16.88C20.8592 16.9278 20.9385 16.9528 21.037 16.9528Z" fill="#065463"/>
<path id="Vector_11" d="M24.0294 16.9528H24.9594C25.0415 16.9528 25.118 16.9301 25.1892 16.88C25.2603 16.8322 25.2986 16.7729 25.2986 16.7069V15.8325C25.2986 15.7574 25.2658 15.6959 25.1974 15.6481C25.129 15.6002 25.0524 15.5752 24.9621 15.5752H24.0321C23.9419 15.5752 23.8653 15.6002 23.8024 15.6481C23.7395 15.6959 23.7094 15.7574 23.7094 15.8325V16.7069C23.7094 16.7729 23.7395 16.8322 23.8024 16.88C23.8653 16.9278 23.9419 16.9528 24.0321 16.9528" fill="#065463"/>
<path id="Vector_12" d="M26.5213 16.9528H27.4649C27.5552 16.9528 27.6291 16.9301 27.6865 16.88C27.7439 16.8322 27.774 16.7729 27.774 16.7069V15.8325C27.774 15.7574 27.7439 15.6959 27.6865 15.6481C27.6291 15.6002 27.5552 15.5752 27.4649 15.5752H26.5213C26.4419 15.5752 26.3654 15.6002 26.2997 15.6481C26.2313 15.6959 26.1985 15.7574 26.1985 15.8325V16.7069C26.1985 16.7729 26.2313 16.8322 26.2997 16.88C26.3654 16.9278 26.4419 16.9528 26.5213 16.9528Z" fill="#065463"/>
<path id="Vector_13" d="M80.0155 25.6538C80.1332 25.6698 80.2836 25.6789 80.4723 25.6812C80.6611 25.6857 80.7924 25.6857 80.8635 25.6857C81.4297 25.6857 81.892 25.6197 82.2503 25.4899C82.6086 25.3578 82.8931 25.1324 83.0982 24.8113C83.1967 24.6542 83.2678 24.4675 83.3061 24.2512C83.3471 24.0348 83.3663 23.798 83.3663 23.5453V23.0192H90.4316C90.7133 23.0192 90.995 23.0147 91.274 23.0079C91.553 23.001 91.8074 22.9942 92.0427 22.9919C92.2752 22.9874 92.4694 22.9783 92.6225 22.9646C92.8113 22.9578 92.918 22.8872 92.9453 22.7506C92.9535 22.6686 92.9672 22.5593 92.9781 22.4249C92.9918 22.2906 93.0028 22.1494 93.011 22.0037C93.0192 21.8579 93.0274 21.7168 93.0301 21.5824C93.0356 21.4481 93.0383 21.3388 93.0383 21.2568V20.9767C93.0383 20.4393 92.9617 19.9611 92.8085 19.5467C92.6554 19.1322 92.4147 18.7861 92.081 18.5083C91.7472 18.2305 91.3178 18.0233 90.7872 17.8798C90.2565 17.7387 89.611 17.6658 88.8478 17.6658C88.6591 17.6658 88.4512 17.6704 88.2214 17.6772C87.9917 17.684 87.6853 17.6954 87.2996 17.7113C87.2996 17.6817 87.3161 17.6271 87.3461 17.5474C87.3762 17.47 87.4145 17.3857 87.461 17.2946C87.5048 17.2058 87.554 17.1125 87.6087 17.0146C87.6634 16.9166 87.7154 16.8278 87.7701 16.7459L89.0366 14.7397C89.0639 14.6942 89.0776 14.6532 89.0776 14.6168C89.0776 14.5803 89.0639 14.5485 89.0366 14.5211C89.0092 14.4938 88.96 14.4824 88.8889 14.4824H87.6771C87.5869 14.4824 87.513 14.5052 87.4556 14.5507C87.3954 14.5963 87.3461 14.6487 87.2996 14.7079L86.2903 16.2768C86.1481 16.4931 86.0223 16.6958 85.9128 16.8825C85.8034 17.0692 85.7132 17.2491 85.6366 17.4199C85.56 17.5929 85.5053 17.7637 85.467 17.9368C85.4314 18.1098 85.4123 18.2874 85.4123 18.4742V18.5425C85.4123 18.5789 85.4123 18.6199 85.4205 18.6609C85.426 18.7019 85.4287 18.7406 85.4342 18.7793C85.4396 18.8157 85.4424 18.8431 85.4424 18.8567C85.4506 18.9751 85.5545 19.0366 85.7515 19.0366H88.6208C89.042 19.0366 89.4168 19.0662 89.745 19.1277C90.0732 19.1869 90.3522 19.2848 90.5793 19.4192C90.809 19.5535 90.9841 19.7311 91.1045 19.952C91.2248 20.1729 91.285 20.4484 91.285 20.7763C91.285 20.897 91.285 21.0245 91.2768 21.1634C91.2713 21.3023 91.2658 21.4344 91.2576 21.5619C91.1865 21.5687 91.0634 21.5756 90.8938 21.5778C90.7242 21.5824 90.541 21.5847 90.3495 21.5847H83.4073V18.4104C83.4073 18.3512 83.3827 18.3011 83.3335 18.2601C83.2842 18.2191 83.224 18.1986 83.1529 18.1986H81.9822C81.9029 18.1986 81.8372 18.2191 81.788 18.2601C81.7388 18.3011 81.7142 18.3512 81.7142 18.4104V23.4451C81.7142 23.6773 81.6895 23.8572 81.6403 23.9893C81.5911 24.1191 81.5117 24.2193 81.4051 24.2853C81.2957 24.3536 81.1562 24.3946 80.9811 24.4151C80.806 24.4333 80.5927 24.4424 80.341 24.4424H80.0593C79.9061 24.4424 79.8295 24.4971 79.8295 24.6109V25.4421C79.8295 25.5605 79.8924 25.6334 80.0183 25.6561" fill="#065463"/>
<path id="Vector_14" d="M82.0506 16.9528H83.101C83.1912 16.9528 83.2651 16.9301 83.3225 16.88C83.38 16.8322 83.41 16.7729 83.41 16.7069V15.8325C83.41 15.7574 83.38 15.6959 83.3225 15.6481C83.2651 15.6002 83.194 15.5752 83.1146 15.5752H82.0506C81.9603 15.5752 81.8837 15.6002 81.8208 15.6481C81.7579 15.6959 81.7278 15.7574 81.7278 15.8325V16.7069C81.7278 16.7729 81.7579 16.8322 81.8154 16.88C81.8728 16.9278 81.9521 16.9528 82.0506 16.9528Z" fill="#065463"/>
<path id="Vector_15" d="M109.242 14.4863H108.017C107.946 14.4863 107.883 14.5091 107.828 14.5546C107.773 14.6002 107.749 14.6548 107.749 14.7231V21.2151C107.749 21.395 107.716 21.5021 107.648 21.5339C107.579 21.5681 107.44 21.584 107.224 21.584H106.094C106.039 21.584 105.968 21.5772 105.878 21.5681C105.788 21.5567 105.703 21.5385 105.623 21.5112C105.541 21.4861 105.468 21.4497 105.402 21.4041C105.334 21.3586 105.292 21.2994 105.273 21.2242C105.292 21.1491 105.301 21.074 105.301 20.9943V20.1039C105.301 19.2751 105.035 18.6511 104.505 18.2367C103.974 17.8223 103.252 17.6151 102.336 17.6151C101.419 17.6151 100.675 17.8268 100.125 18.2481C99.5784 18.6716 99.3049 19.2933 99.3049 20.1153V21.058C99.3049 21.1696 99.2912 21.2607 99.2639 21.3267C99.2447 21.3859 99.2092 21.436 99.1572 21.4725C99.1025 21.5089 99.0368 21.5362 98.963 21.5499C98.8864 21.5658 98.8043 21.5749 98.7196 21.5772C98.6348 21.5818 98.5609 21.584 98.498 21.584H96.9881V18.412C96.9881 18.3528 96.9635 18.3027 96.9143 18.2595C96.865 18.2185 96.8048 18.198 96.731 18.198H95.5603C95.481 18.198 95.4153 18.2185 95.3661 18.2595C95.3168 18.3005 95.2922 18.3506 95.2922 18.412V23.4467C95.2922 23.679 95.2676 23.8588 95.2184 23.9909C95.1691 24.123 95.0898 24.2209 94.9831 24.2892C94.8765 24.3575 94.7342 24.3985 94.5592 24.419C94.3841 24.4372 94.1707 24.4463 93.9191 24.4463H93.6374C93.4842 24.4463 93.4076 24.5033 93.4076 24.6148V25.446C93.4076 25.5644 93.4705 25.6373 93.5963 25.66C93.7139 25.676 93.8644 25.6851 94.0531 25.6874C94.2419 25.6919 94.3704 25.6919 94.4443 25.6919C95.0105 25.6919 95.4727 25.6259 95.8311 25.4961C96.1894 25.364 96.4739 25.1386 96.679 24.8175C96.7775 24.6604 96.8486 24.4737 96.8869 24.2573C96.9279 24.041 96.9471 23.8042 96.9471 23.5514V23.0254H98.4433C98.7387 23.0254 99.0314 23.0004 99.3186 22.948C99.6058 22.8956 99.8383 22.7954 100.019 22.6452C100.235 22.8615 100.555 23.0232 100.982 23.1279C101.408 23.2326 101.851 23.285 102.308 23.285C102.765 23.285 103.178 23.2326 103.539 23.1279C103.903 23.0232 104.201 22.8638 104.436 22.6452C104.669 22.7795 104.934 22.8774 105.232 22.9366C105.528 22.9958 105.829 23.0254 106.135 23.0254H106.904C107.084 23.0254 107.284 23.0254 107.503 23.0186C107.721 23.014 107.935 23.0072 108.143 22.9958C108.351 22.9844 108.539 22.9708 108.714 22.9571C108.889 22.9412 109.026 22.923 109.125 22.9002C109.231 22.8638 109.305 22.8182 109.346 22.7658C109.387 22.7135 109.417 22.6497 109.434 22.5768C109.461 22.3742 109.477 22.1533 109.488 21.9097C109.497 21.666 109.502 21.4451 109.502 21.2425V14.7277C109.502 14.6594 109.477 14.6047 109.428 14.5592C109.379 14.5137 109.319 14.4909 109.248 14.4909M103.599 20.6914C103.599 21.1309 103.495 21.4497 103.29 21.6478C103.082 21.8459 102.757 21.9438 102.308 21.9438C101.966 21.9438 101.69 21.8869 101.474 21.7708C101.258 21.6546 101.116 21.4633 101.042 21.1946C101.014 21.0375 101.001 20.8713 101.001 20.6914V20.2109C101.001 19.7555 101.105 19.4276 101.31 19.2227C101.518 19.0177 101.849 18.9153 102.306 18.9153C102.762 18.9153 103.093 19.0177 103.296 19.2227C103.498 19.4276 103.599 19.7578 103.599 20.2109V20.6914Z" fill="#065463"/>
<path id="Vector_16" d="M111.844 23.0193H113.055C113.135 23.0193 113.2 22.9942 113.249 22.9464C113.299 22.8986 113.323 22.8439 113.323 22.7847V14.7124C113.323 14.6532 113.299 14.6008 113.249 14.5553C113.2 14.5098 113.135 14.4893 113.055 14.4893H111.844C111.761 14.4893 111.699 14.512 111.649 14.5553C111.6 14.6008 111.575 14.6532 111.575 14.7124V22.7847C111.575 22.8439 111.6 22.8986 111.649 22.9464C111.699 22.9942 111.764 23.0193 111.844 23.0193Z" fill="#065463"/>
<path id="Vector_17" d="M9.70735 33.0888V35.063C9.70735 35.3545 9.74837 35.5913 9.8277 35.7757C9.90702 35.9602 10.0274 36.1036 10.186 36.2084C10.3419 36.3131 10.5389 36.3837 10.7714 36.4224C11.0039 36.4589 11.2774 36.4794 11.592 36.4794H26.2204C26.3982 36.4794 26.5978 36.4794 26.8139 36.4725C27.03 36.468 27.2379 36.4611 27.4403 36.4498C27.6427 36.4384 27.826 36.4247 27.9928 36.411C28.1597 36.3974 28.291 36.3769 28.3895 36.3541C28.4989 36.3177 28.57 36.2721 28.611 36.2198C28.652 36.1674 28.6821 36.1036 28.6985 36.0285C28.7259 35.8258 28.7396 35.564 28.745 35.2383C28.7505 34.9127 28.7533 34.512 28.7533 34.0315V32.9886C28.7533 32.8246 28.7533 32.6493 28.745 32.4671C28.7396 32.2827 28.7341 32.0732 28.7259 31.8341C28.7177 31.7749 28.6903 31.7248 28.6438 31.6838C28.6001 31.6428 28.5262 31.6223 28.4278 31.6223H27.2981C27.216 31.6223 27.1531 31.6428 27.1039 31.6838C27.0546 31.7248 27.03 31.7749 27.03 31.8341C27.0492 32.3715 27.0574 32.8724 27.0574 33.337V34.6713C27.0574 34.8512 27.0218 34.956 26.9507 34.9901C26.8796 35.0243 26.7346 35.0402 26.5185 35.0402H25.6295C25.5584 35.0402 25.501 35.0289 25.4545 35.0061C25.4107 34.9833 25.3642 34.9423 25.3204 34.8831C25.2931 34.8535 25.263 34.8011 25.2274 34.726C25.1919 34.6509 25.1509 34.5712 25.1071 34.4846C25.0633 34.3981 25.0168 34.3138 24.9731 34.2273C24.9293 34.1408 24.8937 34.0679 24.8664 34.0087L24.6913 33.6945C24.4205 33.1867 24.1306 32.7609 23.816 32.4216C23.5015 32.0823 23.1596 31.809 22.793 31.6041C22.4238 31.3992 22.0299 31.2534 21.6086 31.1669C21.1874 31.0804 20.7279 31.0371 20.2355 31.0371C20.003 31.0371 19.7787 31.0439 19.5681 31.0599C19.3575 31.0758 19.1387 31.1009 18.9144 31.1373C18.7338 31.1669 18.6436 31.2375 18.6436 31.3513V32.1802C18.6436 32.3146 18.7366 32.3738 18.9253 32.3601C19.0238 32.3533 19.1551 32.3464 19.3165 32.3442C19.4778 32.3396 19.59 32.3373 19.6529 32.3373C20.5063 32.3373 21.1792 32.474 21.6716 32.7472C22.1666 33.0205 22.5414 33.3962 22.804 33.8744L23.0748 34.3457L23.4386 35.0402H12.0406C11.8081 35.0402 11.6467 35.0152 11.5564 34.9674C11.4661 34.9196 11.4224 34.8125 11.4224 34.6486V32.1028C11.4224 32.0276 11.4032 31.9753 11.3622 31.9457C11.3212 31.9161 11.2665 31.8933 11.1953 31.8774C10.9628 31.8409 10.6702 31.8068 10.3201 31.7772C9.96993 31.7476 9.61434 31.7316 9.25602 31.7316C8.14275 31.7316 7.2866 31.9343 6.69031 32.3373C6.09401 32.7404 5.79313 33.3689 5.79313 34.2205V34.3093C5.79313 34.4596 5.76304 35.8258 5.7521 36.0148C5.56336 36.0376 5.36916 36.0535 5.16674 36.0649C4.96433 36.0763 4.74277 36.0809 4.49933 36.0809C3.89756 36.0809 3.41615 36.0126 3.05783 35.8737C2.6995 35.7348 2.42597 35.5458 2.23724 35.3021C2.0485 35.0585 1.92541 34.7715 1.86797 34.4391C1.81053 34.1066 1.78044 33.7468 1.78044 33.3575C1.78044 33.2527 1.78865 33.1161 1.79959 32.9476C1.81326 32.7791 1.82968 32.6129 1.84609 32.4489C1.86524 32.3077 1.78865 32.2349 1.61632 32.2349H0.579643C0.426466 32.2349 0.336201 32.31 0.308848 32.458C0.281495 32.5787 0.256878 32.7062 0.234995 32.8451C0.213113 32.984 0.193966 33.1184 0.180289 33.255C0.166613 33.3893 0.155671 33.5169 0.147466 33.6353C0.13926 33.756 0.133789 33.8561 0.133789 33.9381C0.133789 34.5211 0.213113 35.0334 0.377231 35.4752C0.538614 35.9169 0.792997 36.2835 1.13764 36.5796C1.48229 36.8756 1.93088 37.0987 2.47794 37.2536C3.025 37.4061 3.68421 37.4836 4.4583 37.4836C4.95339 37.4836 5.42933 37.4676 5.8916 37.438C6.35387 37.4084 6.77237 37.3674 7.14984 37.3151C7.34678 37.2855 7.44525 37.2035 7.44525 37.0691C7.4644 36.8073 7.49996 34.3571 7.49996 34.3571C7.49996 33.863 7.63125 33.5214 7.89111 33.3301C8.15096 33.1389 8.53664 33.0432 9.04814 33.0432C9.17396 33.0432 9.28064 33.0478 9.3709 33.0546C9.46117 33.0614 9.57332 33.0728 9.70735 33.0888Z" fill="#065463"/>
<path id="Vector_18" d="M3.1098 39.5128C3.18091 39.5128 3.25203 39.49 3.31768 39.4445C3.38606 39.399 3.41888 39.3466 3.41888 39.2874V38.4904C3.41888 38.4153 3.38606 38.3583 3.32588 38.3173C3.26297 38.2764 3.19185 38.2559 3.1098 38.2559H2.20715C2.12782 38.2559 2.05397 38.2764 1.99106 38.3173C1.92814 38.3583 1.89532 38.4153 1.89532 38.4904V39.2874C1.89532 39.3466 1.92814 39.399 1.99106 39.4445C2.05397 39.49 2.12509 39.5128 2.20715 39.5128H3.1098Z" fill="#065463"/>
<path id="Vector_19" d="M5.61261 39.5128C5.68373 39.5128 5.75211 39.49 5.81502 39.4445C5.87793 39.399 5.91076 39.3466 5.91076 39.2874V38.4904C5.91076 38.4153 5.87793 38.3583 5.81502 38.3173C5.75211 38.2764 5.68646 38.2559 5.61261 38.2559H4.69628C4.62517 38.2559 4.55678 38.2764 4.49387 38.3173C4.43096 38.3583 4.40087 38.4153 4.40087 38.4904V39.2874C4.40087 39.3466 4.43096 39.399 4.49387 39.4445C4.55678 39.49 4.62243 39.5128 4.69628 39.5128H5.61261Z" fill="#065463"/>
<path id="Vector_20" d="M26.3708 37.4492C26.2915 37.4492 26.2176 37.472 26.1547 37.5221C26.0918 37.5699 26.0617 37.6314 26.0617 37.7065V38.6037C26.0617 38.6629 26.0946 38.7176 26.1547 38.7654C26.2176 38.8132 26.2888 38.8382 26.3708 38.8382H27.4075C27.4978 38.8382 27.5744 38.8132 27.6427 38.7654C27.7111 38.7176 27.7439 38.6629 27.7439 38.6037V37.7065C27.7439 37.6314 27.7111 37.5699 27.6427 37.5221C27.5744 37.4743 27.4978 37.4492 27.4075 37.4492H26.3708Z" fill="#065463"/>
<path id="Vector_21" d="M30.4054 37.8705C30.2303 37.8887 30.0169 37.8978 29.7653 37.8978H29.4836C29.3304 37.8978 29.2538 37.9548 29.2538 38.0663V38.8952C29.2538 39.0136 29.3167 39.0865 29.4425 39.1093C29.5601 39.1229 29.7106 39.132 29.8993 39.1366C30.0881 39.1411 30.2194 39.1434 30.2905 39.1434C30.8567 39.1434 31.3189 39.0774 31.6773 38.9476C32.0383 38.8155 32.3201 38.5901 32.5252 38.269C32.6237 38.1119 32.6948 37.9252 32.7331 37.7088C32.7741 37.4925 32.7933 37.2557 32.7933 37.0029V36.4769H34.5302C34.7107 36.4769 34.9104 36.4769 35.1292 36.4701C35.348 36.4655 35.5614 36.4587 35.7693 36.4473C35.9772 36.4359 36.1659 36.4246 36.341 36.4086C36.516 36.395 36.6528 36.3745 36.7513 36.3517C36.8607 36.3153 36.9318 36.2697 36.9728 36.2173C37.0138 36.165 37.0412 36.1012 37.0603 36.0261C37.0877 35.8234 37.1041 35.6025 37.115 35.3589C37.1233 35.1152 37.1287 34.8943 37.1287 34.6917V28.1769C37.1287 28.1109 37.1041 28.054 37.0549 28.0084C37.0056 27.9629 36.9455 27.9424 36.8743 27.9424H35.6489C35.5778 27.9424 35.5149 27.9652 35.4602 28.0084C35.4055 28.054 35.3781 28.1109 35.3781 28.1769V34.6689C35.3781 34.8488 35.3453 34.9558 35.2769 34.99C35.2085 35.0241 35.069 35.0401 34.853 35.0401H32.8343V31.8681C32.8343 31.8089 32.8097 31.7588 32.7604 31.7178C32.7112 31.6768 32.651 31.6563 32.5799 31.6563H31.4092C31.3272 31.6563 31.2642 31.6768 31.215 31.7178C31.1658 31.7588 31.1411 31.8089 31.1411 31.8681V36.9027C31.1411 37.135 31.1165 37.3149 31.0673 37.447C31.0181 37.579 30.9387 37.677 30.8321 37.7453C30.7226 37.8136 30.5831 37.8546 30.4081 37.8751" fill="#065463"/>
<path id="Vector_22" d="M39.2076 36.2398C39.2076 36.299 39.2322 36.3536 39.2814 36.4015C39.3307 36.4493 39.3963 36.4743 39.4756 36.4743H40.6874C40.7667 36.4743 40.8324 36.4516 40.8816 36.4015C40.9308 36.3536 40.9554 36.299 40.9554 36.2398V28.1675C40.9554 28.1083 40.9308 28.0559 40.8816 28.0104C40.8324 27.9648 40.7667 27.9443 40.6874 27.9443H39.4756C39.3963 27.9443 39.3307 27.9671 39.2814 28.0104C39.2322 28.0559 39.2076 28.1083 39.2076 28.1675V36.2398Z" fill="#065463"/>
<path id="Vector_23" d="M54.7851 38.7673C54.8426 38.7195 54.8726 38.6649 54.8726 38.6057V37.7085C54.8726 37.6333 54.8426 37.5719 54.7851 37.524C54.7277 37.4762 54.6511 37.4512 54.5636 37.4512H53.6199C53.5378 37.4512 53.464 37.4739 53.3983 37.524C53.3299 37.5719 53.2971 37.6333 53.2971 37.7085V38.6057C53.2971 38.6649 53.3299 38.7195 53.3983 38.7673C53.4667 38.8152 53.5406 38.8402 53.6199 38.8402H54.5636C54.6538 38.8402 54.7277 38.8152 54.7851 38.7673Z" fill="#065463"/>
<path id="Vector_24" d="M51.128 37.4492C51.0377 37.4492 50.9612 37.472 50.8982 37.5221C50.8353 37.5699 50.8052 37.6314 50.8052 37.7065V38.6037C50.8052 38.6629 50.8381 38.7176 50.8982 38.7654C50.9612 38.8132 51.0377 38.8382 51.128 38.8382H52.058C52.1401 38.8382 52.2167 38.8132 52.2878 38.7654C52.3589 38.7176 52.3972 38.6629 52.3972 38.6037V37.7065C52.3972 37.6314 52.3644 37.5699 52.296 37.5221C52.2276 37.4743 52.151 37.4492 52.0607 37.4492H51.1307H51.128Z" fill="#065463"/>
<path id="Vector_25" d="M64.2793 28.4795C64.1891 28.4795 64.1125 28.5045 64.0496 28.5524C63.9867 28.6002 63.9566 28.6639 63.9566 28.7368V29.6112C63.9566 29.6772 63.9839 29.7365 64.0441 29.7843C64.1016 29.8321 64.1809 29.8571 64.2793 29.8571H65.3297C65.42 29.8571 65.4938 29.8321 65.5513 29.7843C65.6087 29.7365 65.6388 29.6772 65.6388 29.6112V28.7368C65.6388 28.6617 65.6087 28.6002 65.5513 28.5524C65.4938 28.5045 65.4227 28.4795 65.3434 28.4795H64.2793Z" fill="#065463"/>
<path id="Vector_26" d="M62.288 35.0405H54.7523C54.6894 35.0405 54.6155 35.0405 54.5307 35.0337C54.4459 35.0291 54.3584 35.02 54.2681 35.0064C54.1779 34.9904 54.0986 34.9722 54.0247 34.9449C53.9536 34.9198 53.9043 34.888 53.877 34.8493V31.8663C53.877 31.8071 53.8524 31.757 53.8031 31.716C53.7539 31.675 53.6937 31.6545 53.6226 31.6545H52.4519C52.3726 31.6545 52.3069 31.675 52.2577 31.716C52.2085 31.757 52.1838 31.8071 52.1838 31.8663V34.658C52.1838 34.7468 52.1565 34.8174 52.1045 34.8652C52.0498 34.913 51.9842 34.9517 51.9103 34.9768C51.8337 35.0018 51.7517 35.02 51.6614 35.0269C51.5711 35.0337 51.4863 35.0383 51.4043 35.0383H47.7937V31.8663C47.7937 31.8071 47.7691 31.757 47.7198 31.716C47.6706 31.675 47.6104 31.6545 47.5393 31.6545H46.3686C46.2865 31.6545 46.2236 31.675 46.1744 31.716C46.1251 31.757 46.1005 31.8071 46.1005 31.8663V36.9009C46.1005 37.1332 46.0759 37.3131 46.0267 37.4451C45.9774 37.5749 45.8981 37.6751 45.7914 37.7434C45.682 37.8095 45.5425 37.8527 45.3675 37.8732C45.1924 37.8915 44.9791 37.9006 44.7274 37.9006H44.4457C44.2925 37.9006 44.2159 37.9575 44.2159 38.0691V38.8979C44.2159 39.0163 44.2788 39.0892 44.4046 39.112C44.5223 39.1256 44.6727 39.1347 44.8614 39.1393C45.0502 39.1439 45.1787 39.1461 45.2526 39.1461C45.8188 39.1461 46.2811 39.0801 46.6394 38.9503C46.9977 38.8205 47.2822 38.5928 47.4873 38.2717C47.5858 38.1146 47.6569 37.9279 47.6952 37.7116C47.7335 37.4952 47.7554 37.2584 47.7554 37.0057V36.4797H51.1499C51.2921 36.4797 51.448 36.4728 51.6149 36.4614C51.7818 36.4501 51.9459 36.4296 52.1127 36.4C52.2796 36.3704 52.4382 36.3316 52.5914 36.2816C52.7446 36.2337 52.8841 36.1722 53.0099 36.0971C53.2424 36.2542 53.5351 36.3567 53.8852 36.4068C54.2353 36.4546 54.58 36.4797 54.9219 36.4797H67.0912C67.1624 36.4797 67.2253 36.4614 67.28 36.4296C67.3347 36.3954 67.362 36.3499 67.362 36.2884V35.2455C67.362 35.1863 67.3347 35.1362 67.28 35.0997C67.2253 35.0633 67.1624 35.0428 67.0912 35.0428H64.2766C64.0687 34.9768 63.8855 34.8174 63.7241 34.5669C63.5627 34.3164 63.4806 34.0341 63.4806 33.7198V33.5969C63.4806 33.1255 63.6475 32.793 63.9867 32.5927C64.3231 32.3946 64.8018 32.2944 65.42 32.2944C65.5622 32.2944 65.6908 32.2944 65.8029 32.3012C65.9151 32.3057 66.0217 32.308 66.1257 32.3126C66.2296 32.3171 66.3363 32.3217 66.4484 32.3285C66.5606 32.3353 66.6891 32.3445 66.8314 32.3513C67.0201 32.3672 67.1131 32.2989 67.1131 32.1486V31.3311C67.1131 31.256 67.0858 31.2059 67.0338 31.1786C66.9791 31.1535 66.9025 31.133 66.804 31.1171C66.5086 31.0716 66.2406 31.0397 66.0026 31.0215C65.7646 31.0032 65.4856 30.9941 65.1601 30.9941C64.7006 30.9941 64.2684 31.0397 63.8608 31.1285C63.4533 31.2196 63.0922 31.3608 62.7831 31.5543C62.474 31.7479 62.2279 31.9961 62.0501 32.3012C61.8695 32.604 61.7793 32.9729 61.7793 33.4056V33.5285C61.7793 33.8564 61.8258 34.1547 61.9215 34.4189C62.0145 34.6853 62.1403 34.8925 62.2908 35.0405" fill="#065463"/>
<path id="Vector_27" d="M72.2254 33.3916V33.5829C72.2254 33.9108 72.2774 34.2045 72.3813 34.4641C72.4853 34.7214 72.6111 34.9377 72.7643 35.1085H72.5017C72.3813 35.1085 72.2582 35.1085 72.1324 35.1131C72.0066 35.1176 71.8917 35.1199 71.7878 35.1245C71.6838 35.129 71.6236 35.129 71.6072 35.129C71.4185 35.129 71.3118 35.2087 71.2845 35.3636C71.2653 35.5139 71.2462 35.7074 71.2243 35.9465C71.2024 36.1856 71.1915 36.4065 71.1915 36.6091C71.1915 37.5587 71.4677 38.26 72.0202 38.7109C72.5728 39.164 73.6915 39.3895 74.8431 39.3895H74.958C75.0154 39.3895 75.0811 39.3849 75.1522 39.3781C75.3327 39.3621 75.1522 39.2847 75.1522 39.1413V38.3147C75.1522 38.178 75.0592 38.112 74.8704 38.112H74.7091C74.0991 38.112 73.6505 38.0027 73.3633 37.7841C73.0761 37.5655 72.9229 37.2444 72.9038 36.8209C72.9038 36.7845 72.9038 36.7275 72.912 36.6547C72.9174 36.5795 72.9202 36.5249 72.9202 36.4884C72.9831 36.4884 73.0597 36.4884 73.1499 36.4816C73.2402 36.4771 73.3305 36.4771 73.4262 36.4771H77.6221C77.7015 36.4771 77.7671 36.4566 77.8164 36.4156C77.8656 36.3746 77.8902 36.3245 77.8902 36.2653V35.2452C77.8902 35.1859 77.8656 35.1381 77.8164 35.0994C77.7671 35.0607 77.7015 35.0425 77.6221 35.0425H74.8075C74.7008 35.0129 74.5942 34.956 74.4902 34.874C74.3863 34.792 74.296 34.6918 74.214 34.5757C74.1319 34.4596 74.0663 34.3298 74.0115 34.184C73.9568 34.0383 73.9322 33.8789 73.9322 33.7081V33.5965C73.9322 33.1183 74.1018 32.7813 74.4437 32.5878C74.7856 32.3942 75.2725 32.2963 75.9126 32.2963C76.1916 32.2963 76.435 32.3031 76.6456 32.3123C76.8563 32.3236 77.1024 32.3373 77.3787 32.351C77.5839 32.3669 77.6878 32.2986 77.6878 32.1483V31.3308C77.6878 31.2557 77.6577 31.2056 77.6003 31.1805C77.5428 31.1532 77.4635 31.1327 77.365 31.1191C77.0696 31.0735 76.7961 31.0416 76.5444 31.0234C76.2928 31.0052 76.0111 30.9961 75.6965 30.9961C75.2288 30.9961 74.7884 31.0416 74.3699 31.1304C73.9514 31.2192 73.5848 31.3604 73.2648 31.5517C72.9448 31.743 72.6931 31.9889 72.5099 32.2918C72.3266 32.5946 72.2336 32.9635 72.2336 33.3961" fill="#065463"/>
<path id="Vector_28" d="M101.66 29.8601C101.739 29.8601 101.816 29.835 101.89 29.7872C101.961 29.7394 101.996 29.6802 101.996 29.6141V28.7397C101.996 28.6646 101.964 28.6031 101.895 28.5553C101.827 28.5075 101.75 28.4824 101.66 28.4824H100.73C100.64 28.4824 100.563 28.5075 100.5 28.5553C100.437 28.6031 100.407 28.6646 100.407 28.7397V29.6141C100.407 29.6802 100.437 29.7394 100.5 29.7872C100.563 29.835 100.64 29.8601 100.73 29.8601H101.66Z" fill="#065463"/>
<path id="Vector_29" d="M104.166 29.8601C104.256 29.8601 104.33 29.835 104.387 29.7872C104.445 29.7394 104.475 29.6802 104.475 29.6141V28.7397C104.475 28.6646 104.445 28.6031 104.387 28.5553C104.327 28.5075 104.253 28.4824 104.166 28.4824H103.222C103.14 28.4824 103.066 28.5075 103 28.5553C102.932 28.6031 102.899 28.6646 102.899 28.7397V29.6141C102.899 29.6802 102.932 29.7394 103 29.7872C103.069 29.835 103.143 29.8601 103.222 29.8601H104.166Z" fill="#065463"/>
<path id="Vector_30" d="M109.242 27.9424H108.017C107.946 27.9424 107.883 27.9651 107.828 28.0107C107.773 28.0562 107.746 28.1109 107.746 28.1792V34.6712C107.746 34.8511 107.713 34.9558 107.645 34.99C107.576 35.0241 107.437 35.0401 107.221 35.0401H105.227V31.3512C105.227 31.292 105.213 31.2442 105.186 31.21C105.158 31.1759 105.096 31.1485 104.997 31.1258C104.879 31.103 104.737 31.0802 104.565 31.0597C104.395 31.0369 104.212 31.0165 104.021 30.9982C103.826 30.98 103.627 30.9664 103.422 30.9595C103.214 30.9527 103.017 30.9481 102.828 30.9481C102.306 30.9481 101.832 31.0028 101.408 31.1098C100.982 31.2191 100.615 31.3785 100.311 31.5857C100.005 31.7952 99.7699 32.0571 99.603 32.3713C99.4362 32.6856 99.3541 33.0476 99.3541 33.4598V33.6715C99.3541 33.9926 99.4006 34.2681 99.4964 34.4959C99.5894 34.7236 99.7234 34.9057 99.893 35.0401H97.4011C97.4175 35.0036 97.4339 34.9513 97.4476 34.883C97.4613 34.8146 97.4695 34.7418 97.475 34.6644C97.4804 34.5869 97.4832 34.5095 97.4886 34.4344C97.4941 34.3592 97.4941 34.2955 97.4941 34.2431V33.9972C97.4941 33.4438 97.4039 32.9748 97.2261 32.5899C97.0455 32.2051 96.7939 31.8954 96.4629 31.6586C96.1347 31.4241 95.738 31.2533 95.2703 31.1485C94.8026 31.0438 94.2829 30.9914 93.7085 30.9914C93.5553 30.9914 93.3583 30.9982 93.1149 31.0073C92.8715 31.0187 92.6143 31.0438 92.3408 31.0848C92.0673 31.1258 91.791 31.1872 91.512 31.2692C91.233 31.3512 90.9786 31.4605 90.7434 31.5948V28.1746C90.7434 28.1063 90.716 28.0517 90.6613 28.0061C90.6066 27.9606 90.5437 27.9378 90.4726 27.9378H89.2608C89.1897 27.9378 89.1268 27.9606 89.0721 28.0061C89.0174 28.0517 88.9901 28.1063 88.9901 28.1746V35.0355H82.1573C81.9056 35.0355 81.7169 35.0036 81.5911 34.9399C81.4652 34.8761 81.4023 34.7167 81.4023 34.464V28.1633C81.4023 28.1041 81.3804 28.0517 81.3339 28.0061C81.2902 27.9606 81.2218 27.9378 81.1315 27.9378H79.9335C79.8514 27.9378 79.7858 27.9606 79.7311 28.0061C79.6764 28.0517 79.649 28.1041 79.649 28.1633V34.8921C79.649 35.22 79.6955 35.4887 79.7912 35.6936C79.8842 35.8985 80.021 36.0602 80.1961 36.1763C80.3711 36.2925 80.5817 36.3699 80.8279 36.4109C81.0741 36.4519 81.3504 36.4724 81.6567 36.4724H106.89C107.068 36.4724 107.27 36.4724 107.489 36.4655C107.708 36.461 107.921 36.4542 108.129 36.4428C108.337 36.4314 108.526 36.4177 108.701 36.4041C108.876 36.3904 109.012 36.3699 109.111 36.3471C109.218 36.3107 109.291 36.2652 109.332 36.2128C109.374 36.1604 109.401 36.0967 109.42 36.0215C109.447 35.8188 109.464 35.598 109.475 35.3543C109.483 35.1107 109.488 34.8898 109.488 34.6871V28.1724C109.488 28.1041 109.464 28.0494 109.415 28.0039C109.365 27.9583 109.305 27.9355 109.234 27.9355M95.801 34.3319C95.801 34.6325 95.7763 34.8283 95.7271 34.9262C95.6779 35.0241 95.5958 35.072 95.4782 35.072H92.2998C91.9497 35.072 91.6542 35.072 91.4163 35.0674C91.1783 35.0629 90.9567 35.0583 90.7489 35.0515V32.8427C90.9184 32.7379 91.1181 32.6537 91.3424 32.5899C91.5667 32.5262 91.7992 32.4783 92.0372 32.4442C92.2752 32.41 92.5022 32.3873 92.7183 32.3759C92.9344 32.3645 93.1176 32.3599 93.2708 32.3599C93.7112 32.3599 94.0914 32.3895 94.4087 32.451C94.726 32.5102 94.9886 32.6127 95.1965 32.7539C95.4043 32.8951 95.5548 33.0818 95.656 33.3095C95.7545 33.5372 95.8037 33.8241 95.8037 34.168V34.3365L95.801 34.3319ZM103.534 35.0856H102.511C101.999 35.0856 101.627 34.9695 101.4 34.7372C101.17 34.505 101.055 34.1702 101.055 33.7285V33.5281C101.055 32.6605 101.589 32.2279 102.658 32.2279C102.973 32.2279 103.266 32.2393 103.534 32.262V35.0879V35.0856Z" fill="#065463"/>
<path id="Vector_31" d="M111.844 36.4743H113.055C113.135 36.4743 113.2 36.4516 113.249 36.4015C113.299 36.3536 113.323 36.299 113.323 36.2398V28.1675C113.323 28.1083 113.299 28.0559 113.249 28.0104C113.2 27.9648 113.135 27.9443 113.055 27.9443H111.844C111.761 27.9443 111.699 27.9671 111.649 28.0104C111.6 28.0559 111.575 28.1083 111.575 28.1675V36.2398C111.575 36.299 111.6 36.3536 111.649 36.4015C111.699 36.4493 111.764 36.4743 111.844 36.4743Z" fill="#065463"/>
<path id="Vector_32" d="M7.38234 42.3857H6.22531C6.05572 42.3857 5.96819 42.4563 5.96819 42.5998V48.4975C5.96819 48.5658 5.9463 48.5977 5.8998 48.5977C5.8533 48.5977 5.82048 48.5681 5.79313 48.5088L2.65574 42.7455C2.57368 42.5952 2.49162 42.4996 2.40682 42.4541C2.32203 42.4085 2.20715 42.388 2.06218 42.388H0.606996C0.453819 42.388 0.32526 42.4313 0.224054 42.5178C0.120113 42.6043 0.0681419 42.7114 0.0681419 42.8366V50.4945C0.0681419 50.5537 0.095495 50.6061 0.150201 50.6516C0.204907 50.6971 0.267819 50.7176 0.338937 50.7176H1.48503C1.55615 50.7176 1.61632 50.6949 1.66556 50.6516C1.71479 50.6061 1.73941 50.5537 1.73941 50.4945V44.8541C1.73941 44.7949 1.76129 44.763 1.80779 44.763C1.85429 44.763 1.89259 44.7926 1.92815 44.8541L4.91783 50.3146C5.02724 50.5172 5.1476 50.6334 5.2871 50.6675C5.4266 50.7017 5.57704 50.7176 5.73842 50.7176H7.09787C7.25104 50.7176 7.37687 50.6744 7.48081 50.5901C7.58475 50.5036 7.63672 50.3966 7.63672 50.2713V42.6021C7.63672 42.4609 7.55193 42.388 7.3796 42.388" fill="#065463"/>
<path id="Vector_33" d="M13.5504 50.6493C13.6051 50.6949 13.668 50.7154 13.7391 50.7154H14.8852C14.9564 50.7154 15.0193 50.6926 15.074 50.6493C15.1287 50.6038 15.1533 50.5514 15.1533 50.4922V46.4549C15.1533 45.7308 14.8989 45.1934 14.3929 44.8405C13.8841 44.4898 13.1511 44.3145 12.191 44.3145C11.7232 44.3145 11.2993 44.3327 10.919 44.3691C10.5361 44.4055 10.2106 44.4465 9.94255 44.4921C9.77022 44.5217 9.68543 44.5991 9.68543 44.7243V45.4348C9.68543 45.5168 9.70731 45.5691 9.75381 45.5919C9.80031 45.6147 9.85775 45.6261 9.92887 45.6261H9.99725C10.2215 45.6033 10.5361 45.5828 10.9409 45.5646C11.3458 45.5464 11.7615 45.5373 12.1937 45.5373C12.5985 45.5373 12.8967 45.5987 13.0909 45.7171C13.2851 45.8378 13.3808 46.0838 13.3808 46.4526V46.949H12.5329C11.9503 46.949 11.4497 46.99 11.0312 47.072C10.6127 47.154 10.2735 47.277 10.0082 47.4409C9.74287 47.6049 9.5514 47.8075 9.42831 48.0466C9.30796 48.2857 9.24504 48.5658 9.24504 48.8869V48.9324C9.24504 49.3127 9.31616 49.6224 9.45293 49.8637C9.59243 50.1028 9.77296 50.2941 9.99178 50.4353C10.2133 50.5765 10.4623 50.6744 10.7385 50.7267C11.0175 50.7791 11.2965 50.8042 11.5728 50.8042C11.8956 50.8042 12.2156 50.7609 12.5301 50.6744C12.8447 50.5878 13.1593 50.4672 13.4738 50.31V50.4899C13.4738 50.5491 13.5012 50.6015 13.5559 50.6471M13.3754 49.3149C13.1757 49.4038 12.9568 49.4789 12.7189 49.5381C12.4782 49.5996 12.2375 49.6292 11.994 49.6292C11.6521 49.6292 11.4032 49.5814 11.25 49.488C11.0968 49.3946 11.0203 49.2102 11.0203 48.9324V48.8869C11.0203 48.7297 11.0394 48.5908 11.0804 48.4724C11.1215 48.354 11.198 48.2538 11.3102 48.1764C11.4223 48.099 11.5755 48.0375 11.7697 47.9965C11.9639 47.9555 12.2128 47.935 12.5219 47.935H13.3754V49.3149Z" fill="#065463"/>
<path id="Vector_34" d="M17.4564 49.0233C17.4564 49.3967 17.4975 49.7019 17.5768 49.9364C17.6561 50.1732 17.7819 50.3531 17.9543 50.4806C18.1239 50.6081 18.3482 50.6947 18.6217 50.7379C18.8952 50.7835 19.2207 50.8062 19.5982 50.8062C19.7514 50.8062 19.9018 50.7994 20.0495 50.7835C20.1972 50.7675 20.3531 50.7493 20.5145 50.7265C20.6841 50.7038 20.7716 50.6355 20.7716 50.5239V49.818C20.7716 49.7064 20.6759 49.6495 20.4872 49.6495H19.7678C19.642 49.6495 19.5435 49.6427 19.4751 49.6335C19.4067 49.6222 19.3547 49.5948 19.3192 49.5493C19.2836 49.5038 19.2617 49.4423 19.2508 49.358C19.2426 49.276 19.2371 49.1645 19.2371 49.021V45.5006H20.4598C20.5309 45.5006 20.5966 45.4778 20.6513 45.4323C20.706 45.3868 20.7333 45.3344 20.7333 45.2752V44.6148C20.7333 44.5556 20.706 44.5033 20.6513 44.4577C20.5966 44.4122 20.5337 44.3894 20.4598 44.3894H19.2371V43.2349C19.2371 43.1233 19.166 43.0664 19.0238 43.0664H18.9691L17.7245 43.2463C17.6534 43.2622 17.5905 43.2873 17.5385 43.3237C17.4838 43.3602 17.4592 43.4102 17.4592 43.4695V44.3894H16.1927C16.1216 44.3894 16.0587 44.4122 16.004 44.4577C15.9493 44.5033 15.9247 44.5556 15.9247 44.6148V45.1181C15.9247 45.1796 15.952 45.2274 16.004 45.2638C16.0587 45.3002 16.1216 45.3276 16.1927 45.3412L17.4592 45.4983V49.0187L17.4564 49.0233Z" fill="#065463"/>
<path id="Vector_35" d="M23.5316 44.3926H22.2925C22.2214 44.3926 22.1584 44.4153 22.1037 44.4586C22.049 44.5042 22.0217 44.5565 22.0217 44.6157V50.4792C22.0217 50.5385 22.049 50.5931 22.1037 50.6409C22.1584 50.6887 22.2214 50.7138 22.2925 50.7138H23.5316C23.6027 50.7138 23.6656 50.691 23.7203 50.6409C23.775 50.5931 23.8024 50.5385 23.8024 50.4792V44.6157C23.8024 44.5565 23.775 44.5042 23.7203 44.4586C23.6656 44.4131 23.6027 44.3926 23.5316 44.3926Z" fill="#065463"/>
<path id="Vector_36" d="M23.5726 42.1152H22.2651C22.194 42.1152 22.1284 42.138 22.0709 42.1813C22.0135 42.2268 21.9834 42.2792 21.9834 42.3384V43.3244C21.9834 43.3859 22.0135 43.4359 22.0709 43.4815C22.1284 43.527 22.194 43.5475 22.2651 43.5475H23.5726C23.6437 43.5475 23.7066 43.5248 23.7613 43.4815C23.816 43.4359 23.8407 43.3836 23.8407 43.3244V42.3384C23.8407 42.2792 23.8133 42.2268 23.7613 42.1813C23.7066 42.1357 23.6437 42.1152 23.5726 42.1152Z" fill="#065463"/>
<path id="Vector_37" d="M26.1848 50.0101C26.4529 50.256 26.7893 50.4519 27.1887 50.593C27.588 50.7342 28.053 50.8071 28.5837 50.8071C29.1143 50.8071 29.5793 50.7365 29.9787 50.593C30.378 50.4519 30.7117 50.256 30.9825 50.0101C31.2533 49.7642 31.4557 49.4704 31.5953 49.1289C31.7348 48.7896 31.8031 48.4161 31.8031 48.0131V47.1045C31.8031 46.7015 31.732 46.3303 31.5953 45.9888C31.4557 45.6495 31.2506 45.3557 30.9825 45.1075C30.7145 44.8616 30.378 44.6681 29.9787 44.5246C29.5793 44.3834 29.1143 44.3105 28.5837 44.3105C28.053 44.3105 27.588 44.3811 27.1887 44.5246C26.7893 44.6681 26.4556 44.8616 26.1848 45.1075C25.914 45.3535 25.7116 45.6472 25.5721 45.9888C25.4326 46.3303 25.3642 46.7015 25.3642 47.1045V48.0131C25.3642 48.4161 25.4326 48.7873 25.5721 49.1289C25.7116 49.4704 25.914 49.7619 26.1848 50.0101ZM27.1422 47.1068C27.1422 46.6423 27.2625 46.2757 27.506 46.0024C27.7494 45.7292 28.1077 45.5926 28.5837 45.5926C29.0596 45.5926 29.418 45.7292 29.6614 46.0024C29.9048 46.2757 30.0252 46.6423 30.0252 47.1068V48.0154C30.0252 48.4799 29.9048 48.8465 29.6614 49.1198C29.418 49.393 29.0596 49.5296 28.5837 49.5296C28.1077 49.5296 27.7494 49.393 27.506 49.1198C27.2625 48.8488 27.1422 48.4799 27.1422 48.0154V47.1068Z" fill="#065463"/>
<path id="Vector_38" d="M37.2436 45.6303C37.3968 45.6713 37.5117 45.7373 37.5855 45.833C37.6621 45.9263 37.7114 46.0538 37.7332 46.2132C37.7551 46.3749 37.7661 46.5776 37.7661 46.8258V50.4805C37.7661 50.5397 37.7934 50.5944 37.8481 50.6422C37.9028 50.69 37.9657 50.715 38.0369 50.715H39.2759C39.3471 50.715 39.41 50.69 39.4647 50.6422C39.5194 50.5944 39.5467 50.5397 39.5467 50.4805V46.8258C39.5467 46.466 39.5139 46.1335 39.451 45.8284C39.3881 45.521 39.2732 45.2568 39.1091 45.0314C38.9422 44.8083 38.707 44.6329 38.4006 44.5054C38.0943 44.3779 37.7004 44.3164 37.2163 44.3164C36.992 44.3164 36.7896 44.3255 36.609 44.3437C36.4285 44.3619 36.2534 44.3916 36.0838 44.4348C35.9143 44.4758 35.7447 44.5305 35.5778 44.5965C35.411 44.6648 35.2304 44.7491 35.0335 44.8538V44.6193C35.0335 44.5601 35.0061 44.5077 34.9542 44.4621C34.8995 44.4166 34.8365 44.3961 34.7654 44.3961H33.5947C33.5236 44.3961 33.4607 44.4189 33.406 44.4621C33.3513 44.5077 33.3239 44.5601 33.3239 44.6193V50.4828C33.3239 50.542 33.3513 50.5966 33.406 50.6444C33.4607 50.6923 33.5236 50.7173 33.5947 50.7173H34.8338C34.9049 50.7173 34.9678 50.6923 35.0225 50.6444C35.0773 50.5966 35.1019 50.542 35.1019 50.4828V45.9741C35.3891 45.8466 35.6571 45.7487 35.9033 45.6758C36.1495 45.6052 36.3902 45.5688 36.6227 45.5688C36.8826 45.5688 37.0904 45.5893 37.2436 45.6303Z" fill="#065463"/>
<path id="Vector_39" d="M45.2444 50.4922C45.2444 50.5514 45.2718 50.6038 45.3265 50.6493C45.3812 50.6949 45.4413 50.7154 45.5152 50.7154H46.6613C46.7324 50.7154 46.7953 50.6926 46.85 50.6493C46.9047 50.6038 46.9293 50.5514 46.9293 50.4922V46.4549C46.9293 45.7308 46.675 45.1934 46.1689 44.8405C45.6602 44.4898 44.9271 44.3145 43.967 44.3145C43.4993 44.3145 43.0753 44.3327 42.6951 44.3691C42.3122 44.4055 41.9867 44.4465 41.7186 44.4921C41.549 44.5217 41.4615 44.5991 41.4615 44.7243V45.4348C41.4615 45.5168 41.4834 45.5691 41.5299 45.5919C41.5764 45.6147 41.6338 45.6261 41.7049 45.6261H41.7733C41.9976 45.6033 42.3122 45.5828 42.717 45.5646C43.1218 45.5464 43.5376 45.5373 43.9697 45.5373C44.3746 45.5373 44.6727 45.5987 44.8669 45.7171C45.0611 45.8378 45.1569 46.0838 45.1569 46.4526V46.949H44.3089C43.7263 46.949 43.2257 46.99 42.8072 47.072C42.3887 47.154 42.0468 47.277 41.7842 47.4409C41.5189 47.6049 41.3274 47.8075 41.2044 48.0466C41.084 48.2857 41.0211 48.5658 41.0211 48.8869V48.9324C41.0211 49.3127 41.0922 49.6224 41.229 49.8637C41.3685 50.1028 41.549 50.2941 41.7678 50.4353C41.9867 50.5765 42.2383 50.6744 42.5146 50.7267C42.7936 50.7791 43.0726 50.8042 43.3488 50.8042C43.6716 50.8042 43.9916 50.7609 44.3062 50.6744C44.6207 50.5878 44.9353 50.4672 45.2499 50.31V50.4899L45.2444 50.4922ZM45.1487 49.3149C44.949 49.4038 44.7302 49.4789 44.4922 49.5381C44.2515 49.5996 44.0108 49.6292 43.7673 49.6292C43.4254 49.6292 43.1765 49.5814 43.0233 49.488C42.8702 49.3946 42.7936 49.2102 42.7936 48.9324V48.8869C42.7936 48.7297 42.8127 48.5908 42.8537 48.4724C42.8948 48.354 42.9714 48.2538 43.0835 48.1764C43.1957 48.099 43.3488 48.0375 43.543 47.9965C43.7372 47.9555 43.9862 47.935 44.2952 47.935H45.1487V49.3149Z" fill="#065463"/>
<path id="Vector_40" d="M48.7456 42.1836C48.6745 42.1836 48.6116 42.2064 48.5568 42.2519C48.5021 42.2974 48.4748 42.3498 48.4748 42.409V50.4813C48.4748 50.5405 48.5021 50.5952 48.5568 50.643C48.6116 50.6908 48.6745 50.7159 48.7456 50.7159H49.9983C50.0695 50.7159 50.1296 50.6931 50.1789 50.643C50.2281 50.5952 50.2527 50.5405 50.2527 50.4813V42.409C50.2527 42.3498 50.2281 42.2974 50.1789 42.2519C50.1296 42.2064 50.0695 42.1836 49.9983 42.1836H48.7456Z" fill="#065463"/>
<path id="Vector_41" d="M56.2458 44.7291C56.3442 44.4604 56.4783 44.2464 56.6506 44.0847C56.8202 43.923 57.0253 43.8092 57.2633 43.7363C57.5013 43.6657 57.7639 43.6293 58.0511 43.6293C58.2316 43.6293 58.4203 43.6339 58.6173 43.6407C58.8142 43.6475 59.0084 43.6566 59.1972 43.6635C59.3859 43.6703 59.5637 43.6794 59.7305 43.6908C59.8974 43.7022 60.0369 43.7113 60.1545 43.7181H60.1819C60.2803 43.7181 60.3515 43.6953 60.3898 43.6521C60.4308 43.6065 60.4499 43.5496 60.4499 43.4836V42.7321C60.4499 42.6501 60.4226 42.5932 60.3679 42.5591C60.3132 42.5249 60.242 42.4976 60.1518 42.4748C60.0971 42.468 60.0068 42.452 59.8755 42.4293C59.7442 42.4065 59.5856 42.386 59.3968 42.3678C59.2081 42.3496 58.9975 42.3336 58.765 42.3177C58.5297 42.3018 58.2836 42.2949 58.0237 42.2949C57.6189 42.2949 57.1922 42.3427 56.7436 42.4361C56.295 42.5295 55.8847 42.7025 55.5154 42.9576C55.1462 43.2126 54.8371 43.561 54.5936 44.005C54.3502 44.4491 54.2271 45.0229 54.2271 45.7265V47.3751C54.2271 48.0696 54.3502 48.6389 54.5936 49.0807C54.8398 49.5224 55.1462 49.8708 55.5154 50.1281C55.8847 50.3854 56.295 50.5631 56.7436 50.661C57.1922 50.7589 57.6189 50.8067 58.0237 50.8067C58.2836 50.8067 58.5297 50.7999 58.765 50.7839C58.9975 50.768 59.2081 50.7521 59.3968 50.7338C59.5856 50.7156 59.7442 50.6974 59.8755 50.6769C60.0068 50.6587 60.0971 50.6428 60.1518 50.6268C60.242 50.604 60.3132 50.5767 60.3679 50.5426C60.4226 50.5084 60.4499 50.4515 60.4499 50.3695V49.6181C60.4499 49.552 60.428 49.4951 60.3898 49.4496C60.3487 49.404 60.2803 49.3812 60.1819 49.3812H60.1545C60.0369 49.3881 59.8974 49.3995 59.7305 49.4086C59.5637 49.4199 59.3859 49.4291 59.1972 49.4359C59.0084 49.4427 58.8142 49.4518 58.6173 49.4587C58.4203 49.4655 58.2316 49.47 58.0511 49.47C57.7639 49.47 57.5013 49.4359 57.2633 49.363C57.0253 49.2924 56.8202 49.174 56.6506 49.0101C56.4783 48.8461 56.3442 48.6275 56.2458 48.3588C56.1473 48.0901 56.0981 47.7599 56.0981 47.3728V45.7242C56.0981 45.328 56.1473 44.9956 56.2458 44.7269" fill="#065463"/>
<path id="Vector_42" d="M66.1394 50.7609C66.3336 50.745 66.5223 50.7267 66.711 50.704C66.8998 50.6812 67.1022 50.6516 67.3183 50.6129C67.4441 50.5969 67.5234 50.5673 67.5535 50.5241C67.5836 50.4785 67.6 50.4125 67.6 50.3214V49.5814C67.6 49.5222 67.5781 49.4789 67.5316 49.4516C67.4879 49.4265 67.4277 49.4129 67.3566 49.4129H67.3155C67.0283 49.4356 66.6673 49.4607 66.2324 49.4857C65.7974 49.5131 65.3324 49.5244 64.8373 49.5244C64.5146 49.5244 64.2465 49.4812 64.0359 49.3946C63.8253 49.3081 63.6584 49.1965 63.5381 49.0576C63.4177 48.9187 63.3329 48.7662 63.2892 48.5977C63.2454 48.4292 63.2208 48.2629 63.2208 48.099V48.0648H67.6C67.7778 48.0648 67.8681 47.9715 67.8681 47.7847V47.1563C67.8681 46.7373 67.7997 46.3547 67.6602 46.0063C67.5207 45.6579 67.3183 45.3574 67.0475 45.1023C66.7794 44.8496 66.4457 44.6515 66.0464 44.5148C65.647 44.3782 65.1875 44.3076 64.6678 44.3076C64.1481 44.3076 63.6995 44.3759 63.2974 44.5103C62.8953 44.6446 62.5561 44.8359 62.2826 45.0818C62.009 45.3278 61.8012 45.6283 61.6562 45.979C61.514 46.3297 61.4401 46.7236 61.4401 47.1563V47.9874C61.4401 48.5407 61.5468 48.9984 61.7574 49.3605C61.968 49.7225 62.2361 50.0117 62.5588 50.2235C62.8816 50.4376 63.2345 50.5856 63.6174 50.6721C63.9976 50.7586 64.3614 50.8019 64.7006 50.8019C65.0042 50.8019 65.2723 50.7973 65.502 50.7905C65.7318 50.7837 65.9424 50.7723 66.1339 50.7563M63.2372 46.9695C63.2372 46.5209 63.3712 46.1794 63.642 45.9448C63.9101 45.7103 64.2575 45.5919 64.6787 45.5919C65.0999 45.5919 65.4419 45.7103 65.7017 45.9494C65.9616 46.1885 66.0929 46.5278 66.0929 46.9695V47.0151H63.2372V46.9695Z" fill="#065463"/>
<path id="Vector_43" d="M75.546 50.6425C75.6008 50.5947 75.6254 50.54 75.6254 50.4808V46.8261C75.6254 46.4663 75.5953 46.1338 75.5324 45.8287C75.4695 45.5213 75.3546 45.2572 75.1877 45.0317C75.0209 44.8086 74.7856 44.631 74.4793 44.5057C74.1729 44.3782 73.779 44.3145 73.2949 44.3145C73.0706 44.3145 72.8682 44.3236 72.6877 44.3418C72.5071 44.36 72.3321 44.3896 72.1625 44.4329C71.9929 44.4738 71.8233 44.5285 71.6564 44.5945C71.4896 44.6628 71.3091 44.7494 71.1121 44.8518V44.6173C71.1121 44.5581 71.0848 44.5057 71.0328 44.4602C70.9781 44.4146 70.9152 44.3941 70.8441 44.3941H69.6734C69.6022 44.3941 69.5393 44.4169 69.4846 44.4602C69.4299 44.5057 69.4026 44.5581 69.4026 44.6173V50.4808C69.4026 50.54 69.4299 50.5947 69.4846 50.6425C69.5393 50.6903 69.6022 50.7154 69.6734 50.7154H70.9124C70.9836 50.7154 71.0465 50.6903 71.1012 50.6425C71.1559 50.5947 71.1805 50.54 71.1805 50.4808V45.9722C71.4677 45.8447 71.7358 45.7467 71.9819 45.6739C72.2281 45.6033 72.4688 45.5669 72.7013 45.5669C72.9612 45.5669 73.1691 45.5873 73.3222 45.6283C73.4754 45.6693 73.5903 45.7354 73.6642 45.831C73.7407 45.9244 73.79 46.0519 73.8119 46.2113C73.8337 46.3729 73.8447 46.5756 73.8447 46.8238V50.4785C73.8447 50.5377 73.872 50.5924 73.9267 50.6402C73.9815 50.688 74.0444 50.7131 74.1155 50.7131H75.3546C75.4257 50.7131 75.4886 50.688 75.5433 50.6402" fill="#065463"/>
<path id="Vector_44" d="M76.5828 44.46C76.528 44.5055 76.5034 44.5579 76.5034 44.6171V45.1226C76.5034 45.1818 76.5308 45.2319 76.5828 45.2684C76.6375 45.3048 76.7004 45.3321 76.7715 45.3458L78.0379 45.5029V49.0233C78.0379 49.3967 78.079 49.7019 78.1583 49.9364C78.2376 50.1709 78.3634 50.3531 78.5358 50.4806C78.7053 50.6081 78.9296 50.6947 79.2032 50.7379C79.4767 50.7835 79.8022 50.804 80.1797 50.804C80.3328 50.804 80.4833 50.7971 80.631 50.7812C80.7787 50.7653 80.9346 50.747 81.096 50.7243C81.2656 50.7015 81.3531 50.6355 81.3531 50.5216V49.8157C81.3531 49.7041 81.2574 49.6472 81.0686 49.6472H80.3493C80.2234 49.6472 80.125 49.6404 80.0566 49.629C79.9882 49.6176 79.9362 49.5903 79.9007 49.5447C79.8651 49.4992 79.8405 49.4377 79.8323 49.3557C79.8241 49.2738 79.8186 49.1622 79.8186 49.0187V45.4983H81.0413C81.1124 45.4983 81.1781 45.4756 81.2328 45.4323C81.2875 45.3868 81.3148 45.3344 81.3148 45.2752V44.6126C81.3148 44.5534 81.2875 44.501 81.2328 44.4554C81.1781 44.4099 81.1151 44.3894 81.0413 44.3894H79.8186V43.2349C79.8186 43.1233 79.7475 43.0664 79.6053 43.0664H79.5505L78.306 43.2463C78.2349 43.2622 78.172 43.2873 78.12 43.3237C78.0653 43.3602 78.0407 43.4102 78.0407 43.4695V44.3894H76.7742C76.7031 44.3894 76.6402 44.4122 76.5855 44.4554" fill="#065463"/>
<path id="Vector_45" d="M83.4538 50.2281C83.7766 50.4421 84.1294 50.5901 84.5124 50.6766C84.8926 50.7632 85.2564 50.8064 85.5956 50.8064C85.8992 50.8064 86.1672 50.8019 86.397 50.7951C86.6268 50.7882 86.8374 50.7768 87.0289 50.7609C87.2231 50.745 87.4118 50.7267 87.6005 50.704C87.7893 50.6812 87.9917 50.6516 88.2078 50.6129C88.3336 50.5969 88.4129 50.5673 88.443 50.5241C88.4731 50.4785 88.4895 50.4125 88.4895 50.3214V49.5814C88.4895 49.5222 88.4676 49.4789 88.4211 49.4516C88.3774 49.4265 88.3172 49.4129 88.2461 49.4129H88.205C87.9178 49.4356 87.5568 49.4607 87.1219 49.4857C86.6869 49.5131 86.2219 49.5244 85.7269 49.5244C85.4041 49.5244 85.136 49.4812 84.9254 49.3946C84.7148 49.3081 84.5479 49.1965 84.4276 49.0576C84.3072 48.9187 84.2224 48.7662 84.1787 48.5977C84.1349 48.4292 84.1103 48.2629 84.1103 48.099V48.0648H88.4895C88.6673 48.0648 88.7576 47.9715 88.7576 47.7847V47.1563C88.7576 46.7373 88.6892 46.3547 88.5497 46.0063C88.4102 45.6579 88.2078 45.3574 87.9397 45.1023C87.6689 44.8496 87.3352 44.6515 86.9386 44.5148C86.5392 44.3759 86.0797 44.3076 85.56 44.3076C85.0403 44.3076 84.5917 44.3759 84.1896 44.5103C83.7848 44.6446 83.4483 44.8359 83.1748 45.0818C82.9013 45.3278 82.6934 45.6283 82.5484 45.979C82.4035 46.3297 82.3323 46.7236 82.3323 47.1563V47.9874C82.3323 48.5407 82.4363 48.9984 82.6496 49.3605C82.8603 49.7225 83.1283 50.0117 83.4511 50.2235M84.1267 46.9695C84.1267 46.5209 84.2607 46.1794 84.5315 45.9448C84.7996 45.7103 85.147 45.5919 85.5682 45.5919C85.9894 45.5919 86.3314 45.7103 86.5912 45.9494C86.8511 46.1885 86.9824 46.5278 86.9824 46.9695V47.0151H84.1267V46.9695Z" fill="#065463"/>
<path id="Vector_46" d="M91.9934 50.6428C92.0481 50.595 92.0727 50.5404 92.0727 50.4812V45.9725C92.36 45.845 92.6499 45.7471 92.9426 45.6742C93.2353 45.6036 93.5635 45.5672 93.9328 45.5672C94.0039 45.5672 94.0668 45.5444 94.1215 45.4989C94.1762 45.4533 94.2008 45.4032 94.2008 45.3417V44.5357C94.2008 44.4765 94.1735 44.4241 94.1215 44.3785C94.0668 44.333 94.0039 44.3125 93.9328 44.3125C93.662 44.3125 93.3583 44.3489 93.0164 44.4195C92.6745 44.4901 92.3381 44.6358 92.0071 44.8522V44.6176C92.0071 44.5584 91.9798 44.5061 91.925 44.4605C91.8703 44.415 91.8074 44.3945 91.7363 44.3945H90.5656C90.4945 44.3945 90.4316 44.4172 90.3769 44.4605C90.3222 44.5061 90.2975 44.5584 90.2975 44.6176V50.4812C90.2975 50.5404 90.3249 50.595 90.3769 50.6428C90.4316 50.6906 90.4945 50.7157 90.5656 50.7157H91.8047C91.8758 50.7157 91.9387 50.6906 91.9934 50.6428Z" fill="#065463"/>
<path id="Vector_47" d="M49.1477 16.9528H50.198C50.2883 16.9528 50.3621 16.9301 50.4196 16.88C50.477 16.8322 50.5071 16.7729 50.5071 16.7069V15.8325C50.5071 15.7574 50.477 15.6959 50.4196 15.6481C50.3621 15.6002 50.291 15.5752 50.2117 15.5752H49.1477C49.0574 15.5752 48.9808 15.6002 48.9179 15.6481C48.855 15.6959 48.8249 15.7574 48.8249 15.8325V16.7069C48.8249 16.7729 48.8523 16.8322 48.9124 16.88C48.9699 16.9278 49.0492 16.9528 49.1477 16.9528Z" fill="#065463"/>
<path id="Vector_48" d="M66.1585 23.0189H67.1405V23.3559C67.1405 23.5723 67.0967 23.7476 67.0064 23.8819C66.9162 24.0163 66.7794 24.1233 66.5961 24.2007C66.4129 24.2782 66.1886 24.3328 65.9233 24.3647C65.6579 24.3943 65.3516 24.4102 65.0015 24.4102H63.7761C63.6147 24.4102 63.5326 24.474 63.5326 24.6015V25.419C63.5326 25.4782 63.5463 25.526 63.5736 25.5579C63.601 25.592 63.6584 25.6171 63.7487 25.6308C63.8034 25.6467 63.9019 25.6558 64.0441 25.6581C64.1863 25.6626 64.345 25.6672 64.5146 25.6763C64.6842 25.6831 64.8483 25.6877 65.0069 25.6877H65.3653C65.8248 25.6877 66.2542 25.6535 66.6591 25.5875C67.0639 25.5214 67.4167 25.403 67.7231 25.2345C68.0294 25.066 68.2784 24.8338 68.4698 24.54C68.664 24.244 68.7817 23.8637 68.8282 23.4015V23.0189H70.1329C70.3134 23.0189 70.5131 23.0189 70.7319 23.0121C70.9535 23.0075 71.1641 23.0007 71.372 22.9893C71.5771 22.9779 71.7686 22.9665 71.9437 22.9506C72.1187 22.9369 72.2555 22.9165 72.354 22.8937C72.4634 22.8572 72.5345 22.8117 72.5755 22.7593C72.6165 22.707 72.6439 22.6432 72.663 22.5681C72.6904 22.3654 72.7068 22.1445 72.7178 21.9009C72.726 21.6572 72.7314 21.4363 72.7314 21.2337V14.7189C72.7314 14.6529 72.7068 14.596 72.6576 14.5504C72.6083 14.5049 72.5482 14.4844 72.477 14.4844H71.2516C71.1805 14.4844 71.1176 14.5071 71.0629 14.5504C71.0082 14.596 70.9808 14.6506 70.9808 14.7189V21.2109C70.9808 21.3908 70.948 21.4978 70.8796 21.5297C70.8113 21.5639 70.6717 21.5798 70.4557 21.5798H68.8528V17.9569C68.8528 17.8977 68.8364 17.8545 68.8063 17.8271C68.7762 17.8021 68.7133 17.7725 68.6257 17.7429C68.5273 17.7133 68.4014 17.686 68.2483 17.6655C68.0951 17.6427 67.9282 17.6245 67.7504 17.6085C67.5699 17.5926 67.3839 17.5812 67.1924 17.5698C66.9982 17.5585 66.8177 17.5539 66.6481 17.5539C65.4911 17.5539 64.5994 17.7953 63.9757 18.278C63.3521 18.7608 63.0403 19.4416 63.0403 20.3251V20.5506C63.0403 21.3658 63.3165 21.9806 63.8691 22.395C64.4216 22.8094 65.1875 23.0166 66.1667 23.0166M64.7307 20.2272C64.7307 19.7946 64.8729 19.4575 65.1546 19.2185C65.4364 18.9794 65.8357 18.8587 66.3472 18.8587C66.6344 18.8587 66.908 18.8701 67.1678 18.8928V21.6276H66.1585C65.6552 21.6276 65.2914 21.5251 65.0671 21.3202C64.8428 21.1153 64.7307 20.7988 64.7307 20.3729V20.2272Z" fill="#065463"/>
<path id="Vector_49" d="M75.0728 23.0193H76.2846C76.3667 23.0193 76.4296 22.9942 76.4788 22.9464C76.528 22.8986 76.5526 22.8439 76.5526 22.7847V14.7124C76.5526 14.6532 76.528 14.6008 76.4788 14.5553C76.4296 14.5098 76.3639 14.4893 76.2846 14.4893H75.0728C74.9935 14.4893 74.9279 14.512 74.8786 14.5553C74.8294 14.6008 74.8048 14.6532 74.8048 14.7124V22.7847C74.8048 22.8439 74.8294 22.8986 74.8786 22.9464C74.9279 22.9942 74.9935 23.0193 75.0728 23.0193Z" fill="#065463"/>
<path id="Vector_50" d="M39.5577 26.0568H40.474C40.5451 26.0568 40.6135 26.034 40.6764 25.9884C40.7394 25.9429 40.7722 25.8905 40.7722 25.8313V25.0343C40.7722 24.9592 40.7394 24.9023 40.6764 24.8613C40.6135 24.8203 40.5479 24.7998 40.474 24.7998H39.5577C39.4866 24.7998 39.4182 24.8203 39.3553 24.8613C39.2924 24.9023 39.2623 24.9592 39.2623 25.0343V25.8313C39.2623 25.8905 39.2924 25.9429 39.3553 25.9884C39.4182 26.034 39.4838 26.0568 39.5577 26.0568Z" fill="#065463"/>
<path id="Vector_51" d="M35.9936 23.1233C36.3382 23.4194 36.7868 23.6425 37.3339 23.7974C37.8809 23.9499 38.5402 24.0274 39.3142 24.0274C39.8093 24.0274 40.2853 24.0114 40.7475 23.9818C41.2098 23.9522 41.6283 23.9112 42.0058 23.8588C42.2027 23.8292 42.3012 23.7473 42.3012 23.6129C42.3203 23.3511 42.3559 20.9009 42.3559 20.9009C42.3559 20.4068 42.4845 20.0652 42.747 19.8762C43.0069 19.6849 43.3926 19.5893 43.9041 19.5893C44.0299 19.5893 44.1366 19.5938 44.2268 19.6007C44.3171 19.6075 44.4293 19.6189 44.5633 19.6348V21.6091C44.5633 21.9005 44.6043 22.1374 44.6864 22.3218C44.7657 22.504 44.8861 22.6497 45.042 22.7522C45.1979 22.8569 45.3948 22.9275 45.6273 22.9662C45.8598 23.0027 46.1334 23.0232 46.4479 23.0232H47.78C47.9222 23.0232 48.0782 23.0163 48.245 23.0072C48.4119 22.9958 48.576 22.9753 48.7428 22.9457C48.9097 22.9161 49.0683 22.8774 49.2215 22.8273C49.3747 22.7795 49.5142 22.718 49.64 22.6429C49.8725 22.8 50.1652 22.9025 50.5153 22.9503C50.8654 22.9981 51.076 23.0232 51.418 23.0232H58.3684C58.6829 23.0232 59.0057 23.0186 59.3367 23.0118C59.6676 23.0049 59.9795 22.9981 60.2667 22.9936C60.5539 22.989 60.7617 22.9799 60.8848 22.9662C61.0271 22.9503 61.131 22.9116 61.1939 22.8478C61.2568 22.7841 61.2979 22.7157 61.3143 22.6406C61.3772 22.4174 61.4237 22.1487 61.4565 21.8391C61.4866 21.5294 61.503 21.2516 61.503 21.0034V20.5434C61.503 19.9901 61.4127 19.521 61.235 19.1362C61.0544 18.7513 60.8 18.4416 60.4745 18.2048C60.1463 17.9703 59.7497 17.7995 59.2819 17.6948C58.8142 17.59 58.2945 17.5376 57.7201 17.5376C57.5669 17.5376 57.37 17.5422 57.1265 17.5536C56.8831 17.565 56.626 17.59 56.3524 17.631C56.0789 17.672 55.8026 17.7335 55.5236 17.8154C55.2446 17.8974 54.9903 18.0067 54.755 18.1411V14.7209C54.755 14.6548 54.7277 14.5979 54.6757 14.5524C54.621 14.5068 54.5581 14.4863 54.487 14.4863H53.2616C53.1904 14.4863 53.1275 14.5091 53.0783 14.5524C53.029 14.5979 53.0044 14.6526 53.0044 14.7209V21.584H51.2538C51.1909 21.584 51.1171 21.584 51.0323 21.5772C50.9475 21.5726 50.86 21.5635 50.7697 21.5499C50.6794 21.5362 50.7341 21.5157 50.663 21.4884C50.5919 21.4611 50.5427 21.4292 50.5153 21.3928V18.4098C50.5153 18.3506 50.4907 18.3005 50.4415 18.2595C50.3922 18.2185 50.332 18.198 50.2609 18.198H49.0902C49.0082 18.198 48.9452 18.2185 48.896 18.2595C48.8468 18.3005 48.8222 18.3506 48.8222 18.4098V21.2015C48.8222 21.2903 48.7948 21.3609 48.7401 21.4087C48.6854 21.4565 48.6197 21.4952 48.5459 21.5203C48.4693 21.5453 48.3872 21.5635 48.297 21.5704C48.2067 21.5772 48.1219 21.5818 48.0399 21.5818H47.5147H46.8938C46.6613 21.5818 46.4999 21.559 46.4096 21.5089C46.3194 21.4611 46.2756 21.354 46.2756 21.1901V18.6443C46.2756 18.5692 46.2564 18.5168 46.2154 18.4872C46.1744 18.4576 46.1197 18.4348 46.0486 18.4211C45.8161 18.3847 45.5234 18.3506 45.1733 18.321C44.8231 18.2914 44.4676 18.2754 44.1092 18.2754C42.996 18.2754 42.1398 18.4781 41.5435 18.8811C40.9472 19.2842 40.6463 19.9126 40.6463 20.7643V20.8531C40.6463 21.0034 40.6162 22.3696 40.6053 22.5563C40.4166 22.5791 40.2224 22.5951 40.02 22.6064C39.8175 22.6178 39.596 22.6247 39.3525 22.6247C38.7508 22.6247 38.2721 22.5563 37.911 22.4174C37.5527 22.2785 37.2792 22.0895 37.0904 21.8459C36.9017 21.6022 36.7786 21.3153 36.7212 20.9829C36.6637 20.6504 36.6336 20.2906 36.6336 19.9013C36.6336 19.7965 36.6419 19.6599 36.6555 19.4914C36.6692 19.3229 36.6829 19.1566 36.702 18.9927C36.7212 18.8492 36.6446 18.7786 36.4723 18.7786H35.4356C35.2824 18.7786 35.1921 18.8538 35.1648 19.0018C35.1374 19.1202 35.1128 19.25 35.0909 19.3889C35.0691 19.5278 35.0499 19.6644 35.0362 19.7988C35.0226 19.9331 35.0116 20.0607 35.0034 20.1813C34.9952 20.302 34.9897 20.4022 34.9897 20.4842C34.9897 21.0671 35.0691 21.5795 35.2332 22.0212C35.3946 22.4607 35.6489 22.8296 35.9936 23.1256M54.7632 19.3866C54.9328 19.2819 55.1298 19.1976 55.3568 19.1339C55.5811 19.0701 55.8136 19.0223 56.0516 18.9881C56.2895 18.954 56.5166 18.9312 56.7326 18.9198C56.9487 18.9084 57.132 18.9039 57.2852 18.9039C57.7256 18.9039 58.103 18.9335 58.4231 18.9927C58.7404 19.0519 59.0029 19.1544 59.2108 19.2956C59.4187 19.4367 59.5692 19.6235 59.6704 19.8512C59.7688 20.0789 59.8181 20.3658 59.8181 20.7096V20.8781C59.8181 21.1855 59.7989 21.3859 59.7579 21.4793C59.7169 21.5726 59.6375 21.6182 59.5227 21.6182H56.3853C56.0351 21.6182 55.7288 21.6182 55.4689 21.6114C55.2091 21.6068 54.9738 21.6022 54.7687 21.5954V19.3866H54.7632Z" fill="#065463"/>
<path id="Vector_52" d="M37.0658 24.8027C36.9865 24.8027 36.9127 24.8232 36.8497 24.8642C36.7868 24.9052 36.7567 24.9644 36.7567 25.0373V25.8343C36.7567 25.8935 36.7896 25.9458 36.8497 25.9914C36.9127 26.0369 36.9838 26.0597 37.0658 26.0597H37.9685C38.0396 26.0597 38.1107 26.0369 38.1764 25.9914C38.2447 25.9458 38.2776 25.8935 38.2776 25.8343V25.0373C38.2776 24.9621 38.2475 24.9052 38.1846 24.8642C38.1217 24.8232 38.0505 24.8027 37.9685 24.8027H37.0658Z" fill="#065463"/>
<path id="Vector_53" d="M101.605 42.1991C101.551 42.1741 101.499 42.1536 101.444 42.1376C101.318 42.1149 101.192 42.0944 101.066 42.0762C100.941 42.0579 100.798 42.0488 100.634 42.0488C100.284 42.0488 99.9668 42.0762 99.6769 42.1263C99.3897 42.1786 99.1462 42.272 98.9438 42.4063C98.7414 42.5407 98.5855 42.7251 98.4734 42.9551C98.3612 43.1874 98.3038 43.4811 98.3038 43.8409V44.3897H97.1057C97.0346 44.3897 96.9717 44.4125 96.917 44.4557C96.8623 44.5013 96.8349 44.5536 96.8349 44.6128V45.1297C96.8349 45.1889 96.8623 45.2368 96.917 45.2709C96.9717 45.3051 97.0346 45.3278 97.1057 45.3438L98.3038 45.5009V50.4786C98.3038 50.5378 98.3338 50.5925 98.3913 50.6403C98.4487 50.6881 98.5144 50.7132 98.5855 50.7132H99.8109C99.882 50.7132 99.9449 50.6904 99.9996 50.6403C100.054 50.5925 100.082 50.5378 100.082 50.4786V45.5009H101.376C101.447 45.5009 101.51 45.4804 101.564 45.4394C101.619 45.3984 101.644 45.3483 101.644 45.2891V44.6151C101.644 44.5559 101.616 44.5035 101.564 44.458C101.512 44.4125 101.447 44.392 101.376 44.392H100.082V43.8432C100.082 43.5677 100.134 43.3855 100.238 43.299C100.342 43.2124 100.555 43.1692 100.878 43.1692H101.485C101.529 43.1692 101.575 43.1532 101.619 43.1236C101.663 43.094 101.687 43.0462 101.687 42.9779V42.3153C101.687 42.2629 101.66 42.2242 101.605 42.1968" fill="#065463"/>
<path id="Vector_54" d="M107.883 45.1095C107.615 44.8636 107.278 44.6677 106.879 44.5265C106.48 44.3854 106.015 44.3125 105.484 44.3125C104.953 44.3125 104.488 44.3831 104.089 44.5265C103.69 44.6677 103.356 44.8636 103.085 45.1095C102.814 45.3554 102.612 45.6492 102.472 45.9907C102.333 46.33 102.264 46.7034 102.264 47.1065V48.0151C102.264 48.4181 102.333 48.7915 102.472 49.1308C102.612 49.4701 102.817 49.7639 103.085 50.0121C103.353 50.258 103.69 50.4538 104.089 50.595C104.488 50.7362 104.953 50.809 105.484 50.809C106.015 50.809 106.48 50.7385 106.879 50.595C107.278 50.4538 107.612 50.258 107.883 50.0121C108.154 49.7661 108.356 49.4724 108.496 49.1308C108.635 48.7915 108.703 48.4181 108.703 48.0151V47.1065C108.703 46.7034 108.632 46.3323 108.496 45.9907C108.356 45.6514 108.151 45.3577 107.883 45.1095ZM106.925 48.0128C106.925 48.4773 106.805 48.8439 106.562 49.1172C106.318 49.3904 105.96 49.527 105.484 49.527C105.008 49.527 104.65 49.3904 104.406 49.1172C104.163 48.8439 104.042 48.4773 104.042 48.0128V47.1042C104.042 46.642 104.163 46.2731 104.406 45.9998C104.65 45.7266 105.008 45.5899 105.484 45.5899C105.96 45.5899 106.318 45.7266 106.562 45.9998C106.805 46.2731 106.925 46.6397 106.925 47.1042V48.0128Z" fill="#065463"/>
<path id="Vector_55" d="M114.051 44.3805C113.996 44.3349 113.933 44.3145 113.862 44.3145C113.591 44.3145 113.288 44.3486 112.946 44.4215C112.604 44.4921 112.267 44.6355 111.937 44.8518V44.6173C111.937 44.5581 111.909 44.5057 111.857 44.4602C111.802 44.4146 111.74 44.3941 111.668 44.3941H110.498C110.427 44.3941 110.364 44.4169 110.309 44.4602C110.254 44.5057 110.227 44.5581 110.227 44.6173V50.4808C110.227 50.54 110.254 50.5947 110.309 50.6448C110.364 50.6926 110.427 50.7176 110.498 50.7176H111.737C111.808 50.7176 111.871 50.6926 111.926 50.6448C111.98 50.597 112.005 50.5423 112.005 50.4808V45.9745C112.292 45.8469 112.582 45.749 112.875 45.6762C113.167 45.6056 113.496 45.5691 113.865 45.5691C113.936 45.5691 113.999 45.5464 114.054 45.5031C114.108 45.4576 114.133 45.4052 114.133 45.346V44.5376C114.133 44.4784 114.106 44.426 114.054 44.3805" fill="#065463"/>
<path id="Vector_56" d="M7.31395 55.5039H6.15692C5.98733 55.5039 5.8998 55.5745 5.8998 55.718V61.6156C5.8998 61.6839 5.87792 61.7158 5.83142 61.7158C5.78492 61.7158 5.7521 61.6862 5.72474 61.627L2.58735 55.8637C2.50529 55.7157 2.42323 55.6178 2.33844 55.5722C2.25364 55.5267 2.13876 55.5062 1.99379 55.5062H0.53861C0.385433 55.5062 0.256874 55.5494 0.155668 55.636C0.0517266 55.7225 -0.000244141 55.8295 -0.000244141 55.9548V63.6126C-0.000244141 63.6718 0.0271089 63.7242 0.0818149 63.7698C0.136521 63.8153 0.199433 63.8381 0.270551 63.8381H1.41664C1.48776 63.8381 1.54794 63.8153 1.59717 63.7698C1.64641 63.7242 1.67103 63.6718 1.67103 63.6126V57.9723C1.67103 57.9131 1.69291 57.8835 1.73941 57.8835C1.78591 57.8835 1.8242 57.9131 1.85976 57.9723L4.84945 63.4327C4.95886 63.6354 5.07921 63.7515 5.21871 63.7857C5.35821 63.8199 5.50865 63.8358 5.67004 63.8358H7.02948C7.18266 63.8358 7.30848 63.7925 7.41242 63.706C7.51636 63.6195 7.56834 63.5124 7.56834 63.3872V55.718C7.56834 55.5768 7.48354 55.5039 7.31122 55.5039" fill="#065463"/>
<path id="Vector_57" d="M14.8415 58.2276C14.5734 57.9817 14.237 57.7859 13.8376 57.6447C13.4383 57.5035 12.9733 57.4307 12.4426 57.4307C11.912 57.4307 11.447 57.5013 11.0476 57.6447C10.6483 57.7882 10.3146 57.9817 10.0438 58.2276C9.77297 58.4736 9.57055 58.7673 9.43105 59.1066C9.29155 59.4482 9.22317 59.8193 9.22317 60.2224V61.1309C9.22317 61.534 9.29155 61.9052 9.43105 62.2467C9.57055 62.5883 9.7757 62.8798 10.0438 63.128C10.3118 63.3739 10.6483 63.5697 11.0476 63.7109C11.447 63.8521 11.912 63.9249 12.4426 63.9249C12.9733 63.9249 13.4383 63.8543 13.8376 63.7109C14.237 63.5697 14.5707 63.3739 14.8415 63.128C15.1123 62.882 15.3147 62.5883 15.4542 62.2467C15.5937 61.9074 15.6621 61.534 15.6621 61.1309V60.2224C15.6621 59.8193 15.591 59.4482 15.4542 59.1066C15.3147 58.7673 15.1123 58.4736 14.8415 58.2276ZM13.8869 61.1332C13.8869 61.5977 13.7665 61.9644 13.5231 62.2376C13.2796 62.5109 12.9213 62.6475 12.4454 62.6475C11.9694 62.6475 11.6111 62.5109 11.3676 62.2376C11.1242 61.9644 11.0039 61.5977 11.0039 61.1332V60.2247C11.0039 59.7601 11.1242 59.3935 11.3676 59.1203C11.6111 58.847 11.9694 58.7104 12.4454 58.7104C12.9213 58.7104 13.2796 58.847 13.5231 59.1203C13.7665 59.3935 13.8869 59.7601 13.8869 60.2247V61.1332Z" fill="#065463"/>
<path id="Vector_58" d="M22.9708 58.1499C22.804 57.9245 22.5687 57.7491 22.2624 57.6239C21.956 57.4964 21.5621 57.4326 21.078 57.4326C20.8537 57.4326 20.6513 57.4417 20.4708 57.4599C20.2902 57.4782 20.1152 57.5078 19.9456 57.5487C19.776 57.5897 19.6064 57.6444 19.4395 57.7104C19.2727 57.7787 19.0922 57.863 18.8952 57.9677V57.7332C18.8952 57.674 18.8679 57.6216 18.8159 57.5761C18.7612 57.5305 18.6983 57.5078 18.6272 57.5078H17.4564C17.3853 57.5078 17.3224 57.5305 17.2677 57.5761C17.213 57.6216 17.1857 57.674 17.1857 57.7332V63.5967C17.1857 63.6559 17.213 63.7106 17.2677 63.7584C17.3224 63.8062 17.3853 63.8312 17.4564 63.8312H18.6955C18.7667 63.8312 18.8296 63.8062 18.8843 63.7584C18.939 63.7106 18.9636 63.6559 18.9636 63.5967V59.0881C19.2508 58.9605 19.5189 58.8626 19.765 58.792C20.0112 58.7214 20.2519 58.685 20.4844 58.685C20.7443 58.685 20.9522 58.7055 21.1053 58.7465C21.2585 58.7875 21.3734 58.8558 21.45 58.9492C21.5266 59.0425 21.5758 59.17 21.5977 59.3294C21.6196 59.4911 21.6305 59.6938 21.6305 59.9397V63.5944C21.6305 63.6536 21.6579 63.7083 21.7126 63.7561C21.7673 63.8039 21.8302 63.829 21.9013 63.829H23.1404C23.2115 63.829 23.2744 63.8039 23.3291 63.7561C23.3838 63.7083 23.4085 63.6536 23.4085 63.5944V59.9397C23.4085 59.5799 23.3784 59.2475 23.3155 58.9423C23.2526 58.6349 23.1377 58.3708 22.9708 58.1453" fill="#065463"/>
<path id="Vector_59" d="M33.923 59.8187H25.6733C25.5995 59.8187 25.5393 59.8392 25.4846 59.8802C25.4299 59.9212 25.4053 59.9712 25.4053 60.0305V60.8479C25.4053 60.9071 25.4326 60.9572 25.4846 60.9937C25.5393 61.0301 25.6022 61.0506 25.6733 61.0506H33.923C34.0926 61.0506 34.1801 60.9823 34.1801 60.8479V60.0305C34.1801 59.8893 34.0953 59.8164 33.923 59.8164" fill="#065463"/>
<path id="Vector_60" d="M42.5091 55.9619C42.1535 55.7592 41.7432 55.618 41.2755 55.5361C40.8077 55.4541 40.3126 55.4131 39.7902 55.4131C39.2951 55.4131 38.4143 55.4267 37.9548 55.4518C37.4953 55.4768 37.0905 55.5133 36.7403 55.5588C36.6063 55.5748 36.4996 55.6066 36.423 55.6545C36.3464 55.7023 36.3082 55.7843 36.3082 55.8958V63.6106C36.3082 63.6698 36.3355 63.7222 36.3902 63.7677C36.4449 63.8133 36.5078 63.8361 36.5789 63.8361H37.9275C37.9986 63.8361 38.0587 63.8133 38.108 63.7677C38.1572 63.7222 38.1818 63.6698 38.1818 63.6106V60.6846C38.335 60.6914 38.5292 60.7005 38.7617 60.7119C38.997 60.7233 39.6069 60.7278 39.7875 60.7278C40.3099 60.7278 40.805 60.6846 41.2727 60.598C41.7405 60.5115 42.1535 60.3658 42.5091 60.1608C42.8647 59.9559 43.1491 59.6826 43.3598 59.3479C43.5704 59.0109 43.6771 58.5965 43.6771 58.1023V58.0021C43.6771 57.508 43.5704 57.0959 43.3598 56.7634C43.1491 56.4309 42.8647 56.1623 42.5091 55.9619ZM41.8034 58.1001C41.8034 58.5509 41.6475 58.8879 41.3384 59.1134C41.0293 59.3388 40.5096 59.4504 39.782 59.4504C39.7273 59.4504 39.2404 59.4504 39.1283 59.4435C39.0161 59.439 38.8985 59.4367 38.7781 59.4322C38.6578 59.4276 38.5402 59.4253 38.428 59.4208C38.3159 59.4162 38.2311 59.4139 38.1791 59.4139V56.7338C38.242 56.727 38.3241 56.7224 38.428 56.7179C38.532 56.7133 38.6414 56.711 38.7562 56.7065C38.8711 56.7019 38.986 56.6996 39.1009 56.6951C39.213 56.6905 39.7081 56.6883 39.782 56.6883C40.4549 56.6883 40.9609 56.7885 41.2973 56.9866C41.6338 57.1847 41.8034 57.5217 41.8034 57.993V58.0955V58.1001Z" fill="#065463"/>
<path id="Vector_61" d="M48.6444 57.4326C48.3736 57.4326 48.0699 57.4691 47.728 57.5396C47.3861 57.6102 47.0497 57.756 46.7187 57.9723V57.7355C46.7187 57.6763 46.6914 57.6239 46.6394 57.5784C46.5847 57.5328 46.5218 57.5123 46.4506 57.5123H45.2799C45.2088 57.5123 45.1459 57.5351 45.0912 57.5784C45.0365 57.6239 45.0091 57.6763 45.0091 57.7355V63.599C45.0091 63.6582 45.0365 63.7128 45.0912 63.7607C45.1459 63.8085 45.2088 63.8335 45.2799 63.8335H46.519C46.5901 63.8335 46.6531 63.8085 46.7078 63.7607C46.7625 63.7128 46.7871 63.6582 46.7871 63.599V59.0903C47.0743 58.9628 47.3642 58.8649 47.6569 58.7943C47.9496 58.7237 48.2778 58.6873 48.6471 58.6873C48.7182 58.6873 48.7811 58.6645 48.8358 58.619C48.8905 58.5734 48.9152 58.5211 48.9152 58.4619V57.6558C48.9152 57.5966 48.8878 57.5442 48.8358 57.4987C48.7811 57.4531 48.7182 57.4326 48.6471 57.4326" fill="#065463"/>
<path id="Vector_62" d="M55.097 58.2276C54.8289 57.9817 54.4925 57.7859 54.0931 57.6447C53.6937 57.5035 53.2287 57.4307 52.6981 57.4307C52.1674 57.4307 51.7024 57.5013 51.3031 57.6447C50.9037 57.7882 50.57 57.9817 50.2992 58.2276C50.0284 58.4736 49.826 58.7673 49.6865 59.1066C49.547 59.4482 49.4786 59.8193 49.4786 60.2224V61.1309C49.4786 61.534 49.547 61.9052 49.6865 62.2467C49.826 62.5883 50.0312 62.8798 50.2992 63.128C50.57 63.3739 50.9037 63.5697 51.3031 63.7109C51.7024 63.8521 52.1674 63.9249 52.6981 63.9249C53.2287 63.9249 53.6937 63.8543 54.0931 63.7109C54.4925 63.5697 54.8262 63.3739 55.097 63.128C55.3677 62.882 55.5702 62.5883 55.7097 62.2467C55.8492 61.9074 55.9175 61.534 55.9175 61.1309V60.2224C55.9175 59.8193 55.8464 59.4482 55.7097 59.1066C55.5702 58.7673 55.3677 58.4736 55.097 58.2276ZM54.1423 61.1332C54.1423 61.5977 54.022 61.9644 53.7785 62.2376C53.5351 62.5109 53.1768 62.6475 52.7008 62.6475C52.2249 62.6475 51.8666 62.5109 51.6231 62.2376C51.3797 61.9644 51.2593 61.5977 51.2593 61.1332V60.2247C51.2593 59.7601 51.3797 59.3935 51.6231 59.1203C51.8666 58.847 52.2249 58.7104 52.7008 58.7104C53.1768 58.7104 53.5351 58.847 53.7785 59.1203C54.022 59.3935 54.1423 59.7601 54.1423 60.2247V61.1332Z" fill="#065463"/>
<path id="Vector_63" d="M61.265 55.3173C61.2103 55.2922 61.1584 55.2695 61.1037 55.2558C60.9778 55.233 60.852 55.2125 60.7262 55.1943C60.6004 55.1761 60.4554 55.167 60.294 55.167C59.9439 55.167 59.6239 55.1943 59.3367 55.2444C59.0495 55.2968 58.806 55.3901 58.6036 55.5245C58.4012 55.6588 58.2425 55.8433 58.1304 56.0733C58.0182 56.3055 57.9635 56.5993 57.9635 56.9591V57.5078H56.7655C56.6944 57.5078 56.6314 57.5306 56.5767 57.5739C56.522 57.6194 56.4947 57.6718 56.4947 57.731V58.2456C56.4947 58.3048 56.522 58.3526 56.5767 58.3868C56.6314 58.421 56.6944 58.4437 56.7655 58.4597L57.9635 58.6168V63.5945C57.9635 63.6537 57.9936 63.7084 58.0511 63.7562C58.1085 63.804 58.1742 63.8291 58.2453 63.8291H59.4707C59.5418 63.8291 59.6047 63.804 59.6594 63.7562C59.7141 63.7084 59.7415 63.6537 59.7415 63.5945V58.6168H61.0353C61.1064 58.6168 61.1693 58.5963 61.224 58.5553C61.2787 58.5143 61.3033 58.4642 61.3033 58.4027V57.731C61.3033 57.6718 61.276 57.6194 61.224 57.5739C61.1693 57.5283 61.1064 57.5078 61.0353 57.5078H59.7415V56.9591C59.7415 56.6835 59.7935 56.5014 59.8974 56.4148C60.0013 56.3283 60.2147 56.285 60.5375 56.285H61.1447C61.1885 56.285 61.235 56.2691 61.2787 56.2395C61.3225 56.2099 61.3444 56.1621 61.3444 56.0938V55.4311C61.3444 55.3788 61.317 55.3401 61.265 55.3127" fill="#065463"/>
<path id="Vector_64" d="M64.0414 57.5098H62.8023C62.7312 57.5098 62.6683 57.5325 62.6136 57.5758C62.5588 57.6213 62.5315 57.6737 62.5315 57.7329V63.5964C62.5315 63.6556 62.5588 63.7103 62.6136 63.7581C62.6683 63.8059 62.7312 63.831 62.8023 63.831H64.0414C64.1125 63.831 64.1754 63.8059 64.2301 63.7581C64.2848 63.7103 64.3094 63.6556 64.3094 63.5964V57.7329C64.3094 57.6737 64.2821 57.6213 64.2301 57.5758C64.1754 57.5303 64.1125 57.5098 64.0414 57.5098Z" fill="#065463"/>
<path id="Vector_65" d="M64.0797 55.2334H62.7722C62.7011 55.2334 62.6355 55.2562 62.578 55.3017C62.5206 55.3473 62.4905 55.3996 62.4905 55.4588V56.4448C62.4905 56.504 62.5206 56.5564 62.578 56.6019C62.6355 56.6475 62.7011 56.6702 62.7722 56.6702H64.0797C64.1508 56.6702 64.2137 56.6475 64.2684 56.6019C64.3231 56.5564 64.3505 56.504 64.3505 56.4448V55.4588C64.3505 55.3996 64.3231 55.3473 64.2684 55.3017C64.2137 55.2562 64.1508 55.2334 64.0797 55.2334Z" fill="#065463"/>
<path id="Vector_66" d="M70.0591 62.7703H69.3397C69.2138 62.7703 69.1154 62.7634 69.047 62.7543C68.9786 62.7429 68.9266 62.7156 68.8911 62.6701C68.8555 62.6245 68.8336 62.5608 68.8227 62.4788C68.8145 62.3968 68.809 62.2852 68.809 62.1418V58.6214H70.0317C70.1056 58.6214 70.1685 58.5986 70.2232 58.5554C70.2779 58.5098 70.3052 58.4574 70.3052 58.3982V57.7356C70.3052 57.6764 70.2779 57.624 70.2232 57.5785C70.1685 57.5329 70.1056 57.5124 70.0317 57.5124H68.809V56.358C68.809 56.2464 68.7379 56.1895 68.5957 56.1895H68.541L67.2964 56.3693C67.2253 56.3853 67.1624 56.4103 67.1104 56.4468C67.0557 56.4832 67.0311 56.5333 67.0311 56.5925V57.5124H65.7646C65.6935 57.5124 65.6306 57.5352 65.5759 57.5785C65.5212 57.624 65.4966 57.6764 65.4966 57.7356V58.2411C65.4966 58.3003 65.5239 58.3504 65.5759 58.3868C65.6306 58.4233 65.6935 58.4506 65.7646 58.4665L67.0311 58.6237V62.1441C67.0311 62.5175 67.0721 62.8226 67.1514 63.0572C67.2335 63.2917 67.3593 63.4739 67.5289 63.6014C67.6985 63.7289 67.9228 63.8154 68.1963 63.8587C68.4698 63.9042 68.7953 63.927 69.1728 63.927C69.326 63.927 69.4764 63.9202 69.6241 63.9042C69.7718 63.8883 69.9278 63.8701 70.0891 63.8473C70.2587 63.8245 70.3463 63.7585 70.3463 63.6447V62.9388C70.3463 62.8272 70.2505 62.7703 70.0618 62.7703" fill="#065463"/>
<path id="Vector_67" d="M81.2738 60.3593C81.1343 60.1725 80.9428 59.9904 80.7021 59.815C80.4587 59.6397 80.155 59.4666 79.7858 59.2936L77.9012 58.5421C77.6851 58.4442 77.5045 58.3554 77.3623 58.2734C77.2173 58.1915 77.1025 58.1118 77.0177 58.0321C76.9329 57.9524 76.8754 57.875 76.8426 57.7975C76.8125 57.7201 76.7961 57.6359 76.7961 57.5448C76.7961 57.2897 76.9055 57.0939 77.1271 56.9573C77.3459 56.8184 77.707 56.7501 78.2102 56.7501C78.6506 56.7501 79.3591 56.7592 79.7995 56.7774C80.2398 56.7956 80.683 56.8252 81.1315 56.8616H81.1589C81.23 56.8616 81.2875 56.8434 81.3285 56.8047C81.3695 56.7683 81.3887 56.7182 81.3887 56.659V55.8301C81.3887 55.7709 81.3668 55.7231 81.3203 55.6912C81.2765 55.6571 81.2163 55.632 81.1452 55.6184C81.0276 55.5956 80.8717 55.5728 80.6748 55.5523C80.4778 55.5295 80.2563 55.5068 80.0155 55.484C79.7721 55.4612 79.5259 55.4453 79.2743 55.4339C79.0226 55.4225 78.5139 55.418 78.2896 55.418C77.6605 55.418 77.1325 55.4703 76.7058 55.5751C76.2791 55.6798 75.9345 55.8278 75.6692 56.0168C75.4038 56.2081 75.2124 56.4336 75.0975 56.6954C74.9799 56.9573 74.9224 57.2419 74.9224 57.5471C74.9224 57.7406 74.947 57.9296 74.9963 58.114C75.0455 58.2962 75.1303 58.4716 75.2534 58.6401C75.3737 58.8086 75.5351 58.9702 75.7375 59.1274C75.94 59.2845 76.1971 59.4416 76.5116 59.5987L78.5576 60.4845C78.7819 60.5961 78.9679 60.6963 79.1102 60.7828C79.2524 60.8693 79.37 60.9536 79.4603 61.0356C79.5505 61.1175 79.6135 61.2018 79.649 61.2883C79.6846 61.3748 79.7037 61.4728 79.7037 61.5866C79.7037 61.9145 79.5943 62.165 79.3728 62.3381C79.1512 62.5111 78.7409 62.5954 78.1391 62.5954C78.0133 62.5954 77.5757 62.5908 77.365 62.584C77.1544 62.5771 76.9329 62.568 76.6976 62.5567C76.4651 62.5453 76.2381 62.5339 76.0165 62.5225C75.795 62.5111 75.6199 62.4975 75.4832 62.4838H75.4558C75.3847 62.4838 75.3245 62.5043 75.2753 62.5453C75.226 62.5863 75.2014 62.6364 75.2014 62.6978V63.5039C75.2014 63.5631 75.226 63.6132 75.2753 63.6497C75.3245 63.6861 75.3847 63.7134 75.4558 63.7271C75.7786 63.7886 76.1287 63.8364 76.5062 63.8728C76.8836 63.9092 77.5975 63.9297 78.109 63.9297C78.7819 63.9297 79.3454 63.8614 79.7995 63.7225C80.2535 63.5836 80.6173 63.406 80.8908 63.1851C81.1644 62.9643 81.3613 62.7138 81.4762 62.4337C81.5938 62.1536 81.6513 61.8713 81.6513 61.5866C81.6513 61.3612 81.6212 61.1494 81.5637 60.9468C81.5063 60.7441 81.4051 60.5505 81.2683 60.3638" fill="#065463"/>
<path id="Vector_68" d="M88.5169 58.2273C88.2488 57.9723 87.9151 57.7765 87.5157 57.6398C87.1164 57.5009 86.6569 57.4326 86.1372 57.4326C85.6174 57.4326 85.1689 57.4987 84.7668 57.6353C84.3647 57.7696 84.0255 57.9609 83.752 58.2068C83.4784 58.4528 83.2706 58.7533 83.1256 59.104C82.9833 59.4547 82.9095 59.8486 82.9095 60.2813V61.1101C82.9095 61.6635 83.0162 62.1212 83.2268 62.4832C83.4374 62.8453 83.7055 63.1345 84.0282 63.3462C84.351 63.5603 84.7039 63.7083 85.0868 63.7948C85.467 63.8813 85.8308 63.9246 86.17 63.9246C86.4763 63.9246 86.7417 63.9201 86.9714 63.9132C87.2012 63.9064 87.4118 63.895 87.6033 63.8791C87.7947 63.8631 87.9862 63.8449 88.1749 63.8221C88.3637 63.7994 88.5661 63.7698 88.7822 63.7311C88.908 63.7174 88.9873 63.6855 89.0174 63.6423C89.0503 63.5967 89.0639 63.5307 89.0639 63.4396V62.6995C89.0639 62.6403 89.042 62.5971 88.9955 62.5697C88.949 62.5447 88.8916 62.531 88.8205 62.531H88.7795C88.4922 62.5538 88.1312 62.5789 87.6963 62.6039C87.2614 62.6289 86.7964 62.6426 86.3013 62.6426C85.9785 62.6426 85.7104 62.5993 85.4998 62.5128C85.2892 62.4263 85.1224 62.3147 85.002 62.1758C84.8817 62.0369 84.7969 61.8843 84.7531 61.7158C84.7093 61.5473 84.6874 61.3811 84.6874 61.2171V61.183H89.0667C89.2445 61.183 89.3347 61.0896 89.3347 60.9029V60.2744C89.3347 59.8554 89.2663 59.4729 89.1268 59.1245C88.9873 58.7761 88.7849 58.4755 88.5141 58.2228M87.5568 60.1333H84.7011V60.0877C84.7011 59.6391 84.8352 59.2976 85.1059 59.063C85.374 58.8262 85.7214 58.7101 86.1426 58.7101C86.5639 58.7101 86.9058 58.8285 87.1656 59.0698C87.4255 59.3089 87.5568 59.6482 87.5568 60.09V60.1355V60.1333Z" fill="#065463"/>
<path id="Vector_69" d="M95.4098 57.5764C95.2566 57.54 95.0324 57.5058 94.7369 57.4762C94.4415 57.4466 94.0859 57.4307 93.6729 57.4307C93.2325 57.4307 92.8277 57.4876 92.453 57.5992C92.081 57.7107 91.7582 57.8815 91.4847 58.1092C91.2111 58.3369 90.995 58.6216 90.8391 58.9609C90.6805 59.3002 90.6039 59.6987 90.6039 60.1541V61.197C90.6039 61.6524 90.6832 62.0509 90.8391 62.3902C90.995 62.7317 91.2111 63.0141 91.4847 63.2418C91.7582 63.4695 92.081 63.6403 92.453 63.7519C92.825 63.8635 93.2325 63.9204 93.6729 63.9204C94.0859 63.9204 94.4415 63.9044 94.7369 63.8748C95.0324 63.8452 95.2566 63.8111 95.4098 63.7746C95.5274 63.7519 95.6013 63.72 95.6396 63.679C95.6751 63.638 95.6943 63.572 95.6943 63.4832V62.7545C95.6943 62.6953 95.6724 62.652 95.6259 62.6247C95.5822 62.5997 95.522 62.586 95.4509 62.586H95.4098C95.2758 62.6019 95.15 62.6133 95.0324 62.6247C94.9147 62.6361 94.7944 62.6429 94.6686 62.6475C94.5427 62.652 94.3978 62.6543 94.2364 62.6589C94.075 62.6634 93.8863 62.6634 93.6702 62.6634C93.5088 62.6634 93.3501 62.6407 93.1997 62.5974C93.0465 62.5519 92.9098 62.4767 92.7894 62.3674C92.6691 62.2581 92.5706 62.1101 92.494 61.9188C92.4174 61.7275 92.3791 61.4862 92.3791 61.1947V60.1518C92.3791 59.8603 92.4174 59.619 92.494 59.4277C92.5706 59.2364 92.6691 59.0884 92.7894 58.9791C92.9098 58.8698 93.0465 58.7946 93.1997 58.7491C93.3529 58.7036 93.5088 58.6808 93.6702 58.6808C93.8863 58.6808 94.075 58.6808 94.2364 58.6876C94.3978 58.6922 94.5427 58.6944 94.6686 58.699C94.7944 58.7036 94.9147 58.7104 95.0324 58.7218C95.15 58.7332 95.2758 58.7445 95.4098 58.7605H95.4509C95.522 58.7605 95.5822 58.7468 95.6259 58.7218C95.6697 58.6945 95.6943 58.6535 95.6943 58.592V57.8633C95.6943 57.7745 95.6751 57.7085 95.6396 57.6675C95.604 57.6265 95.5274 57.5946 95.4098 57.5718" fill="#065463"/>
<path id="Vector_70" d="M101.132 62.7703H100.413C100.287 62.7703 100.188 62.7634 100.12 62.7543C100.052 62.7429 99.9997 62.7156 99.9641 62.6701C99.9286 62.6245 99.9067 62.5608 99.8957 62.4788C99.8875 62.3968 99.8821 62.2852 99.8821 62.1418V58.6214H101.105C101.179 58.6214 101.241 58.5986 101.296 58.5554C101.351 58.5098 101.378 58.4574 101.378 58.3982V57.7356C101.378 57.6764 101.351 57.624 101.296 57.5785C101.241 57.5329 101.179 57.5124 101.105 57.5124H99.8821V56.358C99.8821 56.2464 99.8109 56.1895 99.6687 56.1895H99.614L98.3694 56.3693C98.2983 56.3853 98.2354 56.4103 98.1807 56.4468C98.1287 56.4832 98.1014 56.5333 98.1014 56.5925V57.5124H96.8349C96.7638 57.5124 96.7009 57.5352 96.6462 57.5785C96.5915 57.624 96.5669 57.6764 96.5669 57.7356V58.2411C96.5669 58.3003 96.5942 58.3504 96.6462 58.3868C96.7009 58.4233 96.7638 58.4506 96.8349 58.4665L98.1014 58.6237V62.1441C98.1014 62.5175 98.1424 62.8226 98.2217 63.0572C98.301 63.2917 98.4269 63.4739 98.5992 63.6014C98.7688 63.7289 98.9931 63.8154 99.2666 63.8587C99.5401 63.9042 99.8656 63.927 100.243 63.927C100.396 63.927 100.547 63.9202 100.694 63.9042C100.842 63.8883 100.998 63.8701 101.159 63.8473C101.329 63.8245 101.417 63.7585 101.417 63.6447V62.9388C101.417 62.8272 101.321 62.7703 101.132 62.7703Z" fill="#065463"/>
<path id="Vector_71" d="M107.883 58.2276C107.615 57.9817 107.278 57.7859 106.879 57.6447C106.48 57.5035 106.015 57.4307 105.484 57.4307C104.953 57.4307 104.488 57.5013 104.089 57.6447C103.69 57.7882 103.356 57.9817 103.085 58.2276C102.814 58.4736 102.612 58.7673 102.472 59.1066C102.333 59.4482 102.264 59.8193 102.264 60.2224V61.1309C102.264 61.534 102.333 61.9052 102.472 62.2467C102.612 62.5883 102.817 62.8798 103.085 63.128C103.353 63.3739 103.69 63.5697 104.089 63.7109C104.488 63.8521 104.953 63.9249 105.484 63.9249C106.015 63.9249 106.48 63.8543 106.879 63.7109C107.278 63.5697 107.612 63.3739 107.883 63.128C108.154 62.882 108.356 62.5883 108.496 62.2467C108.635 61.9074 108.703 61.534 108.703 61.1309V60.2224C108.703 59.8193 108.632 59.4482 108.496 59.1066C108.356 58.7673 108.151 58.4736 107.883 58.2276ZM106.925 61.1332C106.925 61.5977 106.805 61.9644 106.562 62.2376C106.318 62.5109 105.96 62.6475 105.484 62.6475C105.008 62.6475 104.65 62.5109 104.406 62.2376C104.163 61.9644 104.042 61.5977 104.042 61.1332V60.2247C104.042 59.7601 104.163 59.3935 104.406 59.1203C104.65 58.847 105.008 58.7104 105.484 58.7104C105.96 58.7104 106.318 58.847 106.562 59.1203C106.805 59.3935 106.925 59.7601 106.925 60.2247V61.1332Z" fill="#065463"/>
<path id="Vector_72" d="M113.862 57.4326C113.594 57.4326 113.288 57.4691 112.946 57.5396C112.604 57.6102 112.267 57.756 111.937 57.9723V57.7355C111.937 57.6763 111.909 57.6239 111.857 57.5784C111.802 57.5328 111.74 57.5123 111.668 57.5123H110.498C110.427 57.5123 110.364 57.5351 110.309 57.5784C110.254 57.6239 110.227 57.6763 110.227 57.7355V63.599C110.227 63.6582 110.254 63.7128 110.309 63.7607C110.364 63.8085 110.427 63.8335 110.498 63.8335H111.737C111.808 63.8335 111.871 63.8085 111.926 63.7607C111.98 63.7128 112.005 63.6582 112.005 63.599V59.0903C112.292 58.9628 112.582 58.8649 112.875 58.7943C113.167 58.7237 113.496 58.6873 113.865 58.6873C113.936 58.6873 113.999 58.6645 114.054 58.619C114.108 58.5734 114.136 58.5211 114.136 58.4619V57.6558C114.136 57.5966 114.108 57.5442 114.054 57.4987C113.999 57.4531 113.936 57.4326 113.865 57.4326" fill="#065463"/>
</g>
</g>
</g>
</g>
</svg>
