<svg width="67" height="65" viewBox="0 0 67 65" fill="none" xmlns="http://www.w3.org/2000/svg">
<g id="Asset 6 1" clip-path="url(#clip0_268_36227)">
<g id="Layer_1">
<g id="Group">
<path id="Vector" d="M54.0128 55.7527C53.7416 55.8645 53.6947 55.8421 53.6347 55.6007C53.6138 55.518 53.5852 55.4376 53.5617 55.3549C53.46 55.5538 53.5043 55.7326 53.606 55.9002C53.6894 56.0343 53.8329 56.0902 53.9554 56.0298C54.1014 55.9583 54.044 55.8533 54.0101 55.7505M51.3663 51.2938H51.4393C51.4654 51.0748 51.4628 50.858 51.3481 50.6501C51.2907 50.5518 51.2229 50.4423 51.0743 50.478C50.9101 50.516 50.9544 50.6412 50.9752 50.7462C50.9778 50.7574 50.9987 50.7664 51.0144 50.7775C51.1995 50.7038 51.262 50.7239 51.3038 50.887C51.3168 50.934 51.3142 50.9854 51.322 51.0323C51.335 51.1195 51.3533 51.2044 51.3663 51.2916M35.3366 56.859C35.553 56.7093 35.6938 56.5171 35.7616 56.2913C35.8059 56.1416 35.7486 56.0298 35.6338 55.9986C35.5243 55.9673 35.4409 56.041 35.3757 56.2399H35.5687C35.6417 56.4992 35.3705 56.6422 35.3392 56.859M20.3394 55.9069C20.3472 55.9248 20.3524 55.9404 20.3602 55.9606C20.6131 55.9136 20.8348 55.8153 21.0199 55.6566C21.145 55.5471 21.1789 55.4018 21.1033 55.328C21.0355 55.2588 20.9234 55.2744 20.7487 55.3817C20.7357 55.3884 20.7383 55.4107 20.7357 55.4264C20.926 55.5247 20.9364 55.5851 20.7748 55.6834C20.6366 55.7661 20.4854 55.8354 20.3394 55.9092M10.9531 54.405C10.8774 54.3424 10.7784 54.2977 10.7627 54.2396C10.734 54.1323 10.8566 54.0898 10.9531 54.0541C11.0469 54.0183 11.1486 53.987 11.2425 53.949C11.305 53.9244 11.365 53.8909 11.425 53.8619C11.4172 53.8462 11.4067 53.8306 11.3989 53.8149C11.1017 53.8507 10.8123 53.911 10.5854 54.1033C10.4446 54.2195 10.429 54.358 10.5281 54.4541C10.6193 54.5458 10.7784 54.5279 10.9505 54.4027M21.8985 54.3268C21.7916 54.4027 21.6769 54.4609 21.5935 54.548C21.5309 54.6106 21.4683 54.7179 21.4918 54.7805C21.5179 54.8453 21.643 54.9101 21.7343 54.9213C21.849 54.9324 21.982 54.9034 22.0837 54.8565C22.2218 54.7939 22.2323 54.7 22.141 54.5883C22.0758 54.51 22.0002 54.4385 21.8985 54.329M24.6049 55.9494C24.4589 56.0388 24.5058 56.1349 24.5006 56.2176C24.498 56.2891 24.485 56.3584 24.3807 56.3517C24.2712 56.345 24.2399 56.2802 24.2608 56.1952C24.2712 56.155 24.2947 56.1125 24.2842 56.0745C24.2764 56.0365 24.2347 56.003 24.2086 55.9673C24.1878 55.9695 24.1669 55.9717 24.146 55.974C24.1304 56.088 24.1069 56.2019 24.0991 56.3182C24.0861 56.4947 24.1773 56.5551 24.3807 56.5104C24.425 56.4992 24.4693 56.4813 24.5137 56.4634C24.5528 56.4836 24.5867 56.497 24.6154 56.5171C24.6962 56.5707 24.7822 56.6042 24.8787 56.5506C24.9752 56.497 25.0273 56.421 25.0038 56.3204C24.9804 56.2221 24.9439 56.1259 24.91 56.0187C24.717 56.0991 24.8396 56.2399 24.7249 56.3338C24.691 56.2154 24.6545 56.0969 24.6101 55.9471M36.7602 57.3418C36.6976 57.4826 36.6168 57.6279 36.5751 57.7799C36.5308 57.9475 36.622 58.019 36.828 58.0168C37.0131 58.0168 37.1565 57.9453 37.2634 57.8179C37.399 57.6547 37.3521 57.5251 37.133 57.458C37.0235 57.4245 36.9114 57.3865 36.7628 57.3396M45.3695 56.0075C45.393 56.012 45.4165 56.0142 45.4399 56.0187C45.6694 55.6812 45.7476 55.3146 45.672 54.9235C45.6668 54.8922 45.6563 54.852 45.6303 54.8341C45.5494 54.7827 45.4634 54.7089 45.3773 54.7045C45.3096 54.7022 45.2131 54.7849 45.1766 54.8475C45.1349 54.9235 45.1375 55.0196 45.1323 55.1068C45.1323 55.1247 45.1635 55.1448 45.1818 55.1649C45.2418 55.1202 45.2965 55.0777 45.3487 55.0375C45.539 55.1671 45.5599 55.1939 45.5234 55.3683C45.479 55.5806 45.4243 55.7929 45.3721 56.0075M14.7493 51.6514C14.6528 51.6447 14.5746 51.638 14.5016 51.6313C14.4416 51.4369 14.5772 51.3363 14.7232 51.2581C14.8666 51.1798 15.0283 51.124 15.1795 51.0569C15.2421 51.0301 15.2968 50.9943 15.362 50.9586C15.3281 50.934 15.3125 50.9116 15.2994 50.9139C14.9005 50.9876 14.5433 51.1374 14.2539 51.3877C14.1496 51.4771 14.1053 51.5956 14.1392 51.7274C14.1653 51.8258 14.2383 51.8928 14.3608 51.8816C14.5251 51.8682 14.6737 51.8235 14.7493 51.6492M40.2853 55.3862C40.2123 55.4174 40.1862 55.4219 40.181 55.4331C40.0089 55.7549 39.9568 56.0947 40.0272 56.4389C40.0454 56.5305 40.1471 56.6244 40.2357 56.6892C40.3296 56.7585 40.4652 56.7562 40.5408 56.6579C40.6373 56.5372 40.6972 56.3986 40.5643 56.2377C40.5017 56.3048 40.4521 56.3584 40.4052 56.4076C40.1679 56.3249 40.1341 56.1751 40.1679 55.9986C40.2071 55.8086 40.241 55.6164 40.2827 55.3862M26.9515 62.1046C26.8211 62.1516 26.7247 62.2633 26.5995 62.1449C26.5057 62.0555 26.5004 61.9393 26.5969 61.8052C26.6308 61.756 26.6751 61.7113 26.7142 61.6643C26.8081 61.5615 26.9072 61.4587 26.9958 61.3537C27.0245 61.3202 27.0349 61.2755 27.061 61.2173C26.6777 61.3425 26.2345 61.8811 26.2397 62.1851C26.2397 62.3527 26.4196 62.5159 26.5943 62.5137C26.8055 62.5114 26.9645 62.3371 26.9489 62.1046M41.7558 57.2971C41.7845 57.1027 41.7375 57.0378 41.5785 57.0155C41.4325 56.9954 41.3256 57.058 41.2943 57.1988C41.2708 57.306 41.2708 57.4178 41.2552 57.5519C41.0753 57.4759 40.9267 57.4022 40.7676 57.3552C40.679 57.3284 40.5695 57.3396 40.473 57.353C40.4521 57.3552 40.4209 57.4647 40.4391 57.4781C40.5173 57.5318 40.6086 57.5988 40.6972 57.5988C40.9006 57.6033 41.0336 57.6927 41.1665 57.8045C41.2291 57.8559 41.3021 57.8983 41.3725 57.9453C41.3934 57.9363 41.4116 57.9251 41.4325 57.9162V57.2524C41.5576 57.268 41.6489 57.2815 41.7558 57.2971ZM53.314 52.8136C53.3349 52.8136 53.3531 52.8159 53.3766 52.8181C53.5122 52.5365 53.6582 52.2549 53.7416 51.9554C53.7572 51.9062 53.7077 51.8414 53.6712 51.7386C53.4652 51.9688 53.3844 52.2594 53.0168 52.2728C53.0037 52.094 53.2019 52.1185 53.2984 52.0314C53.2645 51.9532 53.2306 51.8749 53.181 51.7565C53.0611 51.8369 52.9594 51.8772 52.9125 51.9464C52.816 52.0828 52.8004 52.2392 52.8343 52.3979C52.8786 52.6058 52.8916 52.6147 53.1576 52.5879C53.1732 52.5879 53.1915 52.5991 53.2019 52.6013C53.241 52.6773 53.2749 52.7466 53.3114 52.8159M36.8723 56.9507C36.8958 56.9663 36.9219 56.982 36.9479 56.9998C37.2191 56.8188 37.4902 56.6445 37.7536 56.459C37.8292 56.4053 37.8787 56.3182 37.7979 56.2064C37.5476 56.3539 37.2895 56.4433 36.9844 56.3316C37.0713 56.263 37.1974 56.2288 37.3625 56.2288C37.4016 56.1416 37.5189 56.0522 37.3703 55.9561C37.2452 55.8756 37.133 55.9315 37.0418 56.0142C36.9505 56.0991 36.8567 56.1841 36.7889 56.2802C36.622 56.5037 36.6403 56.5417 36.9192 56.6691C36.9323 56.6758 36.9427 56.6914 36.9531 56.7004C36.9271 56.7853 36.901 56.868 36.8749 56.9507M25.1499 55.3057C25.0716 55.3057 25.0221 55.3012 24.9699 55.3057C24.3989 55.3638 23.8279 55.4264 23.2569 55.4823C22.905 55.5158 22.553 55.5404 22.201 55.5694C22.055 55.5806 21.9116 55.5895 21.8751 55.7683C21.9924 55.7683 22.0941 55.7728 22.1932 55.7683C22.3366 55.7616 22.48 55.7482 22.6234 55.7326C23.3638 55.6521 24.1043 55.5739 24.8448 55.4912C24.9699 55.4778 25.0873 55.451 25.1472 55.3057M48.6756 52.7645C48.5765 52.7488 48.5139 52.7332 48.4514 52.7265C48.2715 52.7064 48.0916 52.6818 47.9117 52.6684C47.8021 52.6617 47.6952 52.6751 47.6952 52.8047C47.6952 52.9165 47.7683 52.9723 47.9169 52.9835C47.9638 52.9857 48.0159 52.9924 48.0577 52.979C48.3028 52.903 48.5061 52.9902 48.7121 53.0863C48.7955 53.1243 48.8764 53.2025 49.0041 53.1534C49.0041 52.8628 48.7304 52.6348 48.733 52.3353H49.0667C49.1006 52.132 49.0641 52.0806 48.8711 52.0627C48.6078 52.0381 48.4983 52.1364 48.5478 52.3666C48.5739 52.4918 48.6261 52.6125 48.673 52.7622M17.5965 54.7246C17.4739 54.6352 17.3957 54.6799 17.3253 54.7179C17.0698 54.8632 16.8013 54.995 16.5666 55.1604C16.4154 55.2677 16.2954 55.4152 16.2042 55.5627C16.0999 55.7281 16.1755 55.9673 16.3215 56.0544C16.4493 56.1304 16.7152 56.0857 16.8743 55.9516C16.9499 55.889 17.0542 55.8242 16.9785 55.6968C16.9342 55.7102 16.8977 55.7192 16.8638 55.7304C16.6631 55.7952 16.5796 55.7505 16.5666 55.5717C16.5588 55.4577 16.6031 55.3593 16.7022 55.2856C16.7908 55.223 16.8821 55.1649 16.9759 55.1045C17.1767 54.9794 17.3749 54.8542 17.5939 54.7201M16.6031 52.4382C16.5327 52.2012 16.4701 51.9777 16.3997 51.7609C16.3737 51.6782 16.3215 51.6023 16.1937 51.647C16.0842 51.6827 16.0138 51.7453 16.0425 51.8526C16.0582 51.9152 16.079 51.9867 16.126 52.0336C16.2928 52.1968 16.2668 52.38 16.2433 52.5678C16.2302 52.6617 16.2198 52.7533 16.2068 52.8695C16.4336 52.8427 16.5301 52.7108 16.6578 52.6192C16.7908 52.5209 16.8847 52.38 17.0881 52.3286C17.1141 52.3823 17.1376 52.4225 17.1558 52.4694C17.1767 52.5209 17.195 52.5745 17.2132 52.6281C17.414 52.5857 17.4374 52.57 17.4583 52.4873C17.4818 52.389 17.414 52.1968 17.3097 52.1632C17.2315 52.1387 17.1167 52.1387 17.0463 52.17C16.8899 52.2459 16.7543 52.3465 16.6031 52.4426M54.3361 50.8267C54.2865 50.4803 53.9215 50.3126 53.8198 50.0087C53.9606 49.9774 54.0832 49.9483 54.2057 49.9193C54.1614 49.7092 54.0701 49.6555 53.8589 49.698C53.6634 49.7382 53.5721 49.8478 53.6243 50.002C53.6529 50.078 53.7077 50.1473 53.7546 50.2188C53.8094 50.2992 53.8667 50.3775 53.9424 50.487C53.5382 50.4713 53.1862 50.4624 52.8708 50.6188C52.9594 50.8714 53.0402 50.9094 53.2853 50.8356C53.3218 50.8245 53.3583 50.8111 53.3896 50.7932C53.5304 50.7172 53.6764 50.7127 53.8329 50.744C53.9867 50.7775 54.1457 50.7932 54.3387 50.8245M34.8256 58.7029C35.0837 58.428 34.9403 58.0838 35.1515 57.8067C35.2714 57.8626 35.3835 57.914 35.493 57.9631C35.6364 57.7978 35.6338 57.7307 35.4852 57.6324C35.2532 57.4781 35.0498 57.5251 34.9507 57.7665C34.8986 57.8916 34.8647 58.0235 34.8151 58.1732C34.5309 57.9497 34.2676 57.753 33.9208 57.6726C33.7435 57.9095 33.7461 57.9788 34.0121 58.0503C34.3198 58.1352 34.5101 58.314 34.6744 58.5286C34.7109 58.5755 34.7526 58.618 34.8256 58.7007M37.133 61.414C37.2556 61.3738 37.3494 61.338 37.4459 61.3112C37.5554 61.2822 37.6675 61.2598 37.777 61.2308C37.9022 61.1972 38.0143 61.1436 38.0143 61.0162C38.0143 60.9067 37.8996 60.8754 37.8057 60.8352C37.764 60.8173 37.7171 60.8039 37.6728 60.7927C37.4198 60.7301 37.1904 60.8553 37.1513 61.0788C37.1435 61.1123 37.1513 61.1637 37.1252 61.1816C36.8775 61.3604 36.9297 61.5727 37.0366 61.785C37.1878 62.0756 37.3494 62.3639 37.5085 62.6522C37.5189 62.6679 37.5554 62.6746 37.5789 62.6858C37.7093 62.6187 37.6884 62.5137 37.6623 62.422C37.631 62.3192 37.5789 62.2209 37.5294 62.1248C37.4042 61.8968 37.2764 61.6711 37.1356 61.4207M52.9412 48.8331C52.9073 48.9001 52.8838 48.9359 52.8708 48.9716C52.5787 49.6734 52.2919 50.3752 51.9947 51.077C51.8956 51.3162 51.7653 51.5464 51.6531 51.7811C51.5697 51.9576 51.5854 51.9889 51.7705 52.1029C51.807 52.0359 51.8487 51.9733 51.88 51.904C52.0964 51.4413 52.3258 50.9809 52.524 50.5116C52.7039 50.0891 52.8551 49.6578 53.0194 49.2287C53.0689 49.1013 53.0976 48.9739 52.9412 48.8353M11.8734 55.4621C11.876 55.442 11.8813 55.4242 11.8813 55.4018C11.8056 55.3727 11.73 55.3415 11.6518 55.3169C10.5333 54.9704 9.433 54.5815 8.36139 54.1368C8.2936 54.1077 8.22321 54.0764 8.1502 54.0608C8.0407 54.0362 7.94422 54.0541 7.88947 54.1681C7.96508 54.2038 8.02766 54.2396 8.09545 54.2664C8.76031 54.5212 9.42518 54.7782 10.0979 55.0196C10.5385 55.1783 10.9922 55.3102 11.4432 55.4554C11.5866 55.5024 11.73 55.527 11.8708 55.4644M31.2848 61.1816C31.47 61.2822 31.6238 61.3716 31.7855 61.4543C32.3903 61.7672 32.2209 61.7359 32.7371 61.4118C32.8544 61.338 33.0031 61.2844 33.0709 61.1279C32.7684 60.9491 32.4451 60.8106 32.1322 60.6631C32.1035 60.6519 32.0488 60.6541 32.0227 60.6698C31.7855 60.8262 31.5221 60.9603 31.2875 61.1838M13.4561 53.3366C13.5395 53.3612 13.6073 53.3925 13.6777 53.4059C14.6685 53.587 15.6592 53.7814 16.6578 53.9446C17.2315 54.0384 17.8155 54.0809 18.3969 54.139C18.5873 54.1569 18.775 54.139 18.8975 53.9312C18.6889 53.9155 18.5116 53.9043 18.3343 53.8865C17.1428 53.7702 15.9643 53.587 14.8014 53.3366C14.5146 53.2741 14.2226 53.2204 13.9332 53.1645C13.7377 53.1265 13.5786 53.169 13.4587 53.3389M31.4204 57.6569C31.6681 57.6458 31.8558 57.6324 32.0488 57.6301C32.1531 57.6301 32.26 57.6234 32.2756 57.5273C32.2861 57.467 32.2469 57.3865 32.1974 57.3351C32.1088 57.2412 31.9966 57.1675 31.8819 57.0736C32.0045 56.8412 31.994 56.564 32.2313 56.3696C32.3304 56.4321 32.4008 56.4769 32.4738 56.5238C32.625 56.3651 32.625 56.3048 32.492 56.2086C32.3434 56.1014 32.187 56.1148 32.0827 56.2668C31.9784 56.4165 31.9028 56.5819 31.8037 56.7585C31.6003 56.5238 31.4387 56.2757 31.0945 56.2019C30.9433 56.4344 30.9694 56.5484 31.2118 56.611C31.397 56.6601 31.4595 56.7741 31.5456 56.8926C31.6473 57.0334 31.6812 57.163 31.5221 57.2859C31.4569 57.3373 31.5821 57.42 31.4543 57.4714C31.2379 57.5564 31.204 57.7352 31.2275 57.9117C31.2457 58.0481 31.3005 58.1822 31.3448 58.3163C31.4752 58.7029 31.6238 59.0829 31.7385 59.4718C31.8037 59.6886 31.8167 59.9188 31.8585 60.1848C31.908 60.1222 31.9471 60.0954 31.9523 60.0618C31.9732 59.9076 32.0071 59.7534 31.994 59.6014C31.9549 59.1142 31.7359 58.6627 31.5899 58.1956C31.5404 58.0324 31.483 57.867 31.4178 57.6637M48.1985 60.0216C48.2063 60.0372 48.2115 60.0529 48.2193 60.0685C48.248 60.0708 48.2767 60.0819 48.3001 60.0752C48.3731 60.0574 48.4435 60.0328 48.5139 60.0082C49.171 59.7646 49.7029 59.3824 50.18 58.9354C50.459 58.6761 50.7484 58.4236 51.03 58.1665C51.2281 57.9855 51.4602 57.8737 51.76 57.8648C51.9712 57.8581 52.1172 57.7553 52.2163 57.6033C52.2633 57.5318 52.3024 57.458 52.3467 57.3865C52.391 57.3798 52.4301 57.3753 52.4666 57.3709C52.8525 57.3172 53.0142 57.1205 52.9464 56.7987C52.9203 56.678 52.8525 56.6266 52.7143 56.6825C52.6726 57.1272 52.5892 57.058 52.2476 56.9373C52.2241 57.0267 52.2007 57.1138 52.1746 57.1988C52.1094 57.42 51.9843 57.5228 51.7157 57.5407C51.4315 57.5586 51.1995 57.6614 51.0065 57.8313C50.7667 58.0436 50.5372 58.2649 50.3078 58.4839C49.7576 59.0136 49.1553 59.4919 48.4514 59.8719C48.3627 59.9188 48.2845 59.9724 48.2011 60.0238M42.7231 55.898C42.9734 55.9382 43.2081 55.9784 43.4427 56.012C43.5053 56.0187 43.6044 56.0254 43.6305 55.9963C43.8104 55.7974 43.9877 55.6007 44.1154 55.3303C43.8156 55.2811 43.5522 55.2453 43.2915 55.1962C43.1325 55.1671 43.0203 55.1962 42.9317 55.3236C42.8352 55.4644 42.7153 55.5895 42.598 55.7281C42.3503 55.6767 42.1208 55.6231 41.8862 55.5851C41.8001 55.5717 41.6671 55.5694 41.6228 55.6119C41.4481 55.7818 41.2995 55.9695 41.1118 56.1885C41.5003 56.2958 41.8314 56.3852 42.1756 56.4791C42.3607 56.2824 42.5328 56.0969 42.7231 55.8957M13.6099 52.503C13.49 52.1923 13.3883 51.9219 13.271 51.6559C13.2527 51.6179 13.1641 51.5933 13.1015 51.5821C12.9424 51.5553 12.7808 51.5374 12.6165 51.5196C12.5018 51.5062 12.4288 51.4614 12.4053 51.3564C12.361 51.1709 12.3063 50.9876 12.2489 50.8066C12.2306 50.7552 12.1967 50.6814 12.1498 50.6702C11.8787 50.601 11.6075 50.5294 11.2816 50.5496C11.3311 50.8178 11.3807 51.0591 11.4198 51.3005C11.4432 51.4413 11.5267 51.5151 11.6909 51.5397C11.9073 51.571 12.1211 51.6179 12.3297 51.6581C12.4105 51.8794 12.4783 52.0828 12.5618 52.2839C12.5852 52.3398 12.6374 52.418 12.6895 52.427C12.9685 52.4762 13.2475 52.5186 13.6073 52.5052M45.0671 57.9229C45.1505 57.8603 45.2027 57.8268 45.247 57.7888C45.8649 57.2479 46.4907 56.7138 47.0982 56.1662C48.1411 55.2297 49.0719 54.2172 49.901 53.1377C50.0366 52.9612 50.1227 52.7734 50.1044 52.5611C50.1018 52.5119 50.0653 52.4672 50.0262 52.3756C49.9297 52.4918 49.8619 52.5678 49.802 52.6483C49.2831 53.3411 48.7173 54.0027 48.1072 54.6397C47.2103 55.5761 46.196 56.4165 45.2027 57.2748C44.981 57.467 44.9497 57.6592 45.0645 57.9274M29.1312 61.4543C29.2355 61.4118 29.2876 61.3961 29.3294 61.3693C29.5353 61.224 29.6735 61.0385 29.77 60.8307C29.9812 60.3613 30.0412 59.8763 29.976 59.3779C29.903 58.8236 29.8143 58.2716 29.7309 57.7173C29.7022 57.5161 29.7126 57.3284 29.8717 57.1585C29.9264 57.1004 29.9577 56.9954 29.9369 56.9306C29.8326 56.6177 29.7048 56.3092 29.564 55.9337C29.3163 56.1841 29.0426 56.3472 29.053 56.6646C29.0895 57.7799 29.2068 58.8929 29.3815 59.9993C29.4467 60.4105 29.3972 60.8173 29.2173 61.2084C29.1886 61.2732 29.1729 61.3403 29.1338 61.4543M40.1158 61.5347C40.1393 61.5414 40.1601 61.5481 40.1836 61.5548C40.2331 61.4878 40.3035 61.4274 40.3296 61.3537C40.3974 61.1592 40.4756 60.9625 40.4991 60.7614C40.5617 60.1781 40.3896 59.6238 40.1288 59.0874C39.8629 58.5443 39.5865 58.0011 39.3128 57.4603C39.2137 57.2591 39.1485 57.058 39.245 56.8412C39.2997 56.7227 39.2632 56.6177 39.185 56.5148C39.0051 56.2824 38.8278 56.05 38.6479 55.8175C38.614 55.7751 38.5592 55.7415 38.4915 55.6834C38.3298 55.974 38.1551 56.2355 38.2776 56.5417C38.5358 57.1943 38.8043 57.8425 39.0937 58.4861C39.318 58.9823 39.5865 59.4651 39.816 59.959C40.0376 60.4351 40.181 60.9268 40.0975 61.4453C40.0949 61.4744 40.1132 61.5034 40.121 61.5347M49.9349 51.2894C49.9141 51.3028 49.8958 51.3139 49.8723 51.3273C49.8958 51.6358 49.9401 51.9263 50.2817 52.1409C50.6519 52.3733 50.9987 52.6371 51.3324 52.9053C51.8044 53.2875 52.258 53.692 52.7247 54.0831C53.0011 54.3133 53.2775 54.5413 53.5617 54.7581C53.8537 54.9816 54.2005 55.0755 54.5759 54.9481C55.1834 54.7402 55.5693 54.3491 55.744 53.8082C55.7623 53.7546 55.7727 53.6898 55.757 53.6361C55.684 53.3813 55.6189 53.1265 55.5198 52.8785C55.4494 52.7019 55.2773 52.57 55.0635 52.5298C54.8236 52.4851 54.5733 52.4762 54.3256 52.465C54.2057 52.4583 54.1509 52.5253 54.1744 52.6281C54.2005 52.7399 54.2318 52.8516 54.2683 52.9634C54.3491 53.2271 54.3517 53.2249 54.6802 53.2182C54.8966 53.2137 55.1156 53.2115 55.3138 53.3098C55.1834 53.6652 54.7428 54.063 54.3647 54.1681C54.1379 54.2306 53.9085 54.2306 53.6947 54.1301C53.5539 54.0608 53.4183 53.9759 53.301 53.8842C52.743 53.4327 52.1981 52.9701 51.6297 52.5253C51.1525 52.1476 50.6545 51.7855 50.1618 51.419C50.0914 51.3676 50.0079 51.3318 49.9297 51.2894M53.2149 57.6078C53.2384 57.6234 53.2645 57.6413 53.2905 57.6592C53.374 57.6055 53.46 57.5608 53.5356 57.5005C54.2318 56.9574 54.9331 56.421 55.6162 55.8667C56.7504 54.9503 57.2536 53.7613 57.5378 52.4918C57.6891 51.8079 57.0816 51.1061 56.2055 51.1485C56.1768 51.1485 56.1481 51.1441 56.1195 51.1463C55.9839 51.1508 55.8822 51.115 55.804 51.0122C55.7649 50.963 55.6919 50.9005 55.6293 50.8982C55.3868 50.8848 55.1417 50.8915 54.8732 50.8915C54.9566 51.1463 55.0035 51.3877 55.2695 51.5196C55.6632 51.7162 56.0777 51.8615 56.5471 51.857C56.7165 51.857 56.8834 51.8839 57.0607 51.8995C57.0529 51.9688 57.0529 52.009 57.0424 52.0493C56.8652 52.8628 56.5366 53.6317 56.0569 54.3513C55.5902 55.0531 55.0061 55.6857 54.4195 56.3137C54.0727 56.6869 53.7129 57.0513 53.3609 57.42C53.3036 57.4781 53.2619 57.5452 53.2149 57.6078ZM28.5706 59.6819C28.3699 59.74 28.3673 59.7378 28.3177 59.7981C28.0387 60.1356 27.8015 60.4887 27.6581 60.8866C27.5746 61.1235 27.5329 61.3649 27.5903 61.6129C27.6842 62.0197 27.9736 62.3036 28.3725 62.5137C28.9331 62.8087 29.551 62.9428 30.2028 62.9808C31.7411 63.0702 33.1751 62.7729 34.5179 62.1359C34.989 61.9124 35.3088 61.5802 35.4774 61.1391C35.5426 60.9693 35.5921 60.7972 35.6521 60.6139C35.8555 60.6139 36.0458 60.6206 36.2361 60.6139C36.8619 60.5826 37.4407 60.4239 37.9674 60.1311C38.1629 60.0238 38.2907 59.8808 38.3559 59.6908C38.4497 59.4181 38.5071 59.141 38.4132 58.8661C38.3507 58.6806 38.2646 58.4906 38.1316 58.3364C37.9048 58.0637 37.5528 58.0615 37.3077 58.3275C37.1826 58.4638 37.0835 58.6359 37.0314 58.8057C36.9427 59.0896 36.8906 59.3846 36.841 59.6752C36.8202 59.7914 36.7732 59.8584 36.6298 59.8562C36.3508 59.8562 36.0719 59.8763 35.7955 59.8495C35.4487 59.816 35.1254 59.7109 34.9012 59.4539C34.8516 59.398 34.7786 59.36 34.7109 59.3109C34.5179 59.483 34.4371 59.6774 34.3745 59.8719C34.3484 59.9501 34.4032 60.0618 34.4553 60.1423C34.5023 60.2183 34.5961 60.2764 34.6691 60.3412C34.8803 60.5267 35.0368 60.739 35.1228 60.9894C35.1932 61.195 35.1906 61.2308 34.9768 61.3313C34.6483 61.4855 34.3224 61.642 33.9808 61.7716C32.7762 62.2276 31.5221 62.4019 30.2132 62.2276C29.6866 62.1583 29.1886 62.0197 28.7505 61.7448C28.3308 61.4833 28.117 61.1346 28.1535 60.6876C28.1743 60.4373 28.2812 60.2093 28.4168 59.9881C28.4716 59.8987 28.5081 59.8026 28.5654 59.6841M10.1474 51.1932C10.017 51.2268 9.91535 51.2379 9.82931 51.2759C9.33913 51.4883 8.98454 51.8123 8.77074 52.2459C8.67688 52.4337 8.67688 52.6326 8.72642 52.8293C8.80985 53.1802 9.13316 53.3947 9.55293 53.3836C9.67808 53.3813 9.80063 53.3545 9.92317 53.3456C10.3169 53.321 10.7054 53.283 11.0991 53.2808C11.305 53.2808 11.5162 53.3344 11.717 53.3836C11.9204 53.4327 12.0299 53.5668 12.0507 53.7479C12.0586 53.8216 12.0612 53.8954 12.0612 53.9691C12.0612 54.2619 12.1368 54.5391 12.2671 54.8073C12.4992 55.2878 12.8668 55.6901 13.3127 56.0321C14.4703 56.9239 15.8261 57.4692 17.3592 57.6972C17.8702 57.7732 18.3422 57.7106 18.7646 57.4133C19.0826 57.1921 19.3121 56.9373 19.4033 56.5908C19.5311 56.1036 19.6693 55.6164 19.8023 55.1269C19.8414 54.9816 19.9013 54.8453 20.05 54.7492C20.1595 54.6777 20.1855 54.5748 20.1881 54.4653C20.1908 54.2508 20.196 54.0362 20.1986 53.8239C20.1986 53.7702 20.1829 53.7166 20.1699 53.6428C19.9405 53.6786 19.7944 53.8038 19.6302 53.8932C19.5129 53.9602 19.4398 54.0518 19.4294 54.1792C19.4268 54.2284 19.4112 54.2753 19.3955 54.3245C19.1296 55.2074 18.8636 56.088 18.5977 56.9708C18.5742 57.0468 18.5403 57.1228 18.5038 57.2122C18.3057 57.201 18.1205 57.201 17.9433 57.1786C16.8899 57.0513 15.92 56.7227 15.0335 56.2288C14.6346 56.0075 14.2539 55.746 13.9124 55.4621C13.3127 54.9615 12.9007 54.367 12.9164 53.6138C12.9164 53.5579 12.8981 53.502 12.8903 53.4439C12.8668 53.2539 12.7495 53.1131 12.5383 53.0595C12.2854 52.9947 12.0221 52.9343 11.7561 52.9142C11.2555 52.874 10.7601 52.9232 10.2699 53.0215C9.61551 53.1534 9.30524 52.6393 9.3991 52.2661C9.47471 51.9576 9.61812 51.6917 9.89449 51.4793C9.98053 51.4123 10.1005 51.3631 10.1422 51.1977M48.4696 56.5797C48.3966 56.6825 48.3497 56.7518 48.3054 56.8188C48.1411 57.0691 47.9925 57.3306 47.81 57.5698C47.3172 58.2224 46.6106 58.6202 45.7293 58.7946C45.2705 58.884 44.8767 58.77 44.5534 58.4772C44.2458 58.1956 44.0685 57.8514 43.8703 57.5139C44.1284 57.2926 44.2041 57.0222 44.264 56.7406C44.0685 56.8814 43.8729 57.02 43.667 57.1675C43.4193 56.9417 43.315 56.6422 42.9969 56.4478C42.8326 56.8434 42.7257 57.2077 43.0803 57.5631C42.976 57.6368 42.89 57.6972 42.8039 57.7598C42.4598 58.0101 42.113 58.2559 41.7741 58.513C41.3047 58.8683 41.1327 59.3377 41.104 59.8562C41.0935 60.0685 41.2161 60.2071 41.4638 60.225C41.6124 60.2384 41.7767 60.2362 41.9175 60.1982C42.5667 60.0149 43.1429 59.7333 43.6148 59.3019C43.7634 59.1634 43.8573 59.0069 43.8755 58.8192C43.8808 58.7655 43.8912 58.7163 43.9042 58.6247C44.0607 58.8281 44.1832 59.0024 44.3292 59.1634C44.6812 59.5455 45.1453 59.7109 45.7059 59.5925C46.0109 59.5299 46.3134 59.4338 46.5924 59.3153C47.325 59.0069 47.8386 58.5063 48.2193 57.8983C48.2923 57.7866 48.3731 57.6771 48.4618 57.5519C48.6469 57.7285 48.8372 57.8425 49.0928 57.8648C49.9245 57.9341 50.7693 57.3575 50.8762 56.6489C50.884 56.5797 50.9048 56.5104 50.9231 56.4321C51.515 56.5886 51.9582 56.374 52.378 56.0947C52.5318 55.9918 52.6491 55.851 52.6596 55.6789C52.683 55.3437 52.597 55.0218 52.4119 54.7291C52.2659 54.4966 51.966 54.3893 51.6557 54.443C51.6766 54.6084 51.6949 54.776 51.7209 54.9436C51.7392 55.071 51.8226 55.1515 51.9686 55.185C52.0468 55.2006 52.1198 55.2297 52.2059 55.2565C51.9217 55.5203 51.6088 55.6566 51.262 55.6857C50.9283 55.7125 50.897 55.6879 50.8084 55.4107C50.7823 55.3258 50.7979 55.2118 50.6206 55.1649C50.6128 55.2677 50.6024 55.3549 50.6024 55.442C50.6024 55.6141 50.6206 55.7862 50.6206 55.9583C50.6206 56.0477 50.6154 56.1416 50.5868 56.2265C50.4068 56.7428 49.5777 57.163 48.9572 57.0557C48.7669 57.0244 48.6156 56.9507 48.5713 56.7696C48.5583 56.7182 48.5192 56.6713 48.467 56.5841M19.7084 59.255C19.7944 59.246 19.8492 59.2393 19.9039 59.2349C20.4254 59.1701 20.9521 59.1209 21.4709 59.0382C22.0498 58.9466 22.4591 58.656 22.6729 58.1799C22.9441 57.5765 22.8398 56.9998 22.4565 56.459C22.261 56.1818 21.9507 56.0745 21.5909 56.1304C21.0407 56.2176 20.6157 56.4701 20.3707 56.9127C20.2455 57.1339 20.2716 57.2859 20.4906 57.4401C20.6731 57.5698 20.8843 57.6748 21.0929 57.7665C21.3666 57.8872 21.6535 57.981 21.9324 58.0905C22.0445 58.133 22.1619 58.1844 22.1801 58.3409C21.4709 58.5264 20.7513 58.6538 19.9978 58.6314C20.0056 58.5465 20.0135 58.4861 20.0213 58.4079C19.9509 58.428 19.8935 58.428 19.8648 58.4526C19.6171 58.6694 19.3121 58.6515 19.0018 58.6158C18.011 58.504 17.0307 58.3386 16.0842 58.0637C15.3933 57.8626 14.7206 57.6212 14.0401 57.4021C13.9671 57.3798 13.8967 57.3217 13.782 57.4044C13.8967 57.4625 13.988 57.5139 14.0897 57.5586C14.9396 57.9386 15.7896 58.323 16.6448 58.694C17.1532 58.913 17.6851 59.0762 18.2509 59.1522C18.483 59.1835 18.715 59.2192 18.9549 59.255C18.9419 59.322 18.934 59.3623 18.9236 59.4025C18.848 59.6886 18.9757 59.9009 19.2469 60.0596C19.3512 60.1177 19.4581 60.1714 19.5702 60.2183C20.1777 60.453 20.8191 60.5357 21.4814 60.5088C22.1202 60.4843 22.7329 60.3524 23.3273 60.1579C23.6011 60.0685 23.854 59.9613 24.0417 59.7623C24.06 59.7422 24.1043 59.7378 24.1669 59.7087C24.1486 59.9255 24.133 60.1132 24.1174 60.2987C24.0913 60.6519 24.2112 60.9558 24.5684 61.1525C25.0925 61.4364 25.64 61.49 26.2058 61.233C26.7742 60.9737 27.074 60.5535 27.2357 60.0417C27.4 59.5254 27.353 59.0002 27.3243 58.475C27.3061 58.1062 27.2852 57.7352 27.2722 57.3664C27.267 57.1988 27.2826 57.0311 27.426 56.906C27.5512 56.7965 27.5564 56.6758 27.5199 56.5417C27.4573 56.3182 27.3974 56.0947 27.3296 55.8712C27.3113 55.8063 27.267 55.746 27.2148 55.6454C27.0245 55.8488 26.842 56.0008 26.7221 56.1841C26.6543 56.2869 26.6882 56.4389 26.6751 56.5707C26.6725 56.6042 26.6621 56.6355 26.6621 56.6691C26.6621 57.3753 26.6569 58.0816 26.6621 58.7879C26.6647 59.1745 26.6934 59.559 26.6882 59.9456C26.6882 60.1177 26.6334 60.2876 26.6047 60.4574C26.5787 60.6161 26.4718 60.6988 26.2866 60.7301C25.9712 60.7882 25.6739 60.7502 25.3871 60.6407C25.0169 60.4977 24.7118 60.263 24.7509 59.7936C24.777 59.483 24.8187 59.1723 24.8448 58.8616C24.8787 58.4459 24.9673 58.0302 24.8735 57.61C24.8187 57.3642 24.7796 57.1138 24.5919 56.8792C24.2425 57.1317 23.9896 57.3619 24.0574 57.8022C24.1304 58.2783 24.0835 58.77 24.0809 59.2528C24.0809 59.3913 24.0183 59.5031 23.8436 59.5567C23.051 59.8026 22.2557 60.0037 21.3979 59.9255C20.9573 59.8853 20.5245 59.816 20.1282 59.6327C19.9587 59.5545 19.7944 59.4673 19.7032 59.2684M33.05 64.1095C32.917 64.0961 32.7867 64.0737 32.6511 64.0715C31.4309 64.0514 30.2132 63.9731 29.0035 63.8435C26.4718 63.5708 23.9974 63.0769 21.5909 62.3527C11.8265 59.4181 3.95765 52.9701 0.114477 44.7541C0.0831897 44.6871 0.0545093 44.6178 -0.000244141 44.4882C0.127514 44.5507 0.205733 44.5865 0.276131 44.6267C2.32026 45.8113 4.36178 46.9959 6.40591 48.1804C6.88305 48.4576 7.36019 48.7325 7.83993 49.0052C7.91815 49.0499 8.00419 49.0878 8.11631 49.146C8.13456 49.061 8.15542 49.0029 8.15542 48.9448C8.19713 47.5725 8.23624 46.2024 8.28057 44.8301C8.33011 43.2298 8.38486 41.6273 8.43701 40.0271C8.43701 39.998 8.44222 39.9667 8.47872 39.9287C8.51523 40.0002 8.55173 40.0718 8.58562 40.1455C11.3989 46.5265 17.5522 51.6715 25.0768 53.9312C26.9776 54.5033 28.9278 54.8833 30.9329 55.0554C35.772 55.4756 40.3739 54.7469 44.7177 52.9053C50.6519 50.3864 55.0296 46.5444 57.822 41.3971C58.0541 40.9635 58.2496 40.5165 58.4608 40.0762C58.4843 40.0271 58.5104 39.9779 58.5782 39.9354C58.6746 42.9929 58.7685 46.0504 58.865 49.1571C58.9979 49.0946 59.0918 49.0588 59.1726 49.0096C60.2077 48.4129 61.2428 47.8161 62.2779 47.2194C63.7563 46.3611 65.2346 45.5029 66.713 44.6446C66.7912 44.5999 66.8694 44.5575 66.9945 44.5373C66.9607 44.6178 66.9241 44.7005 66.8876 44.7787C64.7027 49.403 61.4071 53.3545 56.9929 56.611C52.4484 59.968 47.2416 62.2075 41.3856 63.3406C39.829 63.6423 38.2568 63.8569 36.6637 63.9597C35.9363 64.0067 35.2062 64.0312 34.4788 64.067C34.3276 64.0737 34.1764 64.0938 34.0225 64.1095H33.0422" fill="#A51E1C"/>
<path id="Vector_2" d="M39.4014 15.2184C39.4248 15.0709 39.4457 14.9458 39.4666 14.8027C39.3909 14.7938 39.3232 14.7871 39.2345 14.7781C39.2684 14.6753 39.3049 14.5837 39.3336 14.4898C39.3623 14.3937 39.3857 14.2998 39.2945 14.2104C39.211 14.13 39.2501 14.0428 39.2893 13.9556C39.3701 13.7746 39.4457 13.5891 39.537 13.3745C39.4196 13.3835 39.3414 13.3902 39.2397 13.3991C39.3127 13.0996 39.3831 12.8158 39.4639 12.4872C39.3414 12.5364 39.2658 12.5677 39.1589 12.6102C39.1771 12.4001 39.1954 12.2101 39.2136 12.0201C39.198 12.0156 39.1798 12.0089 39.1641 12.0045C39.1067 12.0581 39.0494 12.1118 38.9477 12.2056C38.9373 11.8815 38.9294 11.6022 38.919 11.296C38.7183 11.363 38.7626 11.5262 38.6453 11.6133C38.4888 11.4368 38.5957 11.2177 38.5045 11.0121C38.4236 11.0546 38.3584 11.0903 38.275 11.1373C38.2463 10.954 38.2255 10.7953 38.1968 10.6165C38.1029 10.65 38.0351 10.6746 37.9595 10.7014C37.8657 10.431 37.6962 10.2366 37.3155 10.1941C37.3546 10.469 37.3781 10.7305 37.4276 10.9875C37.6023 11.8927 37.6362 12.8001 37.5293 13.712C37.3964 14.8608 36.9557 15.918 36.2022 16.8791C36.0823 17.0355 35.9206 17.1584 35.7329 17.3082C35.7329 16.8947 35.7146 16.5282 35.7381 16.1639C35.759 15.8174 35.7955 15.4799 35.7199 15.1335C35.6938 15.0128 35.7225 14.872 35.7642 14.7491C35.8268 14.5546 35.9154 14.3669 36.0067 14.1568C35.7642 14.1568 35.7381 14.3535 35.5712 14.4451C35.5634 14.3557 35.5556 14.2864 35.553 14.2194C35.5347 13.8752 35.5191 13.531 35.4904 13.1868C35.4826 13.1108 35.4409 13.0281 35.3861 12.9678C35.2245 12.7912 35.1541 12.5945 35.1332 12.3755C35.115 12.2235 35.0889 12.0738 35.0654 11.8972C34.8386 11.9888 34.7473 12.1341 34.6952 12.2883C34.5544 12.7219 34.3979 13.16 34.4136 13.6159C34.4605 15.0106 34.5257 16.4075 34.5778 17.8021C34.6091 18.647 34.6378 19.494 34.6535 20.3389C34.6769 21.5972 34.6926 22.8511 34.7108 24.1094C34.7186 24.6748 34.836 25.2202 35.1254 25.732C35.3392 26.1164 35.3574 26.5076 35.1593 26.9009C34.8933 27.4351 34.9742 27.9492 35.3131 28.4342C35.5399 28.7582 35.8085 29.06 36.0536 29.3751C36.137 29.4846 36.2231 29.5964 36.2804 29.7171C36.4264 30.0143 36.3117 30.2535 35.9467 30.3295C35.5947 30.4032 35.2297 30.4546 34.8699 30.4613C33.7931 30.4814 32.7188 30.4859 31.642 30.4725C31.2926 30.468 30.9354 30.4144 30.5913 30.3451C30.1454 30.2557 30.0072 30.0143 30.2158 29.6612C30.3749 29.393 30.5861 29.1449 30.7894 28.8946C31.0371 28.5884 31.2457 28.2665 31.3448 27.9022C31.4595 27.482 31.4517 27.0641 31.2327 26.673C31.058 26.3601 31.0762 26.0896 31.277 25.7901C31.569 25.3521 31.6472 24.8581 31.6733 24.3642C31.7567 22.7952 31.7932 21.2284 31.8193 19.6594C31.8428 18.1642 31.9575 16.6712 32.0018 15.1782C32.0253 14.3825 31.994 13.5846 31.9653 12.789C31.9523 12.4515 31.788 12.1587 31.4647 11.9017C31.4334 11.9933 31.4126 12.0581 31.3865 12.1341C31.3135 12.1252 31.2405 12.1162 31.1623 12.1073C31.1727 12.2906 31.2014 12.4694 31.1857 12.6459C31.1701 12.8158 31.1075 12.9834 31.0658 13.16H30.8494C30.8885 13.3008 30.9276 13.4237 30.9589 13.5511C30.985 13.6562 31.0006 13.7567 30.8624 13.8327C30.8181 13.8573 30.8025 13.9445 30.8025 14.0026C30.8025 14.083 30.8311 14.1613 30.8546 14.282C30.6565 14.1546 30.6226 13.9735 30.4661 13.835C30.4531 13.8931 30.4296 13.9355 30.4401 13.9691C30.4948 14.1523 30.5548 14.3334 30.6174 14.5144C30.646 14.5926 30.6799 14.6709 30.706 14.7491C30.7738 14.9592 30.7738 14.9614 30.56 15.0977C30.6747 15.7884 30.8233 16.4812 30.7608 17.2143C30.5522 17.1853 30.4635 17.0646 30.367 16.9595C29.7752 16.3069 29.3789 15.5783 29.1468 14.7759C28.8235 13.6427 28.7818 12.5029 29.006 11.3541C29.0634 11.0546 29.0999 10.7506 29.1312 10.4489C29.1442 10.3059 29.1651 10.1583 29.0869 10.0108C28.7349 10.0511 28.8861 10.3327 28.7505 10.4847C28.701 10.4511 28.6514 10.4176 28.5863 10.3774C28.5315 10.4109 28.4794 10.4668 28.4142 10.4802C28.3646 10.4914 28.2968 10.4534 28.2004 10.4265V11.097C28.1795 11.0993 28.1561 11.1038 28.1352 11.106C28.0961 10.9987 28.057 10.8892 28.0126 10.7663C27.8432 10.9071 27.9057 11.0568 27.9214 11.1999C27.937 11.3451 27.9709 11.4859 28.0022 11.6513C27.6815 11.591 27.8223 11.2826 27.5772 11.1842C27.486 11.4412 27.5798 11.705 27.5068 11.9709C27.3009 11.8972 27.4182 11.6625 27.1992 11.591C27.0375 11.924 27.2878 12.219 27.3243 12.5521C27.22 12.5096 27.1392 12.4761 27.0349 12.4336C26.9593 12.599 27.0375 12.7353 27.0792 12.8717C27.1183 13.0058 27.1653 13.1399 27.2148 13.2918C27.134 13.303 27.074 13.312 27.0062 13.3209C26.9358 13.4617 27.0193 13.5936 27.0688 13.721C27.1522 13.9355 27.22 14.1412 27.0688 14.3602C27.0219 14.4295 27.0453 14.5345 27.0349 14.6329C26.9749 14.6485 26.915 14.6664 26.8368 14.691C26.8654 14.834 26.8967 14.9726 26.9254 15.1112C26.9124 15.1156 26.8993 15.1179 26.8863 15.1223C26.8628 15.1 26.8341 15.0799 26.8185 15.053C26.4926 14.5144 26.1458 13.9825 25.846 13.4327C25.2541 12.3442 25.361 11.2759 26.0624 10.25C26.2996 9.90355 26.5891 9.58394 26.8576 9.25315C27.0479 9.02294 27.1548 8.77709 27.1157 8.49101C27.1105 8.46195 27.0975 8.43066 27.0766 8.35914C26.9906 8.46195 26.9306 8.53571 26.8576 8.62735C26.7898 8.59606 26.7194 8.56253 26.6099 8.51112C26.5682 8.65417 26.5343 8.77486 26.4926 8.91566C26.4248 8.9179 26.3466 8.92237 26.2371 8.92684C26.151 9.11235 26.0624 9.30679 25.9555 9.54371C25.8903 9.41631 25.8512 9.33808 25.799 9.23527C25.6009 9.43643 25.6165 9.69345 25.4575 9.90355C25.4027 9.83426 25.3584 9.77838 25.2828 9.68451C25.202 9.87449 25.1342 10.0332 25.0612 10.2075C24.983 10.1919 24.9047 10.1785 24.8031 10.1583C24.7431 10.4154 24.6831 10.6702 24.6101 10.9697C24.5319 10.8668 24.485 10.802 24.412 10.7037C24.3728 10.7797 24.3337 10.8221 24.3259 10.8691C24.3103 10.992 24.3103 11.1149 24.2972 11.2379C24.2894 11.3027 24.2816 11.3697 24.2529 11.4301C24.1851 11.5776 24.1069 11.7206 24.0209 11.8905C24.0026 11.8882 23.9426 11.8771 23.8879 11.8659C23.8722 11.8815 23.8488 11.8905 23.8488 11.9039C23.8175 12.295 23.7158 12.6817 23.781 13.0795C23.8149 13.2784 23.7758 13.3611 23.635 13.5176C23.6063 13.4729 23.5672 13.4371 23.5542 13.3947C23.2726 12.5722 23.0535 11.7407 23.0874 10.8758C23.1213 10.0108 23.4655 9.26209 24.1747 8.63405C25.1707 7.75121 26.3231 7.10082 27.7285 6.79909C27.9292 6.75663 28.1222 6.6784 28.3307 6.61359C28.2343 6.47054 28.1039 6.49513 27.984 6.49736C27.7936 6.49736 27.6059 6.4996 27.4156 6.51301C27.353 6.51748 27.2852 6.54207 27.2305 6.57112C27.0036 6.70746 26.7846 6.7678 26.6125 6.59571C26.4222 6.61806 26.2814 6.63594 26.0963 6.65829C26.0441 6.70969 25.9555 6.79239 25.8434 6.90414C25.8173 6.80356 25.799 6.72757 25.7756 6.64041C25.5122 6.66499 25.4679 6.89296 25.288 7.01366C25.2228 6.99354 25.1472 6.96672 25.0507 6.93766C24.9882 7.00025 24.9204 7.06506 24.8448 7.13882C24.7848 7.09635 24.73 7.05612 24.6544 7.00248C24.5606 7.18352 24.4745 7.34444 24.3859 7.5143C24.3129 7.48525 24.2477 7.45619 24.159 7.42043C24.0939 7.50089 24.0313 7.57018 23.9765 7.64393C23.9374 7.69981 23.9192 7.76462 23.8827 7.82273C23.7471 8.03506 23.4551 8.12893 23.3247 8.35244C23.3065 8.38373 23.1865 8.37479 23.0979 8.38596C23.0431 8.58488 22.9936 8.78603 22.9388 8.98495C22.9154 9.06988 22.9049 9.16152 22.7694 9.18834C22.652 9.21292 22.6651 9.3135 22.6598 9.39396C22.6546 9.50348 22.6442 9.61076 22.4747 9.64875C22.3496 9.54818 22.3548 9.41184 22.3678 9.28891C22.3965 9.03412 22.4226 8.77933 22.493 8.53347C22.9388 6.9399 24.159 5.95425 25.9112 5.39773C26.6568 5.16082 27.4364 5.08036 28.2212 5.00884C28.4872 4.98425 28.7531 4.93732 29.0139 4.89038C29.1677 4.86132 29.3215 4.81439 29.431 4.66017C29.3267 4.649 29.2563 4.63782 29.1833 4.63112C29.0686 4.61994 28.9513 4.62665 28.8418 4.60206C28.4481 4.51266 28.0674 4.53054 27.6789 4.62665C27.5929 4.64676 27.4782 4.58418 27.3191 4.54619C27.2331 4.58865 27.0923 4.66017 26.9358 4.74063C26.8967 4.69817 26.8602 4.6557 26.8029 4.58865C26.6177 4.65347 26.43 4.72946 26.2345 4.78757C26.1197 4.82109 25.9946 4.81886 25.8799 4.85015C25.7495 4.88591 25.627 4.93955 25.4497 5.00437C25.3349 4.9619 25.1994 4.99766 25.0429 5.09824C24.7483 5.28821 24.425 5.4402 24.1121 5.61006C24.0965 5.59888 24.0808 5.58547 24.0652 5.57653C24.1382 5.47596 24.2034 5.37091 24.2868 5.27704C24.8969 4.58865 25.6191 4.00531 26.4822 3.5516C27.2982 3.12247 28.1952 2.99061 29.1364 3.05989C29.6813 3.09789 30.2236 3.15153 30.7686 3.19399C30.8572 3.2007 30.9485 3.18729 31.0397 3.18505C31.0476 3.16494 31.0528 3.14482 31.0632 3.12471C31.0006 3.08671 30.9433 3.03978 30.8755 3.01072C30.7712 2.96826 30.6512 2.94814 30.5574 2.8945C30.3071 2.74922 30.0437 2.64194 29.7465 2.59501C29.6761 2.58383 29.6161 2.52796 29.5484 2.50337C29.418 2.4542 29.2876 2.38715 29.152 2.38268C29.0034 2.37597 28.8939 2.34245 28.8131 2.22846C28.6332 2.32233 28.4533 2.36703 28.2447 2.38491C28.01 2.40503 27.7832 2.50114 27.5355 2.51008C27.4208 2.51455 27.3087 2.58607 27.147 2.64418C27.1861 2.56372 27.1966 2.51455 27.2305 2.47208C27.3713 2.29998 27.5642 2.17706 27.7832 2.08989C29.0321 1.58254 30.2601 1.55125 31.4595 2.20388C31.6551 2.30892 31.8506 2.41397 32.0566 2.50337C32.213 2.57266 32.3877 2.61959 32.5937 2.68888C32.6119 2.42068 32.6172 2.19494 32.6406 1.9692C32.6641 1.74346 32.7058 1.51772 32.7397 1.28528C32.8622 1.27634 32.9457 1.26964 33.0578 1.2607C33.1021 0.891916 33.0291 0.500787 33.222 0.107422C33.3394 0.243759 33.3733 0.36892 33.3889 0.496317C33.4098 0.699704 33.4176 0.905327 33.4411 1.11095C33.4489 1.17129 33.4724 1.2674 33.5167 1.27858C33.6809 1.32775 33.6627 1.43503 33.6679 1.53784C33.6757 1.64512 33.6731 1.75017 33.6862 1.85745C33.694 1.92003 33.6992 2.00049 33.7461 2.04072C33.9104 2.18823 33.9234 2.36033 33.9104 2.54584C33.9078 2.60171 33.9182 2.65759 33.926 2.75369C34.0616 2.7157 34.1841 2.69782 34.2884 2.65088C34.6274 2.4989 34.9689 2.34915 35.2975 2.17706C36.1866 1.70994 37.1174 1.64736 38.0847 1.96026C38.335 2.04072 38.5775 2.14353 38.8147 2.25305C39.0103 2.34245 39.1615 2.47655 39.2267 2.67323C39.1094 2.75146 39.0129 2.69782 38.919 2.671C38.5331 2.55701 38.1394 2.49443 37.7301 2.53243C37.6414 2.54137 37.5398 2.56819 37.4746 2.61736C37.3755 2.68888 37.2712 2.7157 37.1565 2.69111C36.8827 2.62853 36.6481 2.69782 36.4212 2.82074C36.3274 2.87215 36.2257 2.91462 36.0979 2.97496C36.356 3.15153 36.6246 3.156 36.8853 3.156C37.1565 3.156 37.4224 3.13588 37.691 3.10906C38.773 3.00625 39.7247 3.25658 40.5303 3.89132C40.8823 4.16847 41.2395 4.44561 41.5889 4.72722C41.8627 4.94626 42.0999 5.19211 42.2772 5.5363C42.1729 5.48937 42.1078 5.46478 42.0504 5.43349C41.7453 5.27704 41.4403 5.12506 41.0805 5.07142C40.971 5.05577 40.8745 4.98425 40.7676 4.9552C40.5382 4.89038 40.3374 4.7831 40.1236 4.68923C40.0011 4.63559 39.8472 4.63112 39.6986 4.6043C39.6412 4.66688 39.5917 4.72275 39.5187 4.80321C39.3805 4.72722 39.2397 4.649 39.0833 4.56183C39.0416 4.60877 39.0025 4.65123 38.9529 4.70711C38.8903 4.68252 38.8173 4.66464 38.7574 4.63112C38.6114 4.54619 38.4732 4.49925 38.3167 4.61324C38.2854 4.63559 38.2229 4.63782 38.1785 4.63335C37.9413 4.61324 37.7118 4.61547 37.5085 4.75181C37.485 4.76745 37.4329 4.77416 37.4042 4.76298C37.1826 4.68252 37.1278 4.83897 37.0131 4.95296C37.1565 5.03342 37.2973 5.03789 37.4381 5.04683C38.069 5.09824 38.7026 5.13176 39.331 5.20552C40.3817 5.32398 41.3751 5.59665 42.2199 6.17105C43.5366 7.0673 44.1571 8.24069 44.0685 9.68228C44.0658 9.7158 44.058 9.74709 44.045 9.83202C43.9824 9.73815 43.9407 9.68228 43.9042 9.62417C43.6226 9.19504 43.3384 8.76815 43.062 8.33456C42.9786 8.20716 42.8821 8.10882 42.6735 8.12446C42.637 7.76015 42.3685 7.54112 42.066 7.33773C41.9748 7.27739 41.894 7.22151 41.7584 7.23045C41.6932 7.23492 41.6098 7.17234 41.5524 7.12541C41.482 7.07177 41.4325 7.00025 41.3308 6.88849C41.2943 6.95778 41.2682 7.00919 41.2265 7.08741C41.0805 6.93543 40.9684 6.81921 40.8354 6.68287C40.752 6.79239 40.6998 6.85944 40.6398 6.93766C40.5329 6.82591 40.4391 6.72757 40.3217 6.60688C40.1966 6.81921 39.9202 6.60688 39.7899 6.79015C39.6856 6.7231 39.5943 6.66723 39.4718 6.59124C39.417 6.7678 39.4874 6.89073 39.6047 6.98237C39.7247 7.07624 39.8629 7.14999 40.0011 7.22822C40.5355 7.53218 41.0805 7.82497 41.6072 8.14234C42.5927 8.7391 43.1637 9.55488 43.3071 10.5852C43.414 11.3608 43.3202 12.1274 43.0907 12.8806C43.0073 13.1577 42.9004 13.4282 42.8091 13.6919C42.4962 13.5019 42.5719 13.2717 42.6892 13.0393C42.71 12.9968 42.7179 12.9454 42.7335 12.8918C42.6527 12.8493 42.5823 12.8113 42.4989 12.7666C42.5093 12.5744 42.5197 12.38 42.5327 12.1766H42.3007C42.3137 12 42.2877 11.8391 42.1912 11.6804C42.1417 11.5955 42.1808 11.4703 42.1703 11.3653C42.1547 11.2133 42.1338 11.0635 42.1078 10.878C41.993 10.9406 41.9226 10.9741 41.8262 11.0255C41.8001 10.7953 41.7766 10.5875 41.7479 10.3684C41.6489 10.3751 41.568 10.3796 41.4507 10.3863C41.3934 10.174 41.3334 9.95719 41.2604 9.68228C41.1665 9.80967 41.1092 9.88566 41.0231 9.99965C40.9319 9.7538 40.8484 9.53924 40.7598 9.29115C40.6607 9.38055 40.5851 9.44983 40.4756 9.54818C40.3765 9.33361 40.2852 9.13917 40.1888 8.92907C39.8889 8.96707 39.842 8.74357 39.7299 8.56476C39.4744 8.63629 39.3101 8.54241 39.1902 8.35691C39.1563 8.3055 39.0859 8.27198 39.0181 8.22281C38.8956 8.37032 38.9607 8.49771 39.0181 8.61393C39.0676 8.71675 39.1485 8.81285 39.2293 8.90449C39.537 9.25315 39.8524 9.59511 40.1549 9.94378C40.7233 10.5986 41.0179 11.334 40.9866 12.152C40.9736 12.4448 40.9188 12.742 40.8328 13.0259C40.6164 13.7254 40.2253 14.3535 39.7351 14.9391C39.6673 15.0195 39.5891 15.091 39.5109 15.1626C39.4926 15.1782 39.4666 15.1871 39.4118 15.2162" fill="#135C2E"/>
<path id="Vector_3" d="M30.5861 37.5265C30.3332 37.5801 30.1976 37.7165 30.0542 37.8506C29.6057 38.2663 29.1599 38.682 28.7114 39.0977C28.4794 39.3145 28.2343 39.5268 28.0153 39.7526C27.7441 40.0364 27.8354 40.3136 28.2369 40.479C28.6879 40.1236 30.474 37.8953 30.5861 37.5287M38.3506 40.5214C38.408 40.432 38.4758 40.3449 38.5279 40.2488C38.6322 40.0565 38.5957 39.8822 38.4236 39.728C38.3897 39.6989 38.3585 39.6676 38.3246 39.6386C37.631 39.015 36.9375 38.3892 36.2413 37.7679C36.1422 37.6807 36.0275 37.6047 35.9128 37.531C35.8789 37.5086 35.8163 37.522 35.7094 37.5153C35.7877 37.6271 35.8346 37.7053 35.8945 37.7746C36.2465 38.2037 36.5985 38.6328 36.9531 39.062C37.2868 39.4643 37.6206 39.8643 37.9595 40.2622C38.0534 40.3739 38.1499 40.4901 38.3532 40.5192M29.8769 43.2035C29.9603 43.1833 30.1115 43.1565 30.2471 43.1029C30.4322 43.0269 30.5339 42.8861 30.56 42.7118C30.6069 42.3899 30.4088 42.2491 30.049 42.3474C29.8378 42.4056 29.6318 42.4704 29.4206 42.5195C29.0817 42.5978 28.787 42.5128 28.5654 42.2871C28.4246 42.1441 28.289 41.9876 28.2004 41.82C27.8119 41.0891 27.4312 40.3538 27.0636 39.6162C26.8446 39.1782 26.6647 38.7267 26.4457 38.2909C26.3414 38.083 26.1954 37.8863 26.0415 37.7008C25.9268 37.5667 25.7495 37.5421 25.6061 37.6002C25.4392 37.6673 25.3715 37.7858 25.3688 37.9377C25.3662 38.1389 25.494 38.2573 25.6974 38.3289C26.0363 38.4473 26.2553 38.6664 26.4066 38.9435C26.4509 39.024 26.49 39.1089 26.5291 39.1938C26.915 39.9895 27.2956 40.7852 27.6867 41.5786C27.9423 42.0949 28.3151 42.5352 28.834 42.8816C29.1208 43.0738 29.4467 43.1811 29.8821 43.2012M36.6481 43.2415C36.9583 43.2236 37.3546 43.1208 37.5684 42.9598C38.0143 42.6179 38.421 42.2491 38.6661 41.7708C39.1511 40.8321 39.6413 39.8956 40.121 38.9547C40.2644 38.6731 40.4391 38.4339 40.8041 38.3289C40.9032 38.2998 40.9892 38.2126 41.057 38.1389C41.1561 38.0316 41.1509 37.9132 41.0674 37.7925C40.8719 37.5108 40.546 37.484 40.3322 37.7589C40.181 37.9534 40.0688 38.1747 39.9672 38.3959C39.6126 39.1938 39.2814 39.9984 38.9164 40.7919C38.6583 41.3529 38.2985 41.8669 37.8292 42.3206C37.5919 42.5508 37.3051 42.6089 36.9714 42.5151C36.8149 42.4726 36.6663 42.4145 36.5125 42.3698C36.4134 42.343 36.3091 42.3162 36.2048 42.3095C36.0406 42.2983 35.9232 42.372 35.8737 42.4994C35.7798 42.7319 35.8972 43.0045 36.1579 43.1096C36.3117 43.1722 36.4838 43.199 36.6481 43.2415ZM26.6073 41.1204C26.3596 41.2165 26.1771 41.3618 25.9946 41.5026C25.5331 41.8602 25.069 42.2178 24.5971 42.5665C24.3833 42.7252 24.1252 42.8168 23.841 42.8459C23.3456 42.8973 23.2491 42.8235 23.2048 42.3989C23.1865 42.2133 23.1396 42.0278 23.0927 41.8423C23.0614 41.7149 22.9571 41.6255 22.8137 41.5786C22.4852 41.4713 22.141 41.5853 21.9872 41.8624C21.8307 42.1463 21.7994 42.448 21.8672 42.7542C21.9376 43.0604 22.154 43.275 22.5138 43.3532C22.6885 43.389 22.8763 43.4068 23.0562 43.3957C23.9088 43.3398 24.6909 43.1096 25.3636 42.6469C25.7521 42.3787 26.1302 42.0994 26.5082 41.82C26.7846 41.6144 26.8081 41.4333 26.6099 41.1204M39.962 41.0869C39.7143 41.3663 39.7038 41.5697 39.9333 41.7865C40.5434 42.3542 41.2291 42.8347 42.0739 43.1297C42.5693 43.3018 43.0803 43.4024 43.6174 43.3666C44.0737 43.3376 44.47 43.199 44.6421 42.8012C44.8115 42.4011 44.6707 42.0345 44.3657 41.7239C44.1232 41.4758 43.7086 41.5071 43.5079 41.7797C43.4036 41.9206 43.3541 42.0927 43.3019 42.258C43.2628 42.3743 43.268 42.5017 43.2498 42.6224C43.2159 42.8436 43.1298 42.9062 42.8717 42.8861C42.7961 42.8794 42.7205 42.8682 42.6501 42.8436C42.1547 42.6805 41.6776 42.4927 41.2943 42.1664C40.9293 41.8535 40.5538 41.5473 40.181 41.2411C40.1132 41.1852 40.0402 41.1383 39.9672 41.0869M33.2247 37.0571C33.123 37.1376 33.0395 37.2024 32.9587 37.2695C31.5299 38.4451 30.2575 39.7414 28.9721 41.0265C28.8783 41.1204 28.8027 41.2277 28.7427 41.3372C28.6175 41.5697 28.6462 41.7865 28.8626 41.972C29.079 42.153 29.3346 42.1843 29.6083 42.0904C29.7778 42.0323 29.9316 41.9474 30.0933 41.8759C30.2028 41.8267 30.3097 41.7686 30.4244 41.7306C30.6643 41.6501 30.8207 41.6881 30.9928 41.849C31.5143 42.3385 31.4882 43.1565 30.9328 43.6192C30.5782 43.9142 30.1454 43.9433 29.697 43.8539C29.0738 43.7309 28.5863 43.418 28.1795 43.0068C28.0387 42.8615 27.9031 42.7118 27.765 42.5642C27.6972 42.4972 27.6294 42.4301 27.5407 42.343C27.34 42.4413 27.1418 42.524 26.9619 42.6291C26.3179 43.0023 25.6843 43.389 25.0403 43.7622C24.4928 44.0796 23.8931 44.283 23.2256 44.3433C22.1019 44.4417 21.2623 43.988 20.9468 43.0627C20.6835 42.2916 20.8791 41.5987 21.5491 41.0221C21.7734 40.8276 22.0445 40.6846 22.3757 40.6533C22.8528 40.6041 23.2178 40.7807 23.5046 41.0869C23.6793 41.2724 23.8227 41.478 23.9765 41.6769C24.1173 41.8624 24.1356 41.8669 24.365 41.7753C24.4146 41.7552 24.4667 41.7306 24.5163 41.7038C25.0612 41.4043 25.5409 41.0422 25.9607 40.6175C26.1667 40.4097 26.2475 40.1795 26.1484 39.909C26.0441 39.6274 25.9529 39.3436 25.8512 39.0597C25.7625 38.8116 25.5696 38.6552 25.2776 38.5904C25.2489 38.5837 25.2228 38.5747 25.1942 38.568C24.7092 38.4473 24.5554 38.235 24.6518 37.8148C24.7613 37.3365 25.2385 37.0057 25.7756 37.0326C26.138 37.0504 26.4039 37.1912 26.5265 37.484C26.7116 37.9176 26.8785 38.3512 27.0558 38.787C27.1236 38.948 27.1601 39.1223 27.3478 39.2676C27.4443 39.1961 27.5538 39.1335 27.6372 39.0508C28.2603 38.4473 28.8887 37.8461 29.4936 37.2292C30.0437 36.6705 30.573 36.0961 31.1023 35.5217C31.3552 35.2468 31.35 35.2378 31.1023 34.9495C30.9772 34.8042 30.8442 34.6634 30.6956 34.5338C29.3685 33.4006 27.984 32.3233 26.4222 31.4249C26.1901 31.293 25.9555 31.1656 25.7078 31.0561C23.6402 30.1286 21.5179 29.3038 19.2756 28.7227C17.998 28.3919 16.7022 28.117 15.3776 27.9695C14.4729 27.8689 13.5656 27.7929 12.6608 27.7035C12.0507 27.6432 11.4406 27.5762 10.8331 27.5113C10.7783 27.5046 10.7262 27.4868 10.6714 27.4353C10.8826 27.4063 11.0912 27.3616 11.305 27.3526C12.8851 27.2811 14.4625 27.1157 16.0477 27.1202C18.4282 27.1269 20.78 27.3325 23.0744 27.9203C24.6466 28.3227 26.1119 28.9306 27.5564 29.5877C29.2798 30.3699 30.766 31.4137 32.1661 32.5603C32.4894 32.8285 32.8075 33.1034 33.1464 33.3895C33.209 33.3515 33.282 33.3179 33.3446 33.271C33.7566 32.9514 34.1711 32.6318 34.5753 32.3032C37.3364 30.066 40.5642 28.5394 44.2379 27.708C45.5207 27.4175 46.8296 27.2521 48.1567 27.1806C49.3561 27.1135 50.5554 27.1224 51.7574 27.1738C52.6804 27.2118 53.6008 27.2387 54.5186 27.2901C55.0922 27.3236 55.6658 27.3929 56.2368 27.4488C56.2889 27.4555 56.3385 27.4778 56.4506 27.5136C56.3463 27.5359 56.3072 27.5516 56.2628 27.556C54.8497 27.6723 53.4287 27.7438 52.0234 27.9159C49.5516 28.2154 47.0982 28.6199 44.7724 29.4312C42.989 30.0503 41.2526 30.7477 39.6439 31.6595C38.5019 32.3055 37.4928 33.0944 36.5047 33.899C36.1083 34.2231 35.7303 34.5606 35.3522 34.9003C35.0654 35.1596 35.055 35.1819 35.3027 35.4569C35.8815 36.1005 36.4629 36.7465 37.0783 37.3656C37.6467 37.9422 38.262 38.4898 38.8591 39.0441C38.9477 39.1268 39.0598 39.1916 39.1902 39.2855C39.2397 39.1961 39.2788 39.1335 39.3049 39.0687C39.49 38.6284 39.6647 38.1858 39.8577 37.7478C39.9254 37.5958 40.0141 37.4483 40.121 37.3119C40.3583 37.0124 40.6763 36.932 41.0753 37.0504C41.5785 37.1979 41.9279 37.6852 41.8679 38.1389C41.8444 38.3199 41.7375 38.4429 41.5368 38.5032C41.482 38.5211 41.4273 38.5412 41.3725 38.5479C40.3791 38.6976 39.9906 40.0342 40.606 40.6399C41.0309 41.0601 41.4898 41.44 42.053 41.7194C42.3685 41.8759 42.4624 41.849 42.6423 41.5697C42.7127 41.4624 42.7674 41.3484 42.843 41.2433C43.1272 40.85 43.5392 40.6421 44.0841 40.6421C44.3448 40.6421 44.5717 40.7271 44.775 40.8544C45.2183 41.1271 45.4634 41.5071 45.5807 41.9563C45.7111 42.4592 45.6746 42.9531 45.4164 43.4247C45.0931 44.0125 44.556 44.3321 43.7947 44.3701C43.049 44.4081 42.3659 44.2383 41.7453 43.8963C41.0753 43.5275 40.4156 43.1454 39.7481 42.7721C39.563 42.6671 39.3779 42.5642 39.1902 42.4659C38.9634 42.3474 38.9581 42.3474 38.7782 42.5039C38.4888 42.7542 38.2046 43.0113 37.9126 43.2616C37.7979 43.3599 37.6832 43.4605 37.558 43.5477C37.0913 43.874 36.562 43.9477 35.9858 43.8069C35.188 43.6125 34.7317 42.6916 35.261 42.0636C35.3392 41.9697 35.4226 41.8781 35.5165 41.7954C35.6964 41.6412 35.8633 41.6233 36.0901 41.7283C36.3065 41.8312 36.5151 41.9518 36.7367 42.0524C37.0287 42.1821 37.3129 42.1552 37.571 41.9764C37.8031 41.8155 37.8787 41.5898 37.7405 41.3596C37.6362 41.1875 37.5059 41.0176 37.352 40.8746C36.622 40.175 35.8789 39.4888 35.141 38.796C34.5987 38.2842 34.0564 37.7746 33.5115 37.265C33.428 37.189 33.3316 37.1242 33.2247 37.0393" fill="#806D18"/>
<path id="Vector_4" d="M22.0576 57.2953C21.6717 57.1724 21.2467 57.1187 20.9625 56.817C21.4136 56.6092 21.9142 56.8215 22.0576 57.2953Z" fill="#A51E1C"/>
<path id="Vector_5" d="M41.4221 59.3555C41.4794 59.284 41.5159 59.2192 41.5733 59.17C42.1052 58.7096 42.6996 58.3073 43.3124 57.8916C43.4766 58.0413 43.5835 58.2 43.6409 58.3811C43.6591 58.4392 43.6252 58.5308 43.5783 58.5755C43.4792 58.6739 43.3671 58.77 43.242 58.8415C42.9291 59.0136 42.6084 59.1812 42.2825 59.3332C42.0608 59.436 41.821 59.4941 41.5629 59.4226C41.5211 59.4114 41.482 59.3846 41.4221 59.3555Z" fill="#A51E1C"/>
<path id="Vector_6" d="M38.1864 59.3647C37.8527 59.586 37.5085 59.6933 37.1018 59.7805C37.0939 59.5167 37.0627 59.2731 37.266 59.0697C37.4955 58.835 37.8031 58.844 38.0169 59.0898C38.0847 59.1658 38.1238 59.2597 38.189 59.367" fill="#A51E1C"/>
<path id="Vector_7" d="M36.7159 57.6436C36.8723 57.6592 36.9792 57.6726 37.12 57.686C36.888 57.838 36.8541 57.8358 36.7159 57.6436Z" fill="#A51E1C"/>
<path id="Vector_8" d="M21.9455 54.7609C21.7917 54.7855 21.7187 54.7341 21.6769 54.6045C21.7934 54.6194 21.8829 54.6715 21.9455 54.7609Z" fill="#A51E1C"/>
</g>
</g>
</g>
<defs>
<clipPath id="clip0_268_36227">
<rect width="67" height="64" fill="white" transform="translate(-0.000244141 0.109375)"/>
</clipPath>
</defs>
</svg>
