<svg width="172" height="65" viewBox="0 0 172 65" fill="none" xmlns="http://www.w3.org/2000/svg">
<g id="Layer_1">
<g id="Group">
<path id="Vector" d="M97.3886 41.0418L97.3039 41.0794C96.7564 41.3263 95.9867 41.5308 95.3413 41.606L95.2848 41.6107V42.1609L95.3356 42.1726C96.0789 42.3137 96.1391 42.3254 96.1391 43.2635V50.6384C96.1391 51.5999 96.0921 51.6611 95.3074 51.7551L95.2509 51.7645V52.3593H98.2561V51.7645L98.1997 51.7551C97.4169 51.6587 97.3867 51.6164 97.3867 50.6384V48.9833C97.4451 48.9716 97.509 48.9716 97.5316 48.9739C97.6107 48.9763 97.6765 49.0398 97.8365 49.2678C97.8873 49.336 98.9542 50.9346 99.5244 51.7927C99.7352 52.1077 99.8838 52.3311 99.9027 52.3593L99.9215 52.3875H99.9535C100.241 52.3664 101.003 52.3499 101.773 52.3546H101.835V51.7575H101.779C101.299 51.7151 101.135 51.6728 100.561 50.9605C100.187 50.4644 98.9524 48.7059 98.6343 48.1723C98.926 47.7444 99.4209 47.0556 99.643 46.7734C100.166 46.1034 100.448 45.9765 101.297 45.8119L101.35 45.8001V45.2218L98.576 45.3676V45.9577L98.6325 45.9624C98.8338 45.9835 99.1086 46.0282 99.1518 46.1434C99.1744 46.2045 99.1405 46.3126 99.0483 46.4749C98.8451 46.851 98.3747 47.5422 98.0811 47.8995C97.8816 48.1558 97.6671 48.3157 97.3886 48.4097V41.0371V41.0418ZM71.4053 41.0442L71.3225 41.0794C70.8934 41.2675 70.0805 41.5097 69.356 41.606L69.3015 41.6107V42.1656L69.356 42.1773C70.1144 42.3043 70.1577 42.3654 70.1577 43.2517V50.6361C70.1577 51.6235 70.088 51.6634 69.3241 51.7598L69.2676 51.7692V52.364H72.2878V51.7692L72.2314 51.7598C71.4448 51.6658 71.4053 51.614 71.4053 50.6361V41.0442ZM24.8091 41.0465L24.7263 41.0794C24.222 41.2863 23.2962 41.5026 22.6413 41.606L22.5868 41.6131V42.1726L22.6432 42.1773C23.4881 42.2714 23.5578 42.2784 23.5578 43.2047V45.2947C23.2529 45.1795 22.8634 45.1771 22.8163 45.1771C20.9346 45.1771 19.4047 46.9098 19.4047 49.0398C19.4047 51.3249 20.8461 52.545 21.8886 52.545C21.9997 52.545 22.312 52.5027 22.8634 52.1124C22.9801 52.0231 23.1212 51.9244 23.2623 51.8256C23.3639 51.7528 23.4674 51.6822 23.5596 51.614V52.5756L23.6406 52.5427C24.333 52.2582 25.1629 52.0795 25.5599 51.9949C25.6202 51.9808 25.6691 51.9737 25.7048 51.9643L25.7557 51.9526V51.3695L25.3116 51.3319C24.8769 51.2967 24.8072 51.2308 24.8072 50.448V41.0395L24.8091 41.0465ZM3.03528 41.8788C1.66724 41.8788 0.282264 42.845 0.282264 44.6881C0.282264 46.1716 1.03685 46.9498 2.42747 47.869C3.51136 48.586 4.0232 49.0468 4.0232 50.1776C4.0232 51.1791 3.46808 51.8538 2.64387 51.8538C1.39815 51.8538 0.814802 50.5514 0.543829 49.4606L0.526893 49.3924L0 49.5523L0.00752704 49.6181C0.094088 50.408 0.259683 51.5929 0.361298 52.0302L0.368825 52.0678L0.398933 52.0819C0.957816 52.3334 1.63337 52.5944 2.40865 52.5944C4.10036 52.5944 5.32914 51.3296 5.32914 49.5875C5.32914 48.0406 4.57456 47.2883 3.09173 46.3597C2.04171 45.7038 1.50729 45.1865 1.50729 44.185C1.50729 43.4186 1.8366 42.5981 2.76619 42.5981C3.94605 42.5981 4.2716 43.6302 4.48423 44.5965L4.49929 44.667L5.0243 44.5377L5.01677 44.4671C4.92457 43.5667 4.87 42.9602 4.82295 42.4242L4.80037 42.1867L4.75521 42.175C4.70064 42.1632 4.63101 42.1444 4.54633 42.1209C4.20573 42.0316 3.63556 41.8788 3.0334 41.8788H3.03528ZM36.3707 41.8835C33.4577 41.8835 31.4235 44.1239 31.4235 47.3306C31.4235 49.9519 32.88 52.5967 36.1392 52.5967C37.0387 52.5967 37.9513 52.3593 38.3917 52.2418L38.5215 52.2065L38.5347 52.1736C38.7247 51.6893 39.0559 50.5726 39.2441 49.785L39.261 49.7168L38.753 49.5029L38.7285 49.5617C38.0323 51.2355 37.3736 51.828 36.2107 51.828C34.2593 51.828 32.9985 49.9331 32.9985 46.9991C32.9985 44.3073 34.1784 42.6358 36.0771 42.6358C36.5494 42.6358 37.05 42.7439 37.3529 42.9108C37.9438 43.2047 38.2806 43.7595 38.5497 44.888L38.5667 44.9538L39.0973 44.8151L39.0879 44.7446C38.96 43.7736 38.8715 42.6358 38.8471 42.309L38.8433 42.2479L38.7944 42.2384C38.704 42.222 38.5874 42.1961 38.4481 42.1632C37.9626 42.0504 37.2287 41.8788 36.3707 41.8788V41.8835ZM27.4831 41.9563C27.0352 41.9563 26.6871 42.3842 26.6871 42.932C26.6871 43.4374 27.0522 43.8818 27.4699 43.8818C27.8877 43.8818 28.2433 43.4468 28.2433 42.932C28.2433 42.3842 27.9084 41.9563 27.4831 41.9563ZM74.6475 42.0997V42.7063L74.704 42.711C75.7032 42.8121 75.7841 42.9202 75.7841 44.1474V50.3304C75.7841 51.5529 75.722 51.6305 74.7021 51.7504L74.6457 51.7551V52.3593H77.9275C78.8777 52.3593 79.5608 52.1736 80.2063 51.7363C81.0117 51.2003 81.4746 50.3046 81.4746 49.2796C81.4746 47.9936 80.7746 47.1331 79.446 46.7781C80.2194 46.4608 80.9627 45.7179 80.9627 44.4601C80.9627 43.7054 80.6918 43.0824 80.178 42.6569C79.7151 42.2761 79.0697 42.0997 78.1533 42.0997H74.6475ZM77.8917 42.8332C78.9248 42.8332 79.542 43.5221 79.542 44.6764C79.542 45.9412 78.9511 46.5289 77.6828 46.5289H77.1202V43.6349C77.1202 43.1929 77.1446 43.0448 77.2312 42.9672C77.3403 42.8756 77.5567 42.8309 77.8898 42.8309L77.8917 42.8332ZM55.3576 42.9931L55.3332 43.019C55.1996 43.1741 55.0264 43.3599 54.8608 43.5362C54.6858 43.7242 54.5033 43.917 54.3584 44.0839L54.3396 44.1051V45.3652H53.7976L53.4044 45.8989L53.4872 46.1786H54.3396V50.5961C54.3396 51.8891 54.8006 52.545 55.7114 52.545C55.8299 52.545 56.0426 52.491 56.2816 52.3381L57.1923 51.7575L57.0362 51.1838L56.9741 51.2191C56.7163 51.3695 56.4716 51.4448 56.2496 51.4448C55.8111 51.4448 55.5872 50.9769 55.5872 50.0507V46.1739H56.8894L56.9044 46.1598C56.9966 46.0752 57.0606 45.9247 57.0738 45.7555C57.087 45.605 57.0587 45.471 56.9948 45.3864L56.9759 45.3605H55.5872C55.5872 44.5894 55.5985 43.7384 55.6229 43.1177V43.0542L55.3557 42.9861L55.3576 42.9931ZM48.6416 45.0949L48.5551 45.1395C48.0357 45.4075 47.3884 45.6191 46.6846 45.7508L46.63 45.7625V46.3126L46.6808 46.3244C47.3206 46.4584 47.3865 46.4725 47.3865 47.4341V50.6455C47.3865 51.6446 47.3244 51.654 46.5547 51.7622L46.5002 51.7716V52.3664H49.4188V51.7692L49.3642 51.7622C48.6755 51.6728 48.636 51.6658 48.636 50.6572V47.0273C49.0801 46.5595 49.5091 46.3221 49.9099 46.3221C50.6081 46.3221 50.9618 46.8863 50.9618 48.0006V50.5843C50.9618 51.6329 50.8922 51.6775 50.243 51.7645L50.1865 51.7692V52.364H53.0035V51.7692L52.9471 51.7598C52.264 51.6681 52.2094 51.6611 52.2094 50.6525V47.6997C52.2094 46.1481 51.5471 45.1842 50.482 45.1842C50.0624 45.1842 49.7161 45.4099 49.4019 45.652C49.1008 45.8871 48.843 46.1058 48.6379 46.2774C48.6379 45.9271 48.6397 45.5039 48.6416 45.2124V45.0972V45.0949ZM90.428 45.0949L90.3414 45.1395C89.8221 45.4075 89.1747 45.6191 88.4691 45.7508L88.4145 45.7625V46.3126L88.4672 46.3244C89.107 46.4584 89.1729 46.4725 89.1729 47.4341V50.6455C89.1729 51.6446 89.1108 51.654 88.3411 51.7622L88.2865 51.7716V52.3664H91.207V51.7692L91.1506 51.7622C90.4619 51.6728 90.4223 51.6658 90.4223 50.6572V47.0273C90.8664 46.5595 91.2955 46.3221 91.6963 46.3221C92.3944 46.3221 92.7482 46.8863 92.7482 48.0006V50.5843C92.7482 51.6329 92.6767 51.6775 92.0294 51.7645L91.9748 51.7692V52.364H94.7899V51.7692L94.7353 51.7598C94.0523 51.6681 93.9958 51.6611 93.9958 50.6525V47.6997C93.9958 46.1481 93.3334 45.1842 92.2683 45.1842C91.8487 45.1842 91.5006 45.4099 91.1863 45.652C90.8853 45.8871 90.6275 46.1058 90.4223 46.2774C90.4223 45.9271 90.4242 45.5039 90.4261 45.2124V45.0972L90.428 45.0949ZM60.5889 45.0996L60.5024 45.1419C59.9115 45.4381 59.3168 45.6379 58.6262 45.7672L58.5736 45.7766V46.3126L58.6281 46.3197C59.2999 46.4302 59.3394 46.4372 59.3394 47.3988V50.6643C59.3394 51.6376 59.283 51.6681 58.5397 51.7551L58.4851 51.7645V52.3616H61.6239V51.7645L61.5674 51.7598C60.6247 51.6634 60.5889 51.6211 60.5889 50.6549V47.742C60.8693 46.9709 61.2965 46.6136 61.4978 46.6136C61.6992 46.6136 61.8328 46.757 62.0379 46.9968C62.1658 47.1331 62.3013 47.1472 62.4519 47.0461C62.6965 46.8839 62.9581 46.5007 62.9581 46.0399C62.9581 45.6144 62.6758 45.1842 62.1395 45.1842C61.5448 45.1842 61.0443 45.8777 60.5908 46.6747V45.1019L60.5889 45.0996ZM28.1681 45.1184L28.0853 45.1583C27.5226 45.4263 26.8866 45.6309 26.1941 45.7672L26.1395 45.779V46.3056L26.1941 46.3174C26.9016 46.4561 26.9205 46.4866 26.9205 47.427V50.6008C26.9205 51.6329 26.8527 51.6705 26.1057 51.7622L26.0492 51.7716V52.3664H29.0638V51.7716L29.0073 51.7622C28.2377 51.6728 28.1662 51.6352 28.1662 50.6008V45.1207L28.1681 45.1184ZM43.209 45.1818C42.5071 45.1818 41.7901 45.6027 41.2444 46.3338C40.6912 47.0438 40.375 48.0594 40.375 49.122C40.375 50.8265 41.267 52.5497 42.9719 52.5497C43.1732 52.5497 44.227 52.4745 45.1811 50.9746L45.2093 50.9323L44.9364 50.448L44.8819 50.5067C44.4208 51.0146 43.9523 51.2638 43.4461 51.2638C42.985 51.2638 42.5522 51.0451 42.2286 50.6455C41.8353 50.1612 41.6283 49.4394 41.6283 48.5555C43.0227 48.4943 44.6937 48.365 44.9684 48.2922C45.2168 48.2169 45.245 47.9771 45.2544 47.6974C45.2544 47.0414 45.0324 46.3926 44.6391 45.913C44.2552 45.4428 43.7472 45.1842 43.2109 45.1842L43.209 45.1818ZM8.84804 45.1818C8.05017 45.3864 7.25419 46.0235 6.95122 46.2868C6.67837 46.5172 6.49772 46.7264 6.49772 46.9921C6.49772 47.4129 6.85902 47.7749 7.15633 47.7749C7.3972 47.7749 7.54398 47.6339 7.62301 47.3165C7.73403 46.8745 7.81119 46.5548 7.94479 46.3456C8.09345 46.1246 8.26281 46.0235 8.48109 46.0235C9.10772 46.0235 9.48219 46.6159 9.48219 47.6033V47.9442C9.19993 48.2028 8.33996 48.5672 7.64747 48.8611L7.5007 48.9246C6.76681 49.2419 6.42245 49.7568 6.42245 50.5444C6.42245 51.5106 7.05472 52.5497 8.07463 52.5497C8.41711 52.5497 8.94589 52.1101 9.41445 51.7198C9.45773 51.6846 9.49913 51.6493 9.54241 51.6164C9.59886 51.8233 9.67977 52.0325 9.84161 52.2253C9.98462 52.411 10.2763 52.5497 10.5209 52.5497H10.5379L11.7328 51.7104L11.5615 51.1156L11.4976 51.1556C11.3395 51.2567 11.1965 51.3108 11.0779 51.3108C10.7637 51.3108 10.6997 50.8429 10.6997 50.4527V47.5069C10.6997 46.6676 10.4965 46.1058 10.0147 45.6238C9.70988 45.3394 9.30342 45.1842 8.85556 45.1842H8.84804V45.1818ZM66.1777 45.1818C65.3799 45.3864 64.5839 46.0235 64.2809 46.2868C64.0081 46.5172 63.8274 46.7264 63.8274 46.9921C63.8274 47.4129 64.1887 47.7749 64.486 47.7749C64.7269 47.7749 64.8737 47.6315 64.9471 47.3306L64.9508 47.3118C65.06 46.8722 65.139 46.5524 65.2726 46.3432C65.4213 46.1222 65.5906 46.0211 65.8089 46.0211C66.4355 46.0211 66.81 46.6112 66.81 47.5986V47.9419C66.5278 48.2005 65.6678 48.5649 64.9734 48.8587L64.8266 48.9222C64.0909 49.2396 63.7484 49.7521 63.7484 50.542C63.7484 51.5083 64.3807 52.5497 65.4025 52.5497C65.7431 52.5497 66.2718 52.1101 66.7404 51.7198C66.7837 51.6846 66.827 51.647 66.8683 51.614C66.9248 51.8209 67.0057 52.0325 67.1675 52.2253C67.3106 52.411 67.6022 52.5497 67.8469 52.5497H67.8638L69.0587 51.7104L68.8875 51.1156L68.8254 51.1556C68.6673 51.2567 68.5262 51.3108 68.4058 51.3108C68.0934 51.3108 68.0275 50.8429 68.0275 50.4527V47.5069C68.0275 46.6676 67.8243 46.1058 67.3426 45.6238C67.0377 45.3394 66.6312 45.1842 66.1834 45.1842H66.1759L66.1777 45.1818ZM85.2005 45.1818C84.4007 45.3864 83.6066 46.0211 83.3018 46.2844C83.0289 46.5148 82.8483 46.7264 82.8483 46.9897C82.8483 47.4105 83.2096 47.7726 83.5069 47.7726C83.7477 47.7726 83.8945 47.6292 83.9735 47.3142C84.0846 46.8698 84.1636 46.5524 84.2972 46.3432C84.4459 46.1222 84.6152 46.0211 84.8335 46.0211C85.4601 46.0211 85.8346 46.6112 85.8346 47.5986V47.9419C85.5523 48.2005 84.6924 48.5649 83.9999 48.8587L83.8531 48.9222C83.1173 49.2396 82.7749 49.7544 82.7749 50.542C82.7749 51.5083 83.4071 52.5474 84.4271 52.5474C84.7695 52.5474 85.2983 52.1077 85.7669 51.7175C85.8102 51.6822 85.8515 51.647 85.8929 51.614C85.9494 51.8209 86.0303 52.0302 86.1921 52.2229C86.3352 52.4087 86.6268 52.5474 86.8715 52.5474H86.8884L88.0833 51.7081L87.9121 51.1133L87.8481 51.1533C87.69 51.2544 87.5489 51.3084 87.4285 51.3084C87.1161 51.3084 87.0502 50.8406 87.0502 50.4503V47.5046C87.0502 46.6653 86.8451 46.1034 86.3653 45.6215C86.0604 45.337 85.654 45.1818 85.2061 45.1818H85.1986H85.2005ZM14.1264 45.243L14.0473 45.2594C13.6522 45.3394 12.7414 45.5016 12.1298 45.5345H12.0696V46.0917L12.4591 46.1833C12.7301 46.2539 12.8317 46.2797 12.8317 47.1026V50.1565C12.8317 52.3123 14.0003 52.5474 14.5027 52.5474C15.1933 52.5474 15.739 52.0819 16.36 51.4589V52.5709L16.4409 52.5427C17.2049 52.2817 17.888 52.0983 18.4714 51.9973L18.524 51.9878V51.4001L18.1214 51.379C17.6961 51.3484 17.6114 51.2755 17.6114 50.5209V45.2453L17.5399 45.2618C17.1692 45.337 16.2565 45.4945 15.4587 45.5368H15.4003V46.0987L15.8576 46.1763C16.2321 46.2468 16.3619 46.3103 16.3619 47.1096V50.7254C15.9837 51.1556 15.5678 51.3743 15.1275 51.3743C14.7361 51.3743 14.0793 51.165 14.0793 49.7638V47.6198C14.0793 46.6112 14.0831 45.8566 14.1188 45.3417L14.1264 45.243ZM42.9098 45.9318C43.1676 45.9318 43.4009 46.0493 43.5816 46.275C43.8093 46.5595 43.9372 46.9803 43.9297 47.4317C43.9297 47.6104 43.8977 47.6644 43.6945 47.6668H43.6926C43.0057 47.7068 42.3415 47.7091 41.6998 47.7138C41.856 46.6418 42.3377 45.9318 42.9117 45.9318H42.9098ZM22.3459 45.9553C22.8559 45.9553 23.3188 46.2351 23.5578 46.6912V50.9205C23.2887 51.1509 22.8653 51.3907 22.4569 51.3907C21.6497 51.3743 20.7916 50.3869 20.7916 48.5884C20.7916 46.0799 22.0862 45.953 22.3459 45.953V45.9553ZM77.1183 47.2483H77.6395C79.2146 47.2483 79.9786 47.963 79.9786 49.4347C79.9786 51.0522 79.0076 51.6282 78.1777 51.6305C77.7318 51.6352 77.489 51.5553 77.3385 51.3743C77.1842 51.1862 77.1183 50.8641 77.1183 50.2975V47.246V47.2483ZM9.48031 48.6613V50.9417C9.25073 51.205 8.87062 51.4025 8.58271 51.4025C8.26093 51.4025 7.75097 51.0992 7.75097 50.2834C7.75097 49.7403 8.037 49.47 8.46604 49.2302L8.60717 49.1526C8.87814 49.0021 9.23756 48.8047 9.48031 48.6613ZM66.8119 48.6613V50.9417C66.5804 51.205 66.2003 51.4025 65.9124 51.4025C65.5906 51.4025 65.0807 51.0992 65.0807 50.2834C65.0807 49.7403 65.3667 49.47 65.7958 49.2302L65.9369 49.1526C66.2079 49.0021 66.5673 48.8047 66.81 48.6613H66.8119ZM85.8327 48.6613V50.9417C85.6032 51.205 85.223 51.4025 84.9351 51.4025C84.6133 51.4025 84.1034 51.0992 84.1034 50.2834C84.1034 49.7403 84.3894 49.47 84.8185 49.2302L84.9615 49.1503C85.2324 49.0021 85.5919 48.8047 85.8327 48.6589V48.6613Z" fill="#2E2F2E"/>
<path id="Vector_2" d="M41.7169 12.7723C41.7809 12.4549 42.2664 12.2903 42.1836 13.0614C42.0669 13.1367 41.7903 12.911 41.7169 12.7723ZM42.0161 13.7926C41.9239 13.9242 41.8317 14.0183 41.7376 14.1429C41.6247 14.2933 41.5777 14.3615 41.4535 14.4955C41.239 14.7259 41.032 14.9351 40.8005 15.1491C40.6029 15.3325 39.5303 16.2799 39.4757 16.4515C39.8239 16.3645 40.8475 15.6122 41.0997 15.3748C41.3707 15.1209 41.9559 14.4414 42.1309 14.0841C42.1836 13.9783 42.1723 13.9689 42.2495 13.8702C42.4056 13.9642 42.4565 13.976 42.5788 14.1264C42.5844 14.1194 42.5919 14.0982 42.5938 14.1053C42.607 14.1288 42.7745 13.7362 42.7801 13.5833C42.7876 13.4023 42.5901 13.3153 42.4169 13.2354C42.4263 12.8898 42.543 12.4549 42.3906 12.0834C42.1403 11.4769 41.3199 12.4337 41.4158 13.1343C41.4459 13.3506 41.5664 13.447 41.6605 13.5293C41.7075 13.5692 41.764 13.621 41.8317 13.6633C41.8599 13.6797 41.8919 13.6915 41.9258 13.7126L42.0161 13.7949V13.7926ZM41.5363 15.9225C41.4723 15.9719 41.508 15.9178 41.4704 16.0189C41.4064 16.1835 41.397 16.7477 41.1505 16.9852C41.0414 17.091 40.7949 17.1662 40.7083 17.004C40.6086 16.8183 40.729 16.5079 40.6951 16.2893C40.3319 16.5009 40.1381 18.1959 41.0395 17.6458C41.1505 17.5776 41.1637 17.5353 41.254 17.4554C41.382 17.3402 41.4027 17.413 41.5645 17.413C42.3962 17.413 42.7293 15.8943 42.3962 15.4476C42.3134 15.5229 42.1403 15.8544 42.178 16.0072C42.2325 16.2305 42.4696 16.5385 41.9145 16.7336C41.875 16.7477 41.7997 16.7689 41.7621 16.7689C41.6341 16.7712 41.6605 16.7924 41.6266 16.6843C41.5494 16.4398 41.7056 16.0942 41.5363 15.9225ZM56.9385 17.0604C57.1323 16.8347 57.4748 15.8943 57.2358 15.5182C56.9761 15.1044 56.2196 15.3442 55.8433 15.5205C55.0774 15.8826 54.1892 16.5855 53.6228 17.0886C53.094 17.5588 52.14 18.4428 51.7109 19.0611C51.1521 19.8651 49.5601 22.4558 51.3327 23.0506C52.6274 23.4856 54.9156 23.1752 56.214 23.0107C58.3404 22.7427 60.4818 22.4629 62.6327 22.249C63.8728 22.1267 65.3951 22.0585 66.2344 23.1282C66.2795 23.1846 66.6239 23.6384 66.5787 23.7395C66.5354 23.8335 65.2408 23.9534 65.0451 23.9793C61.88 24.433 58.7958 24.9902 55.6438 25.4063C54.1742 25.6014 50.437 25.8718 49.1405 25.1994C48.5571 24.8961 48.0434 24.3437 47.7254 23.6924C47.6482 23.5349 47.4864 23.1071 47.4243 23.0342C47.3076 23.0812 47.2719 23.2081 47.2305 23.3892C47.0536 24.1344 47.0423 24.3154 47.2418 24.8021C47.4469 25.2981 47.6633 25.8906 47.7818 26.4713C47.9474 27.287 47.8891 27.3834 47.3208 28.0135L46.2388 29.0221C45.4447 29.6897 43.1452 31.4247 42.1892 30.1905C41.8656 29.7744 41.589 29.2736 41.6003 28.6177C41.8374 28.5331 42.1685 28.298 42.3925 28.1593C42.9495 27.8231 44.0258 27.0002 44.4812 26.4689C44.8388 26.0504 45.2471 25.5027 45.2509 24.5929C45.2546 23.5631 44.8275 23.4033 44.1218 23.1541C43.5253 22.9425 42.8591 22.8532 42.3266 22.5287C42.0632 22.3689 41.7715 22.1902 41.9484 21.72C42.2325 20.9583 42.9608 19.8862 43.4745 19.3761C44.5847 18.2711 44.6807 19.4443 44.8501 19.6206C45.0345 19.5571 45.1605 19.1598 45.1888 18.8636C45.2546 18.1865 45.0401 17.4083 44.4304 17.493C44.0785 17.5423 43.7624 17.8668 43.5102 18.1019C43.3992 18.2053 43.3484 18.2782 43.2543 18.3816C42.7387 18.9435 42.3699 19.5877 42.0236 20.3188C41.8035 20.782 41.5984 21.4167 41.5043 22.0115C41.3613 22.919 41.4177 23.3445 41.8675 23.7794C42.5073 24.4001 44.2517 24.4142 44.7089 24.9267C44.7974 25.15 44.2272 25.5544 44.0992 25.6578C43.8508 25.8577 43.6231 26.0222 43.3597 26.215C43.0379 26.4501 42.1121 27.0966 41.7527 27.2001C41.8016 26.831 42.0124 26.1539 41.9898 25.8506C41.7564 25.9987 41.5796 27.1601 41.5005 27.3153C41.4459 27.4211 41.0188 27.5739 40.8984 27.6256C39.6658 28.1569 37.8687 28.4743 37.0295 27.099C35.7179 24.9502 37.3023 22.2631 37.3381 21.5437C37.2252 21.539 37.1744 21.6565 37.1141 21.767C37.0502 21.8822 37.0106 21.9598 36.9485 22.0867C35.7931 24.4612 35.4431 29.2501 38.5349 29.4969C39.7279 29.5933 40.3978 29.1114 41.3067 28.7893C41.2484 30.2022 41.6078 31.42 42.4207 31.8502C43.4557 32.3957 44.9742 31.4294 45.7872 30.7665C46.6377 30.0729 47.62 29.1655 48.0754 28.0323C48.3746 27.2917 48.256 26.9744 48.3238 26.1586C48.495 26.2456 48.67 26.3866 48.8732 26.4901C49.069 26.5935 49.2722 26.6805 49.4886 26.7487C50.708 27.1295 52.8456 27.099 54.0613 26.9603C56.0333 26.7346 57.964 26.4266 59.9173 26.1022C62.07 25.7425 64.2868 25.3593 66.4301 25.0442C66.7857 24.9902 66.782 24.9596 66.9381 24.654C67.7718 23.0318 66.8271 21.6988 65.5739 21.1534C64.5803 20.7208 63.7279 20.7796 62.6364 20.8784C61.6542 20.9653 60.6343 21.0993 59.6557 21.2427C57.6705 21.5319 53.9766 22.1291 52.0873 21.7459C51.8464 21.6965 50.9131 21.5037 51.0787 21.0429C51.1991 20.7185 52.362 19.4396 52.7459 19.0752C53.3518 18.4992 53.9277 17.9561 54.6841 17.4413C56.8369 15.979 56.5772 16.9452 56.9347 17.0581M18.1404 24.4542C17.8656 24.5153 17.5608 24.574 17.2672 24.5106C17.0414 24.4612 16.7215 24.2261 16.9436 23.9369C17.1957 23.6055 17.8092 23.7841 18.1404 24.4542ZM0.131909 21.2804L0.0848646 21.7412C0.00206713 22.5734 0.254223 23.0224 0.566595 22.9072C0.489443 23.1071 0.417936 23.3116 0.35772 23.5255C0.146963 24.2825 0.0321753 25.0231 0.00583065 25.8765C-0.0412134 27.4751 0.323848 28.9139 1.60533 29.5181C3.27068 30.3033 6.14225 28.6718 7.55357 27.4305C7.66459 27.3317 7.76621 27.2635 7.8904 27.146C7.95062 27.0872 7.9939 27.0426 8.04659 26.9908L8.21971 26.8333C8.16138 27.2165 8.04283 27.5903 7.97885 28.0158C7.8189 29.0738 7.71916 30.8911 8.68827 31.2414C9.36759 31.4859 10.0243 30.9263 10.4948 30.6325C10.8165 30.4303 11.7461 29.6404 11.9512 29.5369C12.0209 29.6827 12.0867 30.0988 12.1827 30.3198C13.0784 32.3698 15.0806 31.4388 16.2567 30.395C17.0075 29.7297 17.9503 28.7211 18.5073 27.8607C18.9043 27.2447 19.1678 26.4054 19.196 25.5732C19.3936 25.4439 19.8753 25.2276 20.1181 25.1007L22.5361 23.817C22.2859 24.6775 21.9566 26.1374 22.188 27.019C22.2652 27.3129 22.427 27.5856 22.6208 27.7408C23.302 28.2933 24.3219 27.8818 24.9128 27.2894C25.3381 26.8639 25.7257 26.0504 25.9628 26.0998C26.0851 26.4501 25.9177 26.9368 26.3956 27.4469C26.676 27.7455 27.2368 27.8137 27.6564 27.6797C28.0497 27.5551 28.4016 27.2541 28.6293 26.9908C29.254 26.2644 29.064 26.3749 29.3086 26.0457C29.3669 25.9658 29.3067 26.0269 29.3839 25.9658C29.4704 26.885 29.8374 27.6726 30.7143 27.4845C31.0869 27.4046 31.3447 27.1178 31.5121 26.8545C31.61 26.6993 31.689 26.5512 31.7662 26.3631C31.8377 26.1892 31.8923 25.9776 31.9845 25.853C32.1651 26.1233 32.2197 26.8263 32.7917 27.1554C33.3807 27.4963 33.8135 27.2001 34.1654 26.8263C34.7732 26.1798 35.1082 24.6916 35.1214 23.4127C35.1383 21.6777 34.8673 17.8174 34.7394 15.7533C34.7224 15.4641 34.6679 14.961 34.698 14.6671C34.8504 14.7565 34.9407 15.1115 35.2211 15.1585C35.2606 14.7494 34.9351 13.8819 34.8127 13.4846C34.7168 13.1743 34.41 12.0693 34.2708 11.9142C34.141 11.9941 34.0149 12.5442 33.9622 12.7252C33.7928 13.3036 33.9095 13.1719 33.9904 13.6915C34.0337 13.9665 34.0807 15.544 34.1014 15.9837C34.1729 17.5 34.2746 19.1198 34.363 20.6339C34.4138 21.5084 34.6584 24.5411 34.4609 25.2041C34.3988 25.4133 34.0939 25.6155 33.8888 25.7213C33.3958 25.9776 32.7541 25.9353 32.5038 25.284C32.3382 24.8562 32.4963 24.4988 32.4116 24.2496C32.2122 24.2261 32.182 24.4753 32.0861 24.6704C31.8414 25.1618 31.5535 25.7284 31.0417 25.9682C30.5863 26.1821 30.2476 26.1045 30.0161 25.7425C29.5626 25.0301 30.0105 24.7527 29.8901 24.4377C29.6134 24.473 29.0376 25.8506 28.0459 26.208C27.6018 26.3678 27.0392 26.3561 26.6704 26.0669C26.0381 25.5685 26.5067 24.7574 26.3599 24.6046C26.1096 24.3343 25.3757 25.94 24.3859 26.3655C23.9588 26.5489 23.3359 26.6711 22.8899 26.4713C21.9791 26.0646 22.7149 24.3789 22.8165 23.6595L24.5854 22.7191C24.8808 22.5593 25.2459 22.4323 25.3964 22.1455C25.5037 21.941 25.8217 21.3015 25.8085 21.0782C25.5131 21.0735 23.6087 22.2019 22.937 22.3806C21.9942 22.6322 21.4052 22.2584 20.724 21.6448C20.2856 21.2498 19.6194 20.1872 19.5686 19.4748C19.5479 19.1786 19.8678 19.0187 20.0804 18.9036C21.0119 18.4051 22.4496 18.2171 23.4714 18.4028C23.7235 18.4475 24.0829 18.5932 24.2975 18.6026C24.2523 18.4263 24.2071 18.4122 24.0905 18.3111C23.8496 18.1042 23.6087 17.9044 23.3265 17.7492C22.4929 17.2884 21.4315 17.1192 20.5735 17.5212C18.8103 18.3487 18.5656 20.8337 19.8942 22.6228C20.0372 22.8132 20.5584 23.3586 20.8237 23.4644C20.7955 23.4997 20.8106 23.4856 20.7692 23.5185C20.6638 23.6008 20.5208 23.6478 20.406 23.7042C20.2592 23.7771 20.12 23.8429 19.9769 23.9134C19.6853 24.0545 19.3955 24.2449 19.0944 24.299C19.0323 24.0192 18.7858 23.5984 18.6541 23.368C17.2202 20.829 15.551 24.7363 16.65 25.5662C17.1995 25.9799 18.0406 25.8624 18.6729 25.7025C18.7896 26.4501 18.6767 26.4125 18.3756 26.8592C18.2081 27.106 17.9221 27.4704 17.7132 27.6844L16.985 28.432C16.1984 29.1373 15.3215 29.8919 14.3016 30.0894C13.4247 30.2587 12.6701 29.8778 12.401 29.1725C12.4273 29.1278 12.4029 29.1537 12.4574 29.0973C12.497 29.0573 12.4687 29.0855 12.5082 29.0526L13.7709 27.9524C14.2696 27.4869 14.5819 27.153 14.7155 26.2573C14.7965 25.7096 14.7889 25.0889 14.6233 24.5952C14.4653 24.125 14.1792 23.8993 13.8161 23.6713C13.4774 23.4597 13.1161 23.2552 12.7642 23.0412C12.3257 22.7779 11.1157 22.0045 10.8937 21.5413C11.1195 21.5366 11.4206 21.5977 11.558 21.4332C11.5147 21.1699 10.9219 20.9019 10.7206 20.7796C10.5625 20.6832 10.4101 20.6009 10.252 20.514C10.1692 20.4693 10.1034 20.4223 10.0224 20.3752C9.72324 20.1966 9.79098 20.5304 9.79098 20.8078C9.79098 21.8493 9.73265 21.5296 10.1203 21.9222C10.2915 22.0961 10.3706 22.2748 10.4985 22.4676C10.7544 22.8461 11.0367 23.1752 11.3604 23.4668C11.4394 23.5373 11.5203 23.6031 11.6106 23.6854C11.6803 23.7489 11.7706 23.8264 11.8496 23.8782C12.2072 24.1156 12.5572 24.3296 12.9429 24.5623C13.2252 24.7339 14.8586 25.5591 14.3919 26.1421C14.2169 26.3608 12.4932 27.8442 12.2015 27.997C12.2015 27.0614 12.5948 26.0575 12.6004 25.4086C12.4932 25.4486 12.4838 25.5497 12.4311 25.7002C12.3953 25.8012 12.3633 25.907 12.3276 26.0246C12.2599 26.2432 12.2015 26.476 12.1469 26.7064C12.0246 27.2236 11.9701 27.6938 11.9211 28.2415C11.8026 28.3003 11.6257 28.4649 11.5015 28.5566C11.0762 28.8692 10.6434 29.2078 10.1843 29.4523C9.57458 29.7814 8.63746 30.2798 8.26488 29.2854C8.11057 28.8716 8.17455 28.2792 8.23665 27.8442C8.27052 27.6021 8.42859 26.6499 8.50198 26.4995C8.53961 26.4195 8.60359 26.3749 8.66757 26.2855C8.7165 26.2197 8.76919 26.1398 8.81623 26.0504C9.09097 25.5121 9.25468 24.7034 9.02134 24.0945C8.70521 23.2646 6.91942 23.2199 6.08956 22.6674C5.66428 22.383 5.72262 22.1173 5.94843 21.6213C6.27021 20.916 6.68231 20.2859 7.16969 19.7758C7.24308 19.7005 7.26566 19.6488 7.35034 19.5783C7.42937 19.5148 7.47265 19.4748 7.54981 19.4067C7.67024 19.2985 7.83772 19.1833 8.01836 19.1386C8.56031 19.0023 8.55467 19.6888 8.72026 19.8275C8.90467 19.7546 9.03263 19.369 9.06274 19.0658C9.09849 18.699 9.0665 18.3323 8.92349 18.0737C8.08799 16.5808 5.68875 20.0226 5.36696 22.3054C5.24465 23.1705 5.31051 23.6055 5.76025 24.0098C6.36053 24.5505 8.58477 24.7621 8.59606 25.2159C8.48316 25.6484 6.53742 26.925 5.99547 27.2306C5.05271 27.7619 3.87097 28.3285 2.66099 28.2933C1.41339 28.2556 0.591058 27.3012 0.4217 25.8976C0.201534 24.078 1.12736 22.4817 1.21204 21.7952C1.26285 21.6071 1.30989 21.3956 1.34753 21.1558C1.21016 21.2686 1.22897 21.2992 1.10478 21.5319C1.01822 21.6941 0.961765 21.8352 0.822514 21.8799C0.399119 22.0186 0.444281 21.2239 0.485679 20.8008C0.585413 19.7969 1.04833 18.8542 1.23838 17.9679L1.05397 18.2523C0.675737 19.0446 0.224115 20.3447 0.131909 21.2757M78.1158 26.6499C77.3273 26.6499 76.7383 26.6311 76.0346 26.1233C75.7354 25.907 75.1934 25.3287 75.1934 24.6986C75.1934 23.281 75.7034 22.7168 75.6582 22.1737C75.4757 22.2537 75.2254 22.9919 75.137 23.2904C74.9206 24.0075 74.9018 24.4589 74.9018 25.1853C74.9018 26.918 76.0534 28.0864 77.4911 28.0864H77.89C79.4142 28.0864 81.0175 26.9485 82.1804 26.0716C82.4288 25.8835 82.632 25.639 82.8522 25.4321C83.6105 24.7222 83.6256 23.8617 83.7667 23.6219C83.8552 24.8091 83.8627 27.193 85.3305 27.193C85.6993 27.193 85.9552 27.1789 86.2826 26.8686C86.5047 26.657 86.6063 26.5277 86.7663 26.2432C86.9168 25.9729 87.4004 24.9126 87.5246 24.7833C87.7636 25.056 87.6714 25.947 88.934 26.7346C90.5015 27.7102 92.7709 27.4164 94.4062 26.798C94.8766 26.6194 95.603 26.2926 96.0546 26.0293C96.207 25.94 96.4385 25.7354 96.5815 25.7566C96.6605 26.2832 96.6662 26.4595 96.9353 26.7839C97.1912 27.0943 97.545 27.1672 97.9608 27.1672C98.5837 27.1672 99.0937 26.349 99.2894 25.7989C99.9028 24.0827 99.7316 22.4723 99.6318 20.6409L99.406 16.7877C99.3722 16.2094 99.2574 15.1796 99.3025 14.646C99.3966 14.7095 99.8332 15.4429 99.8332 14.9822C99.8332 14.7259 99.0184 12.0552 98.8716 11.8907C98.7568 11.9706 98.5028 12.8451 98.4783 13.0473C98.4557 13.2283 98.5686 13.4987 98.5988 13.7197C98.6326 13.9642 98.6402 14.2252 98.6439 14.4955C98.659 15.9884 98.8735 19.0775 98.977 20.6832C99.0109 21.2004 99.0372 21.6965 99.0636 22.2066C99.1144 23.1353 99.1426 23.5067 99.1426 24.4212C99.1426 24.9455 99.0918 25.1571 98.8095 25.3851C98.3391 25.766 97.496 25.9588 97.1649 25.3898C96.9692 25.0536 97.1611 24.6258 97.0952 24.2966C96.9654 24.299 96.192 24.748 95.9982 24.8421C94.7468 25.451 93.5048 25.8342 92.118 25.9094C91.2072 25.9588 90.0292 25.947 89.2953 25.498C88.7553 25.1665 88.2114 24.8115 88.0383 24.1462C87.9706 23.8852 87.9913 23.5091 87.916 23.3233C87.726 23.2763 87.6902 23.4456 87.6074 23.5819C86.9093 24.7339 86.5988 25.7683 85.4189 25.7683C84.3821 25.7683 84.3839 24.1109 84.3275 23.0013C84.2597 21.7059 84.2597 20.3729 84.2052 19.0564C84.1525 17.7586 84.1111 16.522 83.9587 15.269C83.8514 14.385 83.6105 12.5677 83.349 11.8836C83.2116 11.9494 83.2097 12.1022 83.1646 12.375C83.0008 13.3694 83.031 13.2354 83.1627 14.2252C83.5428 17.1403 83.6105 19.0822 83.6482 22.0961C83.6613 23.1658 83.5183 23.4033 82.9839 24.0945C82.7374 24.4118 81.9019 25.056 81.6215 25.2464C80.7616 25.8295 79.3013 26.6499 78.1214 26.6499M72.7189 23.9205C72.9541 23.8711 73.2082 23.8288 73.434 23.9087C73.624 23.9769 73.8122 24.1015 73.7934 24.3648C73.5902 24.5717 73.0049 24.4753 72.717 23.9205M71.6369 22.9942C71.3735 23.3116 69.7702 24.2379 69.1624 23.6948C68.9234 23.4809 68.914 23.0953 68.7089 22.8767C68.5696 23.006 68.4812 23.5631 68.4229 23.8241C68.3307 24.2379 68.5339 24.5223 68.6449 24.8468C68.7691 25.2159 69.168 26.6264 69.025 27.0237C68.9968 27.1013 68.8312 27.3388 68.7879 27.3928L67.8734 28.3285C67.0209 29.1208 66.0895 29.9107 65.0282 30.2798C64.2755 30.5431 63.7787 30.4843 63.3176 29.9413C62.9375 29.4946 62.7117 28.7776 62.7964 27.9101C62.8698 27.153 63.1746 25.9353 63.1765 25.6555C63.0636 25.7002 63.0448 25.8224 62.9658 26.0646C62.5762 27.2518 62.3053 28.9492 62.6214 30.1623C63.5171 33.6041 66.8949 30.8393 68.2648 29.3582C69.2941 28.2415 69.3769 27.0708 69.392 25.2464C69.8775 25.3687 70.3855 25.1618 70.7863 24.9667C71.2493 24.7363 71.6651 24.3954 71.9041 24.2802C72.2278 25.4604 73.8894 26.8498 74.3466 24.9643C74.5405 24.172 74.3617 23.2505 74.0098 22.7873C73.6843 22.3618 73.1931 22.3924 72.6869 22.5264C72.5289 22.5687 72.3783 22.6533 72.2447 22.6839C71.8401 21.941 71.5522 15.6992 71.5522 14.3639C71.667 14.4132 71.6106 14.3756 71.6934 14.4955C71.731 14.5519 71.7573 14.5943 71.7969 14.646C71.8665 14.7377 71.9493 14.8529 72.0735 14.8576C72.1694 14.5472 71.4318 12.3797 71.2304 11.7943C71.189 11.672 71.2022 11.6908 71.1326 11.625C70.999 11.7237 70.7506 12.65 70.7374 12.7887C70.7205 12.958 70.824 13.2283 70.856 13.4329C70.8917 13.6703 70.8993 13.943 70.903 14.204C70.9312 16.3528 71.1119 19.496 71.4073 21.6189C71.4619 22.0115 71.5372 22.651 71.6369 22.9895M101.322 25.4627C101.322 26.1304 101.224 26.9626 101.26 27.4375C101.446 27.3176 101.664 26.3772 101.73 26.0293C102.025 24.5059 101.879 23.1752 101.788 21.6354L101.517 17.0298C101.493 16.6184 101.374 14.9657 101.395 14.6906C101.544 14.7588 101.935 15.4641 101.935 15.0856C101.935 14.7565 101.608 13.8067 101.504 13.4705C101.414 13.1743 101.103 12.0623 100.975 11.9377C100.849 12.0388 100.541 13.0003 100.584 13.2683C100.629 13.534 100.708 13.6844 100.731 14.0253C100.751 14.3215 100.746 14.6319 100.763 14.9328C100.819 16.12 100.889 17.272 100.947 18.4545C101.004 19.6041 101.085 20.7702 101.147 21.9245C101.196 22.8296 101.32 24.654 101.32 25.4651M37.4152 13.0497C37.4152 13.1273 37.53 13.5081 37.5526 13.675L37.6636 16.0001C37.7163 17.0369 37.7765 18.0596 37.8349 19.0893C37.8932 20.1166 37.9553 21.144 38.0099 22.1808C38.0644 23.1964 38.1849 24.6258 38.1604 25.6155C38.1472 26.1257 38.072 26.8122 38.0908 27.2894C38.2018 27.2353 38.2074 27.1742 38.2752 26.9814C38.9376 25.0701 38.7343 23.4456 38.6271 21.452L38.3561 16.8653C38.3298 16.4186 38.1943 14.874 38.2432 14.5519C38.405 14.6154 38.516 15.0386 38.7738 15.0339C38.787 14.5801 38.2884 13.1202 38.1039 12.5536C38.0306 12.3279 37.9308 11.9024 37.8085 11.8013C37.7012 11.9071 37.4152 12.8099 37.4152 13.0497ZM76.6424 23.2411C76.6424 23.951 76.5502 24.9573 76.5784 25.3569C76.9378 25.15 77.2257 22.9683 77.2257 22.303L76.8136 14.4532C77.0187 14.5496 77.1203 14.9351 77.348 14.9328C77.4346 14.6554 76.8418 12.9298 76.6988 12.4713C76.6367 12.2715 76.5163 11.7919 76.4072 11.6932C76.2698 11.8013 76.0647 12.5372 76.0195 12.8075C75.98 13.0473 76.0854 13.2142 76.1249 13.4517C76.1625 13.6821 76.1738 13.9289 76.1776 14.1805C76.202 15.8403 76.394 18.4428 76.4918 20.1848C76.5483 21.1534 76.6424 22.2701 76.6424 23.2387M57.6121 19.1951C57.7589 19.1292 58.0167 18.92 58.1691 18.8072C58.3441 18.6779 58.5361 18.5533 58.7149 18.4287C59.9606 17.5588 63.1859 15.5017 64.3432 14.8717C64.9153 14.559 65.5024 14.1875 66.0932 13.8772C66.2645 13.7879 66.2419 13.8161 66.2739 13.5763C66.2965 13.4164 66.3247 13.2707 66.3322 13.1014C65.9879 13.1907 62.2582 15.4453 61.6918 15.8073C60.8732 16.3316 58.5135 17.848 57.8398 18.4075C57.7006 18.5227 57.646 18.9388 57.6103 19.1951M90.3341 24.0803L92.0634 22.9025C92.3532 22.7144 92.6449 22.5311 92.9365 22.3359C93.1831 22.169 93.5688 21.9081 93.8247 21.7858C93.5575 22.5193 93.2922 23.06 93.3148 24.0427C93.3374 25.0395 94.0844 24.9808 94.2086 23.6078C94.0712 23.6642 93.9301 24.3437 93.6497 24.0122C93.3599 23.6689 93.7194 22.4253 93.8304 22.0021C93.9188 21.6659 93.8172 21.7741 94.4043 21.4167C94.6621 21.2592 96.9804 19.858 97.227 19.7852L97.3097 19.2139C97.1065 19.2774 95.7121 20.0955 95.4261 20.2648C93.9169 21.1605 92.8312 21.8752 91.3822 22.8367C91.2373 22.9331 91.0905 23.053 90.9513 23.1447C90.558 23.3986 90.415 23.4244 90.3341 24.0827M79.6758 22.872C79.5553 23.1423 79.083 23.3586 78.8271 23.5161C78.7067 23.589 77.9521 23.9628 77.9257 24.1344C78.304 24.2191 78.8629 24.0216 79.2185 23.9252C79.64 23.81 79.704 23.683 80.0258 23.0694C80.978 21.2475 79.5817 21.9833 79.0266 21.4872C79.0172 21.2098 79.3352 20.8995 79.5121 20.7726C79.7661 20.5892 79.6871 20.8854 79.8564 20.8948C79.9863 20.9019 80.0841 20.6832 80.1293 20.5539C80.5094 19.456 79.8583 19.0305 78.8685 20.8243C78.6163 21.2827 78.1854 22.3477 78.7481 22.6815C79.0548 22.8626 79.4312 22.7544 79.6758 22.872ZM92.0766 14.6248C92.022 14.4885 92.0032 14.2534 91.9637 14.0959C91.8527 13.6421 91.6174 13.0285 91.1526 13.0285C91.0454 13.2636 90.7255 13.6186 91.1658 13.9313C91.3634 14.0723 91.354 13.9289 91.4838 13.9007C91.6287 14.0324 91.9279 15.001 91.9787 15.3466C91.975 15.3513 91.9656 15.3513 91.9637 15.363C91.9618 15.3748 91.9524 15.3771 91.9505 15.3795C91.8357 15.497 91.8037 15.5346 91.7435 15.7627C91.7021 15.9225 91.6457 16.1788 91.6965 16.3128C91.7303 16.2634 91.8715 16.0471 91.9035 16.0213C91.9637 15.9743 92.0051 15.9719 92.0785 16.0048C92.1086 16.0189 92.118 16.0236 92.1462 16.0495C92.2045 16.1036 92.1744 16.0683 92.2102 16.1341C92.0446 16.2587 91.6983 16.2728 91.5836 16.7994C91.5026 17.1709 91.6137 17.6717 91.6758 18.0384C91.7435 18.4428 91.8075 18.8283 91.8545 19.2397C91.8828 19.4795 91.9072 20.4928 91.9449 20.5892C92.1217 20.2836 92.054 19.1575 92.0088 18.7366C91.9486 18.1701 91.8376 17.5847 91.6946 17.0792C91.8414 16.823 92.2892 16.7078 92.5545 16.6255C92.7145 16.5738 92.7032 16.5597 92.7672 16.381C92.8895 16.0448 92.8274 15.9084 92.6467 15.7204C92.3363 15.3936 92.2102 15.4006 92.1161 15.3136C92.3005 14.6131 92.2648 14.5825 92.3908 13.9971C92.6261 12.9039 92.8274 13.541 92.9986 13.6257C93.3693 13.3341 92.8575 12.2574 92.4812 13.0027C92.182 13.5974 92.2008 14.3921 92.0728 14.6248M80.3062 13.4047C80.8726 12.9415 80.7766 13.7456 80.7296 13.8584C80.628 13.8208 80.5583 13.7714 80.4755 13.7126C80.372 13.6398 80.3024 13.6069 80.3062 13.4047ZM80.5301 14.519C80.4586 14.6225 80.3325 14.7706 80.2441 14.8693C79.832 15.3301 79.0247 15.9602 78.5298 16.3528C78.351 16.4938 77.9201 16.7877 77.8505 16.964C78.0462 16.9288 78.5204 16.6584 78.7123 16.5573C79.0134 16.3998 79.2599 16.254 79.5102 16.0495C80.5489 15.1914 80.4793 14.9563 80.7616 14.6366L81.0024 14.7941C81.0288 15.1984 80.596 16.1435 80.7841 16.9076C80.978 17.6999 81.6309 17.1803 81.6121 16.1341C81.5011 16.2752 81.3675 16.83 81.0927 16.6067C80.754 16.3293 81.089 15.1091 81.1944 14.7353C81.3581 14.1617 81.1341 14.1922 80.9761 13.9783C81.4879 11.2418 79.3521 13.4305 80.1857 14.2487C80.3363 14.3968 80.436 14.4038 80.532 14.5214M40.3809 31.7421C40.5032 31.5916 40.8024 30.931 40.808 30.6207C40.6669 30.4867 40.0497 29.8872 39.8239 29.8684L39.4908 30.6724C39.3986 30.6207 39.376 30.5643 39.2593 30.4632C39.1032 30.3268 38.6967 29.9648 38.5462 29.946C38.4841 30.0353 38.1453 30.8605 38.119 31.0157C38.1623 31.0744 38.9827 31.7962 39.1032 31.8173C39.1483 31.7068 39.4042 31.0815 39.4626 31.011C39.7072 31.1544 40.2209 31.6857 40.3809 31.7398M72.9937 28.7634C73.2345 28.4343 73.5431 28.7705 73.5224 29.1349C73.3568 29.1184 73.052 28.8786 72.9937 28.7634ZM68.4944 31.9984C68.6769 32.0383 69.567 31.7468 69.7984 31.6786C70.3705 31.507 70.5342 31.4811 71.0178 31.152C71.6877 30.6936 72.288 30.1764 72.5703 29.2948C72.5797 29.2642 72.591 29.2266 72.6022 29.196C72.6324 29.1231 72.6154 29.1561 72.6436 29.1184C72.7189 29.2289 73.3343 29.8849 73.5751 29.6168C73.705 29.4711 73.8724 28.747 73.6015 28.2909C73.1837 27.5903 72.8657 28.486 72.8111 28.5401C72.67 28.6788 72.8036 28.298 72.495 28.9633C72.4047 29.1561 72.3181 29.3935 72.2184 29.5275C71.2888 30.7524 68.818 31.6833 68.4944 32.0007M5.40084 31.7398C5.51939 31.5893 5.82423 30.924 5.828 30.6207C5.65299 30.4514 5.05459 29.8802 4.84384 29.8684C4.77233 30.0494 4.56533 30.5032 4.53146 30.6818C4.33952 30.5878 3.8465 29.9859 3.568 29.946C3.50402 30.0353 3.16531 30.8629 3.14084 31.018C3.17095 31.0627 4.03092 31.7962 4.125 31.8197C4.17017 31.7068 4.42232 31.0838 4.48442 31.0133C4.73281 31.1638 5.24841 31.6951 5.40272 31.7421M20.4041 29.772C20.3778 29.8472 19.5498 31.2225 20.2837 31.5352C20.5452 31.6457 20.9649 31.5517 21.2076 31.4459C21.4334 31.3495 21.7759 31.0979 21.8549 30.9075C21.5746 30.9451 21.3074 31.0768 20.9818 31.1191C19.7116 31.2837 20.2065 30.4702 20.7409 29.8261C21.0063 29.5063 21.3732 29.3747 21.313 28.7799C21.1248 28.8692 20.9122 29.4382 20.5133 29.2313C20.1388 29.0385 20.4813 28.6859 20.5866 28.6741C20.709 28.66 20.7184 28.7564 20.7692 28.8363C20.9931 28.6459 21.0063 28.2745 20.8576 28.211C20.6243 28.1075 20.0899 28.8575 20.0466 29.2101C20.0071 29.5369 20.1896 29.7109 20.4041 29.772ZM30.4903 15.3701C30.5223 15.1796 30.6973 15.0644 30.8648 15.1068C30.9401 15.2831 30.9702 15.4171 30.9664 15.6639C30.8102 15.6804 30.5562 15.4923 30.4885 15.3701M30.8178 16.3833L30.2683 17.1027C29.8223 17.6599 28.8043 18.5627 28.3414 19.0799C28.4016 19.1292 28.2906 19.141 28.4468 19.0987L28.7441 18.9059C29.1788 18.605 29.5099 18.4146 29.9014 18.0243C30.2721 17.6528 30.9081 16.8982 31.0041 16.4492C31.2035 16.4633 31.2863 16.6184 31.4237 16.6796C31.4613 16.4938 31.5893 16.2705 31.5648 16.0471C31.4538 15.9272 31.3146 15.8849 31.196 15.765C31.2242 15.4288 31.2957 14.9587 31.132 14.6201C30.8102 13.9548 29.6812 15.5864 30.4395 16.1365C30.6051 16.2564 30.7218 16.2517 30.8159 16.381M19.9845 13.2095C20.0485 12.8922 20.5339 12.7276 20.4512 13.4987C20.3345 13.5739 20.0579 13.3506 19.9845 13.2095ZM20.2837 14.2275C20.1915 14.3592 20.1011 14.4532 20.0052 14.5778C19.8923 14.7259 19.8452 14.7964 19.7191 14.9281C19.5046 15.1585 19.2976 15.3677 19.0662 15.5817C18.8686 15.7674 17.796 16.7125 17.7433 16.8841C18.0914 16.7971 19.1151 16.0448 19.3654 15.8073C19.6364 15.5534 20.2216 14.8717 20.3966 14.5167C20.4493 14.4109 20.438 14.4015 20.5133 14.3027C20.6694 14.3968 20.7202 14.4085 20.8426 14.5566C20.8482 14.5519 20.8557 14.5308 20.8576 14.5355C20.8708 14.5566 21.0401 14.164 21.0458 14.0112C21.0514 13.8302 20.8557 13.7432 20.6826 13.6633C20.692 13.3177 20.8068 12.8828 20.6563 12.5113C20.406 11.9048 19.5837 12.8616 19.6796 13.5622C19.7097 13.7785 19.8302 13.8749 19.9243 13.9571C19.9713 13.9971 20.0278 14.0488 20.0955 14.0912C20.1237 14.1076 20.1557 14.1194 20.1896 14.1405L20.2799 14.2252L20.2837 14.2275ZM29.6059 29.3794C29.6059 29.3794 29.6059 29.3629 29.6059 29.3582L29.6116 29.2948C29.6323 29.189 29.6605 29.2125 29.6661 29.0268C29.4968 29.0667 29.4008 29.3817 29.2597 29.5181C29.0433 29.7273 28.825 29.5205 28.6123 29.4687C28.0102 29.323 27.4588 29.9953 27.1013 30.4256C26.198 31.507 26.0118 31.3707 25.7916 31.5869C25.754 31.6246 25.7784 31.594 25.7464 31.641C26.5819 31.5611 26.8999 30.8511 27.4438 30.388C28.2322 29.7179 28.5427 30.1317 28.8476 30.1388C29.1392 30.1435 29.3914 29.8261 29.4516 29.8355C29.5288 29.8496 29.6454 29.9718 29.796 29.9765C30.1629 29.9812 30.304 29.1184 30.1422 28.8716C29.8919 29.0032 29.9841 29.3912 29.9804 29.4593C29.8524 29.4664 29.6981 29.4452 29.6059 29.3817M52.1776 14.3662C52.0873 14.1288 51.9575 12.6053 51.1634 12.6077C51.0918 12.7652 50.8416 13.132 50.9432 13.32C51.3233 14.0324 51.4419 13.2965 51.6338 13.7315L51.8577 14.3615C51.9612 14.6906 52.0572 15.2502 52.0911 15.3019C52.3564 15.1303 52.4185 14.2205 52.4975 13.8067C52.7666 12.4032 53 13.1884 53.2013 13.2566C53.4911 12.9815 53.2521 12.1986 52.872 12.3162C52.5107 12.4267 52.347 13.4681 52.2774 13.8843C52.251 14.0394 52.2341 14.2651 52.1757 14.3639M59.1853 30.2493C59.0743 29.8519 58.9256 28.4766 58.1861 28.4813C58.1146 28.6177 57.8587 28.9938 57.9509 29.189C58.2105 29.7344 58.5135 29.4405 58.5342 29.4452C58.6622 29.4828 58.935 30.4209 58.9934 30.663C59.0329 30.8299 59.0498 31.065 59.0856 31.1755C59.4544 31.1073 59.413 29.1772 59.8157 28.8598C60.0754 28.841 60.0302 29.0291 60.1864 29.1349C60.6135 28.9327 60.1036 27.6185 59.6444 28.4461C59.4036 28.8786 59.2794 30.1082 59.1834 30.2493M8.88586 32.9811C9.03075 32.9364 10.2708 32.0971 10.5362 31.9302L11.8063 31.152C11.8816 31.0533 11.9098 30.6583 11.8891 30.5079C11.7141 30.576 10.4214 31.3777 10.205 31.5258C9.93211 31.7139 9.64232 31.8902 9.36382 32.0642C9.2735 32.1206 9.0157 32.2875 8.97618 32.3557C8.91596 32.4639 8.87457 32.8377 8.88586 32.9811ZM47.4544 31.4553C47.6275 31.3895 48.1055 31.0603 48.288 30.9334L50.3749 29.6215C50.4502 29.5205 50.4765 29.1325 50.4577 28.9797L48.7716 29.9953C48.4894 30.1881 48.2109 30.3597 47.9305 30.5314C47.842 30.5854 47.5786 30.7594 47.5429 30.8229C47.4826 30.9263 47.4412 31.3142 47.4544 31.4529M4.68953 15.711C4.62743 15.7603 4.66319 15.7063 4.62367 15.8097C4.56157 15.9719 4.55028 16.5361 4.30565 16.7736C4.19463 16.8794 3.95 16.9546 3.86156 16.7924C3.76371 16.6067 3.88414 16.2963 3.84838 16.0777C3.4852 16.2869 3.29138 17.9843 4.19087 17.4342C4.30189 17.366 4.31506 17.3237 4.40727 17.2438C4.53523 17.1286 4.55593 17.2015 4.71776 17.2015C5.5495 17.2015 5.88257 15.6827 5.5495 15.2361C5.4667 15.3113 5.29358 15.6451 5.33121 15.7979C5.38578 16.0213 5.621 16.3269 5.06776 16.5244C5.02825 16.5385 4.95486 16.5597 4.91534 16.5597C4.78926 16.562 4.81373 16.5832 4.77986 16.475C4.7027 16.2282 4.86077 15.8849 4.68953 15.7133M31.1301 19.9521C31.0379 20.0414 30.9984 20.1049 30.8629 20.1778C30.2815 20.4834 30.5524 19.8533 30.4301 19.4067C30.3247 19.4396 30.3492 19.3267 30.2702 19.7711C30.2438 19.9215 30.2156 20.0696 30.1704 20.2013C30.0952 20.4199 29.8637 20.6926 29.6116 20.5422C29.4403 20.38 29.5739 20.0532 29.557 19.7758C29.4008 19.8463 29.0997 20.568 29.3142 21.0406C29.5683 21.6024 30.1083 20.8619 30.2551 20.8713C30.5167 20.8901 30.6428 20.9183 30.8422 20.742C31.4105 20.2412 31.5046 19.228 31.2412 18.9388L31.1772 19.0329C31.1546 19.0728 31.1433 19.1057 31.1245 19.1433C31.1057 19.1857 31.0361 19.3244 31.0266 19.3737C31.0097 19.4678 31.1226 19.7123 31.1283 19.9544M87.1238 16.9123C87.0598 17.011 86.6345 17.3825 86.4125 17.2508C86.1942 17.1239 86.4332 16.4303 86.5273 16.2987C86.723 16.3904 87.0862 16.6913 87.1238 16.9123ZM86.1189 17.2837C86.1189 17.674 86.1603 17.9044 86.5273 17.9044C87.1238 17.9044 87.2969 17.2602 87.2969 16.6255C87.2969 16.1247 86.8396 15.7721 86.7361 15.6193C86.7888 15.4288 86.9469 15.0409 86.9488 14.8599C86.7248 14.8011 86.6947 15.0386 86.6101 15.2666C86.531 15.4806 86.4708 15.6451 86.3955 15.8732C86.2996 16.1694 86.1189 16.9593 86.1189 17.2837ZM69.1398 19.1786C69.0363 19.4349 68.5772 19.6559 68.4285 19.5548C68.2422 19.4278 68.4417 18.7672 68.5395 18.605C68.7653 18.7155 69.0401 18.9412 69.1398 19.1763M68.1368 19.5947C68.1368 20.6009 68.9196 20.159 69.1153 19.8792C69.2885 19.6276 69.3148 19.3126 69.3148 18.9365C69.3148 18.5368 68.9272 18.0784 68.754 17.9773C68.771 17.8268 68.8237 17.674 68.8707 17.5353C68.8933 17.4695 68.9253 17.3966 68.9422 17.3378C68.9704 17.2391 69.0006 17.2015 68.9272 17.1568C68.6562 16.9922 68.1387 19.101 68.1387 19.5971M94.8879 28.7258C94.9952 28.8363 95.7874 29.4946 95.8514 29.5181C95.9624 29.3465 96.3087 28.6882 96.2673 28.392C96.2503 28.3403 95.5051 27.6656 95.2925 27.642C95.2323 27.769 94.8955 28.5965 94.8879 28.7258ZM47.0912 20.2695C47.2531 20.427 47.4036 20.5234 47.5635 20.6621C47.6877 20.7702 47.9173 20.9935 48.0302 21.0523C48.1469 20.9395 48.5872 20.1049 48.4292 19.8886C48.3878 19.8322 48.2899 19.7616 48.2184 19.6935C48.0848 19.5642 47.6783 19.1998 47.5165 19.1857C47.4318 19.2938 47.0931 20.0955 47.0912 20.2671M86.0512 21.7811L87.009 22.5851C87.1426 22.4464 87.4474 21.7741 87.4437 21.4543C87.2724 21.318 86.7173 20.7726 86.4972 20.7161C86.4031 20.8313 86.0888 21.5883 86.0531 21.7811M13.8669 16.8582C13.6712 16.9875 13.7069 17.3825 13.4209 17.3425C12.8677 17.2673 13.4924 15.2384 13.5507 14.9634C13.2214 15.3395 12.751 17.2015 13.0709 17.808C13.1443 17.9444 13.3419 18.029 13.4962 17.9091C13.7032 17.7422 13.8142 17.2485 13.8669 16.8582Z" fill="#2E2F2E"/>
<g id="Group_2">
<path id="Vector_3" d="M48.1223 34.8047L47.889 34.8588L46.743 38.3523C46.5529 38.9306 46.4645 38.987 46.1164 39.0388V39.2668H47.4486V39.0388C47.0064 38.9847 46.8935 38.9306 47.0121 38.5027C47.0742 38.2723 47.1551 38.0114 47.2247 37.7716H48.3425C48.4366 38.0937 48.5325 38.411 48.5927 38.6344C48.6699 38.9118 48.6548 38.9823 48.303 39.0411V39.2691H49.8197V39.0411C49.4489 38.987 49.4 38.9377 49.2062 38.3264C48.8506 37.1886 48.4742 35.9684 48.1223 34.8047ZM56.7634 34.8047L56.5281 34.8588L55.384 38.3523C55.194 38.9306 55.1074 38.987 54.7593 39.0388V39.2668H56.0916V39.0388C55.6493 38.9847 55.5364 38.9306 55.6531 38.5027C55.7171 38.2723 55.7961 38.0114 55.8657 37.7716H56.9816C57.0757 38.0937 57.1717 38.411 57.2338 38.6344C57.3109 38.9118 57.2959 38.9823 56.9421 39.0411V39.2691H58.4607V39.0411C58.09 38.987 58.0392 38.9377 57.8454 38.3264C57.4897 37.1886 57.1134 35.9684 56.7615 34.8047H56.7634ZM44.8236 34.807C44.0539 34.8235 43.6305 35.376 43.6305 36.0366C43.6305 36.6972 43.9881 37.0404 44.5658 37.4189C45.0362 37.7293 45.2451 37.9479 45.2451 38.3828C45.2451 38.8178 45.0287 39.0999 44.6712 39.0999C44.1179 39.0999 43.8319 38.4205 43.7228 37.9855L43.5233 38.0443C43.5628 38.3758 43.6456 38.9917 43.6832 39.1563C43.9316 39.255 44.2346 39.3702 44.5808 39.3702C45.3429 39.3702 45.8717 38.806 45.8717 38.042C45.8717 37.386 45.5274 37.0522 44.9101 36.6737C44.4341 36.3822 44.2158 36.1541 44.2158 35.7521C44.2158 35.3854 44.4058 35.0727 44.7634 35.0727C45.2752 35.0727 45.4295 35.5429 45.5349 35.9778L45.7325 35.9237C45.6873 35.4959 45.6553 35.1738 45.6327 34.9269C45.5142 34.9058 45.2206 34.8047 44.865 34.8047C44.8518 34.8047 44.8386 34.8047 44.8273 34.8047L44.8236 34.807ZM50.0662 34.9011V35.1268C50.5441 35.1832 50.5893 35.3407 50.5705 35.6722C50.4388 37.9714 50.4218 38.3053 50.3974 38.5404C50.3541 38.9306 50.2129 39.0058 49.8968 39.0435V39.2715H51.2441V39.0435C50.8433 38.9964 50.7229 38.9165 50.7173 38.5474C50.7173 38.3452 50.7173 37.8891 50.8001 35.6933C51.2046 36.8853 51.677 38.3429 51.9762 39.2715H52.1436C52.4692 38.3217 53.0074 36.8195 53.4251 35.6369V38.2982C53.4289 38.9447 53.4044 38.9894 52.9735 39.0435V39.2715H54.5767V39.0435C54.1157 38.9729 54.095 38.9447 54.0837 38.2982L54.048 35.7568C54.0367 35.242 54.0912 35.1855 54.5429 35.1268V34.9011H53.4477L52.2942 38.0208L51.1745 34.9011H50.0643H50.0662ZM47.7949 35.9261L48.2465 37.4542H47.315C47.4618 36.9488 47.6293 36.4433 47.7949 35.9261ZM56.4359 35.9261L56.8875 37.4542H55.9561C56.1047 36.9488 56.2703 36.4433 56.4378 35.9261H56.4359Z" fill="#005740"/>
<path id="Vector_4" d="M42.0668 37.3386H0.00570679V36.8379H42.0668V37.3386Z" fill="#005740"/>
<path id="Vector_5" d="M101.739 37.3386H59.6782V36.8379H101.739V37.3386Z" fill="#005740"/>
<path id="Vector_6" d="M139.922 0.109375C135.591 0.109375 131.391 0.955718 127.435 2.62489C123.614 4.2353 120.186 6.54393 117.238 9.48263C114.293 12.4213 111.979 15.8443 110.364 19.6528C108.691 23.6001 107.844 27.7895 107.844 32.1082C107.844 36.4269 108.691 40.6186 110.364 44.5635C111.979 48.3744 114.295 51.7974 117.238 54.7361C120.184 57.6748 123.614 59.9834 127.435 61.5938C131.391 63.263 135.591 64.1094 139.922 64.1094C144.253 64.1094 148.452 63.263 152.409 61.5938C156.23 59.9811 159.66 57.6725 162.605 54.7361C165.551 51.7974 167.864 48.3744 169.479 44.5635C171.152 40.6186 172 36.4269 172 32.1082C172 27.7895 171.152 23.5977 169.479 19.6528C167.862 15.8443 165.548 12.4213 162.605 9.48263C159.66 6.54393 156.23 4.2353 152.409 2.62489C148.455 0.955718 144.253 0.109375 139.922 0.109375ZM139.922 0.913401C140.974 0.913401 142.012 0.967473 143.039 1.06621C142.837 2.60139 141.516 3.79097 139.922 3.79097C138.327 3.79097 137.008 2.60139 136.806 1.06621C137.831 0.967473 138.872 0.913401 139.922 0.913401ZM135.998 1.15555C136.172 2.52615 137.05 3.67577 138.258 4.2353C136.905 4.863 135.965 6.23126 135.965 7.81815C135.965 9.40504 136.905 10.7709 138.258 11.3987C136.905 12.0264 135.965 13.3946 135.965 14.9792C135.965 14.9956 135.965 15.0097 135.965 15.0262C128.165 16.8176 122.35 23.7858 122.35 32.1082C122.35 41.7894 130.217 49.6393 139.922 49.6393C149.626 49.6393 157.493 41.7894 157.493 32.1082C157.493 23.7835 151.678 16.8176 143.878 15.0262V14.9792C143.878 13.3923 142.941 12.0264 141.587 11.3987C142.941 10.7709 143.878 9.40504 143.878 7.81815C143.878 6.23126 142.941 4.863 141.587 4.2353C142.796 3.67577 143.674 2.52615 143.846 1.15555C159.265 3.08098 171.196 16.204 171.196 32.1082C171.196 49.3383 157.195 63.3077 139.922 63.3077C122.649 63.3077 108.648 49.3407 108.648 32.1082C108.648 16.204 120.577 3.08098 135.998 1.15555ZM139.922 4.68198C141.654 4.68198 143.067 6.0902 143.067 7.8205C143.067 9.5508 141.654 10.9567 139.922 10.9567C138.189 10.9567 136.779 9.54845 136.779 7.8205C136.779 6.09255 138.189 4.68198 139.922 4.68198ZM131.621 5.56594C131.57 5.58239 131.517 5.5965 131.469 5.61531C128.138 6.74612 125.073 8.51168 122.415 10.8109C121.934 11.227 121.468 11.6573 121.018 12.1063L121.459 13.136C121.983 12.6 122.529 12.0828 123.097 11.5914C125.142 9.82351 127.442 8.37768 129.927 7.31505C130.022 7.27508 130.114 7.23511 130.208 7.19515L130.433 7.10111L130.421 7.34561C130.401 7.78994 130.097 8.25072 129.76 8.5587C130.127 8.85727 130.568 9.11823 130.964 9.36508C131.6 9.76474 132.622 10.383 132.783 11.1753C132.804 11.2835 132.811 11.3939 132.804 11.5021L132.792 11.6126L132.682 11.6408C132.448 11.6902 131.981 11.4104 131.788 11.2929C131.354 11.0319 130.931 10.7357 130.52 10.4395C130.143 10.1691 129.774 9.89169 129.406 9.60723C129.201 9.44736 128.992 9.2875 128.793 9.11823C128.211 9.42855 127.648 9.74593 127.088 10.0845L127.83 10.7192L128.563 10.2914L130.711 11.7678C131.095 12.0452 131.488 12.3061 131.876 12.5765C132.28 12.8562 132.696 13.1478 133.075 13.4675V13.263L133.077 13.2559C133.103 13.0161 133.224 12.7928 133.346 12.5929C133.477 12.3766 133.62 12.1674 133.728 11.9394C134.026 11.2999 133.893 10.7474 133.525 10.1644C133.029 9.37918 132.027 8.97247 131.334 8.38943L131.258 8.3236L131.285 8.22957C131.386 7.86517 131.55 7.54544 131.674 7.1928C131.88 6.60741 131.823 6.12311 131.625 5.56594H131.621ZM148.156 5.57769L146.658 10.2843C146.573 10.55 146.47 10.8344 146.247 11.0154C146.162 11.086 146.065 11.1353 145.969 11.1871C145.891 11.227 145.815 11.267 145.739 11.3093C146.097 12.0052 146.426 12.7269 146.812 13.4064C147.228 12.2168 147.641 11.0272 148.002 9.82116C148.142 9.35097 148.282 8.88078 148.425 8.41294C148.68 7.5807 148.949 6.75317 149.22 5.92563L148.154 5.57769H148.156ZM150.624 6.47811L149.291 11.0154C149.181 11.3916 149.093 11.763 148.997 12.1392C148.949 12.3226 148.896 12.5389 148.756 12.6729C148.627 12.7928 148.388 12.8586 148.179 12.908C148.528 13.5427 148.882 14.1728 149.238 14.8028C149.898 12.5624 150.559 10.3196 151.221 8.07911L151.274 7.90043L151.439 7.98507C151.878 8.21076 152.315 8.4388 152.744 8.6786C153.119 8.88783 153.486 9.10647 153.854 9.32511L153.996 9.40975L152.165 12.0264C152.781 12.0499 153.137 12.1321 153.695 12.4072C153.684 12.3273 153.675 12.245 153.666 12.1651C153.652 12.0405 153.645 11.9135 153.668 11.7889C153.711 11.5797 153.849 11.3869 153.971 11.2153C154.238 10.8462 154.509 10.4865 154.768 10.1127L154.856 9.98338L154.984 10.0751C155.841 10.6863 156.655 11.3516 157.456 12.0381L157.576 12.1392L155.386 14.6265C155.605 14.65 155.821 14.69 156.039 14.7582C156.335 14.8499 156.632 14.9839 156.919 15.1155C156.914 15.045 156.905 14.9768 156.9 14.9039C156.889 14.7958 156.884 14.6876 156.912 14.5842C156.96 14.3891 157.132 14.2174 157.268 14.074C157.601 13.719 157.932 13.3735 158.256 13.0091L158.357 12.8939L158.472 12.9973C159.035 13.4957 159.54 14.1187 160.03 14.69L160.142 14.8216L159.995 14.9204C159.026 15.5504 158.874 16.5237 159.54 17.4477C161.576 20.2688 162.975 23.492 163.634 26.9055L163.768 27.585L163.455 27.3687C162.812 26.9243 162.074 26.5388 161.325 26.2261C161.845 26.6328 162.359 27.0466 162.867 27.4674C163.317 27.8389 163.761 28.215 164.197 28.6029C164.436 28.8145 164.678 29.0332 164.907 29.2565C164.848 28.7393 164.799 28.2221 164.721 27.7072C164.128 23.8117 162.624 20.1183 160.312 16.921C159.956 16.4297 160.103 15.943 160.528 15.5669L160.655 15.454L161.406 16.4767C163.915 20.0431 165.489 24.1643 165.985 28.4924C166.074 29.2847 166.1 30.0511 165.617 30.6671L167.163 30.5871C167.129 29.8748 167.108 29.1648 167.03 28.4572C166.562 24.2607 165.121 20.2453 162.817 16.7048C162.525 16.2581 162.221 15.8161 161.904 15.3906C161.36 14.6594 160.776 13.9682 160.172 13.2865C159.885 12.9644 159.595 12.6447 159.292 12.3414C158.433 11.4809 157.53 10.6769 156.563 9.93636C155.922 9.44501 155.258 8.98892 154.578 8.554C153.962 8.15904 153.335 7.79229 152.684 7.45375C152.011 7.10346 151.324 6.78608 150.63 6.47811H150.624ZM156.073 7.01412C155.719 7.02118 155.439 7.31505 155.446 7.66534C155.455 8.01563 155.747 8.29539 156.099 8.28834C156.452 8.28129 156.73 7.98977 156.724 7.63948C156.714 7.28683 156.425 7.00707 156.071 7.01412H156.073ZM139.922 11.8453C141.615 11.8453 143 13.1877 143.062 14.8616C142.045 14.6782 140.995 14.5818 139.922 14.5818C138.849 14.5818 137.801 14.6782 136.781 14.8616C136.845 13.1877 138.228 11.8453 139.922 11.8453ZM119.485 13.4557C118.166 15.0121 116.999 16.6342 116.027 18.4327C115.619 19.1874 115.249 19.9608 114.911 20.746C115.421 21.0564 116.009 21.3832 116.57 21.5548C116.912 21.6606 117.309 21.724 117.647 21.5665C117.98 21.409 118.192 21.0634 118.339 20.7413C118.447 20.5086 118.562 20.2782 118.679 20.0502C118.994 19.4389 119.343 18.8394 119.72 18.2611C120.002 17.8262 120.31 17.3771 120.643 16.9775C120.733 16.867 120.845 16.7894 120.983 16.7518C121.142 16.7118 121.305 16.7306 121.463 16.7471C121.564 16.7588 121.663 16.7659 121.762 16.7635C121.452 16.2016 121.199 15.6304 121.036 15.0144C120.411 15.7714 119.802 16.5472 119.244 17.356C118.759 18.0589 118.316 18.7806 117.914 19.5353C117.762 19.8221 117.615 20.1089 117.473 20.4004C117.252 20.8518 116.648 20.6732 116.319 20.4592L116.207 20.384L116.266 20.2617C117.326 18.0518 118.626 16.0324 120.227 14.1822C119.979 13.94 119.733 13.6979 119.485 13.4581V13.4557ZM139.922 15.3835C142.185 15.3835 144.381 15.8255 146.449 16.6977C148.446 17.5393 150.24 18.7454 151.779 20.2829C153.319 21.8181 154.529 23.6072 155.373 25.6008C156.246 27.6625 156.689 29.8513 156.689 32.1082C156.689 34.3651 156.246 36.5586 155.373 38.6203C154.529 40.6116 153.319 42.4007 151.779 43.9382C150.24 45.4757 148.446 46.6794 146.449 47.5234C144.381 48.3956 142.185 48.8376 139.922 48.8376C137.659 48.8376 135.462 48.3956 133.397 47.5234C131.4 46.6818 129.608 45.4757 128.069 43.9382C126.529 42.4007 125.319 40.6116 124.475 38.6203C123.602 36.5586 123.159 34.3675 123.159 32.1082C123.159 29.8489 123.602 27.6602 124.475 25.6008C125.319 23.6072 126.529 21.8181 128.069 20.2829C129.608 18.7454 131.4 17.5393 133.397 16.6977C135.462 15.8255 137.659 15.3835 139.922 15.3835ZM154.971 15.8067C154.619 15.8137 154.339 16.1053 154.346 16.4556C154.355 16.8058 154.644 17.088 154.998 17.0809C155.35 17.0739 155.63 16.78 155.621 16.4297C155.611 16.0794 155.322 15.7996 154.968 15.8067H154.971ZM139.772 19.4554V26.7856L133.813 26.7903L133.801 22.9912C133.493 23.2945 132.811 23.8422 132.223 24.0021C132.232 24.0092 132.246 24.0209 132.25 24.028L132.588 24.2936C132.834 24.564 132.758 24.7144 132.737 25.1705C131.72 25.2411 131.136 25.9769 131.136 27.0231C131.136 28.0034 131.051 27.8647 131.561 27.8577C132.698 27.8436 139.887 27.9117 140.804 27.853C140.875 27.4298 140.82 23.7082 140.82 22.6292C140.82 22.159 140.74 21.6182 140.946 21.3103C141.066 21.1316 141.204 21.1316 141.319 20.9717C140.99 20.6567 140.905 20.8518 140.122 19.8809C140.043 19.7845 140.025 19.7633 139.97 19.674L139.772 19.4577V19.4554ZM142.047 19.4577V27.8483L143.129 27.8577C143.242 27.2793 143.067 23.5366 143.152 21.9615C143.168 21.6723 143.281 21.3831 143.494 21.2233L143.706 21.054C143.373 20.9247 142.961 20.5744 142.768 20.3675C142.49 20.0713 142.141 19.5329 142.049 19.4601L142.047 19.4577ZM147.134 19.5659C147.115 21.2397 147.145 22.2201 147.129 23.8987C147.129 24.0938 147.134 24.2372 147.131 24.3477C147.131 24.517 146.86 24.7027 146.738 24.8602C146.506 24.6063 146.332 24.4135 146.33 24.3571C146.33 24.1408 146.33 24.0468 146.33 23.5742C146.33 21.0352 146.327 21.5336 146.325 19.627C145.771 20.1301 145.592 20.786 144.767 21.1128C144.818 21.1833 144.781 21.1387 144.841 21.1951C145.39 21.7428 145.243 20.8565 145.243 22.2436V24.6181C145.243 24.9354 145.56 25.3186 145.819 25.4691L145.567 25.7207C145.424 25.8617 145.261 25.9158 145.261 26.1885V28.0152H148.223C148.223 27.5426 148.223 27.0701 148.223 26.5976C148.223 25.7935 148.14 25.8147 147.726 25.3915C148.218 24.9284 148.227 24.9542 148.223 24.4794V22.8313C148.223 21.7617 148.032 21.5618 148.717 21.1904L148.583 21.0775C147.616 20.4381 147.697 20.0549 147.136 19.5682L147.134 19.5659ZM112.358 22.2906C111.687 22.9841 111.21 23.8705 111.724 24.8226C112.021 25.3704 112.577 25.8194 113.112 26.1227L113.211 26.1767L113.188 26.2872C112.855 28.0034 112.689 29.7478 112.689 31.4969C112.689 38.933 115.706 45.9788 121.087 51.1227L121.162 51.1956C121.392 51.4119 121.624 51.6258 121.863 51.835H121.865L121.978 51.9314C122.486 52.3805 123 52.8083 123.543 53.2127L126.58 48.4896C126.739 48.2357 126.934 47.9771 127.235 47.8878C127.352 47.8525 127.476 47.8455 127.6 47.8455C127.508 47.5093 127.43 47.1637 127.352 46.8275C127.29 46.5572 127.226 46.2844 127.157 46.0141C127.136 45.9224 127.111 45.826 127.083 45.732C125.838 47.6621 124.586 49.5852 123.343 51.5153L123.246 51.6634L123.113 51.5482C122.69 51.1885 122.277 50.8194 121.872 50.4386C121.381 49.9778 120.914 49.4935 120.464 48.9927L120.356 48.8728L122.587 47.0556C122.295 46.9074 121.994 46.7194 121.735 46.5501C121.604 46.4631 121.47 46.3714 121.339 46.2774C121.342 46.315 121.344 46.355 121.351 46.3926C121.362 46.4913 121.369 46.5924 121.335 46.6865C121.291 46.8064 121.19 46.8886 121.094 46.9639C120.917 47.1049 120.733 47.2366 120.556 47.3776C120.301 47.5798 120.053 47.7844 119.8 47.9865L119.681 48.0853L119.582 47.9654C118.991 47.2413 118.44 46.4866 117.932 45.7038L117.845 45.5674L120.379 44.0463C119.993 43.7642 119.623 43.4351 119.288 43.0942C119.191 43.4257 118.915 43.6678 118.601 43.8606L117.284 44.6552L117.206 44.5189C116.779 43.7783 116.39 43.0166 116.037 42.2385L115.97 42.095L118.699 40.9196C118.649 40.8678 118.596 40.8185 118.543 40.7691C118.373 40.6092 118.206 40.4541 118.054 40.2754C117.934 40.1344 117.824 39.9886 117.723 39.8358C117.718 39.8522 117.714 39.8687 117.707 39.8852C117.624 40.1202 117.417 40.266 117.208 40.3883C117.025 40.4964 116.827 40.5928 116.634 40.6821C116.331 40.8232 116.023 40.9572 115.717 41.0865L115.57 41.15L115.511 41.0019C114.748 39.0529 114.224 37.0193 113.953 34.9458L113.923 34.7178L114.146 34.7765C114.915 34.9764 115.674 35.3925 116.372 35.7639C116.478 35.8204 116.586 35.8768 116.691 35.9308L116.583 34.5461L114.658 33.9772L114.92 33.7938C115.159 33.6269 115.446 33.4906 115.715 33.3707C115.963 33.2602 116.218 33.1591 116.466 33.0486L116.358 31.6521C116.064 31.8755 115.775 32.1058 115.476 32.3245C115.063 32.6278 114.474 33.0439 113.978 33.1802L113.799 33.2296L113.755 32.6771C113.737 32.2822 113.728 31.8896 113.728 31.4946C113.728 29.8536 113.882 28.2174 114.187 26.6046L114.215 26.4565L114.364 26.48C115.35 26.6399 116.149 26.2285 116.85 25.5772C117.05 25.3939 117.291 25.2599 117.537 25.1423C117.473 25.093 117.404 25.0506 117.328 25.0295C117.227 25.0013 117.128 25.0107 117.022 25.013H116.921L116.878 24.9237C116.634 24.4088 116.508 23.9034 116.023 23.5484C115.883 23.4449 115.726 23.358 115.563 23.2921C115.281 23.1769 114.959 23.1158 114.651 23.1722C113.921 23.3086 113.633 24.028 113.535 24.6862L113.509 24.8532L113.346 24.8132C112.149 24.5311 112.232 23.2921 112.358 22.2906ZM115.189 24.0797C115.237 24.0797 115.285 24.0844 115.334 24.0938C115.72 24.1737 115.972 24.5499 115.892 24.9378C115.814 25.3233 115.435 25.5725 115.046 25.495C114.66 25.415 114.41 25.0389 114.488 24.651C114.557 24.3124 114.856 24.0797 115.189 24.0797ZM146.741 25.9957C146.888 26.1744 147.111 26.4353 147.129 26.5153V26.9455H146.33V26.5153C146.33 26.4353 146.601 26.1438 146.741 25.9957ZM132.747 26.2496L132.742 26.7903H132.236C132.255 26.4424 132.409 26.2825 132.747 26.2496ZM144.974 28.9344C144.956 30.6083 144.985 31.5886 144.969 33.2672C144.969 33.4623 144.974 33.6058 144.972 33.7162C144.969 33.8855 144.701 34.0712 144.579 34.2288C144.347 33.9749 144.17 33.7844 144.17 33.7257C144.168 33.5117 144.17 33.4153 144.17 32.9428C144.17 30.4038 144.168 30.9022 144.165 28.9979C143.612 29.4986 143.432 30.1546 142.608 30.4837C142.658 30.5519 142.621 30.5048 142.679 30.5636C143.23 31.1137 143.083 30.2274 143.083 31.6121V33.9843C143.083 34.3016 143.398 34.6848 143.66 34.8353L143.407 35.0892C143.267 35.2303 143.104 35.2843 143.104 35.557V37.3837H146.063V35.9638C146.063 35.1597 145.983 35.1832 145.569 34.7577C146.061 34.2946 146.07 34.3204 146.065 33.8456V32.1975C146.065 31.1279 145.877 30.9257 146.559 30.5542L146.421 30.4437C145.456 29.8066 145.537 29.4211 144.976 28.9344H144.974ZM137.583 28.9603V36.3211H135.952L135.945 31.3559C135.945 30.7635 136.204 30.8105 136.441 30.5001C136.273 30.3262 135.998 30.2674 135.575 29.8066C135.446 29.6679 135.329 29.5339 135.223 29.3905C135.122 29.2541 135.003 29.0308 134.897 28.9673L134.892 36.3188L133.819 36.3093V32.4914C133.686 32.5572 133.702 32.5525 133.599 32.6607C133.054 33.2155 132.466 33.3472 132.234 33.5423C132.611 33.7233 132.756 33.8338 132.756 34.3581C132.756 34.4521 132.756 34.485 132.756 34.5062C132.756 34.4733 132.756 34.5602 132.756 34.5273C132.756 34.5485 132.751 34.5814 132.749 34.6754C132.154 34.8094 131.864 34.8753 131.561 35.2467C131.067 35.8509 131.143 36.6056 131.143 37.3814H138.633V31.3535C138.633 30.9915 138.706 30.8692 138.952 30.6506C138.998 30.6106 139.007 30.6059 139.053 30.566C139.106 30.5213 139.097 30.5331 139.129 30.4954C138.796 30.2251 138.667 30.2533 138.261 29.816C138.13 29.675 138.022 29.548 137.914 29.3952C137.801 29.24 137.707 29.0567 137.583 28.9556V28.9603ZM147.067 28.9791L147.056 37.3837H148.161V31.5369C148.161 31.0338 148.411 30.8105 148.717 30.6036C148.533 30.5025 148.358 30.3849 148.2 30.2674C148.027 30.1404 147.926 30.0111 147.779 29.8748C147.469 29.5786 147.161 29.0684 147.067 28.9814V28.9791ZM139.853 28.9885L139.867 37.3861H140.94C141.015 36.9982 140.96 33.2108 140.96 32.1576C140.96 31.3912 140.792 31.1255 141.33 30.7352L141.514 30.5824C141.176 30.4531 140.749 30.0864 140.556 29.8748L139.853 28.9885ZM160.753 32.2469C160.634 32.3574 160.512 32.4632 160.39 32.5713C159.912 32.9945 159.448 33.4271 158.987 33.8667L167.074 34.1394L167.115 33.0556C165.881 33.0298 164.655 32.9663 163.421 32.9169C162.975 32.9005 162.536 32.8981 162.093 32.8958C161.888 32.8958 161.656 32.8911 161.466 32.8111C161.337 32.7571 161.229 32.6724 161.126 32.5807C160.999 32.4702 160.877 32.355 160.753 32.2446V32.2469ZM160.115 34.8165C159.611 35.3125 159.095 35.7898 158.578 36.2717C160.871 36.1777 163.184 36.4481 165.468 36.6126L165.645 36.6267L165.608 36.8007C165.413 37.7105 165.188 38.6086 164.903 39.4972L164.866 39.6054H164.751C164.112 39.5936 163.515 39.9087 163.163 40.4447C162.669 41.1993 162.791 42.2008 163.453 42.8144L163.536 42.892L163.485 42.9931C163.111 43.7572 162.69 44.493 162.254 45.2218L162.18 45.3464L160.331 44.4084C160.388 44.6811 160.429 44.982 160.439 45.2265C160.443 45.4122 160.436 45.6003 160.429 45.7837C160.427 45.92 160.425 46.0682 160.432 46.2116C160.884 46.1011 161.337 46.1998 161.748 46.4373C162.015 46.5901 162.281 46.7382 162.55 46.8886C162.743 46.9968 162.941 47.1073 163.129 47.2272C163.377 47.3823 163.644 47.5704 163.763 47.8478C163.894 48.1535 163.823 48.5813 163.747 48.9363C163.942 48.8775 164.131 48.7224 164.248 48.5837C164.512 48.2687 164.62 47.8643 164.583 47.4576C164.544 47.032 164.326 46.71 164.018 46.4279C163.883 46.3056 163.738 46.1951 163.591 46.0846C163.476 45.9976 163.34 45.8942 163.251 45.7813L163.184 45.6991L163.602 44.9844C163.901 44.4648 164.184 43.9335 164.445 43.3951L164.491 43.3034L164.595 43.3081C165.261 43.3505 165.907 43.0307 166.274 42.4735C166.787 41.6883 166.635 40.6445 165.916 40.0403L165.838 39.9721L165.868 39.8734C166.028 39.3797 166.173 38.8836 166.304 38.3829C166.444 37.8445 166.559 37.3038 166.66 36.7584C166.732 36.3728 166.796 35.9873 166.856 35.6017L162.922 35.456C162.431 35.4371 161.941 35.4513 161.45 35.4371C161.149 35.4301 160.818 35.4089 160.549 35.2561C160.363 35.1503 160.223 34.9928 160.11 34.8165H160.115ZM144.694 35.3643C144.843 35.5429 145.061 35.8039 145.082 35.8838V36.3141H144.28V35.8838C144.28 35.8039 144.551 35.51 144.691 35.3643H144.694ZM132.696 35.8086C132.714 35.8086 132.733 35.8086 132.751 35.8133V36.3188L132.59 36.3329H132.411L132.241 36.3258C132.259 36.0413 132.418 35.8062 132.696 35.8109V35.8086ZM133.801 38.3265C133.489 38.7144 132.724 39.1587 132.25 39.3562C132.496 39.5584 132.749 39.6359 132.749 40.1085L132.742 40.4423C131.067 40.5646 131.141 41.9987 131.141 43.1295H133.815L133.799 38.3241L133.801 38.3265ZM141.289 39.2574C141.038 39.2527 140.834 39.3844 140.673 39.5137C140.675 39.5184 140.682 39.5255 140.684 39.5302C141.385 40.3718 142.086 41.2134 142.789 42.0551H140.402C140.402 41.4509 140.145 41.0489 139.784 40.7832C139.354 40.4658 138.778 40.487 138.171 40.487H137.02C135.593 40.487 136.156 40.4353 135.664 40.0003C135.6 40.0709 135.278 40.6868 135.184 40.8349C134.964 41.1829 134.695 41.371 134.633 41.5261C135.733 41.5849 137.08 41.5355 138.348 41.5308C138.897 41.5308 139.308 41.4814 139.352 42.0527L134.693 42.0574V43.1318H143.685L143.919 43.3458C144.253 43.6561 145.259 43.5056 144.944 43.1271L142.196 39.8334C141.84 39.4056 141.539 39.2621 141.289 39.2551V39.2574ZM147.184 40.3295C146.589 40.3107 146.006 40.7691 145.732 41.5637C145.518 42.1914 145.498 42.9038 145.631 43.1812C146.159 43.1436 146.72 43.1812 147.26 43.1624C147.021 44.1004 146.274 44.2156 145.208 44.2156C145.296 44.3943 145.397 44.4154 145.594 44.5142C147.697 45.5721 149.392 43.1248 148.446 41.3145C148.112 40.6516 147.646 40.3459 147.184 40.3318V40.3295ZM164.707 40.5599C164.88 40.5575 165.057 40.6045 165.213 40.7056C165.626 40.976 165.744 41.5332 165.472 41.9469C165.201 42.3607 164.643 42.4759 164.227 42.2055C163.814 41.9352 163.696 41.3804 163.968 40.9642C164.138 40.7056 164.418 40.5646 164.707 40.5599ZM147.021 41.4321C147.276 41.418 147.561 41.6507 147.421 41.9846C147.421 41.9846 147.315 42.3489 146.895 42.1703C146.674 42.0739 146.649 41.8059 146.738 41.6178C146.796 41.4956 146.906 41.4368 147.021 41.4321ZM132.751 41.5285L132.742 42.0715L132.248 42.0621C132.28 41.7353 132.429 41.5708 132.749 41.5285H132.751ZM159.106 47.1614C158.601 47.1402 158.097 47.3847 157.665 47.8478C155.299 50.3963 152.411 52.404 149.19 53.7299L148.549 53.9932L148.698 53.6453C149.008 52.9282 149.24 52.1266 149.397 51.3319C149.1 51.922 148.797 52.5074 148.485 53.0881C148.209 53.6006 147.926 54.1131 147.632 54.6162C147.471 54.8913 147.306 55.1687 147.131 55.4391C147.628 55.2792 148.126 55.1287 148.616 54.9501C152.324 53.5959 155.655 51.3931 158.336 48.499C158.75 48.0524 159.258 48.0994 159.71 48.4379L159.848 48.5414L158.989 49.4794C156.161 52.4604 152.675 54.7267 148.799 56.1044C147.683 56.5017 146.522 56.8191 145.369 57.0871L145.222 57.12L144.724 55.1569C144.427 55.6318 143.915 56.0879 143.478 56.41C144.041 56.8449 144.356 57.8582 144.464 58.4859C144.524 58.8362 144.588 59.2641 144.551 59.6191C144.526 59.8447 144.459 60.0446 144.289 60.2021C144.211 60.2726 144.124 60.3243 144.032 60.3714C144.501 60.3855 145.022 60.3267 145.312 60.0352C145.728 59.6143 145.587 58.7868 145.47 58.279L145.436 58.1309L145.583 58.0956C146.718 57.8206 147.85 57.5361 148.956 57.1529C152.744 55.8411 156.186 53.7064 159.049 50.9017C159.43 50.5279 159.8 50.1447 160.158 49.7497C160.501 49.3689 160.829 48.9833 161.146 48.5837L160.255 47.7256C159.894 47.3612 159.501 47.1825 159.108 47.1661L159.106 47.1614ZM129.298 47.6715C128.625 48.6824 127.956 49.698 127.324 50.7372C127.046 51.1979 126.771 51.6611 126.493 52.1219C126.054 52.8507 125.608 53.5771 125.16 54.2988L126.116 54.8913L128.724 50.7113C128.88 50.4621 129.061 50.1917 129.339 50.0695C129.436 50.0272 129.537 50.0037 129.638 49.9801C129.714 49.9637 129.785 49.9472 129.859 49.9308L129.296 47.6715H129.298ZM133.633 49.7098L133.5 49.8649L133.496 49.8696C133.321 50.0342 133.084 50.1236 132.859 50.1941C132.618 50.2717 132.372 50.3351 132.142 50.4386C131.497 50.7277 131.232 51.2309 131.127 51.9126C130.987 52.8271 131.476 53.7887 131.618 54.6867L131.635 54.7855L131.55 54.8419C131.232 55.0511 130.902 55.1852 130.575 55.3685C130.035 55.6765 129.76 56.0785 129.544 56.631C129.594 56.6521 129.643 56.6757 129.691 56.6945C132.951 58.0157 136.425 58.6857 139.942 58.6857C140.579 58.6857 141.215 58.6646 141.849 58.6199L142.194 57.5526C141.445 57.6184 140.694 57.6513 139.942 57.6513C137.236 57.6513 134.55 57.2375 131.972 56.4194C131.876 56.3888 131.779 56.3583 131.681 56.3254L131.448 56.2478L131.618 56.0715C131.926 55.7494 132.459 55.5989 132.917 55.5872C132.834 55.1193 132.671 54.635 132.535 54.1907C132.315 53.4713 131.949 52.3381 132.351 51.6352C132.407 51.5388 132.471 51.4542 132.549 51.3766L132.632 51.2967L132.73 51.3531C132.94 51.4659 133.107 51.9832 133.178 52.1971C133.337 52.679 133.461 53.1798 133.576 53.6735C133.684 54.1249 133.78 54.5763 133.87 55.03C133.921 55.2839 133.971 55.5425 134.012 55.7988C134.653 55.9422 135.288 56.0691 135.936 56.182L135.795 55.2181L134.959 55.0629L134.307 52.5427C134.199 52.0819 134.075 51.6282 133.957 51.1697C133.836 50.6948 133.714 50.2035 133.636 49.7121L133.633 49.7098ZM143.428 52.7143C143.074 52.7214 142.794 53.0152 142.801 53.3655C142.81 53.7182 143.099 53.9956 143.453 53.9885C143.805 53.9838 144.085 53.6899 144.078 53.3397C144.069 52.987 143.779 52.7072 143.425 52.7143H143.428Z" fill="#005740"/>
</g>
</g>
</g>
</svg>
