<svg width="201" height="65" viewBox="0 0 201 65" fill="none" xmlns="http://www.w3.org/2000/svg">
<g id="Asset 4 1" clip-path="url(#clip0_268_36084)">
<g id="Layer_1">
<g id="Group">
<g id="Group_2">
<path id="Vector" d="M32.2404 21.877L21.9989 27.3002V38.1467L32.2404 43.5731L42.4783 38.1499V27.3002L32.2404 21.877Z" fill="#10AB7A"/>
<g id="Group_3">
<g id="Group_4">
<path id="Vector_2" d="M63.9283 17.2666V23.7751L57.782 20.5225L63.9283 17.2666Z" fill="url(#paint0_linear_268_36084)"/>
<path id="Vector_3" d="M63.6166 40.3174V46.8259L57.4739 43.5733L63.6166 40.3174Z" fill="url(#paint1_linear_268_36084)"/>
<path id="Vector_4" d="M60.9172 38.1472L54.7744 41.4031V34.8945L60.9172 38.1472Z" fill="url(#paint2_linear_268_36084)"/>
<path id="Vector_5" d="M64.7573 29.1299V35.6384L58.6146 32.3858L64.7573 29.1299Z" fill="url(#paint3_linear_268_36084)"/>
<path id="Vector_6" d="M50.6757 46.7549V53.2634L44.533 50.0108L50.6757 46.7549Z" fill="url(#paint4_linear_268_36084)"/>
<path id="Vector_7" d="M51.6995 42.4887L43.5056 38.1508L51.6995 33.8096V42.4887Z" fill="url(#paint5_linear_268_36084)"/>
<path id="Vector_8" d="M51.6995 43.5733L43.5056 47.9112V39.2354L51.6995 43.5733Z" fill="url(#paint6_linear_268_36084)"/>
<path id="Vector_9" d="M51.696 32.7237L43.5056 37.0616V28.3857L51.696 32.7237Z" fill="url(#paint7_linear_268_36084)"/>
<path id="Vector_10" d="M52.3301 57.8063L46.1873 61.0622V54.5537L52.3301 57.8063Z" fill="url(#paint8_linear_268_36084)"/>
<path id="Vector_11" d="M42.4783 38.1505L32.2404 32.724L42.4783 27.3008V38.1505Z" fill="url(#paint9_linear_268_36084)"/>
<path id="Vector_12" d="M41.458 50.2256L33.2642 54.5636V45.8877L41.458 50.2256Z" fill="url(#paint10_linear_268_36084)"/>
<path id="Vector_13" d="M40.4343 60.8575L34.288 64.1101V57.6016L40.4343 60.8575Z" fill="url(#paint11_linear_268_36084)"/>
</g>
<g id="Group_5">
<path id="Vector_14" d="M62.6353 50.7966L56.4926 54.0525V47.5439L62.6353 50.7966Z" fill="url(#paint12_linear_268_36084)"/>
<path id="Vector_15" d="M60.9172 27.2995L54.7744 30.5554V24.0469L60.9172 27.2995Z" fill="url(#paint13_linear_268_36084)"/>
<path id="Vector_16" d="M51.6995 22.9619V31.641L43.5056 27.2998L51.6995 22.9619Z" fill="url(#paint14_linear_268_36084)"/>
<path id="Vector_17" d="M40.4343 51.7129V58.2214L34.2915 54.9655L40.4343 51.7129Z" fill="url(#paint15_linear_268_36084)"/>
<path id="Vector_18" d="M41.4545 49.1391L33.2642 44.8011L41.4545 40.46V49.1391Z" fill="url(#paint16_linear_268_36084)"/>
<path id="Vector_19" d="M32.2404 32.7227L42.4783 38.1491L32.2404 43.5724V32.7227Z" fill="url(#paint17_linear_268_36084)"/>
</g>
<g id="Group_6">
<path id="Vector_20" d="M62.0225 14.085L55.8762 17.3376V10.8291L62.0225 14.085Z" fill="url(#paint18_linear_268_36084)"/>
<path id="Vector_21" d="M51.9581 4.59053L45.8118 7.84642V1.33789L51.9581 4.59053Z" fill="url(#paint19_linear_268_36084)"/>
<path id="Vector_22" d="M51.6995 21.8773L43.5056 26.2153V17.5361L51.6995 21.8773Z" fill="url(#paint20_linear_268_36084)"/>
<path id="Vector_23" d="M40.4343 12.0447L34.288 8.78877L40.4343 5.53613V12.0447Z" fill="url(#paint21_linear_268_36084)"/>
<path id="Vector_24" d="M41.458 16.3105V24.9864L33.2642 20.6485L41.458 16.3105Z" fill="url(#paint22_linear_268_36084)"/>
<path id="Vector_25" d="M32.2404 21.877V32.7234L21.9989 27.3002L32.2404 21.877Z" fill="url(#paint23_linear_268_36084)"/>
<path id="Vector_26" d="M31.2166 19.5639L23.0227 15.226L31.2166 10.8848V19.5639Z" fill="url(#paint24_linear_268_36084)"/>
<path id="Vector_27" d="M30.1893 6.6179L24.043 3.36526L30.1893 0.109375V6.6179Z" fill="url(#paint25_linear_268_36084)"/>
<path id="Vector_28" d="M20.9715 26.2153L12.7812 21.8741L20.9715 17.5361V26.2153Z" fill="url(#paint26_linear_268_36084)"/>
<path id="Vector_29" d="M17.677 5.06152V11.5701L11.5307 8.31741L17.677 5.06152Z" fill="url(#paint27_linear_268_36084)"/>
</g>
<g id="Group_7">
<path id="Vector_30" d="M50.6757 18.6963L44.5294 15.4405L50.6757 12.1846V18.6963Z" fill="url(#paint28_linear_268_36084)"/>
<path id="Vector_31" d="M40.4343 3.36526L34.288 6.6179V0.109375L40.4343 3.36526Z" fill="url(#paint29_linear_268_36084)"/>
<path id="Vector_32" d="M41.458 15.2256L33.2642 19.5636V10.8877L41.458 15.2256Z" fill="url(#paint30_linear_268_36084)"/>
<path id="Vector_33" d="M42.4783 27.3002L32.2404 32.7234V21.877L42.4783 27.3002Z" fill="url(#paint31_linear_268_36084)"/>
<path id="Vector_34" d="M30.1928 10.6247L24.0465 13.8806V7.37207L30.1928 10.6247Z" fill="url(#paint32_linear_268_36084)"/>
<path id="Vector_35" d="M31.2166 20.6485L23.0227 24.9864V16.3105L31.2166 20.6485Z" fill="url(#paint33_linear_268_36084)"/>
<path id="Vector_36" d="M19.9478 15.4401L13.805 18.6928V12.1875L19.9478 15.4401Z" fill="url(#paint34_linear_268_36084)"/>
<path id="Vector_37" d="M6.75891 20.324L0.61261 17.0713L6.75891 13.8154V20.324Z" fill="url(#paint35_linear_268_36084)"/>
</g>
<g id="Group_8">
<path id="Vector_38" d="M30.1928 64.1091L24.043 60.8565L30.1928 57.6006V64.1091Z" fill="url(#paint36_linear_268_36084)"/>
<g id="Group_9">
<path id="Vector_39" d="M32.2404 32.7227V43.5724L21.9989 38.1459L32.2404 32.7227Z" fill="url(#paint37_linear_268_36084)"/>
<path id="Vector_40" d="M19.9478 54.8867V61.3952L13.805 58.1426L19.9478 54.8867Z" fill="url(#paint38_linear_268_36084)"/>
<path id="Vector_41" d="M20.9716 38.1498L12.7777 42.4877V33.8086L20.9716 38.1498Z" fill="url(#paint39_linear_268_36084)"/>
<path id="Vector_42" d="M20.9716 27.2998L12.7777 31.641V22.9619L20.9716 27.2998Z" fill="url(#paint40_linear_268_36084)"/>
<path id="Vector_43" d="M8.60101 48.8467V55.3552L2.45471 52.1026L8.60101 48.8467Z" fill="url(#paint41_linear_268_36084)"/>
<path id="Vector_44" d="M9.7063 23.8193V30.3279L3.56 27.0752L9.7063 23.8193Z" fill="url(#paint42_linear_268_36084)"/>
<path id="Vector_45" d="M6.14606 33.0056L-0.000244141 36.2582V29.7529L6.14606 33.0056Z" fill="url(#paint43_linear_268_36084)"/>
</g>
</g>
<g id="Group_10">
<path id="Vector_46" d="M31.2131 54.5619L23.0192 50.224L31.2131 45.8828V54.5619Z" fill="url(#paint44_linear_268_36084)"/>
<path id="Vector_47" d="M32.2404 32.723L21.9989 38.1463V27.2998L32.2404 32.723Z" fill="url(#paint45_linear_268_36084)"/>
<path id="Vector_48" d="M30.1928 55.4326L24.043 58.6853V52.1768L30.1928 55.4326Z" fill="url(#paint46_linear_268_36084)"/>
<path id="Vector_49" d="M31.2131 44.7982L23.0227 49.1394V40.457L31.2131 44.7982Z" fill="url(#paint47_linear_268_36084)"/>
<path id="Vector_50" d="M19.9478 50.0098L13.8051 53.2624V46.7539L19.9478 50.0098Z" fill="url(#paint48_linear_268_36084)"/>
<path id="Vector_51" d="M20.9716 39.2354V47.9112L12.7777 43.5733L20.9716 39.2354Z" fill="url(#paint49_linear_268_36084)"/>
<path id="Vector_52" d="M20.9716 28.3818V37.0577L12.7777 32.723L20.9716 28.3818Z" fill="url(#paint50_linear_268_36084)"/>
<path id="Vector_53" d="M9.7063 41.4021L3.56 38.1462L9.7063 34.8936V41.4021Z" fill="url(#paint51_linear_268_36084)"/>
<path id="Vector_54" d="M6.3905 21.8767L0.247744 25.1326L0.244202 18.624L6.3905 21.8767Z" fill="url(#paint52_linear_268_36084)"/>
<path id="Vector_55" d="M6.75891 43.9691L0.61261 47.2217V40.71L6.75891 43.9691Z" fill="url(#paint53_linear_268_36084)"/>
</g>
</g>
</g>
<g id="Group_11">
<g id="Group_12">
<g id="Group_13">
<path id="Vector_56" d="M83.0439 57.5194C82.8101 57.3666 82.5444 57.2432 82.2433 57.1522C81.9422 57.0612 81.6375 56.9832 81.3223 56.915C81.007 56.8467 80.7023 56.785 80.4012 56.7298C80.1001 56.6745 79.8344 56.5998 79.597 56.5153C79.3597 56.4276 79.1684 56.3171 79.0267 56.1774C78.885 56.0409 78.8141 55.8622 78.8141 55.6412C78.8141 55.4073 78.8637 55.2123 78.9629 55.0531C79.0621 54.8971 79.1932 54.7704 79.3561 54.6762C79.5191 54.5819 79.7069 54.5169 79.9194 54.4747C80.132 54.4357 80.3481 54.413 80.5641 54.413C81.1062 54.413 81.549 54.5299 81.8961 54.7606C82.2433 54.9913 82.4452 55.365 82.5055 55.8817H83.4903C83.4761 55.4853 83.3911 55.1473 83.2388 54.8614C83.0864 54.5754 82.881 54.3415 82.6259 54.153C82.3708 53.9645 82.0697 53.8281 81.7261 53.7403C81.3825 53.6526 81.0105 53.6104 80.6102 53.6104C80.2524 53.6104 79.9052 53.6526 79.5652 53.7371C79.2251 53.8216 78.924 53.9483 78.6547 54.1173C78.389 54.2895 78.1729 54.5072 78.0135 54.7704C77.8541 55.0336 77.7726 55.3488 77.7726 55.7095C77.7726 56.0376 77.8435 56.3106 77.9852 56.5218C78.1269 56.7363 78.3182 56.915 78.5555 57.0547C78.7929 57.1944 79.0621 57.3082 79.3597 57.3926C79.6573 57.4771 79.9655 57.5486 80.2807 57.6071C80.596 57.6688 80.9007 57.7306 81.2018 57.7923C81.4994 57.8573 81.7686 57.9353 82.0024 58.0328C82.2362 58.1303 82.424 58.257 82.5657 58.4097C82.7074 58.5624 82.7782 58.7639 82.7782 59.0141C82.7782 59.274 82.718 59.4885 82.6046 59.6575C82.4877 59.8264 82.3354 59.9564 82.1441 60.0539C81.9528 60.1514 81.7403 60.2196 81.5029 60.2586C81.2656 60.2976 81.0282 60.3203 80.798 60.3203C80.4968 60.3203 80.2134 60.2879 79.9371 60.2196C79.6643 60.1514 79.4235 60.0474 79.2144 59.9077C79.0054 59.7679 78.8389 59.5892 78.7114 59.3715C78.5839 59.1538 78.5201 58.8939 78.5201 58.5917H77.5353C77.5353 59.0271 77.6203 59.404 77.7939 59.7225C77.9639 60.0409 78.1977 60.3041 78.4953 60.5121C78.7893 60.72 79.133 60.8727 79.5262 60.9735C79.9159 61.0742 80.3303 61.1229 80.7696 61.1229C81.1274 61.1229 81.4888 61.084 81.8501 61.0027C82.2114 60.9215 82.5373 60.798 82.8314 60.6258C83.1219 60.4536 83.3628 60.2326 83.5505 59.9629C83.7383 59.6932 83.8304 59.365 83.8304 58.9848C83.8304 58.6372 83.7595 58.3447 83.6178 58.1043C83.4761 57.8671 83.2884 57.6721 83.0546 57.5161L83.0439 57.5194Z" fill="#221E20"/>
<path id="Vector_57" d="M89.4028 60.1839C89.378 60.0897 89.3638 59.9435 89.3638 59.742V57.071C89.3638 56.7688 89.3001 56.5251 89.1761 56.3366C89.0521 56.1482 88.8891 56.002 88.6837 55.898C88.4782 55.794 88.2515 55.7258 87.9999 55.6933C87.7484 55.6608 87.4934 55.6445 87.2383 55.6445C86.923 55.6445 86.6254 55.6738 86.3385 55.7355C86.0551 55.7973 85.8 55.8947 85.5839 56.0312C85.3643 56.1677 85.1907 56.3464 85.0596 56.5674C84.9286 56.7883 84.8542 57.0613 84.84 57.3797H85.7717C85.7929 56.9995 85.9346 56.7396 86.2003 56.5999C86.4625 56.4634 86.7919 56.3951 87.1852 56.3951C87.3304 56.3951 87.4792 56.4049 87.628 56.4244C87.7768 56.4439 87.9114 56.4861 88.0318 56.5446C88.1523 56.6063 88.2515 56.6908 88.3259 56.8046C88.4038 56.9183 88.4392 57.0678 88.4392 57.2562C88.4392 57.4154 88.3896 57.5389 88.2869 57.6234C88.1842 57.7079 88.046 57.7696 87.8724 57.8151C87.6988 57.8574 87.4934 57.8931 87.2631 57.9159C87.0328 57.9386 86.7919 57.9743 86.5333 58.0198C86.2924 58.0588 86.0551 58.1108 85.8284 58.1758C85.5981 58.2408 85.3926 58.3285 85.2155 58.4423C85.0348 58.556 84.8931 58.7055 84.7833 58.8939C84.6735 59.0824 84.6204 59.3228 84.6204 59.6185C84.6204 59.8785 84.67 60.1027 84.7691 60.2879C84.8683 60.4731 84.9994 60.6226 85.1695 60.7396C85.336 60.8566 85.5379 60.941 85.7681 60.9963C85.9984 61.0483 86.2393 61.0775 86.4979 61.0775C86.8911 61.0775 87.2596 61.0125 87.5996 60.8858C87.9397 60.7591 88.2373 60.5544 88.4924 60.2717C88.4924 60.5544 88.5632 60.7558 88.7049 60.8858C88.8466 61.0125 89.0379 61.0775 89.2788 61.0775C89.5551 61.0775 89.7783 61.032 89.9483 60.9378V60.2749C89.8456 60.3074 89.75 60.3237 89.6649 60.3237C89.5197 60.3237 89.4347 60.2782 89.4063 60.1839H89.4028ZM88.4321 59.1474C88.4321 59.2676 88.4003 59.3976 88.3329 59.5341C88.2656 59.6705 88.1664 59.7973 88.0247 59.9142C87.8866 60.0312 87.7059 60.1287 87.4863 60.2067C87.2666 60.2847 87.0045 60.3237 86.6963 60.3237C86.551 60.3237 86.4129 60.3107 86.2783 60.2847C86.1472 60.2587 86.0303 60.2132 85.9346 60.1547C85.8355 60.0929 85.754 60.015 85.6937 59.9175C85.63 59.82 85.6016 59.703 85.6016 59.56C85.6016 59.4008 85.6335 59.2644 85.6937 59.1571C85.754 59.0499 85.839 58.9622 85.9417 58.8907C86.0445 58.8192 86.1649 58.7639 86.3031 58.725C86.4412 58.686 86.5865 58.6502 86.7423 58.6242C86.8947 58.5982 87.0541 58.5755 87.2206 58.5592C87.3835 58.543 87.5394 58.5235 87.6847 58.4975C87.8299 58.4748 87.9681 58.4455 88.0991 58.413C88.2302 58.3805 88.34 58.3318 88.4286 58.2733V59.1474H88.4321Z" fill="#221E20"/>
<path id="Vector_58" d="M94.5678 58.6953C94.5678 58.9292 94.5324 59.1469 94.465 59.3419C94.3942 59.5401 94.2915 59.7123 94.1533 59.8585C94.0151 60.0048 93.8416 60.1185 93.6325 60.1997C93.4235 60.281 93.1791 60.32 92.8922 60.32C92.5344 60.32 92.2545 60.2257 92.049 60.0373C91.8436 59.8488 91.7408 59.5953 91.7408 59.2737V55.7578H90.8091V59.1729C90.8091 59.4556 90.841 59.7091 90.9013 59.943C90.9615 60.1737 91.0713 60.3719 91.2236 60.5409C91.376 60.7099 91.5779 60.8399 91.8258 60.9341C92.0738 61.0283 92.3856 61.0738 92.7575 61.0738C93.1649 61.0738 93.5263 60.9958 93.838 60.8431C94.1498 60.6904 94.4013 60.4499 94.5997 60.1282H94.6209V60.9536H95.4959V55.7578H94.5642V58.692L94.5678 58.6953Z" fill="#221E20"/>
<path id="Vector_59" d="M101.029 56.4565H101.008C100.905 56.3038 100.781 56.1738 100.629 56.0698C100.48 55.9658 100.321 55.8813 100.151 55.8196C99.9843 55.7546 99.8143 55.7124 99.6478 55.6831C99.4813 55.6571 99.3219 55.6441 99.1766 55.6441C98.7444 55.6441 98.3689 55.7156 98.043 55.8586C97.7171 56.0016 97.4479 56.1998 97.2318 56.4467C97.0157 56.6937 96.8563 56.9796 96.75 57.3046C96.6437 57.6295 96.5906 57.9772 96.5906 58.3444C96.5906 58.7116 96.6437 59.0625 96.7535 59.3907C96.8633 59.7189 97.0263 60.0081 97.2424 60.2583C97.4585 60.5085 97.7277 60.7099 98.0536 60.8562C98.3796 61.0024 98.7586 61.0771 99.1979 61.0771C99.5911 61.0771 99.9524 61.0121 100.282 60.8821C100.611 60.7522 100.852 60.541 101.005 60.255H101.026V60.9569H101.958V53.7822H101.026V56.4532L101.029 56.4565ZM100.969 59.0787C100.905 59.3127 100.806 59.5239 100.668 59.7059C100.53 59.8911 100.349 60.0406 100.13 60.1543C99.9099 60.268 99.6442 60.3265 99.329 60.3265C99.0137 60.3265 98.7692 60.2745 98.5461 60.1673C98.3229 60.0601 98.1422 59.9171 97.997 59.7351C97.8553 59.5531 97.749 59.3484 97.6781 59.1177C97.6073 58.887 97.5754 58.6498 97.5754 58.4094C97.5754 58.1559 97.6037 57.9057 97.664 57.6653C97.7206 57.4248 97.8163 57.2103 97.9474 57.0219C98.0784 56.8334 98.252 56.6839 98.4681 56.5702C98.6842 56.4565 98.9535 56.398 99.2723 56.398C99.5911 56.398 99.8674 56.4532 100.094 56.5637C100.321 56.6742 100.505 56.8204 100.647 57.0024C100.788 57.1843 100.895 57.3923 100.959 57.6295C101.026 57.8667 101.058 58.1137 101.058 58.3671C101.058 58.6076 101.026 58.8448 100.966 59.082L100.969 59.0787Z" fill="#221E20"/>
<path id="Vector_60" d="M104.381 55.7617H103.449V60.9575H104.381V55.7617Z" fill="#221E20"/>
<path id="Vector_61" d="M111.71 53.7822H109.025V60.9569H111.71C112.358 60.9569 112.922 60.8724 113.396 60.7067C113.871 60.5377 114.261 60.2973 114.569 59.9788C114.877 59.6604 115.1 59.2705 115.249 58.8025C115.394 58.3379 115.469 57.8017 115.469 57.2006C115.469 56.0471 115.143 55.1925 114.495 54.6271C113.846 54.0649 112.918 53.7822 111.714 53.7822H111.71ZM114.278 58.4581C114.179 58.77 114.055 59.03 113.899 59.238C113.747 59.4459 113.574 59.6084 113.379 59.7319C113.184 59.8521 112.989 59.9431 112.794 60.0081C112.596 60.073 112.412 60.112 112.234 60.1283C112.061 60.1445 111.912 60.1543 111.795 60.1543H110.063V54.5881H111.816C112.298 54.5881 112.702 54.6531 113.032 54.7798C113.361 54.9065 113.63 55.0885 113.836 55.3224C114.045 55.5564 114.193 55.8423 114.286 56.1803C114.378 56.5182 114.424 56.9016 114.424 57.3306C114.424 57.7595 114.374 58.1494 114.275 58.4614L114.278 58.4581Z" fill="#221E20"/>
<path id="Vector_62" d="M121.059 60.1839C121.034 60.0897 121.02 59.9435 121.02 59.742V57.071C121.02 56.7688 120.956 56.5251 120.832 56.3366C120.708 56.1482 120.545 56.002 120.34 55.898C120.134 55.794 119.908 55.7258 119.656 55.6933C119.405 55.6608 119.149 55.6445 118.894 55.6445C118.579 55.6445 118.282 55.6738 117.995 55.7355C117.711 55.7973 117.456 55.8947 117.24 56.0312C117.02 56.1677 116.847 56.3464 116.716 56.5674C116.585 56.7883 116.51 57.0613 116.496 57.3797H117.428C117.449 56.9995 117.591 56.7396 117.856 56.5999C118.119 56.4634 118.448 56.3951 118.841 56.3951C118.987 56.3951 119.135 56.4049 119.284 56.4244C119.433 56.4439 119.567 56.4861 119.688 56.5446C119.808 56.6063 119.908 56.6908 119.982 56.8046C120.06 56.9183 120.095 57.0678 120.095 57.2562C120.095 57.4154 120.046 57.5389 119.943 57.6234C119.84 57.7079 119.702 57.7696 119.529 57.8151C119.355 57.8574 119.149 57.8931 118.919 57.9159C118.689 57.9386 118.448 57.9743 118.189 58.0198C117.949 58.0588 117.715 58.1108 117.484 58.1758C117.254 58.2408 117.049 58.3285 116.872 58.4423C116.691 58.556 116.549 58.7055 116.439 58.8939C116.33 59.0824 116.276 59.3228 116.276 59.6185C116.276 59.8785 116.326 60.1027 116.425 60.2879C116.524 60.4731 116.656 60.6226 116.826 60.7396C116.992 60.8566 117.194 60.941 117.424 60.9963C117.655 61.0483 117.895 61.0775 118.154 61.0775C118.547 61.0775 118.916 61.0125 119.256 60.8858C119.596 60.7591 119.893 60.5544 120.148 60.2717C120.148 60.5544 120.219 60.7558 120.361 60.8858C120.503 61.0125 120.694 61.0775 120.935 61.0775C121.211 61.0775 121.434 61.032 121.604 60.9378V60.2749C121.502 60.3074 121.406 60.3237 121.321 60.3237C121.176 60.3237 121.091 60.2782 121.062 60.1839H121.059ZM120.088 59.1474C120.088 59.2676 120.056 59.3976 119.989 59.5341C119.922 59.6705 119.823 59.7973 119.681 59.9142C119.543 60.0312 119.362 60.1287 119.142 60.2067C118.923 60.2847 118.661 60.3237 118.352 60.3237C118.207 60.3237 118.069 60.3107 117.938 60.2847C117.807 60.2587 117.69 60.2132 117.594 60.1547C117.495 60.0929 117.414 60.015 117.353 59.9175C117.29 59.82 117.261 59.703 117.261 59.56C117.261 59.4008 117.293 59.2644 117.353 59.1571C117.414 59.0499 117.499 58.9622 117.601 58.8907C117.704 58.8192 117.825 58.7639 117.963 58.725C118.101 58.686 118.246 58.6502 118.402 58.6242C118.554 58.5982 118.714 58.5755 118.877 58.5592C119.04 58.543 119.196 58.5235 119.341 58.4975C119.486 58.4748 119.624 58.4455 119.755 58.413C119.886 58.3805 119.996 58.3318 120.085 58.2733V59.1474H120.088Z" fill="#221E20"/>
<path id="Vector_63" d="M123.758 54.2054H122.827V55.7619H121.863V56.5157H122.827V59.8203C122.827 60.0608 122.851 60.2558 122.905 60.402C122.954 60.5482 123.036 60.6619 123.138 60.7432C123.245 60.8244 123.383 60.8796 123.553 60.9089C123.723 60.9381 123.932 60.9544 124.173 60.9544H124.885V60.2005H124.456C124.311 60.2005 124.19 60.194 124.102 60.1843C124.01 60.1745 123.939 60.1518 123.889 60.1193C123.84 60.0868 123.804 60.0381 123.787 59.9796C123.769 59.9178 123.758 59.8398 123.758 59.7391V56.5125H124.885V55.7586H123.758V54.2021V54.2054Z" fill="#221E20"/>
<path id="Vector_64" d="M130.39 60.1839C130.365 60.0897 130.351 59.9435 130.351 59.742V57.071C130.351 56.7688 130.287 56.5251 130.163 56.3366C130.039 56.1482 129.876 56.002 129.671 55.898C129.465 55.794 129.239 55.7258 128.987 55.6933C128.736 55.6608 128.48 55.6445 128.225 55.6445C127.91 55.6445 127.613 55.6738 127.326 55.7355C127.042 55.7973 126.787 55.8947 126.571 56.0312C126.351 56.1677 126.178 56.3464 126.047 56.5674C125.916 56.7883 125.841 57.0613 125.827 57.3797H126.759C126.78 56.9995 126.922 56.7396 127.187 56.5999C127.45 56.4634 127.779 56.3951 128.172 56.3951C128.318 56.3951 128.466 56.4049 128.615 56.4244C128.764 56.4439 128.899 56.4861 129.019 56.5446C129.139 56.6063 129.239 56.6908 129.313 56.8046C129.391 56.9183 129.426 57.0678 129.426 57.2562C129.426 57.4154 129.377 57.5389 129.274 57.6234C129.171 57.7079 129.033 57.7696 128.86 57.8151C128.686 57.8574 128.48 57.8931 128.25 57.9159C128.02 57.9386 127.779 57.9743 127.52 58.0198C127.28 58.0588 127.046 58.1108 126.815 58.1758C126.585 58.2408 126.38 58.3285 126.203 58.4423C126.022 58.556 125.88 58.7055 125.77 58.8939C125.661 59.0824 125.607 59.3228 125.607 59.6185C125.607 59.8785 125.657 60.1027 125.756 60.2879C125.855 60.4731 125.987 60.6226 126.157 60.7396C126.323 60.8566 126.525 60.941 126.755 60.9963C126.986 61.0483 127.226 61.0775 127.485 61.0775C127.878 61.0775 128.247 61.0125 128.587 60.8858C128.927 60.7591 129.224 60.5544 129.479 60.2717C129.479 60.5544 129.55 60.7558 129.692 60.8858C129.834 61.0125 130.025 61.0775 130.266 61.0775C130.542 61.0775 130.765 61.032 130.935 60.9378V60.2749C130.833 60.3074 130.737 60.3237 130.652 60.3237C130.507 60.3237 130.422 60.2782 130.393 60.1839H130.39ZM129.419 59.1474C129.419 59.2676 129.387 59.3976 129.32 59.5341C129.253 59.6705 129.154 59.7973 129.012 59.9142C128.874 60.0312 128.693 60.1287 128.473 60.2067C128.254 60.2847 127.992 60.3237 127.683 60.3237C127.538 60.3237 127.4 60.3107 127.269 60.2847C127.138 60.2587 127.021 60.2132 126.925 60.1547C126.826 60.0929 126.745 60.015 126.684 59.9175C126.621 59.82 126.592 59.703 126.592 59.56C126.592 59.4008 126.624 59.2644 126.684 59.1571C126.745 59.0499 126.83 58.9622 126.932 58.8907C127.035 58.8192 127.156 58.7639 127.294 58.725C127.432 58.686 127.577 58.6502 127.733 58.6242C127.885 58.5982 128.045 58.5755 128.208 58.5592C128.371 58.543 128.527 58.5235 128.672 58.4975C128.817 58.4748 128.955 58.4455 129.086 58.413C129.217 58.3805 129.327 58.3318 129.416 58.2733V59.1474H129.419Z" fill="#221E20"/>
<path id="Vector_65" d="M139.891 58.9137C139.948 58.7902 139.997 58.6635 140.04 58.5367C140.079 58.41 140.114 58.2703 140.139 58.1208C140.164 57.9713 140.189 57.7861 140.21 57.5717H139.324C139.303 57.9551 139.218 58.3255 139.073 58.6862L137.659 57.1103C137.85 57.0095 138.031 56.899 138.208 56.7723C138.382 56.6488 138.541 56.5091 138.679 56.3564C138.818 56.2037 138.927 56.0347 139.009 55.8495C139.09 55.6643 139.129 55.4661 139.129 55.2516C139.129 55.0112 139.076 54.7967 138.97 54.6147C138.864 54.4295 138.722 54.2768 138.548 54.1533C138.375 54.0298 138.169 53.9389 137.939 53.8771C137.709 53.8154 137.475 53.7861 137.234 53.7861C136.951 53.7861 136.696 53.8251 136.48 53.9064C136.26 53.9876 136.076 54.0948 135.927 54.2313C135.778 54.3678 135.665 54.527 135.587 54.7025C135.509 54.8812 135.473 55.0664 135.473 55.2614C135.473 55.4433 135.498 55.6058 135.544 55.7553C135.59 55.9015 135.658 56.0412 135.743 56.1679C135.828 56.2947 135.92 56.4214 136.023 56.5514C136.125 56.6781 136.232 56.8113 136.341 56.9543C136.093 57.0745 135.856 57.2045 135.636 57.341C135.413 57.4774 135.222 57.6334 135.055 57.8024C134.892 57.9746 134.761 58.1663 134.662 58.3808C134.563 58.5952 134.513 58.8422 134.513 59.1249C134.513 59.2711 134.542 59.4563 134.595 59.6773C134.648 59.8982 134.765 60.1127 134.939 60.3207C135.112 60.5286 135.364 60.7073 135.682 60.8568C136.005 61.0063 136.426 61.0843 136.954 61.0843C137.167 61.0843 137.379 61.0615 137.595 61.0193C137.812 60.977 138.017 60.912 138.208 60.8276C138.403 60.7431 138.58 60.6391 138.747 60.5124C138.91 60.3856 139.051 60.2394 139.168 60.0705L140.001 60.964H141.216L139.693 59.3458C139.774 59.1866 139.841 59.0436 139.902 58.9202L139.891 58.9137ZM136.674 54.722C136.866 54.5985 137.071 54.5367 137.291 54.5367C137.571 54.5367 137.79 54.6115 137.953 54.7642C138.116 54.9137 138.194 55.0956 138.194 55.3004C138.194 55.4531 138.162 55.5928 138.095 55.7163C138.028 55.8397 137.943 55.9535 137.84 56.0542C137.737 56.1549 137.624 56.2459 137.5 56.3239C137.376 56.4051 137.259 56.4766 137.146 56.5449C137.057 56.4441 136.968 56.3434 136.88 56.2427C136.791 56.1419 136.71 56.0412 136.639 55.9372C136.565 55.8332 136.504 55.7293 136.458 55.622C136.412 55.5148 136.387 55.4076 136.387 55.3004C136.387 55.0404 136.483 54.8454 136.674 54.722ZM137.936 60.0932C137.656 60.2459 137.333 60.3239 136.975 60.3239C136.784 60.3239 136.6 60.2947 136.423 60.2329C136.242 60.1712 136.086 60.09 135.945 59.986C135.806 59.882 135.693 59.7553 135.612 59.6025C135.527 59.4531 135.484 59.2873 135.484 59.1054C135.484 58.8909 135.52 58.7057 135.594 58.5465C135.668 58.3905 135.764 58.2475 135.888 58.1208C136.012 57.9941 136.157 57.8804 136.32 57.7796C136.483 57.6789 136.657 57.5814 136.841 57.4872L138.637 59.4661C138.446 59.726 138.212 59.934 137.932 60.0899L137.936 60.0932Z" fill="#221E20"/>
<path id="Vector_66" d="M147.065 53.7822L144.007 60.9569H145.081L145.956 58.796H149.265L150.118 60.9569H151.27L148.212 53.7822H147.061H147.065ZM146.289 57.9934L147.614 54.6466H147.635L148.939 57.9934H146.289Z" fill="#221E20"/>
<path id="Vector_67" d="M153.126 53.7822H152.084V60.9569H153.126V53.7822Z" fill="#221E20"/>
<path id="Vector_68" d="M160.045 53.7822L156.987 60.9569H158.061L158.936 58.796H162.244L163.098 60.9569H164.25L161.192 53.7822H160.041H160.045ZM159.269 57.9934L160.594 54.6466H160.615L161.919 57.9934H159.269Z" fill="#221E20"/>
<path id="Vector_69" d="M168.621 58.6953C168.621 58.9292 168.586 59.1469 168.518 59.3419C168.447 59.5401 168.345 59.7123 168.207 59.8585C168.068 60.0048 167.895 60.1185 167.686 60.1997C167.477 60.281 167.232 60.32 166.945 60.32C166.588 60.32 166.308 60.2257 166.102 60.0373C165.897 59.8488 165.794 59.5953 165.794 59.2737V55.7578H164.862V59.1729C164.862 59.4556 164.894 59.7091 164.954 59.943C165.015 60.1737 165.125 60.3719 165.277 60.5409C165.429 60.7099 165.631 60.8399 165.879 60.9341C166.127 61.0283 166.439 61.0738 166.811 61.0738C167.218 61.0738 167.579 60.9958 167.891 60.8431C168.203 60.6904 168.454 60.4499 168.653 60.1282H168.674V60.9536H169.549V55.7578H168.617V58.692L168.621 58.6953Z" fill="#221E20"/>
<path id="Vector_70" d="M172.249 54.2054H171.317V55.7619H170.353V56.5157H171.317V59.8203C171.317 60.0608 171.342 60.2558 171.395 60.402C171.444 60.5482 171.526 60.6619 171.629 60.7432C171.735 60.8244 171.873 60.8796 172.043 60.9089C172.213 60.9381 172.422 60.9544 172.663 60.9544H173.375V60.2005H172.946C172.801 60.2005 172.681 60.194 172.592 60.1843C172.5 60.1745 172.429 60.1518 172.38 60.1193C172.33 60.0868 172.295 60.0381 172.277 59.9796C172.259 59.9178 172.249 59.8398 172.249 59.7391V56.5125H173.375V55.7586H172.249V54.2021V54.2054Z" fill="#221E20"/>
<path id="Vector_71" d="M178.678 56.1738C178.526 56.0048 178.324 55.8748 178.076 55.7806C177.828 55.6864 177.516 55.6409 177.144 55.6409C176.978 55.6409 176.804 55.6571 176.624 55.6896C176.443 55.7221 176.276 55.7741 176.113 55.8456C175.954 55.9171 175.805 56.0081 175.671 56.1218C175.536 56.2355 175.43 56.3687 175.359 56.5247H175.338V53.7822H174.406V60.9569H175.338V58.0227C175.338 57.7887 175.373 57.571 175.44 57.3761C175.511 57.1778 175.614 57.0056 175.752 56.8594C175.89 56.7132 176.064 56.5995 176.273 56.5182C176.482 56.437 176.726 56.398 177.013 56.398C177.371 56.398 177.651 56.4922 177.856 56.6807C178.062 56.8692 178.165 57.1226 178.165 57.4443V60.9601H179.096V57.545C179.096 57.2623 179.064 57.0089 179.004 56.7749C178.94 56.5442 178.834 56.346 178.682 56.177L178.678 56.1738Z" fill="#221E20"/>
<path id="Vector_72" d="M184.988 56.4312C184.754 56.1875 184.467 55.9958 184.123 55.8528C183.78 55.7131 183.386 55.6416 182.94 55.6416C182.494 55.6416 182.09 55.7131 181.753 55.8528C181.413 55.9925 181.126 56.1875 180.892 56.4312C180.659 56.6749 180.485 56.9641 180.368 57.2955C180.251 57.627 180.194 57.9844 180.194 58.3646C180.194 58.7448 180.251 59.1022 180.368 59.4304C180.485 59.7586 180.659 60.0445 180.892 60.2882C181.126 60.5319 181.413 60.7269 181.753 60.8666C182.093 61.0063 182.49 61.0778 182.94 61.0778C183.39 61.0778 183.78 61.0063 184.123 60.8666C184.467 60.7269 184.754 60.5319 184.988 60.2882C185.221 60.0445 185.395 59.7586 185.512 59.4304C185.629 59.1022 185.685 58.748 185.685 58.3646C185.685 57.9812 185.625 57.627 185.512 57.2955C185.395 56.9641 185.221 56.6749 184.988 56.4312ZM184.566 59.2029C184.474 59.4466 184.35 59.6514 184.187 59.8171C184.027 59.9828 183.84 60.1063 183.624 60.194C183.408 60.2817 183.181 60.324 182.94 60.324C182.699 60.324 182.472 60.2817 182.256 60.194C182.04 60.1063 181.852 59.9828 181.693 59.8171C181.534 59.6546 181.406 59.4499 181.314 59.2029C181.222 58.9592 181.176 58.6798 181.176 58.3646C181.176 58.0494 181.222 57.77 181.314 57.5262C181.406 57.2825 181.53 57.0746 181.693 56.9089C181.852 56.7399 182.04 56.6132 182.256 56.5287C182.472 56.441 182.699 56.3987 182.94 56.3987C183.181 56.3987 183.408 56.441 183.624 56.5287C183.84 56.6164 184.027 56.7431 184.187 56.9089C184.346 57.0778 184.474 57.2825 184.566 57.5262C184.658 57.77 184.704 58.0494 184.704 58.3646C184.704 58.6798 184.658 58.9592 184.566 59.2029Z" fill="#221E20"/>
<path id="Vector_73" d="M187.648 56.8568H187.627V55.7617H186.752V60.9575H187.683V58.6472C187.683 58.319 187.719 58.0233 187.793 57.7633C187.868 57.5034 187.985 57.2824 188.144 57.1005C188.303 56.9185 188.516 56.782 188.778 56.6878C189.04 56.5936 189.359 56.5481 189.731 56.5481V55.6447C189.228 55.6317 188.81 55.726 188.484 55.9274C188.155 56.1289 187.878 56.4408 187.652 56.8633L187.648 56.8568Z" fill="#221E20"/>
<path id="Vector_74" d="M191.417 55.7617H190.486V60.9575H191.417V55.7617Z" fill="#221E20"/>
<path id="Vector_75" d="M194.156 54.2054H193.224V55.7619H192.26V56.5157H193.224V59.8203C193.224 60.0608 193.249 60.2558 193.302 60.402C193.351 60.5482 193.433 60.6619 193.536 60.7432C193.642 60.8244 193.78 60.8796 193.95 60.9089C194.12 60.9381 194.329 60.9544 194.57 60.9544H195.282V60.2005H194.853C194.708 60.2005 194.588 60.194 194.499 60.1843C194.407 60.1745 194.336 60.1518 194.287 60.1193C194.237 60.0868 194.202 60.0381 194.184 59.9796C194.166 59.9178 194.156 59.8398 194.156 59.7391V56.5125H195.282V55.7586H194.156V54.2021V54.2054Z" fill="#221E20"/>
<path id="Vector_76" d="M200.015 55.7617L198.428 60.0119H198.407L196.752 55.7617H195.7L197.946 60.925L197.564 61.8088C197.475 61.9616 197.372 62.0785 197.255 62.1598C197.138 62.241 196.986 62.28 196.795 62.28C196.699 62.28 196.607 62.267 196.515 62.241C196.423 62.215 196.334 62.1858 196.246 62.1598V62.9429C196.348 62.9754 196.455 62.9981 196.565 63.0144C196.674 63.0274 196.784 63.0339 196.894 63.0339C197.099 63.0339 197.28 63.0079 197.443 62.9591C197.602 62.9104 197.748 62.8291 197.872 62.7187C197.996 62.6082 198.109 62.4652 198.215 62.293C198.322 62.1175 198.428 61.9031 198.538 61.6496L201.003 55.7617H200.018H200.015Z" fill="#221E20"/>
<path id="Vector_77" d="M104.381 53.7822H103.449V54.8285L104.381 54.3346V53.7822Z" fill="#221E20"/>
<path id="Vector_78" d="M191.417 53.7822H190.486V54.8285L191.417 54.3346V53.7822Z" fill="#221E20"/>
</g>
<g id="Group_14">
<path id="Vector_79" d="M77.6061 36.3492C77.7762 36.4661 78.0029 36.5506 78.2863 36.6059C78.5661 36.6611 78.9204 36.6871 79.342 36.6871H85.9807V32.8203H85.0809V35.8552H79.7919C79.4411 35.8552 79.1542 35.8455 78.9275 35.826C78.7008 35.8065 78.5236 35.7643 78.389 35.6993C78.2579 35.6343 78.1658 35.5433 78.1092 35.4166C78.056 35.2931 78.0277 35.1274 78.0277 34.9194V33.6619H77.1279V35.2184C77.1279 35.4848 77.1633 35.7123 77.2377 35.8975C77.3121 36.0827 77.4325 36.2322 77.6061 36.3492Z" fill="#221E20"/>
<path id="Vector_80" d="M87.9468 36.3946C88.0814 36.5018 88.2444 36.5766 88.4392 36.622C88.634 36.6643 88.8466 36.687 89.0804 36.687H93.5723V32.8203H92.6725V35.8552H89.1902C88.8608 35.8552 88.6482 35.7967 88.5561 35.6797C88.4604 35.5627 88.4144 35.3645 88.4144 35.0818V29.5156H87.5146V35.3028C87.5146 35.5692 87.5536 35.7934 87.628 35.9722C87.7059 36.1509 87.8122 36.2906 87.9468 36.3978V36.3946Z" fill="#221E20"/>
<path id="Vector_81" d="M95.5242 36.3945C95.6588 36.5018 95.8254 36.5765 96.0166 36.622C96.2115 36.6642 96.424 36.687 96.6578 36.687H99.4635C99.8709 36.687 100.218 36.648 100.498 36.5668C100.778 36.4855 100.987 36.3101 101.118 36.0339C101.175 36.2223 101.295 36.3783 101.469 36.5018C101.642 36.6253 101.869 36.687 102.156 36.687H103.059C103.467 36.687 103.814 36.648 104.094 36.5668C104.373 36.4855 104.582 36.3101 104.714 36.0339C104.77 36.2223 104.887 36.3783 105.064 36.5018C105.238 36.6253 105.468 36.687 105.755 36.687H106.534C106.988 36.687 107.356 36.648 107.647 36.5668C107.934 36.4855 108.146 36.3101 108.277 36.0339C108.334 36.2223 108.451 36.3783 108.621 36.5018C108.791 36.6253 109.021 36.687 109.305 36.687H111.912V29.5123H111.012V35.8519H109.305C108.975 35.8519 108.738 35.7544 108.586 35.5562C108.437 35.358 108.362 35.0883 108.362 34.7471V29.5123H107.463V35.1175C107.463 35.2865 107.441 35.4165 107.402 35.514C107.363 35.6114 107.307 35.6862 107.239 35.7349C107.169 35.7837 107.084 35.8162 106.981 35.8292C106.878 35.8422 106.761 35.8487 106.63 35.8487H105.755C105.564 35.8487 105.408 35.8227 105.284 35.7674C105.16 35.7154 105.061 35.6407 104.99 35.5465C104.915 35.4522 104.866 35.3385 104.841 35.1988C104.816 35.0623 104.802 34.9096 104.802 34.7406V32.8105H103.902V35.111C103.902 35.28 103.881 35.41 103.842 35.5075C103.803 35.6049 103.739 35.6797 103.654 35.7284C103.569 35.7772 103.467 35.8097 103.343 35.8227C103.219 35.8357 103.07 35.8422 102.893 35.8422H102.156C101.965 35.8422 101.812 35.8162 101.688 35.7609C101.564 35.7089 101.465 35.6342 101.394 35.54C101.32 35.4457 101.27 35.332 101.245 35.1923C101.221 35.0558 101.206 34.9031 101.206 34.7341V32.804H100.307V35.1045C100.307 35.2735 100.285 35.4035 100.246 35.501C100.207 35.5984 100.144 35.6732 100.059 35.7219C99.9737 35.7707 99.8709 35.8032 99.7469 35.8162C99.623 35.8292 99.4742 35.8357 99.297 35.8357H96.7677C96.4382 35.8357 96.2257 35.7772 96.1335 35.6602C96.0379 35.5432 95.9918 35.345 95.9918 35.0623V29.4961H95.092V35.2833C95.092 35.5497 95.131 35.7739 95.2054 35.9526C95.2833 36.1313 95.3896 36.2711 95.5242 36.3783V36.3945Z" fill="#221E20"/>
<path id="Vector_82" d="M116.5 35.5273C116.709 35.6507 116.928 35.7352 117.159 35.7807C117.389 35.8262 117.591 35.8489 117.768 35.8489C117.959 35.8489 118.154 35.8327 118.352 35.8002C118.554 35.7677 118.735 35.7222 118.894 35.6702C118.923 35.8717 118.986 36.0374 119.082 36.1674C119.178 36.2974 119.291 36.4013 119.426 36.4761C119.56 36.5541 119.713 36.6093 119.886 36.6385C120.056 36.6678 120.237 36.684 120.428 36.684H125.03V32.8173H124.13V35.8522L120.538 35.8424C120.209 35.8424 119.996 35.784 119.904 35.667C119.808 35.55 119.762 35.3518 119.762 35.0723V32.2031H118.019C117.757 32.2031 117.492 32.2356 117.226 32.3039C116.96 32.3688 116.716 32.4793 116.496 32.632C116.276 32.7848 116.099 32.983 115.958 33.2267C115.819 33.4704 115.749 33.7726 115.749 34.13C115.749 34.4874 115.823 34.7799 115.968 35.0041C116.113 35.2283 116.291 35.4005 116.5 35.524V35.5273ZM116.999 33.2819C117.247 33.1195 117.548 33.0382 117.899 33.0382H118.862V34.8189C118.717 34.8709 118.551 34.9164 118.363 34.9489C118.175 34.9814 118.002 34.9976 117.842 34.9976C117.417 34.9976 117.109 34.9099 116.918 34.7377C116.723 34.5654 116.627 34.338 116.627 34.0585C116.627 33.7043 116.751 33.4476 116.999 33.2852V33.2819Z" fill="#221E20"/>
<path id="Vector_83" d="M129.791 36.3757C130.032 36.1677 130.153 35.9045 130.153 35.5829C130.153 35.4366 130.117 35.2839 130.05 35.1247C129.979 34.9687 129.876 34.777 129.738 34.556C129.6 34.3351 129.423 34.0686 129.207 33.7534C128.991 33.4383 128.739 33.0516 128.445 32.5869L127.602 33.0678C127.974 33.5715 128.268 33.9679 128.484 34.2636C128.7 34.5593 128.863 34.7868 128.976 34.946C129.09 35.1052 129.161 35.2254 129.189 35.2969C129.217 35.3716 129.232 35.4399 129.232 35.5081C129.232 35.5959 129.2 35.6738 129.132 35.7453C129.065 35.8168 128.909 35.8493 128.661 35.8493H126.121V36.6844H128.739C129.2 36.6844 129.55 36.5804 129.791 36.3725V36.3757Z" fill="#221E20"/>
<path id="Vector_84" d="M152.917 35.8525H151.195C151.004 35.8525 150.852 35.8265 150.728 35.7713C150.604 35.7193 150.504 35.6446 150.434 35.5503C150.359 35.4561 150.31 35.3424 150.285 35.2027C150.26 35.0662 150.246 34.9135 150.246 34.7445V32.8144H149.346V35.1149C149.346 35.2839 149.325 35.4139 149.286 35.5114C149.247 35.6088 149.19 35.6836 149.116 35.7323C149.041 35.7811 148.956 35.8135 148.854 35.8265C148.751 35.8395 148.637 35.846 148.514 35.846C148.294 35.846 148.117 35.82 147.982 35.7648C147.848 35.7128 147.741 35.6381 147.663 35.5439C147.585 35.4496 147.536 35.3359 147.511 35.1962C147.486 35.0597 147.472 34.907 147.472 34.738V33.3115H146.572V35.1084C146.572 35.2774 146.551 35.4074 146.512 35.5049C146.473 35.6023 146.413 35.6771 146.331 35.7258C146.25 35.7746 146.151 35.8071 146.037 35.82C145.92 35.833 145.782 35.8395 145.619 35.8395C145.364 35.8395 145.162 35.8135 145.01 35.7583C144.861 35.7063 144.744 35.6316 144.666 35.5374C144.585 35.4431 144.535 35.3294 144.514 35.1897C144.493 35.0532 144.482 34.9005 144.482 34.7315V33.305H143.582V35.1019C143.582 35.2709 143.561 35.4009 143.515 35.4984C143.472 35.5958 143.402 35.6706 143.302 35.7193C143.203 35.7681 143.072 35.8006 142.902 35.8135C142.736 35.8265 142.53 35.833 142.289 35.833H140.383C140.157 35.833 139.976 35.82 139.834 35.7941C140.22 35.5471 140.529 35.2612 140.759 34.9395C140.989 34.6178 141.103 34.2733 141.103 33.9062C141.103 33.7534 141.064 33.6007 140.989 33.448C140.911 33.2985 140.794 33.162 140.638 33.0451C140.483 32.9281 140.284 32.8339 140.047 32.7624C139.809 32.6909 139.53 32.6584 139.207 32.6584C138.821 32.6584 138.46 32.7234 138.127 32.8501C137.794 32.9768 137.51 33.149 137.277 33.3635C137.234 33.4025 137.192 33.4545 137.149 33.5195C137.11 33.5845 137.068 33.6527 137.029 33.7307C136.99 33.8087 136.951 33.8867 136.919 33.9679C136.887 34.0491 136.859 34.1239 136.837 34.1986L138.208 35.6251C137.96 35.6998 137.702 35.7518 137.429 35.7843C137.16 35.8168 136.883 35.833 136.607 35.833H135.335V35.3619C135.335 34.9655 135.3 34.608 135.225 34.2863C135.151 33.9646 135.034 33.6917 134.871 33.461C134.708 33.2335 134.492 33.0581 134.23 32.9346C133.968 32.8111 133.645 32.7494 133.266 32.7494C132.923 32.7494 132.618 32.8111 132.352 32.9346C132.087 33.0581 131.86 33.2205 131.672 33.422C131.485 33.6235 131.343 33.8542 131.244 34.1141C131.144 34.3741 131.095 34.6438 131.095 34.9167C131.095 35.2449 131.148 35.5211 131.254 35.7421C131.361 35.963 131.506 36.1417 131.694 36.2782C131.881 36.4147 132.097 36.5154 132.352 36.5739C132.604 36.6356 132.88 36.6649 133.178 36.6649H134.414C134.407 36.9313 134.343 37.149 134.223 37.318C134.102 37.487 133.94 37.6137 133.73 37.7047C133.521 37.7957 133.277 37.8542 132.99 37.8867C132.707 37.9159 132.391 37.9322 132.048 37.9322H131.708V38.7672H132.168C132.629 38.7672 133.047 38.7348 133.422 38.6665C133.798 38.5983 134.12 38.4845 134.393 38.3253C134.662 38.1661 134.878 37.9516 135.034 37.6819C135.19 37.4155 135.286 37.0743 135.314 36.6681H136.65C137.036 36.6681 137.415 36.6324 137.79 36.5642C138.162 36.4927 138.52 36.3952 138.864 36.2685C139.076 36.4374 139.278 36.5447 139.473 36.5934C139.668 36.6421 139.87 36.6681 140.082 36.6681H142.261C142.583 36.6681 142.86 36.6584 143.086 36.6421C143.317 36.6259 143.511 36.5934 143.667 36.5414C143.823 36.4927 143.951 36.4244 144.05 36.34C144.149 36.2555 144.231 36.145 144.298 36.002C144.34 36.0832 144.397 36.1612 144.461 36.2425C144.528 36.3237 144.613 36.3952 144.723 36.4569C144.833 36.5219 144.975 36.5707 145.145 36.6064C145.315 36.6421 145.531 36.6616 145.786 36.6616C146.165 36.6616 146.491 36.6226 146.767 36.5414C147.043 36.4602 147.245 36.2847 147.376 36.0085C147.412 36.0832 147.461 36.158 147.525 36.236C147.585 36.314 147.674 36.3822 147.784 36.4472C147.894 36.5122 148.032 36.5642 148.195 36.6031C148.358 36.6421 148.563 36.6649 148.804 36.6649C148.893 36.6649 148.999 36.6551 149.123 36.6389C149.247 36.6226 149.374 36.5902 149.505 36.5447C149.636 36.4992 149.76 36.4309 149.877 36.3497C149.994 36.2652 150.086 36.1547 150.15 36.0118C150.207 36.2002 150.324 36.3562 150.501 36.4797C150.674 36.6032 150.905 36.6649 151.192 36.6649H153.81V29.4902H152.91V35.8298L152.917 35.8525ZM134.425 35.8525H133.252C132.834 35.8525 132.519 35.7713 132.306 35.6121C132.09 35.4529 131.984 35.1994 131.984 34.8582C131.984 34.7055 132.009 34.5495 132.062 34.3968C132.112 34.2441 132.189 34.1044 132.285 33.9809C132.384 33.8574 132.508 33.7567 132.664 33.6787C132.817 33.6007 133.001 33.5617 133.213 33.5617C133.66 33.5617 133.971 33.7079 134.156 34.0036C134.34 34.2993 134.428 34.6925 134.428 35.1897V35.8525H134.425ZM139.037 35.3391L137.702 34.0426C137.854 33.8672 138.063 33.7274 138.322 33.6202C138.58 33.513 138.857 33.461 139.147 33.461C139.512 33.461 139.781 33.5227 139.951 33.6462C140.121 33.7697 140.21 33.9094 140.21 34.0621C140.21 34.3091 140.104 34.543 139.887 34.764C139.671 34.985 139.388 35.1767 139.037 35.3359V35.3391Z" fill="#221E20"/>
<path id="Vector_85" d="M156.247 29.5127H155.347V36.6873H156.247V29.5127Z" fill="#221E20"/>
<path id="Vector_86" d="M170.112 31.1179H169.358C169.103 31.1179 168.911 31.0529 168.787 30.9262C168.663 30.7995 168.6 30.6402 168.6 30.455C168.6 30.3088 168.653 30.1723 168.759 30.0488C168.865 29.9254 169.035 29.8636 169.269 29.8636C169.482 29.8636 169.67 29.8929 169.84 29.9546V29.412C169.797 29.399 169.716 29.3827 169.606 29.3632C169.492 29.3437 169.358 29.334 169.205 29.334C169.053 29.334 168.904 29.3567 168.766 29.4055C168.628 29.451 168.504 29.5224 168.394 29.6102C168.284 29.7012 168.196 29.8149 168.132 29.9514C168.065 30.0878 168.033 30.2503 168.033 30.4388C168.033 30.7052 168.118 30.9359 168.284 31.1211H167.725V31.654H170.112V31.1211V31.1179Z" fill="#221E20"/>
<path id="Vector_87" d="M182.27 29.513H181.371V35.8525H178.083V35.8135C178.289 35.6608 178.469 35.4594 178.625 35.2157C178.781 34.972 178.859 34.6633 178.859 34.2961C178.859 34.1369 178.831 33.9614 178.77 33.7729C178.71 33.5845 178.614 33.4122 178.48 33.2498C178.345 33.0906 178.168 32.9541 177.948 32.8469C177.729 32.7396 177.46 32.6876 177.137 32.6876C176.503 32.6876 176.004 32.9118 175.646 33.3603C175.288 33.8087 175.107 34.4456 175.107 35.2677V35.8493H173.935C173.743 35.8493 173.588 35.8233 173.464 35.7681C173.34 35.7161 173.24 35.6413 173.17 35.5471C173.095 35.4529 173.046 35.3391 173.021 35.1994C172.996 35.0629 172.982 34.9102 172.982 34.7413V32.8111H172.082V35.1117C172.082 35.2806 172.061 35.4106 172.022 35.5081C171.983 35.6056 171.919 35.6803 171.834 35.7291C171.749 35.7778 171.646 35.8103 171.522 35.8233C171.398 35.8363 171.25 35.8428 171.072 35.8428H170.339C170.148 35.8428 169.992 35.8168 169.868 35.7616C169.744 35.7096 169.645 35.6348 169.574 35.5406C169.5 35.4464 169.45 35.3326 169.425 35.1929C169.4 35.0564 169.386 34.9037 169.386 34.7348V32.8046H168.486V35.1052C168.486 35.2741 168.465 35.4041 168.426 35.5016C168.387 35.5991 168.323 35.6738 168.238 35.7226C168.153 35.7713 168.051 35.8038 167.927 35.8168C167.803 35.8298 167.654 35.8363 167.477 35.8363L164.859 35.8265C164.529 35.8265 164.317 35.7681 164.225 35.6511C164.129 35.5341 164.083 35.3359 164.083 35.0564V32.1872H162.34C162.078 32.1872 161.812 32.2197 161.547 32.288C161.281 32.3529 161.036 32.4634 160.817 32.6161C160.597 32.7689 160.42 32.9671 160.278 33.2108C160.14 33.4545 160.069 33.7567 160.069 34.1141C160.069 34.4716 160.144 34.764 160.289 34.9882C160.434 35.2124 160.611 35.3846 160.82 35.5081C161.029 35.6316 161.249 35.7161 161.479 35.7616C161.709 35.8071 161.911 35.8298 162.089 35.8298C162.28 35.8298 162.475 35.8135 162.673 35.7811C162.875 35.7486 163.056 35.7031 163.215 35.6511C163.243 35.8525 163.307 36.0183 163.403 36.1482C163.498 36.2782 163.612 36.3822 163.746 36.4569C163.881 36.5349 164.033 36.5902 164.207 36.6194C164.377 36.6486 164.558 36.6649 164.749 36.6649H167.64C168.047 36.6649 168.394 36.6259 168.674 36.5447C168.954 36.4634 169.163 36.288 169.294 36.0118C169.351 36.2002 169.468 36.3562 169.645 36.4797C169.818 36.6032 170.049 36.6649 170.336 36.6649H171.235C171.643 36.6649 171.99 36.6259 172.27 36.5447C172.55 36.4634 172.759 36.288 172.89 36.0118C172.946 36.2002 173.063 36.3562 173.24 36.4797C173.414 36.6032 173.644 36.6649 173.931 36.6649H175.104V36.7754C175.104 37.1361 175.136 37.4642 175.203 37.7534C175.27 38.0459 175.38 38.2928 175.536 38.4975C175.692 38.7023 175.901 38.8582 176.156 38.9687C176.411 39.0792 176.73 39.1344 177.109 39.1344C177.392 39.1344 177.644 39.0954 177.86 39.0142C178.076 38.933 178.253 38.8257 178.398 38.6925C178.54 38.5593 178.65 38.4001 178.721 38.2213C178.795 38.0394 178.831 37.8542 178.831 37.6592C178.831 37.5325 178.806 37.3798 178.76 37.2075C178.714 37.0321 178.597 36.8664 178.416 36.7039V36.6649H182.26V29.4902L182.27 29.513ZM163.201 34.8192C163.056 34.8712 162.889 34.9167 162.701 34.9492C162.514 34.9817 162.34 34.998 162.181 34.998C161.756 34.998 161.447 34.9102 161.256 34.738C161.061 34.5658 160.966 34.3383 160.966 34.0589C160.966 33.7047 161.09 33.448 161.337 33.2855C161.585 33.1231 161.887 33.0418 162.237 33.0418H163.201V34.8225V34.8192ZM176.014 35.1897C176.014 34.647 176.11 34.2311 176.305 33.9387C176.5 33.6462 176.772 33.5 177.13 33.5C177.364 33.5 177.569 33.5747 177.743 33.7274C177.917 33.8769 178.005 34.1141 178.005 34.4358C178.005 34.569 177.98 34.7185 177.927 34.8842C177.878 35.0499 177.793 35.2027 177.676 35.3456C177.559 35.4886 177.403 35.6088 177.212 35.7063C177.017 35.8038 176.783 35.8525 176.507 35.8525H176.014V35.1897ZM177.796 38.1629C177.647 38.3026 177.417 38.3741 177.112 38.3741C176.879 38.3741 176.691 38.3351 176.549 38.2571C176.407 38.1791 176.294 38.0751 176.216 37.9419C176.135 37.8087 176.082 37.6495 176.057 37.4707C176.032 37.2888 176.018 37.0938 176.018 36.8794V36.6876H176.829C177.098 36.6876 177.314 36.7234 177.47 36.7916C177.626 36.8631 177.747 36.9443 177.832 37.0386C177.917 37.1328 177.97 37.2303 177.991 37.3343C178.012 37.4382 178.023 37.5195 178.023 37.5812C178.023 37.8282 177.948 38.0231 177.8 38.1629H177.796Z" fill="#221E20"/>
<path id="Vector_88" d="M184.704 29.5127H183.804V36.6873H184.704V29.5127Z" fill="#221E20"/>
<path id="Vector_89" d="M84.1492 48.8202H89.7251V47.9851H88.1274C87.6527 47.9851 87.2985 47.8779 87.0647 47.6602C86.8309 47.4425 86.714 47.1631 86.714 46.8219C86.714 46.4612 86.8486 46.1752 87.1178 45.9673C87.3871 45.7593 87.7519 45.6553 88.2125 45.6553C88.4463 45.6553 88.6447 45.6716 88.8041 45.7008C88.9635 45.7301 89.1158 45.7658 89.254 45.8048V44.9112C89.1725 44.8787 89.0379 44.8462 88.8501 44.8202C88.6588 44.7943 88.4392 44.7812 88.1806 44.7812C87.8972 44.7812 87.6138 44.8202 87.3304 44.9015C87.0505 44.9827 86.7919 45.1062 86.5652 45.2719C86.3349 45.4409 86.1507 45.6488 86.0055 45.9055C85.8638 46.159 85.7929 46.4612 85.7929 46.8089C85.7929 47.0623 85.8354 47.2898 85.924 47.4912C86.0126 47.6927 86.1224 47.8552 86.2534 47.9851H83.8091C82.9766 47.9851 82.098 47.8292 81.1699 47.514V48.3263C81.3895 48.3848 81.6411 48.4531 81.9245 48.5278C82.2079 48.6025 82.4771 48.6838 82.7286 48.7715C82.9801 48.8625 83.1927 48.9665 83.3627 49.0867C83.5328 49.2069 83.6213 49.3434 83.6213 49.4961C83.6213 49.6358 83.5469 49.7593 83.4017 49.8665C83.2565 49.9738 83.0581 50.0615 82.8066 50.133C82.555 50.2045 82.261 50.2565 81.928 50.2922C81.5915 50.328 81.2408 50.3475 80.8688 50.3475C79.8627 50.3475 79.1365 50.2077 78.6937 49.9315C78.2509 49.6553 78.0277 49.2199 78.0277 48.6253V47.2345H77.1279V48.7812C77.1279 49.1224 77.181 49.4409 77.2908 49.7301C77.4006 50.0225 77.5955 50.2727 77.8753 50.4872C78.1552 50.7016 78.5378 50.8706 79.016 50.9941C79.4943 51.1176 80.1036 51.1793 80.8404 51.1793C81.5064 51.1793 82.0662 51.1338 82.5232 51.0428C82.9801 50.9518 83.3486 50.8316 83.6355 50.6821C83.9189 50.5327 84.1279 50.3605 84.2555 50.1655C84.383 49.9705 84.4468 49.7723 84.4468 49.5741C84.4468 49.4409 84.4184 49.3012 84.3582 49.1582C84.298 49.0152 84.2307 48.9015 84.1492 48.8202Z" fill="#221E20"/>
<path id="Vector_90" d="M113.857 44.8234C113.354 44.8234 112.886 44.9176 112.454 45.1093C112.022 45.3011 111.639 45.548 111.299 45.8502C110.959 46.1556 110.669 46.4936 110.424 46.8705C110.18 47.2474 109.988 47.6211 109.85 47.9883C109.677 47.9883 109.535 47.9623 109.436 47.9071C109.333 47.8551 109.255 47.7803 109.202 47.6861C109.149 47.5919 109.113 47.4781 109.099 47.3384C109.085 47.2019 109.078 47.0492 109.078 46.8803V45.4538H108.178V47.2507C108.178 47.4197 108.157 47.5496 108.111 47.6471C108.068 47.7446 107.998 47.8193 107.898 47.8681C107.799 47.9168 107.668 47.9493 107.498 47.9623C107.332 47.9753 107.126 47.9818 106.885 47.9818H105.67V47.1207C105.67 46.3993 105.472 45.834 105.071 45.4278C104.675 45.0216 104.118 44.8169 103.413 44.8169C102.747 44.8169 102.167 44.9696 101.667 45.2751C101.168 45.5805 100.732 46.0094 100.356 46.5651V41.6422H99.4565V47.9818H98.2201C98.0288 47.9818 97.873 47.9558 97.749 47.9006C97.625 47.8486 97.5258 47.7738 97.4549 47.6796C97.3806 47.5854 97.331 47.4716 97.3062 47.3319C97.2814 47.1954 97.2672 47.0427 97.2672 46.8738V44.9436H96.3674V47.2442C96.3674 47.4132 96.3461 47.5431 96.3072 47.6406C96.2682 47.7381 96.2044 47.8128 96.1194 47.8616C96.0344 47.9103 95.9317 47.9428 95.8077 47.9558C95.6837 47.9688 95.5349 47.9753 95.3578 47.9753H92.8284C92.4989 47.9753 92.2864 47.9168 92.1943 47.7998C92.0986 47.6829 92.0526 47.4846 92.0526 47.2019V41.6357H91.1528V47.4229C91.1528 47.6894 91.1917 47.9136 91.2661 48.0923C91.3441 48.271 91.4503 48.4107 91.585 48.5179C91.7196 48.6252 91.8825 48.6999 92.0774 48.7454C92.2722 48.7876 92.4848 48.8104 92.7186 48.8104H95.5243C95.9317 48.8104 96.2788 48.7714 96.5587 48.6902C96.8385 48.6089 97.0476 48.4335 97.1786 48.1573C97.2353 48.3457 97.3522 48.5017 97.5293 48.6252C97.7029 48.7487 97.9332 48.8104 98.2201 48.8104H106.864C107.186 48.8104 107.466 48.8006 107.704 48.7844C107.941 48.7682 108.143 48.7357 108.313 48.6902C108.479 48.6447 108.621 48.5764 108.727 48.4952C108.837 48.4107 108.926 48.3002 108.989 48.1573C109.032 48.2385 109.082 48.3165 109.138 48.3977C109.191 48.479 109.266 48.5472 109.358 48.6089C109.45 48.6707 109.567 48.7194 109.712 48.7552C109.857 48.7909 110.045 48.8104 110.272 48.8104H116.188V47.1175C116.188 46.3831 115.986 45.8145 115.579 45.4148C115.175 45.0151 114.601 44.8136 113.864 44.8136L113.857 44.8234ZM104.763 47.985H100.349C100.459 47.7251 100.604 47.4554 100.781 47.1824C100.959 46.9095 101.171 46.6593 101.412 46.4351C101.653 46.2109 101.922 46.0257 102.223 45.8762C102.521 45.73 102.847 45.6552 103.197 45.6552C103.488 45.6552 103.736 45.6975 103.938 45.7852C104.14 45.8729 104.303 45.9899 104.427 46.1361C104.551 46.2824 104.639 46.4578 104.689 46.6625C104.738 46.8673 104.767 47.0817 104.767 47.3092V47.9818L104.763 47.985ZM115.281 47.985H110.81C110.92 47.7121 111.065 47.4327 111.25 47.1565C111.434 46.877 111.65 46.6301 111.901 46.4091C112.153 46.1881 112.429 46.0062 112.734 45.8664C113.039 45.7267 113.364 45.6552 113.715 45.6552C113.999 45.6552 114.243 45.6942 114.445 45.7755C114.647 45.8567 114.81 45.9704 114.934 46.1166C115.058 46.2629 115.146 46.4383 115.203 46.6431C115.256 46.8478 115.285 47.0687 115.285 47.3124V47.985H115.281Z" fill="#221E20"/>
<path id="Vector_91" d="M119.727 43.1142V47.9851H117.261V48.8202H123.482V41.6455H122.586V47.9851H120.623V43.1142H119.727Z" fill="#221E20"/>
<path id="Vector_92" d="M125.916 41.6455H125.016V48.8202H125.916V41.6455Z" fill="#221E20"/>
<path id="Vector_93" d="M131.481 47.833C131.315 47.6543 131.23 47.4398 131.23 47.1864C131.23 47.0856 131.247 46.9881 131.279 46.8907C131.311 46.7932 131.368 46.7054 131.442 46.6307C131.52 46.5527 131.612 46.491 131.725 46.4455C131.839 46.4 131.981 46.374 132.147 46.374C132.445 46.374 132.707 46.4163 132.926 46.504V45.7209C132.866 45.7014 132.763 45.6819 132.608 45.6656C132.455 45.6494 132.271 45.6396 132.058 45.6396C131.846 45.6396 131.655 45.6721 131.46 45.7339C131.265 45.7989 131.095 45.8899 130.946 46.0166C130.797 46.1401 130.677 46.2993 130.585 46.4877C130.493 46.6795 130.447 46.9004 130.447 47.1571C130.447 47.5243 130.567 47.8395 130.808 48.1027H130.007V48.8273H133.305V48.1027H132.275C131.91 48.1027 131.644 48.015 131.474 47.8362L131.481 47.833Z" fill="#221E20"/>
<path id="Vector_94" d="M138.594 44.1183C138.548 44.1735 138.502 44.2353 138.456 44.3035C138.414 44.375 138.371 44.4497 138.336 44.5342C138.3 44.6187 138.276 44.6999 138.269 44.7812C138.676 44.9631 139.073 45.1646 139.452 45.3888C139.831 45.613 140.171 45.8405 140.465 46.0712C140.759 46.3019 140.996 46.5293 141.177 46.7536C141.354 46.9778 141.446 47.176 141.446 47.3514C141.446 47.5984 141.358 47.7674 141.177 47.8551C140.996 47.9428 140.773 47.9851 140.504 47.9851H136.09C135.76 47.9851 135.548 47.9266 135.456 47.8096C135.36 47.6926 135.314 47.4944 135.314 47.2117V41.6455H134.414V47.4327C134.414 47.6991 134.453 47.9233 134.528 48.102C134.606 48.2808 134.712 48.4205 134.846 48.5277C134.981 48.6349 135.144 48.7097 135.339 48.7552C135.534 48.7974 135.746 48.8202 135.98 48.8202H140.483C140.862 48.8202 141.173 48.7747 141.414 48.6804C141.655 48.5862 141.843 48.4692 141.974 48.3295C142.105 48.1898 142.194 48.0338 142.243 47.8681C142.289 47.6991 142.314 47.5464 142.314 47.4067C142.314 47.2052 142.265 46.994 142.165 46.7698C142.066 46.5456 141.903 46.3116 141.676 46.0712C141.45 45.8307 141.159 45.5773 140.801 45.3173C140.444 45.0574 140.008 44.7877 139.498 44.5147L142.718 43.2085V42.3961L138.708 44.0143C138.679 44.0338 138.64 44.0728 138.594 44.1248V44.1183Z" fill="#221E20"/>
<path id="Vector_95" d="M146.151 47.8817C145.988 47.9532 145.75 47.9857 145.446 47.9857H143.487V48.8208H145.152C145.325 48.8208 145.502 48.8143 145.676 48.8013C145.85 48.7883 146.016 48.7558 146.175 48.7071C146.331 48.6583 146.473 48.5771 146.604 48.4699C146.732 48.3627 146.834 48.2197 146.916 48.0377C147.121 48.3334 147.323 48.5381 147.529 48.6519C147.734 48.7656 147.986 48.8241 148.283 48.8241H150.891V41.6494H149.991V47.989H148.283C148.181 47.989 148.085 47.963 147.993 47.9142C147.901 47.8655 147.805 47.7875 147.709 47.6868C147.61 47.5861 147.507 47.4561 147.398 47.2936C147.288 47.1344 147.16 46.9427 147.015 46.7217L145.701 44.7233L144.858 45.2042L146.02 46.7802C146.129 46.9264 146.222 47.0661 146.292 47.1929C146.367 47.3196 146.402 47.4463 146.402 47.5731C146.402 47.7063 146.321 47.8103 146.154 47.8785L146.151 47.8817Z" fill="#221E20"/>
<path id="Vector_96" d="M153.321 41.6455H152.421V48.8202H153.321V41.6455Z" fill="#221E20"/>
<path id="Vector_97" d="M158.525 49.691C158.67 49.3725 158.744 48.9631 158.744 48.4594V47.5139C158.744 47.1304 158.709 46.7828 158.642 46.4643C158.571 46.1459 158.457 45.8729 158.298 45.639C158.139 45.4083 157.923 45.2263 157.657 45.0963C157.391 44.9664 157.065 44.9014 156.676 44.9014C156.325 44.9014 156.013 44.9631 155.744 45.0833C155.475 45.2036 155.248 45.366 155.064 45.5642C154.879 45.7657 154.741 45.9932 154.649 46.2531C154.554 46.5098 154.508 46.773 154.508 47.0427C154.508 47.3774 154.561 47.6601 154.667 47.8876C154.773 48.115 154.915 48.297 155.096 48.4367C155.273 48.5732 155.485 48.6739 155.73 48.7324C155.974 48.7941 156.24 48.8234 156.523 48.8234C156.838 48.8234 157.101 48.7941 157.313 48.7324C157.526 48.6707 157.696 48.6057 157.827 48.5309V48.7226C157.827 49.0313 157.767 49.275 157.653 49.457C157.536 49.639 157.373 49.7755 157.164 49.8697C156.955 49.9639 156.707 50.0224 156.42 50.0516C156.134 50.0776 155.811 50.0906 155.46 50.0906H155.12V50.9257H155.581C156.07 50.9257 156.513 50.8932 156.906 50.825C157.299 50.7568 157.632 50.6333 157.901 50.4481C158.17 50.2629 158.379 50.0127 158.525 49.6942V49.691ZM157.823 47.6958C157.714 47.7771 157.554 47.8486 157.342 47.9168C157.129 47.985 156.885 48.0175 156.608 48.0175C156.243 48.0175 155.946 47.9363 155.723 47.7706C155.496 47.6049 155.383 47.3319 155.383 46.9517C155.383 46.812 155.407 46.6658 155.453 46.5196C155.499 46.3733 155.574 46.2369 155.673 46.1166C155.772 45.9964 155.9 45.8957 156.056 45.8144C156.211 45.7332 156.403 45.6942 156.629 45.6942C156.856 45.6942 157.033 45.7365 157.189 45.8209C157.342 45.9054 157.466 46.0192 157.561 46.1621C157.657 46.3051 157.724 46.4773 157.763 46.6788C157.802 46.8802 157.823 47.0947 157.823 47.3222V47.6926V47.6958Z" fill="#221E20"/>
<path id="Vector_98" d="M173.687 37.6816H172.759V38.7247L173.687 38.2308V37.6816Z" fill="#221E20"/>
<path id="Vector_99" d="M172.263 37.6816H171.335V38.7247L172.263 38.2308V37.6816Z" fill="#221E20"/>
<g id="Group_15">
<path id="Vector_100" d="M163.676 30.1338H162.747V31.1801L163.676 30.6862V30.1338Z" fill="#221E20"/>
<path id="Vector_101" d="M162.252 30.1338H161.323V31.1801L162.252 30.6862V30.1338Z" fill="#221E20"/>
</g>
<g id="Group_16">
<path id="Vector_102" d="M119.337 30.1338H118.405V31.1801L119.337 30.6862V30.1338Z" fill="#221E20"/>
<path id="Vector_103" d="M117.913 30.1338H116.981V31.1801L117.913 30.6862V30.1338Z" fill="#221E20"/>
</g>
<g id="Group_17">
<path id="Vector_104" d="M125.328 37.6689H124.399V38.7152L125.328 38.2213V37.6689Z" fill="#221E20"/>
<path id="Vector_105" d="M123.904 37.6689H122.975V38.7152L123.904 38.2213V37.6689Z" fill="#221E20"/>
</g>
<g id="Group_18">
<path id="Vector_106" d="M101.901 37.6689H100.969V38.7152L101.901 38.2213V37.6689Z" fill="#221E20"/>
<path id="Vector_107" d="M100.477 37.6689H99.545V38.7152L100.477 38.2213V37.6689Z" fill="#221E20"/>
</g>
<path id="Vector_108" d="M104.618 37.6689H103.686V38.7152L104.618 38.2213V37.6689Z" fill="#221E20"/>
<path id="Vector_109" d="M145.779 42.7314H144.847V43.7777L145.779 43.2838V42.7314Z" fill="#221E20"/>
<path id="Vector_110" d="M97.3097 42.7314H96.378V43.7777L97.3097 43.2838V42.7314Z" fill="#221E20"/>
<g id="Group_19">
<path id="Vector_111" d="M82.7959 31.1895H81.8677V32.2358L82.7959 31.7418V31.1895Z" fill="#221E20"/>
<path id="Vector_112" d="M81.3718 31.1895H80.4437V32.2358L81.3718 31.7418V31.1895Z" fill="#221E20"/>
</g>
<g id="Group_20">
<path id="Vector_113" d="M81.889 51.8232H80.9573V52.8663L81.889 52.3724V51.8232Z" fill="#221E20"/>
<path id="Vector_114" d="M80.465 51.8232H79.5333V52.8663L80.465 52.3724V51.8232Z" fill="#221E20"/>
</g>
<path id="Vector_115" d="M93.5546 30.5977H92.6229V31.6407L93.5546 31.1468V30.5977Z" fill="#221E20"/>
</g>
</g>
<g id="Group_21">
<path id="Vector_116" d="M113.085 0.898438H102.886V23.5304H113.085C121.562 23.5304 127.216 19.0105 127.216 12.2161C127.216 5.42159 121.565 0.901687 113.085 0.901687V0.898438ZM113.085 18.4094H110.123V6.01623H113.085C117.049 6.01623 119.737 8.45327 119.737 12.2128C119.737 15.9724 117.049 18.4062 113.085 18.4062V18.4094Z" fill="#221E20"/>
<path id="Vector_117" d="M146.413 0.898438H135.523L127.8 23.5304H135.626L137.029 19.1048L143.894 15.4687H138.07L140.968 6.68235L143.894 15.4687L146.307 23.5304H154.132L146.413 0.898438Z" fill="#221E20"/>
<path id="Vector_118" d="M185.685 0.898438H174.796L167.073 23.5304H174.898L176.301 19.1048L183.167 15.4687H177.343L180.24 6.68235L183.167 15.4687L185.579 23.5304H193.405L185.682 0.898438H185.685Z" fill="#221E20"/>
<path id="Vector_119" d="M156.86 4.85944V23.5337H164.338V0.898438L156.86 4.8562V4.85944Z" fill="#221E20"/>
<path id="Vector_120" d="M89.1371 9.24634C86.4128 8.96364 84.344 8.70694 84.344 7.09525C84.344 5.89297 85.7929 5.00914 87.8936 5.00914C90.338 5.00914 92.1624 6.2699 92.1305 8.00832L97.6958 5.06113C96.2009 2.07169 92.4458 0.112305 87.6527 0.112305C81.4816 0.112305 77.1066 3.20897 77.1066 7.85885C77.1066 13.2009 81.8642 14.3706 86.9619 14.91C89.5834 15.2252 91.755 15.4787 91.755 17.1229C91.755 18.4811 90.3061 19.4299 88.1381 19.4299C85.4528 19.4299 83.4903 18.0099 83.4513 16.0896V16.0798H76.972C76.972 17.1814 77.2164 18.2114 77.6699 19.1505C79.1825 22.2699 83.0191 24.3268 87.8972 24.3268C94.4083 24.3268 98.9924 21.0416 98.9924 16.2358C98.9924 10.8938 94.0683 9.724 89.1406 9.24959L89.1371 9.24634Z" fill="#221E20"/>
</g>
</g>
</g>
</g>
</g>
<defs>
<linearGradient id="paint0_linear_268_36084" x1="46.035" y1="11.7914" x2="74.9239" y2="28.5438" gradientUnits="userSpaceOnUse">
<stop stop-color="#AFCA0B"/>
<stop offset="0.5" stop-color="#10AB7A"/>
<stop offset="1" stop-color="#282F69"/>
</linearGradient>
<linearGradient id="paint1_linear_268_36084" x1="35.5456" y1="29.8771" x2="64.4345" y2="46.6295" gradientUnits="userSpaceOnUse">
<stop stop-color="#AFCA0B"/>
<stop offset="0.5" stop-color="#10AB7A"/>
<stop offset="1" stop-color="#282F69"/>
</linearGradient>
<linearGradient id="paint2_linear_268_36084" x1="36.0521" y1="29.0131" x2="64.9338" y2="45.7654" gradientUnits="userSpaceOnUse">
<stop stop-color="#AFCA0B"/>
<stop offset="0.5" stop-color="#10AB7A"/>
<stop offset="1" stop-color="#282F69"/>
</linearGradient>
<linearGradient id="paint3_linear_268_36084" x1="40.8558" y1="20.7237" x2="69.7412" y2="37.476" gradientUnits="userSpaceOnUse">
<stop stop-color="#AFCA0B"/>
<stop offset="0.5" stop-color="#10AB7A"/>
<stop offset="1" stop-color="#282F69"/>
</linearGradient>
<linearGradient id="paint4_linear_268_36084" x1="29.7854" y1="39.8142" x2="58.6707" y2="56.5665" gradientUnits="userSpaceOnUse">
<stop stop-color="#AFCA0B"/>
<stop offset="0.5" stop-color="#10AB7A"/>
<stop offset="1" stop-color="#282F69"/>
</linearGradient>
<linearGradient id="paint5_linear_268_36084" x1="35.3755" y1="30.1833" x2="64.254" y2="46.9319" gradientUnits="userSpaceOnUse">
<stop stop-color="#AFCA0B"/>
<stop offset="0.5" stop-color="#10AB7A"/>
<stop offset="1" stop-color="#282F69"/>
</linearGradient>
<linearGradient id="paint6_linear_268_36084" x1="31.1138" y1="37.5262" x2="59.9955" y2="54.2784" gradientUnits="userSpaceOnUse">
<stop stop-color="#AFCA0B"/>
<stop offset="0.5" stop-color="#10AB7A"/>
<stop offset="1" stop-color="#282F69"/>
</linearGradient>
<linearGradient id="paint7_linear_268_36084" x1="36.0132" y1="29.0714" x2="64.9021" y2="45.8238" gradientUnits="userSpaceOnUse">
<stop stop-color="#AFCA0B"/>
<stop offset="0.5" stop-color="#10AB7A"/>
<stop offset="1" stop-color="#282F69"/>
</linearGradient>
<linearGradient id="paint8_linear_268_36084" x1="25.2722" y1="47.6033" x2="54.1543" y2="64.352" gradientUnits="userSpaceOnUse">
<stop stop-color="#AFCA0B"/>
<stop offset="0.5" stop-color="#10AB7A"/>
<stop offset="1" stop-color="#282F69"/>
</linearGradient>
<linearGradient id="paint9_linear_268_36084" x1="35.79" y1="29.4616" x2="64.6753" y2="46.2139" gradientUnits="userSpaceOnUse">
<stop stop-color="#AFCA0B"/>
<stop offset="0.5" stop-color="#10AB7A"/>
<stop offset="1" stop-color="#282F69"/>
</linearGradient>
<linearGradient id="paint10_linear_268_36084" x1="25.8461" y1="46.6058" x2="54.735" y2="63.3583" gradientUnits="userSpaceOnUse">
<stop stop-color="#AFCA0B"/>
<stop offset="0.5" stop-color="#10AB7A"/>
<stop offset="1" stop-color="#282F69"/>
</linearGradient>
<linearGradient id="paint11_linear_268_36084" x1="21.2691" y1="54.5049" x2="50.1513" y2="71.2536" gradientUnits="userSpaceOnUse">
<stop stop-color="#AFCA0B"/>
<stop offset="0.5" stop-color="#10AB7A"/>
<stop offset="1" stop-color="#282F69"/>
</linearGradient>
<linearGradient id="paint12_linear_268_36084" x1="21.8147" y1="28.0314" x2="57.2619" y2="55.2559" gradientUnits="userSpaceOnUse">
<stop stop-color="#AFCA0B"/>
<stop offset="0.5" stop-color="#10AB7A"/>
<stop offset="1" stop-color="#282F69"/>
</linearGradient>
<linearGradient id="paint13_linear_268_36084" x1="33.2995" y1="13.0672" x2="68.7536" y2="40.2956" gradientUnits="userSpaceOnUse">
<stop stop-color="#AFCA0B"/>
<stop offset="0.5" stop-color="#10AB7A"/>
<stop offset="1" stop-color="#282F69"/>
</linearGradient>
<linearGradient id="paint14_linear_268_36084" x1="31.8542" y1="14.9554" x2="67.3018" y2="42.1767" gradientUnits="userSpaceOnUse">
<stop stop-color="#AFCA0B"/>
<stop offset="0.5" stop-color="#10AB7A"/>
<stop offset="1" stop-color="#282F69"/>
</linearGradient>
<linearGradient id="paint15_linear_268_36084" x1="13.9751" y1="38.2279" x2="49.4291" y2="65.4563" gradientUnits="userSpaceOnUse">
<stop stop-color="#AFCA0B"/>
<stop offset="0.5" stop-color="#10AB7A"/>
<stop offset="1" stop-color="#282F69"/>
</linearGradient>
<linearGradient id="paint16_linear_268_36084" x1="19.4766" y1="31.0757" x2="54.9206" y2="58.2968" gradientUnits="userSpaceOnUse">
<stop stop-color="#AFCA0B"/>
<stop offset="0.5" stop-color="#10AB7A"/>
<stop offset="1" stop-color="#282F69"/>
</linearGradient>
<linearGradient id="paint17_linear_268_36084" x1="20.3799" y1="29.8892" x2="55.8372" y2="57.1211" gradientUnits="userSpaceOnUse">
<stop stop-color="#AFCA0B"/>
<stop offset="0.5" stop-color="#10AB7A"/>
<stop offset="1" stop-color="#282F69"/>
</linearGradient>
<linearGradient id="paint18_linear_268_36084" x1="57.4809" y1="33.994" x2="59.3598" y2="1.25564" gradientUnits="userSpaceOnUse">
<stop stop-color="#5EB9E9"/>
<stop offset="0.5" stop-color="#65509C"/>
<stop offset="1" stop-color="#282F69"/>
</linearGradient>
<linearGradient id="paint19_linear_268_36084" x1="46.8108" y1="33.3801" x2="48.6897" y2="0.645011" gradientUnits="userSpaceOnUse">
<stop stop-color="#5EB9E9"/>
<stop offset="0.5" stop-color="#65509C"/>
<stop offset="1" stop-color="#282F69"/>
</linearGradient>
<linearGradient id="paint20_linear_268_36084" x1="46.6726" y1="33.3737" x2="48.5485" y2="0.635361" gradientUnits="userSpaceOnUse">
<stop stop-color="#5EB9E9"/>
<stop offset="0.5" stop-color="#65509C"/>
<stop offset="1" stop-color="#282F69"/>
</linearGradient>
<linearGradient id="paint21_linear_268_36084" x1="35.8396" y1="32.753" x2="37.7155" y2="0.0147256" gradientUnits="userSpaceOnUse">
<stop stop-color="#5EB9E9"/>
<stop offset="0.5" stop-color="#65509C"/>
<stop offset="1" stop-color="#282F69"/>
</linearGradient>
<linearGradient id="paint22_linear_268_36084" x1="36.6792" y1="32.8012" x2="38.558" y2="0.0628376" gradientUnits="userSpaceOnUse">
<stop stop-color="#5EB9E9"/>
<stop offset="0.5" stop-color="#65509C"/>
<stop offset="1" stop-color="#282F69"/>
</linearGradient>
<linearGradient id="paint23_linear_268_36084" x1="26.9691" y1="32.2425" x2="28.845" y2="-0.492551" gradientUnits="userSpaceOnUse">
<stop stop-color="#5EB9E9"/>
<stop offset="0.5" stop-color="#65509C"/>
<stop offset="1" stop-color="#282F69"/>
</linearGradient>
<linearGradient id="paint24_linear_268_36084" x1="26.1118" y1="32.1878" x2="27.9877" y2="-0.540791" gradientUnits="userSpaceOnUse">
<stop stop-color="#5EB9E9"/>
<stop offset="0.5" stop-color="#65509C"/>
<stop offset="1" stop-color="#282F69"/>
</linearGradient>
<linearGradient id="paint25_linear_268_36084" x1="25.2687" y1="32.1451" x2="27.1446" y2="-0.58994" gradientUnits="userSpaceOnUse">
<stop stop-color="#5EB9E9"/>
<stop offset="0.5" stop-color="#65509C"/>
<stop offset="1" stop-color="#282F69"/>
</linearGradient>
<linearGradient id="paint26_linear_268_36084" x1="16.3592" y1="31.6352" x2="18.235" y2="-1.09982" gradientUnits="userSpaceOnUse">
<stop stop-color="#5EB9E9"/>
<stop offset="0.5" stop-color="#65509C"/>
<stop offset="1" stop-color="#282F69"/>
</linearGradient>
<linearGradient id="paint27_linear_268_36084" x1="13.139" y1="31.4498" x2="15.0149" y2="-1.28523" gradientUnits="userSpaceOnUse">
<stop stop-color="#5EB9E9"/>
<stop offset="0.5" stop-color="#65509C"/>
<stop offset="1" stop-color="#282F69"/>
</linearGradient>
<linearGradient id="paint28_linear_268_36084" x1="47.6043" y1="32.0091" x2="47.6043" y2="-0.358078" gradientUnits="userSpaceOnUse">
<stop stop-color="#5EB9E9"/>
<stop offset="0.5" stop-color="#65509C"/>
<stop offset="1" stop-color="#282F69"/>
</linearGradient>
<linearGradient id="paint29_linear_268_36084" x1="37.3593" y1="32.0086" x2="37.3593" y2="-0.358538" gradientUnits="userSpaceOnUse">
<stop stop-color="#5EB9E9"/>
<stop offset="0.5" stop-color="#65509C"/>
<stop offset="1" stop-color="#282F69"/>
</linearGradient>
<linearGradient id="paint30_linear_268_36084" x1="37.3593" y1="32.0087" x2="37.3593" y2="-0.358447" gradientUnits="userSpaceOnUse">
<stop stop-color="#5EB9E9"/>
<stop offset="0.5" stop-color="#65509C"/>
<stop offset="1" stop-color="#282F69"/>
</linearGradient>
<linearGradient id="paint31_linear_268_36084" x1="37.3593" y1="32.0086" x2="37.3593" y2="-0.358631" gradientUnits="userSpaceOnUse">
<stop stop-color="#5EB9E9"/>
<stop offset="0.5" stop-color="#65509C"/>
<stop offset="1" stop-color="#282F69"/>
</linearGradient>
<linearGradient id="paint32_linear_268_36084" x1="27.1214" y1="32.009" x2="27.1214" y2="-0.358231" gradientUnits="userSpaceOnUse">
<stop stop-color="#5EB9E9"/>
<stop offset="0.5" stop-color="#65509C"/>
<stop offset="1" stop-color="#282F69"/>
</linearGradient>
<linearGradient id="paint33_linear_268_36084" x1="27.1179" y1="32.0084" x2="27.1179" y2="-0.358826" gradientUnits="userSpaceOnUse">
<stop stop-color="#5EB9E9"/>
<stop offset="0.5" stop-color="#65509C"/>
<stop offset="1" stop-color="#282F69"/>
</linearGradient>
<linearGradient id="paint34_linear_268_36084" x1="16.8764" y1="32.0088" x2="16.8764" y2="-0.358398" gradientUnits="userSpaceOnUse">
<stop stop-color="#5EB9E9"/>
<stop offset="0.5" stop-color="#65509C"/>
<stop offset="1" stop-color="#282F69"/>
</linearGradient>
<linearGradient id="paint35_linear_268_36084" x1="3.68753" y1="32.0023" x2="3.68753" y2="-0.355161" gradientUnits="userSpaceOnUse">
<stop stop-color="#5EB9E9"/>
<stop offset="0.5" stop-color="#65509C"/>
<stop offset="1" stop-color="#282F69"/>
</linearGradient>
<linearGradient id="paint36_linear_268_36084" x1="54.8347" y1="48.603" x2="11.8888" y2="73.9797" gradientUnits="userSpaceOnUse">
<stop stop-color="#FCC043"/>
<stop offset="0.5" stop-color="#ED691F"/>
<stop offset="1" stop-color="#282F69"/>
</linearGradient>
<linearGradient id="paint37_linear_268_36084" x1="44.9297" y1="31.8388" x2="1.98423" y2="57.219" gradientUnits="userSpaceOnUse">
<stop stop-color="#FCC043"/>
<stop offset="0.5" stop-color="#ED691F"/>
<stop offset="1" stop-color="#282F69"/>
</linearGradient>
<linearGradient id="paint38_linear_268_36084" x1="51.2673" y1="42.5683" x2="8.32542" y2="67.9484" gradientUnits="userSpaceOnUse">
<stop stop-color="#FCC043"/>
<stop offset="0.5" stop-color="#ED691F"/>
<stop offset="1" stop-color="#282F69"/>
</linearGradient>
<linearGradient id="paint39_linear_268_36084" x1="40.5016" y1="24.3659" x2="-2.43066" y2="49.7352" gradientUnits="userSpaceOnUse">
<stop stop-color="#FCC043"/>
<stop offset="0.5" stop-color="#ED691F"/>
<stop offset="1" stop-color="#282F69"/>
</linearGradient>
<linearGradient id="paint40_linear_268_36084" x1="35.5562" y1="15.9757" x2="-7.3893" y2="41.3559" gradientUnits="userSpaceOnUse">
<stop stop-color="#FCC043"/>
<stop offset="0.5" stop-color="#ED691F"/>
<stop offset="1" stop-color="#282F69"/>
</linearGradient>
<linearGradient id="paint41_linear_268_36084" x1="45.9358" y1="33.5388" x2="2.98668" y2="58.9191" gradientUnits="userSpaceOnUse">
<stop stop-color="#FCC043"/>
<stop offset="0.5" stop-color="#ED691F"/>
<stop offset="1" stop-color="#282F69"/>
</linearGradient>
<linearGradient id="paint42_linear_268_36084" x1="34.7556" y1="14.6203" x2="-8.18994" y2="40.0005" gradientUnits="userSpaceOnUse">
<stop stop-color="#FCC043"/>
<stop offset="0.5" stop-color="#ED691F"/>
<stop offset="1" stop-color="#282F69"/>
</linearGradient>
<linearGradient id="paint43_linear_268_36084" x1="35.2586" y1="15.4751" x2="-7.68689" y2="40.8553" gradientUnits="userSpaceOnUse">
<stop stop-color="#FCC043"/>
<stop offset="0.5" stop-color="#ED691F"/>
<stop offset="1" stop-color="#282F69"/>
</linearGradient>
<linearGradient id="paint44_linear_268_36084" x1="40.0765" y1="45.4766" x2="9.86488" y2="64.6417" gradientUnits="userSpaceOnUse">
<stop stop-color="#FCC043"/>
<stop offset="0.5" stop-color="#ED691F"/>
<stop offset="1" stop-color="#282F69"/>
</linearGradient>
<linearGradient id="paint45_linear_268_36084" x1="29.4701" y1="28.7588" x2="-0.738266" y2="47.9203" gradientUnits="userSpaceOnUse">
<stop stop-color="#FCC043"/>
<stop offset="0.5" stop-color="#ED691F"/>
<stop offset="1" stop-color="#282F69"/>
</linearGradient>
<linearGradient id="paint46_linear_268_36084" x1="40.746" y1="46.5326" x2="10.5344" y2="65.6977" gradientUnits="userSpaceOnUse">
<stop stop-color="#FCC043"/>
<stop offset="0.5" stop-color="#ED691F"/>
<stop offset="1" stop-color="#282F69"/>
</linearGradient>
<linearGradient id="paint47_linear_268_36084" x1="35.4464" y1="38.1825" x2="5.2384" y2="57.3474" gradientUnits="userSpaceOnUse">
<stop stop-color="#FCC043"/>
<stop offset="0.5" stop-color="#ED691F"/>
<stop offset="1" stop-color="#282F69"/>
</linearGradient>
<linearGradient id="paint48_linear_268_36084" x1="35.581" y1="38.3997" x2="5.37265" y2="57.5613" gradientUnits="userSpaceOnUse">
<stop stop-color="#FCC043"/>
<stop offset="0.5" stop-color="#ED691F"/>
<stop offset="1" stop-color="#282F69"/>
</linearGradient>
<linearGradient id="paint49_linear_268_36084" x1="34.3305" y1="36.4246" x2="4.12253" y2="55.5896" gradientUnits="userSpaceOnUse">
<stop stop-color="#FCC043"/>
<stop offset="0.5" stop-color="#ED691F"/>
<stop offset="1" stop-color="#282F69"/>
</linearGradient>
<linearGradient id="paint50_linear_268_36084" x1="29.1903" y1="28.3168" x2="-1.02091" y2="47.4854" gradientUnits="userSpaceOnUse">
<stop stop-color="#FCC043"/>
<stop offset="0.5" stop-color="#ED691F"/>
<stop offset="1" stop-color="#282F69"/>
</linearGradient>
<linearGradient id="paint51_linear_268_36084" x1="28.9139" y1="27.8814" x2="-1.29726" y2="47.0499" gradientUnits="userSpaceOnUse">
<stop stop-color="#FCC043"/>
<stop offset="0.5" stop-color="#ED691F"/>
<stop offset="1" stop-color="#282F69"/>
</linearGradient>
<linearGradient id="paint52_linear_268_36084" x1="18.8213" y1="11.9758" x2="-11.3903" y2="31.1409" gradientUnits="userSpaceOnUse">
<stop stop-color="#FCC043"/>
<stop offset="0.5" stop-color="#ED691F"/>
<stop offset="1" stop-color="#282F69"/>
</linearGradient>
<linearGradient id="paint53_linear_268_36084" x1="29.3816" y1="28.6222" x2="-0.82604" y2="47.7906" gradientUnits="userSpaceOnUse">
<stop stop-color="#FCC043"/>
<stop offset="0.5" stop-color="#ED691F"/>
<stop offset="1" stop-color="#282F69"/>
</linearGradient>
<clipPath id="clip0_268_36084">
<rect width="201" height="64" fill="white" transform="translate(-0.000244141 0.109375)"/>
</clipPath>
</defs>
</svg>
