<svg width="22" height="23" viewBox="0 0 22 23" fill="none" xmlns="http://www.w3.org/2000/svg">
<path fill-rule="evenodd" clip-rule="evenodd" d="M11 22.3774C17.0751 22.3774 22 17.4526 22 11.3774C22 5.30231 17.0751 0.377441 11 0.377441C4.92487 0.377441 0 5.30231 0 11.3774C0 17.4526 4.92487 22.3774 11 22.3774ZM11 10.3774C10.4477 10.3774 10 10.8252 10 11.3774V15.3774C10 15.9297 10.4477 16.3774 11 16.3774C11.5523 16.3774 12 15.9297 12 15.3774V11.3774C12 10.8252 11.5523 10.3774 11 10.3774ZM11 6.37744C10.4477 6.37744 10 6.82516 10 7.37744C10 7.92973 10.4477 8.37744 11 8.37744C11.5523 8.37744 12 7.92973 12 7.37744C12 6.82516 11.5523 6.37744 11 6.37744Z" fill="white"/>
</svg>
