<svg width="22" height="22" viewBox="0 0 22 22" fill="none" xmlns="http://www.w3.org/2000/svg">
<g id="elements">
<g id="Icon">
<path d="M10.491 10.7512C10.4216 10.7501 10.3413 10.75 10.2422 10.75C9.82797 10.75 9.49219 10.4142 9.49219 10C9.49219 9.5858 9.82797 9.25002 10.2422 9.25002L10.2766 9.25001C10.4817 9.24993 10.7035 9.24984 10.8908 9.27501C11.1101 9.3045 11.3903 9.38033 11.6261 9.61613C11.8619 9.85193 11.9377 10.1321 11.9672 10.3514C11.9924 10.5387 11.9923 10.7605 11.9922 10.9656L11.9922 16C11.9922 16.4142 11.6564 16.75 11.2422 16.75C10.828 16.75 10.4922 16.4142 10.4922 16V11C10.4922 10.9009 10.4922 10.8206 10.491 10.7512Z" fill="#003F6A"/>
<path d="M10.9922 6C10.4399 6 9.99219 6.44772 9.99219 7C9.99219 7.55228 10.4399 8 10.9922 8H11.0012C11.5535 8 12.0012 7.55228 12.0012 7C12.0012 6.44772 11.5535 6 11.0012 6H10.9922Z" fill="#003F6A"/>
<path fill-rule="evenodd" clip-rule="evenodd" d="M0.25 11C0.25 16.9371 5.06294 21.75 11 21.75C16.9371 21.75 21.75 16.9371 21.75 11C21.75 5.06294 16.9371 0.25 11 0.25C5.06294 0.25 0.25 5.06294 0.25 11ZM11 20.25C5.89137 20.25 1.75 16.1086 1.75 11C1.75 5.89137 5.89137 1.75 11 1.75C16.1086 1.75 20.25 5.89137 20.25 11C20.25 16.1086 16.1086 20.25 11 20.25Z" fill="#003F6A"/>
</g>
</g>
</svg>
