<svg width="50" height="34" viewBox="0 0 50 34" fill="none" xmlns="http://www.w3.org/2000/svg">
<g opacity="0.7" clip-path="url(#clip0_293_1903)">
<path d="M34.8136 19.4344V19.4693C34.8136 21.8054 33.1115 23.5225 30.3212 23.5225C29.4044 23.5574 28.4917 23.3827 27.6526 23.0116C26.8136 22.6405 26.0703 22.0829 25.4793 21.3811L27.3961 19.5941C27.7472 20.0565 28.1999 20.432 28.7191 20.6917C29.2384 20.9513 29.8105 21.0882 30.391 21.0916C31.4193 21.0916 32.1481 20.5076 32.1481 19.5941V19.5392C32.1481 18.5409 31.2446 17.9619 29.7172 17.9619H28.5691L28.1398 16.2398L32.1331 12.2465L30.5308 13.2448H26.228V10.9137H34.6189V12.9653L31.4792 15.9602C33.1664 16.2448 34.8136 17.1283 34.8136 19.4543M27.0267 5.25824C27.0153 4.99662 27.0569 4.73539 27.149 4.49026C27.2411 4.24513 27.3819 4.02117 27.5628 3.83184C27.7437 3.64252 27.9611 3.49176 28.2018 3.38861C28.4425 3.28547 28.7016 3.23208 28.9634 3.23166H30.2363L29.8919 3.39139V6.45623C29.8895 6.64875 29.9062 6.84104 29.9418 7.03026C29.9602 7.12292 29.9887 7.2133 30.0266 7.29981H28.9784C28.715 7.29799 28.4546 7.24327 28.2127 7.1389C27.9709 7.03452 27.7524 6.88261 27.5704 6.69219C27.3883 6.50177 27.2464 6.27672 27.153 6.03039C27.0596 5.78407 27.0167 5.52149 27.0267 5.25824ZM28.9634 7.82892H30.0915V7.40962L30.1265 7.46453C30.2077 7.58384 30.3198 7.67875 30.4509 7.73907C30.6082 7.80757 30.7787 7.83997 30.9501 7.83391H40.8734V2.70754H40.3293V7.29482H30.9651C30.8784 7.29922 30.7917 7.28562 30.7105 7.25488C30.645 7.22409 30.5908 7.17344 30.5558 7.11013C30.5131 7.02937 30.486 6.94132 30.4759 6.85056C30.4665 6.72095 30.4665 6.59083 30.4759 6.46122V2.70754H28.9784C28.6426 2.70208 28.3092 2.76444 27.9981 2.89089C27.687 3.01733 27.4046 3.20526 27.1679 3.44341C26.9311 3.68157 26.7449 3.96505 26.6203 4.27689C26.4956 4.58873 26.4353 4.92251 26.4427 5.25824C26.4367 5.58976 26.4969 5.91914 26.6196 6.22715C26.7424 6.53516 26.9253 6.81562 27.1576 7.05215C27.39 7.28869 27.6671 7.47656 27.9729 7.60478C28.2787 7.73301 28.6069 7.79902 28.9385 7.79897M44.8667 2.16345H43.6986V1.7192C43.6875 1.53785 43.7465 1.35917 43.8634 1.22004C43.931 1.16005 44.0101 1.1145 44.0959 1.08618C44.1818 1.05785 44.2725 1.04735 44.3625 1.05532H44.7469V1.41471H44.3675C44.3377 1.41013 44.3072 1.41175 44.278 1.41948C44.2488 1.42721 44.2215 1.44088 44.1978 1.45964C44.165 1.5062 44.1492 1.56256 44.1529 1.61937V1.76413H44.8667V2.16345ZM46.2444 7.89381C46.0942 7.89399 45.9448 7.87384 45.8001 7.83391L45.9449 7.33475L46.0946 7.36969H46.2244C46.3114 7.37236 46.3981 7.35707 46.479 7.32477C46.5445 7.29397 46.5986 7.24332 46.6337 7.18001C46.6763 7.09926 46.7034 7.01121 46.7136 6.92045C46.7229 6.79083 46.7229 6.66072 46.7136 6.5311V2.70754H47.2576V6.51114C47.2597 6.70365 47.243 6.89591 47.2077 7.08517C47.179 7.24012 47.1196 7.38776 47.033 7.51944C46.9517 7.63858 46.8395 7.73345 46.7086 7.79398C46.5514 7.86247 46.3808 7.89488 46.2094 7.88882M30.4459 2.16345H29.8919V1.61937H30.436V2.16345H30.4459ZM42.4258 4.04029C42.5076 3.87924 42.6214 3.73656 42.7602 3.621C42.9011 3.50378 43.0616 3.41251 43.2344 3.35145C43.4078 3.29142 43.59 3.26104 43.7735 3.26161H44.652L44.3675 3.41135V5.85224H43.7935C43.5984 5.85042 43.4048 5.81843 43.2194 5.7574C43.0472 5.70456 42.8863 5.6199 42.7452 5.50782C42.61 5.40055 42.5007 5.26402 42.4258 5.1085C42.3462 4.93836 42.307 4.75218 42.311 4.56441C42.3082 4.37725 42.351 4.19222 42.4358 4.02532M42.4358 5.95208C42.6533 6.10359 42.897 6.21359 43.1546 6.27653C43.4368 6.34777 43.727 6.383 44.0181 6.38135H44.1629L44.3675 6.01198V6.55606C44.3792 6.67053 44.3631 6.78615 44.3206 6.89306C44.278 6.99996 44.2102 7.09498 44.1229 7.17003C43.9193 7.30446 43.6776 7.36926 43.4341 7.35472C43.2812 7.35583 43.1288 7.33908 42.9798 7.3048C42.822 7.26415 42.6683 7.20901 42.5206 7.14008L42.3509 7.63924C42.532 7.70828 42.717 7.76661 42.905 7.81394C43.0683 7.854 43.2359 7.87412 43.4041 7.87384C43.6128 7.89258 43.8231 7.8686 44.0222 7.80338C44.2213 7.73815 44.405 7.63305 44.5622 7.49448C44.8072 7.22105 44.9361 6.86299 44.9216 6.49616V2.70754H44.0181C43.706 2.70446 43.3956 2.75338 43.0996 2.85229C42.8331 2.9415 42.5858 3.08038 42.3709 3.26161C42.1771 3.42254 42.0205 3.62347 41.9116 3.85061C41.8014 4.08296 41.7451 4.3372 41.7469 4.59436C41.7389 4.87943 41.8006 5.16215 41.9266 5.41798C42.0452 5.64343 42.2164 5.83693 42.4258 5.98203M29.3578 2.16345H28.8137V1.61937H29.3578V2.16345ZM23.7223 2.70255H24.2863V7.80895H23.8221L20.1982 3.21668L20.5177 3.96043V7.80895H19.9586V2.70255H20.4977L23.9569 7.09515L23.7223 6.4712V2.70255ZM2.47803 7.84389L0.276733 2.70255H0.940616L1.23512 3.46127L2.7326 7.10014L2.87736 7.44956L2.82245 6.8905L4.55952 2.70754H5.17848L2.98717 7.84389H2.48801H2.47803ZM12.2216 2.70255H12.8007V7.80396H12.2216V2.70255ZM18.4112 5.25824C18.424 5.52832 18.3819 5.79818 18.2873 6.05148C18.1928 6.30478 18.0477 6.53623 17.861 6.7318C17.6743 6.92737 17.4498 7.08298 17.2012 7.1892C16.9526 7.29542 16.6849 7.35003 16.4146 7.34972C16.1456 7.34522 15.8802 7.28734 15.6338 7.17946C15.3874 7.07158 15.1649 6.91583 14.9791 6.72127C14.7934 6.5267 14.6481 6.29719 14.5518 6.04604C14.4555 5.7949 14.41 5.52712 14.4179 5.25824C14.4051 4.98817 14.4472 4.7183 14.5418 4.46501C14.6364 4.21171 14.7814 3.98026 14.9681 3.78469C15.1548 3.58912 15.3793 3.43351 15.6279 3.32729C15.8766 3.22107 16.1442 3.16646 16.4146 3.16677C16.6835 3.17127 16.9489 3.22915 17.1953 3.33703C17.4417 3.44491 17.6642 3.60065 17.85 3.79522C18.0357 3.98979 18.181 4.2193 18.2773 4.47045C18.3737 4.72159 18.4192 4.98937 18.4112 5.25824ZM16.4146 2.6127C16.0672 2.6086 15.7225 2.67442 15.4011 2.80624C15.0796 2.93806 14.788 3.13318 14.5435 3.38C14.299 3.62682 14.1067 3.9203 13.9779 4.24297C13.8491 4.56564 13.7866 4.91091 13.794 5.25824C13.7786 5.61035 13.8346 5.96192 13.9587 6.29178C14.0829 6.62164 14.2725 6.92295 14.5162 7.17755C14.7599 7.43215 15.0526 7.63477 15.3767 7.77319C15.7009 7.91161 16.0496 7.98298 16.4021 7.98298C16.7545 7.98298 17.1033 7.91161 17.4274 7.77319C17.7515 7.63477 18.0443 7.43215 18.288 7.17755C18.5317 6.92295 18.7213 6.62164 18.8454 6.29178C18.9696 5.96192 19.0256 5.61035 19.0102 5.25824C19.021 4.91212 18.9616 4.56739 18.8356 4.24482C18.7097 3.92225 18.5197 3.62853 18.2772 3.38134C18.0346 3.13415 17.7446 2.93862 17.4245 2.80652C17.1044 2.67442 16.7608 2.60849 16.4146 2.6127ZM11.2732 6.42129C11.2732 7.29482 10.5444 7.86386 9.52616 7.86386C8.74957 7.87796 7.99787 7.58981 7.42969 7.06021L7.78909 6.63593C8.01793 6.86754 8.29088 7.05093 8.59182 7.17524C8.89275 7.29956 9.21555 7.36228 9.54114 7.35971C10.23 7.35971 10.6792 6.99532 10.6792 6.49117C10.6792 6.01697 10.4247 5.74742 9.35146 5.5228C8.17344 5.26823 7.63435 4.88887 7.63435 4.02532C7.63435 3.22167 8.34315 2.63266 9.31652 2.63266C9.97414 2.61319 10.6158 2.83715 11.1185 3.26161L10.784 3.70586C10.3693 3.34441 9.83666 3.14731 9.28657 3.15179C8.62268 3.15179 8.1984 3.51618 8.1984 3.9754C8.1984 4.47456 8.46295 4.72414 9.58606 4.97372C10.7092 5.2233 11.2533 5.63761 11.2533 6.4163M6.5312 7.80396H5.97215V2.70255H6.55117V7.80895L6.5312 7.80396ZM40.1247 8.37799H40.6687V8.92208H40.1396V8.37799H40.1247ZM39.0365 8.37799H39.5806V8.92208H39.0515V8.37799H39.0365ZM4.84404 20.9568H9.58107V23.3129H0.39154V21.1515L4.52458 17.7722C6.06699 16.4993 6.67097 15.8255 6.67097 14.7772C6.68951 14.556 6.65864 14.3335 6.5806 14.1257C6.50255 13.9179 6.37929 13.73 6.21972 13.5757C6.06016 13.4214 5.86829 13.3045 5.65799 13.2334C5.44769 13.1624 5.22423 13.139 5.00378 13.1649C4.04539 13.1649 3.39149 13.694 2.46804 14.8271L0.551271 13.3047C1.77421 11.6425 2.96221 10.749 5.18347 10.749C7.75415 10.749 9.46127 12.2465 9.46127 14.5726V14.6075C9.46127 16.679 8.39806 17.7073 6.19677 19.4044L3.48134 21.4959L2.93725 21.8952L4.84404 20.9568ZM45.865 17.1482C45.8852 17.649 45.8038 18.1487 45.6255 18.6171C45.4473 19.0854 45.176 19.5129 44.8279 19.8735C44.4799 20.2341 44.0624 20.5205 43.6006 20.7152C43.1389 20.91 42.6424 21.0092 42.1413 21.0067C41.6361 21.0063 41.1362 20.9044 40.6712 20.7069C40.2062 20.5095 39.7857 20.2206 39.4346 19.8574C39.0835 19.4942 38.809 19.0641 38.6274 18.5927C38.4458 18.1213 38.3609 17.6182 38.3776 17.1133V17.0783C38.3574 16.5776 38.4388 16.0779 38.6171 15.6095C38.7953 15.1411 39.0666 14.7137 39.4146 14.3531C39.7627 13.9925 40.1802 13.7061 40.6419 13.5114C41.1037 13.3166 41.6002 13.2174 42.1013 13.2198C42.6065 13.2202 43.1064 13.3222 43.5714 13.5196C44.0364 13.7171 44.4569 14.006 44.808 14.3692C45.1591 14.7324 45.4336 15.1625 45.6152 15.6339C45.7968 16.1053 45.8817 16.6084 45.865 17.1133V17.1482ZM42.1363 10.7041C41.2773 10.6767 40.4216 10.8221 39.6199 11.1319C38.8183 11.4416 38.087 11.9093 37.4697 12.5071C36.8523 13.1049 36.3613 13.8207 36.0259 14.612C35.6906 15.4033 35.5176 16.2539 35.5174 17.1133V17.1482C35.5174 20.6723 38.2678 23.5225 42.1013 23.5225C42.9603 23.5499 43.816 23.4044 44.6177 23.0947C45.4193 22.785 46.1506 22.3173 46.7679 21.7195C47.3853 21.1216 47.8763 20.4058 48.2117 19.6146C48.547 18.8233 48.72 17.9727 48.7202 17.1133V17.0783C48.7202 13.5543 45.9698 10.7041 42.1363 10.7041Z" fill="white"/>
<path d="M17.0036 9.89038L17.6325 10.4894L17.0286 11.1183L16.3996 10.5143L17.0036 9.89038Z" fill="white"/>
<path d="M18.4462 10.5143L19.0752 11.1183L19.6741 10.4894L19.0452 9.89038L18.4462 10.5143Z" fill="white"/>
<path d="M17.5577 11.308L18.0469 11.7772L18.5161 11.2881L18.0269 10.8188L17.5577 11.308Z" fill="white"/>
<path d="M19.3546 11.5776L19.8438 12.0418L20.313 11.5576L19.8238 11.0884L19.3546 11.5776Z" fill="white"/>
<path d="M16.7595 12.0527L17.2291 11.5625L17.7193 12.0321L17.2497 12.5223L16.7595 12.0527Z" fill="white"/>
<path d="M18.4012 12.1117L18.8904 12.5809L19.3596 12.0918L18.8705 11.6226L18.4012 12.1117Z" fill="white"/>
<path d="M17.7573 12.6757L18.1017 13.0052L18.4312 12.6607L18.0868 12.3313L17.7573 12.6757Z" fill="white"/>
<path d="M19.0602 12.9304L19.3996 13.2648L19.734 12.9204L19.3896 12.5859L19.0602 12.9304Z" fill="white"/>
<path d="M21.8945 10.3179L22.9649 10.1218L23.16 11.1873L22.0897 11.3833L21.8945 10.3179Z" fill="white"/>
<path d="M20.5007 10.7649L21.3599 10.6074L21.5166 11.4617L20.6574 11.6192L20.5007 10.7649Z" fill="white"/>
<path d="M22.1612 11.9541L23.0204 11.7966L23.177 12.6509L22.3178 12.8084L22.1612 11.9541Z" fill="white"/>
<path d="M20.9777 12.0823L21.6455 11.96L21.7678 12.6277L21.1 12.75L20.9777 12.0823Z" fill="white"/>
<path d="M22.2722 13.3455L22.9399 13.2231L23.0622 13.8909L22.3945 14.0132L22.2722 13.3455Z" fill="white"/>
<path d="M19.9795 12.3528L20.6473 12.2305L20.7696 12.8982L20.1018 13.0205L19.9795 12.3528Z" fill="white"/>
<path d="M21.1853 13.229L21.853 13.1067L21.9753 13.7744L21.3076 13.8968L21.1853 13.229Z" fill="white"/>
<path d="M20.337 13.3091L20.8083 13.2226L20.8939 13.689L20.4226 13.7755L20.337 13.3091Z" fill="white"/>
<path d="M21.2374 14.2732L21.7088 14.1869L21.7942 14.6533L21.3229 14.7396L21.2374 14.2732Z" fill="white"/>
<path d="M25.075 13.8088L24.6058 14.7922L25.5891 15.2564L26.0533 14.278L25.075 13.8088Z" fill="white"/>
<path d="M23.6824 13.3596L23.308 14.1433L24.0917 14.5177L24.4661 13.734L23.6824 13.3596Z" fill="white"/>
<path d="M24.3263 15.2964L23.952 16.0801L24.7356 16.4544L25.11 15.6658L24.3263 15.2964Z" fill="white"/>
<path d="M23.293 14.7073L23.0035 15.3162L23.6125 15.6058L23.907 14.9968L23.293 14.7073ZM23.6075 16.4893L23.313 17.1032L23.9269 17.3928L24.2164 16.7788L23.6075 16.4893Z" fill="white"/>
<path d="M22.3247 14.343L22.0302 14.952L22.6441 15.2415L22.9386 14.6325L22.3247 14.343Z" fill="white"/>
<path d="M22.7938 15.7556L22.5043 16.3696L23.1133 16.6591L23.4078 16.0451L22.7938 15.7556Z" fill="white"/>
<path d="M22.0551 15.3264L21.8504 15.7557L22.2847 15.9603L22.4893 15.5311L22.0551 15.3264Z" fill="white"/>
<path d="M22.2198 16.6392L22.0152 17.0684L22.4494 17.2731L22.6541 16.8438L22.2198 16.6392Z" fill="white"/>
<path d="M25.6041 18.501L24.6507 19.0201L25.1749 19.9735L26.1233 19.4494L25.6041 18.501Z" fill="white"/>
<path d="M24.7356 17.3179L23.9768 17.7372L24.3911 18.5009L25.1598 18.0816L24.7356 17.3179ZM24.1266 19.2646L23.3629 19.6839L23.7822 20.4476L24.5459 20.0283L24.1266 19.2646Z" fill="white"/>
<path d="M23.6375 18.1865L23.0385 18.511L23.3679 19.105L23.9619 18.7805L23.6375 18.1865Z" fill="white"/>
<path d="M22.8437 19.8137L22.2448 20.1382L22.5742 20.7322L23.1682 20.4077L22.8437 19.8137Z" fill="white"/>
<path d="M23.0634 17.323L22.4694 17.6475L22.7938 18.2415L23.3878 17.917L23.0634 17.323Z" fill="white"/>
<path d="M22.6142 18.7456L22.0202 19.0701L22.3446 19.6641L22.9386 19.3396L22.6142 18.7456Z" fill="white"/>
<path d="M22.2697 17.9668L21.8504 18.1964L22.08 18.6157L22.4993 18.3861L22.2697 17.9668Z" fill="white"/>
<path d="M21.2135 19.3525L21.6338 19.1223L21.8616 19.5381L21.4414 19.7684L21.2135 19.3525Z" fill="white"/>
<path d="M22.0723 23.5564L22.2053 22.4814L23.2852 22.615L23.1523 23.69L22.0723 23.5564Z" fill="white"/>
<path d="M22.2995 21.9019L22.4062 21.0399L23.2731 21.1473L23.1664 22.0092L22.2995 21.9019Z" fill="white"/>
<path d="M20.6662 23.1282L20.773 22.2662L21.6399 22.3736L21.5331 23.2355L20.6662 23.1282Z" fill="white"/>
<path d="M21.116 21.7983L21.1992 21.1246L21.873 21.2078L21.7898 21.8815L21.116 21.7983Z" fill="white"/>
<path d="M19.5123 22.6514L19.5954 21.9776L20.2691 22.0607L20.186 22.7345L19.5123 22.6514Z" fill="white"/>
<path d="M21.1561 20.7612L21.2396 20.0875L21.9133 20.171L21.8298 20.8447L21.1561 20.7612Z" fill="white"/>
<path d="M19.9594 21.6562L20.0429 20.9825L20.7166 21.066L20.6331 21.7397L19.9594 21.6562Z" fill="white"/>
<path d="M20.3608 20.6487L20.4192 20.1781L20.8948 20.2371L20.8364 20.7077L20.3608 20.6487Z" fill="white"/>
<path d="M19.159 21.2153L19.2172 20.7447L19.6928 20.8035L19.6346 21.2741L19.159 21.2153Z" fill="white"/>
<path d="M18.9903 24.5908L18.1917 23.8521L17.4529 24.6457L18.2516 25.3845L18.9903 24.5908Z" fill="white"/>
<path d="M18.8455 9.40135L18.0469 8.6626L17.3081 9.45626L18.1068 10.195L18.8455 9.40135Z" fill="white"/>
<path d="M19.8388 23.4028L19.1999 22.8088L18.6109 23.4478L19.2448 24.0368L19.8388 23.4028Z" fill="white"/>
<path d="M17.7973 23.4328L17.1584 22.8438L16.5644 23.4827L17.2033 24.0717L17.7973 23.4328Z" fill="white"/>
<path d="M18.6709 22.6289L18.1717 22.1697L17.7125 22.6638L18.2066 23.1231L18.6709 22.6289Z" fill="white"/>
<path d="M16.8688 22.3893L16.3747 21.9301L15.9104 22.4243L16.4096 22.8885L16.8688 22.3893ZM19.3097 21.8153L18.8106 21.3511L18.3513 21.8502L18.8455 22.3095L19.3097 21.8153Z" fill="white"/>
<path d="M17.8122 21.8404L17.318 21.3762L16.8538 21.8754L17.353 22.3346L17.8122 21.8404Z" fill="white"/>
<path d="M18.4462 21.2663L18.0968 20.9419L17.7723 21.2913L18.1217 21.6158L18.4462 21.2663Z" fill="white"/>
<path d="M17.1434 21.0266L16.794 20.7021L16.4696 21.0516L16.819 21.376L17.1434 21.0266Z" fill="white"/>
<path d="M13.0681 22.8438L14.135 22.63L14.3478 23.692L13.2809 23.9058L13.0681 22.8438Z" fill="white"/>
<path d="M14.7085 22.5405L15.565 22.3689L15.7356 23.2205L14.8791 23.3921L14.7085 22.5405Z" fill="white"/>
<path d="M13.1015 21.3071L13.9574 21.133L14.1306 21.9841L13.2746 22.1582L13.1015 21.3071Z" fill="white"/>
<path d="M14.4456 21.3757L15.1113 21.2424L15.2446 21.908L14.579 22.0414L14.4456 21.3757Z" fill="white"/>
<path d="M15.4347 21.0901L16.1003 20.9568L16.2336 21.6225L15.5679 21.7557L15.4347 21.0901Z" fill="white"/>
<path d="M14.2732 20.1694L14.9384 20.0341L15.0738 20.6993L14.4085 20.8347L14.2732 20.1694Z" fill="white"/>
<path d="M15.295 20.3066L15.7649 20.2127L15.8579 20.6777L15.388 20.7716L15.295 20.3066Z" fill="white"/>
<path d="M14.3821 19.3513L14.852 19.2573L14.945 19.7223L14.4751 19.8163L14.3821 19.3513Z" fill="white"/>
<path d="M11.1135 20.248L11.5627 19.2647L10.5744 18.8154L10.1251 19.7988L11.1135 20.248Z" fill="white"/>
<path d="M12.5162 20.6772L12.8756 19.8886L12.0819 19.5242L11.7225 20.3178L12.5162 20.6772Z" fill="white"/>
<path d="M11.043 18.3887L11.4039 17.5987L12.1985 17.9616L11.8376 18.7516L11.043 18.3887Z" fill="white"/>
<path d="M12.2655 19.0469L12.547 18.4291L13.1647 18.7107L12.8832 19.3284L12.2655 19.0469Z" fill="white"/>
<path d="M13.7042 20.867L13.9887 20.253L13.3698 19.9685L13.0902 20.5875L13.7042 20.867Z" fill="white"/>
<path d="M11.9191 17.2654L12.201 16.6478L12.8185 16.9296L12.5367 17.5472L11.9191 17.2654Z" fill="white"/>
<path d="M13.2354 19.3923L13.517 18.7746L14.1347 19.0563L13.8531 19.674L13.2354 19.3923Z" fill="white"/>
<path d="M12.7404 17.9824L13.0222 17.3648L13.6398 17.6467L13.358 18.2643L12.7404 17.9824Z" fill="white"/>
<path d="M14.1035 18.6856L14.3032 18.2513L13.8689 18.0566L13.6692 18.4909L14.1035 18.6856Z" fill="white"/>
<path d="M13.9187 17.3778L14.1184 16.9436L13.6841 16.7439L13.4845 17.1782L13.9187 17.3778Z" fill="white"/>
<path d="M10.5096 15.5709L11.453 15.0318L10.9139 14.0884L9.9705 14.6275L10.5096 15.5709Z" fill="white"/>
<path d="M11.3931 16.7339L12.1468 16.3046L11.7175 15.5459L10.9588 15.9802L11.3931 16.7339Z" fill="white"/>
<path d="M11.9721 14.7772L12.7258 14.348L12.2965 13.5942L11.5378 14.0235L11.9721 14.7772Z" fill="white"/>
<path d="M12.4812 15.8504L13.0702 15.516L12.7308 14.927L12.1418 15.2614L12.4812 15.8504Z" fill="white"/>
<path d="M13.2449 14.2081L13.8339 13.8737L13.4995 13.2847L12.9105 13.6191L13.2449 14.2081Z" fill="white"/>
<path d="M13.0653 16.704L13.6593 16.3695L13.3199 15.7805L12.7309 16.115L13.0653 16.704Z" fill="white"/>
<path d="M13.4895 15.2763L14.0785 14.9369L13.7441 14.3479L13.1551 14.6873L13.4895 15.2763Z" fill="white"/>
<path d="M13.8489 16.0501L14.2632 15.8105L14.0286 15.3962L13.6143 15.6358L13.8489 16.0501Z" fill="white"/>
<path d="M14.4679 14.8769L14.8822 14.6423L14.6426 14.228L14.2283 14.4626L14.4679 14.8769Z" fill="white"/>
<path d="M12.7572 11.4207L12.8723 10.3436L13.9543 10.4592L13.8392 11.5363L12.7572 11.4207Z" fill="white"/>
<path d="M12.7928 12.8835L12.8852 12.0199L13.7538 12.1129L13.6613 12.9765L12.7928 12.8835Z" fill="white"/>
<path d="M14.4089 11.6365L14.5014 10.7729L15.37 10.8658L15.2775 11.7295L14.4089 11.6365Z" fill="white"/>
<path d="M14.196 12.7996L14.2684 12.1246L14.9434 12.1969L14.871 12.8719L14.196 12.7996Z" fill="white"/>
<path d="M15.778 11.9187L15.85 11.2437L16.525 11.3157L16.453 11.9907L15.778 11.9187Z" fill="white"/>
<path d="M14.1691 13.8357L14.2414 13.1607L14.9164 13.2329L14.8441 13.9079L14.1691 13.8357Z" fill="white"/>
<path d="M15.3519 12.9241L15.4243 12.2491L16.0993 12.3215L16.0269 12.9964L15.3519 12.9241Z" fill="white"/>
<path d="M15.1897 13.7637L15.2402 13.2922L15.7167 13.3432L15.6662 13.8147L15.1897 13.7637Z" fill="white"/>
<path d="M16.378 13.1709L16.4283 12.6994L16.9048 12.7501L16.8545 13.2217L16.378 13.1709Z" fill="white"/>
<path d="M21.5011 17.6923C21.3649 17.6157 21.221 17.5538 21.0718 17.5076C20.6962 17.3887 20.2982 17.358 19.9088 17.4177C19.7387 17.4476 19.5716 17.4927 19.4096 17.5525H19.3597C19.2678 17.5878 19.1779 17.6278 19.0901 17.6723L18.8605 17.8021C18.6878 17.911 18.5211 18.0293 18.3614 18.1565C18.2284 17.2439 18.21 16.3183 18.3065 15.4011C18.7158 15.6607 18.601 16.3994 18.5161 16.5841C18.6853 16.3888 18.7908 16.1465 18.8185 15.8896C18.8461 15.6326 18.7946 15.3734 18.6708 15.1465C18.7393 15.2026 18.8013 15.2663 18.8555 15.3362C18.9905 15.5121 19.0704 15.724 19.0851 15.9452C19.0918 16.0366 19.0918 16.1283 19.0851 16.2197V16.2796C19.171 16.1129 19.2157 15.9281 19.2157 15.7405C19.2157 15.553 19.171 15.3682 19.0851 15.2015C19.0242 15.0861 18.9468 14.9802 18.8555 14.887L18.7657 14.7971L18.8555 14.8221C18.9376 14.8503 19.015 14.8907 19.0851 14.9419C19.2326 15.0526 19.3452 15.2033 19.4096 15.3762C19.4592 15.5035 19.4846 15.6389 19.4845 15.7755C19.5286 15.6416 19.5438 15.4998 19.5292 15.3596C19.5146 15.2193 19.4704 15.0838 19.3996 14.9619C19.3181 14.8327 19.2068 14.7249 19.0752 14.6474C19.0032 14.6032 18.9261 14.568 18.8455 14.5426C18.9219 14.5348 18.9988 14.5348 19.0752 14.5426C19.1912 14.5627 19.3017 14.6069 19.3996 14.6723C19.4881 14.731 19.5617 14.8097 19.6143 14.902C19.5989 14.7335 19.5183 14.5776 19.3896 14.4677C19.2955 14.3876 19.1846 14.3296 19.0652 14.298C18.9865 14.2687 18.9042 14.2502 18.8206 14.2431C18.7217 14.2399 18.6232 14.2569 18.5311 14.293C18.6025 14.1916 18.7064 14.1176 18.8256 14.0833C18.8998 14.0601 18.9775 14.0499 19.0552 14.0534C19.1208 14.0558 19.1852 14.071 19.2449 14.0983C19.1898 14.0341 19.1239 13.98 19.0502 13.9386C18.9793 13.8989 18.9013 13.8735 18.8206 13.8637C18.7109 13.8514 18.6 13.8708 18.501 13.9194C18.402 13.968 18.3189 14.044 18.2615 14.1382C18.2366 14.0883 18.2066 14.0384 18.1867 13.9835C18.1286 13.8492 18.0868 13.7084 18.0619 13.5642C18.0372 13.7101 17.9953 13.8525 17.9371 13.9885C17.9148 14.0413 17.8898 14.093 17.8622 14.1432C17.8114 14.0583 17.7403 13.9872 17.6553 13.9365C17.5703 13.8857 17.474 13.8568 17.3751 13.8524C17.2762 13.8479 17.1778 13.8681 17.0885 13.911C16.9993 13.9539 16.9221 14.0183 16.8639 14.0983C16.9872 14.0474 17.1239 14.0383 17.2528 14.0726C17.3818 14.1069 17.4959 14.1825 17.5777 14.288C17.419 14.2314 17.2471 14.2229 17.0837 14.2638C16.9203 14.3047 16.7726 14.393 16.6592 14.5176C16.5737 14.6193 16.5214 14.7447 16.5095 14.877C16.5489 14.8252 16.596 14.7797 16.6492 14.7422C16.7514 14.6589 16.8701 14.5981 16.9973 14.5637C17.1246 14.5293 17.2577 14.5221 17.388 14.5426C17.2253 14.5726 17.0726 14.6426 16.9436 14.7463C16.8147 14.85 16.7135 14.9841 16.6492 15.1366C16.5795 15.3507 16.5795 15.5814 16.6492 15.7955C16.6482 15.5786 16.7177 15.3673 16.8474 15.1935C16.9771 15.0197 17.1598 14.8928 17.368 14.8321C17.1475 15.0045 16.9944 15.2486 16.9351 15.5222C16.8758 15.7957 16.9142 16.0814 17.0436 16.3296C17.0068 16.1206 17.0252 15.9057 17.097 15.7061C17.1688 15.5065 17.2915 15.3291 17.4529 15.1915C17.3291 15.4183 17.2776 15.6776 17.3053 15.9345C17.3329 16.1914 17.4384 16.4338 17.6076 16.629C17.5228 16.4244 17.408 15.7056 17.8173 15.446C17.9142 16.3632 17.8957 17.2889 17.7624 18.2014C17.4593 17.9546 17.1233 17.7514 16.7641 17.5974L16.6393 17.5525C16.3289 17.4496 16.0025 17.404 15.6759 17.4177C15.3294 17.4307 14.9894 17.5157 14.6776 17.6673L14.5827 17.7172L14.6726 17.6923C14.9964 17.5981 15.3348 17.5642 15.6709 17.5924C16.0043 17.6245 16.3299 17.7122 16.6343 17.852C17.049 18.0486 17.4352 18.3005 17.7823 18.6007C17.4202 18.9564 17.0368 19.2898 16.6343 19.599H16.5993C16.5712 19.551 16.5289 19.5127 16.4783 19.4897C16.4276 19.4666 16.371 19.4598 16.3163 19.4702C16.2615 19.4806 16.2114 19.5077 16.1727 19.5477C16.134 19.5878 16.1087 19.6388 16.1002 19.6939C16.0898 19.7334 16.089 19.7748 16.0977 19.8147C16.1063 19.8546 16.1243 19.8919 16.1501 19.9235C16.2089 19.9848 16.2863 20.0249 16.3703 20.0376C16.4543 20.0502 16.5401 20.0347 16.6143 19.9934C17.092 19.6959 17.5283 19.3367 17.9121 18.9252L18.0419 18.8054L18.1717 18.9252L18.8156 19.5242L19.0502 19.7338C19.1508 19.819 19.2595 19.8943 19.3747 19.9584C19.4469 20.0119 19.5344 20.0408 19.6242 20.0408C19.7141 20.0408 19.8016 20.0119 19.8738 19.9584C19.898 19.9259 19.9154 19.8887 19.9249 19.8493C19.9343 19.8098 19.9356 19.7688 19.9287 19.7288C19.9172 19.6803 19.8924 19.636 19.8571 19.6008C19.8219 19.5655 19.7775 19.5407 19.7291 19.5292C19.6773 19.5172 19.6232 19.5207 19.5735 19.5393C19.5237 19.558 19.4806 19.5909 19.4495 19.634L19.3397 19.5641C19.2269 19.4836 19.1186 19.3969 19.0153 19.3045L18.7856 19.0949C18.6259 18.9501 18.4512 18.7904 18.2865 18.6307C18.4463 18.4927 18.6129 18.3628 18.7856 18.2413L19.0153 18.0916C19.1201 18.0317 19.2299 17.9718 19.3397 17.9169C19.5005 17.8385 19.6675 17.7734 19.8389 17.7222C20.2228 17.6101 20.6269 17.5845 21.0219 17.6473C21.1656 17.6703 21.3074 17.7036 21.4462 17.7472" fill="white"/>
<path d="M17.6775 29.133H17.987V26.3427H17.6775V29.133ZM9.51128 28.8235L9.01212 27.6306C9.1215 27.5364 9.2465 27.462 9.38149 27.4109C9.50772 27.3643 9.64127 27.3406 9.77583 27.341C9.91812 27.3422 10.0588 27.371 10.1901 27.4259C10.3173 27.4761 10.4354 27.5469 10.5395 27.6355L10.0404 28.8285H9.50628L9.51128 28.8235ZM7.79417 28.8235H7.4747C7.36298 28.8238 7.25188 28.807 7.14526 28.7736C7.04761 28.7439 6.95625 28.6966 6.87571 28.6339C6.79748 28.5724 6.73431 28.4938 6.69102 28.4042C6.64603 28.3074 6.62383 28.2015 6.62613 28.0948C6.62407 27.9875 6.64805 27.8813 6.69602 27.7853C6.74234 27.6934 6.80687 27.6119 6.8857 27.5457C6.96569 27.4786 7.05696 27.4262 7.15524 27.391C7.25611 27.3546 7.3625 27.3361 7.46971 27.336H7.78418V28.8335L7.79417 28.8235ZM16.4596 28.8235H15.9604C15.8132 28.8289 15.6666 28.8016 15.5311 28.7437C15.4279 28.6919 15.3426 28.6101 15.2866 28.5091C15.3004 28.4132 15.3037 28.3161 15.2965 28.2196V27.2212H14.9871V28.2695C14.9948 28.4257 14.9431 28.5791 14.8423 28.6988C14.7857 28.7551 14.7176 28.7986 14.6426 28.8261C14.5677 28.8537 14.4877 28.8647 14.408 28.8585C14.3228 28.859 14.2382 28.8437 14.1585 28.8136C14.0885 28.7937 14.0225 28.7616 13.9638 28.7187C13.9093 28.6697 13.8652 28.6103 13.834 28.544C13.8025 28.4768 13.7855 28.4036 13.7841 28.3294V27.2212H13.4696V28.2994C13.4716 28.3832 13.4563 28.4664 13.4247 28.544C13.3993 28.6069 13.3601 28.6632 13.3099 28.7087C13.2606 28.752 13.2028 28.7843 13.1402 28.8036C13.0755 28.8237 13.0082 28.8338 12.9405 28.8335H12.3415V27.2212H12.027V28.8285H10.3898L10.9239 27.5207C10.84 27.4471 10.7517 27.3788 10.6593 27.3161C10.567 27.2541 10.4703 27.1991 10.3698 27.1514C10.2739 27.1037 10.1736 27.0652 10.0703 27.0366C9.97267 27.0102 9.87199 26.9968 9.77084 26.9966C9.66803 26.9965 9.56566 27.01 9.46635 27.0366C9.36185 27.0642 9.25997 27.101 9.16186 27.1464C9.06055 27.1943 8.96367 27.2511 8.87235 27.3161C8.78168 27.3789 8.69499 27.4472 8.61279 27.5207L9.16186 28.8235H8.09865V27.0216H7.59949C7.42158 27.0191 7.24448 27.0461 7.07538 27.1014C6.92626 27.1504 6.78749 27.2266 6.66606 27.3261C6.55425 27.4186 6.46397 27.5345 6.40151 27.6655C6.33911 27.7982 6.30673 27.9431 6.30667 28.0898C6.30205 28.2541 6.33805 28.417 6.41149 28.564C6.47764 28.6928 6.57345 28.804 6.69102 28.8884C6.815 28.9745 6.95374 29.0371 7.10033 29.0731C7.26353 29.114 7.43125 29.1342 7.59949 29.133H7.78418V29.2179C7.79053 29.2831 7.78116 29.3488 7.75684 29.4096C7.73252 29.4704 7.69397 29.5245 7.64442 29.5673C7.52781 29.6441 7.38941 29.6808 7.25008 29.6721C7.16289 29.6738 7.07579 29.6654 6.99052 29.6472C6.89962 29.6237 6.81106 29.592 6.72596 29.5523L6.62613 29.8518C6.73056 29.8914 6.83723 29.9247 6.94559 29.9516C7.03706 29.9743 7.13089 29.986 7.22512 29.9866C7.34456 29.9978 7.46501 29.9845 7.57915 29.9476C7.69329 29.9107 7.79871 29.8509 7.88901 29.7719C8.03196 29.6121 8.10558 29.402 8.09366 29.1879V29.133H12.9205C13.0612 29.1365 13.2004 29.1038 13.3249 29.0382C13.4394 28.9762 13.5371 28.8871 13.6094 28.7786C13.6837 28.9032 13.7907 29.0051 13.9189 29.0731C14.0625 29.1461 14.222 29.1822 14.3831 29.1779C14.5551 29.1854 14.7263 29.1511 14.8822 29.0781C15.0137 29.0142 15.1207 28.909 15.1867 28.7786C15.2143 28.8247 15.246 28.8681 15.2816 28.9084C15.323 28.9545 15.372 28.9933 15.4263 29.0232C15.494 29.0593 15.5662 29.0862 15.641 29.1031C15.7147 29.1201 15.7899 29.1301 15.8656 29.133H16.7641V26.3427H16.4546V28.8385L16.4596 28.8235ZM44.4125 28.6838C44.3723 28.7806 44.3132 28.8684 44.2386 28.9422C44.164 29.0159 44.0755 29.074 43.9782 29.1131C43.8749 29.1536 43.7648 29.1739 43.6538 29.173C43.5557 29.1694 43.4592 29.1474 43.3693 29.1081C43.2737 29.0672 43.1872 29.0078 43.1147 28.9334C43.0418 28.8587 42.9842 28.7705 42.945 28.6738C42.8995 28.5749 42.8741 28.4681 42.8701 28.3593C42.8691 28.2499 42.8894 28.1414 42.93 28.0399C42.9679 27.9437 43.0238 27.8556 43.0947 27.7803C43.1656 27.7062 43.2504 27.6468 43.3443 27.6056C43.4449 27.5614 43.5539 27.5392 43.6638 27.5407C43.7765 27.5389 43.8884 27.5592 43.9932 27.6006C44.0897 27.6402 44.1778 27.6978 44.2528 27.7703C44.328 27.8441 44.3874 27.9324 44.4275 28.0299C44.471 28.1342 44.493 28.2463 44.4924 28.3593C44.4932 28.4708 44.4711 28.5812 44.4275 28.6838M41.4026 28.6838C41.3626 28.7808 41.3036 28.8687 41.229 28.9425C41.1544 29.0162 41.0657 29.0742 40.9683 29.1131C40.865 29.1536 40.7548 29.1739 40.6439 29.173C40.534 29.1741 40.4251 29.152 40.3244 29.1081C40.2289 29.0672 40.1423 29.0078 40.0698 28.9334C39.9969 28.8587 39.9393 28.7705 39.9001 28.6738C39.8599 28.5739 39.8396 28.467 39.8402 28.3593C39.8393 28.25 39.8596 28.1415 39.9001 28.0399C39.9381 27.9437 39.994 27.8556 40.0648 27.7803C40.1357 27.7062 40.2205 27.6468 40.3144 27.6056C40.415 27.5614 40.524 27.5392 40.6339 27.5407C40.7466 27.5389 40.8585 27.5592 40.9633 27.6006C41.0598 27.6402 41.1479 27.6978 41.2229 27.7703C41.2981 27.8441 41.3575 27.9324 41.3976 28.0299C41.4392 28.1346 41.4596 28.2466 41.4575 28.3593C41.4585 28.4708 41.4364 28.5813 41.3926 28.6838M33.8104 28.8235H33.5159C33.4041 28.8246 33.2929 28.8077 33.1864 28.7736C33.0883 28.7427 32.9968 28.6936 32.9169 28.6289C32.8406 28.5647 32.7793 28.4846 32.7372 28.3943C32.6919 28.2957 32.6698 28.1882 32.6723 28.0798C32.6704 27.9741 32.6944 27.8696 32.7422 27.7753C32.7888 27.6836 32.8533 27.6022 32.9318 27.5357C33.012 27.47 33.1033 27.4193 33.2014 27.386C33.3008 27.3507 33.4054 27.3321 33.5109 27.3311H33.8204V28.8285L33.8104 28.8235ZM45.7902 28.8235H44.707C44.7732 28.6795 44.8073 28.5228 44.8069 28.3643C44.8074 28.2101 44.7768 28.0573 44.717 27.9151C44.6618 27.7805 44.5804 27.6583 44.4776 27.5555C44.3748 27.4527 44.2525 27.3713 44.118 27.3161C43.9762 27.2545 43.8234 27.2223 43.6688 27.2212C43.5193 27.2206 43.3714 27.2512 43.2345 27.3111C43.032 27.4008 42.8603 27.548 42.7405 27.7343C42.6208 27.9206 42.5582 28.1379 42.5606 28.3593C42.5603 28.4399 42.5687 28.5202 42.5856 28.5989C42.6025 28.674 42.6259 28.7475 42.6555 28.8186H41.6821C41.7466 28.6741 41.7789 28.5175 41.777 28.3593C41.7776 28.205 41.7471 28.0522 41.6871 27.9101C41.6319 27.7756 41.5505 27.6533 41.4477 27.5505C41.3449 27.4477 41.2226 27.3663 41.0881 27.3111C40.9459 27.2514 40.7931 27.2208 40.6389 27.2212C40.4894 27.2206 40.3415 27.2512 40.2046 27.3111C39.9366 27.4273 39.7251 27.6443 39.6156 27.9151C39.558 28.056 39.5291 28.2071 39.5307 28.3593C39.5303 28.4399 39.5387 28.5202 39.5557 28.5989C39.5727 28.674 39.5961 28.7475 39.6256 28.8186H38.6273V26.3228H38.3228V28.8186H37.3245V28.3194C37.3255 28.2047 37.3104 28.0904 37.2795 27.98C37.2512 27.8782 37.1999 27.7844 37.1298 27.7054C37.0588 27.6314 36.974 27.5721 36.8802 27.5307C36.7576 27.484 36.627 27.462 36.4958 27.4658H35.0982L35.6872 26.3427H35.3428L34.7438 27.4608C34.7525 27.5211 34.7693 27.5798 34.7937 27.6355C34.8163 27.6865 34.8466 27.7336 34.8836 27.7753H36.4759C36.5629 27.7732 36.6494 27.7885 36.7304 27.8202C36.798 27.8469 36.858 27.8898 36.9052 27.945C36.9494 27.9966 36.9803 28.0584 36.995 28.1247C37.0035 28.1994 37.0035 28.2747 36.995 28.3493V28.8485H34.1348V27.0216H33.6357C33.4561 27.0195 33.2775 27.0465 33.1066 27.1014C32.959 27.1483 32.8218 27.2228 32.7022 27.3211C32.5927 27.4148 32.5047 27.5312 32.4444 27.6621C32.384 27.7931 32.3528 27.9356 32.3528 28.0798C32.344 28.2525 32.3801 28.4245 32.4576 28.579C32.5249 28.707 32.6205 28.818 32.7372 28.9034C32.8605 28.9918 32.9993 29.0561 33.1465 29.0931C33.3095 29.1352 33.4773 29.1553 33.6456 29.153H39.8302C39.9315 29.2626 40.0537 29.3509 40.1896 29.4126C40.3324 29.4768 40.4874 29.5091 40.6439 29.5074C40.8035 29.508 40.9615 29.4757 41.1081 29.4126C41.2496 29.3531 41.3772 29.2647 41.4825 29.153H42.8701C42.9714 29.2626 43.0936 29.3509 43.2295 29.4126C43.3722 29.4769 43.5272 29.5093 43.6837 29.5074C43.8433 29.508 44.0014 29.4757 44.148 29.4126C44.2895 29.353 44.417 29.2646 44.5223 29.153H46.1097V26.3427H45.7802V28.8385L45.7902 28.8235ZM47.0081 29.133H47.3176V26.3427H47.0081V29.133ZM24.0468 29.8169H24.3663V29.4974H24.0268V29.8169H24.0468ZM27.0967 28.8186L26.5975 27.6256C26.7069 27.5315 26.8319 27.4571 26.9669 27.4059C27.0931 27.3593 27.2267 27.3356 27.3612 27.336C27.5052 27.3366 27.6477 27.3654 27.7805 27.4209C27.9077 27.4712 28.0257 27.542 28.1299 27.6306L27.6308 28.8235H27.0767L27.0967 28.8186ZM29.3079 28.8186H27.9602L28.5043 27.5157C28.4205 27.4421 28.3321 27.3737 28.2397 27.3111C28.1474 27.2492 28.0506 27.1941 27.9502 27.1464C27.8542 27.0987 27.754 27.0603 27.6507 27.0316C27.5531 27.0052 27.4524 26.9917 27.3512 26.9916C27.2484 26.9916 27.1461 27.005 27.0468 27.0316C26.9439 27.0595 26.8437 27.0962 26.7473 27.1414C26.6459 27.1893 26.5491 27.2461 26.4577 27.3111C26.3672 27.374 26.2805 27.4423 26.1982 27.5157L26.7473 28.8186H25.5892V27.0216H25.2747V29.2179C25.2802 29.2927 25.2802 29.3677 25.2747 29.4425C25.2694 29.4948 25.2542 29.5456 25.2298 29.5922C25.209 29.6277 25.1776 29.6556 25.14 29.6721C25.094 29.6905 25.0447 29.699 24.9952 29.6971H24.8155L24.7356 29.9966C24.8185 30.0197 24.9042 30.0314 24.9902 30.0315C25.088 30.0347 25.1852 30.016 25.2747 29.9766C25.3496 29.941 25.4134 29.8858 25.4594 29.8169C25.5091 29.7412 25.5431 29.6563 25.5593 29.5673C25.5813 29.4522 25.5914 29.3351 25.5892 29.2179V29.133H29.5825V26.3427H29.283V28.8385L29.3079 28.8186ZM5.61783 27.2911C5.53991 27.2042 5.44471 27.1345 5.3383 27.0865C5.21968 27.0376 5.09221 27.0138 4.96393 27.0166H4.73432V27.3261H5.00885C5.08323 27.3265 5.15656 27.3436 5.22349 27.376C5.2883 27.405 5.34616 27.4476 5.39321 27.5008C5.43503 27.554 5.4656 27.6151 5.48306 27.6805C5.50116 27.7573 5.50954 27.8361 5.50801 27.9151V28.8186H4.04548V29.128H5.81749V27.9101C5.81822 27.7934 5.8014 27.6773 5.76758 27.5657C5.73857 27.4642 5.68743 27.3704 5.61783 27.2911ZM22.9037 29.8219H23.2232V29.5024H22.9037V29.8219ZM21.0069 28.8235H20.6825C20.5707 28.8247 20.4595 28.8078 20.353 28.7736C20.2549 28.7427 20.1634 28.6936 20.0835 28.6289C20.009 28.5642 19.9494 28.4842 19.9088 28.3943C19.8637 28.2957 19.8415 28.1882 19.8439 28.0798C19.8405 27.9745 19.8628 27.87 19.9088 27.7753C19.9554 27.6836 20.0199 27.6022 20.0984 27.5357C20.1786 27.4701 20.2699 27.4194 20.368 27.386C20.4674 27.3507 20.572 27.3321 20.6775 27.3311H20.987V28.8285L21.0069 28.8235ZM24.3563 27.0216H24.0318V28.8235H22.8538V27.0216H22.5443V28.8235H21.3064V27.0216H20.8073C20.6277 27.0195 20.4491 27.0465 20.2781 27.1014C20.1307 27.1484 19.9935 27.2229 19.8738 27.3211C19.7644 27.4127 19.6759 27.5268 19.6143 27.6555C19.5543 27.7871 19.5236 27.9302 19.5244 28.0748C19.5155 28.2475 19.5517 28.4195 19.6292 28.574C19.6965 28.702 19.7921 28.813 19.9088 28.8984C20.0321 28.9868 20.1709 29.0511 20.3181 29.0881C20.4811 29.1302 20.6489 29.1503 20.8172 29.148H24.3463V27.0216H24.3563ZM22.3596 29.8219H22.6791V29.5024H22.3397V29.8219H22.3596ZM1.52472 26.3277H1.19028V26.6472H1.50975V26.3427L1.52472 26.3277ZM33.6057 26.3277H33.2663V26.6472H33.5857V26.3427L33.6057 26.3277ZM21.3214 26.3277H20.982V26.6472H21.3014V26.3427L21.3214 26.3277ZM3.35165 29.8219H3.67111V29.5024H3.34665V29.8219H3.35165ZM20.7623 26.3277H20.4379V26.6472H20.7573V26.3427L20.7623 26.3277ZM2.05882 26.3277H1.73437V26.6472H2.05383V26.3427L2.05882 26.3277ZM2.80756 29.8219H3.12702V29.5024H2.80257V29.8219H2.80756ZM1.74934 28.8235H1.43986C1.32808 28.8247 1.21685 28.8078 1.11042 28.7736C1.01222 28.7429 0.920759 28.6937 0.840872 28.6289C0.764472 28.5648 0.703119 28.4847 0.661175 28.3943C0.615942 28.2957 0.593751 28.1882 0.596284 28.0798C0.594434 27.9741 0.618424 27.8696 0.666166 27.7753C0.713058 27.6838 0.77751 27.6024 0.855847 27.5357C0.936045 27.4701 1.02733 27.4194 1.12539 27.386C1.22636 27.35 1.33269 27.3315 1.43986 27.3311H1.74435V28.8285L1.74934 28.8235ZM3.61121 27.0216H3.29674V28.8235H2.05383V27.0216H1.55467C1.37515 27.0195 1.19648 27.0465 1.02556 27.1014C0.878153 27.1485 0.740972 27.223 0.621242 27.3211C0.511807 27.4127 0.423297 27.5268 0.361679 27.6555C0.301712 27.7871 0.271055 27.9302 0.27183 28.0748C0.262961 28.2475 0.299081 28.4195 0.376654 28.574C0.443874 28.702 0.539488 28.813 0.656183 28.8984C0.779438 28.9869 0.918316 29.0512 1.06549 29.0881C1.22847 29.1302 1.39634 29.1503 1.56465 29.148H3.60622V27.0216H3.61121ZM30.5109 29.133H30.8204V26.3427H30.5059V29.133H30.5109ZM34.1398 26.3427H33.8104V26.6622H34.1348V26.3427H34.1398ZM0.586301 31.1796H0.975645V32.2977L2.03386 31.1796H2.51306L1.58961 32.133L2.55798 33.4008H2.08378L1.32007 32.4025L0.975645 32.7569V33.4008H0.586301V31.1796ZM2.91238 31.1796H3.30173V33.4008H2.91238V31.1796ZM3.90571 31.1796H4.2701L5.46309 32.712V31.1796H5.84744V33.4008H5.518L4.29007 31.8185V33.4008H3.90571V31.1796ZM6.33163 32.2977C6.32961 32.1464 6.35793 31.9962 6.41492 31.856C6.4719 31.7158 6.55639 31.5884 6.6634 31.4814C6.77041 31.3744 6.89778 31.2899 7.03798 31.2329C7.17818 31.1759 7.32837 31.1476 7.4797 31.1496C7.79235 31.1346 8.09854 31.242 8.33326 31.4491L8.08368 31.7436C7.91568 31.5842 7.69125 31.498 7.45973 31.504C7.36072 31.5079 7.26345 31.5312 7.17347 31.5727C7.08349 31.6142 7.00258 31.673 6.93535 31.7458C6.86813 31.8186 6.81591 31.9039 6.7817 31.9969C6.74748 32.0899 6.73194 32.1887 6.73595 32.2877C6.72899 32.3908 6.74358 32.4942 6.77877 32.5913C6.81397 32.6884 6.86902 32.7771 6.9404 32.8518C7.01177 32.9264 7.09792 32.9854 7.19335 33.0249C7.28878 33.0645 7.3914 33.0837 7.49467 33.0814C7.68779 33.0832 7.87652 33.0238 8.03376 32.9117V32.4974H7.46971V32.1579H8.4281V33.0914C8.17008 33.314 7.84048 33.4363 7.49966 33.4358C7.34723 33.4428 7.195 33.4181 7.05259 33.3633C6.91019 33.3084 6.78071 33.2247 6.67234 33.1172C6.56397 33.0098 6.47907 32.881 6.423 32.7391C6.36693 32.5972 6.34092 32.4452 6.3466 32.2927M9.78581 33.0464C9.88711 33.0535 9.98877 33.0392 10.0842 33.0044C10.1796 32.9696 10.2666 32.9151 10.3396 32.8445C10.4125 32.7739 10.4698 32.6887 10.5077 32.5945C10.5456 32.5003 10.5633 32.3992 10.5595 32.2977C10.5632 32.196 10.5455 32.0947 10.5077 32.0002C10.4698 31.9058 10.4126 31.8203 10.3398 31.7493C10.2669 31.6783 10.1799 31.6234 10.0845 31.588C9.98912 31.5526 9.88736 31.5376 9.78581 31.544H9.34655V33.0414H9.78581V33.0464ZM8.95721 31.1796H9.78581C9.93709 31.1693 10.0889 31.1902 10.2317 31.241C10.3746 31.2918 10.5055 31.3713 10.6164 31.4747C10.7273 31.5781 10.8158 31.7032 10.8764 31.8422C10.937 31.9812 10.9685 32.1311 10.9688 32.2827C10.9691 32.435 10.9382 32.5857 10.8779 32.7255C10.8177 32.8653 10.7294 32.9913 10.6185 33.0956C10.5076 33.1999 10.3765 33.2804 10.2333 33.332C10.0901 33.3837 9.93776 33.4054 9.78581 33.3958H8.95721V31.1796ZM13.255 32.2977C13.2583 32.1957 13.2412 32.0942 13.2046 31.9989C13.168 31.9037 13.1128 31.8168 13.042 31.7432C12.9713 31.6697 12.8866 31.6111 12.7928 31.5709C12.6991 31.5307 12.5983 31.5096 12.4962 31.509C12.3951 31.5096 12.2951 31.5305 12.2023 31.5706C12.1094 31.6106 12.0255 31.6689 11.9557 31.7421C11.8858 31.8152 11.8314 31.9016 11.7956 31.9962C11.7598 32.0908 11.7435 32.1917 11.7475 32.2927C11.7442 32.3947 11.7613 32.4962 11.7979 32.5915C11.8344 32.6867 11.8897 32.7736 11.9604 32.8471C12.0312 32.9207 12.1159 32.9793 12.2096 33.0195C12.3034 33.0597 12.4042 33.0808 12.5062 33.0814C12.6074 33.0808 12.7073 33.0598 12.8002 33.0198C12.8931 32.9798 12.977 32.9215 13.0468 32.8483C13.1167 32.7752 13.1711 32.6888 13.2069 32.5942C13.2426 32.4996 13.259 32.3987 13.255 32.2977ZM11.3382 32.2977C11.3382 31.9892 11.4607 31.6934 11.6788 31.4753C11.897 31.2572 12.1928 31.1347 12.5012 31.1347C12.8097 31.1347 13.1055 31.2572 13.3236 31.4753C13.5417 31.6934 13.6643 31.9892 13.6643 32.2977C13.6643 32.6062 13.5417 32.902 13.3236 33.1201C13.1055 33.3382 12.8097 33.4607 12.5012 33.4607C12.1928 33.4607 11.897 33.3382 11.6788 33.1201C11.4607 32.902 11.3382 32.6062 11.3382 32.2977ZM14.1535 31.1796H14.5678L15.2466 32.2278L15.9205 31.1796H16.3398V33.4008H15.9454V31.8085L15.2466 32.8518H15.2316L14.5378 31.8135V33.4008H14.1535V31.1796ZM19.6891 32.2977C19.6939 32.1932 19.6772 32.0889 19.6401 31.9911C19.6029 31.8934 19.5461 31.8043 19.4731 31.7294C19.4 31.6546 19.3124 31.5955 19.2157 31.5558C19.1189 31.5162 19.015 31.4969 18.9104 31.499C18.8093 31.4996 18.7093 31.5206 18.6165 31.5606C18.5236 31.6006 18.4397 31.659 18.3699 31.7321C18.3 31.8052 18.2456 31.8916 18.2098 31.9862C18.174 32.0808 18.1577 32.1817 18.1617 32.2827C18.1584 32.3847 18.1755 32.4863 18.2121 32.5815C18.2486 32.6767 18.3039 32.7637 18.3746 32.8372C18.4454 32.9107 18.5301 32.9693 18.6238 33.0095C18.7176 33.0497 18.8184 33.0708 18.9204 33.0714C19.0216 33.0708 19.1215 33.0499 19.2144 33.0098C19.3073 32.9698 19.3912 32.9115 19.461 32.8384C19.5309 32.7652 19.5853 32.6788 19.6211 32.5842C19.6568 32.4896 19.6732 32.3888 19.6692 32.2877M17.7524 32.2877C17.7524 31.9793 17.8749 31.6834 18.093 31.4653C18.3112 31.2472 18.607 31.1247 18.9154 31.1247C19.2239 31.1247 19.5197 31.2472 19.7378 31.4653C19.9559 31.6834 20.0785 31.9793 20.0785 32.2877C20.0785 32.5962 19.9559 32.892 19.7378 33.1101C19.5197 33.3282 19.2239 33.4508 18.9154 33.4508C18.607 33.4508 18.3112 33.3282 18.093 33.1101C17.8749 32.892 17.7524 32.5962 17.7524 32.2877ZM20.5826 31.1796H22.2398V31.534H20.977V32.138H22.1001V32.4974H20.977V33.4008H20.5826V31.1796ZM23.4778 33.0764L23.7124 32.7969C23.9013 32.9798 24.1532 33.0834 24.4162 33.0864C24.4606 33.0957 24.5065 33.0957 24.5509 33.0865C24.5953 33.0773 24.6374 33.059 24.6744 33.0327C24.7114 33.0065 24.7426 32.9729 24.766 32.934C24.7895 32.8951 24.8046 32.8518 24.8105 32.8068C24.8105 32.6471 24.7207 32.5622 24.3114 32.4674C23.902 32.3726 23.5676 32.2128 23.5676 31.8035C23.5718 31.7102 23.5951 31.6188 23.6362 31.5349C23.6773 31.451 23.7353 31.3765 23.8065 31.3161C23.8777 31.2556 23.9607 31.2106 24.0501 31.1836C24.1396 31.1567 24.2336 31.1485 24.3263 31.1596C24.6205 31.1537 24.9072 31.2528 25.135 31.4391L24.9004 31.7137C24.7301 31.5723 24.5176 31.4915 24.2964 31.4841C24.2549 31.4762 24.2124 31.477 24.1712 31.4862C24.1301 31.4954 24.0912 31.513 24.0571 31.5377C24.023 31.5625 23.9943 31.594 23.9728 31.6303C23.9513 31.6665 23.9374 31.7068 23.932 31.7486C23.932 31.9183 24.0318 31.9982 24.4611 32.098C24.8904 32.1979 25.1749 32.3826 25.1749 32.7469C25.1741 32.8443 25.1529 32.9405 25.1125 33.0291C25.0722 33.1178 25.0136 33.1969 24.9406 33.2614C24.8676 33.3259 24.7819 33.3744 24.6889 33.4035C24.596 33.4327 24.498 33.442 24.4012 33.4308C24.0583 33.4328 23.7271 33.3063 23.4728 33.0764M26.9569 32.5173L26.5725 31.6288L26.1932 32.5173H26.9619H26.9569ZM26.3978 31.1596H26.7622L27.7605 33.3958H27.3263L27.1017 32.8617H26.0484L25.8188 33.3958H25.3995L26.3978 31.1596ZM27.9702 32.4574V31.1796H28.3595V32.4425C28.3469 32.5226 28.3523 32.6046 28.3751 32.6824C28.398 32.7603 28.4378 32.8321 28.4917 32.8927C28.5457 32.9533 28.6124 33.0013 28.6871 33.033C28.7617 33.0648 28.8425 33.0796 28.9236 33.0764C29.0035 33.0812 29.0835 33.0679 29.1577 33.0376C29.2318 33.0073 29.2982 32.9607 29.3518 32.9012C29.4055 32.8418 29.4452 32.7711 29.4678 32.6942C29.4904 32.6174 29.4955 32.5365 29.4827 32.4574V31.1796H29.892V32.4425C29.9089 32.5741 29.8961 32.7079 29.8545 32.834C29.8129 32.96 29.7436 33.0752 29.6517 33.1709C29.5597 33.2667 29.4475 33.3406 29.3232 33.3873C29.199 33.434 29.0658 33.4523 28.9336 33.4408C28.8017 33.4526 28.6688 33.4345 28.5449 33.3877C28.421 33.341 28.3093 33.2669 28.2181 33.1708C28.1269 33.0748 28.0585 32.9595 28.0182 32.8333C27.9779 32.7072 27.9666 32.5736 27.9852 32.4425M31.2796 33.0464C31.3809 33.0535 31.4826 33.0392 31.578 33.0044C31.6734 32.9696 31.7604 32.9151 31.8334 32.8445C31.9063 32.7739 31.9636 32.6887 32.0015 32.5945C32.0394 32.5003 32.0571 32.3992 32.0533 32.2977C32.057 32.196 32.0394 32.0947 32.0015 32.0002C31.9637 31.9058 31.9065 31.8203 31.8336 31.7493C31.7607 31.6783 31.6737 31.6234 31.5783 31.588C31.4829 31.5526 31.3812 31.5376 31.2796 31.544H30.8404V33.0414H31.2796V33.0464ZM30.451 31.1796H31.2796C31.4309 31.1693 31.5827 31.1902 31.7255 31.241C31.8684 31.2918 31.9993 31.3713 32.1102 31.4747C32.2211 31.5781 32.3096 31.7032 32.3702 31.8422C32.4309 31.9812 32.4623 32.1311 32.4626 32.2827C32.4629 32.435 32.432 32.5857 32.3717 32.7255C32.3115 32.8653 32.2232 32.9913 32.1123 33.0956C32.0014 33.1999 31.8703 33.2804 31.7271 33.332C31.5839 33.3837 31.4316 33.4054 31.2796 33.3958H30.451V31.1796ZM32.9618 31.1796H33.3511V33.4008H32.9618V31.1796ZM36.2513 32.5173L35.8819 31.6288L35.4826 32.5173H36.2513ZM35.6922 31.1596H36.0566L37.0549 33.3958H36.6206L36.381 32.8617H35.3378L35.1082 33.3958H34.7089L35.6922 31.1596ZM38.3777 32.2777C38.4326 32.287 38.4888 32.2845 38.5427 32.2704C38.5965 32.2563 38.6468 32.231 38.6902 32.1961C38.7336 32.1612 38.7691 32.1175 38.7944 32.0679C38.8197 32.0183 38.8342 31.964 38.8369 31.9083C38.8365 31.8517 38.8236 31.7959 38.7992 31.7449C38.7747 31.6938 38.7393 31.6488 38.6954 31.6131C38.6515 31.5773 38.6003 31.5517 38.5454 31.538C38.4905 31.5243 38.4332 31.523 38.3777 31.534H37.7937V32.2777H38.3777ZM37.3794 31.1796H38.3777C38.6135 31.1669 38.8448 31.2476 39.0216 31.4042C39.0847 31.4705 39.1336 31.549 39.1653 31.6348C39.1971 31.7206 39.211 31.812 39.2063 31.9034C39.2109 32.0598 39.1605 32.213 39.0638 32.3361C38.9671 32.4593 38.8303 32.5446 38.6772 32.5772L39.2762 33.4208H38.8319L38.2828 32.6471H37.7837V33.4208H37.3794V31.1796ZM41.1181 32.5173L40.7337 31.6288L40.3743 32.5173H41.143H41.1181ZM40.559 31.1596H40.9234L41.9217 33.3958H41.4874L41.2628 32.8617H40.2096L39.98 33.3958H39.5807L40.559 31.1596ZM43.3044 33.0564C43.3529 33.0689 43.4036 33.0707 43.4529 33.0616C43.5021 33.0526 43.5489 33.0328 43.5897 33.0039C43.6306 32.9749 43.6647 32.9373 43.6895 32.8938C43.7144 32.8503 43.7294 32.8019 43.7337 32.7519C43.7337 32.5672 43.5839 32.4524 43.2744 32.4524H42.6555V33.0614H43.3044V33.0564ZM43.1896 32.113C43.2371 32.1247 43.2866 32.126 43.3347 32.1168C43.3827 32.1076 43.4282 32.0881 43.4681 32.0596C43.5079 32.0312 43.5411 31.9945 43.5654 31.952C43.5897 31.9095 43.6045 31.8623 43.6089 31.8135C43.605 31.768 43.5914 31.7238 43.569 31.6839C43.5466 31.6441 43.5159 31.6095 43.479 31.5825C43.4421 31.5556 43.3999 31.5368 43.3551 31.5276C43.3103 31.5183 43.2641 31.5188 43.2195 31.529H42.6555V32.113H43.1896ZM42.2711 31.1796H43.2694C43.3748 31.1721 43.4806 31.1854 43.5808 31.2188C43.681 31.2522 43.7737 31.305 43.8535 31.3742C43.9025 31.4222 43.941 31.4798 43.9668 31.5433C43.9926 31.6069 44.005 31.6751 44.0032 31.7436C44.0059 31.8492 43.9769 31.9532 43.9199 32.0421C43.863 32.1311 43.7807 32.201 43.6837 32.2428C43.8093 32.2662 43.9226 32.3331 44.0038 32.4316C44.085 32.5302 44.129 32.6542 44.128 32.7819C44.128 33.1812 43.7986 33.3909 43.3044 33.3909H42.2711V31.1796ZM44.6122 31.1796H45.0015V33.4008H44.6122V31.1796ZM46.9133 32.5173L46.529 31.6288L46.1496 32.5173H46.9183H46.9133ZM46.3642 31.1596H46.7286L47.7269 33.3958H47.3126L47.088 32.8617H46.0048L45.7752 33.3958H45.3659L46.3642 31.1596Z" fill="white"/>
</g>
<defs>
<clipPath id="clip0_293_1903">
<rect width="49.0147" height="33" fill="white" transform="translate(0.183983 0.751953)"/>
</clipPath>
</defs>
</svg>
