<svg width="304" height="41" viewBox="0 0 304 41" fill="none" xmlns="http://www.w3.org/2000/svg">
<path d="M289.286 18.5631C289.329 18.2553 289.428 18.1013 289.583 18.1013C289.83 18.1504 290.063 18.2579 290.26 18.4149L293.067 20.4623C293.194 20.5511 293.341 20.6078 293.496 20.6277C293.543 20.6285 293.591 20.6193 293.635 20.6009C293.679 20.5824 293.719 20.555 293.752 20.5204C293.786 20.4873 293.814 20.4474 293.832 20.4033C293.851 20.3592 293.86 20.3119 293.859 20.2641C293.84 20.1132 293.771 19.9733 293.661 19.8677L291.366 17.2585C291.194 17.0731 291.075 16.8454 291.019 16.5985C291.013 16.5514 291.02 16.5035 291.039 16.4598C291.058 16.4162 291.088 16.3784 291.127 16.3503C291.254 16.2954 291.393 16.2726 291.531 16.2839L293.248 16.4494V16.3676C293.197 15.5361 292.984 14.7225 292.62 13.973C292.18 12.9975 291.673 12.054 291.101 11.1493C290.727 10.5329 290.416 10.0545 290.168 9.71385C289.92 9.37324 289.538 8.90529 289.021 8.31012C288.713 7.95799 288.482 7.68828 288.327 7.501C288.063 7.19311 287.909 7.01131 287.866 6.95556C287.579 6.63616 287.436 6.41068 287.436 6.27916C287.437 6.23447 287.448 6.19052 287.468 6.15054C287.488 6.11056 287.517 6.07567 287.552 6.04833C287.625 5.98378 287.719 5.94848 287.816 5.94923C287.937 5.96155 288.051 6.00755 288.146 6.08196L288.427 6.26374L288.873 6.57735C289.51 7.04509 290.117 7.55249 290.691 8.09649C291.43 8.74859 292.125 9.44926 292.771 10.1938C293.387 10.8906 293.961 11.6241 294.488 12.3902C294.873 12.9842 295.184 13.5069 295.42 13.9584C295.657 14.41 295.946 15.043 296.288 15.8576L296.536 16.4357L298.879 16.0885C299.011 16.0684 299.143 16.0574 299.276 16.0558C299.325 16.0486 299.376 16.0531 299.423 16.0689C299.47 16.0846 299.514 16.1111 299.549 16.1464C299.584 16.1817 299.611 16.2248 299.626 16.2722C299.642 16.3196 299.647 16.37 299.639 16.4194C299.612 16.6395 299.52 16.8464 299.375 17.0139L297.329 19.9522C297.232 20.079 297.164 20.2255 297.13 20.3814C297.13 20.4306 297.142 20.4792 297.163 20.5235C297.184 20.5679 297.216 20.6069 297.254 20.6377C297.328 20.7061 297.426 20.7442 297.527 20.7449C297.726 20.7139 297.91 20.6219 298.055 20.4814L300.762 18.1694C300.909 18.0043 301.107 17.8938 301.324 17.8558C301.385 17.8565 301.446 17.8726 301.499 17.9028C301.552 17.933 301.597 17.9764 301.629 18.0286C301.721 18.1746 301.769 18.3435 301.769 18.5159V20.6295C303.224 21.3223 303.951 21.9387 303.951 22.4787C303.925 22.6699 303.858 22.8531 303.754 23.0156C303.65 23.1781 303.511 23.3159 303.349 23.4195C302.875 23.7885 302.341 24.0733 301.771 24.2614V26.1596C301.771 26.3933 301.729 26.6252 301.648 26.8442C301.617 26.9015 301.57 26.9484 301.513 26.9793C301.456 27.0102 301.391 27.0236 301.326 27.0178C301.077 26.9792 300.846 26.8635 300.666 26.6869L298.222 24.5741C298.028 24.3697 297.783 24.2214 297.512 24.145C297.462 24.1455 297.412 24.1568 297.367 24.178C297.322 24.1991 297.281 24.2297 297.249 24.2677C297.174 24.3453 297.132 24.4491 297.133 24.5568C297.164 24.7839 297.262 24.9966 297.414 25.1677L299.527 28.0406C299.642 28.1895 299.716 28.3659 299.741 28.5524C299.741 28.806 299.604 28.9325 299.329 28.9325C299.284 28.9325 299.213 28.927 299.113 28.916L296.67 28.4543C296.328 29.4882 295.868 30.4796 295.3 31.4089C294.231 33.17 292.938 34.7849 291.453 36.2135C290.747 36.8905 290.006 37.5296 289.232 38.1281C288.859 38.4792 288.409 38.7393 287.919 38.8881C287.879 38.887 287.839 38.8777 287.802 38.8607C287.765 38.8436 287.732 38.8192 287.705 38.789C287.676 38.7642 287.652 38.7339 287.635 38.6999C287.618 38.6658 287.608 38.6287 287.606 38.5908C287.629 38.4201 287.711 38.2628 287.837 38.1453L288.432 37.4845L289.109 36.7081C289.744 35.9893 290.328 35.2281 290.859 34.4299C291.402 33.6396 291.888 32.812 292.314 31.9534C292.923 30.8709 293.3 29.6732 293.42 28.437L291.753 28.6515C291.633 28.6705 291.511 28.6815 291.389 28.6842C291.147 28.6842 291.026 28.5739 291.026 28.3533C291.038 28.1975 291.095 28.0486 291.19 27.9243L293.518 25.316C293.708 25.139 293.841 24.909 293.898 24.6559C293.898 24.4238 293.777 24.3081 293.535 24.3087C293.329 24.3176 293.13 24.3802 292.957 24.4905L290.134 26.6723C289.988 26.8023 289.812 26.8931 289.622 26.936C289.435 26.936 289.325 26.7048 289.292 26.2423V24.295C288.703 24.0626 288.15 23.7486 287.649 23.3623C287.496 23.2562 287.369 23.1175 287.276 22.9562C287.183 22.7949 287.128 22.615 287.113 22.4295C287.135 22.2502 287.203 22.0798 287.311 21.935C287.432 21.7374 287.589 21.5639 287.774 21.4232C288.227 21.0633 288.741 20.7891 289.293 20.6141V18.5658L289.286 18.5631ZM291.217 21.2905H292.687L292.736 21.2077L290.16 19.3095V21.225C289.635 21.3365 289.129 21.5226 288.657 21.7777C288.206 22.0249 287.98 22.2478 287.981 22.446C287.981 22.6114 288.185 22.8068 288.592 23.0322C289.089 23.2931 289.616 23.4952 290.16 23.6342V25.5496L292.802 23.6014L292.719 23.5351H291.217V22.8414C290.815 22.8114 290.427 22.6745 290.095 22.445C290.422 22.1973 290.81 22.0433 291.217 21.9995V21.2895V21.2905ZM294.338 25.5997L292.274 27.7297L292.373 27.8115L294.555 27.4151L294.506 27.6624L294.423 28.0915C294.202 29.0396 293.886 29.9632 293.482 30.8488C293.449 30.9258 293.394 31.047 293.317 31.2125L293.333 32.9298C293.587 32.653 293.816 32.3545 294.017 32.0379C294.311 31.5971 294.579 31.1394 294.818 30.667C295.36 29.6522 295.781 28.5772 296.073 27.4642L298.417 27.9751L296.683 25.4496L296.65 25.4824V26.555H295.841L295.198 27.6779H295.115V26.555H294.339L294.338 25.5997ZM295.146 18.3186V17.1794H295.228L295.872 18.3186H296.681V19.4094H296.797L298.448 16.864L296.084 17.4094L296.051 17.244C295.782 16.2357 295.403 15.2601 294.92 14.3349C294.509 13.4659 293.985 12.6555 293.36 11.9248L293.377 13.7248C293.924 14.9258 294.339 16.1825 294.615 17.473L292.419 17.0767L292.32 17.1431L294.367 19.3249V18.3177H295.144L295.146 18.3186ZM293.691 22.3796C293.689 22.6093 293.734 22.8369 293.824 23.0484C293.913 23.26 294.045 23.4509 294.211 23.6095C294.372 23.7766 294.566 23.909 294.781 23.9984C294.995 24.0878 295.225 24.1324 295.457 24.1296C295.69 24.1325 295.92 24.0879 296.135 23.9985C296.349 23.9091 296.543 23.7767 296.704 23.6095C296.871 23.4484 297.004 23.2546 297.093 23.0402C297.182 22.8259 297.227 22.5954 297.224 22.3632C297.227 22.1309 297.182 21.9005 297.093 21.6861C297.004 21.4717 296.871 21.278 296.704 21.1168C296.543 20.9497 296.349 20.8173 296.135 20.7278C295.92 20.6384 295.69 20.5938 295.457 20.5968C295.224 20.5921 294.992 20.636 294.776 20.7255C294.56 20.815 294.365 20.9482 294.203 21.1168C294.038 21.2815 293.907 21.478 293.819 21.6943C293.732 21.9107 293.689 22.1425 293.693 22.3759L293.691 22.3796ZM299.832 23.6023H298.264V23.6514L300.889 25.5669V23.6514C301.432 23.5253 301.956 23.3286 302.449 23.066C302.873 22.829 303.085 22.6117 303.085 22.4141C303.085 22.1062 302.353 21.7101 300.89 21.2259V19.2776L298.264 21.2923V21.3586H299.832V22.0513C300.219 22.0842 300.59 22.2212 300.906 22.4477C300.579 22.6519 300.213 22.7868 299.832 22.8441V23.6041V23.6023Z" fill="#00614D"/>
<path d="M14.708 20.2314C15.2594 20.4064 15.7742 20.6806 16.2271 21.0405C16.4114 21.1813 16.5682 21.3548 16.6899 21.5523C16.798 21.6973 16.8664 21.8682 16.888 22.0478C16.8733 22.2333 16.8175 22.4132 16.7248 22.5745C16.632 22.7358 16.5046 22.8745 16.3517 22.9806C15.8505 23.3669 15.2975 23.6809 14.7089 23.9133V25.8606C14.6762 26.323 14.5662 26.5543 14.3789 26.5543C14.1886 26.5114 14.0125 26.4206 13.8671 26.2906L11.0434 24.1087C10.87 23.9983 10.6706 23.9356 10.4652 23.927C10.2227 23.927 10.1015 24.0427 10.1015 24.2742C10.1594 24.5272 10.2918 24.7571 10.4815 24.9342L12.8098 27.5424C12.9045 27.6668 12.9616 27.8158 12.9743 27.9716C12.9743 28.1928 12.8531 28.3031 12.6107 28.3025C12.4889 28.2997 12.3674 28.2887 12.247 28.2698L10.5797 28.0552C10.7004 29.2915 11.0772 30.489 11.6861 31.5716C12.1123 32.4302 12.5983 33.2577 13.1407 34.048C13.6718 34.8462 14.2565 35.6073 14.8907 36.3262L15.568 37.1017L16.1626 37.7627C16.2889 37.8804 16.3708 38.038 16.3944 38.2091C16.3919 38.247 16.3819 38.2841 16.3649 38.3181C16.3478 38.3522 16.3242 38.3825 16.2953 38.4073C16.2682 38.4375 16.2352 38.4619 16.1983 38.479C16.1614 38.496 16.1214 38.5053 16.0808 38.5064C15.5905 38.3575 15.1412 38.0973 14.768 37.7463C13.9944 37.1477 13.2531 36.5087 12.547 35.8317C11.0628 34.403 9.76985 32.788 8.70059 31.0271C8.13216 30.0978 7.67218 29.1065 7.32965 28.0724L4.88596 28.5343C4.78687 28.5452 4.71505 28.5506 4.67141 28.5506C4.39626 28.5506 4.25868 28.424 4.25868 28.1707C4.28423 27.9842 4.3582 27.8078 4.47323 27.6588L6.58691 24.786C6.73927 24.6149 6.83709 24.4022 6.86783 24.1751C6.86884 24.0673 6.82736 23.9634 6.75237 23.886C6.7195 23.848 6.67891 23.8174 6.6333 23.7962C6.58769 23.7751 6.5381 23.7638 6.48782 23.7633C6.21683 23.8398 5.97152 23.9881 5.7778 24.1924L3.33411 26.3052C3.15403 26.4816 2.92324 26.5974 2.6741 26.6361C2.60934 26.6419 2.54432 26.6285 2.48711 26.5976C2.42989 26.5667 2.38301 26.5197 2.35227 26.4624C2.27086 26.243 2.229 26.0109 2.22863 25.7769V23.8788C1.65849 23.6907 1.12495 23.4059 0.651326 23.0369C0.488453 22.9334 0.350137 22.7955 0.246034 22.633C0.14193 22.4705 0.0745455 22.2872 0.048584 22.096C0.048584 21.5566 0.775873 20.9401 2.23045 20.2468V18.1332C2.23046 17.9608 2.27898 17.7919 2.37045 17.6459C2.40266 17.5936 2.44756 17.5504 2.50097 17.5202C2.55438 17.49 2.61456 17.4739 2.67592 17.4732C2.8933 17.5111 3.09138 17.6217 3.23775 17.7868L5.94508 20.0977C6.08948 20.2384 6.27409 20.3306 6.47327 20.3614C6.57434 20.3607 6.67155 20.3225 6.746 20.2541C6.78449 20.2234 6.81557 20.1844 6.83697 20.14C6.85837 20.0957 6.86954 20.047 6.86965 19.9978C6.83608 19.8418 6.76839 19.6953 6.67146 19.5686L4.62505 16.6304C4.47978 16.4629 4.38768 16.2559 4.3605 16.0358C4.35333 15.9864 4.3578 15.9361 4.37354 15.8887C4.38928 15.8413 4.41586 15.7981 4.45117 15.7628C4.48648 15.7275 4.52954 15.701 4.57693 15.6853C4.62432 15.6695 4.67473 15.665 4.72414 15.6722C4.85687 15.6738 4.98931 15.6848 5.12051 15.7049L7.46511 16.0522L7.71239 15.474C8.05361 14.6594 8.34271 14.0264 8.57968 13.5748C8.81666 13.1233 9.12757 12.6009 9.51243 12.0075C10.0397 11.2415 10.6132 10.5084 11.2297 9.8121C11.8756 9.06744 12.5705 8.36677 13.3098 7.71477C13.8834 7.17078 14.4907 6.66339 15.128 6.19563L15.5735 5.88201L15.8544 5.70012C15.9497 5.62572 16.0641 5.57972 16.1844 5.5674C16.2818 5.56656 16.3761 5.60187 16.4489 5.6665C16.4844 5.69374 16.5132 5.72871 16.5332 5.76871C16.5532 5.80871 16.5639 5.85272 16.5644 5.89744C16.5644 6.02956 16.4214 6.25532 16.1353 6.57472C16.0911 6.62987 15.9368 6.81167 15.6726 7.12017C15.518 7.30744 15.2868 7.57716 14.9789 7.92929C14.4613 8.52324 14.0789 8.99119 13.8316 9.33302C13.5843 9.67484 13.2734 10.1533 12.8989 10.7685C12.3272 11.6731 11.8196 12.6166 11.3797 13.5921C11.0161 14.3417 10.803 15.1552 10.7525 15.9868V16.0686L12.4698 15.9031C12.608 15.8919 12.7469 15.9147 12.8743 15.9695C12.9127 15.9976 12.9428 16.0354 12.9617 16.079C12.9805 16.1226 12.9874 16.1705 12.9816 16.2177C12.9265 16.4645 12.807 16.6922 12.6352 16.8777L10.3406 19.4868C10.2313 19.5925 10.1614 19.7324 10.1424 19.8832C10.1419 19.9309 10.1512 19.9781 10.1697 20.0221C10.1881 20.066 10.2153 20.1057 10.2497 20.1387C10.2826 20.1732 10.3223 20.2005 10.3663 20.2189C10.4102 20.2374 10.4575 20.2466 10.5052 20.2459C10.6593 20.2263 10.8065 20.1699 10.9343 20.0814L13.7416 18.034C13.9391 17.8771 14.1714 17.7699 14.4189 17.7213C14.5735 17.7213 14.6725 17.8753 14.7162 18.1832V20.2305L14.708 20.2314ZM4.16231 22.4596C3.78108 22.4023 3.41566 22.2674 3.08865 22.0632C3.40418 21.8366 3.7752 21.6996 4.16231 21.6668V20.9741H5.73053V20.9078L3.10592 18.8932V20.8414C1.64226 21.3263 0.910422 21.7226 0.910422 22.0305C0.910422 22.2287 1.12255 22.446 1.5468 22.6824C2.03889 22.9453 2.56339 23.1425 3.10683 23.2688V25.1842L5.73144 23.2688V23.2196H4.15868V22.4596H4.16231ZM9.62698 17.9358V18.9423L11.6743 16.7604L11.5752 16.694L9.3797 17.0904C9.65547 15.7998 10.0706 14.543 10.6179 13.3421L10.6343 11.543C10.0096 12.2735 9.48496 13.084 9.07424 13.953C8.59159 14.8783 8.21233 15.854 7.94331 16.8623L7.91058 17.0277L5.54689 16.4822L7.19783 19.0277H7.31329V17.9368H8.1224L8.76605 16.7977H8.84878V17.9368H9.62516L9.62698 17.9358ZM9.65971 26.1742H8.88423V27.2969H8.80151L8.15786 26.1742H7.34875V25.1015L7.31511 25.0688L5.58143 27.5943L7.92603 27.0833C8.21764 28.1963 8.6387 29.2713 9.1806 30.2862C9.4203 30.7586 9.68774 31.2163 9.98153 31.6571C10.1833 31.9737 10.4124 32.2722 10.6661 32.549L10.6834 30.8307C10.6058 30.6659 10.5506 30.5447 10.5179 30.4671C10.1133 29.5816 9.79809 28.6579 9.57698 27.7098L9.49516 27.2806L9.44516 27.0325L11.627 27.4288L11.7261 27.347L9.66243 25.2169L9.65971 26.1742ZM9.79153 20.7341C9.62957 20.5656 9.43452 20.4324 9.21861 20.3429C9.00271 20.2534 8.77063 20.2096 8.53695 20.2142C8.30472 20.2113 8.07434 20.2558 7.86 20.3452C7.64565 20.4347 7.45187 20.567 7.29056 20.7341C7.12342 20.8954 6.99106 21.0891 6.90163 21.3035C6.8122 21.5178 6.76759 21.7483 6.77055 21.9806C6.76748 22.2128 6.81204 22.4431 6.90148 22.6575C6.99092 22.8719 7.12334 23.0657 7.29056 23.2269C7.45184 23.3941 7.64561 23.5265 7.85997 23.6159C8.07432 23.7053 8.30471 23.7499 8.53695 23.747C8.76933 23.7499 8.99986 23.7053 9.21437 23.6159C9.42887 23.5265 9.62281 23.3941 9.78425 23.2269C9.95039 23.0681 10.0822 22.877 10.1717 22.6653C10.2611 22.4536 10.3062 22.2258 10.3043 21.996C10.3075 21.7624 10.2635 21.5305 10.1749 21.3143C10.0863 21.0981 9.95499 20.902 9.7888 20.7377L9.79153 20.7341ZM12.7798 21.6178C13.1875 21.6616 13.5757 21.8156 13.9025 22.0632C13.5702 22.2928 13.1826 22.4296 12.7798 22.4596V23.1532H11.2743L11.1916 23.2196L13.8334 25.1679V23.2523C14.3778 23.1133 14.904 22.9113 15.4017 22.6505C15.8089 22.4241 16.0126 22.2296 16.0126 22.0641C16.0126 21.8659 15.7868 21.6432 15.3353 21.3959C14.8634 21.1407 14.3573 20.9545 13.8325 20.8432V18.9277L11.257 20.826L11.307 20.9086H12.7761V21.6187L12.7798 21.6178Z" fill="#00614D"/>
<path d="M105.808 9.92753C105.514 10.9539 104.852 9.70759 104.299 9.85395C103.47 10.3665 102.836 11.1401 102.495 12.053C102.452 12.1356 102.436 12.2296 102.449 12.3217C102.462 12.4139 102.504 12.4996 102.568 12.5668C102.628 12.5857 102.693 12.5853 102.753 12.5655C102.812 12.5458 102.864 12.5077 102.901 12.4567C102.973 12.1892 103.113 11.9446 103.306 11.746C103.499 11.5473 103.74 11.4011 104.005 11.3212C104.684 11.7743 105.447 12.0857 106.249 12.2367C107.117 12.1597 107.959 11.897 108.717 11.4667L109.269 11.1366C109.741 10.8196 110.115 10.3775 110.349 9.85973C110.583 9.34196 110.668 8.76911 110.595 8.20564C110.463 7.90912 110.259 7.65014 110.002 7.45167C109.745 7.2532 109.442 7.12145 109.122 7.06836C107.613 7.28836 106.729 8.82842 105.808 9.92753ZM109.638 9.26845C109.676 9.37754 109.784 9.5239 109.676 9.67118C108.814 10.2961 107.793 10.6648 106.73 10.7349C106.508 10.6967 106.25 10.7348 106.142 10.553C106.839 9.81934 107.467 8.75665 108.459 8.50028C108.703 8.52444 108.937 8.60668 109.142 8.7402C109.347 8.87373 109.517 9.05553 109.638 9.26845Z" fill="#00614D"/>
<path d="M104.594 14.2148C104.521 14.8012 104.116 15.2785 104.19 15.9367C104.336 17.7704 104.925 19.455 105.073 21.2886C105.477 22.8996 105.625 24.5869 105.956 26.1979C106.177 27.9934 106.03 29.9361 106.397 31.6953L106.508 31.8052C106.825 31.3558 107.074 30.8616 107.245 30.3389C107.435 27.0088 107.174 23.6682 106.471 20.4077C106.102 19.0513 106.065 17.5495 105.624 16.1931C105.542 15.2768 105.382 14.3692 105.145 13.4803C104.741 13.4458 104.741 13.9212 104.594 14.2148Z" fill="#00614D"/>
<path d="M93.3656 7.76359C93.4003 7.80698 93.4461 7.84021 93.4981 7.85958C93.5502 7.87896 93.6065 7.88373 93.6611 7.87356C93.969 7.49962 94.3573 7.20002 94.7971 6.99697C95.2369 6.79392 95.7168 6.69273 96.2011 6.70089C96.7916 6.71624 97.3707 6.86677 97.8939 7.1409C96.8791 7.74569 95.9812 8.52775 95.2429 9.44997C95.2742 9.50155 95.3173 9.54498 95.3687 9.57659C95.4201 9.60821 95.4782 9.62718 95.5384 9.63186C96.3111 9.26822 97.0839 8.75271 97.8939 8.45907C98.4466 8.16543 98.9994 7.68994 99.5512 7.32357C99.733 6.99356 100.029 6.58995 99.8085 6.22358C98.5203 5.71084 97.1948 5.08719 95.6857 5.38083C94.6538 5.71175 93.4402 6.55538 93.3656 7.76359Z" fill="#00614D"/>
<path d="M92.1512 17.7705C92.3881 17.5641 92.5656 17.2982 92.6658 17.0005C92.8476 16.415 92.1512 16.0114 91.7467 15.6814C92.0793 14.8826 92.1935 14.0098 92.0776 13.1523C91.8203 12.6068 91.5985 11.7231 90.7885 11.7604C90.0031 12.0582 89.2978 12.5347 88.7284 13.1523C88.433 13.7387 87.9184 14.3622 88.1393 15.0213C88.503 15.9368 89.503 16.1941 90.1639 16.7068C88.5812 17.9532 86.8511 18.9797 85.2684 20.3724C85.1956 20.4097 85.1956 20.5543 85.2684 20.6288C85.9302 20.7752 86.2993 20.0051 86.962 20.0424C88.2875 19.0887 89.833 18.6851 90.9376 17.2932C91.0849 17.1114 91.2694 17.1832 91.454 17.2932C91.7467 17.3669 91.8158 17.7705 92.1512 17.7705ZM89.1321 14.1777L89.2066 13.9959C89.6485 13.7023 90.0157 13.1895 90.5703 13.2267C90.871 13.4835 91.0978 13.8159 91.2272 14.1896C91.3567 14.5632 91.3841 14.9645 91.3067 15.3523L91.233 15.4259C90.4494 15.1695 89.732 14.7433 89.1321 14.1777Z" fill="#00614D"/>
<path d="M73.4879 16.7442L74.887 15.6805C75.1079 15.3168 75.4388 14.8749 75.1434 14.4704C73.6343 14.2513 72.1251 13.4804 70.5069 13.9586C69.6233 14.5449 68.6296 15.315 68.5187 16.4132C68.536 16.4465 68.5621 16.4743 68.5942 16.4937C68.6263 16.5131 68.663 16.5233 68.7005 16.5232L70.1742 15.3868C70.7251 15.0232 71.4997 15.2777 72.0888 15.314C72.5179 15.3286 72.936 15.4539 73.3024 15.6777C72.3048 16.4423 71.2027 17.0599 70.0296 17.5114C69.8833 17.5478 69.666 17.6205 69.666 17.8032C69.9596 18.2796 70.5487 17.8768 70.9533 17.8032C71.9424 17.9159 72.6779 17.1833 73.4879 16.7442Z" fill="#00614D"/>
<path d="M42.3935 19.1822C42.4299 19.7277 41.7672 20.0623 41.9517 20.6486C42.4846 21.1173 43.0953 21.4893 43.7563 21.7477C44.0872 21.9296 44.2708 21.5277 44.5272 21.4186L45.1536 20.5386C45.3 20.1349 44.8963 19.8786 44.6754 19.5849C44.1571 19.1518 43.5885 18.7827 42.9817 18.4858C42.7471 18.6825 42.5482 18.918 42.3935 19.1822Z" fill="#00614D"/>
<path d="M35.9577 36.2434C35.7359 36.5353 35.6259 36.9389 35.3323 37.1226C34.7059 36.7926 34.0804 36.3534 33.4549 36.0589C33.0495 35.9125 32.9031 36.4625 32.6813 36.6816C32.7186 37.2316 31.9449 37.5617 32.2758 38.1481L34.0804 39.2844H34.4122C35.0368 38.8817 35.2213 38.2208 35.6259 37.6726C35.9715 37.8325 36.284 38.0561 36.5468 38.3317C36.9105 38.4417 37.3205 38.9908 37.6878 38.4417C37.9823 38.0381 38.4978 37.708 38.5705 37.1953C38.1556 36.4506 37.562 35.8208 36.8432 35.3625L36.6232 35.3262C36.2898 35.5329 36.0508 35.8623 35.9577 36.2434Z" fill="#00614D"/>
<path d="M27.3328 22.0043C26.867 21.1666 26.2105 20.4502 25.4164 19.9133H25.1964C24.6436 20.3524 24.7555 21.087 24.2391 21.5624C23.9445 22.2579 24.8282 22.5516 25.1964 22.9916C25.6382 23.1016 25.9691 23.7607 26.4482 23.5053C26.78 23.0298 27.2946 22.628 27.3328 22.0043Z" fill="#00614D"/>
<path d="M278.479 34.5754C277.559 34.8827 276.707 35.3254 275.786 35.5982C274.71 35.957 273.576 36.1076 272.444 36.0418C271.898 36.1446 271.046 35.5982 270.807 36.4173C270.706 36.5527 270.842 36.7228 270.978 36.7919C273.129 36.9684 275.292 36.8881 277.424 36.5528C278.176 36.4137 278.909 36.1845 279.606 35.87C280.561 35.53 281.209 34.609 282.028 33.9263L282.982 32.46C283.835 30.4827 284.585 27.789 283.494 25.6744C283.05 24.6516 282.163 23.2534 280.868 23.2197C280.535 23.3471 280.231 23.5393 279.974 23.7851C279.716 24.0309 279.51 24.3255 279.368 24.6516C278.892 25.7112 278.67 26.8668 278.719 28.0271C278.874 28.4669 279.146 28.8556 279.507 29.1506C279.868 29.4455 280.303 29.6354 280.765 29.699C281.216 29.6358 281.644 29.4584 282.008 29.1839C282.372 28.9093 282.66 28.5466 282.845 28.1298C283.085 28.3335 283.085 28.7435 283.255 28.9817C283.322 29.4935 282.982 29.8345 282.845 30.2781C281.758 32.0422 280.26 33.5167 278.479 34.5754ZM280.082 27.0398C279.878 26.7998 279.57 26.5962 279.708 26.2899C279.925 25.9119 280.279 25.6312 280.697 25.5053C281.028 25.6033 281.336 25.769 281.6 25.992C281.864 26.215 282.079 26.4903 282.231 26.8007C282.129 27.0407 281.822 27.1425 281.617 27.2789C281.364 27.3851 281.086 27.4189 280.815 27.3765C280.544 27.3342 280.291 27.2182 280.082 27.0398Z" fill="#00614D"/>
<path d="M268.829 10.2265C268.693 10.5674 269 10.7719 269.238 10.9756C269.443 11.181 269.75 11.2483 269.921 11.4538C269.375 11.6583 269.341 12.272 269.203 12.7493C269.221 12.7891 269.25 12.823 269.287 12.8471C269.323 12.8712 269.365 12.8846 269.409 12.8857C269.959 12.6044 270.529 12.3649 271.114 12.1692L271.216 12.2384C271.15 12.712 271.047 13.1797 270.909 13.6374L271.216 15.2739C271.796 17.0803 272.034 19.0248 272.444 20.9003C273.092 23.7986 273.535 26.7659 274.046 29.7314C274.115 29.8014 274.046 30.0042 274.184 29.9715C274.359 29.5796 274.485 29.1673 274.558 28.7442C274.694 27.9596 274.558 27.0396 274.626 26.2541C274.184 22.9459 273.466 19.7403 272.854 16.5012C272.581 14.9666 272.035 13.5339 271.83 12.0002C272.367 11.6905 272.957 11.4825 273.569 11.3865C273.747 11.2792 273.896 11.1299 274.004 10.9516C274.111 10.7733 274.173 10.5715 274.184 10.3638C274.115 10.262 274.046 10.1592 273.944 10.1592C273.143 10.3717 272.316 10.4636 271.489 10.4319C270.909 10.1592 270.091 10.2275 269.716 9.6138C270.091 9.16925 270.501 8.62371 271.08 8.5228C271.592 8.3528 271.694 9.13739 272.171 9.13739C272.438 8.9322 272.63 8.64454 272.716 8.31916C272.818 7.7737 272.137 7.50098 271.796 7.29553C271.284 7.12552 270.909 7.46641 270.501 7.67096C269.738 8.36925 269.163 9.24803 268.829 10.2265Z" fill="#00614D"/>
<path d="M261.564 14.5239C260.371 15.3075 259.143 15.9903 257.916 16.7058C257.814 16.8076 257.916 16.9784 258.018 17.0121C258.307 17.05 258.599 16.9769 258.836 16.8075C259.962 16.773 260.779 15.9894 261.768 15.5803L263.099 14.5566C263.303 14.2148 263.611 13.7384 263.303 13.3975C262.041 13.1929 260.779 12.443 259.449 12.9876C258.564 13.3285 257.506 14.1129 257.438 15.1366C257.45 15.18 257.477 15.2178 257.514 15.2428C257.552 15.2678 257.597 15.2785 257.642 15.273C258.106 14.7862 258.696 14.4388 259.347 14.27C259.998 14.1012 260.683 14.1176 261.325 14.3175C261.394 14.3866 261.598 14.353 261.564 14.5239Z" fill="#00614D"/>
<path d="M233.266 13.5194C233.485 13.997 233.826 14.4086 234.255 14.713C234.493 14.9185 234.834 14.8839 235.038 15.1221C233.776 16.1794 232.481 17.2367 231.185 18.3276L231.117 18.4631C231.561 18.9413 231.97 18.2249 232.481 18.2586C233.606 17.3376 235.005 16.9285 235.857 15.5649C236.336 15.3949 236.676 16.1103 237.051 16.3157C237.19 16.1838 237.301 16.0251 237.377 15.8492C237.453 15.6733 237.493 15.4837 237.494 15.2921C237.358 14.8148 236.879 14.5084 236.538 14.1329C236.743 13.042 236.879 11.6429 236.096 10.7901C235.823 10.551 235.311 10.6538 235.005 10.7556C234.524 11.0541 234.118 11.458 233.816 11.9368C233.515 12.4157 233.327 12.9569 233.266 13.5194ZM235.788 12.3266C235.953 12.8093 236.034 13.3166 236.028 13.8267L235.958 13.8948C235.345 13.6221 234.595 13.5548 234.185 12.872C234.3 12.6567 234.46 12.4689 234.654 12.3218C234.849 12.1747 235.073 12.0717 235.311 12.0202C235.516 11.9838 235.686 12.1893 235.788 12.3266Z" fill="#00614D"/>
<path d="M236.195 22.7751C236.331 22.2297 236.775 21.8542 236.775 21.2742C236.525 20.9309 236.198 20.6507 235.82 20.456C235.343 20.286 235.002 19.8759 234.559 19.6714C234.218 19.7387 234.252 20.1151 234.081 20.286C234.013 20.8314 233.502 21.206 233.639 21.786C234.184 22.5706 235.139 22.4341 235.82 22.9114C235.956 23.0487 236.128 22.8779 236.195 22.7751Z" fill="#00614D"/>
<path d="M222.638 14.7922C222.037 15.6205 221.64 16.5785 221.477 17.5886C221.512 17.6914 221.615 17.7941 221.717 17.725C222.194 17.2823 222.126 16.4968 222.739 16.2241C223.297 16.4367 223.883 16.5633 224.478 16.5995C226.048 16.8722 227.343 16.1895 228.674 15.7477C229.459 15.2695 230.89 14.8267 230.686 13.5985C230.653 13.4621 230.516 13.2922 230.379 13.3258C229.646 14.0089 228.756 14.5009 227.788 14.7585C226.451 15.2299 225.008 15.3128 223.627 14.9977C223.253 14.9959 222.979 14.4176 222.638 14.7922Z" fill="#00614D"/>
<path d="M220.613 30.8915C220.784 30.176 221.262 29.4933 220.989 28.7096C221.193 25.4695 220.375 22.5023 219.965 19.4367C219.749 18.8094 219.623 18.1547 219.59 17.4921C219.193 16.1444 218.919 14.7636 218.772 13.3666C218.754 13.3045 218.72 13.2487 218.671 13.2062C218.623 13.1637 218.563 13.1363 218.499 13.1274C218.251 13.3889 218.095 13.7241 218.055 14.0821C217.408 15.2075 218.055 16.5367 218.123 17.7313C218.54 19.0544 218.836 20.4124 219.01 21.7886C219.351 24.2787 219.999 26.6314 220.034 29.2569C220.041 29.8618 220.218 30.4524 220.544 30.9615L220.613 30.8915Z" fill="#00614D"/>
<path d="M215.376 10.3295C215.717 10.4649 215.376 10.8404 215.446 11.1132C215.437 11.2204 215.457 11.328 215.505 11.4242C215.553 11.5205 215.627 11.6015 215.718 11.6586C216.707 12.3405 217.833 11.625 218.686 11.0796C218.994 10.7936 219.225 10.4337 219.356 10.0338C219.488 9.63398 219.515 9.20731 219.436 8.79401C219.235 8.25264 218.886 7.77932 218.427 7.42923C217.968 7.07915 217.419 6.86666 216.844 6.81665C216.063 7.57771 215.548 8.57061 215.376 9.64763C215.339 9.85218 215.237 10.1595 215.376 10.3295ZM217.901 8.72676C218.244 8.96793 218.515 9.29745 218.686 9.68037C218.583 9.98765 218.207 10.0558 217.969 10.2258C217.701 10.379 217.4 10.4652 217.091 10.4771C216.783 10.4889 216.476 10.4262 216.196 10.2941C215.616 9.64678 216.298 8.96406 216.57 8.38496C217.045 8.07768 217.487 8.55585 217.896 8.72676H217.901Z" fill="#00614D"/>
<path d="M219.432 30.7899L219.363 30.7554C219.295 30.7554 219.295 30.8572 219.295 30.8572C219.363 30.9254 219.363 30.8236 219.432 30.7899Z" fill="#00614D"/>
<path d="M213.223 36.9809C213.916 36.7081 214.644 36.6 215.338 36.2882C215.552 36.1638 215.726 35.9793 215.836 35.7574C215.947 35.5356 215.99 35.2861 215.96 35.0399C215.937 34.9937 215.902 34.954 215.86 34.9239C215.818 34.8938 215.769 34.8744 215.718 34.8672C215.249 35.1282 214.747 35.3262 214.227 35.4563C212.529 35.9763 211.005 36.8427 209.237 37.2227C208.925 37.3609 208.856 37.7427 208.683 37.9854C208.683 38.2282 208.44 38.4709 208.683 38.6791C208.749 38.7055 208.822 38.7097 208.891 38.6908C208.96 38.6719 209.02 38.6311 209.064 38.5745C210.484 38.1591 211.836 37.4654 213.223 36.9809Z" fill="#00614D"/>
<path d="M215.476 33.4188C215.581 33.2461 215.684 32.9344 215.441 32.7953C214.259 32.7598 213.119 33.6616 212.009 32.9334C211.698 32.6907 211.212 32.5516 211.009 32.1716C211.356 31.8989 211.633 31.3734 212.118 31.3043C212.673 31.1998 213.019 31.7888 213.261 32.1361C213.716 32.1361 213.85 31.6161 213.988 31.3388C214.126 31.0616 213.954 30.8179 213.78 30.6115C213.643 30.4308 213.472 30.2794 213.275 30.1662C213.079 30.0529 212.862 29.9802 212.637 29.9524C212.637 29.537 212.909 29.1207 212.948 28.6707C213.118 27.1338 213.059 25.5803 212.775 24.0605C212.57 22.0695 212.257 20.0911 211.838 18.134C211.634 17.6261 211.517 17.0873 211.492 16.5404C211.273 15.7908 211.111 15.0258 211.007 14.2521C210.869 13.6975 210.972 13.0702 210.834 12.5193C210.819 12.4481 210.78 12.3845 210.722 12.3398C210.665 12.2952 210.594 12.2725 210.521 12.2757C210.341 12.547 210.223 12.8546 210.175 13.1766C209.794 14.3951 209.794 15.7009 210.175 16.9195C211.168 21.2111 211.874 25.5642 212.289 29.9498C211.29 30.6421 210.509 31.6039 210.035 32.7234C209.863 33.3816 210.659 33.6589 211.076 33.9698C210.971 34.2426 210.59 34.2126 210.382 34.4244C210.244 34.7717 209.966 35.0481 209.966 35.4653C209.976 35.5045 209.998 35.5393 210.029 35.5644C210.061 35.5896 210.1 35.6037 210.14 35.6044C211.665 34.8993 213.271 34.3869 214.923 34.0789C215.233 33.9735 215.337 33.6616 215.476 33.4188Z" fill="#00614D"/>
<path d="M204.179 24.167L204.212 24.2016V24.167H204.179Z" fill="#00614D"/>
<path d="M202.132 15.744L202.757 15.2602C203.484 14.4629 202.862 13.3512 202.757 12.453C202.687 12.2794 202.583 12.072 202.375 12.072C202.16 12.3994 202.006 12.7633 201.921 13.1457L202.232 14.3584C202.163 14.463 202.06 14.4966 201.99 14.5666C201.609 14.7048 201.02 14.913 200.673 14.6012L200.501 13.1121C200.466 13.0075 200.327 12.8394 200.153 12.8694C199.94 13.1855 199.786 13.5375 199.699 13.9084C199.664 14.3239 199.908 14.6012 199.872 15.0175C199.732 15.2603 199.417 15.2602 199.213 15.3639C199.019 15.4287 198.809 15.4337 198.611 15.3781C198.413 15.3225 198.237 15.209 198.104 15.0522C197.896 14.5976 198.208 14.2203 198.208 13.7703C198.173 13.7357 198.104 13.6321 198.001 13.6666C197.773 13.8804 197.592 14.138 197.467 14.4239C197.342 14.7099 197.276 15.0182 197.273 15.3303C197.447 15.8148 197.378 16.4049 197.966 16.6822C198.728 17.0976 199.595 16.5776 200.254 16.1612C200.911 16.2727 201.585 16.123 202.132 15.744Z" fill="#00614D"/>
<path d="M200.886 21.9487C201.094 22.0523 201.34 22.1905 201.509 21.9487C201.683 21.3942 202.306 21.0478 202.271 20.3896C201.726 19.8113 201.095 19.3207 200.4 18.9351H200.157C199.718 19.5303 199.39 20.1993 199.187 20.9105C199.689 21.3522 200.264 21.7035 200.886 21.9487Z" fill="#00614D"/>
<path d="M190.309 9.08949C189.819 9.16495 189.555 8.37673 189.028 8.52674C188.479 8.84853 188.004 9.28219 187.634 9.79952C187.37 10.3632 186.766 10.9269 187.143 11.6014C187.333 11.6769 187.445 11.4896 187.559 11.4141C187.559 10.8141 188.124 10.4386 188.538 10.1014C188.84 9.91318 189.065 10.3259 189.33 10.4768C190.434 10.8722 191.647 10.8319 192.723 10.364C193.291 10.1199 193.804 9.76228 194.229 9.31311C194.795 8.56218 195.436 7.62495 194.871 6.64948C194.701 6.36445 194.457 6.13047 194.165 5.97197C193.873 5.81347 193.544 5.73632 193.213 5.74858C191.778 6.31405 190.987 7.85129 190.309 9.08949ZM194.116 8.07584C193.965 8.45222 193.55 8.60134 193.249 8.78953C192.588 9.09385 191.867 9.24903 191.139 9.24408C191.025 9.09317 191.176 8.9822 191.176 8.86765C191.665 8.26764 192.117 7.40496 192.91 7.25496C193.166 7.26983 193.414 7.35398 193.627 7.49855C193.839 7.64312 194.008 7.84266 194.116 8.07584Z" fill="#00614D"/>
<path d="M191.777 32.3154C192.868 30.139 192.568 27.2498 192.343 24.7352C191.939 21.4548 191.361 18.1982 190.61 14.9795C190.534 14.604 190.61 14.1541 190.534 13.7786C190.308 13.2531 190.723 12.3149 190.045 12.0513C189.555 12.5058 189.743 13.324 189.408 13.8895C189.279 15.1233 189.381 16.3704 189.709 17.5669C190.854 22.2759 191.498 27.0928 191.631 31.9372C191.664 32.0536 191.589 32.2781 191.777 32.3154Z" fill="#00614D"/>
<path d="M180.922 29.6879H181.035C181.446 30.7319 182.138 31.6415 183.035 32.3153C183.751 32.7698 184.468 33.3662 185.409 33.1025C185.837 32.9053 186.211 32.608 186.5 32.2357C186.789 31.8634 186.983 31.427 187.068 30.9635C188.159 28.187 186.314 25.7815 185.748 23.236C185.362 22.049 185.073 20.833 184.882 19.5996C184.844 19.4487 184.731 19.2622 184.543 19.2622C184.186 19.9568 183.944 20.7043 183.826 21.4759C184.241 24.5897 185.409 27.4406 186.353 30.3298C186.21 30.4818 186.032 30.5959 185.835 30.6616C185.637 30.7273 185.427 30.7426 185.222 30.7061C183.074 30.0297 181.905 27.7424 181.603 25.716C181.189 23.9887 181.149 22.0796 180.549 20.425C180.322 20.125 180.472 19.5623 179.983 19.4868C179.455 20.0123 179.607 20.875 179.347 21.5514C179.421 22.0005 179.573 22.4132 179.648 22.865C179.873 24.5542 180.251 26.2042 180.514 27.856L180.476 28.3806C180.096 29.0536 179.567 29.6311 178.931 30.0689C177.762 30.6316 176.406 31.2698 175.011 30.8189C174.504 30.545 174.076 30.1465 173.766 29.6608C173.456 29.1752 173.275 28.6185 173.24 28.0434C173.307 27.9624 173.34 27.8588 173.333 27.7539C173.326 27.649 173.279 27.5509 173.201 27.4797C172.9 25.866 173.089 24.1033 172.747 22.4887C172.595 22.0396 173.124 21.3978 172.558 21.2159C172.103 21.6705 172.103 22.3787 171.841 22.9433C171.766 23.3178 171.728 23.7678 171.615 24.1814C170.446 24.7442 169.24 25.1196 168.035 25.6824C166.425 26.8422 165.319 28.5733 164.944 30.5216C165.057 30.8216 165.358 30.8217 165.58 30.9344C166.768 31.0977 167.971 31.1101 169.161 30.9716C170.183 30.5291 171.126 29.9209 171.95 29.1715L172.062 29.2461C172.02 30.0109 172.179 30.7734 172.523 31.4579C172.867 32.1423 173.384 32.725 174.022 33.148C175.492 33.8608 177.151 33.1853 178.471 32.5844C179.522 31.8439 180.366 30.8468 180.922 29.6879ZM166.675 28.597L166.599 28.4843C167.617 27.1324 169.313 27.0206 170.708 26.4206C171.048 26.2697 171.387 26.0079 171.763 26.1197C171.858 26.7025 171.896 27.2931 171.877 27.8833C170.248 28.6192 168.442 28.8684 166.675 28.6007V28.597Z" fill="#00614D"/>
<path d="M182.355 15.0557L182.959 14.6012C183.75 13.8139 183.185 12.6129 183.109 11.6375C183.082 11.5568 183.031 11.4858 182.965 11.4328C182.898 11.3798 182.817 11.3471 182.732 11.3384C182.448 11.6715 182.253 12.0717 182.166 12.5012L182.392 13.5921C182.241 13.8175 181.938 13.8175 181.677 13.9293C181.451 13.9293 181.112 14.1548 180.924 13.9293C180.66 13.4039 181.15 12.5039 180.469 12.2793C180.165 12.5988 179.968 13.0052 179.905 13.442L180.018 14.4175L179.905 14.5675C179.476 14.7907 178.99 14.8822 178.509 14.8303C177.719 14.5303 178.66 13.9293 178.397 13.4047C178.171 13.3675 177.942 13.5921 177.76 13.7048C177.548 13.9996 177.402 14.336 177.33 14.6918C177.259 15.0477 177.264 15.4148 177.345 15.7685C177.515 16.0772 177.8 16.306 178.138 16.4049C178.979 16.4241 179.798 16.1306 180.436 15.5812C181.102 15.521 181.751 15.3431 182.355 15.0557Z" fill="#00614D"/>
<path d="M169.012 31.1525V31.2271H169.389C169.389 31.0771 169.164 31.1525 169.012 31.1525Z" fill="#00614D"/>
<path d="M168.824 31.2272V31.1526H168.636V31.1899L168.824 31.2272Z" fill="#00614D"/>
<path d="M119.182 33.3971C120.139 33.3235 121.133 33.2498 122.053 33.1762C122.863 32.7371 123.931 33.1035 124.704 32.6307C126.692 32.0443 128.717 31.5316 130.336 29.9552C130.557 29.9188 130.777 29.5916 130.925 29.8088C131.353 30.4452 131.689 31.4034 132.525 31.848C133.234 32.2132 134.044 32.3339 134.829 32.1916C135.193 32.447 135.565 32.1916 135.859 32.0098C136.642 31.966 137.42 31.8441 138.179 31.6461C139.549 31.4258 140.893 31.0695 142.192 30.5825C142.976 30.3545 143.721 30.0084 144.401 29.5561C145.188 29.1846 146 28.8663 146.83 28.6034C147.152 28.5069 147.491 28.4821 147.824 28.5306C148.006 29.7025 147.787 31.0961 148.486 32.048C148.685 32.3224 148.944 32.5477 149.244 32.7065C149.543 32.8653 149.875 32.9536 150.214 32.9644C153.081 33.1695 155.951 32.6131 158.534 31.3516C159.071 30.788 159.418 30.0706 159.528 29.2998C159.46 29.0181 159.485 28.7221 159.6 28.4561C159.715 26.8715 159.258 25.2981 158.312 24.0215C158.091 23.7278 157.834 23.2877 157.428 23.2141C157.208 23.3241 157.208 23.6178 157.099 23.8014C157.099 24.425 156.619 24.8641 156.73 25.4869C157.686 26.5427 158.347 27.8323 158.645 29.2252L158.535 29.3716C157.231 29.8106 155.903 30.1775 154.558 30.4707C153.176 30.753 151.753 30.778 150.362 30.5444C149.952 30.3346 149.604 30.0214 149.352 29.6358C149.101 29.2503 148.954 28.8057 148.926 28.3461C148.999 28.2724 149.037 28.1643 149.147 28.1643L151.687 28.237C151.869 28.2733 151.982 28.4188 152.166 28.3469C152.53 28.0575 152.832 27.6973 153.054 27.2879C153.275 26.8785 153.411 26.4285 153.454 25.9651C153.436 25.8842 153.395 25.8101 153.336 25.7516C153.277 25.693 153.203 25.6524 153.122 25.6343C152.312 25.8825 151.464 25.9819 150.619 25.9279C148.313 25.8307 146.038 25.3606 143.883 24.5361C142.594 24.1724 141.49 23.4351 140.055 23.3997C138.509 23.3633 137.22 24.6451 136.52 25.8933C136.52 26.4051 136.113 26.7343 136.113 27.2488C136.188 27.3234 136.225 27.4306 136.373 27.3951C136.924 27.1397 137.182 26.3687 137.807 26.296C138.813 26.1003 139.842 26.0509 140.863 26.1496C142.335 26.296 143.514 27.066 144.949 27.286V27.3597C142.151 29.087 138.767 29.4507 135.452 30.0707L133.574 29.8153C132.782 29.4997 132.028 29.0939 131.329 28.6061C131.293 27.8724 131.734 27.2861 131.697 26.5152C131.677 26.4292 131.631 26.3514 131.565 26.2926C131.499 26.2337 131.417 26.1965 131.329 26.186C130.704 26.8088 130.888 27.8342 130.003 28.3842C128.354 29.338 126.583 30.0652 124.74 30.5461C124.15 30.6925 123.451 30.657 122.826 30.8025C121.401 31.0245 119.961 31.1349 118.519 31.1325C116.458 30.9871 114.246 30.6198 113.218 28.4961C112.949 28.0682 112.786 27.5827 112.742 27.0796C112.697 26.5765 112.772 26.07 112.961 25.6015C113.033 25.1615 113.623 24.8314 113.325 24.3923C113.214 24.3187 113.104 24.4297 112.993 24.5024C112.107 25.7366 111.55 27.1756 111.373 28.6843C111.52 28.9801 111.595 29.306 111.594 29.6362C111.888 30.4403 112.363 31.166 112.982 31.7571C113.602 32.3483 114.349 32.7891 115.166 33.0453C115.68 32.9726 116.086 33.4089 116.601 33.3017C117.208 33.413 117.826 33.4502 118.442 33.4125C118.699 33.3598 118.961 33.5798 119.182 33.3971Z" fill="#00614D"/>
<path d="M158.719 37.4282C159.114 37.0003 159.426 36.5031 159.639 35.9618C159.345 35.1554 158.426 34.8981 157.835 34.3126L157.615 34.239C157.428 34.3318 157.265 34.4657 157.137 34.6308C157.009 34.7958 156.921 34.9876 156.878 35.1917C156.656 35.5554 156.399 36.0354 155.885 35.9245C155.345 35.5013 154.734 35.1788 154.08 34.9727C153.748 35.1545 153.639 35.5181 153.455 35.8518C153.345 36.2545 152.94 36.5481 153.014 37.0245C153.588 37.3698 154.141 37.7493 154.669 38.1609H154.89C155.448 37.6753 155.943 37.1215 156.363 36.5127C157.025 36.7318 157.545 37.3191 158.204 37.5391C158.388 37.72 158.572 37.6109 158.719 37.4282Z" fill="#00614D"/>
<path d="M155.002 14.1196C155.223 14.3014 155.553 14.3769 155.738 14.5969L155.48 14.8532C153.602 16.0624 151.947 17.786 149.959 18.7014C149.934 18.7239 149.917 18.7537 149.91 18.7863C149.904 18.819 149.908 18.8529 149.921 18.8833C150.548 19.0651 151.062 18.5905 151.616 18.4069C152.941 18.1869 153.898 17.0878 155.076 16.575L156.659 15.0359L156.806 14.9986C157.431 15.145 157.801 15.8423 158.389 16.0614C158.72 15.9151 158.682 15.5486 158.83 15.2923C159.161 14.5222 158.131 14.3769 157.8 13.8632C157.652 13.6069 157.946 13.4232 157.91 13.1669C157.873 12.0668 157.946 10.9676 157.1 10.1976C155.959 9.61122 155.148 10.9677 154.338 11.6631C154.153 12.0894 154.006 12.5307 153.897 12.9823C154.123 13.4774 154.514 13.8791 155.002 14.1196ZM156.033 11.5541C156.118 11.5201 156.21 11.5089 156.301 11.5216C156.391 11.5344 156.477 11.5706 156.549 11.6267C156.966 12.1337 157.199 12.7669 157.211 13.4232L157.175 13.4968C156.471 13.2012 155.793 12.8454 155.15 12.4332C155.224 12.231 155.342 12.0473 155.494 11.8947C155.647 11.7422 155.83 11.6245 156.032 11.5495L156.033 11.5541Z" fill="#00614D"/>
<path d="M125.844 35.8516C125.402 35.1552 124.592 34.8625 123.93 34.3488L123.709 34.3125C123.467 34.4918 123.277 34.7316 123.157 35.0079C123.194 35.5216 122.715 35.8134 122.715 36.328C122.751 36.8044 123.267 36.8417 123.561 37.1344C124.077 37.1344 124.629 37.8298 125.107 37.2798C125.256 36.7307 125.955 36.4735 125.844 35.8516Z" fill="#00614D"/>
<path d="M124.595 20.4603L124.853 20.203C125.478 19.2139 124.963 17.9675 125.035 16.832C124.925 16.6848 124.814 16.5021 124.63 16.5757C124.43 16.9056 124.281 17.2639 124.189 17.6384L124.335 19.1775C124.153 19.433 123.783 19.4712 123.526 19.5802C123.23 19.5802 122.936 19.8002 122.679 19.5802C122.498 19.0348 122.79 18.4812 122.642 17.8585C122.624 17.7774 122.576 17.7059 122.508 17.6586C122.44 17.6112 122.356 17.5914 122.274 17.603C121.894 18.3222 121.752 19.1434 121.869 19.9485C121.505 20.3876 120.801 20.3121 120.249 20.3512C120.129 20.2689 120.03 20.1598 119.96 20.0326C119.89 19.9054 119.85 19.7637 119.844 19.6185C119.733 19.2149 120.176 18.8849 119.882 18.4821C119.771 18.4085 119.734 18.5911 119.623 18.6284C119.176 19.4441 119.033 20.3917 119.219 21.303C119.302 21.4695 119.427 21.6113 119.582 21.7143C119.737 21.8173 119.916 21.878 120.102 21.8903C120.878 21.839 121.633 21.6135 122.31 21.2303C123.13 21.1986 123.923 20.9313 124.595 20.4603Z" fill="#00614D"/>
<path d="M119.954 15.0719C120.433 14.5965 121.058 14.3756 121.537 13.8256C122.018 13.278 122.548 12.7753 123.12 12.3237C123.561 12.5801 123.967 12.9474 124.446 13.1674L124.593 13.0938C124.74 12.7301 125.182 12.3246 124.925 11.8846C124.49 11.5929 124.093 11.2485 123.743 10.8592C123.952 10.3599 124.059 9.82402 124.059 9.28279C124.059 8.74155 123.952 8.2057 123.743 7.70638C123.411 7.30455 123.007 6.7909 122.454 6.86363C121.349 7.59728 120.208 8.69725 120.097 10.0527C120.279 11.0791 121.497 11.1155 122.085 11.7746C121.128 12.6546 120.061 13.3511 119.103 14.3774L117.557 15.3293C117.263 15.5502 116.784 15.8065 116.857 16.2465C116.857 16.3565 117.005 16.4657 117.115 16.4657C117.741 16.3566 118.22 15.8793 118.842 15.7329C119.218 15.512 119.517 15.0356 119.954 15.0719ZM123.12 10.4546C122.472 10.2235 121.854 9.91626 121.279 9.53914C121.169 9.31913 121.427 9.13459 121.537 8.95186C121.75 8.7034 122.013 8.50341 122.309 8.36546C122.604 8.49508 122.857 8.70453 123.039 8.97006C123.221 9.23559 123.325 9.5466 123.339 9.86818C123.304 10.0882 123.488 10.5282 123.12 10.4546Z" fill="#00614D"/>
<path d="M197.268 29.3132C197.316 28.0698 197.535 26.839 197.921 25.6559C197.94 25.5754 197.938 25.4914 197.915 25.4119C197.893 25.3323 197.85 25.2598 197.792 25.2013C197.721 25.1822 197.646 25.1844 197.576 25.2077C197.506 25.2309 197.445 25.2742 197.4 25.3322C197.236 25.8867 196.973 26.4086 196.811 26.9686C196.534 27.8085 196.338 28.6727 196.223 29.5496C196.153 30.3219 196.164 31.0996 196.256 31.8696C196.631 32.6389 197.194 33.3015 197.893 33.796C198.782 34.1688 199.738 34.3577 200.702 34.3515C202.38 34.2732 204.011 33.7672 205.438 32.8815C205.948 32.5942 206.394 32.2054 206.748 31.7391C207.102 31.2729 207.357 30.739 207.496 30.1705C207.753 29.4714 207.832 28.7194 207.726 27.9823C207.757 26.054 206.843 24.5522 206.222 22.8867C206.026 22.5931 205.994 22.0366 205.502 22.0039C205.307 22.1357 205.373 22.3976 205.242 22.5931C205.242 23.1485 204.849 23.5403 204.948 24.0967C205.833 25.8119 206.492 27.6343 206.908 29.5186C206.311 30.3649 205.483 31.0221 204.524 31.4123C202.825 32.0005 200.669 32.5878 198.873 31.8041C198.389 31.5936 197.979 31.2447 197.693 30.8015C197.408 30.3582 197.26 29.8404 197.268 29.3132Z" fill="#00614D"/>
<path d="M271.455 25.3013C269.85 25.6413 268.196 25.6759 266.578 25.4032C265.316 24.8577 263.883 24.6186 262.656 23.9713C261.462 23.5958 260.439 22.7104 259.144 22.5386C258.558 22.5917 257.992 22.7831 257.494 23.0973C256.996 23.4115 256.58 23.8394 256.279 24.3458C255.988 24.8981 255.759 25.4816 255.597 26.085C255.607 26.1151 255.623 26.1428 255.645 26.1664C255.666 26.1899 255.692 26.2087 255.721 26.2215C255.75 26.2344 255.781 26.241 255.813 26.2409C255.844 26.2409 255.876 26.2343 255.905 26.2214C256.437 25.8409 257.04 25.5721 257.679 25.4315C258.318 25.2909 258.979 25.2813 259.621 25.4032C261.361 25.2668 262.69 26.2214 264.225 26.5968V26.665C262.94 27.2241 261.603 27.658 260.235 27.9605C257.917 28.5742 254.813 28.8477 252.937 27.0404C252.801 26.4949 253.279 26.0177 253.21 25.4041C253.177 25.3023 253.005 25.1659 252.869 25.2341C252.52 25.6503 252.243 26.1228 252.051 26.6313C251.506 27.3477 251.676 28.3714 250.926 28.985C250.278 29.2241 249.665 28.7805 249.085 28.576C248.812 28.406 248.436 28.235 248.3 27.9287C248.7 27.3206 248.967 26.6351 249.085 25.9168C249.056 25.8656 249.017 25.821 248.97 25.7858C248.923 25.7506 248.869 25.7255 248.812 25.7123C248.165 26.2923 248.062 27.1441 247.483 27.7923C246.522 28.9168 245.164 29.0714 243.764 29.1223C243.56 29.0997 243.355 29.1064 243.154 29.1423H243.074L242.983 29.0514C243.349 28.155 243.646 27.2316 243.87 26.2895C243.903 26.0495 243.972 25.7777 243.767 25.5722C243.393 25.5722 243.46 26.0495 243.29 26.2895C243.097 26.9608 242.73 27.5695 242.228 28.0543C241.725 28.5391 241.103 28.883 240.425 29.0514C239.611 29.2527 238.759 29.2447 237.948 29.0282C237.137 28.8117 236.395 28.3938 235.789 27.8132C235.789 27.806 235.794 27.7995 235.796 27.7932C235.562 27.4522 235.386 27.0287 234.938 27.2787C234.115 28.2922 233.047 29.0786 231.835 29.5632C231.597 29.6314 231.255 29.8014 231.051 29.5968L230.573 28.0969C230.062 27.2105 229.551 25.8114 228.289 25.7432C227.362 26.2599 226.614 27.0445 226.141 27.9941C226.004 28.7787 225.493 29.4941 225.731 30.4159C225.803 30.7931 225.978 31.143 226.237 31.4262C226.496 31.7093 226.829 31.9145 227.199 32.0188C227.676 31.9842 228.085 32.257 228.529 32.0515C228.971 32.1215 229.45 31.9497 229.824 32.0515C230.029 32.0515 230.233 31.8142 230.335 32.0188C229.832 32.9428 229.188 33.7827 228.426 34.5079C227.676 35.0534 227.062 35.8716 226.141 36.0761C225.356 36.8607 224.232 36.8607 223.276 37.2698C222.151 37.3052 221.129 37.8152 219.935 37.5088C219.526 37.4397 219.117 37.6098 218.775 37.4734C218.201 37.4212 217.632 37.3301 217.07 37.2007C216.934 37.3034 216.593 37.4734 216.661 37.7461C216.711 37.8307 216.781 37.9015 216.866 37.9516C217.991 38.2589 219.218 38.3934 220.343 38.6671C221.366 38.5998 222.32 38.838 223.343 38.7698C223.99 38.7362 224.639 38.5652 225.252 38.5652C226.173 38.4288 226.787 37.6434 227.606 37.3716L229.072 36.0761C229.875 34.9118 230.615 33.7052 231.289 32.4614C231.46 32.1887 231.46 31.8142 231.664 31.5415C232.717 31.0748 233.659 30.3889 234.426 29.5296L234.544 29.4287C234.669 29.3968 234.8 29.3953 234.925 29.4244C235.051 29.4535 235.167 29.5123 235.265 29.5959C235.386 29.9091 235.573 30.1924 235.814 30.4264C236.054 30.6604 236.342 30.8395 236.659 30.9514C237.229 31.2606 237.864 31.4293 238.513 31.4432C239.161 31.4572 239.803 31.3159 240.386 31.0314C240.622 30.9305 241.179 30.5878 241.445 30.7223C241.912 30.8816 242.397 30.9848 242.888 31.0296C242.896 31.0384 242.902 31.0479 242.908 31.0578L243.697 31.1324C244.869 31.039 245.98 30.5733 246.868 29.8033H247.005C247.64 30.5519 248.524 31.0477 249.494 31.2005C250.142 31.4051 250.619 30.8605 251.063 30.4159C251.376 29.8536 251.717 29.3075 252.086 28.7796C252.452 29.1156 252.852 29.4127 253.279 29.666C253.78 29.9804 254.335 30.1998 254.916 30.3133C255.31 30.38 255.709 30.4142 256.109 30.4159C257.053 30.441 257.996 30.3259 258.906 30.0741C259.74 29.9424 260.562 29.7374 261.36 29.4614C261.769 29.3251 262.178 29.1205 262.622 28.9505C263.815 28.7114 264.769 28.0287 265.963 27.756C267.02 27.3132 268.214 27.7559 269.34 27.6886C269.749 27.6213 270.26 28.0986 270.567 27.6214C271.102 27.0403 271.488 26.3381 271.692 25.575C271.678 25.5133 271.649 25.4561 271.608 25.4084C271.567 25.3607 271.514 25.3239 271.455 25.3013ZM228.932 29.9041C228.568 29.963 228.194 29.921 227.851 29.7827C227.509 29.6444 227.21 29.4152 226.989 29.1196C226.954 28.9833 226.784 28.8124 226.886 28.6414C227.226 28.3351 227.533 27.8587 228.011 28.0278C228.623 28.4864 229.105 29.0976 229.408 29.8005C229.266 29.8904 229.097 29.9268 228.931 29.9032L228.932 29.9041Z" fill="#00614D"/>
<path d="M284.184 14.7322C284.192 14.4877 284.042 14.4595 283.912 14.4822C283.912 14.4822 278.055 17.1241 276.73 17.745C276.497 18.0939 276.336 18.4854 276.256 18.8968C276.254 18.9379 276.263 18.9789 276.282 19.0154C276.301 19.052 276.329 19.083 276.364 19.1054C276.398 19.1279 276.438 19.141 276.479 19.1435C276.52 19.146 276.561 19.1378 276.598 19.1196C276.887 18.9224 283.019 16.0668 283.681 15.9168C283.976 15.805 284.173 14.8959 284.184 14.7322Z" fill="#00614D"/>
<path d="M274.137 2.61371C274.144 2.36916 273.994 2.34107 273.864 2.3638C273.864 2.3638 268.009 5.00564 266.682 5.62747C266.45 5.97602 266.289 6.36723 266.21 6.7784C266.208 6.81952 266.217 6.86035 266.236 6.89692C266.255 6.9335 266.283 6.96457 266.317 6.98703C266.352 7.0095 266.391 7.02263 266.433 7.0251C266.474 7.02757 266.515 7.0193 266.552 7.00113C266.841 6.80294 272.973 3.94829 273.634 3.79738C273.93 3.68647 274.125 2.77826 274.137 2.61371Z" fill="#00614D"/>
<path d="M250.94 34.2643C250.947 34.0207 250.796 33.9916 250.667 34.0152C250.667 34.0152 244.81 36.6571 243.485 37.2771C243.252 37.6263 243.091 38.0181 243.011 38.4298C243.01 38.471 243.019 38.5119 243.038 38.5484C243.057 38.585 243.085 38.6159 243.12 38.6384C243.154 38.6608 243.194 38.6739 243.235 38.6764C243.276 38.6789 243.317 38.6707 243.354 38.6526C243.643 38.4544 249.775 35.5989 250.436 35.4489C250.732 35.3371 250.928 34.428 250.94 34.2643Z" fill="#00614D"/>
<path d="M29.5734 11.6231C29.5807 11.3576 29.4189 11.3268 29.2752 11.3504C29.2752 11.3504 22.906 14.2105 21.4569 14.8832C21.204 15.2607 21.0288 15.6846 20.9414 16.1305C20.9399 16.1751 20.95 16.2193 20.9706 16.2589C20.9912 16.2984 21.0217 16.332 21.0591 16.3563C21.0965 16.3806 21.1396 16.3949 21.1841 16.3977C21.2286 16.4005 21.2731 16.3917 21.3133 16.3723C21.6278 16.1578 28.2961 13.0659 29.0161 12.9032C29.3498 12.7841 29.5625 11.8004 29.5734 11.6231Z" fill="#00614D"/>
<path d="M49.3031 36.2354C49.3103 35.9708 49.1485 35.939 49.0049 35.9627C49.0049 35.9627 42.6356 38.8227 41.1865 39.4955C40.9333 39.8727 40.758 40.2968 40.6711 40.7428C40.6697 40.7874 40.6798 40.8317 40.7005 40.8712C40.7213 40.9108 40.7519 40.9443 40.7894 40.9685C40.8269 40.9927 40.87 41.0069 40.9146 41.0096C40.9592 41.0122 41.0037 41.0033 41.0438 40.9837C41.3574 40.7692 48.0258 37.6773 48.7458 37.5154C49.0812 37.3973 49.2894 36.4136 49.3031 36.2354Z" fill="#00614D"/>
<path d="M65.1991 36.0462C65.2064 35.7816 65.0437 35.7498 64.9 35.7735C64.9 35.7735 58.5308 38.6335 57.0862 39.3063C56.8334 39.6837 56.6582 40.1077 56.5708 40.5536C56.5692 40.5983 56.5792 40.6426 56.5999 40.6823C56.6206 40.722 56.6512 40.7557 56.6887 40.78C56.7262 40.8044 56.7694 40.8185 56.8141 40.8212C56.8587 40.8239 56.9033 40.815 56.9435 40.7954C57.2572 40.5808 63.9255 37.4889 64.6455 37.3271C64.9728 37.2053 65.1864 36.2216 65.1991 36.0462Z" fill="#00614D"/>
<path d="M146.21 34.2581C146.218 33.9936 146.055 33.9617 145.911 33.9854C145.911 33.9854 139.548 36.8454 138.093 37.5182C137.841 37.896 137.666 38.3194 137.578 38.7646C137.576 38.8092 137.586 38.8534 137.607 38.893C137.628 38.9325 137.658 38.9661 137.696 38.9903C137.733 39.0146 137.776 39.0287 137.821 39.0314C137.866 39.034 137.91 39.0251 137.95 39.0055C138.265 38.7919 144.933 35.7 145.653 35.5373C145.984 35.42 146.198 34.4372 146.21 34.2581Z" fill="#00614D"/>
<path d="M173.043 13.4747C173.051 13.2093 172.887 13.1775 172.744 13.2021C172.744 13.2021 166.38 16.063 164.931 16.7358C164.678 17.1134 164.503 17.5378 164.417 17.984C164.415 18.0286 164.425 18.0728 164.446 18.1124C164.466 18.152 164.497 18.1856 164.534 18.2098C164.572 18.2341 164.615 18.2483 164.659 18.2509C164.704 18.2535 164.748 18.2446 164.789 18.2249C165.103 18.0104 171.771 14.9194 172.491 14.7566C172.818 14.6357 173.03 13.652 173.043 13.4747Z" fill="#00614D"/>
<path d="M183.362 7.00202C183.37 6.73747 183.207 6.70481 183.063 6.72936C183.063 6.72936 176.694 9.58943 175.249 10.2613C174.996 10.6385 174.821 11.0626 174.734 11.5085C174.732 11.5531 174.742 11.5973 174.763 11.6369C174.784 11.6765 174.814 11.7101 174.852 11.7344C174.889 11.7586 174.932 11.7728 174.977 11.7754C175.021 11.7781 175.066 11.7691 175.106 11.7494C175.42 11.5358 182.089 8.44477 182.809 8.28113C183.132 8.16385 183.346 7.18021 183.362 7.00202Z" fill="#00614D"/>
<path d="M204.468 7.61187C204.475 7.36732 204.325 7.33914 204.195 7.36096C204.195 7.36096 198.339 10.0037 197.013 10.6246C196.781 10.9735 196.62 11.3651 196.54 11.7766C196.538 11.8177 196.548 11.8585 196.566 11.8951C196.585 11.9317 196.613 11.9627 196.648 11.9852C196.682 12.0077 196.722 12.0208 196.763 12.0233C196.804 12.0257 196.845 12.0175 196.882 11.9993C197.171 11.802 203.304 8.94645 203.965 8.79554C204.258 8.68462 204.457 7.77642 204.468 7.61187Z" fill="#00614D"/>
<path d="M80.1751 32.628C80.5404 33.051 81.0111 33.3698 81.5394 33.5522C82.0678 33.7345 82.6349 33.7738 83.1834 33.6661C84.641 33.7456 86.0839 33.3397 87.2862 32.5117C87.6498 32.3198 87.7335 31.8571 88.1389 31.7407C88.3745 32.093 88.6784 32.3944 89.0326 32.6271C90.1681 33.087 91.3543 33.4099 92.5663 33.5889C93.1763 33.7044 93.8663 33.5507 94.4354 33.6652C95.2064 33.7816 95.0036 32.8962 95.41 32.5889C95.7699 32.6239 96.1245 32.7011 96.4664 32.8188C97.4583 32.7748 98.4408 32.6069 99.391 32.3189C99.7155 32.0098 100.118 31.8953 100.366 31.5471C100.718 30.7784 100.95 29.9609 101.056 29.1225C101.3 25.2324 99.9192 21.9604 99.3092 18.3813C99.0765 17.5639 98.9269 16.7251 98.8628 15.8777C99.0265 15.6477 99.2692 15.5313 99.391 15.2622C99.5239 15.0466 99.5908 14.7968 99.5835 14.5437C99.5762 14.2906 99.4951 14.0452 99.3501 13.8376C98.7146 13.215 98.2645 12.4282 98.05 11.5648C97.9282 11.4112 97.8873 11.1411 97.6437 11.1411C97.1973 11.4884 97.0755 12.0666 96.6282 12.4894C95.8164 13.4894 96.71 14.684 97.1973 15.6085C97.7246 17.9186 98.0501 20.3059 98.5373 22.6542C99.1683 24.8664 99.6568 27.1169 100 29.3916L99.7565 29.6224C99.0081 29.931 98.2056 30.0866 97.3962 30.0801C96.5868 30.0735 95.7868 29.9049 95.0436 29.5842C93.5818 28.8906 93.2981 27.1587 91.7945 26.6196C90.6528 26.8527 89.6227 27.4631 88.8699 28.3524C88.698 28.8262 88.4334 29.2609 88.0916 29.6312C87.7497 30.0014 87.3375 30.2999 86.8789 30.5089C85.4926 31.1387 83.9425 31.3137 82.4506 31.0088C80.9879 30.7779 80.9879 29.2761 80.7033 28.237L80.8242 28.1215H82.5724L82.9361 28.4306C83.0208 28.4512 83.1092 28.4514 83.194 28.4313C83.2788 28.4112 83.3577 28.3714 83.4243 28.3151C84.029 27.6337 84.4856 26.834 84.7652 25.9669C84.8072 25.837 84.7967 25.6959 84.7359 25.5737C84.675 25.4515 84.5687 25.358 84.4398 25.3132L82.6515 25.7361C80.9851 26.0088 79.6842 25.3506 78.1814 25.2342C76.7987 24.6188 75.3359 24.195 73.9532 23.6178C73.2152 23.2482 72.4172 23.0133 71.5967 22.9242C70.174 22.9242 68.9958 24.1969 68.4667 25.3496C68.4258 25.8496 67.9385 26.197 67.8976 26.6979C67.9274 26.778 67.9844 26.845 68.0588 26.8872C68.1331 26.9294 68.2199 26.9441 68.3039 26.9287C69.1158 26.1196 70.254 26.2351 71.2295 25.8124C72.9053 25.9666 74.549 26.3686 76.1068 27.0052L76.3096 27.1978C74.061 28.3378 71.6224 29.0558 69.1149 29.3161C67.9166 29.2557 66.7665 28.8254 65.823 28.0843C65.3766 27.5452 66.0666 27.0451 65.823 26.4288C65.7421 26.2751 65.5793 26.0433 65.3766 26.1197C65.1241 26.4706 64.9318 26.8611 64.8075 27.2752C64.1975 28.007 64.3602 29.0843 63.5475 29.7388C62.6751 29.909 61.7707 29.7736 60.9865 29.3552C61.1744 28.7736 61.4053 28.2069 61.6774 27.6597C61.7174 27.387 61.8392 27.0442 61.5547 26.8124C61.5371 26.787 61.5143 26.7657 61.4878 26.7498C61.4613 26.7339 61.4317 26.7238 61.401 26.7202C61.3703 26.7166 61.3392 26.7195 61.3098 26.7288C61.2803 26.7381 61.2532 26.7536 61.2302 26.7742L60.3765 28.3142C59.2374 30.1243 57.0837 30.1625 55.0927 30.2779C55.0708 30.2772 55.0494 30.2702 55.0313 30.2577C55.0132 30.2453 54.999 30.2279 54.9904 30.2077C54.9818 30.1874 54.9791 30.1651 54.9828 30.1434C54.9864 30.1217 54.9962 30.1015 55.0109 30.0852C55.6414 29.2932 56.0105 28.325 56.0673 27.3142C55.9855 27.1597 55.8237 26.8896 55.58 26.8896C55.2546 27.3906 55.0509 27.9679 54.7264 28.507C54.2279 29.0536 53.6073 29.4746 52.9151 29.7356C52.2229 29.9966 51.4788 30.0903 50.7436 30.0088C49.3608 30.0088 48.3853 29.046 47.3289 28.3151C46.4753 28.1224 45.988 29.0079 45.4998 29.4697C44.9897 29.8991 44.3823 30.1973 43.7306 30.3383C43.0789 30.4793 42.4026 30.4589 41.7606 30.2788C41.3687 30.105 41.0178 29.8505 40.7307 29.5321C40.4436 29.2136 40.2267 28.8384 40.0942 28.4306C39.1187 26.0051 39.0369 23.2314 37.8996 20.8459C37.8178 20.7305 37.7778 20.4996 37.5742 20.5377C37.1842 21.2658 36.8578 22.0262 36.5987 22.8105C36.2109 23.3951 35.665 23.8573 35.0246 24.1437C34.3841 24.43 33.6756 24.5285 32.9813 24.4278C32.4532 23.8123 32.4122 23.0423 31.925 22.465C31.3149 22.2341 31.8031 22.9269 31.3968 23.0423C31.3559 23.8133 30.624 24.4669 31.1122 25.1987C32.1841 27.0323 32.8234 29.0863 32.9813 31.2043C32.5498 31.8581 31.9812 32.4103 31.3149 32.8225C29.1203 33.9007 26.5185 35.0171 23.9175 34.0953C23.2272 33.8786 22.6035 33.4893 22.1056 32.9643C21.6077 32.4394 21.2519 31.796 21.072 31.0952C20.7474 30.0542 21.3156 29.1706 21.3565 28.2069L22.1702 26.9751C22.2111 26.8596 22.252 26.6279 22.1302 26.5133C21.6829 26.397 21.2765 26.7861 20.992 27.0906C20.2532 28.51 19.7715 30.0489 19.5692 31.6362C19.3656 33.5989 20.5047 35.1398 22.0893 36.2944C23.5968 37.0485 25.3089 37.2915 26.9667 36.9863C28.0682 36.7554 29.1344 36.38 30.1376 35.8699C31.1931 35.6399 31.804 34.6771 32.6577 34.0989C33.3281 33.1463 33.7727 32.0535 33.9577 30.9034C33.7541 29.6306 34.405 28.4397 34.0396 27.1306L34.1614 27.0143C35.4099 26.5487 36.4585 25.6648 37.1287 24.5132H37.2105C37.5608 25.5202 37.846 26.5488 38.0642 27.5924C38.7542 29.4025 38.6733 31.6743 40.7052 32.7525C41.2529 32.9627 41.8373 33.0607 42.4237 33.0409C43.0101 33.0211 43.5865 32.8838 44.1189 32.6371C45.1352 32.4061 45.6234 31.1343 46.6389 30.9043C47.2081 31.4123 47.8055 31.8879 48.428 32.3289C49.865 32.8065 51.4277 32.7379 52.8172 32.1361C53.3569 32.39 53.9324 32.5589 54.5236 32.6371C55.7767 32.7896 57.0471 32.5755 58.181 32.0207C58.6292 31.9825 58.9528 31.2934 59.4819 31.6743C60.5078 32.2881 61.7127 32.5322 62.8965 32.3662C63.7267 31.6621 64.4042 30.7959 64.8875 29.8206L65.0502 29.7833C65.9782 30.8295 67.2739 31.4774 68.6676 31.5924C68.9112 31.6688 68.9112 31.708 69.1149 31.6689C70.6444 31.6082 72.1482 31.2551 73.545 30.6288C74.7473 30.2039 75.9158 29.6887 77.0405 29.0878C77.8235 28.6917 78.6579 28.4069 79.5196 28.2415C79.6415 28.357 79.8451 28.1642 79.926 28.3188C79.695 29.4212 79.6676 30.5566 79.8451 31.6689M89.4353 29.3961C89.9396 28.8473 90.5465 28.4025 91.2217 28.087C92.0754 28.3597 92.2372 29.2424 92.6436 29.8961C92.6854 30.2424 93.0509 30.5506 93.1318 30.8579C91.8991 30.7164 90.6944 30.3922 89.5571 29.8961C89.4822 29.8392 89.4294 29.758 89.408 29.6664C89.3866 29.5747 89.3979 29.4784 89.4399 29.3942L89.4353 29.3961Z" fill="#00614D"/>
<path d="M223.2 1.1174C222.909 1.49898 222.759 1.96956 222.776 2.44922C223.372 2.44922 223.445 1.54011 224.076 1.54011C224.358 1.50556 224.779 1.29646 225.023 1.50737C224.193 2.47887 223.665 3.67275 223.507 4.94106C223.532 5.43077 223.696 5.9031 223.981 6.30207C224.266 6.70103 224.66 7.00986 225.115 7.19198C226.692 7.86199 228.449 7.19927 229.889 6.57107V6.46564C229.782 6.29019 229.994 6.18568 229.889 6.08023C228.099 6.08023 225.746 6.77207 224.663 4.98113C224.07 3.9611 224.738 2.91017 225.336 2.14015C226.039 1.7556 226.636 1.12467 227.513 1.1983C227.706 1.09597 227.87 0.945215 227.987 0.76084C228.105 0.576464 228.172 0.364692 228.183 0.146368C227.974 -0.134547 227.516 0.0754763 227.201 0.0745672C225.798 0.281845 224.15 -0.143533 223.2 1.1174Z" fill="#00614D"/>
<path d="M227.787 4.63659C228.033 4.42659 228.423 4.18203 228.423 3.83202C228.213 3.19564 227.582 3.40837 227.091 3.302C226.85 3.56646 226.691 3.89519 226.632 4.2484C226.973 4.48446 227.373 4.61908 227.787 4.63659Z" fill="#00614D"/>
<path d="M268.477 34.5173C268.41 34.5538 268.348 34.5995 268.283 34.6402C268.041 34.8069 267.788 34.9586 267.527 35.0945C267.431 35.1476 267.32 35.1668 267.213 35.1489C266.878 35.0885 266.571 34.923 266.337 34.6765C266.303 34.6495 266.281 34.6104 266.275 34.5673C266.27 34.5242 266.281 34.4806 266.307 34.4459C266.338 34.3742 266.386 34.3111 266.446 34.2617C266.507 34.2123 266.578 34.1782 266.654 34.1621C266.731 34.1461 266.81 34.1486 266.885 34.1695C266.96 34.1903 267.029 34.2289 267.086 34.282C267.114 34.302 267.14 34.3237 267.164 34.347C267.173 34.3575 267.184 34.3657 267.196 34.3711C267.209 34.3765 267.222 34.3789 267.236 34.378C267.249 34.3771 267.262 34.3731 267.274 34.3661C267.286 34.3592 267.295 34.3496 267.303 34.3381C267.418 34.2218 267.509 34.0835 267.57 33.9315C267.581 33.9072 267.587 33.8802 267.585 33.8532C267.583 33.8262 267.575 33.8001 267.56 33.7775C267.525 33.7118 267.475 33.655 267.414 33.6115C267.354 33.568 267.284 33.539 267.211 33.5266C267.137 33.5142 267.062 33.5188 266.99 33.5401C266.919 33.5614 266.853 33.5988 266.799 33.6494C266.419 33.9604 266.1 34.3387 265.858 34.7654C265.719 35.0084 265.732 35.0782 265.941 35.2781C266.063 35.3947 266.2 35.4973 266.328 35.6036C266.288 35.6656 266.227 35.7103 266.156 35.7291C265.526 35.9766 264.897 36.2249 264.264 36.4637C264.08 36.5366 263.876 36.5446 263.686 36.4863C263.567 36.4619 263.46 36.3978 263.383 36.3045C263.316 36.2091 263.275 36.1267 263.416 36.0381C263.632 35.8725 263.865 35.7298 264.11 35.6123C264.234 35.57 264.344 35.4945 264.428 35.3939C264.512 35.2933 264.567 35.1715 264.586 35.0419C264.608 34.9387 264.671 34.8409 264.558 34.7438C264.445 34.6468 264.352 34.7 264.257 34.7393C264.08 34.8112 263.908 34.8947 263.709 34.9835C263.719 34.8294 263.765 34.68 263.845 34.5478C263.925 34.4155 264.035 34.3045 264.167 34.2239C264.524 33.9414 264.701 33.9375 265.072 34.2074C265.19 34.2933 265.241 34.2675 265.298 34.1642C265.336 34.0978 265.374 34.0311 265.407 33.9605C265.435 33.9172 265.454 33.868 265.46 33.8167C265.467 33.7653 265.462 33.7131 265.446 33.6639C265.43 33.6147 265.403 33.5697 265.367 33.5322C265.332 33.4948 265.288 33.4659 265.239 33.4477C265.135 33.3887 265.017 33.3593 264.897 33.3627C264.777 33.3662 264.661 33.4024 264.56 33.4674C264.259 33.6646 264.001 33.9199 263.8 34.2183C263.599 34.5167 263.46 34.8521 263.39 35.2051C263.373 35.3056 263.332 35.4005 263.27 35.482C263.209 35.5635 263.129 35.6292 263.037 35.6738C262.595 35.8836 262.134 36.0522 261.661 36.1774C261.483 36.2315 261.296 36.2469 261.112 36.2225C261.013 36.2165 260.92 36.1767 260.847 36.1096C260.741 36.0015 260.745 35.9182 260.875 35.8234C260.971 35.7524 261.074 35.6906 261.173 35.6238C261.536 35.4028 261.855 35.1161 262.113 34.7782C262.207 34.6441 262.26 34.4855 262.266 34.3217C262.258 34.181 262.221 34.0436 262.157 33.9177C262.094 33.7918 262.006 33.6801 261.898 33.5894C261.621 33.2736 261.581 33.2905 261.405 33.6687C261.358 33.7419 261.341 33.8299 261.356 33.9153C261.371 34.0007 261.418 34.0772 261.488 34.1297C261.571 34.2159 261.648 34.3075 261.719 34.4039C261.827 34.5292 261.802 34.6279 261.685 34.7379C261.474 34.8895 261.254 35.0275 261.025 35.151C260.585 35.4365 260.074 35.5951 259.549 35.6093C259.35 35.6245 259.151 35.5726 258.985 35.462C258.935 35.4444 258.891 35.4144 258.856 35.3747C258.821 35.335 258.797 35.2871 258.786 35.2354C258.775 35.1838 258.777 35.1301 258.792 35.0796C258.808 35.029 258.836 34.9833 258.874 34.9468C259.028 34.7501 259.204 34.5715 259.399 34.4145C259.477 34.3418 259.561 34.3684 259.641 34.4131C259.806 34.4992 259.949 34.623 260.057 34.7746C260.15 34.9103 260.222 34.8874 260.295 34.7604C260.342 34.6871 260.385 34.6114 260.424 34.5336C260.457 34.457 260.515 34.3704 260.447 34.2892C260.305 34.0828 260.139 33.8941 259.952 33.7271C259.905 33.6812 259.843 33.6548 259.778 33.6534C259.712 33.652 259.649 33.6756 259.6 33.7195C259.236 33.9609 258.941 34.2925 258.742 34.682C258.649 34.8907 258.545 35.0954 258.449 35.3036C258.401 35.4197 258.389 35.547 258.413 35.6701C258.436 35.7931 258.496 35.9066 258.583 35.9965C258.811 36.1867 259.103 36.2827 259.4 36.2652C259.786 36.2539 260.166 36.1595 260.513 35.9884C260.493 36.0858 260.479 36.1843 260.472 36.2834C260.473 36.3706 260.485 36.4574 260.507 36.5419C260.536 36.6471 260.597 36.7406 260.681 36.81C260.765 36.8793 260.869 36.921 260.978 36.9295C261.258 36.9079 261.534 36.8519 261.8 36.7626C262.167 36.668 262.518 36.5215 262.844 36.3277C262.87 36.3069 262.905 36.3194 262.942 36.3577C262.938 36.4285 262.943 36.4994 262.957 36.5689C263.011 36.744 263.033 36.964 263.204 37.0486C263.325 37.1215 263.46 37.1694 263.601 37.1894C263.742 37.2094 263.885 37.2011 264.022 37.165C265.178 36.7987 266.294 36.3177 267.354 35.7293C267.666 35.5735 267.968 35.399 268.259 35.2067C268.446 35.0716 268.573 34.8689 268.614 34.6415C268.622 34.5979 268.632 34.5556 268.595 34.5202C268.559 34.4847 268.513 34.4973 268.477 34.5173Z" fill="#00614D"/>
<path d="M263.46 32.8579C263.549 32.6004 263.698 32.3676 263.895 32.1786C263.923 32.138 263.96 32.1045 264.003 32.0808C264.046 32.0572 264.094 32.044 264.144 32.0424C264.193 32.0408 264.242 32.0508 264.287 32.0716C264.331 32.0924 264.371 32.1235 264.401 32.1622C264.486 32.2417 264.558 32.3353 264.639 32.4257C264.757 32.3402 264.847 32.2221 264.899 32.0859C264.947 32.0063 264.965 31.9125 264.95 31.8208C264.936 31.7291 264.89 31.6454 264.82 31.5844C264.551 31.306 264.273 31.2724 264.007 31.5671C263.599 32.048 263.307 32.6161 263.153 33.2277L263.196 33.2972C263.308 33.1669 263.398 33.0183 263.46 32.8579Z" fill="#00614D"/>
</svg>
