<svg width="298" height="36" viewBox="0 0 298 36" fill="none" xmlns="http://www.w3.org/2000/svg">
<path d="M282.527 13.9453C282.57 13.6346 282.67 13.4792 282.825 13.4792C283.074 13.5286 283.307 13.637 283.506 13.7952L286.328 15.8606C286.457 15.9502 286.605 16.0074 286.76 16.0274C286.856 16.0267 286.949 15.988 287.017 15.9195C287.085 15.851 287.124 15.7583 287.125 15.6614C287.106 15.5094 287.036 15.3685 286.926 15.262L284.618 12.6287C284.445 12.4418 284.324 12.2122 284.268 11.9633C284.262 11.9158 284.269 11.8675 284.288 11.8236C284.307 11.7796 284.337 11.7415 284.376 11.7131C284.504 11.6579 284.644 11.635 284.783 11.6464L286.509 11.8132V11.7307C286.458 10.8922 286.244 10.0718 285.879 9.3159C285.436 8.33218 284.926 7.38068 284.351 6.46837C283.975 5.8469 283.663 5.36412 283.414 5.02003C283.165 4.67594 282.781 4.20398 282.26 3.60416C281.95 3.24895 281.716 2.97684 281.559 2.78782C281.294 2.47767 281.139 2.29451 281.095 2.23833C280.807 1.91648 280.663 1.68884 280.662 1.55542C280.663 1.51022 280.674 1.46575 280.694 1.42532C280.714 1.38489 280.743 1.34955 280.779 1.32193C280.851 1.25756 280.945 1.22197 281.041 1.22186C281.163 1.23405 281.278 1.2803 281.374 1.35529L281.656 1.53874L282.104 1.85475C282.744 2.32649 283.354 2.83807 283.93 3.38647C284.674 4.04385 285.372 4.75028 286.022 5.50106C286.642 6.20358 287.218 6.94315 287.749 7.7157C288.136 8.31493 288.449 8.8416 288.686 9.29571C288.924 9.74982 289.215 10.3883 289.561 11.211L289.811 11.7939L292.167 11.4428C292.299 11.4224 292.432 11.4112 292.566 11.4094C292.615 11.4024 292.666 11.407 292.713 11.4229C292.761 11.4388 292.804 11.4656 292.839 11.5011C292.875 11.5366 292.901 11.5799 292.917 11.6275C292.933 11.6751 292.938 11.7257 292.931 11.7754C292.904 11.9969 292.813 12.2056 292.668 12.375L290.611 15.3384C290.513 15.4661 290.445 15.6139 290.411 15.7711C290.411 15.8209 290.422 15.8699 290.444 15.9147C290.465 15.9596 290.497 15.999 290.535 16.0301C290.61 16.0988 290.708 16.1372 290.809 16.138C291.009 16.1075 291.195 16.0155 291.34 15.8747L294.063 13.5433C294.21 13.3766 294.409 13.2649 294.628 13.2264C294.689 13.2275 294.75 13.2442 294.804 13.2748C294.857 13.3055 294.902 13.3492 294.935 13.402C295.027 13.5491 295.075 13.7191 295.076 13.8927V16.0239C296.534 16.7226 297.264 17.3444 297.264 17.8892C297.237 18.082 297.17 18.2667 297.065 18.4306C296.961 18.5945 296.822 18.7335 296.658 18.8381C296.182 19.21 295.645 19.4972 295.072 19.6869V21.6014C295.072 21.8372 295.03 22.0711 294.948 22.2922C294.917 22.3501 294.87 22.3976 294.812 22.4288C294.755 22.46 294.689 22.4736 294.624 22.4677C294.373 22.429 294.141 22.3123 293.96 22.1342L291.503 20.0038C291.308 19.7978 291.062 19.6483 290.789 19.571C290.739 19.5721 290.69 19.5837 290.645 19.6052C290.599 19.6267 290.559 19.6575 290.527 19.6957C290.451 19.7738 290.409 19.8784 290.41 19.9871C290.441 20.2155 290.54 20.4294 290.693 20.6016L292.818 23.4982C292.933 23.6484 293.008 23.8264 293.033 24.0144C293.033 24.2707 292.895 24.398 292.618 24.398C292.546 24.396 292.474 24.3905 292.402 24.3813L289.945 23.9152C289.601 24.9581 289.138 25.9579 288.567 26.8953C287.492 28.6712 286.191 30.2999 284.699 31.7406C283.989 32.4235 283.244 33.0681 282.466 33.6717C282.091 34.0258 281.639 34.2881 281.146 34.4381C281.106 34.4369 281.066 34.4274 281.029 34.4102C280.992 34.393 280.958 34.3684 280.931 34.338C280.902 34.313 280.878 34.2824 280.861 34.248C280.844 34.2137 280.834 34.1762 280.831 34.1379C280.855 33.9657 280.937 33.807 281.064 33.6884L281.662 33.0222L282.343 32.2401C282.981 31.515 283.569 30.7472 284.103 29.9421C284.647 29.145 285.136 28.3105 285.563 27.4448C286.176 26.353 286.555 25.1453 286.676 23.8985L284.999 24.1153C284.878 24.1346 284.756 24.1457 284.634 24.1487C284.39 24.1487 284.268 24.0375 284.268 23.8151C284.281 23.6578 284.339 23.5076 284.434 23.3824L286.776 20.749C286.966 20.5705 287.099 20.3387 287.157 20.0837C287.157 19.8496 287.035 19.7326 286.792 19.7326C286.586 19.7415 286.385 19.8048 286.211 19.916L283.372 22.1105C283.226 22.2406 283.048 22.3313 282.857 22.3738C282.669 22.3738 282.558 22.1397 282.526 21.6716V19.7247C281.934 19.4902 281.378 19.1734 280.874 18.7837C280.72 18.6768 280.592 18.5369 280.499 18.3741C280.405 18.2114 280.349 18.0299 280.334 17.8427C280.356 17.6616 280.425 17.4894 280.534 17.3432C280.656 17.144 280.813 16.969 280.999 16.8271C281.454 16.4643 281.971 16.1879 282.526 16.0116L282.527 13.9453ZM284.469 16.6928H285.946L285.996 16.605L283.406 14.6906V16.6217C282.879 16.7341 282.37 16.9218 281.896 17.1791C281.442 17.4284 281.215 17.6531 281.215 17.8532C281.215 18.02 281.419 18.2172 281.827 18.4448C282.327 18.708 282.856 18.9118 283.403 19.0523V20.9834L286.06 19.0189L285.972 18.9522H284.462V18.25C284.057 18.2193 283.667 18.0812 283.333 17.8497C283.661 17.6001 284.052 17.4451 284.462 17.4012V16.6849L284.469 16.6928ZM287.606 21.0387L285.531 23.1866L285.631 23.27L287.819 22.8706C287.797 22.9821 287.78 23.0646 287.769 23.1208L287.686 23.5535C287.463 24.5097 287.146 25.4412 286.74 26.3344C286.706 26.4122 286.651 26.5342 286.573 26.7004L286.59 28.4323C286.845 28.1531 287.076 27.852 287.279 27.5325C287.574 27.0881 287.843 26.6264 288.084 26.15C288.629 25.1268 289.053 24.0429 289.346 22.9207L291.703 23.4359L289.959 20.8904L289.926 20.9237V22.006H289.113L288.465 23.1383H288.378V22.006H287.598L287.606 21.0387ZM288.419 13.6952V12.5461H288.502L289.15 13.6952H289.963V14.7915H290.079L291.742 12.2275L289.368 12.777L289.335 12.6102C289.064 11.5943 288.682 10.6114 288.197 9.6793C287.784 8.80261 287.257 7.98494 286.629 7.24784L286.645 9.0631C287.195 10.2742 287.613 11.5415 287.891 12.8428L285.682 12.4434L285.583 12.5102L287.641 14.7046V13.689H288.422L288.419 13.6952ZM286.959 17.7909C286.957 18.0228 287.002 18.2526 287.093 18.4661C287.183 18.6796 287.316 18.8722 287.484 19.0321C287.732 19.2797 288.049 19.4479 288.393 19.5153C288.736 19.5826 289.093 19.5462 289.416 19.4106C289.739 19.275 290.015 19.0463 290.209 18.7534C290.403 18.4605 290.506 18.1166 290.505 17.7651C290.503 17.4136 290.398 17.0704 290.203 16.7787C290.007 16.487 289.73 16.2601 289.406 16.1265C289.081 15.993 288.725 15.9588 288.382 16.0283C288.038 16.0979 287.723 16.268 287.476 16.5172C287.308 16.6835 287.175 16.8821 287.086 17.1012C286.997 17.3203 286.953 17.5552 286.958 17.7918L286.959 17.7909ZM293.134 19.0198H291.558V19.0689L294.198 21.0001V19.0689C294.744 18.9418 295.272 18.7432 295.766 18.4782C296.193 18.2394 296.406 18.0203 296.406 17.8207C296.406 17.51 295.67 17.1103 294.198 16.6217V14.6563L291.558 16.6884V16.7551H293.134V17.4573C293.523 17.4902 293.896 17.6282 294.214 17.8567C293.885 18.0628 293.517 18.199 293.134 18.257V19.0233V19.0198Z" fill="#013F6D"/>
<path d="M15.483 15.6318C16.0373 15.8082 16.5548 16.0845 17.0102 16.4472C17.1952 16.5893 17.3528 16.7643 17.4749 16.9634C17.5837 17.1096 17.6525 17.2817 17.6744 17.4628C17.6595 17.65 17.6033 17.8315 17.51 17.9943C17.4166 18.157 17.2883 18.2969 17.1344 18.4038C16.6306 18.7935 16.0747 19.1102 15.483 19.3448V21.3093C15.4497 21.7774 15.3392 22.0115 15.1513 22.0115C14.9602 21.969 14.7831 21.8783 14.6367 21.7482L11.7976 19.5537C11.6233 19.4424 11.4229 19.3791 11.2165 19.3703C10.9732 19.3703 10.8515 19.4873 10.8515 19.7214C10.9099 19.9765 11.0431 20.2082 11.234 20.3867L13.5751 23.0201C13.6705 23.1454 13.7279 23.2957 13.7405 23.4528C13.7405 23.6758 13.6189 23.787 13.3756 23.7864C13.253 23.7835 13.1308 23.7723 13.0097 23.753L11.3329 23.5362C11.4548 24.7785 11.8323 25.9818 12.4417 27.0702C12.8696 27.9359 13.3577 28.7704 13.9024 29.5675C14.4365 30.3726 15.0245 31.1403 15.6624 31.8655L16.3433 32.6476L16.941 33.3138C17.0678 33.4324 17.15 33.5911 17.1738 33.7633C17.1712 33.8015 17.1611 33.8388 17.1439 33.873C17.1268 33.9072 17.103 33.9376 17.074 33.9625C17.0468 33.993 17.0136 34.0175 16.9766 34.0347C16.9396 34.0519 16.8995 34.0614 16.8587 34.0626C16.3659 33.9125 15.9142 33.6502 15.539 33.2963C14.7613 32.6926 14.0161 32.048 13.3064 31.3652C11.8137 29.9242 10.5134 28.2952 9.43814 26.5189C8.86882 25.582 8.4084 24.5827 8.06586 23.5406L5.60924 24.0067C5.53751 24.0159 5.46536 24.0215 5.39307 24.0234C5.11652 24.0234 4.97824 23.8958 4.97824 23.6407C5.00382 23.4527 5.07805 23.2748 5.19353 23.1245L7.31846 20.2279C7.47119 20.0557 7.5693 19.8418 7.60027 19.6134C7.60141 19.5048 7.55992 19.4001 7.48474 19.322C7.45217 19.2839 7.41195 19.2531 7.36671 19.2316C7.32147 19.2101 7.27223 19.1984 7.22219 19.1973C6.94969 19.2746 6.70299 19.4241 6.50805 19.6301L4.04006 21.7587C3.8588 21.9367 3.62651 22.0534 3.3758 22.0923C3.3106 22.0981 3.24513 22.0846 3.18755 22.0534C3.12997 22.0222 3.08282 21.9746 3.05198 21.9167C2.97019 21.6956 2.92812 21.4617 2.92771 21.2259V19.3114C2.35451 19.1218 1.81809 18.8346 1.34189 18.4626C1.17821 18.3582 1.03922 18.2191 0.934622 18.0553C0.830024 17.8914 0.762332 17.7066 0.736267 17.5138C0.736267 16.9695 1.46558 16.3478 2.92421 15.6485V13.5172C2.92435 13.3436 2.97318 13.1736 3.06511 13.0265C3.09753 12.9738 3.14266 12.9301 3.19634 12.8994C3.25001 12.8687 3.31052 12.852 3.3723 12.851C3.59079 12.8895 3.7898 13.0012 3.93678 13.1678L6.65946 15.4992C6.805 15.6402 6.99066 15.7322 7.19069 15.7626C7.29218 15.7619 7.3898 15.7234 7.46462 15.6546C7.50336 15.6235 7.53464 15.5842 7.55615 15.5393C7.57767 15.4945 7.58886 15.4454 7.58889 15.3957C7.55503 15.2384 7.48688 15.0906 7.38935 14.9629L5.33094 11.9995C5.18615 11.8302 5.09477 11.6215 5.06839 11.4C5.06138 11.3503 5.06599 11.2996 5.08186 11.252C5.09772 11.2044 5.1244 11.1611 5.15979 11.1256C5.19519 11.0901 5.23832 11.0634 5.28579 11.0475C5.33327 11.0316 5.38377 11.0269 5.43333 11.034C5.56668 11.0358 5.69974 11.0469 5.83154 11.0673L8.18839 11.4184L8.43781 10.8356C8.78088 10.0163 9.0726 9.37787 9.31299 8.92025C9.55337 8.46264 9.8661 7.93596 10.2512 7.34024C10.7814 6.56753 11.358 5.82794 11.9779 5.1256C12.6274 4.37482 13.3262 3.66839 14.0696 3.01101C14.6458 2.4626 15.2559 1.95102 15.8961 1.47929L16.3441 1.16328L16.626 0.979828C16.7218 0.905032 16.8368 0.858797 16.9576 0.846405C17.0544 0.846427 17.1478 0.882027 17.2202 0.946471C17.256 0.974001 17.285 1.00933 17.3052 1.04978C17.3254 1.09023 17.3361 1.13474 17.3366 1.17996C17.3366 1.31338 17.1928 1.54102 16.9051 1.86288C16.8608 1.91847 16.7059 2.10163 16.4404 2.41237C16.2852 2.60138 16.0518 2.8735 15.7403 3.22871C15.2198 3.82794 14.8353 4.29989 14.5868 4.64457C14.3382 4.98925 14.0255 5.47203 13.6486 6.09291C13.074 7.00521 12.5637 7.95671 12.1214 8.94044C11.7557 9.69627 11.5414 10.5167 11.4904 11.3552V11.4377L13.2171 11.271C13.3562 11.2596 13.4959 11.2825 13.6241 11.3377C13.6626 11.366 13.6928 11.4041 13.7118 11.4481C13.7307 11.4921 13.7376 11.5403 13.7317 11.5878C13.6758 11.8368 13.555 12.0664 13.3817 12.2532L11.0738 14.8865C10.9638 14.9929 10.8934 15.1339 10.8743 15.2859C10.8752 15.3829 10.9141 15.4756 10.9825 15.5441C11.0509 15.6125 11.1435 15.6513 11.2401 15.652C11.3952 15.632 11.5432 15.5748 11.6716 15.4852L14.494 13.4198C14.6926 13.2614 14.926 13.153 15.1749 13.1038C15.3301 13.1038 15.4296 13.2591 15.4733 13.5699V15.6353L15.483 15.6318ZM4.87497 17.8798C4.49179 17.8217 4.12454 17.6855 3.79588 17.4795C4.11305 17.2512 4.48593 17.1132 4.87497 17.0801V16.3779H6.45029V16.3112L3.81076 14.2791V16.2445C2.3393 16.7325 1.60328 17.1322 1.60269 17.4435C1.60269 17.6431 1.81565 17.8622 2.24157 18.101C2.73626 18.366 3.26356 18.5646 3.80988 18.6917V20.6229L6.44941 18.6917V18.6426H4.8741V17.8763L4.87497 17.8798ZM10.3702 13.3153V14.3309L12.4286 12.1365L12.3288 12.0697L10.1208 12.4691C10.3982 11.1677 10.8158 9.90036 11.3661 8.6894L11.3828 6.87414C10.7555 7.61079 10.2287 8.42786 9.81621 9.30385C9.33097 10.236 8.94944 11.2189 8.67848 12.2348L8.64523 12.4015L6.27088 11.8521L7.93371 14.4161H8.05011V13.3171H8.86315L9.51078 12.168H9.59392V13.3171H10.3746L10.3702 13.3153ZM10.4035 21.6235H9.62367V22.7559H9.53616L8.8894 21.6235H8.07549V20.5412L8.04223 20.5079L6.29888 23.0534L8.65573 22.5382C8.94908 23.6607 9.37264 24.7448 9.91773 25.7684C10.1587 26.2448 10.4275 26.7065 10.7229 27.1509C10.9259 27.4704 11.1564 27.7715 11.4117 28.0507L11.4283 26.3188C11.3507 26.1526 11.2953 26.0306 11.262 25.9528C10.8552 25.0597 10.5383 24.1282 10.3159 23.1719L10.2328 22.7392L10.1829 22.489L12.3708 22.8884L12.4706 22.805L10.3956 20.6571L10.4035 21.6235ZM10.5365 16.1374C10.2478 15.8456 9.86731 15.6631 9.45964 15.6208C9.05197 15.5785 8.64228 15.6791 8.3002 15.9055C7.95812 16.1319 7.70474 16.4701 7.58313 16.8627C7.46152 17.2552 7.47918 17.6779 7.63311 18.0589C7.78703 18.4398 8.06773 18.7556 8.42749 18.9525C8.78726 19.1494 9.2039 19.2153 9.60662 19.1389C10.0093 19.0626 10.3733 18.8488 10.6366 18.5338C10.8999 18.2188 11.0464 17.8221 11.0511 17.4111C11.0551 17.1751 11.0115 16.9409 10.9229 16.7223C10.8343 16.5037 10.7026 16.3054 10.5356 16.1391L10.5365 16.1374ZM13.541 17.0283C13.9508 17.0725 14.3411 17.2276 14.6699 17.4769C14.3357 17.7084 13.946 17.8465 13.541 17.8772V18.5794H12.0295L11.942 18.6461L14.5982 20.6106V18.6795C15.145 18.5389 15.6736 18.3351 16.1735 18.072C16.5819 17.8444 16.7861 17.6472 16.7861 17.4804C16.7861 17.2808 16.5591 17.0561 16.1052 16.8063C15.6309 16.5488 15.1222 16.3611 14.5947 16.2489V14.3177L12.005 16.2322L12.0549 16.32H13.5322V17.0362L13.541 17.0283Z" fill="#013F6D"/>
<path d="M65.2564 14.2772H64.8687C64.334 13.9499 63.7563 13.699 63.1525 13.532C62.9267 13.597 62.9582 13.8568 62.8899 14.0192C62.5961 14.3299 62.3461 14.6796 62.1469 15.0585C62.1154 15.1884 62.0174 15.3833 62.1469 15.4807C62.7466 15.7947 63.3627 16.076 63.9926 16.3234C64.4803 15.8874 64.9048 15.3851 65.2538 14.8311L65.3509 14.7987C65.8354 15.1672 66.3439 15.5029 66.8728 15.8037L67.0347 15.8362C67.3901 15.2841 68.2311 15.1208 68.2311 14.3747C67.8249 13.7122 67.2563 13.1649 66.5796 12.785C66.4825 12.7525 66.2882 12.6876 66.2243 12.8175C65.9434 13.3306 65.6196 13.819 65.2564 14.2772Z" fill="#013F6D"/>
<path d="M63.0582 7.05466C63.1886 7.93244 64.16 7.80078 64.581 8.3845V8.44946C63.2866 9.42468 61.7331 9.97769 60.5044 11.1478C60.6339 11.6674 61.0873 11.1794 61.4426 11.2443L64.0629 9.91096C64.581 9.64763 65.0343 9.19645 65.5506 8.96911C65.8991 9.18207 66.2153 9.44397 66.4897 9.74682L66.6192 9.78019C66.8818 9.55284 67.3308 9.29301 67.266 8.83831C67.2004 8.67592 67.2004 8.41611 66.9746 8.35115C66.712 8.15628 66.3269 7.99477 66.2622 7.63664C66.5851 6.6307 67.0691 5.13671 66.0976 4.29404C65.871 4.26156 65.6443 4.13165 65.4176 4.26156C64.8476 4.53008 64.3418 4.9185 63.9347 5.40045C63.5276 5.88239 63.2286 6.44656 63.0582 7.05466ZM65.485 5.62475C65.6752 5.87007 65.8014 6.159 65.8525 6.46548C65.9035 6.77195 65.8777 7.08635 65.7773 7.38032C65.2424 7.1394 64.7328 6.84534 64.2563 6.50254C64.2563 6.21023 64.6116 6.04785 64.8059 5.85298C65.0308 5.72219 65.2251 5.49485 65.4841 5.62739L65.485 5.62475Z" fill="#013F6D"/>
<path d="M48.9395 30.3266C48.6536 29.6203 48.1839 29.004 47.5794 28.542C47.0613 28.2787 47.3169 28.9967 46.9668 29.1565C46.8705 29.6437 46.3542 29.9684 46.4172 30.4547C46.7855 30.9487 47.2347 31.3763 47.7457 31.7196H47.9076C48.3259 31.3299 49.0051 31.0086 48.9395 30.3266Z" fill="#013F6D"/>
<path d="M46.6168 16.7547C46.2939 16.982 45.8405 16.917 45.4519 17.018C45.3379 16.886 45.2551 16.73 45.2096 16.5614C45.1642 16.3928 45.1573 16.2162 45.1894 16.0445C45.0923 15.6232 45.3496 14.9412 44.8647 14.7463C44.7028 14.8446 44.6713 15.0395 44.6021 15.201C44.1488 15.7531 44.3764 16.6291 44.4096 17.2787C44.3125 17.4411 44.1191 17.4411 43.9895 17.542C43.8499 17.6054 43.6941 17.6239 43.5435 17.595C43.3929 17.5661 43.2549 17.4912 43.1485 17.3805C42.958 17.0186 42.8473 16.6199 42.8238 16.2113C42.759 16.0814 42.6304 16.2113 42.5332 16.2772C42.3667 16.5641 42.2633 16.8835 42.2301 17.2139C42.1969 17.5443 42.2346 17.8779 42.3407 18.1925C42.5026 18.5173 42.7617 18.9386 43.2159 18.9386C43.7331 18.7437 44.3807 18.8078 44.8008 18.3531C45.3534 18.3537 45.9016 18.2544 46.419 18.0599C46.7145 17.9482 46.957 17.7288 47.0982 17.4455C47.7108 16.666 47.3231 15.5293 47.1936 14.6532C47.1713 14.5674 47.1264 14.4891 47.0638 14.4264C47.0012 14.3638 46.923 14.319 46.8374 14.2969C46.6562 14.6338 46.4943 14.9808 46.3525 15.3362L46.6168 16.7547Z" fill="#013F6D"/>
<path d="M45.2333 11.061C45.5239 10.8661 45.7514 11.2875 46.0096 11.4174C46.2363 11.5148 46.3019 11.8396 46.561 11.8712C46.8235 11.7088 46.8848 11.4165 47.0134 11.1567C47.2077 10.4755 46.3334 10.0858 45.9448 9.66445C46.3001 8.65764 46.6879 7.19613 45.6823 6.38593C45.0697 5.99708 44.485 6.51584 44.0002 6.8415C43.3576 7.34959 42.9023 8.05823 42.7067 8.85514C42.7446 9.09029 42.8379 9.31299 42.9786 9.50485C43.1194 9.69671 43.3037 9.85221 43.5162 9.9585C43.8077 10.12 44.1962 10.185 44.3914 10.4773C43.1535 11.4001 41.8681 12.2572 40.5406 13.0448C40.1363 13.2999 39.785 13.631 39.5062 14.02C39.7687 14.4747 40.0882 13.8576 40.4767 13.9867C42.1201 13.1093 43.7085 12.1323 45.2333 11.061ZM43.84 8.46452C43.9687 8.00983 44.4527 7.87991 44.7774 7.65257C45.39 7.61921 45.425 8.36621 45.6201 8.75595C45.523 8.95081 45.6534 9.24311 45.4267 9.33967C44.8707 9.10014 44.3391 8.80737 43.8391 8.4654L43.84 8.46452Z" fill="#013F6D"/>
<path d="M31.6844 17.5827C31.4128 18.2062 31.2177 18.8606 31.1033 19.5314C31.8419 20.756 32.4607 22.0494 32.9508 23.3936C33.2079 24.2401 33.382 25.1097 33.4707 25.9901C32.6219 26.9517 31.5413 27.6789 30.3323 28.102C28.5531 28.5576 26.2548 29.014 24.669 27.8466C23.8496 27.3206 23.2678 26.4939 23.0482 25.5433C22.988 24.9969 23.0429 24.444 23.2092 23.9203C23.1769 23.1417 23.6293 22.5553 23.758 21.8136C23.7416 21.7539 23.7079 21.7004 23.6612 21.6599C23.6144 21.6194 23.5567 21.5938 23.4954 21.5862C23.3335 21.6196 23.2329 21.7811 23.1734 21.9119C22.2279 23.4178 21.7345 25.1647 21.7521 26.9442C21.919 27.7212 22.2714 28.446 22.7792 29.0562C23.287 29.6664 23.9349 30.1438 24.6673 30.4475C25.6658 30.8377 26.7538 30.9381 27.8065 30.7371C28.4192 30.7371 28.9066 30.3474 29.5569 30.444L31.1742 29.7935C31.8857 29.144 32.6944 28.7858 33.3735 28.0713C33.7979 27.4466 34.0844 26.7383 34.2137 25.9936C34.3859 25.15 34.461 24.2894 34.4377 23.4287C34.2741 21.1886 33.1731 19.3391 32.0065 17.5221C31.9111 17.4852 31.7492 17.4212 31.6844 17.5827Z" fill="#013F6D"/>
<path d="M26.0858 15.5756C25.9886 15.5107 25.7943 15.4791 25.7305 15.6406C25.4059 16.2278 25.1456 16.8485 24.9542 17.4918C25.2795 17.8749 25.6903 18.1756 26.1532 18.3696C26.4437 18.4346 26.6389 18.7585 26.9618 18.7909C27.4143 18.3687 28.1267 18.1765 28.0943 17.4593C27.5739 16.6884 26.8875 16.0447 26.0858 15.5756Z" fill="#013F6D"/>
<path d="M274.23 11.6737C274.553 11.2515 275.105 10.9267 274.908 10.3096C274.266 9.72791 273.805 8.97308 273.579 8.13533C273.449 7.84303 273.644 7.35673 273.19 7.29178C273.107 7.3575 273.04 7.44147 272.995 7.5372C272.949 7.63292 272.926 7.73787 272.928 7.84392C272.652 8.17885 272.424 8.55009 272.249 8.94728C272.178 9.3735 272.222 9.81105 272.378 10.2139C272.508 10.6361 272.865 10.9925 272.865 11.4428C272.963 12.5471 273.158 13.6171 273.353 14.6564C273.963 16.931 274.441 19.2394 274.783 21.5698C274.783 21.8946 274.978 22.251 274.849 22.5757C273.504 23.197 272.004 23.4018 270.543 23.1639C269.864 23.1639 269.767 22.3853 269.443 21.9631C269.346 21.7682 269.41 21.5084 269.313 21.3144C269.087 21.1845 268.925 20.6323 268.568 20.8281C268.358 21.4643 268.196 22.1158 268.084 22.7768C268.863 24.5613 269.932 26.2484 269.934 28.3261C269.015 29.4238 267.82 30.2544 266.472 30.7312C265.631 31.2184 264.498 31.0244 263.56 31.2202C262.872 31.1923 262.196 31.0258 261.573 30.7307C260.95 30.4356 260.393 30.0179 259.934 29.5023C259.54 28.9535 259.326 28.2956 259.321 27.6195C259.515 26.6451 259.384 25.6067 259.643 24.6982C259.675 24.3085 260.192 23.9828 259.868 23.6265C259.707 23.5624 259.578 23.6589 259.48 23.8213C258.575 25.3136 258.479 27.1657 258.156 28.8861C258.245 29.292 258.299 29.7045 258.319 30.1194C258.546 30.4117 258.582 30.8015 258.807 31.0929C259.163 31.9048 260.07 32.3586 260.782 32.8484C261.615 33.2347 262.519 33.4439 263.436 33.4629C264.277 33.1996 265.314 33.4629 266.062 32.974C266.58 32.9406 266.937 32.5193 267.388 32.3595C268.216 31.9724 268.971 31.4447 269.62 30.7997C269.805 30.4736 270.01 30.1591 270.233 29.8578C270.362 29.2434 270.846 28.6561 270.62 28.0066C270.749 27.2017 270.813 26.3877 270.811 25.5725C271.006 25.3776 271.33 25.4751 271.589 25.5391C272.701 25.4199 273.784 25.1114 274.793 24.6271C274.921 24.5297 275.18 24.4647 275.116 24.2374C275.309 24.1075 275.212 23.8477 275.309 23.6528C275.605 22.999 275.77 22.2929 275.793 21.5751C275.901 20.5779 275.846 19.5697 275.628 18.5906C275.272 17.0325 275.011 15.442 274.622 13.9173C274.522 13.1668 274.037 12.4856 274.23 11.6737Z" fill="#013F6D"/>
<path d="M262.065 21.811C262.584 22.1674 262.941 22.8486 263.587 22.7836C263.91 22.264 264.493 21.9058 264.557 21.2914C264.13 20.7107 263.63 20.1874 263.069 19.7342C262.972 19.7017 262.843 19.6368 262.777 19.7342L262.357 20.612C262.259 20.9991 261.806 21.3888 262.065 21.811Z" fill="#013F6D"/>
<path d="M252.82 16.9773C252.855 17.0185 252.902 17.0471 252.955 17.0589C253.007 17.0706 253.062 17.0647 253.111 17.0422C253.403 16.4576 254.146 16.2944 254.113 15.5807C253.789 14.8021 252.914 14.4782 252.331 13.9261C252.234 13.8612 252.069 13.7971 251.976 13.9595C251.758 14.4501 251.475 14.909 251.135 15.3235C251.039 15.356 250.908 15.3569 250.872 15.4868C250.711 15.5193 250.61 15.3894 250.516 15.3244C250.012 15.0862 249.492 14.8809 248.962 14.71C248.886 14.7996 248.821 14.8977 248.767 15.0023C248.735 15.5219 248.155 15.8142 248.088 16.3014C247.961 16.9834 248.834 16.9158 249.19 17.2099C249.546 17.274 249.773 17.7927 250.162 17.5979C250.565 17.1151 250.882 16.5656 251.098 15.974H251.163C251.751 16.2636 252.173 16.8158 252.82 16.9773Z" fill="#013F6D"/>
<path d="M242.591 17.274C243.129 17.7336 243.743 18.0955 244.405 18.3432C244.598 18.4415 244.728 18.1808 244.825 18.0798C245.181 17.755 245.666 17.3978 245.633 16.8781C245.211 16.0995 244.371 15.8081 243.754 15.2569L243.528 15.2244C243.268 15.5226 243.061 15.8631 242.915 16.2312C242.785 16.5595 242.398 16.8843 242.591 17.274Z" fill="#013F6D"/>
<path d="M239.039 20.4139C239.039 20.4464 239.006 20.4473 239.006 20.4789C239.039 20.4789 239.039 20.5114 239.071 20.5114C239.136 20.4745 239.072 20.4139 239.039 20.4139Z" fill="#013F6D"/>
<path d="M225.585 34.5076C225.847 34.5076 226.136 34.5076 226.265 34.2144C226.877 34.4777 227.235 33.7263 227.721 33.499C228.4 33.2058 228.885 32.4597 229.403 31.9725C230.358 30.5425 231.038 28.9454 231.406 27.2641C231.633 26.9068 232.183 27.0692 232.474 26.7111C233.218 26.6137 233.735 25.9632 234.317 25.5085C234.58 24.9239 234.673 24.2428 234.93 23.6257C234.916 21.5372 234.664 19.4571 234.18 17.4259C233.953 16.29 233.567 15.2191 233.434 14.0508C233.299 13.6831 233.2 13.3026 233.142 12.915C233.404 12.6218 233.789 12.362 233.724 11.9082C233.724 11.5834 233.4 11.3894 233.205 11.0971C232.622 10.6108 232.592 9.83131 232.361 9.18263C232.348 9.09579 232.306 9.01608 232.241 8.95703C232.176 8.89799 232.093 8.86326 232.006 8.85873C231.843 8.95617 231.843 9.12206 231.779 9.28094C231.498 9.73371 231.26 10.2122 231.069 10.71C231.199 11.4236 231.2 12.268 231.847 12.7543C232.27 16.0978 233.405 19.1156 233.765 22.4582C233.884 22.8843 233.971 23.3185 234.027 23.7573C233.178 24.49 232.131 24.9537 231.02 25.0898L230.955 25.0249C230.675 23.9156 230.13 22.8913 229.367 22.0404C228.946 21.6507 228.46 21.2293 227.845 21.5225C227.265 22.0126 226.782 22.6082 226.422 23.2781C226.099 24.3815 225.197 26.0054 226.36 27.0104C227.462 27.9839 229.177 27.7872 230.473 27.3966C230.506 27.4616 230.538 27.4616 230.538 27.4941C229.68 29.6732 228.059 31.4635 225.978 32.529C223.749 33.5419 221.337 34.0851 218.89 34.1248C218.404 34.1907 217.757 33.7693 217.564 34.483C217.509 34.5565 217.485 34.6487 217.497 34.7398C217.509 34.8309 217.556 34.9136 217.628 34.9701C219.275 35.1211 220.93 35.1416 222.579 35.0316C223.033 35.0641 223.454 34.8683 223.906 34.9982C224.422 34.8007 225.133 34.9298 225.585 34.5076ZM226.904 24.7352C227.131 24.3779 227.389 23.8574 227.843 23.7284C228.455 23.7925 228.815 24.4736 229.14 24.9292C229.171 25.1232 229.561 25.3505 229.333 25.5129C228.395 25.5787 227.423 25.5471 226.904 24.7361V24.7352Z" fill="#013F6D"/>
<path d="M229.608 2.85479C229.511 3.4394 228.962 4.024 229.318 4.67268C229.739 5.35384 230.516 5.25641 231.098 5.64527L231.132 5.7427C230.096 6.78199 228.672 7.335 227.929 8.6666C227.901 8.69201 227.88 8.72357 227.866 8.75881C227.852 8.79404 227.847 8.832 227.85 8.86973C227.853 8.90745 227.865 8.94392 227.884 8.97629C227.904 9.00866 227.931 9.03605 227.963 9.05633C228.06 9.08881 228.124 9.02385 228.225 9.02385C229.559 8.19792 230.814 7.25185 231.976 6.19739L232.138 6.16491C232.462 6.29482 232.72 6.68456 233.045 6.8136C233.188 6.66223 233.298 6.48353 233.371 6.28821C233.443 6.09288 233.475 5.88494 233.465 5.67686L232.687 4.89827C232.902 3.96795 232.89 2.99926 232.653 2.07444C232.586 1.87981 232.471 1.70574 232.318 1.56927C232.164 1.4328 231.978 1.33859 231.778 1.29585C230.803 1.16594 230.125 2.17275 229.608 2.85479ZM231.743 2.78808C231.922 3.00881 232.055 3.26348 232.133 3.53679C232.211 3.8101 232.233 4.09643 232.199 4.37862C232.174 4.44525 232.128 4.50215 232.069 4.54101C231.486 4.27768 230.838 4.0872 230.223 3.79577C230.158 3.47099 230.486 3.21117 230.708 3.0163C230.999 2.78896 231.384 2.56161 231.743 2.78808Z" fill="#013F6D"/>
<path d="M221.308 26.6241C221.733 25.9726 221.895 25.1826 221.759 24.4156C221.552 22.053 221.226 19.7022 220.783 17.3723C220.491 16.5937 220.49 15.6843 220.199 14.9057C219.919 13.6844 219.702 12.4495 219.549 11.2059C219.286 10.9425 219.645 10.2315 219.063 10.2324C218.837 10.5581 218.934 11.0119 218.74 11.3367C218.513 12.5034 218.58 13.7086 218.936 14.8425C219.424 17.6014 220.105 20.2628 220.464 23.0867C220.617 24.1863 220.856 25.2722 221.178 26.3345C221.178 26.4293 221.146 26.6241 221.308 26.6241ZM221.341 26.0395L221.372 26.0071V26.0395H221.341Z" fill="#013F6D"/>
<path d="M220.448 4.64829C220.32 4.41207 220.134 4.21309 219.907 4.0709C219.68 3.9287 219.42 3.84817 219.152 3.83722C217.729 4.10055 217.083 5.65687 216.825 6.92351C216.955 7.44228 217.215 8.15241 217.862 8.28583C218.275 8.30131 218.686 8.23135 219.07 8.08032C219.454 7.92929 219.803 7.70043 220.095 7.40804C220.415 7.03257 220.62 6.57132 220.682 6.08101C220.745 5.5907 220.663 5.09272 220.448 4.64829ZM217.601 6.66719C217.407 6.5048 217.568 6.30994 217.665 6.14755C217.978 5.71728 218.42 5.39841 218.926 5.23728C219.157 5.2503 219.378 5.33554 219.558 5.48102C219.738 5.6265 219.868 5.82491 219.93 6.04836C220.028 6.37314 219.607 6.47057 219.413 6.60048C218.86 6.75936 218.151 7.05166 217.601 6.66281V6.66719Z" fill="#013F6D"/>
<path d="M213.487 6.6327C213.81 5.98314 214.068 5.07463 213.517 4.49091C213.364 4.30609 213.171 4.15987 212.951 4.0641C212.732 3.96833 212.494 3.9257 212.255 3.93966C211.019 4.6039 210.058 5.68585 209.542 6.99347C209.251 6.99347 209.186 6.57125 208.929 6.63621C208.077 7.0778 207.404 7.80089 207.022 8.6832C206.99 8.81311 206.861 9.04047 207.055 9.17038C207.123 9.17484 207.191 9.16227 207.253 9.13377C207.315 9.10528 207.369 9.06175 207.411 9.00711C207.72 8.58848 208.146 8.27186 208.636 8.09773C209.154 8.61737 209.898 8.38915 210.578 8.42075C211.168 8.36849 211.737 8.17983 212.242 7.86959C212.747 7.55935 213.173 7.13597 213.487 6.6327ZM210.088 7.05755C210.563 6.3287 211.206 5.72626 211.964 5.30198C212.128 5.2837 212.294 5.30671 212.447 5.36894C212.6 5.43117 212.735 5.53064 212.839 5.65836C212.937 5.82075 213.066 5.98314 213.001 6.17801L212.517 6.56775C211.772 6.90021 210.97 7.08814 210.154 7.12163L210.088 7.05755Z" fill="#013F6D"/>
<path d="M212.494 22.7312C212.427 20.5885 211.779 18.7066 211.619 16.5964C211.356 15.5255 211.163 14.4221 210.969 13.3187C210.774 12.3182 210.514 11.3316 210.19 10.365C210.092 10.3325 209.928 10.3325 209.898 10.43C209.713 11.0488 209.562 11.6773 209.446 12.3128C209.739 13.676 209.966 15.0717 210.194 16.4674C210.812 19.3886 211.203 22.3748 211.723 25.3286C211.664 25.5298 211.621 25.7352 211.593 25.943C211.691 26.0405 211.856 25.943 211.949 26.0405C212.398 24.9987 212.585 23.8624 212.494 22.7312Z" fill="#013F6D"/>
<path d="M199.731 5.02121C199.604 5.38312 199.496 5.7514 199.407 6.12458C199.44 6.22201 199.536 6.22201 199.601 6.25449C200.194 5.7891 200.847 5.40533 201.542 5.11337C202.168 5.01493 202.807 5.16619 203.322 5.53471C202.837 5.89197 202.287 6.18427 201.769 6.50993C201.414 6.83383 200.894 7.09453 200.767 7.5817C200.791 7.63073 200.828 7.67191 200.875 7.70049C200.921 7.72907 200.975 7.74388 201.029 7.74321C202.354 7.228 203.605 6.53942 204.75 5.69534C204.909 5.42469 205.019 5.1273 205.073 4.81756C205.059 4.76746 205.035 4.721 205.001 4.68164C204.968 4.64228 204.926 4.61103 204.878 4.59022C204.166 4.4287 203.551 3.94153 202.806 3.8125C201.638 3.55882 200.668 4.33917 199.731 5.02121Z" fill="#013F6D"/>
<path d="M199.707 30.0495C199.129 29.5134 198.46 29.0851 197.732 28.7846C197.119 28.4932 197.44 29.399 197.02 29.5316C196.822 29.89 196.671 30.2719 196.568 30.6683C196.697 30.9317 197.022 31.0247 197.28 31.1546C197.766 31.2845 198.219 31.9657 198.802 31.5751C198.931 30.9913 199.805 30.7306 199.707 30.0495Z" fill="#013F6D"/>
<path d="M193.319 16.4235C194.096 16.1961 194.257 15.3526 194.257 14.6381C194.062 14.0868 194.224 13.4092 193.899 12.9501C193.884 12.9303 193.864 12.9144 193.841 12.9034C193.818 12.8925 193.793 12.8868 193.768 12.8868C193.743 12.8868 193.718 12.8925 193.695 12.9034C193.673 12.9144 193.653 12.9303 193.637 12.9501C193.507 13.4048 193.055 13.8279 193.314 14.3467C193.347 14.61 193.509 14.9611 193.314 15.1586C192.861 15.1911 192.506 15.4509 192.02 15.3219C191.937 15.2564 191.879 15.163 191.858 15.0585C191.595 14.5389 192.148 13.5979 191.403 13.4039C191.277 13.5371 191.198 13.7083 191.178 13.8911C190.693 14.4107 191.114 15.0269 191.049 15.6467C190.823 15.939 190.499 15.9714 190.208 16.1014C190.079 16.1352 189.943 16.121 189.823 16.0614C189.704 16.0018 189.611 15.9009 189.56 15.7775C189.334 15.3552 189.851 14.933 189.592 14.5117C189.172 14.6416 189.204 15.0972 188.979 15.3895C188.843 15.6765 188.78 15.9934 188.797 16.3111C188.815 16.6287 188.911 16.9369 189.078 17.2074C189.23 17.3545 189.421 17.4558 189.628 17.4997C190.282 17.4212 190.895 17.1367 191.378 16.6868C192.036 16.7297 192.696 16.6402 193.319 16.4235Z" fill="#013F6D"/>
<path d="M167.851 16.937C168.06 16.8481 168.243 16.705 168.379 16.5224C168.515 16.3399 168.601 16.1243 168.627 15.8977C168.306 15.1209 167.751 14.4636 167.041 14.0166C166.911 13.9517 166.778 13.8218 166.652 13.9192C166.235 14.4344 165.887 15.0022 165.618 15.608C165.585 15.6405 165.52 15.738 165.456 15.7055C164.843 15.5115 164.387 15.0252 163.771 14.8277C163.545 14.7952 163.318 14.4388 163.092 14.7311C162.897 15.1209 162.639 15.4781 162.445 15.8679C162.38 16.0627 162.122 16.291 162.316 16.5499C162.902 16.841 163.465 17.1767 163.999 17.5541C164.071 17.602 164.156 17.6276 164.242 17.6276C164.328 17.6276 164.412 17.602 164.484 17.5541C164.905 17.0669 165.422 16.5148 165.81 15.9952C166.232 16.449 166.782 16.5464 167.235 17.0002C167.427 17.2293 167.622 16.937 167.851 16.937Z" fill="#013F6D"/>
<path d="M162.178 9.89705C161.822 9.57315 162.242 9.15093 162.016 8.79367C161.951 8.72871 161.886 8.79368 161.821 8.85863C161.59 9.1396 161.439 9.47745 161.382 9.8371C161.325 10.1967 161.365 10.5651 161.498 10.9039C161.661 11.2286 161.888 11.7474 162.374 11.6825C163.064 11.5651 163.724 11.3108 164.315 10.9346C164.862 10.8645 165.389 10.6874 165.868 10.4132C166.132 10.2829 166.365 10.0962 166.549 9.86613C166.733 9.63607 166.865 9.36826 166.935 9.08159C167.026 8.39402 166.851 7.69761 166.447 7.13466C165.995 7.00475 166.125 7.62183 165.898 7.84917C165.635 8.30386 166.092 8.5953 166.093 9.04999C165.806 9.24209 165.489 9.38479 165.155 9.47221C164.993 9.53716 164.734 9.6346 164.638 9.37565L164.409 8.10988C164.344 8.01245 164.247 7.81758 164.053 7.81758C163.932 7.96703 163.854 8.14662 163.826 8.33722C163.439 8.79191 163.698 9.409 163.763 9.92777L163.667 10.0252C163.329 10.1799 162.968 10.2789 162.599 10.3184C162.414 10.2309 162.266 10.082 162.178 9.89705Z" fill="#013F6D"/>
<path d="M159.231 21.5873C159.426 21.6197 159.522 21.3924 159.619 21.2625C159.837 20.3488 159.924 19.4086 159.876 18.4703C159.588 17.1467 159.096 15.8764 158.417 14.7055C158.094 14.3807 157.931 13.8944 157.51 13.732C157.186 14.0778 156.992 14.5255 156.961 14.9986C157.57 15.7236 158.052 16.5465 158.388 17.4327C158.757 18.2676 158.998 19.1541 159.101 20.0617C159.23 20.5489 158.937 21.1651 159.231 21.5873Z" fill="#013F6D"/>
<path d="M148.319 16.6787C148.581 16.8086 148.804 16.4838 148.931 16.2889C149.132 16.2 149.305 16.0605 149.436 15.884C149.566 15.7075 149.649 15.5001 149.675 15.2821C149.217 14.5959 148.593 14.0376 147.861 13.66H147.635C147.414 14.0246 147.166 14.372 146.892 14.6993C146.73 14.8941 146.699 15.2189 146.406 15.2189C145.876 14.8611 145.298 14.5776 144.691 14.3762C144.4 14.5062 144.464 14.8309 144.335 15.0258C144.141 15.1232 144.108 15.3172 143.947 15.448C143.831 15.6971 143.743 15.9586 143.685 16.2275C144.138 16.6488 144.722 16.7778 145.142 17.1676C145.238 17.265 145.368 17.2001 145.466 17.1676L146.597 15.6754H146.694C147.25 16.0642 147.768 16.3548 148.319 16.6787Z" fill="#013F6D"/>
<path d="M144.171 5.51435C144.041 6.39213 145.046 6.58525 145.531 7.00658C145.66 7.1365 145.952 6.97323 145.952 7.20145C144.626 8.34257 143.138 9.08605 141.843 10.3211C141.814 10.3578 141.796 10.4017 141.79 10.4482C141.785 10.4946 141.792 10.5418 141.811 10.5844C142.005 10.9092 142.297 10.5844 142.555 10.5844C144.085 9.70064 145.545 8.70117 146.923 7.5947C147.116 7.46391 147.312 7.6263 147.474 7.69125C147.765 7.88612 147.959 8.27498 148.315 8.40489C148.46 8.27558 148.573 8.11457 148.646 7.93433C148.719 7.7541 148.749 7.55948 148.735 7.36559C148.457 6.88766 148.053 6.49516 147.569 6.23062C147.697 5.22468 148.053 3.99052 147.437 3.08201C147.307 2.79059 146.983 2.72563 146.692 2.66068C145.967 3.07463 145.312 3.60108 144.751 4.2205C144.499 4.6229 144.304 5.0583 144.171 5.51435ZM146.597 4.11692C146.807 4.37777 146.959 4.6806 147.043 5.00516C147.127 5.32973 147.14 5.66853 147.083 5.99889L146.987 6.06384C146.361 5.86467 145.771 5.56849 145.237 5.18606C145.301 4.82968 145.69 4.63481 145.948 4.37411C146.142 4.27931 146.337 3.98789 146.597 4.11692Z" fill="#013F6D"/>
<path d="M140.884 17.1267C141.146 16.5746 141.887 16.2814 141.853 15.6003C141.312 14.9283 140.667 14.3481 139.942 13.8816C139.49 13.8491 139.458 14.4337 139.231 14.6611C139.006 15.0508 138.586 15.4072 138.78 15.8627L140.107 16.9345C140.333 17.0293 140.625 17.2558 140.884 17.1267Z" fill="#013F6D"/>
<path d="M132.799 12.1213C132.605 12.4461 132.379 12.8033 132.152 13.1606C132.023 13.452 131.668 13.775 131.926 14.1016C132.51 14.4913 132.995 15.1075 133.74 15.1391C133.902 15.0742 134.002 14.8758 134.096 14.7485C134.391 14.5823 134.62 14.3187 134.743 14.0024C135.066 13.3203 134.095 12.9964 133.706 12.5751C133.414 12.4136 133.187 12.0239 132.799 12.1213Z" fill="#013F6D"/>
<path d="M121.563 14.0261C120.884 14.3518 120.398 13.4758 119.783 13.2809C119.232 13.0544 119.265 13.8339 119.006 14.0937C118.812 14.4185 118.521 14.8083 118.619 15.198L119.978 16.0758C120.107 16.1407 120.302 16.3391 120.431 16.1407C120.82 15.686 121.208 15.1989 121.627 14.7442C121.919 14.7766 122.146 15.1655 122.436 15.2305C122.699 15.2954 122.792 15.6202 123.084 15.6193C123.472 15.1646 124.249 14.9048 124.151 14.1903C123.827 13.5612 123.361 13.0167 122.791 12.6006C122.765 12.5725 122.734 12.5506 122.699 12.5367C122.664 12.5228 122.626 12.5172 122.588 12.5203C122.551 12.5235 122.514 12.5353 122.482 12.5548C122.45 12.5744 122.422 12.6012 122.402 12.6331C122.166 13.1224 121.885 13.5887 121.563 14.0261Z" fill="#013F6D"/>
<path d="M118.905 6.52991C118.969 6.82729 119.115 7.10056 119.327 7.31806C119.538 7.53556 119.807 7.68838 120.102 7.75881C120.365 7.85536 120.621 7.92032 120.75 8.14767C119.327 9.44766 117.71 10.1955 116.383 11.722L116.319 11.9169C116.61 12.3382 116.966 11.7536 117.29 11.7211C118.713 10.6809 120.298 9.96555 121.527 8.60148C122.078 8.37413 122.337 9.05529 122.789 9.1852C123.058 8.90608 123.208 8.53365 123.208 8.14591C122.981 7.79307 122.67 7.50302 122.302 7.30236C122.328 7.04853 122.382 6.79834 122.463 6.55624C122.463 5.48535 122.688 4.12128 121.619 3.53755C121.263 3.44012 120.972 3.69994 120.713 3.83073C119.786 4.46299 119.138 5.43002 118.905 6.52991ZM121.364 5.03768C121.673 5.52233 121.842 6.08419 121.85 6.65982C121.85 6.78974 121.85 6.92315 121.721 6.9846C121.137 6.72126 120.583 6.43336 120.004 6.20689C119.876 6.14193 119.906 5.97954 119.972 5.88298C120.241 5.55803 120.544 5.26367 120.877 5.0052C120.952 4.9612 121.038 4.94055 121.125 4.94587C121.211 4.95118 121.295 4.98223 121.364 5.03505V5.03768Z" fill="#013F6D"/>
<path d="M103.952 7.45015C103.942 7.64422 103.985 7.83722 104.077 8.00863C104.168 8.18003 104.304 8.32344 104.47 8.42361C104.813 8.51556 105.173 8.534 105.524 8.47775C105.875 8.42149 106.211 8.2918 106.509 8.09708C106.875 7.92258 107.194 7.66385 107.441 7.34198C107.688 7.02012 107.856 6.64423 107.931 6.24496C107.96 5.90552 107.914 5.56386 107.796 5.24423C107.679 4.9246 107.493 4.63483 107.251 4.39546C107.075 4.20159 106.847 4.06212 106.595 3.9934C106.343 3.92468 106.076 3.92956 105.826 4.00748C105.335 4.24961 104.909 4.60579 104.583 5.04641C104.257 5.48702 104.041 5.99934 103.952 6.54077C103.725 6.93138 104.211 7.12537 103.952 7.45015ZM105.989 5.37068C106.506 5.33733 106.895 5.92193 107.122 6.34327C107.025 6.63557 106.669 6.733 106.411 6.86292C105.893 7.02531 105.18 7.28601 104.661 6.92875C104.466 6.79884 104.53 6.57149 104.595 6.37662C104.734 6.11223 104.932 5.88383 105.174 5.70942C105.417 5.53501 105.696 5.41935 105.99 5.37156L105.989 5.37068Z" fill="#013F6D"/>
<path d="M105.897 11.441C105.894 11.058 105.804 10.6807 105.634 10.3376C105.577 10.313 105.514 10.3093 105.455 10.3271C105.395 10.3449 105.344 10.3832 105.31 10.4351L105.116 11.3129C104.797 12.0258 104.718 12.8235 104.891 13.5854C105.064 14.7662 105.303 15.9364 105.606 17.0904C105.801 18.9733 106.16 20.7912 106.419 22.6406C106.518 23.9073 107.069 25.1072 106.779 26.3738C106.875 26.4063 106.908 26.5354 107.005 26.4388C107.942 25.2362 107.585 23.4192 107.714 21.9252C107.486 20.8544 107.389 19.7185 107.128 18.6467C106.911 16.8091 106.574 14.9877 106.121 13.1939C105.951 12.6258 105.876 12.0337 105.897 11.441Z" fill="#013F6D"/>
<path d="M83.0966 25.8388L83.8098 26.5858C85.2763 27.3154 86.8996 27.6706 88.5358 27.6198C88.9243 27.4249 88.8587 27.0054 89.1169 26.7113C89.8745 26.7312 90.6324 26.6872 91.3827 26.5796C91.6453 26.5796 91.8684 26.3523 92.1275 26.4164C92.3218 26.2215 92.6123 26.2206 92.8399 26.0258C93.5514 25.7335 93.8428 24.9549 94.3277 24.4019L95.0724 24.9856C96.2373 25.8283 97.7269 25.7624 99.1508 25.9239L99.4133 25.6966C99.7098 25.1717 99.8654 24.5786 99.8649 23.9753C99.4431 22.3522 99.3451 20.5027 97.9203 19.3669C97.7651 19.287 97.5932 19.2454 97.4188 19.2454C97.2444 19.2454 97.0725 19.287 96.9173 19.3669C96.1529 20.0391 95.45 20.7785 94.8169 21.5763C94.5388 22.2654 94.181 22.9194 93.7509 23.5249C93.5301 23.7758 93.2615 23.9798 92.9609 24.1249C92.6603 24.2701 92.3338 24.3535 92.0006 24.3703C90.6423 24.6959 89.0547 24.6652 88.1166 23.4644C87.4813 22.5732 86.6912 21.804 85.7842 21.1936C85.3535 21.2491 84.9457 21.4204 84.604 21.6892C84.2624 21.9581 83.9994 22.3145 83.8431 22.7209C83.1639 23.5004 83.0353 24.6687 82.0323 25.1576C81.0561 25.4966 80.0158 25.6083 78.9902 25.4842C78.5128 25.3509 78.0762 25.1 77.7199 24.7545C77.3637 24.409 77.0991 23.9797 76.9502 23.5056C76.5265 22.4863 76.2325 21.4175 76.075 20.3246C75.6523 17.5657 75.262 14.7419 74.9032 11.9496C74.9032 11.3009 74.7071 10.7488 74.7071 10.1001C74.5128 9.74376 74.6091 9.22235 74.3177 8.9318C74.1881 8.83437 74.0551 8.96428 73.9939 9.06259C73.8976 9.77711 73.3471 10.2634 73.3812 11.0429C73.6543 12.1835 73.8285 13.3456 73.902 14.5163C74.1304 15.7812 74.2923 17.0803 74.4271 18.3785C74.7444 20.6435 75.1968 22.8873 75.7818 25.0979C76.138 25.8441 76.3945 26.8535 77.3038 27.2046C78.017 27.7883 79.0541 27.6584 79.9293 27.69C80.6405 27.555 81.3276 27.3138 81.9676 26.9746C82.4795 26.7482 82.5793 26.0986 83.0966 25.8388ZM83.647 26.1627C83.6295 26.1649 83.6116 26.1631 83.5948 26.1575C83.578 26.1518 83.5627 26.1425 83.5499 26.1302L83.5832 26.0661C83.647 26.0328 83.7442 26.1293 83.647 26.1627ZM95.3936 22.6516L95.3289 22.5541C95.7025 22.1355 96.1261 21.7647 96.59 21.4499C96.6941 21.4133 96.8063 21.406 96.9143 21.4287C97.0223 21.4515 97.122 21.5034 97.2026 21.5789C97.694 22.1434 98.0585 22.8075 98.2712 23.5258L98.2065 23.5908C97.2129 23.4794 96.2541 23.1577 95.3936 22.6472V22.6516ZM83.9367 23.9595V23.8945C84.4216 23.4723 84.6798 22.7262 85.3922 22.7253C85.9426 22.9518 86.2341 23.5364 86.5903 23.9542C86.8277 24.3505 87.013 24.776 87.1416 25.22L87.076 25.2524C85.9255 25.1389 84.8337 24.6883 83.9367 23.9568V23.9595ZM73.86 9.81398H73.9247C73.9247 9.91141 73.9895 10.0773 73.8923 10.1063C73.7278 10.0694 73.7961 9.90702 73.8608 9.80959L73.86 9.81398ZM73.5694 10.7558L73.6018 10.6909V10.7558H73.5694ZM73.5694 11.1131V11.0806H73.6341C73.6316 11.1057 73.6197 11.1289 73.6009 11.1456L73.5694 11.1131Z" fill="#013F6D"/>
<path d="M81.6679 15.6475C81.6355 15.4202 81.7974 15.1279 81.6679 14.9339C81.6023 14.7715 81.4736 14.9014 81.4054 14.9664C81.2119 15.4536 80.8242 15.9083 80.9214 16.4929C80.9339 16.7531 81.0241 17.0035 81.1801 17.2118C81.3361 17.4201 81.5509 17.5766 81.7965 17.6612C82.1339 17.6703 82.4695 17.6084 82.7815 17.4794C83.0935 17.3504 83.3751 17.1573 83.6082 16.9124C84.0491 16.9824 84.499 16.9711 84.9358 16.8791C85.3856 16.8224 85.8111 16.6423 86.1654 16.3586C86.8113 15.4167 86.4218 14.1834 86.2591 13.145C86.2267 13.0475 86.1295 12.9176 86.0324 12.9176C85.8057 13.1125 85.8066 13.4698 85.6438 13.6971C85.5586 14.2517 85.6035 14.8185 85.7751 15.3526L85.6779 15.45C85.2679 15.5681 84.8424 15.6232 84.416 15.6133C84.2217 15.4843 84.2532 15.2561 84.2532 15.0287C84.2613 14.4917 84.1508 13.9596 83.9294 13.4706C83.8872 13.439 83.8359 13.4219 83.7832 13.4219C83.7305 13.4219 83.6792 13.439 83.637 13.4706C83.5399 13.8279 83.3465 14.1527 83.2493 14.4775C83.3833 14.9298 83.4383 15.402 83.4121 15.8731C83.0551 16.1605 82.6076 16.3105 82.1501 16.2962C81.8631 16.1988 81.7642 15.9065 81.6679 15.6475Z" fill="#013F6D"/>
<path d="M148.796 20.1801C148.728 19.8027 148.728 19.355 148.385 19.183C147.939 19.664 147.973 20.3873 147.665 20.9385C147.797 21.8849 147.877 22.8379 147.904 23.7931C147.596 24.3435 146.978 23.8967 146.567 23.8616C145.704 23.3279 144.768 22.9225 143.788 22.6581C143.343 22.5554 143.068 22.8995 142.794 23.2094C141.424 24.3088 139.713 24.8926 137.959 24.8596C137.475 24.8638 136.992 24.8102 136.52 24.6998C136.526 24.6691 136.537 24.6393 136.542 24.6121C136.356 24.537 136.177 24.446 136.006 24.34V24.2425C137.009 23.5271 137.074 22.4238 137.461 21.4494C137.43 20.6784 137.3 19.9147 137.071 19.1777C136.616 18.5931 136.034 17.6205 135.192 17.8154C134.149 18.3762 133.234 19.1511 132.508 20.0897C131.842 20.8773 131.435 21.8529 131.345 22.882C131.638 23.2059 131.508 23.6614 131.573 24.0512C131.541 24.246 131.768 24.3751 131.638 24.5375L130.501 24.8008C128.598 25.2997 126.611 25.3787 124.675 25.0325L124.578 24.9026C124.966 24.318 125.775 24.0573 125.839 23.3112C126.165 22.521 126.265 21.6554 126.128 20.8113C125.897 19.9329 125.464 19.1212 124.864 18.4413C124.575 18.3672 124.272 18.3736 123.987 18.4596C123.702 18.5456 123.446 18.708 123.246 18.9293C122.399 19.4763 121.618 20.1196 120.917 20.8464C120.294 21.9722 120.067 23.276 120.273 24.5471C120.273 24.677 120.596 24.7736 120.37 24.9369C119.373 25.2717 118.342 25.4905 117.296 25.589C116.711 24.2583 116.192 22.7327 114.768 21.8901C114.51 21.8145 114.233 21.838 113.991 21.9559C113.048 22.6266 112.328 23.5656 111.922 24.6516C111.858 25.266 111.341 25.7549 111.572 26.437C111.799 26.9558 112.123 27.6659 112.739 27.7677C113.648 28.0607 114.614 28.1267 115.554 27.9599C115.817 28.0249 116.104 27.6966 116.266 27.9599C115.768 28.7924 115.206 29.5848 114.586 30.33C113.957 31.0103 113.239 31.601 112.451 32.0855C111.428 32.7327 110.3 33.195 109.118 33.4513C108.491 33.6019 107.853 33.7003 107.21 33.7454L107.08 33.648C106.183 33.6978 105.284 33.6658 104.393 33.5523C104.306 33.5791 104.226 33.6251 104.159 33.6869C104.092 33.7487 104.039 33.8248 104.005 33.9096C103.951 33.9838 103.928 34.0756 103.941 34.1663C103.953 34.2569 103.999 34.3394 104.07 34.3967C104.539 34.5552 105.032 34.6315 105.527 34.6223C106.145 34.5509 106.77 34.5947 107.372 34.7513C108.483 34.8425 109.601 34.8198 110.707 34.6838C111.709 34.3906 112.907 34.4204 113.521 33.4154C114.654 32.9273 115.235 31.759 115.946 30.8162C116.497 29.9157 116.921 28.9433 117.206 27.9266C117.271 27.6018 117.66 27.7642 117.854 27.6334C119.006 27.3553 120.14 27.0077 121.251 26.5924C121.477 26.5599 121.639 26.3 121.931 26.365C122.51 26.7333 123.144 27.0067 123.809 27.1752C124.072 27.2077 124.262 27.4385 124.521 27.3367C124.974 27.2718 125.397 27.6 125.816 27.4333C126.856 27.4548 127.897 27.3778 128.923 27.2033C129.687 27.1707 130.44 27.0169 131.156 26.7477C131.576 26.7793 131.834 26.3246 132.223 26.2913C132.353 26.1938 132.644 26.4212 132.612 26.1289L133.12 25.9042C133.529 25.9976 133.915 26.1703 134.258 26.4124C134.504 26.4525 134.738 26.5466 134.943 26.688C136.253 27.1454 137.657 27.2634 139.025 27.0312C140.536 26.7065 141.933 25.9825 143.072 24.9342C143.381 24.7279 143.586 25.1414 143.963 24.9684C144.862 25.7756 146.016 26.2387 147.222 26.2764C147.589 26.1372 147.901 25.8832 148.113 25.5522C148.896 23.8777 149.136 21.9984 148.796 20.1801ZM115.393 25.8445C114.667 25.9312 113.932 25.8312 113.256 25.5539C113.068 25.449 112.928 25.2741 112.867 25.0668C113.066 24.6298 113.408 24.2746 113.837 24.0608C114.647 24.2548 115.133 25.1308 115.457 25.812L115.393 25.8445ZM124.032 23.4683L122.641 24.0828C122.155 23.7913 121.476 23.6614 121.247 23.0452C121.543 22.3884 121.959 21.793 122.473 21.2897C122.958 21.1598 123.379 20.6752 123.897 20.8666C124.544 21.3537 124.675 22.0349 125.034 22.6511C124.752 22.983 124.413 23.2605 124.031 23.4701L124.032 23.4683ZM132.381 22.3579C132.716 21.8601 133.107 21.4024 133.545 20.9938C133.911 20.5909 134.365 20.2792 134.872 20.0836C135.135 20.181 135.374 20.3323 135.575 20.5277C135.776 20.7231 135.934 20.9584 136.039 21.2186L136.363 22.0621C135.79 22.6963 135.068 23.1767 134.262 23.4595C133.675 23.0084 132.932 22.9109 132.381 22.3597L132.381 22.3579Z" fill="#013F6D"/>
<path d="M241.523 27.8986C241.771 27.961 242.11 27.867 242.326 27.961C242.862 28.0072 243.401 28.0072 243.937 27.961C245.218 27.574 246.407 26.9298 247.433 26.0676C247.528 26.0066 247.636 25.9668 247.748 25.9508C247.86 25.9347 247.974 25.9428 248.083 25.9745C249.112 26.6164 250.28 26.9997 251.488 27.092L251.611 27.185C251.704 27.2157 251.704 27.1236 251.767 27.092C252.062 27.042 252.341 26.9198 252.579 26.7361C252.816 26.5524 253.005 26.3128 253.129 26.0386C253.846 24.6555 254.095 23.076 253.839 21.5382C253.716 21.0721 253.752 20.5138 253.283 20.2654C252.942 20.8109 252.691 21.4086 252.54 22.0351C252.768 22.9273 252.882 23.8448 252.881 24.7658C252.54 25.2319 251.918 25.1389 251.425 25.0458C250.311 24.9519 249.538 24.1768 248.516 23.9284C248.02 23.8354 247.681 24.1768 247.34 24.4876C246.128 25.474 244.598 25.9819 243.038 25.9157C242.587 25.9494 242.135 25.8835 241.712 25.7226C241.29 25.5616 240.908 25.3097 240.593 24.9844C239.511 23.5879 239.355 21.8182 239.139 20.0486C238.954 19.2103 239.015 18.2492 238.798 17.41C238.643 15.5482 238.242 13.8111 238.118 11.916L237.715 10.7362C237.654 10.5501 237.438 10.178 237.22 10.4571C236.999 10.9787 236.823 11.5189 236.695 12.0713C237.314 13.9954 237.314 16.1969 237.779 18.2492C237.983 20.5009 238.314 22.7392 238.769 24.9537C238.904 25.6551 239.235 26.3038 239.722 26.8248C240.209 27.3459 240.834 27.7182 241.523 27.8986Z" fill="#013F6D"/>
<path d="M88.0396 6.54036C87.6563 6.6378 84.1416 8.238 83.3137 8.60403C82.0846 9.08212 80.9044 9.67797 79.7893 10.3833C79.4753 10.601 79.1786 10.8429 78.9019 11.1066C78.6111 11.4493 78.4216 11.8668 78.3549 12.3118C78.4092 12.3671 78.4915 12.4496 78.5466 12.3943C79.6334 11.498 80.863 10.7918 82.1838 10.3052C82.7509 10.0682 87.2931 8.23274 87.4611 8.02295C87.8275 7.65933 88.0917 7.20513 88.2269 6.70627C88.2033 6.62289 88.149 6.51315 88.0396 6.54036Z" fill="#013F6D"/>
<path d="M275.624 2.64493C275.63 2.42197 275.495 2.39564 275.375 2.4167L268.843 5.39151C268.687 5.46261 268.493 6.0876 268.413 6.44485C268.402 6.59495 268.507 6.73452 268.724 6.64762L275.163 3.72636C275.436 3.62278 275.615 2.79503 275.624 2.64493Z" fill="#013F6D"/>
<path d="M201.983 31.9812C201.99 31.7583 201.853 31.7319 201.734 31.753L195.202 34.7278C195.046 34.7989 194.857 35.4239 194.772 35.7811C194.761 35.9295 194.866 36.0699 195.083 35.983L201.522 33.0618C201.794 32.9591 201.973 32.1304 201.983 31.9812Z" fill="#013F6D"/>
<path d="M194.317 6.853C194.323 6.63005 194.187 6.6037 194.067 6.62477L187.535 9.59958C187.379 9.67069 187.19 10.2957 187.105 10.6529C187.093 10.8021 187.199 10.9417 187.416 10.8557L193.854 7.93443C194.128 7.83085 194.306 7.00223 194.317 6.853Z" fill="#013F6D"/>
<path d="M166.965 1.92831C166.971 1.70535 166.835 1.67902 166.715 1.70009L160.184 4.6749C160.026 4.746 159.834 5.37098 159.753 5.72823C159.742 5.87746 159.848 6.0179 160.065 5.931L166.503 3.00974C166.776 2.90704 166.954 2.07841 166.965 1.92831Z" fill="#013F6D"/>
<path d="M178.344 9.7915C178.35 9.56854 178.214 9.54221 178.095 9.56328L171.563 12.5381C171.406 12.6092 171.213 13.2342 171.133 13.5914C171.122 13.7415 171.227 13.8802 171.444 13.7942L177.883 10.8729C178.152 10.7702 178.333 9.9416 178.344 9.7915Z" fill="#013F6D"/>
<path d="M137.061 29.9711C137.068 29.7481 136.931 29.7218 136.811 29.7429L130.281 32.7177C130.124 32.7888 129.931 33.4138 129.85 33.771C129.839 33.9202 129.945 34.0607 130.161 33.9738L136.6 31.0534C136.872 30.949 137.05 30.1203 137.061 29.9711Z" fill="#013F6D"/>
<path d="M101.181 28.2087C101.188 27.9857 101.052 27.9594 100.932 27.9805L94.4013 30.9553C94.2438 31.0264 94.0512 31.6522 93.9707 32.0086C93.9593 32.1578 94.0652 32.2983 94.2822 32.2114L100.72 29.291C100.992 29.1865 101.17 28.3579 101.181 28.2087Z" fill="#013F6D"/>
<path d="M58.5384 29.5605C58.5454 29.3375 58.408 29.3112 58.2881 29.3323L51.7567 32.3071C51.6 32.3782 51.4066 33.0031 51.3261 33.3604C51.3156 33.5096 51.4206 33.6501 51.6377 33.5632L58.0763 30.6419C58.3476 30.5392 58.5279 29.7106 58.5384 29.5605Z" fill="#013F6D"/>
<path d="M30.3182 8.58196C30.3252 8.35901 30.1878 8.33268 30.0688 8.35375L23.5373 11.3285C23.3807 11.3996 23.1873 12.0246 23.1067 12.3819C23.0962 12.5311 23.2013 12.6716 23.4183 12.5855L29.857 9.66427C30.1291 9.55982 30.3068 8.73119 30.3182 8.58196Z" fill="#013F6D"/>
<path d="M25.2385 5.83825C24.8747 5.8593 24.5105 5.80414 24.1691 5.67629C23.8276 5.54844 23.5165 5.3507 23.2554 5.09565C23.0499 4.84414 22.9198 4.53928 22.8803 4.21652C22.8408 3.89376 22.8935 3.56638 23.0322 3.27249C23.4156 1.86804 24.9139 1.2255 26.2529 1.12982C26.5202 0.856115 26.7269 0.528882 26.8594 0.169528C26.8053 0.0919793 26.7261 0.0355409 26.6353 0.00976562C25.4241 0.169522 24.1472 -0.0543065 22.9998 0.169528C22.4389 0.325774 22.2026 0.905107 21.9496 1.32118C21.8534 1.54501 21.7256 1.86452 21.8534 2.05676C22.4205 1.78025 22.5229 1.38525 23.0007 1.28957C23.1609 1.2571 23.6063 1.09734 23.7009 1.2255C23.7061 1.2334 23.1644 1.84697 23.1285 1.89876C22.9981 2.08748 22.8738 2.28411 22.7627 2.486C22.5488 2.9186 22.3875 3.37539 22.2822 3.84656C22.145 4.21725 22.1042 4.61691 22.1638 5.00779C22.2233 5.39867 22.3813 5.76787 22.6226 6.08051C22.9878 6.49015 23.4748 6.77088 24.0116 6.88105C24.2311 6.92485 24.4546 6.94515 24.6784 6.94162C25.0495 6.93548 27.1044 6.67829 27.9105 5.89618C27.0248 5.77632 26.1285 5.7569 25.2385 5.83825Z" fill="#013F6D"/>
<path d="M24.9267 3.62977C25.1272 3.90798 25.3777 4.14615 25.6654 4.332C25.8958 4.08888 26.1027 3.82436 26.2833 3.542L25.4833 2.87927C25.4833 2.87927 25.1105 3.34186 24.9267 3.62977Z" fill="#013F6D"/>
<path d="M245.989 8.69428C245.996 8.47132 245.857 8.44498 245.738 8.46605L240.267 10.9589C240.11 11.0301 239.917 11.655 239.837 12.0123C239.826 12.1615 239.932 12.3011 240.148 12.2151L245.527 9.77571C245.8 9.67213 245.977 8.8435 245.989 8.69428Z" fill="#013F6D"/>
<path d="M254.088 8.00711C254.095 7.78416 253.958 7.75695 253.837 7.77889L248.366 10.2718C248.209 10.3429 248.016 10.9688 247.936 11.3251C247.925 11.4752 248.03 11.6139 248.247 11.5279L253.625 9.08854C253.899 8.98233 254.076 8.15634 254.088 8.00711Z" fill="#013F6D"/>
<path d="M203.185 8.4312C202.883 8.84358 202.613 9.2788 202.379 9.73295C201.923 10.2956 202.238 11.1374 202.414 11.7027C202.746 12.5487 202.97 13.4335 203.08 14.3361C203.43 15.7782 203.676 17.2547 204.027 18.6978C204.237 19.8924 204.623 21.0537 204.833 22.2844C205.253 23.7968 205.499 25.3794 205.883 26.9261L205.813 27.0323C204.972 27.8056 203.744 27.3834 202.868 26.9261C200.659 25.2732 200.518 22.6364 199.817 20.2804C199.887 19.9635 199.502 19.8582 199.572 19.5404C199.467 19.3649 199.326 19.436 199.186 19.3649C198.873 19.9765 198.694 20.648 198.661 21.3346C198.626 21.5804 198.836 21.7911 198.661 22.0017C198.1 22.5226 197.416 22.89 196.672 23.0686C195.929 23.2473 195.153 23.2311 194.418 23.0217C194.173 22.9515 193.962 22.7408 193.681 22.7759C193.19 23.163 193.261 23.8661 193.295 24.499C193.295 24.9906 193.856 25.1319 194.207 25.3426C194.312 25.483 194.628 25.3426 194.628 25.5892L193.997 27.0314C193.382 28.2498 192.481 29.2998 191.371 30.0905C190.29 30.5853 189.178 31.0084 188.041 31.3571C187.015 31.4923 185.974 31.4683 184.956 31.286C184.676 31.286 184.43 31.0745 184.15 31.2509C183.729 31.0394 183.274 31.1807 182.817 31.0754L182.712 31.1825C182.782 31.4985 183.202 31.5687 183.377 31.8145C184.535 31.99 185.622 32.4131 186.814 32.5887C187.828 32.6763 188.849 32.6763 189.864 32.5887C190.144 32.5184 190.319 32.2016 190.67 32.342C191.52 32.0275 192.288 31.5222 192.914 30.8647C193.685 30.2518 194.229 29.3971 194.457 28.4376C194.877 27.5143 195.195 26.5477 195.404 25.555L195.474 25.4839C196.524 25.3837 197.523 24.9807 198.35 24.3235C198.841 24.0768 198.841 23.5142 199.086 23.127L199.156 23.1622C199.612 24.8852 199.892 26.6434 201.05 28.0848C201.399 28.5917 201.858 29.013 202.393 29.317C202.927 29.621 203.523 29.7999 204.136 29.8403C204.537 29.8001 204.925 29.6761 205.275 29.4762C205.625 29.2764 205.93 29.0051 206.169 28.6799C206.707 27.3181 206.864 25.8351 206.625 24.3902C206.028 20.5218 204.977 16.8992 204.276 13.1019L204.487 12.8201C204.557 12.3277 205.187 12.1521 205.328 11.6606C205.328 11.2384 204.872 10.817 204.487 10.6072C203.715 10.185 203.715 9.34146 203.505 8.63748C203.466 8.5023 203.325 8.36098 203.185 8.4312Z" fill="#013F6D"/>
<path d="M176.747 19.1026C176.053 18.7716 175.259 18.5759 174.533 18.2739C174.07 18.4073 173.542 18.4407 173.079 18.6057C171.824 19.2017 171.36 20.5605 170.732 21.6543C170.699 21.8526 170.501 22.1186 170.699 22.317C170.764 22.3481 170.837 22.3583 170.908 22.3464C170.979 22.3345 171.044 22.3009 171.096 22.2503C171.621 21.4225 172.517 21.3233 173.276 20.859C174.465 20.4614 175.589 20.9582 176.776 21.0574C177.239 21.0574 177.569 21.4217 178.002 21.2233C178.141 21.2853 178.257 21.3897 178.333 21.5217C177.937 21.7851 177.474 21.9861 177.045 22.2503C175.657 23.2448 173.906 23.4792 172.221 23.8083C171.69 23.8973 171.146 23.8693 170.627 23.7264C170.108 23.5834 169.626 23.329 169.215 22.9806C168.784 22.6488 168.818 22.152 168.421 21.821C168.223 21.5226 168.256 20.7598 167.76 20.8932C167.033 22.0243 166.168 23.0596 165.184 23.9751L163.234 25.2339C162.904 25.4665 162.409 25.5323 162.276 25.9633C162.129 26.5174 161.941 27.0599 161.715 27.5863C162.111 27.9506 162.771 27.8181 163.267 28.0164C164.106 28.0521 164.937 28.1859 165.745 28.415C166.27 28.5809 166.97 28.4808 167.331 29.011C166.741 29.5041 166.111 29.9475 165.448 30.3364C164.853 30.5769 164.279 30.8651 163.73 31.1984C162.493 31.7627 161.157 32.0779 159.799 32.1262C158.61 31.9603 157.355 31.9603 156.395 31.2326C155.17 30.6024 154.843 29.3103 154.545 28.1174C154.583 26.9136 154.829 25.7255 155.273 24.6062C155.338 24.1761 155.833 23.6784 155.306 23.2808C155.043 23.2808 155.008 23.6126 154.781 23.7452C154.451 25.0706 153.691 26.2301 153.459 27.6223C153.359 28.2476 153.293 28.8779 153.261 29.5104C153.591 30.7033 153.757 31.9954 154.814 32.8908C155.777 33.4877 156.664 34.1829 157.888 34.1197C160.205 34.5263 162.591 34.0666 164.594 32.8276C165.759 32.1169 166.844 31.2836 167.832 30.3417C168.352 29.8537 168.709 29.2177 168.857 28.5194C168.725 28.2877 168.956 27.8567 168.659 27.6583C168.527 27.5591 168.758 27.4591 168.725 27.4266C168.372 27.1397 167.964 26.9296 167.526 26.8096C167.088 26.6896 166.63 26.6624 166.181 26.7296L165.256 26.6638C164.953 26.5846 164.643 26.5398 164.331 26.5303C164.198 26.4645 163.967 26.4645 163.934 26.267C164.432 25.9883 164.898 25.6548 165.322 25.2725C166.041 24.7499 166.657 24.0984 167.139 23.351L167.238 23.4502C167.172 23.8145 167.535 24.0454 167.535 24.3772C168.029 25.0576 168.739 25.5488 169.548 25.7693C170.448 26.0013 171.391 26.0013 172.29 25.7693C173.281 25.3717 174.47 25.3392 175.429 24.8415C176.665 24.3919 177.841 23.7907 178.929 23.0517C179.522 22.687 180.19 22.4618 180.882 22.3929C181.575 22.324 182.273 22.4133 182.926 22.6541C183.125 22.6874 183.224 22.9174 183.488 22.8524C184.215 22.4206 184.545 21.5595 185.074 20.8976C185.103 20.8459 185.12 20.7888 185.126 20.73C185.131 20.6711 185.125 20.6117 185.106 20.5555C185.087 20.4994 185.057 20.4478 185.018 20.4039C184.978 20.36 184.93 20.3249 184.876 20.3007C184.402 20.5671 183.867 20.7039 183.324 20.6975C181.948 20.6096 180.586 20.3766 179.259 20.0023C178.4 19.7673 177.56 19.4665 176.747 19.1026Z" fill="#013F6D"/>
<path d="M37.4155 32.2412C35.3461 32.9906 33.1156 33.1759 30.9515 32.7784C30.8342 32.8352 30.7333 32.921 30.6583 33.0277C30.5832 33.1345 30.5366 33.2586 30.5226 33.3884C30.5695 33.4851 30.6398 33.5685 30.7271 33.6309C30.8144 33.6933 30.9159 33.7328 31.0223 33.7457C32.6224 34.0281 34.2526 34.0974 35.8708 33.952C37.2393 33.9097 38.5849 33.5887 39.8257 33.0084C40.5192 32.6345 41.1432 32.1437 41.6706 31.5574C42.2293 30.9306 42.6865 30.2197 43.0254 29.4507C43.2004 29.0399 43.3544 28.6203 43.5198 28.206C43.6074 27.9796 43.8393 27.0816 44.0581 26.9771C45.0208 26.5119 46.1296 26.2249 46.8438 25.2927C46.8963 25.2242 49.2584 26.6971 49.5218 26.7761C49.9964 26.8796 50.489 26.8658 50.9571 26.7357C52.1172 26.511 53.2379 26.1155 54.2828 25.5621C55.2735 25.0311 56.1801 24.3569 57.1805 23.8434C57.6966 23.5176 58.2749 23.3035 58.8783 23.2149C59.1653 23.2149 59.5216 23.0016 59.7719 23.2149C59.8427 23.2764 59.3106 24.9617 59.2774 25.1803C59.1719 25.7104 59.1922 26.258 59.3369 26.7787C59.496 27.1829 59.7707 27.5308 60.1266 27.7785C60.4825 28.0262 60.9035 28.1628 61.3367 28.1709C62.4511 28.2409 63.5698 28.1591 64.6623 27.9278C65.7423 27.7702 66.7921 27.4494 67.7762 26.9762C68.5639 26.5821 68.633 25.6868 68.8824 25.0065C69.1337 24.3358 69.2099 23.6118 69.1037 22.9033C68.9976 22.1947 68.7126 21.5252 68.2759 20.9582C67.883 20.6 67.5977 20.0619 67.0979 19.8478C66.6665 20.573 66.4441 21.4041 66.4556 22.2485C67.2886 22.9012 67.8895 23.8059 68.1692 24.8283C67.534 25.2264 66.8317 25.5049 66.0967 25.6499C64.3595 25.9001 61.7961 26.6155 60.4204 25.1232C59.9941 24.6615 60.43 23.8066 60.5613 23.2799L60.7363 23.1043C61.2748 23.0857 61.8073 23.2225 62.2705 23.4985C62.9855 23.5345 64.0576 21.3128 63.557 20.9529C61.8416 21.4199 60.0213 20.9529 58.3059 20.8098C57.2321 20.6823 56.1915 20.3549 55.2376 19.8443C54.2946 19.2916 53.2081 19.0354 52.1184 19.1087C51.5851 19.246 51.0907 19.5051 50.6738 19.8659C50.2569 20.2266 49.9288 20.6792 49.7152 21.1881C49.5638 21.5077 49.1341 21.9939 49.3783 22.3468C49.6636 22.4188 49.8771 22.2029 50.0557 21.9896C51.0738 21.337 52.3071 21.1125 53.489 21.3646C53.9003 21.4427 55.4625 21.8912 55.8292 22.0308C56.0742 22.1247 56.2344 22.3696 56.4847 22.453C56.4497 22.669 56.1644 22.7409 56.0217 22.8831C55.5226 23.3036 54.9363 23.6074 54.3055 23.7723C52.6357 24.3613 50.9658 25.2646 49.1542 24.7177C49.0352 24.6817 47.9491 24.4544 47.7347 24.1033C48.0239 23.5921 48.1603 23.0082 48.1276 22.4214C48.1194 22.3832 48.1035 22.3471 48.0808 22.3153C48.0582 22.2835 48.0293 22.2567 47.996 22.2364C47.9626 22.2162 47.9255 22.203 47.8869 22.1977C47.8483 22.1924 47.809 22.1951 47.7714 22.2055C47.4041 22.9302 46.8743 23.5596 46.2236 24.0444C45.573 24.5291 44.8191 24.8561 44.0213 24.9995C43.6135 24.2769 43.2764 23.5164 43.0149 22.7286C42.6428 21.9335 41.987 21.3071 41.177 20.9731C40.3955 20.6501 39.6498 21.5796 39.263 22.1265C38.7942 22.8555 38.4463 23.6559 38.2329 24.4965C38.0169 25.0509 37.9137 25.643 37.9292 26.238C38.0334 26.985 38.835 27.2413 39.48 27.3607C40.0547 27.4857 40.6426 27.5391 41.2304 27.5196C41.7852 27.4836 42.3217 27.3177 42.8792 27.2896L42.9501 27.3625C41.7922 29.6364 39.8126 31.3814 37.4155 32.2412ZM39.2 24.6826C39.0582 24.1454 39.4503 23.7513 39.7715 23.394C40.2729 22.9639 40.7009 23.5011 41.1289 23.7153C41.6027 24.1581 41.9586 24.7127 42.1642 25.3286C41.6531 25.4427 41.1235 25.4441 40.6118 25.3327C40.1002 25.2213 39.6188 24.9998 39.2009 24.6835L39.2 24.6826Z" fill="#013F6D"/>
</svg>
