<svg id="Layer_1" data-name="Layer 1" xmlns="http://www.w3.org/2000/svg" xmlns:xlink="http://www.w3.org/1999/xlink" viewBox="0 0 316 173"><defs><style>.cls-1,.cls-10{fill:none;}.cls-2{fill:url(#linear-gradient);}.cls-3{fill:#0d8f75;}.cls-4{fill:url(#linear-gradient-2);}.cls-5{fill:url(#linear-gradient-3);}.cls-6{fill:url(#linear-gradient-4);}.cls-7{fill:url(#linear-gradient-5);}.cls-8{fill:#214570;}.cls-9{clip-path:url(#clip-path);}.cls-10{stroke:#eaeaea;}</style><linearGradient id="linear-gradient" x1="157.99" y1="834.26" x2="157.99" y2="788.9" gradientTransform="translate(0 -627.31)" gradientUnits="userSpaceOnUse"><stop offset="0" stop-color="#123d64"/><stop offset="1" stop-color="#0d8f75"/></linearGradient><linearGradient id="linear-gradient-2" x1="7155.13" y1="-3956.69" x2="7155.13" y2="-3827.35" gradientTransform="matrix(0.24, 0, 0, -0.24, -1578.07, -742.95)" xlink:href="#linear-gradient"/><linearGradient id="linear-gradient-3" x1="7311.94" y1="-3956.69" x2="7311.94" y2="-3827.35" gradientTransform="matrix(0.24, 0, 0, -0.24, -1578.07, -742.95)" xlink:href="#linear-gradient"/><linearGradient id="linear-gradient-4" x1="7027.73" y1="-3955.11" x2="7027.73" y2="-3825.78" gradientTransform="matrix(0.24, 0, 0, -0.24, -1578.07, -742.95)" xlink:href="#linear-gradient"/><linearGradient id="linear-gradient-5" x1="7439.44" y1="-3955.11" x2="7439.44" y2="-3825.78" gradientTransform="matrix(0.24, 0, 0, -0.24, -1578.07, -742.95)" xlink:href="#linear-gradient"/><clipPath id="clip-path" transform="translate(0 -124.5)"><path class="cls-1" d="M204.75,268a3.74,3.74,0,0,0,.47,1.82h-1.36V272h6.9v-2.23h-3.31a3.08,3.08,0,0,1-.41-1.36c0-1,.7-1.36,1.68-1.36a5.12,5.12,0,0,1,1.29.16l.41-2.15a10.56,10.56,0,0,0-2.1-.24,3.18,3.18,0,0,0-3.57,2.76,2.22,2.22,0,0,0,0,.37m-81.67-20.27v9.82c0,5.1-2.48,6.8-6.45,6.8s-6.45-2.06-6.45-6.09a14.36,14.36,0,0,1,1.17-5.44l-4.17-1.47a18,18,0,0,0-1.83,7.51c0,4.95,3.44,9.84,11.16,9.84,6.65,0,11.35-3.15,11.35-10V247.68Zm-8.68-5.19a2.48,2.48,0,0,0,2.38,2.59h.2a2.43,2.43,0,0,0,2.52-2.35h0a.88.88,0,0,0,0-.23,2.37,2.37,0,0,0-2.17-2.55h-.4a2.44,2.44,0,0,0-2.58,2.28v0a.88.88,0,0,0,0,.23M133.18,235v19c0,5.12,2.35,7.59,9,7.59h3.92c3.21,0,5.11-.77,6.24-1.9,1.36,1.5,3.44,1.9,5.77,1.9a8.27,8.27,0,0,0,5.83-1.86,8.16,8.16,0,0,0,5.44,1.86,7.6,7.6,0,0,0,6-2.39c1.09,1.54,3,2.39,5.92,2.39h17.8c2.27-10.1-.2-17.39-10.19-17.39a17.12,17.12,0,0,0-5.54.92l1,4.08a16.57,16.57,0,0,1,4.08-.55c6.33,0,7,5.14,6.41,8.67H181.3c-2.72,0-4.35-1.26-4.35-4.08v-8.57h-4.72v8.53c0,2.83-.66,4.08-3.34,4.08-2.14,0-3.23-.9-3.23-2.72v-6.95h-4.79v5.67c0,3-.86,4.08-3.37,4.08-1.91,0-3.16-.73-3.16-2.72v-7h-4.79v5.67c0,3-.89,4.08-3.44,4.08H142.2c-3,0-4.22-1.06-4.22-3.4V235ZM205,261.66h4.79V235H205Z"/></clipPath></defs><title>logo card</title><g id="ملون"><path class="cls-2" d="M158,161.59A34.77,34.77,0,0,0,158,207,34.79,34.79,0,0,0,158,161.59Z" transform="translate(0 -124.5)"/><path class="cls-3" d="M155,149.76a34.79,34.79,0,0,0-31.73,31.56A34.79,34.79,0,0,0,155,149.76Z" transform="translate(0 -124.5)"/><path class="cls-3" d="M192.66,181.32a34.83,34.83,0,0,0-31.74-31.56A34.81,34.81,0,0,0,192.66,181.32Z" transform="translate(0 -124.5)"/><path class="cls-4" d="M155,218.79a34.79,34.79,0,0,0-31.73-31.56A34.79,34.79,0,0,0,155,218.79Z" transform="translate(0 -124.5)"/><path class="cls-5" d="M192.66,187.23a34.81,34.81,0,0,0-31.74,31.56A34.81,34.81,0,0,0,192.66,187.23Z" transform="translate(0 -124.5)"/><path class="cls-6" d="M124.45,218.41a34.8,34.8,0,0,0-31.73-31.56A34.79,34.79,0,0,0,124.45,218.41Z" transform="translate(0 -124.5)"/><path class="cls-7" d="M223.28,186.85a34.79,34.79,0,0,0-31.78,31.56A34.8,34.8,0,0,0,223.28,186.85Z" transform="translate(0 -124.5)"/><g id="Group_9366" data-name="Group 9366"><g id="Group_8480" data-name="Group 8480"><path id="Path_4864" data-name="Path 4864" class="cls-8" d="M204.75,268a3.74,3.74,0,0,0,.47,1.82h-1.36V272h6.9v-2.23h-3.31a3.08,3.08,0,0,1-.41-1.36c0-1,.7-1.36,1.68-1.36a5.12,5.12,0,0,1,1.29.16l.41-2.15a10.56,10.56,0,0,0-2.1-.24,3.18,3.18,0,0,0-3.57,2.76,2.22,2.22,0,0,0,0,.37m-81.67-20.27v9.82c0,5.1-2.48,6.8-6.45,6.8s-6.45-2.06-6.45-6.09a14.36,14.36,0,0,1,1.17-5.44l-4.17-1.47a18,18,0,0,0-1.83,7.51c0,4.95,3.44,9.84,11.16,9.84,6.65,0,11.35-3.15,11.35-10V247.68Zm-8.68-5.19a2.48,2.48,0,0,0,2.38,2.59h.2a2.43,2.43,0,0,0,2.52-2.35h0a.88.88,0,0,0,0-.23,2.37,2.37,0,0,0-2.17-2.55h-.4a2.44,2.44,0,0,0-2.58,2.28v0a.88.88,0,0,0,0,.23M133.18,235v19c0,5.12,2.35,7.59,9,7.59h3.92c3.21,0,5.11-.77,6.24-1.9,1.36,1.5,3.44,1.9,5.77,1.9a8.27,8.27,0,0,0,5.83-1.86,8.16,8.16,0,0,0,5.44,1.86,7.6,7.6,0,0,0,6-2.39c1.09,1.54,3,2.39,5.92,2.39h17.8c2.27-10.1-.2-17.39-10.19-17.39a17.12,17.12,0,0,0-5.54.92l1,4.08a16.57,16.57,0,0,1,4.08-.55c6.33,0,7,5.14,6.41,8.67H181.3c-2.72,0-4.35-1.26-4.35-4.08v-8.57h-4.72v8.53c0,2.83-.66,4.08-3.34,4.08-2.14,0-3.23-.9-3.23-2.72v-6.95h-4.79v5.67c0,3-.86,4.08-3.37,4.08-1.91,0-3.16-.73-3.16-2.72v-7h-4.79v5.67c0,3-.89,4.08-3.44,4.08H142.2c-3,0-4.22-1.06-4.22-3.4V235ZM205,261.66h4.79V235H205Z" transform="translate(0 -124.5)"/><g class="cls-9"><g id="Group_8479" data-name="Group 8479"><g id="Group_8478" data-name="Group 8478"><rect id="Rectangle_1467" data-name="Rectangle 1467" class="cls-8" x="105.32" y="110.53" width="105.46" height="36.97"/></g></g></g></g></g></g><g id="Group_901" data-name="Group 901"><g id="Rectangle_1832" data-name="Rectangle 1832"><path class="cls-1" d="M15,124.5H301a15,15,0,0,1,15,15v158H0v-158A15,15,0,0,1,15,124.5Z" transform="translate(0 -124.5)"/><path class="cls-10" d="M15,125H301a14.5,14.5,0,0,1,14.5,14.5v157a.5.5,0,0,1-.5.5H1a.5.5,0,0,1-.5-.5v-157A14.5,14.5,0,0,1,15,125Z" transform="translate(0 -124.5)"/></g></g></svg>