<svg xmlns="http://www.w3.org/2000/svg" width="108" height="108" viewBox="0 0 108 108"><defs><style>.a{fill:rgba(175,175,175,0.15);}.b{fill:#214570;}</style></defs><g transform="translate(-801 -353)"><circle class="a" cx="54" cy="54" r="54" transform="translate(801 353)"/><path class="b" d="M2.354,15.079a2.644,2.644,0,0,0,.774,2,2.827,2.827,0,0,0,2.049.746h2.9v-8.6A2.673,2.673,0,0,0,7.24,7.194a2.813,2.813,0,0,0-2.009-.8,2.86,2.86,0,0,0-2.022.8,2.652,2.652,0,0,0-.855,2.022ZM9.113,2.457a4.6,4.6,0,0,1,2.036,2.036,7.713,7.713,0,0,1,.57,3.23V50.53a5.78,5.78,0,0,0,1.4,4.153,4.882,4.882,0,0,0,3.705,1.466A4.533,4.533,0,0,0,20.3,54.724a5.644,5.644,0,0,0,1.33-4V43.473a5.784,5.784,0,0,1,1.3-4.085,5.245,5.245,0,0,1,4.017-1.4H52.028V10.709q0-4.072-2.049-6.162t-6.094-2.09ZM21.789,15.975a1.472,1.472,0,0,1,.461-1.1,1.608,1.608,0,0,1,1.167-.448H40.981a1.561,1.561,0,0,1,1.154.448,1.5,1.5,0,0,1,.448,1.1,1.608,1.608,0,0,1-.448,1.167,1.537,1.537,0,0,1-1.154.461H23.418a1.578,1.578,0,0,1-1.629-1.629Zm0,8.931a1.578,1.578,0,0,1,1.629-1.629h9.229a1.578,1.578,0,0,1,1.629,1.629,1.517,1.517,0,0,1-.461,1.113,1.582,1.582,0,0,1-1.167.461H23.418a1.582,1.582,0,0,1-1.167-.461A1.517,1.517,0,0,1,21.789,24.906Zm.95,32.438H49.178a8.972,8.972,0,0,0,4.33-1,7.194,7.194,0,0,0,2.9-2.864,8.978,8.978,0,0,0,1.045-4.465V44.369a2.689,2.689,0,0,0-.774-2.009,2.8,2.8,0,0,0-2.049-.76H28.06a2.8,2.8,0,0,0-2.049.76,2.689,2.689,0,0,0-.774,2.009v5.185a17.733,17.733,0,0,1-.475,4.221A7.872,7.872,0,0,1,22.739,57.344Z" transform="translate(825.094 378.099)"/></g></svg>