<svg id="Layer_1" data-name="Layer 1" xmlns="http://www.w3.org/2000/svg" xmlns:xlink="http://www.w3.org/1999/xlink" viewBox="0 0 77.4 89.79"><defs><style>.cls-1{fill:none;}.cls-2{clip-path:url(#clip-path);}.cls-3{fill:url(#linear-gradient);}.cls-4{fill:#074367;}</style><clipPath id="clip-path"><path class="cls-1" d="M36.8,41.1A20.71,20.71,0,0,0,17.91,22.31,20.73,20.73,0,0,0,36.8,41.1m3.51,0A20.73,20.73,0,0,0,59.2,22.31,20.71,20.71,0,0,0,40.31,41.1m18.2-.23A20.73,20.73,0,0,0,77.4,22.08h0A20.72,20.72,0,0,0,58.51,40.87m-39.91,0A20.73,20.73,0,0,0-.29,22.08,20.72,20.72,0,0,0,18.6,40.87M33.55,20.54a20.6,20.6,0,0,0,5,13.5,20.68,20.68,0,0,0,0-27,20.65,20.65,0,0,0-5,13.49M36.8,0A20.72,20.72,0,0,0,17.91,18.79,20.71,20.71,0,0,0,36.8,0Zm3.51,0A20.71,20.71,0,0,0,59.2,18.79,20.73,20.73,0,0,0,40.31,0Z"/></clipPath><linearGradient id="linear-gradient" x1="282.15" y1="-106.12" x2="282.26" y2="-106.12" gradientTransform="translate(19513.26 51818.61) rotate(-90) scale(183.51)" gradientUnits="userSpaceOnUse"><stop offset="0" stop-color="#064367"/><stop offset="0" stop-color="#064367"/><stop offset="1" stop-color="#188f7a"/></linearGradient></defs><g class="cls-2"><rect class="cls-3" x="-0.29" width="77.69" height="41.1"/></g><path class="cls-4" d="M73,73.59a2.72,2.72,0,0,0,.36,1.34h-1v1.64H77.4V74.93H75a2,2,0,0,1-.3-1c0-.72.51-1,1.23-1a4.08,4.08,0,0,1,1,.12l.3-1.58a7.54,7.54,0,0,0-1.52-.18A2.36,2.36,0,0,0,73,73.59M12.86,58.67v7.22c0,3.76-1.82,5-4.74,5s-4.75-1.52-4.75-4.48a10.47,10.47,0,0,1,.87-4L1.16,61.42A13.43,13.43,0,0,0-.18,66.94c0,3.64,2.54,7.25,8.21,7.25,4.89,0,8.35-2.33,8.35-7.4V58.67ZM6.48,54.86a1.85,1.85,0,0,0,1.9,1.91,1.8,1.8,0,0,0,1.85-1.91A1.76,1.76,0,0,0,8.38,53a1.8,1.8,0,0,0-1.9,1.88m13.84-5.48v14c0,3.76,1.73,5.58,6.62,5.58h2.88c2.36,0,3.76-.57,4.6-1.4,1,1.1,2.53,1.4,4.23,1.4A6.1,6.1,0,0,0,43,67.59,5.91,5.91,0,0,0,47,69a5.6,5.6,0,0,0,4.41-1.76C52.2,68.34,53.57,69,55.75,69H68.81c1.67-7.43-.15-12.8-7.49-12.8a12.9,12.9,0,0,0-4.09.68l.78,3a11.92,11.92,0,0,1,3-.42c4.66,0,5.16,3.79,4.72,6.39h-10c-2,0-3.2-.93-3.2-3V56.5H49v6.26c0,2.09-.47,3.05-2.44,3.05-1.58,0-2.39-.66-2.39-2V58.67H40.68v4.18c0,2.18-.62,3-2.48,3-1.4,0-2.32-.54-2.32-2V58.67H32.36v4.18c0,2.18-.66,3-2.54,3H26.94c-2.18,0-3.1-.78-3.1-2.51V49.38ZM73.13,69h3.52V49.38H73.13Z"/><path class="cls-4" d="M0,86.26a3.24,3.24,0,0,1,.17-1l.53.14a3.17,3.17,0,0,0-.12.74c0,.76.58,1.07,1.83,1.07s1.8-.29,1.8-.69c0-.64-1.81-.72-1.81-1.83,0-.67.56-1.16,1.49-1.16a3.39,3.39,0,0,1,.78.11l-.1.54a2.47,2.47,0,0,0-.7-.1c-.56,0-.88.23-.88.58,0,.79,1.8.73,1.8,1.8a1.07,1.07,0,0,1-.64.94,3.63,3.63,0,0,1-1.74.36C.81,87.81,0,87.29,0,86.26M1.51,88.8a.35.35,0,0,1,.36-.36.36.36,0,0,1,0,.72.35.35,0,0,1-.36-.36m1,0a.36.36,0,1,1,.36.36.35.35,0,0,1-.36-.36"/><path class="cls-4" d="M7.79,86.08c.09,0,.14.09.14.27s0,.27-.14.27h-1v0a1.5,1.5,0,0,1-1.45,1.28l-.12-.53c.75-.11,1-.43,1-1.19V83.66h.57v2.42Z"/><path class="cls-4" d="M10.31,86.35q0,.27-.15.27A1.24,1.24,0,0,1,9,86.11a1.32,1.32,0,0,1-1.18.51h0v-.54h0c.59,0,.81-.28.81-1V83.66h.57v1.59c0,.55.31.83.94.83q.15,0,.15.27M8.69,87.61a.36.36,0,1,1-.71,0,.36.36,0,1,1,.71,0m1,0a.34.34,0,0,1-.34.36A.35.35,0,0,1,9,87.61a.35.35,0,0,1,.37-.36.34.34,0,0,1,.34.36"/><path class="cls-4" d="M14.13,86.08c.09,0,.14.09.14.27s0,.27-.14.27h-4v-.54h2.53c.13-.63.09-2-1.37-2a3,3,0,0,0-.78.13l-.13-.51a3,3,0,0,1,1-.17,1.77,1.77,0,0,1,1.56.68,2.61,2.61,0,0,1,.29,1.82Zm-3.08-3.7a.36.36,0,1,1,.71,0,.39.39,0,0,1-.09.26c-.2.21-.66.06-.62-.26"/><path class="cls-4" d="M14.13,86.08a.88.88,0,0,0,.67-.2,1.4,1.4,0,0,0,.16-.77v-4h.56v4.23c0,.83-.46,1.26-1.39,1.26Z"/><rect class="cls-4" x="16.61" y="81.13" width="0.57" height="5.49"/><path class="cls-4" d="M24.77,86.08c.09,0,.14.09.14.27s-.05.27-.14.27h-.88A1.84,1.84,0,0,1,22,87.81a2.05,2.05,0,0,1-1.4-.46A1.57,1.57,0,0,1,20,86.11a3.22,3.22,0,0,1,.31-1.29l.5.18a3.9,3.9,0,0,0-.23,1.06q0,1.2,1.38,1.2t1.41-1.35V81.13H24v5Z"/><path class="cls-4" d="M29,86.08c.09,0,.14.09.14.27s-.05.27-.14.27H27.89a1.9,1.9,0,0,1-1.25.38h-.43a2,2,0,0,1-.39-.38H24.77v-.54h.74a1.84,1.84,0,0,1-.12-.66,1.48,1.48,0,0,1,.45-1.11A1.6,1.6,0,0,1,27,83.89a1.27,1.27,0,0,1,1.08.45,1.71,1.71,0,0,1,.34,1.09,1.74,1.74,0,0,1-.11.65Zm-2.2.38a1,1,0,0,0,1.06-1.08.85.85,0,0,0-.9-.95.91.91,0,0,0-1,1,1.44,1.44,0,0,0,.42,1Z"/><path class="cls-4" d="M33.23,86.08c.09,0,.15.09.15.27s-.06.27-.15.27h-.48A5.07,5.07,0,0,1,31,86.35a4.82,4.82,0,0,1-1.76.27H29v-.54h.35a4.37,4.37,0,0,0,1.24-.14c-.2-.26-.41-.51-.72-.86l-.36-.4a2.73,2.73,0,0,1,.13-.61,2.84,2.84,0,0,1,1.56-.47c.86,0,1.41.4,1.41,1.08a1.57,1.57,0,0,1-.87,1.3,4.71,4.71,0,0,0,1,.1ZM30,84.47a8.12,8.12,0,0,1,1.17,1.25c.55-.27.88-.61.88-1s-.34-.61-.95-.61a2.26,2.26,0,0,0-1.09.29Z"/><path class="cls-4" d="M35.71,86.35c0,.18-.05.27-.14.27a1.28,1.28,0,0,1-1.15-.48,1.31,1.31,0,0,1-1.19.48v-.54a.86.86,0,0,0,.67-.2,1.32,1.32,0,0,0,.16-.77v-4h.57v4.12c0,.55.31.83.94.83.09,0,.14.09.14.27"/><path class="cls-4" d="M35.57,86.08a.88.88,0,0,0,.67-.2,1.32,1.32,0,0,0,.16-.77v-4H37v4.23c0,.83-.46,1.26-1.39,1.26Z"/><path class="cls-4" d="M43.7,86.35c0,.18-.05.27-.14.27-.66,0-1.07-.13-1.22-.38a2.28,2.28,0,0,1-1,.22c-.92,0-1.52-.48-1.52-1.3s.65-1.5,1.73-1.5h1.22v1.69c0,.58.2.73.79.73.09,0,.14.09.14.27M42.18,84.2h-.74c-.62,0-1,.32-1,.9s.33.81,1,.81a1.54,1.54,0,0,0,.79-.18Zm-1.51-1.74a.36.36,0,1,1,.35.36.34.34,0,0,1-.35-.36m1,0a.36.36,0,1,1,.36.36.35.35,0,0,1-.36-.36"/><path class="cls-4" d="M46.08,86.35q0,.27-.15.27a1.25,1.25,0,0,1-1.16-.51,1.29,1.29,0,0,1-1.17.51h0v-.54h0c.59,0,.81-.28.81-1V83.66H45v1.59c0,.55.31.83.94.83q.15,0,.15.27m-1.62,1.26a.35.35,0,0,1-.36.36.35.35,0,0,1-.35-.36.36.36,0,1,1,.71,0m1,0a.36.36,0,1,1-.71,0,.36.36,0,1,1,.71,0"/><path class="cls-4" d="M48.46,86.35c0,.18-.05.27-.14.27a1.25,1.25,0,0,1-1.17-.51,1.35,1.35,0,0,1-1.22.51v-.54c.64,0,.88-.26.88-1V83.66h.56v1.59c0,.55.31.83,1,.83.09,0,.14.09.14.27m-1.73-3.89a.36.36,0,1,1,.71,0,.35.35,0,0,1-.1.26c-.19.21-.65.06-.61-.26"/><path class="cls-4" d="M53.31,84.1a2,2,0,0,1,.41,1.3,3.89,3.89,0,0,1-.2,1.22h-5.2v-.54H49v-5h.57v4.06a3.25,3.25,0,0,1,2.51-1.61,1.41,1.41,0,0,1,1.19.52m-.25,2a2.63,2.63,0,0,0,.09-.67c0-.75-.38-1.28-1.09-1.28a2.09,2.09,0,0,0-1.25.51,4.56,4.56,0,0,0-1.18,1.44Z"/><path class="cls-4" d="M55,87.35c1.21.08,1.81-.22,1.81-.89a1.85,1.85,0,0,1-.78.16,1.36,1.36,0,0,1-1.49-1.45,1.64,1.64,0,0,1,.4-1.12A1.4,1.4,0,0,1,57.4,85v1.35a1.48,1.48,0,0,1-.46,1.13,2.3,2.3,0,0,1-1.55.43h-.34ZM56.84,86v-.77q0-1.05-.84-1.05a.87.87,0,0,0-.86,1c0,.63.33,1,1,1a2,2,0,0,0,.71-.11"/><path class="cls-4" d="M64,86.35q0,.27-.15.27c-.66,0-1.06-.13-1.22-.38a2.24,2.24,0,0,1-1,.22c-.92,0-1.53-.48-1.53-1.3a1.52,1.52,0,0,1,1.73-1.5h1.23v1.69c0,.58.2.73.78.73q.15,0,.15.27M62.47,84.2h-.74c-.61,0-1,.32-1,.9s.34.81,1,.81a1.5,1.5,0,0,0,.78-.18ZM61,82.46a.35.35,0,0,1,.36-.36.36.36,0,0,1,0,.72.35.35,0,0,1-.36-.36m1,0a.35.35,0,0,1,.36-.36.36.36,0,0,1,0,.72.35.35,0,0,1-.36-.36"/><path class="cls-4" d="M71,86.08q.15,0,.15.27t-.15.27H65.88a1.05,1.05,0,0,1-1-.4c-.16.27-.51.4-1.06.4v-.54c.53,0,.74-.24.74-.91v-1h.56v1.29a.53.53,0,0,0,.4.56c.91-1.64,1.92-2.46,3-2.46s1.61.72,1.61,1.82a3.34,3.34,0,0,1-.07.68Zm-1.47,0a2.54,2.54,0,0,0,.09-.65c0-.77-.4-1.3-1.1-1.3s-1.6.65-2.36,2Z"/><path class="cls-4" d="M73.52,86.35c0,.18,0,.27-.14.27a1.25,1.25,0,0,1-1.17-.51,1.35,1.35,0,0,1-1.22.51v-.54c.64,0,.88-.26.88-1V83.66h.56v1.59c0,.55.31.83.95.83.09,0,.14.09.14.27m-1.73-3.89a.36.36,0,1,1,.71,0,.35.35,0,0,1-.1.26c-.19.21-.65.06-.61-.26"/><path class="cls-4" d="M75.56,83.58a1.34,1.34,0,0,1,1.06.44A1.56,1.56,0,0,1,77,85.11c0,.88-.51,1.51-1.68,1.51H73.38v-.54h.93a1.57,1.57,0,0,1-.32-1,1.48,1.48,0,0,1,.45-1.1,1.58,1.58,0,0,1,1.12-.43m-.18,2.5a.91.91,0,0,0,1-1,.92.92,0,1,0-1.84,0,1.53,1.53,0,0,0,.38,1Z"/></svg>