<svg xmlns="http://www.w3.org/2000/svg" viewBox="0 0 180.17 30"><defs><style>.cls-1{fill:#204571;}</style></defs><g id="Layer_2" data-name="Layer 2"><g id="Layer_1-2" data-name="Layer 1"><g id="Group_10960" data-name="Group 10960"><path id="Path_10415" data-name="Path 10415" class="cls-1" d="M127.58,14.21a10.63,10.63,0,0,0-1.12.4c-.53.21-1,.46-1.57.65a.84.84,0,0,1-.66,0,3.53,3.53,0,0,1-1.37-2l-.16-.56.62.11a10.44,10.44,0,0,1,1.46.28c.34.1.46,0,.54-.3.11-.46.23-.92.37-1.36s.35-.9.5-1.35c0-.06-.07-.2-.13-.23a7.9,7.9,0,0,0-1-.27,2.64,2.64,0,0,0-2.35.22,4.12,4.12,0,0,0-1.4,2.12,11.37,11.37,0,0,0-.39,2.71,7.53,7.53,0,0,0,.15,1.33c0,.13,0,.36-.11.4a2.62,2.62,0,0,1-.78.24c-.56.09-1.13.13-1.7.2a2.42,2.42,0,0,1-.45.1c-.17,0-.48-.09-.49-.17-.09-.64-.13-1.29-.18-1.94s-.11-1.57-.18-2.36-.17-1.65-.22-2.47c-.08-1.23-.12-2.45-.2-3.68,0-.64-.11-1.29-.18-1.93a1.43,1.43,0,0,0-.08-.22,2,2,0,0,0-.3.34c-.39.62-.79,1.24-1.12,1.89a3.49,3.49,0,0,0-.37,1.13c-.05.49,0,1,0,1.48a.44.44,0,0,1-.16.34c-.43.27-.89.49-1.32.75s-1.12.71-1.65,1.1a12.38,12.38,0,0,0-2,1.73,9.76,9.76,0,0,0-1.31,2.31,8.37,8.37,0,0,0-.4,2,2.08,2.08,0,0,0,1.73,2.07l1.34.34a.15.15,0,0,1,.11.08.16.16,0,0,1,0,.11A21.61,21.61,0,0,1,108.77,21a11.77,11.77,0,0,1-2.86.72,7,7,0,0,1-3.21-.15,4.47,4.47,0,0,1-1.54-.85c-.52-.5-.51-1.14-.71-1.71-.08-.23.1-.56.17-.84a19.14,19.14,0,0,1,.58-2c.32-.78.76-1.51,1.12-2.27a6,6,0,0,0,.23-.72l-.17-.09a3.41,3.41,0,0,0-.45.48c-.28.44-.52.9-.79,1.34s-.51.79-.73,1.2c-.3.65-.55,1.32-.79,2a6.83,6.83,0,0,0-.5,1.59,22,22,0,0,0-.05,2.3,2.82,2.82,0,0,0,.81,1.94,4.47,4.47,0,0,0,2.4,1.36,5.62,5.62,0,0,0,3-.21,17.2,17.2,0,0,0,1.9-.7,24.49,24.49,0,0,0,2.28-1.17,10.64,10.64,0,0,0,1.74-1.25,19,19,0,0,0,2-2.11,3,3,0,0,0,.82-2.39,1.26,1.26,0,0,0-.77-1c-.66-.25-1.38-.34-2-.6a15.47,15.47,0,0,1-1.7-.92,11.56,11.56,0,0,1,1.07-.92,15.07,15.07,0,0,1,1.61-.91c.5-.24,1-.41,1.55-.62.25-.1.48-.23.73-.35.51-.24.62-.16.65.43s.11,1.06.16,1.6c.08,1,.17,2,.24,3s.12,2,.21,3c0,.14.21.37.33.37a3.61,3.61,0,0,0,.87-.16l2.17-.53,1.26-.28c.26-.06.53-.11.78-.19.54-.16,1.09-.32,1.62-.5s1.34-.44,2-.68a6,6,0,0,0,1-.48,3.93,3.93,0,0,0,1.13-.8,5.29,5.29,0,0,0,.64-1.36,9.31,9.31,0,0,0,.4-1C128,14.26,127.84,14.13,127.58,14.21Z"/><path id="Path_10416" data-name="Path 10416" class="cls-1" d="M64.13,2.92c0-.11.05-.22.07-.33a1.6,1.6,0,0,0-.44,0,1.34,1.34,0,0,0-.4.23c-.43.28-.85.6-1.29.85-.69.4-1.41.75-2.11,1.15-.85.49-1.69,1-2.53,1.52-.44.27-1,.45-1.26.84a10.2,10.2,0,0,0-.76,2.06A10.21,10.21,0,0,1,55,10.36a8.33,8.33,0,0,1-.9,1.55,1.75,1.75,0,0,0-.35,1.43c0,.15.1.3.12.45.08.94.18,1.88.23,2.82s0,2,0,3a.74.74,0,0,1-.51.81,12.19,12.19,0,0,1-1.8.58c-.53.12-1.09.13-1.64.2-.14,0-.27.08-.41.09-.68.05-1.36.08-2.1.12a11.7,11.7,0,0,0,.78-1.07,14.21,14.21,0,0,0,.74-1.52,4.21,4.21,0,0,0,.21-3.08,1.43,1.43,0,0,0-1.83-.7,11.23,11.23,0,0,0-1.77,1.6,9,9,0,0,0-1,1.48c-.38.65-.72,1.32-1.12,2s-.32,1.47-1.34,1.33h0c-.76.12-1.51.25-2.27.36a.3.3,0,0,1-.25-.17c-.09-.53-.18-1.06-.22-1.59-.07-1-.12-1.94-.18-2.9s-.11-1.8-.16-2.71c-.09-1.52-.18-3-.26-4.55a2.64,2.64,0,0,0,0-.4c-.06-.35-.13-.7-.19-1-.1.06-.29.1-.35.2-.31.57-.6,1.16-.88,1.75a6.75,6.75,0,0,0-.41,1.14c0,.15.15.33.16.51.08.85.13,1.71.18,2.56s.11,1.9.17,2.85.16,2.13.23,3.19c.07,1.33.13,2.66.19,4a2.62,2.62,0,0,0,0,.28.48.48,0,0,0,.57.41.27.27,0,0,0,.12,0,2.72,2.72,0,0,1,.55-.18c.14,0,.29,0,.42-.07l1.79-.5c.43-.12.86-.23,1.3-.31a1.45,1.45,0,0,1,.85,0,2.52,2.52,0,0,0,1.56.51,13.62,13.62,0,0,0,3.19-.19c1-.3,2-.38,3-.62a5.16,5.16,0,0,0,2.45-1.35,7.18,7.18,0,0,0,.94-1,5.84,5.84,0,0,0,.66-1.38,14.91,14.91,0,0,0,.66-2.57A12.37,12.37,0,0,0,56,15.49c-.08-1-.17-2.06-.23-3.1,0-.62,0-1.25,0-1.88,0-.09,0-.23.08-.27.31-.21.63-.4.95-.59l1.41-.83L60,7.76l1.53-.89c.45-.27.9-.54,1.33-.83.24-.16.54-.34.63-.57A13.39,13.39,0,0,0,64,3.74C64,3.47,64.08,3.2,64.13,2.92ZM46.28,20.42a5.27,5.27,0,0,1-.81.15c-.19,0-.51-.11-.55-.24a1.22,1.22,0,0,1,0-.84,7.78,7.78,0,0,1,.82-1.07.61.61,0,0,1,1.09.2,6.18,6.18,0,0,1,.27.83.94.94,0,0,1-.86,1Z"/><path id="Path_10417" data-name="Path 10417" class="cls-1" d="M32.29,19.89a1.44,1.44,0,0,1-1.91-.7L30.31,19c-.13-.32-.36-.59-.48-.91a.86.86,0,0,1,.09-.5,8.12,8.12,0,0,1,1.69.2c.5.14.71.08.84-.41.21-.78.48-1.54.71-2.32.07-.24.12-.51-.3-.54a4.38,4.38,0,0,1-1.08-.2A2.15,2.15,0,0,0,29,15.4a5.83,5.83,0,0,0-.62,1.37,8,8,0,0,0-.5,2,16.58,16.58,0,0,0,.17,2.44l-1,.15-1.22.17a2.41,2.41,0,0,1-.41.13c-.24,0-.68,0-.69-.11-.1-.75-.13-1.51-.2-2.27,0-.56-.1-1.12-.14-1.68-.09-1.07-.18-2.13-.24-3.19-.08-1.25-.13-2.51-.19-3.76,0,0,0-.07,0-.08s-.11-.15-.16-.15a.27.27,0,0,0-.22.11c-.45.75-.86,1.51-1.33,2.24A1.64,1.64,0,0,0,22,14c.11.81.12,1.64.19,2.45s.16,1.72.22,2.59a8.42,8.42,0,0,1,0,1.42.71.71,0,0,1-.39.53,12.67,12.67,0,0,1-1.5.38c-.41.1-.81.24-1.22.35-.23,0-.44.07-.45-.3,0-.71-.1-1.42-.15-2.13-.08-1.15-.16-2.3-.25-3.45a6.92,6.92,0,0,0-.21-1.69,1.49,1.49,0,0,0-.81-.86,1.92,1.92,0,0,0-2,.67,14.06,14.06,0,0,0-1.3,1.69,13.13,13.13,0,0,0-1,1.72,12.23,12.23,0,0,0-.9,2.15,1.69,1.69,0,0,0,.2,1.68,2.37,2.37,0,0,0,1,.7,2.78,2.78,0,0,0,2.57-.65,1.24,1.24,0,0,1,.5-.17,4.2,4.2,0,0,1,.22.79c0,1,0,2,.06,3,0,.18.22.49.31.49A4.22,4.22,0,0,0,18.1,25c.54-.16,1.08-.37,1.63-.48a3,3,0,0,0,1.61-.71L22.6,22.5c.07.83.15,1.61.18,2.4,0,.37.16.48.48.42s.68-.17,1-.26c.65-.17,1.28-.36,1.93-.51.39-.09.8-.13,1.19-.2s.64-.11,1-.2c.6-.17,1.19-.36,1.79-.54a5.83,5.83,0,0,0,.71-.22l1.56-.73a5.2,5.2,0,0,0,1.3-.68,3.36,3.36,0,0,0,.61-1.17,10.9,10.9,0,0,0,.39-1.09c.07-.26.11-.52.17-.77a4.25,4.25,0,0,0-.51.14Zm-17-1.28c-.34-.16-.7-.29-1-.47a.65.65,0,0,1-.2-.91l.1-.12c.33-.25.53-.68,1-.73.36,0,1,.31,1,.69,0,.21,0,.42,0,.63h0V18a.67.67,0,0,1-.68.66A.56.56,0,0,1,15.27,18.61Z"/><path id="Path_10418" data-name="Path 10418" class="cls-1" d="M87.51,12.11c-.4-.1-.31-.3-.25-.5a8.54,8.54,0,0,0,.37-.9c.21-.94.38-1.89.53-2.84,0-.21-.16-.45-.17-.68-.07-1.58-.13-3.17-.19-4.75,0-.5,0-1,0-1.49a3.78,3.78,0,0,0-.19-.63,7,7,0,0,0-.52.66,13.24,13.24,0,0,0-.79,1.3,4.14,4.14,0,0,0-.51,1.29,11,11,0,0,0,.12,1.62c.07,1,.13,2.07.17,3.1,0,.81,0,1.62,0,2.42a.56.56,0,0,1-.21.43c-.29.14-.6.27-.91.39a2.28,2.28,0,0,0-.85.43,3.66,3.66,0,0,0-.47.95c-.23.5-.5,1-.68,1.51-.07.2,0,.63.11.67a5,5,0,0,0,1.16.19c.83.09,1.66.16,2.49.27.12,0,.23.19.34.28a1.44,1.44,0,0,1-.28.27,11.17,11.17,0,0,1-1.24.64c-.71.3-1.42.57-2.15.81-.56.19-1.14.3-1.71.45a18.18,18.18,0,0,1-2.06.5c-.56.09-1.14,0-1.7.05s-.55-.26-.62-.56a.79.79,0,0,0-.91-.64.76.76,0,0,0-.21.08c-.65.21-1.33.32-2,.53a10.27,10.27,0,0,0-1.68.7c-.87.49-.91,1.5-1.32,2.29a1.4,1.4,0,0,1-.44.55,2.45,2.45,0,0,1-.78.25c-.85.19-1.71.36-2.56.54l-.22,0-2,.52a11.5,11.5,0,0,0-1.39.39c-.12,0-.22.47-.2.48a12.6,12.6,0,0,0,1.46.63c.48.17,1,.31,1.46.44.68.2,1.37.37,2.06.5.3,0,.63-.16,1-.17,1-.06,1.45-.85,1.93-1.56.23-.35.39-.74.62-1.08a4.19,4.19,0,0,1,.65-.68,2.7,2.7,0,0,1,.74-.46c.34-.14.71-.2,1.06-.32.61-.21.92,0,1,.62a.7.7,0,0,0,.5.43,11.95,11.95,0,0,0,3.77-.61c.66-.2,1.3-.45,2-.69s1.42-.49,2.1-.81a19.62,19.62,0,0,0,1.77-1.05,6.5,6.5,0,0,0,1.25-.9A12.89,12.89,0,0,0,88,16.39c.3-.47.58-1,.86-1.43a3.16,3.16,0,0,0,.45-.9c.07-.39.16-1,0-1.17A5.24,5.24,0,0,0,87.51,12.11Z"/><path id="Path_10419" data-name="Path 10419" class="cls-1" d="M161.28,11.57c-.06-1.21-.15-2.41-.23-3.62a1.72,1.72,0,0,0-.07-.21,5.57,5.57,0,0,0-.5.59c-.36.58-.72,1.16-1,1.76a2.09,2.09,0,0,0-.28,1c0,.62.14,1.23.18,1.85.08,1.22.14,2.45.18,3.68,0,1,0,2,0,3a.46.46,0,0,1-.2.38c-.42.18-.87.32-1.31.46s-.6.15-.9.25a2.91,2.91,0,0,1-2-.2,4.41,4.41,0,0,1-.42-1c0-.11-.09-.23-.13-.34-.13.06-.32.08-.37.18a7.31,7.31,0,0,0-.64,1.56c-.14.66-.28.92-.93,1-1,.14-1.92.33-2.9.38a13.68,13.68,0,0,0-4.07.59,2.11,2.11,0,0,0-.4.26c.13.17.23.4.4.49.49.25,1,.48,1.51.69s1.12.44,1.69.64a7.79,7.79,0,0,1,.83.22,2.72,2.72,0,0,0,2.52-.28c.37-.38.69-.81,1-1.22.17-.2.32-.32.59-.06a1.81,1.81,0,0,0,1.52.57,5.64,5.64,0,0,0,1.35-.38,8,8,0,0,0,2.06-1,8.45,8.45,0,0,0,1.9-2.14,7,7,0,0,0,.78-2.36,11.28,11.28,0,0,0,0-2.25C161.41,14.55,161.36,13.06,161.28,11.57Z"/><path id="Path_10420" data-name="Path 10420" class="cls-1" d="M142.08,10.78c-.08-1.16-.16-2.32-.23-3.47,0-.45,0-.9,0-1.36l-.15,0c-.15.19-.31.38-.45.58-.25.39-.49.78-.73,1.18a5.58,5.58,0,0,0-.57,1,2.08,2.08,0,0,0,0,.86c.07.88.17,1.75.22,2.62.08,1.41.13,2.83.19,4.24,0,.43,0,.86,0,1.28,0,.68.07,1.35.1,2a.14.14,0,0,1,0,.1c-.33.21-.65.43-1,.63a4.44,4.44,0,0,1-.76.37,10.23,10.23,0,0,1-1.93.66,11.66,11.66,0,0,1-2.13,0A1.6,1.6,0,0,1,133,19.94v-.12a6.31,6.31,0,0,1,0-1,3,3,0,0,1,.23-.82c.22-.53.48-1.05.73-1.57a9.77,9.77,0,0,0,.49-1,1.72,1.72,0,0,0,0-.64,1.58,1.58,0,0,0-.39.24,2,2,0,0,0-.2.38c-.3.57-.62,1.13-.88,1.71a13.92,13.92,0,0,0-.62,1.67,9,9,0,0,0-.49,2,9.15,9.15,0,0,0,.19,1.95,2.51,2.51,0,0,0,.21.77,3.09,3.09,0,0,0,2.16,1.72,3.87,3.87,0,0,0,2.28-.22,4.3,4.3,0,0,0,.57-.2c.49-.28.95-.62,1.45-.88a5.36,5.36,0,0,0,2-2A15.73,15.73,0,0,0,142,19.16a5.76,5.76,0,0,0,.35-2c0-1.37-.08-2.73-.14-4.1C142.2,12.31,142.14,11.55,142.08,10.78Z"/><path id="Path_10421" data-name="Path 10421" class="cls-1" d="M93.69,16.9c-.09-1-.16-2.08-.23-3.13s-.13-2.16-.18-3.25c0-.6,0-1.2,0-1.79,0-.13-.11-.25-.18-.38a1.88,1.88,0,0,0-.35.34c-.28.43-.5.91-.8,1.33a2.31,2.31,0,0,0-.69,1.69c0,.21.12.41.14.62.07,1.37.12,2.74.18,4.1.07,1.55.14,3.1.2,4.65v.05a1.77,1.77,0,0,0,.26.35s.22-.09.28-.18c.39-.6.8-1.19,1.14-1.82A13.74,13.74,0,0,0,94,18.1l-.1-.07C93.82,17.66,93.72,17.28,93.69,16.9Z"/><path id="Path_10422" data-name="Path 10422" class="cls-1" d="M145.33,21.49a.24.24,0,0,0,.2,0c.16-.23.31-.47.46-.71.27-.43.54-.85.8-1.29a2.84,2.84,0,0,0,.34-.78,5.91,5.91,0,0,0,0-1h.05c-.07-.52-.16-1-.2-1.56-.1-1.18-.18-2.36-.25-3.53-.07-1.32-.12-2.64-.18-4V8.54c-.06-.06-.12-.18-.17-.17a.33.33,0,0,0-.23.14c-.41.64-.85,1.26-1.22,1.93a3.49,3.49,0,0,0-.39,1.18,5.24,5.24,0,0,0,.12,1.11l.15,1.82c.08,1,.17,2,.23,3,.08,1.24.12,2.49.19,3.73A.31.31,0,0,0,145.33,21.49Z"/><path id="Path_10423" data-name="Path 10423" class="cls-1" d="M166,15.45c-.08-1.43-.13-2.86-.2-4.3,0-.86-.11-1.72-.17-2.59,0,0,0,0,0-.05s-.1-.15-.16-.15a.23.23,0,0,0-.21.1c-.16.26-.3.53-.45.8s-.34.63-.54.92a1.87,1.87,0,0,0-.54,1.3c0,.31,0,.63,0,.94h-.05c.08.58.17,1.17.21,1.75.08,1.07.13,2.15.19,3.22l.24,3.9s0,.05,0,.05.27.13.31.1a4.57,4.57,0,0,0,.41-.57c.25-.42.5-.84.73-1.27s.58-.7.47-1.29A23,23,0,0,1,166,15.45Z"/><path id="Path_10424" data-name="Path 10424" class="cls-1" d="M77.34,24.56c-.49.1-1,.25-1.46.34s-1,.14-1.5.21a.23.23,0,0,0-.15.1c-.5.91-1,1.83-1.47,2.75,0,.05.18.31.26.3a8.08,8.08,0,0,0,1.08-.17c1-.18,1.93-.35,2.88-.57a1.06,1.06,0,0,0,.64-.43c.41-.73.78-1.5,1.14-2.27.06-.13,0-.33-.06-.46C78.13,24.44,77.74,24.48,77.34,24.56Z"/><path id="Path_10425" data-name="Path 10425" class="cls-1" d="M179.91,7.66a4.67,4.67,0,0,0-.65-1.15,1.59,1.59,0,0,0-.63-.42s-.2,0-.26.08l-1.25,1.29c-.36.36-.25.68.2.92a1.78,1.78,0,0,1,.85.82,5.51,5.51,0,0,1,.16,1.81,2.31,2.31,0,0,1-.4.92c-.1.18-.34.3-.41.48a1,1,0,0,0,0,.59.56.56,0,0,0,.44,0,4.1,4.1,0,0,0,1.27-1.41,5.92,5.92,0,0,0,.92-2.76A7.62,7.62,0,0,0,179.91,7.66Z"/><path id="Path_10426" data-name="Path 10426" class="cls-1" d="M174.85,6.37c-.15-.13-.47-.29-.55-.23a9.36,9.36,0,0,0-1.11,1.07c-.74.82-.53.83.06,1.3a2.73,2.73,0,0,1,1,1.09,2.49,2.49,0,0,1-.27,1.94c-.16.29-.42.52-.56.82a1.83,1.83,0,0,0,0,.66c.15,0,.35.05.45,0a4.93,4.93,0,0,0,1.74-2.31A10.43,10.43,0,0,0,176,8.86,3.31,3.31,0,0,0,174.85,6.37Z"/><path id="Path_10427" data-name="Path 10427" class="cls-1" d="M2.77,10.75A3.09,3.09,0,0,1,1.89,10a1.74,1.74,0,0,1-.2-1.61A2.5,2.5,0,0,1,2.36,7c.4-.35.44-.63,0-.94L2,6.29a2,2,0,0,0-.57.42,4.24,4.24,0,0,0-.66,1A8.55,8.55,0,0,0,0,9.88a3.86,3.86,0,0,0,.24,1.87,4.57,4.57,0,0,0,1,1.28.46.46,0,0,0,.41,0c.43-.4.83-.82,1.23-1.24a.73.73,0,0,0-.14-1Z"/><path id="Path_10428" data-name="Path 10428" class="cls-1" d="M6.88,10.75a1.52,1.52,0,0,1-1-1.07,3,3,0,0,1,.8-2.85c.12-.1,0-.44,0-.67,0,0-.14-.1-.18-.08A1.48,1.48,0,0,0,6,6.39,17.73,17.73,0,0,0,4.86,8a4.59,4.59,0,0,0-.76,2.38,5,5,0,0,0,.23,1,6.13,6.13,0,0,0,.84,1.39c.18.22.49.58.87.1a11.1,11.1,0,0,1,1-1C7.48,11.42,7.42,11,6.88,10.75Z"/><path id="Path_10429" data-name="Path 10429" class="cls-1" d="M150.16,15.62q.43-.36.84-.75a1.15,1.15,0,0,0,1.6.26,1,1,0,0,0,.19-.16,5.08,5.08,0,0,0,.54-1.42,4.57,4.57,0,0,0,.07-1c0-.2,0-.4,0-.6l-.31-.06c-.11.36-.21.72-.34,1.07s-.17.52-.35.61a.52.52,0,0,1-.72-.17.16.16,0,0,1,0-.07,5.38,5.38,0,0,1-.2-.79c0-.08-.06-.22-.11-.22a.34.34,0,0,0-.29.08.91.91,0,0,0-.17.42,1.38,1.38,0,0,1-.59,1.07,1.16,1.16,0,0,1-.78.23c-.43-.1-.63-.84-.45-1.28a1.94,1.94,0,0,0,0-.6c-.21.27-.38.38-.39.51-.08.72-.49,1.37-.25,2.18a1.13,1.13,0,0,0,1.36.85A1.17,1.17,0,0,0,150.16,15.62Z"/><path id="Path_10430" data-name="Path 10430" class="cls-1" d="M47,9c-.16.13-.22.36-.36.52-.36.46-.76.89-1.11,1.37-.13.18-.29.52-.21.64a7,7,0,0,0,.92,1l.72.63a3.59,3.59,0,0,0,.35-.32c.53-.7,1.06-1.4,1.57-2.12a.45.45,0,0,0,0-.41c-.45-.46-.91-.9-1.4-1.31A.52.52,0,0,0,47,9Z"/><path id="Path_10431" data-name="Path 10431" class="cls-1" d="M81.15,8.62c.44.58.66.59,1,0l.09-.1c.32-.37.66-.73,1-1.11a10.4,10.4,0,0,0,.56-.9c-.35-.37-.74-.74-1.08-1.14s-.83-.54-1.08-.16c-.08.12-.13.27-.22.38-.4.49-.83,1-1.19,1.48a.67.67,0,0,0,0,.6C80.5,8,80.88,8.27,81.15,8.62Z"/><path id="Path_10432" data-name="Path 10432" class="cls-1" d="M52.52,3.19c.22-.1.41-.23.63-.32.54-.22,1.09-.42,1.64-.62l1.78-.69a2.46,2.46,0,0,0,.85-.4A5.87,5.87,0,0,0,58.1,0c-.38.11-.62.16-.85.24-.61.21-1.21.42-1.8.64s-.9.34-1.35.51A3.7,3.7,0,0,0,53,1.84a4.56,4.56,0,0,0-.75,1.1c0,.06,0,.18,0,.27A.71.71,0,0,0,52.52,3.19Z"/><path id="Path_10433" data-name="Path 10433" class="cls-1" d="M42.61,7.59a2.72,2.72,0,0,0,.63-.2c.52-.24,1-.53,1.54-.73S46,6.24,46.65,6a1.79,1.79,0,0,0,.66-.26A4.1,4.1,0,0,0,48,5a2.26,2.26,0,0,0,.16-.58L46.54,5l-.78.28a12.15,12.15,0,0,1-1.62.6,2.38,2.38,0,0,0-1.7,1.41C42.41,7.34,42.57,7.59,42.61,7.59Z"/><path id="Path_10434" data-name="Path 10434" class="cls-1" d="M30.36,26.69c-.42.16-.83.34-1.25.49-.89.33-1.77.63-2.66.95a1.7,1.7,0,0,0-.62.3c-.35.39-.65.84-1,1.26l.11.13a1.82,1.82,0,0,0,.29-.08l.8-.33,1-.36,2.35-.94a2.24,2.24,0,0,0,.75-.39,2.77,2.77,0,0,0,.48-.74.78.78,0,0,0,0-.3A1.08,1.08,0,0,0,30.36,26.69Z"/><path id="Path_10435" data-name="Path 10435" class="cls-1" d="M121.13,6.55c.42-.17.85-.33,1.28-.48a8.25,8.25,0,0,0,1.36-.51,2.43,2.43,0,0,0,.61-.81,1,1,0,0,0,.1-.3l-.32-.09-.4.16c-.42.15-.84.31-1.26.45s-.77.26-1.15.41a7.18,7.18,0,0,1-1.19.47,1.46,1.46,0,0,0-1.07,1,5.59,5.59,0,0,0-.22.57c.2-.06.39-.11.58-.18C120,7,120.57,6.77,121.13,6.55Z"/><path id="Path_10436" data-name="Path 10436" class="cls-1" d="M24,26.87c-.28.1-.54.22-.81.33-.6.22-1.21.43-1.81.67s-1,.45-1.52.61a1.59,1.59,0,0,0-1.11,1.16,2.17,2.17,0,0,0,0,.36l.32-.16,1.77-.72,1.06-.42a15.74,15.74,0,0,0,1.71-.7,2.55,2.55,0,0,0,.64-.78,1.37,1.37,0,0,0,.11-.36A1.51,1.51,0,0,0,24,26.87Z"/></g></g></g></svg>