<svg width="383" height="333" viewBox="0 0 383 333" fill="none" xmlns="http://www.w3.org/2000/svg">
<g clip-path="url(#clip0_20755_102787)">
<path d="M374.916 202.83L373.57 203.724C372.312 203.586 371.225 203.516 370.149 203.36C365.968 202.754 361.794 202.092 357.611 201.512C353.235 200.905 348.847 200.392 344.469 199.79C339.079 199.048 333.702 198.201 328.304 197.523C327.703 197.473 327.12 197.288 326.595 196.98C326.07 196.671 325.617 196.248 325.266 195.738C320.155 188.787 315.024 181.851 309.873 174.931C308.8 173.485 307.693 172.072 308.203 170.084L306.662 168.616C305.266 168.584 303.866 169.714 302.667 167.891L303.936 164.368C302.748 164.182 303.464 162.72 302.755 162.222C299.057 164.362 297.177 163.928 294.845 160.358C294.311 160.18 293.836 159.85 293.473 159.405C293.11 158.96 292.875 158.419 292.793 157.842C292.683 156.828 292.36 155.852 291.845 154.983C291.331 154.115 290.638 153.375 289.816 152.818C288.976 150.164 289.307 147.24 287.892 144.825C284.731 143.985 284.195 140.539 281.958 138.866L282.233 137.563C281.844 135.928 281.545 134.658 281.247 133.404L279.324 132.957C279.289 132.236 279.272 131.645 279.231 131.058C279.19 130.47 279.124 129.88 279.061 129.197L280.665 127.354L282.271 128.917C282.296 128.824 282.342 128.737 282.403 128.664C282.726 128.36 283.063 128.073 283.375 127.802C283.491 125.504 283.491 125.504 282.67 124.187C280.398 123.077 279.956 122.755 279.716 121.143C279.452 119.347 279.401 117.515 279.23 115.351C278.907 115.166 278.568 115.012 278.218 114.89C276.142 114.376 274.328 113.068 273.137 111.227C272.137 109.579 270.909 108.472 268.789 109.067L266.968 106.917C266.906 106.093 266.857 105.436 266.809 104.798L265.582 104.709L265.079 103.385L263.455 102.012C263.851 100.417 265.285 101.242 266.36 100.305H262.467L261.579 98.9886L259.928 99.6751L258.235 98.4394V97.2957L257.106 95.9816L257.872 92.5998C257.26 91.6181 256.567 90.6942 255.8 89.8386C254.448 88.5534 253.574 87.168 253.959 85.4298L251.472 81.4369L252.335 79.5229C251.561 79.1771 250.746 78.9394 249.912 78.8158C246.451 78.8405 242.99 78.9997 239.529 79.0835C238.774 79.1013 238.016 79.0121 237.466 78.9833C236.683 78.3433 236.032 77.5454 235.552 76.6375C235.073 75.7297 234.774 74.7305 234.675 73.6998C234.503 71.8805 233.741 70.1763 232.513 68.868C229.965 68.5481 227.424 68.2364 224.886 67.9069C222.537 67.6021 220.194 67.2368 217.838 66.9869C217.03 66.8731 216.208 66.942 215.428 67.1888C212.78 68.1787 210.194 69.3527 207.549 70.3564C203.945 71.7043 200.978 74.4429 199.263 78.0043C198.453 79.5957 197.711 81.2282 196.844 82.7866C194.922 86.2398 193.598 90.0638 190.915 93.0474C190.42 93.5722 189.96 94.131 189.537 94.7198C188.106 96.8206 187.876 98.7964 190.147 100.158C190.76 100.533 191.29 101.035 191.706 101.634C192.122 102.233 192.414 102.914 192.564 103.636C192.65 104.297 192.942 104.91 193.396 105.382C195.172 106.8 197.139 107.939 199.234 108.762C200.913 109.122 202.417 110.083 203.483 111.479C203.983 112.261 204.673 112.89 205.483 113.304C206.293 113.718 207.194 113.901 208.094 113.835C209.91 113.746 211.695 114.342 213.122 115.512C214.302 116.433 215.541 117.274 216.736 118.178C217.111 118.49 217.551 118.706 218.02 118.809C218.49 118.912 218.976 118.899 219.44 118.772C220.404 118.604 221.38 118.516 222.357 118.508C222.822 118.869 223.259 119.266 223.666 119.696C225.822 122.534 228.793 124.584 232.146 125.548C232.839 125.741 233.445 126.181 233.858 126.791C234.272 127.401 234.467 128.142 234.409 128.885C234.518 132.282 234.673 135.679 234.721 139.076C234.79 144.019 234.778 148.962 234.8 153.905C234.821 158.361 234.316 157.839 238.174 160.533C241.265 162.816 244.092 165.461 246.6 168.417C248.068 170.114 249.06 172.197 249.467 174.439C250.24 178.171 249.686 181.869 249.248 185.572C248.928 188.277 248.61 190.982 248.293 193.688C247.98 196.397 247.691 199.109 247.369 201.818C246.912 205.712 246.431 209.602 245.973 213.489C245.661 216.13 245.384 218.778 245.067 221.418C244.609 225.243 244.123 229.065 243.658 232.889C243.217 236.519 242.801 240.153 242.349 243.781C241.906 247.341 241.407 250.895 240.976 254.456C240.529 258.153 240.157 261.86 239.71 265.556C239.125 270.373 238.469 275.18 237.897 279.998C237.318 284.883 236.832 289.779 236.257 294.663C235.677 299.571 235.038 304.471 234.457 309.119C235.137 308.011 235.834 306.658 236.726 305.464C239.479 301.767 242.28 298.109 245.128 294.49C245.811 293.618 246.65 292.891 247.598 292.35C252.251 289.787 256.935 287.289 261.65 284.856C262.744 284.316 263.907 283.942 265.103 283.748C268.008 283.234 270.927 282.862 273.841 282.425C278.022 281.798 282.198 281.154 286.379 280.533C290.305 279.95 294.236 279.392 298.162 278.812C302.406 278.184 306.653 277.576 310.889 276.902C313.561 276.593 316.198 276.015 318.763 275.176C332.888 269.917 347.027 264.699 361.179 259.523L370.535 256.078L382.502 215.973L374.92 202.819" fill="#E5E7EB"/>
<path d="M169.985 254.184C170.514 254.762 170.985 255.394 171.391 256.072C172.512 258.177 174.008 260.041 175.8 261.564C177.023 262.842 178.312 264.049 179.663 265.179C182.436 267.331 185.194 269.644 188.663 270.404C191.823 270.953 195.049 270.95 198.208 270.396C201.254 269.999 204.308 269.658 207.363 269.315C210.224 268.992 213.091 268.711 215.954 268.388C219.008 268.043 222.057 267.658 225.112 267.314C227.973 266.993 230.844 266.742 233.695 266.383C235.196 266.195 236.679 265.845 238.185 265.56C238.371 264.084 238.533 262.838 238.684 261.592C238.98 259.154 239.262 256.716 239.563 254.279C239.905 251.516 240.268 248.756 240.608 245.994C240.915 243.493 241.199 240.989 241.506 238.487C241.844 235.723 242.202 232.962 242.537 230.198C242.849 227.629 243.135 225.059 243.444 222.49C243.777 219.724 244.136 216.963 244.46 214.198C244.775 211.497 245.045 208.791 245.367 206.097C245.689 203.403 246.069 200.706 246.382 198.007C246.695 195.307 246.896 192.59 247.253 189.895C247.92 185.765 248.288 181.588 248.354 177.4C248.333 174.108 247.075 170.954 244.849 168.613C241.998 165.534 238.853 162.766 235.462 160.351C234.716 159.847 234.13 159.124 233.779 158.274C233.445 157.059 233.292 155.798 233.326 154.535C233.276 147.921 233.319 141.307 233.254 134.693C233.23 132.374 232.99 130.057 232.846 127.652C232.186 127.289 231.587 126.909 230.95 126.628C229.83 126.132 228.682 125.703 227.552 125.231C226.536 124.825 225.646 124.135 224.981 123.239C224.016 122.082 222.986 120.985 221.895 119.956L217.801 120.436C217.133 120.044 216.172 119.536 215.269 118.934C214.297 118.288 213.363 117.572 212.44 116.853C211.774 116.273 211.004 115.836 210.175 115.568C209.345 115.3 208.473 115.205 207.608 115.29C206.807 115.38 205.997 115.26 205.251 114.942C204.506 114.624 203.848 114.117 203.338 113.468L200.961 110.859C199.792 110.587 198.645 110.225 197.528 109.776C196.087 109.055 194.755 108.098 193.352 107.295C192.806 107.007 192.333 106.591 191.968 106.08C191.603 105.569 191.358 104.976 191.251 104.35C191.107 103.645 190.807 102.985 190.374 102.423C189.942 101.86 189.389 101.41 188.76 101.109C187.427 102.576 186.016 102.193 184.612 101.134C183.842 101.589 183.219 102.27 182.822 103.092C182.424 103.915 182.269 104.841 182.378 105.754C182.902 106.022 183.403 106.338 183.872 106.699C184.682 107.346 185.399 108.109 186.005 108.963C187.193 110.935 186.635 112.418 184.702 113.57C183.58 114.197 182.583 115.041 181.765 116.056C181.019 117.344 179.882 118.336 178.534 118.877C178.358 120.909 178.194 122.808 178.074 124.214L183.526 132.289L183.161 132.445C183.557 134.093 183.965 135.74 184.349 137.388C184.733 139.036 185.009 140.656 183.537 142.279H171.058C170.626 142.782 170.233 143.32 169.883 143.888C169.19 145.234 168.224 146.407 167.052 147.327C165.881 148.248 164.531 148.893 163.097 149.218C162.228 149.438 161.347 149.611 160.466 149.768C158.989 149.99 157.655 150.806 156.751 152.04C155.982 153.097 155.231 154.168 154.479 155.223C154.606 155.642 154.761 156.051 154.943 156.447C155.258 156.998 155.385 157.643 155.302 158.277C155.219 158.912 154.932 159.499 154.487 159.942C154.139 160.38 153.671 160.698 153.146 160.853C152.62 161.008 152.061 160.993 151.544 160.81C150.476 160.66 149.396 160.644 148.324 160.763C147.57 160.891 146.807 160.947 146.043 160.93C143.979 160.582 141.834 160.538 139.943 159.393C139.419 159.157 138.874 158.977 138.315 158.854C137.638 159.738 137.034 160.68 136.509 161.669C135.893 163.085 135.501 164.606 134.829 166.644C134.612 170.214 134.356 174.421 134.117 178.361C135.021 179.242 135.819 180.233 136.494 181.313C137.31 182.974 137.888 184.749 138.211 186.583C138.76 189.111 139.564 191.571 140.609 193.923C140.79 194.567 141.182 195.123 141.717 195.498C142.251 195.872 142.895 196.04 143.536 195.972C145.58 195.99 147.63 196.144 149.663 196.35C150.355 196.35 151.033 196.549 151.621 196.926C152.21 197.303 152.687 197.843 152.998 198.485C152.858 199.925 152.711 201.431 152.582 202.741C154.057 205.531 155.954 203.687 157.67 203.627C161.041 204.438 161.041 204.438 161.79 205.515C161.47 206.725 161.279 207.968 161.219 209.222C161.339 211.34 161.621 213.446 162.062 215.517C162.264 216.493 162.129 217.511 161.681 218.394C161.471 218.817 161.234 219.226 160.972 219.617C160.69 222.659 160.444 225.357 160.139 228.611C161.961 231.445 163.667 235.037 166.572 237.777C167.441 238.662 168.247 239.61 168.984 240.615C169.635 241.439 170.172 242.359 170.85 243.158C172.733 245.388 172.844 246.025 171.343 248.62C170.386 250.295 169.917 252.223 169.993 254.17" fill="#E5E7EB"/>
<path d="M82.7959 190.793C84.4941 191.745 86.2041 189.744 87.5722 191.377L88.1862 193.063C90.8695 192.42 93.3217 190.957 96.0907 191.658C97.4746 193.256 97.4746 193.256 96.0287 198.676C99.2877 199.214 99.7644 201.618 99.3484 204.537L100.953 205.159C101.827 204.473 102.713 203.825 103.553 203.114C103.964 202.737 104.467 202.485 105.007 202.387C105.546 202.289 106.102 202.348 106.611 202.557C107.376 202.832 108.175 203.001 108.927 203.208C109.251 202.899 109.542 202.554 109.794 202.178C110.634 200.596 111.818 199.238 113.252 198.214C114.853 196.988 116.385 195.667 117.841 194.257C119.056 192.787 120.625 191.678 122.389 191.047C122.595 190.994 122.752 190.731 123.034 190.472C122.01 189.394 120.298 189.202 119.955 187.491C120.103 186.881 120.388 186.317 120.787 185.844C121.185 185.371 121.686 185.003 122.247 184.77C123.58 183.983 124.975 183.306 126.366 182.63C126.92 182.408 127.425 182.069 127.847 181.635C128.27 181.201 128.602 180.681 128.822 180.107C128.69 178.871 128.518 177.373 128.369 176.03C129.472 173.907 131.303 174.649 132.879 174.538C133.09 171.38 133.293 168.331 133.493 165.355L135.036 162.519C132.683 160.019 132.7 160.013 131.837 156.525C131.59 155.682 131.303 154.853 130.976 154.041C130.273 153.832 129.787 153.702 129.299 153.541C126.981 152.772 126.35 151.521 126.67 149.032C126.777 147.506 126.789 145.975 126.705 144.447C126.495 144.266 126.325 144.009 126.102 143.941C122.748 142.849 119.297 142.11 115.802 141.735C114.818 141.547 113.803 141.67 112.888 142.088C111.972 142.506 111.198 143.2 110.666 144.081C110.306 144.683 109.785 145.162 109.166 145.46C108.548 145.759 107.859 145.863 107.184 145.76C105.323 145.635 103.462 146.014 101.783 146.858C101.137 147.152 100.472 147.4 99.7934 147.602C99.3363 147.774 98.8469 147.831 98.3645 147.77C97.8822 147.709 97.4203 147.531 97.0161 147.251C96.6119 146.97 96.2767 146.595 96.0373 146.155C95.7979 145.716 95.6611 145.224 95.6378 144.719C95.6036 143.721 95.6274 142.721 95.7091 141.726C95.7729 140.684 95.768 139.638 95.6946 138.597C95.412 136.188 94.4876 133.873 95.1532 131.343C95.5028 129.632 95.7511 127.9 95.8966 126.157C94.25 126.157 92.8 125.922 92.4924 123.772C93.3573 121.806 94.7372 119.653 92.2573 117.73C90.1023 118.116 88.0423 118.624 85.9559 118.822C83.4773 119.055 80.938 119.298 78.9203 117.13C78.3966 116.755 77.8214 116.463 77.2142 116.265C76.5367 115.904 75.8765 115.505 75.207 115.128C75.1052 115.079 74.9996 115.038 74.8914 115.006L73.5075 115.647L70.5773 114.453C69.0046 115.12 68.0908 117.272 66.0559 116.042L65.7364 114.071L64.1953 112.728L63.6751 111.012C63.2862 110.933 62.8918 110.887 62.4958 110.875C61.6593 110.98 60.8125 110.804 60.0789 110.372C59.3453 109.941 58.7634 109.278 58.4181 108.479C57.9348 107.471 57.4938 106.44 57.0514 105.413C56.8005 104.833 56.58 104.24 56.2935 103.523C55.418 104.001 54.7088 104.313 54.0803 104.744C53.3102 105.363 52.3624 105.696 51.3889 105.688C50.4153 105.681 49.4724 105.334 48.7111 104.703C48.2035 104.289 47.5852 104.047 46.9407 104.012C46.2962 103.976 45.6569 104.149 45.1101 104.505C43.7223 105.264 42.2803 105.914 40.9717 106.558C41.5729 106.721 42.1049 107.087 42.4835 107.599C42.862 108.112 43.0656 108.74 43.062 109.386C43.0726 111.309 42.9736 113.231 42.9036 115.788C43.0132 117.055 44.1211 117.925 45.8945 118.396C48.1724 119.007 48.6095 120.478 47.4567 122.675C46.9998 123.545 46.5548 124.421 46.123 125.262L47.8858 129.316C50.0159 129.552 51.9998 130.554 53.494 132.15C53.6709 132.308 53.696 132.636 53.832 132.857C54.2 133.677 54.6972 134.427 55.3031 135.076C57.0553 136.455 58.2536 138.461 58.6664 140.706C58.7919 141.277 58.9899 141.83 59.1589 142.403L60.9628 142.752C61.3897 143.089 61.7042 143.557 61.8617 144.089C62.0193 144.622 62.012 145.193 61.8409 145.721C61.5583 147.688 61.3391 149.67 61.2467 151.654C61.1952 152.767 61.5345 153.895 61.5491 155.017C61.5874 158.09 60.0265 159.328 57.1188 158.624C56.9293 158.625 56.7407 158.651 56.5576 158.701C55.9013 159.634 55.0259 160.376 54.0148 160.857C53.0038 161.338 51.8911 161.541 50.783 161.447C50.5534 161.845 50.4381 162.304 50.4507 162.768C50.4634 163.233 50.6034 163.684 50.8543 164.068C51.2067 164.94 51.4903 165.84 51.7021 166.759L51.4102 166.936L52.8628 168.158L55.3361 167.808L58.3019 170.337L59.8958 169.179L61.314 171.555C63.8401 173.615 66.0982 175.416 68.3206 177.269C69.3297 178.093 70 179.285 70.1957 180.604C70.2454 181.166 70.4631 181.698 70.8183 182.125C71.1735 182.553 71.6484 182.854 72.1765 182.986L73.3649 185.651L77.6869 185.173L82.8052 190.781" fill="#E5E7EB"/>
<path d="M59.6391 19.4438C62.333 20.5299 62.638 24.0421 64.7799 25.882C68.8467 25.9263 72.9091 25.5899 76.9179 24.8769C78.8648 24.5257 80.8423 24.3922 82.8166 24.4788C85.9237 24.7534 89.0071 25.363 92.0852 25.9273C93.8216 26.2459 95.7483 26.1278 97.1163 27.5667C97.8147 28.2549 98.6445 28.7827 99.5517 29.1159C100.459 29.4492 101.423 29.5805 102.382 29.5014C105.66 29.4904 108.94 29.5755 112.215 29.467C113.014 29.4153 113.815 29.542 114.563 29.8385C115.311 30.135 115.989 30.5945 116.553 31.1861C117.212 31.9555 118.021 32.5699 118.927 32.9883C119.832 33.4067 120.813 33.6194 121.804 33.6123C123.975 33.5574 126.276 34.1286 127.152 36.6769C128.017 38.9129 129.519 40.8203 131.456 42.143C132.016 42.6686 132.519 43.2561 132.956 43.8951C132.257 45.7423 130.916 47.2492 129.199 48.1172C126.512 49.9365 123.755 51.6473 121.053 53.446C118.351 55.2447 115.685 57.0915 112.998 58.9176C112.609 59.1545 112.285 59.4908 112.057 59.8945C111.829 60.2983 111.704 60.7561 111.693 61.2243C111.615 63.0093 111.416 64.7943 111.347 66.5916C111.372 67.4265 111.217 68.2565 110.893 69.0208C110.569 69.7851 110.084 70.4643 109.475 71.0087C109.13 71.2308 108.762 71.4092 108.376 71.5401C108.839 71.9969 109.411 72.3176 110.032 72.4696C110.653 72.6216 111.302 72.5993 111.913 72.4051C113.781 71.9424 115.665 71.5387 117.513 71.0005C120.434 69.9302 123.637 70.0519 126.475 71.341C126.985 71.5632 127.516 71.7298 128.06 71.838C129.835 71.5308 131.626 71.3369 133.424 71.2572C134.883 71.4189 136.331 71.6744 137.76 72.022C139 72.1763 140.195 72.5964 141.27 73.2558C142.346 73.9152 143.278 74.7995 144.007 75.8528C145.566 78.014 146.706 78.1211 148.991 76.9224C149.274 76.7655 149.565 76.6239 149.862 76.4982C151.88 75.6977 152.814 76.2455 152.96 78.4506C152.937 78.9981 153.092 79.5379 153.399 79.9829C153.707 80.428 154.149 80.7525 154.656 80.9043C156.759 80.2699 158.788 81.3546 160.772 82.3419L164.851 80.064C165.38 80.1471 165.881 80.3636 166.311 80.6947C166.741 81.0257 167.086 81.4611 167.317 81.9629C168.591 84.65 170.071 87.2546 171.099 90.0405C171.381 91.1034 171.994 92.0393 172.841 92.7028C173.688 93.3663 174.722 93.7202 175.783 93.7093C177.263 93.681 178.731 93.9875 180.086 94.6077C181.441 95.2279 182.651 96.147 183.63 97.3012C184.321 98.1718 185.083 98.9819 185.804 99.8235C186.24 100.33 186.654 100.911 187.469 100.068C186.135 96.9003 187.786 94.5881 189.635 92.2264C190.949 90.5076 192.126 88.6794 193.152 86.7603C194.902 83.5735 196.509 80.307 198.17 77.0625C199.918 73.4445 202.91 70.642 206.553 69.2114C208.108 68.599 209.663 67.9756 211.427 67.2809C209.404 67.09 207.621 66.906 205.836 66.755C203.723 66.5765 201.617 66.4502 199.512 66.2566C195.561 65.8941 191.615 65.4574 187.662 65.132C184.854 65.0736 182.145 64.037 179.971 62.1882C172.789 55.82 165.339 49.7786 158.051 43.5285C152.157 38.4688 146.366 33.2814 140.513 28.1695C138.313 26.0254 135.966 24.0491 133.492 22.2558C124.37 16.3983 115.124 10.7469 105.894 5.06518C104.906 4.45973 103.828 4.02957 102.705 3.79237C98.001 2.82025 93.2802 1.93188 88.5568 1.06549C86.3001 0.653572 84.0235 0.356993 81.7047 0C80.2324 2.29849 78.0298 2.99462 75.7757 3.61936C73.6726 4.20337 71.5756 4.813 69.4848 5.44827C66.7276 6.29132 63.9823 7.17556 61.1273 8.07491C60.4988 10.475 59.9389 12.8545 59.2417 15.1901C58.9968 15.8846 58.9044 16.6274 58.9714 17.3639C59.0383 18.1004 59.2629 18.812 59.6286 19.4465" fill="#E5E7EB"/>
<path d="M12.0977 69.2181C12.8826 68.9298 13.6949 68.7295 14.5208 68.6208C17.7283 68.1704 20.9068 67.2477 24.1856 68.3805C25.6796 68.7841 27.0092 69.6766 27.978 70.9262C29.391 72.9061 30.8699 74.8339 32.44 76.9456C33.1716 76.7808 33.9124 76.6628 34.6241 76.4431C38.1037 75.3652 41.5277 74.6101 45.1366 76.1685C46.7654 76.6485 48.4422 76.93 50.1334 77.0074C51.2889 73.7203 52.9672 71.2323 56.0361 70.4168C56.4774 70.668 56.8366 71.0505 57.0676 71.5152C57.2986 71.98 57.3909 72.5059 57.3328 73.0256C57.3077 74.7625 57.3249 76.4994 57.3143 78.2349C57.2877 79.2134 57.5526 80.1766 58.0726 80.9925C58.5926 81.8085 59.3424 82.4375 60.2194 82.7934C62.3579 83.9151 64.774 84.3336 67.1468 83.9935C68.7755 83.6875 70.4524 83.8198 72.0181 84.3779L73.2686 86.1299L77.2856 84.5125L79.2135 85.0892C79.8487 84.3793 80.3399 83.458 81.0899 83.0571C83.8815 81.5673 86.7483 80.2272 89.6045 78.8734C91.0402 78.334 92.446 77.7124 93.8156 77.0115C96.768 75.1216 99.8876 73.5298 103.132 72.258C104.44 71.7623 105.782 71.3587 107.108 70.9124L107.357 71.2941C107.94 70.6713 108.48 70.0064 108.972 69.3046C109.392 68.6581 109.682 67.9299 109.824 67.164C110.129 65.6642 110.248 64.1299 110.178 62.5986C109.885 59.733 111.409 58.1266 113.408 56.7233C114.2 56.1631 115.018 55.6249 115.834 55.0894C119.859 52.4614 123.905 49.8718 127.903 47.1971C129.172 46.3499 130.321 45.305 131.468 44.392C131.389 44.1741 131.288 43.9653 131.167 43.7686C130.994 43.5719 130.799 43.3963 130.588 43.2454C128.415 41.8981 126.756 39.8128 125.889 37.3413C125.703 36.7634 125.356 36.2564 124.891 35.8853C124.426 35.5141 123.865 35.2959 123.28 35.2584C122.518 35.1788 121.752 35.058 120.989 35.058C119.627 35.1086 118.298 34.6176 117.273 33.6849C116.6 33.0657 115.863 32.5233 115.18 31.915C114.5 31.2959 113.625 30.9587 112.721 30.9676C108.747 30.8962 104.773 30.7493 100.798 30.6656C100.029 30.7042 99.2601 30.5801 98.5381 30.3009C97.8161 30.0218 97.1561 29.5932 96.5979 29.0412C95.9208 28.3239 95.0261 27.8719 94.0652 27.7616C90.896 27.3112 87.7387 26.7771 84.5866 26.221C82.5725 25.8396 80.5128 25.7932 78.4846 26.0837C74.5601 26.6741 70.6025 27.0311 66.6555 27.4567C65.6581 27.6225 64.6363 27.4182 63.7691 26.8795C62.9019 26.3408 62.2446 25.5021 61.9123 24.5102C61.3438 23.0069 60.3461 21.7208 59.0534 20.8249C58.665 20.5336 58.3451 20.1546 58.1177 19.7163C57.8904 19.278 57.7615 18.7919 57.7408 18.2944C57.3909 16.0824 58.1581 14.097 58.6269 12.0429C58.8712 10.9746 59.1432 9.9119 59.4773 8.54297L43.0304 13.6631C45.2991 16.2266 47.4053 18.5594 49.4573 20.9402C51.4724 23.2744 53.4875 25.6196 55.3996 28.0417C57.5288 30.4201 59.5038 32.9429 61.3115 35.5934C59.4852 36.6919 57.9072 37.6928 56.2777 38.5977C55.3006 39.1106 54.5551 40.0006 54.2006 41.0774C53.5139 43.0093 52.6952 44.889 51.862 46.9678L37.9346 50.0489C36.9509 51.7762 35.9948 53.5104 34.9833 55.2102C34.4277 56.3341 33.7315 57.3766 32.9128 58.3106C30.8858 60.2562 28.6872 62.0178 26.5744 63.8577C26.1596 64.2268 25.6671 64.4891 25.1367 64.6234C24.6063 64.7577 24.0529 64.7602 23.5214 64.6307C18.7411 63.7153 13.9565 62.8265 9.16749 61.9643C8.06355 61.7638 6.94113 61.6649 5.99829 61.5427C4.67798 64.0734 3.97474 66.9021 3.9502 69.781L9.86604 70.4264C10.5828 69.9712 11.3274 69.5653 12.0951 69.2112" fill="#E5E7EB"/>
<path d="M98.0342 146.141C99.3798 146.512 100.556 145.615 101.838 145.287C102.997 144.919 104.174 144.615 105.363 144.374C106.447 144.285 107.536 144.274 108.622 144.341C108.956 143.984 109.265 143.602 109.546 143.199C111.18 140.315 113.844 140.041 116.612 140.303C118.642 140.497 120.645 140.996 122.774 141.381L132.172 137.674L131.156 135.026C131.486 133.504 132.131 132.596 133.503 132.358L136.178 133.053C135.441 130.453 135.6 128.371 137.221 126.703L139.763 126.279C140.693 124.334 141.921 122.559 143.4 121.025C146.52 118.158 149.725 115.324 153.8 113.931C154.233 113.798 154.631 113.563 154.962 113.244C155.293 112.924 155.548 112.529 155.707 112.09C156.561 110.045 158.11 108.4 160.058 107.469C161.985 106.4 163.964 105.434 165.897 104.377C166.49 104.029 167.143 103.808 167.819 103.726C168.495 103.645 169.18 103.704 169.834 103.901C170.339 104.398 171.006 105.016 171.634 105.673C173.69 107.832 175.915 109.537 179.213 108.761L180.91 106.29C180.559 103.406 181.986 101.406 183.982 99.5C182.69 98.2438 181.294 97.1088 179.81 96.1086C178.579 95.5594 177.256 95.2682 175.916 95.2518C174.501 95.2579 173.123 94.7816 171.993 93.8958C170.864 93.01 170.044 91.7635 169.661 90.3473C168.634 87.6943 167.426 85.1207 166.048 82.6458C165.764 82.2172 165.429 81.827 165.052 81.4842C164.499 81.793 163.964 82.1355 163.45 82.5099C162.751 83.164 161.859 83.5519 160.921 83.6101C159.982 83.6682 159.052 83.3931 158.283 82.8298C157.454 82.3244 156.478 82.1447 155.533 82.3232C155.057 82.4248 154.566 82.4172 154.093 82.3009C153.621 82.1847 153.178 81.9625 152.797 81.65C152.415 81.3375 152.104 80.9422 151.885 80.4916C151.666 80.0411 151.544 79.5462 151.528 79.0416C151.462 78.6008 151.418 78.1559 151.343 77.5312C150.747 77.7784 150.278 77.9431 149.84 78.1601C146.574 79.8325 145.176 79.518 142.793 76.7239C142 75.7902 141.148 74.5901 140.105 74.2524C137.389 73.3887 134.66 72.2505 131.696 72.7503C130.879 72.8876 130.064 73.0496 129.244 73.1622C127.507 73.2422 125.778 72.8753 124.21 72.0939C122.961 71.5583 121.575 71.4751 120.275 71.8578C118.198 72.499 116.05 72.8889 113.946 73.4423C111.803 74.197 109.463 74.0702 107.407 73.088C106.717 72.7531 105.929 72.7093 105.208 72.9658C102.435 74.1659 99.7007 75.4854 96.9936 76.8502C95.3118 77.9441 93.5501 78.8995 91.7248 79.7075C88.6316 80.7897 85.6318 82.1415 82.7573 83.7484C81.7288 84.4434 80.7732 85.2488 79.9062 86.1512C81.1371 86.4629 81.9399 86.6318 82.723 86.8707C84.4079 87.2203 86.0492 87.7675 87.6154 88.5019C89.581 89.7421 91.4249 91.1797 93.1206 92.794C93.8528 93.5291 94.3974 94.4422 94.7052 95.4509C95.2124 96.9537 95.5772 98.5043 95.7946 100.081C96.1406 102.629 97.024 104.679 99.566 105.546C99.6861 105.594 99.7983 105.661 99.8987 105.745C101.351 106.843 101.65 108.432 100.258 109.608C97.9101 111.602 96.2551 114.34 95.5464 117.405C95.3597 117.946 95.1333 118.471 94.8689 118.975C95.8289 120.834 94.4332 122.434 94.012 124.317L96.7705 124.757C96.9816 125.403 97.1173 126.072 97.1745 126.751C97.0952 127.745 96.9652 128.733 96.785 129.713C96.4785 132.146 95.9214 134.57 96.9012 137.002C97.0774 137.645 97.1387 138.315 97.0821 138.981C97.1024 140.651 97.1024 142.322 97.0821 143.992C97.0299 144.407 97.0926 144.829 97.2629 145.208C97.4332 145.587 97.704 145.907 98.0434 146.132" fill="#E5E7EB"/>
<path d="M111.611 256.186C111.269 253.495 112.522 252.369 117.437 250.901C118.011 249.741 118.66 248.451 119.285 247.15C119.419 246.922 119.492 246.661 119.495 246.394C119.414 245.604 119.259 244.823 119.144 244.038C119.121 243.839 119.112 243.638 119.118 243.438C119.07 242.801 119.229 242.167 119.569 241.635C119.908 241.104 120.409 240.706 120.992 240.505C121.623 240.348 122.287 240.44 122.857 240.763C123.427 241.085 123.862 241.616 124.078 242.253C124.342 242.838 124.579 243.439 124.841 244.065C125.996 243.909 127.005 243.823 127.993 243.622C128.991 243.476 129.967 243.2 130.898 242.798C132.959 241.751 134.219 242.022 135.363 244.079C135.94 245.115 136.357 246.248 136.925 247.292C137.287 247.871 137.689 248.422 138.129 248.939C139.627 248.485 140.952 247.555 141.919 246.281C144.257 243.389 147.75 242.187 150.42 239.795C150.917 239.495 151.474 239.317 152.047 239.276C152.482 239.18 153.002 239.312 153.368 239.115C154.209 238.702 155.12 238.466 156.049 238.421C156.979 238.376 157.907 238.523 158.782 238.853L163.271 236.288C161.951 234.268 160.644 232.295 159.376 230.291C159.011 229.864 158.757 229.347 158.639 228.789C158.52 228.232 158.542 227.652 158.701 227.105C159.283 225.329 159.467 223.438 159.241 221.576C159.161 220.98 159.198 220.374 159.35 219.794C159.502 219.214 159.766 218.672 160.126 218.201C160.421 217.804 160.624 217.342 160.719 216.851C160.815 216.359 160.799 215.851 160.674 215.367C159.943 212.222 159.822 208.958 160.317 205.764L157.67 205.084C156.912 205.287 156.174 205.522 155.425 205.675C154.932 205.803 154.421 205.835 153.917 205.768C153.111 205.642 152.381 205.202 151.874 204.538C151.368 203.874 151.123 203.035 151.189 202.19C151.211 201.012 151.4 199.839 151.532 198.483C150.861 198.215 150.168 198.014 149.462 197.88C147.357 197.694 145.247 197.574 143.135 197.488C142.358 197.518 141.591 197.294 140.942 196.848C140.293 196.401 139.795 195.755 139.518 194.999C138.422 192.379 137.499 189.685 136.757 186.934C136.113 184.325 135.878 181.278 132.991 179.736L132.692 176.157L129.843 175.77C129.853 176.384 129.911 176.997 130.015 177.603C130.234 178.233 130.327 178.903 130.289 179.572C130.251 180.241 130.083 180.895 129.795 181.495C129.506 182.094 129.103 182.626 128.611 183.059C128.118 183.491 127.546 183.815 126.93 184.011C125.399 184.696 123.916 185.489 122.49 186.386C122.09 186.697 121.73 187.059 121.417 187.464L124.351 189.565C124.455 189.856 124.497 190.168 124.474 190.478C124.451 190.789 124.364 191.09 124.218 191.362C124.072 191.634 123.871 191.869 123.629 192.053C123.387 192.236 123.11 192.362 122.816 192.423C121.296 192.973 119.943 193.934 118.897 195.206C118.028 196.095 117.113 196.935 116.157 197.722C114.126 199.448 111.932 200.961 110.611 203.463C110.478 203.734 110.294 203.975 110.07 204.171C109.846 204.367 109.586 204.514 109.306 204.604C109.026 204.694 108.732 204.724 108.44 204.693C108.149 204.662 107.866 204.57 107.61 204.424C106.851 204.16 106.075 203.954 105.288 203.807C104.184 204.767 102.958 205.566 101.645 206.18C100.394 206.546 98.7675 206.788 97.8827 204.807L98.2142 202.079C98.0227 201.609 97.7221 201.195 97.3393 200.876C96.9566 200.556 96.5036 200.34 96.0208 200.247C95.6018 200.169 95.2214 199.944 94.9437 199.608C94.6661 199.273 94.5083 198.848 94.497 198.406L95.9892 194.046L95.1493 192.636L87.6343 194.62L86.2623 192.372C86.1427 192.333 86.0198 192.304 85.8952 192.287C85.7044 192.257 85.5097 192.266 85.3221 192.313C83.3044 193.118 81.9073 192.278 80.6542 190.633C79.5898 189.238 78.3248 188.006 77.1165 186.666L73.7559 187.193C74.0965 189.753 74.0965 189.753 76.2199 192.371L76.043 194.722C78.7434 195.246 78.6364 198.117 79.3957 199.162L81.5231 206.027L81.3527 206.099L82.458 207.494L80.4574 211.569C80.5432 213.574 80.6079 215.497 78.7764 216.693C78.9566 217.518 79.3055 218.292 79.7993 218.964C80.293 219.635 80.9202 220.189 81.6379 220.586C81.5059 221.732 81.3804 222.831 81.2497 223.983C82.9915 225.091 82.8726 226.776 82.7511 228.474L81.7872 229.877L83.0284 233.333L84.7451 236.38C85.9163 237.512 87.0035 238.734 87.9975 240.037C89.0103 241.578 89.6904 243.354 90.5566 245.003C90.9331 245.768 91.3873 246.49 91.9114 247.154C92.7201 248.216 93.778 249.044 94.9835 249.557C96.1889 250.071 97.5012 250.253 98.7939 250.086L101.916 252.464C102.384 253.173 102.986 253.776 103.685 254.237C105.006 255.139 106.366 255.978 107.709 256.845L107.488 257.073L109.219 259.898L111.221 260.322C111.611 260.75 111.936 261.237 112.185 261.766C112.433 262.779 112.623 263.807 112.754 264.843L114.376 265.741L114.031 257.591L111.613 256.189" fill="#E5E7EB"/>
<path d="M51.8299 159.831C52.4082 159.894 52.9921 159.797 53.5233 159.552C54.0546 159.306 54.5147 158.92 54.8578 158.432C55.1882 157.983 55.6369 157.644 56.1493 157.455C56.6617 157.266 57.2159 157.236 57.7444 157.368C59.4875 157.643 60.05 157.006 60.087 155.133C60.162 153.999 60.1518 152.861 60.0566 151.729C59.8823 149.948 59.9459 148.151 60.2455 146.388C60.3379 145.695 60.396 144.996 60.4594 144.394L57.9637 143.491C57.6996 142.512 57.5147 141.67 57.2611 140.849C56.9815 139.399 56.2728 138.076 55.2342 137.065C53.7388 136.088 52.6611 134.552 52.2234 132.773L49.1414 130.923L47.2319 131.622C46.9929 131.12 46.7539 130.682 46.5717 130.219C46.2508 129.42 46.0276 128.571 45.6473 127.806C45.1984 126.991 44.9809 126.059 45.0202 125.12C45.0595 124.181 45.3538 123.273 45.8692 122.501C46.2217 121.82 46.5305 121.115 46.7935 120.392C45.8203 119.998 45.0703 119.681 44.311 119.387C43.4998 119.151 42.7896 118.635 42.2967 117.925C41.8037 117.215 41.5572 116.351 41.5973 115.476C41.6275 114.214 41.7254 112.954 41.8905 111.703C42.0139 111.056 41.9805 110.386 41.7933 109.756C41.6062 109.125 41.2711 108.552 40.8183 108.089C39.6655 108.072 38.2406 108.913 37.7164 106.692C38.2131 106.196 38.765 105.763 39.3604 105.404C41.1101 104.587 42.9654 104.003 44.6834 103.126C45.4025 102.677 46.2346 102.464 47.0718 102.513C47.9091 102.562 48.7129 102.871 49.3791 103.4C49.9342 103.865 50.6204 104.127 51.3325 104.147C52.0447 104.167 52.7436 103.944 53.3221 103.512C54.2464 102.939 55.2262 102.483 56.0146 102.064C56.6518 102.233 57.2246 102.599 57.657 103.114C58.0893 103.629 58.3607 104.269 58.4351 104.948C58.7989 106.617 59.6659 108.122 60.9097 109.243C62.3134 109.494 63.7712 108.968 64.9729 110.279L65.5816 111.983L65.7388 111.864L67.6878 114.585L70.4728 112.855L73.2075 113.973L73.9998 112.224C75.7482 112.066 75.8195 113.573 76.5867 114.243C78.1554 115.121 79.6238 116.189 81.2269 116.972C82.2011 117.461 83.2815 117.676 84.3605 117.595C87.086 117.289 89.7851 116.726 92.3931 116.282L94.0701 117.072C94.6642 115.275 95.4046 113.535 96.2833 111.869C97.412 110.367 98.6632 108.968 100.023 107.688C99.4304 107.236 98.8092 106.826 98.1637 106.461C97.2604 106.102 96.4682 105.495 95.8721 104.703C95.276 103.912 94.8987 102.966 94.7806 101.968C94.5165 100.197 94.0279 98.463 93.6264 96.7151C93.5142 96.0222 93.2693 95.3598 92.9064 94.7672C92.5435 94.1745 92.0699 93.6635 91.5136 93.2646C90.3458 92.5726 89.2508 91.7553 88.2467 90.826C87.1119 89.748 85.7045 89.0296 84.1901 88.7555C81.8595 88.1513 79.3148 88.0539 77.5308 85.8721C76.4441 86.3581 75.4577 86.8112 74.4633 87.2451C73.1534 87.8136 72.6767 87.7147 71.7536 86.6643C71.5223 86.3725 71.3084 86.0662 71.1132 85.7471L69.1958 85.2089C65.9898 85.9505 62.6383 85.5766 59.6565 84.1448C58.4767 83.6629 57.4731 82.8063 56.7887 81.697C56.1042 80.5876 55.7737 79.282 55.8442 77.9661C55.8535 76.6301 55.8561 75.2927 55.8442 73.9567C55.8442 73.3402 55.7848 72.721 55.7505 72.0345C54.8444 72.4751 54.0361 73.1065 53.3769 73.8889C52.7177 74.6712 52.222 75.5873 51.921 76.5793C51.7714 77.1427 51.4268 77.6287 50.9535 77.944C50.4801 78.2593 49.9114 78.3816 49.3566 78.2873C47.4049 78.0594 45.4902 77.5129 43.5464 77.2273C41.9833 76.9239 40.3915 76.8101 38.8032 76.8882C37.2916 77.1505 35.8094 77.5714 34.3795 78.1445C33.7369 78.4732 32.9988 78.538 32.3123 78.3261C31.6258 78.1141 31.0414 77.6409 30.6755 77.0008C29.4553 75.3669 28.2167 73.748 27.0322 72.0866C25.2046 69.5245 22.5795 69.2897 19.8474 69.357C19.1452 69.3753 18.4454 69.4501 17.7544 69.5808C15.458 70.012 13.0336 69.9172 11.0198 71.5347C10.4679 71.8625 9.82694 71.9905 9.19751 71.8985C8.1809 71.8093 7.17437 71.6227 6.19073 71.3411C5.79275 71.1861 5.36261 71.1427 4.94337 71.2149C4.52414 71.2872 4.13053 71.4728 3.80194 71.753L2.61349 75.3367C3.14465 76.9863 3.02839 78.7873 2.28997 80.3483C1.54917 82.022 1.10152 83.8358 0.498047 85.64L1.46069 86.5737L4.73422 87.0172L6.79816 86.4776L10.5999 88.3326L10.3186 88.6072C10.7689 89.442 11.1822 90.3015 11.6761 91.1075C12.4961 92.4435 13.4205 93.7163 14.2035 95.0701C14.9585 96.1436 15.5257 97.3469 15.8793 98.625C16.3383 100.43 17.2905 102.058 18.6206 103.313C19.545 104.411 20.5248 105.452 21.3673 106.391C21.428 107.239 21.4689 107.833 21.5297 108.68L25.2601 113.024C25.7364 114.299 26.3721 115.503 27.1511 116.605C28.8787 118.578 30.2526 120.857 31.2076 123.333C32.1967 125.633 33.3904 127.839 34.4561 130.012C38.1984 130.937 38.4453 132.806 37.0971 135.302L37.9052 136.886L39.4634 137.109C42.1493 139.704 44.1228 142.995 45.1812 146.645C45.8032 147.257 46.3719 147.925 46.8807 148.641C47.3445 149.424 47.6813 150.282 47.8777 151.178C48.0378 152.2 48.1322 153.232 48.1602 154.266C47.6241 156.7 46.466 159.209 49.2668 161.187C49.4931 160.7 49.8651 160.304 50.3268 160.056C50.7885 159.808 51.3151 159.723 51.8273 159.814" fill="#E5E7EB"/>
<path d="M237.989 267.238C237.123 267.41 236.575 267.565 236.017 267.623C231.887 268.051 227.757 268.453 223.628 268.879C222.167 269.029 220.709 269.221 219.25 269.393C216.213 269.752 213.168 270.131 210.124 270.464C207.265 270.777 204.396 270.984 201.541 271.338C198.273 271.838 194.977 272.111 191.674 272.155C188.522 272.15 185.448 271.131 182.876 269.236C182.155 268.717 181.37 268.293 180.499 267.749C180.426 268.808 180.367 269.656 180.313 270.439L177.617 272.818C177.922 274.009 178.218 274.892 178.366 275.802C178.706 277.879 178.526 279.868 176.693 281.176C175.839 281.755 174.904 282.191 173.92 282.468C173.458 282.581 173.026 282.797 172.652 283.102C172.279 283.406 171.974 283.792 171.758 284.231C171.17 285.248 170.46 286.183 169.646 287.013C168.37 288.422 167.005 289.74 165.701 291.125C165.2 291.549 164.848 292.135 164.701 292.789C164.554 293.444 164.621 294.131 164.89 294.742C165.308 295.792 165.373 296.958 165.074 298.051C164.759 299.542 164.613 301.067 164.64 302.593C164.629 304.283 164.823 305.978 164.929 307.673L164.482 307.889L165.483 308.884L169.397 309.296L169.351 309.14L172.132 308.728L172.89 308.146C173.748 308.146 174.385 308.187 175.013 308.139C177.874 307.919 180.73 307.606 183.597 307.452C185.709 307.342 187.838 307.493 189.955 307.411C191.565 307.311 193.165 307.746 194.521 308.655C195.587 309.405 196.824 309.852 198.108 309.951C200.595 310.123 203.087 310.363 205.553 310.742C209.834 311.614 214.237 311.608 218.516 310.723C219.136 310.521 219.803 310.548 220.406 310.798C221.009 311.048 221.51 311.506 221.827 312.096C222.883 313.761 224.054 315.347 225.108 316.869C228.203 317.782 230.214 315.844 232.467 314.364C233.391 306.509 234.313 298.67 235.234 290.847C236.158 283.042 237.158 275.246 237.997 267.242" fill="#E5E7EB"/>
<path d="M164.789 289.979C166.079 288.583 167.463 287.283 168.75 285.882C169.442 285.204 170.026 284.416 170.481 283.548C170.706 282.959 171.069 282.438 171.537 282.032C172.006 281.626 172.564 281.349 173.162 281.225C173.722 281.082 174.268 280.888 174.795 280.645C175.516 280.43 176.136 279.948 176.539 279.291C176.942 278.633 177.1 277.846 176.983 277.075C176.817 275.696 176.558 274.329 176.35 273.015C176.414 271.042 178.151 270.525 179.211 269.436V266.594C178.86 266.298 178.296 265.855 177.759 265.376C174.522 262.739 171.729 259.561 169.496 255.97C168.968 255.033 168.308 254.185 168.519 253.046C168.72 251.188 169.281 249.392 170.17 247.766C170.531 247.036 170.806 246.264 170.99 245.465C168.349 242.944 167.126 239.465 163.991 237.625L158.787 240.441L156.393 239.716L150.993 241.174C150.398 241.767 149.737 242.284 149.026 242.716C146.456 244.095 144.13 245.92 142.15 248.111C141.106 249.236 139.772 250.022 138.307 250.374C136.023 249.881 135.675 247.75 134.71 246.131C133.931 247.464 135.044 248.339 135.238 249.447C134.902 251.707 132.563 252.14 131.859 253.146L129.835 259.584C130.219 259.61 130.593 259.726 130.928 259.924C131.262 260.122 131.55 260.395 131.768 260.725C131.987 261.055 132.131 261.432 132.189 261.827C132.247 262.223 132.218 262.627 132.105 263.01C131.921 263.979 131.651 264.932 131.445 265.81C132.984 269.078 132.751 270.933 130.57 272.825C130.145 272.865 129.718 272.883 129.291 272.877C128.561 272.767 127.817 272.811 127.104 273.004C126.39 273.198 125.721 273.538 125.135 274.004C124.563 274.325 123.943 274.543 123.301 274.649C123.611 276.41 122.708 278.421 123.961 279.96C125.341 280.173 126.47 280.383 127.61 280.51C128.126 280.552 128.618 280.759 129.016 281.103C129.415 281.447 129.701 281.912 129.836 282.432C130.592 284.743 131.611 287.022 130.725 289.602L132.888 289.942C133.832 291.53 133.167 293.113 133.082 294.659L136.299 295.544L137.477 297.718C137.968 297.772 138.462 297.8 138.956 297.8C139.849 297.635 140.769 297.804 141.553 298.279C142.337 298.753 142.934 299.501 143.237 300.39C143.459 300.941 143.796 301.434 144.223 301.834C144.651 302.233 145.159 302.528 145.71 302.698C146.008 301.648 146.275 300.711 146.541 299.775C146.763 298.664 147.398 297.689 148.307 297.061C149.216 296.434 150.326 296.204 151.397 296.422L152.047 298.521L155.245 302.655L155.377 302.496L158.693 305.654L163.529 306.306C163.596 305.702 163.588 305.091 163.505 304.488C162.977 302.344 163.568 300.277 163.747 298.172C163.886 297.192 163.816 296.192 163.541 295.244C163.189 294.34 163.123 293.343 163.35 292.398C163.577 291.452 164.087 290.605 164.806 289.979" fill="#E5E7EB"/>
<path d="M128.152 147.787C128.063 148.837 127.976 149.887 127.868 151.189C128.586 151.61 129.343 151.957 130.126 152.224C130.827 152.348 131.474 152.693 131.978 153.213C132.483 153.734 132.82 154.404 132.944 155.131C133.183 156.168 133.464 157.191 133.713 158.227C133.799 158.721 133.998 159.186 134.293 159.583C134.588 159.98 134.97 160.298 135.407 160.511C135.755 159.983 136.037 159.541 136.331 159.113C137.595 157.29 138.468 157.023 140.425 158.027C142.636 159.119 145.08 159.604 147.524 159.436C149.288 159.36 151.052 159.253 153.099 159.145C153.997 158.303 154.155 158.164 153.598 157.101C153.245 156.5 153.099 155.792 153.185 155.093C153.271 154.394 153.583 153.746 154.071 153.257C154.731 152.441 155.349 151.587 156.018 150.785C156.491 150.152 157.081 149.623 157.752 149.229C158.424 148.835 159.164 148.583 159.93 148.49C161.199 148.306 162.445 147.979 163.646 147.513C164.661 147.217 165.61 146.713 166.437 146.031C167.263 145.349 167.95 144.502 168.459 143.541C168.892 142.495 169.655 141.633 170.623 141.097C171.59 140.562 172.704 140.385 173.781 140.596C176.804 140.839 179.846 140.862 182.93 140.982C183.256 139.755 183.243 138.457 182.892 137.238C182.467 135.81 182.115 134.354 181.734 132.918L182.176 132.702C180.648 130.573 179.074 128.476 177.617 126.296C177.078 125.569 176.751 124.698 176.672 123.784C176.672 121.936 176.975 120.09 177.174 118.018L179.655 116.623C180.782 114.364 182.686 112.629 184.988 111.765C185.067 109.223 184.01 107.96 181.777 107.703C181.369 108.367 180.905 108.992 180.39 109.571C179.969 110.052 179.392 110.354 178.769 110.421C176.524 110.158 174.165 110.353 172.383 108.324C171.136 107.052 169.815 105.86 168.43 104.754C165.578 106.251 162.983 107.566 160.433 108.968C158.903 109.718 157.697 111.034 157.051 112.66C156.814 113.283 156.448 113.844 155.978 114.302C155.509 114.761 154.948 115.106 154.335 115.313C151.691 116.358 149.236 117.858 147.072 119.752C144.757 121.767 142.35 123.639 141.159 126.698C140.982 127.152 140.336 127.487 139.838 127.71C139.196 127.952 138.537 128.144 137.867 128.285C137.496 128.806 137.258 129.414 137.173 130.056C137.088 130.697 137.159 131.35 137.38 131.955C137.555 132.425 137.56 132.945 137.393 133.417C137.226 133.89 136.898 134.283 136.472 134.523C135.956 134.511 135.441 134.465 134.93 134.386C134.361 134.236 133.8 134.053 133.25 133.836L132.573 134.958C132.931 136.316 134.282 137.276 133.357 139.007C132.002 139.329 130.665 139.726 129.351 140.196C127.967 140.762 126.678 141.58 125.432 142.245C127.979 142.943 128.384 143.481 128.288 146.208C128.269 146.74 128.197 147.27 128.156 147.802" fill="#E5E7EB"/>
<path d="M153.066 302.059C152.873 301.637 152.584 301.27 152.224 300.991C151.665 300.666 151.196 300.199 150.859 299.634C150.522 299.069 150.328 298.424 150.297 297.76C148.405 298.201 148.067 299.674 147.656 301.068C147.347 302.133 147.35 303.34 146.306 304.06H144.374L140.666 299.427C139.516 299.528 138.356 299.423 137.24 299.115C136.296 298.661 135.674 297.485 134.885 296.6L132.508 296.399C131.125 294.767 132.353 292.803 131.647 290.992C129.882 291.633 128.35 292.825 127.261 294.406C127.793 295.133 128.245 295.92 128.608 296.752C129.087 297.998 129.993 299.016 131.151 299.608C131.468 299.821 131.9 299.876 132.174 300.126C134.899 302.621 137.602 305.14 140.071 307.432C140.335 309.325 140.536 310.831 140.742 312.338L141.069 312.191L142.802 315.211C144.959 315.422 144.561 317.408 144.611 319.012C147.144 320.818 147.921 321.453 148.061 325.645L149.391 327.951L150.17 326.368C152.396 326.374 152.789 324.502 153.289 322.74L154.54 322.281L154.779 321.26L153.483 318.393L154.287 312.351L155.517 311.304L154.446 310.249C154.896 309.616 155.259 309.013 155.714 308.492C156.217 307.916 156.803 307.419 157.395 306.844L155.997 304.723C155.334 304.568 154.718 304.242 154.206 303.775C153.695 303.309 153.304 302.716 153.07 302.052" fill="#E5E7EB"/>
<path d="M115.476 260.129C115.398 261.619 115.471 263.113 115.693 264.587L119.734 268.441H121.241C122.363 265.875 122.446 262.838 124.359 260.679L127.993 260.071C128.761 258.335 129.372 256.529 129.818 254.675C129.894 254.021 130.103 253.392 130.431 252.828C130.759 252.265 131.199 251.781 131.722 251.408C132.429 250.859 133.107 250.277 133.87 249.65C133.416 249.051 133.125 248.336 133.027 247.581C132.929 246.825 133.028 246.056 133.314 245.353C133.536 244.692 133.655 243.843 132.448 243.589C131.34 244.421 130.009 244.869 128.642 244.869C127.152 245.024 125.677 245.311 124.233 245.728C123.748 244.767 123.326 243.968 122.948 243.152C122.394 241.954 122.04 241.834 120.681 242.522C120.577 243.225 120.59 243.941 120.721 244.639C120.951 245.298 121.022 246.006 120.927 246.7C120.833 247.394 120.577 248.054 120.181 248.621C119.88 249.053 119.641 249.528 119.47 250.03C119.284 250.849 118.831 251.577 118.187 252.087C117.543 252.597 116.748 252.859 115.939 252.828C115.256 252.923 114.61 253.203 114.066 253.642C113.521 254.08 113.098 254.661 112.84 255.324C115.481 255.997 115.791 257.768 115.473 260.13" fill="#E5E7EB"/>
<path d="M128.004 282.088C127.338 281.926 126.664 281.801 125.985 281.714C125.164 281.643 124.331 281.698 123.681 281.698C121.646 279.73 121.27 275.781 122.709 272.578L124.454 272.774C125.16 272.089 126.036 271.621 126.984 271.424C127.931 271.227 128.913 271.307 129.819 271.657C130.828 270.619 131.491 269.416 130.875 268.087C130.217 266.562 130.117 264.839 130.595 263.243C130.788 262.411 130.914 261.486 130.037 261.094L125.235 261.901C124.229 263.476 123.554 265.254 123.255 267.119C122.885 268.964 122.155 269.839 120.8 270.035C120.226 270.137 119.637 270.064 119.102 269.825C118.568 269.586 118.112 269.19 117.789 268.687C117.261 267.959 116.836 267.084 115.721 266.938C115.571 267.5 115.424 268.055 115.288 268.566C115.827 270.178 117.525 271.168 117.137 273.211L119.456 274.952C119.246 276.05 119.052 277.065 118.855 278.095L120.835 279.758L120.241 282.474L120.96 283.947C121.816 284.274 122.577 284.826 123.167 285.549C123.757 286.272 124.157 287.142 124.328 288.074C124.659 289.757 125.363 291.335 126.384 292.685C130.478 290.874 130.113 286.189 127.997 282.084" fill="#E5E7EB"/>
<path d="M304.121 164.324L303.944 164.34L303.968 164.361L303.944 164.342L303.934 164.37C303.953 164.37 303.97 164.378 303.992 164.381L304.124 164.326" fill="#214570" fill-opacity="0.15"/>
<path d="M144.702 326.971C144.723 326.77 144.698 326.567 144.631 326.378C144.563 326.189 144.455 326.018 144.314 325.879C143.956 325.432 143.442 325.33 143.041 325.014C142.737 324.774 142.674 324.535 142.703 323.634C142.711 323.585 142.71 323.535 142.699 323.486C142.688 323.438 142.667 323.392 142.638 323.352C142.609 323.312 142.573 323.279 142.531 323.254C142.489 323.229 142.443 323.214 142.395 323.209C142.269 323.183 142.138 323.21 142.031 323.283C141.784 323.5 141.944 323.923 141.613 324.153C141.443 324.273 141.464 324.666 141.3 324.826C141.168 324.963 140.966 324.075 140.623 324.928C141.199 325.708 141.89 326.388 142.671 326.943C142.741 326.986 142.935 326.908 143.012 326.825C143.7 326.083 143.804 326.673 144.004 327.237C144.075 327.443 144.417 327.743 144.541 327.7C144.846 327.596 144.673 327.225 144.703 326.967" fill="#214570" fill-opacity="0.15"/>
<path d="M146.639 330.469C146.676 330.178 146.072 330.349 145.796 330.29C145.565 330.29 145.365 330.303 145.167 330.29C145.071 330.269 144.972 330.286 144.888 330.337C144.805 330.387 144.741 330.468 144.711 330.564C144.691 330.628 144.683 330.695 144.69 330.762C144.696 330.829 144.715 330.894 144.747 330.953C144.779 331.012 144.824 331.063 144.88 331.099C144.935 331.136 144.998 331.158 145.064 331.163C145.129 331.167 145.195 331.155 145.255 331.127C145.315 331.099 145.367 331.056 145.407 331.002C145.791 330.464 145.918 331.002 146.121 331.157C146.447 331.41 146.253 331.79 146.303 332.118C146.336 332.355 146.204 332.743 146.542 332.732C146.737 332.732 147.039 332.4 147.084 332.175C147.2 331.576 146.556 331.171 146.638 330.486" fill="#214570" fill-opacity="0.15"/>
<path d="M138.858 324.469C138.421 324.478 137.957 324.3 137.553 324.607C137.545 324.607 137.654 324.859 137.704 324.856C138.158 324.839 138.602 324.819 138.901 325.268L139.085 324.949C139.119 324.722 139.035 324.465 138.859 324.467" fill="#214570" fill-opacity="0.15"/>
</g>
<defs>
<clipPath id="clip0_20755_102787">
<rect width="383" height="333" fill="white"/>
</clipPath>
</defs>
</svg>
