<svg width="514" height="49" viewBox="0 0 514 49" fill="none" xmlns="http://www.w3.org/2000/svg">
<path d="M47.4656 42.7369C47.5354 42.4163 47.6875 41.8165 47.7374 41.637C47.7711 41.5081 47.8122 41.4836 47.8932 41.4452C49.1399 40.7871 53.9783 38.5872 55.397 37.8569C55.4781 37.814 55.5367 37.8569 55.508 37.9889C55.4382 38.2957 55.3197 38.8081 55.2437 39.0244C55.2248 39.0724 55.1982 39.1152 55.1654 39.15C55.1326 39.1848 55.0943 39.211 55.0529 39.2269C53.7963 39.8405 49.1823 41.9806 48.1962 42.4869C48.0017 42.5866 47.7823 42.7431 47.609 42.829C47.5801 42.8442 47.5493 42.8531 47.518 42.8551C47.4719 42.8551 47.437 42.8183 47.4581 42.7369M200.002 41.7106C200.072 41.3885 200.225 40.7902 200.274 40.6091C200.309 40.4803 200.349 40.4557 200.431 40.4143C201.678 39.7592 207.403 37.3645 208.821 36.6343C208.906 36.5867 208.965 36.6343 208.933 36.7554C208.86 37.1068 208.772 37.4535 208.67 37.794C208.651 37.842 208.625 37.8846 208.592 37.9194C208.559 37.9542 208.521 37.9805 208.48 37.9965C207.222 38.6102 201.724 40.942 200.744 41.4437C200.55 41.5449 200.329 41.7045 200.157 41.7904C200.128 41.8052 200.097 41.814 200.066 41.8165C200.012 41.8165 199.981 41.7935 200.001 41.706M42.5313 41.6569C42.1572 41.4161 41.5339 40.9743 41.1375 40.6935C40.923 40.5401 40.9031 40.3867 40.9841 40.1995C41.2098 39.6933 41.5389 39.0827 41.7546 38.6777C41.8792 38.446 41.9628 38.4261 42.1622 38.5856C42.5362 38.8833 43.0748 39.2806 43.4912 39.6319C43.7792 39.0842 44.0784 38.4123 44.3178 37.9674C44.3926 37.8232 44.4624 37.8017 44.6307 37.9382C44.981 38.2144 45.6916 38.7728 45.9783 38.9968C46.1604 39.141 46.1928 39.2392 46.0793 39.503C45.8501 40.0155 45.5927 40.5081 45.3089 40.9773C45.2955 41.006 45.2774 41.0308 45.2556 41.0502C45.2339 41.0695 45.2091 41.083 45.1828 41.0897C45.1565 41.0963 45.1294 41.0961 45.1032 41.0889C45.077 41.0817 45.0523 41.0677 45.0309 41.0479C44.5958 40.7794 44.1445 40.4266 43.5884 40.0246C43.2643 40.6705 43.0436 41.1844 42.8404 41.5265C42.8208 41.5718 42.7922 41.6102 42.7574 41.6383C42.7225 41.6665 42.6825 41.6834 42.641 41.6876C42.6033 41.6882 42.5649 41.6777 42.5313 41.6569ZM236.079 40.0691C235.705 39.8283 235.081 39.3864 234.685 39.1057C234.469 38.9523 234.449 38.7912 234.53 38.6117C234.757 38.1055 235.085 37.4949 235.302 37.0899C235.427 36.8567 235.509 36.8368 235.707 36.9963C236.081 37.2939 236.621 37.6928 237.037 38.0395C237.327 37.4918 237.625 36.8229 237.865 36.3765C237.94 36.2354 238.006 36.2139 238.177 36.3412C238.525 36.6174 239.238 37.1758 239.523 37.3998C239.705 37.5424 239.738 37.6437 239.624 37.906C239.395 38.4198 239.137 38.9134 238.853 39.3834C238.84 39.4122 238.822 39.4371 238.8 39.4564C238.779 39.4758 238.754 39.4891 238.728 39.4954C238.702 39.5025 238.675 39.5024 238.649 39.4949C238.622 39.4875 238.598 39.473 238.577 39.4524C238.142 39.1855 237.689 38.8311 237.136 38.4322C236.811 39.0781 236.591 39.589 236.388 39.9341C236.367 39.9777 236.337 40.0144 236.302 40.0411C236.267 40.0678 236.227 40.0837 236.186 40.0875C236.15 40.0874 236.114 40.0769 236.081 40.0569M27.9151 37.9352C27.0288 37.4749 27.3142 36.803 28.0062 37.1052C34.6597 39.7132 38.4047 36.2016 39.7399 30.8031C38.2439 30.8706 38.1192 29.6111 38.2514 28.5587C38.3062 28.1966 38.3287 27.9865 38.7613 28.3224C40.0803 29.0097 42.2158 27.5247 42.6684 24.9857C42.8305 23.9978 43.1671 23.8413 43.4787 25.0026C44.0372 27.2639 44.0235 29.0649 44.9137 30.866C46.1965 33.3206 49.2434 33.1472 51.0947 30.3643C51.8427 29.2552 51.9849 29.4178 52.8488 30.2339C55.7511 32.9447 63.5516 31.7773 68.2428 31.3308C73.2819 30.8246 78.341 29.9915 84.0259 29.1156C83.7055 28.1215 82.4837 26.8574 79.8457 27.2746C72.5663 28.235 59.9275 29.763 56.8781 28.0064C55.9306 27.448 56.1301 26.3035 56.6961 25.1514C57.9016 22.6969 61.1941 19.6394 65.191 17.9411C65.7619 17.6726 64.6125 20.1103 64.4267 20.2177C62.0098 21.1893 59.7906 22.788 57.9191 24.906C57.3556 25.5963 57.4416 25.9216 58.6895 26.1624C64.4043 27.2056 71.3271 26.2744 79.2598 25.1821C82.5012 24.7664 84.2465 24.7955 84.9945 26.6334C85.2114 27.4889 85.2068 28.4062 84.9812 29.2583C84.7556 30.1104 84.3202 30.8551 83.7354 31.3891C79.1763 32.1853 73.535 33.0767 68.4124 33.6611C63.2598 34.2334 55.5716 35.5021 52.3302 32.3602C51.7679 31.8018 51.6158 31.5794 51.2231 32.2651C49.5476 35.1799 46.9046 35.7414 45.1817 34.2594C43.6109 32.8481 43.3391 29.8105 42.8866 27.1933C42.784 27.9601 42.524 28.682 42.1313 29.2906C41.7386 29.8992 41.2262 30.3744 40.6425 30.6712C39.6227 36.2661 37.5931 39.7055 33.6611 39.704C31.6685 39.5966 29.7141 38.9949 27.9151 37.9352ZM219.232 36.5729L219.686 34.0892C218.814 33.7439 218.069 33.0326 217.58 32.0795C215.758 34.3116 208.643 36.4578 204.708 32.6149C198.6 37.5164 194.153 34.2809 192.99 33.6657C190.803 35.0453 188.312 35.5152 185.89 35.005C184.269 34.4773 183.426 33.0766 182.685 30.5561C182.202 31.2808 181.619 31.8938 180.962 32.3664C179.827 32.9016 178.587 32.9964 177.407 32.6379C176.939 32.5581 176.88 32.351 176.965 31.745C177.13 30.1312 177.738 28.635 178.688 27.5032C179.567 26.7206 180.493 26.0226 181.459 25.4153C180.939 22.2903 181.651 21.1612 181.788 21.7119C182.333 24.0423 182.715 26.1701 183.374 28.6047C183.534 29.5213 183.893 30.3672 184.414 31.0519C184.934 31.7367 185.596 32.2345 186.329 32.4922C187.946 32.9566 189.637 32.8405 191.202 32.1577C191.039 31.0175 191.114 29.845 191.419 28.7498C191.724 27.6547 192.25 26.6726 192.947 25.8955C194.088 24.4442 195.235 23.8229 196.121 26.3557C196.469 27.2785 196.58 28.3099 196.439 29.3121C196.297 30.3144 195.911 31.2397 195.331 31.9644C196.635 32.5882 198.039 32.8297 199.432 32.67C200.825 32.5102 202.169 31.9535 203.357 31.044C202.19 30.1833 201.417 30.0452 200.791 30.4303C200.166 30.8154 200.157 30.1557 200.505 29.223C201.809 25.9921 205.272 26.7254 206.613 27.5661C207.907 28.3838 208.291 29.6218 206.704 31.248C209.033 33.0429 215.819 32.7115 217.959 29.3902C218.575 28.5035 218.735 28.867 218.395 30.6067C219.273 31.3911 220.301 31.8854 221.379 32.0427C223.203 30.4794 225.493 28.2473 227.81 26.2744C229.143 25.1376 232.058 24.6007 233.084 26.773C233.745 28.1353 232.68 30.6788 231.441 32.1424C233.687 31.7609 235.867 30.9281 237.894 29.6771C238.075 29.5035 238.296 29.4047 238.525 29.3947C238.754 29.3848 238.98 29.4643 239.171 29.6218C241.646 31.2572 242.277 31.7297 243.505 29.1048C243.365 28.1678 243.11 27.2622 242.75 26.4186C241.802 29.6157 239.552 28.7443 238.86 26.9694C238.687 26.1605 238.656 25.3157 238.769 24.4911C238.882 23.6664 239.136 22.8806 239.515 22.186C240.532 20.2883 241.705 20.793 243.005 23.1065C243.711 24.2266 244.142 25.5715 244.247 26.9828C244.353 28.3942 244.129 29.8132 243.601 31.0731C242.321 33.9189 241.143 33.5737 238.885 32.147C238.022 31.6054 238.068 31.6054 237.297 32.0503C232.547 34.7504 223.97 35.1446 220.382 34.3515C220.089 35.3211 219.978 35.7629 219.707 36.8061C219.621 37.162 219.488 37.3215 219.378 37.3215C219.236 37.3215 219.129 37.0531 219.229 36.5898M227.937 27.9987C226.441 28.7796 224.82 30.8752 223.22 32.1531C228.581 32.5014 231.168 30.4226 232.222 28.953C231.664 28.2919 230.96 27.8484 230.198 27.6781C229.436 27.5078 228.65 27.6183 227.939 27.9957L227.937 27.9987ZM191.934 30.0498C192.427 30.4917 192.951 30.8783 193.501 31.205C194.265 30.7431 194.987 30.182 195.654 29.5313C195.155 28.0218 194.79 27.1872 194.294 27.1627H194.275C193.748 27.1627 193.067 28.0662 191.934 30.0498ZM177.928 30.2033C179.438 30.5773 181.004 30.4013 182.434 29.697C182.233 28.7459 181.935 27.8469 181.779 27.1182C180.358 27.8551 179.055 28.9006 177.933 30.2048L177.928 30.2033ZM240.668 23.2998C240.183 23.309 239.788 23.9287 239.515 24.906C239.604 25.25 239.779 25.5501 240.017 25.7627C240.254 25.9753 240.54 26.0893 240.833 26.0881C241.126 26.0869 241.412 25.9705 241.648 25.756C241.884 25.5415 242.058 25.24 242.145 24.8952C241.6 23.7723 241.099 23.2998 240.675 23.2998H240.668ZM147.807 36.6358C147.617 36.5514 147.769 36.2292 147.922 36.2615C149.016 36.5296 150.15 36.4023 151.187 35.8948C152.345 35.1486 153.223 33.8788 153.636 32.3526C153.644 32.2208 153.615 32.0896 153.553 31.9813C153.406 32.5167 153.055 32.9785 152.688 32.9631C152.437 32.9321 152.202 32.7943 152.024 32.5735C151.845 32.3527 151.735 32.0625 151.712 31.7527C151.683 30.9719 152.046 29.1033 152.783 29.1094C153.393 29.1094 154.047 30.4901 154.053 31.7619C154.063 32.8551 153.819 33.929 153.35 34.8573C152.881 35.7855 152.206 36.5292 151.404 37.0009C150.202 37.3033 148.955 37.1788 147.809 36.6419L147.807 36.6358ZM152.161 31.1253C152.186 31.4075 152.32 31.9138 152.66 31.8785C152.802 31.868 152.938 31.8079 153.054 31.7052C153.169 31.6025 153.258 31.4614 153.31 31.2986C153.361 30.9918 153.011 30.2247 152.669 30.191H152.657C152.426 30.191 152.208 30.7663 152.158 31.1207L152.161 31.1253ZM128.699 35.9516L129.259 34.1198C128.466 33.803 127.781 33.1698 127.313 32.3203C127.055 31.9123 127.025 31.9859 126.645 32.4538C126.227 33.0549 125.716 33.5464 125.141 33.8991C124.566 34.2519 123.939 34.4586 123.297 34.507C122.656 34.5554 122.013 34.4444 121.407 34.1808C120.801 33.9171 120.245 33.5061 119.771 32.9723C116.296 35.5328 110.863 37.0883 107.198 36.0973C105.375 35.5389 103.66 34.2564 103.199 30.2999C102.601 25.4092 102.483 20.2806 101.757 15.0278C101.715 14.8038 102.204 12.7788 102.417 12.7788C102.438 12.7788 102.456 12.8018 102.471 12.8494C103.447 17.329 103.334 22.2075 103.767 26.1962C104.13 30.5699 104.682 32.0611 106.563 33.1165C110.179 35.1262 115.81 33.2193 118.479 31.4919C118.112 31.0713 117.657 30.7848 117.165 30.6648C116.673 30.5447 116.164 30.5958 115.694 30.8123C115.071 31.1912 115.108 30.5423 115.452 29.6111C116.756 26.3803 119.909 27.0276 121.247 27.8653C122.541 28.6737 122.904 30.145 121.257 31.7987C122.9 33.0352 125.429 32.035 126.899 30.2646C127.363 29.6801 127.647 29.4224 128.136 30.1112C128.838 31.097 129.796 31.7534 130.846 31.969C133.175 29.5513 134.973 27.7103 136.288 26.4585C138.158 24.7065 142.147 25.1775 140.915 29.743C139.586 34.1919 133.009 35.0464 129.849 34.3269C129.655 34.9666 129.427 35.5903 129.168 36.194C129.044 36.5284 128.884 36.6833 128.773 36.6833C128.633 36.6833 128.561 36.4225 128.704 35.9531L128.699 35.9516ZM136.964 27.9282C135.956 28.2565 134.221 30.1419 132.226 32.0519C136.571 31.9567 138.887 30.6359 140.109 29.2153C139.801 28.7916 139.427 28.4492 139.008 28.209C138.59 27.9687 138.136 27.8356 137.674 27.8177C137.438 27.8204 137.203 27.858 136.974 27.9297L136.964 27.9282ZM169.058 35.9853C168.869 35.9009 169.02 35.5773 169.173 35.611C170.267 35.878 171.399 35.7506 172.436 35.2443C173.594 34.499 174.472 33.2289 174.884 31.7021C174.894 31.5704 174.865 31.4389 174.803 31.3308C174.655 31.8662 174.304 32.328 173.937 32.3111C173.685 32.2815 173.449 32.1442 173.271 31.9231C173.092 31.702 172.983 31.411 172.96 31.1007C172.936 30.3199 173.298 28.4498 174.033 28.4513C174.641 28.4513 175.296 29.832 175.303 31.1038C175.313 32.1969 175.069 33.2709 174.6 34.1991C174.13 35.1273 173.455 35.8711 172.654 36.3428C171.452 36.6452 170.204 36.5207 169.057 35.9838L169.058 35.9853ZM173.412 30.4779C173.438 30.7601 173.571 31.2664 173.91 31.2342C174.052 31.2223 174.189 31.1615 174.304 31.0587C174.419 30.9558 174.508 30.8151 174.561 30.6527C174.612 30.3459 174.262 29.5789 173.92 29.5436H173.905C173.68 29.5436 173.463 30.1189 173.417 30.4794L173.412 30.4779ZM162.112 31.337C161.617 31.9603 161.085 32.5377 160.521 33.0644C160.254 33.3547 159.907 33.5089 159.551 33.4955C158.649 33.5862 157.742 33.5527 156.846 33.3957C156.472 33.316 156.483 33.069 156.574 32.5827C156.746 31.3749 157.121 30.225 157.677 29.2076C158.592 27.7432 159.812 26.6109 161.208 25.9308C161.163 25.6086 161.083 25.2067 161.043 24.9382C160.97 24.6235 160.963 24.2909 161.022 23.9717C161.113 23.5115 161.204 22.9822 161.294 22.499C161.385 21.9605 161.476 21.8776 161.604 22.525C161.955 24.4948 162.228 26.5996 162.578 28.4022C162.747 30.266 163.413 32.0085 164.472 33.3574C164.678 33.5999 164.929 33.7777 165.203 33.8757C165.477 33.9738 165.766 33.9892 166.045 33.9208C166.325 33.8523 166.588 33.7019 166.81 33.4824C167.033 33.2628 167.209 32.9805 167.324 32.6594C166.843 29.4224 165.901 21.4512 165.091 16.4423C164.961 15.7173 164.738 15.0225 164.431 14.3835C164.386 14.2715 164.431 14.2301 164.451 14.1595C164.603 13.6993 165.182 12.5548 165.358 12.1759C165.424 12.0639 165.483 11.9949 165.527 11.998C165.551 12.013 165.574 12.0345 165.591 12.061C165.609 12.0875 165.622 12.1183 165.629 12.1514C165.915 13.2864 166.426 14.3163 167.115 15.149C167.179 15.2289 167.219 15.3343 167.227 15.4466C167.234 15.5589 167.209 15.6709 167.156 15.7627C166.914 16.2229 166.548 16.8611 166.351 17.1848C166.833 20.6289 167.737 26.6027 167.934 28.8333C168.176 31.363 168.415 35.815 165.775 36.3796C165.651 36.4083 165.526 36.4226 165.401 36.4225C163.81 36.4103 162.64 34.0155 162.112 31.337ZM157.959 30.6021C157.893 30.7141 157.834 30.7801 157.959 30.7801C159.307 30.96 160.671 30.796 161.966 30.2984L161.841 29.6372C161.717 28.9668 161.58 28.1813 161.467 27.405C160.162 28.2226 158.978 29.3038 157.964 30.6037L157.959 30.6021ZM94.4407 35.993C93.5674 35.9608 92.7346 35.5328 92.1021 34.7913C91.4696 34.0497 91.082 33.0469 91.0135 31.9752C90.4026 27.9941 89.9925 18.228 89.3367 12.9997C89.2956 12.5042 89.2121 12.4551 89.3567 12.0332C89.5013 11.5561 89.6883 11.1343 89.8317 10.6878C89.9227 10.4071 89.9738 10.2276 90.0137 10.2276C90.0623 10.2046 90.1047 10.381 90.1782 10.7354C90.5996 13.2022 90.9861 20.0689 91.2354 23.8198C91.5234 28.1153 91.8326 31.8846 93.3211 32.9432C94.4268 33.4368 95.6126 33.5969 96.779 33.41C97.9454 33.2232 99.0584 32.6948 100.025 31.8693C100.144 31.4261 100.185 30.9568 100.146 30.4924C100.107 30.028 99.9882 29.5791 99.7976 29.1754C99.6866 29.7211 99.436 30.2084 99.0826 30.5654C98.7292 30.9223 98.292 31.1299 97.8354 31.1575C97.5394 31.1294 97.2513 31.0271 96.9887 30.8569C96.726 30.6868 96.4945 30.4523 96.3082 30.168C96.1231 29.8722 95.9937 29.5296 95.929 29.1649C95.8643 28.8002 95.8661 28.4223 95.9342 28.0586C96.0638 26.5599 96.6224 25.1667 97.51 24.1282C97.7171 23.8773 97.9849 23.7158 98.2729 23.6679C98.5765 23.745 98.8516 23.9409 99.0571 24.2264C100.082 25.5273 100.721 27.2155 100.87 29.0183C101.019 30.821 100.67 32.6329 99.8787 34.1613C99.38 35.0695 96.6735 36.0175 94.9131 36.0175C94.7461 36.0175 94.5878 36.0175 94.4394 35.9945M97.8179 26.187C97.6974 26.2473 97.5908 26.3432 97.5075 26.4662C97.3052 26.6709 97.136 26.9207 97.0088 27.2025C96.931 27.3295 96.8924 27.4864 96.9 27.6452C96.9075 27.804 96.9606 27.9543 97.0499 28.0693C97.1815 28.259 97.3421 28.4149 97.5227 28.5281C97.7032 28.6413 97.9001 28.7096 98.1021 28.729C98.3448 28.7033 98.5805 28.6153 98.7939 28.4708C99.0073 28.3263 99.1938 28.1284 99.3413 27.8898C99.0971 27.3406 98.7754 26.8492 98.3914 26.4385C98.2626 26.2858 98.0937 26.195 97.9151 26.1823H97.8703C97.8516 26.1801 97.8328 26.1801 97.8142 26.1823M144.535 35.0802C144.45 33.1136 144.255 31.1566 143.951 29.223C143.53 26.5352 142.715 21.4527 142.229 18.5409C142.03 17.3305 141.801 16.1017 141.628 14.8744C141.554 14.5383 141.554 14.1842 141.628 13.8481L141.926 11.9857C141.95 11.8231 142.009 11.7095 142.074 11.6942C142.139 11.6789 142.21 11.7402 142.236 11.9458C142.418 13.7545 142.727 15.6277 143.053 17.4885C143.427 19.6777 144.175 24.5209 144.571 26.9341C144.869 28.5908 145.062 30.2738 145.147 31.9675C145.162 33.0394 145.04 34.1075 144.784 35.1324C144.749 35.2643 144.693 35.3364 144.645 35.3364C144.596 35.3364 144.544 35.2582 144.537 35.0802M26.2184 33.4863C24.7224 32.3694 25.7272 29.1324 26.4777 27.1136C26.2708 27.023 26.2708 26.9601 26.3406 26.6042L26.6348 24.7311C26.656 24.57 26.6809 24.5071 26.737 24.4733C26.826 24.4844 26.9129 24.514 26.9938 24.5608C27.7693 24.7419 28.5058 25.1194 29.1565 25.6692C29.8072 26.219 30.3579 26.9293 30.7738 27.7548C31.0023 28.4794 31.0805 29.2627 31.0013 30.0339C30.922 30.805 30.6879 31.5397 30.32 32.1715C30.1205 32.4898 29.8744 32.7593 29.5944 32.9662C28.8991 33.4915 28.1058 33.7884 27.2906 33.8284C26.9131 33.8442 26.5401 33.7242 26.2172 33.4832M26.7495 30.8936C27.5773 31.6745 29.4922 30.777 30.047 30.28C30.1006 30.2125 30.1006 30.1802 30.047 30.0851C29.2909 28.7144 28.1595 27.724 26.8592 27.2946C26.1636 29.338 26.2608 30.4318 26.7532 30.8936H26.7495ZM147.672 29.1401C147.6 29.1033 147.627 28.9115 147.653 28.752C147.823 27.8343 148.131 26.9639 148.56 26.1854C148.576 26.1549 148.596 26.1284 148.62 26.1076C148.644 26.0867 148.671 26.0719 148.7 26.0639C148.729 26.056 148.758 26.055 148.787 26.0611C148.816 26.0672 148.844 26.0802 148.868 26.0995C148.879 26.107 148.888 26.1157 148.897 26.1256C149.477 26.6392 150.178 26.903 150.892 26.8758C152.455 26.8496 153.955 26.1087 155.099 24.7971C155.158 24.7234 155.2 24.7004 155.224 24.7219C155.248 24.7434 155.245 24.8339 155.224 24.9459C154.836 27.1596 152.448 28.146 151.117 28.2289C150.246 28.3036 149.376 28.05 148.624 27.5017C148.6 27.4776 148.571 27.463 148.54 27.46C148.509 27.457 148.479 27.4656 148.452 27.4848C148.188 27.9523 147.99 28.4709 147.865 29.0189C147.854 29.0598 147.832 29.0953 147.804 29.1203C147.776 29.1454 147.741 29.1588 147.706 29.1585C147.694 29.1567 147.681 29.1531 147.669 29.1478M213.564 27.043C213.702 26.0385 213.673 25.0097 213.477 24.0197C213.282 23.0297 212.924 22.0993 212.425 21.2855C212.217 20.981 212.032 20.6522 211.876 20.3036C211.953 19.8628 212.075 19.4356 212.238 19.0319C212.309 18.8524 212.397 18.9107 212.503 19.0687C213.579 20.6363 214.191 22.6075 214.237 24.659C214.249 25.6132 214.004 27.4204 213.575 27.4419C213.49 27.4419 213.536 27.247 213.56 27.0445L213.564 27.043ZM132.936 24.9949C132.508 24.7188 131.915 24.3169 131.576 24.0944C131.404 23.9824 131.401 23.8398 131.485 23.648C131.682 23.1755 132.029 22.3931 132.292 21.8761C132.368 21.7227 132.441 21.6951 132.61 21.8147C133.013 22.1077 133.668 22.5818 134.066 22.8886C134.191 22.9853 134.175 23.1126 134.096 23.2752C133.878 23.7354 133.537 24.458 133.302 24.929C133.286 24.9688 133.262 25.0024 133.232 25.0262C133.201 25.0501 133.166 25.0631 133.13 25.064C133.06 25.0602 132.993 25.036 132.932 24.9934L132.936 24.9949ZM223.434 24.9213C223.006 24.6452 222.413 24.2432 222.074 24.0208C221.906 23.9088 221.901 23.7723 221.983 23.5805C222.179 23.108 222.527 22.3241 222.79 21.8071C222.868 21.6537 222.939 21.6245 223.102 21.7411C223.506 22.0341 224.159 22.5082 224.559 22.815C224.684 22.9116 224.668 23.039 224.588 23.2031C224.37 23.6633 224.03 24.3859 223.794 24.8569C223.778 24.8967 223.754 24.9303 223.723 24.9542C223.693 24.978 223.658 24.991 223.622 24.9919C223.554 24.9872 223.487 24.9624 223.429 24.9198L223.434 24.9213ZM48.8208 24.2509C48.4468 24.0147 47.8234 23.5698 47.427 23.2905C47.2125 23.1371 47.1926 22.9761 47.2736 22.7966C47.5005 22.2903 47.8284 21.6797 48.0453 21.2747C48.17 21.0431 48.2535 21.0231 48.453 21.1827C48.827 21.4788 49.3668 21.8807 49.7832 22.2259C50.0687 21.6782 50.3679 21.0093 50.6085 20.5629C50.6871 20.4218 50.7531 20.3988 50.914 20.5353C51.2655 20.8114 51.9749 21.3698 52.2641 21.5938C52.4461 21.738 52.4785 21.8378 52.3651 22.1001C52.1348 22.6127 51.8775 23.1062 51.5946 23.5774C51.5814 23.6058 51.5634 23.6304 51.5419 23.6496C51.5205 23.6689 51.4959 23.6825 51.47 23.6894C51.4443 23.6966 51.4176 23.697 51.3918 23.6903C51.366 23.6837 51.3416 23.6703 51.3204 23.6511C50.884 23.3826 50.4327 23.0297 49.8767 22.6293C49.5526 23.2752 49.3319 23.7876 49.1287 24.1312C49.1079 24.1743 49.0791 24.2107 49.0446 24.2374C49.0102 24.264 48.971 24.2803 48.9305 24.2847C48.8914 24.2839 48.8532 24.2707 48.8195 24.2463L48.8208 24.2509ZM192.735 22.186C192.308 21.9175 191.714 21.5156 191.375 21.2931C191.207 21.175 191.204 21.0369 191.284 20.8467C191.48 20.3742 191.829 19.5903 192.092 19.0733C192.169 18.9199 192.24 18.8877 192.406 19.0058C192.809 19.3003 193.463 19.782 193.857 20.0797C193.982 20.1763 193.967 20.3036 193.887 20.4678C193.669 20.928 193.329 21.6506 193.093 22.1216C193.078 22.1615 193.054 22.1954 193.023 22.2195C192.993 22.2436 192.958 22.257 192.922 22.2581C192.855 22.2518 192.79 22.2266 192.732 22.1845L192.735 22.186ZM26.2408 22.051C25.8668 21.8117 25.2435 21.3698 24.8483 21.0906C24.6339 20.9372 24.6139 20.7731 24.695 20.5936C24.9219 20.0873 25.2497 19.4767 25.4654 19.0733C25.5901 18.8401 25.6736 18.8217 25.8731 18.9812C26.2471 19.2773 26.7881 19.6762 27.2033 20.0244C27.4913 19.4752 27.7905 18.8125 28.0311 18.3584C28.1084 18.2172 28.1757 18.1942 28.3365 18.3338L29.6854 19.3924C29.8674 19.535 29.8999 19.6348 29.7864 19.8986C29.557 20.4109 29.2996 20.9035 29.016 21.3729C29.0034 21.4015 28.9861 21.4265 28.965 21.4461C28.944 21.4657 28.9198 21.4796 28.894 21.4867C28.8682 21.4939 28.8415 21.4941 28.8157 21.4874C28.7898 21.4808 28.7655 21.4673 28.7442 21.4481C28.3078 21.1781 27.8566 20.8268 27.3005 20.4248C26.9764 21.0722 26.7557 21.5815 26.5525 21.9267C26.5316 21.97 26.5026 22.0065 26.4679 22.0332C26.4332 22.0599 26.3938 22.076 26.353 22.0801C26.3149 22.0783 26.2777 22.0651 26.2446 22.0418M156.523 20.8881C157.985 19.813 159.282 18.4284 160.353 16.7982C159.772 16.6421 159.212 16.3837 158.691 16.0311C158.419 15.824 158.317 15.4635 158.47 14.8422C158.581 14.2365 158.809 13.6727 159.135 13.1982C159.46 12.7237 159.874 12.3526 160.34 12.1161C160.762 12.0271 161.108 12.3401 161.348 13.19C161.549 13.919 161.62 14.693 161.556 15.4589L161.482 15.7933L162.254 16.1201C162.211 16.3313 162.159 16.5397 162.099 16.7445C161.934 17.3459 162.005 17.3029 161.694 17.2047C161.512 17.148 161.356 17.0805 161.179 17.036C160.133 19.0306 158.579 20.5415 156.76 21.3315C156.625 21.418 156.477 21.4702 156.325 21.4849C156.06 21.4849 156.118 21.1781 156.52 20.882L156.523 20.8881ZM160 13.483L159.767 13.6701C159.605 13.8756 159.465 14.1061 159.352 14.3559C159.352 14.3559 159.119 14.833 159.352 14.8867C159.975 15.172 160.317 15.3331 160.44 15.4129C160.576 15.4972 160.717 15.567 160.863 15.6215C160.894 15.4324 160.908 15.2393 160.903 15.0462C160.904 14.4962 160.75 13.9626 160.467 13.5367C160.442 13.4979 160.409 13.4675 160.372 13.448C160.334 13.4285 160.294 13.4205 160.253 13.4247C160.164 13.4261 160.076 13.4458 159.992 13.483H160ZM96.5899 21.4097C96.1623 21.1413 95.5689 20.7393 95.2298 20.5169C95.0577 20.4003 95.0553 20.2637 95.1388 20.0704C95.3358 19.5979 95.6836 18.8155 95.9466 18.297C96.0227 18.1436 96.095 18.1114 96.2645 18.2311C96.6672 18.5241 97.3205 18.9981 97.7157 19.3049C97.8403 19.4046 97.8241 19.5289 97.7456 19.6961C97.5274 20.1564 97.1871 20.8774 96.9515 21.3484C96.9358 21.3883 96.9114 21.422 96.881 21.4459C96.8506 21.4697 96.8155 21.4827 96.7794 21.4834C96.7116 21.4778 96.6458 21.4525 96.5874 21.4097M228.86 19.4491C230.323 18.3745 231.619 16.9904 232.69 15.3607C232.109 15.2048 231.549 14.9465 231.027 14.5937C230.755 14.3866 230.653 14.026 230.808 13.4047C230.918 12.7988 231.146 12.2347 231.472 11.7601C231.797 11.2856 232.211 10.9146 232.678 10.6786C233.099 10.5881 233.446 10.9026 233.683 11.7525C233.884 12.482 233.955 13.2565 233.891 14.023L233.816 14.3574L234.589 14.6827C234.546 14.8938 234.494 15.1022 234.434 15.307C234.27 15.9069 234.34 15.8655 234.03 15.7673C233.845 15.7074 233.693 15.643 233.516 15.597C232.47 17.592 230.915 19.103 229.096 19.8925C228.961 19.9795 228.813 20.0317 228.661 20.0459C228.399 20.0459 228.457 19.7391 228.859 19.4522L228.86 19.4491ZM232.339 12.044L232.107 12.2327C231.945 12.4376 231.806 12.6682 231.693 12.9184C231.693 12.9184 231.46 13.394 231.693 13.4492C232.316 13.7346 232.66 13.8956 232.781 13.9754C232.918 14.0588 233.06 14.1286 233.205 14.1841C233.236 13.9948 233.249 13.8018 233.245 13.6088C233.245 13.058 233.091 12.524 232.807 12.0977C232.782 12.0592 232.749 12.0289 232.712 12.0093C232.675 11.9898 232.635 11.9817 232.594 11.9857C232.506 11.9893 232.418 12.0095 232.335 12.0455L232.339 12.044ZM49.2708 19.6793C48.8432 19.4031 48.2485 19.0012 47.9107 18.7787C47.7387 18.6667 47.7349 18.5302 47.8159 18.3384C48.0129 17.8659 48.3607 17.082 48.625 16.565C48.7023 16.4116 48.7734 16.3794 48.9405 16.5021C49.3444 16.7967 49.9976 17.2784 50.3916 17.576C50.5225 17.6726 50.5013 17.8 50.4215 17.9641C50.2033 18.4243 49.8642 19.1469 49.6286 19.6179C49.6127 19.6576 49.5882 19.6911 49.5579 19.7149C49.5276 19.7387 49.4925 19.7519 49.4566 19.7529C49.3913 19.7448 49.3283 19.7192 49.2721 19.6777M239.488 19.3157C239.061 19.0395 238.465 18.6376 238.128 18.4167C237.96 18.3047 237.956 18.1605 238.037 17.9703C238.234 17.4977 238.582 16.7154 238.845 16.1984C238.924 16.0449 238.995 16.0112 239.159 16.1385C239.562 16.4331 240.216 16.9148 240.615 17.2124C240.74 17.3091 240.724 17.4364 240.644 17.6005C240.426 18.0608 240.086 18.7818 239.85 19.2543C239.834 19.2939 239.81 19.3274 239.78 19.3512C239.75 19.375 239.715 19.3882 239.679 19.3893C239.612 19.3861 239.546 19.3635 239.487 19.3233L239.488 19.3157ZM178.241 18.343C179.704 17.2675 181 15.8824 182.07 14.2516C181.489 14.0956 180.93 13.8373 180.409 13.4845C180.138 13.2743 180.035 12.9169 180.191 12.294C180.302 11.6882 180.53 11.1241 180.855 10.6496C181.181 10.175 181.594 9.80399 182.061 9.56792C182.483 9.47588 182.828 9.7919 183.059 10.6418C183.26 11.3714 183.331 12.1457 183.268 12.9123L183.192 13.2467L183.965 13.572C183.922 13.7848 183.871 13.9947 183.81 14.2009C183.646 14.7992 183.719 14.7594 183.408 14.6612C183.221 14.6013 183.074 14.5369 182.892 14.4909C181.846 16.4861 180.292 17.9972 178.472 18.7864C178.338 18.8727 178.191 18.9249 178.039 18.9398C177.79 18.9398 177.837 18.633 178.238 18.3461M181.716 10.9379L181.484 11.1266C181.322 11.3318 181.182 11.5623 181.069 11.8123C181.069 11.8123 180.837 12.2894 181.075 12.3431C181.698 12.6285 182.039 12.7896 182.163 12.8678C182.299 12.9527 182.441 13.0235 182.586 13.0795C182.617 12.8902 182.63 12.6972 182.625 12.5042C182.625 11.9539 182.472 11.4202 182.19 10.9931C182.164 10.9541 182.131 10.9236 182.093 10.904C182.056 10.8845 182.015 10.8766 181.974 10.8811C181.887 10.8843 181.801 10.904 181.718 10.9394L181.716 10.9379ZM111.278 18.7619C111.344 18.4366 111.566 17.7263 111.616 17.5438C111.651 17.4134 111.691 17.3904 111.773 17.3489C113.02 16.6908 119.409 14.1611 120.827 13.4308C120.911 13.3848 120.97 13.4308 120.94 13.5582C120.872 13.865 120.691 14.494 120.61 14.7118C120.591 14.7595 120.564 14.802 120.532 14.8368C120.499 14.8716 120.461 14.898 120.42 14.9143C119.16 15.5279 113.13 18.027 112.095 18.4734C111.894 18.5578 111.606 18.7603 111.433 18.8462C111.404 18.8616 111.373 18.8704 111.342 18.8723C111.293 18.8723 111.262 18.8447 111.281 18.7634L111.278 18.7619ZM129.844 18.5057C129.813 18.3062 129.986 18.1114 130.126 17.9994C130.447 17.7493 132.494 16.4975 132.506 16.3717C132.079 16.1123 131.622 15.9373 131.15 15.8532C130.624 15.7911 130.095 15.9425 129.644 16.2843C129.446 16.4465 129.279 16.6595 129.153 16.9086C129.04 17.1157 128.929 16.9332 128.986 16.6693C129.036 16.5159 129.111 16.2981 129.168 16.1416C129.362 15.6063 129.686 15.1589 130.097 14.8623C130.507 14.5657 130.983 14.4348 131.457 14.4878C132.052 14.6265 132.635 14.8267 133.202 15.0861C133.371 15.1367 133.962 15.2073 133.989 15.4114C133.921 15.8988 133.753 16.3568 133.5 16.7414C133.438 16.8001 133.363 16.8348 133.285 16.8411C132.901 17.2864 132.463 17.6569 131.988 17.9396C131.334 18.2832 131.044 18.2571 130.235 18.6176C130.181 18.6416 130.123 18.6541 130.065 18.6545C129.955 18.6545 129.863 18.6054 129.846 18.5011L129.844 18.5057ZM33.5925 17.6588C33.6636 17.3397 33.8144 16.7384 33.8643 16.5589C33.898 16.4269 33.9391 16.4055 34.0202 16.364C35.2668 15.7059 39.2238 13.7561 40.6413 13.035C40.7261 12.9875 40.7834 13.035 40.7497 13.1654C40.6766 13.5158 40.5892 13.8614 40.4879 14.2009C40.4692 14.2491 40.4426 14.2919 40.4098 14.3267C40.377 14.3616 40.3386 14.3877 40.2972 14.4034C39.0393 15.0171 35.3105 16.8994 34.3318 17.4042C34.1373 17.5039 33.9179 17.6634 33.7459 17.7493C33.717 17.7646 33.6862 17.7734 33.6549 17.7754C33.6063 17.7754 33.5763 17.7401 33.5925 17.6588ZM25.352 15.7381C25.423 15.416 25.5764 14.8177 25.6237 14.6336C25.6586 14.5047 25.6998 14.4801 25.7821 14.4418C27.0288 13.7837 30.2365 12.2097 31.6539 11.4794C31.7387 11.4319 31.7961 11.4794 31.7624 11.6068C31.6894 11.9581 31.602 12.3048 31.5006 12.6454C31.4817 12.6933 31.455 12.736 31.4222 12.7708C31.3894 12.8057 31.3512 12.8319 31.3099 12.8479C30.052 13.4615 27.0711 14.9741 26.09 15.4819C25.8943 15.5801 25.6749 15.7381 25.5028 15.824C25.4725 15.8404 25.4399 15.8497 25.4068 15.8516C25.3657 15.8516 25.3345 15.8148 25.352 15.7381ZM187.214 15.4712C187.284 15.149 187.437 14.5507 187.486 14.3682C187.519 14.2378 187.56 14.2148 187.641 14.1749C188.888 13.5213 194.614 11.1235 196.032 10.3948C196.116 10.3442 196.175 10.3948 196.144 10.5191C196.07 10.8705 195.982 11.2171 195.881 11.5577C195.862 11.6055 195.835 11.6481 195.803 11.6829C195.77 11.7177 195.732 11.744 195.691 11.7602C194.432 12.3738 188.935 14.7057 187.954 15.2104C187.76 15.3101 187.54 15.4697 187.367 15.5571C187.338 15.5719 187.307 15.5807 187.276 15.5832C187.227 15.5832 187.196 15.5525 187.214 15.4712ZM55.9456 15.3362C56.0166 15.0156 56.1687 14.4157 56.2173 14.2347C56.2535 14.1043 56.2934 14.0813 56.3744 14.0414C57.6211 13.3833 62.4607 11.1833 63.8782 10.4546C63.9692 10.4071 64.0216 10.4546 63.9892 10.585C63.9156 10.9354 63.8278 11.281 63.7261 11.6206C63.7071 11.6682 63.6805 11.7106 63.648 11.7454C63.6155 11.7802 63.5776 11.8066 63.5366 11.8231C62.2775 12.4367 57.666 14.5753 56.6799 15.08C56.4854 15.1797 56.2647 15.3408 56.0927 15.4252C56.0638 15.4404 56.033 15.4492 56.0017 15.4512C55.953 15.4512 55.9219 15.419 55.9406 15.3377L55.9456 15.3362ZM215.666 15.2303C215.732 14.9036 215.955 14.1917 216.003 14.003C216.038 13.8742 216.078 13.8496 216.16 13.8082C217.407 13.1501 223.798 10.6203 225.215 9.89009C225.306 9.84253 225.359 9.89008 225.33 10.0159C225.26 10.3227 225.081 10.9548 224.998 11.1711C224.98 11.2193 224.954 11.2622 224.921 11.297C224.888 11.3319 224.85 11.358 224.809 11.3736C223.548 11.9872 217.517 14.4848 216.483 14.9312C216.283 15.0156 215.993 15.2181 215.823 15.3055C215.794 15.3207 215.763 15.3296 215.732 15.3316C215.681 15.3316 215.649 15.3055 215.667 15.2227L215.666 15.2303ZM21.1033 14.6474C21.1718 14.3252 21.3252 13.7269 21.375 13.5459C21.41 13.4124 21.4523 13.3925 21.5334 13.351C22.7801 12.6929 25.9878 11.1189 27.4065 10.3887C27.4975 10.3411 27.5524 10.3887 27.5175 10.5191C27.4444 10.8704 27.357 11.2171 27.2556 11.5577C27.2363 11.6055 27.2093 11.6481 27.1764 11.6829C27.1434 11.7177 27.1051 11.744 27.0637 11.7602C25.8058 12.3738 22.8249 13.888 21.8438 14.3927C21.6493 14.4924 21.4299 14.652 21.2566 14.7394C21.2276 14.7542 21.1969 14.763 21.1656 14.7655C21.1182 14.7655 21.0871 14.7333 21.1045 14.652L21.1033 14.6474ZM95.064 11.7479C95.1326 11.4257 95.2859 10.8274 95.3358 10.6449C95.3707 10.516 95.4118 10.4915 95.4916 10.4516C96.7383 9.79344 99.9472 8.21944 101.365 7.48767C101.456 7.44011 101.508 7.48767 101.478 7.61193C101.41 7.91876 101.291 8.43268 101.216 8.65052C101.197 8.69828 101.17 8.7408 101.137 8.77557C101.104 8.81034 101.066 8.83667 101.024 8.85303C99.7665 9.46667 96.7857 10.9808 95.8045 11.4825C95.6088 11.5837 95.3906 11.7448 95.2173 11.8292C95.1885 11.8445 95.1577 11.8533 95.1263 11.8553C95.0752 11.8553 95.0453 11.8292 95.064 11.7479ZM236.313 11.3598C236.384 11.0391 236.538 10.4393 236.585 10.2583C236.62 10.1294 236.661 10.1049 236.743 10.0634C237.99 9.40531 241.947 7.46312 243.364 6.73595C243.455 6.68072 243.509 6.72828 243.473 6.86022C243.4 7.21118 243.313 7.55732 243.211 7.89727C243.192 7.94529 243.166 7.98804 243.133 8.02287C243.1 8.0577 243.062 8.08388 243.02 8.09978C241.764 8.71342 238.034 10.5958 237.055 11.1005C236.859 11.2002 236.64 11.3598 236.468 11.4457C236.439 11.4609 236.408 11.4697 236.377 11.4718C236.324 11.4718 236.293 11.4426 236.311 11.3613L236.313 11.3598ZM140.049 10.203C140.091 9.92625 140.149 9.65349 140.223 9.3869C140.474 9.19299 140.74 9.02961 141.017 8.89905C140.66 8.67434 140.318 8.41798 139.992 8.132C139.864 8.02651 139.772 7.86636 139.734 7.68249C139.697 7.49862 139.716 7.30406 139.787 7.13636C140.315 6.03894 141.156 5.22248 142.146 4.84593C142.35 4.89137 142.541 5.00207 142.699 5.16689C142.857 5.33171 142.977 5.54483 143.046 5.78481C143.046 6.02413 142.738 6.90931 142.548 6.91698C142.387 6.91698 142.298 6.14992 141.687 6.09009C141.474 6.06401 140.537 6.55953 140.531 6.7605C141.055 7.45689 141.76 7.9066 142.525 8.03228C143.09 8.04432 143.653 7.95333 144.196 7.76228C144.287 7.73313 144.348 7.77608 144.287 7.93256C144.177 8.26333 144.043 8.58075 143.885 8.88065C142.61 9.20429 141.364 9.68377 140.166 10.312C140.153 10.322 140.137 10.3273 140.122 10.3273C140.077 10.3273 140.048 10.2644 140.054 10.2M91.5583 9.976C91.6294 9.65537 91.7815 9.05553 91.8301 8.87451C91.865 8.74564 91.9049 8.7211 91.9872 8.67968C93.2339 8.02308 96.4441 6.44754 97.8603 5.71577C97.9513 5.66975 98.0037 5.71577 97.9712 5.84003C97.9027 6.14685 97.7842 6.66079 97.7094 6.87863C97.6908 6.92655 97.6644 6.96924 97.6318 7.00407C97.5992 7.0389 97.5611 7.06513 97.5199 7.08113C96.262 7.70398 93.2812 9.21048 92.2989 9.71367C92.1044 9.81492 91.8837 9.97447 91.7117 10.0604C91.6828 10.0756 91.652 10.0845 91.6207 10.0865C91.5745 10.0865 91.5421 10.0604 91.5596 9.97907L91.5583 9.976ZM162.399 9.73668C162.468 9.41758 162.62 8.81621 162.67 8.63672C162.704 8.50785 162.745 8.48331 162.826 8.44189C164.073 7.78376 168.031 5.8339 169.447 5.11133C169.538 5.05917 169.591 5.11133 169.558 5.24173C169.485 5.59253 169.398 5.9377 169.296 6.27725C169.278 6.32522 169.251 6.36796 169.219 6.40281C169.186 6.43765 169.148 6.46384 169.107 6.47976C167.849 7.0934 164.12 8.97576 163.142 9.47895C162.947 9.57866 162.726 9.73821 162.556 9.82565C162.527 9.84444 162.495 9.85641 162.462 9.86094C162.411 9.86094 162.381 9.83179 162.397 9.75048L162.399 9.73668ZM136.939 4.90116C137.01 4.57899 137.162 3.98069 137.211 3.79813C137.246 3.66927 137.287 3.64472 137.369 3.60637C138.616 2.94824 143.455 0.748318 144.873 0.0180809C144.957 -0.0294765 145.016 0.0180833 144.982 0.145415C144.91 0.496084 144.822 0.841746 144.719 1.18094C144.701 1.22891 144.674 1.27164 144.642 1.30648C144.609 1.34133 144.571 1.36752 144.53 1.38344C143.272 1.99708 138.66 4.13717 137.679 4.63883C137.485 4.74008 137.265 4.89962 137.092 4.98553C137.063 5.00078 137.033 5.00961 137.001 5.01161C136.953 5.01161 136.921 4.984 136.939 4.90116ZM388.546 47.9508C388.618 47.6302 388.77 47.0304 388.818 46.8493C388.854 46.7205 388.895 46.6959 388.976 46.6545C390.223 45.9979 395.062 43.7995 396.48 43.0677V43.0816C396.561 43.034 396.623 43.0816 396.59 43.1935C396.517 43.5446 396.43 43.8907 396.328 44.2306C396.309 44.2785 396.283 44.3212 396.25 44.356C396.218 44.3909 396.18 44.4171 396.138 44.4331C394.879 45.0468 390.27 47.1868 389.282 47.6885C389.087 47.7897 388.865 47.9493 388.696 48.0352C388.667 48.05 388.636 48.0588 388.605 48.0613C388.555 48.0613 388.524 48.0367 388.54 47.9539L388.546 47.9508ZM469.605 41.5889C468.804 40.4128 468.347 38.9405 468.305 37.407C468.264 35.8734 468.641 34.367 469.377 33.1282C469.698 32.5008 470.043 32.5437 469.723 33.3445C468.28 36.9451 469.761 39.1189 471.255 40.1315C473.374 41.5613 478.337 40.3386 479.678 36.962C479.434 34.9086 478.941 32.9116 478.217 31.0372C478.156 30.9261 478.116 30.7994 478.101 30.6665C478.085 30.5337 478.094 30.3982 478.126 30.2702L478.458 28.4753C478.543 28.015 478.721 28.0641 478.881 28.4906C478.881 28.4906 479.238 29.3037 479.399 29.6734C479.746 30.3975 480.03 30.9007 480.638 30.9866C481.232 31.0938 481.838 31.0371 482.412 30.8206C482.986 30.6041 483.513 30.2332 483.956 29.7348C484.457 28.9525 484.858 28.0802 485.144 27.1483C485.386 26.298 485.842 25.5646 486.446 25.0542C486.63 24.9167 486.841 24.8396 487.056 24.8302C487.379 24.8469 487.685 25.011 487.914 25.2905C488.804 26.3316 489.353 27.7382 489.456 29.2439C489.523 29.7051 489.514 30.1781 489.431 30.6353C489.392 30.995 489.329 31.3501 489.242 31.6969C489.171 32.0544 488.894 32.039 488.635 32.0037C487.245 31.8336 485.913 31.2376 484.759 30.2702C484.467 31.3687 483.862 32.3002 483.056 32.8924C482.249 33.4847 481.296 33.6976 480.372 33.4918C480.436 35.5878 480.197 37.6811 479.666 39.6743C478.507 42.0184 475.786 43.2564 473.392 43.2549C472.701 43.3228 472.006 43.2102 471.354 42.9244C470.701 42.6385 470.105 42.186 469.604 41.5965L469.605 41.5889ZM485.396 28.4891C486.282 29.0138 487.243 29.3223 488.225 29.3973C488.019 28.0933 487.408 26.9105 486.707 26.9105C486.278 26.9105 485.817 27.3538 485.396 28.4891ZM368.634 32.737C368.942 32.0467 369.184 32.4686 369.008 32.9027C367.694 36.0016 367.748 40.673 372.182 40.5089C374.576 40.4935 377.123 38.6265 377.783 36.8991C377.83 35.7163 377.589 34.7421 376.56 32.062C376.321 31.4484 376.346 31.5236 376.417 31.1416L376.741 29.5783C376.875 29.0199 377.039 28.9739 377.259 29.5952C377.549 30.4267 377.893 31.3809 377.978 31.654C378.089 31.9663 378.278 32.2276 378.516 32.401C378.755 32.5744 379.032 32.6512 379.308 32.6204C380.85 30.8347 384.115 27.1851 385.179 26.3306V26.3551C385.756 25.8752 386.454 25.6653 387.146 25.7632C387.838 25.8611 388.479 26.2604 388.952 26.889C389.262 27.2712 389.462 27.7662 389.524 28.3001C389.586 28.834 389.506 29.3782 389.295 29.8514C389.036 30.6792 388.677 31.4548 388.232 32.1525C387.957 32.5601 387.617 32.8951 387.235 33.1374C384.631 34.8407 381.671 35.5409 378.74 35.1471C378.686 35.1333 378.649 35.1072 378.596 35.0904C378.676 36.1763 378.549 37.2704 378.224 38.285C377.9 39.2996 377.387 40.2067 376.726 40.9338C375.407 42.2527 373.772 43.0014 372.074 43.0647H372.041C367.054 43.0647 366.203 38.0236 368.639 32.7462L368.634 32.737ZM385.629 28.1915C383.883 28.5259 381.275 32.0636 380.335 32.8091C383.163 32.9911 385.961 32.0164 388.292 30.037C388.391 29.9342 388.355 29.9434 388.278 29.7839V29.8023C388.006 29.3449 387.658 28.9636 387.258 28.6833C386.858 28.403 386.414 28.2302 385.955 28.1761H385.843C385.772 28.1751 385.7 28.1803 385.629 28.1915ZM322.513 41.3695C321.878 40.9369 322.185 40.3309 322.771 40.5334C325.184 41.6173 327.839 41.5555 330.217 40.36C332.033 39.1198 333.435 37.1293 334.173 34.7406C334.087 34.7454 334 34.7356 333.916 34.7114C333.669 34.705 333.432 34.587 333.251 34.3801C333.07 34.1731 332.957 33.8914 332.933 33.5885C332.875 33.0909 332.875 32.5857 332.933 32.0881C332.981 31.7138 333.057 31.4254 333.401 31.7721C333.825 32.1378 334.336 32.3201 334.853 32.2906C336.571 32.3577 338.26 31.7192 339.651 30.4758C339.462 29.5657 339.17 28.6925 338.785 27.8816C338.479 29.2976 337.941 30.2472 337.145 30.4481C336.598 30.4781 336.064 30.2396 335.66 29.7851C335.256 29.3305 335.016 28.6972 334.991 28.0243V27.9997C334.989 26.3021 335.406 24.6438 336.187 23.244C336.632 22.4938 336.982 22.437 337.643 23.0415C338.648 24.0727 339.423 25.4014 339.895 26.9028C340.431 28.5548 340.505 30.3787 340.106 32.0881C340.06 32.3326 339.954 32.5538 339.802 32.7217C338.384 34.1009 336.622 34.8343 334.815 34.7974C334.133 38.5452 332.917 40.877 331.277 42.1166C330.323 42.7686 329.241 43.0869 328.151 43.0371C326.197 42.9787 324.276 42.4097 322.516 41.368M336.45 25.3503C336.205 25.7468 336.008 26.1844 335.864 26.6497C335.773 26.9949 335.739 27.0792 335.98 27.3692C337.057 28.5244 337.806 28.0028 338.224 26.8507C337.882 26.2424 337.461 25.708 336.977 25.269C336.896 25.1997 336.803 25.155 336.705 25.1386C336.623 25.1386 336.549 25.2 336.441 25.3518M384.64 41.1624C383.719 40.604 384.073 39.9228 384.898 40.3079C390.447 42.9803 393.874 39.4488 395.42 34.6854C394.876 34.4371 394.424 33.9535 394.149 33.325C393.874 32.6965 393.794 31.9661 393.924 31.2704C394.015 30.6138 394.1 30.2901 394.423 30.9483C395.602 33.343 399.978 32.7892 402.185 32.0221C401.986 30.9674 402.017 29.8667 402.274 28.8313C402.532 27.7958 403.006 26.8623 403.651 26.125C404.63 24.8732 406 24.2672 406.751 26.4595C407.097 27.3119 407.237 28.2688 407.154 29.2162C407.072 30.1637 406.769 31.062 406.284 31.8043C408.992 32.8628 410.751 32.622 411.317 31.1707C410.945 29.9197 410.353 28.7847 409.585 27.8463C409.515 27.1368 409.567 26.4171 409.737 25.7338C409.802 25.4132 409.876 25.3534 410.085 25.608C410.988 26.5995 411.608 27.922 411.854 29.3804C412.156 31.2781 411.582 33.9827 410.081 34.7375C408.366 35.477 405.669 34.265 404.127 33.5378C401.627 34.85 398.89 35.3319 396.191 34.9354C394.944 40.4889 392.911 42.9512 389.909 42.9512C388.069 42.8279 386.272 42.22 384.64 41.1685V41.1624ZM404.9 27.1682C404.41 27.1912 403.787 27.969 402.735 29.8314C403.18 30.3436 403.693 30.7586 404.252 31.0587C405.012 30.5706 405.721 29.971 406.364 29.273C405.796 27.9936 405.43 27.1682 404.924 27.1682H404.9ZM431.792 42.5262C431.862 42.2071 432.017 41.6057 432.064 41.4262C432.098 41.2974 432.139 41.2728 432.22 41.2314C433.466 40.5748 437.422 38.6342 438.841 37.9024C438.922 37.8548 438.983 37.9024 438.952 38.0282C438.878 38.3791 438.791 38.7252 438.689 39.0653C438.67 39.1133 438.643 39.156 438.611 39.1908C438.578 39.2257 438.539 39.2519 438.498 39.2678C437.24 39.8814 433.511 41.7638 432.533 42.2685C432.336 42.3667 432.118 42.5262 431.944 42.6137C431.915 42.6284 431.885 42.6372 431.853 42.6397C431.805 42.6397 431.773 42.6075 431.79 42.5277M409.878 41.842C409.504 41.6027 408.881 41.1593 408.485 40.8786C408.27 40.7252 408.251 40.5718 408.333 40.3846C408.558 39.8783 408.888 39.2678 409.103 38.8643C409.227 38.6311 409.311 38.6127 409.51 38.7722C409.884 39.0668 410.424 39.4672 410.84 39.8154C411.128 39.2678 411.428 38.5989 411.668 38.1525V38.1678C411.746 38.0236 411.813 38.0021 411.98 38.1202C412.328 38.3994 413.038 38.9579 413.326 39.1803C413.508 39.3245 413.541 39.4242 413.427 39.6866C413.197 40.1998 412.94 40.6934 412.656 41.1639C412.632 41.2164 412.593 41.2555 412.546 41.273C412.5 41.2905 412.45 41.2849 412.406 41.2575L412.381 41.2391C411.946 40.9691 411.495 40.6178 410.94 40.2158C410.614 40.8632 410.395 41.3726 410.192 41.7177C410.171 41.761 410.142 41.7975 410.108 41.8242C410.073 41.8509 410.033 41.867 409.993 41.8711C409.955 41.8686 409.919 41.8549 409.887 41.8313L409.878 41.842ZM417.92 40.1008C415.721 38.6495 414.708 34.4629 417.027 29.0076C417.341 28.3372 417.631 28.6732 417.462 29.1948C415.218 35.4447 417.801 38.5605 420.988 38.3994C423.727 38.0998 426.296 36.6402 428.258 34.2696C428.355 34.1469 428.355 34.1469 428.234 34.0533C427.719 33.8492 427.172 33.7926 426.636 33.8876C425.66 34.0392 424.669 33.8627 423.769 33.3768C422.68 32.576 422.198 31.4039 422.923 28.7253C423.709 26.0742 425.199 23.827 427.152 22.348C428.092 21.8878 428.865 22.1946 429.521 23.9297C429.647 24.2224 429.691 24.5587 429.645 24.8855L429.404 26.2662C429.331 26.662 429.089 26.7264 428.921 26.326C428.316 24.6891 427.591 24.4758 426.819 24.8747C425.457 25.8421 424.343 27.2622 423.606 28.9723C423.474 29.2034 423.405 29.4803 423.41 29.7628C423.414 30.0453 423.492 30.3187 423.631 30.5433C424.085 31.4637 425.296 31.7445 426.648 31.7123C427.521 31.7123 428.508 31.4315 428.968 32.0467C429.192 32.4426 429.329 32.9023 429.367 33.3819C429.405 33.8615 429.342 34.3451 429.185 34.7866C429.029 35.3172 428.781 35.8002 428.46 36.2026C426.423 38.9578 423.584 40.6118 420.561 40.8049C419.65 40.8236 418.748 40.5754 417.93 40.0808L417.92 40.1008ZM315.285 38.4762C315.573 37.2022 315.931 35.9541 316.358 34.7406C315.851 34.4272 315.379 34.0354 314.953 33.5747C314.564 33.1543 314.568 33.1543 314.228 33.7496C313.666 34.8185 312.806 35.598 311.81 35.941C310.814 36.284 309.75 36.167 308.819 35.612C308.213 35.109 307.708 34.4421 307.343 33.6623C306.978 32.8824 306.763 32.0103 306.714 31.1124C306.259 25.9524 305.534 20.8337 304.545 15.7882C304.488 15.6439 304.46 15.4851 304.464 15.325C304.467 15.1649 304.502 15.0081 304.564 14.8677L304.998 13.3673C305.089 13.0421 305.189 12.8396 305.254 12.8565C305.319 12.8734 305.324 13.0958 305.436 13.5422C306.014 15.8311 307.049 24.6845 307.212 25.9685C307.433 27.699 307.462 30.2855 308.307 31.8381C308.558 32.31 308.888 32.7106 309.275 33.013C309.662 33.3154 310.097 33.5127 310.551 33.5915C311.287 33.6688 312.027 33.4912 312.685 33.0789C313.344 32.6666 313.896 32.036 314.279 31.2582C314.666 30.4911 314.767 30.4083 315.54 31.0787C316.254 31.7082 317.049 32.1839 317.893 32.4854C319.602 30.9789 322.007 28.8327 323.803 27.1069C325.424 25.5436 327.997 25.6264 328.781 27.5379C329.467 29.4709 328.321 31.7521 326.736 33.2049C325.274 34.3114 323.644 35.0364 321.946 35.3352C320.248 35.6339 318.517 35.4999 316.863 34.9416C316.531 35.9234 316.013 37.8288 315.79 38.6234C315.641 39.0699 315.487 39.2601 315.378 39.2601C315.241 39.2601 315.18 38.964 315.29 38.4762M325.101 28.5044C324.388 28.5648 323.705 28.8852 323.14 29.4249C321.91 30.5739 320.626 31.5727 319.314 32.7999C322.125 33.1865 326.485 31.9194 327.806 29.9373C327.494 29.4889 327.106 29.1289 326.669 28.8821C326.233 28.6354 325.758 28.5076 325.278 28.5075L325.106 28.5167L325.101 28.5044ZM442.449 36.8561C440.566 36.1857 439.74 34.0303 439.063 31.519C438.921 32.2144 438.644 32.8571 438.256 33.3916C437.868 33.9261 437.38 34.3364 436.834 34.5872C435.676 35.1033 434.45 35.3519 433.218 35.3205C432.748 35.2913 432.462 35.1257 432.391 34.6102C432.292 33.9283 432.3 33.2298 432.413 32.5514C432.434 32.4394 432.528 31.9715 432.763 32.1433C432.975 32.286 432.795 32.8521 433.943 32.8812C435.679 32.9242 437.844 32.1004 438.609 30.5433C438.661 30.427 438.692 30.2979 438.699 30.1654C438.706 30.0328 438.69 29.8999 438.65 29.7762C438.161 27.6852 437.753 25.5942 437.536 24.5418C437.468 24.3472 437.461 24.1288 437.516 23.9282L437.721 22.3772C437.768 22.1455 437.819 22.0243 437.867 21.9952C437.913 21.9952 437.943 22.1486 437.992 22.3772C438.297 24.0509 439.027 27.3692 439.542 29.1856C439.859 30.829 440.572 32.3166 441.586 33.455C442.009 33.9226 442.531 34.2324 443.092 34.3479C443.22 34.3806 443.353 34.382 443.481 34.3518C443.61 34.3217 443.733 34.2607 443.842 34.1722C443.952 34.0837 444.046 33.9696 444.12 33.8362C444.193 33.7029 444.245 33.553 444.271 33.3952C444.281 33.3416 444.287 33.2872 444.29 33.2326C443.773 29.9327 442.919 25.7246 442.308 22.3404C442.019 20.794 441.46 18.0142 441.091 16.0382C440.873 15.6093 440.686 15.1575 440.533 14.6882C440.483 14.5911 440.452 14.4816 440.441 14.3677C440.431 14.2538 440.441 14.1384 440.472 14.0301C440.672 13.5039 440.913 12.9271 441.112 12.4055C441.126 12.346 441.149 12.2906 441.18 12.2423C441.211 12.1941 441.25 12.1541 441.294 12.1247C441.365 12.094 441.465 12.1416 441.566 12.4223C441.842 13.3087 442.27 14.1114 442.82 14.7757C442.893 14.896 442.934 15.0407 442.938 15.1904C442.941 15.3401 442.908 15.4876 442.842 15.6133C442.637 15.9385 442.423 16.3082 442.242 16.6319C442.349 17.2072 442.527 17.9651 442.633 18.5388C443.113 21.2619 443.88 24.7811 444.39 27.676C444.934 29.977 445.074 32.3938 444.803 34.7667C444.566 36.1888 444.098 36.9988 443.189 36.9988C442.935 36.9913 442.684 36.9396 442.441 36.8454M449.218 36.0983C449.134 34.1307 448.939 32.1727 448.636 30.238C448.221 27.5502 447.528 23.0951 447.042 20.1819C446.842 18.9715 446.614 17.7457 446.439 16.5169C446.366 16.1802 446.366 15.8257 446.439 15.489L446.736 13.6266C446.761 13.464 446.821 13.352 446.885 13.3351C446.948 13.3183 447.019 13.3812 447.037 13.5867C447.225 15.397 447.535 17.2686 447.853 19.131C448.227 21.3263 448.851 25.5359 449.247 27.9491C449.546 29.6068 449.738 31.2908 449.823 32.9856C449.839 34.0565 449.717 35.1238 449.46 36.1474C449.425 36.2808 449.369 36.3545 449.319 36.3545C449.269 36.3545 449.225 36.2747 449.218 36.0983ZM458.979 36.04C458.553 36.04 457.857 35.7224 457.87 35.0536C457.896 34.515 457.957 33.98 458.052 33.4535C458.122 33.0699 458.226 32.9764 458.415 33.3844C458.575 33.7311 459.179 33.8094 459.503 33.8094C460.883 33.7931 462.246 33.4504 463.52 32.7999C463.175 30.7889 462.264 28.9923 460.948 27.7266C460.589 27.5827 460.202 27.5769 459.84 27.7098C459.658 27.6791 459.773 26.3168 459.84 25.8688C459.855 25.7142 459.919 25.5732 460.018 25.4761C460.117 25.3791 460.243 25.3339 460.369 25.3503C461.366 25.3718 462.338 26.6466 463.045 28.0503C463.811 29.6009 464.157 31.4106 464.034 33.2188C464.005 34.0196 463.879 34.7329 463.565 34.9416C462.209 35.6759 460.744 36.0562 459.263 36.0584L458.979 36.04ZM264.647 35.6396C262.777 35.4862 260.497 35.0489 259.226 33.1957C258.739 32.5115 258.852 32.6573 258.521 33.2418C258.039 34.1008 257.351 34.7529 256.553 35.1066C255.755 35.4604 254.888 35.4982 254.071 35.2146C252.185 34.4982 251.733 31.7429 251.392 28.7637C250.842 24.1583 250.573 19.3396 249.825 14.5747C249.783 14.3354 250.462 11.7151 250.599 12.4745C251.403 17.1428 251.711 22.5874 252.317 27.5088C252.514 29.0721 252.746 31.7798 254.403 32.7248C255.12 33.0349 255.897 33.0643 256.628 32.8091C257.358 32.554 258.007 32.0266 258.485 31.2996C258.976 30.485 259.108 30.0723 259.755 30.9743C262.043 34.1177 269.772 33.6023 273.41 32.5836C274.139 32.4282 274.835 32.0932 275.456 31.5986C276.077 31.1041 276.611 30.4602 277.025 29.7056C277.66 28.3664 278.071 29.7962 276.695 32.2814C279.287 32.5882 280.789 32.1004 282.208 29.5553C282.629 28.8619 283.08 29.4019 281.967 31.7874C282.461 32.081 282.983 32.2985 283.52 32.4348C283.948 32.5315 284.144 32.4655 284.303 32.0728C284.655 31.2551 284.969 30.2794 285.314 29.3697C285.551 28.7284 286.003 28.6486 285.629 30.3791C288.182 32.4701 292.002 30.6936 294.221 29.8207C290.551 27.7788 289.045 27.5042 287.787 28.6057C287.295 29.0659 287.009 28.9401 287.319 27.9353C287.78 26.5469 289.074 24.6814 290.706 25.4623C294.063 27.7563 297.883 28.8239 301.716 28.5397C301.84 28.5397 301.666 29.1687 301.414 29.8023C301.162 30.4359 300.818 31.1078 300.654 31.0633C296.481 29.9588 294.506 31.6632 292.232 32.5744C289.881 33.5148 286.681 34.4506 285.018 32.2461C284.733 33.0469 284.118 34.4967 283.699 34.7007C283.163 34.7844 282.619 34.7218 282.105 34.5173C281.592 34.3129 281.121 33.9717 280.727 33.5179C279.831 34.18 278.833 34.6059 277.797 34.7686C276.76 34.9313 275.707 34.8272 274.705 34.4629C271.901 35.2621 269.032 35.6656 266.153 35.6657C265.654 35.6657 265.156 35.6554 264.657 35.635M455.275 35.3527C455.19 33.3851 454.996 31.4271 454.693 29.4924C454.277 26.8031 453.585 22.3496 453.097 19.4363C452.9 18.2259 452.669 16.9986 452.496 15.7713C452.423 15.4351 452.423 15.0812 452.496 14.745L452.794 12.881C452.818 12.7184 452.872 12.611 452.937 12.5911C453.002 12.5711 453.072 12.6371 453.093 12.8442C453.281 14.656 453.592 16.5261 453.91 18.3885C454.284 20.5823 454.907 24.7934 455.303 27.2066C455.602 28.8644 455.794 30.5483 455.879 32.2431C455.896 33.314 455.773 34.3813 455.517 35.4049C455.482 35.5383 455.426 35.612 455.377 35.612C455.328 35.612 455.281 35.5322 455.276 35.3542M350.957 31.7337C350.478 32.2914 349.974 32.8174 349.449 33.3093C349.177 33.5851 348.83 33.7218 348.479 33.6913C347.59 33.7651 346.697 33.7058 345.82 33.5148C345.466 33.4136 345.491 33.1911 345.57 32.7263C345.788 31.5775 346.196 30.4961 346.767 29.5492C347.746 27.9569 349.113 26.7906 350.668 26.2201C350.681 25.8167 350.694 25.5666 350.709 25.2797C350.724 24.9928 350.871 24.8947 350.936 24.7459C351.019 24.5323 351.116 24.3272 351.225 24.1322C351.425 23.7456 351.451 23.8775 351.451 24.08C351.415 26.274 351.532 28.4678 351.803 30.6368C352.044 31.6632 352.445 33.1328 353.806 33.1006C355.257 33.0377 356.372 32.1065 356.549 29.4188C356.161 27.4844 355.865 25.5241 355.661 23.5477C355.631 23.2389 355.652 22.9257 355.723 22.6272L356.052 21.0272C356.137 20.6191 356.35 20.5992 356.384 21.0011C356.506 23.4275 356.84 25.8306 357.381 28.1685C357.56 29.2281 358.033 30.1781 358.719 30.8551C359.406 31.5321 360.262 31.8937 361.141 31.8779C361.352 31.8396 361.765 31.8979 361.515 31.2167C360.539 28.5732 359.717 25.8467 359.058 23.0583C358.954 22.7069 358.947 22.3226 359.04 21.966L359.347 20.3905C359.367 20.2463 359.421 20.1665 359.496 20.1895C359.542 20.2082 359.584 20.2416 359.617 20.2862C359.65 20.3309 359.672 20.3854 359.683 20.4442C360.135 22.918 360.792 25.328 361.645 27.6361C362.271 29.3073 362.403 31.1949 362.019 32.9733C361.991 33.248 361.91 33.5106 361.783 33.7391C361.656 33.9677 361.487 34.1556 361.289 34.2872C361.091 34.4188 360.87 34.4903 360.645 34.4958C360.421 34.5013 360.198 34.4406 359.996 34.3187C359.287 34.0255 358.643 33.5326 358.116 32.8792C357.589 32.2259 357.193 31.4303 356.96 30.5555C357.009 31.7476 356.686 32.9178 356.056 33.8254C355.426 34.733 354.537 35.3092 353.573 35.4355C351.881 35.3343 351.187 33.6452 350.966 31.723L350.957 31.7337ZM346.968 30.893C346.899 30.982 346.843 31.0465 346.968 31.071C348.266 31.3297 349.596 31.2082 350.849 30.7166C350.774 29.8238 350.75 28.7821 350.747 27.742C349.343 28.5019 348.061 29.5697 346.968 30.893ZM365.268 33.7695C365.157 31.7721 364.945 29.7851 364.633 27.8202C364.231 25.2782 363.777 22.6717 363.323 19.9211C363.12 18.6938 362.888 17.4573 362.706 16.2055C362.632 15.8635 362.626 15.505 362.686 15.1592L362.929 13.2615C362.954 13.0943 363 12.9654 363.061 12.9547C363.122 12.9439 363.186 12.9976 363.212 13.2109C363.413 15.0518 363.727 16.9372 364.052 18.8334C364.4 20.8431 364.817 23.2516 365.158 25.4761C365.461 27.16 365.667 28.8682 365.775 30.5878C365.807 31.6777 365.713 32.7675 365.495 33.8247C365.464 33.9613 365.414 34.0364 365.37 34.0364C365.327 34.0364 365.277 33.9551 365.268 33.7756V33.7695ZM474.275 26.6696C473.848 26.3935 473.254 25.9931 472.915 25.7706C472.747 25.6525 472.743 25.5175 472.824 25.3242C473.021 24.8517 473.369 24.0678 473.632 23.5508C473.708 23.3974 473.78 23.3652 473.945 23.4879C474.349 23.7809 475.002 24.2549 475.402 24.5618C475.527 24.6584 475.511 24.7857 475.431 24.953C475.213 25.4132 474.871 26.1342 474.637 26.6052C474.621 26.6449 474.597 26.6784 474.566 26.7022C474.536 26.726 474.501 26.7392 474.465 26.7402C474.398 26.7349 474.333 26.7107 474.275 26.6696ZM380.459 25.9992C380.031 25.7231 379.437 25.3211 379.099 25.1002C378.927 24.9882 378.923 24.8517 379.004 24.6599C379.202 24.1874 379.549 23.4035 379.813 22.8865C379.889 22.7331 379.961 22.6994 380.131 22.8205C380.535 23.1151 381.188 23.5968 381.588 23.8944C381.713 23.9911 381.695 24.1184 381.617 24.2826C381.399 24.7428 381.058 25.4638 380.824 25.9363C380.808 25.9761 380.784 26.0098 380.754 26.0336C380.723 26.0574 380.688 26.0705 380.652 26.0713C380.584 26.0635 380.518 26.0362 380.46 25.9916L380.459 25.9992ZM319.297 25.6218C318.869 25.3472 318.274 24.9514 317.936 24.729C317.763 24.6109 317.762 24.4728 317.845 24.2826C318.042 23.81 318.39 23.0261 318.653 22.5091C318.731 22.3557 318.802 22.322 318.972 22.4462C319.374 22.7423 320.03 23.2225 320.424 23.5201C320.554 23.6167 320.532 23.7441 320.453 23.9067C320.235 24.3669 319.894 25.0895 319.658 25.5605C319.642 25.6004 319.618 25.6341 319.588 25.658C319.557 25.6818 319.522 25.6948 319.486 25.6955C319.418 25.6886 319.353 25.6623 319.295 25.6188M258.183 25.134C257.755 24.8578 257.162 24.4559 256.823 24.2335C256.651 24.1169 256.648 23.9803 256.728 23.787C256.926 23.3145 257.279 22.5306 257.538 22.0136C257.614 21.8602 257.687 21.828 257.855 21.9507C258.259 22.2483 258.912 22.7178 259.311 23.0246C259.436 23.1197 259.42 23.2486 259.34 23.4127C259.123 23.8729 258.781 24.594 258.546 25.0665C258.53 25.1064 258.505 25.1401 258.475 25.1642C258.445 25.1883 258.41 25.2017 258.374 25.203C258.306 25.1973 258.241 25.1726 258.183 25.1309M401.978 23.1887C401.604 22.9479 400.98 22.5061 400.585 22.2253C400.371 22.0719 400.351 21.9185 400.432 21.7313C400.658 21.2235 400.987 20.6145 401.202 20.2095C401.327 19.9763 401.411 19.9564 401.61 20.1159C401.984 20.412 402.524 20.8124 402.94 21.1591C403.228 20.6114 403.527 19.9426 403.768 19.4961C403.843 19.355 403.914 19.332 404.08 19.4639L405.43 20.5224C405.621 20.6667 405.644 20.7664 405.53 21.0287C405.301 21.5424 405.043 22.036 404.759 22.5061C404.746 22.5345 404.728 22.5592 404.707 22.5785C404.685 22.5978 404.661 22.6113 404.634 22.618C404.608 22.6251 404.581 22.6249 404.555 22.6174C404.529 22.61 404.505 22.5955 404.484 22.5751C404.047 22.3082 403.596 21.9538 403.042 21.5549C402.718 22.2008 402.498 22.7116 402.294 23.0568C402.273 23.1002 402.244 23.1367 402.209 23.1634C402.174 23.1901 402.135 23.2062 402.094 23.2102C402.056 23.2113 402.019 23.2013 401.985 23.1811L401.978 23.1887ZM459.287 21.6546C458.859 21.3785 458.264 20.9765 457.926 20.7541C457.753 20.6421 457.751 20.5071 457.832 20.3153C458.029 19.8413 458.376 19.0574 458.641 18.5419C458.717 18.3885 458.789 18.3547 458.957 18.4744C459.361 18.7705 460.015 19.2507 460.414 19.5483C460.538 19.6465 460.522 19.7723 460.442 19.9379C460.224 20.3982 459.885 21.1208 459.649 21.5917C459.634 21.6315 459.609 21.6652 459.579 21.689C459.548 21.7128 459.513 21.7259 459.477 21.7267C459.409 21.7201 459.344 21.6944 459.285 21.6516M375.344 20.7311C376.806 19.6558 378.102 18.2712 379.172 16.6411C378.592 16.4851 378.032 16.2268 377.512 15.8741C377.24 15.6639 377.138 15.3065 377.291 14.6852C377.403 14.0797 377.631 13.5161 377.956 13.0417C378.281 12.5673 378.695 12.196 379.161 11.959C379.584 11.8716 379.929 12.183 380.167 13.0329C380.368 13.7621 380.439 14.5359 380.375 15.3019L380.301 15.6363L381.072 15.9615C381.03 16.1739 380.978 16.3834 380.918 16.589C380.752 17.1888 380.823 17.1474 380.514 17.0492C380.328 16.9925 380.176 16.925 379.999 16.8805C378.953 18.8758 377.399 20.3869 375.579 21.176C375.445 21.2625 375.297 21.3147 375.145 21.3294C374.882 21.3294 374.939 21.0226 375.342 20.7357L375.344 20.7311ZM378.823 13.3244L378.593 13.5116C378.43 13.7165 378.29 13.9477 378.177 14.1988C378.177 14.1988 377.943 14.6744 378.177 14.7296C378.801 15.015 379.144 15.1761 379.266 15.2543C379.401 15.3398 379.542 15.4106 379.687 15.466C379.717 15.2756 379.73 15.0816 379.726 14.8877C379.727 14.3375 379.573 13.8039 379.289 13.3781C379.264 13.3394 379.231 13.3089 379.193 13.2894C379.156 13.2699 379.115 13.2619 379.075 13.2661C378.987 13.2693 378.9 13.2895 378.817 13.3259L378.823 13.3244ZM483.827 21.1744C483.102 21.041 482.669 20.0653 483.381 18.3149C483.589 17.8055 483.733 18.0694 483.663 18.3149C483.331 19.4762 483.679 19.8873 484.162 19.849C484.92 19.7845 485.341 19.2353 485.464 18.0295C485.484 17.8377 485.392 17.8761 485.736 17.5279C485.998 17.2655 485.964 17.4036 485.951 17.7733C485.922 17.9718 485.931 18.1757 485.977 18.3693C486.022 18.5629 486.103 18.741 486.214 18.8902C486.535 19.2138 486.978 19.1341 487.387 18.6462C487.37 18.3331 487.308 18.0262 487.205 17.7396C487.174 17.6429 487.205 17.5785 487.246 17.4895L487.594 16.6856C487.621 16.6059 487.695 16.5153 487.738 16.6749C487.965 17.4551 487.985 18.3034 487.797 19.0988C487.616 19.7446 487.473 20.1113 486.829 20.3261C486.587 20.4235 486.326 20.4218 486.084 20.3211C485.843 20.2204 485.635 20.0263 485.491 19.7677C485.396 20.1767 485.196 20.5367 484.92 20.7931C484.644 21.0494 484.308 21.1881 483.962 21.1882C483.917 21.1882 483.874 21.1882 483.831 21.1882L483.827 21.1744ZM327.469 20.5945C327.439 20.3982 327.611 20.2018 327.75 20.0898C328.071 19.8428 330.119 18.5925 330.13 18.4637C329.703 18.2049 329.246 18.03 328.775 17.9451C328.248 17.8836 327.719 18.0355 327.269 18.3778C327.071 18.5398 326.903 18.7528 326.778 19.0021C326.664 19.2092 326.555 19.0282 326.611 18.7628C326.661 18.6094 326.736 18.3946 326.793 18.2351C326.986 17.6989 327.31 17.2506 327.721 16.9531C328.131 16.6557 328.607 16.524 329.082 16.5767C329.676 16.715 330.26 16.9156 330.827 17.1765C330.995 17.2256 331.585 17.2962 331.614 17.4987C331.545 17.9862 331.377 18.4441 331.124 18.8288C331.062 18.8891 330.987 18.9249 330.908 18.9316C330.524 19.3765 330.087 19.7469 329.612 20.03C328.96 20.3736 328.668 20.3476 327.859 20.7081C327.804 20.733 327.745 20.746 327.687 20.7464C327.576 20.7464 327.482 20.6973 327.47 20.593M334.845 20.6667C334.471 20.4258 333.848 19.9824 333.453 19.7032C333.236 19.5498 333.217 19.3872 333.298 19.2092C333.524 18.703 333.854 18.0924 334.068 17.6874C334.193 17.4542 334.277 17.4358 334.476 17.5954C334.85 17.8914 335.39 18.2903 335.806 18.6386C336.094 18.0909 336.394 17.4205 336.634 16.9756C336.709 16.8329 336.779 16.8099 336.948 16.9449C337.296 17.2241 338.009 17.7825 338.295 18.005C338.485 18.1476 338.509 18.2458 338.394 18.5112C338.165 19.0233 337.907 19.5158 337.624 19.9855C337.611 20.0141 337.593 20.0389 337.572 20.0582C337.55 20.0775 337.525 20.0909 337.499 20.0975C337.473 20.1051 337.445 20.1053 337.419 20.0982C337.392 20.091 337.367 20.0766 337.346 20.0561C336.911 19.7861 336.46 19.4348 335.905 19.0328C335.581 19.6802 335.36 20.1926 335.157 20.5347C335.136 20.578 335.107 20.6145 335.072 20.6412C335.038 20.6679 334.998 20.684 334.957 20.6881C334.92 20.6892 334.882 20.6787 334.849 20.6574L334.845 20.6667ZM408.358 19.5007C409.82 18.4257 411.117 17.0411 412.187 15.4108C411.606 15.2548 411.047 14.9965 410.526 14.6437C410.255 14.4366 410.152 14.0761 410.306 13.4548C410.416 12.849 410.644 12.285 410.97 11.8104C411.295 11.3359 411.709 10.9649 412.176 10.7287C412.597 10.6397 412.944 10.9527 413.18 11.8026C413.382 12.531 413.453 13.3045 413.389 14.07L413.314 14.4044L414.088 14.7296C414.046 14.942 413.994 15.1515 413.933 15.3571C413.769 15.9569 413.842 15.9155 413.53 15.8173C413.343 15.7575 413.195 15.6946 413.013 15.647C411.968 17.6429 410.413 19.1541 408.593 19.9426C408.458 20.0289 408.311 20.081 408.16 20.096C407.896 20.096 407.952 19.7891 408.356 19.5007H408.358ZM411.837 12.094L411.605 12.2827C411.443 12.4882 411.303 12.7187 411.189 12.9685C411.189 12.9685 410.958 13.4441 411.196 13.4993C411.819 13.7846 412.159 13.9457 412.284 14.0239C412.42 14.1095 412.562 14.1803 412.708 14.2357C412.739 14.0464 412.752 13.8533 412.747 13.6604C412.748 13.1103 412.594 12.5767 412.312 12.1508C412.286 12.1105 412.253 12.0786 412.215 12.058C412.177 12.0373 412.136 12.0286 412.095 12.0327C412.005 12.0379 411.917 12.0596 411.833 12.0971L411.837 12.094ZM344.243 19.7646C344.314 19.4424 344.466 18.8441 344.514 18.66C344.549 18.5312 344.59 18.5066 344.673 18.4683C345.919 17.8101 349.127 16.2361 350.546 15.5059C350.632 15.4553 350.689 15.5059 350.657 15.6302C350.588 15.937 350.469 16.4509 350.395 16.6688C350.376 16.7164 350.349 16.7589 350.316 16.7936C350.283 16.8284 350.245 16.8548 350.204 16.8713C348.946 17.4849 345.966 18.9991 344.986 19.5038C344.789 19.6035 344.571 19.7646 344.398 19.849C344.368 19.8647 344.336 19.8735 344.302 19.875C344.256 19.875 344.225 19.8444 344.243 19.7646ZM436.308 19.6526C435.88 19.3765 435.285 18.9745 434.948 18.7536C434.777 18.6416 434.773 18.5051 434.853 18.3133C435.052 17.8408 435.403 17.0569 435.661 16.5399C435.739 16.3865 435.811 16.3527 435.979 16.4724C436.382 16.7685 437.036 17.2487 437.436 17.5463C437.561 17.6429 437.543 17.7702 437.466 17.9329C437.246 18.3931 436.905 19.1157 436.67 19.5866C436.655 19.6264 436.63 19.6601 436.6 19.6839C436.57 19.7077 436.534 19.7208 436.498 19.7216C436.432 19.7153 436.367 19.6901 436.31 19.648L436.308 19.6526ZM313.135 19.039C313.207 18.7183 313.359 18.1185 313.407 17.9375C313.442 17.8086 313.484 17.7917 313.566 17.7457C314.812 17.0876 319.651 14.8877 321.069 14.159C321.16 14.1114 321.213 14.159 321.194 14.2832C321.12 14.6342 321.032 14.9803 320.93 15.3203C320.911 15.3685 320.885 15.4114 320.852 15.4463C320.82 15.4811 320.782 15.5072 320.74 15.5228C319.482 16.1364 314.871 18.275 313.883 18.7797C313.689 18.8794 313.468 19.039 313.298 19.1264C313.269 19.1416 313.238 19.1505 313.206 19.1525C313.158 19.1525 313.128 19.1218 313.142 19.0405M272.007 18.8871C272.073 18.5603 272.298 17.847 272.346 17.6598C272.356 17.6129 272.376 17.5702 272.404 17.5363C272.432 17.5025 272.467 17.4788 272.505 17.468C273.751 16.8099 280.141 14.2801 281.559 13.5499C281.643 13.5008 281.702 13.5499 281.674 13.6772C281.604 13.9841 281.425 14.6161 281.344 14.8324C281.325 14.88 281.298 14.9223 281.265 14.9566C281.232 14.9909 281.193 15.0165 281.152 15.0319C279.893 15.6455 273.862 18.1522 272.826 18.591C272.626 18.6754 272.335 18.8809 272.164 18.9669C272.135 18.9816 272.105 18.9904 272.073 18.9929C272.025 18.9929 271.994 18.9638 272.01 18.8825L272.007 18.8871ZM285.686 17.646C285.751 17.3238 285.974 16.6074 286.024 16.4187C286.06 16.2898 286.1 16.2653 286.182 16.2269C287.429 15.5688 293.818 13.039 295.237 12.3073C295.322 12.2597 295.379 12.3073 295.35 12.4331C295.282 12.7399 295.101 13.372 295.02 13.5883C295.001 13.6362 294.975 13.6789 294.942 13.7137C294.91 13.7485 294.872 13.7748 294.83 13.7908C293.57 14.4044 287.539 16.9019 286.504 17.3484C286.302 17.4343 286.015 17.6368 285.842 17.7227C285.813 17.7374 285.782 17.7463 285.751 17.7488C285.702 17.7488 285.672 17.7212 285.69 17.6383L285.686 17.646ZM353.856 17.3116C353.13 17.1781 352.698 16.2039 353.41 14.4535C353.618 13.9442 353.764 14.208 353.691 14.4535C353.361 15.6148 353.709 16.026 354.19 15.9876C354.95 15.9232 355.369 15.374 355.494 14.1682C355.515 13.9749 355.422 14.0147 355.766 13.6665C356.029 13.4042 355.994 13.5438 355.98 13.912C355.952 14.1106 355.961 14.3145 356.007 14.508C356.053 14.7016 356.134 14.8797 356.244 15.0288C356.566 15.3525 357.007 15.2712 357.416 14.7833C357.4 14.4702 357.338 14.1631 357.234 13.8767C357.224 13.8343 357.222 13.7893 357.229 13.7459C357.236 13.7024 357.252 13.6619 357.275 13.6281L357.625 12.8243C357.652 12.7414 357.726 12.654 357.763 12.8105C357.99 13.5911 358.011 14.4398 357.823 15.2359C357.641 15.8818 357.496 16.2469 356.854 16.4632C356.612 16.561 356.35 16.5594 356.108 16.4588C355.867 16.3581 355.658 16.1637 355.514 15.9048C355.419 16.3134 355.219 16.673 354.944 16.9291C354.668 17.1852 354.332 17.3237 353.987 17.3238C353.945 17.3265 353.904 17.3265 353.862 17.3238L353.856 17.3116ZM312.882 16.095C312.951 15.7744 313.106 15.1745 313.154 14.9935C313.189 14.8646 313.231 14.8401 313.312 14.7987C314.559 14.1421 319.398 11.9406 320.816 11.2135C320.907 11.1674 320.96 11.2135 320.931 11.3377C320.858 11.6892 320.771 12.0359 320.669 12.3763C320.65 12.4242 320.624 12.4669 320.591 12.5017C320.558 12.5365 320.52 12.5628 320.478 12.5788C319.22 13.1925 314.609 15.3295 313.628 15.8357C313.432 15.9355 313.213 16.095 313.041 16.1824C313.012 16.1972 312.981 16.206 312.95 16.2085C312.895 16.2085 312.865 16.1794 312.881 16.0965M479.786 15.9186C479.852 15.5933 480.074 14.88 480.124 14.6913C480.159 14.5624 480.198 14.5379 480.281 14.4995C481.527 13.8414 487.917 11.3101 489.335 10.5814C489.42 10.5308 489.477 10.5814 489.449 10.7057C489.379 11.0125 489.199 11.6461 489.118 11.8609C489.079 11.9564 489.011 12.0292 488.929 12.0634C487.669 12.677 481.638 15.173 480.604 15.621C480.403 15.7053 480.114 15.9078 479.942 15.9953C479.913 16.01 479.882 16.0189 479.851 16.0214C479.799 16.0214 479.77 15.9953 479.786 15.9124M400.921 15.7283C400.889 15.5289 401.063 15.3356 401.201 15.2236C401.523 14.9736 403.57 13.7248 403.584 13.5959C403.157 13.3372 402.699 13.1622 402.228 13.0774C401.701 13.0148 401.172 13.1668 400.722 13.51C400.521 13.6712 400.351 13.8843 400.224 14.1344C400.11 14.3415 399.999 14.1605 400.059 13.8951C400.109 13.7417 400.184 13.5238 400.241 13.3673C400.434 12.8311 400.759 12.3826 401.17 12.0849C401.58 11.7872 402.057 11.6552 402.531 11.7074C403.126 11.8469 403.71 12.0481 404.277 12.3088C404.445 12.3564 405.035 12.4285 405.063 12.631C404.995 13.1187 404.826 13.5766 404.572 13.9611C404.51 14.0203 404.435 14.0565 404.356 14.0654C403.971 14.5082 403.533 14.8774 403.059 15.1607C402.407 15.5044 402.115 15.4783 401.306 15.8388C401.251 15.8628 401.193 15.8752 401.135 15.8756C401.03 15.8756 400.939 15.8281 400.919 15.7222L400.921 15.7283ZM455.133 15.1975C455.202 14.8754 455.357 14.2771 455.404 14.0945C455.439 13.9687 455.48 13.9411 455.563 13.9028C456.809 13.2446 460.768 11.2948 462.184 10.5722C462.269 10.5246 462.325 10.5722 462.294 10.6995C462.222 11.0064 462.105 11.5203 462.029 11.7366C462.01 11.7842 461.984 11.8266 461.951 11.8613C461.919 11.8961 461.881 11.9225 461.84 11.9391C460.582 12.5527 456.853 14.4336 455.874 14.9383C455.68 15.038 455.459 15.1975 455.288 15.285C455.26 15.3004 455.229 15.3092 455.197 15.3111C455.146 15.3111 455.115 15.2804 455.133 15.1975ZM255.529 13.6527C255.6 13.3321 255.752 12.7322 255.8 12.5512C255.835 12.4208 255.875 12.3978 255.958 12.3579C257.204 11.6998 260.413 10.1258 261.831 9.394C261.922 9.34491 261.974 9.394 261.944 9.5198C261.876 9.82662 261.757 10.3405 261.682 10.5569C261.663 10.6049 261.636 10.6476 261.603 10.6824C261.57 10.7172 261.532 10.7434 261.49 10.7594C260.234 11.3822 257.252 12.8887 256.27 13.395C256.075 13.4962 255.857 13.6558 255.683 13.7417C255.654 13.757 255.624 13.7659 255.592 13.7678C255.541 13.7678 255.511 13.7371 255.529 13.6558M330.011 12.7061C330.082 12.3855 330.234 11.7857 330.282 11.6062C330.318 11.4758 330.36 11.4528 330.441 11.4114C331.687 10.7563 337.411 8.36001 338.83 7.63131C338.914 7.58068 338.973 7.63131 338.944 7.75557C338.871 8.10637 338.784 8.45257 338.682 8.79416C338.663 8.84208 338.637 8.88474 338.604 8.91955C338.571 8.95437 338.533 8.9806 338.492 8.99667C337.233 9.61031 331.737 11.9422 330.762 12.4469C330.565 12.5466 330.347 12.7061 330.175 12.7936C330.146 12.8088 330.115 12.8177 330.084 12.8197C330.028 12.8197 329.997 12.789 330.016 12.7077M251.642 12.3119C251.713 11.9897 251.865 11.3914 251.913 11.2104C251.948 11.0815 251.989 11.057 252.07 11.0156C253.317 10.359 256.527 8.78342 257.945 8.05472C258.03 8.00716 258.087 8.05472 258.059 8.17592C257.991 8.48274 257.872 8.99667 257.798 9.21298C257.779 9.26099 257.752 9.30374 257.719 9.33857C257.687 9.37341 257.648 9.39958 257.607 9.41548C256.344 10.0383 253.368 11.5464 252.382 12.0541C252.186 12.1523 251.967 12.3119 251.795 12.3993C251.766 12.4141 251.735 12.4229 251.704 12.4254C251.653 12.4254 251.622 12.3947 251.642 12.3119ZM444.22 11.8378L444.389 11.2625C444.563 10.6709 444.79 10.1049 445.066 9.57503C445.2 9.30656 445.392 8.93837 445.689 9.11479C445.975 9.32545 446.285 9.48069 446.609 9.57503C447.051 8.56433 447.596 7.62667 448.23 6.78448C448.366 6.58071 448.534 6.41279 448.724 6.29074C448.914 6.1687 449.122 6.09505 449.336 6.07418C449.544 6.09648 449.741 6.19531 449.903 6.35782C450.065 6.52034 450.184 6.73903 450.243 6.98545C450.316 7.60818 450.235 8.24361 450.01 8.80857C449.785 9.37354 449.426 9.84172 448.981 10.1519C448.456 10.6401 447.83 10.9379 447.174 11.0116C446.518 11.0854 445.859 10.9321 445.27 10.5691C445.061 10.4157 444.805 11.5418 444.47 11.9498C444.451 11.9829 444.427 12.0111 444.399 12.0327C444.371 12.0542 444.34 12.0688 444.308 12.0756C444.247 12.0756 444.214 11.9897 444.214 11.8363M448.179 7.93046C447.793 8.41979 447.462 8.97029 447.195 9.56736C447.153 9.74224 447.649 9.61338 447.74 9.59497C448.216 9.44156 449.47 8.89695 449.667 8.35694C449.659 8.24584 449.633 8.1379 449.59 8.03958C449.547 7.94126 449.488 7.85458 449.418 7.78472C449.279 7.61995 449.095 7.52569 448.903 7.52085C448.629 7.55114 448.373 7.69632 448.176 7.93199M359.972 11.5908L360.142 11.014C360.316 10.4223 360.543 9.85634 360.819 9.3265C360.953 9.0565 361.145 8.68984 361.442 8.86627C361.727 9.07567 362.036 9.23083 362.359 9.3265C362.801 8.31531 363.346 7.37756 363.98 6.53595C364.116 6.3328 364.284 6.16519 364.474 6.04295C364.664 5.92072 364.871 5.84632 365.085 5.82412C365.294 5.84749 365.492 5.94782 365.654 6.11202C365.816 6.27622 365.934 6.49667 365.992 6.74459C366.065 7.36727 365.984 8.00256 365.758 8.56727C365.533 9.13199 365.174 9.5998 364.729 9.90946C364.204 10.3978 363.579 10.6956 362.923 10.7694C362.268 10.8431 361.609 10.6898 361.021 10.3267C360.812 10.1733 360.559 11.2994 360.22 11.7074C360.183 11.7694 360.127 11.8116 360.066 11.8256C360.004 11.8256 359.971 11.7412 359.971 11.5893L359.972 11.5908ZM363.938 7.685C363.554 8.17367 363.224 8.72311 362.958 9.31883C362.915 9.49218 363.412 9.36332 363.503 9.34491C363.979 9.1915 365.233 8.64689 365.43 8.10995C365.422 7.99891 365.395 7.89106 365.352 7.79278C365.31 7.69449 365.251 7.60777 365.181 7.53773C365.042 7.37253 364.858 7.27773 364.666 7.27232C364.389 7.30206 364.13 7.44965 363.933 7.6896L363.938 7.685ZM351.521 10.7609C351.592 10.4387 351.745 9.84043 351.793 9.65787C351.802 9.61086 351.821 9.56787 351.849 9.53353C351.877 9.49919 351.911 9.47481 351.95 9.46304C353.196 8.81104 357.153 6.85505 358.571 6.13248C358.662 6.08492 358.715 6.13248 358.68 6.25674C358.608 6.60826 358.52 6.95492 358.419 7.29534C358.4 7.34357 358.374 7.38649 358.341 7.42136C358.308 7.45623 358.269 7.48228 358.228 7.49784C356.97 8.11148 353.241 9.9923 352.263 10.4955C352.067 10.5967 351.847 10.7563 351.675 10.8422C351.646 10.857 351.616 10.8658 351.584 10.8683C351.533 10.8683 351.507 10.8422 351.521 10.7609ZM438.787 10.4817C438.062 10.3498 437.63 9.37559 438.342 7.62364C438.55 7.11431 438.694 7.37511 438.624 7.62364C438.292 8.78649 438.639 9.1961 439.123 9.15775C439.881 9.09332 440.302 8.5441 440.425 7.33829C440.445 7.14346 440.353 7.18488 440.697 6.83357C440.959 6.57124 440.924 6.71237 440.91 7.0821C440.882 7.28073 440.891 7.48471 440.937 7.67834C440.983 7.87196 441.064 8.05007 441.175 8.19893C441.496 8.52569 441.939 8.44285 442.347 7.95961C442.33 7.64555 442.268 7.33758 442.165 7.04988C442.133 6.95476 442.165 6.89647 442.206 6.80135L442.554 6.00055V6.01742C442.585 5.93151 442.658 5.84253 442.698 5.98367C442.925 6.76526 442.946 7.61509 442.758 8.41217C442.576 9.0565 442.434 9.42622 441.791 9.62872C441.548 9.72653 441.286 9.72498 441.045 9.6243C440.803 9.52362 440.595 9.32923 440.45 9.0703C440.356 9.4786 440.156 9.83797 439.881 10.094C439.606 10.3501 439.271 10.4889 438.926 10.4894C438.88 10.4922 438.835 10.4922 438.79 10.4894L438.787 10.4817ZM435.123 6.00822C435.193 5.68759 435.348 5.08775 435.395 4.90673C435.43 4.77786 435.471 4.75331 435.553 4.71189C436.8 4.05529 441.64 1.85384 443.058 1.12667V1.14048C443.143 1.09446 443.201 1.14048 443.167 1.25247C443.094 1.60383 443.006 1.95047 442.905 2.29107C442.886 2.33858 442.859 2.38094 442.827 2.4157C442.794 2.45047 442.757 2.47693 442.716 2.49357C441.457 3.10721 436.845 5.24423 435.859 5.75049C435.664 5.8502 435.444 6.00975 435.272 6.09566C435.242 6.11095 435.21 6.11977 435.177 6.12174C435.128 6.12174 435.1 6.09106 435.117 6.00975L435.123 6.00822Z" fill="#003F6A"/>
<path d="M500.434 24.9101C500.474 24.5593 500.566 24.3839 500.709 24.3839C500.937 24.4401 501.151 24.5621 501.333 24.7399L503.929 27.0717C504.047 27.1729 504.183 27.2376 504.326 27.2604C504.415 27.26 504.5 27.2164 504.563 27.1392C504.626 27.0619 504.662 26.9572 504.662 26.8477C504.645 26.676 504.58 26.5168 504.479 26.3967L502.36 23.4251C502.2 23.2139 502.089 22.9545 502.038 22.6734C502.033 22.6197 502.04 22.5653 502.057 22.5158C502.075 22.4662 502.103 22.4232 502.138 22.3911C502.256 22.3289 502.384 22.3031 502.512 22.316L504.1 22.5047V22.4111C504.053 21.4645 503.856 20.5384 503.52 19.685C503.113 18.572 502.643 17.4955 502.114 16.4633C501.768 15.7617 501.48 15.2166 501.251 14.828C501.023 14.4393 500.669 13.9065 500.189 13.2294C499.904 12.8285 499.69 12.5217 499.547 12.309C499.303 11.9582 499.16 11.7536 499.12 11.6953C498.855 11.3312 498.722 11.0755 498.722 10.9282C498.723 10.8772 498.733 10.8269 498.751 10.7812C498.77 10.7355 498.796 10.6956 498.829 10.6644C498.898 10.5893 498.987 10.5488 499.078 10.5509C499.19 10.5656 499.296 10.6188 499.384 10.7043L499.643 10.9114L500.056 11.2688C500.645 11.8013 501.206 12.3787 501.736 12.9978C502.42 13.74 503.063 14.5374 503.661 15.3848C504.232 16.178 504.763 17.0131 505.251 17.8854C505.607 18.5615 505.895 19.1567 506.114 19.6711C506.332 20.1856 506.6 20.9066 506.916 21.8343L507.146 22.4924L509.315 22.0981C509.436 22.0754 509.559 22.0631 509.681 22.0613C509.727 22.0531 509.774 22.0581 509.818 22.0759C509.861 22.0937 509.901 22.1239 509.934 22.1639C509.966 22.204 509.991 22.2529 510.006 22.3067C510.02 22.3605 510.025 22.4178 510.018 22.474C509.991 22.725 509.905 22.9605 509.769 23.1505L507.875 26.4964C507.785 26.6404 507.723 26.807 507.692 26.9843C507.692 27.0405 507.702 27.0961 507.722 27.1468C507.742 27.1975 507.771 27.2421 507.807 27.2773C507.875 27.3542 507.963 27.3974 508.056 27.3985C508.241 27.3613 508.412 27.254 508.544 27.0916L511.05 24.4591C511.186 24.2709 511.369 24.1449 511.57 24.1017C511.627 24.1025 511.683 24.1209 511.732 24.1552C511.782 24.1896 511.823 24.2387 511.853 24.298C511.936 24.4647 511.979 24.6565 511.978 24.8518V27.2589C513.323 28.0474 513.995 28.7495 513.995 29.3652C513.971 29.5833 513.909 29.7924 513.813 29.9779C513.717 30.1633 513.589 30.3207 513.438 30.4391C512.999 30.8593 512.506 31.1836 511.978 31.3979V33.5595C511.977 33.8255 511.938 34.0894 511.863 34.3388C511.835 34.404 511.791 34.4575 511.738 34.4927C511.685 34.5278 511.625 34.5431 511.565 34.5367C511.335 34.4921 511.121 34.3602 510.954 34.1593L508.693 31.7538C508.514 31.5213 508.287 31.3527 508.036 31.266C507.989 31.2655 507.942 31.2778 507.899 31.3019C507.856 31.326 507.817 31.3614 507.787 31.4056C507.752 31.4491 507.725 31.5006 507.706 31.5572C507.688 31.6139 507.679 31.6744 507.679 31.7354C507.708 31.9936 507.798 32.2355 507.939 32.4304L509.893 35.7011C510 35.8708 510.068 36.0718 510.092 36.284C510.092 36.5725 509.967 36.7167 509.71 36.7167C509.669 36.7167 509.603 36.7167 509.511 36.6983L507.25 36.1721C506.934 37.3494 506.508 38.4782 505.983 39.5364C504.993 41.5414 503.797 43.3803 502.423 45.007C501.77 45.7778 501.084 46.5054 500.369 47.187C500.024 47.5867 499.608 47.8828 499.155 48.0522C499.117 48.0509 499.08 48.0402 499.046 48.0207C499.012 48.0012 498.981 47.9733 498.956 47.9387C498.929 47.9106 498.907 47.8762 498.892 47.8374C498.876 47.7987 498.866 47.7565 498.864 47.7132C498.886 47.5186 498.962 47.3393 499.078 47.2054L499.628 46.4537L500.252 45.57C500.839 44.7515 501.381 43.8848 501.872 42.9758C502.374 42.0759 502.823 41.1337 503.216 40.1561C503.78 38.9235 504.128 37.5598 504.24 36.1521L502.696 36.396C502.585 36.4176 502.473 36.4299 502.36 36.4329C502.135 36.4329 502.023 36.3076 502.023 36.057C502.035 35.8796 502.088 35.7101 502.177 35.5691L504.331 32.5991C504.506 32.3975 504.629 32.1356 504.682 31.8474C504.682 31.5835 504.571 31.4516 504.347 31.4516C504.157 31.4618 503.973 31.5332 503.812 31.6587L501.194 34.1409C501.06 34.2914 500.897 34.3971 500.72 34.4477C500.547 34.4477 500.445 34.1844 500.415 33.6576V31.4393C499.87 31.1749 499.359 30.8175 498.895 30.3777C498.753 30.2574 498.635 30.0996 498.549 29.916C498.462 29.7324 498.41 29.5275 498.396 29.3161C498.417 29.112 498.48 28.9179 498.58 28.7531C498.692 28.5281 498.837 28.3305 499.007 28.1701C499.426 27.7607 499.903 27.4487 500.412 27.2497L500.434 24.9101ZM502.221 28.0121H503.58L503.626 27.9185L501.243 25.757V27.9385C500.757 28.0653 500.289 28.2771 499.853 28.5675C499.437 28.8487 499.229 29.1044 499.229 29.3345C499.229 29.5227 499.418 29.7451 499.794 30.0019C500.255 30.2991 500.741 30.5292 501.245 30.6876V32.8691L503.69 30.6508L503.613 30.5756H502.223V29.7855C501.85 29.7512 501.492 29.5955 501.184 29.3345C501.487 29.0529 501.846 28.8778 502.223 28.8283V28.0198L502.221 28.0121ZM505.109 32.9213L503.199 35.3467L503.29 35.4403L505.307 34.9893L505.261 35.2715L505.185 35.7609C504.979 36.8407 504.687 37.8927 504.312 38.9012C504.281 38.9892 504.231 39.1273 504.16 39.3154L504.175 41.2714C504.41 40.9562 504.622 40.6164 504.808 40.2559C505.08 39.7543 505.327 39.2333 505.549 38.6957C506.051 37.5403 506.441 36.3164 506.711 35.0491L508.88 35.6305L507.275 32.7541L507.244 32.7924V34.0197H506.496L505.9 35.2976H505.824V34.0197H505.107L505.109 32.9213ZM505.857 24.6371V23.3407H505.933L506.529 24.6371H507.277V25.8782H507.384L508.912 22.9833L506.727 23.5969L506.697 23.4083C506.448 22.2613 506.097 21.1516 505.651 20.0992C505.271 19.1096 504.785 18.1866 504.207 17.3546L504.222 19.4042C504.729 20.7717 505.113 22.2027 505.368 23.6721L503.336 23.2211L503.244 23.2963L505.137 25.7769V24.6309H505.855L505.857 24.6371ZM504.513 29.2609C504.511 29.5224 504.553 29.7816 504.636 30.0225C504.718 30.2634 504.84 30.4809 504.994 30.6615C505.223 30.941 505.514 31.1307 505.83 31.2066C506.147 31.2826 506.474 31.2414 506.772 31.0882C507.069 30.9351 507.323 30.6769 507.501 30.3462C507.68 30.0156 507.774 29.6274 507.773 29.2306C507.772 28.8338 507.676 28.4464 507.496 28.1172C507.316 27.788 507.06 27.5318 506.762 27.381C506.464 27.2302 506.136 27.1917 505.82 27.2701C505.504 27.3486 505.214 27.5406 504.986 27.8219C504.833 28.0089 504.712 28.232 504.631 28.478C504.549 28.7239 504.508 28.9876 504.511 29.2532L504.513 29.2609ZM510.195 30.6523H508.744V30.7075L511.173 32.8891V30.6999C511.675 30.5563 512.161 30.3319 512.616 30.0325C513.008 29.7625 513.205 29.515 513.205 29.29C513.205 28.9392 512.527 28.4882 511.173 27.9369V25.7186L508.744 28.0198V28.095H510.195V28.8835C510.555 28.9201 510.899 29.076 511.192 29.3345C510.889 29.5675 510.549 29.721 510.195 29.7855V30.6523Z" fill="#003F6A"/>
<path d="M499.075 10.5508C499.156 10.5508 499.258 10.6013 499.381 10.7015L499.64 10.9082L500.052 11.2652C500.388 11.5408 500.948 12.1178 501.733 12.9946C502.385 13.697 503.026 14.4927 503.657 15.3824C504.289 16.2721 504.819 17.1056 505.247 17.8829C505.603 18.5594 505.891 19.1556 506.109 19.6682C506.328 20.1827 506.596 20.9033 506.912 21.8311L507.141 22.489L509.31 22.094C509.453 22.0688 509.575 22.0564 509.677 22.0564C509.901 22.0564 510.013 22.1941 510.013 22.4697C510.013 22.6458 509.931 22.8714 509.768 23.147L507.874 26.493C507.752 26.731 507.69 26.8947 507.69 26.9815C507.69 27.0951 507.729 27.1918 507.805 27.2738C507.882 27.3548 507.965 27.3956 508.057 27.3956C508.18 27.3956 508.342 27.2953 508.546 27.0951L511.052 24.4631C511.266 24.225 511.439 24.1056 511.571 24.1056C511.683 24.1056 511.778 24.1716 511.854 24.3026C511.93 24.4345 511.973 24.6198 511.983 24.8571V27.2637C513.328 28.0528 514 28.7551 514 29.3697C514 29.7078 513.814 30.0652 513.443 30.4411C513.071 30.8168 512.585 31.1366 511.983 31.3998V33.5616C511.963 33.95 511.925 34.2105 511.869 34.3416C511.813 34.4735 511.714 34.5394 511.571 34.5394C511.418 34.5394 511.214 34.4142 510.96 34.1627L508.699 31.757C508.383 31.4314 508.164 31.2685 508.042 31.2685C507.95 31.2685 507.869 31.3154 507.798 31.4089C507.727 31.5033 507.691 31.6127 507.691 31.7379C507.691 31.9142 507.777 32.1454 507.951 32.4337L509.906 35.7043C510.039 35.9558 510.105 36.1496 510.105 36.2871C510.105 36.5762 509.977 36.7197 509.723 36.7197C509.682 36.7197 509.616 36.7139 509.524 36.7012L507.263 36.1752C506.927 37.4034 506.505 38.5249 505.995 39.5395C504.997 41.5578 503.81 43.3814 502.436 45.0105C501.682 45.8874 500.997 46.6147 500.381 47.1908C499.765 47.768 499.36 48.0561 499.166 48.0561C499.095 48.0561 499.029 48.0184 498.968 47.9433C498.906 47.8681 498.876 47.7929 498.876 47.7178C498.876 47.5792 498.947 47.4106 499.09 47.2102L499.64 46.4579L500.266 45.5744C500.796 44.8471 501.336 43.9827 501.886 42.98C502.436 41.977 502.884 41.0377 503.23 40.16C503.913 38.4306 504.254 37.0964 504.254 36.1562L502.711 36.4009C502.568 36.426 502.456 36.4385 502.375 36.4385C502.15 36.4385 502.039 36.3132 502.039 36.0619C502.039 35.924 502.089 35.7614 502.191 35.5734L504.345 32.6033C504.58 32.265 504.697 32.0145 504.697 31.8519C504.697 31.588 504.585 31.4561 504.361 31.4561C504.197 31.4561 504.019 31.5254 503.826 31.6632L501.213 34.1449C500.99 34.3454 500.832 34.4455 500.74 34.4455C500.567 34.4455 500.465 34.1824 500.435 33.6555V31.4378C499.752 31.0745 499.245 30.7205 498.915 30.3756C498.583 30.0308 498.418 29.6776 498.418 29.3134C498.418 29.1757 498.479 28.9877 498.601 28.7497C498.723 28.5117 498.866 28.3171 499.029 28.167C499.416 27.7786 499.885 27.4714 500.435 27.2458V24.9136C500.475 24.5628 500.567 24.3875 500.71 24.3875C500.832 24.3875 501.04 24.5061 501.336 24.7441L503.933 27.0756C504.106 27.2008 504.239 27.2635 504.33 27.2635C504.422 27.2635 504.501 27.2235 504.567 27.1417C504.633 27.0599 504.666 26.963 504.666 26.8502C504.666 26.725 504.605 26.5746 504.483 26.3993L502.359 23.4284C502.146 23.0776 502.038 22.8271 502.038 22.6768C502.038 22.5391 502.071 22.4446 502.138 22.3945C502.204 22.3443 502.329 22.3193 502.512 22.3193L504.101 22.5073V22.4138C504.101 21.699 503.907 20.7906 503.521 19.6873C503.215 18.8105 502.746 17.7392 502.115 16.4724C501.769 15.771 501.481 15.2256 501.252 14.8374C501.023 14.4487 500.669 13.9157 500.19 13.2393C499.905 12.8384 499.691 12.5313 499.548 12.3178C499.304 11.9674 499.161 11.7605 499.121 11.6978C498.856 11.3342 498.723 11.0775 498.723 10.9271C498.723 10.8268 498.759 10.7391 498.83 10.6639C498.901 10.5888 498.983 10.5508 499.075 10.5508ZM504.208 17.3555L504.223 19.4045C504.752 20.8591 505.134 22.2812 505.369 23.6722L503.337 23.2213L503.245 23.2965L505.139 25.7774V24.6307H505.858V23.3343H505.934L506.53 24.6311H507.279V25.8721H507.385L508.913 22.9771L506.728 23.5974L506.698 23.4095C506.494 22.4066 506.145 21.3036 505.651 20.1002C505.157 18.8969 504.676 17.9826 504.208 17.3555ZM511.174 32.8846V30.7034C511.744 30.5282 512.225 30.306 512.618 30.0362C513.01 29.7665 513.206 29.5194 513.206 29.2939C513.206 28.9431 512.529 28.4914 511.174 27.9404V25.7217L508.745 28.0156V28.0907H510.196V28.8798C510.583 28.9298 510.914 29.081 511.189 29.3307C510.873 29.5695 510.542 29.7198 510.196 29.7824V30.6476H508.745V30.7034L511.174 32.8846ZM503.581 28.0156L503.627 27.9213L501.244 25.7595V27.9406C500.735 28.0785 500.271 28.2879 499.854 28.5702C499.436 28.8516 499.228 29.1055 499.228 29.3309C499.228 29.5194 499.415 29.7415 499.793 29.9989C500.17 30.2562 500.653 30.4841 501.244 30.6846V32.8657L503.688 30.6478L503.612 30.5726H502.222V29.7825C501.814 29.7325 501.468 29.5821 501.183 29.3309C501.448 29.0677 501.794 28.8991 502.222 28.8241L502.222 28.0156H503.581ZM506.148 31.2488C506.596 31.2488 506.981 31.051 507.301 30.6568C507.622 30.2618 507.782 29.7892 507.782 29.2372C507.782 28.686 507.622 28.2126 507.301 27.8176C506.981 27.4234 506.596 27.2256 506.148 27.2256C505.69 27.2256 505.302 27.4234 504.987 27.8176C504.671 28.2128 504.513 28.692 504.513 29.2557C504.513 29.7952 504.674 30.2618 504.994 30.6568C505.316 31.0508 505.7 31.2488 506.148 31.2488ZM508.883 35.6287L507.279 32.7527L507.248 32.7905V34.0121H506.499L505.904 35.2905H505.827V34.0121H505.109V32.9222L503.2 35.3471L503.291 35.4408L505.308 34.9899C505.288 35.1159 505.272 35.2094 505.262 35.2719L505.186 35.7606C505.033 36.6507 504.742 37.6971 504.315 38.9002C504.284 38.9881 504.233 39.1258 504.162 39.3137L504.177 41.2693C504.34 41.0681 504.551 40.73 504.811 40.2539C505.071 39.7781 505.318 39.2568 505.552 38.6932C506.112 37.3521 506.499 36.1363 506.714 35.0466L508.883 35.6287Z" fill="#003F6A"/>
<path d="M13.0958 24.4207C13.0567 24.0822 12.9682 23.9129 12.8302 23.9129C12.6093 23.9667 12.4021 24.0845 12.2256 24.2565L9.71853 26.5071C9.6046 26.6043 9.47332 26.6664 9.33579 26.6881C9.25002 26.6873 9.16801 26.645 9.10736 26.5704C9.04671 26.4958 9.01229 26.3948 9.01164 26.2892C9.02839 26.1233 9.09099 25.9696 9.18878 25.8535L11.2382 22.9848C11.3919 22.7808 11.4991 22.5305 11.5487 22.2591C11.5539 22.2072 11.5478 22.1545 11.5309 22.1065C11.514 22.0585 11.487 22.0169 11.4527 21.986C11.3387 21.926 11.2147 21.9013 11.0912 21.9139L9.55767 22.095V22.0045C9.60281 21.0904 9.7931 20.1961 10.1176 19.3719C10.5107 18.2997 10.9644 17.2627 11.4752 16.2684C11.8076 15.5914 12.0852 15.0652 12.3079 14.6898C12.5307 14.3145 12.8723 13.8 13.3327 13.1465C13.6078 12.7599 13.8156 12.4633 13.9561 12.2567C14.1921 11.9182 14.3296 11.7188 14.3686 11.6584C14.6246 11.3076 14.7526 11.0596 14.7526 10.9144C14.7521 10.8651 14.7425 10.8165 14.7246 10.7724C14.7067 10.7283 14.681 10.6898 14.6493 10.6597C14.5843 10.589 14.5003 10.5502 14.4135 10.5508C14.3059 10.5642 14.2035 10.6148 14.1181 10.6965L13.8687 10.896L13.4711 11.2411C12.9029 11.7552 12.3616 12.3126 11.8503 12.9102C11.1903 13.6257 10.5697 14.3944 9.99276 15.2114C9.44201 15.9774 8.92957 16.7838 8.45815 17.6261C8.11407 18.2786 7.83651 18.8529 7.6254 19.3489C7.4143 19.8449 7.15573 20.5409 6.84988 21.4368L6.62922 22.072L4.53487 21.69C4.41769 21.6676 4.29932 21.6553 4.18074 21.6532C4.13672 21.6455 4.09189 21.6505 4.04971 21.6678C4.00754 21.6852 3.9693 21.7143 3.93786 21.753C3.90642 21.7917 3.8827 21.8388 3.86862 21.8907C3.85453 21.9426 3.85036 21.9979 3.85659 22.052C3.88069 22.2938 3.96282 22.5213 4.09233 22.7055L5.91989 25.9364C6.00633 26.0755 6.06673 26.2363 6.09688 26.4074C6.09676 26.4616 6.08687 26.5152 6.06766 26.564C6.04845 26.6129 6.02044 26.6558 5.98594 26.6896C5.918 26.7665 5.82894 26.8087 5.73666 26.8078C5.55861 26.7735 5.39352 26.6722 5.26413 26.5178L2.84564 23.9773C2.71566 23.7966 2.53996 23.675 2.34694 23.6322C2.29211 23.6331 2.23836 23.651 2.19065 23.6843C2.14293 23.7175 2.1028 23.765 2.07392 23.8224C1.99233 23.9829 1.94915 24.1685 1.94929 24.3578V26.6804C0.651074 27.4424 0.00195312 28.1199 0.00195312 28.7131C0.0251833 28.9231 0.0852421 29.1244 0.178029 29.303C0.270815 29.4815 0.393992 29.6331 0.539159 29.7471C0.962482 30.1509 1.43899 30.4622 1.94792 30.6676V32.754C1.94821 33.011 1.98537 33.266 2.05764 33.5072C2.08523 33.5702 2.12728 33.6217 2.17847 33.6555C2.22967 33.6894 2.28786 33.7039 2.34572 33.6975C2.56834 33.6551 2.7746 33.528 2.93543 33.3339L5.11834 31.0112C5.29149 30.7867 5.51064 30.624 5.75279 30.5403C5.79762 30.5408 5.84197 30.5531 5.88261 30.5764C5.92325 30.5997 5.95935 30.6334 5.98852 30.6753C6.05557 30.7603 6.09275 30.8743 6.09201 30.9928C6.06504 31.2423 5.97814 31.4763 5.84258 31.6648L3.95521 34.822C3.85212 34.9856 3.78583 35.1798 3.76315 35.385C3.76315 35.6642 3.88788 35.8023 4.13722 35.8023C4.17711 35.8023 4.24061 35.8023 4.32912 35.7838L6.51082 35.2761C6.81672 36.4126 7.22755 37.5023 7.73513 38.5238C8.69023 40.4596 9.84511 42.2351 11.171 43.8057C11.8014 44.5499 12.4635 45.2525 13.1544 45.9105C13.4879 46.2963 13.8894 46.5819 14.3275 46.7451C14.3639 46.744 14.3997 46.7337 14.4327 46.715C14.4657 46.6963 14.4953 46.6694 14.5196 46.6362C14.5457 46.6092 14.5669 46.576 14.5821 46.5385C14.5974 46.501 14.6061 46.4601 14.608 46.4183C14.5867 46.2308 14.5136 46.058 14.401 45.9289L13.8701 45.2033L13.2653 44.3503C12.6986 43.5599 12.1764 42.7228 11.7021 41.8451C11.218 40.9761 10.7843 40.0662 10.4043 39.1221C9.85999 37.9325 9.52332 36.6164 9.41568 35.2576L10.9054 35.4939C11.0127 35.5151 11.121 35.5274 11.2296 35.5307C11.4465 35.5307 11.5545 35.4095 11.5537 35.1671C11.5425 34.996 11.4914 34.8325 11.4065 34.6962L9.32711 31.8289C9.15767 31.6342 9.03958 31.3814 8.98805 31.1033C8.98805 30.8486 9.09611 30.7213 9.3122 30.7213C9.49547 30.731 9.67337 30.7998 9.82825 30.9207L12.3502 33.317C12.4798 33.4599 12.6369 33.5597 12.8066 33.6069C12.9728 33.6069 13.0709 33.3513 13.1008 32.8399V30.6921C13.6265 30.4369 14.1205 30.0919 14.5681 29.6673C14.7048 29.551 14.8189 29.3986 14.9019 29.2214C14.9849 29.0442 15.0348 28.8465 15.0481 28.6426C15.0287 28.4451 14.9677 28.2574 14.8711 28.0979C14.7628 27.8807 14.6229 27.6898 14.4584 27.5349C14.054 27.1393 13.5944 26.8377 13.102 26.6451L13.0958 24.4207ZM11.3705 27.4153H10.0576L10.0127 27.3248L12.3129 25.2384V27.3447C12.7821 27.469 13.2343 27.6757 13.6557 27.9584C14.0587 28.2304 14.2603 28.4753 14.2603 28.6932C14.2603 28.8752 14.0787 29.09 13.7155 29.3375C13.2708 29.6242 12.8006 29.8461 12.3142 29.9987V32.105L9.95411 29.9573L10.0278 29.8852H11.3691V29.1181C11.727 29.0838 12.0711 28.9335 12.3665 28.6825C12.0761 28.4114 11.7314 28.2422 11.3691 28.1931V27.4122L11.3705 27.4153ZM8.58279 32.1526L10.4266 34.4937L10.3382 34.5842L8.39088 34.1485L8.43441 34.42L8.50807 34.8925C8.70571 35.9348 8.98713 36.9503 9.34827 37.9239C9.37819 38.0088 9.42728 38.1418 9.49543 38.3228L9.48051 40.2113C9.25359 39.9072 9.04866 39.5791 8.86828 39.231C8.6057 38.7467 8.36677 38.2437 8.15272 37.7245C7.66792 36.609 7.2913 35.4273 7.03067 34.2037L4.93633 34.7652L6.48464 31.9885L6.51462 32.0253V33.205H7.23764L7.81244 34.4323H7.88594V33.205H8.57913L8.58279 32.1526ZM7.86098 24.1491V22.8973H7.78748L7.21268 24.1491H6.48966V25.3473H6.38618L4.91137 22.5521L7.02078 23.1504L7.05061 22.9694C7.29092 21.8624 7.62963 20.7912 8.0605 19.7754C8.4275 18.8201 8.89612 17.9291 9.45419 17.126L9.43927 19.1035C8.95068 20.4238 8.57995 21.8054 8.33351 23.2241L10.2945 22.7884L10.3831 22.8605L8.55418 25.2552V24.1415H7.86098V24.1491ZM9.1588 28.6134C9.16092 28.8661 9.12071 29.1167 9.04071 29.3495C8.9607 29.5823 8.84257 29.7923 8.69373 29.9665C8.47272 30.2364 8.19169 30.4196 7.88609 30.4929C7.5805 30.5663 7.26418 30.5265 6.97695 30.3786C6.68973 30.2307 6.44458 29.9813 6.2725 29.662C6.10042 29.3427 6.00909 28.9678 6.01014 28.5847C6.01118 28.2015 6.10447 27.8274 6.27828 27.5095C6.4521 27.1916 6.69867 26.9443 6.98669 26.7988C7.27472 26.6533 7.59125 26.6161 7.89644 26.692C8.20163 26.7678 8.48181 26.9533 8.70134 27.225C8.84967 27.4063 8.96664 27.6226 9.04527 27.8609C9.1239 28.0992 9.16249 28.3562 9.1588 28.6134ZM3.67337 29.9573H5.07467V30.011L2.72968 32.1173V30.011C2.24413 29.8723 1.77546 29.6557 1.33584 29.3667C0.956845 29.1059 0.767433 28.8671 0.767433 28.6502C0.767433 28.3117 1.42111 27.876 2.72846 27.3432V25.1954L5.07345 27.4091V27.4812H3.67215V28.2483C3.32646 28.2843 2.9951 28.4348 2.7134 28.684C3.00539 28.9084 3.33173 29.0566 3.67215 29.1197L3.67337 29.9573Z" fill="#003F6A"/>
<path d="M14.4076 10.5586C14.4962 10.5586 14.575 10.5953 14.6437 10.6678C14.7123 10.7404 14.7471 10.825 14.7471 10.9218C14.7471 11.067 14.6192 11.3149 14.3633 11.6659C14.3245 11.7265 14.1866 11.9261 13.9508 12.2644C13.8127 12.4705 13.6065 12.767 13.3311 13.154C12.8687 13.807 12.5274 14.3215 12.306 14.6968C12.0853 15.0715 11.8073 15.598 11.4731 16.2751C10.8634 17.4981 10.4113 18.5322 10.1161 19.3787C9.74306 20.4437 9.55602 21.3207 9.55602 22.0108V22.101L11.0894 21.9196C11.2664 21.9196 11.3868 21.9437 11.4509 21.9922C11.5152 22.0405 11.5469 22.1317 11.5469 22.2646C11.5469 22.4098 11.4432 22.6516 11.2369 22.9902L9.18698 25.8583C9.06904 26.0275 9.01014 26.1727 9.01014 26.2936C9.01014 26.4024 9.0418 26.496 9.10587 26.5749C9.16994 26.6539 9.24603 26.6926 9.3346 26.6926C9.42271 26.6926 9.55085 26.632 9.71779 26.5111L12.2249 24.2604C12.5105 24.0306 12.7118 23.9161 12.8295 23.9161C12.9674 23.9161 13.0559 24.0853 13.0949 24.424V26.6755C13.6259 26.8932 14.0783 27.1898 14.4517 27.5647C14.6093 27.7096 14.7468 27.8975 14.8648 28.1273C14.9827 28.357 15.0418 28.5385 15.0418 28.6714C15.0418 29.0231 14.8821 29.364 14.5621 29.6968C14.2431 30.0299 13.7537 30.3716 13.0946 30.7222V32.8632C13.0657 33.3718 12.9674 33.6258 12.8001 33.6258C12.7115 33.6258 12.5592 33.5292 12.3433 33.3357L9.82143 30.9398C9.63455 30.8069 9.46258 30.7399 9.30477 30.7399C9.08882 30.7399 8.98062 30.8672 8.98062 31.122C8.98062 31.279 9.09354 31.5208 9.31953 31.8474L11.3991 34.7147C11.4976 34.8962 11.5467 35.0531 11.5467 35.1863C11.5467 35.4289 11.4387 35.5498 11.222 35.5498C11.1437 35.5498 11.0352 35.5377 10.8977 35.5135L9.40825 35.2773C9.40825 36.1849 9.73758 37.4729 10.3968 39.1424C10.7307 39.9897 11.1634 40.8966 11.6942 41.8648C12.2252 42.8328 12.7462 43.6672 13.2576 44.3693L13.8622 45.2222L14.393 45.9484C14.5307 46.1419 14.5998 46.3047 14.5998 46.4384C14.5998 46.511 14.57 46.5836 14.5109 46.6561C14.4521 46.7287 14.3884 46.765 14.3195 46.765C14.1323 46.765 13.7418 46.4869 13.1469 45.9298C12.552 45.3736 11.891 44.6715 11.1634 43.825C9.83619 42.2523 8.69071 40.4918 7.72739 38.5434C7.23554 37.5639 6.82769 36.4813 6.50308 35.2956L4.32093 35.8034C4.23175 35.8156 4.16829 35.8213 4.12857 35.8213C3.88295 35.8213 3.76014 35.6827 3.76014 35.4036C3.76014 35.2709 3.82375 35.0838 3.95189 34.8411L5.83941 31.6836C6.00681 31.4054 6.09021 31.1822 6.09021 31.012C6.09021 30.8911 6.05597 30.7855 5.98688 30.6943C5.91855 30.6041 5.83972 30.5589 5.7513 30.5589C5.6332 30.5589 5.42197 30.7161 5.11715 31.0304L2.93439 33.3528C2.68907 33.5956 2.4923 33.7165 2.34468 33.7165C2.20711 33.7165 2.11154 33.6528 2.0569 33.5255C2.00334 33.399 1.96636 33.1474 1.94672 32.7725V30.6856C1.3663 30.4315 0.896814 30.1228 0.537662 29.7601C0.179576 29.3972 0 29.0521 0 28.7257C0 28.1325 0.648604 27.4544 1.94672 26.6927V24.3694C1.95662 24.1404 1.99816 23.9615 2.07182 23.8342C2.14548 23.7077 2.23618 23.644 2.34468 23.644C2.47236 23.644 2.63946 23.7593 2.84597 23.989L5.26462 26.5299C5.46154 26.7232 5.61844 26.8201 5.73654 26.8201C5.82526 26.8201 5.90607 26.7807 5.97988 26.7024C6.05353 26.6233 6.09051 26.5299 6.09051 26.4203C6.09051 26.3364 6.03131 26.1785 5.91322 25.9487L4.08505 22.7186C3.92784 22.4525 3.84886 22.2347 3.84886 22.0648C3.84886 21.7987 3.95691 21.6658 4.17316 21.6658C4.27193 21.6658 4.38941 21.6778 4.52714 21.702L6.62102 22.0834L6.8423 21.4482C7.14727 20.5526 7.40553 19.8569 7.61721 19.3603C7.82814 18.8654 8.10572 18.2898 8.44965 17.6368C8.86298 16.8864 9.37416 16.0818 9.98381 15.2229C10.5936 14.364 11.2125 13.5959 11.8417 12.9178C12.5991 12.0713 13.1395 11.5143 13.4641 11.2483L13.8622 10.9036L14.1125 10.7041C14.2306 10.6073 14.3292 10.5586 14.4076 10.5586ZM8.33186 23.2256C8.55816 21.8827 8.92675 20.5099 9.43778 19.1057L9.45269 17.1276C9.00071 17.7331 8.53594 18.6157 8.059 19.7773C7.58221 20.939 7.24589 22.0038 7.04881 22.972L7.01944 23.1534L4.91033 22.5546L6.38514 25.3493H6.48847V24.1513H7.21104L7.78598 22.8994H7.85994V24.1513L8.55329 24.1509V25.2579L10.3821 22.8629L10.2932 22.7903L8.33186 23.2256ZM5.07271 27.4911V27.4185L2.72803 25.2041V27.346C1.42048 27.8779 0.766393 28.3139 0.766393 28.6526C0.766393 28.8703 0.955709 29.1088 1.33449 29.3693C1.71297 29.6297 2.17743 29.8441 2.72803 30.0134V32.1189L5.07287 30.0134V29.9594H3.67187V29.1242C3.33768 29.0638 3.01809 28.9186 2.71297 28.6881C2.97837 28.4471 3.29796 28.3011 3.67187 28.2528V27.4911H5.07271ZM12.3137 32.1007V29.9951C12.8844 29.8016 13.3509 29.5816 13.7147 29.3332C14.0789 29.0848 14.2601 28.8703 14.2601 28.6883C14.2601 28.4708 14.059 28.2257 13.6558 27.954C13.2525 27.6815 12.8053 27.4793 12.3137 27.3462V25.2406L10.013 27.3275L10.0573 27.4185H11.3697V28.1991C11.7826 28.2714 12.1171 28.4343 12.3726 28.6883C12.0975 28.9309 11.7636 29.076 11.3697 29.1243V29.887H10.0281L9.95398 29.9596L12.3137 32.1007ZM7.57947 30.5398C8.01243 30.5398 8.38315 30.3487 8.69315 29.9683C9.00299 29.587 9.15761 29.1366 9.15761 28.6157C9.15761 28.0716 9.00512 27.6089 8.70015 27.2274C8.39608 26.8468 8.02217 26.6559 7.57947 26.6559C7.14697 26.6559 6.77564 26.8468 6.46625 27.2274C6.15641 27.6087 6.0021 28.0657 6.0021 28.5979C6.0021 29.1308 6.15641 29.587 6.46625 29.9683C6.77564 30.3489 7.14727 30.5398 7.57947 30.5398ZM7.88962 34.4415H7.81566L7.24056 33.2075H6.518V32.0281L6.48847 31.9916L4.93971 34.7681L7.03374 34.2061C7.24041 35.2581 7.61402 36.4318 8.15503 37.7264C8.38117 38.2705 8.61919 38.7737 8.87014 39.2331C9.12078 39.6927 9.32501 40.019 9.48191 40.2133L9.49667 38.3254C9.42789 38.144 9.37888 38.0111 9.34921 37.9263C8.93649 36.7648 8.65632 35.7547 8.5084 34.8954L8.43459 34.4236C8.42485 34.3633 8.41024 34.273 8.39045 34.1514L10.3376 34.5866L10.4257 34.4962L8.58236 32.1552V33.2075H7.88962V34.4415Z" fill="#003F6A"/>
</svg>
