<svg width="403" height="60" viewBox="0 0 403 60" fill="none" xmlns="http://www.w3.org/2000/svg">
<path d="M223.674 45.4971H99.6572V47.3659H223.674V45.4971Z" fill="#F4F3E5"/>
<path d="M6.95561 7.04634C10.0245 7.04634 11.4092 8.40123 11.8302 8.86844L9.60342 11.3353C9.08883 10.7092 8.35904 9.91496 6.71235 9.91496C4.61655 9.91496 3.54994 11.4941 3.54994 14.9888C3.54994 18.2125 4.66333 20.1467 7.00239 20.1467C8.45261 20.1467 9.31338 19.3898 9.78119 18.8385L11.6524 21.24C10.9881 22.0435 9.40694 23.062 6.71235 23.062C1.92195 23.062 0.0600586 19.857 0.0600586 15.213C0.0600586 10.2981 2.39912 7.05569 6.96496 7.05569L6.95561 7.04634Z" fill="#F4F3E5"/>
<path d="M13.6547 10.27H17.0136V18.3807C17.0136 19.7636 17.6779 20.4737 18.8193 20.4737C20.2882 20.4737 20.8216 19.3618 20.9993 18.96V10.27H24.3582V22.8284H21.5046L21.0368 21.6698H20.9432C20.2134 22.5575 19.2029 23.0714 17.6311 23.0714C14.9365 23.0714 13.6453 21.6698 13.6453 18.689V10.2607L13.6547 10.27Z" fill="#F4F3E5"/>
<path d="M30.7485 18.8759C30.7485 19.8103 31.1696 20.1187 31.7964 20.1187C32.0397 20.1187 32.152 20.1 32.2642 20.0719V22.7163C31.8619 22.8752 31.3941 23.0247 30.6643 23.0247C28.6153 23.0247 27.3896 21.8286 27.3896 19.7356V5.97178H30.7485V18.8759Z" fill="#F4F3E5"/>
<path d="M34.6407 18.8105V12.8303H33.0408V10.7372L34.6688 10.0738L35.829 7.1211H37.9622V10.2794H41.0965V12.8397H37.9622V18.9133C37.9622 19.7823 38.4487 20.2215 39.2721 20.2215C39.8054 20.2215 40.4977 20.0439 40.9843 19.6608L41.8544 22.1744C41.4334 22.4827 40.451 22.9499 38.3552 22.9499C36.2594 22.9499 34.6407 21.8567 34.6407 18.8105Z" fill="#F4F3E5"/>
<path d="M43.2859 10.27H46.6448V18.3807C46.6448 19.7636 47.3091 20.4737 48.4505 20.4737C49.9195 20.4737 50.4528 19.3618 50.6305 18.96V10.27H53.9894V22.8284H51.1358L50.668 21.6698H50.5744C49.8353 22.5575 48.8341 23.0714 47.2529 23.0714C44.5583 23.0714 43.2672 21.6698 43.2672 18.689V10.2607L43.2859 10.27Z" fill="#F4F3E5"/>
<path d="M64.7491 13.4283C64.3 13.3349 63.748 13.3162 63.2989 13.3162C62.251 13.3162 61.0908 13.718 60.361 14.316V22.8284H57.0209V10.27H59.65L60.3423 12.1202H60.4359C60.9505 10.8961 62.0358 10.0084 63.6825 10.0084C64.038 10.0084 64.4591 10.0551 64.7491 10.1205V13.4377V13.4283Z" fill="#F4F3E5"/>
<path d="M76.276 21.6791C75.2936 22.4827 74.0679 23.0807 71.6727 23.0807C67.7057 23.0807 65.6847 20.8568 65.6847 16.5212C65.6847 12.4565 67.9583 10.0271 71.5885 10.0271C74.7977 10.0271 76.6409 12.0548 76.6409 15.1196C76.6409 15.7643 76.6222 16.3904 76.4818 17.3622H68.9781C69.0249 19.3431 69.9137 20.427 72.0563 20.427C73.413 20.427 74.3486 19.7823 74.8164 19.2964L76.2853 21.6791H76.276ZM69.0436 15.1383H73.4785V14.8019C73.4785 13.3349 72.8516 12.5593 71.495 12.5593C69.9792 12.5593 69.0904 13.6713 69.0436 15.1383Z" fill="#F4F3E5"/>
<path d="M87.0076 5C88.1397 5 88.9911 5.84096 88.9911 6.99963C88.9911 8.04616 88.1491 8.88712 87.0076 8.88712C85.941 8.88712 85.0896 8.04616 85.0896 6.99963C85.0896 5.84096 85.9316 5 87.0076 5ZM85.3796 10.27H88.7385V22.8284H85.3796V10.27Z" fill="#F4F3E5"/>
<path d="M99.1239 22.8284V14.8486C99.1239 13.5591 98.5251 12.8023 97.3837 12.8023C96.4013 12.8023 95.606 13.3816 95.2224 14.288V22.8284H91.8635V10.27H94.4926L95.1569 11.4474H95.2505C96.0083 10.5317 97.3182 9.96169 98.6374 9.96169C101.089 9.96169 102.492 11.3166 102.492 14.1385V22.8284H99.1239Z" fill="#F4F3E5"/>
<path d="M124.47 7.24257V22.8284H121.064V16.4465H115.385V22.8284H111.979V7.24257H115.385V13.6432H121.064V7.24257H124.47Z" fill="#F4F3E5"/>
<path d="M127.127 16.6053C127.127 12.7369 128.755 10.0458 132.919 10.0458C137.082 10.0458 138.617 12.6247 138.617 16.5119C138.617 20.399 136.97 23.0714 132.806 23.0714C128.643 23.0714 127.127 20.4924 127.127 16.6053ZM132.909 20.4551C134.622 20.4551 135.155 19.2123 135.155 16.652C135.155 14.0918 134.509 12.6715 132.769 12.6715C131.235 12.6715 130.561 13.9142 130.561 16.4745C130.561 19.0348 131.206 20.4551 132.9 20.4551H132.909Z" fill="#F4F3E5"/>
<path d="M140.479 13.9329C140.479 11.8866 142.237 10.0458 145.157 10.0458C147.43 10.0458 148.871 10.8494 149.694 11.8025L147.533 13.9142C147.084 13.4003 146.223 12.7369 145.063 12.7369C144.305 12.7369 143.819 13.1387 143.819 13.718C143.819 15.6055 149.741 14.9421 149.741 19.1469C149.741 20.8101 148.431 23.062 144.773 23.062C142.013 23.062 140.348 21.9034 139.655 21.1745L141.657 18.8666C142.209 19.5113 143.435 20.427 144.951 20.427C145.999 20.427 146.401 19.9411 146.401 19.3618C146.401 17.5397 140.479 18.1377 140.479 13.9609V13.9329Z" fill="#F4F3E5"/>
<path d="M157.292 22.8938C156.553 22.8938 155.954 22.8284 155.355 22.6976V27.1454H152.015V10.27H154.485L155.196 11.3353H155.289C155.757 10.7746 156.712 10.0458 158.293 10.0458C161.053 10.0458 162.943 12.1108 162.943 16.026C162.943 20.6513 160.314 22.8938 157.292 22.8938ZM156.889 20.1841C158.517 20.1841 159.518 19.2497 159.518 16.3156C159.518 13.8208 158.471 12.7556 157.161 12.7556C156.403 12.7556 155.71 13.1106 155.308 13.7087V19.801C155.795 20.0906 156.553 20.1747 156.889 20.1747V20.1841Z" fill="#F4F3E5"/>
<path d="M167.013 5C168.145 5 168.996 5.84096 168.996 6.99963C168.996 8.04616 168.154 8.88712 167.013 8.88712C165.946 8.88712 165.095 8.04616 165.095 6.99963C165.095 5.84096 165.937 5 167.013 5ZM165.394 10.27H168.753V22.8284H165.394V10.27Z" fill="#F4F3E5"/>
<path d="M172.14 18.8105V12.8303H170.54V10.7372L172.168 10.0738L173.328 7.1211H175.462V10.2794H178.596V12.8397H175.462V18.9133C175.462 19.7823 175.948 20.2215 176.771 20.2215C177.305 20.2215 177.997 20.0439 178.484 19.6608L179.354 22.1744C178.933 22.4827 177.95 22.9499 175.854 22.9499C173.759 22.9499 172.14 21.8567 172.14 18.8105Z" fill="#F4F3E5"/>
<path d="M189.861 14.2039V19.231C189.861 19.9411 190.132 20.2588 190.731 20.2588H191.086V22.5668C190.553 22.9032 189.973 22.9873 189.421 22.9873C188.214 22.9873 187.531 22.408 187.147 21.6324H187.054C186.586 22.2585 185.65 23.034 183.845 23.034C181.393 23.034 180.13 21.3708 180.13 19.5674C180.13 16.6801 182.731 15.3439 186.698 15.5401V14.559C186.698 13.1574 185.922 12.7369 184.893 12.7369C183.695 12.7369 183.049 13.4283 182.731 14.1572L180.345 12.4005C180.832 11.709 182.086 10.0458 184.865 10.0458C188.074 10.0458 189.851 11.1577 189.851 14.2039H189.861ZM186.698 17.8107C184.49 17.6518 183.405 18.1658 183.405 19.259C183.405 19.9692 183.891 20.4831 184.762 20.4831C185.585 20.4831 186.315 20.1093 186.698 19.5954V17.8107Z" fill="#F4F3E5"/>
<path d="M196.363 18.8759C196.363 19.8103 196.784 20.1187 197.411 20.1187C197.655 20.1187 197.767 20.1 197.879 20.0719V22.7163C197.477 22.8752 197.009 23.0247 196.279 23.0247C194.23 23.0247 193.004 21.8286 193.004 19.7356V5.97178H196.363V18.8759Z" fill="#F4F3E5"/>
<path d="M201.706 5C202.838 5 203.689 5.84096 203.689 6.99963C203.689 8.04616 202.847 8.88712 201.706 8.88712C200.639 8.88712 199.788 8.04616 199.788 6.99963C199.788 5.84096 200.63 5 201.706 5ZM200.078 10.27H203.437V22.8284H200.078V10.27Z" fill="#F4F3E5"/>
<path d="M206.824 18.8105V12.8303H205.224V10.7372L206.852 10.0738L208.012 7.1211H210.145V10.2794H213.279V12.8397H210.145V18.9133C210.145 19.7823 210.632 20.2215 211.455 20.2215C211.988 20.2215 212.681 20.0439 213.167 19.6608L214.037 22.1744C213.616 22.4827 212.634 22.9499 210.538 22.9499C208.442 22.9499 206.824 21.8567 206.824 18.8105Z" fill="#F4F3E5"/>
<path d="M215.441 24.4356C215.778 24.6132 216.245 24.744 216.797 24.744C218.004 24.744 218.715 24.0525 218.818 22.7911L214.103 10.27H217.864L219.267 14.5403C219.735 15.9606 220.222 17.8574 220.381 18.9226H220.474C220.652 17.792 220.942 16.2315 221.41 14.5403L222.589 10.27H226.06L221.831 23.4545C221.12 25.6597 219.876 27.5659 216.938 27.5659C216.049 27.5659 215.197 27.3416 214.889 27.1921L215.45 24.4356H215.441Z" fill="#F4F3E5"/>
<path d="M11.6244 39.4889C11.6244 42.4042 10.0899 44.9178 5.5241 44.9178H4.23294V50.4588H0.82727V34.8729H6.16968C9.33209 34.8729 11.6244 36.0503 11.6244 39.4982V39.4889ZM4.23294 37.7322V42.1332H5.34633C7.6199 42.1332 8.10643 41.1521 8.10643 39.9561C8.10643 38.4237 7.34857 37.7322 5.61767 37.7322H4.23294Z" fill="#F4F3E5"/>
<path d="M21.5981 41.04C21.149 40.9465 20.597 40.9279 20.1479 40.9279C19.1 40.9279 17.9398 41.3297 17.21 41.9277V50.4401H13.8699V37.8817H16.499L17.1913 39.7318H17.2849C17.7995 38.5078 18.8848 37.6201 20.5315 37.6201C20.887 37.6201 21.3081 37.6668 21.5981 37.7322V41.0493V41.04Z" fill="#F4F3E5"/>
<path d="M22.5337 44.217C22.5337 40.3485 24.1617 37.6574 28.3253 37.6574C32.4888 37.6574 34.0232 40.2364 34.0232 44.1235C34.0232 48.0107 32.3765 50.6831 28.213 50.6831C24.0495 50.6831 22.5337 48.1041 22.5337 44.217ZM28.3253 48.0667C30.0375 48.0667 30.5708 46.824 30.5708 44.2637C30.5708 41.7034 29.9252 40.2831 28.1849 40.2831C26.6505 40.2831 25.9768 41.5259 25.9768 44.0862C25.9768 46.6464 26.6224 48.0667 28.3159 48.0667H28.3253Z" fill="#F4F3E5"/>
<path d="M46.5138 49.8888C46.5138 53.3087 44.1092 55 40.7504 55C37.6534 55 36.4091 54.131 35.698 53.29L37.5879 50.8232C38.2148 51.6922 39.4405 52.2902 40.7504 52.2902C42.4906 52.2902 43.2204 51.6455 43.2204 49.8701V49.2254H43.1268C42.659 49.6459 41.7889 49.9355 40.6568 49.9355C38.0464 49.9355 35.7167 48.6461 35.7167 44.1329C35.7167 40.6008 37.7189 37.7322 41.8357 37.7322C44.0437 37.7322 45.4004 38.0032 46.5138 38.4891V49.8982V49.8888ZM41.817 40.3766C40.058 40.3766 39.0569 41.6006 39.0569 44.0021C39.0569 46.581 39.9457 47.2258 41.4427 47.2258C42.1725 47.2258 42.7807 47.0015 43.2017 46.581V40.6008C42.7339 40.442 42.3596 40.3766 41.817 40.3766Z" fill="#F4F3E5"/>
<path d="M57.2641 41.04C56.815 40.9465 56.263 40.9279 55.8139 40.9279C54.766 40.9279 53.6058 41.3297 52.876 41.9277V50.4401H49.5359V37.8817H52.165L52.8573 39.7318H52.9509C53.4655 38.5078 54.5508 37.6201 56.1975 37.6201C56.553 37.6201 56.9741 37.6668 57.2641 37.7322V41.0493V41.04Z" fill="#F4F3E5"/>
<path d="M67.5092 41.8155V46.8427C67.5092 47.5528 67.7805 47.8705 68.3793 47.8705H68.7349V50.1785C68.2016 50.5149 67.6215 50.599 67.0695 50.599C65.8625 50.599 65.1795 50.0196 64.7959 49.2441H64.7023C64.2345 49.8701 63.2989 50.6457 61.4931 50.6457C59.0418 50.6457 57.7787 48.9824 57.7787 47.179C57.7787 44.2917 60.3797 42.9555 64.3468 43.1518V42.1706C64.3468 40.769 63.5702 40.3485 62.541 40.3485C61.3434 40.3485 60.6885 41.04 60.3797 41.7688L57.9939 40.0122C58.4804 39.3207 59.7342 37.6574 62.513 37.6574C65.7222 37.6574 67.4998 38.7694 67.4998 41.8155H67.5092ZM64.3468 45.4224C62.1387 45.2635 61.0534 45.7774 61.0534 46.8707C61.0534 47.5808 61.5399 48.0947 62.41 48.0947C63.2334 48.0947 63.9632 47.721 64.3468 47.2071V45.4224Z" fill="#F4F3E5"/>
<path d="M84.2943 37.592C86.7643 37.592 88.1678 38.9002 88.1678 41.7688V50.4401H84.8089V42.3668C84.8089 40.8998 84.051 40.4139 83.1809 40.4139C82.3108 40.4139 81.4687 40.9652 81.0851 41.8623V50.4401H77.7262V42.6098C77.7262 41.1428 77.0993 40.4046 75.9485 40.4046C75.1252 40.4046 74.3205 41.068 74.0118 41.8903V50.4308H70.6529V37.8724H73.413L73.965 39.0497H74.0586C74.8351 38.0499 76.1263 37.5827 77.38 37.5827C79.2981 37.5827 80.0746 38.3863 80.5144 39.274H80.6079C81.2535 38.405 82.526 37.5827 84.3036 37.5827L84.2943 37.592Z" fill="#F4F3E5"/>
<path d="M255.18 16.2541H255.109C254.321 17.6316 253.136 18.2467 251.586 18.2467C249.446 18.2467 247.94 16.7218 247.94 14.6973C247.94 12.6727 249.465 11.1479 251.957 9.79605L254.962 8.14309V6.4709H257.032V13.7363C257.032 15.5109 257.647 16.1516 259.639 16.1516V18.6119L259.095 19.1757C256.801 19.1244 255.622 18.2659 255.18 16.2477V16.2541ZM254.962 14.3577V10.3663L252.598 11.4042C250.58 12.3139 249.74 13.0315 249.74 13.9413C249.74 14.7549 250.554 15.2226 251.861 15.2226C253.168 15.2226 254.104 14.9536 254.962 14.3577ZM254.936 5.04859H254.693L253.315 3.71596L251.964 5.04859H251.72L250.067 3.44688L251.72 1.81954H251.964L253.315 3.17138L254.693 1.81954H254.936L256.564 3.44688L254.936 5.04859Z" fill="#F4F3E5"/>
<path d="M259.639 16.158H263.035V18.6183L262.471 19.1821H259.075V16.7218L259.639 16.158Z" fill="#F4F3E5"/>
<path d="M263.035 16.158H265.137V18.6183L264.573 19.1821H262.471V16.7218L263.035 16.158Z" fill="#F4F3E5"/>
<path d="M265.137 16.158H268.532V18.6183L267.968 19.1821H264.573V16.7218L265.137 16.158Z" fill="#F4F3E5"/>
<path d="M268.532 16.158H273.382C275.971 16.158 276.906 15.7864 277.054 13.8452L276.983 13.7939C276.073 14.3577 274.991 14.6588 273.709 14.6588C271.121 14.6588 269.621 13.4287 269.621 10.9877C269.621 8.27763 271.665 5.37533 274.151 5.37533C276.861 5.37533 278.784 8.67485 278.784 12.8841C278.784 17.4138 277.284 19.1885 273.389 19.1885H267.968V16.7282L268.532 16.1644V16.158ZM276.836 11.7501C276.394 9.87934 275.164 8.27763 273.607 8.27763C272.274 8.27763 271.313 9.68073 271.313 10.6418C271.313 11.6733 272.248 12.0705 274.119 12.0705C275.029 12.0705 275.92 12 276.829 11.7501H276.836ZM274.03 0L275.657 1.62734L274.03 3.22904H273.786L272.139 1.62734L273.786 0H274.03Z" fill="#F4F3E5"/>
<path d="M281.513 14.0374V0.839295H283.781V13.9156C283.781 15.4917 284.544 16.158 286.414 16.158H286.44V18.6183L285.876 19.1821H285.851C282.82 19.1821 281.513 17.606 281.513 14.0374Z" fill="#F4F3E5"/>
<path d="M297.447 18.6183L296.903 19.1821H295.769C294.366 19.1821 293.033 18.913 291.854 18.4709C290.65 18.9386 289.24 19.1821 287.715 19.1821H285.87V16.7218L286.434 16.158H288.574C287.907 15.2931 287.516 14.3129 287.516 13.275C287.516 10.4944 289.785 7.73305 292.149 7.73305C294.513 7.73305 296.435 10.0972 296.435 12.6599C296.435 13.9925 295.993 15.1714 295.205 16.158H297.447V18.6183ZM293.629 5.59317H293.385L292.008 4.26054L290.656 5.59317H290.412L288.759 3.99146L290.412 2.36412H290.656L292.008 3.71596L293.385 2.36412H293.629L295.256 3.99146L293.629 5.59317ZM289.195 12.7816C289.195 14.1335 290.65 15.5174 292.443 15.9851C293.751 15.6135 294.756 14.7037 294.756 13.7683C294.756 12.1922 293.379 10.8147 291.655 10.8147C290.278 10.8147 289.195 11.6989 289.195 12.788V12.7816Z" fill="#F4F3E5"/>
<path d="M297.447 16.158C298.505 16.158 299.395 15.9851 300.106 15.543C300.055 15.1265 300.029 14.6588 300.029 14.1655V11.3337H301.9V14.0438C301.9 15.6711 302.714 16.1644 304.662 16.1644H304.687V18.6247L304.124 19.1885H304.098C302.298 19.1885 301.144 18.5734 300.548 17.2408C299.735 18.5734 298.575 19.1885 296.877 19.1885V16.7282L297.447 16.158ZM302.592 9.1874H302.349L300.971 7.85478L299.619 9.1874H299.376L297.723 7.58569L299.376 5.95836H299.619L300.971 7.3102L302.349 5.95836H302.592L304.22 7.58569L302.592 9.1874ZM299.267 4.65777L300.843 3.13294H301.087L302.663 4.65777L301.087 6.20822H300.843L299.267 4.65777Z" fill="#F4F3E5"/>
<path d="M304.687 16.158C306.488 16.158 307.276 15.4917 307.276 13.9925V0.839295H309.544V14.0438C309.544 17.3433 307.891 19.1885 304.937 19.1885H304.124V16.7282L304.687 16.1644V16.158Z" fill="#F4F3E5"/>
<path d="M315.374 0.839295V19.1885H313.106V0.839295H315.374Z" fill="#F4F3E5"/>
<path d="M339.536 18.6183L338.991 19.1821H338.177C335.345 19.1821 334.115 17.6316 334.115 14.1591V12.4613L332.885 12.9034C328.208 14.4794 325.542 16.5745 325.542 19.4768C325.542 22.11 328.009 23.9359 332.167 23.9359C334.307 23.9359 336.306 23.4682 338.004 22.7314H338.228V25.1725C336.704 26.4538 334.262 27.1906 331.674 27.1906C326.696 27.1906 323.595 24.4805 323.595 20.3161C323.595 16.4015 326.504 13.5184 332.193 11.1287L332.738 10.9044V10.8083L327.195 10.5649C326.382 10.5392 325.991 10.6418 325.991 11.6989V12.1153H324.415V9.55259C324.415 8.04698 325.03 7.41271 327.029 7.57928L333.878 8.21997C335.505 8.3417 336.121 8.39295 337.447 8.39295H337.767V11.276L335.922 11.8911V14.031C335.922 15.6583 336.761 16.1516 338.754 16.1516H339.542V18.6119L339.536 18.6183ZM330.764 17.3177L332.392 18.945L330.764 20.5467H330.521L328.874 18.945L330.521 17.3177H330.764Z" fill="#F4F3E5"/>
<path d="M339.536 16.158H342.931V18.6183L342.367 19.1821H338.972V16.7218L339.536 16.158Z" fill="#F4F3E5"/>
<path d="M342.931 16.158H346.327V18.6183L345.763 19.1821H342.367V16.7218L342.931 16.158Z" fill="#F4F3E5"/>
<path d="M346.327 16.158H349.723V18.6183L349.159 19.1821H345.763V16.7218L346.327 16.158Z" fill="#F4F3E5"/>
<path d="M349.159 19.1885V16.7475L349.723 16.158C351.177 16.158 351.767 15.7416 352.337 14.582L352.901 13.4479C354.355 10.5392 355.56 9.38601 357.386 9.38601C359.775 9.38601 361.3 11.2568 361.3 14.409C361.3 15.543 360.98 17.0422 360.564 18.3492L360.416 18.8169C360.269 19.3102 359.897 19.5088 359.385 19.3807L352.657 17.7085C351.844 18.7912 350.786 19.1885 349.159 19.1885ZM359.506 15.8889C359.577 15.6199 359.602 15.2739 359.602 14.9023C359.602 13.3518 358.667 12.3652 357.142 12.3652C355.861 12.3652 354.951 13.1532 354.163 14.8062L354.067 15.0304L358.872 16.1901C359.244 16.267 359.436 16.1644 359.513 15.8954L359.506 15.8889Z" fill="#F4F3E5"/>
<path d="M364.062 14.0374V0.839295H366.33V13.9156C366.33 15.4917 367.092 16.158 368.963 16.158H368.989V18.6183L368.425 19.1821H368.399C365.369 19.1821 364.062 17.606 364.062 14.0374Z" fill="#F4F3E5"/>
<path d="M368.989 16.158H372.385V18.6183L371.821 19.1821H368.425V16.7218L368.989 16.158Z" fill="#F4F3E5"/>
<path d="M372.385 16.158H375.78V18.6183L375.217 19.1821H371.821V16.7218L372.385 16.158Z" fill="#F4F3E5"/>
<path d="M375.78 16.158H379.176V18.6183L378.612 19.1821H375.217V16.7218L375.78 16.158Z" fill="#F4F3E5"/>
<path d="M379.106 16.158H379.669C381.271 16.158 381.982 15.5686 381.982 14.236C381.982 13.275 381.758 11.7501 381.393 9.97544L381.489 9.85371H383.559C383.828 11.4042 384.001 12.929 384.001 14.0438C384.001 17.5419 382.623 19.1885 379.663 19.1885H378.606V16.7282L379.099 16.1644L379.106 16.158ZM382.309 4.48478L383.937 6.11212L382.309 7.71383H382.066L380.413 6.11212L382.066 4.48478H382.309Z" fill="#F4F3E5"/>
<path d="M382.553 22.0459L382.751 21.8729C383.764 22.2894 384.648 22.488 385.513 22.488C387.954 22.488 389.799 20.2969 389.799 17.0678C389.799 16.158 389.479 14.5563 388.787 12.1922L388.908 12.0705H390.952L391.446 14.0438C391.817 15.6199 392.727 16.1644 394.72 16.1644V18.6054L394.156 19.1949C393.022 19.1949 392.138 18.9258 391.497 18.33L391.446 18.3556C391.029 22.5456 388.832 25.4736 386.249 25.4736C384.821 25.4736 383.616 24.8073 382.553 23.7245V22.0459Z" fill="#F4F3E5"/>
<path d="M394.72 16.158H398.115V18.6183L397.552 19.1821H394.156V16.7218L394.72 16.158Z" fill="#F4F3E5"/>
<path d="M398.045 16.158H398.609C400.211 16.158 400.922 15.5686 400.922 14.236C400.922 13.275 400.697 11.7501 400.332 9.97544L400.428 9.85371H402.498C402.767 11.4042 402.94 12.929 402.94 14.0438C402.94 17.5419 401.562 19.1885 398.602 19.1885H397.545V16.7282L398.039 16.1644L398.045 16.158ZM400.384 21.3027L402.011 22.9301L400.384 24.5318H400.14L398.487 22.9301L400.14 21.3027H400.384Z" fill="#F4F3E5"/>
<path d="M255.218 45.937H255.148C254.36 47.3145 253.175 47.9295 251.624 47.9295C249.484 47.9295 247.978 46.4047 247.978 44.3801C247.978 42.3556 249.503 40.8308 251.996 39.4789L255.001 37.826V36.1538H257.07V43.4191C257.07 45.1938 257.038 45.8345 259.031 45.8345V48.2947L258.486 48.8585C256.192 48.8073 255.66 47.9487 255.218 45.9306V45.937ZM255.001 44.0406V40.0491L252.636 41.087C250.618 41.9968 249.779 42.7144 249.779 43.6241C249.779 44.4378 250.592 44.9055 251.9 44.9055C253.207 44.9055 254.142 44.6364 255.001 44.0406ZM254.975 34.725H254.731L253.354 33.3924L252.002 34.725H251.759L250.106 33.1233L251.759 31.496H252.002L253.354 32.8478L254.731 31.496H254.975L256.602 33.1233L254.975 34.725Z" fill="#F4F3E5"/>
<path d="M259.031 45.8345H263.881C266.469 45.8345 267.405 45.4629 267.552 43.5216L267.482 43.4704C266.572 44.0342 265.489 44.3353 264.208 44.3353C261.619 44.3353 260.12 43.1052 260.12 40.6642C260.12 37.9541 262.164 35.0518 264.65 35.0518C267.36 35.0518 269.282 38.3513 269.282 42.5606C269.282 47.0902 267.776 48.8649 263.887 48.8649H258.467V46.4047L259.031 45.8409V45.8345ZM267.328 41.4266C266.886 39.5558 265.656 37.9541 264.099 37.9541C262.766 37.9541 261.805 39.3572 261.805 40.3182C261.805 41.3497 262.74 41.7469 264.611 41.7469C265.521 41.7469 266.412 41.6765 267.321 41.4266H267.328ZM264.521 29.6765L266.149 31.3038L264.521 32.9055H264.278L262.631 31.3038L264.278 29.6765H264.521Z" fill="#F4F3E5"/>
<path d="M272.005 43.7202V30.5158H274.273V43.5921C274.273 45.1682 275.035 45.8345 276.906 45.8345H276.932V48.2947L276.368 48.8585H276.343C273.312 48.8585 272.005 47.2824 272.005 43.7138V43.7202Z" fill="#F4F3E5"/>
<path d="M276.932 45.8345C277.989 45.8345 278.88 45.6615 279.591 45.2194C279.54 44.803 279.514 44.3353 279.514 43.842V41.0101H281.385V43.7202C281.385 45.3476 282.199 45.8409 284.146 45.8409H284.172V48.3011L283.608 48.8649H283.583C281.782 48.8649 280.629 48.2499 280.033 46.9172C279.219 48.2499 278.06 48.8649 276.362 48.8649V46.4047L276.932 45.8345ZM281.91 54.2082H281.667L280.289 52.8756L278.931 54.2082H278.688L277.041 52.6065L278.688 50.9792H278.931L280.289 52.3374L281.667 50.9792H281.91L283.538 52.6065L281.91 54.2082Z" fill="#F4F3E5"/>
<path d="M284.172 45.8345C285.229 45.8345 286.12 45.6615 286.831 45.2194C286.78 44.803 286.754 44.3545 286.754 43.8676V42.3171H288.625V43.7459C288.625 44.3609 288.772 44.8286 289.016 45.149L291.284 42.4645C293.578 39.7544 295.25 38.5499 297.588 38.5499C300.516 38.5499 302.759 40.9909 302.759 43.8484C302.759 44.393 302.688 44.8799 302.541 45.3476C303.303 45.6679 304.213 45.8409 305.149 45.8409V48.3011L304.604 48.8649C303.419 48.8649 302.189 48.3716 301.131 47.5323C300.17 48.3716 298.838 48.8649 297.262 48.8649H290.931C289.086 48.8649 287.875 48.2499 287.26 46.9172C286.472 48.2499 285.287 48.8649 283.589 48.8649V46.4047L284.153 45.8409L284.172 45.8345ZM301.067 44.5531C301.067 42.8041 299.395 41.5739 297.223 41.5739C295.051 41.5739 293.526 42.4837 291.777 44.457L290.669 45.7128L290.694 45.8089C290.963 45.8345 291.213 45.8345 291.508 45.8345H297.864C300.279 45.8345 301.067 45.4885 301.067 44.5531ZM296.736 33.1746L298.364 34.8019L296.736 36.4036H296.493L294.84 34.8019L296.493 33.1746H296.736Z" fill="#F4F3E5"/>
<path d="M305.155 45.8345C306.956 45.8345 307.744 45.1682 307.744 43.669V30.5158H310.012V43.7202C310.012 47.0198 308.359 48.8649 305.405 48.8649H304.591V46.4047L305.155 45.8409V45.8345Z" fill="#F4F3E5"/>
<path d="M315.842 30.5158V48.8649H313.574V30.5158H315.842Z" fill="#F4F3E5"/>
<path d="M324.139 48.1025C324.139 46.8211 324.338 45.418 324.78 43.9637H326.58V44.1623C326.286 45.2707 326.113 46.3534 326.113 47.3401C326.113 49.9989 328.233 51.5302 331.95 51.5302C335.666 51.5302 337.05 50.8639 337.543 48.8713H334.564C331.853 48.8713 330.207 47.5195 330.207 45.0272C330.207 42.0993 332.251 39.0689 334.788 39.0689C337.325 39.0689 339.145 41.9776 339.395 45.8409H340.356V48.2819L339.811 48.8713H339.292C338.703 52.8628 336.236 54.7848 331.905 54.7848C327.029 54.7848 324.146 52.299 324.146 48.1089L324.139 48.1025ZM336.383 36.9226H336.14L334.762 35.5964L333.41 36.9226H333.167L331.52 35.3209L333.167 33.6935H333.41L334.762 35.0454L336.14 33.6935H336.383L338.011 35.3209L336.383 36.9226ZM334.218 42.0673C332.84 42.0673 331.905 43.496 331.905 44.457C331.905 45.4693 332.84 45.8345 334.788 45.8345H337.543C337.152 43.7907 335.845 42.0673 334.218 42.0673Z" fill="#F4F3E5"/>
<path d="M340.343 45.8345H345.193C347.781 45.8345 348.717 45.4629 348.864 43.5216L348.794 43.4704C347.884 44.0342 346.801 44.3353 345.52 44.3353C342.931 44.3353 341.432 43.1052 341.432 40.6642C341.432 37.9541 343.476 35.0518 345.962 35.0518C348.672 35.0518 350.594 38.3513 350.594 42.5606C350.594 47.0902 349.095 48.8649 345.199 48.8649H339.779V46.4047L340.343 45.8409V45.8345ZM348.646 41.4266C348.204 39.5558 346.974 37.9541 345.417 37.9541C344.085 37.9541 343.123 39.3572 343.123 40.3182C343.123 41.3497 344.059 41.7469 345.93 41.7469C346.84 41.7469 347.73 41.6765 348.64 41.4266H348.646ZM345.84 29.6765L347.467 31.3038L345.84 32.9055H345.597L343.95 31.3038L345.597 29.6765H345.84Z" fill="#F4F3E5"/>
<path d="M355.592 30.5158V48.8649H353.324V30.5158H355.592Z" fill="#F4F3E5"/>
<path d="M354.9 51.7224L355.098 51.5494C356.111 51.9658 356.995 52.1644 357.86 52.1644C360.301 52.1644 362.146 49.9733 362.146 46.7443C362.146 45.8345 361.826 44.2328 361.134 41.8687L361.256 41.7469H363.299L363.793 43.7202C364.164 45.2963 365.074 45.8409 367.067 45.8409V48.2819L366.503 48.8713C365.369 48.8713 364.485 48.6022 363.844 48.0064L363.793 48.032C363.376 52.2221 361.179 55.15 358.597 55.15C357.168 55.15 355.963 54.4837 354.9 53.401V51.7224Z" fill="#F4F3E5"/>
<path d="M366.496 48.8649V46.4239L367.06 45.8345C368.515 45.8345 369.104 45.418 369.674 44.2584L370.238 43.1244C371.693 40.2157 372.897 39.0625 374.723 39.0625C377.113 39.0625 378.638 40.9333 378.638 44.0854C378.638 45.2194 378.318 46.7186 377.901 48.0256L377.754 48.4933C377.606 48.9867 377.235 49.1853 376.722 49.0571L369.995 47.3849C369.181 48.4677 368.124 48.8649 366.496 48.8649ZM376.844 45.5654C376.914 45.2963 376.94 44.9503 376.94 44.5788C376.94 43.0283 376.005 42.0416 374.48 42.0416C373.198 42.0416 372.288 42.8297 371.5 44.4827L371.404 44.7069L376.21 45.8665C376.581 45.9434 376.773 45.8409 376.85 45.5718L376.844 45.5654Z" fill="#F4F3E5"/>
<path d="M402.78 49.5056C402.78 52.6321 399.8 54.6567 394.777 54.6567C389.113 54.6567 386.134 52.2157 386.134 47.2184C386.134 45.6423 386.358 44.0406 386.679 42.9066H388.377V43.1052C388.159 44.1175 388.005 45.3988 388.005 46.5521C388.005 49.826 390.273 51.3316 394.976 51.3316C398.743 51.3316 401.082 50.6396 401.082 49.5312C401.082 48.7944 400.294 48.3011 396.994 48.0769L394.899 47.9295V45.0464L395.021 44.8991L397.161 45.0721C399.941 45.2707 400.902 44.63 401.05 42.6054L400.954 42.5542C400.089 43.118 398.98 43.3935 397.705 43.3935C395.143 43.3935 393.618 42.189 393.618 39.7993C393.618 37.0379 395.661 34.11 398.173 34.11C400.883 34.11 402.78 37.4351 402.78 41.6188C402.78 44.252 402.216 45.7832 400.71 46.5457V46.6225C402.139 47.2632 402.78 48.2242 402.78 49.5056ZM396.642 60H396.398L395.021 58.6674L393.669 60H393.425L391.772 58.3983L393.425 56.771H393.669L395.021 58.1228L396.398 56.771H396.642L398.269 58.3983L396.642 60ZM400.909 40.4912C400.467 38.5948 399.211 37.0187 397.635 37.0187C396.283 37.0187 395.322 38.4218 395.322 39.3828C395.322 40.4143 396.283 40.8115 398.154 40.8115C399.064 40.8115 399.973 40.7154 400.915 40.4912H400.909ZM398.051 28.7411L399.679 30.3684L398.051 31.9701H397.808L396.161 30.3684L397.808 28.7411H398.051Z" fill="#F4F3E5"/>
</svg>
