<?xml version="1.0" encoding="UTF-8"?><svg id="Layer_2" xmlns="http://www.w3.org/2000/svg" viewBox="0 0 278.9 192.2"><defs><style>.cls-1{fill:#f89c49;}.cls-2{fill:#fabd96;}.cls-3{fill:#003141;}.cls-4{fill:#f05b4e;}.cls-5{fill:#672a55;}.cls-6{fill:#bb3b44;}.cls-7{fill:#76b6b7;}</style></defs><g id="Layer_1-2"><g><g><path class="cls-3" d="M28.5,2c0-2-3.4-1.5-4-.8-.5,.5-.5,3.5-.3,4.6,0,0,0,4.2-11.6,2.8-2.4-.4-4.4,.8-4.4-4.8,0,0-.2-1.4,0-2.2,.2-1.7-3.7-.7-3.8,.1-.8-1.8,.1,90.1-.3,91.6,.3-.6,3.2,.2,4.6-.2,0-1.5-.3-2.7,0-4,0-4.8,.8-4.4,4.6-5.3,2.7-.2,4.3,0,6.7,.5,2.2,.7,4.6,1.7,4.6,6.8v1.3c.4-.2,3.6,.7,3.6-1.3-.2-1.2,.4-88.6,.4-89.1M8.2,28.6c0-5.7,10.9-4.5,11.3-4.3,2.7-.1,4.3,1.9,4.4,4.5h0c0,.3-.1,6-.1,6.4,0,2-1.7,4.3-4,4.5-.4-.4-6.8-.3-7.1-.3-2.4,0-4.5-1.7-4.5-4.6s0-5.8,0-6.1m11.6,41.5c-.4-.4-7.2,0-7.1-.3-2.4,0-4.2-1.7-4.2-4.6-.3,.2-.4-6-.2-6.1,0-2.7,2.4-4.5,4.9-4.4-.5-.3,6.2,0,6.5,0,2.7-.1,4.3,1.9,4.4,4.5,0,0,0,6.1,.2,6.4,0,2-2,4.3-4.3,4.4"/><path class="cls-3" d="M274.4,1c-.2-.5-3.5-.3-3.8-.4-.4,.4-.4,1.4-.3,2.4,0,2.7-1.4,6.1-4,6.3-.6,0-5.5,.4-6.9,0-2.8-.4-4.3-2.2-4.9-3.6,0-.9,0-2.8-.1-4.2-.2-1.7-4,.2-4,.2,.5,2.9-.5,88,0,89.9,0,2.1,3.6,1.9,4,1.4,.4-1,.3-1.9,.4-2.6,.2-2.8,1.5-4.6,4.4-4.6,1.7,0,5-.3,7-.2,2.1,0,4.8,.6,4.5,2.6-.1,1.2-.3,3,0,4.9,.5,.6,3.9,.2,4.2-1-.4-1.3-.3-90.6-.4-91.1m-7.7,69c-.3-.2-6.9-.2-7-.2-2.2,.2-4.5-2-4.3-4.5-.3,0,.1-6.1,0-6.1,.2-2.5,2-4.5,4.6-4.4-.3,.1,6.3,0,6.7,0,2.2,0,4.6,1.8,4.4,4.1,.1,.2,0,7,0,6.9-.3,2.5-2.3,4.2-4.6,4.3m0-30.4c-.3-.2-6.9-.2-7-.2-2.2,.2-4.5-2-4.3-4.5-.3,0,.1-6.1,0-6.1,.2-2.5,2-4.5,4.6-4.4-.3,.1,6.3,0,6.7,0,2.2,0,4.6,1.8,4.4,4.1,.1,.2,0,6.9,0,6.9-.3,2.5-2.3,4.2-4.6,4.3"/><path class="cls-4" d="M96.6,1c2.2,.2,3.2,.8,3.4,3.1,.3,3.4-.3,5.3,.1,8.7,1.3,11.2-1.5,22.6-.2,33.9,.7,5.9,0,11.3,.3,17.3,.3,8.9,0,18.9-.3,29.4h-30.2c-1.1-1.4-.9-8.3-.5-10.1,.3-1.6,.3-3.2,.3-4.8,0-6.5,.4-12.4,.3-18.9,0-3.8,0-7.7-.8-11.5-.6-3.4,.3-9.2-.2-12.6-.7-4.2-1-29.5-.8-34.3,0,0,25.2-.5,28.8-.2"/><path class="cls-2" d="M58.6,.9c1.9,.2,2.7,.8,2.9,3.1,.2,3.4-.2,5.3,0,8.7,1.1,11.2-1.3,22.6-.2,33.9,.6,5.9,0,11.3,.2,17.3,.3,8.9,0,18.9-.3,29.4h-25.5c-.9-1.4-.7-8.3-.5-10.1,.2-1.6,.2-3.2,.2-4.8,0-6.5,.3-12.4,.3-18.9,0-3.8,0-7.7-.6-11.5-.5-3.4,.3-9.2-.2-12.6-.6-4.2-.9-29.5-.7-34.3,0,0,21.2-.5,24.2-.2"/><path class="cls-7" d="M108.4,.4c-.4,0-.7,.5-.7,1-.2,10.7-.4,20.3-1,31.3-.2,4.4-.4,10.8,.1,16,.7,6.8-.7,12.3-.3,19.1,.5,9-.6,16.3-.2,25.3l9.1,.2c.7,0,1.4-.8,1.3-3-.1-2.1,0-11.4,0-18.3s-.7-13.4-.1-21.1c.3-3.8-.4-7.9-.2-11.7,.3-6.9,.5-13,.6-19.9,0-4.1,0-10.4,0-14.4,0-2.8,.6-3.8-.6-4.5-1.4-.8-6.5-.3-8.1,0"/><path class="cls-1" d="M165,7.9c.3-2.5,1.3-6.2-1-6.4-2.1-.2-16.7-.3-18.8-.3-7,0-21.3-.6-21.5-.6-.6,.1-.6,92.7-.6,92.7,11.6,.2,42.9-.5,42.9-.5,1.3-2.2,.3-19.1,0-21.4-.7-6.1-1.1-12.3-.6-18.4,1.2-15.5-2.2-24.5-.7-39.8l.3-5.4Z"/><path class="cls-6" d="M241.7,1.3c-9.2-.5-20.3-.7-32.6-.6,2.2,25.3-.2,92.1,0,92.3l34.8,.5c1.2-3.9,0-84.8-2.3-92.1"/><path class="cls-5" d="M173.1,92.9c.3-10.7,.2-17.1,.4-26.3,0-6.5-.6-14.7-.5-21.6,.2-12.6,.3-16.9-.4-28.5-.2-2.6,.1-7.6,0-10.2,0-1.8,0-4-.1-5.8l30,.5c.7,1.8,.8,5.9,.8,7-.1,7.7-.2,5,0,12.7,.2,7.3-.8,13.7-.8,23.9s.7,11.2,.9,15.6c.2,4.6-.4,8.5-.2,15.8,.1,4.5,0,16.3,.1,17.4,0,0-21.8,.2-26.5-.6-2.5-.4-3.5,.1-3.5,.1"/></g><g><g><path class="cls-3" d="M0,166.1H16v3.3H3.7v7.8H13.1v3.3H3.7v11.2H0v-25.5Z"/><path class="cls-3" d="M19.6,166.8h3.9v3.9h-3.9v-3.9Zm.2,7h3.4v17.8h-3.4v-17.8Z"/><path class="cls-3" d="M28.1,166.1h3.4v25.5h-3.4v-25.5Z"/><path class="cls-3" d="M36.3,191.6v-16.7c0-.2,0-.6,0-1.1h3.3v2.7c.3-.3,.6-.6,.9-1,.3-.4,.7-.7,1.2-1s1-.6,1.6-.8c.6-.2,1.3-.3,2.2-.3,1.4,0,2.5,.3,3.4,.8,.9,.5,1.6,1.3,2.1,2.4,.7-.8,1.6-1.6,2.6-2.2s2.3-1,3.8-1c2.3,0,4,.7,5.1,2s1.6,3.2,1.6,5.5v10.7h-3.4v-10.4c0-1.7-.3-2.9-1-3.7s-1.6-1.2-2.8-1.2-1.4,.1-2,.4c-.6,.3-1.1,.7-1.6,1.2-.4,.5-.8,1.1-1,1.7-.2,.7-.4,1.3-.4,2v9.9h-3.4v-10.4c0-1.7-.3-2.9-1-3.7s-1.6-1.2-2.8-1.2-1.7,.2-2.4,.6c-.6,.4-1.2,.9-1.5,1.6-.4,.7-.7,1.4-.8,2.2-.2,.8-.2,1.7-.2,2.5v8.3h-3.4Z"/><path class="cls-3" d="M97.9,187.1c-.3,.5-.7,1-1.3,1.6-.6,.6-1.3,1.1-2.1,1.7s-1.8,1-2.9,1.3c-1.1,.4-2.3,.5-3.6,.5-1.9,0-3.6-.3-5.2-1-1.6-.7-2.9-1.6-4-2.8-1.1-1.2-2-2.6-2.6-4.2-.6-1.6-.9-3.4-.9-5.3s.3-3.6,.9-5.2c.6-1.6,1.5-3.1,2.6-4.3,1.1-1.2,2.5-2.2,4-2.9,1.6-.7,3.3-1.1,5.2-1.1s2.6,.2,3.6,.5c1.1,.3,2,.7,2.8,1.2s1.5,1,2.1,1.6c.6,.6,1,1.1,1.4,1.7l-2.6,2.2c-.3-.4-.7-.9-1.1-1.4s-.9-.9-1.5-1.3-1.3-.7-2-1c-.8-.3-1.6-.4-2.6-.4s-2.7,.3-3.8,.8c-1.1,.5-2.1,1.3-2.8,2.2-.8,.9-1.4,2-1.8,3.2-.4,1.2-.6,2.5-.6,3.9s.2,2.7,.6,3.9,1,2.3,1.8,3.2c.8,.9,1.7,1.6,2.8,2.1,1.1,.5,2.3,.8,3.7,.8s2.1-.1,3-.4c.8-.3,1.5-.6,2.1-1.1,.6-.4,1-.8,1.4-1.2,.4-.4,.7-.8,.9-1.1l2.6,2.1Z"/><path class="cls-3" d="M109.4,192.1c-1.4,0-2.6-.2-3.8-.7-1.1-.5-2.1-1.2-3-2-.8-.9-1.5-1.9-2-3-.5-1.1-.7-2.4-.7-3.7s.2-2.5,.7-3.7c.5-1.1,1.1-2.1,2-3,.8-.9,1.8-1.5,3-2,1.1-.5,2.4-.7,3.8-.7s2.6,.2,3.7,.7c1.1,.5,2.1,1.2,3,2,.8,.9,1.5,1.9,2,3,.5,1.1,.7,2.4,.7,3.7s-.2,2.5-.7,3.7c-.5,1.1-1.1,2.1-2,3-.8,.9-1.8,1.5-3,2-1.1,.5-2.4,.7-3.7,.7Zm0-3c.9,0,1.7-.2,2.5-.6s1.4-.9,1.9-1.5,.9-1.3,1.2-2.1,.4-1.6,.4-2.4-.1-1.6-.4-2.4-.7-1.5-1.2-2.1c-.5-.6-1.1-1.1-1.9-1.5s-1.5-.6-2.5-.6-1.7,.2-2.5,.6-1.4,.9-1.9,1.5c-.5,.6-.9,1.3-1.2,2.1s-.4,1.6-.4,2.4,.1,1.6,.4,2.4,.7,1.5,1.2,2.1c.5,.6,1.1,1.1,1.9,1.5s1.5,.6,2.5,.6Z"/><path class="cls-3" d="M122.7,191.6v-16.7c0-.2,0-.6,0-1.1h3.3v2.7c.3-.3,.6-.6,.9-1,.3-.4,.7-.7,1.2-1s1-.6,1.6-.8c.6-.2,1.3-.3,2.2-.3,1.4,0,2.5,.3,3.4,.8,.9,.5,1.6,1.3,2.1,2.4,.7-.8,1.6-1.6,2.6-2.2s2.3-1,3.8-1c2.3,0,4,.7,5.1,2s1.6,3.2,1.6,5.5v10.7h-3.4v-10.4c0-1.7-.3-2.9-1-3.7s-1.6-1.2-2.8-1.2-1.4,.1-2,.4c-.6,.3-1.1,.7-1.6,1.2-.4,.5-.8,1.1-1,1.7-.2,.7-.4,1.3-.4,2v9.9h-3.4v-10.4c0-1.7-.3-2.9-1-3.7s-1.6-1.2-2.8-1.2-1.7,.2-2.4,.6c-.6,.4-1.2,.9-1.5,1.6-.4,.7-.7,1.4-.8,2.2-.2,.8-.2,1.7-.2,2.5v8.3h-3.4Z"/><path class="cls-3" d="M155.3,191.6v-16.7c0-.2,0-.6,0-1.1h3.3v2.7c.3-.3,.6-.6,.9-1,.3-.4,.7-.7,1.2-1s1-.6,1.6-.8c.6-.2,1.3-.3,2.2-.3,1.4,0,2.5,.3,3.4,.8,.9,.5,1.6,1.3,2.1,2.4,.7-.8,1.6-1.6,2.6-2.2s2.3-1,3.8-1c2.3,0,4,.7,5.1,2s1.6,3.2,1.6,5.5v10.7h-3.4v-10.4c0-1.7-.3-2.9-1-3.7s-1.6-1.2-2.8-1.2-1.4,.1-2,.4c-.6,.3-1.1,.7-1.6,1.2-.4,.5-.8,1.1-1,1.7-.2,.7-.4,1.3-.4,2v9.9h-3.4v-10.4c0-1.7-.3-2.9-1-3.7s-1.6-1.2-2.8-1.2-1.7,.2-2.4,.6c-.6,.4-1.2,.9-1.5,1.6-.4,.7-.7,1.4-.8,2.2-.2,.8-.2,1.7-.2,2.5v8.3h-3.4Z"/><path class="cls-3" d="M187.7,166.8h3.9v3.9h-3.9v-3.9Zm.2,7h3.4v17.8h-3.4v-17.8Z"/><path class="cls-3" d="M197.4,187.1c.6,.6,1.4,1.1,2.3,1.5,.9,.4,1.9,.6,3.1,.6s2.1-.2,2.9-.6,1.1-.9,1.1-1.7,0-.8-.2-1.1c-.2-.3-.4-.6-.8-.8-.4-.2-.9-.4-1.6-.6s-1.5-.4-2.4-.6c-.7-.2-1.4-.4-2-.6-.7-.3-1.3-.6-1.8-1s-1-.9-1.3-1.5c-.3-.6-.5-1.3-.5-2.2s.2-1.6,.6-2.3c.4-.7,.9-1.2,1.6-1.6,.7-.4,1.4-.8,2.2-1,.8-.2,1.7-.3,2.6-.3,1.5,0,2.8,.2,3.9,.6,1.1,.4,2,.9,2.8,1.7l-1.9,2.4c-.5-.5-1.2-.9-2-1.2-.8-.3-1.7-.5-2.8-.5s-2,.2-2.6,.5c-.7,.4-1,.9-1,1.8s.4,1.3,1.3,1.7,2,.7,3.5,1.1c.8,.2,1.6,.4,2.4,.7s1.4,.6,1.9,1c.5,.4,1,.9,1.3,1.5,.3,.6,.5,1.4,.5,2.2s-.2,1.7-.6,2.4-1,1.2-1.6,1.7-1.5,.8-2.4,1-1.8,.3-2.8,.3c-3.4,0-5.9-.9-7.6-2.7l2.1-2.3Z"/><path class="cls-3" d="M215.4,187.1c.6,.6,1.4,1.1,2.3,1.5,.9,.4,1.9,.6,3.1,.6s2.1-.2,2.9-.6,1.1-.9,1.1-1.7,0-.8-.2-1.1c-.2-.3-.4-.6-.8-.8-.4-.2-.9-.4-1.6-.6s-1.5-.4-2.4-.6c-.7-.2-1.4-.4-2-.6-.7-.3-1.3-.6-1.8-1s-1-.9-1.3-1.5c-.3-.6-.5-1.3-.5-2.2s.2-1.6,.6-2.3c.4-.7,.9-1.2,1.6-1.6,.7-.4,1.4-.8,2.2-1,.8-.2,1.7-.3,2.6-.3,1.5,0,2.8,.2,3.9,.6,1.1,.4,2,.9,2.8,1.7l-1.9,2.4c-.5-.5-1.2-.9-2-1.2-.8-.3-1.7-.5-2.8-.5s-2,.2-2.6,.5c-.7,.4-1,.9-1,1.8s.4,1.3,1.3,1.7,2,.7,3.5,1.1c.8,.2,1.6,.4,2.4,.7s1.4,.6,1.9,1c.5,.4,1,.9,1.3,1.5,.3,.6,.5,1.4,.5,2.2s-.2,1.7-.6,2.4-1,1.2-1.6,1.7-1.5,.8-2.4,1-1.8,.3-2.8,.3c-3.4,0-5.9-.9-7.6-2.7l2.1-2.3Z"/><path class="cls-3" d="M232.3,166.8h3.9v3.9h-3.9v-3.9Zm.2,7h3.4v17.8h-3.4v-17.8Z"/><path class="cls-3" d="M249.4,192.1c-1.4,0-2.6-.2-3.8-.7-1.1-.5-2.1-1.2-3-2-.8-.9-1.5-1.9-2-3-.5-1.1-.7-2.4-.7-3.7s.2-2.5,.7-3.7c.5-1.1,1.1-2.1,2-3,.8-.9,1.8-1.5,3-2,1.1-.5,2.4-.7,3.8-.7s2.6,.2,3.7,.7c1.1,.5,2.1,1.2,3,2,.8,.9,1.5,1.9,2,3,.5,1.1,.7,2.4,.7,3.7s-.2,2.5-.7,3.7c-.5,1.1-1.1,2.1-2,3-.8,.9-1.8,1.5-3,2-1.1,.5-2.4,.7-3.7,.7Zm0-3c.9,0,1.7-.2,2.5-.6s1.4-.9,1.9-1.5,.9-1.3,1.2-2.1,.4-1.6,.4-2.4-.1-1.6-.4-2.4-.7-1.5-1.2-2.1c-.5-.6-1.1-1.1-1.9-1.5s-1.5-.6-2.5-.6-1.7,.2-2.5,.6-1.4,.9-1.9,1.5c-.5,.6-.9,1.3-1.2,2.1s-.4,1.6-.4,2.4,.1,1.6,.4,2.4,.7,1.5,1.2,2.1c.5,.6,1.1,1.1,1.9,1.5s1.5,.6,2.5,.6Z"/><path class="cls-3" d="M262.7,191.6v-16.7c0-.2,0-.6,0-1.1h3.3v2.7c.3-.3,.6-.6,1-1,.3-.4,.7-.7,1.2-1,.5-.3,1.1-.6,1.7-.8,.7-.2,1.4-.3,2.2-.3,2.3,0,4,.7,5.2,2,1.1,1.4,1.7,3.2,1.7,5.5v10.7h-3.4v-10.4c0-1.7-.4-2.9-1.1-3.7s-1.7-1.2-3-1.2-1.8,.2-2.5,.6c-.7,.4-1.2,.9-1.6,1.6-.4,.7-.7,1.4-.9,2.2-.2,.8-.3,1.7-.3,2.5v8.3h-3.4Z"/></g><g><path class="cls-3" d="M15,134.3c-.6-.6-1.3-1.1-2.1-1.5-.8-.4-1.7-.5-2.6-.5s-1.7,.2-2.5,.5c-.8,.4-1.5,.8-2.1,1.4-.6,.6-1.1,1.3-1.4,2.1s-.5,1.7-.5,2.6c0,1.6,.6,3,1.7,4H3.1c-1,0-1.8,.2-2.3,.7-.5,.5-.8,1.2-.8,2.1l.2,15.2H2.9v-14c0-.4,.3-.6,.8-.6h6.9c.9,0,1.8-.2,2.5-.5,.8-.3,1.4-.8,2-1.4s1-1.3,1.3-2.2c.3-.9,.5-1.8,.5-2.8s-.2-2-.5-2.8-.8-1.6-1.4-2.3Zm-2.5,9c-.9,0-1.7-.1-2.5-.3-.8-.2-1.4-.5-2-.9-.5-.4-1-.8-1.3-1.3-.3-.5-.5-1-.5-1.6,0-1,.4-1.9,1.1-2.5s1.7-1,2.8-1,2.2,.4,2.9,1.1,1.1,1.8,1.1,3-.6,2.7-1.8,3.5Z"/><polygon class="cls-3" points="109.9 121.8 107.6 119.4 105.2 121.8 107.6 124.2 109.9 121.8"/><path class="cls-3" d="M107.6,127.3c-.8,0-1.6,.2-2.3,.6-.7,.4-1.3,.9-1.9,1.5-.5,.7-.9,1.4-1.2,2.3s-.5,1.8-.5,2.8c0,1.8,.5,3.1,1.4,4.1s2.3,1.5,4,1.5,1.5-.1,2.2-.3c.7-.2,1.3-.5,1.8-1v2.7c0,.5-.8,.9-2.5,1.1-1.7,.3-4.2,.4-7.5,.4H38.4c-1.3,0-2.3-.1-3-.4-.7-.3-1.2-.8-1.6-1.5l.2-19.3-3,.5v18.7c.1,.9-.8,1.6-2.5,2-.7-3.1-1.5-6-2.4-8.7-.9-2.7-1.8-5.3-2.7-7.6l-2.8,1.5c1,2.3,1.9,4.8,2.8,7.3,.9,2.5,1.7,5.1,2.4,7.7h-.7c-1,0-1.9,0-2.8,0-.8,0-1.6-.2-2.3-.3l.7,3.6c.6,.1,1.3,.2,2,.2,.7,0,1.5,0,2.3,0,1.8,0,3.4-.2,4.6-.6,1.3-.4,2.2-1,2.9-1.9,.5,.7,1.3,1.3,2.2,1.7,.9,.4,2.1,.6,3.5,.6h0s62.7,0,62.7,0c1.4,0,2.5,0,3.6,0,1,0,1.9-.1,2.7-.2,.8-.1,1.5-.2,2-.4s1.1-.3,1.6-.6c1-.5,1.7-1.1,2.1-2s.6-2.2,.6-3.8c0-4-.5-7-1.5-9-1-2-2.5-3.1-4.5-3.1Zm1.8,9.6c-.6,.2-1.3,.3-1.9,.3-1.1,0-1.9-.2-2.5-.7-.6-.5-.9-1.2-.9-2.1s.3-2,1-2.7c.6-.7,1.4-1.1,2.4-1.1s1.8,.4,2.4,1.3c.5,.9,.9,2.3,1.1,4.3-.4,.3-.9,.5-1.5,.7Z"/><path class="cls-3" d="M127.5,135c1.1-1.9,1.9-4,2.5-6.3s.9-4.6,.9-7l-3,.5c0,2.2-.2,4.2-.6,5.9s-.9,3.3-1.6,4.8c-.6-.7-1.2-1.4-1.8-2.1s-1.4-1.5-2.1-2.2c-.7-.7-1.4-1.4-2.1-2.1-.7-.7-1.4-1.3-2-1.8l-2.1,2.6c1.5,1.1,3,2.3,4.5,3.7,1.5,1.4,2.9,2.8,4.2,4.3-.5,.7-1,1.3-1.5,2s-1.1,1.4-1.7,2-1.2,1.3-1.7,1.9-1.2,1.1-1.7,1.6l.5,2.8c.6,.3,1.5,.5,2.5,.7,1.1,.2,2.2,.2,3.3,.2,2.4,0,4.2-.4,5.5-1.1,1.3-.7,1.9-1.8,1.9-3.2s-.3-1.9-.9-3.1-1.6-2.6-2.9-4.3Zm0,8c-.8,.3-1.9,.4-3.2,.4s-1.1,0-1.6,0c-.5,0-1-.1-1.4-.2,.9-.8,1.7-1.7,2.5-2.7,.8-1,1.5-2,2.3-3,.4,.5,.7,.9,1.1,1.4,.3,.4,.6,.9,.8,1.3s.4,.8,.6,1.1c.1,.3,.2,.6,.2,.7,0,.5-.4,.8-1.2,1.1Z"/><path class="cls-3" d="M120.6,119.1c-.4,0-.7,0-1.1,.1-.4,0-.8,.1-1.2,.2-.7,0-1.2-.2-1.6-.5-.4-.3-.6-.6-.6-1s.1-.7,.4-.9c.3-.2,.7-.3,1.1-.3s.8,.1,1.2,.3l.8-1.1c-.6-.6-1.3-1-2.1-1s-1.5,.3-2.1,.9c-.6,.6-.9,1.3-.9,2.1s.4,1.6,1.3,2.1c-.3,.1-.6,.2-.9,.3-.3,.1-.6,.2-1,.3l.5,1.4c1.9-.6,3.9-1,5.9-1.1l.3-1.8Z"/><polygon class="cls-3" points="135.6 146.4 138.3 146.4 138.5 121.7 135.4 122.3 135.6 146.4"/><polygon class="cls-3" points="155.9 122 153.6 119.6 151.2 122 153.6 124.4 155.9 122"/><polygon class="cls-3" points="161.5 122 159.2 119.6 156.8 122 159.2 124.4 161.5 122"/><path class="cls-3" d="M238.2,131.6l.5,1.4c1.9-.6,3.9-1,5.9-1.1l.3-1.8c-.4,0-.7,0-1.1,.1-.4,0-.8,.1-1.2,.2-.7,0-1.2-.2-1.6-.5-.4-.3-.6-.6-.6-1s.1-.7,.4-.9c.3-.2,.7-.3,1.1-.3s.8,.1,1.2,.3l.8-1.1c-.6-.6-1.3-1-2.1-1s-1.5,.3-2.1,.9c-.6,.6-.9,1.3-.9,2.1s.4,1.6,1.3,2.1c-.3,.1-.6,.2-.9,.3-.3,.1-.6,.2-1,.3Z"/><polygon class="cls-3" points="253.8 151.9 256.1 154.3 258.5 151.9 256.1 149.5 253.8 151.9"/><polygon class="cls-3" points="248.2 151.9 250.5 154.3 252.9 151.9 250.5 149.5 248.2 151.9"/><path class="cls-3" d="M278.1,136.2c-.5-1.4-1.2-2.7-2.1-3.9-.9-1.2-2.1-2.2-3.4-3.2-1.3-.9-2.8-1.7-4.4-2.3l-1.3,2.9c1.4,.5,2.7,1.1,3.8,1.9,1.2,.8,2.1,1.7,3,2.7s1.4,2.1,1.9,3.2c.4,1.1,.7,2.3,.7,3.5s-.4,1.1-1.2,1.4c-.8,.4-1.9,.5-3.1,.5s-.6,0-.9,0-.6,0-.8,0c1.2-1.2,1.9-2.7,1.9-4.4s-.1-1.6-.4-2.4-.7-1.4-1.2-2c-.5-.6-1.1-1-1.7-1.3s-1.4-.5-2.1-.5-1.5,.2-2.1,.5c-.7,.3-1.2,.8-1.7,1.3-.5,.6-.9,1.2-1.2,2-.3,.7-.4,1.5-.4,2.4,0,1.7,.6,3.1,1.8,4.3-.6,0-1.1,0-1.8,.1-.6,0-1.2,0-1.9,0-3,0-4.6-.8-4.6-2.4s0-.8,.2-1.6c.1-.9,.2-1.9,.3-2.9l-2.6-.3c0,.3-.1,.7-.2,1.1,0,.4-.1,.9-.2,1.3,0,.4-.2,.9-.2,1.3s-.1,.8-.2,1.1c-.2,.9-.7,1.5-1.5,1.9-.8,.4-2,.6-3.7,.6-3,0-4.5-.8-4.5-2.4s0-.8,.2-1.6c.1-.9,.2-1.9,.3-2.9l-2.6-.3c0,.3-.1,.7-.2,1.1,0,.4-.1,.9-.2,1.3,0,.4-.2,.9-.2,1.3s-.1,.8-.2,1.1c-.2,.9-.7,1.5-1.5,1.9s-2,.6-3.7,.6h-68.6c-1.2,0-2.2-.2-2.7-.7s-.8-1.3-.8-2.4l.2-13-3,.5v2.3c-3.1,.6-5.5,1.6-7.2,3s-2.6,3-2.6,5,.2,1.5,.5,2.2c.3,.7,.8,1.2,1.3,1.6,.6,.4,1.2,.8,2,1,.8,.2,1.6,.3,2.4,.3,1.5,0,2.7-.3,3.8-.9,.4,2.9,2.5,4.3,6.2,4.3h0s68.6,0,68.6,0c1.6,0,3-.2,4.1-.7,1.2-.4,2-1.1,2.5-1.9,1,1.7,3,2.6,6,2.6h0s0,0,0,0h0c1.6,0,3-.2,4.1-.7,1.2-.4,2-1.1,2.5-1.9,1,1.7,3,2.6,6,2.6s2.2-.1,3.5-.4c1.3-.2,2.5-.6,3.6-1,.9,.4,1.8,.7,2.8,1s1.9,.4,2.8,.4c2.2,0,3.8-.5,5-1.5s1.8-2.5,1.8-4.4-.2-2.9-.7-4.3Zm-122.2,3.5c-.5,0-1.1,0-1.5-.1s-.9-.2-1.3-.4-.7-.4-.9-.7c-.2-.3-.3-.7-.3-1.1s.2-1.1,.6-1.5c.4-.5,.9-.9,1.6-1.3,.7-.4,1.4-.7,2.3-.9s1.8-.4,2.7-.5v6.2c-.8,.4-1.9,.5-3.1,.5Zm110.7,2.3c-.9-.4-1.7-.9-2.2-1.5s-.8-1.3-.8-2,.3-1.6,.9-2.2,1.3-.9,2.2-.9,1.6,.3,2.2,.9,.9,1.3,.9,2.2c0,1.6-1,2.8-3.1,3.5Z"/></g></g></g></g></svg>