<svg width="48" height="48" viewBox="0 0 48 48" fill="none" xmlns="http://www.w3.org/2000/svg">
<path d="M0 24C0 10.7452 10.7452 0 24 0C37.2548 0 48 10.7452 48 24C48 37.2548 37.2548 48 24 48C10.7452 48 0 37.2548 0 24Z" fill="#F3FCF6"/>
<path fill-rule="evenodd" clip-rule="evenodd" d="M20.9359 14.4629C20.9564 14.8766 20.6376 15.2286 20.2239 15.2491C18.145 15.3521 17.0941 15.6599 16.377 16.377C15.6599 17.0941 15.3521 18.145 15.2491 20.2239C15.2286 20.6376 14.8766 20.9564 14.4629 20.9359C14.0492 20.9154 13.7304 20.5634 13.7509 20.1497C13.856 18.0291 14.1708 16.4618 15.3163 15.3163C16.4618 14.1708 18.0291 13.856 20.1497 13.7509C20.5634 13.7304 20.9154 14.0492 20.9359 14.4629ZM27.0642 14.4629C27.0847 14.0492 27.4367 13.7304 27.8504 13.7509C29.9709 13.856 31.5382 14.1708 32.6837 15.3163C33.8292 16.4618 34.144 18.0291 34.2491 20.1497C34.2696 20.5634 33.9508 20.9154 33.5371 20.9359C33.1234 20.9564 32.7714 20.6376 32.7509 20.2239C32.6479 18.145 32.3401 17.0941 31.623 16.377C30.906 15.6599 29.855 15.3521 27.7761 15.2491C27.3624 15.2286 27.0437 14.8766 27.0642 14.4629ZM14.4629 27.0642C14.8766 27.0437 15.2286 27.3624 15.2491 27.7761C15.3521 29.855 15.6599 30.906 16.377 31.623C17.0941 32.3401 18.145 32.6479 20.2239 32.7509C20.6376 32.7714 20.9564 33.1234 20.9359 33.5371C20.9154 33.9508 20.5634 34.2696 20.1497 34.2491C18.0291 34.144 16.4618 33.8292 15.3163 32.6837C14.1708 31.5382 13.856 29.9709 13.7509 27.8504C13.7304 27.4367 14.0492 27.0847 14.4629 27.0642ZM33.5371 27.0642C33.9508 27.0847 34.2696 27.4367 34.2491 27.8504C34.144 29.9709 33.8292 31.5382 32.6837 32.6837C31.5382 33.8292 29.9709 34.144 27.8504 34.2491C27.4367 34.2696 27.0847 33.9508 27.0642 33.5371C27.0437 33.1234 27.3624 32.7714 27.7761 32.7509C29.855 32.6479 30.906 32.3401 31.623 31.623C32.3401 30.906 32.6479 29.855 32.7509 27.7761C32.7714 27.3624 33.1234 27.0437 33.5371 27.0642ZM19.6143 21.2611C18.3908 22.114 17.4711 23.1346 16.9508 23.7859C16.8881 23.8645 16.8423 23.9219 16.8046 23.9721L16.7839 24L16.8046 24.0279C16.8423 24.0781 16.8881 24.1355 16.9509 24.2141C17.4711 24.8654 18.3908 25.886 19.6143 26.7389C20.8377 27.5917 22.3255 28.25 24 28.25C25.6745 28.25 27.1623 27.5917 28.3857 26.7389C29.6092 25.886 30.5289 24.8654 31.0492 24.2141C31.1119 24.1355 31.1577 24.0781 31.1954 24.0279L31.2161 24L31.1954 23.9721C31.1577 23.9219 31.1119 23.8645 31.0491 23.7859C30.5289 23.1346 29.6092 22.114 28.3857 21.2611C27.1623 20.4083 25.6745 19.75 24 19.75C22.3255 19.75 20.8377 20.4083 19.6143 21.2611ZM18.7566 20.0306C20.1397 19.0665 21.9231 18.25 24 18.25C26.0769 18.25 27.8603 19.0665 29.2434 20.0306C30.6264 20.9945 31.6486 22.1329 32.2212 22.8498C32.2359 22.8682 32.2516 22.8875 32.2679 22.9076L32.2686 22.9084L32.2686 22.9084C32.4622 23.1468 32.75 23.5011 32.75 24C32.75 24.4989 32.4622 24.8532 32.2686 25.0916C32.252 25.112 32.2361 25.1315 32.2212 25.1502C31.6486 25.8671 30.6264 27.0055 29.2434 27.9694C27.8603 28.9335 26.0769 29.75 24 29.75C21.9231 29.75 20.1397 28.9335 18.7566 27.9694C17.3736 27.0055 16.3514 25.8671 15.7788 25.1502C15.7639 25.1315 15.748 25.112 15.7314 25.0916C15.5378 24.8532 15.25 24.4989 15.25 24C15.25 23.5011 15.5378 23.1468 15.7314 22.9084L15.7315 22.9083C15.748 22.888 15.7639 22.8685 15.7788 22.8498C16.3514 22.1329 17.3736 20.9945 18.7566 20.0306ZM22.75 24C22.75 24.6904 23.3096 25.25 24 25.25C24.6904 25.25 25.25 24.6904 25.25 24C25.25 23.3096 24.6904 22.75 24 22.75C23.3096 22.75 22.75 23.3096 22.75 24ZM24 26.75C22.4812 26.75 21.25 25.5188 21.25 24C21.25 22.4812 22.4812 21.25 24 21.25C25.5188 21.25 26.75 22.4812 26.75 24C26.75 25.5188 25.5188 26.75 24 26.75Z" fill="#067647"/>
</svg>
