<svg width="20" height="20" viewBox="0 0 20 20" fill="none" xmlns="http://www.w3.org/2000/svg">
<path d="M6.66666 9.37501C6.32148 9.37501 6.04166 9.65483 6.04166 10C6.04166 10.3452 6.32148 10.625 6.66666 10.625L13.3333 10.625C13.6785 10.625 13.9583 10.3452 13.9583 10C13.9583 9.65483 13.6785 9.37501 13.3333 9.37501L6.66666 9.37501Z" fill="white"/>
<path fill-rule="evenodd" clip-rule="evenodd" d="M9.99999 1.04167C5.05244 1.04167 1.04166 5.05245 1.04166 10C1.04166 14.9476 5.05244 18.9583 9.99999 18.9583C14.9475 18.9583 18.9583 14.9476 18.9583 10C18.9583 5.05245 14.9475 1.04167 9.99999 1.04167ZM2.29166 10C2.29166 5.74281 5.74279 2.29167 9.99999 2.29167C14.2572 2.29167 17.7083 5.74281 17.7083 10C17.7083 14.2572 14.2572 17.7083 9.99999 17.7083C5.74279 17.7083 2.29166 14.2572 2.29166 10Z" fill="white"/>
</svg>
