<svg width="16" height="16" viewBox="0 0 16 16" fill="none" xmlns="http://www.w3.org/2000/svg">
<path d="M8.62516 1.3335C8.62516 0.988318 8.34534 0.708496 8.00016 0.708496C7.65498 0.708496 7.37516 0.988318 7.37516 1.3335V7.37516H1.3335C0.988318 7.37516 0.708496 7.65498 0.708496 8.00016C0.708496 8.34534 0.988318 8.62516 1.3335 8.62516H7.37516V14.6668C7.37516 15.012 7.65498 15.2918 8.00016 15.2918C8.34534 15.2918 8.62516 15.012 8.62516 14.6668V8.62516H14.6668C15.012 8.62516 15.2918 8.34534 15.2918 8.00016C15.2918 7.65498 15.012 7.37516 14.6668 7.37516H8.62516V1.3335Z" fill="#003F6A"/>
</svg>
