<svg width="241" height="138" viewBox="0 0 241 138" fill="none" xmlns="http://www.w3.org/2000/svg">
<path d="M0.199219 117.4L4.89922 117.5V131H7.99922V117.5L12.4992 117.4L12.5992 115.9H0.299219L0.199219 117.4Z" fill="#062A30"/>
<path d="M23.1016 121.401C22.8016 121.101 22.5016 121.001 22.2016 120.801C21.8016 120.701 21.5016 120.601 21.1016 120.601C20.7016 120.601 20.4016 120.601 20.0016 120.701C19.6016 120.701 19.3016 120.901 18.9016 121.101C18.6016 121.201 18.2016 121.401 17.9016 121.601C17.6016 121.801 17.4016 121.901 17.1016 122.001C17.1016 121.801 17.1016 121.501 17.1016 121.301C17.1016 121.101 17.1016 120.901 17.1016 120.701C17.1016 120.501 17.1016 120.301 17.1016 120.101V113.801L14.1016 114.401V131.001H17.1016V123.301C17.3016 123.201 17.5016 123.101 17.7016 123.001C17.9016 122.901 18.1016 122.801 18.3016 122.701C18.5016 122.701 18.7016 122.601 18.9016 122.501C19.1016 122.501 19.3016 122.501 19.5016 122.501C20.0016 122.501 20.3016 122.601 20.5016 122.901C20.7016 123.201 20.8016 123.601 20.8016 124.201V131.001H23.8016V123.601C23.8016 123.101 23.8016 122.701 23.6016 122.301C23.4016 121.901 23.2016 121.601 23.0016 121.401" fill="#062A30"/>
<path d="M35.1 128.7C34.8 128.8 34.5 128.9 34.1 129C33.7 129 33.4 129.2 33 129.3C32.6 129.3 32.2 129.4 31.9 129.4C31.6 129.4 31.1 129.4 30.7 129.2C30.4 129.1 30.1 128.9 29.9 128.6C29.7 128.4 29.5 128.1 29.4 127.7C29.3 127.3 29.2 127 29.2 126.6V126.2L32.6 126C33.1 126 33.6 126 33.9 125.9C34.3 125.9 34.6 125.8 34.8 125.7C35.1 125.7 35.3 125.5 35.4 125.4C35.6 125.4 35.7 125.2 35.8 125.1C35.7 124.2 35.4 123.5 35.1 122.9C34.8 122.4 34.5 121.9 34.1 121.6C33.7 121.3 33.3 121 32.8 120.9C32.3 120.8 31.8 120.7 31.3 120.7C30.6 120.7 29.9 120.7 29.2 121C28.6 121.2 28 121.5 27.5 122C27 122.4 26.7 123 26.4 123.7C26.1 124.4 26 125.3 26 126.3C26 127.3 26.1 128 26.3 128.6C26.5 129.2 26.8 129.8 27.2 130.1C27.6 130.5 28.1 130.8 28.6 131C29.1 131.2 29.7 131.3 30.4 131.3C31.1 131.3 31.5 131.3 32 131.1C32.5 131 33 130.8 33.5 130.6C34 130.4 34.4 130.2 34.8 129.9C35.2 129.7 35.6 129.4 35.9 129.2L35.6 128.5C35.4 128.5 35.2 128.7 34.9 128.8M29.1 124.3C29.1 124 29.1 123.8 29.2 123.5C29.2 123.3 29.3 123 29.4 122.9C29.4 122.7 29.6 122.6 29.6 122.5C29.7 122.4 29.9 122.3 30.1 122.3C30.3 122.3 30.5 122.3 30.7 122.3C31 122.3 31.2 122.3 31.4 122.6C31.6 122.8 31.8 123 31.9 123.3C32 123.6 32.1 123.9 32.2 124.2C32.2 124.5 32.3 124.8 32.4 125.1H29C29 125.1 29 124.7 29 124.5" fill="#062A30"/>
<path d="M51.4984 115.9L47.6984 123.3L43.8984 115.9H40.3984L45.2984 125.2V131H48.3984V125.2L53.3984 115.9H51.4984Z" fill="#062A30"/>
<path d="M61.6 128.7C61.3 128.8 61 128.9 60.6 129C60.2 129 59.9 129.2 59.5 129.3C59.1 129.3 58.7 129.4 58.4 129.4C58.1 129.4 57.6 129.4 57.2 129.2C56.9 129.1 56.6 128.9 56.4 128.6C56.2 128.4 56 128.1 55.9 127.7C55.8 127.3 55.7 127 55.7 126.6V126.2L59.1 126C59.6 126 60.1 126 60.4 125.9C60.8 125.9 61.1 125.8 61.3 125.7C61.6 125.7 61.8 125.5 61.9 125.4C62.1 125.4 62.2 125.2 62.3 125.1C62.2 124.2 61.9 123.5 61.6 122.9C61.3 122.4 61 121.9 60.6 121.6C60.2 121.3 59.8 121 59.3 120.9C58.8 120.8 58.3 120.7 57.8 120.7C57.1 120.7 56.4 120.8 55.7 121C55.1 121.2 54.5 121.5 54 122C53.5 122.4 53.2 123 52.9 123.7C52.6 124.4 52.5 125.3 52.5 126.3C52.5 127.3 52.6 128 52.8 128.6C53 129.2 53.3 129.8 53.7 130.1C54.1 130.5 54.6 130.8 55.1 131C55.6 131.2 56.2 131.3 56.9 131.3C57.6 131.3 58 131.3 58.5 131.1C59 131 59.5 130.8 60 130.6C60.5 130.4 60.9 130.2 61.3 129.9C61.7 129.7 62.1 129.4 62.4 129.2L62.1 128.5C61.9 128.5 61.7 128.7 61.4 128.8M55.6 124.3C55.6 124 55.6 123.8 55.7 123.5C55.7 123.3 55.8 123 55.9 122.9C55.9 122.7 56.1 122.6 56.1 122.5C56.2 122.4 56.4 122.3 56.6 122.3C56.8 122.3 57 122.3 57.2 122.3C57.5 122.3 57.7 122.3 57.9 122.6C58.1 122.8 58.3 123 58.4 123.3C58.5 123.6 58.6 123.9 58.7 124.2C58.7 124.5 58.8 124.8 58.9 125.1H55.5C55.5 125.1 55.5 124.7 55.5 124.5" fill="#062A30"/>
<path d="M72.5992 127.9V123.2C72.5992 122.7 72.5992 122.3 72.3992 122C72.2992 121.7 72.0992 121.4 71.7992 121.2C71.4992 121 71.1992 120.9 70.8992 120.8C70.4992 120.8 70.0992 120.7 69.5992 120.7C69.0992 120.7 68.7992 120.7 68.2992 120.8C67.8992 120.8 67.4992 121 67.0992 121.1C66.6992 121.2 66.2992 121.4 65.8992 121.5C65.4992 121.6 65.0992 121.8 64.7992 122L65.1992 123.1C65.6992 122.9 66.2992 122.7 66.7992 122.7C67.2992 122.7 67.6992 122.6 68.0992 122.6C68.4992 122.6 68.9992 122.6 69.1992 122.9C69.3992 123.1 69.4992 123.4 69.4992 123.8V125.3H67.6992C66.9992 125.3 66.3992 125.5 65.7992 125.6C65.2992 125.7 64.8992 125.9 64.5992 126.2C64.2992 126.5 64.0992 126.8 63.8992 127.2C63.7992 127.6 63.6992 128.1 63.6992 128.6C63.6992 129.6 63.8992 130.3 64.3992 130.8C64.8992 131.3 65.4992 131.5 66.3992 131.5C67.2992 131.5 67.0992 131.5 67.3992 131.4C67.6992 131.4 67.9992 131.2 68.2992 131.1C68.5992 131 68.7992 130.8 69.0992 130.7C69.2992 130.5 69.5992 130.4 69.8992 130.2C69.8992 130.3 70.0992 130.5 70.1992 130.6C70.1992 130.7 70.3992 130.9 70.5992 131C70.6992 131.1 70.8992 131.2 71.0992 131.3C71.2992 131.3 71.4992 131.4 71.7992 131.4C72.0992 131.4 72.2992 131.4 72.5992 131.4C72.8992 131.4 73.0992 131.3 73.3992 131.2C73.5992 131.1 73.8992 131 74.0992 130.8C74.2992 130.7 74.4992 130.5 74.6992 130.4V129.7C74.2992 129.8 73.8992 129.9 73.5992 129.9C72.9992 129.9 72.7992 129.4 72.7992 128.3M68.9992 129.8C68.6992 129.8 68.3992 129.9 67.9992 129.9C67.5992 129.9 67.4992 129.8 67.2992 129.5C67.1992 129.2 67.0992 128.8 67.0992 128.4C67.0992 128 67.0992 128.1 67.0992 128C67.0992 127.8 67.0992 127.7 67.0992 127.5C67.0992 127.4 67.0992 127.2 67.0992 127.1C67.0992 127 67.0992 126.9 67.1992 126.8C67.1992 126.7 67.4992 126.6 67.8992 126.5C68.2992 126.5 68.7992 126.4 69.5992 126.4C69.5992 126.8 69.5992 127.2 69.5992 127.5C69.5992 127.9 69.5992 128.2 69.5992 128.5C69.5992 128.8 69.5992 129 69.5992 129.2C69.5992 129.4 69.5992 129.5 69.5992 129.5C69.2992 129.6 68.9992 129.7 68.6992 129.8" fill="#062A30"/>
<path d="M80.3008 120.901C80.2008 120.901 80.0008 121.001 79.9008 121.201C79.8008 121.301 79.6008 121.501 79.5008 121.601C79.4008 121.801 79.2008 121.901 79.1008 122.101C79.0008 122.301 78.9008 122.401 78.8008 122.501L78.5008 120.901H75.8008V131.001H78.8008V123.701C78.9008 123.501 79.1008 123.401 79.2008 123.301C79.3008 123.201 79.4008 123.101 79.6008 123.001C79.7008 123.001 79.8008 122.901 80.0008 122.901C80.1008 122.901 80.3008 122.901 80.5008 122.901C80.7008 122.901 81.0008 122.901 81.3008 122.901C81.6008 122.901 81.8008 123.001 82.0008 123.101L82.3008 120.601C81.9008 120.601 81.6008 120.601 81.2008 120.601C80.9008 120.601 80.6008 120.601 80.3008 120.801" fill="#062A30"/>
<path d="M96.4992 122C95.9992 121.6 95.4992 121.2 94.7992 121C94.0992 120.8 93.3992 120.7 92.4992 120.7C91.5992 120.7 90.7992 120.8 90.1992 121.1C89.4992 121.3 88.9992 121.7 88.4992 122.2C87.9992 122.7 87.6992 123.2 87.4992 123.9C87.2992 124.6 87.1992 125.3 87.1992 126.1C87.1992 127.8 87.6992 129.1 88.5992 130C89.4992 130.9 90.7992 131.3 92.5992 131.3C94.3992 131.3 94.2992 131.2 94.8992 130.9C95.4992 130.6 96.0992 130.3 96.5992 129.8C96.9992 129.3 97.3992 128.8 97.5992 128.1C97.7992 127.4 97.8992 126.7 97.8992 125.9C97.8992 125.1 97.7992 124.3 97.5992 123.7C97.3992 123 96.9992 122.5 96.5992 122M94.7992 127.2C94.7992 127.6 94.7992 128 94.6992 128.3C94.6992 128.6 94.5992 128.9 94.4992 129.1C94.4992 129.3 94.2992 129.4 94.1992 129.5C93.9992 129.6 93.7992 129.7 93.4992 129.7C93.1992 129.7 92.8992 129.7 92.5992 129.7C91.7992 129.7 91.2992 129.4 90.8992 128.8C90.5992 128.2 90.3992 127.2 90.3992 125.9C90.3992 124.6 90.3992 125.1 90.3992 124.7C90.3992 124.3 90.3992 123.9 90.4992 123.6C90.4992 123.3 90.5992 123 90.6992 122.8C90.6992 122.6 90.8992 122.5 90.9992 122.4C91.1992 122.3 91.4992 122.2 91.6992 122.1C91.9992 122.1 92.2992 122.1 92.4992 122.1C93.2992 122.1 93.7992 122.4 94.1992 123.1C94.4992 123.7 94.6992 124.7 94.6992 126C94.6992 127.3 94.6992 126.9 94.6992 127.3" fill="#062A30"/>
<path d="M105.199 114.101C104.599 114.101 103.999 114.201 103.399 114.501C102.799 114.801 102.299 115.201 101.799 115.601C101.299 116.101 100.899 116.601 100.599 117.201C100.299 117.801 100.199 118.401 100.199 119.101V120.901C100.099 120.901 99.9992 120.901 99.7992 121.001C99.5992 121.001 99.4992 121.001 99.2992 121.101C99.0992 121.101 98.8992 121.201 98.6992 121.301V122.101C98.6992 122.101 98.9992 122.101 99.1992 122.101H100.199V130.901H103.199V122.101C103.499 122.101 103.699 122.101 103.999 122.101C104.299 122.101 104.599 122.101 104.799 122.101C105.099 122.101 105.399 122.101 105.699 122.101L105.899 120.901H103.199V119.401C103.199 119.001 103.199 118.601 103.199 118.301C103.199 117.901 103.199 117.601 103.199 117.301C103.199 117.001 103.199 116.701 103.299 116.501C103.299 116.301 103.299 116.101 103.499 116.101C103.599 116.001 103.799 115.901 103.999 115.901C104.199 115.901 104.399 115.901 104.599 115.901C104.899 115.901 105.199 115.901 105.499 115.901C105.799 115.901 106.099 116.001 106.399 116.101L106.899 114.301C106.699 114.301 106.399 114.301 106.099 114.301C105.799 114.301 105.499 114.301 105.199 114.301" fill="#062A30"/>
<path d="M115.898 116L109.898 131.1H111.898L113.798 126.1H119.498L121.298 131.1H124.598L118.998 115.5L115.998 116H115.898ZM114.198 124.5L116.598 117.9L118.898 124.5H114.198Z" fill="#062A30"/>
<path d="M130.301 120.901C130.201 120.901 130.001 121.001 129.901 121.201C129.801 121.301 129.601 121.501 129.501 121.601C129.401 121.801 129.201 121.901 129.101 122.101C129.001 122.301 128.901 122.401 128.801 122.501L128.501 120.901H125.801V131.001H128.801V123.701C128.901 123.501 129.101 123.401 129.201 123.301C129.301 123.201 129.401 123.101 129.601 123.001C129.701 123.001 129.801 122.901 130.001 122.901C130.101 122.901 130.301 122.901 130.501 122.901C130.701 122.901 131.001 122.901 131.301 122.901C131.601 122.901 131.801 123.001 132.001 123.101L132.301 120.601C131.901 120.601 131.601 120.601 131.201 120.601C130.901 120.601 130.601 120.601 130.301 120.801" fill="#062A30"/>
<path d="M141.502 127.9V123.2C141.502 122.7 141.502 122.3 141.302 122C141.202 121.7 141.002 121.4 140.702 121.2C140.402 121 140.102 120.9 139.802 120.8C139.402 120.8 139.002 120.7 138.502 120.7C138.002 120.7 137.702 120.7 137.202 120.8C136.802 120.8 136.402 121 136.002 121.1C135.602 121.2 135.202 121.4 134.802 121.5C134.402 121.6 134.002 121.8 133.702 122L134.102 123.1C134.602 122.9 135.202 122.7 135.702 122.7C136.202 122.7 136.602 122.6 137.002 122.6C137.402 122.6 137.902 122.6 138.102 122.9C138.302 123.1 138.402 123.4 138.402 123.8V125.3H136.602C135.902 125.3 135.302 125.5 134.702 125.6C134.202 125.7 133.802 125.9 133.502 126.2C133.202 126.5 133.002 126.8 132.802 127.2C132.702 127.6 132.602 128.1 132.602 128.6C132.602 129.6 132.802 130.3 133.302 130.8C133.802 131.3 134.402 131.5 135.302 131.5C136.202 131.5 136.002 131.5 136.302 131.4C136.602 131.4 136.902 131.2 137.202 131.1C137.502 131 137.702 130.8 138.002 130.7C138.202 130.5 138.502 130.4 138.802 130.2C138.802 130.3 139.002 130.5 139.102 130.6C139.102 130.7 139.302 130.9 139.502 131C139.602 131.1 139.802 131.2 140.002 131.3C140.202 131.3 140.402 131.4 140.702 131.4C141.002 131.4 141.202 131.4 141.502 131.4C141.802 131.4 142.002 131.3 142.302 131.2C142.502 131.1 142.802 131 143.002 130.8C143.202 130.7 143.402 130.5 143.602 130.4V129.7C143.202 129.8 142.802 129.9 142.502 129.9C141.902 129.9 141.702 129.4 141.702 128.3M137.902 129.8C137.602 129.8 137.302 129.9 136.902 129.9C136.502 129.9 136.402 129.8 136.202 129.5C136.102 129.2 136.002 128.8 136.002 128.4C136.002 128 136.002 128.1 136.002 128C136.002 127.8 136.002 127.7 136.002 127.5C136.002 127.4 136.002 127.2 136.002 127.1C136.002 127 136.002 126.9 136.102 126.8C136.102 126.7 136.402 126.6 136.802 126.5C137.202 126.5 137.702 126.4 138.502 126.4C138.502 126.8 138.502 127.2 138.502 127.5C138.502 127.9 138.502 128.2 138.502 128.5C138.502 128.8 138.502 129 138.502 129.2C138.502 129.4 138.502 129.5 138.502 129.5C138.202 129.6 137.902 129.7 137.602 129.8" fill="#062A30"/>
<path d="M153.602 121.8C153.202 121.4 152.802 121.1 152.302 120.9C151.802 120.7 151.302 120.6 150.702 120.6C150.102 120.6 149.502 120.7 149.002 120.9C148.502 121.1 148.002 121.4 147.602 121.7C147.602 121.5 147.602 121.3 147.602 121.2C147.602 121 147.602 120.9 147.602 120.7C147.602 120.5 147.602 120.3 147.602 120.2V113.9L144.602 114.5V130.8C145.402 131 146.202 131.2 147.002 131.2C147.802 131.2 148.602 131.3 149.202 131.3C149.802 131.3 150.802 131.2 151.502 130.9C152.202 130.6 152.802 130.3 153.302 129.8C153.802 129.3 154.102 128.7 154.402 128.1C154.702 127.4 154.802 126.6 154.802 125.7C154.802 124.8 154.702 124 154.502 123.4C154.302 122.8 154.002 122.2 153.602 121.9M151.502 128.2C151.302 128.8 151.202 129.2 151.002 129.3C150.802 129.4 150.602 129.6 150.302 129.6C150.002 129.6 149.602 129.7 149.202 129.7C148.802 129.7 148.702 129.7 148.502 129.7C148.202 129.7 148.002 129.7 147.802 129.6V122.9C148.102 122.8 148.402 122.7 148.702 122.6C149.002 122.6 149.402 122.5 149.702 122.5C150.302 122.5 150.902 122.8 151.302 123.3C151.702 123.8 151.902 124.7 151.902 125.8C151.902 126.9 151.902 127.5 151.602 128.1" fill="#062A30"/>
<path d="M156.699 117.001L158.599 118.901L160.499 117.001L158.599 115.101L156.699 117.001Z" fill="#062A30"/>
<path d="M160.102 120.9H157.102V131H160.102V120.9Z" fill="#062A30"/>
<path d="M169.498 129.401C168.898 129.501 168.298 129.601 167.698 129.601C167.098 129.601 166.998 129.601 166.698 129.401C166.398 129.301 166.198 129.101 165.998 128.801C165.798 128.501 165.698 128.201 165.598 127.801C165.598 127.401 165.498 126.801 165.498 126.201C165.498 125.101 165.498 124.201 165.698 123.701C165.798 123.201 165.998 122.801 166.198 122.701C166.398 122.601 166.598 122.501 166.898 122.401C167.198 122.401 167.398 122.401 167.698 122.401C168.298 122.401 168.898 122.401 169.398 122.701C169.898 122.901 170.398 123.101 170.798 123.201L171.298 121.201C170.798 121.101 170.298 121.001 169.798 120.901C169.198 120.901 168.698 120.801 168.098 120.801C167.198 120.801 166.398 120.901 165.698 121.201C164.998 121.501 164.398 121.801 163.898 122.301C163.398 122.801 163.098 123.401 162.798 124.101C162.598 124.801 162.398 125.601 162.398 126.401C162.398 127.201 162.498 128.101 162.798 128.701C162.998 129.301 163.398 129.901 163.798 130.201C164.198 130.601 164.698 130.901 165.198 131.101C165.798 131.301 166.398 131.401 166.998 131.401C167.598 131.401 168.698 131.201 169.498 130.901C170.298 130.601 170.898 130.201 171.498 129.701L171.198 129.001C170.698 129.201 170.098 129.401 169.498 129.501" fill="#062A30"/>
<path d="M186.198 116.9C185.698 116.5 185.198 116.2 184.498 116C183.798 115.8 182.998 115.7 182.098 115.7C181.198 115.7 181.298 115.7 180.898 115.7C180.498 115.7 180.098 115.7 179.698 115.7C179.298 115.7 178.898 115.7 178.498 115.7C178.098 115.7 177.798 115.7 177.398 115.7V130.8H180.498V117.1C180.898 117.1 181.298 117.1 181.698 117.1C182.098 117.1 182.498 117.1 182.798 117.3C183.098 117.4 183.398 117.6 183.598 117.8C183.798 118 183.998 118.3 184.098 118.7C184.198 119.1 184.298 119.5 184.298 120C184.298 120.5 184.298 121.2 184.098 121.7C183.998 122.1 183.698 122.5 183.498 122.8C183.198 123.1 182.898 123.3 182.598 123.4C182.198 123.5 181.898 123.7 181.498 123.7H181.098L181.298 125H181.398C182.498 125 183.398 124.9 184.198 124.6C184.998 124.3 185.598 124 186.098 123.5C186.598 123 186.998 122.5 187.198 121.9C187.398 121.3 187.598 120.6 187.598 119.9C187.598 119.2 187.498 118.6 187.298 118.1C187.098 117.6 186.698 117.1 186.298 116.7" fill="#062A30"/>
<path d="M197.8 122C197.3 121.6 196.8 121.2 196.1 121C195.4 120.8 194.7 120.7 193.8 120.7C192.9 120.7 192.1 120.8 191.5 121.1C190.8 121.3 190.3 121.7 189.8 122.2C189.3 122.7 189 123.2 188.8 123.9C188.6 124.6 188.5 125.3 188.5 126.1C188.5 127.8 189 129.1 189.9 130C190.8 130.9 192.1 131.3 193.9 131.3C195.7 131.3 195.6 131.2 196.2 130.9C196.9 130.7 197.4 130.3 197.9 129.8C198.3 129.3 198.7 128.8 198.9 128.1C199.1 127.4 199.2 126.7 199.2 125.9C199.2 125.1 199.1 124.3 198.9 123.7C198.7 123 198.3 122.5 197.9 122M196.1 127.2C196.1 127.6 196.1 128 196 128.3C196 128.6 195.9 128.9 195.8 129.1C195.8 129.3 195.6 129.4 195.5 129.5C195.3 129.6 195.1 129.7 194.8 129.7C194.5 129.7 194.2 129.7 193.9 129.7C193.1 129.7 192.6 129.4 192.2 128.8C191.9 128.2 191.7 127.2 191.7 125.9C191.7 124.6 191.7 125.1 191.7 124.7C191.7 124.3 191.7 123.9 191.8 123.6C191.8 123.3 191.9 123 192 122.8C192 122.6 192.2 122.5 192.3 122.4C192.5 122.3 192.8 122.2 193 122.1C193.3 122.1 193.6 122.1 193.8 122.1C194.6 122.1 195.1 122.4 195.5 123.1C195.8 123.7 196 124.7 196 126C196 127.3 196 126.9 196 127.3" fill="#062A30"/>
<path d="M209.702 128.7C209.402 128.8 209.102 128.9 208.702 129C208.302 129 208.002 129.2 207.602 129.3C207.202 129.3 206.802 129.4 206.502 129.4C206.202 129.4 205.702 129.4 205.302 129.2C205.002 129.1 204.702 128.9 204.502 128.6C204.302 128.4 204.102 128.1 204.002 127.7C203.902 127.3 203.802 127 203.802 126.6V126.2L207.202 126C207.702 126 208.202 126 208.502 125.9C208.902 125.9 209.202 125.8 209.402 125.7C209.702 125.7 209.902 125.5 210.002 125.4C210.202 125.4 210.302 125.2 210.402 125.1C210.302 124.2 210.002 123.5 209.702 122.9C209.402 122.4 209.102 121.9 208.702 121.6C208.302 121.3 207.902 121 207.402 120.9C206.902 120.8 206.402 120.7 205.902 120.7C205.202 120.7 204.502 120.8 203.802 121C203.202 121.2 202.602 121.5 202.102 122C201.602 122.4 201.302 123 201.002 123.7C200.702 124.4 200.602 125.3 200.602 126.3C200.602 127.3 200.702 128 200.902 128.6C201.102 129.2 201.402 129.8 201.802 130.1C202.202 130.5 202.702 130.8 203.202 131C203.702 131.2 204.302 131.3 205.002 131.3C205.702 131.3 206.102 131.3 206.602 131.1C207.102 131 207.602 130.8 208.102 130.6C208.602 130.4 209.002 130.2 209.402 129.9C209.802 129.7 210.202 129.4 210.502 129.2L210.202 128.5C210.002 128.5 209.802 128.7 209.502 128.8M203.702 124.3C203.702 124 203.702 123.8 203.802 123.5C203.802 123.3 203.902 123 204.002 122.9C204.002 122.7 204.202 122.6 204.202 122.5C204.302 122.4 204.502 122.3 204.702 122.3C204.902 122.3 205.102 122.3 205.302 122.3C205.602 122.3 205.802 122.3 206.002 122.6C206.202 122.8 206.402 123 206.502 123.3C206.602 123.6 206.702 123.9 206.802 124.2C206.802 124.5 206.902 124.8 207.002 125.1H203.602C203.602 125.1 203.602 124.7 203.602 124.5" fill="#062A30"/>
<path d="M217.9 129.2C217.7 129.2 217.5 129.2 217.3 129.2C217.1 129.2 217 129.2 216.8 129.2C216.4 129.2 216.1 129.1 215.9 128.8C215.8 128.6 215.7 128.3 215.7 127.9V122.2C216.1 122.2 216.5 122.2 216.9 122.2C217.2 122.2 217.6 122.2 217.9 122.2C218.2 122.2 218.5 122.2 218.8 122.1V121C218.9 121 215.7 121 215.7 121V119.2H214.8L211.5 121.4V122L212.6 122.4V129.4C212.6 129.8 212.6 130.2 212.8 130.4C212.9 130.7 213.1 130.9 213.3 131C213.5 131.1 213.7 131.2 214 131.3C214.3 131.3 214.5 131.3 214.8 131.3C215.1 131.3 215.5 131.3 215.9 131.2C216.3 131.2 216.7 131 217 130.9C217.4 130.8 217.7 130.6 218.1 130.5C218.4 130.3 218.7 130.2 219 130V129.2C218.9 129.2 218.7 129.2 218.5 129.2C218.3 129.2 218.1 129.2 217.9 129.2Z" fill="#062A30"/>
<path d="M226.899 123.2L227.199 120.7C226.799 120.7 226.499 120.7 226.099 120.7C225.799 120.7 225.499 120.7 225.199 120.9C225.099 120.9 224.899 121 224.799 121.2C224.699 121.3 224.499 121.5 224.399 121.6C224.299 121.8 224.099 121.9 223.999 122.1C223.899 122.3 223.799 122.4 223.699 122.5L223.399 120.9H220.699V131H223.699V123.7C223.799 123.5 223.999 123.4 224.099 123.3C224.199 123.2 224.299 123.1 224.499 123C224.599 123 224.699 122.9 224.899 122.9C224.999 122.9 225.199 122.9 225.399 122.9C225.599 122.9 225.899 122.9 226.199 122.9C226.499 122.9 226.699 123 226.899 123.1" fill="#062A30"/>
<path d="M238.1 120.7L235.7 121.1C235.7 121.1 235.7 121.2 235.7 121.4C235.7 121.5 235.7 121.6 235.7 121.8C235.7 121.9 235.7 122.1 235.7 122.3C235.7 122.5 235.7 122.6 235.7 122.8C235.7 123.3 235.7 123.8 235.7 124.3C235.7 124.8 235.6 125.2 235.4 125.7C235.3 126.2 235.1 126.6 234.9 127.1C234.7 127.6 234.4 128.1 234.1 128.6C233.8 127.7 233.6 126.9 233.3 126.2C233 125.4 232.8 124.7 232.5 124.1C232.2 123.5 232 122.9 231.7 122.5C231.5 122.1 231.2 121.7 231 121.5C230.8 121.3 230.6 121.2 230.4 121.1C230.2 121.1 229.9 121 229.6 121C229.3 121 229.3 121 229.1 121C228.9 121 228.7 121 228.5 121C228.3 121 228.1 121 227.9 121C227.7 121 227.5 121 227.4 121V122C227.4 122 227.6 122 227.8 122C228 122 228.1 122.1 228.3 122.3C228.5 122.4 228.7 122.8 228.9 123.3C229.2 123.8 229.5 124.4 229.8 125.2C230.2 126 230.5 126.9 230.9 127.9C231.3 128.9 231.7 130 232.1 131.2C231.8 131.6 231.5 132 231.2 132.4C230.9 132.8 230.5 133.2 230.2 133.6C229.9 134 229.5 134.3 229.2 134.7C228.9 135 228.6 135.3 228.4 135.5C228 135.9 227.5 136.2 227 136.4C226.5 136.6 226.1 136.7 225.7 136.7H225.5V137.7C225.7 137.7 226 137.8 226.3 137.9C226.6 137.9 226.9 137.9 227.2 137.9C227.8 137.9 228.3 137.7 228.8 137.4C229.3 137.1 229.9 136.6 230.4 136C230.7 135.6 231 135.3 231.2 135C231.4 134.7 231.7 134.4 231.9 134C232.2 133.6 232.4 133.2 232.8 132.8C233.1 132.3 233.5 131.7 234 131C234.5 130.3 234.9 129.6 235.4 128.9C235.9 128.2 236.3 127.4 236.7 126.7C237.1 126 237.4 125.2 237.6 124.5C237.8 123.8 238 123 238 122.3C238 121.6 238 121.7 238 121.4C238 121.1 238 120.9 237.9 120.7" fill="#062A30"/>
<path d="M120.398 25.1004C119.098 45.2004 124.798 47.7004 124.798 47.7004L129.798 39.5004C129.798 39.5004 123.598 35.3004 125.998 24.1004C129.798 6.80039 123.798 -0.0996094 123.798 -0.0996094L116.898 6.20039C116.898 6.20039 121.598 4.90039 120.398 25.0004" fill="#062A30"/>
<path d="M143.999 42.6004V42.3004C143.999 42.3004 147.499 42.0004 148.599 42.2004C153.899 42.9004 162.999 46.0004 167.799 39.1004C173.699 30.7004 161.499 19.4004 161.499 19.4004L144.099 35.3004H142.699C142.699 35.4004 137.199 35.4004 137.199 35.4004V54.0004L143.899 50.9004V42.6004H143.999Z" fill="#062A30"/>
<path d="M23.4 42.3008V41.8008C23.4 41.8008 39.6 41.8008 43.1 41.7008C47.5 41.5008 51.8 40.4008 51.8 39.4008C51.9 40.7008 55.8 41.7008 60.5 41.8008C60.6 41.8008 60.8 41.8008 61 41.8008H62.7C63.9 41.8008 65.4 41.8008 66.9 41.8008H108.2H113.9V9.00078C113.9 6.20078 112.6 3.60078 110.4 2.00078L109.9 1.60078C108.7 0.700781 107 0.700781 105.8 1.60078L101.8 4.60078L104.3 6.30078C106.2 7.60078 107.3 9.70078 107.3 12.0008L107.7 35.6008C107.5 35.6008 107.2 35.6008 107 35.6008H100.9C99.8 33.6008 98.2 25.3008 97.5 22.5008C97.5 22.5008 93 26.8008 92.5 27.2008L93.9 35.6008C89.6 33.7008 87.7 27.2008 86.9 26.5008C86.9 26.5008 83 30.0008 82.9 31.1008C82.9 31.7008 84.3 33.8008 85.5 35.6008H84.2C78.1 33.4008 77.3 26.0008 76.7 25.4008C76.7 25.4008 76.7 25.4008 72.5 30.0008C72.5 31.7008 73.4 33.7008 74.2 35.6008H62.9C56.7 35.5008 57.9 33.1008 57.9 33.1008L62.5 29.4008C64.5 27.8008 65.1 25.0008 63.9 22.8008C63.1 21.2008 58.3 18.2008 52 18.9008C45.7 19.6008 42.3 21.8008 37.3 25.2008C37.3 25.2008 49.2 31.6008 48.1 35.6008H23.4V20.3008L16.4 23.1008C16.4 23.1008 16.4 41.8008 16.4 43.2008C16.4 44.6008 15.8 47.0008 12.8 47.0008H4.3L0 53.6008H13.7C19.5 53.6008 23.1 48.8008 23.3 42.3008" fill="#062A30"/>
<path d="M236.202 74.8006C240.002 57.5006 234.002 50.6006 234.002 50.6006L227.102 56.9006C227.102 56.9006 231.802 55.6006 230.602 75.7006C229.302 95.8006 235.002 98.3006 235.002 98.3006L240.002 90.1006C240.002 90.1006 233.802 85.9006 236.202 74.7006" fill="#062A30"/>
<path d="M217.499 92.5004H224.199V59.6004C224.199 56.8004 222.899 54.2004 220.699 52.6004L220.199 52.2004C218.999 51.3004 217.299 51.3004 216.099 52.2004L212.099 55.2004L214.599 56.9004C216.499 58.2004 217.599 60.3004 217.599 62.6004V86.1004H213.299C206.399 86.1004 207.699 83.6004 207.699 83.6004L212.399 79.8004C214.399 78.2004 214.999 75.3004 213.799 73.0004C212.999 71.4004 208.099 68.3004 201.599 69.0004C195.099 69.7004 191.599 72.0004 186.499 75.4004C186.499 75.4004 198.699 81.9004 197.499 86.0004H185.399H183.699V70.4004L176.499 73.3004C176.499 73.3004 176.499 92.5004 176.499 93.8004C176.199 98.1004 171.699 97.8004 167.599 97.6004L163.199 104.4C172.099 104.8 183.499 105.7 183.499 92.9004V92.4004H184.999C186.599 92.4004 188.899 92.4004 192.499 92.3004C196.999 92.1004 201.399 91.0004 201.399 90.0004C201.499 91.3004 205.499 92.4004 210.299 92.4004C212.899 92.4004 211.599 92.4004 214.199 92.4004H217.399L217.499 92.5004Z" fill="#062A30"/>
<path d="M173.099 41.8006H236.699C236.699 41.8006 237.299 41.6006 239.299 38.9006C240.299 37.5006 240.599 36.7006 240.599 36.2006C240.599 35.7006 240.099 35.4006 240.099 35.4006H234.799C230.599 34.9006 225.699 34.9006 221.399 30.6006C220.399 29.6006 218.699 27.8006 218.699 26.5006C219.899 26.0006 221.399 25.7006 222.799 25.7006C225.799 25.7006 229.199 26.9006 230.699 29.6006C231.999 29.6006 234.999 24.7006 234.999 23.3006C234.999 21.9006 234.999 23.0006 234.999 22.8006C233.299 19.7006 229.699 19.0006 226.699 19.0006C223.699 19.0006 221.899 19.6006 219.999 21.1006C217.099 23.5006 214.199 28.9006 214.199 31.6006C214.199 34.3006 214.599 34.5006 215.499 35.5006H179.899V7.90059C179.899 5.80059 179.099 3.70059 177.699 2.10059C175.699 3.60059 173.499 4.90059 171.199 6.10059C172.399 7.40059 173.199 9.10058 173.199 10.9006V41.8006H173.099Z" fill="#062A30"/>
<path d="M218.702 8.5002V4.7002L202.102 20.9002H205.902L218.702 8.5002Z" fill="#062A30"/>
<path d="M191.101 66.8002L203.901 54.4002V50.7002L187.301 66.8002H191.101Z" fill="#062A30"/>
<path d="M175.402 66.8002L188.202 54.4002V50.7002L171.602 66.8002H175.402Z" fill="#062A30"/>
<path d="M71.3992 17.2L84.1992 4.8V1L67.6992 17.2H71.3992Z" fill="#062A30"/>
<path d="M61.8 16.0002C63.8 16.0002 66.2 13.3002 70.3 9.2002C73.6 5.9002 70.3 1.6002 68.9 0.200195C68.7 0.200195 68.7 0.200195 68.5 0.400195C68.5 1.7002 68.6 4.5002 67.8 5.2002C67 5.8002 65.4 4.6002 64.5 3.9002C64.3 4.0002 64.3 4.0002 64.1 4.2002C64.5 5.7002 65.1 8.60019 64 9.2002C63 9.8002 61.6 8.8002 60.8 8.0002C60.6 8.1002 60.6 8.1002 60.4 8.3002C60.9 9.9002 61.4 13.1002 59 14.1002C59 14.1002 59 14.2002 59 14.3002C59.3 14.7002 60.5 16.2002 62.2 16.1002" fill="#062A30"/>
<path d="M113.102 91.1006L115.802 95.3006L120.902 88.2006L118.302 84.6006L113.102 91.1006Z" fill="#062A30"/>
<path d="M121.301 91.1006L123.901 95.3006L129.101 88.2006L126.401 84.6006L121.301 91.1006Z" fill="#062A30"/>
<path d="M163.101 98.9008L160.401 95.3008L155.301 101.801L157.901 106.001L163.101 98.9008Z" fill="#062A30"/>
<path d="M150.799 102.101C150.799 100.701 150.799 99.1006 149.899 97.7006C148.199 95.3006 139.899 86.9006 139.899 85.4006C139.899 83.9006 140.799 81.9006 142.399 81.4006L154.799 92.6006H160.699H171.899V70.6006L165.199 73.7006V86.2006C163.299 86.2006 161.799 86.2006 160.499 86.2006H156.899L140.599 71.5006C140.699 71.5006 132.999 77.0006 132.999 84.7006C132.999 92.4006 133.899 88.4006 135.799 90.6006C137.599 92.8006 141.899 97.5006 141.899 97.5006H114.899L109.699 104.501H150.799V102.001V102.101Z" fill="#062A30"/>
<path d="M130.101 60.7002C129.901 60.7002 129.901 60.7002 129.601 60.9002C129.701 62.5002 129.901 65.9002 129.101 66.6002C128.301 67.2002 126.701 66.1002 125.801 65.3002C125.601 65.4002 125.601 65.4002 125.401 65.6002C125.801 67.1002 126.401 70.0002 125.301 70.6002C124.301 71.2002 122.901 70.2002 122.101 69.4002C121.901 69.5002 121.901 69.5002 121.701 69.7002C122.201 71.3002 122.701 74.5002 120.301 75.5002C120.301 75.5002 120.301 75.5002 120.301 75.7002C120.601 76.1002 121.801 77.6002 123.501 77.5002C125.501 77.5002 127.901 74.8002 132.001 70.7002C135.301 67.4002 131.801 62.5002 130.401 60.9002" fill="#062A30"/>
<path d="M41.1016 10.2004C41.4016 11.7004 37.1016 14.4004 37.1016 14.4004L34.8016 18.0004C34.8016 18.0004 44.9016 13.2004 46.3016 8.50039C47.2016 5.30039 42.5016 4.90039 39.4016 4.90039C37.8016 4.90039 36.2016 5.60039 35.0016 6.70039L33.1016 8.50039C33.1016 8.50039 40.7016 8.70039 41.0016 10.2004" fill="#062A30"/>
<path d="M192.001 17.7006C193.401 17.7006 193.901 17.1006 194.801 16.0006L196.401 14.3006C196.401 14.3006 193.701 14.1006 193.501 12.6006C193.301 11.2006 198.801 6.40059 198.801 6.40059V5.10059C198.801 5.10059 190.301 9.70059 189.101 14.2006C188.301 17.2006 190.701 17.6006 192.001 17.6006" fill="#062A30"/>
<path d="M210.799 100.701H208.999C207.599 100.501 205.999 100.501 204.499 99.1006C204.199 98.8006 203.599 98.2006 203.599 97.7006C203.999 97.5006 204.499 97.4006 204.999 97.4006C205.999 97.4006 207.099 97.8006 207.599 98.7006C207.999 98.7006 209.099 97.1006 209.099 96.6006C209.099 96.1006 209.099 96.6006 209.099 96.4006C208.499 95.4006 207.299 95.1006 206.299 95.1006C205.299 95.1006 204.699 95.3006 204.099 95.8006C203.099 96.6006 202.199 98.4006 202.199 99.3006C202.199 100.201 202.299 100.301 202.599 100.601H192.599L190.699 102.701H209.799C209.799 102.701 209.999 102.701 210.699 101.701C210.999 101.201 211.099 101.001 211.099 100.801C211.099 100.601 210.899 100.501 210.899 100.501" fill="#062A30"/>
<path d="M90.9008 24.6004L96.1008 17.5004L93.4008 13.9004L88.3008 20.4004L90.9008 24.6004Z" fill="#062A30"/>
<path d="M76.3008 20.4004L79.0008 24.6004L84.1008 17.5004L81.5008 13.9004L76.3008 20.4004Z" fill="#062A30"/>
<path d="M86.6 19.1004L91.8 12.0004L89.1 8.40039L84 14.9004L86.6 19.1004Z" fill="#062A30"/>
<path d="M101.498 81.3001C101.498 81.3001 109.998 75.3001 105.798 67.0001C102.698 61.1001 92.9984 62.0001 89.3984 63.4001L89.1984 63.6001L84.3984 70.0001C85.0984 70.0001 86.0984 69.8001 86.4984 69.7001C90.3984 69.2001 93.7984 69.1001 96.5984 70.3001C100.298 71.8001 101.398 75.8001 98.8984 79.4001L98.2984 80.1001C98.2984 80.1001 94.6984 79.0001 90.8984 80.2001L90.6984 80.4001L86.3984 86.3001C88.2984 85.9001 93.5984 85.2001 97.9984 87.7001C100.498 89.1001 102.798 92.8001 102.498 96.5001C102.498 96.5001 96.4984 99.3001 88.7984 96.1001L83.8984 102.8C86.1984 104.2 94.9984 108.5 104.498 99.4001C113.698 90.6001 105.298 82.3001 101.398 81.3001" fill="#062A30"/>
<path d="M66.5016 96.8002C66.1016 96.8002 86.0016 77.6002 79.2016 67.3002C74.1016 59.4002 63.5016 63.2002 62.8016 63.5002L57.8016 70.2002C58.4016 70.1002 59.2016 69.9002 60.3016 69.8002C72.3016 68.2002 74.1016 73.7002 72.7016 79.2002C71.1016 85.7002 60.7016 97.9002 56.6016 102.7C57.0016 103.6 57.1016 103.7 57.5016 104.7H77.7016L83.5016 96.8002H82.8016L66.4016 97.0002L66.5016 96.8002Z" fill="#062A30"/>
<path d="M57.1003 81.4005C57.1003 78.5005 57.1003 62.1005 43.2003 62.4005C27.6003 62.7005 25.1003 83.7005 28.8003 96.1005C30.7003 102.601 35.8003 105.001 40.4003 105.101C57.6003 105.101 57.2003 84.4005 57.2003 81.4005M47.2003 99.2005C28.6003 100.501 36.5003 69.7005 37.4003 68.4005C50.3003 67.6005 51.5003 83.2005 47.2003 99.2005Z" fill="#062A30"/>
<path d="M0.299219 102.5C0.699219 103.4 0.799219 103.5 1.19922 104.5H21.3992L27.1992 96.6002H26.4992L10.0992 96.8002C9.69922 96.8002 29.5992 77.6002 22.7992 67.3002C17.6992 59.4002 7.09922 63.2002 6.39922 63.5002L1.39922 70.2002C1.99922 70.1002 2.79922 69.9002 3.89922 69.8002C15.8992 68.2002 17.6992 73.7002 16.2992 79.2002C14.6992 85.7002 4.29922 97.9002 0.199219 102.7" fill="#062A30"/>
<path d="M151.4 7.50039C150.3 4.00039 146.5 3.90039 146.5 3.90039L141.8 9.70039C141.8 9.90039 141.8 9.90039 141.8 10.1004C142.3 10.5004 145.6 11.5004 146.4 12.4004C146.7 12.8004 146.2 13.5004 145.4 14.3004C143.6 16.2004 140 18.6004 140 18.6004L142.9 19.0004C152.1 13.7004 152.3 10.3004 151.4 7.50039Z" fill="#062A30"/>
</svg>
