<svg width="49" height="48" viewBox="0 0 49 48" fill="none" xmlns="http://www.w3.org/2000/svg">
<path d="M0.333008 24C0.333008 10.7452 11.0782 0 24.333 0C37.5878 0 48.333 10.7452 48.333 24C48.333 37.2548 37.5878 48 24.333 48C11.0782 48 0.333008 37.2548 0.333008 24Z" fill="#F3FCF6"/>
<path d="M20.083 22C20.083 21.5858 19.7472 21.25 19.333 21.25C18.9188 21.25 18.583 21.5858 18.583 22L18.583 29C18.583 29.4142 18.9188 29.75 19.333 29.75C19.7472 29.75 20.083 29.4142 20.083 29L20.083 22Z" fill="#067647"/>
<path d="M23.333 21.25C23.7471 21.25 24.0829 21.5856 24.083 21.9997C24.7098 21.529 25.4888 21.25 26.333 21.25C28.4041 21.25 30.083 22.9289 30.083 25V29C30.083 29.4142 29.7472 29.75 29.333 29.75C28.9188 29.75 28.583 29.4142 28.583 29V25C28.583 23.7574 27.5756 22.75 26.333 22.75C25.0904 22.75 24.083 23.7574 24.083 25V29C24.083 29.4142 23.7472 29.75 23.333 29.75C22.9188 29.75 22.583 29.4142 22.583 29L22.583 22C22.583 21.5858 22.9188 21.25 23.333 21.25Z" fill="#067647"/>
<path d="M20.3411 19C20.3411 19.5523 19.8933 20 19.3411 20H19.3321C18.7798 20 18.3321 19.5523 18.3321 19C18.3321 18.4477 18.7798 18 19.3321 18H19.3411C19.8933 18 20.3411 18.4477 20.3411 19Z" fill="#067647"/>
<path fill-rule="evenodd" clip-rule="evenodd" d="M24.3902 13.75H24.2758C22.0851 13.75 20.3644 13.75 19.021 13.9306C17.6444 14.1157 16.5521 14.5027 15.6939 15.3609C14.8357 16.2191 14.4487 17.3114 14.2636 18.688C14.083 20.0314 14.083 21.7521 14.083 23.9428V24.0572C14.083 26.2479 14.083 27.9686 14.2636 29.312C14.4487 30.6886 14.8357 31.7809 15.6939 32.6391C16.5521 33.4973 17.6444 33.8843 19.021 34.0694C20.3644 34.25 22.0851 34.25 24.2758 34.25H24.3902C26.5809 34.25 28.3016 34.25 29.645 34.0694C31.0216 33.8843 32.1139 33.4973 32.9721 32.6391C33.8303 31.7809 34.2173 30.6886 34.4024 29.312C34.583 27.9686 34.583 26.2479 34.583 24.0572V23.9428C34.583 21.7521 34.583 20.0314 34.4024 18.688C34.2173 17.3114 33.8303 16.2191 32.9721 15.3609C32.1139 14.5027 31.0216 14.1157 29.645 13.9306C28.3016 13.75 26.5809 13.75 24.3902 13.75ZM16.7546 16.4216C17.2876 15.8885 18.0106 15.5799 19.2209 15.4172C20.4528 15.2516 22.0726 15.25 24.333 15.25C26.5934 15.25 28.2132 15.2516 29.4451 15.4172C30.6554 15.5799 31.3784 15.8885 31.9114 16.4216C32.4445 16.9546 32.7531 17.6776 32.9158 18.8879C33.0814 20.1198 33.083 21.7396 33.083 24C33.083 26.2604 33.0814 27.8802 32.9158 29.1121C32.7531 30.3224 32.4445 31.0454 31.9114 31.5784C31.3784 32.1115 30.6554 32.4201 29.4451 32.5828C28.2132 32.7484 26.5934 32.75 24.333 32.75C22.0726 32.75 20.4528 32.7484 19.2209 32.5828C18.0106 32.4201 17.2876 32.1115 16.7546 31.5784C16.2215 31.0454 15.9129 30.3224 15.7502 29.1121C15.5846 27.8802 15.583 26.2604 15.583 24C15.583 21.7396 15.5846 20.1198 15.7502 18.8879C15.9129 17.6776 16.2215 16.9546 16.7546 16.4216Z" fill="#067647"/>
</svg>
