<svg width="48" height="48" viewBox="0 0 48 48" fill="none" xmlns="http://www.w3.org/2000/svg">
<path d="M0 24C0 10.7452 10.7452 0 24 0C37.2548 0 48 10.7452 48 24C48 37.2548 37.2548 48 24 48C10.7452 48 0 37.2548 0 24Z" fill="#F3FCF6"/>
<path fill-rule="evenodd" clip-rule="evenodd" d="M15.361 32.6399C16.971 34.2499 19.32 34.25 24 34.25C28.68 34.25 31.028 34.2499 32.639 32.6409C34.25 31.0309 34.25 28.681 34.25 24C34.25 19.319 34.25 16.97 32.639 15.36C31.029 13.75 28.6801 13.75 24.0003 13.75C19.3204 13.75 16.971 13.75 15.361 15.359C13.75 16.969 13.75 19.319 13.75 24C13.75 28.681 13.75 31.0299 15.361 32.6399ZM24 15.25C28.2659 15.25 30.408 15.25 31.579 16.421C32.75 17.591 32.75 19.733 32.75 24C32.75 28.2669 32.75 30.4089 31.579 31.5789C30.4779 32.6791 28.5214 32.7457 24.7509 32.7497L24.7958 26.7503H26.8848C27.2988 26.7503 27.6348 26.4143 27.6348 26.0003C27.6348 25.5863 27.2988 25.2503 26.8848 25.2503H24.8068L24.8318 21.9152C24.8358 21.2892 25.3518 20.7803 25.9818 20.7803H28.9258C29.3398 20.7803 29.6758 20.4443 29.6758 20.0303C29.6758 19.6163 29.3398 19.2803 28.9258 19.2803H25.9818C24.5308 19.2803 23.3418 20.4572 23.3318 21.9042L23.3068 25.2503H22.0818C21.6678 25.2503 21.3318 25.5863 21.3318 26.0003C21.3318 26.4143 21.6678 26.7503 22.0818 26.7503H23.2958L23.2508 32.7497C19.4791 32.7457 17.5213 32.6793 16.421 31.5789C15.25 30.4089 15.25 28.267 15.25 24C15.25 19.7331 15.25 17.591 16.421 16.421C17.593 15.25 19.734 15.25 24 15.25Z" fill="#067647"/>
</svg>
