<svg width="49" height="48" viewBox="0 0 49 48" fill="none" xmlns="http://www.w3.org/2000/svg">
<path d="M0.666992 24C0.666992 10.7452 11.4122 0 24.667 0C37.9218 0 48.667 10.7452 48.667 24C48.667 37.2548 37.9218 48 24.667 48C11.4122 48 0.666992 37.2548 0.666992 24Z" fill="#F3FCF6"/>
<path fill-rule="evenodd" clip-rule="evenodd" d="M29.6125 36L24.063 28.0901L17.1159 36H14.1768L22.7591 26.2311L14.1768 14H21.7227L26.953 21.455L33.5063 14H36.4454L28.2613 23.3165L37.1584 36H29.6125ZM32.8855 33.77H30.9067L18.3851 16.23H20.3641L25.3791 23.2532L26.2463 24.4719L32.8855 33.77Z" fill="#067647"/>
</svg>
