<svg width="49" height="48" viewBox="0 0 49 48" fill="none" xmlns="http://www.w3.org/2000/svg">
<path d="M0.666992 24C0.666992 10.7452 11.4122 0 24.667 0C37.9218 0 48.667 10.7452 48.667 24C48.667 37.2548 37.9218 48 24.667 48C11.4122 48 0.666992 37.2548 0.666992 24Z" fill="#F3FCF6"/>
<path d="M26.8908 17.9748C26.8873 17.5812 26.5801 17.2572 26.1872 17.2329C25.7943 17.2086 25.4494 17.4921 25.3974 17.8823C25.3756 18.046 25.3749 18.2219 25.3945 18.4053L25.468 26.7073C25.1577 27.7162 24.8869 28.2035 24.6859 28.4585C24.5241 28.6639 24.4033 28.7351 24.2037 28.8527C24.1687 28.8734 24.1312 28.8954 24.0907 28.9199C23.3416 29.3724 22.6349 29.3656 22.04 29.1862C21.4251 29.0007 20.9481 28.633 20.7426 28.41C20.5221 28.1508 20.211 27.6481 20.0557 27.0409C19.9021 26.4406 19.9088 25.7784 20.2568 25.135C20.9593 23.836 22.4271 23.6553 23.0979 23.7501C23.5081 23.8081 23.8875 23.5226 23.9455 23.1125C24.0035 22.7023 23.718 22.3228 23.3079 22.2649C22.3386 22.1279 20.068 22.3309 18.9374 24.4214C18.3688 25.4727 18.3792 26.5398 18.6025 27.4127C18.8224 28.2724 19.2566 28.9827 19.6122 29.3961L19.6255 29.4112C19.993 29.8158 20.7015 30.3492 21.6068 30.6222C22.5386 30.9033 23.6961 30.9106 24.8662 30.2039C24.8908 30.189 24.9183 30.1731 24.9483 30.1558C25.1669 30.0292 25.5184 29.8256 25.8641 29.3869C26.2394 28.9106 26.5892 28.1936 26.9375 27.0305C26.959 26.9586 26.9696 26.8838 26.969 26.8087L26.9178 21.0228C27.6727 21.6516 28.717 22.1326 30.079 22.2528C30.4917 22.2892 30.8557 21.9842 30.8921 21.5716C30.9285 21.159 30.6235 20.795 30.2109 20.7586C28.8712 20.6404 28.0172 20.0915 27.5115 19.5133C27.1052 19.0489 26.9386 18.5897 26.8937 18.3013L26.8908 17.9748Z" fill="#067647"/>
<path fill-rule="evenodd" clip-rule="evenodd" d="M24.7242 13.75H24.6098C22.4191 13.75 20.6984 13.75 19.355 13.9306C17.9784 14.1157 16.8861 14.5027 16.0279 15.3609C15.1697 16.2191 14.7827 17.3114 14.5976 18.688C14.417 20.0314 14.417 21.7521 14.417 23.9428V24.0572C14.417 26.2479 14.417 27.9686 14.5976 29.312C14.7827 30.6886 15.1697 31.7809 16.0279 32.6391C16.8861 33.4973 17.9784 33.8843 19.355 34.0694C20.6984 34.25 22.4191 34.25 24.6098 34.25H24.7242C26.9149 34.25 28.6356 34.25 29.979 34.0694C31.3556 33.8843 32.4479 33.4973 33.3061 32.6391C34.1643 31.7809 34.5513 30.6886 34.7364 29.312C34.917 27.9686 34.917 26.2479 34.917 24.0572V23.9428C34.917 21.7521 34.917 20.0314 34.7364 18.688C34.5513 17.3114 34.1643 16.2191 33.3061 15.3609C32.4479 14.5027 31.3556 14.1157 29.979 13.9306C28.6356 13.75 26.9149 13.75 24.7242 13.75ZM17.0886 16.4216C17.6216 15.8885 18.3446 15.5799 19.5549 15.4172C20.7868 15.2516 22.4066 15.25 24.667 15.25C26.9274 15.25 28.5472 15.2516 29.7791 15.4172C30.9894 15.5799 31.7124 15.8885 32.2454 16.4216C32.7785 16.9546 33.0871 17.6776 33.2498 18.8879C33.4154 20.1198 33.417 21.7396 33.417 24C33.417 26.2604 33.4154 27.8802 33.2498 29.1121C33.0871 30.3224 32.7785 31.0454 32.2454 31.5784C31.7124 32.1115 30.9894 32.4201 29.7791 32.5828C28.5472 32.7484 26.9274 32.75 24.667 32.75C22.4066 32.75 20.7868 32.7484 19.5549 32.5828C18.3446 32.4201 17.6216 32.1115 17.0886 31.5784C16.5555 31.0454 16.2469 30.3224 16.0842 29.1121C15.9186 27.8802 15.917 26.2604 15.917 24C15.917 21.7396 15.9186 20.1198 16.0842 18.8879C16.2469 17.6776 16.5555 16.9546 17.0886 16.4216Z" fill="#067647"/>
</svg>
