<svg width="48" height="48" viewBox="0 0 48 48" fill="none" xmlns="http://www.w3.org/2000/svg">
<path d="M0 24C0 10.7452 10.7452 0 24 0C37.2548 0 48 10.7452 48 24C48 37.2548 37.2548 48 24 48C10.7452 48 0 37.2548 0 24Z" fill="#F3FCF6"/>
<path fill-rule="evenodd" clip-rule="evenodd" d="M25.8484 21.1419L25.7666 21.0969C24.9421 20.6425 24.2678 20.2709 23.7127 20.041C23.1491 19.8077 22.5712 19.6589 21.9828 19.8131C21.6485 19.9007 21.3347 20.0562 21.0666 20.273C20.5743 20.671 20.4003 21.2409 20.3239 21.8152C20.2501 22.3707 20.2501 23.0892 20.2501 23.9466V24.0535C20.2501 24.9108 20.2501 25.6294 20.3239 26.1849C20.4003 26.7592 20.5743 27.3291 21.0666 27.7271C21.3347 27.9439 21.6485 28.0994 21.9828 28.187C22.5712 28.3412 23.1491 28.1924 23.7127 27.959C24.2678 27.7291 24.9421 27.3576 25.7666 26.9032L25.8484 26.8581C26.6028 26.4425 27.2258 26.0992 27.6742 25.781C28.1234 25.4623 28.5496 25.0673 28.6907 24.4913C28.7699 24.168 28.7699 23.8321 28.6907 23.5087C28.5496 22.9327 28.1234 22.5378 27.6742 22.219C27.2258 21.9009 26.6028 21.5576 25.8484 21.1419ZM22.3631 21.2641C22.4703 21.236 22.6696 21.2326 23.1388 21.4269C23.6073 21.6209 24.2083 21.9508 25.083 22.4328C25.8893 22.8771 26.436 23.1797 26.8062 23.4424C27.1837 23.7102 27.2265 23.8357 27.2338 23.8656C27.2556 23.9545 27.2556 24.0456 27.2338 24.1345C27.2265 24.1643 27.1837 24.2898 26.8062 24.5577C26.436 24.8203 25.8893 25.123 25.083 25.5672C24.2083 26.0493 23.6073 26.3791 23.1388 26.5732C22.6696 26.7674 22.4703 26.7641 22.3631 26.736C22.2261 26.7001 22.1059 26.6385 22.0096 26.5606C21.964 26.5237 21.869 26.4246 21.8108 25.9872C21.7517 25.5425 21.7501 24.925 21.7501 24C21.7501 23.0751 21.7517 22.4575 21.8108 22.0128C21.869 21.5754 21.964 21.4764 22.0096 21.4394C22.1059 21.3616 22.2261 21.3 22.3631 21.2641Z" fill="#067647"/>
<path fill-rule="evenodd" clip-rule="evenodd" d="M24.0001 14.75C22.1415 14.75 20.3558 14.9336 18.6969 15.2717L18.5696 15.2977C16.675 15.6833 15.4126 15.9402 14.3247 17.3389C13.2485 18.7226 13.2491 20.3272 13.2501 22.8124V25.1876C13.2491 27.6728 13.2485 29.2774 14.3247 30.6611C15.4125 32.0598 16.675 32.3167 18.5696 32.7023L18.6969 32.7283C20.3558 33.0664 22.1415 33.25 24.0001 33.25C25.8587 33.25 27.6444 33.0664 29.3034 32.7283L29.4306 32.7023C31.3253 32.3167 32.5877 32.0598 33.6755 30.6611C34.7517 29.2774 34.7511 27.6728 34.7502 25.1876V22.8124C34.7511 20.3272 34.7517 18.7226 33.6755 17.3389C32.5877 15.9402 31.3253 15.6833 29.4306 15.2977L29.3034 15.2717C27.6444 14.9336 25.8587 14.75 24.0001 14.75ZM18.9965 16.7415C20.5542 16.424 22.2393 16.25 24.0001 16.25C25.7609 16.25 27.4461 16.424 29.0038 16.7415C31.0558 17.1598 31.7703 17.3326 32.4915 18.2598C33.2165 19.192 33.2501 20.2386 33.2501 23.0365V24.9635C33.2501 27.7614 33.2165 28.808 32.4915 29.7402C31.7703 30.6674 31.0558 30.8402 29.0038 31.2585C27.4461 31.576 25.7609 31.75 24.0001 31.75C22.2393 31.75 20.5542 31.576 18.9965 31.2585C16.9444 30.8402 16.2299 30.6674 15.5087 29.7402C14.7837 28.808 14.7501 27.7614 14.7501 24.9635V23.0365C14.7501 20.2386 14.7837 19.192 15.5087 18.2598C16.2299 17.3326 16.9444 17.1598 18.9965 16.7415Z" fill="#067647"/>
</svg>
